<svg id="Calque_1" data-name="Calque 1" xmlns="http://www.w3.org/2000/svg" viewBox="0 0 48.75 71.09"><defs><style>.cls-1{fill:#00431f;}.cls-2{fill:#1d1d1b;}.cls-3{fill:#9db7b5;}.cls-4{fill:#f4d5b2;}.cls-5{fill:#fff;}.cls-6{fill:#441b0a;}.cls-7{fill:#3c8174;}.cls-8{opacity:0.41;}.cls-9{fill:#ca9e67;}.cls-10{fill:#bb5312;}.cls-11{fill:#2b1f11;}.cls-12{fill:#e30613;}</style></defs><title>01</title><path class="cls-1" d="M836.09,562c-1.09-1.77-4.05-1.21-5.22.51s-1,4-.9,6l.34,4.85a1.61,1.61,0,0,0,.26.9,1.55,1.55,0,0,0,1.19.38l11.11.35a90.56,90.56,0,0,0,16-.46,30.25,30.25,0,0,0,14.67-5.92,11,11,0,0,0,3.44-4.27,5.47,5.47,0,0,0-.49-5.29c-2-2.61-6-2.07-9.26-1.35a185.35,185.35,0,0,1-23.3,3.65" transform="translate(-829.32 -504.79)"/><path class="cls-2" d="M836.44,561.67a3.68,3.68,0,0,0-5.34-.13c-2.62,2.35-1.64,6.89-1.43,9.93.07.89-.15,2.43.55,3.19.93,1,3.13.58,4.32.62,4.81.15,9.63.37,14.45.39,8.36,0,17.26-.93,24.15-6.1,2.52-1.89,5-4.55,4.75-7.92a5.28,5.28,0,0,0-4.5-4.84c-3.86-.74-8.13.89-11.87,1.61-5.83,1.11-11.71,1.92-17.62,2.48-.64.06-.64,1.06,0,1A236.61,236.61,0,0,0,868,558.09c3.94-.78,10.3-.34,8.7,5.5-1.17,4.28-6.43,7-10.23,8.51-7.79,3-16.31,2.66-24.52,2.41l-6.48-.2a19.63,19.63,0,0,1-2.77-.09c-1.51-.26-1.59-.31-2-1.78a25,25,0,0,1-.36-6.24c.1-2.44,2.76-7.08,5.35-3.83.41.51,1.11-.21.71-.7Z" transform="translate(-829.32 -504.79)"/><path class="cls-3" d="M829.87,505.56l0,51.74c15.87.31,31.33.65,47.12-.64,1.24-17.47-.54-33.26.12-50.75C877.15,505.24,840.64,504.81,829.87,505.56Z" transform="translate(-829.32 -504.79)"/><path class="cls-2" d="M829.49,505.56l0,51.74a.38.38,0,0,0,.37.38c15.72.3,31.44.6,47.12-.64a.39.39,0,0,0,.38-.38c.71-10.49.37-21,.12-31.5-.13-5.27-.21-10.54-.1-15.81,0-1.53.89-3.44-.73-4a16.66,16.66,0,0,0-3.93-.25c-2.37-.1-4.73-.16-7.09-.21q-9.28-.18-18.56-.15c-5.74,0-11.5,0-17.23.4-.48,0-.48.78,0,.75,10.21-.69,20.54-.46,30.77-.33,4.47.06,8.94.12,13.4.35.48,0,2.53-.15,2.88.25,0,0-.25,2.33-.25,2.65q0,2-.06,3.9c0,2.39,0,4.79,0,7.19.15,9.47.6,18.95.37,28.42,0,1.29-.07,2.58-.13,3.88,0,.86.26,2.75-.18,3.42-1,1.54-5.81,1-7.57,1.13-4.89.25-9.79.36-14.68.4s-9.8,0-14.7-.09l-6.9-.13a8.53,8.53,0,0,1-2,0c-.71-.33-.36.15-.62-.66a8.07,8.07,0,0,1,0-2.14V535.34l0-29.78A.38.38,0,0,0,829.49,505.56Z" transform="translate(-829.32 -504.79)"/><path class="cls-4" d="M830.83,521.6c-.69,14.17-.72,28.38-.11,42.55l.26-.1a15.5,15.5,0,0,1,5-7.45,30.82,30.82,0,0,0,3.36-2.76c1.69-1.86.62-5.25,2.22-7.18,1.37-1.63,1.8-4.22,2.35-6.5.21-.84.35-1.85-.29-2.42l-1.46,1.16c.69-4,.75-8.29-1.11-11.89s-6.07-6.22-10-5.18" transform="translate(-829.32 -504.79)"/><path class="cls-4" d="M830.33,521.6q-1,21.27-.11,42.55a.52.52,0,0,0,.64.49c.57-.22.4-.32.73-.81.57-.86.81-2.06,1.36-3a14.6,14.6,0,0,1,1.72-2.33c1.81-2,5-3.21,5.88-5.89.46-1.34.32-2.8.7-4.16s1.36-2.31,1.88-3.58c.78-1.91,2.23-5.49.92-7.4a.52.52,0,0,0-.79-.11l-1.46,1.16.83.49c.73-4.52.84-9.59-1.91-13.5a9.66,9.66,0,0,0-9.8-4.19c-.63.14-.36,1.1.27,1,3.89-.82,7.63,1.53,9.42,5s1.67,7.7,1.06,11.51a.51.51,0,0,0,.84.48l1.46-1.16-.79-.1c.8,1.16-.14,3.91-.52,5.15a19.08,19.08,0,0,1-1.89,3.78c-1,1.91-.38,4.33-1.5,6.17-1.36,2.22-4.38,3.49-6,5.59a16.44,16.44,0,0,0-1.7,2.66c-.12.24-.84,2.29-.95,2.33l.63.48q-.9-21.27.11-42.55c0-.65-1-.65-1,0Z" transform="translate(-829.32 -504.79)"/><path class="cls-4" d="M876.88,565.7l-.06-7.59-.28-34.75,0-.13c-2.93-.27-6.07-.51-8.64.92-3.29,1.83-4.64,5.8-5.51,9.46-.24,1-.53,4.22-.53,4.22-.32.11-1.75-1.52-2.06-1.37-.79.42-.75,1.56-.59,2.45.54,3-.37,6.27,2.16,8,1.68,1.14,2.09-.53,2.89.65,1.38,2,2.08,6.92,3.75,8.72s4.14.73,6.56,1.58,2.59,5.31,1.83,7.76" transform="translate(-829.32 -504.79)"/><path class="cls-4" d="M877.38,565.7l-.18-22-.08-10.93c0-3.09.45-6.65-.12-9.69a.51.51,0,0,0-.48-.37c-4.8-.44-9.44-.16-12.21,4.3-2,3.24-2.62,7.07-3,10.8l.64-.48c-.86-.21-1.43-1.67-2.45-1.32-1.35.47-.85,2.69-.75,3.65.36,3.39-.11,7.33,4,8.1,3.25.61,2.57,7.25,5.38,9.32,1.83,1.33,4.11.31,6,1.19,2.53,1.16,2.32,4.87,1.68,7.18a.5.5,0,0,0,1,.26c.63-2.32.88-6-1.15-7.77-1.1-1-2.65-.92-4-1-1.68-.11-3.08-.41-4-2a16.51,16.51,0,0,1-1.22-3.1,16.72,16.72,0,0,0-1.69-4.36c-.61-.88-.81-.65-1.66-.83-2.27-.47-2.92-1.4-3.15-3.61-.1-1-.07-2.07-.17-3.1,0-.23-.16-1.1-.15-1.18l.6-1.46.37.32c.38.11.64.56,1.07.67a.51.51,0,0,0,.63-.48c.34-3.65.94-7.48,3-10.59,1.83-2.75,4.72-3.74,7.93-3.72a7.32,7.32,0,0,1,2,.11c.85.36.67.67.75,1.71.1,1.48,0,3,0,4.47l.29,35.89a.5.5,0,0,0,1,0Z" transform="translate(-829.32 -504.79)"/><path class="cls-5" d="M830.3,536.72c2.13-1,4.81-1.8,6.56-.24a3.89,3.89,0,0,1-6.56.24" transform="translate(-829.32 -504.79)"/><path class="cls-5" d="M830.55,537.15c1.81-.81,4.2-1.71,6-.31l-.08-.61a3.48,3.48,0,0,1-5.78.14c-.39-.51-1.09.2-.7.71a4.46,4.46,0,0,0,7.34-.34.5.5,0,0,0-.08-.61c-2.17-1.73-4.86-.88-7.16.16-.59.26-.08,1.13.5.86Z" transform="translate(-829.32 -504.79)"/><path class="cls-5" d="M869.82,537.83c2.17-1.24,4.89-2.27,6.59-.41a4.17,4.17,0,0,1-3.29,2.36,3.62,3.62,0,0,1-3.3-1.95" transform="translate(-829.32 -504.79)"/><path class="cls-5" d="M870.08,538.26c1.78-1,4.24-2.18,6-.49l-.08-.61c-1.34,2.35-4.17,2.92-5.72.41-.34-.54-1.21,0-.87.51,1.93,3.12,5.72,2.62,7.45-.41a.51.51,0,0,0-.07-.61c-2.11-2-5-.9-7.2.33a.5.5,0,0,0,.51.87Z" transform="translate(-829.32 -504.79)"/><path class="cls-6" d="M833.55,535.73a1.38,1.38,0,1,0,1.44.8c-.55-1.13-2.47-.67-2.06.65a.85.85,0,0,0,1.25.53c.53-.38.3-1-.08-1.4a.5.5,0,0,0-.71,0,1,1,0,0,0-.13,1.38.73.73,0,0,0,1.22-.36,1.19,1.19,0,0,0-.59-1.33.78.78,0,0,0-1.08.69c-.08.63.92.63,1,0v-.11l-.14.36c-.22-.11-.28-.08-.17.09.27.2.47.19.59,0h-.71c.22.22.27-.14.51-.15s.2.08.22.21a.41.41,0,0,1-.4.42.43.43,0,0,1-.38-.37c0-.28.26-.4.48-.43.63-.09.36-1.05-.27-1Z" transform="translate(-829.32 -504.79)"/><path class="cls-7" d="M873.93,537.13a1.45,1.45,0,0,0-1,1.81,1,1,0,0,0,1.8.32c.44-.54.56-1.63-.18-2s-1.44.63-1.3,1.34a.84.84,0,0,0,1.61.1,1.08,1.08,0,0,0-1.09-1.51,1.42,1.42,0,0,0-1.07,1.77,1.06,1.06,0,0,0,1.78.54c.68-.63.69-2-.37-2.23-.86-.21-1.8,1.09-.83,1.56.58.28,1.09-.59.51-.86a.47.47,0,0,0,.17.35.37.37,0,0,1-.08.35c-.16.21-.23.12-.23-.09a.59.59,0,0,1,.15-.35c.27-.16.1.41.43.16a.31.31,0,0,1,0-.19q-.27-.21-.18,0c-.06.1,0,.26-.11.35s-.14,0-.12-.15a.5.5,0,0,1,.38-.36.5.5,0,0,0-.27-1Z" transform="translate(-829.32 -504.79)"/><path class="cls-2" d="M833.76,537.7a.5.5,0,0,0,0-1,.5.5,0,0,0,0,1Z" transform="translate(-829.32 -504.79)"/><path class="cls-2" d="M873.8,539a.5.5,0,0,0,0-1,.5.5,0,0,0,0,1Z" transform="translate(-829.32 -504.79)"/><g class="cls-8"><path class="cls-9" d="M830.64,535.55a7.28,7.28,0,0,1,5-.62" transform="translate(-829.32 -504.79)"/><path class="cls-9" d="M830.89,536a7,7,0,0,1,4.66-.58c.62.14.89-.82.26-1a8.07,8.07,0,0,0-5.42.67c-.58.29-.07,1.15.5.87Z" transform="translate(-829.32 -504.79)"/></g><g class="cls-8"><path class="cls-9" d="M870.58,536.85a5.77,5.77,0,0,1,4.59-.11,1,1,0,0,0,.43.11c.15,0,.3-.16.27-.3" transform="translate(-829.32 -504.79)"/><path class="cls-9" d="M870.83,537.28a5.55,5.55,0,0,1,4-.12c.65.21,1.22.28,1.47-.48.21-.61-.76-.88-1-.27.14-.42-2.25-.6-2.53-.59a6.75,6.75,0,0,0-2.53.6c-.59.26-.08,1.12.5.86Z" transform="translate(-829.32 -504.79)"/></g><g class="cls-8"><path class="cls-9" d="M864.46,529.11c-.61,2.25.93,4.76,0,6.9-.3.7-.84,1.27-1.16,2-.77,1.61-.27,3.53.51,5.13a25.05,25.05,0,0,1,2.26,4.81,13.25,13.25,0,0,0,.78,3.2c.79,1.5,2.66,2.3,3.18,3.91.21.64-.26,2,.41,2,2.12-.19,4.23.09,2.71,3.51a19.91,19.91,0,0,1-4-1.54,6.57,6.57,0,0,1-2.91-3,14.81,14.81,0,0,1-.73-3.63,14.73,14.73,0,0,0-.82-3.08,3.28,3.28,0,0,0-.82-1.35c-.56-.49-1.36-.62-1.93-1.08a3.63,3.63,0,0,1-1-1.66,17.44,17.44,0,0,1-1.12-5.89,2.11,2.11,0,0,1,.22-1.14.75.75,0,0,1,1-.3c.17.12.32.34.52.29s.22-.21.26-.37c.22-.93.3-1.89.46-2.84a16.13,16.13,0,0,1,1.78-5.07l.47.55" transform="translate(-829.32 -504.79)"/><path class="cls-9" d="M864,529c-.3,1.69.21,3.12.26,4.79.06,2.17-1.58,3.46-1.79,5.5-.33,3.41,2.54,6,3.23,9.17a8,8,0,0,0,1.38,3.79c.48.58,1.1,1,1.6,1.58.87,1,.7,1.35.92,2.44.13.65,0,.89.68,1.19.34.16.79-.05,1.16,0,1.92.27,1.85,1.41,1.25,2.92l.62-.35c-2.12-.66-4.44-1.35-5.85-3.19-1.16-1.51-1.15-3.25-1.48-5a9.86,9.86,0,0,0-1.21-3.63,4.4,4.4,0,0,0-1.21-1.1,6.37,6.37,0,0,1-2.39-2.85c-.45-1.25-1.74-5.06-.2-5.83.13-.07.61.44.87.17a2.65,2.65,0,0,0,.67-1.62,23.28,23.28,0,0,1,2-6.84l-.78.1.47.54c.42.49,1.12-.22.7-.71l-.47-.54a.5.5,0,0,0-.78.1,20.05,20.05,0,0,0-2,6.14c-.08.63-.19,1.26-.32,1.89.09-.1.08-.17,0-.22s-.66-.18-.93-.1c-2.44.66-.45,6.68.08,8,.65,1.57,1.34,1.66,2.58,2.64,2.32,1.86,1.75,5,2.51,7.47,1,3.38,4.39,4.63,7.47,5.59a.51.51,0,0,0,.62-.35c.66-1.68.89-3.56-1.21-4.08-.34-.09-1.27.06-1.49-.09-.54-.37-.23-.92-.4-1.44a7,7,0,0,0-1.87-2.57,7.31,7.31,0,0,1-1.81-3,27.49,27.49,0,0,0-.79-3.06c-.68-1.65-1.85-3.09-2.35-4.82-.78-2.73.93-3.81,1.45-6.11.47-2-.59-4.09-.23-6.16.11-.63-.85-.9-1-.27Z" transform="translate(-829.32 -504.79)"/></g><path class="cls-6" d="M836.39,557.56a20.79,20.79,0,0,0-4.06,4.85,5.63,5.63,0,0,1-1.13,1.51,1.28,1.28,0,0,0-.38.39,1.2,1.2,0,0,0-.06.33,21.49,21.49,0,0,0,.24,5.13,2.76,2.76,0,0,0,1,2,3,3,0,0,0,1.28.34l3.16.35c1.53.17,3.07.34,4.58.63,2.84.53,5.88,1.45,8.51.24.92-.41,1.8-1.09,2.8-1,.83,0,1.72.54,2.41.09s.53-1.61.28-2.46a22,22,0,0,1-.73-3.94c-.24-2.57,0-5.31-1.34-7.54l-.16-.12c-.54-1.16-.23-2.5-.07-3.77a30.07,30.07,0,0,0,.13-4.35l-.13-7.32a14.64,14.64,0,0,0-.77-5.36,35.2,35.2,0,0,1-1.52-3.24c-.61-2.08.06-4.61-1.34-6.26-.84-1-2.23-1.38-3-2.38s-.89-2.33-1.47-3.44a4.45,4.45,0,0,0-3.22-2.31c-1.18-.19-2.43.11-3.57-.25a10.74,10.74,0,0,1-2-1.06,4.62,4.62,0,0,0-2.65-.66,2.61,2.61,0,0,0-2.18,1.49,4.13,4.13,0,0,0-.23,1.26l-.47,5.83-.09.17c.5.19.92-.4,1.42-.59.68-.24,1.38.32,1.84.88s1,1.22,1.67,1.28c.4,0,.79-.13,1.18-.1.89,0,1.45,1,1.7,1.83A4.63,4.63,0,0,0,839,532.3c.24.21.54.35.77.57.69.66.56,1.77.55,2.72a8.32,8.32,0,0,0,1,4,2.57,2.57,0,0,0,1.12-1c.23-.39.59-.94,1-.71a.71.71,0,0,1,.23.28c.76,1.45.28,3.25-.42,4.74s-1.61,3-1.68,4.62a6.47,6.47,0,0,1-.18,2.33c-.28.67-.93,1.14-1.19,1.82s0,1.63-.34,2.38c-.41,1-1.66,1.43-2.54,2.14a7.57,7.57,0,0,0-1.79,2.52,4.18,4.18,0,0,0-.56,1.57,4,4,0,0,0,.52,1.88Z" transform="translate(-829.32 -504.79)"/><path class="cls-6" d="M836,557.2a28,28,0,0,0-4.14,5c-1.27,1.81-1.71,2-1.7,4.2,0,1.48,0,3.68.8,5s2.13,1.19,3.42,1.33c2.74.31,5.44.65,8.15,1.17a13.27,13.27,0,0,0,6.26.21c1.51-.45,2.51-1.26,4.27-1.19.63,0,1.12.27,1.73-.07a1.9,1.9,0,0,0,.86-2c-.12-2.27-.93-4.53-1.07-6.85a17.93,17.93,0,0,0-1.28-5.84c-.56-1.44-.19-2.92-.07-4.51.21-2.81,0-5.69,0-8.51a26.79,26.79,0,0,0-.53-6.93,13.35,13.35,0,0,0-1-2.26,12.54,12.54,0,0,1-1.16-4.63,5.86,5.86,0,0,0-1.37-3.91,22.24,22.24,0,0,0-1.95-1.39c-1.37-1.13-1.46-2.68-2.26-4.11a5.1,5.1,0,0,0-3.65-2.55c-2-.35-3.48-.32-5.32-1.24a6,6,0,0,0-2.22-.73,3.28,3.28,0,0,0-3.33,1.8,9.21,9.21,0,0,0-.39,2.91c-.09,1.1.14,3.28-.37,4.29a.5.5,0,0,0,.43.75c.29,0,1-.38,1.2-.38,2,0,1.52,1,2.83,1.65a7.31,7.31,0,0,0,.9.3,2.11,2.11,0,0,1,2.4,1.36c.11.43.24.87.38,1.29.63,1.43,1.73,1.79,2,3.52s.22,3.26,1,5a.51.51,0,0,0,.69.18c.75-.5,1.48-1.85,2-.34s-1.23,3.79-1.81,5.2a12,12,0,0,0-.67,2.62,17.3,17.3,0,0,1-1.35,4,9.32,9.32,0,0,0-.17.92c-.83,2.79-1,2.12-2.48,3.29a6.63,6.63,0,0,0-1.4,1.68c-1.12,1.8-1.45,3.06-.61,5a.5.5,0,0,0,.91-.12l1-4.58c.13-.63-.84-.9-1-.27L835,562l.91-.12c-1.36-3.11,1.51-4.89,3.37-6.43a3.5,3.5,0,0,0,1.21-2.08c.41-1.24,1.12-2.53,1.47-3.79a8.78,8.78,0,0,0,.11-1.7,9.5,9.5,0,0,1,1.06-3.63c.76-1.63,2.35-4.61,1-6.38-1.18-1.5-2.06.64-3,1.27l.69.18c-1-2.19-.31-4.69-1.52-6.71a18.7,18.7,0,0,1-1.72-2.51,5.18,5.18,0,0,0-.83-1.76,2.49,2.49,0,0,0-1.3-.75c-.51-.16-.84,0-1.44-.22-.81-.3-.87-.56-1.46-1.09a2.54,2.54,0,0,0-1.25-.76c-.92-.15-1.23.54-2.1.59l.43.75a7.79,7.79,0,0,0,.35-2.85,12.76,12.76,0,0,1,.24-2.91c.2-.58,2.39-2.62,3.19-2.63.57,0,1.31.61,1.81.87a7.94,7.94,0,0,0,3.83.92c3.11.17,3.81,1.71,4.92,4.26A5.56,5.56,0,0,0,847,527a5.49,5.49,0,0,1,2.22,2.36,13.23,13.23,0,0,1,.42,3.39,9.67,9.67,0,0,0,1,3.32,14.6,14.6,0,0,1,1.51,6.72,93.46,93.46,0,0,1-.09,12.3c-.29,2.71.87,3.75,1.3,6.27.31,1.78.22,3.61.45,5.39.27,2,1.8,4.37-1.1,5a10.5,10.5,0,0,0-2.47.53c-2.8,1.24-4.91,1.07-7.87.48-1.84-.36-3.67-.63-5.54-.85l-2.83-.31c-2.23-.27-2.57-1.6-2.75-3.58a6.4,6.4,0,0,1,1.15-4.87,30.45,30.45,0,0,1,4.32-5.29C837.22,557.48,836.52,556.77,836,557.2Z" transform="translate(-829.32 -504.79)"/><g class="cls-8"><path class="cls-10" d="M869.92,536.07c2.27-.75,4.58-.81,6.88-1.33.63-.14.36-1.11-.27-1-2.31.52-4.59.57-6.87,1.33-.61.2-.35,1.17.26,1Z" transform="translate(-829.32 -504.79)"/></g><path class="cls-10" d="M876.72,518.69c.68,1.68,0,3.59.2,5.39.12.95.47,2.06-.19,2.76a2.43,2.43,0,0,1-1.13.57,18.77,18.77,0,0,1-5.52,1.12,11.92,11.92,0,0,0-3.73.16c-1.82.6-2.87,2.5-3.4,4.35s-.73,3.81-1.67,5.49l.09-.08a23.62,23.62,0,0,0,.08,5.82,6,6,0,0,0,.72,2.37c.41.64,1,1.13,1.45,1.76a17.25,17.25,0,0,1,2.52,5.24c.64,3.11,4,2.75,7,3.89,1.5.58.79,3.42,2,4.46a7.43,7.43,0,0,1,1.62,2.21,6.07,6.07,0,0,1,.78,2,6.87,6.87,0,0,1-.06,1.81l-.62,4.72a1.78,1.78,0,0,1-.46,1.19,1.68,1.68,0,0,1-.78.29c-6.8,1.35-13.86-.06-20.75.68-.36,0-.8,0-1-.29s.22-.73.51-1c1.09-1.12,1-2.92.76-4.47l-.75-5.84a16.69,16.69,0,0,0-1.52-5.94l.15.27c-.63-1.79-.06-3.76.08-5.66.17-2.07-.19-4.17,0-6.24.15-1.27.51-2.51.64-3.78s0-2.65.07-4a6.27,6.27,0,0,1,1.21-3.72c.49-.59,1.14-1,1.68-1.58,1.9-2,2.16-4.9,2.69-7.57a6.55,6.55,0,0,1,.78-2.29,6.36,6.36,0,0,1,1.69-1.66,20.49,20.49,0,0,1,9.23-3.74c1.87-.25,3.93-.2,5.4,1Z" transform="translate(-829.32 -504.79)"/><path class="cls-10" d="M876.23,518.82c.45,1.53.11,2.94.14,4.48,0,1.69.69,2.76-1.35,3.77-2.63,1.29-5.38.5-8.07,1-4.77.84-4.45,6.85-6.1,10.24a.5.5,0,0,0,.79.6l.09-.08-.86-.35c-.28,3.09-.43,6.51,1.41,9.14a21.24,21.24,0,0,1,3.22,5.55,5.81,5.81,0,0,0,1,2.42c1.83,2,5.92,1,7.09,3.62.41.9.24,1.94.82,2.8,1.27,1.89,2.66,3,2.55,5.57a20,20,0,0,1-.41,3.28l-.12.95c-.1,1.45-.74,2.15-1.93,2.11-2,.67-4.83.44-6.92.42s-4.1-.1-6.16-.14c-1,0-1.89,0-2.84,0s-2.54.46-3.3.18c-1-.36-.39-.21-.1-1.05a9.66,9.66,0,0,0,.48-1.34,13.64,13.64,0,0,0-.23-4.32c-.45-3.54-.58-7.31-2.15-10.58l-.87.51.16.28a.5.5,0,0,0,.91-.39c-.62-2.4.16-4.87.14-7.31a42,42,0,0,1,.49-7.16c.34-2.14-.11-4.4.41-6.5s2.45-3,3.52-4.75a12.88,12.88,0,0,0,1.44-4.32c.61-3.06,1.22-5.07,4.05-6.8a19.93,19.93,0,0,1,6.07-2.46c1.54-.34,5.74-1.15,6.64.79.28.58,1.14.08.87-.5-1.48-3.15-7.91-1.36-10.19-.55a18,18,0,0,0-6,3.35c-1.87,1.69-2,3.93-2.46,6.28a9.93,9.93,0,0,1-1.67,4.23c-.72.93-1.73,1.56-2.39,2.54-1.29,1.93-1,4.22-1.07,6.42-.1,3.06-.78,5.9-.7,9,.06,2.69-.77,5.4-.09,8l.91-.39-.15-.28c-.32-.57-1.14-.06-.87.51,1.49,3.1,1.59,6.71,2,10.07a16,16,0,0,1,.32,3.52c-.14,1.38-1.2,2.05-1.38,3.31a.53.53,0,0,0,.23.56c.92.65,2,.27,3.09.21,1.89-.11,3.79-.08,5.68,0a78.72,78.72,0,0,0,10.86-.13c1.94-.22,3.57-.12,4.06-2.2.58-2.49,1.23-5.88.17-8.28a18.36,18.36,0,0,0-2-3c-.71-1-.58-2.16-1-3.27-.72-1.72-2.77-1.77-4.37-2.19a4.36,4.36,0,0,1-3.6-3.3,19.44,19.44,0,0,0-1.66-3.55c-.88-1.49-2.29-2.66-2.73-4.36a19.77,19.77,0,0,1-.2-6.51c0-.46-.56-.63-.85-.36l-.09.08.78.61c1.24-2.54,1.15-5.77,2.88-8,2-2.6,6.38-1.53,9.33-2.3,1.35-.35,3.25-.6,3.63-2.19.31-1.26-.2-2.82-.12-4.11a10.18,10.18,0,0,0-.23-3.57A.5.5,0,0,0,876.23,518.82Z" transform="translate(-829.32 -504.79)"/><path class="cls-11" d="M830.59,533.3a3.75,3.75,0,0,1,2.4-1.08,8.13,8.13,0,0,0,2.09,0c.61-.2.35-1.16-.27-1a5,5,0,0,1-1.54-.07,4.8,4.8,0,0,0-1.25.14,4.85,4.85,0,0,0-2.14,1.23c-.46.45.24,1.16.71.71Z" transform="translate(-829.32 -504.79)"/><g class="cls-8"><path class="cls-12" d="M830.32,549a8.86,8.86,0,0,0,2,.64,3,3,0,0,0,1.85-.57l-.6-.79a9.15,9.15,0,0,1-3.68,2.84l.61.35a6.85,6.85,0,0,1,0-2.43l-.73.29a3.56,3.56,0,0,1,.73.72l.3-.73a.9.9,0,0,0-.77.58.5.5,0,0,0,.68.68,1.61,1.61,0,0,0,.9-1.34.51.51,0,0,0-.76-.43,3,3,0,0,0-1.14,1.58.51.51,0,0,0,.62.62,7.26,7.26,0,0,0,1.66-.74l-.69-.68c-.69.91,1,1.63,1.2.5,0-.29-.13-.67-.49-.64l-.44,0,.43.75.2-.33a.5.5,0,0,0-.86-.51l-.2.34a.5.5,0,0,0,.43.75l.44,0-.48-.63.64.27c.31-.41-.29-.92-.69-.68a6,6,0,0,1-1.42.63l.62.62a1.8,1.8,0,0,1,.68-1l-.75-.43a.6.6,0,0,1-.4.48l.68.68.18-.12a.5.5,0,0,0,.3-.73,5.63,5.63,0,0,0-1.1-1.08.5.5,0,0,0-.73.3,8.24,8.24,0,0,0,.05,3,.51.51,0,0,0,.62.35,10.23,10.23,0,0,0,4.11-3.1c.33-.41-.08-1.1-.6-.78a1.93,1.93,0,0,1-1.72.33c-.48-.14-.94-.34-1.41-.5s-.87.74-.27,1Z" transform="translate(-829.32 -504.79)"/></g><g class="cls-8"><path class="cls-12" d="M877.18,548.61a3.86,3.86,0,0,1-3.56-.62.5.5,0,0,0-.73.56c.59,1.56,1.36,3.33,3.14,3.78.52.13,1.3.2,1.57-.38a3.71,3.71,0,0,0-.25-2.36.5.5,0,0,0-.73-.3,1.65,1.65,0,0,1-1.91,0,.51.51,0,0,0-.69.69,4.82,4.82,0,0,0,1.31,1.46.5.5,0,0,0,.68-.18,1,1,0,0,0-.31-1.41c-.39-.3-.79.19-.73.57a.77.77,0,0,0,1.32.37.51.51,0,0,0-.35-.86.78.78,0,0,0-.54,1.32,1,1,0,0,0,1.63-.57.7.7,0,0,0-1.14-.75c-.65.58,0,1.4.68,1.44s.64-1,0-1l-.63.56-.36-.85.35.07-.73.56-.05,0,.68-.18a3.71,3.71,0,0,1-.94-1.11l-.69.69a2.65,2.65,0,0,0,2.92,0l-.73-.3c.14.4.45,1.17.29,1.58,0,.18,0,.18,0,0l-.34,0a2.47,2.47,0,0,1-.75-.36,5.38,5.38,0,0,1-1.69-2.73l-.73.57a4.82,4.82,0,0,0,4.33.73c.61-.19.35-1.16-.27-1Z" transform="translate(-829.32 -504.79)"/></g><path class="cls-2" d="M829.49,505.7l0,51.27v18.18a.38.38,0,0,0,.37.37c15.72.41,31.46.81,47.12-.86a.38.38,0,0,0,.38-.37c.59-11.66.47-23.33.26-35-.11-5.85-.24-11.7-.28-17.55,0-2.74,0-5.47,0-8.21l.06-4.4c0-.76.42-2.51.05-3.09s-1.39-.52-2-.58c-2.09-.21-4.2-.27-6.3-.35-6.59-.24-13.18-.32-19.77-.32s-13.07-.05-19.55.53c-.48.05-.48.8,0,.75,11.91-1.08,24.1-.65,36-.32,2.46.07,4.91.15,7.36.3.78.05,1.56.09,2.34.17a2.87,2.87,0,0,1,.88.11c.67.48.08-.76.25.82a73.33,73.33,0,0,1-.12,7.84c0,3,0,6.09,0,9.14.06,5.53.18,11,.28,16.58s.18,11,.16,16.58c0,2.73,0,5.45-.11,8.18,0,1.3-.07,2.6-.11,3.89s.4,3.91-.83,4.66c-.9.54-3.43.32-4.43.4-1.31.11-2.62.2-3.93.28-3.1.19-6.2.31-9.3.38-5.55.12-11.09.08-16.64,0-3,0-5.91-.12-8.87-.2a8.47,8.47,0,0,1-2-.05c-.7-.33-.37.14-.62-.67a10.22,10.22,0,0,1,0-2.65V537.82l0-32.12A.38.38,0,0,0,829.49,505.7Z" transform="translate(-829.32 -504.79)"/></svg>