<svg id="Calque_1" data-name="Calque 1" xmlns="http://www.w3.org/2000/svg" viewBox="0 0 162.38 132.28"><defs><style>.cls-1{fill:#c6c6c6;}.cls-2{fill:#878787;}.cls-3{fill:#f6f6f6;}.cls-3,.cls-6{stroke:#1d1d1b;stroke-miterlimit:10;stroke-width:1.5px;}.cls-4{opacity:0.11;}.cls-5{fill:#1d1d1b;}.cls-6{fill:none;}.cls-7{fill:#fff;}</style></defs><title>02</title><path class="cls-1" d="M781.27,479.93c-2.73,1.4-3.29,5-3.5,8-2.12,31.81-1.34,63.74-.55,95.62.11,4.3.29,8.86,2.67,12.46,3,4.58,8.86,6.4,14.33,7,7.86.81,15.78-.32,23.67-.85,15-1,30,.19,45,.57a417.62,417.62,0,0,0,64.79-3.4,3,3,0,0,0,1.86-.68,3,3,0,0,0,.57-2.15c0-7.74-2-15.37-2.09-23.11s1.75-15.23,2.85-22.83c3-20.47.75-41.3-1.63-61.85-.2-1.67-.44-3.45-1.58-4.69s-3.29-1.72-5.16-1.95c-46.08-5.55-92.78,2.59-139.1-.35" transform="translate(-772.12 -474.52)"/><path class="cls-1" d="M781,479.5c-2.32,1.39-3.16,3.81-3.53,6.39-.58,4.08-.6,8.3-.8,12.41-.45,9.36-.67,18.72-.75,28.09-.15,18.74.3,37.48.77,56.21.16,6.63.6,13.56,6.69,17.53s14.57,3.9,21.67,3.51c9.35-.51,18.59-1.44,28-1.36s18.58.62,27.87.9a420.43,420.43,0,0,0,56-2.08q3.43-.36,6.85-.78c1.66-.2,3.8-.1,5.35-.82,2.63-1.22,1.4-6.15,1.2-8.31-.42-4.49-1.21-9-1.59-13.45a64.09,64.09,0,0,1,.6-14.71c1.29-8.83,2.93-17.49,3.31-26.43a219.07,219.07,0,0,0-.8-27.59c-.38-4.53-.84-9-1.34-13.55-.37-3.3-.12-7.84-1.81-10.82-1.38-2.43-4.15-2.82-6.69-3.13-4.66-.56-9.34-1-14-1.26-37-2.37-74,2.34-111,1.54q-6.81-.15-13.61-.57c-.64,0-.64,1,0,1,34.26,2.12,68.48-1.7,102.74-1.64,8.58,0,17.16.28,25.71.94,4.13.32,8.62.36,12.64,1.38,5.09,1.3,4.49,7.88,5,12.08,1.88,16.83,3.33,33.87,1.52,50.78-.9,8.44-3.09,16.74-3.41,25.24a74.94,74.94,0,0,0,.83,12.51c.28,2.08.57,4.15.8,6.24s1,4.86.42,6.75a3.42,3.42,0,0,1-2.15,2.35,10.91,10.91,0,0,1-1.73.23l-3.42.42q-3.16.38-6.36.7-6.6.67-13.23,1.14-12.76.9-25.56,1c-17.31.15-34.6-1.44-51.91-1-8.7.22-17.36,1.58-26.07,1.46-7.31-.11-16.69-1.39-19.89-9.06-1.53-3.65-1.47-7.73-1.56-11.62q-.16-6.4-.31-12.82-.3-13.06-.44-26.14c-.14-17.41.08-34.84,1.14-52.23.22-3.55,0-8.47,3.44-10.56a.5.5,0,0,0-.51-.86Z" transform="translate(-772.12 -474.52)"/><path class="cls-2" d="M778.46,581q37.86.3,75.71-.76c8.8-.24,17.6-.54,26.38-1.15,15.52-1.08,31-3.12,46.56-2.1,1.34.08,2.83.26,3.72,1.27a5,5,0,0,1,1,2.82A39.05,39.05,0,0,1,930,597.78a7.58,7.58,0,0,1-2.24,3.75,8.19,8.19,0,0,1-4.16,1.26c-36.71,4.06-73.8-.41-110.72.54-8.71.23-17.51.74-26-1a16.26,16.26,0,0,1-5.84-2.11,13.08,13.08,0,0,1-5.17-8.32,39,39,0,0,1-.38-10" transform="translate(-772.12 -474.52)"/><path class="cls-2" d="M778.46,581.47q33.63.25,67.24-.54c11-.26,21.95-.53,32.9-1.24,11.22-.72,22.41-2,33.65-2.4,2.64-.09,5.28-.13,7.93-.1s5.67-.22,8.22.43c3.63.93,3.17,5.39,3.13,8.33a38.41,38.41,0,0,1-1,8.27c-.65,2.75-1.34,6.32-4.22,7.5-2.52,1-5.83.91-8.53,1.15-5.52.48-11.06.78-16.6,1-21.91.69-43.81-.62-65.7-1-12.37-.23-24.75.56-37.1.24-5.63-.15-13.75-.08-18.21-4.1-4.73-4.25-4.46-11.24-4.19-17,0-.64-1-.64-1,0-.23,4.93-.43,10.18,2,14.63,2.21,4,5.91,5.57,10.18,6.39,11.48,2.2,23.42.81,35,.77,24.37-.09,48.71,1.66,73.08,1.27,5.87-.1,11.74-.32,17.59-.72,2.94-.21,5.86-.45,8.79-.75,2.09-.22,4.59-.23,6.36-1.54,3.12-2.3,3.73-8.06,4.17-11.56a39.09,39.09,0,0,0,.2-8c-.14-1.74-.22-3.78-1.73-4.94-1.26-1-3.07-1-4.57-1-3.13-.19-6.27-.24-9.41-.21-6.12.06-12.23.45-18.33.93-12.13,1-24.22,1.94-36.39,2.36-27.83.95-55.69,1.2-83.53,1a.5.5,0,0,0,0,1Z" transform="translate(-772.12 -474.52)"/><path class="cls-3" d="M931.94,603.7c-1.43,3.07-156,3.21-157.64,0s-2.18-122.75,0-126.39,154.41-1.61,157.64,0S933.38,600.63,931.94,603.7Zm-6.62-118.65c-3-1.43-142.87-3.21-144.87,0s-1.49,108.63,0,111.47,143.55,2.71,144.87,0S928.28,486.47,925.32,485.05Z" transform="translate(-772.12 -474.52)"/><g class="cls-4"><path class="cls-5" d="M774.33,603.31a14.41,14.41,0,0,1,5.84-6.29q-2.13-54.21-.3-108.51c0-1.46.17-3.11,1.11-4a3.6,3.6,0,0,1,2.59-.77q71-2,142.07,1.15c-14-8.4-30.15-8.76-45.71-8.92-35.29-.38-70.59-.6-105.84,1.51q-2,62.64-.06,125.35" transform="translate(-772.12 -474.52)"/><path class="cls-5" d="M774.76,603.56a15,15,0,0,1,5.66-6.11.5.5,0,0,0,.25-.43q-1.93-49.75-.57-99.55.07-3,.17-6c.07-2-.49-6.29,2.06-7.17,1.74-.6,4.37-.21,6.2-.25l7-.17q12.42-.27,24.84-.38,24.84-.24,49.68.16,27.82.45,55.63,1.67a.5.5,0,0,0,.25-.93c-16-9.42-34.93-8.89-52.89-9.06-21.1-.21-42.21-.31-63.32.16-11.87.26-23.73.71-35.59,1.42a.51.51,0,0,0-.5.5q-2,62.66-.06,125.35c0,.64,1,.64,1,0q-1.72-55.2-.37-110.44.09-3.48.19-7l.09-3c0-.83-.31-3.26.12-4,.73-1.2,5.08-.81,6.45-.88,2.31-.12,4.61-.23,6.92-.33q13.85-.6,27.69-.82c18.3-.32,36.61-.24,54.91-.07,18.51.18,38.32-.78,54.86,9l.25-.94q-54.1-2.37-108.29-1.8-13.67.13-27.33.48c-2.14,0-4.31,0-6.45.17a4.36,4.36,0,0,0-3,.92c-2.09,2-1.33,6.8-1.41,9.36q-.83,27.12-.65,54.26.09,15.18.49,30.36.19,7.47.47,14.93c0,1.07.47,3-.25,3.92a16,16,0,0,1-1.92,1.48,16.47,16.47,0,0,0-3.45,4.62c-.3.57.56,1.07.86.5Z" transform="translate(-772.12 -474.52)"/></g><path class="cls-6" d="M931.94,603.7c-1.43,3.07-156,3.21-157.64,0s-2.18-122.75,0-126.39,154.41-1.61,157.64,0S933.38,600.63,931.94,603.7Zm-6.62-118.65c-3-1.43-142.87-3.21-144.87,0s-1.49,108.63,0,111.47,143.55,2.71,144.87,0S928.28,486.47,925.32,485.05Z" transform="translate(-772.12 -474.52)"/><path class="cls-5" d="M775.38,604.07a40.13,40.13,0,0,1,5.27-7c.44-.47-.27-1.18-.71-.71a42.57,42.57,0,0,0-5.43,7.23c-.33.55.54,1,.87.5Z" transform="translate(-772.12 -474.52)"/><path class="cls-5" d="M774.41,478.06a22.78,22.78,0,0,1,5.29,6.51.5.5,0,0,0,.87-.51,23.72,23.72,0,0,0-5.45-6.71c-.49-.41-1.2.3-.71.71Z" transform="translate(-772.12 -474.52)"/><path class="cls-5" d="M925.14,596.58a28.4,28.4,0,0,1,6.28,7.1c.34.54,1.21,0,.86-.51a29.31,29.31,0,0,0-6.43-7.3c-.5-.4-1.21.3-.71.71Z" transform="translate(-772.12 -474.52)"/><path class="cls-5" d="M926.2,485a10,10,0,0,1,5.89-6.28c.6-.21.34-1.18-.27-1a11,11,0,0,0-6.58,7c-.22.61.74.87,1,.27Z" transform="translate(-772.12 -474.52)"/><path class="cls-2" d="M801.7,531.39c1.36,1.21,1.4,3.29,1.34,5.12a5.12,5.12,0,0,1-.49,2.43,1.8,1.8,0,0,1-2.09.94,12.29,12.29,0,0,0,1.64-6.65" transform="translate(-772.12 -474.52)"/><path class="cls-2" d="M801.34,531.74a4.89,4.89,0,0,1,1.21,3.61c0,1.21.2,4.53-2,4l.3.73a13.62,13.62,0,0,0,1.71-6.9.5.5,0,0,0-1,0,12.58,12.58,0,0,1-1.57,6.4.5.5,0,0,0,.3.73c4.48,1,3.67-7.35,1.72-9.33-.45-.46-1.16.25-.71.71Z" transform="translate(-772.12 -474.52)"/><path class="cls-2" d="M837,529.61a7.86,7.86,0,0,1,.77,4.72,4.8,4.8,0,0,1-1.23,2.72,2.75,2.75,0,0,1-2.77.76,17.58,17.58,0,0,0,2.83-7" transform="translate(-772.12 -474.52)"/><path class="cls-2" d="M836.57,529.86c1,2.15,1.43,8.45-2.67,7.47l.3.73a18.93,18.93,0,0,0,2.88-7.14c.12-.63-.85-.9-1-.26a18.45,18.45,0,0,1-2.78,6.9.5.5,0,0,0,.3.73,3.59,3.59,0,0,0,4.18-2.3,8.15,8.15,0,0,0-.39-6.64c-.27-.58-1.14-.07-.86.51Z" transform="translate(-772.12 -474.52)"/><path class="cls-2" d="M856.52,533.25a4.62,4.62,0,0,1-1.89,8.53,12.49,12.49,0,0,0,1.6-7.45" transform="translate(-772.12 -474.52)"/><path class="cls-2" d="M856.27,533.68a4.17,4.17,0,0,1-1.77,7.62l.56.74a13.63,13.63,0,0,0,1.67-7.71c0-.64-1-.64-1,0a12.62,12.62,0,0,1-1.53,7.2.51.51,0,0,0,.56.74,5.18,5.18,0,0,0,2-9.45c-.53-.37-1,.5-.5.86Z" transform="translate(-772.12 -474.52)"/><path class="cls-2" d="M870.88,532.06A6.82,6.82,0,0,1,872,537a3.93,3.93,0,0,1-3.55,3.22,1.53,1.53,0,0,1-1.32-.56,1.87,1.87,0,0,1,.13-1.74,12.27,12.27,0,0,1,1.6-2.61" transform="translate(-772.12 -474.52)"/><path class="cls-2" d="M870.45,532.31c1.14,1.94,1.86,4.59.11,6.41-.89.93-3.36,1.73-2.8-.63a8.11,8.11,0,0,1,1.55-2.54c.4-.51-.47-1-.86-.5-.84,1.09-2.56,3.24-1.78,4.73.59,1.13,2.14,1.07,3.17.65,3.59-1.49,3.1-5.88,1.48-8.62-.33-.55-1.2,0-.87.5Z" transform="translate(-772.12 -474.52)"/><path class="cls-2" d="M887.6,532.1a8.73,8.73,0,0,1,.48,4.42,3.21,3.21,0,0,1-3.15,2.64c-.14,0-.3-.06-.33-.2s.23-.22.23-.08" transform="translate(-772.12 -474.52)"/><path class="cls-2" d="M887.12,532.24a8.08,8.08,0,0,1,.48,4.15,3.44,3.44,0,0,1-.75,1.44c-.26.29-1.47,1.27-1.9.78l.08.6.1-.14-.68.18.13.06c.58.28,1.08-.58.5-.86l-.12-.06a.52.52,0,0,0-.69.17l-.1.15a.5.5,0,0,0,.08.61c1,1.12,3-.27,3.59-1.13,1.36-1.83.83-4.2.24-6.22a.5.5,0,0,0-1,.27Z" transform="translate(-772.12 -474.52)"/><path class="cls-2" d="M899.88,528.26a4.38,4.38,0,0,1-3.54,7.65c-.39-.06-.86-.3-.81-.69" transform="translate(-772.12 -474.52)"/><path class="cls-2" d="M899.53,528.61a4,4,0,0,1,1,4.61,3.85,3.85,0,0,1-1.85,1.82c-.38.19-2.5.9-2.65,0-.12-.63-1.08-.36-1,.27.45,2.44,4.6.54,5.57-.5a5,5,0,0,0-.38-6.94c-.46-.45-1.17.25-.71.7Z" transform="translate(-772.12 -474.52)"/><path class="cls-2" d="M911.82,530.81a7.19,7.19,0,0,1,2.1,6.51,3.57,3.57,0,0,1-1.58,2.53,4.76,4.76,0,0,1-3.19.14" transform="translate(-772.12 -474.52)"/><path class="cls-2" d="M911.47,531.16a6.86,6.86,0,0,1,2.07,4.8,5,5,0,0,1-.58,2.57c-.92,1.43-2.29,1.22-3.67,1-.63-.11-.9.85-.27,1,2.51.45,4.63,0,5.32-2.76a7.75,7.75,0,0,0-2.16-7.25.5.5,0,0,0-.71.7Z" transform="translate(-772.12 -474.52)"/><path class="cls-7" d="M800.53,539.93a7.64,7.64,0,0,1,2.05,6.16c-.22.52-1,.47-1.52.34-.94-.24-2-.57-2.4-1.45a3.24,3.24,0,0,1,.23-2.41l.56-1.52a1.23,1.23,0,0,1,.4-.63c.21-.14.57-.08.63.17" transform="translate(-772.12 -474.52)"/><path class="cls-7" d="M800.18,540.28a7.35,7.35,0,0,1,1.64,2.82c.19.61.78,2.67-.17,2.91a2.57,2.57,0,0,1-2.65-1.82,4,4,0,0,1,.37-1.48,10.18,10.18,0,0,0,.67-1.87c.39.5,1.26,0,.87-.5-1.29-1.69-2.2,1.23-2.5,2.1-.66,1.87-.42,3.44,1.57,4.19,1.36.51,3.06.71,3.14-1.13a8.26,8.26,0,0,0-2.24-5.93c-.43-.47-1.14.24-.7.71Z" transform="translate(-772.12 -474.52)"/><path class="cls-7" d="M834.38,537.2l1.63,5.22c.28.89.44,2.09-.38,2.53a1.68,1.68,0,0,1-1.37,0,4.28,4.28,0,0,1-1.33-7.17" transform="translate(-772.12 -474.52)"/><path class="cls-7" d="M833.9,537.33l1.09,3.49c.18.57.39,1.15.54,1.74a4.91,4.91,0,0,1,.2.94c.15.61-.12.84-.82.68a1.77,1.77,0,0,1-2-.85,3.51,3.51,0,0,1-.82-1.7,3.89,3.89,0,0,1,1.17-3.54.5.5,0,0,0-.71-.7c-2.35,2.38-1.91,6.85,1.56,8,4.81,1.6,1.18-6.9.74-8.33-.19-.62-1.16-.36-1,.26Z" transform="translate(-772.12 -474.52)"/><path class="cls-7" d="M855.15,540.63c1.1,1.66,2.2,3.48,2.13,5.48,0,1.23-.86,2.64-2.09,2.55s-1.82-1.53-2-2.74a11.87,11.87,0,0,1,.56-5.12" transform="translate(-772.12 -474.52)"/><path class="cls-7" d="M854.71,540.88a14,14,0,0,1,1.76,3.25,5.5,5.5,0,0,1,.31,1.71c0,1.17-.18,1.57-1.33,1.8-.66.42-1.09.3-1.31-.36l-.26-.67a7.12,7.12,0,0,1-.21-1.84,11.92,11.92,0,0,1,.61-3.84c.2-.61-.77-.88-1-.26-.59,1.88-1.7,9.18,2.33,8.46a3,3,0,0,0,2.11-2.82c.21-2.17-1-4.2-2.18-5.94-.35-.53-1.22,0-.87.51Z" transform="translate(-772.12 -474.52)"/><path class="cls-7" d="M867.08,539.69a4.53,4.53,0,0,1,3.42,4.49,2.63,2.63,0,0,1-1.21,2.25,2.5,2.5,0,0,1-2.12,0,3.88,3.88,0,0,1-1.39-6.16" transform="translate(-772.12 -474.52)"/><path class="cls-7" d="M866.94,540.17c2,.56,4.52,3.81,2.26,5.58-1.22,1-2.83-.13-3.48-1.3a3.47,3.47,0,0,1,.42-3.86c.39-.5-.31-1.21-.71-.71a4.51,4.51,0,0,0-.66,4.91c.78,1.53,2.7,2.83,4.45,2.2s2-2.58,1.66-4.08a5.18,5.18,0,0,0-3.67-3.71.5.5,0,0,0-.27,1Z" transform="translate(-772.12 -474.52)"/><path class="cls-7" d="M885.47,539.28c1.08,2.27,2.16,4.92,1.1,7.2a1,1,0,0,1-.49.56c-.52.24-1.05-.33-1.31-.85a9.9,9.9,0,0,1-.6-7.4" transform="translate(-772.12 -474.52)"/><path class="cls-7" d="M885,539.53a17.67,17.67,0,0,1,1.23,3.22c.13.52.72,4.34-1.07,3.19-.65-.42-.89-2.71-1-3.39a10.07,10.07,0,0,1,.4-3.62.5.5,0,0,0-1-.27,10.86,10.86,0,0,0-.16,5.63c.27,1.07.89,3.36,2.36,3.27,1.25-.08,1.55-1.87,1.6-2.85A12.29,12.29,0,0,0,885.9,539c-.27-.58-1.13-.08-.86.5Z" transform="translate(-772.12 -474.52)"/><path class="cls-7" d="M896.3,535.5a1.33,1.33,0,0,1,1.73-.25,3.17,3.17,0,0,1,1.15,1.51,11.68,11.68,0,0,1,1,5.11,1.39,1.39,0,0,1-.19.78,1.5,1.5,0,0,1-1.29.42c-1.79,0-3.88-.31-4.74-1.87s0-3.48,1.06-4.9" transform="translate(-772.12 -474.52)"/><path class="cls-7" d="M896.66,535.86c1.57-1.56,2.65,2.59,2.83,3.53a7.93,7.93,0,0,1,.21,2c-.07,1.08-.38,1.24-1.4,1.22a5.18,5.18,0,0,1-3.49-1.08c-1.45-1.46-.29-3.57.66-4.92.38-.53-.49-1-.86-.51-1.24,1.76-2.29,4.35-.51,6.14,1.18,1.17,4.25,2,5.79,1.17,1.76-.9.57-4.64.07-6-.58-1.57-2.23-4-4-2.2-.46.45.25,1.16.71.71Z" transform="translate(-772.12 -474.52)"/><path class="cls-7" d="M909.37,539.46a1.12,1.12,0,0,1,1.33-.43,2.61,2.61,0,0,1,1.16,1,7.67,7.67,0,0,1,1.58,4.41,2.92,2.92,0,0,1-.12,1,2.16,2.16,0,0,1-2.76,1.06,4,4,0,0,1-2.13-2.39,7.29,7.29,0,0,1,.3-5.94" transform="translate(-772.12 -474.52)"/><path class="cls-7" d="M909.72,539.81c1.28-1.46,2.78,2.31,2.95,2.89.45,1.6,0,4.36-2.28,3.13-2.47-1.34-2.21-5.32-1.23-7.44.27-.58-.59-1.08-.86-.5a7.87,7.87,0,0,0,0,7.09c.9,1.63,2.92,2.87,4.66,1.64,3-2.16-1.38-10.45-4-7.52-.42.49.28,1.2.71.71Z" transform="translate(-772.12 -474.52)"/><path class="cls-5" d="M798.9,545.35l2.62-10.72c.44-1.8.78-4-.54-5.26a3.58,3.58,0,0,0-3.74-.54,8.66,8.66,0,0,0-3.11,2.44,33.49,33.49,0,0,0-8.45,24.46c.18,2.67.69,5.32.84,8a49.47,49.47,0,0,1-.66,9.64q-1,7.11-2.69,14.1c1.13,1.61,3.59.93,5.54,1.1,2.88.26,5.17,2.71,8,3.11a11.8,11.8,0,0,0,4.66-.6l7.5-2c-2.26-6.65-.56-14.07-2.3-20.88a68.21,68.21,0,0,0-3.4-8.77c-.89-2.19-1.64-4.59-1.05-6.88.35-1.33,1.13-2.81.38-4-1-1.52-3.93-1.26-4.23-3" transform="translate(-772.12 -474.52)"/><path class="cls-5" d="M799.38,545.48c1-4,2.37-8.14,2.93-12.25.31-2.3-.35-4.82-3-5.15-3.11-.39-5.42,2.56-7.11,4.74a34.2,34.2,0,0,0-7.08,20.49c0,4.47,1.09,8.84.94,13.32a94,94,0,0,1-2,14.63c-.22,1.09-.44,2.19-.68,3.28a11.16,11.16,0,0,0-.65,2.86c.12.75.91,1.18,1.57,1.42,1.72.6,3.63,0,5.38.43,2,.5,3.65,1.9,5.59,2.56a9.42,9.42,0,0,0,5.39,0c2.83-.66,5.62-1.51,8.42-2.27a.5.5,0,0,0,.35-.61c-1.41-4.5-1.22-9.14-1.41-13.79a33.53,33.53,0,0,0-2.6-11.93c-.78-1.86-1.69-3.69-2.31-5.61a9.31,9.31,0,0,1-.42-4.93c.16-.74.51-1.43.61-2.19a2.85,2.85,0,0,0-.68-2.64c-1-1-3.29-1-3.78-2.45-.2-.61-1.17-.35-1,.26a2.91,2.91,0,0,0,1.85,1.82c.68.33,1.7.46,2.2,1.07.87,1.09.27,2.08,0,3.18-.94,3.9.55,7.14,2.08,10.7A36.69,36.69,0,0,1,807,576.46c.11,4.3.11,8.57,1.4,12.73l.35-.62-7,1.9c-3,.8-5.28.94-8.1-.48a16.49,16.49,0,0,0-4.08-1.79c-1.44-.3-3.47.37-4.74-.25-1.78-.87,0-5.42.25-6.9q.65-3.28,1.14-6.6a50.64,50.64,0,0,0,.63-13c-.47-4.35-1-8.5-.36-12.87a33.48,33.48,0,0,1,3.88-11.23,32,32,0,0,1,3.6-5.18c1.8-2.09,6.72-5.65,7.46-.41.27,1.93-.79,4.39-1.25,6.26l-1.74,7.15c-.16.62.81.89,1,.26Z" transform="translate(-772.12 -474.52)"/><path class="cls-5" d="M836.91,529.82c-1.21-1.29-3.39-1.19-4.87-.23a10.08,10.08,0,0,0-3.21,4.12,61.26,61.26,0,0,0-6.41,21.42,2.94,2.94,0,0,1,2.48,3.48c-.29,1.17-1.29,2-1.72,3.16-.72,1.9.31,4,.46,6a13.9,13.9,0,0,1-1.21,5.67c-1.75,4.79-3.54,9.64-6.41,13.87,5.1,1.34,10.56,2.68,15.56,1a27.22,27.22,0,0,0,6.7-3.78l4.85-3.38a2,2,0,0,0,.87-.95,2.27,2.27,0,0,0-.39-1.63c-2.05-4.1-.93-9.09-2.23-13.49-.92-3.09-3-5.93-2.85-9.15.08-1.54.69-3,.83-4.55a7.75,7.75,0,0,0-7.24-8.11A42.71,42.71,0,0,1,836,532.72c.6-1.16,1.27-2.55.63-3.69" transform="translate(-772.12 -474.52)"/><path class="cls-5" d="M837.26,529.46c-9.12-7.74-14.82,21.15-15.34,25.67a.49.49,0,0,0,.37.48c4.4,1,.49,4.7.18,7a11.66,11.66,0,0,0,.4,3.57,10.38,10.38,0,0,1-.24,5.16,59.8,59.8,0,0,1-7,15.73.51.51,0,0,0,.3.74c6.62,1.73,13.21,3,19.41-.7,1.68-1,3.25-2.15,4.85-3.26,1.19-.83,2.93-1.61,3.85-2.74a1.81,1.81,0,0,0,.42-1.91c-.19-1-.88-2-1.15-3a18.31,18.31,0,0,1-.47-3c-.29-3.17-.2-6.32-1.34-9.35-.61-1.64-1.51-3.2-2-4.89-.66-2.3-.17-4.18.24-6.48a8.27,8.27,0,0,0-7.59-9.66l.48.63a44.1,44.1,0,0,1,3-8.88c.86-1.84,2.15-3.55,1.45-5.63-.21-.61-1.17-.35-1,.26.76,2.25-1.6,5.28-2.43,7.37a45.08,45.08,0,0,0-2,6.61.51.51,0,0,0,.48.64,7.4,7.4,0,0,1,6.63,5.74c.59,2.7-1,5.32-.62,8.07.35,2.44,1.72,4.57,2.51,6.87,1,2.81.9,5.77,1.16,8.7a21.7,21.7,0,0,0,.42,2.91c.14.64.47,1.27.58,1.91.25,1.48.71.11-.18,2.08-1.14,2.54-5,4.49-7.45,6-6.11,3.73-12.46,2.53-19,.82l.29.73a62.56,62.56,0,0,0,7-15.57,13.51,13.51,0,0,0,.18-7c-.43-2.43.54-3.5,1.43-5.5a3.39,3.39,0,0,0,.31-2.17c-.31-1.51-1.86-1.8-2.31-2.85s.48-3.81.73-5c.3-1.47.65-2.92,1.06-4.37,1-3.34,5.84-19.91,11.68-15,.49.41,1.2-.29.71-.71Z" transform="translate(-772.12 -474.52)"/><path class="cls-5" d="M856.54,532.77c-1.67-1.62-4.67-.61-6,1.32s-1.47,4.37-1.85,6.66c-.76,4.59-2.54,9-3,13.62-.43,4,.14,8.12.31,12.18a61.63,61.63,0,0,1-.39,10,21.6,21.6,0,0,1-2,7.6,9.63,9.63,0,0,1-5.83,5c8.27,2.91,17.37.59,25.82-1.75-1.65-4-.69-8.53-.93-12.85-.25-4.67-1.94-9.19-2.11-13.87-.1-2.71.32-5.45-.1-8.12s-1.94-5.44-4.53-6.25c-.69-.22-1.5-.34-1.88-.95-.51-.8.09-1.81.59-2.62a14.63,14.63,0,0,0,2-10.17" transform="translate(-772.12 -474.52)"/><path class="cls-5" d="M856.89,532.42c-2.84-2.21-6.32-.07-7.53,2.89-1,2.52-1.08,5.41-1.69,8-.74,3.18-1.77,6.28-2.28,9.51-.95,6,.32,12.16.13,18.23-.19,6.24-.77,15.36-7.92,17.56a.51.51,0,0,0,0,1c8.65,2.85,17.61.59,26.1-1.74a.5.5,0,0,0,.34-.62c-1.89-5.12-.44-10.79-1.3-16.1-.5-3-1.32-6-1.62-9.09-.28-2.88.17-5.76-.09-8.63a10.58,10.58,0,0,0-1.63-5c-.95-1.42-2.11-1.72-3.38-2.65a2.55,2.55,0,0,1-1.17-2.52,11.5,11.5,0,0,1,1-1.75,15.33,15.33,0,0,0,1-2.8,16.2,16.2,0,0,0,.23-6.32c-.1-.64-1.06-.37-1,.26a14.58,14.58,0,0,1-1.5,9.08c-.59,1.12-1.79,2.51-1,3.83s3.11,1.36,4.19,2.44c2.13,2.11,2.37,5.28,2.33,8.1a48,48,0,0,0,.19,7.39c.37,2.65,1.06,5.25,1.48,7.89.86,5.34-.59,11,1.31,16.11l.35-.62c-8.32,2.29-17.08,4.53-25.56,1.74v1c9.44-2.92,9-16.65,8.55-24.48-.16-2.81-.45-5.62-.38-8.43a40.71,40.71,0,0,1,1.66-9.48c.69-2.62,1.3-5.21,1.73-7.89A13.31,13.31,0,0,1,850.6,535c1-1.89,3.56-3.45,5.58-1.88.51.39,1.22-.31.71-.7Z" transform="translate(-772.12 -474.52)"/><path class="cls-5" d="M871.54,532.2c-1.33-2.19-4.82-2-6.72-.32s-2.59,4.37-3.09,6.88c-3.19,16-2.22,32.53-1.24,48.84a51.22,51.22,0,0,1,13.19.88,184.09,184.09,0,0,1-1-37.47c.18-2.38.15-5.28-1.89-6.5-1.41-.83-3.18-.47-4.8-.62a1.53,1.53,0,0,1-.93-.33c-.57-.58,0-1.54.57-2.12,2.65-2.64,6-5.69,5.25-9.36" transform="translate(-772.12 -474.52)"/><path class="cls-5" d="M872,532c-2-2.71-5.91-2.24-8,.12a13.11,13.11,0,0,0-2.61,6.18c-.63,3-1.07,6-1.42,9-1.53,13.38-.72,26.9.09,40.31a.51.51,0,0,0,.5.5,53.87,53.87,0,0,1,13,.86c.28,0,.68-.13.64-.48-1.62-12.77-1.52-25.32-1-38.13.17-3.81-1-6.76-5.16-6.91h-1.25L866,541.8c.08-.34,1.07-1.07,1.35-1.36a25,25,0,0,0,2.36-2.68,7.71,7.71,0,0,0,1.68-5.68c-.08-.63-1.08-.63-1,0,.41,3.17-1.66,5.53-3.74,7.65-.77.78-2.6,2.1-2.29,3.47s2.19,1.17,3.29,1.23c2.35.14,4,.84,4.47,3.3a14.78,14.78,0,0,1,0,3.76,189.77,189.77,0,0,0,1,37l.63-.48a55.12,55.12,0,0,0-8.59-1c-1,0-3.31.45-4-.18s-.45-3.62-.5-4.53c-.36-6.24-.65-12.5-.64-18.76a138.42,138.42,0,0,1,1.21-19,46.58,46.58,0,0,1,1.72-8.69c1-3,5.27-7.31,8.14-3.43.37.52,1.24,0,.86-.5Z" transform="translate(-772.12 -474.52)"/><path class="cls-5" d="M884.52,545a52,52,0,0,1,2.8-14.07c-2-.94-4.4-1.87-6.34-.79s-2.37,3.45-2.69,5.56c-2.52,16.81-5,33.68-5.48,50.67a2.14,2.14,0,0,0,.29,1.39,2.11,2.11,0,0,0,1.53.58q7.8.75,15.64,1c.67,0,1.46,0,1.83-.57a2,2,0,0,0,.2-1.28,188.31,188.31,0,0,0-2.44-22.86c-.62-3.27-1.42-6.55-1.35-9.88,0-2.26.49-4.55,0-6.76s-2.15-4.43-4.42-4.44" transform="translate(-772.12 -474.52)"/><path class="cls-5" d="M885,545a54.83,54.83,0,0,1,2.78-13.94.47.47,0,0,0-.23-.56c-2.77-1.25-6.29-2.36-8.36.65a10.72,10.72,0,0,0-1.4,4.42c-.47,2.9-.87,5.82-1.3,8.73-1.56,10.72-3,21.47-3.73,32.28q-.27,3.92-.41,7.83c0,1.35-.48,3.28.91,4.11s3.78.55,5.26.67c2.93.23,5.86.42,8.8.55,1.3.06,3.42.56,4.62-.2,1.41-.88.77-3.08.68-4.42-.34-5.15-.74-10.29-1.45-15.4-.41-3-1-5.85-1.54-8.77a41,41,0,0,1-.44-9.58c.17-3.58-.87-7.87-5.07-8.3-.64-.07-.63.93,0,1,6,.61,3.61,9.52,4,13.42s1.39,7.69,2,11.55c.7,4.7,1.09,9.43,1.42,14.17a20.92,20.92,0,0,1,.23,3.34c-.1,1.09.37.69-.7,1.63s-.67.49-1.75.64c-2.24.33-5.07-.23-7.33-.38s-4.24-.3-6.35-.51c-1.75-.17-2.14-.86-2.27-2.54a32.19,32.19,0,0,1,.15-3.92c.22-4.57.58-9.13,1-13.68.92-9.23,2.24-18.42,3.6-27.59a49.17,49.17,0,0,1,1.11-6.62c.32-1.07.9-2.51,2-3s4.86-.67,5.31,1.08c.19.74-.81,2.7-1,3.45-.3,1.17-.55,2.34-.77,3.52A56.94,56.94,0,0,0,884,545c0,.64,1,.64,1,0Z" transform="translate(-772.12 -474.52)"/><path class="cls-5" d="M893.43,539.13a29.16,29.16,0,0,0,7-11.84c-3-1.2-6.56.65-8.28,3.39s-2,6.12-2.12,9.36c-.46,16.1,3.15,32.5-.59,48.17,7.73,3.23,16.51-.78,24.88-.36.47,0,1,0,1.3-.39a1.27,1.27,0,0,0,.14-.61,177.15,177.15,0,0,0-2.17-41.4,3,3,0,0,0-.72-1.76c-1.12-1-2.94.07-4.43-.26l2.83-5.69a10.62,10.62,0,0,0,1.53-5.11c-.1-1.8-1.48-3.67-3.28-3.62-2.13,0-3.29,2.44-4,4.45L902,543.82a7.13,7.13,0,0,0-7.86-3.94" transform="translate(-772.12 -474.52)"/><path class="cls-5" d="M893.78,539.49a31.15,31.15,0,0,0,7.15-12.07.51.51,0,0,0-.35-.61c-4.06-1.32-7.94,1.38-9.59,5-2.19,4.87-1.57,11.09-1.38,16.26.47,13.33,2.39,26.79-.63,40a.5.5,0,0,0,.35.61c6.76,2.6,13.74.38,20.65-.22,1.5-.13,5,.65,6.09-.76.65-.84.33-2.78.38-3.76q.15-3.13.19-6.28a177.53,177.53,0,0,0-1.27-23.62c-.2-1.64-.42-3.28-.67-4.92s-.23-3.67-1-5.07c-1.08-2.09-3.44-.95-5.28-1.13l.44.76c1.52-3.07,4.09-6.68,4.39-10.17.18-2-.85-4.46-3-4.93s-3.83,1.55-4.66,3.39c-1.68,3.73-2.75,7.84-4.08,11.71l.92-.12A7.79,7.79,0,0,0,894,539.4c-.63.11-.36,1.07.27,1a6.78,6.78,0,0,1,7.29,3.71.51.51,0,0,0,.92-.12l2.26-6.59c.72-2.11,1.23-4.78,2.67-6.53,1.59-1.91,4.23-1.26,4.82,1.26.4,1.72-.48,3.51-1.18,5-1,2-2,4.06-3,6.09a.51.51,0,0,0,.43.75c1.49.15,3.61-.79,4.54,1,.55,1.07.49,2.79.67,4,.5,3.3.9,6.61,1.22,9.93a178.31,178.31,0,0,1,.76,18.34c0,1.45,0,2.9-.1,4.35s.19,3.08-.21,4.34c-.66,2.09-2.76,1.4-4.48,1.52-1.2.08-2.39.22-3.58.38-5.92.78-11.91,2.17-17.69,0l.35.61c2.47-10.74,1.71-21.72,1-32.61a156.72,156.72,0,0,1-.41-16.5c.24-5.15,2.73-13.73,9.73-11.46l-.35-.61a29.82,29.82,0,0,1-6.89,11.62c-.44.46.27,1.17.71.71Z" transform="translate(-772.12 -474.52)"/></svg>