<svg id="Calque_1" data-name="Calque 1" xmlns="http://www.w3.org/2000/svg" viewBox="0 0 256.67 367.72"><defs><style>.cls-1{fill:#26291c;}.cls-2{fill:#3c8174;}.cls-3{fill:#998317;}.cls-4{fill:#c29209;}.cls-5{fill:#ebc700;}.cls-6{fill:#2a2219;}.cls-7{opacity:0.2;}.cls-8{opacity:0.36;}.cls-9{fill:#aa3016;}.cls-10{fill:#1b1b19;}.cls-11{fill:#8b5513;}.cls-12{fill:#d8ebe1;}.cls-13{fill:#9db7b5;}.cls-14{fill:#5297d2;}.cls-15{fill:#b07e9a;}.cls-16{fill:#ca9e67;}.cls-16,.cls-19{stroke:#1d1d1b;stroke-miterlimit:10;stroke-width:1.5px;}.cls-17{opacity:0.46;}.cls-18{fill:#936037;}.cls-19{fill:none;}.cls-20{fill:#1d1d1b;}</style></defs><title>03</title><path class="cls-1" d="M931,367.7c-55.64-5.09-111.67-.69-167.37,3.72-5.8.45-11.86,1-16.74,4.16-11.57,7.47-10.52,24.34-8.9,38,11.18,94.74-16.09,192.12,3.77,285.42.9,4.2,2,8.57,4.87,11.75,2.52,2.78,6.12,4.31,9.68,5.49,14.62,4.85,30.29,5.26,45.7,5.62,50.95,1.21,102.53,2.35,152.19-9.1,4-.92,8-1.95,11.53-4.08,10.82-6.61,13.08-21.2,13.19-33.87.17-19.9-2.22-39.73-3.2-59.61a423.32,423.32,0,0,1,3.41-78.44c2.51-18.28-.11-38.21-1.58-56.61-1.29-16.25-.26-30.35-2.2-46.54-2-16.7-.39-33.7-2.59-50.37-.54-4.13-1.41-8.43-4.11-11.6-7.92-9.33-24.16-2.53-34.76-8.66" transform="translate(-727.67 -357.31)"/><path class="cls-1" d="M931,367.2c-40.7-3.68-81.61-2.36-122.32.34q-15.12,1-30.21,2.21-7.63.58-15.26,1.2a48.85,48.85,0,0,0-12,2c-13.82,4.77-15.34,20.19-14.48,32.77.6,8.73,1.86,17.39,2.47,26.12.67,9.7,1,19.42,1.08,29.14.16,19.37-.68,38.72-1.8,58-2.23,38.59-5.62,77.2-4.45,115.89a372.5,372.5,0,0,0,5.79,56.84c1.39,7.44,2.22,16.8,9,21.52,3.24,2.26,7.18,3.46,10.94,4.52a102.13,102.13,0,0,0,14,2.83,251.62,251.62,0,0,0,27.86,1.72c9.78.23,19.56.46,29.35.6,19.9.29,39.82.21,59.69-1a397.66,397.66,0,0,0,57.64-7.37c7.76-1.63,16.29-3,22.06-8.92,4.69-4.83,7-11.49,8.09-18,1.39-8.1,1.15-16.41.88-24.59-.35-10.11-1.16-20.19-1.9-30.28a480.08,480.08,0,0,1-1.09-60.33c.51-10,1.38-19.94,2.6-29.85a184.26,184.26,0,0,0,1.69-28.94c-.32-9.68-1.29-19.32-2.13-29-.81-9.43-1.06-18.85-1.25-28.31-.19-9.76-1.22-19.35-1.93-29.07s-.49-19.73-.86-29.6c-.18-4.86-.49-9.73-1.14-14.56-.48-3.63-1.18-7.43-3.24-10.54-3.46-5.22-9.54-6.54-15.41-6.91-6.86-.43-14.22.28-20.46-3.17a.5.5,0,0,0-.5.87c5.59,3.09,12.09,3,18.3,3.18,7,.24,14.73,1.13,18.15,8.21,2,4.19,2.35,9.17,2.75,13.73.43,4.83.6,9.68.7,14.53.2,9.54.11,19.11,1.09,28.61,1.91,18.4,1.38,36.9,3,55.32.82,9.35,1.71,18.7,2,28.08a183.66,183.66,0,0,1-1.73,27.53A423,423,0,0,0,974.73,601c.3,19.45,2.46,38.78,3.34,58.2.38,8.47.77,17.1-.28,25.54-.9,7.13-3,14.67-8,20-6.14,6.5-15.85,7.7-24.2,9.39-9.66,2-19.42,3.45-29.22,4.6-38,4.44-76.26,3.56-114.38,2.65-9.52-.22-19.07-.45-28.51-1.76A100.32,100.32,0,0,1,760.39,717c-4.4-1.21-9.14-2.59-12.59-5.71s-4.57-7.69-5.5-12-1.79-8.86-2.54-13.32c-1.59-9.48-2.73-19-3.53-28.63-3.07-37.23-.79-74.63,1.57-111.83s4.92-74.83,2.45-112.24c-.57-8.62-1.71-17.18-2.42-25.79-.57-6.8-.75-13.94,1.33-20.52,2.45-7.76,8.34-12.52,16.27-14.08a125.63,125.63,0,0,1,14.1-1.43l14.85-1.16c39.21-3,78.57-5.41,117.91-3.92q14.37.56,28.68,1.83c.64.06.64-.94,0-1Z" transform="translate(-727.67 -357.31)"/><path class="cls-2" d="M892.86,445.63c-6.66-.16-12.78,4.19-16.54,9.69s-5.58,12.07-7.34,18.5c-1,3.62-2,7.49-.8,11.06,2.63,8.05,13.54,9,21.94,8a191.56,191.56,0,0,0,34.42-7.7,34.72,34.72,0,0,1,8.59-2.06c3.3-.19,6.57.64,9.82,1.27,8.19,1.57,17.31,1.68,24.18-3.06,9.54-6.58,11.37-19.76,11.57-31.35a268.77,268.77,0,0,0-6-61.37c-1.33-6.15-3.07-12.59-7.6-17-3.93-3.79-9.43-5.47-14.83-6.25-7.44-1.07-15.29-.61-22,2.71s-12.16,9.82-12.9,17.3c-.35,3.54.33,7.13-.13,10.66s-2.57,7.26-6.06,7.91" transform="translate(-727.67 -357.31)"/><path class="cls-2" d="M892.86,445.13c-11.89,0-18.82,10.94-22.15,21-1.76,5.31-4.45,11.94-3.33,17.61.79,4,3.73,6.85,7.44,8.33,4.2,1.67,9,1.83,13.42,1.45a148.44,148.44,0,0,0,19.86-3.38c6.77-1.53,13.3-3.7,20-5.6a23.58,23.58,0,0,1,11.2-.44c2.84.53,5.65,1.15,8.53,1.45,10.88,1.13,21.6-2.07,26.86-12.3,5.13-9.95,4.75-22.11,4.55-33A270.17,270.17,0,0,0,975,397.91c-1.91-10.66-3.42-24.23-14.09-29.86-5.53-2.93-12.32-3.82-18.5-3.69-6.42.13-13,1.72-18.21,5.55a22.67,22.67,0,0,0-9.12,13.54c-1.22,6.08,2.41,17.91-6.12,20a.5.5,0,0,0,.27,1c3.81-.95,5.88-4.58,6.41-8.27.42-2.94,0-5.91.05-8.86a19.5,19.5,0,0,1,2.09-8.54c5.57-10.93,18.49-14.25,29.85-13.2,5.77.53,12,1.93,16.5,5.87s6.21,9.5,7.51,15a248.44,248.44,0,0,1,5.79,38.47c.89,11.74,1.69,24.1-.07,35.8C975.85,471,971,481,960.14,483.89c-5.72,1.51-11.77,1-17.5-.11-5.53-1.08-10.22-1.6-15.7.07-12.29,3.73-24.63,7.14-37.44,8.56-4.92.55-10.3.55-14.9-1.5a10.64,10.64,0,0,1-5.55-5.16c-1.61-3.5-.75-7.4.19-11,3.14-11.9,8.55-28.64,23.62-28.66a.5.5,0,0,0,0-1Z" transform="translate(-727.67 -357.31)"/><path class="cls-3" d="M891.07,415.43c-4.24,3.42-5.82,9.33-5.34,14.75s2.7,10.53,4.89,15.51l8,18.14a10.72,10.72,0,0,1,1.2,4.31c0,3.43-3.33,5.91-6.51,7.2s-6.75,2.09-9.14,4.56a2.5,2.5,0,0,0-.86,1.74,3.1,3.1,0,0,0,1.22,1.92c10,9.62,11.84,24.7,13.11,38.51l1.94,21c1,10.52,1.91,21.37-1.21,31.47a40.74,40.74,0,0,1-8,14.45c-2.61,3-5.87,6.15-5.92,10.15,0,3.79,3.06,7.09,6.66,8.24s7.55.54,11.15-.64c8.49-2.77,15.67-8.44,22.66-14l36-28.64c2.55-2,5.21-4.21,6.3-7.27a17.45,17.45,0,0,0,.69-5.77q.15-20.26-.43-40.54a23,23,0,0,0-12.7,14.91c-1.77,6.66-.48,13.94-2.87,20.4-2.89,7.83-10.53,12.81-18.06,16.42A119.81,119.81,0,0,1,907,571.45c-2,.42-4.23.73-5.81-.5-2.42-1.89-1.32-6.05,1.19-7.8s5.75-1.89,8.77-2.34c17.32-2.58,31-17.11,37.48-33.36s7.21-34.16,7.81-51.66c.16-4.44.12-9.41-2.95-12.62-1.5-1.58-3.57-2.52-5.1-4.07-2.13-2.17-3-5.27-3.6-8.25a115.25,115.25,0,0,1-2.53-22.22c0-3.19,0-6.53-1.45-9.37-2.64-5.16-9.11-6.83-14.86-7.55a124,124,0,0,0-31.27.09" transform="translate(-727.67 -357.31)"/><path class="cls-3" d="M890.72,415.08c-8.59,7.35-5.44,19.43-1.62,28.36,2.7,6.3,5.52,12.56,8.28,18.83,1.58,3.59,3.09,7-.26,10.16-2.27,2.12-5.32,2.88-8.13,4-2.51,1-8.09,3.56-5.39,6.93,1.71,2.12,3.68,3.88,5.17,6.21a39.5,39.5,0,0,1,3.83,7.87c4,10.87,4.36,22.79,5.41,34.2,1.21,13.11,3.72,27.12.6,40.13A40.66,40.66,0,0,1,890,588.68c-2.73,3.2-6.51,6.71-6,11.34.47,4.43,4.5,7.55,8.66,8.29,5.27.94,10.76-1.09,15.41-3.38a84.93,84.93,0,0,0,14.49-9.65c5.27-4.13,10.49-8.34,15.74-12.51l17.62-14c4.35-3.47,10.8-7.09,12.11-13,.7-3.1.4-6.49.41-9.64,0-4,0-7.91,0-11.87q-.1-11.87-.43-23.73a.51.51,0,0,0-.76-.43,24.05,24.05,0,0,0-10.18,8.93c-2.77,4.39-3.53,9.33-3.84,14.42-.39,6.42-.8,12.61-5,17.84-3.23,4-7.69,7-12.24,9.34a109.94,109.94,0,0,1-16.75,7c-2.9,1-5.85,1.8-8.82,2.53-2.77.68-8.88,2.83-10-1.24-.94-3.37,2.35-5.88,5.14-6.67,2.56-.72,5.25-.79,7.84-1.34a40.47,40.47,0,0,0,12.41-4.9c18-10.71,26.23-31.21,29-51.09.79-5.59,1.24-11.22,1.55-16.86s.86-11.26.49-16.79a12.89,12.89,0,0,0-5.73-10.57,12.87,12.87,0,0,1-5.3-7.36A73.53,73.53,0,0,1,944,444c-.57-3.8-1-7.64-1.15-11.48-.15-3.08,0-6.22-.4-9.28-.68-4.87-3.65-8.21-8.13-10.05-5.33-2.18-11.52-2.47-17.19-2.77a127.12,127.12,0,0,0-22.49.87c-.63.08-.64,1.08,0,1a126.5,126.5,0,0,1,19.55-1c5.9.17,12.18.4,17.86,2.14a15,15,0,0,1,6.82,3.94c2.38,2.63,2.74,6.1,2.83,9.49a137.59,137.59,0,0,0,1.49,18.36c.75,4.69,1.31,10.63,4.8,14.21,2,2.07,4.82,3.11,6.33,5.72s1.63,5.54,1.63,8.36A200.62,200.62,0,0,1,953,510c-3.8,20.51-15.1,42.41-36.4,49-4.42,1.37-9.85.91-13.88,3.27-2.55,1.49-4.59,5.22-2.8,8,2.36,3.71,8.41,1.38,11.64.56A119.53,119.53,0,0,0,929,565c9.67-4.09,20.95-9.77,24-20.74,1.74-6.34.62-13.11,2.53-19.42A22.76,22.76,0,0,1,967.75,511l-.75-.44q.54,19.27.45,38.56c0,3.25.18,6.62-1.63,9.49-1.49,2.35-3.85,4.07-6,5.78q-7.46,6-14.93,11.89c-9.75,7.75-19.27,16.07-29.53,23.14-4.79,3.3-10,6.28-15.75,7.59-3.24.74-6.85.86-9.86-.72s-5.34-4.87-4.64-8.44c1-4.87,6-8.53,8.71-12.54a41.72,41.72,0,0,0,6.15-15.1c2.29-11.73.39-24-.69-35.71-1-10.5-1.42-21.28-4-31.55A47.74,47.74,0,0,0,890.22,490a33.17,33.17,0,0,0-3.79-5.17c-1.17-1.32-3.12-2.74-1.65-4.83.86-1.22,3.15-2.09,4.47-2.62,3.9-1.54,9-2.79,10.65-7.16.88-2.29.07-4.51-.86-6.64-1.45-3.33-2.93-6.65-4.39-10-4.72-10.72-14.8-27.91-3.22-37.81.49-.42-.22-1.13-.71-.71Z" transform="translate(-727.67 -357.31)"/><path class="cls-4" d="M829.38,406.53c-19.38,8.37-31.25,31.29-26.9,52,1.44,6.85,4.1,15-.73,20-3,3.12-7.66,3.61-11.82,4.71a35,35,0,0,0-23.34,21c-2.46,6.48-2.91,13.53-3.15,20.45a400.4,400.4,0,0,0,4.09,73.06c.34,2.32.78,4.8,2.43,6.47,2,2,5.06,2.26,7.87,2.33a184.53,184.53,0,0,0,47.64-5c7.17-1.73,14.79-3.87,21.75-1.43,2.32.81,4.46,2.11,6.81,2.83,3.71,1.14,7.72.77,11.54.07,6.76-1.22,13.5-3.48,18.85-7.78,11.42-9.19,14.14-25.38,14.25-40,.1-15.25-1.74-30.43-3.58-45.57-.61-5-1.24-10-3.21-14.65a27,27,0,0,0-18.07-15.36c-4.57-1.13-9.79-1.21-13.16-4.49s-3.62-8.3-3.73-12.89l-.56-23.3c-.19-7.92-.47-16.2-4.34-23.12S839.48,404,832.17,407" transform="translate(-727.67 -357.31)"/><path class="cls-4" d="M829.13,406.1c-14.6,6.45-25,20.74-27.47,36.42a45.26,45.26,0,0,0-.37,11.51c.41,4.05,1.6,7.94,2.27,12,.89,5.2.71,11-4.42,13.92-4.09,2.34-9.2,2.47-13.54,4.27A35.79,35.79,0,0,0,768,500c-4.83,8.87-5,19.29-5.21,29.13a399.81,399.81,0,0,0,4.09,67.83c.56,3.78,1.27,7.7,5.22,9.26,4.15,1.65,9.53,1,13.88.89a184.42,184.42,0,0,0,33-3.63c5.52-1.11,11-2.79,16.53-3.59a27,27,0,0,1,8.88,0c2.78.54,5.19,1.9,7.79,2.94,4.36,1.75,8.92,1.49,13.46.68a49.07,49.07,0,0,0,13.08-4.12c16-7.91,20.05-26.35,20.37-42.71a264.81,264.81,0,0,0-2.08-34.47c-.58-5.26-1.18-10.53-1.89-15.78-.64-4.72-1.56-9.48-3.83-13.71a27.92,27.92,0,0,0-19.24-14c-4.69-.93-10.17-1.45-12.74-6.11-2.47-4.48-2-10.32-2.07-15.25-.24-10.34.33-21.12-1.38-31.35-1.35-8.14-5.34-16-13.35-19.24a14.1,14.1,0,0,0-10.53-.23c-.59.22-.34,1.19.27,1,9.16-3.52,18,4,21,12.26,3.47,9.45,2.6,20.41,2.84,30.32.12,5,.07,10.08.41,15.08.24,3.34.85,6.86,3,9.51,2.4,2.91,6.11,3.84,9.66,4.52,4.33.83,8.38,1.82,12.14,4.22a26.51,26.51,0,0,1,9.11,9.79c2.56,4.78,3.34,10.22,4,15.53,1.32,10.6,2.59,21.21,3.25,31.87,1,16.8,1.85,38-10.49,51.29-6.53,7-16.71,10.57-26.13,11.19a18.86,18.86,0,0,1-7.72-.9c-2.36-.83-4.51-2.14-6.91-2.86-4.36-1.29-9-.88-13.4-.05-5.12,1-10.14,2.4-15.25,3.41q-8.19,1.61-16.49,2.46-7.89.83-15.82,1c-2.56,0-5.13,0-7.69,0s-5.08-.19-7-1.79c-2.13-1.74-2.48-4.57-2.86-7.12q-.68-4.53-1.23-9.07-1-8.24-1.69-16.52-1.32-16.06-1.33-32.2c0-10.36-.47-21.48,2.27-31.55a34.61,34.61,0,0,1,16-20.75c4-2.3,8.17-3.31,12.57-4.43,3.25-.83,6.52-2.08,8.51-4.94,4.45-6.39.38-15.19-.59-22-2.24-15.81,4.72-32.38,17-42.47A43.33,43.33,0,0,1,829.64,407c.58-.26.08-1.12-.51-.86Z" transform="translate(-727.67 -357.31)"/><path class="cls-5" d="M816.49,374.23a12.53,12.53,0,0,0-12,17.28c.67,1.64,1.72,3.36,1.23,5.07-.69,2.4-4,3-6.35,2s-4.16-2.81-6.46-3.81a9.48,9.48,0,0,0-10.48,15.41c2.26,2.25,6,4.75,4.52,7.55-.61,1.13-1.9,1.66-3,2.32a10.77,10.77,0,0,0-3.28,14.52c1.6,2.43,4.34,5.31,2.66,7.69-.4.57-1,1-1.2,1.69-.26,1.08.78,2,1.5,2.83,2,2.4,1.88,6.07.48,8.88s-3.8,4.95-6.16,7a8.22,8.22,0,0,0-8.47-8.46c1.33-3.09,2.66-6.28,2.77-9.64s-1.25-7-4.18-8.65c-3.74-2.12-9.92-1.42-11-5.59-.35-1.38.11-2.81.24-4.22.54-5.84-5.85-11.16-11.5-9.58-.57.16-1.25.36-1.7,0a1.75,1.75,0,0,1-.45-1.18L740.91,389c-.61-5.76-1-12.34,3.06-16.5,2.94-3,7.43-3.89,11.63-4.44a205,205,0,0,1,63.84,1.56l-3.71,4.84" transform="translate(-727.67 -357.31)"/><path class="cls-5" d="M816.49,373.73a13.19,13.19,0,0,0-13,16.43c.68,2.57,3.71,6.7-.21,8.12-3,1.09-5.62-1.19-8-2.68-3.3-2.12-7.06-2.71-10.68-.94a9.7,9.7,0,0,0-5.43,8.7c0,4.33,2.48,6.73,5.36,9.54,1,1,2.75,2.6,2.11,4.17-.53,1.29-1.91,1.89-3,2.58a10.63,10.63,0,0,0-3.61,3.81,11.5,11.5,0,0,0-.72,9.7c1.32,3.29,5,5.43,3.16,9.32-.73,1.5-1.32,1.9-.25,3.53,1,1.46,1.93,2.23,2.25,4.09a8.87,8.87,0,0,1-.85,5.33c-1.36,2.8-3.79,4.91-6.08,6.93l.85.36a8.79,8.79,0,0,0-9-9l.43.75c2-4.69,4.09-10,1.87-15-1.76-4-5.35-4.83-9.22-5.83-2.7-.7-5.19-1.73-5.06-5,.11-2.43.65-4.34-.36-6.68a10.39,10.39,0,0,0-9.31-6.23c-1.68,0-2.68,1-3.73-1.39-.53-1.22-.38-3.56-.52-4.89l-1.14-10.74c-.62-5.85-1.83-12-1.31-17.88a12.78,12.78,0,0,1,3.2-8c2.24-2.28,5.35-3.26,8.42-3.85A144.66,144.66,0,0,1,773,367a206.33,206.33,0,0,1,46.29,3.1l-.3-.73-3.7,4.84c-.4.51.47,1,.86.5l3.71-4.84a.5.5,0,0,0-.3-.73,207.51,207.51,0,0,0-41.71-3.31A204.25,204.25,0,0,0,757,367.39c-4.67.59-10,1.21-13.42,4.78s-3.76,8.59-3.52,13.17c.34,6.6,1.32,13.21,2,19.79.35,3.3.28,7,1.08,10.25.34,1.36.67,1.94,2.19,1.83s2.74-.56,4.26-.22a9.45,9.45,0,0,1,4.42,2.4c2.58,2.44,2.89,5.16,2.54,8.47-.55,5.13,3.23,6.16,7.45,7.23,3.46.87,6.17,2.39,7.26,6.06,1.31,4.38-.56,8.88-2.28,12.86a.51.51,0,0,0,.44.75,7.77,7.77,0,0,1,8,8,.51.51,0,0,0,.86.35c3.12-2.76,6.5-5.83,7.21-10.16a8.44,8.44,0,0,0-.53-4.84c-.37-.81-1.1-1.37-1.47-2.13-1.39-2.88,0-2.38.62-4.12,1.39-3.76-3.73-7.32-4.37-10.86a10.75,10.75,0,0,1,1-6.71c1.19-2.33,3-3.29,5.07-4.72,2.79-2,2-4.67-.1-6.85-1.47-1.55-3.29-2.74-4.36-4.64a9.45,9.45,0,0,1-.6-7.91,8.86,8.86,0,0,1,6.15-5.26c3-.77,5.68.15,8.2,1.82,2.7,1.79,6.27,4.2,9.51,2a3.76,3.76,0,0,0,1.61-3.67c-.29-2.84-2.19-5.1-2.22-8.1a12.17,12.17,0,0,1,12.42-12.22.5.5,0,0,0,0-1Z" transform="translate(-727.67 -357.31)"/><path class="cls-5" d="M739,610a6.65,6.65,0,0,1,11.85-1.4c1,1.53,1.36,3.48,2.71,4.69,1.62,1.45,4,1.35,6.18,1.75s4.53,2.07,4,4.19a4.38,4.38,0,0,1-1.29,2c-2.85,2.84-6.65,4.74-8.91,8.06a5.19,5.19,0,0,0-1,4.37c.9,2.77,4.72,3.06,7.58,2.45a36,36,0,0,0,15.64-7.6,16,16,0,0,1-4.5,16.37c-3,2.69-6.93,4.11-10.46,6.08-7.34,4.1-13,10.59-18.49,17-1.26-.13-1.7-1.72-1.83-3l-3.29-31.53c-.77-7.4-1.53-15,.43-22.19" transform="translate(-727.67 -357.31)"/><path class="cls-5" d="M739.52,610.16c2.24-5.42,9.11-5,11.58-.07,1.2,2.43,2.08,4.23,4.9,4.91,1.61.38,3.31.3,4.85,1,2.29,1,3.32,2.54,1.31,4.93a13.48,13.48,0,0,1-1.68,1.52c-2.43,2-5.21,3.73-7.09,6.34-3.26,4.55-.15,8.43,5,8.13,6.42-.38,12.94-4,17.8-8l-.84-.22a15.75,15.75,0,0,1-1.71,12.7c-2.37,3.81-6.26,5.76-10.14,7.69-7.44,3.72-13.24,9.16-18.7,15.35-.36.41-1.73,2.49-2.22,2.55-1.82.19-1.64-3.07-1.74-4l-.72-6.9-1.54-14.77c-1-9.85-2.91-20.19-.41-29.95a.5.5,0,0,0-1-.26c-2.64,10.32-.55,21.28.54,31.68l1.74,16.75c.25,2.37-.32,8,2.77,8.88a.52.52,0,0,0,.49-.13A116.93,116.93,0,0,1,753.41,657c4.12-3.65,8.67-5.94,13.46-8.51,7.45-4,11.85-11.59,9.42-20.06a.52.52,0,0,0-.84-.22,36.25,36.25,0,0,1-11.39,6.38c-2.8.94-9.57,3.12-11-1s5-7.91,7.54-9.95c1.71-1.38,4.53-3.36,3.55-5.94-.79-2.08-3.12-2.85-5.1-3.19-2.63-.45-4.71-.44-6.22-3-.73-1.25-1.08-2.63-2-3.77-3.67-4.35-10.19-2.75-12.25,2.21-.24.6.72.86,1,.27Z" transform="translate(-727.67 -357.31)"/><path class="cls-6" d="M842.26,394.23a8.88,8.88,0,0,0-12.29.52,5.48,5.48,0,0,1-1.83,1.7c-1.33.56-2.76-.31-4.16-.63-4.2-.94-7.71,3.14-10,6.8-7.2,11.5-13.45,23.77-16.58,37s-2.95,27.46,2.34,40c4.91-2.15,10.22-4.79,12.26-9.75,1.75-4.25.6-9.1-.83-13.48a121,121,0,0,0-7.27-17.55l4,.11c.8-13.78,12.36-26.16,26.06-27.91,3.92-.5,8.25-.08,11.22,2.53,3.56,3.13,4.13,8.37,4.47,13.1.62,9,1.22,18.2-1.7,26.7-1.17,3.42-2.9,6.65-3.91,10.13-2,6.88-.4,15.51,5.84,19,3.15,1.77,6.91,2,10.51,2.13l23.63,1.06c-1.08-5.25-6.55-8.21-11.53-10.18s-10.58-4.12-12.78-9c-2-4.45-.43-9.58.66-14.33a68.66,68.66,0,0,0-9.07-51.71c-2-3.1-4.64-6.29-8.3-6.78" transform="translate(-727.67 -357.31)"/><path class="cls-6" d="M842.62,393.87a9.43,9.43,0,0,0-7.58-2.26,9.72,9.72,0,0,0-3.31,1.1c-1.61.9-2.43,2.53-4.23,3s-3.34-.6-5.23-.45a7.58,7.58,0,0,0-3.69,1.41c-2.84,2-4.66,5.1-6.42,8-8.68,14.26-15.82,29.95-17.1,46.79a61.54,61.54,0,0,0,4.21,28.26.51.51,0,0,0,.74.3c6.83-3,13.68-7.16,13.37-15.59-.16-4.44-1.82-8.78-3.35-12.9a127.72,127.72,0,0,0-5.69-13l-.43.75,4,.11a.51.51,0,0,0,.5-.5A30.52,30.52,0,0,1,823.75,415a25.57,25.57,0,0,1,14.74-3.63c6.32.61,9.38,5.18,10.28,11a100.64,100.64,0,0,1,.91,17.26,49.47,49.47,0,0,1-4.13,18.42c-3.09,7.35-4.74,17.08,1.89,23.17,4,3.72,9.8,3.69,15,3.92l21.66,1a.52.52,0,0,0,.48-.64c-1.49-6.07-7.55-8.8-12.86-10.91-3.44-1.37-7.16-2.86-9.7-5.66-3.39-3.74-2.89-8.7-1.88-13.27,1.71-7.76,2.86-15.31,2.28-23.3a70.18,70.18,0,0,0-5.2-21.87,62.42,62.42,0,0,0-6-11.25c-2-2.87-4.44-5.42-8-6.09-.63-.11-.9.85-.27,1,4.13.77,6.6,4.25,8.67,7.61a67.39,67.39,0,0,1,5.29,10.62,68.87,68.87,0,0,1,4.65,22.5,68,68,0,0,1-.56,11.5c-.54,3.93-1.69,7.72-2.33,11.63-1,6.31,1,11.41,6.53,14.69,6.27,3.69,16.4,4.83,18.42,13.1l.49-.63-20.67-.93c-6.26-.28-13.44-.12-17.22-6-2.91-4.55-2.95-10.48-1.34-15.48,1.89-5.85,4.65-11,5.43-17.22s.38-12.61-.07-18.88c-.32-4.27-.72-9.06-3.63-12.45-6.24-7.28-18.76-3.26-25.38,1.28A32.58,32.58,0,0,0,811,426.66a29.89,29.89,0,0,0-2.82,7.25c-.28,1.14-.26,2.46-.62,3.56-.19.58.1.5-.43.88s-2.62-.07-3.22-.09a.5.5,0,0,0-.43.75c3.62,7.18,7.51,15.26,8.69,23.29.64,4.35-.32,8.4-3.6,11.47-2.58,2.41-5.87,3.92-9.07,5.34l.74.3c-6-14.56-5.33-30.81-.71-45.65a117.78,117.78,0,0,1,9.28-21.34c1.77-3.24,3.63-6.44,5.61-9.55s5.17-7.4,9.43-6.56c1.24.24,2.45,1,3.75.79s1.88-1.12,2.73-2a8.45,8.45,0,0,1,11.58-.53c.48.42,1.19-.28.71-.71Z" transform="translate(-727.67 -357.31)"/><path class="cls-6" d="M921.7,391.5c-7.22-1.86-15.08.58-21,5.11s-10.13,11-13.45,17.65c-1.94,3.91-3.58,8.68-1.42,12.46,1.13-3.66,2.52-7.66,5.84-9.58,4.46-2.59,10.05-.21,14.63,2.17,5.88,3.06,11.9,6.23,16.28,11.21,2.33,2.66,4.31,5.91,7.59,7.25-2.84-4.88-1.45-11,0-16.46.44-1.63,1-3.41,2.42-4.31,3.09-1.94,6.85,2.23,6.66,5.88s-2.38,6.92-2.81,10.55c-1,8.16,6.87,14.61,9,22.55,3.38-6.94.45-15.1-.68-22.74-.86-5.77-.65-11.69-1.88-17.4A35.67,35.67,0,0,0,921,390.44" transform="translate(-727.67 -357.31)"/><path class="cls-6" d="M921.83,391c-9.93-2.34-19.72,2.42-26.33,9.73a57.28,57.28,0,0,0-8.5,12.88c-2.08,4.16-3.84,8.91-1.61,13.35a.51.51,0,0,0,.92-.12c1.49-4.8,3.65-10.08,9.46-10.33,4.92-.22,9.78,2.89,14,5.15a47.47,47.47,0,0,1,11.37,8c2.89,2.94,4.94,6.75,8.81,8.54a.5.5,0,0,0,.69-.68c-2.8-5.23-1.46-12.14.48-17.49.81-2.22,2.75-3.76,5-2.35a6,6,0,0,1,2.52,4c.55,3-1.15,6-2,8.78-3.1,9.92,5.77,16.85,8.3,25.69.11.38.73.53.91.12,2.74-6.09,1.35-12.55.13-18.84-1.45-7.52-1-15.33-2.88-22.76a36.41,36.41,0,0,0-22-24.69c-.6-.23-.86.74-.26,1a35.33,35.33,0,0,1,21.43,24.7c1.45,6.38,1.11,13,2.23,19.46,1.18,6.8,3.45,14,.46,20.65l.91.12c-1.76-6.18-6.47-10.94-8.37-17-1.22-3.9-.24-7.2,1-10.91.93-2.67,1.77-5.46.52-8.15-2-4.25-7-5.11-8.84-.33-2.19,5.64-3.48,13.06-.52,18.6l.69-.68c-2.57-1.19-4.27-3.27-6-5.41a36.39,36.39,0,0,0-5.67-5.7,75.09,75.09,0,0,0-13.65-8.1c-3.87-1.87-8.68-3.73-12.89-1.82-4.06,1.85-5.61,6.33-6.84,10.28l.92-.12c-2.5-5,.54-10.52,3-14.91a51.44,51.44,0,0,1,7.56-10.71c6.32-6.71,15.5-11.06,24.8-8.87a.5.5,0,0,0,.26-1Z" transform="translate(-727.67 -357.31)"/><path class="cls-6" d="M892.88,454.24c-.63,2.53-1.23,5.36.07,7.62.44.77,1.07,1.41,1.45,2.21,1.58,3.28-1.6,7.76.66,10.61a104,104,0,0,1,11.87-4.35c-3.3-2.08-4.56-6.2-6.8-9.39a33.53,33.53,0,0,0-6.77-6.58" transform="translate(-727.67 -357.31)"/><path class="cls-6" d="M892.4,454.11a15.27,15.27,0,0,0-.65,5.65c.28,2.05,1.8,3.17,2.4,5,1.1,3.39-1.66,6.92.48,10.15a.52.52,0,0,0,.68.18,111.61,111.61,0,0,1,11.75-4.31.51.51,0,0,0,.12-.92c-3-2.11-4.25-5.6-6.21-8.59a32.61,32.61,0,0,0-7.26-7.29c-.5-.4-1.21.3-.71.71a31.14,31.14,0,0,1,8.24,9c1.51,2.67,2.86,5.26,5.43,7.05l.12-.92a115.27,115.27,0,0,0-12,4.41l.68.18c-1.89-2.85.37-6.2-.23-9.29-.28-1.44-1.21-2.28-1.88-3.53-1.22-2.27-.59-4.88,0-7.23a.5.5,0,0,0-1-.27Z" transform="translate(-727.67 -357.31)"/><path class="cls-6" d="M814.74,429.46c3.85-3,8.75-2.2,12.42.65l.36-.85c-1.27.06-2.4-.88-3.53-1.34a10.49,10.49,0,0,0-3.21-.74,11.27,11.27,0,0,0-2.9.19c-1.1.23-2.13,1-3.2,1.17l.62.35,0-.11-.34.61.08,0c.59-.24.33-1.21-.26-1l-.09,0a.5.5,0,0,0-.35.61l0,.12a.52.52,0,0,0,.62.35c.84-.16,1.59-.75,2.43-1a9.87,9.87,0,0,1,4.83-.13c1.87.43,3.36,2,5.31,1.86.38,0,.72-.57.35-.86-4.15-3.21-9.52-4-13.84-.65-.51.4.2,1.1.71.71Z" transform="translate(-727.67 -357.31)"/><path class="cls-6" d="M835.36,431.93a14.48,14.48,0,0,1,5.8-2,13.86,13.86,0,0,1,2.41,0c-.18,0,3.56.59,2.08.05-3.39-1.23-6.87.68-10.22.73a.5.5,0,0,0,0,1,24.1,24.1,0,0,0,4.45-.77,16,16,0,0,1,6.38.22c.7.14,1.93.2,1.47-1s-3.85-1.27-5-1.29a15.29,15.29,0,0,0-7.91,2.17.5.5,0,0,0,.5.86Z" transform="translate(-727.67 -357.31)"/><path class="cls-6" d="M816.69,433.89c1.38-.05,2.4,1.63,3.84,1.83a6.7,6.7,0,0,0,3.79-.87c.54-.25.15-1-.38-.91-2.36.51-4.35-1.79-6.8-1.42a.5.5,0,0,0-.12.91c1.39.63,2.79,1.21,4.21,1.76l.26-1a8.31,8.31,0,0,1-3.84-1.74l-.22.83a8.53,8.53,0,0,1,2.78-.59c.64,0,.64-1,0-1a9.13,9.13,0,0,0-3.05.63c-.31.12-.54.57-.22.84a9.42,9.42,0,0,0,4.29,2,.5.5,0,0,0,.26-1c-1.34-.51-2.66-1.06-4-1.65l-.11.91c2.41-.36,4.3,2,6.8,1.42l-.39-.91c-1.74.84-3.3,1.09-4.91-.14a3.33,3.33,0,0,0-2.22-1c-.64,0-.64,1,0,1Z" transform="translate(-727.67 -357.31)"/><path class="cls-6" d="M838,436.94a3.53,3.53,0,0,1,3.36-1.17l.13-1a4.52,4.52,0,0,0-4.25,1.87.49.49,0,0,0,.18.68,7.78,7.78,0,0,0,7.19-.32.5.5,0,0,0-.38-.91,6.82,6.82,0,0,1-4.65-.22c-.55-.2-1.27-.44-1.66.17-1.17,1.82,3.58,1.59,4.15,1.62l-.13-1a5.44,5.44,0,0,1-3.3-.42c-.58-.26-1.09.6-.5.87a6.62,6.62,0,0,0,4.07.51c.58-.1.4-.95-.14-1a12.17,12.17,0,0,0-2.81-.17c-.64.14-.27.23.21.42a8,8,0,0,0,.94.31,7.26,7.26,0,0,0,4.08-.17l-.38-.91a6.74,6.74,0,0,1-6.19.32l.18.68a3.55,3.55,0,0,1,3.39-1.37c.56.07.69-.88.14-1a4.57,4.57,0,0,0-4.33,1.43c-.44.47.27,1.18.7.71Z" transform="translate(-727.67 -357.31)"/><path class="cls-6" d="M822.4,446.83a1.71,1.71,0,0,0,.36,2.52c1,.77,3.6.14,3.9,1.64.13.63,1.09.36,1-.27a2.21,2.21,0,0,0-1.67-1.61,11.73,11.73,0,0,0-1.56-.23c-.44-.06-2-.55-1.29-1.34.44-.47-.27-1.18-.71-.71Z" transform="translate(-727.67 -357.31)"/><path class="cls-6" d="M831.64,451.37c.54-1,2.06-.18,2.93-.27a2.29,2.29,0,0,0,1.24-.5,2.59,2.59,0,0,0,.86-2.87c-.2-.61-1.17-.35-1,.26a1.62,1.62,0,0,1-.42,1.75c-.64.57-1.42.3-2.18.2a2.1,2.1,0,0,0-2.33.92c-.31.57.56,1.07.86.51Z" transform="translate(-727.67 -357.31)"/><path class="cls-6" d="M890.26,441.43c1.33-.58,3.67-1.2,4.3.67l.61-.61c-1.08-.19-4.16-.16-4.2,1.52-.05,1.9,3.25.35,3.89-.11a.51.51,0,0,0-.25-.94,4.41,4.41,0,0,0-2.75.84.51.51,0,0,0,0,.87,1.66,1.66,0,0,0,2-.29.51.51,0,0,0,0-.71,1,1,0,0,0-1.43,0,.51.51,0,0,0,.35.86,4.75,4.75,0,0,0,1.91-.53l-.61-.78a1.2,1.2,0,0,1-1.16.53c-.63-.1-.9.87-.27,1a2.14,2.14,0,0,0,2.14-.78.51.51,0,0,0-.61-.79,3.41,3.41,0,0,1-1.4.39l.35.85h0v-.71l-.83.13v.87a3.49,3.49,0,0,1,2.25-.71l-.25-.93a4.31,4.31,0,0,1-1.39.73c-.17.05-1.09.38-.76.09a3.62,3.62,0,0,1,2.7-.4c.35.06.74-.22.61-.61-.86-2.59-3.79-2.13-5.77-1.28-.58.26-.08,1.12.51.87Z" transform="translate(-727.67 -357.31)"/><path class="cls-6" d="M904.14,438.31c.75-.93,2.71-1,3.78-1.16a25.69,25.69,0,0,1,3.92-.21l-.13-1c-1.33.21-2.28,1.34-3.65,1.36-1,0-1.73-.07-2.22.91a.51.51,0,0,0,.43.75,5,5,0,0,0,3.4-1.16.51.51,0,0,0-.1-.79,2.22,2.22,0,0,0-3,.38.52.52,0,0,0,.22.84,2.26,2.26,0,0,0,2.56-.74c.22-.25.19-.77-.22-.83a2.54,2.54,0,0,0-2.72,1.19.5.5,0,0,0,.43.75,6.23,6.23,0,0,0,3.38-1.19.52.52,0,0,0,.23-.57l-.09-.39c-.14-.63-1.11-.36-1,.27l.09.39.23-.57a5.21,5.21,0,0,1-2.88,1.06l.43.76,1.6-.74-.22-.83a1.23,1.23,0,0,1-1.59.47l.22.84a1.18,1.18,0,0,1,1.76-.22l-.1-.79a3.86,3.86,0,0,1-2.69.87l.43.75c.29-.56,2.15-.42,2.75-.65a12.32,12.32,0,0,1,2.53-1.16c.57-.09.41-1-.14-1a25.88,25.88,0,0,0-5,.37c-1.17.2-2.65.31-3.44,1.29-.4.5.3,1.21.71.71Z" transform="translate(-727.67 -357.31)"/><path class="cls-6" d="M899.52,434.29a49.52,49.52,0,0,1,4.32-3c1.71-.95,3.83-.81,5.74-.94l-.26-.93c-1.66.77-3.57.9-5.27,1.66a40.69,40.69,0,0,0-5,2.83l.68.69.84-1.25c.36-.54-.5-1-.86-.51l-.84,1.25c-.29.42.27.95.68.69a38.22,38.22,0,0,1,5-2.83c1.72-.76,3.6-.89,5.28-1.67a.5.5,0,0,0-.25-.93c-1.82.13-3.87,0-5.57.73a30.68,30.68,0,0,0-5,3.34c-.52.37,0,1.24.51.86Z" transform="translate(-727.67 -357.31)"/><path class="cls-6" d="M893.05,436.71a16,16,0,0,0-6-1.1c-.54,0-.7.9-.13,1l4.87.7c.63.09.9-.88.26-1l-4.86-.69-.14,1a15.19,15.19,0,0,1,5.7,1.07c.6.23.86-.74.27-1Z" transform="translate(-727.67 -357.31)"/><path class="cls-6" d="M896,450.06a2.84,2.84,0,0,0,1.06,3.17c1.49,1.1,2.72.24,4.22-.11s2.86.53,4.28-.52a1.63,1.63,0,0,0,.31-2.51l-.6.79v-.16a.5.5,0,0,0,.51.86.86.86,0,0,0,0-1.56.5.5,0,0,0-.61.78c-.26.93-.77,1.4-1.55,1.41a2.34,2.34,0,0,1-1.31-.08c-.36-.07-.54-.21-.86-.16a13.61,13.61,0,0,0-1.6.71c-1.49.42-3.39-.52-2.87-2.35a.5.5,0,0,0-1-.27Z" transform="translate(-727.67 -357.31)"/><path class="cls-6" d="M903,459.83c.92-.54,2.06-.31,3.07-.49a6.42,6.42,0,0,0,2.77-1.26c.51-.38,0-1.25-.5-.86a6,6,0,0,1-3.49,1.24,4.75,4.75,0,0,0-2.35.51.5.5,0,0,0,.5.86Z" transform="translate(-727.67 -357.31)"/><path class="cls-6" d="M904.28,463a5.41,5.41,0,0,0,3-1.14,5.51,5.51,0,0,0,1.07-1.14c.38-.56.56-1.37,1.16-1.72a.5.5,0,0,0-.5-.87c-.82.48-1,1.35-1.52,2.08a4.36,4.36,0,0,1-3.25,1.79c-.63,0-.64,1,0,1Z" transform="translate(-727.67 -357.31)"/><path class="cls-6" d="M902.66,457.69c1.16-1.07,3.44-.41,4.77,0a.5.5,0,0,0,.27-1c-1.76-.5-4.25-1.09-5.75.29-.47.44.24,1.14.71.71Z" transform="translate(-727.67 -357.31)"/><path class="cls-6" d="M822.09,456.62c1-.56,1.95-1.22,3-1.7a6.13,6.13,0,0,1,3-.72,12.18,12.18,0,0,1,1.76.74,8.65,8.65,0,0,0,1.5.23,7.63,7.63,0,0,1,4,2c.51.39,1-.47.5-.86a11.49,11.49,0,0,0-3.39-2.24c-1.14-.35-2.55-.28-3.79-.7-2.56-.86-4.94,1.2-7,2.4a.5.5,0,0,0,.5.87Z" transform="translate(-727.67 -357.31)"/><path class="cls-6" d="M822.36,457.18a10.82,10.82,0,0,0,5,1.36c.64,0,.64-1,0-1a9.72,9.72,0,0,1-4.5-1.22c-.56-.31-1.07.55-.5.86Z" transform="translate(-727.67 -357.31)"/><path class="cls-6" d="M821.42,458.08c1.94,1.94,3.7,2.86,6.52,2.67a14.26,14.26,0,0,0,4.23-.94c.42-.16,3.9-2,3.67-2.17.47.44,1.18-.27.71-.71l-.17-.16a.51.51,0,0,0-.49-.13c-2,.65-3.46,2.18-5.59,2.72-3.21.83-5.8.39-8.17-2a.5.5,0,0,0-.71.71Z" transform="translate(-727.67 -357.31)"/><path class="cls-6" d="M827.63,458.68a20,20,0,0,1,4.42-1.23c.64-.1.37-1.07-.26-1a21.26,21.26,0,0,0-4.43,1.23c-.58.24-.33,1.21.27,1Z" transform="translate(-727.67 -357.31)"/><g class="cls-7"><path class="cls-6" d="M833.53,433.45a16.06,16.06,0,0,0-1,4.69c-.09,1.41,0,2.82,0,4.23a22.91,22.91,0,0,1-.93,6,9.18,9.18,0,0,0,2.92-.75,1.41,1.41,0,0,0,.68-.49,1.32,1.32,0,0,0,.14-.76c0-1.67-.82-3.26-.89-4.93-.06-1.36.33-2.69.4-4a3.94,3.94,0,0,0-1.44-3.61" transform="translate(-727.67 -357.31)"/><path class="cls-6" d="M833.05,433.32c-1.71,4.86-.61,10-2,15a.5.5,0,0,0,.48.63c1.13-.15,2.79-.27,3.66-1.09s.48-2.46.22-3.6a12.72,12.72,0,0,1-.43-4.29,24.64,24.64,0,0,0,.3-2.84,4.51,4.51,0,0,0-1.58-3.61c-.5-.41-1.21.3-.71.71,2.3,1.91.79,4.81.89,7.29,0,.9.38,1.72.47,2.6.28,2.61-.46,3.52-2.82,3.83l.48.63c1.35-5,.26-10.12,2-15,.21-.61-.75-.87-1-.26Z" transform="translate(-727.67 -357.31)"/></g><g class="cls-7"><path class="cls-6" d="M898.82,438.58a6.38,6.38,0,0,0,3.89,6.92c1.08.4,2.39.6,3,1.58a4.06,4.06,0,0,1,.42,1.53c.39,2.3,1.77,4.79,4.08,5.06,1,.11,2.18-.51,2.07-1.48a2.21,2.21,0,0,0-.58-1.07c-2.21-2.66-4.48-5.37-7.44-7.15a31.15,31.15,0,0,1-3.43-2.06,4.47,4.47,0,0,1-1.88-3.39" transform="translate(-727.67 -357.31)"/><path class="cls-6" d="M898.32,438.58a6.94,6.94,0,0,0,4.59,7.51A4.78,4.78,0,0,1,905.5,448a8.85,8.85,0,0,1,.36,1.73,8,8,0,0,0,1,2.2,4.67,4.67,0,0,0,3.3,2.27,2.49,2.49,0,0,0,2.52-1.24c.52-1.31-.9-2.52-1.64-3.38a31,31,0,0,0-5.08-5c-2.27-1.69-6.2-2.69-6.49-6-.06-.63-1.06-.64-1,0,.23,2.57,2,3.9,4.16,5.1a22.84,22.84,0,0,1,4.73,3.39c.81.77,3.21,2.7,3.49,3.85,1,4.3-2.64,1.25-3.13.52a7.34,7.34,0,0,1-1-2.27c-.31-1.15-.28-2.16-1.22-3s-2.59-.94-3.72-1.69a6,6,0,0,1-2.48-5.88c.08-.64-.92-.63-1,0Z" transform="translate(-727.67 -357.31)"/></g><g class="cls-7"><path class="cls-6" d="M891.38,447.14l2.82.8a1.17,1.17,0,0,1,.71.41,1.06,1.06,0,0,1,.1.66,17,17,0,0,1-.86,4.53c-1.66-1.1-.87-3.91-2.2-5.39" transform="translate(-727.67 -357.31)"/><path class="cls-6" d="M891.24,447.62l1.88.54.94.26a.86.86,0,0,1,.42,1.05,10.26,10.26,0,0,1-.82,3.94l.74-.3c-.91-.69-.92-2-1.13-3a4.93,4.93,0,0,0-1-2.28c-.4-.5-1.1.21-.7.71,1.31,1.64.47,4.07,2.29,5.46a.51.51,0,0,0,.74-.3,18.73,18.73,0,0,0,.74-3.15,4.85,4.85,0,0,0,.07-2.14,1.31,1.31,0,0,0-.84-.83,23.26,23.26,0,0,0-3.09-.89.5.5,0,0,0-.27,1Z" transform="translate(-727.67 -357.31)"/></g><g class="cls-7"><path class="cls-6" d="M905.54,463.8a2.56,2.56,0,0,1,2.89-.62,1.7,1.7,0,0,1,.45,2.64c-.76.64-1.92.29-2.8-.17a2.5,2.5,0,0,1-1.47-1.48" transform="translate(-727.67 -357.31)"/><path class="cls-6" d="M905.89,464.15a2.1,2.1,0,0,1,2.29-.54,1.31,1.31,0,0,1,.62,1.45c-.51,1.53-3.4,0-3.71-1-.18-.62-1.15-.35-1,.26.59,1.92,4.87,3.7,5.64,1a2.34,2.34,0,0,0-1.09-2.58,3.11,3.11,0,0,0-3.5.69c-.47.44.23,1.14.71.71Z" transform="translate(-727.67 -357.31)"/></g><g class="cls-7"><path class="cls-6" d="M931.61,454.78l-4.34,4.53a11.15,11.15,0,0,0-3.07,4.49c-.45,1.62-.14,3.34-.29,5a9.48,9.48,0,0,1-3.87,6.8,2.59,2.59,0,0,1-1.07.51,3.24,3.24,0,0,1-2-.6,24.71,24.71,0,0,0-8.84-2.88,2.58,2.58,0,0,1-1.29-.37.86.86,0,0,1-.26-1.19,1.17,1.17,0,0,1,.61-.32c2.21-.64,4.5-.94,6.68-1.65a18.54,18.54,0,0,0,9.22-6.74" transform="translate(-727.67 -357.31)"/><path class="cls-6" d="M931.26,454.43c-2.69,2.8-7,6-7.71,10.06-.39,2.38.15,4.64-.83,6.95-.45,1.06-1.34,2.79-2.45,3.37-1.92,1-3.68-.15-5.36-.87a26.22,26.22,0,0,0-2.86-1c-.7-.2-3.41-.35-3.75-.77-1.1-1.38,1.66-1.55,2.41-1.72a29.64,29.64,0,0,0,3.7-1,19.46,19.46,0,0,0,9.15-6.84c.39-.51-.48-1-.86-.5a18.45,18.45,0,0,1-8.19,6.25,31.49,31.49,0,0,1-4.48,1.2c-.91.2-3,.29-3.67,1.08a1.35,1.35,0,0,0,.21,2c.75.65,2.25.56,3.15.73a24.45,24.45,0,0,1,4.8,1.48c1.66.7,3.4,2.27,5.26,1.49s3.2-2.91,3.9-4.58c1.24-3,.05-6.34,1.55-9.16s4.54-5.2,6.74-7.48c.44-.47-.26-1.17-.71-.71Z" transform="translate(-727.67 -357.31)"/></g><g class="cls-7"><path class="cls-6" d="M894.74,476.48a13.59,13.59,0,0,0-7.16,3c-.53.44-1.08,1.11-.8,1.74s1.16.7,1.85.59c3-.48,6-2.11,8.93-1.46a5.73,5.73,0,0,0,2.19.31,2.61,2.61,0,0,0,1.81-1.6,7.9,7.9,0,0,0,.48-2.46c.05-.67,0-1.51-.59-1.8a1.6,1.6,0,0,0-1,0l-7,1" transform="translate(-727.67 -357.31)"/><path class="cls-6" d="M894.74,476a14.89,14.89,0,0,0-5.8,1.92c-1,.61-3.07,1.78-2.66,3.3.28,1.07,1.42,1.16,2.35,1.09,2.77-.21,5.2-1.8,8-1.55,1.61.14,3.14.93,4.51-.31a5.69,5.69,0,0,0,1.33-4.64,1.62,1.62,0,0,0-1.55-1.61,14.07,14.07,0,0,0-3.27.45l-4.4.65c-.63.09-.36,1.06.27,1,1.38-.2,7.2-1.81,8-.19a4.41,4.41,0,0,1-.22,2.06L898.42,480l-.73-.19c-.9,0-1.69-.2-2.63-.1-2,.22-4.37,1.69-6.36,1.5-.77.31-.92,0-.43-.87a.93.93,0,0,1,.51-1.18,5.27,5.27,0,0,1,1.35-.81,14.08,14.08,0,0,1,4.61-1.4c.63-.08.64-1.08,0-1Z" transform="translate(-727.67 -357.31)"/></g><g class="cls-7"><path class="cls-6" d="M815.28,462.68a6,6,0,0,0,.48,6.57,10.21,10.21,0,0,0,5.87,3.56c2.52.62,5.42.75,7.16,2.68s1.73,5.14,3.83,6.65a7.29,7.29,0,0,0,3.66,1l6.46.64c1.63.16,3.46.28,4.75-.74-3-1.61-4-5.33-4.4-8.67a60.72,60.72,0,0,1-.39-11.75c-1.77-.12-3.3,1.25-4.33,2.7s-1.87,3.12-3.33,4.14c-2.13,1.47-5,1.18-7.53.76a18.32,18.32,0,0,1-5.61-1.58c-2.85-1.48-4.79-4.22-6.61-6.87" transform="translate(-727.67 -357.31)"/><path class="cls-6" d="M814.85,462.43a6.82,6.82,0,0,0,1.89,8.56,12.14,12.14,0,0,0,5.1,2.38c2.48.59,5.3.72,6.92,3,1.14,1.57,1.35,3.64,2.54,5.18a5.71,5.71,0,0,0,4.07,2.05c2.28.34,4.61.48,6.91.7,2,.18,3.75.31,5.46-.77a.5.5,0,0,0,0-.86c-2.94-1.82-3.74-5.25-4.17-8.46a60,60,0,0,1-.37-11.53.5.5,0,0,0-.5-.5,5.77,5.77,0,0,0-4.29,2.34c-2.27,2.7-3.28,5.5-7.37,5.6a19.89,19.89,0,0,1-8.89-1.85c-2.81-1.46-4.67-4.15-6.43-6.69-.36-.53-1.23,0-.86.5,2.63,3.81,5.36,7.09,10,8.22,4,.95,8.89,1.78,11.84-1.74.61-.72,1.07-1.53,1.62-2.29a6.62,6.62,0,0,1,1.91-2.16,1,1,0,0,1,1.21-.45c.77-.22,1,.1.62,1a30.88,30.88,0,0,1,0,4.41c.06,1.64.2,3.27.4,4.89.45,3.67,1.36,7.53,4.71,9.59v-.86c-1.81,1.14-3.89.73-5.89.54a48.43,48.43,0,0,1-6.48-.69c-3.82-.94-3.45-4.52-5.53-7.09-1.7-2.08-4.43-2.35-6.88-2.9-4.23-1-9.46-4.59-6.75-9.56.31-.56-.56-1.07-.86-.5Z" transform="translate(-727.67 -357.31)"/></g><g class="cls-8"><path class="cls-6" d="M788.63,520.34c2.81,6.54.88,14.12,2.15,21.13a21.35,21.35,0,0,0,7,12.42,18.19,18.19,0,0,0,13.45,4.36c2.9-.3,5.83-1.35,8.65-.63-3.92,2.89-9.34,1.92-14.14,1.07s-10.5-1.15-13.72,2.51a80.4,80.4,0,0,1-3.25-28,75.07,75.07,0,0,0,.39-11" transform="translate(-727.67 -357.31)"/><path class="cls-6" d="M788.15,520.48c2.15,5.38,1.43,11.08,1.69,16.73a24.58,24.58,0,0,0,3.93,13,19.8,19.8,0,0,0,9.76,7.61,18.2,18.2,0,0,0,6.86,1c3.15-.16,6.16-1.32,9.33-.71l-.12-.91c-8.41,5.67-20.32-4.31-28,3.66l.84.22a80.75,80.75,0,0,1-3.32-19.82c-.25-6.35.9-12.69.47-19,0-.63-1-.64-1,0,.45,6.65-.77,13.3-.43,20a82.45,82.45,0,0,0,3.31,19.15.51.51,0,0,0,.84.22c7.34-7.66,19.37,2.14,27.76-3.51.32-.22.33-.83-.12-.91-4.79-.93-9.4,1.36-14.26.25a18.83,18.83,0,0,1-11.91-9c-5.09-8.8-1.07-19-4.71-28.16-.23-.59-1.2-.33-1,.27Z" transform="translate(-727.67 -357.31)"/></g><g class="cls-8"><path class="cls-6" d="M843,545.39c1.16,0,1.66,1.42,2,2.53,1.72,5.45,7.45,9.18,13.16,9.1a16.9,16.9,0,0,0,14-8.61,21.9,21.9,0,0,0,1.75-16.61,23.57,23.57,0,0,1-1-4.1c-.35-3.69,1.76-7.11,3.8-10.2l-.31,34.58c0,1.3-.1,2.78-1.09,3.63s-2.7.66-4.13.68c-4.23.08-7.93,3.15-12.15,3.43-3.1.21-6.08-1.12-8.81-2.6a17.51,17.51,0,0,1-6.19-4.9c-1.54-2.17-2.11-5.2-.78-7.5" transform="translate(-727.67 -357.31)"/><path class="cls-6" d="M842.88,545.88c1.41.29,1.92,3.1,2.53,4.25a13.27,13.27,0,0,0,2.16,2.94,14.85,14.85,0,0,0,6.25,3.81,15.8,15.8,0,0,0,14.58-3.3,19.75,19.75,0,0,0,6.84-14.9,32,32,0,0,0-1.47-9c-1.19-4.52,1-8.21,3.34-11.88l-.93-.25L876,537.26l-.09,9.88c0,1.64,0,3.3,0,4.94s0,3.06-2,3.73a8.37,8.37,0,0,1-2.4.09c-5.71.07-10.21,4.61-16.11,3-5.39-1.46-15.17-6.91-11.75-13.84.29-.57-.58-1.08-.86-.5-2.88,5.84,2.48,10.55,7.15,13.08,3,1.63,6.35,3.07,9.85,2.59s6.24-2.46,9.54-3.12c2.36-.48,5.86.58,7.1-2.19a9.78,9.78,0,0,0,.45-3.84l.06-6.42.24-27.17a.51.51,0,0,0-.94-.25c-1.56,2.4-3.19,4.93-3.72,7.81-.51,2.71.46,5.06,1.08,7.66,1.55,6.42.36,13.71-4.27,18.62C865,556,858.12,558,852.21,555.18a12.9,12.9,0,0,1-6.47-6.72c-.59-1.46-.83-3.18-2.6-3.55-.63-.13-.89.83-.26,1Z" transform="translate(-727.67 -357.31)"/></g><g class="cls-8"><path class="cls-6" d="M902.59,524.33c2.31,4.66,1.08,10.21,1.7,15.37a21.69,21.69,0,0,0,15,17.76c-4.31,1-9.3,1.87-12.8-.85s-3.88-7.52-4.07-11.83a172.45,172.45,0,0,1-.08-19.95" transform="translate(-727.67 -357.31)"/><path class="cls-6" d="M902.16,524.58c1.82,4,1.3,8.37,1.46,12.65a22,22,0,0,0,15.51,20.71v-1c-3.41.78-7.25,1.62-10.61.23-3.85-1.6-5-5.68-5.43-9.49a136.58,136.58,0,0,1-.28-22.88c0-.65-1-.64-1,0a148.19,148.19,0,0,0-.11,15.2c.14,4,0,8.28,1.24,12.11,2.49,7.55,9.94,7.28,16.45,5.8a.51.51,0,0,0,0-1,21.37,21.37,0,0,1-13.86-13.88c-1.92-6.23.23-13-2.51-19-.26-.59-1.12-.08-.86.5Z" transform="translate(-727.67 -357.31)"/></g><path class="cls-9" d="M800.15,559a4.89,4.89,0,0,0-8.16,5.06c.8,2.13,2.94,3.42,5,4.31,6.21,2.65,13.09,3.18,19.82,3.67,15,1.08,30,2.17,45,.54a124,124,0,0,0,32.88-8.23c3.66-1.47,8-5,6.06-8.45-1.18-2.14-4.07-2.51-6.51-2.37-4.55.24-9,1.35-13.47,2.23a137.07,137.07,0,0,1-31,2.51c-7.58-.25-15.16-1.14-22.72-.54-9.12.72-18.41,3.55-27.22,1.1l6.48,0" transform="translate(-727.67 -357.31)"/><path class="cls-9" d="M800.5,558.65c-3.73-3.42-10-.77-9.22,4.58,1,6.26,11.36,7.72,16.19,8.41,8.57,1.22,17.36,1.56,26,2a185.22,185.22,0,0,0,27.37-.41,126,126,0,0,0,24.9-5.11A59.71,59.71,0,0,0,896.57,564c2.11-1.16,4.63-3.07,5.07-5.62,1.17-6.86-9.33-5.32-13-4.71-9.11,1.54-18,3.49-27.23,4-10.5.55-20.94-.93-31.43-.58-10,.33-20.08,3.85-30,1.28l-.14,1,6.48,0a.5.5,0,0,0,0-1l-6.48,0a.5.5,0,0,0-.13,1c6.69,1.73,13.44.75,20.16-.21a114,114,0,0,1,23-.68,163.74,163.74,0,0,0,22.48,0,186.59,186.59,0,0,0,20.91-3.25c3.22-.63,6.73-1.44,10-1.1,2.68.29,5.41,2.13,4,5.19a9.26,9.26,0,0,1-3.92,3.72c-2.93,1.7-6.41,2.69-9.62,3.74q-5.24,1.71-10.62,2.95c-15,3.46-30.33,3.65-45.62,2.8-8.27-.46-16.8-.66-25-2.14-3.52-.63-7.39-1.52-10.43-3.47-2-1.31-3.55-3.39-2.67-5.93,1.13-3.25,5-3.71,7.33-1.56.48.44,1.19-.27.71-.71Z" transform="translate(-727.67 -357.31)"/><path class="cls-6" d="M791.71,565.57c-.23-.44.52-.83.91-.54a1.86,1.86,0,0,1,.52,1.33c.8,6.55,6.76,11.2,12.67,14.15,8,4,17,6.27,25.83,5.34a1.47,1.47,0,0,0,1.13-.47,1.61,1.61,0,0,0,.13-1.11,13.64,13.64,0,0,1,2-8.54,3.36,3.36,0,0,0,.69-1.67c0-1.4-1.8-2-3.2-2.12l-28.29-3.09c-4.55-.5-9.45-1.16-12.76-4.31l1.45.88" transform="translate(-727.67 -357.31)"/><path class="cls-10" d="M792.21,565.57c0-.13.48,1,.44.92a9.58,9.58,0,0,1,.19,1.07,12.44,12.44,0,0,0,.76,2.38,15.44,15.44,0,0,0,1.93,3.28,25.65,25.65,0,0,0,7.41,6.3,50.25,50.25,0,0,0,22,6.94,38.32,38.32,0,0,0,5.77,0c.82-.06,2,0,2.48-.86.65-1.08.08-3.27.25-4.47.32-2.24,1.47-3.9,2.29-5.92s-.74-3.22-2.64-3.63c-4-.85-8.36-.94-12.46-1.39l-15.12-1.65c-4.85-.53-10-.94-13.87-4.32l-.6.78,1.45.89c.55.33,1.05-.53.5-.87l-1.45-.88c-.48-.29-1,.4-.61.79,5,4.4,12.24,4.35,18.48,5l12.69,1.39L828,572l3.42.38a6.52,6.52,0,0,1,1.77.25,3.48,3.48,0,0,1,1.44,2.62c-.28,1.34-1.45,2.69-1.82,4.1s-.11,3.1-.43,4.56c-.72,3.31-10.68,1.31-13,.85-7.26-1.46-15.14-4.45-20.68-9.52a17.51,17.51,0,0,1-3.74-4.69,12.87,12.87,0,0,1-1.09-2.86,9.39,9.39,0,0,0-.48-2.39c-.66-1.09-2-1.06-2.19.31-.09.63.92.63,1,0Z" transform="translate(-727.67 -357.31)"/><path class="cls-6" d="M851.66,574c-.49,2.68-1,5.51,0,8.06s3.91,4.55,6.41,3.49c2-.85,2.9-3.24,3-5.42a8,8,0,0,0-2.2-6.25c-1.68-1.55-4.56-1.86-6.21-.29l-1.19-1.16" transform="translate(-727.67 -357.31)"/><path class="cls-10" d="M851.17,573.87c-.67,3.84-1.32,8.57,2.19,11.27a4.68,4.68,0,0,0,7.19-1.26,9.1,9.1,0,0,0-.78-9.75,5.71,5.71,0,0,0-4-2,6,6,0,0,0-2.17.32c-1.06.3-.83.66-1.83-.31-.46-.45-1.17.26-.71.71l1.2,1.15a.5.5,0,0,0,.7,0c5.65-4.42,9.32,5.69,6.53,9.71-2,3-5.75,1.49-7.16-1.22-1.31-2.52-.7-5.66-.23-8.3.11-.63-.85-.9-1-.27Z" transform="translate(-727.67 -357.31)"/><path class="cls-6" d="M864,573.18a41.22,41.22,0,0,1,3.36,11.23l15.51-6.47a48.35,48.35,0,0,0,6.73-3.23,24.48,24.48,0,0,0,10.93-15.19c-4.66,4.72-11.15,7.12-17.57,8.76a102.3,102.3,0,0,1-18.16,2.93" transform="translate(-727.67 -357.31)"/><path class="cls-10" d="M863.56,573.43a43.67,43.67,0,0,1,3.3,11.12.5.5,0,0,0,.62.34l12.77-5.33c3.47-1.44,7.09-2.74,10.24-4.83A25.26,25.26,0,0,0,901,559.65a.5.5,0,0,0-.84-.48c-4.27,4.17-9.74,6.51-15.42,8.11a101.45,101.45,0,0,1-20,3.43c-.63,0-.64,1,0,1a101,101,0,0,0,21-3.68c5.57-1.65,10.9-4,15.09-8.16l-.84-.48a24.31,24.31,0,0,1-11.5,15.37c-6.64,3.77-14.27,6.23-21.32,9.17l.62.35a44.51,44.51,0,0,0-3.41-11.35c-.26-.59-1.13-.08-.86.5Z" transform="translate(-727.67 -357.31)"/><path class="cls-11" d="M806.68,545.09a3.13,3.13,0,0,0-4.24,1.63,3.85,3.85,0,0,0,1.62,4.46,5,5,0,0,0,4.92.07c1.34-.69,2.46-2.16,2.11-3.63-.53-2.2-3.52-2.49-5.77-2.19" transform="translate(-727.67 -357.31)"/><path class="cls-11" d="M806.93,544.66a3.63,3.63,0,0,0-5.17,2.82c-.31,2.87,2.28,5,5,4.87,2.44-.11,5.64-2.22,4.76-5.05-.78-2.5-4.06-2.62-6.19-2.37-.63.07-.64,1.07,0,1a7.92,7.92,0,0,1,3.59.2c2.73,1,1.64,4-.61,4.86a4,4,0,0,1-5.26-1.77c-.95-2.15,1-4.82,3.39-3.7.58.27,1.08-.59.5-.86Z" transform="translate(-727.67 -357.31)"/><path class="cls-11" d="M863.49,543.8a5.82,5.82,0,0,0-4.91,2.26,4.13,4.13,0,0,0,.29,5.17c1.91,1.86,5.4.82,6.81-1.43a4.76,4.76,0,0,0,.36-4.64,3.22,3.22,0,0,0-4.14-1.46" transform="translate(-727.67 -357.31)"/><path class="cls-11" d="M863.49,543.3c-2.82,0-5.75,1.59-6.13,4.63a4.09,4.09,0,0,0,4.61,4.72,5.73,5.73,0,0,0,5-5.59,3.88,3.88,0,0,0-5.33-3.8c-.59.26-.08,1.12.51.87,2.75-1.2,4.32,2.1,3.6,4.32a4.74,4.74,0,0,1-4.41,3.24,3.16,3.16,0,0,1-2.88-4.22c.62-2.2,2.92-3.16,5-3.17a.5.5,0,0,0,0-1Z" transform="translate(-727.67 -357.31)"/><path class="cls-11" d="M922.13,547a3.59,3.59,0,0,0-4.39,2.69,4.86,4.86,0,0,0,2.31,4.93,5.12,5.12,0,0,0,4.87.36,4.1,4.1,0,0,0,2.3-4.17c-.41-2.65-3.42-4-6-4.54" transform="translate(-727.67 -357.31)"/><path class="cls-11" d="M922.26,546.47a4.13,4.13,0,0,0-5.1,3.94,5.69,5.69,0,0,0,5.58,5.47c2.76.06,5.36-2.22,5-5.12-.4-3.07-3.78-4.39-6.4-5-.62-.15-.89.81-.27,1a9.46,9.46,0,0,1,4.59,2.14,3.5,3.5,0,0,1-1.37,5.82,4.82,4.82,0,0,1-5.59-2.25c-1.34-2.38.39-5.72,3.32-5a.5.5,0,0,0,.26-1Z" transform="translate(-727.67 -357.31)"/><path class="cls-12" d="M946,457.63l-.91-9.48c-.19-2,0-4.49,1.83-5.14,1.71-.58,3.35,1,4.35,2.5a28.23,28.23,0,0,1,4.14,10.07c5.14-.86,9.59,6,6.7,10.35,5.11.89,7.14,7.08,7.79,12.23a114.89,114.89,0,0,1-.36,31.54c-5.66-.64-10.91,3.71-13.31,8.88s-2.65,11-3.13,16.7-1.32,11.61-4.66,16.22a28.93,28.93,0,0,1-8.44,7.22,88.44,88.44,0,0,1-33.32,12.36c-2.13.33-4.86.29-5.78-1.67-1.27-2.69,2.28-5,5.08-6a114.12,114.12,0,0,0,25.6-12.73c5.66-3.76,11.15-8.24,14.16-14.33a46.28,46.28,0,0,0,3.12-9.49c3.4-13.52,6.81-27.06,8.81-40.85.8-5.49,1.37-11.18-.14-16.53s-5.5-10.32-10.94-11.45" transform="translate(-727.67 -357.31)"/><path class="cls-12" d="M946.54,457.63l-.73-7.58c-.16-1.69-.75-4.28.33-5.76,3.53-4.84,8.44,9.59,8.83,11.43a.49.49,0,0,0,.48.36c4.91-.55,8.8,5.31,6.26,9.6a.51.51,0,0,0,.3.73c4.37,1,6.17,5.39,7,9.35a79.51,79.51,0,0,1,1.32,15.78q0,3.84-.18,7.67c-.08,1.28-.17,2.56-.29,3.83s0,4.74-.65,5.58-3.53.81-4.77,1.29a14.21,14.21,0,0,0-4.28,2.63c-6.87,6-6.86,15.62-7.65,24-.46,4.84-1.28,10-4,14.08s-7.37,7-11.72,9.5a88.48,88.48,0,0,1-28.48,10.24c-1.9.33-7.06,1.42-7.14-2-.06-2.75,4.27-4.11,6.25-4.83a116.06,116.06,0,0,0,13.25-5.76c8-4.11,16.67-9.09,22.4-16.22a31.28,31.28,0,0,0,5.63-11.82c1.43-5.26,2.69-10.57,4-15.87,2.74-11.42,5.84-23.36,6.32-35.15.35-8.61-2.81-18.81-12.21-21.07-.63-.15-.9.81-.27,1,9.38,2.26,11.93,12.63,11.43,21-.56,9.49-2.79,19-4.9,28.28-1,4.58-2.17,9.15-3.31,13.71s-2,9.41-4,13.74c-3.54,7.85-11,13-18.15,17.38a115.31,115.31,0,0,1-11.45,6.12c-3.79,1.75-7.83,2.94-11.6,4.7-1.93.9-4.56,2.6-4.33,5.06.19,2.11,2.18,3,4.07,3.16,3.35.24,7.06-.9,10.28-1.7A88,88,0,0,0,927,566c6.78-2.78,14.13-6.29,19.48-11.42,6.23-6,6.76-14.58,7.45-22.68.75-8.93,3.94-22.54,15.66-21.66a.49.49,0,0,0,.48-.36,117.35,117.35,0,0,0,.61-29.78c-.61-5.52-2-13.19-8.39-14.61l.3.73a7.47,7.47,0,0,0-1.53-9.09,7.81,7.81,0,0,0-4.14-2c-.62-.14-.73,0-1.15-.42s-.41-1.57-.55-2a30,30,0,0,0-1.41-3.66c-1.09-2.33-4.41-8.81-7.91-5.85-1.25,1.06-1.37,2.95-1.3,4.47.14,3.36.63,6.73.95,10.08.06.63,1.06.64,1,0Z" transform="translate(-727.67 -357.31)"/><path class="cls-13" d="M967.76,553.35c-.68,8.36-9.41,13.91-17,18.55A296.47,296.47,0,0,0,925.62,589c-6.28,4.74-12.38,9.75-19.44,13.47s-15.27,6.1-23.33,5a33.34,33.34,0,0,0-.13,11.7c.75,3.58,2.48,6.91,3.61,10.4,2.08,6.38,2.14,13.15,2.07,19.8q-.24,24.14-2.37,48.21c-.26,3-.5,6.13,1.11,8.72,2.57,4.15,8.59,5,13.79,5.43,19.31,1.54,38.76,3.08,58.06,1.38a14.6,14.6,0,0,0,6.11-1.49,11.66,11.66,0,0,0,4.27-5.39c4.33-9.22,5.41-19.4,6.23-29.41,3.31-40.28,3.15-81.2-6.9-120.53" transform="translate(-727.67 -357.31)"/><path class="cls-13" d="M967.26,553.35c-.85,7.83-8.18,12.74-14.3,16.58-7.68,4.81-15.31,9.61-22.66,14.93-14.09,10.21-28.58,24.31-47.45,22.09a.5.5,0,0,0-.48.37c-.76,5.31-.91,10.35.88,15.47,2,5.58,3.94,10.59,4.42,16.56,1,11.75.05,23.85-.55,35.6q-.48,9.36-1.25,18.69c-.35,4.3-1.58,9.65,1.21,13.43,2.31,3.14,6.43,4.2,10.09,4.74,5.29.77,10.72,1,16.05,1.35a330.56,330.56,0,0,0,36.43,1c2.79-.11,5.58-.27,8.36-.5a19.07,19.07,0,0,0,6.65-1.28c4-1.9,5.67-6.71,7.05-10.59,3.62-10.26,4.17-21.39,4.94-32.14.84-11.76,1.35-23.55,1.37-35.34.06-26.3-2.37-52.65-8.84-78.18a.5.5,0,0,0-1,.27c7.43,29.33,9.48,59.69,8.62,89.86-.21,7.33-.59,14.65-1.09,22a218.72,218.72,0,0,1-2.28,22.56,68.21,68.21,0,0,1-2.3,9.48c-1.09,3.34-2.42,7.62-5.16,10s-7.36,2.34-11,2.58q-6.39.42-12.79.44c-7.55,0-15.11-.27-22.65-.74-7.18-.44-14.45-.76-21.59-1.67-3.22-.41-6.89-1.13-9.31-3.48-3-2.89-2.42-7.11-2.1-10.86q1-11.3,1.55-22.61.57-11.57.72-23.14c.08-6.86.17-13.89-1.8-20.54-1-3.23-2.5-6.26-3.44-9.5s-1.63-8.15-.54-11.54c.53-1.67,1-1.13,2.34-1.07.86,0,1.73,0,2.59,0a36.71,36.71,0,0,0,4.44-.46,43.84,43.84,0,0,0,9.95-3c7-3,13.12-7.49,19.11-12.07,6.46-4.94,13-9.76,19.79-14.25,6-4,12.57-7.41,18.28-11.87,4.32-3.38,8-7.58,8.65-13.22.07-.64-.93-.64-1,0Z" transform="translate(-727.67 -357.31)"/><path class="cls-14" d="M896.52,646.29c5,2.8,11.08,3.14,16.72,2.1s10.94-3.37,16.19-5.67c-1.67,3.28-5,5.44-8.56,6.47a40.51,40.51,0,0,1-10.94,1.15l-9.46.12c-.76,0-1.84-.66-1.28-1.18" transform="translate(-727.67 -357.31)"/><path class="cls-14" d="M896.27,646.73c11,5.8,23,1,33.41-3.58l-.69-.68c-2.64,4.79-7.9,6.62-13.07,7.12-2.46.24-4.94.23-7.4.26-.76,0-9,0-8.85-.44s-.75-.87-1-.26c-.71,2,2.54,1.8,3.66,1.79,4-.06,8.13,0,12.17-.24,6-.38,12.23-2.15,15.32-7.72a.51.51,0,0,0-.69-.69c-10,4.41-21.81,9.18-32.4,3.57-.57-.3-1.07.56-.5.87Z" transform="translate(-727.67 -357.31)"/><path class="cls-14" d="M900.63,664.63a34.18,34.18,0,0,0,26.26-2.23c-1.62,4.56-6.69,7.18-11.54,7.34s-9.51-1.68-13.93-3.66" transform="translate(-727.67 -357.31)"/><path class="cls-14" d="M900.5,665.11a35.21,35.21,0,0,0,26.65-2.28l-.74-.57c-4.13,10.35-17.16,6.75-24.74,3.39-.58-.26-1.09.6-.51.86,5.1,2.26,10.72,4.5,16.4,3.49a12.59,12.59,0,0,0,9.82-7.47c.17-.44-.39-.74-.74-.57a34.18,34.18,0,0,1-25.88,2.19c-.61-.19-.87.77-.26,1Z" transform="translate(-727.67 -357.31)"/><path class="cls-14" d="M902.54,680.43a64.72,64.72,0,0,0,55.38-22.81c-1.82,5.18-3.86,10.46-7.62,14.47-3.93,4.19-9.4,6.61-14.95,8.12a59.19,59.19,0,0,1-19.2,1.94" transform="translate(-727.67 -357.31)"/><path class="cls-14" d="M902.54,680.93a65.47,65.47,0,0,0,55.73-23l-.83-.48c-3,8.34-6.7,15.57-15,19.6-8,3.9-17.46,5-26.29,4.56-.64,0-.64,1,0,1,9.25.51,19.22-.77,27.53-5.07,8.09-4.18,11.81-11.57,14.72-19.83a.5.5,0,0,0-.83-.48,64.58,64.58,0,0,1-55,22.66c-.64-.06-.63.94,0,1Z" transform="translate(-727.67 -357.31)"/><path class="cls-15" d="M775.22,677.19A278.11,278.11,0,0,1,770.84,713c6.18,4.62,14.58,4.41,22.29,4.09a849.81,849.81,0,0,1,89,1.07,5.22,5.22,0,0,0,3.37-.53c1.15-.8,1.45-2.34,1.64-3.73a263.2,263.2,0,0,0,2.57-32.11c.06-3.25,0-6.67-1.54-9.53-2.33-4.27-7.36-6.15-12-7.69-4.39-1.47-9-3-13.55-2.48-13,1.36-19.7,16.92-31.8,21.88a21.53,21.53,0,0,1-16.94-.37c-3.81-1.75-7-4.59-10.75-6.52a25.46,25.46,0,0,0-24.62,1" transform="translate(-727.67 -357.31)"/><path class="cls-15" d="M774.72,677.19a285.37,285.37,0,0,1-4.36,35.68.52.52,0,0,0,.23.57c7.67,5.46,17.62,4.32,26.5,4q17.05-.62,34.13-.53t34.13.83c5.71.26,11.43.74,17.15.94,4.35.15,4.9-2.86,5.4-6.58,1.45-10.76,2.62-21.89,2.32-32.77-.1-3.83-1-7.53-3.89-10.21s-6.77-4-10.42-5.18c-4.51-1.5-9.21-2.94-14-2.26a21.36,21.36,0,0,0-9.14,3.88c-6.25,4.42-10.83,10.78-17.1,15.17A22.15,22.15,0,0,1,821.12,685c-6.26-.5-10.71-4.17-15.86-7.28a26.17,26.17,0,0,0-27,0,.5.5,0,0,0,.5.86,25.24,25.24,0,0,1,14.66-3.58c5.3.34,9.76,2.52,14.1,5.43,3.94,2.63,7.81,4.91,12.59,5.49A21.94,21.94,0,0,0,832,684c6.94-3.21,11.83-9.44,17.4-14.45,2.94-2.64,6.2-5.11,10-6.29,5.32-1.65,10.66-.2,15.77,1.49,4.49,1.48,9.8,3.12,12.36,7.44,2.75,4.63,1.67,11.3,1.44,16.43q-.39,8.77-1.37,17.52a77.23,77.23,0,0,1-1.07,8.32,3.64,3.64,0,0,1-4.06,3.21c-1.44,0-2.87-.18-4.31-.26q-35.06-2.1-70.22-1.3c-6.16.14-12.31.46-18.47.59-5.53.12-11.47-.09-16.42-2.85-1.74-1-1.56-1.75-1.23-3.6.29-1.6.56-3.21.81-4.81q.71-4.41,1.27-8.83c.83-6.46,1.41-12.94,1.79-19.43,0-.65-1-.65-1,0Z" transform="translate(-727.67 -357.31)"/><path class="cls-6" d="M786.63,605.41a113.07,113.07,0,0,0-12,76.13c3.76-5,10.58-6.85,16.76-6.08s11.82,3.81,17.06,7.17c3.23,2.07,6.49,4.34,10.26,5a19.63,19.63,0,0,0,7.85-.41,37.45,37.45,0,0,0,20.65-12.87c2.67-3.31,4.93-7.22,8.7-9.21,5.21-2.75,11.68-.95,16.83,1.91s9.81,6.76,15.45,8.48l1.59-38.25c.3-7.33.6-14.75-1-21.91s-5.23-14.15-11.34-18.2c-7.76,4.59-17.45,9.26-25.31,4.82-2.44-1.38-4.44-3.56-7.11-4.43-2.48-.82-5.19-.39-7.77,0l-49.9,8.52" transform="translate(-727.67 -357.31)"/><path class="cls-6" d="M786.2,605.16a114.24,114.24,0,0,0-12.09,76.51.5.5,0,0,0,.83.22c5.74-7.17,15.7-7.14,23.6-4a72.31,72.31,0,0,1,11.7,6.5c3.27,2.07,6.67,3.86,10.61,4,7.59.25,15.56-3.58,21.32-8.28a47.52,47.52,0,0,0,7.73-8.48c2.89-3.81,6.16-7.09,11.24-7.31C871.4,663.88,878.8,673,888,676a.52.52,0,0,0,.64-.48c.64-15.44,1.74-30.94,1.83-46.39.07-11.94-2.27-25.16-12.79-32.41a.5.5,0,0,0-.5,0c-6.31,3.71-14.42,8.25-22,6-3.55-1-5.89-3.92-9.21-5.35-2.72-1.16-5.61-.8-8.44-.33-16.8,2.75-33.56,5.73-50.33,8.59-.63.11-.37,1.07.26,1l36.69-6.27,8.32-1.42c3.24-.56,6.68-1.5,10-1.32,5.22.28,8.49,5.35,13.59,6.36,4.49.89,9.1-.31,13.24-2a62,62,0,0,0,6.22-3.08c1.63-.92,2-1.12,3.66.26a24.4,24.4,0,0,1,2.89,3c7.41,9,7.68,21.26,7.27,32.35-.49,13.71-1.13,27.41-1.7,41.12l.63-.48c-8.6-2.8-15-10.32-24.24-11.6a13.45,13.45,0,0,0-10,2.26c-3.21,2.36-5.21,5.91-7.75,8.9-5.81,6.88-15,12.36-24.13,12.74-5.21.21-9.31-2.5-13.51-5.18a53.34,53.34,0,0,0-11.84-6c-7.76-2.56-17.17-1.78-22.59,5l.84.22a113.17,113.17,0,0,1,12-75.74c.31-.56-.56-1.07-.87-.5Z" transform="translate(-727.67 -357.31)"/><path class="cls-16" d="M979,362.18c6,3.26,6.27,355.17,0,358.85s-239.5,5-246.59,0-3.16-351.5,0-358.85S973,358.91,979,362.18Zm-231.5,15.08c-2.78,6.75-6.26,325.21,0,329.77s212,3.37,217.5,0,5.28-326.77,0-329.77S750.27,370.5,747.49,377.26Z" transform="translate(-727.67 -357.31)"/><g class="cls-17"><path class="cls-18" d="M978.24,721A30.4,30.4,0,0,1,966,707.66q-105.78,4.83-211.71.68c-2.86-.11-6.08-.4-7.86-2.52-1.35-1.61-1.46-3.83-1.51-5.89q-3.87-161.7,2.25-323.41c-16.39,31.83-17.09,68.63-17.42,104.06-.72,80.32-1.17,160.68,2.95,240.91q122.22,4.65,244.58.13" transform="translate(-727.67 -357.31)"/><path class="cls-18" d="M978.49,720.52a30.79,30.79,0,0,1-12.1-13.12.5.5,0,0,0-.43-.24q-53.38,2.43-106.84,2.59-26.85.07-53.69-.43-13.17-.24-26.34-.63c-8.74-.25-17.58-.21-26.29-.93-2.16-.17-4.55-.55-6-2.31-1.59-1.93-1.39-4.65-1.45-7L745,685q-.28-13.47-.5-27-.42-26.7-.57-53.4-.32-53.67.48-107.32T747.14,390q.24-6.74.49-13.47a.5.5,0,0,0-.93-.25c-19.37,38-17.32,82.32-17.65,123.73-.39,47.29-.56,94.6.37,141.89q.78,39.81,2.74,79.6a.51.51,0,0,0,.5.5q95.4,3.62,190.9,1.68,26.85-.55,53.68-1.55c.64,0,.64-1,0-1q-58.89,2.18-117.82,2.23-58.67,0-117.32-2l-7-.25c-1.66-.06-1.84-.06-2.08-1.58a44.64,44.64,0,0,1-.22-4.48q-.35-7.2-.65-14.42-.62-14.67-1.05-29.35Q730.25,641.64,730,612c-.42-39.16-.21-78.33.12-117.5.3-35.19-.82-72,12-105.4a128.65,128.65,0,0,1,5.51-12.35l-.93-.25q-2.16,57.38-3.08,114.77-.91,57.15-.58,114.3.18,28.71.65,57.41.24,14.22.56,28.44c.09,3.95-.52,8.67.67,12.49.82,2.65,3,4,5.64,4.54,3.94.79,8.2.54,12.2.69q7.2.26,14.41.47,14.16.43,28.33.69,28.58.54,57.17.42t57.16-.9q14.16-.39,28.32-.93,7.2-.27,14.4-.6c1,0,2.57-.42,3.37.28a9.09,9.09,0,0,1,1.1,2,30.74,30.74,0,0,0,3.22,4.39,32.8,32.8,0,0,0,7.81,6.42.5.5,0,0,0,.51-.87Z" transform="translate(-727.67 -357.31)"/></g><path class="cls-19" d="M979,362.18c6,3.26,6.27,355.17,0,358.85s-239.5,5-246.59,0-3.16-351.5,0-358.85S973,358.91,979,362.18Zm-231.5,15.08c-2.78,6.75-6.26,325.21,0,329.77s212,3.37,217.5,0,5.28-326.77,0-329.77S750.27,370.5,747.49,377.26Z" transform="translate(-727.67 -357.31)"/><path class="cls-20" d="M979.48,719.12a81.51,81.51,0,0,1-13.8-12.1c-.44-.48-1.14.23-.71.71A83.07,83.07,0,0,0,979,720c.52.36,1-.5.5-.87Z" transform="translate(-727.67 -357.31)"/><path class="cls-20" d="M733.6,720.22a46.49,46.49,0,0,1,12.72-12.05c.53-.35,0-1.22-.51-.87a48.12,48.12,0,0,0-13.07,12.41c-.38.52.49,1,.86.51Z" transform="translate(-727.67 -357.31)"/><path class="cls-20" d="M964.84,377.11a59.21,59.21,0,0,1,13.87-14.29c.51-.38,0-1.25-.51-.87A60.88,60.88,0,0,0,964,376.6c-.37.53.5,1,.86.51Z" transform="translate(-727.67 -357.31)"/><path class="cls-20" d="M747.17,375.86A21.65,21.65,0,0,1,734.59,362a.5.5,0,0,0-1,.26,22.79,22.79,0,0,0,13.28,14.55c.6.24.85-.72.27-1Z" transform="translate(-727.67 -357.31)"/></svg>