<svg id="Calque_1" data-name="Calque 1" xmlns="http://www.w3.org/2000/svg" viewBox="0 0 131.66 168.81"><defs><style>.cls-1{fill:#fff;}.cls-2{fill:#1d1d1b;}.cls-3{fill:#dcb383;}.cls-4{opacity:0.51;}.cls-5{fill:#9d815f;}.cls-6{opacity:0.2;}.cls-7{fill:#634e42;}.cls-8{opacity:0.69;}.cls-9{fill:#2b1f11;}</style></defs><title>04</title><path class="cls-1" d="M844.56,463.88c-9.33.74-17,7.59-23,14.73-18,21.28-28.63,49.66-24.86,77.27s23.52,53.43,50.43,60.66a41.2,41.2,0,0,0,17.3,1.28c6.41-1.05,12.33-4.13,17.64-7.86,17.77-12.5,29.45-32.84,32.74-54.3s-1.53-43.85-12.07-62.84c-5.34-9.62-12.43-18.72-22.2-23.78-11.25-5.84-24.53-5.66-37.2-5.35" transform="translate(-789.12 -455.76)"/><path class="cls-2" d="M844.56,463.38c-13.86,1.36-23.74,14.2-31,24.91a106.14,106.14,0,0,0-16.87,41.23c-4.56,26.7,3.65,54.67,24,73,9.7,8.73,22.27,15.13,35.41,16.12,14.88,1.12,28.14-8,37.86-18.5,20.09-21.6,26.31-52.47,19.56-80.78-3.4-14.27-9.76-28.75-19.44-39.9a44.68,44.68,0,0,0-16.61-12.35c-7.1-2.93-14.85-3.8-22.46-4-3.92-.1-7.84,0-11.76.08-.64,0-.64,1,0,1,14.78-.36,30.51-.39,42.81,9,11.19,8.56,18.42,22.16,23.13,35.17,9.77,27,7.83,57.74-8.55,81.79-7.6,11.15-18.8,22-31.92,26.08-13.54,4.26-28.82-1.11-40.13-8.79-21.43-14.56-33.11-40.37-32.18-66a98.61,98.61,0,0,1,11.21-41.26,111.82,111.82,0,0,1,11.59-18.06c4.27-5.45,9.06-10.83,15.08-14.38a24.74,24.74,0,0,1,10.21-3.42c.64-.06.64-1.07,0-1Z" transform="translate(-789.12 -455.76)"/><path class="cls-3" d="M895.38,474.07c9.6,8.48,18,28.66,21.83,42.86a86.69,86.69,0,0,1,2.64,17.92c1.1,21.78-4.24,44.21-15.33,60.68s-32.68,28-49.59,28c-14.67,0-43.6-11.3-58.62-44-8.66-18.87-6.42-41.95-5.41-55.19,2.7-35.63,33.57-67.85,61.15-67.85C868.31,456.52,885.77,465.59,895.38,474.07Zm-42.25-5.59c-23.75,0-50.32,27.76-52.65,58.45-.86,11.41-2.79,31.3,4.66,47.54,12.94,28.19,37.84,37.95,50.47,37.92,14.56,0,33.14-10,42.69-24.15s14.14-33.52,13.19-52.28a74.15,74.15,0,0,0-2.27-15.44c-3.28-12.23-10.52-29.61-18.79-36.92S867.12,468.48,853.13,468.48Z" transform="translate(-789.12 -455.76)"/><path class="cls-2" d="M894.85,474.6c5.36,4.84,9.11,11.34,12.29,17.75a136.6,136.6,0,0,1,8.53,21.88c5.16,17.49,4.61,36.84-.06,54.38-4.28,16.1-12.38,31.06-25.9,41.16-10.6,7.93-24.63,14.22-38.16,12.87-10.4-1-20.48-5.77-28.9-11.79a77.6,77.6,0,0,1-27.37-35.76c-5.5-15-5.11-31.33-3.92-47a85.27,85.27,0,0,1,4.26-22.21,82.56,82.56,0,0,1,10.76-20.52c8.32-11.6,20-21.86,33.81-26.18,15.5-4.84,32.26.58,45.62,8.82a68,68,0,0,1,9,6.61c.72.63,1.79-.42,1.06-1.06C883.83,463,866.58,455,850.3,455.81c-13.87.68-26.61,8.6-36.21,18.17a82.69,82.69,0,0,0-22.65,41.25c-1.5,7.22-1.84,14.75-2.16,22.11a121.89,121.89,0,0,0,1.22,25.25c4.63,27.8,26.6,53.52,54.34,60.38,12.06,3,24.23.17,35.16-5.39,15-7.65,26-20,32.56-35.42a107.81,107.81,0,0,0,7.43-54.5,121,121,0,0,0-17.62-46.55,42.89,42.89,0,0,0-6.46-7.57C895.19,472.9,894.13,474,894.85,474.6Z" transform="translate(-789.12 -455.76)"/><path class="cls-2" d="M853.13,467.73c-11.91.12-22.9,6.4-31.38,14.38a71.73,71.73,0,0,0-20.45,34.94c-1.51,6.26-1.87,12.74-2.22,19.14a113.55,113.55,0,0,0,.61,21.34,66.66,66.66,0,0,0,18.95,37.91,61.91,61.91,0,0,0,27.07,16.22c10.09,2.77,20.16,1,29.57-3.39a59.16,59.16,0,0,0,29-29.11A92.56,92.56,0,0,0,912,532.72a94.45,94.45,0,0,0-14.41-41.47c-7.35-11.5-20.45-18.9-33.52-22.11a48.36,48.36,0,0,0-11-1.41.75.75,0,0,0,0,1.5,53.93,53.93,0,0,1,22.32,5.59c5.87,2.79,11.9,6.37,16.35,11.19s7.43,10.58,10.07,16.35a112.38,112.38,0,0,1,6.85,19.24c3.77,15,2.64,31.76-1.85,46.5-4.21,13.82-11.85,26-24,34.15-9.13,6.12-20.74,10.73-31.9,9-9.29-1.41-18.14-5.89-25.46-11.68a66.08,66.08,0,0,1-22.29-32.35c-3.76-12.74-3.11-26.14-2.1-39.21a68.56,68.56,0,0,1,14.47-36.94c7.41-9.5,17.58-17.84,29.46-20.83a34.69,34.69,0,0,1,8-1A.75.75,0,0,0,853.13,467.73Z" transform="translate(-789.12 -455.76)"/><g class="cls-4"><path class="cls-5" d="M812.93,492.25a99.51,99.51,0,0,0-17,53.9c-.34,19.8,5.71,39.9,17,53.29a85.11,85.11,0,0,0,14.13,12.83,47.76,47.76,0,0,0,10.17,6.31c5.91,2.45,12.23,2.45,18.43,2.42,6.49,0,13.2-.12,19.12-3.56,7-4.06,11.93-12.23,16.57-20.1a54.46,54.46,0,0,1-21.19,13.6c-21.25,7-44.55-4.66-59.58-25.26a63.92,63.92,0,0,1-7.2-12.35c-4.09-9.59-5.35-20.85-4.94-31.79s3-21.34,5.13-31.95" transform="translate(-789.12 -455.76)"/><path class="cls-5" d="M812.28,491.88C796.34,515.2,790.9,545.76,798.62,573c3.69,13,10.4,24.81,20.57,33.84,5.24,4.66,11.16,9.63,17.67,12.37s13.92,2.59,20.92,2.5c7.39-.09,14.66-1.06,20.57-5.87s9.83-11.69,13.65-18.14a.75.75,0,0,0-1.18-.91c-7.87,7.76-17.69,13.93-28.88,15.16-9.52,1-19.08-1.39-27.45-5.9a70.83,70.83,0,0,1-23.26-20.77,62.8,62.8,0,0,1-11.91-33.7c-.93-14.27,2.22-27.92,5-41.81.19-.94-1.26-1.35-1.45-.4-2.59,13.1-5.63,26-5.16,39.47.44,12.58,3.6,24.58,10.74,35,11.32,16.6,30.11,30.81,51.11,29.75,12.53-.63,23.59-7.14,32.35-15.79l-1.17-.91c-3.4,5.74-6.84,11.71-11.71,16.33-5.34,5.07-11.92,6.66-19.09,6.9-6.85.23-14.21.52-20.78-1.7s-12.36-7.1-17.57-11.55c-20.75-17.71-27.72-46.6-23.93-72.9a98.41,98.41,0,0,1,15.94-41.41c.55-.8-.75-1.55-1.29-.75Z" transform="translate(-789.12 -455.76)"/></g><path class="cls-2" d="M894.85,475c5.36,4.85,9.11,11.35,12.29,17.76a135.87,135.87,0,0,1,8.53,21.88c5.16,17.48,4.61,36.83-.06,54.38-4.28,16.09-12.38,31-25.9,41.15-10.6,7.93-24.63,14.22-38.16,12.88-10.4-1-20.48-5.77-28.9-11.79a77.68,77.68,0,0,1-27.37-35.77c-5.5-15-5.11-31.32-3.92-47a85.35,85.35,0,0,1,4.26-22.21,82.5,82.5,0,0,1,10.76-20.51c8.32-11.61,20-21.87,33.81-26.19,15.5-4.84,32.26.59,45.62,8.82a69.79,69.79,0,0,1,9,6.61c.72.64,1.79-.42,1.06-1.06-12.08-10.53-29.33-18.51-45.61-17.72-13.87.67-26.61,8.59-36.21,18.16a82.69,82.69,0,0,0-22.65,41.25c-1.5,7.23-1.84,14.75-2.16,22.11A121.86,121.86,0,0,0,790.5,563c4.63,27.81,26.6,53.52,54.34,60.38,12.06,3,24.23.17,35.16-5.39,15-7.64,26-20,32.56-35.41a107.84,107.84,0,0,0,7.43-54.5,121,121,0,0,0-17.62-46.56,43.25,43.25,0,0,0-6.46-7.57C895.19,473.29,894.13,474.35,894.85,475Z" transform="translate(-789.12 -455.76)"/><path class="cls-2" d="M853.13,468.13c-11.91.11-22.9,6.4-31.38,14.38a71.65,71.65,0,0,0-20.45,34.93c-1.51,6.26-1.87,12.74-2.22,19.15a113.47,113.47,0,0,0,.61,21.33,66.63,66.63,0,0,0,18.95,37.91,61.93,61.93,0,0,0,27.07,16.23c10.09,2.77,20.16,1,29.57-3.4a59.12,59.12,0,0,0,29-29.11A92.54,92.54,0,0,0,912,533.12a94.49,94.49,0,0,0-14.41-41.48c-7.35-11.5-20.45-18.9-33.52-22.1a47.81,47.81,0,0,0-11-1.41.75.75,0,0,0,0,1.5,53.76,53.76,0,0,1,22.32,5.58c5.87,2.79,11.9,6.38,16.35,11.19s7.43,10.58,10.07,16.36A112,112,0,0,1,908.72,522c3.77,15,2.64,31.76-1.85,46.51-4.21,13.82-11.85,26-24,34.15-9.13,6.12-20.74,10.72-31.9,9-9.29-1.42-18.14-5.9-25.46-11.69a66,66,0,0,1-22.29-32.35c-3.76-12.73-3.11-26.14-2.1-39.21a68.56,68.56,0,0,1,14.47-36.94c7.41-9.5,17.58-17.84,29.46-20.82a33.65,33.65,0,0,1,8-1A.75.75,0,0,0,853.13,468.13Z" transform="translate(-789.12 -455.76)"/><g class="cls-6"><path class="cls-2" d="M844.57,476.34A18.14,18.14,0,0,0,838.11,491a27.83,27.83,0,0,0,1.73,7.78c.91,2.57,1.94,5.61.39,7.86-.74,1.09-2,1.86-2.29,3.15a5.13,5.13,0,0,0,.3,2.28,21.88,21.88,0,0,1,.09,11.19,3,3,0,0,1-1.49,2.24c-1.64.66-2.94-1.46-3.45-3.15l-2.93-9.81c.65.9-.12,2.18-1.06,2.79s-2.1.94-2.75,1.85a3.7,3.7,0,0,0,.12,3.82c.64,1.19,1.61,2.17,2.28,3.33,1.89,3.31,1.61,8.26,5,9.92,1.36.66,3.34.88,3.62,2.37.2,1.08-.74,2-1.5,2.81-2.46,2.64-3.61,6.21-4.89,9.59a93,93,0,0,1-12.77,23.15c0,2.08,3.08,2.9,4.76,1.67s2.23-3.46,2.74-5.48a81.44,81.44,0,0,1,9.87-23.17l1.5,7.94a4.69,4.69,0,0,1,.08,2c-.25,1-1.09,1.68-1.55,2.57-1.3,2.56.84,5.42,1.57,8.2s0,5.54-.78,8.21a21.82,21.82,0,0,1-2.92,6.46c-1.39,1.92-3.29,3.43-4.68,5.36s-2.2,4.57-1.07,6.66c.6.35,1.32-.18,1.79-.68A43.13,43.13,0,0,0,841,568.33c2.26.87,3.27,3.42,4.9,5.21a9.07,9.07,0,0,0,11.85,1c3.94-3.1,4.46-8.72,5.82-13.54.54-1.91,1.36-3.89,3-4.94s4.38-.58,5,1.3c.68,2.2-1.66,4-2.92,5.93a10.44,10.44,0,0,0-1.4,6,20.94,20.94,0,0,0,11.43,17.88c-1.49-4.55-6.68-7.25-7.81-11.9-.82-3.37.7-6.79,1.8-10.08s1.65-7.29-.65-9.88c-.69-.76-1.57-1.33-2.23-2.12-1.86-2.22-1.47-5.5-1-8.36a6.88,6.88,0,0,1,3.79-.05c1.85,4.36,3.89,9,7.82,11.6A18.94,18.94,0,0,0,871,540c-1.07-.61-2.34-1.27-2.59-2.48-.33-1.52,1.21-2.82,2.71-3.24s3.15-.37,4.5-1.14c3.14-1.78,2.71-6.36,1.86-9.86,1.05,2.55-1.83,5.41-4.57,5.14s-4.86-2.63-6-5.16-1.45-5.32-2.36-7.92c2.26,1.8,6.26.15,6.58-2.72l-4.75-.88a3.24,3.24,0,0,1-1.37-.47c-1.42-1.07-.26-3.3.94-4.61-1,.65-2.13-.57-2.69-1.61l-1.29-2.4c-1-1.85-3.11-2.11-5.23-1.56a14,14,0,0,1-6.5-.27c-3-.64-6.25-1.79-7.55-4.55a10.27,10.27,0,0,1-.76-3.81,94.83,94.83,0,0,1-.1-10.53" transform="translate(-789.12 -455.76)"/><path class="cls-2" d="M844.21,476a19,19,0,0,0-6.48,11.95,20.26,20.26,0,0,0,.48,7.15c.68,2.87,2.38,5.85,2.32,8.85-.06,2.66-2.69,3.51-3.09,5.86A8.8,8.8,0,0,0,838,513a22,22,0,0,1,.54,5.05,18.53,18.53,0,0,1-.66,5q0,1.64-1.53,1.38a1.08,1.08,0,0,1-1.74-.69,8.86,8.86,0,0,1-.84-2c-1-3.09-1.87-6.25-2.8-9.36l-1,.26c.89,2.23-2.77,2.87-3.72,4.21a3.79,3.79,0,0,0-.36,3.31c.51,1.69,1.87,2.89,2.71,4.4a24.41,24.41,0,0,1,1.72,4.86c.74,2.43,1.7,4.48,4.16,5.51.37.16.77.25,1.13.42,1.26.57,1.29.46,1,1.94s-.91,1.87-1.71,2.94a21.1,21.1,0,0,0-2.36,4.26c-1.82,4.25-3.28,8.6-5.34,12.75a92.39,92.39,0,0,1-7,11.78c-1.25,1.8-3.5,3.93-.64,5.44a4.08,4.08,0,0,0,5.15-1.36c1.19-1.58,1.55-3.64,2-5.52q1-3.71,2.31-7.31a82.84,82.84,0,0,1,7.28-14.86l-.91-.12,1.16,6.18a11.88,11.88,0,0,1,.48,3c-.12,1.35-1.12,2-1.61,3.09-1.31,2.93.88,5.68,1.57,8.46,1,4.22-.9,10-3.15,13.55-1.86,3-5.11,4.91-6.35,8.27-.47,1.26-1.21,5.29,1,5.31,2,0,3.86-3.4,4.9-4.82a44,44,0,0,0,8-19.84l-.73.3c3,1.43,4,5.14,6.93,6.79a9.82,9.82,0,0,0,7.93.67c6.28-2.22,6.84-9.68,8.45-15.13.68-2.3,2.22-5.82,5.3-5,4.18,1.06-.09,5.25-1.14,6.94-1.6,2.56-1.68,5.73-1.27,8.63a21.64,21.64,0,0,0,11.48,16c.35.18.9-.13.74-.56-1.7-4.54-6.64-7.18-7.82-11.9-1.42-5.7,3.62-10.89,2.64-16.68-.36-2.15-1.52-3.35-3-4.81a6.62,6.62,0,0,1-2.06-5.14c0-1.62,0-3.7,2.19-3.47s3.36,5.12,4.4,6.76a17.61,17.61,0,0,0,4.68,5,.5.5,0,0,0,.75-.43,19.54,19.54,0,0,0-6.05-14.08c-1.27-1.21-2.83-1.9-4.15-3-5-4.11,2.51-4.6,4.35-5.32a5.1,5.1,0,0,0,2.66-2.22c1.47-2.54.86-5.88.24-8.57l-1,.27c.73,2.44-1.49,4.42-3.79,4.42a6.06,6.06,0,0,1-4.81-3c-1.93-2.81-2.27-6.46-3.31-9.63l-.73.56a4.82,4.82,0,0,0,7.32-3,.5.5,0,0,0-.35-.61,26.92,26.92,0,0,1-3.81-.7c-2.67-1-2.83-2.43-1.15-4.43.29-.34,0-1-.49-.83-1.88.67-3-3.38-3.79-4.34a4,4,0,0,0-1.82-1.26,6.18,6.18,0,0,0-2.9-.12,19.28,19.28,0,0,1-6.94-.12c-4-.87-7.41-2.6-7.89-7.09a79.22,79.22,0,0,1-.15-11.32c0-.65-1-.64-1,0-.17,4.16-.58,8.91.39,13,.72,3.06,3.11,4.75,6,5.72a23.86,23.86,0,0,0,5.35,1.15c2.15.2,4.54-.87,6.57-.26,2.41.71,2.44,3.3,4,4.89a2.15,2.15,0,0,0,2.46.71l-.49-.83c-1,1.18-2.37,3.09-1.46,4.7,1.07,1.9,5,1.75,6.86,2.09l-.35-.61a3.81,3.81,0,0,1-5.85,2.42.5.5,0,0,0-.73.56c1.48,4.53,2,11.28,7.34,13.13,3.41,1.19,7.63-1.66,6.5-5.45a.5.5,0,0,0-1,.27,14.18,14.18,0,0,1,.43,6.24c-.69,3.09-3,3.35-5.67,4-2,.47-4.76,2.1-3.62,4.6a5.86,5.86,0,0,0,2.62,2.22,19.08,19.08,0,0,1,4.42,3.58A18.68,18.68,0,0,1,880,556.37l.75-.43c-3.14-2.24-5-5.55-6.59-9-.37-.82-.6-2.13-1.35-2.65-1-.67-3-.2-4,0a.5.5,0,0,0-.35.35c-.49,3-1,6.37,1.11,8.85.65.8,1.55,1.34,2.22,2.12a6.77,6.77,0,0,1,1.46,4.33c.05,2.48-.86,4.83-1.65,7.14-1.2,3.52-2,7.13-.16,10.57s5.47,5.79,6.89,9.6l.74-.56c-7.1-3.67-13.28-12.93-10.77-21.22.8-2.65,4.28-4.73,4-7.66-.22-2.23-2.61-3.23-4.6-2.75-2.87.69-4,3.91-4.67,6.43-.92,3.39-1.38,7.1-3.3,10.13a8.53,8.53,0,0,1-11.41,3c-3-1.65-3.84-5.34-6.94-6.8-.25-.12-.68,0-.73.3a43.4,43.4,0,0,1-7,18.26,40.16,40.16,0,0,1-3.21,4.14c-.27.31-.55.62-.83.92L828,590.33c-.34-1,.57-2.65,1.09-3.51,1.59-2.66,4.26-4.46,5.84-7.15A26.81,26.81,0,0,0,838,571c.57-3.1,0-5.48-1.15-8.35-.8-2.07-1.13-3.74.13-5.72a5,5,0,0,0,1.07-2.52,17.4,17.4,0,0,0-.68-4.1l-1-5.29a.5.5,0,0,0-.91-.12A83.16,83.16,0,0,0,826,566.48a23.63,23.63,0,0,1-1.65,5.28,3.82,3.82,0,0,1-2.6,2.1,2.5,2.5,0,0,1-1.36-.09l-.91-2.06c.27-.35.53-.71.78-1.07a92,92,0,0,0,6.33-10.11,95.52,95.52,0,0,0,4.55-9.73c1.47-3.68,2.53-7.65,5.14-10.73,1.12-1.32,2.86-3,1.26-4.71a7.89,7.89,0,0,0-2.74-1.35c-1.89-.81-2.72-2.35-3.36-4.23-.5-1.49-.8-3-1.41-4.49s-1.84-2.73-2.65-4.19a3.6,3.6,0,0,1,1.06-4.69,11.21,11.21,0,0,0,1.82-1.16,2.5,2.5,0,0,0,.65-2.84c-.23-.59-1.15-.37-1,.26,1,3.42,1.8,7.07,3.13,10.38.52,1.32,1.54,3.13,3.2,3.07,2.13-.07,2.59-2.82,2.87-4.43a23,23,0,0,0-.24-8.91c-.37-1.62-.91-2.42.32-4.29.37-.55,1-.94,1.33-1.5a5.31,5.31,0,0,0,.89-2.34c.39-2.92-1.2-5.83-2-8.55-2-7.17-.32-14.45,5.41-19.41.49-.42-.22-1.13-.71-.71Z" transform="translate(-789.12 -455.76)"/></g><path class="cls-7" d="M864.39,475a6.61,6.61,0,0,1,1.17,2.64,1.49,1.49,0,0,1-.15,1.19c-.38.5-1.13.42-1.74.29a20.27,20.27,0,0,1,3.62,5.77.85.85,0,0,0-.08-1.12,16.14,16.14,0,0,1-3.67,14.72,7.26,7.26,0,0,1-2.85,2.06,3.5,3.5,0,0,1-3.36-.48,4.26,4.26,0,0,0,.85,2.47.81.81,0,0,0-1,.39.84.84,0,0,0,.26,1c-.31.31-.89,0-1-.49a3,3,0,0,1,.29-1.29,3.39,3.39,0,0,0-.33-2.76,4.78,4.78,0,0,0-.44,1.84,2.11,2.11,0,0,1-.89,1.61.44.44,0,0,1-.4.05c-.19-.08-.22-.33-.23-.53l-.11-2.76c-.09.86.16,1.71.13,2.57s-.5,1.82-1.35,1.95a2,2,0,0,0-.84-1.73,3.13,3.13,0,0,0,.53-2.36,3.09,3.09,0,0,1-2.7.56,5,5,0,0,1-1.43-.7,13.18,13.18,0,0,1-1.89-20.48,1.71,1.71,0,0,1-2-1.66c.06-1.14,1.23-1.91,1.57-3l-.13,0c-2.75,1.58-4.09,4.77-5,7.8a26.22,26.22,0,0,0-1.26,11.3c.57,3.77,2.64,7.48,6,9.26a3.54,3.54,0,0,0-2.15,6.64,4.89,4.89,0,0,0-1.15,2.36,4.54,4.54,0,0,0-3.56-.07,9.12,9.12,0,0,1,3.94,1.42,3.1,3.1,0,0,1,1.09,3.74c-.63,1.11-2.08,1.53-2.8,2.58s-.49,2.75-.36,4.17-.23,3.19-1.59,3.63a6.61,6.61,0,0,1,4.19,4.57c-2.27,1.33-3.2,4.11-3.69,6.69a40,40,0,0,0,2.08,22c2.29,5.78,6.69,11.49,12.87,12.25l.7,0c6.18-.76,10.58-6.47,12.87-12.26a40.07,40.07,0,0,0,2.07-22c-.48-2.58-1.41-5.36-3.68-6.7a6.61,6.61,0,0,1,4.19-4.57c-1.36-.43-1.71-2.2-1.59-3.62s.45-3-.36-4.17-2.18-1.47-2.8-2.59a3.1,3.1,0,0,1,1.08-3.73,9,9,0,0,1,4-1.42,4.5,4.5,0,0,0-3.56.07,4.78,4.78,0,0,0-1.16-2.36,3.54,3.54,0,0,0-2.14-6.64c3.38-1.79,5.44-5.49,6-9.27a26.19,26.19,0,0,0-1.26-11.29c-.91-3-2.25-6.22-5-7.8" transform="translate(-789.12 -455.76)"/><path class="cls-7" d="M864,475.27c.25.37,2.28,3.73-.14,3.37a.51.51,0,0,0-.49.84,22.27,22.27,0,0,1,3.54,5.68c.18.41.8.25.91-.12a1.47,1.47,0,0,0-.13-1.51c-.25-.53-1-.14-.91.39a15.93,15.93,0,0,1-.56,9.34c-1.11,3-4.7,8.91-8.59,6.39a.5.5,0,0,0-.75.43,5.56,5.56,0,0,0,.92,2.72l.43-.75c-1.31.05-1.93,1-1.14,2.16l.3-.73c-.09,0,.13-2.36.09-2.71a4.65,4.65,0,0,0-.53-1.6c-.21-.44-.77-.23-.92.12s-.19,1-.37,1.34c-.85,1.67-.67-.08-.71-1a.5.5,0,0,0-1,0c0,1.18.48,3.48-1,4.09l.75.43c-.07-.63-.41-1-.51-1.61a17.63,17.63,0,0,1,.2-2.48.51.51,0,0,0-.75-.43c-4.24,2.59-8.37-5-9-8.18a13,13,0,0,1,3.62-11.65.51.51,0,0,0-.35-.86c-2.83,0-.25-3.34,0-3.91a.51.51,0,0,0-.43-.75c-1.71-.23-3.69,3.38-4.26,4.56a30.6,30.6,0,0,0-2.61,9.33c-.76,5.88.82,12.25,6.26,15.38l.25-.93a4.07,4.07,0,0,0-2.4,7.57l-.1-.78a6.61,6.61,0,0,0-1.29,2.58l.62-.35a5.41,5.41,0,0,0-3.82-.07c-.44.14-.51.86,0,1a16.38,16.38,0,0,1,2.07.49l1.17.5c1.48.67,1.76,1.64.82,2.93-.82,2.62-.12.92-1.14,2.1a7.72,7.72,0,0,0-1,1c-1.41,2.18.94,6.25-1.77,7.62-.43.21-.25.76.12.91,1.24.51,2.92,1.62,3.38,3,.36,1.08-.11,1.15-.76,1.85a9.82,9.82,0,0,0-2,3.68,34.06,34.06,0,0,0-1.15,12.06c.45,7.33,2.73,15.48,8.07,20.81,2.07,2.07,4.92,3.9,7.92,4.12,2.51.18,5.13-1.14,7.06-2.62,5.89-4.5,8.57-12.42,9.5-19.49a39.21,39.21,0,0,0-.44-13.1,12,12,0,0,0-2.08-5.08c-.19-.24-1.08-.86-1.17-1.16-.55-1.78,2.33-3.58,3.48-4,.36-.15.55-.7.12-.92-2.76-1.39-.31-5.43-1.77-7.62-.44-.66-1.11-.9-1.62-1.45-3.39-3.63,1-5.05,3.55-5.55.51-.1.44-.83,0-1a5.46,5.46,0,0,0-3.82.06l.61.35a6.66,6.66,0,0,0-1.28-2.58l-.1.79a4.07,4.07,0,0,0-2.4-7.57l.25.93c5-2.87,6.83-8.59,6.4-14.07-.4-5.22-1.93-12.13-6.63-15.16-.54-.35-1,.52-.5.87,4.31,2.78,5.76,9.49,6.13,14.29.4,5.12-1.24,10.51-5.9,13.2a.51.51,0,0,0,.25.94,3.08,3.08,0,0,1,1.89,5.71.51.51,0,0,0-.1.78,4.41,4.41,0,0,1,1,2.14.5.5,0,0,0,.61.35,5.15,5.15,0,0,1,3.29-.07v-1c-2.69.53-7.75,2.89-5,6.39.56.69,1.58,1,2.09,1.7,1.08,1.47.65,3,.62,4.61s.38,3,1.85,3.75l.12-.92a7.48,7.48,0,0,0-4.54,4.92.52.52,0,0,0,.23.57c3.72,2.52,4,8.43,4.11,12.48a39.66,39.66,0,0,1-1.58,12.25c-1.77,6-6.37,15.3-13.89,15.27s-12.12-9.2-13.9-15.28a40,40,0,0,1-1.57-12.25c.11-4.07.39-10,4.11-12.49a.5.5,0,0,0,.23-.56,7.48,7.48,0,0,0-4.54-4.92l.12.91a3.61,3.61,0,0,0,1.86-3.43c0-1.71-.74-3.38.61-4.93.58-.67,1.52-1,2.09-1.7,2.77-3.51-2.23-5.85-5-6.39v1a5.15,5.15,0,0,1,3.29.07.51.51,0,0,0,.62-.35,4.33,4.33,0,0,1,1-2.13.52.52,0,0,0-.1-.79,3.08,3.08,0,0,1,1.89-5.71.5.5,0,0,0,.25-.93c-4.67-2.7-6.3-8.08-5.9-13.21A32.06,32.06,0,0,1,842,482a18.33,18.33,0,0,1,1.54-3.62c.38-.66,2-3.22,2.88-3.09l-.43-.76c-.57,1.24-2,2.46-1.52,4a2.29,2.29,0,0,0,2.37,1.45l-.36-.85a13.91,13.91,0,0,0-3.23,14.74c1.34,3.46,5.64,9.25,9.86,6.66l-.75-.43-.46,2.11a.49.49,0,0,0,.08.6l.69,1.38a.51.51,0,0,0,.75.44c2.1-.9,1.47-3.11,1.47-5h-1c0,1-.48,3.73,1,3.77s1.63-2.93,2-3.85l-.92.12c1.14,2.4-.4,2.18,0,3.8a1.4,1.4,0,0,0,.28.64,1.09,1.09,0,0,0,1.32.33.5.5,0,0,0,.29-.73l.28-.66a.51.51,0,0,0,.43-.75,3.78,3.78,0,0,1-.78-2.22l-.76.43c3.54,2.3,7-1.28,8.71-4.16a17,17,0,0,0,1.91-12.7l-.91.39,0,.73.91-.12a23.48,23.48,0,0,0-3.69-5.88l-.49.84c3.49.51,2.62-2.83,1.28-4.85-.36-.53-1.23,0-.87.51Z" transform="translate(-789.12 -455.76)"/><g class="cls-8"><path class="cls-9" d="M846.38,474.9a8.39,8.39,0,0,0-2,2.25,2.77,2.77,0,0,0,0,2.9,15.33,15.33,0,0,0,4.67,21.21,30.22,30.22,0,0,0,4.53,2.23c-2.66,1.57-6.39-.71-9,.87a4.84,4.84,0,0,1,2.27,4.68c-.15,1.14-.71,2.23-.64,3.38a4.22,4.22,0,0,0,2,3.09,12.75,12.75,0,0,0,3.49,1.45c-1.4,1.68-4,1.36-6.14.74a1.41,1.41,0,0,1-.85-.49c-.3-.49.06-1.1.11-1.67.11-1.2-1.18-2-2.33-2.36s-2.49-.62-3.07-1.67c.9,0,1.74.9,2.6.61,1-.35,1.1-2.09,2.17-2.36a3.52,3.52,0,0,1,1.43-6.73,15.52,15.52,0,0,1-5.75-11.8,26.71,26.71,0,0,1,1.16-7.14c.73-2.71,1.61-5.47,3.43-7.61" transform="translate(-789.12 -455.76)"/><path class="cls-9" d="M846,474.55a6.7,6.7,0,0,0-2.45,3.19c-.33,1.31.08,2.14-.43,3.45-1.13,3-1.95,5.67-1.59,8.91.76,7,5.68,11.22,11.77,13.82v-.86c-2.88,1.38-6.11-.56-9.05.87a.51.51,0,0,0,0,.86c2.59,1.82,1.82,4,1.46,6.65a4.1,4.1,0,0,0,.27,2.32c1,2.21,3.35,3,5.47,3.68l-.22-.84c-1.14,1.13-4.24,1.71-5.65.62-.78-.6-.22-1.65-.47-2.44-.74-2.37-4-1.79-5.37-3.52l-.57.73c.92.21,2,1,3,.56s1.13-1.85,2.17-2.35a.51.51,0,0,0,0-.87c-2.71-1.57-2.19-5.44,1.18-5.8.38,0,.72-.55.36-.86a15.22,15.22,0,0,1-5.61-11.44c-.06-4.67,1.56-10.72,4.44-14.4.39-.5-.31-1.21-.71-.7-3.12,4-4.78,10.06-4.73,15.1a16.21,16.21,0,0,0,5.9,12.15l.35-.85a4.05,4.05,0,0,0-1.68,7.67v-.87c-.5.24-.63.58-1,.91-.86.7.45.5-1.47.81-1.33.22-.83.22-1.89,0-.38-.08-.85.36-.57.73.85,1.12,1.82,1.35,3.09,1.81a2.87,2.87,0,0,1,2.15,2.41c0,.21-.19.5-.13.71.15.47.11.68.45,1,1.74,1.78,5.91,1.17,7.51-.41a.51.51,0,0,0-.22-.84c-1.69-.51-3.88-1.14-4.73-2.87s.46-3.75.3-5.58a5.56,5.56,0,0,0-2.53-4.09v.86c2.88-1.39,6.11.54,9.05-.87a.5.5,0,0,0,0-.86c-5.4-2.3-10-5.83-11.13-12a15.17,15.17,0,0,1,1.31-9.4,5.57,5.57,0,0,0,.84-1.78c0-.55-.42-1.36-.32-1.92.21-1.1,1.38-2,2.19-2.74.49-.43-.22-1.13-.7-.71Z" transform="translate(-789.12 -455.76)"/></g><g class="cls-8"><path class="cls-9" d="M861.83,507.27c-1.84-.13-3.46,1.08-5.19,1.71a8.49,8.49,0,0,1-5.32.16l1.47,1.61a2.41,2.41,0,0,0,1.51,1,2.39,2.39,0,0,0,1.43-.59l2-1.41,4-2.79" transform="translate(-789.12 -455.76)"/><path class="cls-9" d="M861.83,506.77a9.3,9.3,0,0,0-3.85,1.08,9.23,9.23,0,0,1-6.52.81.5.5,0,0,0-.49.83c1,1.12,2.25,3.17,4,2.62a12.11,12.11,0,0,0,3-1.95l4-2.79c.53-.37,0-1.23-.5-.86l-4.65,3.26A9,9,0,0,1,855,511c-1.41.44-2.59-1.38-3.35-2.21l-.49.83a9.59,9.59,0,0,0,4.61.13c2.09-.49,3.82-1.95,6-2a.5.5,0,0,0,0-1Z" transform="translate(-789.12 -455.76)"/></g><g class="cls-8"><path class="cls-9" d="M865.66,504.8a5.63,5.63,0,0,0-1.54,1.65,2.89,2.89,0,0,0-.31,2.2c.11.4.34.76.49,1.15a6.39,6.39,0,0,1,.22,2.79,3.38,3.38,0,0,0,.81-3.06,7.7,7.7,0,0,1-.11-3.27c.13-.44.34-1,0-1.29" transform="translate(-789.12 -455.76)"/><path class="cls-9" d="M865.31,504.45a4.79,4.79,0,0,0-2.08,3.23,3.44,3.44,0,0,0,.27,1.55,7.5,7.5,0,0,1,.52,3.36.51.51,0,0,0,.86.35,4,4,0,0,0,.94-3.48,13.06,13.06,0,0,1,0-3.42,1.56,1.56,0,0,0-.18-1.33c-.35-.53-1.22,0-.86.51s-.11,1.16-.16,1.57a7.49,7.49,0,0,0,.06,1.64c.17,1.31.55,2.75-.49,3.8l.85.36a7.21,7.21,0,0,0-.37-3.23c-.72-1.86-.11-3,1.37-4.21.5-.4-.21-1.1-.71-.7Z" transform="translate(-789.12 -455.76)"/></g><g class="cls-8"><path class="cls-9" d="M844.79,517.17c-1.86,1-4,2.39-4,4.5,0,.79.32,1.55.4,2.34a4,4,0,0,1-1.57,3.57c1.13-.07,2,1,2.51,2s1.13,2.14,2.22,2.43a3.86,3.86,0,0,0,2.8-.74,5.57,5.57,0,0,1-3.74-4.19,14.89,14.89,0,0,1,.09-5.87c.13-.82.37-1.77,1.13-2.11s1.75.2,2.56.61,2,.56,2.43-.27a2.76,2.76,0,0,1,.3-.68c.31-.37.9-.23,1.38-.3.92-.13,1.57-1.11,2.5-1.2a3.23,3.23,0,0,1,1.44.36,8.15,8.15,0,0,0,4.15.4,5.77,5.77,0,0,0-5.45-1.66c-1.62.39-3,1.48-4.67,1.75l1.89.17" transform="translate(-789.12 -455.76)"/><path class="cls-9" d="M844.54,516.74c-1.48.82-3.18,1.81-3.89,3.43-1.09,2.45,1.07,4.9-1.36,7.06-.36.32,0,.8.36.85,2.17.29,2.32,3.37,4.18,4.23,1.26.58,2.47,0,3.61-.61a.51.51,0,0,0-.12-.91c-3.71-1.23-3.88-5.43-3.41-8.67.18-1.29.12-2.64,2.43-2.3.27,0,.49.32.75.37a3.78,3.78,0,0,0,1.9.31c.56-.16.65-.39,1.06-.75a4.45,4.45,0,0,1,1.94-1c.29-.12.54-.41.84-.5a6.55,6.55,0,0,1,3.11.07,13.07,13.07,0,0,0,3.48.17.51.51,0,0,0,.35-.86,6.55,6.55,0,0,0-4.32-1.94c-2.27-.07-4.15,1.39-6.28,1.9-.58.14-.4.94.13,1l1.89.17c.65.05.64-.95,0-1l-1.89-.17.14,1c3.5-.85,6.32-3.32,9.62-.22l.36-.85a10.67,10.67,0,0,1-4-.39,5.06,5.06,0,0,0-1.58-.37,3.69,3.69,0,0,0-1.27.49c-.72.3-1.51.51-2.23.78-.25.1-.49.26-.74.37-2,.91-1.22,1.18-2.74.56-.94-.38-1.77-.73-2.68-.11-1.81,1.21-1.65,5.71-1.38,7.47a6.42,6.42,0,0,0,4.26,5.43l-.12-.91c-3,1.65-3.5-.68-5-2.49a3.12,3.12,0,0,0-2.29-1.27l.35.86a4.69,4.69,0,0,0,1.73-3.59c0-1.4-.57-2.33,0-3.72s1.83-2.23,3.28-3c.56-.31.06-1.18-.51-.86Z" transform="translate(-789.12 -455.76)"/></g><g class="cls-8"><path class="cls-9" d="M855.22,518.68c1.32,1.28,1.56,3.29,1.57,5.13,0,1,0,2-.11,3a2.9,2.9,0,0,1-1.11,2.47,27.21,27.21,0,0,0-.49-10.48" transform="translate(-789.12 -455.76)"/><path class="cls-9" d="M854.87,519a7,7,0,0,1,1.42,4.77c0,1.52.25,4-1.07,5.1l.83.48a29.41,29.41,0,0,0-.49-10.74c-.15-.63-1.11-.36-1,.27a28.29,28.29,0,0,1,.49,10.21.51.51,0,0,0,.84.48c1.63-1.29,1.38-3.93,1.36-5.8a7.91,7.91,0,0,0-1.72-5.48c-.43-.48-1.13.23-.7.71Z" transform="translate(-789.12 -455.76)"/></g><g class="cls-8"><path class="cls-9" d="M855.15,532.28a6.33,6.33,0,0,1-1.51.22,1.44,1.44,0,0,0-1.06,2.5,4.72,4.72,0,0,0,2.22,1.8,1.65,1.65,0,0,0,.66.13,1.61,1.61,0,0,0,1.08-.87,7.44,7.44,0,0,0,1.09-3.09.52.52,0,0,0,0-.35.53.53,0,0,0-.44-.17l-2.25-.13" transform="translate(-789.12 -455.76)"/><path class="cls-9" d="M855,531.8c-1.36.37-3.77.26-3.31,2.43a4.46,4.46,0,0,0,3.58,3.18c1.68.07,2.49-2.47,2.74-3.77.1-.54.26-1.17-.29-1.52s-2.06-.25-2.84-.3-.64,1,0,1a10.69,10.69,0,0,1,1.5.09c.73.16.74.29.54,1-.28,1-.79,2.74-2.18,2.32a3.7,3.7,0,0,1-1.91-1.77c-.76-1.69,1.44-1.44,2.44-1.71a.5.5,0,0,0-.27-1Z" transform="translate(-789.12 -455.76)"/></g><g class="cls-8"><path class="cls-9" d="M845.25,532.48c-3.49,4.14-3.7,10.11-3,15.47a50.7,50.7,0,0,0,4.87,16.49,16.47,16.47,0,0,0,4.47,5.92,7.5,7.5,0,0,0,7,1.33,4,4,0,0,1-3.65,1,11.64,11.64,0,0,1-3.61-1.59,3.6,3.6,0,0,1,2.7,1.51,15.38,15.38,0,0,1-9.17-5.9,22,22,0,0,1-2.31-4.17,37.69,37.69,0,0,1-2.89-10.67c-.23-2-.3-4-.37-6.07a48.23,48.23,0,0,1,.05-6.13,10.32,10.32,0,0,1,1.42-4.81,4.85,4.85,0,0,1,4.23-2.34" transform="translate(-789.12 -455.76)"/><path class="cls-9" d="M844.89,532.13c-5.34,6.76-3.62,16.76-1.4,24.42,1.86,6.44,6.39,18.41,15.26,15.62l-.49-.83c-2.09,1.84-4.64.49-6.66-.67l-.38.91A4,4,0,0,1,853.7,573l.48-.84c-7.93-1.87-11.59-8.88-13.3-16.3a56.77,56.77,0,0,1-1.11-11.34c-.1-4-.37-11.36,5.24-11.47a.5.5,0,0,0,0-1c-3.75.07-5.57,3.36-6,6.74a52.23,52.23,0,0,0,.43,14.61c1.32,8.63,5.34,17.56,14.53,19.73a.5.5,0,0,0,.48-.84,4.28,4.28,0,0,0-2.91-1.64c-.53-.08-.92.61-.39.91,2.5,1.45,5.4,2.69,7.87.51a.5.5,0,0,0-.49-.83c-8.76,2.75-13-10.52-14.51-16.69-1.73-6.86-3.11-15.68,1.63-21.68.4-.5-.31-1.21-.71-.71Z" transform="translate(-789.12 -455.76)"/></g><g class="cls-8"><path class="cls-9" d="M857.15,536.45v6.82c0,3.12,0,6.24-.14,9.36-.3,6.15-1.2,12.43.36,18.38-.18.61-1.14.61-1.56.13a2.74,2.74,0,0,1-.45-1.81c0-10.29,0-20.58.6-30.84,0-.7.17-1.52.79-1.82" transform="translate(-789.12 -455.76)"/><path class="cls-9" d="M856.65,536.45c0,5.54.14,11.1-.15,16.64-.27,5.1-.92,10.26-.15,15.35,0,.15.34,1.8.33,1.81-.68.23-.77-1.66-.81-1.92a30.44,30.44,0,0,1,0-4.48q0-4.23,0-8.46c0-3,.09-6,.19-8.95,0-1.33.1-2.65.16-4s-.25-4.51.86-5.44c.5-.41-.21-1.11-.7-.71-1.75,1.45-1.11,5.16-1.2,7.14-.17,3.82-.26,7.63-.3,11.44s-.06,7.64,0,11.45c0,1.37-.64,4.88,1.22,5.55,1.3.47,1.69-.49,1.67-1.46,0-1.88-.67-3.84-.74-5.77s0-3.7.11-5.55c.41-7.57.54-15.08.53-22.66a.5.5,0,0,0-1,0Z" transform="translate(-789.12 -455.76)"/></g><g class="cls-8"><path class="cls-9" d="M857.64,500.35a2.19,2.19,0,0,0,1.7,1.51,5.59,5.59,0,0,0,2.37-.08,20.2,20.2,0,0,0,6.58-2.37,7.92,7.92,0,0,1-4.17,3.46,16.52,16.52,0,0,1-5.41,1c-.54,0-1.25-.09-1.35-.62s.46-.86.94-1a1.65,1.65,0,0,1-.44-2" transform="translate(-789.12 -455.76)"/><path class="cls-9" d="M857.21,500.6c1.76,4,8.75.69,11.33-.76l-.68-.68a7.71,7.71,0,0,1-4,3.26,16,16,0,0,1-4.34.87c-.72.3-1,.07-1-.67a.51.51,0,0,0,.1-.79l-.31-1.47a.5.5,0,0,0-1-.27,2.35,2.35,0,0,0,.58,2.45l.1-.79c-.68.32-1.41.86-1.12,1.71.39,1.14,2.1.87,3,.8,3.52-.29,6.93-1.45,8.83-4.6A.5.5,0,0,0,868,499c-1.88,1.06-8.58,4.3-10,1.12-.26-.59-1.12-.08-.86.5Z" transform="translate(-789.12 -455.76)"/></g><path class="cls-2" d="M846.33,474.63c-.72,1.17-2.31,2.6-1.41,4.08a2.13,2.13,0,0,0,3,.56l-.61-.79a13.16,13.16,0,0,0-3.76,15c1.28,3.38,5.45,9.92,9.8,6.71l-.74-.3-.39,2.41a.49.49,0,0,0,.18.68c1.06.52-2.09.63-1.81.64a17.11,17.11,0,0,1-2.58-.28,8.37,8.37,0,0,1-4.74-2.82,14.21,14.21,0,0,1-3-9.16c0-5.58,1.78-13.2,6.74-16.42.54-.35,0-1.22-.5-.87-3.58,2.32-5.22,6.29-6.27,10.28-1.15,4.34-1.53,9.15.23,13.38a10.38,10.38,0,0,0,8.57,6.78c1.13.13,4.16.73,5-.27s-.41-1.76-1.14-2.12l.18.68a3.92,3.92,0,0,0,.5-3.18.51.51,0,0,0-.74-.3c-4.41,3.27-8.39-5.3-9-8.45A12,12,0,0,1,848,479.19c.45-.38-.12-1-.61-.79-1.42-.69-1.73-1.42-.91-2.16a8.31,8.31,0,0,0,.75-1.11c.33-.55-.53-1.05-.87-.5Z" transform="translate(-789.12 -455.76)"/><path class="cls-2" d="M844.94,505.12c2.89,2.2.37,4.86.81,7.62.11.64,1.07.37,1-.26-.29-1.82,1-3.42.68-5.26a4.73,4.73,0,0,0-1.95-3c-.51-.39-1,.48-.51.86Z" transform="translate(-789.12 -455.76)"/><path class="cls-2" d="M845.25,502.85c-4.81-1-4.92,8.28-.55,7.46.63-.13.35-1.07-.27-1a3.06,3.06,0,0,0-1.77.66c-.33.32-.32.9-.58,1.15-.87.86-2.13-1.37-3.21-.53-.57.46-.35,1.18,0,1.68,1.54,2,5.55.78,5.32,4.47,0,.65,1,.65,1,0a3.34,3.34,0,0,0-1.18-3,5.82,5.82,0,0,0-1.8-.89l-1.22-.41-.8-.49c.9.22,1.69.81,2.58.3.28-.16.13-.39.3-.62.47-.61.65-1.18,1.59-1.32l-.27-1c-1.67.32-3.48-6.36.55-5.53.63.13.9-.83.27-1Z" transform="translate(-789.12 -455.76)"/><path class="cls-2" d="M854.94,515.7a10.93,10.93,0,0,0-3.71,1.12A9.77,9.77,0,0,1,849,518a4.23,4.23,0,0,1-3-.71c-.42-.28-.85-.54-1.29-.8.59-.26.09-1.12-.5-.87-2,.85,1.51,2.68,2,2.93,3.27,1.48,5.48-1.41,8.66-1.84.63-.08.63-1.08,0-1Z" transform="translate(-789.12 -455.76)"/><path class="cls-2" d="M844,516.53c-1,1.38-3.08,2-3.66,3.72a3.91,3.91,0,0,0,0,1.8c.38,2.32.65,4.56-2.13,5.38a.5.5,0,0,0,.13,1c2.66,0,2.05.48,3.91,3.07.16.22.22.54.49.75a3.57,3.57,0,0,0,2.51.59c1.84-.08,3.44-.74,5.33-.44a10.22,10.22,0,0,0,4.33.24c.63-.15.36-1.12-.27-1-2,.49-3.93-.54-6-.42s-3.93,1.41-5.47-.69c-.5-.69-.32-1.43-1.15-2.11a5.76,5.76,0,0,0-3.71-1l.14,1a4.33,4.33,0,0,0,3.38-4.22c0-1.8-1.26-3.21.29-4.73.92-.9,2-1.35,2.74-2.41.38-.52-.49-1-.86-.51Z" transform="translate(-789.12 -455.76)"/><path class="cls-9" d="M838,527.84a1.14,1.14,0,0,0-1.22.42,1,1,0,0,0,.14,1.21,7.34,7.34,0,0,1-2.2-3.47,17.72,17.72,0,0,1-.61-9.57c.1-.46,0-1.15-.46-1.15a.87.87,0,0,0-.49.21c-.71.54-1.58,1.26-2.41.89-.59-.26-.79-1-1.21-1.43s-1.53-.47-1.5.14a.93.93,0,0,0,.4.6l1.72,1.55c-.17.28-.65.12-1,.24s-.4.85,0,1.17a6.84,6.84,0,0,0,1.29.67c.43.23.79.72.57,1.14a2,2,0,0,0-1.12.13c-.34.18-.52.65-.26.91a1.37,1.37,0,0,0,.59.26c1.39.45,1.57,2.16,1.94,3.49a13.49,13.49,0,0,0,2.52,4.36,3.34,3.34,0,0,0,1.08,1.07,1.27,1.27,0,0,0,1.46-.12,2.49,2.49,0,0,0,2.08,1.33,7.75,7.75,0,0,0,2.61-.3,1.13,1.13,0,0,0,.55-.23.8.8,0,0,0,.2-.4,2.52,2.52,0,0,0-1.12-2.5,6.47,6.47,0,0,0-2.83-1" transform="translate(-789.12 -455.76)"/><path class="cls-2" d="M838,527.34c-1.54,0-2.19,1-1.51,2.38l.78-.6a9.69,9.69,0,0,1-2.66-5.38c-.56-2.63,0-4.6,0-7.17,0-1.44-.21-1.59-1.44-1.62a2.24,2.24,0,0,0-.8.53c-1.05.36-1.79.19-2.2-.52-.39-.24-.26-.48-.78-.7a1.58,1.58,0,0,0-1.42,0c-1.39,1.14,1.24,2.73,1.86,3.28l.1-.79c-1,.45-2.22.84-1.12,2.21.16.2,1.59.7,1.63.94,0,0-.72.08-.85.25-.37.49-.77.76-.43,1.44.06.12.17.19.23.3a2.87,2.87,0,0,1,1.81,1.65l.18.6a18,18,0,0,0,1.87,4.3c1,1.44,2.28,3.61,4.24,2.5l-.69-.18a3.21,3.21,0,0,0,2.51,1.58c.94.11,3,.05,3.59-.78,1.9-2.51-2.39-4.31-4-4.61-.63-.12-.9.84-.26,1a9.69,9.69,0,0,1,1.49.33q2.81,5.1-2.42,2a.5.5,0,0,0-.68-.18c-1.29.73-2.82-2-3.34-2.86a17.25,17.25,0,0,1-1.38-3.64,4.5,4.5,0,0,0-.71-1.52c-.22-.26-1.74-1.17-.53-1.15a.51.51,0,0,0,.5-.5c-.06-1,0-.81-.77-1.53s-1.49-.76-.32-1.26a.51.51,0,0,0,.1-.79,10.28,10.28,0,0,1-1.43-1.28c-.57-.78.4.24.58.39s.52.71,1,.88a2.1,2.1,0,0,0,1.63-.16,13.44,13.44,0,0,1,1.17-.79c.23.09-.08,2.1-.08,2.19-.28,3.95.09,8.87,3.23,11.71a.5.5,0,0,0,.78-.6l.65-.88a.5.5,0,0,0,0-1Z" transform="translate(-789.12 -455.76)"/><path class="cls-9" d="M831.9,515.91a17.51,17.51,0,0,0-1-1.88.93.93,0,0,1,1.28-.46,1.16,1.16,0,0,1,.56,1.29,2.13,2.13,0,0,1-.89,1.19" transform="translate(-789.12 -455.76)"/><path class="cls-2" d="M832.33,515.65c-.29-.64-.61-1.26-1-1.87l0,.38c.17-.44.77-.07.86.22.15.51-.27,1-.64,1.24s0,1.24.5.86a2.45,2.45,0,0,0,1.17-1.89,1.61,1.61,0,0,0-1.18-1.58,1.41,1.41,0,0,0-1.63.78c-.15.41.16.76.35,1.11s.43.83.62,1.26c.26.59,1.12.08.86-.51Z" transform="translate(-789.12 -455.76)"/><path class="cls-9" d="M831.43,513.39a3.24,3.24,0,0,1-1.29-1.1,1,1,0,0,1,.4-1.43,1.1,1.1,0,0,1,1.33.71,2.21,2.21,0,0,1-.18,1.57" transform="translate(-789.12 -455.76)"/><path class="cls-2" d="M831.68,513c-.39-.23-1.56-.86-1.11-1.5.22-.3.63-.07.78.19s0,1-.14,1.37c-.23.6.74.86,1,.26a2.3,2.3,0,0,0-.16-2.41,1.51,1.51,0,0,0-1.89-.35,1.53,1.53,0,0,0-.57,1.69,3.13,3.13,0,0,0,1.62,1.62.5.5,0,0,0,.5-.87Z" transform="translate(-789.12 -455.76)"/><path class="cls-9" d="M830.13,511.18a4.34,4.34,0,0,1-1.36-1.23c.08-.45.75-.61,1.18-.4a2.28,2.28,0,0,1,.91,1.05" transform="translate(-789.12 -455.76)"/><path class="cls-2" d="M830.38,510.75a4.09,4.09,0,0,1-1.18-1.05l0,.38c.06-.22.45-.11.57,0a1.91,1.91,0,0,1,.6.8c.31.56,1.18.06.87-.5-.48-.88-1.39-1.82-2.47-1.22a.82.82,0,0,0-.39,1.2,4.76,4.76,0,0,0,1.44,1.28.5.5,0,0,0,.51-.86Z" transform="translate(-789.12 -455.76)"/><path class="cls-9" d="M829.08,509.47a2,2,0,0,1-1.06-2c.07-.42.52-.89.91-.66a.79.79,0,0,1,.26.31c.39.69.73,1.66.08,2.13" transform="translate(-789.12 -455.76)"/><path class="cls-2" d="M829.33,509a1.58,1.58,0,0,1-.74-.81c-.05-.13-.22-1,.12-1a5.25,5.25,0,0,1,.35.8.71.71,0,0,1-.15.85c-.49.42.22,1.12.71.71a1.73,1.73,0,0,0,.36-2c-.23-.65-.65-1.56-1.48-1.37a1.49,1.49,0,0,0-1,1.69,2.5,2.5,0,0,0,1.31,1.92.5.5,0,0,0,.5-.87Z" transform="translate(-789.12 -455.76)"/><path class="cls-9" d="M827.9,507.22a9.62,9.62,0,0,1-2.06-6.84,3.38,3.38,0,0,1,.54-1.69,2.32,2.32,0,0,1,2-.86,2.25,2.25,0,0,1,1.8,1.12,4.09,4.09,0,0,0-2.61,0,1.83,1.83,0,0,0-1.25,2,2.4,2.4,0,0,1,3.39-1.49,6.48,6.48,0,0,0-2.32,1.11,1.92,1.92,0,0,0-.62,2.23c.14.25.34.46.49.71.56,1,.07,2.34.85,3.18a.2.2,0,0,0,.11-.33" transform="translate(-789.12 -455.76)"/><path class="cls-2" d="M828.33,507a10.2,10.2,0,0,1-1.72-3.42,8.6,8.6,0,0,1-.3-2V501q-.25-2.62,3.4-1.79l.56-.73c-1.92-.47-4.61-.11-4.49,2.42a.5.5,0,0,0,1,.13,2,2,0,0,1,2.66-1.19l.12-.91c-1.42.46-3.24,1.15-3.44,2.88-.11.94.53,1.4.82,2.22.36,1,.07,1.91.72,2.86a.51.51,0,0,0,.79.1l.15-.13a.52.52,0,0,0,.12-.49l0-.19c-.14-.63-1.11-.36-1,.26l0-.16.78.11a10,10,0,0,1-.8-3.07c-.26-1.08-2.09-.36.31-2.67a4.73,4.73,0,0,1,1.8-.76c.36-.12.54-.73.11-.91a2.93,2.93,0,0,0-4.12,1.79l1,.13c.81-1.52,1.88-2,3.23-1.46.38.09.83-.36.56-.73-1.28-1.74-4-1.89-4.92.32-1.15,2.72.2,6.26,1.83,8.45.38.51,1.25,0,.86-.5Z" transform="translate(-789.12 -455.76)"/><path class="cls-9" d="M842.09,504.84a4.77,4.77,0,0,0-2.91-.4c-.9.16-1.73.58-2.63.72a2.24,2.24,0,0,1-2.37-.88,2.45,2.45,0,0,1-.2-.75l-.29-1.84c-.13-.88-.18-2,.61-2.46.34-.22.86-.36.88-.74s-.24-.48-.49-.61a3,3,0,0,0-1.41-.3,2.54,2.54,0,0,0,1.77-.83.48.48,0,0,0,.13-.31c0-.13-.13-.22-.25-.29a2.88,2.88,0,0,0-1.52-.4,1.81,1.81,0,0,0,1.68-1,.59.59,0,0,0,.07-.26.49.49,0,0,0-.19-.32,1.28,1.28,0,0,0-1.74.38,3.12,3.12,0,0,0-.42,1.83,23.23,23.23,0,0,0,.72,7.89,1.86,1.86,0,0,0,.93,1.24,2.49,2.49,0,0,0,1.62-.18,11.75,11.75,0,0,1,4.68-.55c.51.05,1.26-.08,1.19-.56" transform="translate(-789.12 -455.76)"/><path class="cls-2" d="M842.23,504.35a6.6,6.6,0,0,0-4.49,0c-1.72.43-2.68.39-3.37-1.55-.5-1.39-.06-2.24.73-3.43.34-.52.77-.64.42-1.35s-1.49-.85-2.24-.92l.13,1a2.66,2.66,0,0,0,2.2-1.37.53.53,0,0,0-.07-.6,3,3,0,0,0-2.13-.84v1c1.12-.12,3.38-1.63,1.59-2.58-2.58-1.39-2.72,3.05-2.72,4.32,0,1.92-.33,7.14,2.05,8a2.54,2.54,0,0,0,1.34,0,28.23,28.23,0,0,1,3.9-.73c1,0,2.32.34,2.81-.78.26-.58-.6-1.09-.86-.5s-2.79.31-3.27.37c-1.35.17-3.22,1.32-4.24-.2-.36-.56-1.34-8.82-.6-8.91a.5.5,0,0,0,0,1l-.26.85c-.59.11-.39.94.13,1,1.7.15.76.53.29,1.16a2.3,2.3,0,0,0-.43,1.21,8.76,8.76,0,0,0,.58,4,2.41,2.41,0,0,0,2,1.19c2.24.23,3.89-1.25,6.24-.34.6.23.86-.74.27-1Z" transform="translate(-789.12 -455.76)"/><path class="cls-9" d="M839.79,539.31a3.88,3.88,0,0,0-2.92,1.16,2.17,2.17,0,0,0-.1,2.83,1.89,1.89,0,0,0,2.8-.1,2.73,2.73,0,0,0,.27-1.62l-.1-2.25" transform="translate(-789.12 -455.76)"/><path class="cls-2" d="M839.79,538.81a4.2,4.2,0,0,0-3.55,1.68,2.57,2.57,0,0,0,.41,3.37,2.44,2.44,0,0,0,3,0c1.12-1,.61-3.16.55-4.49,0-.64-1-.65-1,0a24.68,24.68,0,0,1,.1,2.85,1.22,1.22,0,0,1-1.88,1,1.58,1.58,0,0,1-.24-2.38,3.39,3.39,0,0,1,2.57-1,.5.5,0,0,0,0-1Z" transform="translate(-789.12 -455.76)"/><path class="cls-9" d="M836.48,542.48a.52.52,0,0,0-.49,0,5.1,5.1,0,0,0-3,3c-.58,1.3-.84,2.72-1.41,4a10.51,10.51,0,0,1-5,5.17l4.22,1.45a1.52,1.52,0,0,0,.47.1,1,1,0,0,0,.49-.19,1.38,1.38,0,0,0,.17-2c-.15-.15-.34-.29-.39-.49a.74.74,0,0,1,.08-.43c.52-1.29,1.39-2.44,1.89-3.73.69-1.77.79-3.91,2.33-5.12.35-.27.77-.5.91-.9s-.28-.95-.67-.74" transform="translate(-789.12 -455.76)"/><path class="cls-2" d="M836.48,542c-1.9-.1-3.28,1.78-4,3.32-.79,1.71-1,3.57-2,5.2a10.7,10.7,0,0,1-4.18,3.71.51.51,0,0,0,.12.91c1.47.5,4.82,2.63,6.05.79a2.07,2.07,0,0,0,.23-1.52c0-.28-.36-.49-.39-.73a3.24,3.24,0,0,1,.67-2.22,16.8,16.8,0,0,0,1.43-3.36,10.13,10.13,0,0,1,.93-2.57c.34-.53,1.1-.89,1.44-1.46.54-.88.64-1.95-.72-2a.5.5,0,0,0,0,1c-.45,0-1.77,2.28-1.95,2.69-.84,1.84-1.24,3.73-2.19,5.55a7.14,7.14,0,0,0-.83,2.44c-.42,2.38.53,1.58-1,1.58-1,0-2.44-.84-3.38-1.16l.12.91a11.61,11.61,0,0,0,4.53-4.07c1.32-2.12,1.88-8.2,5.16-8,.64,0,.64-1,0-1Z" transform="translate(-789.12 -455.76)"/><path class="cls-9" d="M828.92,555.64a1.73,1.73,0,0,0-1.79,1.38.82.82,0,0,0,.08.55.93.93,0,0,0,1.28.14,2.4,2.4,0,0,0,.76-1.14.59.59,0,0,0,.07-.46c-.06-.15-.31-.23-.4-.09" transform="translate(-789.12 -455.76)"/><path class="cls-2" d="M828.92,555.14a2.33,2.33,0,0,0-2.14,1.3,1.29,1.29,0,0,0,.87,1.93,2,2,0,0,0,2-1.4c.18-.41.36-.93,0-1.29a.76.76,0,0,0-1,0c-.51.4.2,1.1.7.71l.08-.06-.36.15c-.12-.24-.2-.24-.23,0a2.39,2.39,0,0,1-.13.28,1.59,1.59,0,0,1-.26.41c-.13.14-.55.4-.73.16s.2-.72.36-.86a1.34,1.34,0,0,1,.92-.31.5.5,0,0,0,0-1Z" transform="translate(-789.12 -455.76)"/><path class="cls-9" d="M827.7,557.9a4.58,4.58,0,0,0-1.4,1.79.54.54,0,0,0,0,.56c.17.2.53.12.76,0a2.33,2.33,0,0,0,1.12-2,.59.59,0,0,0-.49.18" transform="translate(-789.12 -455.76)"/><path class="cls-2" d="M827.35,557.55a5,5,0,0,0-1.41,1.74c-.28.58-.34,1.41.47,1.56a1.85,1.85,0,0,0,1.59-.79,2.82,2.82,0,0,0,.67-1.86.51.51,0,0,0-.5-.5,1.29,1.29,0,0,0-.84.32c-.51.4.21,1.11.7.71l.14,0-.5-.5a1.81,1.81,0,0,1-.25,1,1.78,1.78,0,0,1-.37.45s-.4.23-.41.25-.07,0,.09.11a3.09,3.09,0,0,1,.14-.32,4.94,4.94,0,0,1,.3-.49,4.26,4.26,0,0,1,.89-.91c.5-.4-.21-1.1-.71-.7Z" transform="translate(-789.12 -455.76)"/><path class="cls-9" d="M826.1,560.42a1.94,1.94,0,0,0-.8,1.41c0,.31.1.69.43.75a.79.79,0,0,0,.64-.33,3.22,3.22,0,0,0,.74-1.53l-.51,0" transform="translate(-789.12 -455.76)"/><path class="cls-2" d="M825.75,560.06c-.74.59-1.52,2.22-.44,2.88s2.1-1.22,2.28-2.08a.51.51,0,0,0-.48-.64l-.51,0c-.64,0-.64,1,0,1l.51,0-.48-.63a3.39,3.39,0,0,1-.25.76c-.09.16-.32.65-.52.68s0-.49,0-.59a1.7,1.7,0,0,1,.55-.67c.5-.4-.21-1.1-.71-.71Z" transform="translate(-789.12 -455.76)"/><path class="cls-9" d="M825.48,562.65a2.31,2.31,0,0,0-1.39,1.72c0,.22,0,.49.2.58a.59.59,0,0,0,.62-.21,3.26,3.26,0,0,0,1-2l-.55,0" transform="translate(-789.12 -455.76)"/><path class="cls-2" d="M825.23,562.22a2.82,2.82,0,0,0-1.46,1.48c-.22.52-.34,1.24.18,1.62s1.25-.11,1.63-.57a3.85,3.85,0,0,0,.83-2c0-.27-.26-.49-.5-.5l-.55,0c-.65,0-.65,1,0,1l.55,0-.5-.5a2.74,2.74,0,0,1-.36,1,2.43,2.43,0,0,1-.33.46,1.21,1.21,0,0,1-.16.16c-.19.08-.18.14,0,.19,0-.07,0-.25,0-.34a1.72,1.72,0,0,1,.27-.52,2.14,2.14,0,0,1,.83-.63c.59-.27.08-1.13-.5-.86Z" transform="translate(-789.12 -455.76)"/><path class="cls-9" d="M824,564.79a9.25,9.25,0,0,0-3,4c-.19.5-.39,1.08-.92,1.3-.7.29-1.45-.28-2-.8a1.35,1.35,0,0,0,.55,1.82c.9.47,2-.07,2.87-.59a1.26,1.26,0,0,0,.49,1.94,2.76,2.76,0,0,0,2.37-.2,5.84,5.84,0,0,1-1.63-.89,1.69,1.69,0,0,1-.6-1.6,3.39,3.39,0,0,1,.84-1.21,5.35,5.35,0,0,0,1.34-3.46" transform="translate(-789.12 -455.76)"/><path class="cls-2" d="M823.63,564.44a10.17,10.17,0,0,0-2.22,2.45,10.78,10.78,0,0,0-.69,1.3c-.14.36-.3.71-.46,1.06a1.25,1.25,0,0,1-1.78-.36.5.5,0,0,0-.83.22,1.87,1.87,0,0,0,.77,2.38c1.12.62,2.41,0,3.39-.59l-.69-.69a1.73,1.73,0,0,0,.28,2.36c.93.83,2.24.51,3.26.07.45-.2.22-.77-.12-.92-1.29-.54-1.93-1.28-1.16-2.85.18-.38.55-.71.75-1.09a6.31,6.31,0,0,0,.73-2.73c0-.64-1-.64-1,0a5.64,5.64,0,0,1-1.44,3.39,2.58,2.58,0,0,0-.76,1.5c-.1,1.52,1.44,2.25,2.62,2.75l-.12-.91c-1.09.69-1.82.34-2.17-1.06.31-.42-.29-.92-.69-.69a6.6,6.6,0,0,1-1.09.56c-.88.42-1.41,0-1.6-1.22l-.84.22c.88.8,2.12,1.54,3.11.48a11.2,11.2,0,0,0,1.16-2.29,9.06,9.06,0,0,1,2.3-2.63c.5-.41-.21-1.11-.71-.71Z" transform="translate(-789.12 -455.76)"/><path class="cls-9" d="M839.78,552.79a3.94,3.94,0,0,0-4.07,3l1.18.32c.57.21-.28,1.23.22,1.55a.63.63,0,0,0,.43.06,5.09,5.09,0,0,0,2.91-1.26,7.08,7.08,0,0,0-.72-3.91" transform="translate(-789.12 -455.76)"/><path class="cls-2" d="M839.78,552.29a4.49,4.49,0,0,0-4.55,3.37.51.51,0,0,0,.34.61c.13,0,.95.14,1,.25a3.06,3.06,0,0,1-.12.57,1.09,1.09,0,0,0,.18.81c.55.66,1.81.21,2.45,0,.85-.34,1.83-.78,1.89-1.77a7.91,7.91,0,0,0-.82-3.79c-.28-.58-1.14-.07-.86.51a7.38,7.38,0,0,1,.55,1.6,4,4,0,0,1,.13,1.68c-.17.39-2.17,1.51-2.48,1.11-.14-.18.15-.82,0-1.13-.27-.58-1.13-.62-1.67-.76l.35.61a3.48,3.48,0,0,1,3.59-2.63.5.5,0,0,0,0-1Z" transform="translate(-789.12 -455.76)"/><path class="cls-9" d="M836.65,556.13c-1.94,1.15-2.37,3.72-1.76,5.8s2,3.87,3,5.8,1.61,4.28.6,6.22l3.49-.61c.1,0,.22,0,.27-.13a.32.32,0,0,0,0-.27,45.42,45.42,0,0,0-2.65-9.27c-1.09-2.45-2.65-4.85-2.64-7.5" transform="translate(-789.12 -455.76)"/><path class="cls-2" d="M836.4,555.7c-6.85,4.91,4,12.39,1.6,18.11-.16.39.29.68.62.62a16.29,16.29,0,0,0,3.88-.78.51.51,0,0,0,.24-.44c.16-2.45-1.16-5.76-2-8-1.1-3-3.11-5.72-3.28-9,0-.64-1-.65-1,0,.17,3.14,1.86,5.66,3,8.51a36.16,36.16,0,0,1,1.64,5.4c.2.86.7,1.8.16,2.53s-2,.7-2.93.85l.62.62c1-2.41.33-4.74-.85-7-1.62-3-5.18-7.72-1.22-10.56.52-.37,0-1.24-.5-.86Z" transform="translate(-789.12 -455.76)"/><path class="cls-9" d="M840.31,573.56c-.21.48-.78.69-1.22,1s-.72,1-.27,1.31a.87.87,0,0,0,.8,0,1.5,1.5,0,0,0,.7-2.16" transform="translate(-789.12 -455.76)"/><path class="cls-2" d="M839.88,573.31a2.19,2.19,0,0,1-.87.72,1.94,1.94,0,0,0-.75.78,1.1,1.1,0,0,0,.68,1.65c1.6.33,2.56-1.75,1.81-3-.33-.55-1.2,0-.86.5a1,1,0,0,1,0,1c-.08.15-.69.74-.82.43s.61-.65.78-.75a2.25,2.25,0,0,0,.87-.86c.3-.57-.56-1.07-.86-.5Z" transform="translate(-789.12 -455.76)"/><path class="cls-9" d="M839.09,576.42a4,4,0,0,0-1.54,2,.39.39,0,0,0,0,.28.33.33,0,0,0,.21.15c.66.24,1.32-.35,1.65-.94a1.53,1.53,0,0,0,.23-1,.75.75,0,0,0-.74-.6" transform="translate(-789.12 -455.76)"/><path class="cls-2" d="M838.83,576a4.63,4.63,0,0,0-1.63,2c-.16.38-.3.81,0,1.15a1.27,1.27,0,0,0,1.14.27,2.53,2.53,0,0,0,1.71-1.8,1.3,1.3,0,0,0-1.19-1.73.5.5,0,0,0,0,1c.49,0,.14.73,0,.95a1.79,1.79,0,0,1-.44.47,1,1,0,0,1-.28.13c-.12,0-.17,0-.14.09s0,.1.05-.07a2.59,2.59,0,0,1,.14-.29,3.35,3.35,0,0,1,.27-.45,3.39,3.39,0,0,1,.85-.84c.52-.37,0-1.23-.51-.86Z" transform="translate(-789.12 -455.76)"/><path class="cls-9" d="M838,578.89a7.08,7.08,0,0,0-1.79,2.07.78.78,0,0,0-.1.77c.26.42,1,.12,1.28-.27a3.26,3.26,0,0,0,.71-2.21c.08-.11-.14-.26-.21-.15" transform="translate(-789.12 -455.76)"/><path class="cls-2" d="M837.65,578.54a6.77,6.77,0,0,0-2,2.38,1,1,0,0,0,1.18,1.46,2.72,2.72,0,0,0,1.65-2.1,2.65,2.65,0,0,0,.06-1.31.65.65,0,0,0-.93-.3c-.58.29-.08,1.15.5.86l.08,0-.39,0-.07,0-.13-.49a7.48,7.48,0,0,1-.19,1.33c0,.1-.75,1.34-.91,1.07s.66-1,.76-1.16a6.88,6.88,0,0,1,1.07-1c.5-.41-.21-1.11-.71-.71Z" transform="translate(-789.12 -455.76)"/><path class="cls-9" d="M836,581.7a2.56,2.56,0,0,0-1.47.92c-.28.5.05,1.3.65,1.25a1.32,1.32,0,0,0,.82-.61l.48-.64a.84.84,0,0,0,.24-.59c0-.21-.33-.39-.49-.24" transform="translate(-789.12 -455.76)"/><path class="cls-2" d="M835.87,581.21c-.77.27-1.72.65-1.91,1.55a1.32,1.32,0,0,0,1.1,1.61c.89,0,1.54-1,2-1.63a1,1,0,0,0,0-1.21.83.83,0,0,0-1-.17c-.56.3-.06,1.17.51.86-.21-.08-.36,0-.43.15l-.18.24-.34.45c-.15.17-.37.45-.55.19-.38-.56.84-1,1.15-1.07.61-.21.35-1.18-.26-1Z" transform="translate(-789.12 -455.76)"/><path class="cls-9" d="M834.67,583.32a8.45,8.45,0,0,0-6.12,6.43,2.91,2.91,0,0,0-2.24,1.38,2.55,2.55,0,0,0,0,2.51,4.75,4.75,0,0,1,2.93-3.58,2.29,2.29,0,0,0-1.55,2.06,2.26,2.26,0,0,0,1.5,2.08,3.78,3.78,0,0,1,1.34-3.73,4.63,4.63,0,0,1,1.65-4.71c1-.81,2.43-1.23,3.31-2.19a1.51,1.51,0,0,0-1-.14" transform="translate(-789.12 -455.76)"/><path class="cls-2" d="M834.53,582.84a9.27,9.27,0,0,0-6,5.32,2.15,2.15,0,0,1-1.19,1.43,4.67,4.67,0,0,0-1.07.8,3.18,3.18,0,0,0-.44,3.38c.16.42.84.52,1,0a4.61,4.61,0,0,1,2.7-3.27l-.51-.87a2.7,2.7,0,0,0,0,5,.51.51,0,0,0,.73-.57,3.74,3.74,0,0,1,.48-2.45c-.13.2.72-.65.83-1,.25-.71-.15-1.55.07-2.35.67-2.36,3.17-2.9,4.79-4.39a.51.51,0,0,0-.22-.84,2.18,2.18,0,0,0-1.13-.15c-.64,0-.65,1,0,1l.86.12-.22-.84c-2,1.87-4.71,2.33-5.17,5.47-.06.38.08,1,0,1.35a6.81,6.81,0,0,1-.79,1.35,4.46,4.46,0,0,0-.44,3l.73-.57q-2.32-2.24.05-3.27c.58-.29.07-1.14-.51-.87a5.49,5.49,0,0,0-3.15,3.87h1a2.42,2.42,0,0,1,1.93-3.27.47.47,0,0,0,.35-.34,8.15,8.15,0,0,1,5.77-6.09c.61-.19.35-1.15-.27-1Z" transform="translate(-789.12 -455.76)"/><path class="cls-2" d="M842.91,531.85c-3.12,1.82-3.46,5.79-3.83,9a47.28,47.28,0,0,0,1,16.21c1.91,8,6.89,16.06,16,16.51.64,0,.64-1,0-1-8.61-.43-13.19-8.21-15-15.77a46.28,46.28,0,0,1-1.22-12.63c.14-3.5.1-9.47,3.59-11.51a.5.5,0,0,0-.51-.86Z" transform="translate(-789.12 -455.76)"/><path class="cls-2" d="M863.36,475.13a8.31,8.31,0,0,0,.75,1.11c.81.74.51,1.47-.92,2.16-.47-.25-1.06.41-.6.79a12,12,0,0,1,4.18,11.64c-.62,3.19-4.6,11.72-9,8.45a.5.5,0,0,0-.73.3,3.92,3.92,0,0,0,.5,3.18l.17-.68c-.74.37-1.89,1.21-1.13,2.12s3.62.4,4.62.3a10.43,10.43,0,0,0,9-6.81c1.71-4.11,1.4-8.78.33-13s-2.69-8.26-6.37-10.65c-.55-.35-1,.52-.51.87,5,3.22,6.78,10.83,6.75,16.42a14.27,14.27,0,0,1-3,9.16,8.26,8.26,0,0,1-4.37,2.74,15.45,15.45,0,0,1-3,.36l-.79,0q-1,.38-1-.66a.5.5,0,0,0,.18-.68l-.4-2.41-.73.3c4.35,3.21,8.52-3.33,9.79-6.71a13.16,13.16,0,0,0-3.76-15l-.6.79a2.12,2.12,0,0,0,2.95-.56c.89-1.47-.71-2.93-1.42-4.08-.33-.55-1.2-.05-.86.5Z" transform="translate(-789.12 -455.76)"/><path class="cls-2" d="M865.11,504.26a4.72,4.72,0,0,0-2,3c-.33,1.84,1,3.44.68,5.26-.1.63.86.9,1,.26.45-2.76-2.07-5.42.81-7.62.51-.38,0-1.25-.5-.86Z" transform="translate(-789.12 -455.76)"/><path class="cls-2" d="M865.58,503.81c4-.83,2.21,5.85.55,5.53l-.27,1c.94.14,1.11.71,1.58,1.32.18.23,0,.46.31.62.88.51,1.67-.08,2.57-.3l-.79.49-1.23.41a5.77,5.77,0,0,0-1.79.89,3.37,3.37,0,0,0-1.19,3c0,.64,1,.65,1,0a3.61,3.61,0,0,1,2.25-3c.5-.19,1-.31,1.52-.52a3.89,3.89,0,0,0,1.51-.94c.41-.49.69-1.27.08-1.73-1.06-.8-2.32,1.41-3.22.6-.16-.15-.13-.76-.32-1a2.9,2.9,0,0,0-2-.87c-.63-.1-.91.84-.27,1,4.37.82,4.25-8.46-.55-7.46-.63.13-.36,1.09.27,1Z" transform="translate(-789.12 -455.76)"/><path class="cls-2" d="M855.62,516.7c3.18.43,5.38,3.33,8.65,1.84.55-.25,4-2.08,2.06-2.93-.59-.25-1.1.61-.51.87-.43.26-.86.52-1.29.8a4.19,4.19,0,0,1-3,.71,9.56,9.56,0,0,1-2.21-1.17,10.93,10.93,0,0,0-3.71-1.12c-.64-.08-.63.92,0,1Z" transform="translate(-789.12 -455.76)"/><path class="cls-2" d="M865.73,517a12.41,12.41,0,0,0,2.31,2.09c2,1.67.8,3,.72,5a4.31,4.31,0,0,0,3.38,4.22l.13-1a6,6,0,0,0-3.41.81c-1.05.72-.83,1.49-1.45,2.32s-2.45,1.09-3.42,1c-.55,0-1.11-.26-1.66-.31-2.16-.2-4.21.9-6.36.39-.62-.15-.89.82-.26,1a8.91,8.91,0,0,0,3.91-.15c2.11-.38,3.72.23,5.75.35a3.4,3.4,0,0,0,2.47-.54,4.28,4.28,0,0,0,.52-.74c1.86-2.54,1.22-3.09,3.91-3.13a.5.5,0,0,0,.14-1c-2.5-.73-2.72-2.82-2.24-5a4,4,0,0,0,.08-2.18c-.56-1.73-2.65-2.35-3.66-3.72-.38-.51-1.25,0-.86.51Z" transform="translate(-789.12 -455.76)"/><path class="cls-9" d="M872.56,527.84a1.13,1.13,0,0,1,1.22.42,1,1,0,0,1-.13,1.21,7.34,7.34,0,0,0,2.2-3.47,17.91,17.91,0,0,0,.61-9.57c-.1-.46-.05-1.15.46-1.15a.87.87,0,0,1,.48.21c.72.54,1.58,1.26,2.41.89.6-.26.79-1,1.22-1.43s1.52-.47,1.5.14a.93.93,0,0,1-.4.6l-1.72,1.55c.17.28.65.12,1,.24s.4.85,0,1.17a6.93,6.93,0,0,1-1.3.67c-.42.23-.79.72-.57,1.14a2,2,0,0,1,1.13.13c.33.18.51.65.25.91a1.32,1.32,0,0,1-.59.26c-1.38.45-1.56,2.16-1.93,3.49a13.67,13.67,0,0,1-2.52,4.36,3.28,3.28,0,0,1-1.09,1.07,1.28,1.28,0,0,1-1.46-.12,2.47,2.47,0,0,1-2.07,1.33,7.69,7.69,0,0,1-2.61-.3,1.21,1.21,0,0,1-.56-.23.89.89,0,0,1-.2-.4,2.53,2.53,0,0,1,1.13-2.5,6.38,6.38,0,0,1,2.83-1" transform="translate(-789.12 -455.76)"/><path class="cls-2" d="M872.56,528.34l.66.88a.5.5,0,0,0,.78.6c3.13-2.84,3.51-7.76,3.23-11.71a4.57,4.57,0,0,1-.1-1.56c.26-1,.27-.24,1.18.16a2,2,0,0,0,1.32.2c.53-.1.65-.26,1.1-.66.1-.09.82-1.14,1-.91,0,0-1.65,1.48-1.73,1.54a.51.51,0,0,0,.1.79c1.13.48.39.6-.32,1.26s-.71.62-.77,1.53a.52.52,0,0,0,.5.5c1.14,0-.25.84-.48,1.1a4.22,4.22,0,0,0-.75,1.57c-.39,1.21-2.5,7.76-4.72,6.5a.51.51,0,0,0-.69.18q-5.22,3.08-2.41-2A9.43,9.43,0,0,1,872,528c.63-.12.36-1.08-.27-1-1.66.3-5.94,2.1-4.05,4.61.63.83,2.65.89,3.6.78a3.19,3.19,0,0,0,2.5-1.58l-.68.18c1.95,1.11,3.27-1.06,4.24-2.5a19.58,19.58,0,0,0,1.79-4c.07-.3.15-.6.25-.9a2.88,2.88,0,0,1,1.82-1.65c0-.11.16-.18.23-.3.32-.64,0-.92-.39-1.4-.13-.2-.82-.21-.83-.28,0-.23,1.32-.62,1.57-1,1-1.4,0-1.74-1.12-2.21l.1.79c.56-.51,3.27-2.19,1.86-3.28a1.61,1.61,0,0,0-1.42,0c-.31.12-.38.33-.6.44-.43.87-1.22,1.13-2.38.78a2.19,2.19,0,0,0-.81-.53c-1.21,0-1.46.18-1.44,1.62,0,2.31.52,4.38.08,6.74a10.06,10.06,0,0,1-2.76,5.81l.79.6c.67-1.38,0-2.34-1.52-2.38a.5.5,0,0,0,0,1Z" transform="translate(-789.12 -455.76)"/><path class="cls-9" d="M878.66,515.91a17.51,17.51,0,0,1,1-1.88.94.94,0,0,0-1.29-.46,1.17,1.17,0,0,0-.55,1.29,2,2,0,0,0,.89,1.19" transform="translate(-789.12 -455.76)"/><path class="cls-2" d="M879.09,516.16c.19-.43.39-.85.61-1.26s.51-.7.36-1.11a1.41,1.41,0,0,0-1.63-.78,1.6,1.6,0,0,0-1.18,1.58,2.44,2.44,0,0,0,1.16,1.89c.52.38,1-.48.51-.86s-.79-.73-.64-1.24c.08-.29.69-.67.85-.22l0-.38c-.35.61-.67,1.23-1,1.87s.6,1.1.87.51Z" transform="translate(-789.12 -455.76)"/><path class="cls-9" d="M879.12,513.39a3.28,3.28,0,0,0,1.3-1.1,1,1,0,0,0-.41-1.43,1.08,1.08,0,0,0-1.32.71,2.26,2.26,0,0,0,.17,1.57" transform="translate(-789.12 -455.76)"/><path class="cls-2" d="M879.38,513.82A3.07,3.07,0,0,0,881,512.2a1.52,1.52,0,0,0-.56-1.69,1.51,1.51,0,0,0-1.89.35,2.28,2.28,0,0,0-.16,2.41c.23.6,1.2.34,1-.26a1.83,1.83,0,0,1-.17-1.31c.13-.29.58-.58.81-.25.46.64-.71,1.28-1.11,1.5a.5.5,0,0,0,.51.87Z" transform="translate(-789.12 -455.76)"/><path class="cls-9" d="M880.43,511.18a4.34,4.34,0,0,0,1.36-1.23c-.09-.45-.75-.61-1.18-.4a2.22,2.22,0,0,0-.91,1.05" transform="translate(-789.12 -455.76)"/><path class="cls-2" d="M880.68,511.61a4.65,4.65,0,0,0,1.44-1.28.82.82,0,0,0-.39-1.2c-1.07-.6-2,.34-2.46,1.22-.31.56.55,1.06.86.5a2,2,0,0,1,.6-.8c.14-.08.51-.19.58,0l.05-.38a4.09,4.09,0,0,1-1.18,1.05.5.5,0,0,0,.5.86Z" transform="translate(-789.12 -455.76)"/><path class="cls-9" d="M881.47,509.47a1.94,1.94,0,0,0,1.06-2c-.07-.42-.51-.89-.9-.66a.71.71,0,0,0-.26.31c-.39.69-.73,1.66-.08,2.13" transform="translate(-789.12 -455.76)"/><path class="cls-2" d="M881.73,509.9a2.53,2.53,0,0,0,1.3-1.85,1.51,1.51,0,0,0-1-1.76c-.82-.19-1.22.67-1.46,1.3a1.76,1.76,0,0,0,.34,2c.48.41,1.19-.29.7-.71a.73.73,0,0,1-.14-.85,7.39,7.39,0,0,1,.34-.8c.35,0,.19.8.13,1a1.52,1.52,0,0,1-.75.81.5.5,0,0,0,.51.87Z" transform="translate(-789.12 -455.76)"/><path class="cls-9" d="M882.65,507.22a9.58,9.58,0,0,0,2.07-6.84,3.29,3.29,0,0,0-.55-1.69,2.3,2.3,0,0,0-1.95-.86,2.23,2.23,0,0,0-1.79,1.12,4.06,4.06,0,0,1,2.6,0,1.82,1.82,0,0,1,1.25,2,2.39,2.39,0,0,0-3.39-1.49,6.53,6.53,0,0,1,2.33,1.11,1.91,1.91,0,0,1,.61,2.23c-.13.25-.34.46-.48.71-.57,1-.07,2.34-.86,3.18a.2.2,0,0,1-.1-.33" transform="translate(-789.12 -455.76)"/><path class="cls-2" d="M883.08,507.47c1.63-2.19,3-5.73,1.84-8.45-.93-2.21-3.65-2.06-4.92-.32-.28.37.17.82.56.73,1.34-.55,2.42-.06,3.22,1.46l1-.13a2.94,2.94,0,0,0-4.13-1.79c-.42.18-.25.79.12.91a5.74,5.74,0,0,1,1.8.76c2.5,2.11.56,1.66.31,2.67a10.43,10.43,0,0,1-.81,3.07l.79-.11,0,.16c.14-.62-.82-.89-1-.26l0,.19a.52.52,0,0,0,.13.49l.15.13a.51.51,0,0,0,.79-.1,6.28,6.28,0,0,0,.65-2.45c.22-.95,1-1.59.89-2.63-.19-1.73-2-2.42-3.44-2.88l.12.91A1.94,1.94,0,0,1,883.8,501a.5.5,0,0,0,1-.13c.13-2.53-2.56-2.89-4.49-2.42l.57.73q3.39-.9,3.34,1.25a5.45,5.45,0,0,1,0,1.14,8.6,8.6,0,0,1-.3,2,10,10,0,0,1-1.73,3.42c-.38.52.48,1,.86.5Z" transform="translate(-789.12 -455.76)"/><path class="cls-9" d="M868.46,504.84a4.78,4.78,0,0,1,2.91-.4c.9.16,1.73.58,2.63.72a2.26,2.26,0,0,0,2.38-.88,2.77,2.77,0,0,0,.2-.75l.28-1.84c.14-.88.19-2-.6-2.46-.35-.22-.86-.36-.89-.74s.24-.48.5-.61a3,3,0,0,1,1.41-.3,2.54,2.54,0,0,1-1.77-.83.44.44,0,0,1-.14-.31.46.46,0,0,1,.26-.29,2.82,2.82,0,0,1,1.51-.4,1.82,1.82,0,0,1-1.68-1,.58.58,0,0,1-.06-.26.49.49,0,0,1,.19-.32,1.29,1.29,0,0,1,1.74.38,3.2,3.2,0,0,1,.42,1.83,23.24,23.24,0,0,1-.73,7.89,1.81,1.81,0,0,1-.92,1.24,2.48,2.48,0,0,1-1.62-.18,11.77,11.77,0,0,0-4.68-.55c-.52.05-1.27-.08-1.19-.56" transform="translate(-789.12 -455.76)"/><path class="cls-2" d="M868.6,505.32c2.26-.88,3.79.43,6,.37a2.52,2.52,0,0,0,2.27-1.22,8.62,8.62,0,0,0,.6-4,2.56,2.56,0,0,0-.4-1.23c-.41-.57-2-1,.25-1.21.51,0,.72-.87.13-1l-.27-.85a.5.5,0,0,0,0-1c.72.08-.19,8.31-.6,8.91-1,1.44-2.55.45-3.85.26-.69-.11-3.41.11-3.65-.43s-1.12-.08-.87.5c.45,1,1.45.76,2.42.77a17.66,17.66,0,0,1,4,.65,2.73,2.73,0,0,0,1.35.14c2.66-.6,2.33-6.1,2.32-8.06,0-1.36,0-5.28-2.51-4.42-2.13.72.17,2.55,1.37,2.68v-1a2.93,2.93,0,0,0-2.12.84.53.53,0,0,0-.08.6,2.68,2.68,0,0,0,2.2,1.37l.14-1c-.76.07-1.86.14-2.24.92s.07.83.42,1.35c.79,1.19,1.22,2,.73,3.43-.69,1.94-1.65,2-3.37,1.55a6.6,6.6,0,0,0-4.49,0c-.59.23-.33,1.2.27,1Z" transform="translate(-789.12 -455.76)"/><path class="cls-9" d="M870.77,539.31a3.9,3.9,0,0,1,2.92,1.16,2.17,2.17,0,0,1,.1,2.83,1.9,1.9,0,0,1-2.81-.1,2.73,2.73,0,0,1-.26-1.62l.09-2.25" transform="translate(-789.12 -455.76)"/><path class="cls-2" d="M870.77,539.81a3.45,3.45,0,0,1,2.49.93,1.59,1.59,0,0,1-.17,2.46,1.21,1.21,0,0,1-1.87-.9,21.06,21.06,0,0,1,.09-3c0-.65-1-.64-1,0,0,1.3-.55,3.38.49,4.43a2.44,2.44,0,0,0,3.11.1,2.57,2.57,0,0,0,.47-3.28,4.19,4.19,0,0,0-3.61-1.77.5.5,0,0,0,0,1Z" transform="translate(-789.12 -455.76)"/><path class="cls-9" d="M874.08,542.48a.51.51,0,0,1,.48,0,5.07,5.07,0,0,1,3,3c.58,1.3.85,2.72,1.42,4a10.46,10.46,0,0,0,5,5.17l-4.23,1.45a1.52,1.52,0,0,1-.47.1,1,1,0,0,1-.48-.19,1.38,1.38,0,0,1-.18-2c.15-.15.35-.29.39-.49a.73.73,0,0,0-.07-.43c-.53-1.29-1.39-2.44-1.9-3.73-.69-1.77-.78-3.91-2.33-5.12-.34-.27-.76-.5-.91-.9s.29-.95.68-.74" transform="translate(-789.12 -455.76)"/><path class="cls-2" d="M874.08,543c3.3-.18,3.85,5.9,5.16,8a11.54,11.54,0,0,0,4.53,4.07l.12-.91c-.93.32-2.41,1.16-3.38,1.16-.81.58-1.13.38-1-.6-.27-.39-.29-.72,0-1a5.7,5.7,0,0,0-.82-2.44c-.95-1.81-1.36-3.71-2.19-5.55-.15-.32-1.53-2.7-2-2.69a.5.5,0,0,0,0-1c-1.38,0-1.23,1.1-.73,2,.3.54,1.3,1.23,1.45,1.46a8.81,8.81,0,0,1,.83,2.21,18,18,0,0,0,1.52,3.72,3.52,3.52,0,0,1,.72,2.17c0,.24-.4.44-.43.71a2.15,2.15,0,0,0,.23,1.59c1.23,1.84,4.61-.3,6-.79a.5.5,0,0,0,.12-.91,10.59,10.59,0,0,1-4.17-3.71c-1-1.62-1.26-3.49-2-5.2-.7-1.55-2.08-3.42-4-3.32-.64,0-.65,1,0,1Z" transform="translate(-789.12 -455.76)"/><path class="cls-9" d="M881.63,555.64a1.75,1.75,0,0,1,1.8,1.38.82.82,0,0,1-.08.55.94.94,0,0,1-1.28.14,2.49,2.49,0,0,1-.77-1.14.62.62,0,0,1-.06-.46c.06-.15.3-.23.4-.09" transform="translate(-789.12 -455.76)"/><path class="cls-2" d="M881.63,556.14a1.34,1.34,0,0,1,.93.31c.15.14.55.63.36.86s-.59,0-.73-.16a1.94,1.94,0,0,1-.27-.41c0-.09-.09-.18-.13-.28s-.1-.24-.23,0l-.35-.15.07.06c.5.39,1.22-.31.71-.71a.76.76,0,0,0-1,0c-.35.34-.21.82,0,1.21.36.84,1,1.63,2,1.48a1.27,1.27,0,0,0,.9-1.87,2.31,2.31,0,0,0-2.17-1.36.5.5,0,0,0,0,1Z" transform="translate(-789.12 -455.76)"/><path class="cls-9" d="M882.85,557.9a4.61,4.61,0,0,1,1.41,1.79.56.56,0,0,1,0,.56c-.17.2-.52.12-.75,0a2.32,2.32,0,0,1-1.13-2,.63.63,0,0,1,.5.18" transform="translate(-789.12 -455.76)"/><path class="cls-2" d="M882.5,558.25a4.83,4.83,0,0,1,.84.85,3.94,3.94,0,0,1,.35.55,3.09,3.09,0,0,1,.14.32c.16-.06.19-.1.08-.11s-.36-.21-.4-.25a2.12,2.12,0,0,1-.34-.39,1.83,1.83,0,0,1-.29-1l-.5.5.14,0c.5.4,1.21-.31.71-.71a1.32,1.32,0,0,0-.85-.32.51.51,0,0,0-.5.5,2.8,2.8,0,0,0,.63,1.8,1.88,1.88,0,0,0,1.64.85c.76-.14.76-.92.5-1.48a4.92,4.92,0,0,0-1.44-1.82c-.5-.4-1.21.3-.71.7Z" transform="translate(-789.12 -455.76)"/><path class="cls-9" d="M884.45,560.42a2,2,0,0,1,.81,1.41c0,.31-.1.69-.43.75a.77.77,0,0,1-.64-.33,3.22,3.22,0,0,1-.74-1.53l.5,0" transform="translate(-789.12 -455.76)"/><path class="cls-2" d="M884.1,560.77a1.83,1.83,0,0,1,.52.59c0,.12.25.68.07.67s-.4-.48-.47-.61a2.73,2.73,0,0,1-.29-.83l-.48.63.5,0c.64,0,.65-1,0-1l-.5,0a.52.52,0,0,0-.49.64c.19.86,1.1,2.8,2.28,2.08s.3-2.29-.43-2.88c-.5-.39-1.21.31-.71.71Z" transform="translate(-789.12 -455.76)"/><path class="cls-9" d="M885.07,562.65a2.32,2.32,0,0,1,1.4,1.72c0,.22,0,.49-.21.58s-.45-.05-.62-.21a3.24,3.24,0,0,1-1-2l.55,0" transform="translate(-789.12 -455.76)"/><path class="cls-2" d="M884.82,563.08a2.1,2.1,0,0,1,.84.63,2,2,0,0,1,.24.45,3.73,3.73,0,0,0,.08.41c.2-.05.21-.11,0-.19l-.11-.11a2.38,2.38,0,0,1-.39-.51,2.73,2.73,0,0,1-.35-1l-.5.5.55,0c.64,0,.65-1,0-1l-.55,0c-.24,0-.53.23-.5.5a3.85,3.85,0,0,0,.83,2c.37.46,1,1,1.63.57s.4-1.1.18-1.62a2.82,2.82,0,0,0-1.46-1.48c-.58-.27-1.09.59-.51.86Z" transform="translate(-789.12 -455.76)"/><path class="cls-9" d="M886.57,564.79a9.25,9.25,0,0,1,3,4c.19.5.39,1.08.91,1.3.71.29,1.46-.28,2-.8a1.35,1.35,0,0,1-.55,1.82c-.9.47-2-.07-2.88-.59a1.25,1.25,0,0,1-.49,1.94,2.74,2.74,0,0,1-2.36-.2,5.79,5.79,0,0,0,1.62-.89,1.68,1.68,0,0,0,.61-1.6,3.42,3.42,0,0,0-.85-1.21,5.4,5.4,0,0,1-1.33-3.46" transform="translate(-789.12 -455.76)"/><path class="cls-2" d="M886.22,565.15a9.53,9.53,0,0,1,2.18,2.43,13.56,13.56,0,0,0,1.27,2.49c1,1.06,2.23.32,3.11-.48l-.83-.22c-.19,1.23-.73,1.64-1.6,1.22a6.7,6.7,0,0,1-1.1-.56c-.4-.23-1,.27-.68.69-.36,1.4-1.08,1.75-2.17,1.06l-.12.91c1.18-.5,2.71-1.23,2.61-2.75a2.29,2.29,0,0,0-.63-1.36,5.8,5.8,0,0,1-1.56-3.53c0-.64-1-.65-1,0a6.3,6.3,0,0,0,.72,2.73c.21.38.58.71.76,1.09.77,1.57.13,2.31-1.17,2.85-.33.15-.56.72-.12.92,1,.45,2.34.76,3.27-.07a1.73,1.73,0,0,0,.27-2.36l-.68.69c1,.56,2.27,1.21,3.38.59a1.87,1.87,0,0,0,.78-2.38.51.51,0,0,0-.84-.22,1.25,1.25,0,0,1-1.78.36c-.16-.35-.31-.7-.45-1.06a10.78,10.78,0,0,0-.69-1.3,10,10,0,0,0-2.23-2.45c-.49-.4-1.2.3-.7.71Z" transform="translate(-789.12 -455.76)"/><path class="cls-9" d="M870.77,552.79a4,4,0,0,1,4.08,3l-1.18.32c-.57.21.28,1.23-.22,1.55a.64.64,0,0,1-.43.06,5,5,0,0,1-2.91-1.26,7.08,7.08,0,0,1,.72-3.91" transform="translate(-789.12 -455.76)"/><path class="cls-2" d="M870.77,553.29a3.5,3.5,0,0,1,3.6,2.63l.35-.61c-.54.14-1.41.18-1.68.76-.14.31.15.95,0,1.13-.32.4-2.31-.72-2.48-1.11a3.83,3.83,0,0,1,.13-1.68,6.88,6.88,0,0,1,.55-1.6c.27-.58-.59-1.09-.86-.51a7.91,7.91,0,0,0-.82,3.79c0,1,1,1.44,1.89,1.77.64.25,1.89.71,2.44,0a1,1,0,0,0,.18-.81c0-.13-.13-.36-.1-.47s.73-.28,1-.35a.5.5,0,0,0,.35-.61,4.5,4.5,0,0,0-4.56-3.37c-.64,0-.64,1,0,1Z" transform="translate(-789.12 -455.76)"/><path class="cls-9" d="M873.91,556.13c1.94,1.15,2.36,3.72,1.76,5.8s-2,3.87-3,5.8-1.62,4.28-.61,6.22l-3.48-.61a.41.41,0,0,1-.28-.13.36.36,0,0,1,0-.27,45.42,45.42,0,0,1,2.65-9.27c1.09-2.45,2.65-4.85,2.64-7.5" transform="translate(-789.12 -455.76)"/><path class="cls-2" d="M873.65,556.56c4,2.83.4,7.53-1.21,10.56-1.18,2.22-1.84,4.55-.85,7l.62-.62a8.48,8.48,0,0,1-2.62-.45c-1-.68-.47-1.59-.25-2.51a38.17,38.17,0,0,1,1.74-5.82c1.14-2.85,2.84-5.37,3-8.51,0-.65-1-.64-1,0-.18,3.27-2.18,6-3.28,9-.84,2.28-2.15,5.6-2,8a.52.52,0,0,0,.25.44,16.39,16.39,0,0,0,3.88.78c.33.06.78-.23.62-.62-2.36-5.74,8.46-13.2,1.6-18.11-.53-.38-1,.49-.51.86Z" transform="translate(-789.12 -455.76)"/><path class="cls-9" d="M870.24,573.56c.21.48.79.69,1.23,1s.71,1,.27,1.31a.89.89,0,0,1-.81,0,1.51,1.51,0,0,1-.69-2.16" transform="translate(-789.12 -455.76)"/><path class="cls-2" d="M869.81,573.81a2.22,2.22,0,0,0,.82.82c.17.11,1,.49.83.79s-.69-.23-.79-.38a1,1,0,0,1,0-1c.33-.55-.53-1-.87-.5-.74,1.22.22,3.3,1.82,3a1.09,1.09,0,0,0,.71-1.59,2,2,0,0,0-.72-.81c-.34-.22-.74-.38-.93-.75-.3-.57-1.16-.07-.87.5Z" transform="translate(-789.12 -455.76)"/><path class="cls-9" d="M871.47,576.42a4,4,0,0,1,1.53,2,.39.39,0,0,1,0,.28.36.36,0,0,1-.21.15c-.66.24-1.33-.35-1.65-.94a1.53,1.53,0,0,1-.23-1,.73.73,0,0,1,.74-.6" transform="translate(-789.12 -455.76)"/><path class="cls-2" d="M871.22,576.85a3.7,3.7,0,0,1,.8.78,3.36,3.36,0,0,1,.32.51,2.55,2.55,0,0,1,.13.29c0,.17.06.19,0,.07s0-.13-.14-.09a.84.84,0,0,1-.27-.13,1.73,1.73,0,0,1-.4-.41c-.15-.21-.57-1,0-1a.5.5,0,0,0,0-1,1.3,1.3,0,0,0-1.21,1.65,2.54,2.54,0,0,0,1.73,1.88,1.29,1.29,0,0,0,1.09-.22.93.93,0,0,0,.1-1.14,4.54,4.54,0,0,0-1.66-2c-.52-.37-1,.49-.5.86Z" transform="translate(-789.12 -455.76)"/><path class="cls-9" d="M872.55,578.89a6.8,6.8,0,0,1,1.79,2.07.76.76,0,0,1,.11.77c-.27.42-1,.12-1.29-.27a3.25,3.25,0,0,1-.7-2.21c-.09-.11.13-.26.21-.15" transform="translate(-789.12 -455.76)"/><path class="cls-2" d="M872.2,579.25a6.81,6.81,0,0,1,1.06,1c.1.12.85,1,.77,1.16s-.88-1-.92-1.07a7.46,7.46,0,0,1-.18-1.33l-.13.49-.08,0-.38,0,.08,0c.57.29,1.08-.57.5-.86a.66.66,0,0,0-.91.24,2.23,2.23,0,0,0,0,1.28,2.76,2.76,0,0,0,1.66,2.19,1,1,0,0,0,1.21-1.4,6.38,6.38,0,0,0-2-2.44c-.5-.4-1.21.3-.71.71Z" transform="translate(-789.12 -455.76)"/><path class="cls-9" d="M874.56,581.7a2.57,2.57,0,0,1,1.46.92c.29.5,0,1.3-.64,1.25a1.34,1.34,0,0,1-.83-.61l-.47-.64a.81.81,0,0,1-.25-.59c0-.21.33-.39.5-.24" transform="translate(-789.12 -455.76)"/><path class="cls-2" d="M874.42,582.18c.32.11,1.54.51,1.15,1.07-.16.23-.35,0-.5-.14s-.22-.28-.32-.42l-.24-.32c-.08-.18-.22-.23-.43-.15.56.31,1.07-.56.5-.86-.88-.47-1.5.55-1.08,1.31a7.58,7.58,0,0,0,.91,1.2,1.42,1.42,0,0,0,1.08.5,1.32,1.32,0,0,0,1.12-1.56c-.15-.92-1.14-1.32-1.92-1.6-.61-.21-.87.76-.27,1Z" transform="translate(-789.12 -455.76)"/><path class="cls-9" d="M875.89,583.32a8.45,8.45,0,0,1,6.12,6.43,2.92,2.92,0,0,1,2.24,1.38,2.58,2.58,0,0,1,0,2.51,4.75,4.75,0,0,0-2.93-3.58,2.29,2.29,0,0,1,1.54,2.06,2.26,2.26,0,0,1-1.49,2.08,3.8,3.8,0,0,0-1.34-3.73,4.64,4.64,0,0,0-1.66-4.71c-1-.81-2.42-1.23-3.3-2.19a1.5,1.5,0,0,1,1-.14" transform="translate(-789.12 -455.76)"/><path class="cls-2" d="M875.76,583.8a8.14,8.14,0,0,1,5.76,6.09.48.48,0,0,0,.35.34,2.41,2.41,0,0,1,1.93,3.27h1a5.5,5.5,0,0,0-3.16-3.87c-.57-.27-1.08.58-.5.87q2.37,1,0,3.27l.74.57a4.56,4.56,0,0,0-.3-2.7c-.26-.58-.76-1-.93-1.61-.1-.35,0-1,0-1.35-.46-3.12-3.15-3.6-5.18-5.47l-.22.84.87-.12c.64,0,.64-1,0-1a2.17,2.17,0,0,0-1.13.15.5.5,0,0,0-.22.84c1.62,1.5,4.11,2,4.78,4.39.22.76-.16,1.6.05,2.29.08.26.35.41.49.62a3.36,3.36,0,0,1,.84,2.85.52.52,0,0,0,.74.57,2.7,2.7,0,0,0,0-5l-.5.87a4.57,4.57,0,0,1,2.69,3.27c.12.52.81.42,1,0a3.17,3.17,0,0,0-.41-3.33c-.86-1-1.76-.91-2.3-2.28a9.25,9.25,0,0,0-6-5.32c-.61-.19-.88.77-.26,1Z" transform="translate(-789.12 -455.76)"/><path class="cls-2" d="M867.14,532.71c3.5,2,3.45,8,3.59,11.51a46.68,46.68,0,0,1-1.23,12.63c-1.8,7.56-6.38,15.34-15,15.77-.64,0-.65,1,0,1,9.06-.45,14-8.48,16-16.51a47.6,47.6,0,0,0,1.06-15.74c-.35-3.37-.65-7.63-3.88-9.52a.5.5,0,0,0-.51.86Z" transform="translate(-789.12 -455.76)"/><path class="cls-2" d="M852.37,532.33a4.41,4.41,0,0,0,2.27,5.37c1.12.46,2-.6,2.53-1.45a6.11,6.11,0,0,0,1-3.54.5.5,0,0,0-1,0c0,1.12-.85,4.74-2.62,3.8a3.38,3.38,0,0,1-1.25-3.91c.21-.61-.76-.87-1-.27Z" transform="translate(-789.12 -455.76)"/><path class="cls-2" d="M855.14,537.23q-.48,17.68-.58,35.4a.5.5,0,0,0,1,0q.11-17.7.58-35.4a.5.5,0,0,0-1,0Z" transform="translate(-789.12 -455.76)"/><path class="cls-2" d="M853.52,504.55a1.84,1.84,0,0,0,.77-.77c.14-.21.26-.55.53-.64a.9.9,0,0,1,.87.4c.08.1.46.58.42.69.12-.32-.63-.26-.77-.27s-2-.06-2-.09l-.05.38.06-.1c.29-.57-.57-1.08-.87-.51-.58,1.12,1.13,1.19,1.78,1.24s2.87.59,2.85-.68a2.51,2.51,0,0,0-1.92-2.05,1.44,1.44,0,0,0-1.18.33c-.4.34-.53,1-1,1.21s-.07,1.16.5.86Z" transform="translate(-789.12 -455.76)"/><path class="cls-2" d="M854.71,502.4a7.07,7.07,0,0,1,.08-3.39l-.61.35c.14,0,0,1.3,0,1.4a5.76,5.76,0,0,0,.22,1.38c.13.47.3,1.16.91,1.14s.89-.73,1-1.21a14,14,0,0,1,.68-3.24h-.86a4.39,4.39,0,0,1-.21,4.12.5.5,0,0,0,.87.51,5.45,5.45,0,0,0,.2-5.14.5.5,0,0,0-.86,0,6.6,6.6,0,0,0-.67,2.17c-.05.43,0,.89-.11,1.32-.26.34-.22.47.11.37a4.63,4.63,0,0,1-.17-.61c-.21-.94.4-2.8-.86-3.18a.52.52,0,0,0-.61.35,8.17,8.17,0,0,0-.08,3.93c.14.63,1.1.36,1-.27Z" transform="translate(-789.12 -455.76)"/><path class="cls-2" d="M849.42,507.85v-.08a.51.51,0,0,0-.5-.5h-.11a.52.52,0,0,0-.44.76c.71,1,2.35,1.83,3.28,2.68a5,5,0,0,0,2.34,1.59,4,4,0,0,0,2.87-.84c1.81-1.13,3.49-2.47,5.33-3.59.54-.33,0-1.2-.51-.86-1.09.66-2.16,1.34-3.21,2.07a13.83,13.83,0,0,1-2.71,1.88c-2.26.81-3.22-.9-4.54-2-.53-.43-1.61-.91-2-1.46l-.43.75-.39-.43c0,.64,1,.64,1,0Z" transform="translate(-789.12 -455.76)"/><path class="cls-2" d="M844.49,519.46c1.7,1,4,2.07,5.69.38.45-.46-.26-1.17-.71-.71-1.31,1.33-3.2.25-4.48-.53a.5.5,0,0,0-.5.86Z" transform="translate(-789.12 -455.76)"/><path class="cls-2" d="M859,518.61c.17,1.37,1.51,1.74,2.72,1.92a3.88,3.88,0,0,0,3.84-1.08c.4-.5-.3-1.21-.7-.71a2.66,2.66,0,0,1-2.36.89c-.57,0-2.4-.19-2.5-1-.09-.63-1.09-.63-1,0Z" transform="translate(-789.12 -455.76)"/><path class="cls-2" d="M854.5,518.49a28.14,28.14,0,0,1,.49,10.58c-.09.63.88.91,1,.27a29.47,29.47,0,0,0-.5-11.11c-.14-.63-1.11-.37-1,.26Z" transform="translate(-789.12 -455.76)"/></svg>