<svg id="Calque_1" data-name="Calque 1" xmlns="http://www.w3.org/2000/svg" viewBox="0 0 86.03 64.48"><defs><style>.cls-1{fill:#00a19a;}.cls-2{opacity:0.53;}.cls-3{fill:#2fac66;}.cls-4{fill:#f6f6f6;}.cls-5{fill:#1d1d1b;}.cls-6{opacity:0.14;}.cls-7{fill:#f4d5b2;}.cls-8{fill:#432918;}.cls-9{fill:#683c11;}.cls-10{fill:#fff;}.cls-11{fill:#495e5a;}.cls-12{fill:#ffed00;}.cls-13{fill:#be1622;}.cls-14{opacity:0.21;}.cls-15{fill:#e71d73;}.cls-16{fill:#ededed;}.cls-17{fill:#ffdb00;}.cls-18{fill:#f3a4a6;}.cls-19{fill:#d8ebe1;}</style></defs><title>06</title><path class="cls-1" d="M819,517.46a27.35,27.35,0,0,0-.31,5.72l.41,29.88a32.17,32.17,0,0,0,1,9.34,3.22,3.22,0,0,0,1,1.65,3.64,3.64,0,0,0,1.76.54l15.59,2c7.62,1,15.28,1.93,23,1.8,8.68-.14,17.36-1.69,26-.84,1,.09,2.12.14,2.69-.63a2.62,2.62,0,0,0,.37-1.38c.54-7.35.35-14.74.17-22.1-.18-7-.37-14-2-20.88-.42-1.78-1-3.7-2.59-4.71-1.34-.88-3.07-.86-4.69-.84-16.62.24-33.2-1.91-49.82-1.54a21.43,21.43,0,0,0-7.93,1.27,21.84,21.84,0,0,1-3.27,1.39" transform="translate(-810.33 -507.88)"/><path class="cls-1" d="M818.47,517.33c-.62,3.88-.3,7.9-.24,11.82l.18,13.45c.06,4.2.06,8.41.19,12.61.08,2.55,0,6.54,1.64,8.68a3.43,3.43,0,0,0,2.46,1.18c2,.33,4,.51,6,.76l12.6,1.59a134.93,134.93,0,0,0,25.4,1.21c4.18-.26,8.35-.68,12.53-.82,2.09-.06,4.17-.06,6.25.06,1.26.08,2.86.5,4.08,0,2.27-1,1.59-5.21,1.66-7.14.14-4.16.11-8.33,0-12.5-.16-8-.14-16.08-1.68-24-.5-2.55-1-5.7-3.57-7-2.8-1.51-6.91-.69-10-.73-9.61-.12-19.2-.88-28.81-1.3-4.88-.21-9.76-.34-14.65-.26a42.05,42.05,0,0,0-5.61.36c-2.45.4-4.38,1.59-6.7,2.34-.61.19-.35,1.16.26,1,1.7-.55,3.24-1.49,5-2a22.86,22.86,0,0,1,5.21-.64c3.88-.15,7.77-.08,11.65,0,7.33.22,14.65.72,22,1.08,3.42.17,6.84.31,10.26.38s10.31-1.25,12.49,2.08c1.8,2.75,2,7.38,2.37,10.51.41,3.8.55,7.63.66,11.45.19,7,.41,14.09.06,21.13a13.13,13.13,0,0,1-.18,2.88c-.59,1.8-1.12,1.56-2.56,1.51-1.6-.06-3.19-.23-4.8-.25-3.86,0-7.71.26-11.56.55a127.54,127.54,0,0,1-21.14,0c-7.41-.66-14.8-1.73-22.18-2.67-2.35-.29-5.84,0-7.12-2.43-1-1.86-.89-4.58-1-6.63-.15-3.85-.12-7.7-.18-11.55l-.17-12.94c-.07-4.47-.53-9.14.18-13.56.1-.63-.86-.9-1-.26Z" transform="translate(-810.33 -507.88)"/><g class="cls-2"><path class="cls-3" d="M856.94,518.32c-2.89.75-5.77,1.6-8.61,2.54a21.69,21.69,0,0,0-4.13,1.72,16.55,16.55,0,0,0-3.42,2.77,38.1,38.1,0,0,0-9.12,16.5A82.84,82.84,0,0,0,829,560.67a29.44,29.44,0,0,1-5.76.77,2.82,2.82,0,0,1-1.61-.29,3,3,0,0,1-1-1.86,170.32,170.32,0,0,1-5.19-33.52,9.69,9.69,0,0,1,.59-4.85c1.23-2.5,4.21-3.51,6.91-4.16,10.51-2.57,21.85-3.48,31.94.39" transform="translate(-810.33 -507.88)"/><path class="cls-3" d="M856.81,517.84c-4,1-8.35,2-12.07,3.89-3.36,1.68-6,4.78-8,7.84-4.71,6.93-6.73,15.26-7.61,23.5-.12,1.1-.22,2.21-.3,3.32-.06.74.16,2.65-.22,3.33-.61,1.12-3.24,1.27-4.33,1.17-1.28-.12-.64.32-2.05-.84a3.88,3.88,0,0,1-1.55-2.77q-1.75-7.08-2.89-14.27c-.8-5.07-1.36-10.18-1.69-15.3-.15-2.29-.6-5.11.74-7.13s4-2.78,6.28-3.34c10.35-2.61,21.51-3.36,31.67.39.61.22.87-.74.27-1-7.77-2.87-16.07-3.13-24.21-2-5.08.73-14.56,1.33-15.78,7.76-.77,4.07.25,8.89.71,13s1.09,8.44,1.87,12.62q.63,3.33,1.39,6.65c.4,1.74.61,3.93,1.41,5.54,1.51,3,6.14,1.47,8.75.91a.52.52,0,0,0,.37-.49c.46-9.24,1.55-18.73,5.91-27,2-3.79,4.69-7.69,8.28-10.14s9-3.54,13.36-4.68a.5.5,0,0,0-.26-1Z" transform="translate(-810.33 -507.88)"/></g><path class="cls-4" d="M813.43,571a5.75,5.75,0,0,1-.44-2.3l-1.14-22.87c-.49-9.87-.78-35.3-.78-35.3,1.17-.89,35.06-1.41,48.71-1.85,9.12-.29,33.58,1.24,33.94,1.67a2.79,2.79,0,0,1,.44,1.72l1.33,49.24c.07,2.75.14,5.49.09,8.24C895.58,569.54,814.42,573,813.43,571Zm72.4-10.63c0-1.9,0-3.79-.06-5.69l-1-34a1.68,1.68,0,0,0-.33-1.18c-.28-.3.42.07,0,0-6.9-1.28-19.16-1.33-26.2-1.12-10.55.31-37.47,1.6-37.47,1.6s-.6,5.25-.52,6.77l.94,17.31.86,15.78a3.45,3.45,0,0,0,.34,1.59C823.17,562.8,885.83,560.36,885.83,560.36Z" transform="translate(-810.33 -507.88)"/><path class="cls-5" d="M814.15,570.79c-.87-2.43-.58-5.49-.71-8.07l-.42-8.45c-.19-3.91-.42-7.83-.56-11.74-.23-6.31-.34-12.63-.45-18.94,0-2.74-.09-5.48-.12-8.23,0-1,.45-3.6-.06-4.53-.26-.46-.51.13-.16.29s1.39-.18,1.73-.21c2-.17,4.06-.26,6.08-.35,23.63-1,47.43-1.92,71,.13a7.84,7.84,0,0,1,2.47.25c.64.32,0-.34.44.6s.06,3.34.09,4.46l.48,17.72c.32,11.92,1,23.9.84,35.82l.75-.75c-23.44,1-46.93,2-70.39,2.06-2.61,0-5.22,0-7.83-.1-.82,0-1.65,0-2.47-.15-.57-.08-1.11-.42-.81,0-.54-.8-1.84,0-1.3.75s1.8.7,2.58.77c1.92.17,3.86.18,5.79.2,6.47.07,13-.06,19.42-.21,14.83-.33,29.66-.85,44.48-1.42q5.26-.19,10.53-.42a.77.77,0,0,0,.75-.75c.18-11.26-.48-22.58-.79-33.85L895.09,519c-.06-2.4.22-5.14-.22-7.5-.14-.78-.29-1.5-1-1.87-1.11-.55-3.1-.38-4.29-.47-3-.24-5.95-.43-8.93-.59-6.4-.36-12.82-.69-19.23-.63-12.88.13-25.79.57-38.66,1-2.59.1-5.18.2-7.77.37-1.1.07-2.88-.09-3.9.42-.84.43-.73.92-.72,1.78,0,2,0,4.09.08,6.14.11,7.53.23,15.06.46,22.59.13,4.18.36,8.37.57,12.55l.49,9.94c.14,2.73-.16,5.87.77,8.47C813,572.1,814.48,571.71,814.15,570.79Z" transform="translate(-810.33 -507.88)"/><path class="cls-5" d="M886.58,560.36c.13-7.22-.31-14.47-.52-21.68l-.31-11c-.09-2.83.11-5.79-.6-8.5l-1.1.85.16.08.18-1.37c-1,.26-3.27-.48-4.35-.59-1.71-.17-3.43-.29-5.14-.38-3.81-.2-7.63-.25-11.45-.23-5.42,0-10.83.28-16.24.5q-13.22.56-26.42,1.19a.78.78,0,0,0-.75.75,84.3,84.3,0,0,0-.11,14.3l1.18,21.62c.12,2.29-.72,6.08,2.16,6.5a42.69,42.69,0,0,0,5.77.19c14.64.08,29.31-.52,43.94-1q6.43-.21,12.85-.46c1,0,1-1.54,0-1.5q-15.33.6-30.67,1c-7.28.2-14.57.39-21.85.45-2.46,0-4.93,0-7.4,0-.74,0-1.48,0-2.21-.1-1-.1-.92,0-.88-1.1.13-4.22-.47-8.6-.7-12.82l-.61-11.24a92.62,92.62,0,0,1,0-15.8l-.75.75q13.37-.65,26.72-1.2c5.55-.23,11.1-.48,16.66-.49,3.83,0,7.66.05,11.49.27,1.69.1,3.38.22,5.07.41,1.15.12,2.91.76,4.06.47a.76.76,0,0,0,.18-1.37l-.16-.09a.76.76,0,0,0-1.1.85c.75,2.87.48,6.12.56,9.1l.31,10.49c.2,7.05.62,14.13.5,21.18A.75.75,0,0,0,886.58,560.36Z" transform="translate(-810.33 -507.88)"/><g class="cls-6"><path class="cls-5" d="M886.62,561.16a5.54,5.54,0,0,1,2.37,2.42l-26.61.47c-8,.14-39,1.13-44.62.91,1.5-.72,2.39-2.52,4-2.9a6.18,6.18,0,0,1,2.34.11,30.68,30.68,0,0,0,5,.17l37.71-.76,6.89-.14c4-.08,8-.17,11.92-.54" transform="translate(-810.33 -507.88)"/><path class="cls-5" d="M886.24,561.81a5.7,5.7,0,0,1,2.1,2.15l.65-1.13c-13.92.24-27.83.48-41.74.85-9.8.26-19.69.88-29.49.53l.38,1.4a18,18,0,0,0,1.89-1.47,4.79,4.79,0,0,1,4.09-1.22,64.06,64.06,0,0,0,8,.11l18.36-.37c11.69-.24,23.53,0,35.18-1,1-.09,1-1.59,0-1.5-12.31,1.1-24.82.8-37.17,1.05l-18.85.38c-1.28,0-2.55.07-3.83,0s-2.7-.52-4-.27c-1.85.36-2.85,2.09-4.4,3a.76.76,0,0,0,.38,1.4c9.8.35,19.69-.27,29.49-.53,13.91-.37,27.82-.61,41.74-.85a.76.76,0,0,0,.64-1.13,7.12,7.12,0,0,0-2.63-2.68c-.83-.51-1.58.79-.76,1.29Z" transform="translate(-810.33 -507.88)"/></g><g class="cls-6"><path class="cls-5" d="M884.09,519.29a15.54,15.54,0,0,0,3.28-3.9c-10.25-.92-62.36.45-69.86,1.08a5.56,5.56,0,0,0,4.25,3,11.53,11.53,0,0,0,2.87-.15c13.41-1.8,27-1.88,40.5-2,2.61,0,5.22,0,7.83.08a88,88,0,0,1,10.12,1" transform="translate(-810.33 -507.88)"/><path class="cls-5" d="M884.62,519.82a18.53,18.53,0,0,0,3.39-4.05.76.76,0,0,0-.64-1.13c-8.55-.74-17.27-.33-25.84-.21q-16.65.23-33.31.79c-3.57.12-7.15.21-10.71.5a.76.76,0,0,0-.65,1.13c2.49,4.37,6.86,3.33,11.12,2.84,6.08-.69,12.19-1.05,18.3-1.26,12.11-.4,24.59-1,36.6.74.94.14,1.35-1.31.4-1.45-10.62-1.58-21.46-1.14-32.17-.91-5.47.11-10.94.32-16.4.75-2.73.21-5.45.47-8.16.8-3.21.39-6.52,1-8.4-2.27l-.64,1.13c7.92-.65,15.93-.69,23.87-.89,11.28-.29,22.57-.52,33.85-.5,4,0,8.11,0,12.14.31l-.65-1.13a17.52,17.52,0,0,1-3.16,3.75c-.72.64.34,1.7,1.06,1.06Z" transform="translate(-810.33 -507.88)"/></g><g class="cls-6"><path class="cls-5" d="M889.39,562.38l-2.11-46.86c-.16,1.71-2.11,2.76-2.47,4.43a5.36,5.36,0,0,0,.06,1.87q.52,3.52.76,7.07c.21,3.08.26,6.17.3,9.26.1,6.6.2,13.21,0,19.8a5.88,5.88,0,0,0,.18,2.09c.49,1.35,1.92,2.09,3.22,2.69" transform="translate(-810.33 -507.88)"/><path class="cls-5" d="M890.14,562.38,888,515.52c0-.81-1.28-1.06-1.47-.2-.39,1.73-2.08,2.7-2.48,4.43-.45,2,.39,4.48.58,6.48.46,4.62.49,9.27.55,13.9.07,5,.12,9.9,0,14.85,0,1.71-.46,3.79.2,5.43s2.09,2.3,3.49,3c.86.42,1.62-.88.75-1.29-1.27-.62-2.16-1-2.68-2.43a9.14,9.14,0,0,1-.28-3.69q.07-3,.08-5.94c0-4.27,0-8.54-.11-12.81-.06-4-.17-7.92-.6-11.87-.2-1.86-1.05-4.45-.1-6.18.71-1.29,1.7-1.95,2-3.45l-1.47-.2,2.11,46.86c0,1,1.54,1,1.5,0Z" transform="translate(-810.33 -507.88)"/></g><g class="cls-6"><path class="cls-5" d="M821.33,561.34a7.37,7.37,0,0,1-3.55,3.11l.27-47.82c1,1,2.08,2.17,2.21,3.6a7.26,7.26,0,0,1-.1,1.61c-.55,4.13-.13,8.31.2,12.47a258.62,258.62,0,0,1,.71,26.56" transform="translate(-810.33 -507.88)"/><path class="cls-5" d="M820.68,561a7.57,7.57,0,0,1-3.28,2.83l1.13.65.27-47.82-1.28.53a7,7,0,0,1,1.88,2.58,8.46,8.46,0,0,1-.1,3,38.27,38.27,0,0,0-.14,4.79c.1,3.72.53,7.43.75,11.15q.68,11.06.41,22.14a.75.75,0,0,0,1.5,0q.28-12.55-.6-25.09a84.9,84.9,0,0,1-.5-12c.1-1.44.55-3,.13-4.41a8.52,8.52,0,0,0-2.27-3.24.76.76,0,0,0-1.28.53L817,564.45a.76.76,0,0,0,1.13.65,9,9,0,0,0,3.82-3.38c.52-.81-.77-1.56-1.3-.75Z" transform="translate(-810.33 -507.88)"/></g><path class="cls-7" d="M842.35,523.32a2.2,2.2,0,0,0-1.4.9,10.22,10.22,0,0,0-2.07,3.85l-.38-.53a2.46,2.46,0,0,1-.16,1.19,1,1,0,0,0,.29,1.1,1.42,1.42,0,0,1,.32.19c.13.16,0,.39.07.59s.29.51.38.8a1.67,1.67,0,0,1,.05.5l-.06,3a2.4,2.4,0,0,1-.07.6,2.29,2.29,0,0,1-.32.62,22.45,22.45,0,0,0-1.45,2.69.76.76,0,0,0-.09.44c.07.36.56.42.92.37a7.92,7.92,0,0,0,2.67-.88l.46,1.21a1.25,1.25,0,0,0-1-.28c-.36.12-.55.65-.26.88a1.61,1.61,0,0,0-.33,2.25,8.42,8.42,0,0,0,1.9,1.71,14.23,14.23,0,0,1,3.5,5.34,20.49,20.49,0,0,0,2.5-2.34.28.28,0,0,0,.08-.15.28.28,0,0,0-.12-.19,13.32,13.32,0,0,1-3.22-4.4c-.21-.5-.39-1-.65-1.5a9.53,9.53,0,0,0-.62-.94l-1.5-2.08a1.44,1.44,0,0,1-.23-.4,1.67,1.67,0,0,1,0-.59l.12-1.52a4,4,0,0,1,.2-1.13,4.12,4.12,0,0,1,.7-1l2.22-2.62a2.58,2.58,0,0,0,.62-1,3.85,3.85,0,0,0-.07-1.35c-.13-1.27.41-2.57.13-3.81a1.48,1.48,0,0,0-.34-.7,1.84,1.84,0,0,0-.57-.34,3,3,0,0,0-2.25-.38l.44-.28" transform="translate(-810.33 -507.88)"/><path class="cls-7" d="M842.29,523.08a3.58,3.58,0,0,0-2,1.57,14.13,14.13,0,0,0-1.58,2.76.26.26,0,0,0-.47.13,4.78,4.78,0,0,0,.52,3.07,7.27,7.27,0,0,1-.38,6c-.32.63-1.48,2-1.11,2.79.56,1.11,2.51,0,3.2-.14,1.57-.26-.26.28-.17.19a3.5,3.5,0,0,0-.91,1.73,2.55,2.55,0,0,0,.93,2.47,21.46,21.46,0,0,1,2.83,2.73,23.45,23.45,0,0,1,1.9,3.57c.07.16.28.14.39,0,.59-.49,2.58-1.76,2.64-2.6,0-.61-.91-1.14-1.28-1.56-1.4-1.58-1.95-3.45-3-5.2-1.34-2.19-2.63-3.25-1.52-5.92.71-1.68,2.57-2.73,3.17-4.41.42-1.14.09-2.45.21-3.66a3.54,3.54,0,0,0-.43-2.79,2.23,2.23,0,0,0-2.4-.59c.26-.17,0-.61-.26-.43l-.43.29a.25.25,0,0,0,.19.46c3.21-.44,3,3,2.72,5-.33,2.7-1.94,3.21-3.14,5.29a5.76,5.76,0,0,0-.66,3.31,6.15,6.15,0,0,0,1.54,2.85c.93,1.32,1.43,2.81,2.25,4.18s3.06,2.84,1.37,4.27c-1.07.9-.95.5-1.59-.3s-1-1.91-1.69-2.74-4.55-3.24-2.73-4.79a.25.25,0,0,0,.06-.25l.94-.31c.18.09.45-.07.37-.29l-.45-1.21a.26.26,0,0,0-.37-.15c-.72.35-2.59,1.32-2.83-.28-.09-.54.89-1.47,1.12-2a8.62,8.62,0,0,0,.47-3.8,11.89,11.89,0,0,0-1-4.21.26.26,0,0,0,.46-.06c.5-1.57,1.51-4,3.29-4.58.31-.09.18-.58-.13-.48Z" transform="translate(-810.33 -507.88)"/><path class="cls-7" d="M858.65,523.79a4.27,4.27,0,0,0-2.07,4,4.23,4.23,0,0,1,0,.79c0,.27-.15.52-.19.79a6,6,0,0,0,0,.85,3.67,3.67,0,0,0,1.55,2.92,1.41,1.41,0,0,1,.36.37,1.06,1.06,0,0,1,.09.4l.13,1.34a2.41,2.41,0,0,1,0,.71,4,4,0,0,1-.23.66,9.69,9.69,0,0,0-.33,1.77,6.61,6.61,0,0,1-1.18,2.78.57.57,0,0,0-.16.34.61.61,0,0,0,.11.29,3.65,3.65,0,0,0,3.53,1.34,7.29,7.29,0,0,0,3.51-1.77,3.75,3.75,0,0,0,.79-.85,4,4,0,0,0,.42-1.81,1,1,0,0,0,0-.46,1.1,1.1,0,0,0-.28-.33c-1.16-1.12-1.22-2.92-1.35-4.53a26.51,26.51,0,0,0-.9-5.08,4,4,0,0,0-1.23-2.22c-.3-.23-.66-.37-1-.58a6.22,6.22,0,0,1-1.7-1.87" transform="translate(-810.33 -507.88)"/><path class="cls-7" d="M858.52,523.57c-1.85,1.3-2.11,2.85-2.26,5a5.6,5.6,0,0,0,1.3,4.55c1.14,1.57.63,3.46.18,5.22-.23.9-1,1.88-1.16,2.72,0,.16-.2.3-.19.47.06,1.07,1.7,1.71,2.56,1.86,2.66.47,7.16-2.14,6.19-5.29-.29-.92-1.11-1.65-1.35-2.65a27.64,27.64,0,0,1-.29-2.9,26.78,26.78,0,0,0-.61-3.45,6.93,6.93,0,0,0-1.06-2.71c-.93-1.14-2.2-1.58-3.09-2.86-.18-.26-.62,0-.43.25.86,1.25,2.06,2,3,3.12,1.57,2,1.6,4.8,1.85,7.21a8.4,8.4,0,0,0,.89,3.44c.25.44.61.66.72,1.18.43,2-2.35,3.6-3.77,4s-4.15.18-3.76-1.75c.11-.54.66-1.2.83-1.77a12.18,12.18,0,0,0,.68-4.62c-.12-1.2-.34-1.15-1.05-2.05-1.75-2.23-1.19-6.94,1.09-8.54.26-.18,0-.62-.25-.43Z" transform="translate(-810.33 -507.88)"/><path class="cls-8" d="M838.56,530.71a3.78,3.78,0,0,1-.13-4.19c.15-.24.33-.47.47-.72.51-.92.37-2.11.93-3a2.86,2.86,0,0,1,.77-.78,4.85,4.85,0,0,1,4.47-.46,7.09,7.09,0,0,1,3.44,3.05,15.73,15.73,0,0,0,1.13,1.89c.49.61,1.2,1.21,1.12,2a3.25,3.25,0,0,1-.62,1.23A1.24,1.24,0,0,0,850,531c.29.44.94.43,1.37.75a1.79,1.79,0,0,1,.52,1.66,10.3,10.3,0,0,0-.25,2.86c.06.33.18.65.27,1a7.65,7.65,0,0,1,.15,1.07l.19,1.93-.86-2.28a1,1,0,0,0-.69-.71l-1.07-.47a.6.6,0,0,0-.47-.07c-.27.1-.25.48-.34.75a1.63,1.63,0,0,1-.68.72l-2.46,1.7L844.12,541a7.18,7.18,0,0,1-2.08-3.19,3.88,3.88,0,0,1,.7-3.62,14.72,14.72,0,0,0,1.18-1.19c.27-.4.41-.87.65-1.29s.54-.73.73-1.13a4.43,4.43,0,0,0,.31-1.95c0-1,0-1.91,0-2.86a2.06,2.06,0,0,0-.18-1,2,2,0,0,0-.58-.57c-.35-.25-.72-.5-1.09-.73a1.44,1.44,0,0,0-.9-.3,1.46,1.46,0,0,0-.67.33,8.33,8.33,0,0,0-2.64,2.54,5.4,5.4,0,0,1-1,1.59,1.46,1.46,0,0,0-.42.4,1.09,1.09,0,0,0,0,.83l.64,2.23" transform="translate(-810.33 -507.88)"/><path class="cls-8" d="M838.78,530.59c-1.2-2.06-.28-2.83.35-4.69a16.09,16.09,0,0,1,.84-2.45c2-3.81,6.57-1.49,8.32,1.29,1.16,1.83,1.7,2.49,1.63,4.86,0,1.32-.38.21-.15,1.59,0,.21.42.24.49.4,2.15,4.44,1,1.14,1.12,3.29a25.8,25.8,0,0,0,.4,3.47c.46,2.48.24-.16-.42-.89a4.06,4.06,0,0,0-2.16-1,.26.26,0,0,0-.28.12,13.39,13.39,0,0,1-2.58,2.52c-1.4,1.07-2.36,1.84-3.48-.07s-.76-3.61.66-5.3a10,10,0,0,0,1-1.3,7,7,0,0,0,1.39-3.86c0-1.15.31-2.93-.27-4a4.07,4.07,0,0,0-2.7-1.69c-.77,0-1.83,1-2.37,1.53a8.85,8.85,0,0,0-1.22,1.45,11.21,11.21,0,0,0-1.41,2c-.29,1.07.34,2.24.63,3.26A.26.26,0,0,0,839,531c-.47-1.6-.73-2.17.1-3.68a9.74,9.74,0,0,1,2-2.77c2.23-2,3.82-.24,4.2,2.14a7.37,7.37,0,0,1-1,4.86c-.87,1.6-2.51,2.72-2.69,4.63s1,3.61,2.28,5a.24.24,0,0,0,.3,0c1.49-1,3-2.12,4.46-3.13.73-.49-.28-.91,1.31-.79,1.19.09,1.62,2.16,2,3.08.09.24.52.23.49-.07a32.09,32.09,0,0,1-.42-6.4,2.94,2.94,0,0,0-.59-2.31c-.65-1.09-.39,1.28-.63-1.28a1.18,1.18,0,0,1-.08-1.06,3.62,3.62,0,0,0,.13-.35,2.75,2.75,0,0,0,0-1c-.2-.76-1.07-1.45-1.48-2.07a23.65,23.65,0,0,0-1.43-2.29c-1.77-2.18-5.41-3.63-7.8-1.46a3.24,3.24,0,0,0-.92,1.4c-.19.51-.16,1.08-.35,1.59-.26.71-.82,1.32-1.06,2a4.34,4.34,0,0,0,.47,3.79.25.25,0,0,0,.43-.25Z" transform="translate(-810.33 -507.88)"/><path class="cls-9" d="M858.21,523.59c-.74.73-2.12.39-2.88,1.11a2.17,2.17,0,0,0-.5.79,2.37,2.37,0,0,0-.23,1.35,4.48,4.48,0,0,1,.22.93,2.78,2.78,0,0,1-.46,1.08,2.22,2.22,0,0,0,.06,2c.22.4.58.75.61,1.2s-.32.95-.22,1.43c.12.64,1,1,.89,1.68,0,.22-.19.42-.14.64a.48.48,0,0,0,.13.23,1.13,1.13,0,0,0,1.1.26,2.7,2.7,0,0,0,1-.6,1.47,1.47,0,0,0,.32-.34,1.23,1.23,0,0,0,.07-.76,11,11,0,0,0-1.35-2.89,7.62,7.62,0,0,1,1-8.2" transform="translate(-810.33 -507.88)"/><path class="cls-9" d="M858.08,523.37c-1.08.7-2.46.45-3.26,1.57s-.43,2.65-.68,3.79c-.35,1.6.28,2.36.52,4a6.77,6.77,0,0,0,.67,2.94,1.63,1.63,0,0,0,3-.14c.47-.93-.25-2.08-.67-2.87-1.61-3-1.78-6.13.42-8.95.2-.25-.15-.61-.35-.35a8.17,8.17,0,0,0-1.86,5.57,7.79,7.79,0,0,0,.48,2.25,20.64,20.64,0,0,1,1.08,2.08c.19.86.3,4-1.46,2-.73-.85-.78-2.77-.93-3.89a10.66,10.66,0,0,1,0-3.61,1.6,1.6,0,0,1,.69-1.86c.1-1,.57-1.53,1.41-1.52.37-.23.78-.27,1.17-.53s0-.61-.25-.43Z" transform="translate(-810.33 -507.88)"/><path class="cls-9" d="M858,523.59a.83.83,0,0,1-.86-.62,1.32,1.32,0,0,1,.48-1.43,1.29,1.29,0,0,1,1.51,0c.39.3.61.83,1.08,1a2.37,2.37,0,0,0,1.12-.05,2.77,2.77,0,0,1,2,.52,10.34,10.34,0,0,0,1.2,1c.69.37,1.64.31,2.12.93.25.33.29.79.54,1.12.55.72,1.76.57,2.36,1.25a3.82,3.82,0,0,0,.51.67,1.49,1.49,0,0,0,.8.26l1.45.19-1.72.4a1.13,1.13,0,0,0-.67.33,1,1,0,0,0,0,1,2.19,2.19,0,0,1,.35,1,2.19,2.19,0,0,0,0,.57.88.88,0,0,0,.51.54,4.61,4.61,0,0,1,.89.44.79.79,0,0,1,.31.87,2.17,2.17,0,0,0-3.81,1.4,1.61,1.61,0,0,1-.09.76,1.13,1.13,0,0,1-.41.37,1.72,1.72,0,0,1-1.52.41c-.36-.14-.75-.52-1.05-.28-.15.12-.21.37-.4.38s-.23-.1-.31-.2c-.77-1.11-.73-2.56-.81-3.91a16.79,16.79,0,0,0-.76-4,7,7,0,0,0-.87-1.9,9.15,9.15,0,0,0-1.64-1.65l-1.3-1.09a1,1,0,0,0-.64-.33l.19-.34" transform="translate(-810.33 -507.88)"/><path class="cls-9" d="M858,523.35q.84-2.08,1.56-.87l0,0c-.58-.06,1.05.45.81.32,1.26.66,2.94.75,4.24,1.54a5.31,5.31,0,0,0,.86.26,2.86,2.86,0,0,1,1.38,1.57c.16.13.31.3.48.43.32.22.77.23,1.09.41.52.28.87.86,1.33,1.13a7.63,7.63,0,0,0,1.71.43c-.13-.42-1.6,0-1.85.39-.51.76,0,2.71.55,3.29.4.41,1.91.64.93.54s-1.55-.36-2.38.3-.53,1.11-.93,1.82c.09-.16-2.06,1.47-2.9,1.09-1.61-.74-1.44-6.38-2.2-8.24a7.13,7.13,0,0,0-1.75-2.49,21.32,21.32,0,0,1-2.3-2c.15-.29-.28-.54-.44-.26l-.19.35a.26.26,0,0,0,.15.36c1.28.39,3.19,2.44,3.79,3.56a13.67,13.67,0,0,1,1.24,5.19c.11,1.39-.06,3.45,1.24,4.33a.24.24,0,0,0,.26,0c.6-.43,1.5.07,2.23-.12,1.45-.38,2.92-4.51,4.74-3a.26.26,0,0,0,.43-.18c0-1-.54-.79-1.09-1.43a2.8,2.8,0,0,1-.7-1.57c-.15-1.9.59-1.61,2-1.93.3-.06.2-.45-.06-.49a7.75,7.75,0,0,1-3.12-1.43,2.91,2.91,0,0,1-1.28-.79,1.74,1.74,0,0,1-1-1.15c-.17-.13-.33-.31-.52-.44-.36-.25-.82-.2-1.19-.39-.71-.36-1.28-1-2-1.34a24.9,24.9,0,0,0-2.68-.65c-1-.38-2.42-1.73-3.37-.25a1.3,1.3,0,0,0,.85,2.07.25.25,0,0,0,.13-.48Z" transform="translate(-810.33 -507.88)"/><path class="cls-10" d="M840.6,526.51a1.23,1.23,0,0,1,.7-.21.87.87,0,0,1,.47.12,1.06,1.06,0,0,1,.23.19l.31.3a2.33,2.33,0,0,1-.69.12,1.24,1.24,0,0,1-.33,0,1.4,1.4,0,0,1-.33-.15l-.4-.23" transform="translate(-810.33 -507.88)"/><path class="cls-10" d="M840.66,526.62a1,1,0,0,1,1.05-.1,2.57,2.57,0,0,1,.51.48l.06-.21a1.74,1.74,0,0,1-1,.08,3.57,3.57,0,0,1-.7-.36.12.12,0,1,0-.12.21,2.07,2.07,0,0,0,1.85.31.13.13,0,0,0,0-.21,1.83,1.83,0,0,0-.9-.63,1.44,1.44,0,0,0-1,.21c-.14.08,0,.3.13.22Z" transform="translate(-810.33 -507.88)"/><path class="cls-10" d="M844.16,527.56l.26-.09a1.3,1.3,0,0,1,.33-.07.64.64,0,0,1,.41.18,1.68,1.68,0,0,1,.3.35.44.44,0,0,1-.35.24.91.91,0,0,1-.49-.15l-.49-.26,0,0s0,0,0,0" transform="translate(-810.33 -507.88)"/><path class="cls-10" d="M844.2,527.68c.26-.09.86-.29,1,.09a.49.49,0,0,1-.66.06,3.37,3.37,0,0,1-.32-.19l0,.19h0l-.17-.05h0c.09.14.31,0,.22-.12v0a.14.14,0,0,0-.17,0h0a.12.12,0,0,0,0,.19,2,2,0,0,0,.91.47.58.58,0,0,0,.63-.29.1.1,0,0,0,0-.13,1,1,0,0,0-1.43-.42c-.15,0-.09.29.07.24Z" transform="translate(-810.33 -507.88)"/><path class="cls-10" d="M856.62,527.9a1,1,0,0,1,.3-.33,1.2,1.2,0,0,1,.62-.13l.34,0a1,1,0,0,1-.49.56.71.71,0,0,1-.72-.05l.11,0" transform="translate(-810.33 -507.88)"/><path class="cls-10" d="M856.72,528a1.32,1.32,0,0,1,1.16-.41l-.11-.19c-.19.4-.55.74-1,.46l0,.23.1,0c.15-.06.09-.3-.06-.24l-.11,0a.13.13,0,0,0,0,.23,1,1,0,0,0,1.38-.55.13.13,0,0,0-.11-.19c-.6,0-1,0-1.37.54-.1.13.12.25.21.12Z" transform="translate(-810.33 -507.88)"/><path class="cls-10" d="M859.8,527.22a.92.92,0,0,1,.77-.43,1.76,1.76,0,0,1,.7.2,3.31,3.31,0,0,1-.67.29,1,1,0,0,1-.72,0s0,0,0,0" transform="translate(-810.33 -507.88)"/><path class="cls-10" d="M859.91,527.28c.34-.47.82-.38,1.3-.18v-.22a2.77,2.77,0,0,1-.64.28c-.13,0-.57,0-.59.09,0-.16-.21-.23-.24-.07-.11.65,1.44,0,1.59-.08a.13.13,0,0,0,0-.22,1.23,1.23,0,0,0-1.64.27c-.09.13.12.26.22.13Z" transform="translate(-810.33 -507.88)"/><path class="cls-8" d="M857.49,527.62l0-.07a.26.26,0,0,0-.47.13.38.38,0,0,0,.12.34.26.26,0,0,0,.36,0l0-.06a.25.25,0,0,0,0-.3l0-.08a.26.26,0,0,0-.22-.12.33.33,0,1,0,.09.64.23.23,0,0,0,.17-.17.33.33,0,0,0-.18-.44c-.29-.14-.54.29-.25.43l0-.13.18-.17-.1,0,.24.06-.06-.07.06.24-.1.09-.21-.12,0,.07,0-.3,0,.06h.38l-.46.13,0,.06c.15.29.59,0,.43-.25Z" transform="translate(-810.33 -507.88)"/><path class="cls-8" d="M860.18,526.9a.34.34,0,0,0,0,.34.25.25,0,0,0,.28.12.34.34,0,0,0,.24-.24c.06-.13-.06-.26-.17-.31l0,0a.26.26,0,0,0-.28.12l0,.05a.24.24,0,0,0,0,.3.34.34,0,0,0,.28.13c.18,0,.27-.18.25-.32l0-.1c0-.24-.35-.21-.46-.06l0,.05a.27.27,0,0,0,0,.26l0,.06c.15.28.59,0,.43-.26l0-.06v.26l.05-.06-.46-.06v.11l.24-.32.07,0,0,.3,0-.05-.29.12,0,0-.17-.31,0,0,.17-.17,0,0,.28.11,0,0v.26l0-.05c.15-.28-.28-.54-.43-.25Z" transform="translate(-810.33 -507.88)"/><path class="cls-11" d="M841.14,526.37a.31.31,0,0,0-.14.33.24.24,0,0,0,.12.22.38.38,0,0,0,.43,0,.24.24,0,0,0,.12-.22c0-.19,0-.25-.2-.37s-.5.24-.25.43l.08.06-.13-.21v.09l.13-.21-.09,0h.25l-.09,0,.13.21v0c.25-.19-.1-.55-.36-.35Z" transform="translate(-810.33 -507.88)"/><path class="cls-11" d="M844.59,527.77v0l.19-.24h0l.28.11,0,.11-.49-.06v.06c0,.31.53.32.5,0v-.06a.25.25,0,0,0-.49-.07.31.31,0,0,0,0,.28.26.26,0,0,0,.28.11h0a.24.24,0,0,0,.18-.24v0c0-.31-.47-.31-.5,0Z" transform="translate(-810.33 -507.88)"/><path class="cls-8" d="M840.61,525.87a2.48,2.48,0,0,1,.61-.15,1.9,1.9,0,0,1,.9.28c.15.08.27-.14.13-.21a2.4,2.4,0,0,0-.88-.32,2.35,2.35,0,0,0-.83.16c-.16,0-.09.28.07.24Z" transform="translate(-810.33 -507.88)"/><path class="cls-8" d="M844.34,526.88a1.53,1.53,0,0,1,1,.15c.14.07.27-.15.12-.22a1.89,1.89,0,0,0-1.19-.17c-.16,0-.1.27.06.24Z" transform="translate(-810.33 -507.88)"/><path class="cls-8" d="M857.7,526.1a.72.72,0,0,0-.48,0c-.25.1-.5.43-.75.49l.15.15v0l-.16.09h0c.16,0,.23-.2.07-.24h0a.13.13,0,0,0-.16.09h0a.13.13,0,0,0,.15.16c.41-.09.61-.63,1.1-.53.16,0,.22-.21.07-.24Z" transform="translate(-810.33 -507.88)"/><path class="cls-8" d="M859.62,526a1.83,1.83,0,0,1,1.22,0c.15.07.27-.15.13-.22a2.16,2.16,0,0,0-1.42,0c-.16,0-.09.27.07.24Z" transform="translate(-810.33 -507.88)"/><path class="cls-12" d="M841,530.22l.35-.12a.69.69,0,0,1,.24-.05.76.76,0,0,1,.57.34.29.29,0,0,1,.33-.11.88.88,0,0,1,.32.19q.42.33.87.63a1.24,1.24,0,0,0-.71,0,2.69,2.69,0,0,1-.75,0,1.83,1.83,0,0,1-1-.29,1.9,1.9,0,0,1-.3-.33l-.15-.2a0,0,0,0,1,0-.05s0,0,0,0" transform="translate(-810.33 -507.88)"/><path class="cls-12" d="M841,530.34c.4-.13.71-.23,1,.14a.13.13,0,0,0,.18,0c.24-.23,1.16.59,1.36.72l.1-.22a8.09,8.09,0,0,0-1.3.06c-.52,0-1.38-.16-1.53-.79l-.12.15h0l-.12-.13v0a.13.13,0,0,0,.25,0v0a.12.12,0,0,0-.13-.12h0a.13.13,0,0,0-.12.16,1.47,1.47,0,0,0,.85.84,3.16,3.16,0,0,0,.92.14,8.62,8.62,0,0,1,1.23-.07.13.13,0,0,0,.1-.23c-.4-.27-1.16-1.18-1.67-.69h.18c-.43-.47-.73-.39-1.29-.2-.15,0-.08.3.07.24Z" transform="translate(-810.33 -507.88)"/><path class="cls-13" d="M857.79,530.83c0-.2.09-.4.13-.6A.65.65,0,0,1,858,530a.31.31,0,0,1,.44,0,.41.41,0,0,1,.5-.24,1.44,1.44,0,0,1,.54.3,1,1,0,0,0,.55.27c-.27.13-.58.13-.86.26a3.06,3.06,0,0,1-.58.27c-.27,0-.59-.09-.82.08" transform="translate(-810.33 -507.88)"/><path class="cls-13" d="M857.91,530.86c0-.13.13-1,.47-.79a.13.13,0,0,0,.17,0c.24-.46,1.14.32,1.46.38v-.24c-.37.15-.74.22-1.1.38a1.78,1.78,0,0,1-.81.14.75.75,0,0,0-.38.1c-.15.07,0,.29.12.21.33-.16.71,0,1-.16s.78-.27,1.18-.43c.11,0,.14-.21,0-.24-.49-.1-1.31-1.09-1.73-.27l.17,0c-.65-.38-.75.52-.84.94a.12.12,0,0,0,.24.06Z" transform="translate(-810.33 -507.88)"/><g class="cls-14"><path class="cls-8" d="M843.64,527.57c0,.2-.11.39-.13.59s.25,1.14-.29,1.26c-.14,0-.11.26,0,.25a.53.53,0,0,0,.53-.42,2.88,2.88,0,0,0,.05-.59,2.29,2.29,0,0,0,0-.69.12.12,0,0,0-.12-.09h0c-.05,0-.11,0-.12.09v0c0,.15.21.22.24.06-.2.05-.28.16-.25.34l0,.27c0,.21,0,.75-.33.76l0,.24a.64.64,0,0,0,.52-.58,2.11,2.11,0,0,0,0-.56,3.72,3.72,0,0,1,.11-.88c0-.16-.22-.23-.24-.07Z" transform="translate(-810.33 -507.88)"/></g><g class="cls-14"><path class="cls-8" d="M859.16,527.46a2.77,2.77,0,0,1,.1.5s0,.92-.28.63l-.15.2c.23.17.46.19.63-.07s0-.88,0-1.27a.13.13,0,1,0-.25,0,3.28,3.28,0,0,0,0,.43c0,.07.15,1-.32.69-.12-.08-.25.1-.16.2a.36.36,0,0,0,.58,0c.28-.36.12-1,0-1.34,0-.16-.28-.09-.24.07Z" transform="translate(-810.33 -507.88)"/></g><g class="cls-14"><path class="cls-8" d="M842.37,533.26a.71.71,0,0,1-.6.13,2.17,2.17,0,0,1-.6-.22l-1.2-.6c.22.38.63.59.92.92a2.05,2.05,0,0,1,.45,1.22,5.92,5.92,0,0,1-.1,1.33c.33-.89.68-1.77,1.07-2.63" transform="translate(-810.33 -507.88)"/><path class="cls-8" d="M842.31,533.15c-.64.37-1.7-.4-2.28-.68-.1-.05-.24.06-.17.17.26.37.65.6.93.94a3,3,0,0,1,.33,2.43.12.12,0,0,0,.24.06c.33-.87.68-1.74,1.06-2.6.06-.14-.15-.27-.22-.12-.39.87-.75,1.76-1.08,2.66l.24.06a4,4,0,0,0-.07-2.15c-.26-.62-.85-.87-1.21-1.41l-.17.17c.71.35,1.72,1.15,2.53.69.14-.08,0-.3-.13-.22Z" transform="translate(-810.33 -507.88)"/></g><g class="cls-14"><path class="cls-8" d="M858.18,533.56a3.55,3.55,0,0,1,1.35-.46l3-.6c-.39.43-1,.44-1.58.66a2.06,2.06,0,0,0-.84.65,11.22,11.22,0,0,0-.9,2.3,2.93,2.93,0,0,0-.9-2.34s-.12,0-.11,0" transform="translate(-810.33 -507.88)"/><path class="cls-8" d="M858.24,533.66a14.94,14.94,0,0,1,4.31-1l-.12-.21c-.73.65-1.77.49-2.42,1.31a8.93,8.93,0,0,0-.93,2.36l.24,0c0-.77-.23-2.16-1.06-2.49a.11.11,0,0,0-.12,0l0,0c-.13.11,0,.28.17.18a5.9,5.9,0,0,1,.62,1,3,3,0,0,1,.18,1.22.13.13,0,0,0,.25,0c.38-1,.47-2.2,1.45-2.76.6-.35,1.3-.33,1.84-.81.1-.08,0-.23-.12-.2a15,15,0,0,0-4.37,1.07.12.12,0,1,0,.12.21Z" transform="translate(-810.33 -507.88)"/></g><path class="cls-5" d="M840.55,539.4a7.43,7.43,0,0,1-2.19.45,1.56,1.56,0,0,1-.93-.18.63.63,0,0,1-.24-.83l-1.25,2.32c-.38.7-.76,1.4-1.19,2.07a34.3,34.3,0,0,0-2,3.06,4.55,4.55,0,0,0-.42,3.54,10.13,10.13,0,0,0,1.51,2.24,8.24,8.24,0,0,1,1.34,2.86.68.68,0,0,0,.19.41.72.72,0,0,0,.54.08c2.84-.38,5.65-.89,8.44-1.51a20.54,20.54,0,0,1-.57-3.48c-.13-1.62-.12-3.38-1.11-4.66a12.92,12.92,0,0,0-2.21-1.88,3.05,3.05,0,0,1-1.32-2.46,2.47,2.47,0,0,1,1.44-1.85" transform="translate(-810.33 -507.88)"/><path class="cls-5" d="M840.49,539.16c-.42.13-3.2,1-3-.32,0-.25-.36-.34-.47-.13-1.36,2.53-3.19,4.89-4.45,7.45a4.59,4.59,0,0,0,.26,5c.33.49.74.91,1.06,1.41.42.68.57,1.92,1.08,2.47s-.09.46.92.66a9.81,9.81,0,0,0,3-.42c1.88-.31,3.74-.68,5.6-1.09a.25.25,0,0,0,.18-.31c-.52-2.3-.24-5.05-1.18-7.25-.84-2-6.36-4.52-2.7-6.8a.25.25,0,0,0-.26-.43c-2.49,1.55-1.44,3.65.46,5.19,2.62,2.12,2.35,4.29,2.78,7.26.29,2-.41,2.09-2.2,2.44a17.85,17.85,0,0,1-4.23.72c-1.43-.1-2-.86-2.58-2-.48-.91-1.46-1.72-1.84-2.65-1.28-3.19,1.31-5.48,2.75-8a19.63,19.63,0,0,1,1.36-2.82c.34-.2-.47.14.31.34a5.57,5.57,0,0,0,3.37-.21c.31-.09.18-.58-.13-.48Z" transform="translate(-810.33 -507.88)"/><path class="cls-15" d="M856.44,541a1.56,1.56,0,0,0,.58,1.81,3.28,3.28,0,0,0,2,.53,8,8,0,0,0,6.3-3.06c-.33,2.26,1.06,4.47.94,6.76,0,.86-.3,1.7-.39,2.55a6.78,6.78,0,0,0,.88,4.11,29.61,29.61,0,0,1-11.52,1.87c-.34,0-.74-.06-.9-.36a1.07,1.07,0,0,1,0-.77,11.18,11.18,0,0,0-.22-5.85,6.12,6.12,0,0,1-.52-2.61,4.81,4.81,0,0,1,.9-1.93l2-3.08" transform="translate(-810.33 -507.88)"/><path class="cls-15" d="M856.2,540.94c-.48,3,3.34,2.9,5.32,2.25a8.47,8.47,0,0,0,2.32-1.18,7.26,7.26,0,0,1,.61-.49c1.32-.71.13-.67.54-.1s.38,2.05.53,2.68a13.17,13.17,0,0,1,.13,5,8.32,8.32,0,0,0,0,2.23c.14.91.78,1.61.17,2.44-.48.64-3.09.88-3.93,1a19,19,0,0,1-4.86.53c-.65-.06-2.17-.11-2.48-.83a6.16,6.16,0,0,1,.22-1.32,11.43,11.43,0,0,0-.05-3c-.29-1.87-1.07-3.46-.42-5.43.4-1.22,1.7-2.59,2.41-3.68.18-.27-.25-.52-.43-.25-1.16,1.75-3.21,3.8-2.93,6.08.22,1.72,1,3.19,1,5,0,.85-.68,2.37-.31,3.16.59,1.25,2.77.77,3.89.71a30.91,30.91,0,0,0,8.87-1.86.25.25,0,0,0,.15-.37c-1.36-2.72-.2-4.93-.51-7.67-.22-1.92-1-3.65-.88-5.62a.26.26,0,0,0-.43-.18,8.35,8.35,0,0,1-2.75,2.22c-.89.43-6.18,2-5.66-1.25.05-.32-.43-.45-.48-.14Z" transform="translate(-810.33 -507.88)"/><path class="cls-5" d="M864.89,537a4.59,4.59,0,0,1,.5,2.57,5,5,0,0,0,0,2c.3.17.63-.16.81-.45a6.9,6.9,0,0,0,.63-1.35,1.45,1.45,0,0,0,.08-1,2.18,2.18,0,0,0-.71-.74,3.32,3.32,0,0,1-.91-1.23s0-.07,0-.09,0,0,0,0" transform="translate(-810.33 -507.88)"/><path class="cls-5" d="M864.68,537.13a4.91,4.91,0,0,1,.42,2.75,5.13,5.13,0,0,0,0,1.79.26.26,0,0,0,.18.17c1.05.19,1.56-1.29,1.79-2.1a1.45,1.45,0,0,0-.12-1.31c-.35-.52-1.48-1-1.45-1.71l-.38.22h0l-.09-.34v0c-.13.29.31.55.44.26v0a.26.26,0,0,0-.09-.34h0a.25.25,0,0,0-.38.21c0,.46.45,1,.75,1.28.47.48,1,.59.88,1.48a2.64,2.64,0,0,1-.54,1.28c-.07.33-.27.38-.59.18a6.25,6.25,0,0,1,.1-1,5.5,5.5,0,0,0,.07-1.07,5.58,5.58,0,0,0-.55-2c-.14-.29-.57,0-.43.26Z" transform="translate(-810.33 -507.88)"/><path class="cls-5" d="M856.83,536.67a11,11,0,0,1-.19,3.13.43.43,0,0,0,.4,0,10.44,10.44,0,0,0,.85-3.39c0-.06,0-.12,0-.16a.22.22,0,0,0-.12,0,.6.6,0,0,0-.59.35" transform="translate(-810.33 -507.88)"/><path class="cls-5" d="M856.58,536.67a11.6,11.6,0,0,1-.18,3.06.26.26,0,0,0,.18.31c.58.17.7-.12.89-.61a10.88,10.88,0,0,0,.59-2.31c.05-.34.22-.88-.13-1.09s-.8.12-1,.41.25.52.43.25c.31-.45.17.64.16.67,0,.24-.09.49-.15.73s-.36,1.56-.66,1.47l.18.31a12.26,12.26,0,0,0,.19-3.2c0-.31-.53-.32-.5,0Z" transform="translate(-810.33 -507.88)"/><path class="cls-16" d="M838.71,535.75l-2.26,1.16a5.86,5.86,0,0,0-1.31.81,5,5,0,0,0-1.23,2,15.89,15.89,0,0,0-1,5.58l5.62-9.31" transform="translate(-810.33 -507.88)"/><path class="cls-16" d="M838.59,535.54c-1.7.86-3.61,1.48-4.53,3.25a14.87,14.87,0,0,0-1.42,6.53.25.25,0,0,0,.47.12l5.62-9.31c.17-.27-.27-.52-.43-.25l-5.62,9.31.46.13a14.06,14.06,0,0,1,1.25-6c.94-1.84,2.71-2.44,4.45-3.32.29-.15,0-.58-.25-.43Z" transform="translate(-810.33 -507.88)"/><path class="cls-16" d="M832.33,550.83a32.48,32.48,0,0,0,1.61,9.79.47.47,0,0,0,.14.26.46.46,0,0,0,.33.09l.8,0c.08,0,.18,0,.23-.07a.25.25,0,0,0,0-.17l0-3a11.44,11.44,0,0,0-.21-2.48,11.1,11.1,0,0,0-.69-1.93,4.73,4.73,0,0,0-1.83-2.5.28.28,0,0,0-.23-.05c-.07,0-.09.16,0,.19" transform="translate(-810.33 -507.88)"/><path class="cls-16" d="M832.08,550.83a30.42,30.42,0,0,0,1.22,8.37c.37,1.4.44,2.48,2.21,2a.25.25,0,0,0,.18-.18,14.2,14.2,0,0,0-.52-6.75c-.42-1.19-1.14-3.41-2.61-3.68a.26.26,0,0,0-.28.12l-.07.09a.25.25,0,0,0,0,.25l0,.09c.15.29.58,0,.43-.25.85,1.61,1.88,2.62,2.31,4.48a12.29,12.29,0,0,1,.2,2.42,12.13,12.13,0,0,1,0,2.25l-1.24-.21-.39-1.49c-.19-.74-.37-1.49-.52-2.24a24.39,24.39,0,0,1-.49-5.25c0-.32-.49-.32-.5,0Z" transform="translate(-810.33 -507.88)"/><path class="cls-16" d="M844.46,540.88a1.08,1.08,0,0,0-.08,1,7.24,7.24,0,0,0,3.07,4.18c.35.22.75.47.8.88a1.16,1.16,0,0,1-.2.69,7.58,7.58,0,0,1-2.17,2c-.37.26-.86.53-1.25.29a56.14,56.14,0,0,0,2,10.25.54.54,0,0,0,.15.3.62.62,0,0,0,.26.09l2.51.38a9.81,9.81,0,0,0,5.08-.14.6.6,0,0,0,.34-.26.54.54,0,0,0-.06-.49c-.27-.53-.71-1-1-1.47-1-1.61-.38-3.65-.15-5.51a27.58,27.58,0,0,0-.26-6.54c-.34-2.87-.75-5.91-2.57-8.14-.51-.64-1.33-1.23-2.08-.91a2.43,2.43,0,0,0-.82.71,9.27,9.27,0,0,1-3.44,2.43" transform="translate(-810.33 -507.88)"/><path class="cls-16" d="M844.22,540.81c-.4,1.2.41,2.57,1.1,3.51.39.54,1,.93,1.36,1.44.7.91.78-.29.43,1.61a2.4,2.4,0,0,1-2.48,2.26.25.25,0,0,0-.25.25,45.15,45.15,0,0,0,1.09,6.63c.22,1,.36,3.46,1.17,4.12s2.87.54,3.78.64c1.48.17,3.41.41,4.69-.55.06-.05.14-.13.12-.22-.11-.89-.7-1.3-1.11-2.08-1-2-.16-4.25,0-6.32a32.65,32.65,0,0,0-1.08-10c-.44-1.63-1.36-4.42-3.25-4.91a1.59,1.59,0,0,0-1.51.34c-1.36.91-2.21,2.11-3.79,2.82-.29.13,0,.56.26.43a10.63,10.63,0,0,0,2.44-1.47,9.07,9.07,0,0,1,1-1,4.12,4.12,0,0,1,3.37,1.44c1.69,2.28,1.71,6.36,1.93,9.05s-.53,5.24-.35,7.86a4.81,4.81,0,0,0,.54,2c.44.81.83.63.39,1.53s-1.82.72-2.8.67c-.83,0-1.67-.22-2.49-.34s-1.41,0-1.91-.82c-.72-1.1-.87-3-1.14-4.26s-1.22-3.81-.63-5c.29-.55,1-.74,1.5-1.13s2.12-1.59,1.87-2.57c-.14-.56-.53-.67-.91-1-1.18-1.08-3.51-2.92-2.87-4.85.1-.3-.38-.44-.48-.13Z" transform="translate(-810.33 -507.88)"/><path class="cls-17" d="M857.61,536c-.89-.34-1.67-.92-2.56-1.24a2.44,2.44,0,0,0-2.65.42,2.66,2.66,0,0,0-.5,1.76c0,2.6,1.45,5,1.69,7.58a15.71,15.71,0,0,1,2.17-2.84,8,8,0,0,0,1.11-1.29,6.21,6.21,0,0,0,.56-3.53" transform="translate(-810.33 -507.88)"/><path class="cls-17" d="M857.74,535.74c-1.54-.67-4-2.52-5.56-.72-1.9,2.27.85,7,1.16,9.46a.25.25,0,0,0,.47.13c.89-1.45,2.17-2.53,3.11-3.9a6.24,6.24,0,0,0,.76-3.89.25.25,0,0,0-.5,0,6,6,0,0,1-1.8,4.86,16.83,16.83,0,0,0-2,2.68l.46.12a43.36,43.36,0,0,0-1.31-5.1,7,7,0,0,1-.35-1.84l0-.64,2-2.12c1-.2,2.46,1,3.39,1.4.29.12.55-.31.25-.44Z" transform="translate(-810.33 -507.88)"/><path class="cls-17" d="M866.27,539.6a2.2,2.2,0,0,0-.77,1.92,9,9,0,0,0,.48,2.1,14.46,14.46,0,0,1,.46,5.48,9.48,9.48,0,0,0-.13,2.43,10.75,10.75,0,0,0,.74,2.13c.85,2.18,1,4.63,2.07,6.7,2.29-.68,4.74-.21,7.13-.18.14,0,.31,0,.36-.14a.37.37,0,0,0,0-.21l-.46-3a35.75,35.75,0,0,0-.66-3.55c-.55-2.12-1.49-4.23-1.32-6.42a14.53,14.53,0,0,0,.16-2,5.56,5.56,0,0,0-1.73-3.26,15.17,15.17,0,0,0-7.33-4.27" transform="translate(-810.33 -507.88)"/><path class="cls-17" d="M866.09,539.42a3.1,3.1,0,0,0-.74,2.88c.22,1.38.75,2.6.87,4a25.07,25.07,0,0,1-.13,3.57c-.11,2,.66,3.41,1.2,5.3a34.59,34.59,0,0,0,1.61,5.28.26.26,0,0,0,.28.12,16.25,16.25,0,0,1,4.82-.29,6.53,6.53,0,0,0,2.68,0,.25.25,0,0,0,.18-.24,25.93,25.93,0,0,0-1.12-6.8c-.34-1.34-.85-2.64-1.12-4-.31-1.56.09-2.86,0-4.37-.34-4.1-5.82-6.8-9.23-7.74a.25.25,0,0,0-.13.48,15.33,15.33,0,0,1,6.66,3.66,5.72,5.72,0,0,1,2.2,4.29c0,.71-.19,1.41-.17,2.13.06,2,.87,3.8,1.35,5.67.34,1.38,1.57,5.17.55,6.16-.75.73-2.19.24-3.17.23a14.21,14.21,0,0,1-2.72.16c-1.89-.69-1.93-4.35-2.5-6a10,10,0,0,1-.9-3.24c0-1.15.27-2.3.25-3.46,0-2.06-1.84-5.77-.32-7.48.21-.24-.14-.6-.36-.36Z" transform="translate(-810.33 -507.88)"/><path class="cls-18" d="M866.74,554.08a51.1,51.1,0,0,0,2.15,6.47,1.26,1.26,0,0,1-1.06.34H856a.76.76,0,0,1-.34,0,.72.72,0,0,1-.29-.41,30.71,30.71,0,0,1-1.62-5.31c1,.91,2.48.93,3.82.83a43.76,43.76,0,0,0,9.14-1.66" transform="translate(-810.33 -507.88)"/><path class="cls-18" d="M866.5,554.15c.4,1.51.85,3,1.38,4.47.91,2.52-1.09,2-3,2h-4.93c-2.32,0-4.3.13-5.13-2.45-.12-.39-.77-1.94-.63-2.23.24-.5-.65.22.59,0,.79-.12,1.93.26,2.79.21a43.76,43.76,0,0,0,9.21-1.66.26.26,0,0,0-.14-.49,45.39,45.39,0,0,1-6.33,1.35c-2.06.28-4.62.8-6.44-.49-.19-.14-.41.09-.37.28.33,1.44.64,4.25,1.65,5.37.71.79,1.13.58,2.33.58h6.91c1.46,0,3.34.42,4.63-.38a.25.25,0,0,0,.12-.28A56.87,56.87,0,0,1,867,554a.25.25,0,0,0-.48.13Z" transform="translate(-810.33 -507.88)"/><path class="cls-19" d="M835.61,555.76a16.26,16.26,0,0,1,.19,5.39,21.31,21.31,0,0,0,10.89-.68c-1.3-1.73-1.18-4.1-1.85-6.15a.64.64,0,0,0-.15-.28c-.19-.19-.52-.09-.77,0a20.71,20.71,0,0,1-6.28,1.53,6.13,6.13,0,0,0-1.91.33" transform="translate(-810.33 -507.88)"/><path class="cls-19" d="M835.36,555.83a17.92,17.92,0,0,1,.19,5.32.26.26,0,0,0,.18.24,22.62,22.62,0,0,0,11-.68.25.25,0,0,0,.15-.37c-1-1.5-1.12-3.13-1.5-4.83-.15-.67-.16-1.47-.82-1.76-.82-.37-2.59.75-3.42,1-1.81.48-3.72.4-5.49.95-.31.1-.18.58.13.48a24.15,24.15,0,0,1,3.51-.52c1.29-.21,2.66-.94,3.92-1,.87-.07,1.11-.46,1.62.74a8.83,8.83,0,0,1,.32,1.61c.16.86.51,1.7.68,2.55.09.49.39.51,0,1a8.58,8.58,0,0,1-2.3.53,20.87,20.87,0,0,1-4.25.3c-.59,0-2.21.11-2.68-.25-.7-.54-.46-1.09-.46-1.83a18.09,18.09,0,0,0-.33-3.52c-.06-.32-.54-.18-.49.13Z" transform="translate(-810.33 -507.88)"/></svg>