<svg id="Calque_1" data-name="Calque 1" xmlns="http://www.w3.org/2000/svg" viewBox="0 0 90.58 119.46"><defs><style>.cls-1{fill:#fff;}.cls-2{fill:#1d1d1b;}.cls-3{fill:#ffed00;}.cls-4{fill:#29235c;}</style></defs><title>08</title><path class="cls-1" d="M808.86,482.14l0,117.19c29.92.7,59.08,1.46,88.86-1.45,2.32-39.57-1-75.34.22-115C898,481.42,829.16,480.43,808.86,482.14Z" transform="translate(-808.38 -480.87)"/><path class="cls-2" d="M808.48,482.14l0,86.79v30.4a.37.37,0,0,0,.37.37c29.63.7,59.32,1.41,88.86-1.45a.38.38,0,0,0,.37-.37c1.2-20.71.87-41.44.42-62.17-.22-10.29-.44-20.57-.48-30.86,0-5.34,0-10.68.13-16,0-1.15,0-2.3.08-3.45,0-.56.36-2.06.06-2.58a1.09,1.09,0,0,0-.38-.36c-1.16-.88-4.4-.56-5.74-.64-4.27-.26-8.54-.4-12.82-.51-12-.34-24.06-.46-36.1-.43-11.46,0-23-.05-34.44.9-.48,0-.49.79,0,.75,9.53-.79,19.15-.81,28.72-.88q17.91-.12,35.84.26c7.61.16,15.52-.06,23.08,1,.2,0,.8,0,1,.16.54.51.07,2.37,0,3.3q-.19,7.78-.19,15.58c0,10,.19,20,.4,30,.43,20,.88,40,0,60-.05,1.15-.11,2.29-.17,3.44-.1,1.87-.35,2.16-2.21,2.33-2.61.23-5.22.45-7.84.63q-7.54.54-15.12.82c-10.37.39-20.75.46-31.13.37-10.09-.08-20.27,0-30.34-.56-1.37-.07-1.6.12-1.6-1.19V541.53c0-19.46.1-38.93,0-58.4v-1A.38.38,0,0,0,808.48,482.14Z" transform="translate(-808.38 -480.87)"/><path class="cls-3" d="M809.54,492.37l29.56-1.45c19.06-.94,38.31-1.86,57.11,1.4a2.15,2.15,0,0,1,1,.38,2.2,2.2,0,0,1,.48,1.91c-.78,12.2.18,24.24,0,36.64-.1,5.35.8,10.68.82,16,0,4.64-.8,9.27-.55,13.91.55,10.42-.2,19-.27,29.61q-33.57,1.58-67.18,1.57c-6.71,0-13.46,0-20-1.32a1.48,1.48,0,0,1-1-.46,1.51,1.51,0,0,1-.18-.86l0-6L809.17,537l-.12-41.05a17.7,17.7,0,0,1,.49-3.53" transform="translate(-808.38 -480.87)"/><path class="cls-3" d="M809.54,492.87c12.28-.61,24.55-1.25,36.83-1.8,12-.54,24-.88,35.9,0q4.56.34,9.08,1c1.06.14,3.82.07,4.73.73,1.72,1.26,1,3.85,1,5.66-.22,6.08-.09,12.16,0,18.24.12,5.79-.07,11.6.13,17.38.21,6,1,11.84.6,17.83-.38,5.57-.19,11-.16,16.58s-.24,11.12-.38,16.69a20.07,20.07,0,0,1-.08,4.18c-.39,1.49-2.07,1.06-3.46,1.12-3.13.14-6.25.26-9.38.38q-9.14.35-18.27.57-18.27.45-36.54.44c-2.88,0-5.75,0-8.63-.16-1.44-.07-2.87-.17-4.3-.3s-4.68,0-6-.85-.78-2.57-.78-3.82v-5l0-9-.12-41.72,0-20.53,0-9.78a35.29,35.29,0,0,1,.45-8.28c.15-.63-.82-.89-1-.27-1.16,4.92-.48,10.38-.46,15.4l0,19.06.11,39.14.06,19.42c0,1.38-.64,4.48.34,5.69s4.52,1.15,6,1.32c12.68,1.45,25.81.63,38.54.42q22-.34,44-1.38a.52.52,0,0,0,.5-.5c0-6,.33-11.95.44-17.93s-.44-12.13,0-18.17a134.06,134.06,0,0,0-.26-18.26c-.41-6.23-.12-12.53-.24-18.77-.13-6.41-.29-12.81-.06-19.21.06-1.55.93-4.8-.39-6.06s-4.49-1.09-6.24-1.32c-12.51-1.71-25.16-1.74-37.76-1.31-14.71.51-29.42,1.37-44.12,2.1-.64,0-.65,1,0,1Z" transform="translate(-808.38 -480.87)"/><path class="cls-4" d="M868.9,492.41a7.47,7.47,0,0,0-6.62.29,22,22,0,0,0-5.38,4.24,20.23,20.23,0,0,0-4.43,5.47c-1.15,2.41-1.28,5.16-1.37,7.83-.3,9-.29,18-.28,27a1.49,1.49,0,0,0,.46,1.32,1.42,1.42,0,0,0,.87.12l8.18-.5a18.87,18.87,0,0,1-3.89-22.35,16.21,16.21,0,0,0,1.92-4.06,21.71,21.71,0,0,0,0-4.63c0-1.56.42-3.28,1.74-4.09.74-.45,1.71-.6,2.17-1.33.62-1-.17-2.39.32-3.46a3.2,3.2,0,0,1,1.57-1.34l3.23-1.7a4.44,4.44,0,0,0,2-1.54c.42-.72.33-.92-.44-1.26" transform="translate(-808.38 -480.87)"/><path class="cls-4" d="M869.15,492c-5.24-2.27-9.65,1.68-13.17,5.16a17,17,0,0,0-4.34,5.95c-1.12,3-1,6.39-1.11,9.56-.2,7.23-.21,14.46-.21,21.69,0,1.21-.6,3.94.83,4.69,1,.52,2.67,0,3.73,0l5.45-.33a.51.51,0,0,0,.35-.86,18.53,18.53,0,0,1-5.82-14,17.47,17.47,0,0,1,1.85-7.44c1-2,2.19-3.65,2.28-6,0-1.31-.23-2.62-.11-3.93a4.08,4.08,0,0,1,1.56-3c.51-.38,1.16-.49,1.65-.89a2.36,2.36,0,0,0,.89-1.39,9.45,9.45,0,0,0,0-1.19,3.73,3.73,0,0,1,1.43-2.67c.77-.64,8.28-3.5,4.74-5.36-.57-.3-1.07.56-.5.86,1.23.65-2.72,2.58-3.13,2.79a10.51,10.51,0,0,0-2.89,1.71,2.49,2.49,0,0,0-.7,1.58c-.15,1,.17,1.3-.41,2.29s-.87.85-1.67,1.39a4.94,4.94,0,0,0-2,3.85c-.15,1.73.36,3.46,0,5.18a15.62,15.62,0,0,1-1.88,3.93,19.47,19.47,0,0,0,4,23l.35-.85c-2.33.14-5,.67-7.27.45-.77-.08-1.36.06-1.74-.89a6.86,6.86,0,0,1,0-1.92v-3.86c0-5.31,0-10.61.14-15.91s-.37-11.28,3.33-15.69c3.15-3.77,8.48-9.34,13.86-7,.58.25,1.09-.61.5-.86Z" transform="translate(-808.38 -480.87)"/><path class="cls-4" d="M876.14,491.06c-.78,1-1.62,2.22-1.24,3.43.57,1.85,3.25,1.88,4.62,3.25,1.1,1.11,1.15,2.89.83,4.42a19.25,19.25,0,0,0-.86,4.59c.1,2.36,1.72,4.46,1.85,6.82,0,.53,0,1.07,0,1.6a8.47,8.47,0,0,0,.73,2.39l2.3,5.57c.91,2.19,1.82,4.69.83,6.84-1.68,3.67-7.45,3.58-9.54,7a26.26,26.26,0,0,0,7.6.46,8.84,8.84,0,0,0,6.4-3.72,9,9,0,0,0,.46-7.59,32.44,32.44,0,0,0-3.8-6.86,1.94,1.94,0,0,1-.46-1.5c.21-.77,1.22-1,1.7-1.64.69-.93,0-2.24-.75-3.1s-1.72-1.8-1.59-2.94c.06-.59.41-1.11.5-1.69.21-1.42-1.15-2.59-1.38-4s.69-2.73.85-4.15c.25-2.26-1.48-4.28-3.36-5.57s-4.06-2.22-5.55-3.95" transform="translate(-808.38 -480.87)"/><path class="cls-4" d="M875.71,490.81c-.94,1.25-2,2.89-1,4.43s3.25,1.53,4.47,2.85c2.08,2.26-.13,5.7-.17,8.27s1.66,5,1.85,7.61a21.82,21.82,0,0,0,2.09,6.91c1.11,2.68,3.34,6.5,1.6,9.34-2,3.33-7,3.24-9.28,6.53a.51.51,0,0,0,.3.74c5.12.8,12.31,1.43,15-4.24a10.24,10.24,0,0,0-.2-8,25.07,25.07,0,0,0-2.11-4c-.36-.57-1.39-1.59-1.43-2.2-.08-1.08.76-1.76,1.16-2.54,1-1.84-.22-2.84-1.21-4.33-1.69-2.5-.18-2.53-.51-4.57-.3-1.85-1.53-3-1.08-5.13.49-2.38.93-3.88-.67-6-2-2.7-5.51-3.65-7.81-6.06-.44-.47-1.15.24-.7.71,1.55,1.62,3.49,2.56,5.33,3.81s3.32,2.71,3.33,5c0,1.32-.66,2.41-.76,3.7a4,4,0,0,0,.28,1.78,11.48,11.48,0,0,1,.81,2.4c.19,1.28-.08,1.13-.18,2.21a3,3,0,0,0,.31,1.61,5,5,0,0,0,.48.75c.81,1.15.94.82.88,2.62-.08,2.34-.46,1-1,2.59a2.24,2.24,0,0,0,.06,1.28,17,17,0,0,0,2.06,3.3,19.64,19.64,0,0,1,2.2,4.54c1.06,3.52.3,7.29-3.1,9.19s-7.31,1.23-10.86.67l.3.74c2.24-3.27,7.21-3.1,9.27-6.54,2.42-4-1.34-9.56-2.81-13.29-1-2.49-.91-5.2-1.85-7.77a8.84,8.84,0,0,1-.48-5.08c.21-1,.57-2,.69-3a4.83,4.83,0,0,0-1.3-4.36,9.51,9.51,0,0,0-2.21-1.22c-.41-.2-1.38-.49-1.62-.93-.67-1.24,0-2.76.75-3.74.39-.51-.48-1-.86-.5Z" transform="translate(-808.38 -480.87)"/><path class="cls-4" d="M870.77,497.09a7.56,7.56,0,0,0-5,6.42c-.12,2.88,2.17,5.79,5,5.94a5.92,5.92,0,0,0,3.8-1.26,6.73,6.73,0,0,0,2.5-7.16,5.53,5.53,0,0,0-6.33-3.71" transform="translate(-808.38 -480.87)"/><path class="cls-4" d="M870.52,496.66c-3.21,1.35-5.93,4.63-5.15,8.31a5.92,5.92,0,0,0,7.55,4.65,7.32,7.32,0,0,0,4.82-8,6.08,6.08,0,0,0-7.11-4.78c-.63.12-.37,1.08.26,1,7.47-1.33,7.67,10.47.64,11.07a5.07,5.07,0,0,1-5.29-5.36c.12-2.85,2.32-4.95,4.78-6,.59-.25.08-1.11-.5-.86Z" transform="translate(-808.38 -480.87)"/><path class="cls-4" d="M863.52,516.26a7.94,7.94,0,0,0-5.7,3.09,5.92,5.92,0,0,0-.42,6.3c1.61,2.68,5.74,3.22,8.19,1.28a6.84,6.84,0,0,0,1.43-8.49c-.79-1.38-2.41-2.56-3.88-2" transform="translate(-808.38 -480.87)"/><path class="cls-4" d="M863.52,515.76c-3.51.46-6.85,2.63-7.29,6.4a5.7,5.7,0,0,0,5.73,6.42,6.34,6.34,0,0,0,6.37-5.9c.34-3-1.58-7.66-5.32-6.68a.5.5,0,0,0,.27,1c3.72-1,4.55,4.64,3.76,7a5.19,5.19,0,0,1-5.79,3.54,4.69,4.69,0,0,1-3.93-5.82c.66-2.93,3.4-4.56,6.2-4.93.63-.09.63-1.09,0-1Z" transform="translate(-808.38 -480.87)"/><path class="cls-4" d="M875.35,517.67a5.52,5.52,0,1,0,4.08,10,4.94,4.94,0,0,0,1.65-1.81,5.24,5.24,0,0,0,.58-2.52,6.3,6.3,0,0,0-7.18-5.83" transform="translate(-808.38 -480.87)"/><path class="cls-4" d="M875.22,517.18a6.37,6.37,0,0,0-4.78,7c.5,3.09,3.66,5.07,6.68,4.79a5.6,5.6,0,0,0,4.81-7.13,6.9,6.9,0,0,0-7.58-4.84c-.64.09-.37,1.06.26,1a5.91,5.91,0,0,1,6.29,3.87,4.64,4.64,0,0,1-4.61,6.15c-6-.28-6.42-8.53-.81-9.87.63-.15.36-1.12-.26-1Z" transform="translate(-808.38 -480.87)"/><path class="cls-4" d="M867.65,527.24c.49,1.33-.37,2.78-1.37,3.79s-2.2,2-2.61,3.32,0,2.67.27,4a8,8,0,0,1-.77,5.83c-1,1.62-2.92,2.61-3.85,4.3a9.63,9.63,0,0,0-.7,5.2,3.57,3.57,0,0,0,.4,1.77,4,4,0,0,0,1.61,1.24,19.43,19.43,0,0,1,8.28,8.91c.35-3.27.73-6.65,2.35-9.51,1.42-2.49,3.82-5,3-7.74a18.66,18.66,0,0,0-1.85-3.24c-1.76-3.35-.15-7.44-.66-11.18a10,10,0,0,0-4.17-6.8" transform="translate(-808.38 -480.87)"/><path class="cls-4" d="M867.16,527.37c.6,2.83-2.6,4-3.66,6.08-.71,1.41-.43,2.74-.2,4.22.49,3.15.44,5.39-1.91,7.77a10.62,10.62,0,0,0-2.84,3.52c-.79,2-1.09,5.8.66,7.42s3.78,2.29,5.39,3.89a20,20,0,0,1,3.88,5.57c.24.5.88.19.93-.25a34.34,34.34,0,0,1,1.08-6.37,24.28,24.28,0,0,1,2.94-5.62c1.77-2.93,1.86-4.92,0-7.8-2.42-3.79-.6-7.83-1.19-11.95a10.75,10.75,0,0,0-4.41-7.16c-.51-.39-1,.48-.5.86,3.51,2.64,4.19,6.31,3.9,10.46-.2,3-.34,5.67,1.34,8.3,1.47,2.3,1.6,4,.18,6.44a47.3,47.3,0,0,0-2.49,4.17,28.26,28.26,0,0,0-1.87,8.67l.93-.25a20.37,20.37,0,0,0-6.49-7.85,28.43,28.43,0,0,1-2.57-1.58c-1.29-1.17-1.3-3-1.19-4.54.2-2.91,2-4,3.76-6,2.35-2.66,1.64-5.51,1.29-8.7-.33-3,1.5-3.86,3.05-5.92a4.18,4.18,0,0,0,.94-3.65c-.13-.63-1.1-.36-1,.27Z" transform="translate(-808.38 -480.87)"/><path class="cls-4" d="M865.11,566.82c-1.55-3-4-5.45-6.21-8a119.77,119.77,0,0,1-7.93-9.76c-3.17-4.34-6.14-9-10.52-12.1s-10.66-4.3-15.05-1.2c-4,2.86-5.23,8.27-5.75,13.2a104.37,104.37,0,0,0-.36,17.41c3.67.08,6.66-2.95,8.61-6.06a33,33,0,0,0,4.77-13.26c3.35,1.71,4.69,5.72,7.2,8.51a22.59,22.59,0,0,0,6,4.35,119.55,119.55,0,0,0,18.62,8.27" transform="translate(-808.38 -480.87)"/><path class="cls-4" d="M865.55,566.56c-2-3.55-4.84-6.36-7.49-9.39-2.88-3.28-5.53-6.74-8.08-10.28-4-5.63-8.58-11.76-15.83-13.13-17.29-3.26-16,22.17-15.36,32.66a.5.5,0,0,0,.5.5c8.82-.29,12.83-12.6,13.86-19.69l-.73.3c2.89,1.66,4.21,4.67,6.13,7.24a20.15,20.15,0,0,0,6.37,5.22,117.05,117.05,0,0,0,19.46,8.72c.61.21.87-.75.26-1a111.48,111.48,0,0,1-19.94-9,20.37,20.37,0,0,1-6.9-6.82,14.93,14.93,0,0,0-4.88-5.23.5.5,0,0,0-.73.3,32.75,32.75,0,0,1-5.12,13.77,13,13,0,0,1-4.6,4.41,6.82,6.82,0,0,1-1.88.67c-.86-.06-1.16-.5-.91-1.33a15.15,15.15,0,0,1-.09-3.87,80.78,80.78,0,0,1,.93-14.32c.68-4,2.09-8.26,5.74-10.45,8.73-5.21,17.28,3.85,21.91,10.24,2.41,3.31,4.8,6.61,7.43,9.75,3.08,3.68,6.75,7,9.08,11.24.31.56,1.18.06.87-.51Z" transform="translate(-808.38 -480.87)"/><path class="cls-4" d="M876.7,553.53a5.12,5.12,0,0,0,3,9.52c.05,1.47-1.55,2.37-2.88,3a41.71,41.71,0,0,0-15.44,12.56,63.38,63.38,0,0,0,19.39-3.39,22.06,22.06,0,0,0,8.08-4.35,9.7,9.7,0,0,0,3.32-8.25c-.48-3.17-3-5.74-5.9-7.13a29.53,29.53,0,0,0-9.32-2.2" transform="translate(-808.38 -480.87)"/><path class="cls-4" d="M876.45,553.1a5.86,5.86,0,0,0-2.53,6.5,5.62,5.62,0,0,0,2.26,3,5.73,5.73,0,0,0,1.33.67c.92.32,1.88-.14,1.1,1.06s-3.57,2-4.94,2.8a42.36,42.36,0,0,0-4.78,3.2,43.5,43.5,0,0,0-8,8.06.5.5,0,0,0,.43.75,65.41,65.41,0,0,0,17.73-2.83c4.55-1.4,9.54-3.3,12.14-7.55a8.84,8.84,0,0,0-.78-10.69c-3.38-3.89-8.68-4.64-13.52-5.25-.63-.09-.63.92,0,1,4.43.55,9.38,1.21,12.57,4.68,3.67,4,2.24,9.39-1.65,12.6-3.5,2.88-8.33,4.2-12.65,5.25a64.65,64.65,0,0,1-13.84,1.79l.43.75a42,42,0,0,1,11-10.07c2.36-1.47,7-2.54,7.36-5.74a.51.51,0,0,0-.5-.5A4.66,4.66,0,0,1,877,554c.53-.36,0-1.23-.5-.86Z" transform="translate(-808.38 -480.87)"/><path class="cls-4" d="M825.22,578a2.26,2.26,0,0,0-2.47.54c-.53.59-.73,1.43-1.32,2a4.73,4.73,0,0,1-1.72.78,8.32,8.32,0,0,0-5,4.79,2.31,2.31,0,0,0,.11,2.35,2.37,2.37,0,0,0,1.46.6,12.72,12.72,0,0,0,7.82-1.36c1.95-1,3.72-2.78,4-5s-1.48-4.67-3.68-4.47" transform="translate(-808.38 -480.87)"/><path class="cls-4" d="M825.36,577.5c-1.59-.38-2.36.14-3.39,1.25a10.56,10.56,0,0,1-3.5,2.48,8.84,8.84,0,0,0-2.39,1.77c-1.87,2-3.56,5.8.19,6.49,4,.74,9.35-.93,11.53-4.55,1.77-2.93.35-7.16-3.37-7.26a.5.5,0,0,0,0,1,3.53,3.53,0,0,1,3,4.55,6.85,6.85,0,0,1-3.31,3.79,11.67,11.67,0,0,1-3.61,1.35c-.85.17-3.92.72-4.68,0s-.43-2.69-.1-3.39a6,6,0,0,1,1.27-1.57,10.46,10.46,0,0,1,3.41-1.92c1.47-.64,3-3.46,4.64-3.06.63.15.89-.82.27-1Z" transform="translate(-808.38 -480.87)"/><path class="cls-4" d="M823.35,499.61c-.42-1.74-2.82-1.87-4.34-2.81a26.31,26.31,0,0,1-2.06-1.74,2.52,2.52,0,0,0-2.52-.52,2.6,2.6,0,0,0-1.18,1.56,6.17,6.17,0,0,0,8.37,7.6,3.38,3.38,0,0,0,2-2,1.82,1.82,0,0,0-1.13-2.29" transform="translate(-808.38 -480.87)"/><path class="cls-4" d="M823.83,499.48c-.5-1.36-1.54-1.82-2.82-2.34a11.81,11.81,0,0,1-3.19-2,5.15,5.15,0,0,0-2-1.16c-3.44-.82-3.79,4.16-3,6.34a6.71,6.71,0,0,0,7.79,4.23c1.38-.31,3-1.19,3.43-2.68a2.37,2.37,0,0,0-1.35-2.85c-.59-.25-1.1.61-.51.86q1.77,2-.32,3.12a5,5,0,0,1-1.52.59,5.81,5.81,0,0,1-3.25-.23,5.67,5.67,0,0,1-3.66-5.51c.06-2,1.85-3.49,3.66-2a15.36,15.36,0,0,0,1.64,1.38c1.31.8,3.52.88,4.12,2.51.22.6,1.18.35,1-.26Z" transform="translate(-808.38 -480.87)"/><path class="cls-2" d="M808.48,482.14l0,86.79v30.4a.37.37,0,0,0,.37.37c29.63.7,59.32,1.41,88.86-1.45a.38.38,0,0,0,.37-.37c1.2-20.71.87-41.44.42-62.17-.22-10.29-.44-20.57-.48-30.86,0-5.34,0-10.68.13-16,0-1.15,0-2.3.08-3.45,0-.56.36-2.06.06-2.58a1.09,1.09,0,0,0-.38-.36c-1.16-.88-4.4-.56-5.74-.64-4.27-.26-8.54-.4-12.82-.51-12-.34-24.06-.46-36.1-.43-11.46,0-23-.05-34.44.9-.48,0-.49.79,0,.75,9.53-.79,19.15-.81,28.72-.88q17.91-.12,35.84.26c7.61.16,15.52-.06,23.08,1,.2,0,.8,0,1,.16.54.51.07,2.37,0,3.3q-.19,7.78-.19,15.58c0,10,.19,20,.4,30,.43,20,.88,40,0,60-.05,1.15-.11,2.29-.17,3.44-.1,1.87-.35,2.16-2.21,2.33-2.61.23-5.22.45-7.84.63q-7.54.54-15.12.82c-10.37.39-20.75.46-31.13.37-10.09-.08-20.27,0-30.34-.56-1.37-.07-1.6.12-1.6-1.19V541.53c0-19.46.1-38.93,0-58.4v-1A.38.38,0,0,0,808.48,482.14Z" transform="translate(-808.38 -480.87)"/></svg>