<svg id="Calque_1" data-name="Calque 1" xmlns="http://www.w3.org/2000/svg" viewBox="0 0 93.99 146.37"><defs><style>.cls-1{fill:#91cddc;}.cls-2{fill:#fff;}.cls-3{fill:#ffce2f;}.cls-4{fill:#00b7e6;}.cls-5{fill:#1d1d1b;}.cls-6{fill:#3c3c3b;}.cls-7{opacity:0.47;}</style></defs><title>10</title><path class="cls-1" d="M851.25,474.62A14.2,14.2,0,0,0,843.9,477a44,44,0,0,0-12,10.33c-5.39,6.67-8.73,14.78-11.17,23A130.15,130.15,0,0,0,817.23,569a34.55,34.55,0,0,0,3,10.24c2,3.87,5.22,6.95,8.37,10l10.83,10.34a27.5,27.5,0,0,0,5.08,4.13,22,22,0,0,0,7.22,2.34,28,28,0,0,0,11.45,0c5-1.21,9.27-4.41,12.65-8.25s5.94-8.31,8.47-12.75A115.83,115.83,0,0,0,892,570c3.4-8.7,4.65-18.1,5.16-27.43.46-8.4.3-17-2.45-24.94-2.53-7.3-7.12-13.69-10.55-20.61-1.85-3.74-3.38-7.68-5.79-11.09-6.32-9-18-13-29-12.25" transform="translate(-807.65 -467.51)"/><path class="cls-1" d="M851.25,474.12c-5.11.15-9.72,3.5-13.53,6.65a46.64,46.64,0,0,0-10.57,12.7c-5.79,10.07-8.81,21.86-10.62,33.25a130.73,130.73,0,0,0-.5,37.58c.71,5.37,1.44,11.09,4.18,15.86s7,8.38,10.95,12.1l7.22,6.89a31.82,31.82,0,0,0,5.9,4.9c4.5,2.59,10.76,3.37,15.87,2.92,11.16-1,18.07-10.45,23.25-19.38a144.68,144.68,0,0,0,8.33-15.77,72.56,72.56,0,0,0,4.88-18.44c1.58-11.38,2.41-24-1.17-35.07-2-6.15-5.45-11.64-8.58-17.25s-5.1-11.75-9.05-16.69c-6.73-8.42-18-11.85-28.46-11.23-.64,0-.64,1,0,1,9.28-.55,19.12,2.07,25.82,8.78,3.82,3.82,5.82,8.73,8.13,13.51s5.23,9.35,7.71,14.1c5.33,10.25,6.23,21.09,5.58,32.46-.66,11.72-2.79,23-8.17,33.53-2.52,4.91-5.26,9.78-8.21,14.43s-6.54,9.19-11.36,12.11c-5.22,3.16-11.08,3.46-17,2.42a20.82,20.82,0,0,1-7.44-2.51c-2.55-1.56-4.65-3.85-6.8-5.9-4.07-3.88-8.3-7.65-12.17-11.73A27.71,27.71,0,0,1,818.12,571a124.51,124.51,0,0,1-1.78-34.36c1-12.53,3.67-25.4,8.78-36.94a51.32,51.32,0,0,1,9.63-14.82c4.12-4.28,10.27-9.59,16.5-9.77a.5.5,0,0,0,0-1Z" transform="translate(-807.65 -467.51)"/><path class="cls-2" d="M841.93,512a5.58,5.58,0,0,1,2.24-3.16,19.36,19.36,0,0,1,14.16-4.51,15,15,0,0,1,11.95,8.35,1.09,1.09,0,0,1,.13.7,1.07,1.07,0,0,1-.34.5,21,21,0,0,1-14.69,6.45c-5.49-.06-11-3.08-13.42-8" transform="translate(-807.65 -467.51)"/><path class="cls-3" d="M842.41,512.11c.88-3,4.7-5,7.42-6.09a18,18,0,0,1,7.7-1.29,15,15,0,0,1,7.33,2.45c1.73,1.14,5.93,4.4,4.29,6.86-1.25,1.88-4.35,3.32-6.38,4.2a18.12,18.12,0,0,1-7.75,1.55A14.74,14.74,0,0,1,842.39,512c-.3-.57-1.16-.06-.86.51a15.84,15.84,0,0,0,14.63,8.26,20.17,20.17,0,0,0,9.17-2.7c1.53-.87,5.4-3,5.56-4.87.21-2.33-3.26-5.31-4.93-6.5a16.22,16.22,0,0,0-8.43-3,19.19,19.19,0,0,0-9.56,2c-2.58,1.27-5.67,3.17-6.52,6.08a.5.5,0,0,0,1,.27Z" transform="translate(-807.65 -467.51)"/><path class="cls-3" d="M843.32,509.6l-2.26-1.46c-.54-.35-1,.52-.5.87l2.26,1.45c.54.35,1-.51.5-.86Z" transform="translate(-807.65 -467.51)"/><path class="cls-3" d="M845.15,507.45q-.82-.69-1.59-1.44c-.46-.45-1.17.26-.71.71s1,1,1.6,1.44,1.2-.3.7-.71Z" transform="translate(-807.65 -467.51)"/><path class="cls-3" d="M847.67,506a20.26,20.26,0,0,1-1.41-1.66c-.38-.52-1.24,0-.86.5a19.81,19.81,0,0,0,1.56,1.87c.44.47,1.15-.24.71-.71Z" transform="translate(-807.65 -467.51)"/><path class="cls-3" d="M850.33,504.76l-1-2.12c-.27-.58-1.13-.08-.86.5l1,2.13c.27.58,1.14.07.86-.51Z" transform="translate(-807.65 -467.51)"/><path class="cls-3" d="M852.81,503.93a4.63,4.63,0,0,1-.52-2.37c0-.64-1-.64-1,0a5.62,5.62,0,0,0,.66,2.87c.29.57,1.16.07.86-.5Z" transform="translate(-807.65 -467.51)"/><path class="cls-3" d="M855.56,503.76a17.85,17.85,0,0,1-.36-2.19c-.07-.63-1.07-.64-1,0a20.31,20.31,0,0,0,.39,2.46c.14.62,1.11.36,1-.27Z" transform="translate(-807.65 -467.51)"/><path class="cls-3" d="M858.48,504l.26-2.42c.07-.64-.94-.64-1,0l-.26,2.42c-.07.64.93.63,1,0Z" transform="translate(-807.65 -467.51)"/><path class="cls-3" d="M861.1,504.32a8.48,8.48,0,0,1,.64-2c.27-.58-.59-1.09-.86-.5a9.83,9.83,0,0,0-.75,2.26c-.12.63.85.89,1,.26Z" transform="translate(-807.65 -467.51)"/><path class="cls-3" d="M863.84,505.63a6.19,6.19,0,0,1,1.09-1.79c.42-.49-.28-1.2-.7-.71a7.56,7.56,0,0,0-1.36,2.24c-.24.6.73.86,1,.26Z" transform="translate(-807.65 -467.51)"/><path class="cls-3" d="M866.27,507.14a6.37,6.37,0,0,1,1.41-1.77c.48-.43-.23-1.14-.71-.71a7.31,7.31,0,0,0-1.56,2c-.31.56.55,1.07.86.5Z" transform="translate(-807.65 -467.51)"/><path class="cls-3" d="M868.38,509.08l1.7-1c.55-.33,0-1.2-.5-.86l-1.71,1a.5.5,0,0,0,.51.87Z" transform="translate(-807.65 -467.51)"/><path class="cls-3" d="M870.6,511.52a.93.93,0,0,1,.76-.36.5.5,0,0,0,0-1,1.86,1.86,0,0,0-1.46.66c-.42.48.28,1.19.7.7Z" transform="translate(-807.65 -467.51)"/><path class="cls-4" d="M854.38,505.72a4.76,4.76,0,0,0-3.67,2,7.53,7.53,0,0,0-1.29,4.1,6.45,6.45,0,0,0,1.27,4.42,5.85,5.85,0,0,0,3,1.82,6.65,6.65,0,0,0,7-2.14c1.78-2.43,1.12-6.07-.91-8.31-1.41-1.56-3.71-2.6-5.64-1.77" transform="translate(-807.65 -467.51)"/><path class="cls-3" d="M854.38,505.22c-4.06.44-5.94,4.52-5.37,8.29s4.36,5.93,8.08,5.2c8.76-1.71,4.85-15.8-3.05-13.3-.61.19-.35,1.16.27,1,6.42-2,9.94,9.27,3.15,11.23-2.91.84-6.47-.37-7.33-3.52s.55-7.46,4.25-7.86c.63-.06.64-1.06,0-1Z" transform="translate(-807.65 -467.51)"/><path class="cls-5" d="M855.28,509.46a1.55,1.55,0,0,0-1.36.44,2.7,2.7,0,0,0-.67,1.31,2.49,2.49,0,0,0,.53,2.44,2.2,2.2,0,0,0,2.12.34,2.52,2.52,0,0,0,.83-.43,2.31,2.31,0,0,0-1.34-4.12" transform="translate(-807.65 -467.51)"/><path class="cls-3" d="M855.28,509c-3.27-.39-3.66,5.85,0,5.65a3,3,0,0,0,2.82-2.83,2.87,2.87,0,0,0-2.71-2.84c-.64-.06-.64.94,0,1a1.84,1.84,0,0,1,0,3.66c-2.41.26-2.08-3.88-.06-3.64.64.08.64-.92,0-1Z" transform="translate(-807.65 -467.51)"/><path class="cls-2" d="M873.77,512a5.67,5.67,0,0,1,2.25-3.17,19.35,19.35,0,0,1,14.15-4.51c5.05.57,7.29,15.93-2.94,16a15,15,0,0,1-13.43-8" transform="translate(-807.65 -467.51)"/><path class="cls-3" d="M874.26,512.09c1-3.23,5.21-5.32,8.17-6.36,2.27-.81,6-1.8,8.33-.76,2.54,1.12,3.24,5.06,3.17,7.5-.09,3.36-1.76,6.54-5.3,7.19-5.73,1.05-11.82-2.69-14.4-7.65-.29-.58-1.15-.07-.86.5,2.78,5.36,9.38,9.3,15.53,8.12,4.13-.8,6.08-4.65,6-8.58,0-2.9-1.1-7.35-4.36-8.2-3.09-.82-7.1.28-9.9,1.51s-6.44,3.28-7.38,6.46a.5.5,0,0,0,1,.27Z" transform="translate(-807.65 -467.51)"/><path class="cls-3" d="M875.17,509.58l-2.26-1.45c-.54-.35-1,.51-.51.86l2.26,1.46c.55.35,1.05-.52.51-.87Z" transform="translate(-807.65 -467.51)"/><path class="cls-3" d="M877,507.43c-.55-.45-1.08-.93-1.59-1.43s-1.17.25-.71.7,1,1,1.59,1.44,1.2-.3.71-.71Z" transform="translate(-807.65 -467.51)"/><path class="cls-3" d="M879.51,505.94a18.47,18.47,0,0,1-1.4-1.67c-.38-.51-1.25,0-.87.5a21.76,21.76,0,0,0,1.56,1.87c.45.47,1.15-.23.71-.7Z" transform="translate(-807.65 -467.51)"/><path class="cls-3" d="M882.18,504.75l-1-2.13c-.28-.58-1.14-.07-.87.51l1,2.12c.27.58,1.13.08.86-.5Z" transform="translate(-807.65 -467.51)"/><path class="cls-3" d="M884.66,503.91a4.51,4.51,0,0,1-.52-2.36.5.5,0,0,0-1,0,5.73,5.73,0,0,0,.65,2.87c.3.57,1.16.06.87-.51Z" transform="translate(-807.65 -467.51)"/><path class="cls-3" d="M887.4,503.74a20.22,20.22,0,0,1-.36-2.18c-.06-.64-1.06-.64-1,0a22.73,22.73,0,0,0,.4,2.45c.14.63,1.1.36,1-.27Z" transform="translate(-807.65 -467.51)"/><path class="cls-3" d="M890.32,504l.26-2.42c.07-.64-.93-.63-1,0l-.26,2.42c-.07.64.93.64,1,0Z" transform="translate(-807.65 -467.51)"/><path class="cls-3" d="M892.94,504.31a8.8,8.8,0,0,1,.64-2c.27-.58-.59-1.09-.86-.51A9.5,9.5,0,0,0,892,504c-.12.63.84.9,1,.27Z" transform="translate(-807.65 -467.51)"/><path class="cls-4" d="M886.23,505.71a4.76,4.76,0,0,0-3.67,2,7.53,7.53,0,0,0-1.29,4.1,6.43,6.43,0,0,0,1.26,4.43,6,6,0,0,0,3,1.81,6.64,6.64,0,0,0,7-2.13c1.78-2.44,1.11-6.08-.91-8.31-1.42-1.57-3.71-2.6-5.65-1.78" transform="translate(-807.65 -467.51)"/><path class="cls-3" d="M886.23,505.21c-4.07.43-6,4.52-5.38,8.29s4.37,5.92,8.09,5.2c8.76-1.71,4.85-15.81-3.05-13.31-.61.19-.35,1.16.26,1,6.43-2,9.94,9.26,3.15,11.22-2.91.85-6.46-.37-7.32-3.51s.54-7.46,4.25-7.86c.63-.07.64-1.07,0-1Z" transform="translate(-807.65 -467.51)"/><path class="cls-5" d="M887.13,509.44a1.51,1.51,0,0,0-1.36.45,2.67,2.67,0,0,0-.68,1.31,2.49,2.49,0,0,0,.54,2.43,2.21,2.21,0,0,0,2.11.35,2.7,2.7,0,0,0,.84-.44,2.31,2.31,0,0,0-1.35-4.11" transform="translate(-807.65 -467.51)"/><path class="cls-3" d="M887.13,508.94c-3.27-.39-3.67,5.86,0,5.65a2.92,2.92,0,0,0,2.81-2.82,2.86,2.86,0,0,0-2.71-2.84c-.64-.06-.63.94,0,1a1.83,1.83,0,0,1-.05,3.65c-2.41.26-2.07-3.88,0-3.64.64.08.63-.92,0-1Z" transform="translate(-807.65 -467.51)"/><path class="cls-2" d="M814.82,505.05c3.93-3.23,6-2.58,11-2a15,15,0,0,1,11.95,8.35,1.09,1.09,0,0,1,.13.7,1.12,1.12,0,0,1-.34.5A21,21,0,0,1,822.89,519c-5.49-.06-7.07,0-9.45-4.92" transform="translate(-807.65 -467.51)"/><path class="cls-3" d="M815.18,505.4c3.72-2.93,8.24-2.63,12.67-1.48,3.43.89,12.39,6,7.63,9.9a20.69,20.69,0,0,1-13.61,4.71c-1.56,0-3.35.07-4.8-.63-1.6-.78-2.45-2.52-3.2-4-.29-.57-1.15-.07-.86.51.83,1.68,1.8,3.51,3.56,4.39s3.79.76,5.63.77a20.82,20.82,0,0,0,8.53-1.65c2.28-1,5.92-2.82,7.28-5,1.1-1.79-1-4.09-2.26-5.39a16,16,0,0,0-6.94-4.3c-5-1.54-10.15-1.76-14.34,1.54-.51.4.21,1.1.71.71Z" transform="translate(-807.65 -467.51)"/><path class="cls-3" d="M814.82,505.55a.5.5,0,0,0,0-1,.5.5,0,0,0,0,1Z" transform="translate(-807.65 -467.51)"/><path class="cls-3" d="M817.85,503.5l-1-2.12c-.27-.59-1.13-.08-.86.5l1,2.13c.28.58,1.14.07.87-.51Z" transform="translate(-807.65 -467.51)"/><path class="cls-3" d="M820.32,502.67a4.65,4.65,0,0,1-.52-2.37c0-.64-1-.64-1,0a5.62,5.62,0,0,0,.66,2.87c.3.57,1.16.07.86-.5Z" transform="translate(-807.65 -467.51)"/><path class="cls-3" d="M823.07,502.5a20,20,0,0,1-.36-2.19c-.07-.63-1.07-.64-1,0a21.94,21.94,0,0,0,.39,2.45c.14.63,1.11.37,1-.26Z" transform="translate(-807.65 -467.51)"/><path class="cls-3" d="M826,502.73l.26-2.42c.07-.64-.93-.64-1,0l-.26,2.42c-.07.64.93.63,1,0Z" transform="translate(-807.65 -467.51)"/><path class="cls-3" d="M828.61,503.06a8.48,8.48,0,0,1,.64-2c.27-.58-.59-1.09-.86-.5a9.35,9.35,0,0,0-.74,2.26c-.12.62.84.89,1,.26Z" transform="translate(-807.65 -467.51)"/><path class="cls-3" d="M831.35,504.37a6.18,6.18,0,0,1,1.1-1.8c.42-.48-.29-1.19-.71-.7a7.56,7.56,0,0,0-1.36,2.24c-.23.6.73.85,1,.26Z" transform="translate(-807.65 -467.51)"/><path class="cls-3" d="M833.78,505.88a6.56,6.56,0,0,1,1.41-1.78c.48-.42-.23-1.13-.71-.7a7.16,7.16,0,0,0-1.56,2c-.31.56.55,1.07.86.5Z" transform="translate(-807.65 -467.51)"/><path class="cls-3" d="M835.89,507.81l1.7-1c.55-.34,0-1.2-.5-.86l-1.7,1c-.55.34,0,1.2.5.86Z" transform="translate(-807.65 -467.51)"/><path class="cls-3" d="M838.11,510.26a.93.93,0,0,1,.76-.36.5.5,0,0,0,0-1,1.86,1.86,0,0,0-1.46.66c-.42.48.29,1.19.7.7Z" transform="translate(-807.65 -467.51)"/><path class="cls-4" d="M821.89,504.46a4.76,4.76,0,0,0-3.67,2.05,7.62,7.62,0,0,0-1.29,4.1A6.45,6.45,0,0,0,818.2,515a5.92,5.92,0,0,0,3,1.82,6.67,6.67,0,0,0,7-2.14c1.77-2.44,1.11-6.07-.92-8.31-1.41-1.56-3.7-2.6-5.64-1.77" transform="translate(-807.65 -467.51)"/><path class="cls-3" d="M821.89,504c-4.06.44-5.94,4.52-5.37,8.29s4.36,5.93,8.08,5.2c8.77-1.71,4.85-15.8-3-13.3-.62.19-.35,1.16.26,1,6.42-2,9.94,9.26,3.15,11.23-2.91.84-6.46-.37-7.32-3.52s.54-7.46,4.24-7.86c.64-.06.64-1.07,0-1Z" transform="translate(-807.65 -467.51)"/><path class="cls-5" d="M822.8,508.2a1.51,1.51,0,0,0-1.36.44,2.63,2.63,0,0,0-.68,1.31,2.49,2.49,0,0,0,.53,2.44,2.2,2.2,0,0,0,2.12.34,2.68,2.68,0,0,0,.84-.43,2.32,2.32,0,0,0-1.35-4.12" transform="translate(-807.65 -467.51)"/><path class="cls-3" d="M822.8,507.7c-3.27-.4-3.67,5.85,0,5.65a3,3,0,0,0,2.82-2.83,2.87,2.87,0,0,0-2.71-2.84c-.64-.06-.64.94,0,1a1.83,1.83,0,0,1,0,3.65c-2.41.27-2.08-3.88-.05-3.63.63.08.63-.92,0-1Z" transform="translate(-807.65 -467.51)"/><path class="cls-2" d="M824.81,490.41a5.57,5.57,0,0,1,2.25-3.17,19.33,19.33,0,0,1,14.15-4.5,15,15,0,0,1,11.95,8.34.87.87,0,0,1-.21,1.21,21.06,21.06,0,0,1-14.69,6.45c-5.49-.06-11-3.08-13.42-8" transform="translate(-807.65 -467.51)"/><path class="cls-3" d="M825.29,490.54c.88-3,4.7-5,7.42-6.08a17.8,17.8,0,0,1,7.7-1.29,15.12,15.12,0,0,1,7.33,2.44c1.73,1.15,5.93,4.4,4.29,6.87-1.24,1.88-4.35,3.32-6.38,4.19a18,18,0,0,1-7.75,1.55,14.73,14.73,0,0,1-12.63-7.76c-.3-.57-1.16-.07-.86.5A15.82,15.82,0,0,0,839,499.22a20.05,20.05,0,0,0,9.17-2.7c1.53-.86,5.4-2.94,5.56-4.86.21-2.33-3.26-5.31-4.92-6.5a16.29,16.29,0,0,0-8.44-3,19.21,19.21,0,0,0-9.56,2c-2.58,1.27-5.67,3.17-6.52,6.08a.5.5,0,0,0,1,.26Z" transform="translate(-807.65 -467.51)"/><path class="cls-3" d="M826.21,488l-2.27-1.46c-.54-.35-1,.51-.5.86l2.26,1.46c.54.35,1-.52.51-.86Z" transform="translate(-807.65 -467.51)"/><path class="cls-3" d="M828,485.89q-.82-.69-1.59-1.44a.5.5,0,0,0-.7.71c.51.5,1,1,1.59,1.43s1.2-.29.7-.7Z" transform="translate(-807.65 -467.51)"/><path class="cls-3" d="M830.55,484.39a18.85,18.85,0,0,1-1.41-1.67c-.38-.51-1.24,0-.86.51a21.17,21.17,0,0,0,1.56,1.87c.44.47,1.15-.24.71-.71Z" transform="translate(-807.65 -467.51)"/><path class="cls-3" d="M833.21,483.2l-1-2.13c-.27-.58-1.13-.07-.86.51l1,2.12c.27.59,1.14.08.86-.5Z" transform="translate(-807.65 -467.51)"/><path class="cls-3" d="M835.69,482.37a4.67,4.67,0,0,1-.52-2.37c0-.64-1-.64-1,0a5.62,5.62,0,0,0,.66,2.87c.3.57,1.16.07.86-.5Z" transform="translate(-807.65 -467.51)"/><path class="cls-3" d="M838.44,482.2a20.4,20.4,0,0,1-.36-2.19c-.07-.63-1.07-.64-1,0a20.15,20.15,0,0,0,.39,2.45c.14.63,1.11.36,1-.26Z" transform="translate(-807.65 -467.51)"/><path class="cls-3" d="M841.36,482.42l.26-2.42c.07-.63-.93-.63-1,0l-.26,2.42c-.07.64.93.64,1,0Z" transform="translate(-807.65 -467.51)"/><path class="cls-3" d="M844,482.76a8.34,8.34,0,0,1,.64-2c.27-.58-.59-1.09-.86-.51a9.65,9.65,0,0,0-.74,2.26c-.12.63.84.9,1,.27Z" transform="translate(-807.65 -467.51)"/><path class="cls-3" d="M846.72,484.07a6.18,6.18,0,0,1,1.1-1.8c.42-.48-.29-1.19-.71-.71a7.82,7.82,0,0,0-1.36,2.24c-.23.6.73.86,1,.27Z" transform="translate(-807.65 -467.51)"/><path class="cls-3" d="M849.15,485.58a6.56,6.56,0,0,1,1.41-1.78c.48-.43-.23-1.13-.71-.7a7.26,7.26,0,0,0-1.56,2c-.31.57.55,1.08.86.51Z" transform="translate(-807.65 -467.51)"/><path class="cls-3" d="M851.26,487.51l1.7-1c.55-.34,0-1.2-.5-.87l-1.71,1c-.54.33,0,1.2.51.86Z" transform="translate(-807.65 -467.51)"/><path class="cls-3" d="M853.48,490a.93.93,0,0,1,.76-.36.5.5,0,0,0,0-1,1.85,1.85,0,0,0-1.46.65c-.42.49.29,1.2.7.71Z" transform="translate(-807.65 -467.51)"/><path class="cls-4" d="M837.26,484.16a4.76,4.76,0,0,0-3.67,2,7.48,7.48,0,0,0-1.29,4.09,6.47,6.47,0,0,0,1.27,4.43,5.83,5.83,0,0,0,3,1.81,6.63,6.63,0,0,0,7-2.13c1.78-2.44,1.12-6.07-.91-8.31-1.41-1.56-3.71-2.6-5.64-1.77" transform="translate(-807.65 -467.51)"/><path class="cls-3" d="M837.26,483.66c-4.06.44-5.94,4.52-5.37,8.29s4.36,5.92,8.08,5.2c8.76-1.71,4.85-15.81-3.05-13.31-.61.2-.35,1.16.27,1,6.42-2,9.94,9.26,3.15,11.23-2.91.84-6.47-.37-7.32-3.52s.54-7.46,4.24-7.86c.63-.07.64-1.07,0-1Z" transform="translate(-807.65 -467.51)"/><path class="cls-5" d="M838.17,487.9a1.53,1.53,0,0,0-1.37.44,2.7,2.7,0,0,0-.67,1.31,2.46,2.46,0,0,0,.53,2.43,2.18,2.18,0,0,0,2.12.35,2.55,2.55,0,0,0,.83-.44,2.35,2.35,0,0,0,.76-2.52,2.37,2.37,0,0,0-2.1-1.59" transform="translate(-807.65 -467.51)"/><path class="cls-3" d="M838.17,487.4c-3.28-.4-3.67,5.85,0,5.64a2.94,2.94,0,0,0,2.82-2.82,2.87,2.87,0,0,0-2.71-2.84c-.64-.06-.64.94,0,1a1.83,1.83,0,0,1,0,3.65c-2.41.26-2.08-3.88-.05-3.63.63.07.63-.93,0-1Z" transform="translate(-807.65 -467.51)"/><path class="cls-2" d="M857.2,490.14a5.67,5.67,0,0,1,2.25-3.17,19.35,19.35,0,0,1,14.15-4.51,15,15,0,0,1,11.95,8.35.85.85,0,0,1-.2,1.2,21,21,0,0,1-14.7,6.45c-5.49,0-11-3.07-13.42-8" transform="translate(-807.65 -467.51)"/><path class="cls-3" d="M857.69,490.27c.87-3,4.7-5,7.41-6.08a17.82,17.82,0,0,1,7.7-1.29,15.16,15.16,0,0,1,7.34,2.44c1.73,1.15,5.92,4.4,4.29,6.87-1.25,1.88-4.36,3.32-6.39,4.19A18,18,0,0,1,870.3,498a14.75,14.75,0,0,1-12.64-7.76c-.29-.58-1.16-.07-.86.5A15.84,15.84,0,0,0,871.44,499a20,20,0,0,0,9.16-2.7c1.53-.86,5.4-2.94,5.57-4.86.2-2.34-3.27-5.31-4.93-6.5a16.26,16.26,0,0,0-8.44-3,19.18,19.18,0,0,0-9.55,2c-2.58,1.27-5.67,3.16-6.53,6.07a.5.5,0,0,0,1,.27Z" transform="translate(-807.65 -467.51)"/><path class="cls-3" d="M858.6,487.77l-2.26-1.46c-.55-.35-1.05.51-.51.86l2.26,1.46c.55.35,1-.52.51-.86Z" transform="translate(-807.65 -467.51)"/><path class="cls-3" d="M860.43,485.61c-.55-.45-1.08-.93-1.59-1.43a.5.5,0,0,0-.71.71c.51.5,1,1,1.59,1.43s1.2-.29.71-.71Z" transform="translate(-807.65 -467.51)"/><path class="cls-3" d="M862.94,484.12a17.19,17.19,0,0,1-1.4-1.67c-.38-.51-1.25,0-.87.51a23.06,23.06,0,0,0,1.56,1.87c.45.46,1.15-.24.71-.71Z" transform="translate(-807.65 -467.51)"/><path class="cls-3" d="M865.61,482.93l-1-2.13c-.28-.58-1.14-.07-.87.51l1,2.12c.28.58,1.14.08.87-.5Z" transform="translate(-807.65 -467.51)"/><path class="cls-3" d="M868.08,482.09a4.72,4.72,0,0,1-.52-2.36c0-.65-1-.65-1,0a5.74,5.74,0,0,0,.66,2.87c.3.57,1.16.06.86-.51Z" transform="translate(-807.65 -467.51)"/><path class="cls-3" d="M870.83,481.92a19.82,19.82,0,0,1-.36-2.18c-.06-.63-1.06-.64-1,0a22.73,22.73,0,0,0,.4,2.45c.14.63,1.1.36,1-.27Z" transform="translate(-807.65 -467.51)"/><path class="cls-3" d="M873.75,482.15l.26-2.42c.07-.64-.93-.63-1,0l-.26,2.42c-.07.64.93.64,1,0Z" transform="translate(-807.65 -467.51)"/><path class="cls-3" d="M876.37,482.49a8.8,8.8,0,0,1,.64-2c.27-.58-.59-1.09-.86-.51a9.5,9.5,0,0,0-.74,2.26c-.12.63.84.9,1,.27Z" transform="translate(-807.65 -467.51)"/><path class="cls-3" d="M879.11,483.8a6.05,6.05,0,0,1,1.1-1.8c.42-.48-.29-1.19-.71-.71a7.65,7.65,0,0,0-1.35,2.24c-.24.6.73.86,1,.27Z" transform="translate(-807.65 -467.51)"/><path class="cls-3" d="M881.54,485.31a6.76,6.76,0,0,1,1.41-1.78c.48-.43-.23-1.13-.71-.71a7.67,7.67,0,0,0-1.56,2c-.31.57.56,1.07.86.51Z" transform="translate(-807.65 -467.51)"/><path class="cls-3" d="M883.4,487.31a.5.5,0,0,0,0-1,.5.5,0,0,0,0,1Z" transform="translate(-807.65 -467.51)"/><path class="cls-3" d="M885.52,489.84a.5.5,0,0,0,0-1,.5.5,0,0,0,0,1Z" transform="translate(-807.65 -467.51)"/><path class="cls-4" d="M869.66,483.89a4.74,4.74,0,0,0-3.67,2.05A7.4,7.4,0,0,0,864.7,490a6.43,6.43,0,0,0,1.26,4.43,5.91,5.91,0,0,0,3,1.81,6.64,6.64,0,0,0,7-2.13c1.78-2.44,1.11-6.08-.91-8.31-1.42-1.56-3.71-2.6-5.65-1.78" transform="translate(-807.65 -467.51)"/><path class="cls-3" d="M869.66,483.39c-4.07.44-5.95,4.52-5.38,8.29s4.37,5.92,8.09,5.2c8.76-1.71,4.84-15.81-3-13.31-.61.2-.35,1.16.26,1,6.43-2,9.94,9.26,3.15,11.22-2.91.85-6.46-.37-7.32-3.51s.54-7.46,4.25-7.86c.63-.07.64-1.07,0-1Z" transform="translate(-807.65 -467.51)"/><path class="cls-5" d="M870.56,487.63a1.48,1.48,0,0,0-1.36.44,2.67,2.67,0,0,0-.68,1.31,2.49,2.49,0,0,0,.54,2.43,2.18,2.18,0,0,0,2.11.35,2.7,2.7,0,0,0,.84-.44,2.31,2.31,0,0,0-1.35-4.11" transform="translate(-807.65 -467.51)"/><path class="cls-3" d="M870.56,487.13c-3.27-.4-3.67,5.85,0,5.64a2.92,2.92,0,0,0,2.81-2.82,2.86,2.86,0,0,0-2.71-2.84c-.64-.06-.63.94,0,1a1.83,1.83,0,0,1,0,3.65c-2.41.26-2.07-3.88-.05-3.63.64.07.63-.93,0-1Z" transform="translate(-807.65 -467.51)"/><path class="cls-2" d="M823.8,529.45a5.57,5.57,0,0,1,2.25-3.17,19.33,19.33,0,0,1,14.15-4.5,15,15,0,0,1,11.95,8.34.87.87,0,0,1-.21,1.21,21.06,21.06,0,0,1-14.69,6.45c-5.49-.06-11-3.08-13.42-8" transform="translate(-807.65 -467.51)"/><path class="cls-3" d="M824.28,529.58c.88-3,4.7-5,7.42-6.08a17.8,17.8,0,0,1,7.7-1.29,15.09,15.09,0,0,1,7.33,2.44c1.73,1.15,5.93,4.4,4.29,6.87-1.24,1.88-4.35,3.32-6.38,4.19a18,18,0,0,1-7.75,1.55,14.75,14.75,0,0,1-12.63-7.76c-.3-.57-1.16-.07-.86.5A15.82,15.82,0,0,0,838,538.26a20.16,20.16,0,0,0,9.17-2.69c1.53-.87,5.4-3,5.57-4.87.2-2.33-3.27-5.31-4.93-6.5a16.29,16.29,0,0,0-8.44-3,19.21,19.21,0,0,0-9.56,2c-2.58,1.27-5.67,3.17-6.52,6.08a.5.5,0,0,0,1,.26Z" transform="translate(-807.65 -467.51)"/><path class="cls-3" d="M825.2,527.08l-2.27-1.46c-.54-.35-1,.51-.5.86l2.26,1.46c.54.35,1-.52.51-.86Z" transform="translate(-807.65 -467.51)"/><path class="cls-3" d="M827,524.93q-.82-.69-1.59-1.44a.5.5,0,0,0-.7.71c.51.5,1,1,1.59,1.43s1.2-.29.7-.7Z" transform="translate(-807.65 -467.51)"/><path class="cls-3" d="M829.54,523.43a18.85,18.85,0,0,1-1.41-1.67c-.38-.51-1.24,0-.86.51a21.17,21.17,0,0,0,1.56,1.87c.44.47,1.15-.24.71-.71Z" transform="translate(-807.65 -467.51)"/><path class="cls-3" d="M832.2,522.24l-1-2.13c-.27-.58-1.13-.07-.86.51l1,2.12c.28.59,1.14.08.86-.5Z" transform="translate(-807.65 -467.51)"/><path class="cls-3" d="M834.68,521.41a4.67,4.67,0,0,1-.52-2.37c0-.64-1-.64-1,0a5.62,5.62,0,0,0,.66,2.87c.3.57,1.16.07.86-.5Z" transform="translate(-807.65 -467.51)"/><path class="cls-3" d="M837.43,521.24a20.4,20.4,0,0,1-.36-2.19c-.07-.63-1.07-.64-1,0a20.15,20.15,0,0,0,.39,2.45c.14.63,1.11.36,1-.26Z" transform="translate(-807.65 -467.51)"/><path class="cls-3" d="M840.35,521.46l.26-2.42c.07-.63-.93-.63-1,0l-.26,2.42c-.07.64.93.64,1,0Z" transform="translate(-807.65 -467.51)"/><path class="cls-3" d="M843,521.8a8.34,8.34,0,0,1,.64-2c.27-.58-.59-1.09-.86-.51a9.65,9.65,0,0,0-.74,2.26c-.12.63.84.9,1,.27Z" transform="translate(-807.65 -467.51)"/><path class="cls-3" d="M845.71,523.11a6.18,6.18,0,0,1,1.1-1.8c.42-.48-.29-1.19-.71-.71a7.82,7.82,0,0,0-1.36,2.24c-.23.6.73.86,1,.27Z" transform="translate(-807.65 -467.51)"/><path class="cls-3" d="M848.14,524.62a6.56,6.56,0,0,1,1.41-1.78c.48-.43-.23-1.13-.71-.7a7.26,7.26,0,0,0-1.56,2c-.31.57.55,1.08.86.51Z" transform="translate(-807.65 -467.51)"/><path class="cls-3" d="M850.25,526.55l1.7-1c.55-.34,0-1.2-.5-.87l-1.71,1c-.54.33,0,1.2.51.86Z" transform="translate(-807.65 -467.51)"/><path class="cls-3" d="M852.47,529a.93.93,0,0,1,.76-.36.5.5,0,0,0,0-1,1.85,1.85,0,0,0-1.46.65c-.42.49.29,1.2.7.71Z" transform="translate(-807.65 -467.51)"/><path class="cls-4" d="M836.25,523.2a4.76,4.76,0,0,0-3.67,2,7.48,7.48,0,0,0-1.29,4.09,6.47,6.47,0,0,0,1.27,4.43,5.83,5.83,0,0,0,3,1.81,6.65,6.65,0,0,0,7-2.13c1.77-2.44,1.11-6.07-.92-8.31-1.41-1.56-3.71-2.6-5.64-1.77" transform="translate(-807.65 -467.51)"/><path class="cls-3" d="M836.25,522.7c-4.06.44-5.94,4.52-5.37,8.29s4.36,5.92,8.08,5.2c8.76-1.71,4.85-15.81-3.05-13.31-.61.2-.35,1.16.27,1,6.42-2,9.94,9.26,3.15,11.23-2.91.84-6.46-.37-7.32-3.52s.54-7.46,4.24-7.86c.64-.07.64-1.07,0-1Z" transform="translate(-807.65 -467.51)"/><path class="cls-5" d="M837.16,526.94a1.53,1.53,0,0,0-1.37.44,2.7,2.7,0,0,0-.67,1.31,2.46,2.46,0,0,0,.53,2.43,2.18,2.18,0,0,0,2.12.35,2.7,2.7,0,0,0,.84-.44,2.34,2.34,0,0,0,.75-2.52,2.37,2.37,0,0,0-2.1-1.59" transform="translate(-807.65 -467.51)"/><path class="cls-3" d="M837.16,526.44c-3.28-.4-3.67,5.85,0,5.64a2.94,2.94,0,0,0,2.82-2.82,2.87,2.87,0,0,0-2.71-2.84c-.64-.06-.64.94,0,1a1.83,1.83,0,0,1,0,3.65c-2.41.26-2.08-3.88-.05-3.63.63.07.63-.93,0-1Z" transform="translate(-807.65 -467.51)"/><path class="cls-2" d="M861.69,529.45a5.62,5.62,0,0,1,2.25-3.17,19.34,19.34,0,0,1,14.15-4.5A15,15,0,0,1,890,530.12a1.13,1.13,0,0,1,.14.71,1.21,1.21,0,0,1-.34.5,21.07,21.07,0,0,1-14.7,6.45c-5.49-.06-11-3.08-13.42-8" transform="translate(-807.65 -467.51)"/><path class="cls-3" d="M862.18,529.58c.87-3,4.7-5,7.41-6.08a17.82,17.82,0,0,1,7.7-1.29,15.09,15.09,0,0,1,7.33,2.44c1.74,1.15,5.93,4.4,4.3,6.87-1.25,1.88-4.36,3.32-6.39,4.19a18,18,0,0,1-7.74,1.55,14.75,14.75,0,0,1-12.64-7.76c-.29-.57-1.16-.07-.86.5a15.84,15.84,0,0,0,14.64,8.26,20.12,20.12,0,0,0,9.16-2.69c1.53-.87,5.4-3,5.57-4.87.2-2.33-3.27-5.31-4.93-6.5a16.26,16.26,0,0,0-8.44-3,19.15,19.15,0,0,0-9.55,2c-2.58,1.27-5.67,3.17-6.53,6.08a.5.5,0,0,0,1,.26Z" transform="translate(-807.65 -467.51)"/><path class="cls-3" d="M863.09,527.08l-2.26-1.46c-.55-.35-1.05.51-.51.86l2.26,1.46c.55.35,1-.52.51-.86Z" transform="translate(-807.65 -467.51)"/><path class="cls-3" d="M864.92,524.93q-.82-.69-1.59-1.44c-.46-.45-1.17.26-.71.71s1,1,1.59,1.43,1.2-.29.71-.7Z" transform="translate(-807.65 -467.51)"/><path class="cls-3" d="M867.43,523.43a17.19,17.19,0,0,1-1.4-1.67c-.38-.51-1.25,0-.87.51a23.06,23.06,0,0,0,1.56,1.87c.44.47,1.15-.24.71-.71Z" transform="translate(-807.65 -467.51)"/><path class="cls-3" d="M870.1,522.24l-1-2.13c-.28-.58-1.14-.07-.87.51l1,2.12c.28.59,1.14.08.87-.5Z" transform="translate(-807.65 -467.51)"/><path class="cls-3" d="M872.57,521.41a4.78,4.78,0,0,1-.52-2.37c0-.64-1-.64-1,0a5.72,5.72,0,0,0,.66,2.87c.3.57,1.16.07.86-.5Z" transform="translate(-807.65 -467.51)"/><path class="cls-3" d="M875.32,521.24a20.4,20.4,0,0,1-.36-2.19c-.06-.63-1.06-.64-1,0a22.33,22.33,0,0,0,.4,2.45c.14.63,1.1.36,1-.26Z" transform="translate(-807.65 -467.51)"/><path class="cls-3" d="M878.24,521.46l.26-2.42c.07-.63-.93-.63-1,0l-.26,2.42c-.07.64.93.64,1,0Z" transform="translate(-807.65 -467.51)"/><path class="cls-3" d="M880.86,521.8a8.8,8.8,0,0,1,.64-2c.27-.58-.59-1.09-.86-.51a9.65,9.65,0,0,0-.74,2.26c-.12.63.84.9,1,.27Z" transform="translate(-807.65 -467.51)"/><path class="cls-3" d="M883.6,523.11a6.18,6.18,0,0,1,1.1-1.8c.42-.48-.29-1.19-.71-.71a7.79,7.79,0,0,0-1.35,2.24c-.24.6.73.86,1,.27Z" transform="translate(-807.65 -467.51)"/><path class="cls-3" d="M886,524.62a6.76,6.76,0,0,1,1.41-1.78c.48-.43-.23-1.13-.71-.7a7.46,7.46,0,0,0-1.56,2c-.31.57.56,1.08.86.51Z" transform="translate(-807.65 -467.51)"/><path class="cls-3" d="M888.14,526.55l1.71-1c.54-.34,0-1.2-.51-.87l-1.7,1c-.55.33,0,1.2.5.86Z" transform="translate(-807.65 -467.51)"/><path class="cls-3" d="M890.37,529a.92.92,0,0,1,.75-.36.5.5,0,0,0,0-1,1.85,1.85,0,0,0-1.46.65c-.42.49.29,1.2.71.71Z" transform="translate(-807.65 -467.51)"/><path class="cls-4" d="M874.14,523.2a4.74,4.74,0,0,0-3.66,2,7.4,7.4,0,0,0-1.29,4.09,6.42,6.42,0,0,0,1.26,4.43,5.91,5.91,0,0,0,3,1.81,6.64,6.64,0,0,0,7-2.13c1.78-2.44,1.11-6.07-.91-8.31-1.42-1.56-3.71-2.6-5.65-1.77" transform="translate(-807.65 -467.51)"/><path class="cls-3" d="M874.14,522.7c-4.06.44-5.94,4.52-5.37,8.29s4.37,5.92,8.09,5.2c8.76-1.71,4.84-15.81-3.05-13.31-.61.2-.35,1.16.26,1,6.43-2,9.94,9.26,3.15,11.23-2.91.84-6.46-.37-7.32-3.52s.54-7.46,4.24-7.86c.64-.07.64-1.07,0-1Z" transform="translate(-807.65 -467.51)"/><path class="cls-5" d="M875.05,526.94a1.51,1.51,0,0,0-1.36.44,2.71,2.71,0,0,0-.68,1.31,2.49,2.49,0,0,0,.53,2.43,2.18,2.18,0,0,0,2.12.35,2.7,2.7,0,0,0,.84-.44,2.31,2.31,0,0,0-1.35-4.11" transform="translate(-807.65 -467.51)"/><path class="cls-3" d="M875.05,526.44c-3.27-.4-3.67,5.85,0,5.64a2.92,2.92,0,0,0,2.81-2.82,2.87,2.87,0,0,0-2.71-2.84c-.64-.06-.63.94,0,1a1.83,1.83,0,0,1,0,3.65c-2.41.26-2.08-3.88-.05-3.63.64.07.63-.93,0-1Z" transform="translate(-807.65 -467.51)"/><path class="cls-2" d="M842,548.19a5.67,5.67,0,0,1,2.25-3.17,19.35,19.35,0,0,1,14.15-4.51,15,15,0,0,1,12,8.35,1.12,1.12,0,0,1,.14.71,1.18,1.18,0,0,1-.34.49,21,21,0,0,1-14.69,6.45c-5.5,0-11-3.08-13.43-8" transform="translate(-807.65 -467.51)"/><path class="cls-3" d="M842.51,548.32c.87-3,4.7-5,7.41-6.08a18,18,0,0,1,7.7-1.3,15.28,15.28,0,0,1,7.34,2.45c1.73,1.14,5.92,4.4,4.29,6.86-1.25,1.89-4.36,3.32-6.38,4.2a18,18,0,0,1-7.75,1.55,14.76,14.76,0,0,1-12.64-7.77c-.29-.57-1.16-.06-.86.51A15.86,15.86,0,0,0,856.26,557a20.13,20.13,0,0,0,9.16-2.7c1.53-.86,5.4-2.95,5.57-4.86.2-2.34-3.27-5.31-4.93-6.5a16.18,16.18,0,0,0-8.44-3,19.19,19.19,0,0,0-9.55,2c-2.58,1.27-5.67,3.16-6.53,6.07a.5.5,0,0,0,1,.27Z" transform="translate(-807.65 -467.51)"/><path class="cls-3" d="M843.42,545.81l-2.26-1.45c-.54-.35-1,.51-.51.86l2.26,1.46c.55.35,1.05-.52.51-.87Z" transform="translate(-807.65 -467.51)"/><path class="cls-3" d="M845.25,543.66c-.55-.45-1.08-.93-1.59-1.43s-1.17.25-.71.7,1,1,1.59,1.44,1.2-.3.71-.71Z" transform="translate(-807.65 -467.51)"/><path class="cls-3" d="M847.76,542.17a18.47,18.47,0,0,1-1.4-1.67c-.38-.51-1.25,0-.87.5a20.07,20.07,0,0,0,1.56,1.87c.45.47,1.15-.24.71-.7Z" transform="translate(-807.65 -467.51)"/><path class="cls-3" d="M850.43,541l-1-2.13c-.28-.58-1.14-.07-.87.5l1,2.13c.28.58,1.14.08.87-.5Z" transform="translate(-807.65 -467.51)"/><path class="cls-3" d="M852.91,540.14a4.51,4.51,0,0,1-.52-2.36.5.5,0,0,0-1,0,5.73,5.73,0,0,0,.65,2.87c.3.57,1.16.06.87-.51Z" transform="translate(-807.65 -467.51)"/><path class="cls-3" d="M855.65,540a20.22,20.22,0,0,1-.36-2.18c-.06-.64-1.06-.64-1,0a22.73,22.73,0,0,0,.4,2.45c.14.63,1.1.36,1-.27Z" transform="translate(-807.65 -467.51)"/><path class="cls-3" d="M858.57,540.2l.26-2.42c.07-.64-.93-.63-1,0l-.26,2.42c-.07.64.93.64,1,0Z" transform="translate(-807.65 -467.51)"/><path class="cls-3" d="M861.19,540.54a8.8,8.8,0,0,1,.64-2c.27-.58-.59-1.09-.86-.51a9.5,9.5,0,0,0-.74,2.26c-.12.63.84.9,1,.27Z" transform="translate(-807.65 -467.51)"/><path class="cls-3" d="M863.93,541.85a6.05,6.05,0,0,1,1.1-1.8c.42-.49-.28-1.2-.71-.71a7.53,7.53,0,0,0-1.35,2.24c-.24.6.73.86,1,.27Z" transform="translate(-807.65 -467.51)"/><path class="cls-3" d="M866.36,543.36a6.6,6.6,0,0,1,1.41-1.78c.48-.43-.23-1.14-.7-.71a7.34,7.34,0,0,0-1.57,2c-.31.57.56,1.07.86.51Z" transform="translate(-807.65 -467.51)"/><path class="cls-3" d="M868.47,545.29l1.71-1a.5.5,0,0,0-.51-.86l-1.7,1a.5.5,0,0,0,.5.86Z" transform="translate(-807.65 -467.51)"/><path class="cls-3" d="M870.7,547.74a.87.87,0,0,1,.75-.36.5.5,0,0,0,0-1A1.82,1.82,0,0,0,870,547c-.42.49.29,1.2.71.71Z" transform="translate(-807.65 -467.51)"/><path class="cls-4" d="M854.48,541.94a4.76,4.76,0,0,0-3.67,2,7.53,7.53,0,0,0-1.29,4.1,6.43,6.43,0,0,0,1.26,4.43,6,6,0,0,0,3,1.81,6.64,6.64,0,0,0,7-2.13c1.78-2.44,1.11-6.08-.91-8.31-1.42-1.57-3.71-2.6-5.65-1.78" transform="translate(-807.65 -467.51)"/><path class="cls-3" d="M854.48,541.44c-4.07.43-6,4.52-5.38,8.28s4.37,5.93,8.09,5.21c8.76-1.71,4.84-15.81-3.05-13.31-.61.19-.35,1.16.26,1,6.43-2,9.94,9.27,3.15,11.23-2.91.85-6.46-.37-7.32-3.51s.54-7.46,4.25-7.86c.63-.07.64-1.07,0-1Z" transform="translate(-807.65 -467.51)"/><path class="cls-5" d="M855.38,545.67a1.51,1.51,0,0,0-1.36.45,2.67,2.67,0,0,0-.68,1.31,2.49,2.49,0,0,0,.54,2.43,2.21,2.21,0,0,0,2.11.35,2.7,2.7,0,0,0,.84-.44,2.31,2.31,0,0,0-1.35-4.11" transform="translate(-807.65 -467.51)"/><path class="cls-3" d="M855.38,545.17c-3.27-.39-3.67,5.86,0,5.65a2.92,2.92,0,0,0,2.81-2.82,2.85,2.85,0,0,0-2.71-2.84c-.64-.06-.63.94,0,1a1.83,1.83,0,0,1-.05,3.65c-2.41.26-2.07-3.88,0-3.64.64.08.63-.92,0-1Z" transform="translate(-807.65 -467.51)"/><path class="cls-2" d="M876,546.69a5.6,5.6,0,0,1,2.24-3.17A19.35,19.35,0,0,1,892.43,539c5.06.57,6.26,16.69-2.94,16-5.48-.41-11-3.08-13.42-8" transform="translate(-807.65 -467.51)"/><path class="cls-3" d="M876.52,546.82c1-3.23,5.22-5.32,8.17-6.36,2.23-.79,6-1.84,8.33-.76,2.52,1.2,2.92,5.39,2.79,7.78-.18,3.24-1.73,6.77-5.37,7a15.33,15.33,0,0,1-13.94-7.79c-.3-.57-1.16-.06-.86.51,2.67,5.15,9.46,9.06,15.37,8.22,4.08-.57,5.73-4.74,5.81-8.41.07-2.85-.7-7.58-4-8.47-3.06-.84-7.13.29-9.9,1.5s-6.44,3.29-7.37,6.47a.5.5,0,0,0,1,.27Z" transform="translate(-807.65 -467.51)"/><path class="cls-3" d="M877.43,544.31l-2.26-1.46c-.54-.34-1,.52-.5.87l2.26,1.46c.54.35,1-.52.5-.87Z" transform="translate(-807.65 -467.51)"/><path class="cls-3" d="M879.26,542.16c-.55-.45-1.08-.93-1.59-1.43s-1.17.25-.71.7,1,1,1.59,1.44,1.21-.3.71-.71Z" transform="translate(-807.65 -467.51)"/><path class="cls-3" d="M881.77,540.67c-.49-.53-1-1.09-1.4-1.67s-1.25,0-.86.5a18.62,18.62,0,0,0,1.56,1.87c.44.47,1.15-.24.7-.7Z" transform="translate(-807.65 -467.51)"/><path class="cls-3" d="M884.44,539.48l-1-2.13c-.27-.58-1.14-.08-.86.5l1,2.13c.27.58,1.14.08.86-.5Z" transform="translate(-807.65 -467.51)"/><path class="cls-3" d="M886.92,538.64a4.61,4.61,0,0,1-.52-2.36.5.5,0,0,0-1,0,5.64,5.64,0,0,0,.66,2.87c.29.57,1.16.06.86-.51Z" transform="translate(-807.65 -467.51)"/><path class="cls-3" d="M889.67,538.47a18,18,0,0,1-.36-2.18c-.07-.64-1.07-.64-1,0a20.47,20.47,0,0,0,.39,2.45c.14.63,1.11.36,1-.27Z" transform="translate(-807.65 -467.51)"/><path class="cls-3" d="M892.59,538.7l.26-2.42c.06-.64-.94-.63-1,0l-.26,2.42c-.07.64.93.63,1,0Z" transform="translate(-807.65 -467.51)"/><path class="cls-3" d="M895.21,539a8.41,8.41,0,0,1,.64-2c.27-.58-.59-1.09-.86-.51a9.52,9.52,0,0,0-.75,2.26c-.12.63.85.9,1,.26Z" transform="translate(-807.65 -467.51)"/><path class="cls-3" d="M897.94,540.35a6.49,6.49,0,0,1,1.1-1.8c.42-.49-.28-1.2-.7-.71a7.56,7.56,0,0,0-1.36,2.24c-.24.6.73.86,1,.27Z" transform="translate(-807.65 -467.51)"/><path class="cls-4" d="M888.49,540.44a4.78,4.78,0,0,0-3.67,2,7.53,7.53,0,0,0-1.29,4.1A6.49,6.49,0,0,0,884.8,551a5.9,5.9,0,0,0,3,1.81,6.63,6.63,0,0,0,7-2.13c1.78-2.44,1.12-6.08-.91-8.32-1.41-1.56-3.71-2.59-5.64-1.77" transform="translate(-807.65 -467.51)"/><path class="cls-3" d="M888.49,539.94c-4.07.43-5.94,4.52-5.37,8.28s4.36,5.93,8.08,5.21c8.76-1.71,4.85-15.81-3.05-13.31-.61.19-.35,1.16.27,1,6.42-2,9.94,9.27,3.15,11.23-2.91.85-6.47-.37-7.33-3.51s.55-7.47,4.25-7.86c.63-.07.64-1.07,0-1Z" transform="translate(-807.65 -467.51)"/><path class="cls-5" d="M889.39,544.17a1.53,1.53,0,0,0-1.36.45,2.65,2.65,0,0,0-.67,1.31,2.47,2.47,0,0,0,.53,2.43,2.23,2.23,0,0,0,2.12.35,2.55,2.55,0,0,0,.83-.44,2.31,2.31,0,0,0-1.34-4.11" transform="translate(-807.65 -467.51)"/><path class="cls-3" d="M889.39,543.67c-3.27-.39-3.66,5.86,0,5.65a3,3,0,0,0,2.82-2.82,2.86,2.86,0,0,0-2.71-2.84c-.64-.07-.64.93,0,1a1.83,1.83,0,0,1,0,3.65c-2.42.26-2.08-3.88-.06-3.64.64.08.64-.92,0-1Z" transform="translate(-807.65 -467.51)"/><path class="cls-2" d="M810.3,545.26a19.35,19.35,0,0,1,14.15-4.51,15,15,0,0,1,11.95,8.35,1.12,1.12,0,0,1,.14.71,1.18,1.18,0,0,1-.34.49,21,21,0,0,1-14.69,6.45c-5.5,0-9-1.23-11.38-6.18" transform="translate(-807.65 -467.51)"/><path class="cls-3" d="M810.65,545.61c4.24-3.34,9.7-5.24,15.1-4.15,3.16.64,13.27,5.95,8.64,9.81-6.57,5.49-19.17,8.22-23.83-.95-.29-.58-1.15-.07-.86.5,2.32,4.56,6.12,6.27,11.1,6.42a20,20,0,0,0,8.55-1.65c2.11-.91,6.41-3,7.45-5.28.8-1.75-1.54-4.23-2.69-5.41a16.06,16.06,0,0,0-7-4.13c-6.05-1.72-12.34.35-17.13,4.13-.51.4.2,1.11.7.71Z" transform="translate(-807.65 -467.51)"/><path class="cls-3" d="M809.2,547a.5.5,0,0,0,0-1,.5.5,0,0,0,0,1Z" transform="translate(-807.65 -467.51)"/><path class="cls-3" d="M811.28,543.9c-.55-.45-1.08-.93-1.59-1.43s-1.17.25-.71.7,1,1,1.59,1.44,1.2-.3.71-.71Z" transform="translate(-807.65 -467.51)"/><path class="cls-3" d="M813.79,542.41a18.47,18.47,0,0,1-1.4-1.67c-.38-.51-1.25,0-.87.5a21.76,21.76,0,0,0,1.56,1.87c.45.47,1.15-.24.71-.7Z" transform="translate(-807.65 -467.51)"/><path class="cls-3" d="M816.46,541.22l-1-2.13c-.28-.58-1.14-.08-.87.5l1,2.13c.27.58,1.13.08.86-.5Z" transform="translate(-807.65 -467.51)"/><path class="cls-3" d="M818.94,540.38a4.51,4.51,0,0,1-.52-2.36.5.5,0,0,0-1,0,5.73,5.73,0,0,0,.65,2.87c.3.57,1.16.06.87-.51Z" transform="translate(-807.65 -467.51)"/><path class="cls-3" d="M821.68,540.21a20.22,20.22,0,0,1-.36-2.18c-.06-.64-1.06-.64-1,0a22.73,22.73,0,0,0,.4,2.45c.14.63,1.1.36,1-.27Z" transform="translate(-807.65 -467.51)"/><path class="cls-3" d="M824.6,540.44l.26-2.42c.07-.64-.93-.63-1,0l-.26,2.42c-.07.64.93.63,1,0Z" transform="translate(-807.65 -467.51)"/><path class="cls-3" d="M827.22,540.77a8.88,8.88,0,0,1,.64-2c.27-.58-.59-1.09-.86-.51a9.5,9.5,0,0,0-.74,2.26c-.12.63.84.9,1,.26Z" transform="translate(-807.65 -467.51)"/><path class="cls-3" d="M830,542.09a6.05,6.05,0,0,1,1.1-1.8c.42-.49-.28-1.2-.71-.71a7.53,7.53,0,0,0-1.35,2.24c-.24.6.73.86,1,.27Z" transform="translate(-807.65 -467.51)"/><path class="cls-3" d="M832.39,543.6a6.6,6.6,0,0,1,1.41-1.78c.48-.43-.23-1.14-.7-.71a7.34,7.34,0,0,0-1.57,2c-.31.57.56,1.07.86.51Z" transform="translate(-807.65 -467.51)"/><path class="cls-3" d="M834.5,545.53l1.71-1a.5.5,0,0,0-.51-.86l-1.7,1a.5.5,0,0,0,.5.86Z" transform="translate(-807.65 -467.51)"/><path class="cls-3" d="M836.73,548a.91.91,0,0,1,.75-.37.5.5,0,0,0,0-1,1.86,1.86,0,0,0-1.46.66c-.41.49.29,1.2.71.71Z" transform="translate(-807.65 -467.51)"/><path class="cls-4" d="M820.51,542.18a4.76,4.76,0,0,0-3.67,2,7.53,7.53,0,0,0-1.29,4.1,6.43,6.43,0,0,0,1.26,4.43,6,6,0,0,0,3,1.81,6.64,6.64,0,0,0,7-2.13c1.78-2.44,1.11-6.08-.91-8.32-1.42-1.56-3.71-2.59-5.65-1.77" transform="translate(-807.65 -467.51)"/><path class="cls-3" d="M820.51,541.68c-4.07.43-6,4.52-5.38,8.28s4.37,5.93,8.09,5.21c8.76-1.71,4.85-15.81-3.05-13.31-.61.19-.35,1.16.26,1,6.43-2,9.94,9.27,3.15,11.23-2.91.85-6.46-.37-7.32-3.51s.54-7.47,4.25-7.86c.63-.07.64-1.07,0-1Z" transform="translate(-807.65 -467.51)"/><path class="cls-5" d="M821.41,545.91a1.51,1.51,0,0,0-1.36.45,2.67,2.67,0,0,0-.68,1.31,2.5,2.5,0,0,0,.54,2.43,2.21,2.21,0,0,0,2.11.35,2.7,2.7,0,0,0,.84-.44,2.3,2.3,0,0,0-1.35-4.11" transform="translate(-807.65 -467.51)"/><path class="cls-3" d="M821.41,545.41c-3.27-.39-3.67,5.86,0,5.65a2.93,2.93,0,0,0,2.81-2.82,2.85,2.85,0,0,0-2.71-2.84c-.64-.07-.63.93,0,1a1.83,1.83,0,0,1,0,3.65c-2.41.26-2.07-3.88-.05-3.64.64.08.63-.92,0-1Z" transform="translate(-807.65 -467.51)"/><path class="cls-2" d="M821.8,568.72a5.64,5.64,0,0,1,2.24-3.17,19.34,19.34,0,0,1,14.15-4.5,15,15,0,0,1,11.95,8.34,1.13,1.13,0,0,1,.14.71,1.21,1.21,0,0,1-.34.5,21.06,21.06,0,0,1-14.69,6.45c-5.49-.06-11-3.08-13.42-8" transform="translate(-807.65 -467.51)"/><path class="cls-3" d="M822.28,568.85c.88-3,4.7-5,7.42-6.08a17.8,17.8,0,0,1,7.7-1.29,15.12,15.12,0,0,1,7.33,2.44c1.73,1.15,5.92,4.41,4.29,6.87-1.25,1.88-4.36,3.32-6.38,4.19a18,18,0,0,1-7.75,1.55,14.71,14.71,0,0,1-12.63-7.76c-.3-.57-1.16-.07-.87.5A15.85,15.85,0,0,0,836,577.54a20.33,20.33,0,0,0,9.17-2.7c1.53-.87,5.39-3,5.56-4.87.21-2.33-3.26-5.31-4.93-6.5a16.22,16.22,0,0,0-8.43-3,19.19,19.19,0,0,0-9.56,2c-2.58,1.27-5.67,3.17-6.52,6.08a.5.5,0,0,0,1,.26Z" transform="translate(-807.65 -467.51)"/><path class="cls-3" d="M823.19,566.35l-2.26-1.46c-.54-.35-1,.51-.5.86l2.26,1.46c.54.35,1-.51.5-.86Z" transform="translate(-807.65 -467.51)"/><path class="cls-3" d="M825,564.2q-.82-.69-1.59-1.44c-.46-.45-1.17.26-.71.71s1,1,1.59,1.43,1.21-.29.71-.7Z" transform="translate(-807.65 -467.51)"/><path class="cls-3" d="M827.53,562.7a20.61,20.61,0,0,1-1.4-1.67c-.38-.51-1.25,0-.86.51a19.81,19.81,0,0,0,1.56,1.87c.44.47,1.15-.24.7-.71Z" transform="translate(-807.65 -467.51)"/><path class="cls-3" d="M830.2,561.51l-1-2.13c-.27-.58-1.14-.07-.86.51l1,2.13c.27.58,1.14.07.86-.51Z" transform="translate(-807.65 -467.51)"/><path class="cls-3" d="M832.68,560.68a4.67,4.67,0,0,1-.52-2.37c0-.64-1-.64-1,0a5.62,5.62,0,0,0,.66,2.87c.29.57,1.16.07.86-.5Z" transform="translate(-807.65 -467.51)"/><path class="cls-3" d="M835.43,560.51a18.17,18.17,0,0,1-.36-2.19c-.07-.63-1.07-.64-1,0a20.15,20.15,0,0,0,.39,2.45c.14.63,1.11.37,1-.26Z" transform="translate(-807.65 -467.51)"/><path class="cls-3" d="M838.35,560.73l.26-2.42c.06-.63-.94-.63-1,0l-.26,2.42c-.07.64.93.64,1,0Z" transform="translate(-807.65 -467.51)"/><path class="cls-3" d="M841,561.07a8.48,8.48,0,0,1,.64-2c.27-.58-.59-1.09-.86-.51a9.68,9.68,0,0,0-.75,2.26c-.12.63.85.9,1,.27Z" transform="translate(-807.65 -467.51)"/><path class="cls-3" d="M843.7,562.38a6.64,6.64,0,0,1,1.1-1.8c.42-.48-.28-1.19-.7-.71a7.82,7.82,0,0,0-1.36,2.24c-.24.6.73.86,1,.27Z" transform="translate(-807.65 -467.51)"/><path class="cls-3" d="M846.14,563.89a6.56,6.56,0,0,1,1.41-1.78c.48-.43-.23-1.13-.71-.7a7.16,7.16,0,0,0-1.56,2c-.31.56.55,1.07.86.5Z" transform="translate(-807.65 -467.51)"/><path class="cls-3" d="M848.25,565.82l1.7-1c.55-.34,0-1.2-.5-.87l-1.71,1a.5.5,0,0,0,.51.86Z" transform="translate(-807.65 -467.51)"/><path class="cls-3" d="M850.47,568.27a.93.93,0,0,1,.76-.36.5.5,0,0,0,0-1,1.92,1.92,0,0,0-1.47.65c-.41.49.29,1.2.71.71Z" transform="translate(-807.65 -467.51)"/><path class="cls-4" d="M834.25,562.47a4.76,4.76,0,0,0-3.67,2,7.48,7.48,0,0,0-1.29,4.1,6.46,6.46,0,0,0,1.27,4.42,5.83,5.83,0,0,0,3,1.81,6.63,6.63,0,0,0,7-2.13c1.78-2.44,1.12-6.07-.91-8.31-1.41-1.56-3.71-2.6-5.64-1.77" transform="translate(-807.65 -467.51)"/><path class="cls-3" d="M834.25,562c-4.07.44-5.94,4.52-5.37,8.29s4.36,5.92,8.08,5.2c8.76-1.71,4.85-15.81-3.05-13.31-.61.2-.35,1.16.27,1,6.42-2,9.93,9.26,3.15,11.23-2.91.84-6.47-.37-7.33-3.52s.55-7.46,4.25-7.86c.63-.07.64-1.07,0-1Z" transform="translate(-807.65 -467.51)"/><path class="cls-5" d="M835.15,566.21a1.52,1.52,0,0,0-1.36.44,2.7,2.7,0,0,0-.67,1.31,2.46,2.46,0,0,0,.53,2.43,2.18,2.18,0,0,0,2.12.35,2.55,2.55,0,0,0,.83-.44,2.35,2.35,0,0,0,.76-2.52,2.37,2.37,0,0,0-2.1-1.59" transform="translate(-807.65 -467.51)"/><path class="cls-3" d="M835.15,565.71c-3.27-.4-3.66,5.85,0,5.64a2.94,2.94,0,0,0,2.82-2.82,2.87,2.87,0,0,0-2.71-2.84c-.64-.06-.64.94,0,1a1.83,1.83,0,0,1,0,3.65c-2.42.27-2.08-3.88-.06-3.63.64.07.64-.93,0-1Z" transform="translate(-807.65 -467.51)"/><path class="cls-2" d="M860.22,569.91a5.7,5.7,0,0,1,2.25-3.17,19.34,19.34,0,0,1,14.15-4.5,15,15,0,0,1,12,8.34,1.13,1.13,0,0,1,.14.71,1.21,1.21,0,0,1-.34.5,21.07,21.07,0,0,1-14.7,6.45c-5.49-.06-11-3.08-13.42-8" transform="translate(-807.65 -467.51)"/><path class="cls-3" d="M860.71,570c.87-3,4.7-5,7.41-6.08a17.82,17.82,0,0,1,7.7-1.29,15.09,15.09,0,0,1,7.33,2.44c1.74,1.15,5.93,4.41,4.3,6.87-1.25,1.88-4.36,3.32-6.39,4.19a18,18,0,0,1-7.74,1.55A14.73,14.73,0,0,1,860.68,570c-.29-.57-1.16-.07-.86.5a15.85,15.85,0,0,0,14.64,8.27,20.26,20.26,0,0,0,9.16-2.7c1.53-.87,5.4-2.95,5.57-4.87.2-2.33-3.27-5.31-4.93-6.5a16.26,16.26,0,0,0-8.44-3,19.18,19.18,0,0,0-9.55,2c-2.58,1.27-5.67,3.17-6.53,6.08a.5.5,0,0,0,1,.26Z" transform="translate(-807.65 -467.51)"/><path class="cls-3" d="M861.62,567.54l-2.26-1.46c-.55-.35-1.05.51-.51.86l2.26,1.46c.55.35,1-.51.51-.86Z" transform="translate(-807.65 -467.51)"/><path class="cls-3" d="M863.45,565.39q-.83-.69-1.59-1.44c-.46-.45-1.17.26-.71.71s1,1,1.59,1.43,1.2-.29.71-.7Z" transform="translate(-807.65 -467.51)"/><path class="cls-3" d="M866,563.89a17.19,17.19,0,0,1-1.4-1.67c-.38-.51-1.25,0-.87.51a21.46,21.46,0,0,0,1.56,1.87c.45.47,1.15-.24.71-.71Z" transform="translate(-807.65 -467.51)"/><path class="cls-3" d="M868.63,562.7l-1-2.13c-.28-.58-1.14-.07-.87.51l1,2.13c.28.58,1.14.07.87-.51Z" transform="translate(-807.65 -467.51)"/><path class="cls-3" d="M871.1,561.87a4.75,4.75,0,0,1-.52-2.37c0-.64-1-.64-1,0a5.72,5.72,0,0,0,.66,2.87c.3.57,1.16.07.86-.5Z" transform="translate(-807.65 -467.51)"/><path class="cls-3" d="M873.85,561.7a20.4,20.4,0,0,1-.36-2.19c-.06-.63-1.06-.64-1,0a22.33,22.33,0,0,0,.4,2.45c.14.63,1.1.37,1-.26Z" transform="translate(-807.65 -467.51)"/><path class="cls-3" d="M876.77,561.92l.26-2.41c.07-.64-.93-.64-1,0l-.26,2.41c-.07.64.93.64,1,0Z" transform="translate(-807.65 -467.51)"/><path class="cls-3" d="M879.39,562.26a9,9,0,0,1,.64-2c.27-.58-.59-1.09-.86-.51a9.65,9.65,0,0,0-.74,2.26c-.12.63.84.9,1,.27Z" transform="translate(-807.65 -467.51)"/><path class="cls-3" d="M882.13,563.57a6.18,6.18,0,0,1,1.1-1.8c.42-.48-.29-1.19-.71-.71a7.79,7.79,0,0,0-1.35,2.24c-.24.6.73.86,1,.27Z" transform="translate(-807.65 -467.51)"/><path class="cls-3" d="M884.56,565.08A6.76,6.76,0,0,1,886,563.3c.48-.43-.23-1.13-.71-.7a7.35,7.35,0,0,0-1.56,2c-.31.56.56,1.07.86.5Z" transform="translate(-807.65 -467.51)"/><path class="cls-3" d="M886.67,567l1.71-1c.54-.34,0-1.2-.51-.87l-1.7,1c-.55.33,0,1.2.5.86Z" transform="translate(-807.65 -467.51)"/><path class="cls-3" d="M888.9,569.46a.92.92,0,0,1,.75-.36.5.5,0,0,0,0-1,1.88,1.88,0,0,0-1.46.65c-.42.49.29,1.2.71.71Z" transform="translate(-807.65 -467.51)"/><path class="cls-4" d="M872.68,563.66a4.74,4.74,0,0,0-3.67,2.05,7.43,7.43,0,0,0-1.29,4.1,6.4,6.4,0,0,0,1.26,4.42,5.91,5.91,0,0,0,3,1.81,6.64,6.64,0,0,0,7-2.13c1.78-2.44,1.11-6.07-.91-8.31-1.42-1.56-3.71-2.6-5.65-1.77" transform="translate(-807.65 -467.51)"/><path class="cls-3" d="M872.68,563.16c-4.07.44-5.95,4.52-5.38,8.29s4.37,5.92,8.09,5.2c8.76-1.71,4.84-15.81-3-13.31-.61.2-.35,1.16.26,1,6.43-2,9.94,9.26,3.15,11.23-2.91.84-6.46-.37-7.32-3.52s.54-7.46,4.25-7.86c.63-.07.64-1.07,0-1Z" transform="translate(-807.65 -467.51)"/><path class="cls-5" d="M873.58,567.4a1.51,1.51,0,0,0-1.36.44,2.71,2.71,0,0,0-.68,1.31,2.51,2.51,0,0,0,.53,2.43,2.18,2.18,0,0,0,2.12.35,2.7,2.7,0,0,0,.84-.44,2.31,2.31,0,0,0-1.35-4.11" transform="translate(-807.65 -467.51)"/><path class="cls-3" d="M873.58,566.9c-3.27-.4-3.67,5.85,0,5.64a2.92,2.92,0,0,0,2.81-2.82,2.87,2.87,0,0,0-2.71-2.84c-.64-.06-.63.94,0,1a1.83,1.83,0,0,1,0,3.65c-2.41.27-2.07-3.88,0-3.63.64.07.63-.93,0-1Z" transform="translate(-807.65 -467.51)"/><path class="cls-2" d="M841.22,588.71a5.6,5.6,0,0,1,2.24-3.17,19.34,19.34,0,0,1,14.15-4.5,15,15,0,0,1,11.95,8.34,1.07,1.07,0,0,1,.14.71,1.12,1.12,0,0,1-.34.49A21,21,0,0,1,854.67,597c-5.49,0-11-3.07-13.42-8" transform="translate(-807.65 -467.51)"/><path class="cls-3" d="M841.7,588.84c.88-3,4.7-5,7.42-6.08a17.8,17.8,0,0,1,7.7-1.29,15.12,15.12,0,0,1,7.33,2.44c1.73,1.15,5.93,4.4,4.29,6.87-1.25,1.88-4.35,3.32-6.38,4.19a18,18,0,0,1-7.75,1.55,14.73,14.73,0,0,1-12.63-7.76c-.3-.57-1.16-.07-.86.5a15.81,15.81,0,0,0,14.63,8.26,20.09,20.09,0,0,0,9.17-2.7c1.53-.86,5.4-2.94,5.56-4.86.21-2.34-3.26-5.31-4.93-6.5a16.22,16.22,0,0,0-8.43-3,19.19,19.19,0,0,0-9.56,2c-2.58,1.27-5.67,3.16-6.52,6.08-.19.61.78.88,1,.26Z" transform="translate(-807.65 -467.51)"/><path class="cls-3" d="M842.61,586.34l-2.26-1.46c-.54-.35-1,.51-.5.86l2.26,1.46c.54.35,1-.52.5-.86Z" transform="translate(-807.65 -467.51)"/><path class="cls-3" d="M844.44,584.18c-.55-.45-1.08-.93-1.59-1.43a.5.5,0,0,0-.71.71c.51.5,1,1,1.59,1.43s1.21-.29.71-.71Z" transform="translate(-807.65 -467.51)"/><path class="cls-3" d="M847,582.69a18.85,18.85,0,0,1-1.41-1.67c-.38-.51-1.25,0-.86.51a21.17,21.17,0,0,0,1.56,1.87c.44.47,1.15-.24.71-.71Z" transform="translate(-807.65 -467.51)"/><path class="cls-3" d="M849.62,581.5l-1-2.13c-.27-.58-1.14-.07-.86.51l1,2.12c.27.59,1.14.08.86-.5Z" transform="translate(-807.65 -467.51)"/><path class="cls-3" d="M852.1,580.66a4.61,4.61,0,0,1-.52-2.36c0-.65-1-.64-1,0a5.64,5.64,0,0,0,.66,2.87c.29.57,1.16.07.86-.51Z" transform="translate(-807.65 -467.51)"/><path class="cls-3" d="M854.85,580.5a18.17,18.17,0,0,1-.36-2.19c-.07-.63-1.07-.64-1,0a20.47,20.47,0,0,0,.39,2.45c.14.63,1.11.36,1-.26Z" transform="translate(-807.65 -467.51)"/><path class="cls-3" d="M857.77,580.72l.26-2.42c.06-.64-.94-.63-1,0l-.26,2.42c-.07.64.93.64,1,0Z" transform="translate(-807.65 -467.51)"/><path class="cls-3" d="M860.39,581.06a8.34,8.34,0,0,1,.64-2c.27-.58-.59-1.09-.86-.51a9.52,9.52,0,0,0-.75,2.26c-.12.63.85.9,1,.27Z" transform="translate(-807.65 -467.51)"/><path class="cls-3" d="M863.13,582.37a6.37,6.37,0,0,1,1.09-1.8c.42-.48-.28-1.19-.7-.71a7.68,7.68,0,0,0-1.36,2.24c-.24.6.73.86,1,.27Z" transform="translate(-807.65 -467.51)"/><path class="cls-3" d="M865.56,583.88A6.56,6.56,0,0,1,867,582.1c.48-.43-.23-1.13-.71-.71a7.46,7.46,0,0,0-1.56,2c-.31.57.55,1.07.86.51Z" transform="translate(-807.65 -467.51)"/><path class="cls-3" d="M867.67,585.81l1.7-1c.55-.34,0-1.2-.5-.87l-1.71,1a.5.5,0,0,0,.51.86Z" transform="translate(-807.65 -467.51)"/><path class="cls-3" d="M869.89,588.26a.9.9,0,0,1,.76-.36.5.5,0,0,0,0-1,1.89,1.89,0,0,0-1.47.65c-.41.49.29,1.2.71.71Z" transform="translate(-807.65 -467.51)"/><path class="cls-4" d="M853.67,582.46a4.76,4.76,0,0,0-3.67,2,7.48,7.48,0,0,0-1.29,4.09A6.49,6.49,0,0,0,850,593a5.83,5.83,0,0,0,3,1.81,6.63,6.63,0,0,0,7-2.13c1.78-2.44,1.12-6.08-.91-8.31-1.41-1.56-3.71-2.6-5.64-1.78" transform="translate(-807.65 -467.51)"/><path class="cls-3" d="M853.67,582c-4.07.44-5.94,4.52-5.37,8.29s4.36,5.92,8.08,5.2c8.76-1.71,4.85-15.81-3-13.31-.61.2-.35,1.16.27,1,6.42-2,9.94,9.26,3.15,11.23-2.91.84-6.47-.38-7.33-3.52s.55-7.46,4.25-7.86c.63-.07.64-1.07,0-1Z" transform="translate(-807.65 -467.51)"/><path class="cls-5" d="M854.57,586.2a1.52,1.52,0,0,0-1.36.44,2.7,2.7,0,0,0-.67,1.31,2.46,2.46,0,0,0,.53,2.43,2.2,2.2,0,0,0,2.12.35,2.55,2.55,0,0,0,.83-.44,2.35,2.35,0,0,0,.76-2.52,2.37,2.37,0,0,0-2.1-1.59" transform="translate(-807.65 -467.51)"/><path class="cls-3" d="M854.57,585.7c-3.27-.4-3.66,5.85,0,5.64a2.94,2.94,0,0,0,2.82-2.82,2.87,2.87,0,0,0-2.71-2.84c-.64-.06-.64.94,0,1a1.83,1.83,0,0,1,0,3.65c-2.42.26-2.08-3.88-.06-3.63.64.07.64-.93,0-1Z" transform="translate(-807.65 -467.51)"/><path class="cls-6" d="M875.14,476.48a75,75,0,0,1,14.32,17.79c4.61,7.88,8.48,16.43,10.27,25.62a95.08,95.08,0,0,1,1.4,18.79c-.11,16.41-2.27,33.24-9.46,47.57s-20.1,25.8-34.78,27c-18.26,1.5-35.34-13.37-42.83-32s-6.92-40.13-3.45-60.19c1.87-10.79,4.61-21.58,9.81-30.92s13.67-15.46,22.7-19.86C851.84,466,865.5,467.75,875.14,476.48ZM846,480.72c-7.4,3.77-14.33,9-18.6,17s-6.5,17.24-8,26.49c-2.85,17.17-3.31,35.58,2.82,51.55s20.13,28.71,35.1,27.42c12-1,22.61-10.86,28.5-23.13s7.66-26.69,7.75-40.76a85.56,85.56,0,0,0-1.15-16.09,72.64,72.64,0,0,0-8.41-22A64.07,64.07,0,0,0,872.22,486C864.32,478.56,853.13,477.08,846,480.72Z" transform="translate(-807.65 -467.51)"/><path class="cls-5" d="M874.79,476.83a83.9,83.9,0,0,1,21.36,32.39c4.82,12.85,5,26.69,4.08,40.23-1.63,23.3-10,51.47-33.85,61-21.94,8.79-43-8.69-51.3-28.07-5.29-12.27-6.8-25.92-6.35-39.18a149.08,149.08,0,0,1,6.28-38.9c2.19-7,5.13-14.08,9.86-19.79a51.42,51.42,0,0,1,15.06-12c5.22-2.87,10.42-4.37,16.42-3.8a32.63,32.63,0,0,1,18.44,8.14c.48.43,1.19-.28.7-.7-7.85-6.94-19.41-10.67-29.69-7.45-5.13,1.62-10.07,4.84-14.3,8.11a44,44,0,0,0-11.94,13.88c-6.59,12.21-9.25,26.42-10.87,40.08s-1.61,28,1.9,41.52c5.4,20.78,23,43.92,47,41.42,25.19-2.62,38.45-29.5,42.17-51.63a146.46,146.46,0,0,0,1.86-23.38c0-8.16-.44-16.31-2.68-24.19a84,84,0,0,0-23.46-38.36C875,475.69,874.31,476.4,874.79,476.83Z" transform="translate(-807.65 -467.51)"/><path class="cls-5" d="M845.73,480.29c-9.59,4.95-16.82,11.94-21,22-4.52,10.76-6.43,22.78-7.41,34.35-1.79,21.25,1.49,46.07,19.34,60.16,6.83,5.4,15.53,8.35,24.21,6.38,9.24-2.1,16.8-9,21.9-16.71,6.22-9.44,9.13-20.73,10.41-31.84,1.39-12,1.83-25-1.51-36.68-3.39-11.9-10-23.77-19.06-32.24-7-6.51-17.9-9.73-26.84-5.39-.58.28-.07,1.15.5.87,8.67-4.21,19.28-.85,25.93,5.51,7.8,7.45,13.52,17.23,17.16,27.33,3.86,10.73,4.1,22.15,3.44,33.41-.64,11.08-2.58,22.34-7.43,32.41-4.09,8.5-10.61,16.42-19.3,20.48s-18,2.81-25.92-2.25c-17.85-11.49-22.78-34.46-22.23-54.28.33-12.37,2.13-25.24,6.15-37,2-5.76,4.63-11.32,8.78-15.84a47.52,47.52,0,0,1,13.42-9.8C846.81,480.86,846.3,480,845.73,480.29Z" transform="translate(-807.65 -467.51)"/><g class="cls-7"><path class="cls-5" d="M829.28,494.2a107.67,107.67,0,0,0-18.95,49c-1.33,10.61-1.12,21.55,1.53,31.85s7.85,19.9,15.36,26.56a57.68,57.68,0,0,0,11.18,7.53c4.94,2.66,13,4,18.49,4.1,7.69.12,12.27-3.26,17.62-9.43s8.87-14,11.51-22.09c-6.11,8.8-13.82,17-23.51,19.63C851.28,604.47,839,599.31,831,590s-12.08-22.22-13-35.09a126.84,126.84,0,0,1-.14-13.65c.36-10.86,1.42-21.83,4.83-32a97.24,97.24,0,0,1,6.62-15.05" transform="translate(-807.65 -467.51)"/><path class="cls-5" d="M828.85,493.94c-15.79,22.2-24.06,52.5-17.91,79.44,2.82,12.33,9.19,24,19.57,31.51a43.2,43.2,0,0,0,16.79,7.77c5.1,1,10.84,1.84,15.91.26,5.54-1.72,9.84-6.26,13.28-10.74,4.63-6,7.63-13.13,10-20.3.18-.57-.61-.83-.92-.39-5.83,8.32-13.35,16.84-23.57,19.49-9.93,2.58-20.39-1.46-27.71-8.24C817.41,577.09,817,551.33,819,530.1a93.79,93.79,0,0,1,10.7-35.65c.3-.57-.56-1.08-.86-.51a92.79,92.79,0,0,0-10.43,32.45c-1.55,12.39-2.13,25.54.28,37.85,2.08,10.65,6.61,21.39,14.62,28.94,7,6.6,16.73,10.77,26.44,9.29,11.67-1.79,20.26-11.29,26.69-20.48l-.91-.38a73,73,0,0,1-8,17.39c-3.07,4.65-7.22,9.59-12.33,12.07s-11.1,1.83-16.48.85a42.21,42.21,0,0,1-16.23-6.86c-23.06-15.51-25.44-47.11-19.89-72a106.72,106.72,0,0,1,17.11-38.65c.37-.53-.49-1-.86-.51Z" transform="translate(-807.65 -467.51)"/></g></svg>