<svg id="Calque_1" data-name="Calque 1" xmlns="http://www.w3.org/2000/svg" viewBox="0 0 64.48 86.03"><defs><style>.cls-1{fill:#d34738;}.cls-2{opacity:0.34;}.cls-3{fill:#fff;}.cls-4{fill:#1d1d1b;}.cls-5{fill:#6a0f08;}.cls-6{fill:#f6f6f6;}.cls-7{opacity:0.14;}</style></defs><title>11</title><path class="cls-1" d="M835.57,502.32c-3.14-.7-7-.16-8.49,4.25a20.72,20.72,0,0,0-.65,6.51l.28,53.16c0,2.9.12,6.15,1.48,8.11a5.67,5.67,0,0,0,2.64,1.94c13,5.5,26.82-1.76,40.24.16a2.32,2.32,0,0,0,2.17-.43,4.75,4.75,0,0,0,.87-1.71,48.22,48.22,0,0,0,2-12.28c1.06-17.65-.57-35.4-2.31-52.93-.21-2.21-.5-4.62-1.57-6.1a4.78,4.78,0,0,0-3.06-1.74,54,54,0,0,0-11.4-1c-6.73-.11-13.46-.23-20.18.31" transform="translate(-820.99 -497.48)"/><path class="cls-1" d="M835.7,501.84c-5.23-1-9,1.73-9.62,7.07-.53,4.42-.12,9.07-.1,13.52l.07,13.79.14,27.56c0,3.2-.33,7,1.08,9.94,1.34,2.83,4.79,3.75,7.6,4.4,7.7,1.78,15.58,0,23.27-.92a51.32,51.32,0,0,1,12.07-.36c2.91.32,3.78-.39,4.64-3.21,2.44-8,2.12-17.09,2-25.35-.09-9.33-.74-18.66-1.57-27.95-.41-4.6-.59-9.33-1.4-13.87-.7-4-2.67-5.41-6.56-6-4.75-.79-9.64-.66-14.44-.71-5.14-.06-10.26,0-15.38.38-.64.05-.64,1.05,0,1a213.33,213.33,0,0,1,23-.25c3.37.1,9.62-.32,11.53,3,1,1.8,1,4.22,1.24,6.23l.57,5.85c1.44,15.31,2.58,30.72,1.64,46.1a52.37,52.37,0,0,1-1.45,10.5,8.54,8.54,0,0,1-1,2.76c-.89,1.06-1.89.66-2.95.55a38.73,38.73,0,0,0-5.16-.21c-6.81.16-13.48,1.8-20.28,2.18A33.51,33.51,0,0,1,834.3,577,15.89,15.89,0,0,1,830,575.3c-2.24-1.45-2.54-4.2-2.69-6.64-.43-7.33-.12-14.76-.16-22.11L827,521c0-4.14-.53-8.63.21-12.73.79-4.35,4.07-6.26,8.26-5.43.63.13.9-.84.26-1Z" transform="translate(-820.99 -497.48)"/><g class="cls-2"><path class="cls-3" d="M840.75,521.93a5.55,5.55,0,0,0-3.1,2.18,3.5,3.5,0,0,0-.16,3.66c.88,1.43,2.75,1.81,4.41,2A87.86,87.86,0,0,0,865,529.5c1.91-.28,4.1-.82,4.95-2.56s0-3.74-1.49-4.88a10.49,10.49,0,0,0-5.16-1.77,58.15,58.15,0,0,0-11.63-.67,28.75,28.75,0,0,0-10.9,2.31" transform="translate(-820.99 -497.48)"/><path class="cls-4" d="M840.61,521.45c-2.34.86-4.78,3-3.92,5.76.81,2.62,3.88,2.93,6.17,3.18a87.06,87.06,0,0,0,14.44.38c3.41-.19,7.64-.13,10.8-1.58a4,4,0,0,0,2.37-5.14c-1.05-3-4.37-3.84-7.19-4.26-7.76-1.15-15.29-1.07-22.67,1.66-.6.22-.34,1.19.27,1a36.73,36.73,0,0,1,12.22-2.36c3.51-.09,19.31-.07,16.19,6.55-1.28,2.7-5.55,2.59-8.14,2.86-2.88.29-5.77.43-8.67.44q-4.1,0-8.18-.38a21.6,21.6,0,0,1-4.16-.58l-1-.4c-1.32-.58-1.62-1.53-.89-2.86.31-2.1.68-2.54,2.68-3.27.6-.22.34-1.19-.27-1Z" transform="translate(-820.99 -497.48)"/><path class="cls-3" d="M841.74,521.94c-.8.31-1.69.73-1.89,1.55a1.82,1.82,0,0,0,.94,1.85A13.87,13.87,0,0,0,844,527a42.45,42.45,0,0,0,7.54.54,86.69,86.69,0,0,0,10.88-1,4.77,4.77,0,0,0,2.32-1,2.7,2.7,0,0,0,1.1-2.19c-.08-1.45-1.61-2.38-3-2.71" transform="translate(-820.99 -497.48)"/><path class="cls-4" d="M841.48,521.51c-3.46,1.47-1.92,3.81.63,5.19,3.68,2,8.95,1.41,13,1.13,3-.2,7.68,0,10-2,2.66-2.28.51-5-2.14-5.75a.5.5,0,0,0-.27,1,4.24,4.24,0,0,1,2,1c2.3,3.12-2,3.83-3.41,4.08-.8.14-1.61.22-2.42.32-1.72.22-3.45.37-5.19.46a42.09,42.09,0,0,1-7.1-.13,11.15,11.15,0,0,1-3.71-.8,5,5,0,0,1-1.28-.73c-.5-.7-.54-2.48.39-2.88.59-.25.08-1.11-.51-.86Z" transform="translate(-820.99 -497.48)"/><path class="cls-3" d="M842.3,526.24a5.81,5.81,0,0,1,3.52-2.32,65.65,65.65,0,0,1,15.09-.51c1.51.08,3.26.31,4,1.6" transform="translate(-820.99 -497.48)"/><path class="cls-4" d="M842.73,526.49c2.1-3.16,7.76-2.72,11.08-2.77,2.88,0,8.83-.82,10.79,1.64.4.5,1.1-.21.7-.71a5,5,0,0,0-3.73-1.69,68.23,68.23,0,0,0-8.7-.22c-3.56.1-8.76-.13-11,3.24-.36.54.51,1,.86.51Z" transform="translate(-820.99 -497.48)"/><path class="cls-3" d="M838.28,528.63c1.54,1.78.94,3.22,1,4.47a3.33,3.33,0,0,0,1.23,2.65l-.34-.12a79.55,79.55,0,0,0,2.93,11,27.11,27.11,0,0,0,5.84,9.69c.78.79,1.63,1.51,2.43,2.28a2.91,2.91,0,0,1,.8,1,3.2,3.2,0,0,1,.11,1.07l-.1,5.4h3.52l-.09-5.6a3.18,3.18,0,0,1,.11-1.11,2.94,2.94,0,0,1,.8-1.09c.8-.79,1.64-1.54,2.42-2.36a28.18,28.18,0,0,0,5.85-10,88.22,88.22,0,0,0,2.93-11.4l-.34.11a3.32,3.32,0,0,0,1.19-2.65c.1-1.24-.3-2.6,1.32-5" transform="translate(-820.99 -497.48)"/><path class="cls-4" d="M837.85,528.88c1.64,2.22.12,5.34,2.35,7.22l.49-.83-.35-.12a.5.5,0,0,0-.61.62c1.18,5.46,2.4,11,5.19,15.93a24.43,24.43,0,0,0,4.3,5.55c1.45,1.41,2.44,2.22,2.58,4.37.1,1.48,0,3-.08,4.5a.51.51,0,0,0,.5.5h3.52a.5.5,0,0,0,.5-.5c0-1.53-.2-3.15-.08-4.67.19-2.23,1.12-3.07,2.58-4.53a25.77,25.77,0,0,0,4.5-6.13c2.67-5,3.85-10.63,5-16.14.07-.35-.23-.75-.62-.61l-.33.11.49.84a3.94,3.94,0,0,0,1.29-2.7c.24-1.94.21-3.32,1.29-5.1.34-.55-.53-1.05-.86-.5a8,8,0,0,0-1.32,3.41c-.17,1.5.22,3-1.11,4.18a.5.5,0,0,0,.49.83l.33-.11-.62-.61c-1.45,6.93-3,14.33-7.55,20-1.39,1.71-4.19,3.24-4.55,5.53a16.74,16.74,0,0,0,0,4.36,12.82,12.82,0,0,1,.22,1.37,4.9,4.9,0,0,1-1.21,0,5.54,5.54,0,0,1-1.35,0c-.61-.18-.22.16-.35-.2s.25-1.95.26-2.45c0-.74.08-1.51,0-2.25-.14-2.47-2.49-3.64-4-5.35-4.95-5.44-6.58-12.89-8.09-19.87l-.61.62.34.11a.51.51,0,0,0,.49-.84c-1.45-1.22-.92-2.74-1.07-4.33a4.9,4.9,0,0,0-1.13-2.68c-.38-.51-1.25,0-.86.5Z" transform="translate(-820.99 -497.48)"/><path class="cls-3" d="M842.4,535.84c5.47,1.73,5.33,2.51,11.58,2.49,3.2,0,9.53-.85,11.27-2" transform="translate(-820.99 -497.48)"/><path class="cls-4" d="M842.27,536.33c4.15,1.34,7.53,2.58,12,2.5,3.52-.07,8.16-.27,11.28-2.07a.5.5,0,0,0-.51-.87c-3.16,1.84-7.9,1.94-11.46,1.94-4.06,0-7.22-1.24-11-2.47-.61-.2-.87.77-.26,1Z" transform="translate(-820.99 -497.48)"/><path class="cls-3" d="M850.05,541a15.82,15.82,0,0,0,7.91.22" transform="translate(-820.99 -497.48)"/><path class="cls-4" d="M849.92,541.51a17.37,17.37,0,0,0,8.17.23c.63-.14.37-1.1-.26-1a16.18,16.18,0,0,1-7.64-.22.5.5,0,0,0-.27,1Z" transform="translate(-820.99 -497.48)"/></g><path class="cls-5" d="M843.52,546.91c.73,3.27,2.73,6.1,4.85,8.69a9,9,0,0,0,3.4,2.91,6.24,6.24,0,0,0,5.83-1,15,15,0,0,0,3.89-4.75,51.3,51.3,0,0,0,3.14-6.35c-1.39,2-4,2.52-6.43,2.76a50.49,50.49,0,0,1-8.78.08c-2.08-.16-4.7-.6-5.9-2.3" transform="translate(-820.99 -497.48)"/><path class="cls-4" d="M843,547a22.49,22.49,0,0,0,4.45,8.26c1.61,2,3.37,4,6.15,4,6.23,0,9.42-8,11.42-12.71.2-.47-.38-1.09-.78-.61-2.42,2.92-7,2.8-10.47,2.84-3.13,0-7.71.33-9.94-2.31-.41-.49-1.11.22-.7.71,2.43,2.88,7.25,2.63,10.64,2.6,3.75,0,8.56,0,11.17-3.13l-.78-.61c-1.7,4-4.35,11-9.18,12-5.48,1.15-9.87-6.94-11-11.38a.5.5,0,0,0-1,.27Z" transform="translate(-820.99 -497.48)"/><path class="cls-5" d="M843.55,547a2.66,2.66,0,0,1,2-1,57,57,0,0,1,18.44,0c.22,0,.48.12.52.33s-.16.38-.33.49a16.34,16.34,0,0,1-7.05,2.28,47.63,47.63,0,0,1-7.46,0,13.75,13.75,0,0,1-3.27-.41,4.69,4.69,0,0,1-2.67-1.84" transform="translate(-820.99 -497.48)"/><path class="cls-4" d="M843.9,547.32c1.11-1.29,3.88-1.21,5.33-1.36s3.08-.24,4.62-.26,3.09,0,4.63.1c.93.06,1.85.14,2.77.25l1.7.22q1.51,0,.6.3c-.7,1-3.32,1.4-4.49,1.64a26.42,26.42,0,0,1-5.18.48c-3.12,0-7.65.51-9.78-2.23-.4-.51-1.1.21-.71.71,2.53,3.24,8.27,2.65,11.89,2.49a20.65,20.65,0,0,0,6.83-1.31c.77-.31,2.83-.87,2.89-2,.16-2.6-19.62-2.32-21.81.23-.41.49.29,1.2.71.71Z" transform="translate(-820.99 -497.48)"/><path class="cls-4" d="M840.61,521.45c-2.34.86-4.78,3-3.92,5.76.81,2.62,3.88,2.93,6.17,3.18a87.06,87.06,0,0,0,14.44.38c3.41-.19,7.64-.13,10.8-1.58a4,4,0,0,0,2.37-5.14c-1.05-3-4.37-3.84-7.19-4.26-7.76-1.15-15.29-1.07-22.67,1.66-.6.22-.34,1.19.27,1a36.73,36.73,0,0,1,12.22-2.36c3.51-.09,19.31-.07,16.19,6.55-1.28,2.7-5.55,2.59-8.14,2.86-2.88.29-5.77.43-8.67.44q-4.1,0-8.18-.38a21.6,21.6,0,0,1-4.16-.58l-1-.4c-1.32-.58-1.62-1.53-.89-2.86.31-2.1.68-2.54,2.68-3.27.6-.22.34-1.19-.27-1Z" transform="translate(-820.99 -497.48)"/><path class="cls-4" d="M841.48,521.51c-3.46,1.47-1.92,3.81.63,5.19,3.68,2,8.95,1.41,13,1.13,3-.2,7.68,0,10-2,2.66-2.28.51-5-2.14-5.75a.5.5,0,0,0-.27,1,4.24,4.24,0,0,1,2,1c2.3,3.12-2,3.83-3.41,4.08-.8.14-1.61.22-2.42.32-1.72.22-3.45.37-5.19.46a42.09,42.09,0,0,1-7.1-.13,11.15,11.15,0,0,1-3.71-.8,5,5,0,0,1-1.28-.73c-.5-.7-.54-2.48.39-2.88.59-.25.08-1.11-.51-.86Z" transform="translate(-820.99 -497.48)"/><path class="cls-4" d="M842.73,526.49c2.1-3.16,7.76-2.72,11.08-2.77,2.88,0,8.83-.82,10.79,1.64.4.5,1.1-.21.7-.71a5,5,0,0,0-3.73-1.69,68.23,68.23,0,0,0-8.7-.22c-3.56.1-8.76-.13-11,3.24-.36.54.51,1,.86.51Z" transform="translate(-820.99 -497.48)"/><path class="cls-4" d="M837.93,529c1.71,2.18,0,5.38,2.37,7.2.51.39,1-.48.51-.86-1.31-1-.89-2.7-1-4.09a5,5,0,0,0-1.22-3c-.4-.51-1.1.2-.7.7Z" transform="translate(-820.99 -497.48)"/><path class="cls-4" d="M869.5,526.69a8.06,8.06,0,0,0-1.34,3.53c-.13,1.44.2,3-1.09,4.06-.5.4.21,1.11.71.71a4.3,4.3,0,0,0,1.35-3.39,8,8,0,0,1,1.23-4.41c.35-.54-.52-1-.86-.5Z" transform="translate(-820.99 -497.48)"/><path class="cls-4" d="M867.27,534.39c-1.45,6.93-3,14.33-7.55,20-1.39,1.71-4.19,3.24-4.55,5.53a16.74,16.74,0,0,0,0,4.36,12.82,12.82,0,0,1,.22,1.37,4.9,4.9,0,0,1-1.21,0,5.54,5.54,0,0,1-1.35,0c-.61-.18-.22.16-.35-.2s.25-1.95.26-2.45c0-.74.08-1.51,0-2.25-.14-2.47-2.49-3.64-4-5.35-4.95-5.44-6.58-12.89-8.09-19.87-.14-.63-1.1-.36-1,.27,1.18,5.46,2.4,11,5.19,15.93a24.43,24.43,0,0,0,4.3,5.55c1.45,1.41,2.44,2.22,2.58,4.37.1,1.48,0,3-.08,4.5a.51.51,0,0,0,.5.5h3.52a.5.5,0,0,0,.5-.5c0-1.53-.2-3.15-.08-4.67.19-2.23,1.12-3.07,2.58-4.53a25.77,25.77,0,0,0,4.5-6.13c2.67-5,3.85-10.63,5-16.14.13-.63-.83-.9-1-.26Z" transform="translate(-820.99 -497.48)"/><path class="cls-4" d="M842.27,536.33c4.15,1.34,7.53,2.58,12,2.5,3.52-.07,8.16-.27,11.28-2.07a.5.5,0,0,0-.51-.87c-3.16,1.84-7.9,1.94-11.46,1.94-4.06,0-7.22-1.24-11-2.47-.61-.2-.87.77-.26,1Z" transform="translate(-820.99 -497.48)"/><path class="cls-4" d="M849.92,541.51a17.37,17.37,0,0,0,8.17.23c.63-.14.37-1.1-.26-1a16.18,16.18,0,0,1-7.64-.22.5.5,0,0,0-.27,1Z" transform="translate(-820.99 -497.48)"/><path class="cls-6" d="M884.1,580.41a5.8,5.8,0,0,1-2.31.44L858.92,582c-9.87.49-35.29.78-35.29.78-.9-1.17-1.42-35.06-1.85-48.71-.29-9.12,1.23-33.58,1.66-33.94a2.81,2.81,0,0,1,1.72-.44l49.25-1.33c2.74-.07,5.49-.14,8.24-.08C882.65,498.27,886.07,579.42,884.1,580.41ZM873.46,508c-1.89-.05-3.79,0-5.68.06l-34,1a1.71,1.71,0,0,0-1.18.33c-.3.28.08-.42,0,0-1.27,6.9-1.33,19.16-1.12,26.21.32,10.54,1.6,37.46,1.6,37.46s5.26.6,6.78.52l17.3-.94,15.79-.86a3.5,3.5,0,0,0,1.59-.34C875.9,570.67,873.46,508,873.46,508Z" transform="translate(-820.99 -497.48)"/><path class="cls-4" d="M883.9,579.69c-2.43.87-5.49.58-8.07.71l-8.45.42c-3.92.19-7.83.42-11.75.56-6.31.23-12.62.34-18.94.45l-8.22.12c-1.05,0-3.61-.45-4.53.06-.47.26.12.51.28.16a6.14,6.14,0,0,0-.2-1.73c-.18-2-.26-4.06-.35-6.08-1-23.63-1.93-47.43.12-71a8.47,8.47,0,0,1,.25-2.47c.33-.64-.33,0,.61-.44s3.33-.06,4.45-.09l17.73-.48c11.92-.32,23.89-1,35.82-.83l-.75-.75c1,23.43,2,46.92,2.06,70.38,0,2.61,0,5.22-.1,7.83,0,.82-.06,1.65-.16,2.47-.07.57-.42,1.11,0,.81-.8.54-.05,1.84.76,1.3s.69-1.8.76-2.58c.17-1.92.18-3.86.2-5.79.08-6.47-.06-13-.2-19.42-.33-14.83-.85-29.66-1.42-44.48l-.42-10.52a.76.76,0,0,0-.75-.75c-11.27-.19-22.59.47-33.85.78l-16.74.45c-2.4.06-5.14-.22-7.51.22-.78.14-1.5.29-1.87,1-.55,1.11-.37,3.1-.47,4.29-.24,3-.42,5.95-.59,8.93-.36,6.4-.69,12.82-.62,19.23.13,12.88.56,25.79,1,38.66.09,2.59.19,5.18.36,7.77.08,1.1-.09,2.88.43,3.9.42.84.92.73,1.77.73,2,0,4.1-.06,6.15-.09,7.52-.11,15-.23,22.58-.46,4.19-.13,8.37-.36,12.55-.57l10-.49c2.73-.14,5.87.16,8.47-.77C885.2,580.81,884.81,579.36,883.9,579.69Z" transform="translate(-820.99 -497.48)"/><path class="cls-4" d="M873.46,507.26c-7.21-.12-14.46.31-21.68.52l-11,.31c-2.82.09-5.79-.11-8.5.6l.85,1.1.09-.16-1.38-.18c.26,1-.48,3.27-.59,4.35-.17,1.71-.28,3.43-.37,5.14-.2,3.82-.26,7.64-.24,11.45,0,5.42.28,10.83.51,16.24q.54,13.22,1.18,26.42a.78.78,0,0,0,.75.75,83.28,83.28,0,0,0,14.3.11L869,572.74c2.3-.13,6.08.72,6.5-2.17a42.69,42.69,0,0,0,.19-5.77c.09-14.64-.52-29.31-1-43.94q-.23-6.43-.47-12.85c0-1-1.54-1-1.5,0q.6,15.33,1,30.67c.21,7.28.4,14.57.45,21.85,0,2.47,0,4.93,0,7.4,0,.74,0,1.48-.11,2.21-.09,1,0,.92-1.09.88-4.23-.13-8.6.47-12.83.7l-11.23.61a92.74,92.74,0,0,1-15.81,0l.75.75q-.63-13.37-1.2-26.72c-.23-5.55-.47-11.1-.49-16.66,0-3.83.06-7.66.28-11.49.1-1.69.22-3.38.4-5.07.13-1.14.76-2.91.47-4.06a.76.76,0,0,0-1.37-.18l-.08.16a.76.76,0,0,0,.84,1.1c2.88-.75,6.12-.48,9.1-.56l10.49-.31c7.05-.2,14.13-.62,21.18-.5A.75.75,0,0,0,873.46,507.26Z" transform="translate(-820.99 -497.48)"/><g class="cls-7"><path class="cls-4" d="M874.27,507.22a5.57,5.57,0,0,1,2.41-2.37l.47,26.61c.14,8,1.14,39,.92,44.62-.73-1.5-2.52-2.39-2.9-4a6.38,6.38,0,0,1,.1-2.34,29.59,29.59,0,0,0,.17-5L874.68,527l-.14-6.89c-.08-4-.16-8-.54-11.92" transform="translate(-820.99 -497.48)"/><path class="cls-4" d="M874.92,507.6a5.68,5.68,0,0,1,2.14-2.1l-1.13-.65c.25,13.92.48,27.83.85,41.75.26,9.79.88,19.68.54,29.48l1.39-.38a16.67,16.67,0,0,0-1.47-1.88,4.88,4.88,0,0,1-1.22-4.1,62.18,62.18,0,0,0,.11-8l-.37-18.36c-.24-11.69,0-23.53-1-35.18-.09-1-1.59-1-1.5,0,1.11,12.31.8,24.82,1,37.17q.19,9.42.38,18.85c0,1.28.08,2.56,0,3.83s-.52,2.7-.26,4c.36,1.85,2.09,2.85,3,4.4a.76.76,0,0,0,1.4-.38c.34-9.8-.28-19.69-.54-29.48-.37-13.92-.6-27.83-.85-41.75a.75.75,0,0,0-1.12-.64,7.15,7.15,0,0,0-2.69,2.63.75.75,0,0,0,1.3.76Z" transform="translate(-820.99 -497.48)"/></g><g class="cls-7"><path class="cls-4" d="M832.39,509.75a15.13,15.13,0,0,0-3.9-3.27c-.92,10.24.45,62.35,1.08,69.85a5.53,5.53,0,0,0,3-4.25,11.07,11.07,0,0,0-.15-2.87c-1.8-13.4-1.88-27-2-40.5,0-2.61,0-5.22.07-7.83a88,88,0,0,1,1-10.12" transform="translate(-820.99 -497.48)"/><path class="cls-4" d="M832.92,509.22a18.53,18.53,0,0,0-4-3.39.76.76,0,0,0-1.13.65c-.73,8.54-.33,17.26-.21,25.83q.22,16.65.79,33.31c.13,3.57.21,7.15.5,10.71A.76.76,0,0,0,830,577c4.38-2.49,3.33-6.86,2.85-11.12-.69-6.08-1.06-12.19-1.26-18.3-.4-12.11-1-24.59.73-36.6.14-.94-1.3-1.35-1.44-.4-1.58,10.62-1.14,21.46-.92,32.17.11,5.47.33,10.94.75,16.4.21,2.73.47,5.45.81,8.16.39,3.21,1,6.52-2.28,8.4l1.13.64c-.65-7.92-.69-15.93-.89-23.87-.29-11.28-.52-22.57-.49-33.85,0-4,0-8.11.3-12.13l-1.13.64a17.52,17.52,0,0,1,3.75,3.16c.65.72,1.7-.34,1.06-1.06Z" transform="translate(-820.99 -497.48)"/></g><g class="cls-7"><path class="cls-4" d="M875.49,504.45l-46.86,2.11c1.7.16,2.75,2.11,4.43,2.47a5.07,5.07,0,0,0,1.86-.06q3.52-.53,7.08-.76c3.08-.21,6.17-.26,9.25-.3,6.61-.1,13.21-.2,19.81,0a5.58,5.58,0,0,0,2.08-.18c1.36-.49,2.09-1.92,2.7-3.22" transform="translate(-820.99 -497.48)"/><path class="cls-4" d="M875.49,503.7l-46.86,2.11c-.82,0-1.07,1.28-.2,1.47,1.73.39,2.7,2.09,4.43,2.48,2,.45,4.47-.39,6.48-.58,4.62-.46,9.26-.49,13.89-.55,5-.07,9.91-.12,14.86,0,1.71,0,3.79.46,5.43-.2s2.3-2.09,3-3.49c.42-.86-.87-1.62-1.29-.75-.61,1.27-1,2.17-2.42,2.68a9.34,9.34,0,0,1-3.69.29q-3-.09-5.94-.09c-4.27,0-8.54,0-12.81.11-4,.06-7.93.17-11.88.6-1.85.2-4.45,1.05-6.17.1-1.29-.71-2-1.7-3.46-2l-.19,1.47,46.86-2.11c1,0,1-1.54,0-1.5Z" transform="translate(-820.99 -497.48)"/></g><g class="cls-7"><path class="cls-4" d="M874.45,572.51a7.47,7.47,0,0,1,3.11,3.55l-47.83-.27c1-1,2.17-2.08,3.61-2.21a6.63,6.63,0,0,1,1.6.11c4.13.55,8.32.12,12.47-.2a258.7,258.7,0,0,1,26.56-.72" transform="translate(-820.99 -497.48)"/><path class="cls-4" d="M874.07,573.16a7.65,7.65,0,0,1,2.84,3.28l.65-1.13L829.73,575l.54,1.28a7,7,0,0,1,2.57-1.88,8.31,8.31,0,0,1,3.06.11,40.28,40.28,0,0,0,4.79.13c3.72-.1,7.43-.53,11.14-.75,7.37-.45,14.76-.57,22.14-.41a.75.75,0,0,0,0-1.5q-12.56-.28-25.09.6a84.83,84.83,0,0,1-12,.5c-1.44-.1-3-.55-4.4-.13a8.48,8.48,0,0,0-3.25,2.27.76.76,0,0,0,.53,1.28l47.83.27a.76.76,0,0,0,.64-1.13,9,9,0,0,0-3.37-3.82c-.82-.52-1.57.77-.76,1.3Z" transform="translate(-820.99 -497.48)"/></g></svg>