<svg id="Calque_1" data-name="Calque 1" xmlns="http://www.w3.org/2000/svg" viewBox="0 0 162.97 260.55"><defs><style>.cls-1{fill:#313233;stroke:#1d1d1b;}.cls-1,.cls-7{stroke-miterlimit:10;}.cls-2{fill:#714432;}.cls-3{fill:#1d1d1b;}.cls-4{opacity:0.75;}.cls-5{fill:#432b1d;}.cls-6{fill:#fff;}.cls-7{fill:none;stroke:#fff;stroke-width:0.75px;}</style></defs><title>13</title><rect class="cls-1" x="15.27" y="23.51" width="132.4" height="208.3"/><path class="cls-2" d="M784.91,443.29a16.15,16.15,0,0,1-4.69-2.79,5.2,5.2,0,0,1-1.6-2,6.08,6.08,0,0,1-.18-2.62l.25-3.3a8.14,8.14,0,0,1,1.33-4.61c1.48-1.82,4-1.81,6.38-1.83,4.64.26,22.86,1.1,27.52,1.15a176.79,176.79,0,0,0,22.37-1.2c-3.57-2.81-5-7.25-6.41-11.57a2.68,2.68,0,0,1-.13-1.67c.38-1,1.71-1.23,2.8-1.27q23.58-.77,47.18.61a3.24,3.24,0,0,1,2.5.89,2.16,2.16,0,0,1,.44,1.93c-1.9,5.61-4.5,8.6-7.54,12.31l0,.41c4.64.26,22.87,1.1,27.52,1.15A174.9,174.9,0,0,0,925,427.63l.47-.11,1.14-.21a7.61,7.61,0,0,1,4.28.31c3.83,1.58,4.26,11,2.07,12.58-1.87,1.36-2,1.27-5.66,3.35l3.14-1.75c-1.3,47.2-7.1,150.61-4.31,197.75l-3.77-1.26a16.2,16.2,0,0,1,4.7,2.79,5.2,5.2,0,0,1,1.6,2,6.24,6.24,0,0,1,.18,2.62l-.26,3.29a8.06,8.06,0,0,1-1.32,4.62c-1.49,1.82-4,1.81-6.38,1.83-4.65-.26-22.87-1.1-27.52-1.15a176.79,176.79,0,0,0-22.37,1.2c3.56,2.81,5,7.25,6.4,11.57a2.54,2.54,0,0,1,.13,1.67c-.37,1-1.7,1.23-2.79,1.27q-23.6.76-47.18-.61a3.24,3.24,0,0,1-2.5-.89,2.14,2.14,0,0,1-.44-1.93c1.89-5.61,4.5-8.6,7.54-12.31l0-.41c-4.65-.26-22.87-1.1-27.52-1.15A174.8,174.8,0,0,0,782.28,654l-.47.11-1.15.21a7.57,7.57,0,0,1-4.27-.31c-3.83-1.58-4.27-11-2.08-12.58,1.87-1.36,2-1.27,5.67-3.36l-3,.6c1.3-47.19,5.62-150.81,2.82-197.94m134.78,9.79c-1-5.74-118.55-6.21-121.33-1.21s-1.24,180.64-1.24,180.64c3.91,4.32,108.47,2.47,114.77-1S915.65,456.12,914.63,450.47Z" transform="translate(-772.24 -410.52)"/><path class="cls-3" d="M785.11,442.56c-1.82-.75-4.58-2.06-5.56-3.9-.89-1.67-.27-4.29-.11-6.12.24-2.56.74-4.83,3.65-5.48a15.18,15.18,0,0,1,3.87-.18c4.5.17,9,.44,13.51.64a231.62,231.62,0,0,0,35.82-.72c.57-.07,1.08-.82.53-1.28a18,18,0,0,1-5.13-8c-.53-1.44-2-4-.07-5.13,1.08-.66,4-.18,5.35-.21q11.06-.27,22.12-.06c3.61.06,7.21.17,10.82.31q2.7.1,5.4.24c1.4.07,4.33-.29,5.6.4,2.78,1.51-1.88,7.95-3,9.52s-3.39,3.3-3.56,5.11a.76.76,0,0,0,.75.75c11.16.62,22.41,1.38,33.59,1.11,4.57-.11,9.14-.42,13.68-.88,3.25-.33,8-2.07,9.94,1.41a11.38,11.38,0,0,1,.89,8.22c-.78,2.3-4.34,3.5-6.29,4.61a.75.75,0,0,0,.76,1.29l3.14-1.75-1.13-.65c-.68,24.79-1.86,49.57-2.8,74.35-1.09,28.41-2.09,56.83-2.24,85.26-.07,12.71,0,25.44.73,38.14l.95-.73-3.77-1.25c-.93-.31-1.26,1.09-.39,1.45,1.82.74,4.58,2.06,5.56,3.9.89,1.67.27,4.29.1,6.11-.23,2.57-.74,4.84-3.64,5.49a15.2,15.2,0,0,1-3.87.18c-4.5-.18-9-.44-13.51-.64a231.57,231.57,0,0,0-35.82.72c-.57.07-1.09.82-.53,1.28a18,18,0,0,1,5.13,8c.52,1.44,2,4,.07,5.13-1.09.66-4,.18-5.35.21q-11.07.27-22.13.06c-3.6-.06-7.21-.17-10.81-.31q-2.7-.1-5.4-.24c-1.41-.07-4.33.29-5.6-.4-2.78-1.51,1.87-7.95,3-9.52,1-1.42,3.39-3.3,3.56-5.11a.76.76,0,0,0-.75-.75c-11.16-.63-22.42-1.38-33.59-1.11-4.57.11-9.14.42-13.69.88-3.24.33-8,2.07-9.94-1.42a11.4,11.4,0,0,1-.88-8.21c.77-2.3,4.34-3.5,6.29-4.61a.75.75,0,0,0-.58-1.37l-2.95.6.95.72c.69-24.83,1.6-49.66,2.31-74.49.81-28.47,1.5-56.95,1.43-85.43,0-12.67-.18-25.36-.92-38-.06-1-1.56-1-1.5,0,1.45,24.76,1,49.66.62,74.45-.46,28.49-1.34,57-2.25,85.44-.41,12.69-.84,25.37-1.19,38a.77.77,0,0,0,1,.73l2.95-.6-.58-1.37c-1.85,1-4.24,2-5.82,3.47-1.2,1.13-1.45,2.91-1.52,4.48-.19,4,1.06,9.22,5.7,9.79a14,14,0,0,0,4.17-.37c1.91-.32,3.87-.46,5.81-.62,4.15-.36,8.31-.58,12.47-.63,5.18-.07,10.35.16,15.52.38,5.41.23,10.83.46,16.24.76l-.75-.75c-.09.9-2,2.5-2.55,3.27a33.69,33.69,0,0,0-2.69,4c-1.12,2-3.61,5.74-1.68,7.91,1,1.13,2.63,1.08,4,1.17,2.29.14,4.58.24,6.87.34q7.38.31,14.75.43t14.75,0c2.29,0,4.59-.07,6.88-.14,1.55,0,3.52.2,5-.45,2.92-1.28.93-5,.14-7.11A19.22,19.22,0,0,0,871.5,655l-.53,1.28c14.21-1.58,28.25-1.08,42.49-.42,4.09.19,11.5,1.88,14.43-1.83a8,8,0,0,0,1.36-4.29,24,24,0,0,0,.31-6c-.51-3.2-4.34-5.1-7-6.2l-.39,1.45,3.76,1.25a.75.75,0,0,0,1-.72c-1.44-24.72-.76-49.58-.12-74.31.74-28.43,1.93-56.85,3.06-85.27.51-12.72,1-25.45,1.37-38.17a.75.75,0,0,0-1.12-.65l-3.15,1.76.76,1.29c1.85-1.05,4.23-2,5.81-3.47,1.2-1.13,1.45-2.91,1.53-4.48.19-4-1.06-9.22-5.71-9.79a13.89,13.89,0,0,0-4.16.37c-1.92.32-3.88.45-5.81.62-4.15.36-8.31.58-12.48.63-5.17.07-10.34-.16-15.51-.38-5.41-.23-10.83-.46-16.24-.76l.75.75c.08-.9,2-2.5,2.55-3.27a35.84,35.84,0,0,0,2.69-4c1.12-2,3.61-5.75,1.68-7.91-1-1.13-2.63-1.08-4-1.17-2.29-.14-4.59-.24-6.88-.34q-7.36-.31-14.74-.43t-14.75,0q-3.45,0-6.88.13c-1.56.05-3.52-.19-5,.46-2.91,1.28-.92,5-.13,7.11a19.22,19.22,0,0,0,5.39,8.31l.53-1.28c-14.21,1.58-28.26,1.08-42.49.42-4.09-.19-11.5-1.88-14.43,1.83a8.05,8.05,0,0,0-1.37,4.29,24,24,0,0,0-.3,6c.5,3.2,4.33,5.1,7,6.2.9.37,1.28-1.09.4-1.45Z" transform="translate(-772.24 -410.52)"/><path class="cls-3" d="M915.35,450.27c-.39-1.63-3.44-2-4.72-2.21a106.62,106.62,0,0,0-12-1.43c-12.54-1-25.14-1.31-37.72-1.48-13.6-.18-27.21-.13-40.8.34-5.24.19-10.48.42-15.71.86a51.72,51.72,0,0,0-9.6,1.33c-1.46.42-2.23.89-2.51,2.38a45.52,45.52,0,0,0-.54,6.59c-.45,9-.55,18-.66,27-.33,27.18-.28,54.36-.19,81.53q.1,30.28.34,60.57c0,1.18-.3,2.89,0,4,.46,1.61,3.18,1.71,4.57,1.91,10.26,1.48,20.87,1.31,31.21,1.4q21.52.17,43-.56c10.69-.35,21.52-.58,32.14-2,1.61-.21,4.35-.21,5.47-1.62s1.24-3.66,1.51-5.24c1.45-8.34,1.91-16.87,2.46-25.3,1.75-27.07,2.49-54.21,3.11-81.32.47-20.8,1.06-41.64.72-62.45a29.34,29.34,0,0,0-.2-4.4c-.16-.95-1.61-.55-1.44.4.68,4,.2,9.74.18,14.18,0,10.49-.17,21-.35,31.46-.45,27.16-1.15,54.32-2.4,81.45-.51,11.06-1.08,22.13-2.06,33.16-.33,3.71-.68,7.43-1.25,11.11-.28,1.82-.46,4.22-1.36,5.83-.28.5-.2.4-.94.61a23.83,23.83,0,0,1-3.57.64c-4.36.58-8.77.86-13.16,1.12-13.12.8-26.27,1.14-39.4,1.32s-26.3.23-39.44-.27c-4.36-.16-8.75-.34-13.08-.88a20.62,20.62,0,0,1-3.59-.65c-.29-.09-.57-.24-.85-.34-.11,0,.2.75.17.34-.28-4.57-.07-9.21-.11-13.78q-.11-15.3-.18-30.6c-.13-26.8-.2-53.6-.06-80.39.06-11.38.14-22.75.38-34.13.13-6.51,0-13.17.83-19.65a4.7,4.7,0,0,1,.29-1.58c0-.06-.11.1.09,0a3.15,3.15,0,0,1,1-.39,42.15,42.15,0,0,1,9.09-1.31c11.35-1,22.78-1.16,34.16-1.27,13.58-.14,27.18,0,40.76.47,10,.35,20.15.55,30,2.21a23.63,23.63,0,0,1,3.62.8,8.84,8.84,0,0,1,1.23.58C914.13,451.61,915.58,451.21,915.35,450.27Z" transform="translate(-772.24 -410.52)"/><g class="cls-4"><path class="cls-5" d="M834.77,412.24a19.74,19.74,0,0,0,6.65,14.22c-2.89.8-5.78-1.52-7.21-4.15a26.92,26.92,0,0,1-1.62-3.88,15.23,15.23,0,0,1-1.06-4.05,2.31,2.31,0,0,1,.13-1.14c.48-1.09,2-1.1,3.18-.93" transform="translate(-772.24 -410.52)"/><path class="cls-5" d="M834,412.24A21,21,0,0,0,840.89,427l.33-1.26c-3.78.72-6.13-2.92-7.33-5.92-.41-1-.81-2.1-1.13-3.18s-.77-1.95.18-2.95c.79-.83.86-.73,1.9-.62s1-1.4,0-1.5c-5.68-.6-3.87,4.77-2.54,8.25,1.52,4,4.45,8.3,9.31,7.37a.76.76,0,0,0,.34-1.25,19.47,19.47,0,0,1-6.43-13.69c0-1-1.55-1-1.5,0Z" transform="translate(-772.24 -410.52)"/></g><g class="cls-4"><path class="cls-5" d="M779.14,615l-1.65,17.2c-.23,2.42-.12,5.48,2.09,6.49a9.4,9.4,0,0,0-6.21,7.44c-.38,3.38,1.81,7,5.11,7.82a13.72,13.72,0,0,0,5.41-.17c15.92-2.48,32.15-.92,48.18.65-.59-.54-10.09,13.08-7,14.16,2.5.89,12.25,1.06,10.69.57-21.07-6.57,44.09-33.63,46-33.94,6.59-1.08,29.59-7.31,25.1-6.31-21.73,4.87-114.82,4.91-114.83.72,0-7.49-1.49-62-1.56-85.1l-5.29-53.42c-1.3-13.18-2.6-26.51-.82-39.63a14.43,14.43,0,0,1,1.5-5.31,5.54,5.54,0,0,1,4.41-3,10.38,10.38,0,0,1-5.37-16.95l-.54.64c-5.16,3-6.12,11.26-1.78,15.37l-1.7-.12a1560.35,1560.35,0,0,1-1.72,158.49c-.32,5.13-.66,10.3.12,15.38Z" transform="translate(-772.24 -410.52)"/><path class="cls-5" d="M778.39,615c-.52,5.41-1,10.83-1.56,16.24-.27,2.9-.52,6.44,2.37,8.1l.18-1.37c-4.34,1.76-7.86,6.16-6.52,11.05a8.2,8.2,0,0,0,4,5.11c2.57,1.33,5.51.62,8.21.23,15.6-2.26,31.42-.7,47,.82.88.08.95-1.22.2-1.48-1.48-.5-3.62,3.53-4.2,4.4-1.68,2.52-3.93,5.66-4.33,8.75-.36,2.8,2.31,2.83,4.48,3.05a51.93,51.93,0,0,0,6,.28c.61,0,2,.15,2.33-.55a.77.77,0,0,0-.11-.91c-1.28-1.12-3.85-.94-4.13-3.13-.25-1.83,1.69-3.69,2.86-4.82,5-4.87,11.59-8.31,17.71-11.56,6.72-3.57,13.62-6.82,20.59-9.84a59.68,59.68,0,0,1,11.43-4c5-1.08,10-2.37,15-3.68,2-.52,4-1,5.92-1.6.58-.16,1.92-.3,2.27-.9a.76.76,0,0,0-.65-1.13c-2-.1-4.54.86-6.6,1.13-3.45.46-6.92.77-10.39,1-9.06.71-18.15,1.09-27.23,1.35-18.48.52-37,.67-55.5-.31a104,104,0,0,1-14.43-1.63c-.47-.09-.64-.43-.5-.08a9.91,9.91,0,0,1,0-2.83q-.09-5.14-.21-10.31c-.46-21.43-1-42.87-1.26-64.31-.17-14.76-2.23-29.5-3.68-44.19-1.71-17.21-4.47-34.8-3-52.11.34-3.9.42-11.29,5.64-11.86a.75.75,0,0,0,.2-1.47,9.78,9.78,0,0,1-5-15.7c.6-.74-.45-1.81-1.07-1.06-1,1.17-2.32,1.88-3.23,3.15a11.07,11.07,0,0,0-1.9,4.8,10.55,10.55,0,0,0,2.82,9.12l.53-1.28-1.7-.12a.75.75,0,0,0-.75.75q2.71,68.32-.53,136.72-.45,9.41-1,18.8c-.37,6.19-.89,12.37,0,18.55.12.83,1.56.64,1.48-.2l-.11-1c-.1-1-1.6-1-1.5,0l.11,1,1.47-.2c-.79-5.7-.32-11.44,0-17.16s.65-11.21.93-16.82q.83-16.83,1.3-33.67,1-33.93.43-67.88-.3-19.08-1.06-38.14l-.75.75,1.7.12a.76.76,0,0,0,.53-1.28,9.25,9.25,0,0,1-2.21-8.83,9.15,9.15,0,0,1,2.15-4c.76-.79,1.68-1.26,2.38-2.1l-1.07-1.06a11.3,11.3,0,0,0,5.71,18.2l.2-1.47c-7.1.78-7,10.46-7.32,15.77a175.17,175.17,0,0,0,.92,27.09c1.71,18.27,3.6,36.51,5.41,54.77,1.08,10.92.62,22.09.83,33.07q.34,17.46.75,34.92.15,6.81.29,13.61c0,2.48-.31,5.37.13,7.81.49,2.67,6.44,2.51,8.43,2.7,17.57,1.72,35.48,1.4,53.12,1.12,10.05-.17,20.11-.48,30.15-1.07A191.06,191.06,0,0,0,904.71,630a24.55,24.55,0,0,1,2.69-.54l-.65-1.12c.31-.53.15-.2-.5,0s-1.3.37-2,.55c-2,.56-4,1.09-6.07,1.62-4.63,1.21-9.27,2.4-14,3.4a62,62,0,0,0-11.89,4.25c-7.28,3.17-14.48,6.57-21.47,10.34-6,3.27-12.74,6.78-17.51,11.85-1.35,1.45-2.93,3.43-2.57,5.55a3.94,3.94,0,0,0,1.42,2.31,7,7,0,0,0,1.39.89c.29.14.6.27.91.39s1.1.5.8.24l-.11-.91c.3-.58.36-.12-.33-.21a13.53,13.53,0,0,0-1.56,0c-1.37,0-2.73-.08-4.09-.19-.92-.07-3,.07-3.76-.53s-.2-1.37,0-2.09a30,30,0,0,1,3.57-6.62c.64-1,1.31-2,2-2.88.22-.28.54-.57.74-.88.29-.48.53-.15,0-.34l.2-1.47c-11.86-1.16-23.78-2.32-35.71-1.83q-4.33.16-8.64.66c-2.86.34-6.21,1.43-9,.72a6.57,6.57,0,0,1-4.54-7,8.63,8.63,0,0,1,5.64-6.79A.76.76,0,0,0,780,638c-3.14-1.81-1.53-7.77-1.26-10.63L779.89,615C780,614,778.48,614,778.39,615Z" transform="translate(-772.24 -410.52)"/></g><path class="cls-3" d="M785.31,442.57c-1.83-.75-4.59-2.06-5.56-3.9-.9-1.68-.28-4.29-.11-6.12.23-2.56.74-4.83,3.64-5.48a15.2,15.2,0,0,1,3.87-.18c4.51.17,9,.44,13.51.64a230.49,230.49,0,0,0,35.83-.73c.57-.06,1.08-.81.53-1.28a17.88,17.88,0,0,1-5.14-8c-.52-1.44-2-4-.06-5.13,1.08-.66,4-.18,5.35-.21q11.05-.27,22.12-.07,5.41.11,10.81.32c1.8.07,3.61.15,5.41.24,1.4.07,4.33-.29,5.6.4,2.78,1.51-1.88,7.94-3,9.52-1,1.42-3.39,3.3-3.56,5.11a.76.76,0,0,0,.75.75c11.15.62,22.41,1.38,33.59,1.11q6.86-.18,13.68-.89c3.25-.32,8-2.06,9.94,1.42a11.38,11.38,0,0,1,.89,8.22c-.78,2.3-4.35,3.5-6.29,4.61a.75.75,0,0,0,.75,1.29l3.15-1.75-1.13-.65c-.69,24.79-1.86,49.57-2.81,74.35C926,544.57,925,573,924.82,601.42c-.07,12.71,0,25.44.74,38.13l1-.72-3.77-1.25c-.94-.31-1.27,1.09-.4,1.45,1.83.74,4.59,2.06,5.56,3.89s.27,4.3.11,6.12c-.23,2.57-.74,4.84-3.64,5.49a15.27,15.27,0,0,1-3.88.18c-4.5-.18-9-.45-13.5-.64a231.72,231.72,0,0,0-35.83.72c-.57.07-1.08.82-.53,1.28a17.83,17.83,0,0,1,5.13,8c.53,1.44,2,4,.07,5.14-1.08.65-4.05.18-5.35.21q-11.06.27-22.12.06c-3.61-.06-7.21-.17-10.81-.31-1.81-.07-3.61-.15-5.41-.24-1.4-.07-4.33.28-5.6-.41-2.78-1.5,1.88-7.94,3-9.51,1-1.42,3.39-3.31,3.56-5.11a.76.76,0,0,0-.75-.75c-11.15-.63-22.41-1.39-33.59-1.11-4.57.11-9.13.42-13.68.88-3.25.33-8,2.07-9.94-1.42a11.38,11.38,0,0,1-.89-8.22c.78-2.29,4.35-3.49,6.29-4.6a.75.75,0,0,0-.58-1.37l-2.94.6,1,.72c.69-24.83,1.59-49.66,2.3-74.49.81-28.47,1.51-56.95,1.44-85.43,0-12.68-.18-25.37-.92-38-.06-1-1.56-1-1.5,0,1.45,24.76,1,49.66.62,74.45-.47,28.49-1.34,57-2.26,85.44-.4,12.68-.83,25.37-1.18,38a.75.75,0,0,0,.95.72l2.94-.59-.58-1.37c-1.85,1.05-4.23,2-5.81,3.47-1.2,1.13-1.45,2.91-1.53,4.48-.18,4,1.07,9.22,5.71,9.79a14.19,14.19,0,0,0,4.16-.37c1.92-.32,3.88-.46,5.81-.62q6.23-.54,12.48-.64c5.17-.07,10.34.17,15.51.39,5.42.23,10.83.46,16.24.76l-.75-.75c-.08.9-2,2.5-2.54,3.26a33.8,33.8,0,0,0-2.69,4c-1.13,2-3.61,5.74-1.69,7.91,1,1.13,2.63,1.08,4,1.17,2.29.14,4.59.24,6.88.34q7.36.31,14.74.42t14.75,0c2.3,0,4.59-.08,6.89-.14,1.55,0,3.51.2,5-.45,2.91-1.28.93-5,.13-7.11a19.22,19.22,0,0,0-5.39-8.31l-.53,1.28c14.22-1.58,28.26-1.09,42.5-.42,4.09.19,11.5,1.88,14.42-1.83a8.06,8.06,0,0,0,1.37-4.3,24.35,24.35,0,0,0,.31-6c-.51-3.21-4.34-5.1-7-6.2l-.4,1.45,3.77,1.25a.76.76,0,0,0,.95-.73c-1.45-24.71-.77-49.57-.12-74.3.74-28.43,1.92-56.85,3-85.28.51-12.72,1-25.44,1.38-38.16a.76.76,0,0,0-1.13-.65l-3.14,1.76.75,1.29c1.86-1.06,4.24-2,5.82-3.48,1.2-1.12,1.45-2.9,1.52-4.48.19-4-1.06-9.21-5.7-9.79a14.2,14.2,0,0,0-4.16.38c-1.92.32-3.88.45-5.82.62q-6.22.54-12.47.63c-5.18.07-10.35-.16-15.52-.38-5.41-.23-10.82-.46-16.23-.76l.75.75c.08-.9,2-2.5,2.54-3.27a34.52,34.52,0,0,0,2.69-4c1.12-2,3.61-5.75,1.68-7.92-1-1.13-2.62-1.08-4-1.16-2.29-.14-4.58-.24-6.87-.34q-7.37-.31-14.75-.43t-14.75,0c-2.29,0-4.59.08-6.88.14-1.55.05-3.51-.19-5,.45-2.91,1.29-.93,5-.13,7.12a19.13,19.13,0,0,0,5.39,8.3l.53-1.28c-14.22,1.59-28.26,1.09-42.5.43-4.09-.19-11.5-1.88-14.42,1.83a7.94,7.94,0,0,0-1.37,4.29,24.4,24.4,0,0,0-.31,6c.51,3.21,4.34,5.11,7,6.21.89.36,1.28-1.09.4-1.45Z" transform="translate(-772.24 -410.52)"/><path class="cls-3" d="M915.55,450.28c-.39-1.63-3.45-2-4.72-2.22a106.78,106.78,0,0,0-12-1.42c-12.54-1-25.14-1.31-37.71-1.48-13.6-.18-27.21-.13-40.8.34-5.24.19-10.49.42-15.71.86a51.71,51.71,0,0,0-9.61,1.33c-1.46.42-2.22.89-2.51,2.38a48.4,48.4,0,0,0-.54,6.59c-.45,9-.54,18-.65,27-.33,27.18-.28,54.36-.19,81.53q.09,30.28.33,60.57a17.05,17.05,0,0,0,0,4c.45,1.61,3.18,1.71,4.56,1.91,10.26,1.48,20.87,1.31,31.21,1.4q21.53.17,43.05-.56c10.7-.35,21.52-.58,32.14-2,1.62-.21,4.35-.22,5.48-1.62s1.23-3.66,1.51-5.25c1.44-8.33,1.91-16.87,2.45-25.29,1.76-27.07,2.5-54.21,3.12-81.32.47-20.8,1.05-41.64.72-62.45a30.73,30.73,0,0,0-.2-4.4c-.16-.95-1.61-.55-1.45.4.68,4,.2,9.74.19,14.18,0,10.49-.17,21-.35,31.46-.46,27.16-1.15,54.32-2.4,81.45-.51,11.06-1.09,22.13-2.06,33.16-.33,3.71-.69,7.43-1.26,11.11-.28,1.82-.45,4.22-1.35,5.83-.28.49-.2.4-.94.61a25.43,25.43,0,0,1-3.57.64c-4.36.58-8.77.86-13.16,1.12-13.12.8-26.27,1.14-39.41,1.32s-26.3.23-39.43-.27c-4.37-.16-8.75-.34-13.09-.88a21,21,0,0,1-3.59-.65c-.29-.09-.56-.25-.85-.34-.1,0,.2.75.18.33-.28-4.56-.08-9.2-.11-13.77q-.1-15.3-.18-30.61c-.13-26.79-.21-53.59-.07-80.38.06-11.38.15-22.76.38-34.13.14-6.51.05-13.17.84-19.65a5,5,0,0,1,.28-1.58c0-.06-.11.1.09-.05a4,4,0,0,1,1-.39,42.32,42.32,0,0,1,9.1-1.3c11.34-1,22.77-1.16,34.15-1.27,13.59-.14,27.19,0,40.77.47,10,.35,20.15.55,30,2.21a22.39,22.39,0,0,1,3.61.8,8.84,8.84,0,0,1,1.23.58C914.32,451.61,915.77,451.22,915.55,450.28Z" transform="translate(-772.24 -410.52)"/><path class="cls-6" d="M797.59,455.16l.47,19.08a.5.5,0,0,0,1,0l-.47-19.08c0-.64-1-.64-1,0Z" transform="translate(-772.24 -410.52)"/><path class="cls-6" d="M811.15,455.16l.47,19.08a.5.5,0,0,0,1,0l-.47-19.08c0-.64-1-.64-1,0Z" transform="translate(-772.24 -410.52)"/><path class="cls-6" d="M901.84,453.48l.47,19.07c0,.64,1,.65,1,0l-.47-19.07a.5.5,0,0,0-1,0Z" transform="translate(-772.24 -410.52)"/><path class="cls-6" d="M798.4,464.5a88.87,88.87,0,0,1,12.64,0c.65,0,.64-1,0-1a88.87,88.87,0,0,0-12.64,0c-.64.05-.64,1.05,0,1Z" transform="translate(-772.24 -410.52)"/><path class="cls-6" d="M817.53,454.51c-4.14,2.27-5,8-4.33,12.25.53,3.47,2.46,9.07,7,7.08,3.74-1.63,4.78-8.06,4.62-11.62s-2.82-9.23-7.24-7.91a.5.5,0,0,0,.27,1c4.58-1.36,6.19,5.6,5.92,8.67-.24,2.84-1.21,8.32-4.47,9.17-4.08,1.06-5.25-5.66-5.31-8.48-.07-3.39.82-7.5,4-9.26.57-.31.06-1.17-.5-.86Z" transform="translate(-772.24 -410.52)"/><path class="cls-6" d="M877.72,453.36c-4.14,2.27-5,8-4.33,12.25.53,3.47,2.46,9.08,7,7.08,3.74-1.62,4.78-8.06,4.62-11.62s-2.82-9.22-7.24-7.91a.5.5,0,0,0,.27,1c4.59-1.36,6.19,5.6,5.93,8.67-.25,2.84-1.21,8.32-4.47,9.17-4.09,1.07-5.26-5.65-5.32-8.47-.07-3.4.82-7.51,4-9.27.56-.31.06-1.17-.51-.86Z" transform="translate(-772.24 -410.52)"/><path class="cls-6" d="M824.67,454.8c.92,6.21,1.26,12.49,4,18.25a.49.49,0,0,0,.86,0l2-4.6h-.86a21.77,21.77,0,0,0,3.45,5.25.5.5,0,0,0,.83-.22,136.93,136.93,0,0,0,3.44-19.25c.07-.64-.93-.64-1,0a135.75,135.75,0,0,1-3.4,19l.83-.22a21.24,21.24,0,0,1-3.29-5,.5.5,0,0,0-.86,0l-2,4.6h.86c-2.65-5.67-3-11.91-3.86-18-.09-.64-1-.37-1,.26Z" transform="translate(-772.24 -410.52)"/><path class="cls-6" d="M849.58,473q3-9.84,6.76-19.41h-1q4,10,7.09,20.34a.5.5,0,0,0,1-.27q-3.07-10.32-7.08-20.33a.51.51,0,0,0-1,0q-3.75,9.57-6.75,19.4a.5.5,0,0,0,1,.27Z" transform="translate(-772.24 -410.52)"/><path class="cls-6" d="M850.41,470.33l10.63.48c.65,0,.65-1,0-1l-10.63-.48c-.64,0-.64,1,0,1Z" transform="translate(-772.24 -410.52)"/><path class="cls-6" d="M863.47,454.37a102.45,102.45,0,0,0,.85,18.94c.11.64,1.07.37,1-.26-1-6.19-.94-12.44-.82-18.68a.5.5,0,0,0-1,0Z" transform="translate(-772.24 -410.52)"/><path class="cls-6" d="M864.06,454.42c2.56-.38,5.09,1.81,3.77,4.49a6,6,0,0,1-3.17,2.58.51.51,0,0,0,.12.92,9.8,9.8,0,0,1,6.74,4.8,7.46,7.46,0,0,1,.62,1.65c.36,1.48.25,1.64-.71,2.83s-1.84,1.44-3.48,1.56c-.34,0-2.46.25-2.19-.42s-.72-.86-1-.27a1.55,1.55,0,0,0-.11,1.23c0,.23.28.35.48.37,3.79.38,8.82,0,8.06-5-.64-4.1-4.33-6.91-8.18-7.77l.12.92c2.2-1,4.67-3.14,4-5.86-.62-2.33-3.13-3.37-5.32-3-.64.09-.37,1.06.26,1Z" transform="translate(-772.24 -410.52)"/><path class="cls-6" d="M886,454.38c.27,4.25-.49,8.59.37,12.8.52,2.5,1.88,6.57,5,6.46s3.9-3.66,4.34-6.12c.8-4.51.49-9.09.18-13.63,0-.64-1-.64-1,0,.19,2.8.39,5.6.32,8.4a32.76,32.76,0,0,1-.55,5.42,16,16,0,0,1-.42,1.82c-.55,1.82-.51,1.7-2.73,2s-2.12.49-3-1.12a12.16,12.16,0,0,1-1-2.67,18.92,18.92,0,0,1-.55-4.5c-.07-3,.21-5.91,0-8.87,0-.64-1-.64-1,0Z" transform="translate(-772.24 -410.52)"/><path class="cls-6" d="M898.19,454.24a50.55,50.55,0,0,1,8.7,0c.63.07.63-.93,0-1a50.55,50.55,0,0,0-8.7,0c-.64,0-.64,1,0,1Z" transform="translate(-772.24 -410.52)"/><path class="cls-6" d="M796.62,455.38l3.2-.06a.38.38,0,0,0,0-.75l-3.2.06a.38.38,0,0,0,0,.75Z" transform="translate(-772.24 -410.52)"/><path class="cls-6" d="M810.34,455.46h2.91a.38.38,0,0,0,0-.75h-2.91a.38.38,0,0,0,0,.75Z" transform="translate(-772.24 -410.52)"/><path class="cls-6" d="M797.71,474.8l2.61-.05a.38.38,0,0,0,0-.75l-2.61.05a.38.38,0,0,0,0,.75Z" transform="translate(-772.24 -410.52)"/><path class="cls-6" d="M811.08,475.26c.77-.1,1.54-.18,2.31-.25.48,0,.48-.79,0-.75-.77.07-1.54.15-2.31.25-.47.06-.48.81,0,.75Z" transform="translate(-772.24 -410.52)"/><path class="cls-6" d="M824,454.92a22.84,22.84,0,0,0,2.61-.15c.47,0,.48-.8,0-.75a22.84,22.84,0,0,1-2.61.15.38.38,0,0,0,0,.75Z" transform="translate(-772.24 -410.52)"/><path class="cls-6" d="M837.09,454.42a5.1,5.1,0,0,1,2.06,0c.47.09.67-.63.2-.72a5.83,5.83,0,0,0-2.46,0c-.47.1-.27.83.2.72Z" transform="translate(-772.24 -410.52)"/><path class="cls-6" d="M848.12,473.74a12.75,12.75,0,0,1,3-.19c.48,0,.48-.72,0-.75a12.84,12.84,0,0,0-3.16.22c-.47.09-.27.81.2.72Z" transform="translate(-772.24 -410.52)"/><path class="cls-6" d="M861.75,474.35l2.1-.07c.48,0,.48-.77,0-.75l-2.1.07c-.49,0-.49.77,0,.75Z" transform="translate(-772.24 -410.52)"/><path class="cls-6" d="M885.34,454.52h1.39a4.09,4.09,0,0,0,1.21-.08c.45-.15.26-.87-.2-.72a4.31,4.31,0,0,1-1.19,0h-1.21a.38.38,0,0,0,0,.75Z" transform="translate(-772.24 -410.52)"/><path class="cls-6" d="M894.22,454.36a5.45,5.45,0,0,1,2-.16c.48.05.47-.7,0-.75a5.83,5.83,0,0,0-2.2.19.37.37,0,0,0,.19.72Z" transform="translate(-772.24 -410.52)"/><path class="cls-6" d="M897.6,453.19c0,.61.09,1.21.17,1.81.06.4.18.71.64.64a.38.38,0,0,0,.26-.26v-.06c.08-.47-.65-.67-.73-.19v.05l.26-.27-.07,0,.36.09c.09.09,0-.34,0-.39s0-.3-.05-.45c0-.32-.06-.66-.08-1,0-.48-.78-.48-.75,0Z" transform="translate(-772.24 -410.52)"/><path class="cls-6" d="M907.14,452.85a1.3,1.3,0,0,0-.25,1v1.64a.38.38,0,0,0,.75,0v-1.16c0-.21-.11-.79,0-.95.31-.36-.21-.89-.53-.53Z" transform="translate(-772.24 -410.52)"/><path class="cls-6" d="M901.82,473.26l2.76,0a.38.38,0,0,0,0-.75l-2.76,0a.38.38,0,0,0,0,.75Z" transform="translate(-772.24 -410.52)"/><path class="cls-6" d="M874.65,456.35a127,127,0,0,0,.64,14.2c0,.48.8.48.75,0a127,127,0,0,1-.64-14.2.38.38,0,0,0-.75,0Z" transform="translate(-772.24 -410.52)"/><path class="cls-6" d="M887.34,454.68q-.37,7.35-.07,14.69c0,.48.77.48.75,0q-.3-7.35.07-14.69c0-.48-.73-.48-.75,0Z" transform="translate(-772.24 -410.52)"/><path class="cls-6" d="M855.9,455.13q-2.58,9-5.94,17.73c-.18.45.55.64.72.2q3.38-8.73,5.94-17.73a.37.37,0,0,0-.72-.2Z" transform="translate(-772.24 -410.52)"/><path class="cls-6" d="M825.85,454.87a62.36,62.36,0,0,0,3.1,16.95c.15.46.88.26.73-.2a61.3,61.3,0,0,1-3.08-16.75c0-.48-.77-.49-.75,0Z" transform="translate(-772.24 -410.52)"/><path class="cls-6" d="M815.18,457q-.4,7-.29,13.94a.38.38,0,0,0,.75,0q-.12-7,.29-13.94c0-.49-.72-.48-.75,0Z" transform="translate(-772.24 -410.52)"/><path class="cls-6" d="M799.11,455.36q.14,9.5.64,19c0,.48.77.48.75,0q-.51-9.48-.64-19a.38.38,0,0,0-.75,0Z" transform="translate(-772.24 -410.52)"/><path class="cls-7" d="M892.83,525.41c-27.18-12.92-51.23-12.92-78.41,0L803,501.86c34.3-16.88,66.86-16.89,101.18,0Z" transform="translate(-772.24 -410.52)"/><path class="cls-6" d="M802.6,502.7,809,515.63l3.41,6.9c.47,1,.9,2.5,2,3,1.26.59,2.9-.56,4-1,2.21-1,4.43-1.89,6.69-2.74a85.36,85.36,0,0,1,13.17-3.89c18.25-3.7,37.27.06,54,7.84a.51.51,0,0,0,.69-.18A87.16,87.16,0,0,0,904.79,503c.22-.61-.75-.87-1-.27A86.73,86.73,0,0,1,892,525l.69-.18c-15.32-7.14-32.46-11-49.36-8.82a89,89,0,0,0-23.79,6.88c-1,.41-2.88,1.69-3.88,1.69-1.68,0-2.26-2.27-2.83-3.42l-3-6-6.4-12.94c-.29-.57-1.15-.07-.87.51Z" transform="translate(-772.24 -410.52)"/><path class="cls-6" d="M838.06,518.15l1.68,7.15.35-.61a74.35,74.35,0,0,0-21.49,7.37c-5.86,3.1-12.18,6.93-15.08,13.16l.93.25c0-5.44.12-11.43,4.13-15.59a.5.5,0,0,0-.35-.85,36.24,36.24,0,0,0-14.44,3.71l.68.69c3.51-6.81,7.35-13.95,14.38-17.66.57-.3.07-1.16-.5-.86-7.19,3.78-11.15,11.05-14.74,18a.51.51,0,0,0,.68.69A34.84,34.84,0,0,1,808.23,530l-.36-.85c-4.21,4.35-4.44,10.56-4.42,16.29,0,.46.71.72.93.25,3-6.32,9.52-10.13,15.49-13.2a73.44,73.44,0,0,1,20.49-6.87.51.51,0,0,0,.35-.61L839,517.89c-.15-.63-1.11-.36-1,.26Z" transform="translate(-772.24 -410.52)"/><path class="cls-6" d="M814.7,525.59c3.65,1.2,8.07,1,11.88,1.1a73.32,73.32,0,0,0,12.57-.56c.64-.09.37-1-.26-1a72.4,72.4,0,0,1-12.31.52c-3.68-.13-8.1.09-11.61-1.07-.61-.2-.88.77-.27,1Z" transform="translate(-772.24 -410.52)"/><path class="cls-6" d="M819.41,524.36a8,8,0,0,1,1.45,2c.29.57,1.16.07.86-.51a9.23,9.23,0,0,0-1.6-2.22c-.45-.46-1.16.25-.71.71Z" transform="translate(-772.24 -410.52)"/><path class="cls-6" d="M821.14,523.12l2.48,3.27c.38.51,1.25,0,.86-.5L822,522.61c-.38-.51-1.25,0-.86.51Z" transform="translate(-772.24 -410.52)"/><path class="cls-6" d="M823.41,522.06l3.49,4.44c.39.51,1.1-.2.7-.71l-3.49-4.44c-.39-.5-1.1.21-.7.71Z" transform="translate(-772.24 -410.52)"/><path class="cls-6" d="M826.33,521.3c1,1.8,2.13,3.57,3.3,5.29.35.53,1.22,0,.86-.5-1.17-1.73-2.27-3.49-3.3-5.3a.5.5,0,0,0-.86.51Z" transform="translate(-772.24 -410.52)"/><path class="cls-6" d="M828.72,519.79l5,6.71c.38.51,1.25,0,.86-.5l-5-6.72c-.38-.51-1.25,0-.86.51Z" transform="translate(-772.24 -410.52)"/><path class="cls-6" d="M832.43,519a50.15,50.15,0,0,0,4.52,6.86c.4.5,1.11-.21.71-.71a47.45,47.45,0,0,1-4.37-6.66c-.31-.56-1.17-.06-.86.51Z" transform="translate(-772.24 -410.52)"/><path class="cls-6" d="M836.17,518.29q1.5,3.27,3.3,6.38a.5.5,0,0,0,.86-.51q-1.8-3.1-3.3-6.37c-.27-.58-1.13-.08-.86.5Z" transform="translate(-772.24 -410.52)"/><path class="cls-6" d="M868.11,517.89,866.42,525a.51.51,0,0,0,.35.61,74,74,0,0,1,20.48,6.87c6,3.06,12.55,6.89,15.5,13.2.22.47.93.22.93-.25,0-5.73-.21-11.93-4.42-16.29l-.36.85a34.79,34.79,0,0,1,13.93,3.58.51.51,0,0,0,.69-.69c-3.59-7-7.55-14.23-14.74-18-.57-.3-1.08.56-.51.86,7,3.7,10.88,10.85,14.38,17.66l.69-.69A36.28,36.28,0,0,0,898.9,529a.5.5,0,0,0-.35.85c4,4.16,4.15,10.15,4.13,15.59l.93-.25c-2.9-6.22-9.22-10.07-15.08-13.16A74.35,74.35,0,0,0,867,524.69l.35.61,1.68-7.15c.15-.62-.81-.89-1-.26Z" transform="translate(-772.24 -410.52)"/><path class="cls-6" d="M892.16,524.62c-3.53,1.17-7.91.94-11.61,1.07a72.4,72.4,0,0,1-12.31-.52c-.63-.09-.9.87-.26,1a73.32,73.32,0,0,0,12.57.56c3.8-.14,8.24.1,11.88-1.1.6-.2.34-1.17-.27-1Z" transform="translate(-772.24 -410.52)"/><path class="cls-6" d="M868.07,524.15a49.73,49.73,0,0,1,5.34-4.92c.51-.4-.21-1.11-.7-.71a50.8,50.8,0,0,0-5.35,4.92c-.44.47.26,1.18.71.71Z" transform="translate(-772.24 -410.52)"/><path class="cls-6" d="M870.06,525.25a40.12,40.12,0,0,1,7.37-4.54c.58-.27.07-1.14-.5-.86a40.72,40.72,0,0,0-7.57,4.7c-.51.39.2,1.1.7.7Z" transform="translate(-772.24 -410.52)"/><path class="cls-6" d="M874.35,526.14a32.55,32.55,0,0,1,6.39-4.18c.57-.28.07-1.14-.51-.86a33.11,33.11,0,0,0-6.58,4.33c-.5.41.21,1.12.7.71Z" transform="translate(-772.24 -410.52)"/><path class="cls-6" d="M879.82,526.28a11.61,11.61,0,0,1,4-2.9c.59-.26.08-1.13-.5-.87a12.25,12.25,0,0,0-4.17,3.06c-.43.48.27,1.19.7.71Z" transform="translate(-772.24 -410.52)"/><path class="cls-6" d="M885.27,525.26a7.88,7.88,0,0,0,2.46-2c.41-.5-.3-1.21-.71-.71a7,7,0,0,1-2.25,1.83c-.58.29-.07,1.15.5.86Z" transform="translate(-772.24 -410.52)"/><path class="cls-6" d="M813.92,516a7.07,7.07,0,0,0,1.7-4c.06-.64-.94-.64-1,0a5.89,5.89,0,0,1-1.41,3.28c-.41.48.29,1.19.71.7Z" transform="translate(-772.24 -410.52)"/><path class="cls-6" d="M817.87,502.52a8.56,8.56,0,0,0-4.32,5.71c-.4,2,.22,4.46,2.34,5.25a3.89,3.89,0,0,0,4.75-2.41c1.14-2.77-.4-5.63-1.77-8a.51.51,0,0,0-.92.39c.52,1.76,1,3.54,1.54,5.29a3.88,3.88,0,0,0,1.43,2.38,1.71,1.71,0,0,0,2.64-1.25c.08-.64-.92-.63-1,0l-1.59-.1a4.86,4.86,0,0,1-.44-1.05c-.2-.57-.34-1.18-.51-1.76l-1.1-3.78-.92.39a13.16,13.16,0,0,1,1.93,4.37c.39,2.3-1.2,6-4.08,4.29-3.79-2.2.07-7.48,2.52-8.88a.5.5,0,0,0-.5-.86Z" transform="translate(-772.24 -410.52)"/><path class="cls-6" d="M829.49,510c1.35-2,.63-4,.59-6.19l.11-1.44,2.27-.78c.26.12.53,1.79.61,2.13a37,37,0,0,1,.64,5.65c0,.64,1,.65,1,0l-.3-5.19c0-.49-.35-1.6-.11-2.06q2.7-1.62,2.88.12c.08.37.16.73.22,1.1.28,1.4.29,3.88,1.81,4.63,4.52,2.2,4.38-7.6,4.42-9.49a.5.5,0,0,0-1,0c-.19,2.81-.82,11.91,4.34,8.41.53-.36,0-1.23-.5-.86a2.26,2.26,0,0,1-2.5-.35c-.42-.43-.33-2.46-.37-3.06a28.61,28.61,0,0,1,0-4.14h-1a39.26,39.26,0,0,1-.36,5.31,5.47,5.47,0,0,1-.7,2.48c-1.67.61-2.57.38-2.7-.66-.08-.35-.15-.69-.21-1-.35-1.73-.4-4.77-2.49-5.44-4.48-1.43-2.56,8.56-2.46,10.24h1c-.12-1.93-.05-9.83-3-9.85-1.19,0-2.07,1.26-2.41,2.25-.87,2.57.92,5.31-.71,7.72-.36.54.51,1,.86.51Z" transform="translate(-772.24 -410.52)"/><path class="cls-6" d="M850.53,497.6c-2.07,1.93-6.8,10.9-1.19,11.34a4.78,4.78,0,0,0,4.73-3.78c.1-.48-.07-1.07.28-1.43-.33.34,1.73-.32,1.4-.19a5.47,5.47,0,0,0,2.33-2c1-1.4.85-3.07-.82-3.91-2.08-1-4.06.86-4.5,2.81a9.1,9.1,0,0,0,2,7.14c1.88,1.89,4.47.37,6.39-.77a.5.5,0,0,0-.51-.86c-1.66,1-3.85,2.4-5.55.41a8.27,8.27,0,0,1-1.42-4.26,2.31,2.31,0,0,1,.19-1.63q.3-2.71,3.63.09a3.92,3.92,0,0,1-1.17,1.41c-.66.44-2,.39-2.58.78-.09.07-.19,0-.28.14a1.87,1.87,0,0,0-.35.89c-.41,1.36.28,1.62-1.06,3l-1,.76L848,507c-.68-.95.14-3.67.5-4.66a10.35,10.35,0,0,1,2.76-4c.47-.44-.23-1.15-.7-.71Z" transform="translate(-772.24 -410.52)"/><path class="cls-6" d="M843.51,494.83a.59.59,0,0,0,1.14,0c.19-.62-.77-.88-1-.27l0,.06.35-.35h.14l.35.35,0-.06c-.24-.59-1.2-.33-1,.27Z" transform="translate(-772.24 -410.52)"/><path class="cls-6" d="M865.91,509.16l2.36-2.35a.5.5,0,0,0-.71-.71l-2.35,2.35a.5.5,0,0,0,.7.71Z" transform="translate(-772.24 -410.52)"/><path class="cls-6" d="M873.12,498.8c-3.64.51-8.38,7.66-4.78,10.56a4.23,4.23,0,0,0,5-.06c2.36-1.65,2.87-4.67,3.24-7.31.09-.62-.81-.91-1-.27-.5,2.07-3.11,9.27,1.13,9.31,3.92,0,5.37-5.32,5-8.35a.5.5,0,0,0-1-.13c-.48,1.59-3.16,9.1.46,9.18s5.86-5.88,6.91-8.5l-1-.27L883,517.42a.5.5,0,0,0,1,.27l4.23-14.46c.18-.64-.74-.85-1-.27-.94,2.37-2,4.91-3.91,6.65l-1,.78-1.76-.75c-.24-.48.15-1.8.23-2.28a32.16,32.16,0,0,1,1.06-4.54l-1-.14c.28,2.11-.23,6.07-2.68,7-3.65,1.36-2.44-3-2.24-4.09s.5-2.39.78-3.57l-1-.27a19,19,0,0,1-.78,3.8c-.57,1.57-2.69,4.65-4.88,3.56l-1.94-2.5.29-1.36a12,12,0,0,1,1.19-2.31c.92-1.5,2-2.88,3.83-3.15.64-.09.37-1.05-.26-1Z" transform="translate(-772.24 -410.52)"/><path class="cls-6" d="M886.84,507.39a11,11,0,0,1,1.35-1.54c1.28-1.13,3.35-1.17,3.39,1a8.26,8.26,0,0,1-.94,2.32,17.59,17.59,0,0,0-.9,2.52c-.54,2.37,1.87,2.42,3.64,2.48.64,0,.64-1,0-1a6.58,6.58,0,0,1-1.66-.14c-1-.31-.91-1-.77-1.86a19.48,19.48,0,0,1,1.34-3.33,2.77,2.77,0,0,0-.18-3c-2-2.28-4.71.17-6,1.81-.39.5.32,1.21.71.7Z" transform="translate(-772.24 -410.52)"/><path class="cls-6" d="M846,542.6a9.67,9.67,0,0,0-8.2,7.84c-.84,4.1,1.33,7.77,5.64,8.26a8.11,8.11,0,0,0,8.78-7.22c.44-4.2-1.91-9.2-6.59-9.13a.5.5,0,0,0,0,1c4.54-.07,6.49,5.71,5.31,9.46a7.08,7.08,0,0,1-8,4.8c-8.32-1.86-3.27-13.23,3.09-14,.63-.07.64-1.07,0-1Z" transform="translate(-772.24 -410.52)"/><path class="cls-6" d="M854,544q0,3.27,0,6.54c0,.82-.28,6.6-.09,6.66-.61-.2-.87.76-.26,1l.27.09a.49.49,0,0,0,.49-.13c1.22-1.14.59-3.77.59-5.25q0-4.44,0-8.88a.5.5,0,0,0-1,0Z" transform="translate(-772.24 -410.52)"/><path class="cls-6" d="M854.53,545l8.2.39c.64,0,.64-1,0-1l-8.2-.39c-.64,0-.64,1,0,1Z" transform="translate(-772.24 -410.52)"/><path class="cls-6" d="M855.15,552a17.19,17.19,0,0,0,4.45.62.5.5,0,0,0,0-1,16.54,16.54,0,0,1-4.19-.58.5.5,0,0,0-.26,1Z" transform="translate(-772.24 -410.52)"/><path class="cls-6" d="M798.09,554.37a216.48,216.48,0,0,0,28.81,1c.64,0,.64-1,0-1a216.48,216.48,0,0,1-28.81-1c-.64-.06-.64.94,0,1Z" transform="translate(-772.24 -410.52)"/><path class="cls-6" d="M826.12,551.75q-.11,4.44-.34,8.86a22.45,22.45,0,0,1,8.31-4,1.6,1.6,0,0,0,.78-.35c.51-.57-.32-1.33-1-1.67a78.1,78.1,0,0,0-7.76-3.13" transform="translate(-772.24 -410.52)"/><path class="cls-6" d="M825.62,551.75q-.11,4.44-.34,8.86a.51.51,0,0,0,.76.44,22.15,22.15,0,0,1,6.38-3.4c.9-.31,2.94-.38,3.1-1.66s-1.83-2-2.7-2.38c-2.17-1-4.38-1.82-6.62-2.6-.6-.21-.87.75-.26,1,1.54.54,3.07,1.11,4.57,1.73a12.71,12.71,0,0,1,2.75,1.21c1.31,1,.56,1.26-.51,1.58a23.51,23.51,0,0,0-7.22,3.69l.75.43q.24-4.43.34-8.86c0-.64-1-.64-1,0Z" transform="translate(-772.24 -410.52)"/><path class="cls-6" d="M797.92,551.17a22.14,22.14,0,0,0,2.15,2.68c.43.47,1.14-.24.7-.71a22.4,22.4,0,0,1-2-2.47c-.36-.53-1.23,0-.86.5Z" transform="translate(-772.24 -410.52)"/><path class="cls-6" d="M801.33,551.65a12.63,12.63,0,0,1,1.84,2.68c.3.58,1.16.07.87-.5a13.72,13.72,0,0,0-2-2.89c-.43-.48-1.13.23-.7.71Z" transform="translate(-772.24 -410.52)"/><path class="cls-6" d="M804,551.53a26.31,26.31,0,0,0,2.51,3.44v-.71q-1.57,1.51-3.2,2.94c-.49.43.22,1.13.7.71q1.63-1.44,3.21-2.94a.52.52,0,0,0,0-.71,24.16,24.16,0,0,1-2.36-3.24.5.5,0,0,0-.86.51Z" transform="translate(-772.24 -410.52)"/><path class="cls-6" d="M803.16,554.13c-.71.64-1.4,1.35-2.16,1.92-.51.38,0,1.25.5.86.84-.62,1.59-1.38,2.37-2.07.48-.43-.23-1.13-.71-.71Z" transform="translate(-772.24 -410.52)"/><path class="cls-6" d="M800.35,553.44l-1.13,1.33-.52.63-.27.32-.13.15c-.1.09-.09.11,0,0l.36.15,0,0c-.42-.49-1.13.22-.71.7s1.1-.15,1.42-.52l1.71-2c.41-.49-.29-1.2-.7-.71Z" transform="translate(-772.24 -410.52)"/><path class="cls-6" d="M904.06,552.71a216.39,216.39,0,0,1-28.8,1,.5.5,0,0,0,0,1,216.39,216.39,0,0,0,28.8-1c.64-.06.65-1.06,0-1Z" transform="translate(-772.24 -410.52)"/><path class="cls-6" d="M876,551.09q.11,4.44.34,8.86a22.45,22.45,0,0,0-8.31-4,1.51,1.51,0,0,1-.78-.35c-.51-.57.32-1.33,1-1.67a78.1,78.1,0,0,1,7.76-3.13" transform="translate(-772.24 -410.52)"/><path class="cls-6" d="M875.53,551.09c.07,3,.19,5.91.34,8.86l.75-.43a23.51,23.51,0,0,0-7.22-3.69c-.82-.25-1.72-.4-.83-1.44.49-.56,2.44-1.09,3.07-1.35,1.5-.62,3-1.19,4.57-1.73.61-.21.35-1.17-.26-1-2.24.78-4.45,1.64-6.62,2.6-.87.39-2.85,1.06-2.7,2.38s2.21,1.36,3.1,1.66a22.27,22.27,0,0,1,6.38,3.4.51.51,0,0,0,.76-.44c-.15-3-.27-5.9-.34-8.86a.5.5,0,0,0-1,0Z" transform="translate(-772.24 -410.52)"/><path class="cls-6" d="M903.37,550a22.4,22.4,0,0,1-2,2.47c-.44.47.27,1.18.71.71a24.26,24.26,0,0,0,2.15-2.68c.36-.53-.5-1-.87-.5Z" transform="translate(-772.24 -410.52)"/><path class="cls-6" d="M900.12,550.28a13.32,13.32,0,0,0-2,2.89c-.3.57.57,1.08.86.5a12.63,12.63,0,0,1,1.84-2.68c.43-.48-.27-1.19-.7-.71Z" transform="translate(-772.24 -410.52)"/><path class="cls-6" d="M897.28,550.36a24.16,24.16,0,0,1-2.36,3.24.52.52,0,0,0,0,.71q1.58,1.5,3.21,2.94c.48.42,1.19-.28.7-.71q-1.62-1.42-3.2-2.94v.71a26.63,26.63,0,0,0,2.52-3.44.5.5,0,0,0-.87-.51Z" transform="translate(-772.24 -410.52)"/><path class="cls-6" d="M898.29,554.18c.77.69,1.52,1.45,2.36,2.07.52.39,1-.48.5-.86-.76-.57-1.45-1.28-2.16-1.92-.48-.42-1.19.28-.7.71Z" transform="translate(-772.24 -410.52)"/><path class="cls-6" d="M901.1,553.49l1.71,2c.32.37.91,1.11,1.42.52s-.29-1.19-.71-.7l0,0,.36-.14c.15,0,0,0,0-.13a4,4,0,0,0-.27-.31l-.59-.71-1.12-1.33c-.42-.49-1.12.22-.71.71Z" transform="translate(-772.24 -410.52)"/><path class="cls-6" d="M814.13,568.66a20,20,0,0,0-11.7,1.3c-3.37,1.62-.5,3.35,1.85,3.75,2,.33,4,0,6,.36,3.57.68,4.57,3.57,4.3,6.91a21.46,21.46,0,0,1-.76,4.13c-.6,2-1.32,3.15-3.56,3.39a26.06,26.06,0,0,1-8.53-.61c-.63-.15-.89.82-.27,1a28.38,28.38,0,0,0,6.62.77c1.51,0,4,.08,5.24-1s1.57-3.42,1.87-4.9a15.47,15.47,0,0,0,.3-5.75c-.62-3.43-3.29-4.84-6.55-5-1.35-.08-2.69,0-4-.14-1-.13-1.4,0-1.92-1-.75-1.43.75-1.26,1.87-1.6a19.88,19.88,0,0,1,9-.51c.63.1.9-.86.26-1Z" transform="translate(-772.24 -410.52)"/><path class="cls-6" d="M816.36,569q-.45,9.74-.39,19.49a.5.5,0,0,0,1,0q-.06-9.75.39-19.49c0-.64-1-.64-1,0Z" transform="translate(-772.24 -410.52)"/><path class="cls-6" d="M828.84,569q-1.1,10-1.37,20.13a.5.5,0,0,0,1,0q.27-10.1,1.37-20.13c.07-.63-.93-.63-1,0Z" transform="translate(-772.24 -410.52)"/><path class="cls-6" d="M817.2,572l11.33.57c.65,0,.65-1,0-1L817.2,571c-.64,0-.64,1,0,1Z" transform="translate(-772.24 -410.52)"/><path class="cls-6" d="M879.12,569.22q-.47,9.74-.39,19.48a.5.5,0,0,0,1,0q-.08-9.75.39-19.48c0-.65-1-.64-1,0Z" transform="translate(-772.24 -410.52)"/><path class="cls-6" d="M891.6,569.21q-1.1,10-1.38,20.13a.5.5,0,0,0,1,0q.28-10.1,1.38-20.13c.07-.64-.94-.64-1,0Z" transform="translate(-772.24 -410.52)"/><path class="cls-6" d="M880,572.27l11.33.57c.64,0,.64-1,0-1L880,571.27c-.64,0-.64,1,0,1Z" transform="translate(-772.24 -410.52)"/><path class="cls-6" d="M830.46,569.3a57.15,57.15,0,0,0,.18,14.55c.43,2.92,1.6,6.37,5.21,6,3-.28,4.89-3.06,5.63-5.71,1.28-4.58,1-9.87.74-14.56,0-.64-1-.65-1,0a79.93,79.93,0,0,1-.09,10c-.24,3.22-.84,8.14-4.67,9.11-7.08,1.79-5.43-15.6-5-19.46.07-.64-.93-.63-1,0Z" transform="translate(-772.24 -410.52)"/><path class="cls-6" d="M843.22,570.38q5.91,0,11.82.1c.64,0,.64-1,0-1q-5.91-.11-11.82-.1a.5.5,0,0,0,0,1Z" transform="translate(-772.24 -410.52)"/><path class="cls-6" d="M848.83,570.57q-.32,8.7.06,17.4c0,.64,1,.65,1,0q-.37-8.7-.06-17.4c0-.64-1-.64-1,0Z" transform="translate(-772.24 -410.52)"/><path class="cls-6" d="M865.26,570.48c3.94,0,7.88,0,11.82.11a.5.5,0,0,0,0-1c-3.94-.08-7.88-.11-11.82-.11a.5.5,0,0,0,0,1Z" transform="translate(-772.24 -410.52)"/><path class="cls-6" d="M870.87,570.68q-.32,8.7.06,17.39a.5.5,0,0,0,1,0q-.37-8.69-.06-17.39a.5.5,0,0,0-1,0Z" transform="translate(-772.24 -410.52)"/><path class="cls-6" d="M894.8,569.76a153,153,0,0,0,0,19.27.51.51,0,0,0,.5.5l7.67-.14a.5.5,0,0,0,0-1l-3.83.07c-.67,0-2.4.37-2.88,0-1.24-.83-.69-4.38-.72-5.74q-.13-6.51.31-13c0-.64-1-.64-1,0Z" transform="translate(-772.24 -410.52)"/><path class="cls-6" d="M895.38,573.41a12.9,12.9,0,0,1,3.71-.42.5.5,0,0,0,0-1,14.44,14.44,0,0,0-4,.45.5.5,0,0,0,.27,1Z" transform="translate(-772.24 -410.52)"/><path class="cls-6" d="M895.41,570.19c2.72-.18,5.43-.31,8.15-.41.64,0,.64-1,0-1-2.72.1-5.43.23-8.15.41-.64,0-.64,1,0,1Z" transform="translate(-772.24 -410.52)"/><path class="cls-6" d="M803.37,600.43q-.2,11.88.15,23.78c0,.64,1,.64,1,0q-.35-11.9-.15-23.78a.5.5,0,0,0-1,0Z" transform="translate(-772.24 -410.52)"/><path class="cls-6" d="M804.28,600.38l13.57.63c.64,0,.64-1,0-1l-13.57-.63c-.65,0-.64,1,0,1Z" transform="translate(-772.24 -410.52)"/><path class="cls-6" d="M804.43,605a99.94,99.94,0,0,1,10.23.93c.63.09.91-.87.27-1a102.67,102.67,0,0,0-10.5-1c-.64,0-.64,1,0,1Z" transform="translate(-772.24 -410.52)"/><path class="cls-6" d="M819.48,600.73a85,85,0,0,0-.66,17.17c.22,3,1.45,7.14,5.2,7.08s5-5.22,5.65-8c1.17-5,.92-10.27.66-15.39,0-.64-1-.64-1,0a78.89,78.89,0,0,1,.07,10.54c-.27,3.25-1.11,11.11-5.14,11.63-7.26.94-4.3-18.91-3.78-23,.08-.64-.92-.63-1,0Z" transform="translate(-772.24 -410.52)"/><path class="cls-6" d="M838.58,600.08c-7.34-1.29-7.86,9.34-7.73,14.15.07,2.72,0,6.79,2.14,8.85,2.32,2.26,6.65,1.64,9.46,1,.62-.14.36-1.11-.27-1-2.76.63-7.58,1.3-9.21-1.75-1.09-2.06-1.06-4.89-1.12-7.14-.11-4.07.06-14.31,6.47-13.19.63.11.9-.85.26-1Z" transform="translate(-772.24 -410.52)"/><path class="cls-6" d="M843.49,600.43l0,12.6,0,5.81c0,1.64-.35,3.86.18,5.41a.54.54,0,0,0,.62.35l.21,0a.53.53,0,0,0,.37-.48l0-.18c.08-.63-.92-.63-1,0l.13-.27.62.35c-.59-1.69-.15-4.31-.16-6.11l0-5.81,0-11.63a.5.5,0,0,0-1,0Z" transform="translate(-772.24 -410.52)"/><path class="cls-6" d="M844.71,620.75a145.34,145.34,0,0,0,12.87-19.09c.31-.56-.55-1.07-.87-.51A143,143,0,0,1,844,620c-.4.5.3,1.21.7.71Z" transform="translate(-772.24 -410.52)"/><path class="cls-6" d="M849.83,614.24l5.36,9.46c.31.56,1.18,0,.86-.51l-5.36-9.45a.5.5,0,0,0-.86.5Z" transform="translate(-772.24 -410.52)"/><path class="cls-6" d="M869.74,602.18v-.91c0-.54-.89-.7-1-.13a65.34,65.34,0,0,0-.42,17.94c.42,3.56,1.59,7.29,6,6.63,4-.6,6-5,6.84-8.53,1.24-5.33.38-10.91-.13-16.27-.07-.64-1.07-.64-1,0a94.42,94.42,0,0,1,.74,11c-.09,4.05-.93,9.72-4.73,12.08-2.45,1.53-5.54.66-6.32-2.27a34.1,34.1,0,0,1-.78-7,65.56,65.56,0,0,1,.75-13.35l-1-.13v.91a.5.5,0,0,0,1,0Z" transform="translate(-772.24 -410.52)"/><path class="cls-6" d="M883.42,600.64q.08,11.76.58,23.5c0,.53.89.71,1,.13l.23-1.36c.1-.63-.86-.9-1-.27L884,624l1,.13q-.51-11.75-.58-23.5a.5.5,0,0,0-1,0Z" transform="translate(-772.24 -410.52)"/><path class="cls-6" d="M884.08,600.7a19,19,0,0,1,6.85.1c1.24.22,5.13.72,5.55,2.13l-1.87,2.93h-1.82l-2.9,0-5.82,0a.5.5,0,0,0,0,1c3.63,0,7.82.63,11.38,0,1.5-.28,3-1.38,2.63-3.08-.46-2.05-3.1-3-4.87-3.44a21.76,21.76,0,0,0-9.39-.52c-.63.11-.37,1.08.26,1Z" transform="translate(-772.24 -410.52)"/></svg>