<svg id="Calque_1" data-name="Calque 1" xmlns="http://www.w3.org/2000/svg" viewBox="0 0 85.35 64.03"><defs><style>.cls-1{fill:#3c8174;}.cls-2{fill:#b17f4a;}.cls-3{fill:#432918;}.cls-4{fill:#f6f6f6;}.cls-5{fill:#1d1d1b;}.cls-6{opacity:0.14;}.cls-7{fill:#2b1f11;}.cls-8{fill:#d8ebe1;}.cls-9{fill:#9db7b5;}.cls-10{fill:#fff;}</style></defs><title>14</title><path class="cls-1" d="M820.14,517.84c-1.63,5.84-.2,12-.13,18.1.09,6.84-1.56,13.59-1.64,20.43,0,3.33.57,7.14,3.37,8.94a10,10,0,0,0,4.82,1.22c6.59.41,13.18-.61,19.79-.74,13.77-.28,27.75,3.29,41.18.21a7.38,7.38,0,0,0,2.92-1.16,7.49,7.49,0,0,0,2.33-4.4c1.87-7.59,1.59-15.52,1.3-23.33-.26-6.79-.55-13.77-3.25-20a8.44,8.44,0,0,0-2.05-3.12,9,9,0,0,0-4.88-1.77,89.14,89.14,0,0,0-16.74-.13c-15.14.82-30.39,1.66-45.12,5.26" transform="translate(-811.52 -508.38)"/><path class="cls-1" d="M820,517.81c-2,7.85.34,16.16-.43,24.17-.41,4.34-1.13,8.64-1.31,13-.11,2.67-.07,5.59,1.22,8s3.6,3.33,6.22,3.59a75.23,75.23,0,0,0,13.08-.27c8.73-.62,17.21-.09,25.92.58a116.09,116.09,0,0,0,12.65.46c3.77-.12,8.17-.29,11.72-1.66,2.68-1,3.44-3.55,4-6.14a59.78,59.78,0,0,0,1.27-11.64c.18-7.91.15-16.32-1.4-24.11-.6-3-1.45-7-3.59-9.38-1.95-2.19-5.22-2.37-7.95-2.6-10-.82-20.31.35-30.25,1.13A186.6,186.6,0,0,0,822,517.23a.12.12,0,0,0,.06.24c15.41-3.7,31.29-4.56,47.06-5.36A100.53,100.53,0,0,1,880,512a28,28,0,0,1,6.13.79c2.69.79,4,2.74,4.95,5.19,2.76,6.92,2.77,14.63,3,22,.12,3.45.18,6.9,0,10.34-.21,4-.33,9.24-2.36,12.88s-8.06,3.56-11.54,3.82a83.87,83.87,0,0,1-11.21,0c-7.54-.43-15.05-1.43-22.6-1.28-3.47.07-6.92.39-10.37.61-4,.25-8.89.93-12.7-.39-4.4-1.51-4.88-6.45-4.77-10.44s.76-8.05,1.19-12.07a65,65,0,0,0,.2-12c-.35-4.54-.77-9,.36-13.5a.12.12,0,0,0-.24-.06Z" transform="translate(-811.52 -508.38)"/><path class="cls-2" d="M835.88,531.62q3-.29,5.93-.33a9.42,9.42,0,0,1,2.49.18,10.33,10.33,0,0,1,2.28.94c3,1.5,6.23,3.36,7,6.57s-1,6.24-1.82,9.37c-1.09,4.42,0,9.06,1,13.48-7.38,2.06-15.23.54-22.73-1,1.55-2.85,3.14-6.13,2.09-9.2-.65-1.92-2.23-3.35-3.38-5a10.07,10.07,0,0,1-1.89-5.55,7.28,7.28,0,0,1,2.16-5.36,12.41,12.41,0,0,1,2.76-1.81l2.55-1.36" transform="translate(-811.52 -508.38)"/><path class="cls-2" d="M835.88,532.12c2-.17,4-.35,5.93-.33a11.67,11.67,0,0,1,5.8,1.72c3.66,2,6.45,4.6,5.44,9.17-.7,3.16-2.11,6-2.19,9.24A39.43,39.43,0,0,0,852.37,562l.34-.62c-7.47,1.94-15,.51-22.46-1l.3.73c2.25-4.19,3.63-8.24.55-12.36-1.91-2.55-3.94-5-3.63-8.4.37-4.14,4-5.64,7.19-7.36.57-.3.07-1.17-.5-.86-4.35,2.32-8.51,4.69-7.58,10.36.41,2.48,1.79,4.39,3.3,6.32,1.27,1.62,2.26,3.24,2.16,5.39s-1.3,4.43-2.36,6.41a.5.5,0,0,0,.3.73c7.59,1.54,15.35,3,23,1a.52.52,0,0,0,.35-.62c-1.11-4.64-2.15-9.36-.8-14.07.92-3.24,2.7-6.53,1.18-9.88-1.23-2.71-4-4.31-6.55-5.61-3.63-1.86-7.3-1.37-11.28-1-.64.06-.64,1.06,0,1Z" transform="translate(-811.52 -508.38)"/><path class="cls-3" d="M838.6,533.73c-.83,1.2-2.27,1.79-3.54,2.49a16.55,16.55,0,0,0-6.37,6.22c-.28.48-.53,1.09-.23,1.54s1.18.45,1.78.71c1.21.51,1.33,2.4,2.55,2.9.52.22,1.24.18,1.5.69s-.28,1.24-.06,1.83a1.42,1.42,0,0,0,.56.63l1.92,1.43a1.42,1.42,0,0,0,.54.29,1.29,1.29,0,0,0,.76-.19,6.44,6.44,0,0,0,1.67-1.26,5.46,5.46,0,0,0,3.76,1.17,2.86,2.86,0,0,0,2.18-2.11,7,7,0,0,1,.36-1.72,3.39,3.39,0,0,1,.86-1,10,10,0,0,0,3.08-3.95,4.57,4.57,0,0,0-.78-4.73A12.1,12.1,0,0,0,845.9,537a8.54,8.54,0,0,1-2.95-2.52,3.15,3.15,0,0,0-.66-.75.84.84,0,0,0-.93-.07c-.38.25-.47.91-.92.94s-.51-.26-.71-.47a2.36,2.36,0,0,0-1-.65" transform="translate(-811.52 -508.38)"/><path class="cls-3" d="M838.25,533.38c-1.41,1.68-3.61,2.34-5.34,3.62a17.53,17.53,0,0,0-3.4,3.32c-.61.8-1.86,2.17-1.67,3.3.26,1.48,2.23,1.47,3.1,2.52.39.48.54,1.1,1,1.52.26.21,1.06.39,1.25.58.85.85.33,2,1.22,2.85.67.67,2,1.79,2.94,1.85s1.29-.85,2-1,.74.12,1.5.34c2.86.83,4.32.12,5.26-2.64,1.08-3.16,4.88-4.54,4.52-8.46a4.45,4.45,0,0,0-1.89-3.34,26.23,26.23,0,0,0-2.66-1.31,13.65,13.65,0,0,1-3.08-2.73,1.73,1.73,0,0,0-1.86-.66c-.27.06-.41.57-.6.59-.67.06-1.07-.44-1.67-.71s-1.09.6-.51.86,1.25,1.14,1.86,1.18c.36,0,.54-.3.85-.33,1.46-.18,1.49.3,2.49,1.24a10.36,10.36,0,0,0,3,1.89c4.53,2.09,3.07,6.24.09,9a4.44,4.44,0,0,0-1.36,1.68c-.16.42,0,1.07-.26,1.45L842,551.6a8.67,8.67,0,0,1-2.07-1,.51.51,0,0,0-.61.08c-2,1.84-3.78.77-4.49-1.66-.11-.36,0-.74-.2-1.08-.57-.83-1.87-.94-2.55-1.77-.51-.61-.66-1.3-1.37-1.75-1.16-.73-2-1.19-1-2.66a16.41,16.41,0,0,1,2.92-3.25c2-1.65,4.64-2.41,6.32-4.4.41-.49-.3-1.2-.71-.71Z" transform="translate(-811.52 -508.38)"/><path class="cls-4" d="M894.53,509.93a5.64,5.64,0,0,1,.41,2.31l.85,22.88c.37,9.88.32,35.31.32,35.31-1.17.88-35.07,1-48.72,1.22-9.13.18-33.56-1.66-33.92-2.1a2.74,2.74,0,0,1-.41-1.72l-.7-49.26c0-2.75-.08-5.5,0-8.24C812.38,510.33,893.57,508,894.53,509.93ZM822,519.64c-.07,1.89,0,3.79,0,5.68l.54,34a1.75,1.75,0,0,0,.32,1.18c.27.31-.43-.08,0,0,6.88,1.37,19.14,1.58,26.19,1.46,10.54-.18,37.48-1.12,37.48-1.12s.67-5.25.61-6.77l-.72-17.32L885.75,521a3.59,3.59,0,0,0-.31-1.59C884.69,518,822,519.64,822,519.64Z" transform="translate(-811.52 -508.38)"/><path class="cls-5" d="M893.81,510.13c.84,2.44.51,5.5.6,8.08l.32,8.46c.14,3.91.32,7.83.41,11.75.14,6.31.18,12.63.2,18.94,0,2.74,0,5.49,0,8.23,0,1-.5,3.59,0,4.53.25.47.5-.12.15-.29s-1.39.15-1.73.18c-2,.15-4.06.21-6.08.27-23.65.73-47.45,1.31-71-1a8.41,8.41,0,0,1-2.47-.29c-.64-.34,0,.34-.43-.61s0-3.34,0-4.46l-.25-17.74c-.17-11.92-.72-23.9-.37-35.82l-.75.75c23.45-.69,46.94-1.41,70.4-1.16,2.61,0,5.23.07,7.83.2.82.05,1.65.08,2.47.19.57.08,1.09.44.81,0,.53.8,1.83.05,1.29-.76s-1.8-.71-2.57-.79c-1.92-.19-3.86-.22-5.78-.27-6.48-.16-13-.11-19.43-.05-14.83.14-29.67.47-44.5.85l-10.52.29a.76.76,0,0,0-.75.75c-.33,11.26.18,22.59.34,33.85l.24,16.75c0,2.4-.28,5.14.12,7.51.14.78.28,1.5,1,1.87,1.11.56,3.1.42,4.29.53,3,.27,5.94.5,8.91.7,6.4.44,12.82.86,19.23.87,12.88,0,25.79-.23,38.67-.54,2.59-.06,5.18-.13,7.77-.27,1.09-.06,2.89.13,3.9-.37.85-.42.74-.93.74-1.78,0-2,0-4.09,0-6.14,0-7.53,0-15.06-.18-22.59-.07-4.19-.24-8.37-.4-12.56l-.37-9.95c-.1-2.73.24-5.86-.65-8.48C895,508.83,893.5,509.22,893.81,510.13Z" transform="translate(-811.52 -508.38)"/><path class="cls-5" d="M821.25,519.64c-.21,7.21.13,14.46.24,21.68l.18,11c0,2.82-.19,5.78.48,8.5l1.1-.85-.15-.08-.18,1.37c1-.25,3.11.51,4.21.63,1.66.19,3.32.33,5,.44,3.72.25,7.45.36,11.17.4,5.5,0,11-.13,16.5-.29q13.37-.37,26.73-.85a.79.79,0,0,0,.75-.75,83.27,83.27,0,0,0,.29-14.3l-.89-21.63c-.1-2.31.79-6.07-2.09-6.52a42.79,42.79,0,0,0-5.77-.26c-14.64-.28-29.31.14-44,.46-4.28.09-8.57.18-12.85.3a.75.75,0,0,0,0,1.5q15.35-.4,30.69-.64c7.28-.11,14.56-.21,21.85-.17,2.46,0,4.93,0,7.4.13.73,0,1.48.06,2.21.14,1,.11.91,0,.85,1.11-.21,4.21.36,8.61.53,12.83L886,545a93.65,93.65,0,0,1-.23,15.8l.75-.75q-13.51.46-27,.86c-5.52.16-11,.33-16.55.27-3.73,0-7.47-.16-11.19-.41-1.77-.13-3.53-.28-5.28-.49-1.12-.14-2.83-.78-4-.51a.76.76,0,0,0-.18,1.37l.16.09a.76.76,0,0,0,1.1-.85c-.71-2.88-.4-6.13-.45-9.1l-.17-10.5c-.11-7.05-.44-14.14-.23-21.18A.75.75,0,0,0,821.25,519.64Z" transform="translate(-811.52 -508.38)"/><g class="cls-6"><path class="cls-5" d="M821.22,518.82a5.52,5.52,0,0,1-2.33-2.45l26.61-.12c8,0,39-.63,44.62-.34-1.51.7-2.42,2.48-4,2.85a6.39,6.39,0,0,1-2.34-.14,30.61,30.61,0,0,0-5-.24l-37.72.28-6.88.06c-4,0-8,0-11.93.38" transform="translate(-811.52 -508.38)"/><path class="cls-5" d="M821.6,518.17a5.65,5.65,0,0,1-2.06-2.17l-.65,1.12c13.92-.06,27.83-.12,41.75-.31,9.79-.13,19.69-.62,29.48-.15l-.37-1.4a11.72,11.72,0,0,0-1.91,1.45,4.55,4.55,0,0,1-4.11,1.16,62,62,0,0,0-8-.21l-17.87.13c-11.86.09-23.86-.34-35.69.56-1,.08-1,1.58,0,1.5,12.48-1,25.16-.48,37.67-.58l18.37-.13a39.76,39.76,0,0,1,4.23.09,13.5,13.5,0,0,0,3.58.28c1.85-.33,2.89-2.07,4.43-3a.76.76,0,0,0-.38-1.4c-9.79-.47-19.69,0-29.48.15-13.92.19-27.83.25-41.75.31a.76.76,0,0,0-.65,1.13,7.23,7.23,0,0,0,2.6,2.72c.83.51,1.58-.78.76-1.3Z" transform="translate(-811.52 -508.38)"/></g><g class="cls-6"><path class="cls-5" d="M823.22,560.73a15,15,0,0,0-3.33,3.85c10.24,1,62.35.36,69.87-.18a5.56,5.56,0,0,0-4.21-3.09,11.13,11.13,0,0,0-2.88.11c-13.43,1.63-27,1.53-40.52,1.43-2.61,0-5.22,0-7.83-.17a87.6,87.6,0,0,1-10.1-1.1" transform="translate(-811.52 -508.38)"/><path class="cls-5" d="M822.69,560.2a18.3,18.3,0,0,0-3.45,4,.76.76,0,0,0,.65,1.13c8.53.85,17.26.55,25.83.55q16.65,0,33.32-.37c3.57-.08,7.15-.11,10.72-.36a.76.76,0,0,0,.64-1.13c-2.43-4.4-6.82-3.41-11.09-3-6.08.61-12.2.9-18.31,1-12.11.24-24.6.73-36.59-1.21-.94-.16-1.35,1.29-.39,1.44,10.59,1.72,21.44,1.42,32.15,1.33,5.47,0,10.94-.18,16.41-.54q4.09-.26,8.17-.7c3.22-.35,6.53-.93,8.36,2.39l.65-1.13c-7.94.55-15.94.49-23.89.59-11.28.14-22.57.22-33.85.06-4-.06-8.11-.07-12.13-.47l.65,1.13a17,17,0,0,1,3.21-3.7c.73-.64-.34-1.7-1.06-1.06Z" transform="translate(-811.52 -508.38)"/></g><g class="cls-6"><path class="cls-5" d="M818.47,517.57,820,564.45c.18-1.7,2.15-2.73,2.53-4.4a5.35,5.35,0,0,0,0-1.87q-.48-3.52-.68-7.08c-.16-3.08-.17-6.17-.18-9.26,0-6.6,0-13.21.31-19.8a5.38,5.38,0,0,0-.16-2.08c-.46-1.37-1.88-2.12-3.18-2.74" transform="translate(-811.52 -508.38)"/><path class="cls-5" d="M817.72,517.57l1.51,46.88a.75.75,0,0,0,1.47.2c.41-1.72,2.12-2.67,2.53-4.4.47-2-.33-4.5-.5-6.49-.39-4.62-.36-9.26-.37-13.9,0-5,0-9.9.18-14.85.07-1.71.51-3.79-.13-5.43s-2.07-2.32-3.45-3c-.86-.43-1.62.87-.76,1.3,1.27.62,2.15,1,2.64,2.45a9,9,0,0,1,.24,3.7q-.12,3-.16,5.94c-.08,4.27-.07,8.54,0,12.81,0,4,.06,7.93.44,11.88.18,1.89,1,4.41,0,6.18-.73,1.27-1.72,1.93-2.08,3.42l1.48.2-1.51-46.88a.75.75,0,0,0-1.5,0Z" transform="translate(-811.52 -508.38)"/></g><g class="cls-6"><path class="cls-5" d="M886.51,519.48a7.41,7.41,0,0,1,3.59-3.06l-.89,47.81c-1-1-2.05-2.19-2.16-3.63a7.2,7.2,0,0,1,.13-1.6c.6-4.12.23-8.32,0-12.47a258.8,258.8,0,0,1-.37-26.57" transform="translate(-811.52 -508.38)"/><path class="cls-5" d="M887.16,519.86a7.51,7.51,0,0,1,3.32-2.79l-1.13-.65-.89,47.81,1.28-.53a7.18,7.18,0,0,1-1.84-2.6,9.61,9.61,0,0,1,.15-3.05,38.3,38.3,0,0,0,.2-4.79c-.06-3.72-.43-7.44-.61-11.16Q887.1,531,887.52,520c0-1-1.47-1-1.5,0-.3,8.36-.22,16.74.28,25.09a86.45,86.45,0,0,1,.34,12c-.12,1.43-.59,3-.18,4.41a8.43,8.43,0,0,0,2.22,3.26.76.76,0,0,0,1.28-.53l.89-47.81a.76.76,0,0,0-1.13-.65,9,9,0,0,0-3.86,3.33c-.53.81.76,1.56,1.3.76Z" transform="translate(-811.52 -508.38)"/></g><path class="cls-7" d="M837.85,541.27a14.61,14.61,0,0,1,0,6.07c-.21.77-.33,1,.18,1.61,1.09,1.4,2.35,1.46,3.41-.12.56-.84.29-1.92.39-2.92.15-1.46.56-2.89.69-4.35.2-2.27-2.79-1.49-4.37-1.33a.51.51,0,0,0-.35.85c1.34,1.72.6,4,.49,6,0,.76,0,1.74,1,1.9,1.92.32,1.3-4.44,1.28-5.44a.5.5,0,0,0-1-.13c-.23.87-.18,3.35-.7,4l.83.49a23.08,23.08,0,0,0,.1-6.43l-.76.43.35,1.53h1a4.76,4.76,0,0,1-.18-1.31l-.85.35.62.95c.17.5,1,.46,1-.13a5.87,5.87,0,0,1,0-1.45l-.93.26.37.91c.11.54,1.05.43,1-.13l-.16-1.39c-.07-.63-1.06-.65-1,0a2.45,2.45,0,0,1,0,1l.93-.25-.86-1.19-.29.73c1.14-.39.3,3.17.24,3.45a23.82,23.82,0,0,0-.47,2.35c0,.33.15.82.08,1.05l.83-.22-.05,0v.71l0,0c.43-.47-.28-1.18-.71-.7l0,0a.51.51,0,0,0,0,.71l0,.05a.51.51,0,0,0,.84-.22c.13-.42-.11-.72-.12-1.07,0-1.46.76-3.14,1-4.61.18-1.27-.3-3-1.93-2.4a.5.5,0,0,0-.3.73l.86,1.2a.51.51,0,0,0,.93-.26,2.45,2.45,0,0,0,0-1h-1l.16,1.39,1-.14a2.13,2.13,0,0,0-.47-1.15.5.5,0,0,0-.93.25,5.87,5.87,0,0,0,0,1.45l1-.13a3.13,3.13,0,0,0-.88-1.4.51.51,0,0,0-.85.36,8.45,8.45,0,0,0,.21,1.58.51.51,0,0,0,1,0,2.14,2.14,0,0,0-.81-2.66.5.5,0,0,0-.75.43,22.37,22.37,0,0,1-.06,6.17c-.07.42.48.92.83.48,1-1.16.6-3,1-4.43l-1-.14a10.87,10.87,0,0,1-.11,3.56c-.25.68-.14,0-.15-.3a12.69,12.69,0,0,1,.16-1.62c.18-1.79.16-3.33-1-4.79l-.36.86a7.58,7.58,0,0,1,2.8-.1c1,.35.4,1.59.24,2.47s-.28,1.54-.36,2.31.14,1.87-.44,2.52-1.06.63-1.47,0,.09-1.45.17-2.16a19.53,19.53,0,0,0-.29-5.23c-.1-.64-1.06-.37-1,.26Z" transform="translate(-811.52 -508.38)"/><path class="cls-7" d="M835.52,531.5c-2.88-2.18-5.12-5.39-8.54-6.55a2.11,2.11,0,0,0-1.19-.13,1.61,1.61,0,0,0-1,1.11,4.36,4.36,0,0,0-.12,1.57,16.27,16.27,0,0,0,.77,4.5c.75,2.14,2.26,4.22,1.82,6.45,1.21-1.23,1-3.49,2.4-4.49a3.74,3.74,0,0,1,2.26-.53,8,8,0,0,0,2.35-.16,2,2,0,0,0,1.47-1.65" transform="translate(-811.52 -508.38)"/><path class="cls-7" d="M835.87,531.14c-2.11-1.67-7.27-8.31-10.56-6.63-1.68.85-1.21,3.41-1,4.89.42,3.08,2.75,5.94,2.42,9.05a.51.51,0,0,0,.85.36,7,7,0,0,0,1-1.92c.54-1.36.44-1.64,2-2.34a6,6,0,0,1,2.89-.64,2.81,2.81,0,0,0,2.72-2.16c.15-.63-.81-.89-1-.27-.5,2.08-4.53,1-6,2.12s-1.35,3.16-2.39,4.5l.85.35a7.66,7.66,0,0,0-.67-3.86c-.75-1.87-2.54-5-1.92-7.09,1.19-4,4.63-.52,6.24.94,1.26,1.15,2.46,2.35,3.8,3.41.5.39,1.21-.31.7-.71Z" transform="translate(-811.52 -508.38)"/><path class="cls-7" d="M844.38,531.09a3.82,3.82,0,0,0,2.53-1.05,14.88,14.88,0,0,0,1.8-2.65,7.65,7.65,0,0,1,4.84-3.17.55.55,0,0,1,.42,0,.59.59,0,0,1,.22.33,11.28,11.28,0,0,1,.81,3.27c.08,2-.86,3.81-1.35,5.71a25.41,25.41,0,0,0-.57,5.64l-.57-2a5.58,5.58,0,0,0-1.91-3.31,7.4,7.4,0,0,0-3.18-.71,3.23,3.23,0,0,1-2.74-1.53.38.38,0,0,0-.09-.13" transform="translate(-811.52 -508.38)"/><path class="cls-7" d="M844.38,531.59a4.75,4.75,0,0,0,3.41-1.79c.54-.66.85-1.47,1.35-2.15.62-.85,2.53-2.92,3.82-2.78,3.06.35.91,6.1.44,7.75a26,26,0,0,0-.82,6.58l1-.13c-.49-1.67-.82-3.81-2.12-5.09-1.82-1.79-4.87-.44-6.43-2.67-.36-.52-1.23,0-.86.5a4.2,4.2,0,0,0,3.12,1.9c1.54.3,3.3.41,4.11,1.92a19.16,19.16,0,0,1,1.21,3.71.5.5,0,0,0,1-.14,25.41,25.41,0,0,1,.55-5.5c.35-1.37.94-2.67,1.2-4.06s.33-4.79-1-5.7c-1-.67-2.62.26-3.48.77-2.5,1.47-3.54,5.53-6.51,5.88-.64.07-.64,1.07,0,1Z" transform="translate(-811.52 -508.38)"/><path class="cls-7" d="M840.44,546.88a1.87,1.87,0,0,1,0,1l.91-.12-.13-.27c-.29-.58-1.15-.07-.87.51l.14.27a.5.5,0,0,0,.91-.12,3,3,0,0,0,0-1.59.5.5,0,0,0-1,.27Z" transform="translate(-811.52 -508.38)"/><path class="cls-3" d="M834.14,531c.68-.18.85.16.53,1,.34.94,0,1.41-1,1.42-.6.18-1.22.27-1.83.43a6.55,6.55,0,0,0-2.09.88c-1.61,1.16-2.15,3.63-2.88,5.36l1,.13c0-.53,0-1,0-1.58s-1-.64-1,0,0,1,0,1.58a.5.5,0,0,0,1,.14c.94-2.24,1.47-4.72,4-5.48,1.38-.4,3-.48,4.12-1.51,1.86-1.72.23-3.45-1.81-3.4-.64,0-.65,1,0,1Z" transform="translate(-811.52 -508.38)"/><path class="cls-3" d="M847.22,529.06c-.93.38-3.24.78-3.63,1.9s.71,2.16,1.42,2.67c1.7,1.22,4.14.89,5.72,2.31s.77,3.45,2.3,4.59c.51.39,1-.48.5-.86-.86-.65-.7-2.4-1.23-3.33a4.69,4.69,0,0,0-2-1.89,23.17,23.17,0,0,0-3.27-1c-1-.35-1.83-.55-1.66-1.79s1-1.22,2.14-1.67c.59-.24.34-1.21-.26-1Z" transform="translate(-811.52 -508.38)"/><path class="cls-8" d="M834.23,539.54a1.29,1.29,0,0,0-1.69.39,2.08,2.08,0,0,0,0,2.15c.71,1.28,2.81,1.59,3.42,0a1.57,1.57,0,0,0-.53-1.83,2.12,2.12,0,0,0-1.85-.66c-1.52.43-.51,2.83.82,2.68a1,1,0,0,0,.81-1.32c-.24-.52-1.12-1.06-1.66-.68-1.07.75.62,3,1.58,1.83s-1.92-2.69-2-1.06a1.57,1.57,0,0,0,1.24,1.56,1.16,1.16,0,0,0,1.37-1c.09-1.4-3.29-2.36-3.27-.67a2.14,2.14,0,0,0,1.34,1.69c.72.28,1.59-.17,1.37-1-.15-.63-1.12-.36-1,.26-.07-.29-.48-.43-.64-.69a.37.37,0,0,1-.09-.19q0-.13-.06.06a4.42,4.42,0,0,1,.5.1c.17.05.77.19.78.39s-.32.09-.41,0-.15-.36-.19-.33l-.35.15c.13,0,.25.16.36.19s.15.14.17,0a.19.19,0,0,0,0-.28l-.06-.13c-.23.09-.25.17-.06.23a1.12,1.12,0,0,1-.21-.22c-.2-.26-.26-.59.14-.46a1.86,1.86,0,0,1,.88.65c.42.72-.63,1.05-1.13.77a1.26,1.26,0,0,1-.62-.95c0-.25.08-.92.48-.71.57.31,1.07-.55.51-.86Z" transform="translate(-811.52 -508.38)"/><path class="cls-9" d="M834.7,540.49c-.32-.76-1.29-.24-1.5.31a1.18,1.18,0,0,0,.95,1.64,1.07,1.07,0,0,0,1.05-1.5,1,1,0,0,0-1.75-.09,1,1,0,0,0,.82,1.54,1,1,0,0,0,.9-1.54,1.22,1.22,0,0,0-1.82-.5,1.25,1.25,0,0,0-.08,1.91,1.42,1.42,0,0,0,2.13-.21c.55-1-.52-1.67-1.33-1.87-.63-.15-.89.82-.27,1,.15,0,1,.27.6.48-.23.12-.63-.13-.51-.39s.47.09.42.18-.11,0-.14,0a.16.16,0,0,1-.06-.22c.06-.14,0-.21-.27-.19.25.59,1.11.08.86-.51Z" transform="translate(-811.52 -508.38)"/><path class="cls-5" d="M834,540.45a1.58,1.58,0,0,0-.16,2,.26.26,0,0,0,.34.09,1.41,1.41,0,0,0,.26-2c-.13-.16-.36-.05-.42.11a3.54,3.54,0,0,0-.18,1.29l.49-.07-.08-.21c-.11-.3-.59-.17-.48.13l.08.22c.09.24.51.23.49-.07a3.08,3.08,0,0,1,.16-1.16l-.41.12a.9.9,0,0,1-.16,1.26l.34.09a1.1,1.1,0,0,1,.09-1.37c.21-.23-.14-.59-.36-.35Z" transform="translate(-811.52 -508.38)"/><path class="cls-8" d="M845.42,539.54a1.29,1.29,0,0,0-1.69.39,2.08,2.08,0,0,0,0,2.15c.72,1.28,2.81,1.59,3.42,0a1.57,1.57,0,0,0-.53-1.83,2.12,2.12,0,0,0-1.85-.66c-1.51.43-.51,2.83.83,2.68a1,1,0,0,0,.8-1.32c-.24-.52-1.12-1.06-1.66-.68-1.06.75.63,3,1.58,1.83s-1.91-2.69-1.95-1.06a1.56,1.56,0,0,0,1.23,1.56,1.17,1.17,0,0,0,1.38-1c.09-1.4-3.3-2.36-3.28-.67a2.15,2.15,0,0,0,1.34,1.69c.72.28,1.59-.17,1.38-1a.5.5,0,0,0-1,.26c-.07-.29-.48-.43-.64-.69a.48.48,0,0,1-.09-.19c0-.09,0-.07-.06.06a4.42,4.42,0,0,1,.5.1c.17.05.78.19.78.39s-.32.09-.41,0-.15-.36-.19-.33l-.35.15c.13,0,.25.16.36.19s.15.14.17,0a.19.19,0,0,0,0-.28l-.06-.13c-.24.09-.26.17-.06.23a.74.74,0,0,1-.21-.22c-.21-.26-.27-.59.13-.46a1.76,1.76,0,0,1,.88.65c.42.72-.63,1.05-1.13.77a1.28,1.28,0,0,1-.62-.95c0-.25.09-.92.48-.71.57.31,1.07-.55.51-.86Z" transform="translate(-811.52 -508.38)"/><path class="cls-9" d="M845.9,540.49c-.33-.76-1.29-.24-1.51.31a1.18,1.18,0,0,0,1,1.64,1.07,1.07,0,0,0,1-1.5,1,1,0,0,0-1.75-.09,1,1,0,0,0,.82,1.54,1,1,0,0,0,.9-1.54,1.21,1.21,0,0,0-1.81-.5,1.25,1.25,0,0,0-.08,1.91,1.41,1.41,0,0,0,2.12-.21c.56-1-.52-1.67-1.33-1.87-.62-.15-.89.82-.26,1,.15,0,1,.27.59.48-.22.12-.63-.13-.51-.39s.47.09.42.18-.11,0-.14,0a.17.17,0,0,1-.06-.22c.06-.14,0-.21-.27-.19.25.59,1.12.08.87-.51Z" transform="translate(-811.52 -508.38)"/><path class="cls-5" d="M845.21,540.45a1.61,1.61,0,0,0-.16,2,.27.27,0,0,0,.35.09,1.42,1.42,0,0,0,.25-2c-.12-.16-.36-.05-.42.11a3.33,3.33,0,0,0-.17,1.29l.49-.07-.08-.21c-.12-.3-.6-.17-.49.13l.08.22c.1.24.51.23.5-.07a2.72,2.72,0,0,1,.16-1.16l-.42.12a.9.9,0,0,1-.16,1.26l.35.09a1.09,1.09,0,0,1,.08-1.37c.21-.23-.14-.59-.36-.35Z" transform="translate(-811.52 -508.38)"/><path class="cls-10" d="M833.58,541.78a.5.5,0,0,0,0-1,.5.5,0,0,0,0,1Z" transform="translate(-811.52 -508.38)"/><path class="cls-10" d="M845.36,541.19v-.09a.5.5,0,0,0-1,0v.09a.5.5,0,0,0,1,0Z" transform="translate(-811.52 -508.38)"/><path class="cls-10" d="M842.21,550.21a16.12,16.12,0,0,1,13.59-4c.16,0,.23-.22.07-.24A16.36,16.36,0,0,0,842,550c-.12.11.05.28.17.17Z" transform="translate(-811.52 -508.38)"/><path class="cls-10" d="M843.91,550.07a31.09,31.09,0,0,1,9.17-2.08c.16,0,.16-.26,0-.25a31.24,31.24,0,0,0-9.24,2.09c-.15.06-.08.3.07.24Z" transform="translate(-811.52 -508.38)"/><path class="cls-10" d="M844.7,551.1a13.27,13.27,0,0,1,9.47,1.2c.14.07.27-.15.12-.22a13.51,13.51,0,0,0-9.66-1.22.13.13,0,0,0,.07.24Z" transform="translate(-811.52 -508.38)"/><path class="cls-10" d="M838.25,550.43c-1.38-1.46-4-1.26-5.86-1.1a17.29,17.29,0,0,0-7.52,2.59c-.13.09,0,.3.13.22a17,17,0,0,1,5.76-2.32c2-.39,5.76-.86,7.31.78.11.12.29-.06.18-.17Z" transform="translate(-811.52 -508.38)"/><path class="cls-10" d="M836.25,551.16c-3.35-.33-7.08-.43-9.29,2.55-.09.13.12.25.22.12,2.16-2.91,5.84-2.73,9.07-2.42.16,0,.16-.23,0-.25Z" transform="translate(-811.52 -508.38)"/><path class="cls-10" d="M838,551.64c-3.37-.17-6.06,1.7-8.65,3.64-.13.1,0,.31.12.22,2.55-1.92,5.19-3.78,8.53-3.61.16,0,.16-.24,0-.25Z" transform="translate(-811.52 -508.38)"/><path class="cls-10" d="M836.78,551.51c-2.25-1.44-5.53-2.16-7.2.5-.08.14.13.26.22.13,1.6-2.56,4.74-1.77,6.86-.41.13.09.26-.13.12-.22Z" transform="translate(-811.52 -508.38)"/><path class="cls-10" d="M843.19,551.22a8.42,8.42,0,0,1,6.33-1.4c.16,0,.23-.21.07-.24a8.67,8.67,0,0,0-6.52,1.43c-.13.09,0,.31.12.21Z" transform="translate(-811.52 -508.38)"/><path class="cls-10" d="M829.45,538.91c-1.43-.52-5.38-1.77-5.93.53a.12.12,0,0,0,.24.06c.5-2,4.4-.79,5.62-.35.15.05.22-.19.07-.24Z" transform="translate(-811.52 -508.38)"/><path class="cls-10" d="M829.34,540.16c-.74-.16-7.29-1.09-5.91,1,.09.14.3,0,.22-.12-.74-1.11,2.59-1,2.86-1a17.11,17.11,0,0,1,2.76.37c.16,0,.23-.2.07-.24Z" transform="translate(-811.52 -508.38)"/><path class="cls-10" d="M828.31,541.17c-1.69-.26-4.18-.36-4.63,1.79,0,.16.21.23.24.07.42-2,2.77-1.86,4.33-1.62.16,0,.22-.21.06-.24Z" transform="translate(-811.52 -508.38)"/><path class="cls-10" d="M850.14,538.79c0-1.6,4.07-4.26,5.47-3,.12.1.3-.07.18-.18-.93-.85-2.24-.23-3.19.28s-2.69,1.49-2.71,2.88a.13.13,0,0,0,.25,0Z" transform="translate(-811.52 -508.38)"/><path class="cls-10" d="M851.39,539.09a4.06,4.06,0,0,1,4-1.8c.16,0,.16-.23,0-.25a4.27,4.27,0,0,0-4.18,1.93c-.09.13.12.26.21.12Z" transform="translate(-811.52 -508.38)"/><path class="cls-10" d="M851.64,540.29a9.4,9.4,0,0,1,4.52-.5c.16,0,.15-.23,0-.25a9.38,9.38,0,0,0-4.58.51c-.15.06-.09.3.06.24Z" transform="translate(-811.52 -508.38)"/></svg>