<svg id="Calque_1" data-name="Calque 1" xmlns="http://www.w3.org/2000/svg" viewBox="0 0 81.47 60.43"><defs><style>.cls-1{fill:#c4143b;stroke:#1d1d1b;stroke-miterlimit:10;stroke-width:1.5px;}.cls-2{fill:#1d1d1b;}.cls-3{fill:#fff;}.cls-4{fill:#62402f;}.cls-5{opacity:0.68;}.cls-6{fill:#432b1d;}</style></defs><title>15</title><rect class="cls-1" x="4.99" y="5.63" width="70.23" height="49.04"/><path class="cls-2" d="M838.37,546.2c-3.92,0-6.44.59-7.94,2.69a5.72,5.72,0,0,0,.46,6.86c1.66,1.91,4.44,2.51,7,2.2a8.37,8.37,0,0,0,5.63-2.89c1.32-1.72,1.74-4.41.33-6C841.74,546.62,840.26,546.2,838.37,546.2Z" transform="translate(-812.96 -510.25)"/><path class="cls-2" d="M838.37,545.7c-3.67,0-8.22.62-9.22,4.87s2.37,7.43,6.26,7.88c4.06.48,9-1.54,9.69-6,.62-3.87-3.21-6.68-6.73-6.77a.5.5,0,0,0,0,1c3.3.09,6.68,2.92,5.55,6.47s-5.52,4.76-8.78,4.22c-3.71-.61-6.73-4.53-4.33-8.13,1.64-2.44,4.91-2.53,7.56-2.56A.5.5,0,0,0,838.37,545.7Z" transform="translate(-812.96 -510.25)"/><path class="cls-2" d="M862,546.2c-3.92,0-6.45.59-8,2.69a5.75,5.75,0,0,0,.46,6.86c1.66,1.91,4.45,2.51,7,2.2a8.35,8.35,0,0,0,5.63-2.89c1.33-1.72,1.75-4.41.33-6C865.37,546.62,863.89,546.2,862,546.2Z" transform="translate(-812.96 -510.25)"/><path class="cls-2" d="M862,545.7c-3.67,0-8.23.62-9.23,4.87s2.37,7.43,6.27,7.88c4.06.48,9-1.54,9.69-6,.61-3.87-3.21-6.68-6.73-6.77a.5.5,0,0,0,0,1c3.3.09,6.68,2.92,5.54,6.47s-5.52,4.76-8.78,4.22c-3.71-.61-6.72-4.53-4.32-8.13,1.63-2.44,4.91-2.53,7.56-2.56A.5.5,0,0,0,862,545.7Z" transform="translate(-812.96 -510.25)"/><path class="cls-2" d="M845,551.71q-.19-13.44-.15-26.86a.5.5,0,0,0-1,0q0,13.42.15,26.86a.5.5,0,0,0,1,0Z" transform="translate(-812.96 -510.25)"/><path class="cls-2" d="M868.89,552.12q-.18-13.44-.14-26.86a.5.5,0,0,0-1,0q0,13.43.14,26.86a.5.5,0,0,0,1,0Z" transform="translate(-812.96 -510.25)"/><path class="cls-2" d="M844.8,524.74a26.4,26.4,0,0,1,7.73-1.44,41.81,41.81,0,0,1,4.72.53,73.28,73.28,0,0,0,11,.34l-.29,7.71c-3.53-.73-7.21.3-10.8-.11-2.21-.26-4.41-1.07-6.62-.74-1.84.28-5.84,1.47-5.84,1.47-.23-.1,0-5.43-.22-6.53" transform="translate(-812.96 -510.25)"/><path class="cls-2" d="M844.94,525.22a26.19,26.19,0,0,1,7.59-1.42c2.49,0,5,.63,7.46.8,1.22.08,2.44.11,3.66.12.64,0,3.23-.4,3.68,0,1.1.9.17,5.77.12,7.19l.63-.48c-3.36-.57-6.66.15-10-.06-3.11-.19-5.79-1.22-8.91-.54-1.14.25-2.27.56-3.39.88-.23.06-.81.36-1,.29.44.13.23-.13.36-.59.44-1.46.09-4-.13-5.55-.09-.63-1.05-.36-1,.27.28,2-.62,4.84.27,6.66a.51.51,0,0,0,.56.23c3.11-.92,6-1.82,9.3-1.25a29.82,29.82,0,0,0,5.73.62c2.69-.06,5.29-.45,8,0a.52.52,0,0,0,.64-.49l.29-7.71a.5.5,0,0,0-.5-.5,80.67,80.67,0,0,1-12.81-.6,24.76,24.76,0,0,0-10.76,1.19.5.5,0,0,0,.27,1Z" transform="translate(-812.96 -510.25)"/><path class="cls-3" d="M837.31,546.73a6,6,0,0,0-6.21,2.61,3.69,3.69,0,0,0-.55,1.31c-.3,1.56.74,3.09,2,4.09a6.92,6.92,0,0,1-.16-3.63,6.82,6.82,0,0,1,1.1-1.88,4.16,4.16,0,0,1,1.1-1.15,5.26,5.26,0,0,1,1.16-.45,7.86,7.86,0,0,0,1.65-.8" transform="translate(-812.96 -510.25)"/><path class="cls-3" d="M837.38,546.49a6.37,6.37,0,0,0-6.23,2.33c-1.63,2.17-.69,4.46,1.19,6.1a.25.25,0,0,0,.42-.24c-.45-2-.41-3.6.91-5.33,1-1.29,2.5-1.51,3.83-2.3a.25.25,0,0,0-.26-.43c-.83.5-1.77.7-2.62,1.15a5.18,5.18,0,0,0-1.7,1.78c-1.16,1.71-1.07,3.3-.64,5.26l.42-.24c-1.88-1.64-2.64-3.94-.74-5.93a5.83,5.83,0,0,1,5.28-1.66c.32,0,.45-.43.14-.49Z" transform="translate(-812.96 -510.25)"/><path class="cls-3" d="M858.39,546.94a7.84,7.84,0,0,0-2.26.41,3.23,3.23,0,0,0-1.74,1.42,3.63,3.63,0,0,0-.33,1,5.88,5.88,0,0,0,1.52,5,7.87,7.87,0,0,1,0-4.33,5.3,5.3,0,0,1,2.77-3.23" transform="translate(-812.96 -510.25)"/><path class="cls-3" d="M858.39,546.69c-1.93.16-4,.66-4.51,2.77A6.14,6.14,0,0,0,855.4,555c.17.2.47,0,.42-.24-.63-2.81-.08-5.89,2.69-7.29.29-.14,0-.58-.25-.43-3,1.5-3.6,4.83-2.93,7.85l.42-.24a5.72,5.72,0,0,1-1.49-4.33c.22-2.35,2.06-2.95,4.13-3.12.32,0,.32-.53,0-.5Z" transform="translate(-812.96 -510.25)"/><path class="cls-4" d="M815.35,512.22c28.08-1.2,44.41-.25,70.56-1.11,2-.07,4.57-.08,5.48,1.74a5.17,5.17,0,0,1,.39,2.13l.8,21.11q.51,13.68,1,27.34c.08,2,0,4.42-1.65,5.62-1.11.81-32.17.5-45.06.74-8.61.16-22.18.54-30.6-1.28a2.39,2.39,0,0,1-1.4-.66,2.49,2.49,0,0,1-.39-1.59l-.66-45.44c0-2.53-.07-5.07,0-7.6Zm7.6,9.59c-.07,1.74,0,3.49,0,5.24l.51,31.36a1.5,1.5,0,0,0,.3,1.09,2,2,0,0,0,1.08.46c6.5,1.26,17,1,23.63.88,9.95-.16,33.93.06,34.79-.5,1.27-.83,1.33-2.47,1.27-3.88l-.8-18.87L883.1,523a3.11,3.11,0,0,0-.3-1.47c-.7-1.26-2.65-1.25-4.23-1.21-20.19.6-32.8-.06-54.48.76Z" transform="translate(-812.96 -510.25)"/><path class="cls-2" d="M815.35,513c18.22-.77,36.43-.56,54.66-.76q7-.09,14.07-.29c2.12-.07,5.91-.77,6.83,1.81.4,1.15.18,2.92.23,4.13l.18,4.8q.6,16,1.21,32c.1,2.61.2,5.21.29,7.82.06,1.68.49,5.1-1.36,6-1.12.52-3.18.24-4.39.28-6,.19-11.91.18-17.86.2-14.09.05-28.32.81-42.38.08-2.41-.13-4.82-.31-7.22-.65a12.07,12.07,0,0,1-3.11-.54c-1.5-.74-1.25-2.49-1.28-4L815,545.51l-.27-18.76c0-2.93-.1-5.85-.12-8.78,0-.63,0-1.27,0-1.9,0-.06-.2-2.29-.2-2.28.15-.32,1-.71,1.37-.93.79-.53,0-1.83-.76-1.29-.59.4-1.51.78-1.83,1.45s-.08,2.7-.08,3.53c0,1.75,0,3.5.06,5.26q.12,9.13.26,18.27l.27,18.28c0,2.75-.26,5.74.13,8.46a2.59,2.59,0,0,0,2.06,2.35c3.88,1.24,8.51,1.22,12.54,1.38,4.85.19,9.71.15,14.56.06,7-.12,13.94-.17,20.92-.19s14.22,0,21.33-.17c3.8-.09,8.27.82,9.06-4,.4-2.49,0-5.17-.07-7.67l-.35-9.28-.69-18-.32-8.64a79.76,79.76,0,0,0-.36-8.61c-.58-3.86-4.32-3.76-7.47-3.66-23.21.7-46.43.1-69.64,1.08C814.39,511.51,814.38,513,815.35,513Z" transform="translate(-812.96 -510.25)"/><path class="cls-2" d="M822.2,521.81c-.27,8.91.19,17.88.34,26.8l.11,6.86c0,1.25-.39,3.32.45,4.41,1.2,1.57,5.48,1.38,7.23,1.51,12,.91,24.36.15,36.45.11,4.76,0,9.53,0,14.29-.19a6.53,6.53,0,0,0,2.56-.33c2.42-1.26,1.6-5.45,1.52-7.5L884,525.94c-.12-2.8.27-5.67-3.1-6.25s-7.49,0-11,.11c-8,.12-16.09.07-24.13.12-4.41,0-8.82.07-13.23.18-3.14.08-7.18-.61-9.93,1.06a.75.75,0,0,0,.76,1.29c2.2-1.33,5.72-.76,8.27-.83,3.66-.09,7.31-.15,11-.18,6.16-.06,12.33,0,18.5-.06,3.2,0,6.41,0,9.62-.1l5.18-.1c2.25-.06,5.59-.94,6.48,1.85.53,1.63.18,4.1.25,5.82l.21,4.86.54,12.82c.15,3.59.84,7.6.42,11.17-.28,2.39-1.52,2.06-3.37,2.13-4.12.16-8.25.15-12.37.16-10.21,0-20.44.33-30.64.19a91.75,91.75,0,0,1-9.95-.57,9.22,9.22,0,0,1-2.41-.37c-1.32-.71-.86-2.54-.88-3.77l-.11-6.86c-.15-8.92-.61-17.89-.34-26.8A.75.75,0,0,0,822.2,521.81Z" transform="translate(-812.96 -510.25)"/><g class="cls-5"><path class="cls-6" d="M815.1,513.26l5.48,6a6.79,6.79,0,0,1,2.37,5.9l.64,31.85a4.2,4.2,0,0,0,.28,1.73c.63,1.37,2.41,1.65,3.92,1.76,18.74,1.31,37.6,2.61,56.29.69-7,2.71-14.11,5.43-21.5,6.89-10.85,2.14-22,1.51-33.07.86l-9-.52c-1.65-.1-3.49-.28-4.58-1.53-.94-1.09-1-2.66-1-4.1l-.56-25.42a174.36,174.36,0,0,1,.8-24.08" transform="translate(-812.96 -510.25)"/><path class="cls-6" d="M814.57,513.79l4.87,5.3a9.23,9.23,0,0,1,2.78,7c.11,5,.2,10,.3,14.93L822.8,555c.07,3.47.36,5.6,4.13,6.14,4.49.65,9.17.67,13.7,1s9.22.51,13.84.65a226.86,226.86,0,0,0,29.61-.82l-.2-1.47c-9.67,3.72-19.32,7.15-29.73,8-9.85.8-19.76,0-29.6-.58-2-.11-4.82.19-6.7-.64-3.06-1.34-2.27-5.66-2.33-8.38l-.34-15.65c-.22-10-.38-20,.67-29.94.1-1-1.4-1-1.5,0a201.63,201.63,0,0,0-.77,25.54l.29,13.21c.09,4.08-.2,8.37.34,12.41.37,2.76,2,4.18,4.74,4.58,3.92.57,8,.52,12,.74,8.67.5,17.4.93,26.05-.07,9.51-1.11,18.42-4.37,27.3-7.79.72-.27.71-1.56-.2-1.47-18.35,1.83-37,.86-55.31-.62a8,8,0,0,1-2.76-.35c-2.13-1.08-1.69-3.61-1.73-5.44l-.14-7-.28-13.93c0-2.33-.08-4.65-.14-7a12.23,12.23,0,0,0-.58-4.62,14.3,14.3,0,0,0-2.94-3.81l-4.57-5c-.66-.71-1.72.35-1.06,1.06Z" transform="translate(-812.96 -510.25)"/></g><path class="cls-2" d="M815.35,512.86c18.22-.77,36.43-.56,54.66-.76q7-.09,14.07-.29c2.12-.07,5.91-.77,6.83,1.82.4,1.14.18,2.91.23,4.12l.18,4.8q.6,16,1.21,32,.15,3.9.29,7.81c.06,1.68.49,5.1-1.36,6-1.12.53-3.18.24-4.39.28-6,.19-11.91.18-17.86.2-14.09.05-28.32.81-42.38.08-2.41-.13-4.82-.31-7.22-.65a12.07,12.07,0,0,1-3.11-.54c-1.5-.74-1.25-2.49-1.28-4L815,545.41l-.27-18.77c0-2.93-.1-5.85-.12-8.78,0-.63,0-1.27,0-1.9,0-.06-.2-2.29-.2-2.28.15-.32,1-.71,1.37-.92.79-.54,0-1.84-.76-1.3-.59.4-1.51.78-1.83,1.45s-.08,2.7-.08,3.53c0,1.75,0,3.51.06,5.26q.12,9.13.26,18.27l.27,18.28c0,2.75-.26,5.74.13,8.46a2.59,2.59,0,0,0,2.06,2.35c3.88,1.24,8.51,1.22,12.54,1.38,4.85.19,9.71.15,14.56.06,7-.12,13.94-.17,20.92-.19s14.22,0,21.33-.17c3.8-.09,8.27.82,9.06-4,.4-2.49,0-5.16-.07-7.67l-.35-9.27-.69-18-.32-8.64a79.47,79.47,0,0,0-.36-8.6c-.58-3.87-4.32-3.77-7.47-3.67-23.21.7-46.43.1-69.64,1.08C814.39,511.4,814.38,512.9,815.35,512.86Z" transform="translate(-812.96 -510.25)"/><path class="cls-2" d="M822.2,521.7c-.27,8.91.19,17.88.34,26.8l.11,6.86c0,1.25-.39,3.32.45,4.41,1.2,1.57,5.48,1.38,7.23,1.51,12,.92,24.36.15,36.45.11,4.76,0,9.53,0,14.29-.19a6.71,6.71,0,0,0,2.56-.32c2.42-1.27,1.6-5.45,1.52-7.51L884,525.83c-.12-2.8.27-5.67-3.1-6.25s-7.49,0-11,.11c-8,.12-16.09.07-24.13.12q-6.62,0-13.23.18c-3.14.08-7.18-.61-9.93,1.06a.75.75,0,0,0,.76,1.29c2.2-1.33,5.72-.76,8.27-.83,3.66-.09,7.31-.15,11-.18,6.16-.06,12.33,0,18.5-.06,3.2,0,6.41,0,9.62-.1,1.73,0,3.45-.06,5.18-.1,2.25-.06,5.59-.94,6.48,1.85.53,1.63.18,4.1.25,5.83l.21,4.85.54,12.82c.15,3.6.84,7.6.42,11.17-.28,2.39-1.52,2.07-3.37,2.13-4.12.16-8.25.15-12.37.16-10.21,0-20.44.33-30.64.19a89.29,89.29,0,0,1-9.95-.57,9.22,9.22,0,0,1-2.41-.37c-1.32-.71-.86-2.54-.88-3.77L824,548.5c-.15-8.92-.61-17.89-.34-26.8A.75.75,0,0,0,822.2,521.7Z" transform="translate(-812.96 -510.25)"/></svg>