<svg id="Calque_1" data-name="Calque 1" xmlns="http://www.w3.org/2000/svg" viewBox="0 0 92.83 72.36"><defs><style>.cls-1{fill:#d0635e;}.cls-2{fill:#5297d2;}.cls-3{fill:#fff;}.cls-4{fill:#2e2d2c;}.cls-5{fill:#1d1d1b;}</style></defs><title>16</title><path class="cls-1" d="M815.73,512.62a114.65,114.65,0,0,0,0,52.24c.37,1.6.94,3.39,2.44,4.07a5.32,5.32,0,0,0,1.68.37c20.78,2.19,41.85-1.1,62.61,1.27,2.56.3,5.12.68,7.67,1a3.9,3.9,0,0,0,2-.06,3.4,3.4,0,0,0,1.61-1.82c1.7-3.52,1.79-7.58,1.84-11.5l.45-31.88c0-3.91.09-7.91-1.27-11.57a4.32,4.32,0,0,0-1.51-2.21,4.83,4.83,0,0,0-2.38-.56c-14.18-.91-28.38-1.81-42.58-1.57-9.77.16-19.51.87-29.24,1.76" transform="translate(-807.67 -504.57)"/><path class="cls-1" d="M814.77,512.36c-4,17.13-4.66,36.3.11,53.37.91,3.25,2.64,4.34,5.92,4.67,4.7.47,9.44.64,14.16.68,9.64.09,19.27-.41,28.91-.42,4.89,0,9.79.13,14.66.53,2.5.21,5,.5,7.47.84,1.75.24,4,.94,5.73.63,3-.5,3.87-4.57,4.3-7,.73-4.07.54-8.28.6-12.39.14-9.86.48-19.75.39-29.62,0-3.39-.08-8-2.21-10.86a4.22,4.22,0,0,0-3-1.67c-2.41-.39-4.95-.35-7.39-.5-10.88-.67-21.78-1.24-32.69-1.2s-21.82.81-32.7,1.8c-1.27.12-1.28,2.12,0,2a375.67,375.67,0,0,1,50.54-1.41c4.29.19,8.58.43,12.87.69l6.43.4c1.39.09,3.38.12,4.42,1.16.66.67.91,2.26,1.12,3.15,1,4.11.6,8.47.55,12.64l-.18,13-.18,12.45c-.05,3.93.18,8.09-1,11.89-.39,1.33-.7,2.46-2,3.11s-2.36.26-3.7.06c-1.84-.26-3.69-.52-5.54-.73-4.21-.48-8.45-.73-12.68-.84-8.5-.21-17,.13-25.48.29-4.08.08-8.16.11-12.24,0-2.12,0-4.24-.13-6.36-.26s-5.28.12-7.11-.91-2.1-4-2.51-6q-.67-3.23-1.15-6.49a111.47,111.47,0,0,1-1.18-14.26,114.39,114.39,0,0,1,3-28.2c.28-1.25-1.64-1.79-1.93-.53Z" transform="translate(-807.67 -504.57)"/><path class="cls-2" d="M816.42,513.44A140.11,140.11,0,0,1,831.59,530v-1.41A51.57,51.57,0,0,0,820,545.83a1,1,0,0,0,.26,1c3.64,3.42,7.13,7,10.43,10.74,1.66,1.89,4.58,4.2,3.8,6.88-.68,2.35-2.41,4.79-3.52,7-.58,1.14,1.15,2.16,1.73,1,1.38-2.74,3.08-5.48,4.19-8.33.82-2.08-.85-3.33-2.12-4.85a155.68,155.68,0,0,0-13.1-13.84l.26,1A49.17,49.17,0,0,1,833,530a1,1,0,0,0,0-1.41A139.43,139.43,0,0,0,817.84,512c-1-.87-2.36.54-1.42,1.42Z" transform="translate(-807.67 -504.57)"/><path class="cls-2" d="M826,513.44A140.11,140.11,0,0,1,841.13,530v-1.41a51.72,51.72,0,0,0-11.6,17.22,1,1,0,0,0,.26,1q5.46,5.13,10.44,10.74c1.66,1.89,4.57,4.2,3.79,6.88-.68,2.35-2.41,4.79-3.52,7-.58,1.14,1.15,2.16,1.73,1,1.38-2.74,3.08-5.48,4.19-8.33.82-2.08-.85-3.33-2.12-4.85a155.68,155.68,0,0,0-13.1-13.84l.26,1A49.17,49.17,0,0,1,842.55,530a1,1,0,0,0,0-1.41A139.43,139.43,0,0,0,827.38,512c-.94-.87-2.36.54-1.42,1.42Z" transform="translate(-807.67 -504.57)"/><path class="cls-2" d="M836.54,513.44A139.26,139.26,0,0,1,851.71,530v-1.41a51.72,51.72,0,0,0-11.6,17.22,1,1,0,0,0,.26,1q5.46,5.13,10.44,10.74c1.66,1.89,4.57,4.2,3.79,6.88-.68,2.35-2.41,4.79-3.52,7-.58,1.14,1.15,2.16,1.73,1,1.38-2.74,3.08-5.48,4.19-8.33.82-2.08-.85-3.33-2.12-4.85a157,157,0,0,0-13.09-13.84l.25,1A49.17,49.17,0,0,1,853.13,530a1,1,0,0,0,0-1.41A139.43,139.43,0,0,0,838,512c-.94-.87-2.36.54-1.42,1.42Z" transform="translate(-807.67 -504.57)"/><path class="cls-2" d="M846.08,513.44A140.2,140.2,0,0,1,861.26,530v-1.41a51.6,51.6,0,0,0-11.61,17.22,1,1,0,0,0,.26,1q5.46,5.13,10.44,10.74c1.66,1.89,4.57,4.2,3.8,6.88-.69,2.35-2.42,4.79-3.53,7-.57,1.14,1.15,2.16,1.73,1,1.38-2.74,3.08-5.48,4.19-8.33.82-2.08-.85-3.33-2.12-4.85a157,157,0,0,0-13.09-13.84l.25,1A49.17,49.17,0,0,1,862.67,530a1,1,0,0,0,0-1.41A139.43,139.43,0,0,0,847.5,512c-.94-.87-2.36.54-1.42,1.42Z" transform="translate(-807.67 -504.57)"/><path class="cls-2" d="M857.88,513.44A140.11,140.11,0,0,1,873.05,530v-1.41a51.57,51.57,0,0,0-11.6,17.22,1,1,0,0,0,.26,1c3.64,3.42,7.13,7,10.43,10.74,1.66,1.89,4.58,4.2,3.8,6.88-.68,2.35-2.41,4.79-3.52,7-.58,1.14,1.15,2.16,1.73,1,1.38-2.74,3.07-5.48,4.19-8.33.81-2.08-.85-3.33-2.12-4.85a157.14,157.14,0,0,0-13.1-13.84l.26,1A49.17,49.17,0,0,1,874.47,530a1,1,0,0,0,0-1.41A139.51,139.51,0,0,0,859.29,512c-.94-.87-2.35.54-1.41,1.42Z" transform="translate(-807.67 -504.57)"/><path class="cls-2" d="M868.89,513.44A140.11,140.11,0,0,1,884.06,530v-1.41a51.57,51.57,0,0,0-11.6,17.22,1,1,0,0,0,.26,1c3.64,3.42,7.13,7,10.43,10.74,1.66,1.89,4.58,4.2,3.8,6.88-.68,2.35-2.41,4.79-3.52,7-.58,1.14,1.15,2.16,1.73,1,1.38-2.74,3.07-5.48,4.19-8.33.81-2.08-.85-3.33-2.12-4.85a157.14,157.14,0,0,0-13.1-13.84l.26,1A49.17,49.17,0,0,1,885.48,530a1,1,0,0,0,0-1.41A139.51,139.51,0,0,0,870.3,512c-.94-.87-2.35.54-1.41,1.42Z" transform="translate(-807.67 -504.57)"/><path class="cls-2" d="M878.43,513.44A140.11,140.11,0,0,1,893.6,530v-1.41A51.57,51.57,0,0,0,882,545.83a1,1,0,0,0,.26,1c3.64,3.42,7.13,7,10.43,10.74,1.66,1.89,4.58,4.2,3.8,6.88-.68,2.35-2.41,4.79-3.52,7-.58,1.14,1.15,2.16,1.73,1,1.38-2.74,3.08-5.48,4.19-8.33.82-2.08-.85-3.33-2.12-4.85a155.68,155.68,0,0,0-13.1-13.84l.26,1A49.17,49.17,0,0,1,895,530a1,1,0,0,0,0-1.41A139.43,139.43,0,0,0,879.85,512c-1-.87-2.36.54-1.42,1.42Z" transform="translate(-807.67 -504.57)"/><path class="cls-2" d="M808.77,514.65A127.17,127.17,0,0,1,822.64,530v-1.41A51.72,51.72,0,0,0,811,545.83a1,1,0,0,0,.26,1q5.46,5.13,10.44,10.74c1.66,1.89,4.57,4.2,3.79,6.88-.68,2.35-2.41,4.79-3.52,7-.58,1.14,1.15,2.16,1.73,1,1.38-2.74,3.08-5.48,4.19-8.33.82-2.08-.85-3.33-2.12-4.85a155.68,155.68,0,0,0-13.1-13.84l.26,1A49.17,49.17,0,0,1,824.06,530a1,1,0,0,0,0-1.41,127.25,127.25,0,0,0-13.88-15.37c-.94-.88-2.36.53-1.41,1.41Z" transform="translate(-807.67 -504.57)"/><path class="cls-3" d="M816.93,517.34c1.9,1.85,3.73,3.76,5.48,5.75,1,1.1,1.92,2.23,2.83,3.38,1.32,1.65,2.06,2.28.76,4.16q-4.95,7.26-9.74,14.64a.52.52,0,0,0,.08.6q4.36,5,8.62,10.07,2.13,2.55,4.22,5.11c.7.85,1.88,1.91,1.82,3.1,0,.89-1.29,2.45-1.71,3.25-.3.57.57,1.08.87.51.65-1.25,2.3-3.15,1.94-4.65-.24-1-1.57-2.13-2.21-2.91-1-1.23-2-2.44-3-3.66q-3-3.65-6.11-7.23c-.74-.86-2.77-2.49-3.1-3.58s1.4-3.09,2.05-4.09q2.61-4,5.28-7.9c.9-1.33,3.07-3.34,3-5,0-.74-.84-1.49-1.28-2.05q-1.35-1.75-2.79-3.43c-2-2.35-4.13-4.59-6.34-6.75-.47-.44-1.17.26-.71.71Z" transform="translate(-807.67 -504.57)"/><path class="cls-3" d="M864.28,513.69c4.1,4,8.17,8,11.92,12.31.84,1,2.25,2.09,2,3.45-.11.79-1.41,2.07-1.87,2.75-.63.91-1.25,1.83-1.87,2.75q-3.43,5.13-6.8,10.31a.5.5,0,0,0,.08.61q4.35,5,8.62,10.07c1.41,1.69,2.82,3.4,4.22,5.11.69.85,1.88,1.91,1.81,3.1,0,.89-1.28,2.45-1.7,3.25-.3.57.56,1.07.86.5.88-1.67,2.68-3.53,1.53-5.35-2-3.12-4.86-5.95-7.23-8.77q-1.83-2.17-3.68-4.33c-.84-1-3.05-2.75-3.12-4s2.13-3.73,2.85-4.82q1.57-2.39,3.16-4.75l2.93-4.33c.46-.66,1.49-1.67,1.47-2.59,0-1.5-2.53-3.58-3.45-4.6-3.52-3.93-7.26-7.68-11.06-11.35-.47-.44-1.17.26-.71.71Z" transform="translate(-807.67 -504.57)"/><path class="cls-3" d="M874.42,513.69c4.1,4,8.17,8,11.91,12.31.84,1,2.25,2.09,2,3.45-.12.79-1.41,2.07-1.88,2.75L884.64,535q-3.45,5.13-6.81,10.31a.53.53,0,0,0,.08.61q4.37,5,8.62,10.07c1.42,1.69,2.83,3.4,4.22,5.11.7.85,1.88,1.91,1.82,3.1-.05.89-1.29,2.45-1.71,3.25-.3.57.57,1.07.87.5.87-1.67,2.67-3.53,1.52-5.35-2-3.12-4.85-5.95-7.23-8.77q-1.83-2.17-3.68-4.33c-.83-1-3-2.75-3.11-4s2.13-3.73,2.85-4.82c1-1.59,2.1-3.17,3.16-4.75l2.93-4.33c.45-.66,1.49-1.67,1.46-2.59,0-1.5-2.53-3.58-3.44-4.6-3.52-3.93-7.27-7.68-11.07-11.35-.46-.44-1.17.26-.7.71Z" transform="translate(-807.67 -504.57)"/><path class="cls-3" d="M823.55,515c1.76,2.3,3.53,4.6,5.32,6.87,1.92,2.45,4.26,4.81,6,7.42,1.09,1.69,0,2.6-1.05,4.13l-2.71,4.09-2.72,4.08a25.37,25.37,0,0,0-2.74,4.14c-.62,1.57.84,2.17,2,3.15a85.66,85.66,0,0,1,6.17,6,77.64,77.64,0,0,1,6,7.2c1.27,1.76.27,3.15-.46,4.88-.21.5-.43.76-.28,1.3a.51.51,0,0,0,.62.34l.2,0a.52.52,0,0,0,.35-.62l0-.15c-.12-.63-1.08-.36-1,.27l0,.15.35-.62-.2,0,.62.35c-.33-1.13,1.71-2.84,1.67-4.21s-1.13-2.33-1.82-3.24a85.17,85.17,0,0,0-7.44-8.55q-2.13-2.15-4.4-4.13c-1.08-.94-1.64-.88-.92-2.53a24.15,24.15,0,0,1,2.18-3.27l7.6-11.43a.5.5,0,0,0-.08-.6q-6.3-7.68-12.32-15.56c-.38-.51-1.25,0-.86.5Z" transform="translate(-807.67 -504.57)"/><path class="cls-3" d="M843.91,514.82q2.63,3.46,5.31,6.87c1.93,2.45,4.27,4.81,5.95,7.42,1.09,1.7,0,2.61-1,4.14l-2.72,4.08-2.71,4.08a24.74,24.74,0,0,0-2.74,4.14c-.62,1.58.84,2.17,2,3.16a83.47,83.47,0,0,1,6.17,6,78.87,78.87,0,0,1,6,7.2c1.28,1.76.27,3.15-.45,4.88-.22.51-.44.76-.28,1.3a.52.52,0,0,0,.62.35l.19-.05a.52.52,0,0,0,.35-.62l0-.14c-.12-.64-1.09-.37-1,.26l0,.15.35-.62-.2,0,.62.35c-.34-1.13,1.71-2.84,1.67-4.2s-1.13-2.34-1.82-3.25a88.81,88.81,0,0,0-7.44-8.55q-2.13-2.13-4.41-4.13c-1.08-.94-1.64-.88-.91-2.53a25.74,25.74,0,0,1,2.17-3.27l7.6-11.43a.5.5,0,0,0-.07-.6q-6.3-7.67-12.32-15.56c-.39-.51-1.25,0-.86.5Z" transform="translate(-807.67 -504.57)"/><path class="cls-3" d="M854.42,514.29c1.75,2.3,3.52,4.6,5.31,6.87,1.93,2.45,4.27,4.81,5.95,7.42,1.1,1.69,0,2.6-1,4.13l-2.72,4.08-2.71,4.09a25.37,25.37,0,0,0-2.74,4.14c-.62,1.57.84,2.17,2,3.15a85.66,85.66,0,0,1,6.17,6,77.54,77.54,0,0,1,6,7.2c1.28,1.76.27,3.14-.45,4.88-.22.5-.44.76-.28,1.29a.51.51,0,0,0,.62.35l.19,0a.52.52,0,0,0,.35-.62l0-.15c-.12-.63-1.08-.36-1,.27l0,.15.35-.62-.2.05.62.35c-.34-1.13,1.71-2.85,1.67-4.21s-1.13-2.33-1.82-3.24a86.47,86.47,0,0,0-7.44-8.55q-2.13-2.14-4.41-4.13c-1.08-.94-1.64-.88-.91-2.53a25,25,0,0,1,2.17-3.27L867.68,530a.51.51,0,0,0-.08-.6q-6.3-7.68-12.32-15.56c-.38-.51-1.25,0-.86.5Z" transform="translate(-807.67 -504.57)"/><path class="cls-3" d="M833.1,514.87q3.36,3.61,6.71,7.26l3,3.29,1.66,1.82c.81.9,1.27,1.16,1.22,2.42-.09,2.58-2.77,5.85-4.15,8a78.09,78.09,0,0,1-5.82,7.85.52.52,0,0,0,0,.71q4.92,5.13,9.73,10.38a44.23,44.23,0,0,1,4.6,5.09c1.35,2.05,0,4.72-.81,6.84-.22.61.75.87,1,.27.61-1.71,2.1-4.56,1.55-6.42a8,8,0,0,0-2-2.5c-1.1-1.21-2.19-2.42-3.3-3.63q-3.47-3.79-7-7.54c-.92-1-2.77-2.19-2.18-3.53a24.05,24.05,0,0,1,2.56-3.31,74.88,74.88,0,0,0,4.89-7.55c.86-1.51,2.85-3.92,2.19-5.73-.36-1-1.72-2-2.41-2.75l-3.34-3.66q-3.67-4-7.38-8c-.44-.47-1.14.24-.7.71Z" transform="translate(-807.67 -504.57)"/><path class="cls-3" d="M816.07,527.23c.38.41,1.22,1.21,1.32,1.82.07.4-.27.75-.46,1.05l-.83,1.27H817l-.07-.16c-.12-.63-1.08-.37-1,.26a.7.7,0,0,0,.18.41.51.51,0,0,0,.86,0c.49-.75,1.65-1.89,1.47-2.87a6.08,6.08,0,0,0-1.65-2.49c-.44-.47-1.15.23-.71.71Z" transform="translate(-807.67 -504.57)"/><path class="cls-3" d="M816.17,557.91a44.09,44.09,0,0,1,4.4,4.35c1,1.35.74,2,.28,3.34-.28.82-.35,2.23-.83,2.93h.86l0-.08-.18.69.06,0c.53-.36,0-1.23-.51-.87l-.05,0a.51.51,0,0,0-.18.69l0,.08a.51.51,0,0,0,.86,0c.57-.84.6-2.21.94-3.18a4.35,4.35,0,0,0,.51-2.77,6.52,6.52,0,0,0-1.87-2.36c-1.19-1.19-2.39-2.35-3.58-3.53a.5.5,0,0,0-.71.71Z" transform="translate(-807.67 -504.57)"/><path class="cls-3" d="M886.32,515.08l4.25,5.24c.4.5,1.11-.22.7-.71L887,514.37c-.4-.5-1.11.21-.7.71Z" transform="translate(-807.67 -504.57)"/><path class="cls-3" d="M890.76,539.9c-1.29,1.28-3,3.14-3.45,5a1.16,1.16,0,0,0,.38,1.31,33.21,33.21,0,0,0,3.14,2.64c.49.41,1.2-.3.71-.71l-1.8-1.51c-.83-.7-1.61-1-1.12-2.17a12.32,12.32,0,0,1,2.85-3.8c.45-.45-.26-1.16-.71-.71Z" transform="translate(-807.67 -504.57)"/><path class="cls-4" d="M808.9,575.24c-.51-22.34-1.32-46.77,0-69.11,39.49-1.21,50.26-1.61,90.38,0,.51,22.35,1.32,46.78,0,69.11v.27c-29,1.24-46,1.25-90.38,0Zm7.75-7.62c36.29,1,50.19,1,74,0v-.2c1.09-17.22.42-36,0-53.26-32.82-1.25-41.64-.94-74,0-1.08,17.21-.42,36,0,53.26Z" transform="translate(-807.67 -504.57)"/><path class="cls-5" d="M809.4,575.24c-.29-12.3-.63-24.61-.71-36.92,0-6.13,0-12.26.15-18.38q.1-4.63.32-9.25c0-.83-.3-3,.19-3.65.75-1,4-.55,5.22-.58,18.27-.56,36.54-1.11,54.82-.77q7.27.13,14.56.38c2.73.09,5.46.18,8.19.29l4.21.16c.63,0,1.71-.18,2.19.3s.3,2.15.32,2.95c.29,12.2.62,24.4.64,36.61,0,6.1-.06,12.21-.25,18.31q-.13,4.38-.37,8.74a11.74,11.74,0,0,1-.1,1.81c.15-.11-.5-.13-.79-.18a16.06,16.06,0,0,0-3.17.13c-7.69.31-15.37.55-23.07.66-9,.14-18,.1-27,0-3.62-.05-35.39-.76-35.39-.59a.5.5,0,0,0-1,0v.27a.51.51,0,0,0,.5.5c24.17.68,48.35,1.29,72.53.64q8.93-.25,17.85-.64a.51.51,0,0,0,.5-.5c0-5.3.49-10.64.6-15.94q.18-9,.09-17.93c-.09-11.84-.42-23.67-.69-35.51a.51.51,0,0,0-.5-.5c-15.14-.6-30.28-1.12-45.43-1.06-15,.06-30,.6-45,1.06a.51.51,0,0,0-.5.5c-1.33,23-.53,46.09,0,69.11A.5.5,0,0,0,809.4,575.24Z" transform="translate(-807.67 -504.57)"/><path class="cls-5" d="M816.65,568.12c24.67.65,49.29,1,74,0a.51.51,0,0,0,.5-.5c0-8.62.64-17.25.58-25.88-.08-9.2-.35-18.39-.58-27.58a.5.5,0,0,0-.5-.5c-24.69-.93-49.25-.72-74,0a.51.51,0,0,0-.5.5c-1.09,17.85,0,35.61,0,53.46a.5.5,0,0,0,1,0c0-9.26-.5-18.52-.57-27.78,0-5,0-10.06.11-15.09.06-2.32.14-4.63.26-6.94,0-1-.26-2.61.67-3.18.73-.44,2.91-.08,3.75-.11,14.67-.42,29.33-.84,44-.6q5.91.09,11.8.28l6.37.2c1.64.06,6.1-.55,6.6,1.12a16.54,16.54,0,0,1,.09,3.66c0,1.08.06,2.16.08,3.24.07,2.5.13,5,.18,7.49.11,5.05.19,10.1.2,15.15s-.05,10-.23,15c0,1.08-.08,2.16-.13,3.23s.17,2.79-.2,3.65c-.3.71.17.41-.82.21a14.45,14.45,0,0,0-2.86.11c-6.15.23-12.31.41-18.47.49-17.11.24-34.23-.2-51.33-.65C816,567.1,816,568.1,816.65,568.12Z" transform="translate(-807.67 -504.57)"/><path class="cls-5" d="M809.37,506.42a12.38,12.38,0,0,0,6.9,9.32q-.56,26.16.43,52.32c11,.64,22.11.69,33.16.73,13.66.06,27.33.11,40.95-.87q-3.16,3.14-6.38,6.22a6.21,6.21,0,0,1-2.06,1.5,6.53,6.53,0,0,1-2,.27q-23,.52-45.91-.1c-4.07-.11-8.15-.25-12.22-.39L809.41,575l.64-2.66-.62,1a615,615,0,0,1,0-66.38" transform="translate(-807.67 -504.57)"/><path class="cls-5" d="M808.89,506.56c.7,4.06,2.9,6.37,5.88,8.93,1.83,1.57.9,5.81.87,8.15q-.06,4.44-.06,8.88,0,17.78.62,35.54a.5.5,0,0,0,.5.5c12.34.7,24.71.71,37.07.75s24.71,0,37-.89l-.35-.85-3.89,3.81c-1.16,1.12-2.42,2.78-3.88,3.55s-3.7.51-5.34.54l-5,.09q-10.73.15-21.45.05c-13.84-.13-27.67-.66-41.5-1.13l.48.63.64-2.66a.5.5,0,0,0-.91-.38l-.62,1,.93.25a622.8,622.8,0,0,1,0-66.38c0-.64-1-.64-1,0a622.8,622.8,0,0,0,0,66.38.5.5,0,0,0,.93.25l.62-1-.91-.38-.64,2.66a.5.5,0,0,0,.48.63c14.83.51,29.65,1.06,44.49,1.15q11.24.07,22.46-.14c2.39,0,5.3.41,7.37-1.06,2.72-1.94,5.06-4.81,7.43-7.15a.51.51,0,0,0-.35-.86c-20.71,1.45-41.67,1.18-62.41.62q-3.9-.1-7.8-.27c-1.09,0-2.74.27-3.44-.69-.44-.62-.11-3.16-.13-4q-.25-7.89-.37-15.79-.23-15.81.11-31.6a.46.46,0,0,0-.24-.43,12.22,12.22,0,0,1-6.68-9c-.11-.63-1.07-.36-1,.27Z" transform="translate(-807.67 -504.57)"/></svg>