<svg id="Calque_1" data-name="Calque 1" xmlns="http://www.w3.org/2000/svg" viewBox="0 0 217.99 320.86"><defs><style>.cls-1{fill:#fff;}.cls-2{fill:#1d1d1b;}.cls-3{fill:#c6c6c6;}.cls-4{fill:#575756;}.cls-5{fill:#62402f;}.cls-6{opacity:0.68;}.cls-7{fill:#432b1d;}.cls-8{opacity:0.45;}.cls-9{fill:#b2b2b2;}.cls-10{opacity:0.3;}.cls-11{opacity:0.34;}.cls-12{opacity:0.03;}</style></defs><title>17</title><path class="cls-1" d="M874.84,434.05c-6.25-2.8-13.45-2.14-20.24-1.22-23.54,3.2-48.11,9.7-64.55,26.87-19.7,20.57-23.22,51.4-24.56,79.86-1.23,26.17-1.44,52.85,5.85,78,2.61,9,6.21,17.84,11.82,25.35,7.75,10.38,18.84,17.67,29.74,24.64,15.57,10,32.37,20.07,50.85,20,22.24-.09,41.8-15.08,55.87-32.31A99.89,99.89,0,0,0,934,632.77c5.74-13,7.5-27.39,9.19-41.52,3.73-31.14,7.44-62.93,1.1-93.64-1.73-8.37-4.27-16.75-9.11-23.8-5.32-7.74-13.08-13.42-20.92-18.59a312.84,312.84,0,0,0-35.72-20.31" transform="translate(-744.68 -379.44)"/><path class="cls-2" d="M875.09,433.62c-9.81-4.15-21.57-1.39-31.65.49a131.22,131.22,0,0,0-30.6,9.2,73.88,73.88,0,0,0-25.22,18.32A78.47,78.47,0,0,0,772.92,488c-7.09,20.83-7.89,43.51-8.45,65.31-.64,25,.4,51.35,10,74.81A67.72,67.72,0,0,0,794.19,655c8.78,7.28,18.69,13.39,28.48,19.2s20.52,11.17,32,13.08A54.57,54.57,0,0,0,885,683.52c9.73-4.13,18.37-10.57,25.88-17.94a115.19,115.19,0,0,0,20.74-27C937.44,627.89,940.23,616,942,604c1.84-12.49,3.22-25.1,4.43-37.67,2.42-25.21,3.51-51.76-3.51-76.38a53.29,53.29,0,0,0-17.58-27.31c-9.15-7.58-19.68-13.75-30-19.54q-8.14-4.58-16.56-8.65c-.58-.28-1.09.58-.51.86A315.86,315.86,0,0,1,910,453.11c9.53,6.08,19.46,12.63,25.6,22.38s8.51,22,10,33.45a213.65,213.65,0,0,1,1.25,37.25c-.56,12.52-1.88,25-3.34,37.42-1.38,11.82-2.52,23.77-5.45,35.32-5.57,22-20.5,41.86-38.71,55.16-8.21,6-17.57,10.63-27.66,12.31-11.45,1.9-22.92-.58-33.45-5.15-10.37-4.5-19.95-10.7-29.39-16.86s-18.82-12.89-25.56-22.07c-7-9.45-10.78-20.86-13.41-32.19a189.92,189.92,0,0,1-4.46-37.34c-.36-12,0-24,.66-35.95A241.72,241.72,0,0,1,769.38,506c3.69-20.21,11.86-39.88,28.58-52.69s38.61-17.91,59.21-20.3c5.86-.68,11.87-.86,17.42,1.48.58.25,1.09-.61.5-.86Z" transform="translate(-744.68 -379.44)"/><path class="cls-3" d="M841.5,492.42c-3.85,2.15-6.22,6.39-7,10.73s-.09,8.82.94,13.11a4.59,4.59,0,0,0-3.48-.93c-.75,1.15-.27,2.73.59,3.81s2,1.88,2.86,3c3,3.87.92,9.82,3.21,14.15,1.71,3.23,5.83,6,4.57,9.45a11.46,11.46,0,0,1-1.43,2.3c-2.6,4-1.55,9.26.18,13.67a53.3,53.3,0,0,0,7.25,12.89l.06-13.39a4.08,4.08,0,0,1,.68-2.75c1.31-1.49,3.71-.41,5.46.53a24,24,0,0,0,17.45,2,6,6,0,0,0,1.85-.77,5.19,5.19,0,0,0,1.72-2.43c3-7.65-3-17.48,1.91-24,2.06-2.75,5.8-4.39,6.59-7.73-2-.9-3-3.29-3.09-5.52a28,28,0,0,1,1.14-6.57c1.79-8.31-.55-18.11-7.74-22.65-4.18-2.64-9.31-3.16-14.23-3.62-5.79-.53-11.81-1-17.24,1" transform="translate(-744.68 -379.44)"/><path class="cls-3" d="M841.25,492c-8.55,5.14-8.26,15.85-6.27,24.4l.74-.57a5.59,5.59,0,0,0-3.74-1,.47.47,0,0,0-.43.25,4.19,4.19,0,0,0,.93,4.72c1.1,1.28,2.51,2.21,3.27,3.77a14,14,0,0,1,1,5.43c.14,2.3.17,4.69,1.1,6.84,1.05,2.42,3.19,4.09,4.4,6.4,1.67,3.2-1.26,5.18-2.12,8.08a15,15,0,0,0,.07,7.65c1.43,6.09,4.81,11.89,8.53,16.84a.5.5,0,0,0,.93-.25c0-4.15,0-8.29.06-12.43,0-2,1-4.27,3.61-3.59a15.25,15.25,0,0,1,2.54,1.23,25.62,25.62,0,0,0,4.11,1.58,24.55,24.55,0,0,0,9.61.74c2.91-.36,5.74-.85,7.06-3.73,2.51-5.42.18-11.67.12-17.31a11.27,11.27,0,0,1,3.91-9.11c1.92-1.75,3.91-3.24,4.69-5.83a.5.5,0,0,0-.23-.56c-4.06-2.19-2.74-7.11-1.92-10.71A28.27,28.27,0,0,0,884,507a21.61,21.61,0,0,0-5.3-13.48c-4-4.26-9.67-5.5-15.23-6.11-6.58-.73-13.47-1.47-19.84.78-.6.22-.34,1.18.27,1,5.54-2,11.35-1.53,17.1-1s11.91,1.2,16.28,5.35c3.57,3.39,5.35,8.3,5.7,13.14a25.5,25.5,0,0,1-.43,6.81c-.48,2.43-1.36,4.86-1.2,7.37a7.31,7.31,0,0,0,1.66,4.37c.59.66,1.14.76,1.06,1.75s-1.86,2.38-2.57,3c-3,2.77-5.3,5.1-5.64,9.4-.37,4.56,1,9.06.93,13.62-.08,3.12-.75,6.47-4.07,7.52a21.6,21.6,0,0,1-9.92.48c-3.07-.52-5.64-1.87-8.45-3.08-1.3-.55-3-1.12-4.29-.21-1.88,1.32-1.3,4.45-1.31,6.38l0,10.52.93-.26c-3.67-4.89-7-10.58-8.42-16.6-.83-3.55-.67-6.92,1.38-10,1-1.54,1.68-2.89,1.1-4.74-.64-2-2.31-3.61-3.54-5.29-1.86-2.52-2.16-5.24-2.34-8.29a16,16,0,0,0-1.2-6.31,9.82,9.82,0,0,0-2-2.52c-.57-.57-1.83-1.49-2-2.24l.11-2.53a4.15,4.15,0,0,1,2.49.91c.38.25.83-.17.74-.57-1.89-8.08-2.33-18.38,5.8-23.27.55-.33,0-1.2-.5-.86Z" transform="translate(-744.68 -379.44)"/><path class="cls-1" d="M840.17,555.83c-1.49,2.57-1.07,5.78-.52,8.69A139.91,139.91,0,0,0,869.82,628a32.75,32.75,0,0,0,7.92,7.36c3.11,1.86,7,2.78,10.42,1.7,6.67-2.09,9.15-10.15,10-17.09a99.1,99.1,0,0,0-5.25-46.23c-2.92-7.74-8.17-16-16.39-16.92-4.81-.55-9.6,1.6-14.43,1.19-3.15-.26-6.11-1.61-9.23-2.08s-6.81.23-8.42,3" transform="translate(-744.68 -379.44)"/><path class="cls-4" d="M839.74,555.58c-1.6,3.17-1.07,6.55-.41,9.91.82,4.14,1.83,8.26,3,12.31a140.84,140.84,0,0,0,21.79,43.81c4.27,5.77,9.11,12.92,16.11,15.51,6.2,2.28,12.13-.25,15.21-6,3.42-6.34,3.7-14.29,3.85-21.31a100.07,100.07,0,0,0-2.83-26.15c-1.77-7.13-4.15-14.67-8.79-20.51a18.36,18.36,0,0,0-8.39-6.26c-4.25-1.42-8.53-.22-12.81.36a20,20,0,0,1-8.11-.51,38.26,38.26,0,0,0-6.25-1.44c-3.14-.28-6.33.58-8.17,3.28-.36.53.5,1,.86.5,2.35-3.45,6.83-3.08,10.38-2.17s6.73,1.87,10.45,1.46,7.56-1.65,11.38-1a15.37,15.37,0,0,1,8.56,4.9c4.78,5.06,7.22,12,9.09,18.56a96.66,96.66,0,0,1,3.6,23.47c.31,9.94.35,36.85-16.56,32.22-7.31-2-12.45-9.67-16.72-15.44a139.73,139.73,0,0,1-20.69-40.34q-1.82-5.64-3.14-11.41c-1-4.17-2.62-9.22-.58-13.28.29-.57-.57-1.08-.86-.5Z" transform="translate(-744.68 -379.44)"/><path class="cls-1" d="M862.9,566.15a26.49,26.49,0,0,0-6.35-3.36,9.06,9.06,0,0,0-7,.36c-.69.38-1.61.86-2.16.3a1.66,1.66,0,0,1-.33-1,29.9,29.9,0,0,0-5.11-13.73l-2.5-.59c5.79-1.46,11.87,0,17.66,1.45a21.87,21.87,0,0,1,7.32,2.83c2.15,1.52,3.76,4.1,3.37,6.71.11-2.68,2.13-4.87,4.23-6.53s4.47-3.14,5.84-5.44L879.07,561a1.52,1.52,0,0,1-.11.92,1.54,1.54,0,0,1-.75.54l-7,3.15Z" transform="translate(-744.68 -379.44)"/><path class="cls-4" d="M863.15,565.72c-2.73-1.77-5.63-3.63-9-3.92a13.85,13.85,0,0,0-4.06.53c-.28.12-.56.25-.83.39l-1.85-1.15a8.7,8.7,0,0,1-.39-2.28,30.25,30.25,0,0,0-3.73-9.38c-1.13-1.87-1.67-1.79-3.75-2.28v1c5.71-1.28,11.37-.05,16.93,1.34,4.66,1.17,11.29,3.09,10.79,9.17-.06.64.93.63,1,0,.59-5.53,7.21-7.48,10-11.72l-.93-.25,1,11.92c.09,1.06.46,2.17-.44,3a12.94,12.94,0,0,1-2.62,1.18,25.53,25.53,0,0,1-4.25,1.91c-2.57.57-5.56.33-8.19.49-.64,0-.64,1,0,1,3-.18,6.71.27,9.45-1a50.92,50.92,0,0,0,6.11-2.76,1.83,1.83,0,0,0,1.12-1.42c.42-1.83-.37-4.54-.53-6.43l-.69-8a.51.51,0,0,0-.94-.25c-3,4.51-9.49,6.23-10.13,12.22h1c.45-5.43-4.62-8.25-9.14-9.52-6.41-1.79-13.22-3.44-19.84-2a.5.5,0,0,0,0,1,8,8,0,0,1,2.11.5c1,.62,1.75,2.5,2.3,3.61a29.29,29.29,0,0,1,2.06,5.59c.36,1.35.23,3.74.9,4.88,1,1.71,2.28.71,3.79.14,4.39-1.67,8.59.94,12.18,3.27C863.19,566.93,863.69,566.07,863.15,565.72Z" transform="translate(-744.68 -379.44)"/><path class="cls-5" d="M846.58,699.14c-32.57-.2-62.8-21-79.88-48.78s-22.39-61.42-21.09-94c1.6-40,14.2-82,44.8-107.84A4.77,4.77,0,0,1,787,446.9a15.7,15.7,0,0,1,10-3.51c-.7-2.3,2.16-4.75,4.32-3.7a22.73,22.73,0,0,1,15.71-10.47c1.41-.22,3.15-.14,3.86,1.09,2.28-2.88,6.35-3.39,9.79-4.69s6.88-4.95,5.24-8.24c-1.31-2.65-5.36-3.56-5.75-6.49-.27-2,1.61-3.83,3.61-4.14a9,9,0,0,1,5.76,1.53A15.91,15.91,0,0,1,851,392.65c-2.47-2.18-4.83-5.12-4.45-8.39s5.15-5.59,7.1-2.93c2-2.66,6.72-.34,7.1,2.93s-2,6.21-4.45,8.39a15.9,15.9,0,0,1,11.43,15.63,9,9,0,0,1,5.76-1.53c2,.31,3.88,2.13,3.61,4.14-.39,2.93-4.43,3.84-5.75,6.49-1.63,3.29,1.81,6.93,5.24,8.24s7.52,1.81,9.8,4.69c.71-1.23,2.45-1.31,3.86-1.09A22.69,22.69,0,0,1,906,439.69c2.16-1.05,5,1.4,4.33,3.7a15.72,15.72,0,0,1,10,3.51,4.81,4.81,0,0,1-3.42,1.65c30.61,25.88,43.21,67.8,44.8,107.84,1.3,32.55-4,66.23-21.09,94s-47.3,48.58-79.88,48.78Zm3.26-244.82c-11-.31-33,10.85-41,18.35-16.4,15.37-27.6,35.87-33.36,57.6s-6.23,44.66-3.1,66.92c1.24,8.86,3.06,17.71,6.59,25.93,16.76,39,58.69,50.55,81.27,50.55s56.66-11.51,73.42-50.55c3.53-8.22,5.35-17.07,6.59-25.93,3.13-22.26,2.65-45.19-3.1-66.92s-17-42.23-33.37-57.6c-8-7.5-30.07-18.66-41-18.35Z" transform="translate(-744.68 -379.44)"/><path class="cls-2" d="M846.58,698.39c-19.81-.22-38.76-8-54.19-20.22-16.22-12.85-28.11-30.18-35.5-49.42C749,608.21,746,586,746.18,564.12c.14-20.11,2.83-40.33,9.1-59.48,6.94-21.23,18.55-41,35.66-55.56.56-.47,0-1.21-.53-1.28a4,4,0,0,1-2.88-1.43l-.15,1.18a15.8,15.8,0,0,1,9.65-3.41.76.76,0,0,0,.72-.95,2.54,2.54,0,0,1,3.41-2.78.75.75,0,0,0,.84-.35,22.32,22.32,0,0,1,7.72-7.46c2.21-1.27,8.56-4.43,10.67-1.76a.75.75,0,0,0,1.06,0c4.13-4.7,13.71-3.22,15.51-10.46.61-2.46-.71-4.32-2.54-5.8-1.48-1.19-3.46-2.12-3.28-4.27.35-4.28,5.67-2.7,8.06-1.38a.75.75,0,0,0,1.12-.65,15.29,15.29,0,0,1,10.88-14.91.75.75,0,0,0,.33-1.25c-2.09-1.9-4.64-4.57-4.21-7.65.34-2.46,3.76-4.93,5.8-2.61a.75.75,0,0,0,1.06,0c2-2.29,5.52.11,5.81,2.61.36,3.1-2.09,5.72-4.22,7.65a.76.76,0,0,0,.34,1.25A15.28,15.28,0,0,1,867,408.28a.76.76,0,0,0,1.13.65c2.25-1.24,6.46-2.79,8,.44,1.16,2.48-1.59,3.92-3.13,5.15-1.86,1.49-3.23,3.35-2.61,5.86,1.8,7.23,11.38,5.76,15.51,10.46a.75.75,0,0,0,1.06,0c2.12-2.68,8.46.48,10.67,1.76a22.38,22.38,0,0,1,7.71,7.46.77.77,0,0,0,.85.35,2.53,2.53,0,0,1,3.4,2.78.77.77,0,0,0,.73.95,15.82,15.82,0,0,1,9.65,3.41l-.15-1.18a4,4,0,0,1-2.89,1.43c-.57.07-1.08.81-.53,1.28,34.47,29.37,45.59,77.53,44.73,121.06-.49,24.5-5.1,49.32-16.32,71.27-10.1,19.75-25.81,36.63-45.54,47a85.49,85.49,0,0,1-34.73,9.88c-6,.33-12,.11-17.92.11a.75.75,0,0,0,0,1.5c5,0,9.94.07,14.9,0a84,84,0,0,0,31-6.68c20.22-8.46,37.3-23.9,48.76-42.47,13-21.09,19.18-45.72,20.88-70.26,1.61-23.25-.32-47.08-6.63-69.56-6.72-24-19-46.61-38.08-62.9l-.53,1.28a6.28,6.28,0,0,0,4-1.87.77.77,0,0,0-.15-1.18,17.1,17.1,0,0,0-10.41-3.61l.72.95a4.06,4.06,0,0,0-5.25-4.63l.85.35a23.9,23.9,0,0,0-10.25-9c-2.71-1.23-8.16-3.46-10.49-.5h1.06c-2.58-2.93-6.31-3.43-9.78-4.76-2.32-.89-5.39-2.95-5.46-5.77,0-2.35,2.34-3.56,3.91-4.85,2-1.68,3.18-4.17,1.31-6.49-2.48-3.08-6.59-1.91-9.55-.27l1.13.64a16.78,16.78,0,0,0-12-16.35l.33,1.25c2.84-2.58,6.43-7.12,3.9-11.07-1.62-2.51-5.42-3.79-7.61-1.31h1.06c-2.18-2.48-6-1.2-7.6,1.31-2.53,3.95,1.06,8.49,3.89,11.07l.33-1.25a16.8,16.8,0,0,0-12,16.35l1.13-.64c-2.89-1.61-6.73-2.75-9.32,0-2.14,2.3-1,5,1.09,6.74,1.48,1.22,3.54,2.24,3.83,4.33.4,2.87-2.69,5.2-5,6.16-3.56,1.46-7.45,1.85-10.12,4.89h1.06c-2.33-3-7.78-.73-10.49.5a23.91,23.91,0,0,0-10.25,9l.84-.35a4.06,4.06,0,0,0-5.25,4.63l.73-.95a17.05,17.05,0,0,0-10.41,3.61.77.77,0,0,0-.15,1.18,6.25,6.25,0,0,0,3.94,1.87l-.53-1.28c-31.17,26.56-43.43,68.71-45,108.37-1.72,43,8.59,89.59,42.09,119.18,16.47,14.54,37.46,24.07,59.63,24.32A.75.75,0,0,0,846.58,698.39Z" transform="translate(-744.68 -379.44)"/><path class="cls-2" d="M849.84,453.57c-8.66-.13-17.58,4-25.13,7.87A75.5,75.5,0,0,0,802,478.59C785.62,496.76,775.66,520,771.76,544a172.49,172.49,0,0,0-1.52,40.92c1,13,2.84,26.51,8,38.6,7.63,17.77,21.79,31.72,39,40.31,13.27,6.64,28.46,10.7,43.37,10.6a79.64,79.64,0,0,0,43.45-13.61c17.65-11.89,30-30.89,34.73-51.56,6-26.42,5.79-55.45-1.64-81.55A129.94,129.94,0,0,0,923,495.17c-5.67-9.19-12.7-18.55-21.28-25.22a92.86,92.86,0,0,0-24.42-13.17A48,48,0,0,0,865,453.65c-2.48-.22-5-.08-7.53-.08h-7.67a.75.75,0,0,0,0,1.5c4.73,0,9.51-.2,14.24,0,8.92.42,18,4.92,25.75,9.09a63.8,63.8,0,0,1,21.86,17.95,119.63,119.63,0,0,1,18.16,29.48c10.38,23.86,13.09,50.4,10.71,76.15-1.22,13.25-3.46,26.57-9.25,38.66a84.89,84.89,0,0,1-17.77,24.86,79,79,0,0,1-42.89,20.87C857,674.15,843,672,830,667.52c-17-5.83-32.5-16.28-42.83-31.11a80.93,80.93,0,0,1-12.73-31.19A181.93,181.93,0,0,1,771.26,565c.78-25,7.28-50,20.93-71.11,5.71-8.83,12.7-17.86,21.34-24a94.14,94.14,0,0,1,24.94-12.57,34.86,34.86,0,0,1,11.37-2.18A.75.75,0,0,0,849.84,453.57Z" transform="translate(-744.68 -379.44)"/><g class="cls-6"><path class="cls-7" d="M920.89,644.88C907,662.23,885.18,672.6,863,673.65s-44.46-6.91-61.8-20.79a75.67,75.67,0,0,1-11.63-11.35c-7.75-9.57-12.42-21.34-15.13-33.35s-3.54-24.37-4.33-36.66l.32-.33c-.92-28,7.8-61.86,15.51-88.75,2.32-8.11,4.71-16.37,9.41-23.38,4-6,9.61-10.86,15.14-15.57,6.73-5.74,13.68-11.54,21.95-14.67,3.05-1.16,6.41-2.05,8.52-4.53,2.44-2.86,2.51-7,3.87-10.48s5.76-6.6,8.67-4.22c-3.29-1-4.8-5.13-4.07-8.5s3.13-6.11,5.58-8.54c-4.17-2.33-6.9-8.66-3.86-12.36l-.31.69c-2.75-.17-4.62,3.18-4.07,5.87s2.66,4.77,4.67,6.66a35.78,35.78,0,0,0-11,19.31,6.81,6.81,0,0,0-8.6.11c3.2.15,5.26,4,4.5,7.09s-3.48,5.38-6.36,6.76-6,2.13-8.93,3.52a20.89,20.89,0,0,0-20,10.1,3.08,3.08,0,0,0-3.05,4.06,21.6,21.6,0,0,0-10.54,2.23l4.21,2.43c-16.35,13-27.84,31.38-34.8,51s-9.64,40.62-10.53,61.47l.1-.6c0,20.85,2.14,41.87,8.57,61.71s17.29,38.5,32.87,52.36c18,16,48.87,26.81,72.8,24.16C885,696.46,918.44,653.27,922,643Z" transform="translate(-744.68 -379.44)"/><path class="cls-7" d="M920.36,644.35c-16.34,20.2-42.6,30.48-68.31,28.35-27.13-2.25-55.9-17.74-68.88-42.3-6.9-13.07-9.64-27.83-11.07-42.4-.38-3.88-.67-7.76-.93-11.64a38,38,0,0,1-.38-4.49c0-.15.34-.3.35-.5a24.86,24.86,0,0,0,0-2.59,163.7,163.7,0,0,1,1-19.92,314.59,314.59,0,0,1,7.73-41.17c1.62-6.58,3.38-13.13,5.22-19.66a194.31,194.31,0,0,1,5.82-18.74,53.88,53.88,0,0,1,14.16-20.11A146.54,146.54,0,0,1,823,434.59a52.54,52.54,0,0,1,11-5.59c2.67-1,5.5-2,7.42-4.2s2.47-5.16,3.18-7.92c.85-3.28,4.05-9.7,8.45-6.66l.58-1.37c-3.15-1.22-4.2-4.92-3.44-8s3.07-5.6,5.28-7.82a.76.76,0,0,0-.15-1.18c-3.65-2.22-6.43-7.45-3.59-11.33l-1.3-.76c-.26.59-1.54.57-2.36,1.2a6,6,0,0,0-2.12,3.73c-.64,3.78,2.39,6.83,4.89,9.2v-1.06a37.26,37.26,0,0,0-11.16,19.64l1.1-.44a7.67,7.67,0,0,0-9.51.22c-.57.46,0,1.21.53,1.28,3.77.47,4.69,5.15,3,8s-4.62,4.3-7.51,5.42c-2.42.93-5.15,2.33-7.75,2.36a24,24,0,0,0-6.9.94,21.92,21.92,0,0,0-10.63,7.2,8.2,8.2,0,0,1-1.73,2.08c-.56.36-1.2.34-1.77.8a3.85,3.85,0,0,0-1.29,4.2l.72-1a23.7,23.7,0,0,0-10.92,2.33.76.76,0,0,0,0,1.3l4.21,2.43-.15-1.18c-25.48,20.39-38.06,52-42.82,83.51a278.14,278.14,0,0,0-2.73,29.53c0,.83,1.33,1,1.47.2l.1-.6-1.47-.2c0,45.06,11.88,97.15,52.73,122.84,16.95,10.67,37.95,17.39,58.1,16.47,15.63-.72,28.37-11.22,39.1-21.73a178.86,178.86,0,0,0,18-20.54c3.38-4.51,7.2-9.4,9.12-14.77.3-.82-.94-1.3-1.37-.58l-1.13,1.9a.75.75,0,0,0,1.3.76l1.13-1.9-1.37-.58c-1.57,4.38-4.62,8.42-7.31,12.16a175.34,175.34,0,0,1-14.54,17.53A130.87,130.87,0,0,1,881.1,689c-5.6,4-11.9,7.87-18.79,9.14-9.23,1.7-19.34.42-28.41-1.58a111.59,111.59,0,0,1-28.83-10.7c-18.66-10.07-32.62-26.43-42-45.3-12.18-24.65-15.88-52.43-15.89-79.66,0-.82-1.33-1.06-1.48-.2l-.1.6,1.48.2c1.44-32.71,7.48-66.53,27.34-93.45a99,99,0,0,1,17.77-18.53.76.76,0,0,0-.15-1.18l-4.21-2.43v1.3A22,22,0,0,1,798,445.09a.75.75,0,0,0,.72-.95,1.7,1.7,0,0,1,.3-1.95,1.86,1.86,0,0,1,2-1.16c.13-.09.31,0,.45-.16a34.16,34.16,0,0,0,2.14-3,20.72,20.72,0,0,1,6.63-5.08,19.91,19.91,0,0,1,8.26-2,18.48,18.48,0,0,0,2.88,0,39.9,39.9,0,0,0,5.11-2c4.27-1.53,9.36-3.86,10.52-8.75a6.47,6.47,0,0,0-5.22-8l.53,1.28a6.19,6.19,0,0,1,7.69,0,.75.75,0,0,0,1.1-.45,36,36,0,0,1,10.78-19,.76.76,0,0,0,0-1.06,15.53,15.53,0,0,1-4-5c-1-2.4-.28-6.12,2.9-6.23a.74.74,0,0,0,.65-.37l.31-.69a.75.75,0,0,0-1.3-.76c-3.33,4.55-.16,10.77,4.13,13.39l-.15-1.18c-2.87,2.88-5.92,6.38-6,10.69a7.75,7.75,0,0,0,4.79,7.6c.84.33,1.23-.92.57-1.37-4.31-3-8.87,1.79-10.13,5.74-1.05,3.26-1.27,7.07-3.81,9.62s-6.27,3.15-9.36,4.47c-6.41,2.74-12,7-17.33,11.41-5.65,4.71-11.46,9.46-16.1,15.21-8.75,10.87-11.64,25.47-15.23,38.65a411.2,411.2,0,0,0-9.7,43.46c-1.1,7-2,14-2.35,21.08-.19,3.41-.28,6.82-.23,10.22a20,20,0,0,1,.11,2c0,.15-.33.29-.35.49a30.36,30.36,0,0,0,.32,5.54c1.07,15.54,2.65,31.31,8.37,45.93a74,74,0,0,0,25.41,32.8,96.25,96.25,0,0,0,38.38,17.19c25.86,5.17,53.66-1.84,72.95-20.16a73.81,73.81,0,0,0,6.61-7.19C922,644.67,921,643.6,920.36,644.35Z" transform="translate(-744.68 -379.44)"/></g><g class="cls-6"><path class="cls-7" d="M877.09,408.82l-6.2,4.07a9.66,9.66,0,0,0-1.85,1.44,7.26,7.26,0,0,0-1.12,1.77,9,9,0,0,0-.94,4.25,5.46,5.46,0,0,0,1.82,3.86,9,9,0,0,0,4.14,1.55l4.08.79c-2.56-.94-5.06-2.53-6.19-5s-.33-5.94,2.18-7c.59-.25,1.23-.37,1.81-.64a3.68,3.68,0,0,0,1.84-4.33" transform="translate(-744.68 -379.44)"/><path class="cls-7" d="M876.71,408.17c-4.5,3-10.47,5.48-10.48,11.74,0,6,6,6.48,10.59,7.37a.75.75,0,0,0,.4-1.45c-2.41-.94-5-2.46-5.89-5.09a4.48,4.48,0,0,1,2.79-5.83c2.46-1,3.88-2.84,3.26-5.58-.21-.94-1.65-.55-1.44.4.79,3.54-3.18,3.38-4.92,5.33a6.2,6.2,0,0,0-1.43,4.31c.14,4.08,3.8,6.56,7.23,7.91l.4-1.45c-4.2-.82-10.38-1.15-9.34-7.12.83-4.77,5.91-6.83,9.59-9.24.81-.53,0-1.83-.76-1.3Z" transform="translate(-744.68 -379.44)"/></g><path class="cls-2" d="M846.58,698.39c-19.81-.22-38.76-8-54.19-20.22-16.22-12.85-28.11-30.18-35.5-49.42C749,608.21,746,586,746.18,564.12c.14-20.11,2.83-40.33,9.1-59.48,6.94-21.23,18.55-41,35.66-55.56.56-.47,0-1.21-.53-1.28a4,4,0,0,1-2.88-1.43l-.15,1.18a15.8,15.8,0,0,1,9.65-3.41.76.76,0,0,0,.72-.95,2.54,2.54,0,0,1,3.41-2.78.75.75,0,0,0,.84-.35,22.32,22.32,0,0,1,7.72-7.46c2.21-1.27,8.56-4.43,10.67-1.76a.75.75,0,0,0,1.06,0c4.13-4.7,13.71-3.22,15.51-10.46.61-2.46-.71-4.32-2.54-5.8-1.48-1.19-3.46-2.12-3.28-4.27.35-4.28,5.67-2.7,8.06-1.38a.75.75,0,0,0,1.12-.65,15.29,15.29,0,0,1,10.88-14.91.75.75,0,0,0,.33-1.25c-2.09-1.9-4.64-4.57-4.21-7.65.34-2.46,3.76-4.93,5.8-2.61a.75.75,0,0,0,1.06,0c2-2.29,5.52.11,5.81,2.61.36,3.1-2.09,5.72-4.22,7.65a.76.76,0,0,0,.34,1.25A15.28,15.28,0,0,1,867,408.28a.76.76,0,0,0,1.13.65c2.25-1.24,6.46-2.79,8,.44,1.16,2.48-1.59,3.92-3.13,5.15-1.86,1.49-3.23,3.35-2.61,5.86,1.8,7.23,11.38,5.76,15.51,10.46a.75.75,0,0,0,1.06,0c2.12-2.68,8.46.48,10.67,1.76a22.38,22.38,0,0,1,7.71,7.46.77.77,0,0,0,.85.35,2.53,2.53,0,0,1,3.4,2.78.77.77,0,0,0,.73.95,15.82,15.82,0,0,1,9.65,3.41l-.15-1.18a4,4,0,0,1-2.89,1.43c-.57.07-1.08.81-.53,1.28,34.47,29.37,45.59,77.53,44.73,121.06-.49,24.5-5.1,49.32-16.32,71.27-10.1,19.75-25.81,36.63-45.54,47a85.49,85.49,0,0,1-34.73,9.88c-6,.33-12,.11-17.92.11a.75.75,0,0,0,0,1.5c5,0,9.94.07,14.9,0a84,84,0,0,0,31-6.68c20.22-8.46,37.3-23.9,48.76-42.47,13-21.09,19.18-45.72,20.88-70.26,1.61-23.25-.32-47.08-6.63-69.56-6.72-24-19-46.61-38.08-62.9l-.53,1.28a6.28,6.28,0,0,0,4-1.87.77.77,0,0,0-.15-1.18,17.1,17.1,0,0,0-10.41-3.61l.72.95a4.06,4.06,0,0,0-5.25-4.63l.85.35a23.9,23.9,0,0,0-10.25-9c-2.71-1.23-8.16-3.46-10.49-.5h1.06c-2.58-2.93-6.31-3.43-9.78-4.76-2.32-.89-5.39-2.95-5.46-5.77,0-2.35,2.34-3.56,3.91-4.85,2-1.68,3.18-4.17,1.31-6.49-2.48-3.08-6.59-1.91-9.55-.27l1.13.64a16.78,16.78,0,0,0-12-16.35l.33,1.25c2.84-2.58,6.43-7.12,3.9-11.07-1.62-2.51-5.42-3.79-7.61-1.31h1.06c-2.18-2.48-6-1.2-7.6,1.31-2.53,3.95,1.06,8.49,3.89,11.07l.33-1.25a16.8,16.8,0,0,0-12,16.35l1.13-.64c-2.89-1.61-6.73-2.75-9.32,0-2.14,2.3-1,5,1.09,6.74,1.48,1.22,3.54,2.24,3.83,4.33.4,2.87-2.69,5.2-5,6.16-3.56,1.46-7.45,1.85-10.12,4.89h1.06c-2.33-3-7.78-.73-10.49.5a23.91,23.91,0,0,0-10.25,9l.84-.35a4.06,4.06,0,0,0-5.25,4.63l.73-.95a17.05,17.05,0,0,0-10.41,3.61.77.77,0,0,0-.15,1.18,6.25,6.25,0,0,0,3.94,1.87l-.53-1.28c-31.17,26.56-43.43,68.71-45,108.37-1.72,43,8.59,89.59,42.09,119.18,16.47,14.54,37.46,24.07,59.63,24.32A.75.75,0,0,0,846.58,698.39Z" transform="translate(-744.68 -379.44)"/><path class="cls-2" d="M849.84,453.57c-8.66-.13-17.58,4-25.13,7.87A75.5,75.5,0,0,0,802,478.59C785.62,496.76,775.66,520,771.76,544a172.49,172.49,0,0,0-1.52,40.92c1,13,2.84,26.51,8,38.6,7.63,17.77,21.79,31.72,39,40.31,13.27,6.64,28.46,10.7,43.37,10.6a79.64,79.64,0,0,0,43.45-13.61c17.65-11.89,30-30.89,34.73-51.56,6-26.42,5.79-55.45-1.64-81.55A129.94,129.94,0,0,0,923,495.17c-5.67-9.19-12.7-18.55-21.28-25.22a92.86,92.86,0,0,0-24.42-13.17A48,48,0,0,0,865,453.65c-2.48-.22-5-.08-7.53-.08h-7.67a.75.75,0,0,0,0,1.5c4.73,0,9.51-.2,14.24,0,8.92.42,18,4.92,25.75,9.09a63.8,63.8,0,0,1,21.86,17.95,119.63,119.63,0,0,1,18.16,29.48c10.38,23.86,13.09,50.4,10.71,76.15-1.22,13.25-3.46,26.57-9.25,38.66a84.89,84.89,0,0,1-17.77,24.86,79,79,0,0,1-42.89,20.87C857,674.15,843,672,830,667.52c-17-5.83-32.5-16.28-42.83-31.11a80.93,80.93,0,0,1-12.73-31.19A181.93,181.93,0,0,1,771.26,565c.78-25,7.28-50,20.93-71.11,5.71-8.83,12.7-17.86,21.34-24a94.14,94.14,0,0,1,24.94-12.57,34.86,34.86,0,0,1,11.37-2.18A.75.75,0,0,0,849.84,453.57Z" transform="translate(-744.68 -379.44)"/><path class="cls-4" d="M841.51,510.68c.13-2.89,3.3-4.73,6.18-5a12.47,12.47,0,0,1,9.67,3.48c-3.83-1.52-8.24-3-11.94-1.22-1.53.75-2.9,2.05-4.61,2.09a1.72,1.72,0,0,1,.62-1" transform="translate(-744.68 -379.44)"/><path class="cls-4" d="M842,510.68c.43-3.39,4.24-4.63,7.19-4.51a12.36,12.36,0,0,1,7.81,3.36l.49-.83c-2.73-1.07-5.61-2.16-8.59-2.06a9.33,9.33,0,0,0-3,.57c-1.77.67-3.14,2.1-5.1,2.34l.43.75.54-.85c.44-.48-.27-1.19-.7-.71a2.3,2.3,0,0,0-.7,1.06c-.13.3,0,.8.43.75,2.6-.32,4.39-2.36,7-2.78,3.23-.53,6.47.73,9.44,1.89.47.19.84-.51.49-.83a13,13,0,0,0-10.7-3.55c-3,.47-5.62,2.3-6,5.4-.08.63.92.63,1,0Z" transform="translate(-744.68 -379.44)"/><path class="cls-4" d="M864.42,510.28c1.25-1.1,3.05-1.27,4.72-1.31a10.66,10.66,0,0,1,4.7.65,4.12,4.12,0,0,1,2.57,3.71,12.91,12.91,0,0,0-12.34-2.9" transform="translate(-744.68 -379.44)"/><path class="cls-4" d="M864.67,510.71c2.88-2.12,11-2.19,11.24,2.62l.85-.36a13.74,13.74,0,0,0-12.83-3,.5.5,0,0,0,.27,1,12.64,12.64,0,0,1,11.86,2.76.5.5,0,0,0,.85-.35c-.31-5.68-9.14-6.13-12.74-3.48-.52.37,0,1.24.5.86Z" transform="translate(-744.68 -379.44)"/><path class="cls-4" d="M856.88,513.1c-3.54-.74-8.58-2.31-11.25,1.1-.39.49.27,1.2.7.71a4.25,4.25,0,0,1,5.86-.67c.49.35.95-.38.61-.79-2-2.38-5.85.88-3.24,3,2.8,2.28,5.3-2.43,2.26-4a.5.5,0,0,0-.6.07,3.61,3.61,0,0,0-.87,3.62.51.51,0,0,0,.84.22,2.41,2.41,0,0,0,.8-2.13.5.5,0,0,0-.85-.35,3.22,3.22,0,0,0-1,1.54c-.18.5.49.79.84.48l1.1-1c.48-.42-.23-1.13-.71-.7l-1.1,1,.84.48.76-1.1-.86-.35-.51,1.42.83.22-.1-1.41c1.29,0,1.41.29.34.89-.81,1-1,.83-.61-.56-.25-1.38.14-1.59,1.15-.64l.61-.78a5.23,5.23,0,0,0-7.07.82l.7.71c2.41-3.08,7.09-1.51,10.29-.84.62.13.89-.83.26-1Z" transform="translate(-744.68 -379.44)"/><path class="cls-4" d="M865.29,515.25a5.55,5.55,0,0,1,8.25,2.55.5.5,0,0,0,1-.27c-.7-2.43-2.68-5-5.53-4.25-1.84.49-3.61,3.17-1.55,4.61,1.71,1.2,4.32-1.42,2.9-3.07a1.23,1.23,0,1,0-1.67,1.76.52.52,0,0,0,.69-.18,1.88,1.88,0,0,0,.26-1.64.5.5,0,0,0-.61-.35,1.7,1.7,0,0,0-1.21,2.3.5.5,0,0,0,.73.3c.72-.46,1.6-1.15,1.29-2.08a.53.53,0,0,0-.49-.37.67.67,0,0,0-.67.43.5.5,0,0,0,.08.6l.09.08c.5.4,1.21-.3.71-.71l-.1-.07.08.6-.19.07-.48-.37a1.25,1.25,0,0,1-.82,1l.73.3.51-1.07-.61-.35-.17.86.69-.18c.44,1.64,0,1.51-1.43-.39l.43-.53a2.55,2.55,0,0,1,2.52-.5c1.62.45,2.42,2,2.86,3.51l1-.27a6.54,6.54,0,0,0-9.71-3.14c-.53.37,0,1.24.5.86Z" transform="translate(-744.68 -379.44)"/><path class="cls-4" d="M858.76,512.27c-.16,2.74.33,6.69-2.14,8.43-1,.71-2,1-2.26,2.34s.53-.18,1-.64a21.06,21.06,0,0,0,1.82-1.72,9.34,9.34,0,0,0,1.94-5.27c0-.65-1-.64-1,0-.22,3-1.58,4.73-3.82,6.51-.59.46-1.37,1-1.51,1.76-.19,1.1.86,2.52,2,1.88.76-.41.42-1,.58-1.73.49-2.19,1.66-1.8,2.93-3.12,1.84-1.91,1.29-6,1.43-8.44,0-.65-1-.65-1,0Z" transform="translate(-744.68 -379.44)"/><path class="cls-4" d="M861.14,527.41a2.07,2.07,0,0,1,2.69.52l.68-.68a5.94,5.94,0,0,0-4.16-.74.5.5,0,0,0-.35.61,1.81,1.81,0,0,0,1.64,1.49c.64.08.63-.92,0-1a.83.83,0,0,1-.68-.75l-.35.61a4.93,4.93,0,0,1,3.4.64c.4.24,1-.26.68-.68a3.08,3.08,0,0,0-4.06-.88.5.5,0,0,0,.51.86Z" transform="translate(-744.68 -379.44)"/><path class="cls-4" d="M847,482.71a13.39,13.39,0,0,0-10.19,4.34,26.59,26.59,0,0,0-5.65,9.83,13.78,13.78,0,0,0-1,4.09,16.18,16.18,0,0,0,1.46,6.26,55,55,0,0,0,3.78,8.44,2.84,2.84,0,0,0,1.26,1.3c1.55.57,2.7-1.69,2.32-3.3s-1.46-3.14-1.14-4.75c.37-1.81,2.27-2.79,3.41-4.24,1.42-1.8,1.59-4.26,2.05-6.52s1.53-4.72,3.73-5.41c2.58-.81,5.08,1.24,7.61,2.2,4.58,1.75,9.65-.13,14.54-.5a7.38,7.38,0,0,1,4,.56,8.63,8.63,0,0,1,2.9,3c3.09,4.53,6.32,9.55,5.87,15-.25,3-1.36,6.8,1.11,8.59A57.58,57.58,0,0,0,889.75,508a10.13,10.13,0,0,0,.67-3.25,9.55,9.55,0,0,0-1.11-4A36.62,36.62,0,0,0,881,489.68a31,31,0,0,0-11.11-6.9c-7.35-2.47-15.37-1.3-23-.1" transform="translate(-744.68 -379.44)"/><path class="cls-4" d="M847,482.21c-8.7-.27-14,7.55-16.46,14.93-1.68,4.93.09,9.06,2,13.67.72,1.74,2.39,7.6,5.27,6.64,3.3-1.1.84-5.12.63-7.07-.34-3.06,2.68-4.14,3.9-6.4,1-1.86,1.09-4,1.57-6a8.11,8.11,0,0,1,1.46-3.33c1.71-2.08,3.91-1.63,6-.67a20.39,20.39,0,0,0,5.75,2.11,22.06,22.06,0,0,0,6.12-.27c2.77-.41,6.3-1.59,9.05-.62s4.46,4.66,5.85,7a22.33,22.33,0,0,1,3.18,7.82c.59,3.77-2,9.11,1.37,12a.51.51,0,0,0,.79-.1,60.36,60.36,0,0,0,5.07-9.44c1-2.47,2.47-5.36,2.29-8.11-.33-5.34-5.25-10.91-8.9-14.45a30.58,30.58,0,0,0-15.36-8.5c-6.59-1.26-13.33-.22-19.88.79-.63.1-.36,1.07.27,1,6.07-.94,12.34-1.92,18.47-.94a29.08,29.08,0,0,1,15.2,7.82c3.71,3.45,8.46,8.74,9.13,14,.4,3.12-1.54,6.83-2.8,9.58a57.78,57.78,0,0,1-4.36,7.8l.79-.1c-2.9-2.51-.6-7.85-1.06-11.19-.56-4-2.7-7.6-4.91-10.92-1.94-2.93-3.62-5.3-7.42-5.27-4.68,0-9.32,2.09-14,.93-3.12-.76-6.48-4-9.85-2.26-2.94,1.52-3.23,5.28-3.83,8.12-.52,2.46-1.73,3.85-3.42,5.61a4.67,4.67,0,0,0-1.61,3.41,8.74,8.74,0,0,0,.67,2.5,9.88,9.88,0,0,1,.44,1.4c.28,1.45.33,1.59-1.28,1.71s-1.31.09-2-1.13c-.22-.4-.43-.82-.63-1.23-.71-1.49-1.33-3-1.93-4.58-1.18-3.05-2.42-6-1.63-9.36a28.76,28.76,0,0,1,2.89-7.14c2.7-4.88,7.24-8.86,13.1-8.68.64,0,.64-1,0-1Z" transform="translate(-744.68 -379.44)"/><path class="cls-4" d="M857.66,529.59a11.41,11.41,0,0,0-6.07,2.08,5.59,5.59,0,0,0-2.15,5.73,59.86,59.86,0,0,1,18.75-.34,12.27,12.27,0,0,0-10.09-8" transform="translate(-744.68 -379.44)"/><path class="cls-4" d="M857.66,529.09c-4.49.52-9.83,3-8.7,8.44a.5.5,0,0,0,.61.35,62.49,62.49,0,0,1,18.62-.32.5.5,0,0,0,.48-.63,13,13,0,0,0-10.44-8.33c-.63-.09-.9.87-.27,1a12,12,0,0,1,9.75,7.64l.48-.64a63.23,63.23,0,0,0-18.88.36l.61.35c-1-4.73,4-6.75,7.74-7.18.63-.07.64-1.07,0-1Z" transform="translate(-744.68 -379.44)"/><g class="cls-8"><path class="cls-2" d="M854.22,540.12a18.06,18.06,0,0,1,7.43-.16l-4.13,1c-1.31.32-3.19.3-3.44-1" transform="translate(-744.68 -379.44)"/><path class="cls-2" d="M854.36,540.61a18.31,18.31,0,0,1,7.15-.16v-1c-1.24.3-6.33,2.3-7,.34-.19-.62-1.16-.35-1,.26,1,3.08,6.23.84,8.18.37a.51.51,0,0,0,0-1,19.71,19.71,0,0,0-7.69.16c-.63.14-.36,1.1.27,1Z" transform="translate(-744.68 -379.44)"/></g><path class="cls-4" d="M791.81,615.78c10.25,12.6,26.15,18.92,41.43,24.44,9.56,3.44,19.28,6.8,29.39,7.72,16.22,1.47,32.27-3.39,47.82-8.2,1.87-.58,3.86-1.24,5-2.79s1.3-3.67,1.34-5.63a435.67,435.67,0,0,0-1.43-47c-.24-2.79-.54-5.68-2-8.09-1.61-2.73-4.45-4.46-7.19-6.06q-13.32-7.76-27.07-14.74a142.19,142.19,0,0,1,3.61,73.81l-25.95-46.95c-3.66-6.61-7.34-13.28-9.64-20.47-1.63-5.07-2.85-10.8-7.17-13.91-.49-.35-1.54.13-1,.4v-1.81c-2.09-.54-4,1.22-5.54,2.73a48.51,48.51,0,0,1-19.67,11.64c-5.5,1.67-11.74,2.62-15.44,7-2,2.44-3,5.59-3.77,8.67a194.32,194.32,0,0,0-5.83,35.13" transform="translate(-744.68 -379.44)"/><path class="cls-4" d="M791.45,616.13c9,10.88,21.93,17.1,34.88,22.06,14.85,5.69,30.14,11.27,46.3,10.41a118.18,118.18,0,0,0,24.58-4.41c4.18-1.14,8.32-2.4,12.46-3.69,2.61-.8,5.52-1.59,6.81-4.24,1.4-2.86.91-6.77.95-9.84q.08-6.6,0-13.22-.24-13-1.25-25.92c-.3-3.87-.3-8.23-2.48-11.61-2-3.06-5.34-4.85-8.41-6.62q-12.72-7.37-25.82-14a.5.5,0,0,0-.73.56,143,143,0,0,1,3.61,73.55l.91-.12q-13.31-24.07-26.61-48.14a123.3,123.3,0,0,1-10-22.68c-.62-2-4.53-13.29-8.06-10.44a.51.51,0,0,0-.07.61l.14.22a.5.5,0,0,0,.93-.25v-1.81a.52.52,0,0,0-.37-.48c-3.15-.45-5.11,2.06-7.22,4a48.2,48.2,0,0,1-10,7A58.8,58.8,0,0,1,810,561.45c-3.15.87-6.41,1.78-9.16,3.62-6.28,4.2-7.3,13-8.75,19.82a199,199,0,0,0-3.84,26.83c0,.64,1,.64,1,0a196.39,196.39,0,0,1,3.8-26.56c1.63-7.6,2.73-16.79,10.53-20.48,3.29-1.55,6.89-2.24,10.34-3.3a48.79,48.79,0,0,0,9.22-3.88,49.41,49.41,0,0,0,8.24-5.67c1.52-1.29,2.9-3,4.59-4.08a4.79,4.79,0,0,1,1.57-.73c.74-.62,1.06-.62,1,0,.15.23,0,1,0,1.34l.93-.25c.44.71,1.67,1.41,2.29,2.14a15.33,15.33,0,0,1,1.67,2.55,29.78,29.78,0,0,1,1.87,4.62c1.07,3.25,2,6.51,3.3,9.68,2.78,6.73,6.46,13,10,19.41l23.79,43a.51.51,0,0,0,.92-.12,144,144,0,0,0-3.62-74.07l-.73.56q10.73,5.48,21.22,11.39c2.87,1.62,5.84,3.17,8.57,5,4.14,2.82,5.62,6.34,6.11,11.2a361.66,361.66,0,0,1,1.51,47.81c-.06,2-.13,4.27-1.68,5.82a10.37,10.37,0,0,1-4.34,2.12q-6,1.89-12,3.58a125.26,125.26,0,0,1-23.33,4.6c-15.67,1.3-30.15-3.47-44.64-8.8-14.06-5.18-28.42-11.4-38.2-23.22-.41-.49-1.12.22-.71.71Z" transform="translate(-744.68 -379.44)"/><path class="cls-9" d="M861.39,560.37a18.06,18.06,0,0,0,7.71,10.77c-3.74,3.34-4.47,8.91-4.14,13.91,1,15.28,9.33,29,17.44,42a145.16,145.16,0,0,0,.85-30.12c-.77-10-3.45-21.21-12.19-26.11a19.37,19.37,0,0,0,3.58-7.87c.26-1.31.29-2.9-.76-3.71a3.65,3.65,0,0,0-2.35-.53,27.45,27.45,0,0,0-9.06,1.66" transform="translate(-744.68 -379.44)"/><path class="cls-9" d="M860.91,560.5a19.19,19.19,0,0,0,7.94,11.07l-.1-.79c-6.88,6.59-4.43,18.58-2,26.61,3.29,10.74,9.27,20.41,15.17,29.88a.51.51,0,0,0,.94-.25c1.5-11.56,2-23.63.29-35.2-1.23-8.31-4.27-17-11.88-21.46l.18.68c1.85-2.53,5.45-8.43,3.26-11.62-.84-1.23-2.34-1.26-3.69-1.23a28.85,28.85,0,0,0-8.72,1.66c-.61.21-.35,1.18.26,1,2.41-.83,11.09-3.86,11.69.74.39,2.94-2,6.74-3.66,9a.51.51,0,0,0,.18.68c8,4.69,10.68,14.21,11.67,22.86A136.5,136.5,0,0,1,881.9,627l.93-.26c-5.41-8.68-10.88-17.49-14.28-27.19-2.83-8.11-6.26-21.22.91-28.08a.51.51,0,0,0-.1-.79,18,18,0,0,1-7.49-10.47.5.5,0,0,0-1,.27Z" transform="translate(-744.68 -379.44)"/><g class="cls-10"><path class="cls-2" d="M838,533.47c1.43,2.11,2.94,4.29,5.17,5.53a13.07,13.07,0,0,1,2.38,1.38c1.26,1.13,1.58,3,2.8,4.21s3.33,1.36,5.11,1.77a13.07,13.07,0,0,1,6.77,4l-8.14-2.92c-3-1.08-6.16-2.18-9.36-1.89.87-1.47.32-3.39-.62-4.82s-2.23-2.62-3-4.15c-.26-.52-.41-1.26.06-1.6" transform="translate(-744.68 -379.44)"/><path class="cls-2" d="M837.61,533.72a20.76,20.76,0,0,0,4.09,4.86c1,.75,2.12,1.11,3.09,1.82,1.36,1,1.72,2.62,2.7,3.9a6.4,6.4,0,0,0,4.17,2.2,14.7,14.7,0,0,1,8.26,4.23l.49-.83c-5.55-2-11.61-5.15-17.64-4.83l.44.75a4.85,4.85,0,0,0,.06-4c-.6-1.53-4.55-5.09-3.62-6.57.34-.54-.53-1-.87-.5-2.08,3.32,5.4,6.39,3.56,10.57a.51.51,0,0,0,.43.75c5.89-.31,11.94,2.84,17.37,4.79.49.18.81-.5.49-.84a14.27,14.27,0,0,0-5.09-3.53c-2.58-1-5.94-.7-7.59-3.3-1-1.65-1.5-3-3.26-4a17.77,17.77,0,0,1-6.22-6c-.36-.53-1.22,0-.86.5Z" transform="translate(-744.68 -379.44)"/></g><g class="cls-10"><path class="cls-2" d="M838.47,517.74a17.73,17.73,0,0,1-1.23,8.46,9,9,0,0,0-1.27-4.31c-.72-1.2-1.67-2.86-.62-3.77s2.33,0,3.52-.22" transform="translate(-744.68 -379.44)"/><path class="cls-2" d="M838,517.74a18.38,18.38,0,0,1-1.21,8.33l1,.13a10.62,10.62,0,0,0-1.34-4.56c-.16-.29-.34-.57-.49-.86-.48-.94-.76-1.35.06-2s1.79-.26,2.9-.34c.64,0,.65-1,0-1-1.51.11-4-.79-4.44,1.36a3.89,3.89,0,0,0,.62,2.53,12.08,12.08,0,0,1,1.69,4.91.5.5,0,0,0,1,.13,18.93,18.93,0,0,0,1.25-8.59c-.06-.64-1.06-.64-1,0Z" transform="translate(-744.68 -379.44)"/></g><g class="cls-11"><path class="cls-2" d="M849.33,453.22a84.91,84.91,0,0,0-58,40.65c-5.62,9.75-9.21,20.51-12.76,31.19a147.53,147.53,0,0,0-5.5,19.47,118.13,118.13,0,0,0-1.54,23.17,287.92,287.92,0,0,0,2.74,36c.82,5.92,1.84,11.86,4,17.42A59.94,59.94,0,0,0,786,634.56c18.66,25.38,51,40.45,82.29,37s60.11-25.86,69.77-55.84c3-9.27,4.23-19,4.83-28.76,1.79-29.36-2.34-59.48-15.15-86-7.33-15.14-18.46-26.73-32.48-36s-31.24-15.8-47.32-10.89" transform="translate(-744.68 -379.44)"/><path class="cls-2" d="M849.2,452.73a85.88,85.88,0,0,0-48.7,27.53A91,91,0,0,0,784.86,506a238.06,238.06,0,0,0-11.27,33.67c-2.88,11.71-2.85,23.85-2.37,35.83A234,234,0,0,0,775,611.34c3.92,19.79,18.78,36,35.41,46.61,16,10.18,35.09,15.64,54.06,14.47A84.94,84.94,0,0,0,913,652.85a81.25,81.25,0,0,0,28.06-47,166.72,166.72,0,0,0,2.66-34.48,187,187,0,0,0-3.29-33c-3.95-20.52-11.41-41.61-25.59-57.36a101.41,101.41,0,0,0-23-18.76c-8.81-5.31-18.68-9.43-29-10.22a41.83,41.83,0,0,0-15,1.57.5.5,0,0,0,.27,1c20.73-6.07,42.35,5.75,57.7,18.95,15.69,13.5,24.85,31.61,30.46,51.28,5.91,20.74,7.54,42.58,6,64-.77,10.94-2.46,22-6.66,32.16a78.56,78.56,0,0,1-14.43,22.66,85.46,85.46,0,0,1-44.48,26c-18.34,4.07-37.77,1.3-54.73-6.57S789.26,642,780.66,625.22c-5.33-10.38-6.31-22.65-7.39-34.09a232,232,0,0,1-1.06-35.06c.68-12,4.19-23.06,8-34.34,3.49-10.42,7.25-20.87,13.12-30.22a84.73,84.73,0,0,1,42.93-34.3,82.65,82.65,0,0,1,13.23-3.51c.63-.12.36-1.08-.27-1Z" transform="translate(-744.68 -379.44)"/></g><g class="cls-12"><path class="cls-1" d="M827.9,643.63a25.82,25.82,0,0,0,17.68-7.32c4.33-4.34,7.6-11.45,7.32-17.68-.29-6.46-2.41-13.17-7.32-17.68a25,25,0,0,0-35.36,0c-4.33,4.34-7.6,11.45-7.32,17.68.29,6.47,2.41,13.17,7.32,17.68a26,26,0,0,0,17.68,7.32Z" transform="translate(-744.68 -379.44)"/></g><g class="cls-12"><path class="cls-1" d="M881.83,626.75l-.7-.7a18.69,18.69,0,0,0-8-5.17,22.66,22.66,0,0,0-19.27,0,18.69,18.69,0,0,0-8,5.17l-3.91,5.06a25,25,0,0,0-3.42,12.62l.9,6.65a25,25,0,0,0,6.43,11l.69.69a25.72,25.72,0,0,0,35.36,0l3.91-5.06a24.81,24.81,0,0,0,3.41-12.61l-.89-6.65a25,25,0,0,0-6.43-11Z" transform="translate(-744.68 -379.44)"/></g><g class="cls-12"><path class="cls-1" d="M878.79,651.3A25.81,25.81,0,0,0,896.47,644c4.34-4.34,7.6-11.45,7.32-17.68-.29-6.47-2.41-13.17-7.32-17.68a25,25,0,0,0-35.36,0c-4.33,4.34-7.6,11.45-7.32,17.68.29,6.47,2.42,13.17,7.32,17.68s10.91,7.32,17.68,7.32Z" transform="translate(-744.68 -379.44)"/></g><g class="cls-12"><path class="cls-1" d="M871.12,654.79a25.77,25.77,0,0,0,17.68-7.33c4.34-4.33,7.6-11.45,7.32-17.67-.29-6.47-2.41-13.18-7.32-17.68a25,25,0,0,0-35.35,0c-4.34,4.33-7.61,11.45-7.33,17.68.29,6.46,2.42,13.17,7.33,17.67s10.9,7.33,17.67,7.33Z" transform="translate(-744.68 -379.44)"/></g><g class="cls-12"><path class="cls-1" d="M844.63,663.15a25.81,25.81,0,0,0,17.68-7.32c4.33-4.34,7.6-11.45,7.32-17.68-.29-6.46-2.41-13.17-7.32-17.68a25,25,0,0,0-35.36,0c-4.33,4.34-7.6,11.45-7.32,17.68.29,6.47,2.41,13.17,7.32,17.68a26,26,0,0,0,17.68,7.32Z" transform="translate(-744.68 -379.44)"/></g><g class="cls-12"><path class="cls-1" d="M826.5,656.88a25.81,25.81,0,0,0,17.68-7.32c4.34-4.34,7.6-11.45,7.32-17.68-.28-6.47-2.41-13.17-7.32-17.68a25,25,0,0,0-35.35,0c-4.34,4.34-7.6,11.45-7.33,17.68.29,6.46,2.42,13.17,7.33,17.68a26,26,0,0,0,17.67,7.32Z" transform="translate(-744.68 -379.44)"/></g><g class="cls-12"><path class="cls-1" d="M830.66,599.74,828.57,597A24.09,24.09,0,0,0,803.66,585a18.64,18.64,0,0,0-9.29,3l-5.06,3.91a24.92,24.92,0,0,0-6.43,11l-.9,6.65a25,25,0,0,0,3.42,12.62l2.09,2.78a24.09,24.09,0,0,0,24.91,11.94,18.55,18.55,0,0,0,9.29-3l5.06-3.91a24.9,24.9,0,0,0,6.43-11l.9-6.64a25,25,0,0,0-3.42-12.62Z" transform="translate(-744.68 -379.44)"/></g><g class="cls-12"><path class="cls-1" d="M824,580,821.87,578a18.69,18.69,0,0,0-8-5.17,22.57,22.57,0,0,0-19.27,0,18.69,18.69,0,0,0-8,5.17L782.61,583a24.84,24.84,0,0,0-3.41,12.61l.89,6.65a25,25,0,0,0,6.43,11l2.09,2.09a25.7,25.7,0,0,0,35.35,0l3.91-5.06a24.82,24.82,0,0,0,3.42-12.61l-.9-6.65A24.92,24.92,0,0,0,824,580Z" transform="translate(-744.68 -379.44)"/></g><g class="cls-12"><path class="cls-1" d="M820.48,566.1l-2.09-2.1A25.72,25.72,0,0,0,783,564l-3.91,5.06a24.87,24.87,0,0,0-3.41,12.62l.89,6.65a25,25,0,0,0,6.43,11l2.09,2.09a25.72,25.72,0,0,0,35.36,0l3.91-5.06a24.85,24.85,0,0,0,3.41-12.62l-.89-6.64a24.9,24.9,0,0,0-6.43-11Z" transform="translate(-744.68 -379.44)"/></g><g class="cls-12"><path class="cls-1" d="M778.5,569.13v.7a25.69,25.69,0,0,0,25,25l6.64-.89a25,25,0,0,0,11-6.43l3.9-5.06a24.88,24.88,0,0,0,3.42-12.62v-.7a25.72,25.72,0,0,0-25-25l-6.65.9a25,25,0,0,0-11,6.42l-3.91,5.06a24.87,24.87,0,0,0-3.41,12.62Z" transform="translate(-744.68 -379.44)"/></g><g class="cls-12"><path class="cls-1" d="M808.38,617.14a25.82,25.82,0,0,0,17.68-7.32c4.33-4.34,7.6-11.45,7.32-17.68-.29-6.47-2.42-13.17-7.32-17.68s-10.91-7.32-17.68-7.32a25.81,25.81,0,0,0-17.68,7.32c-4.34,4.34-7.6,11.45-7.32,17.68.29,6.46,2.41,13.17,7.32,17.68a26,26,0,0,0,17.68,7.32Z" transform="translate(-744.68 -379.44)"/></g><g class="cls-12"><path class="cls-1" d="M792.09,584.92l-3.48,2.79A24.18,24.18,0,0,0,783.44,615a18.69,18.69,0,0,0,5.17,8l5.06,3.91a25,25,0,0,0,12.62,3.42l6.64-.9a24.9,24.9,0,0,0,11-6.43l3.49-2.79a27.75,27.75,0,0,0,7.32-17.67,27.75,27.75,0,0,0-7.32-17.68L822.39,581a24.85,24.85,0,0,0-12.62-3.41l-6.64.89a25,25,0,0,0-11,6.43Z" transform="translate(-744.68 -379.44)"/></g><g class="cls-12"><path class="cls-1" d="M784.08,619.33v2.09a25.67,25.67,0,0,0,25,25l6.64-.89a25,25,0,0,0,11-6.43l3.91-5.06a25,25,0,0,0,3.42-12.62v-2.09a25.69,25.69,0,0,0-25-25l-6.65.89a25,25,0,0,0-11,6.43l-3.91,5.06a24.87,24.87,0,0,0-3.41,12.62Z" transform="translate(-744.68 -379.44)"/></g><g class="cls-12"><path class="cls-1" d="M810.94,650.24a21.9,21.9,0,0,0,3.15,2.57,32.52,32.52,0,0,0,3.15,2.33c4.69,2.82,8.54,3.34,13.87,3.82a27.57,27.57,0,0,0,15.68-4.1A24.09,24.09,0,0,0,858.73,630a18.55,18.55,0,0,0-3-9.29l-3.91-5.06a24.86,24.86,0,0,0-11-6.43l-6.65-.9a25,25,0,0,0-12.61,3.42,5.24,5.24,0,0,1-.77.43l6-2.52a5.69,5.69,0,0,1-1.13.29l6.64-.89a5.73,5.73,0,0,1-1.17,0l6.65.9a6.29,6.29,0,0,1-1.12-.34l6,2.52a6.2,6.2,0,0,1-.75-.45l5.06,3.91a6.15,6.15,0,0,1-.63-.62,25.7,25.7,0,0,0-35.35,0L807,619.94a24.88,24.88,0,0,0-3.42,12.62l.9,6.65a24.92,24.92,0,0,0,6.43,11Z" transform="translate(-744.68 -379.44)"/></g><g class="cls-12"><path class="cls-1" d="M798.44,596c-.6,4.35-1.4,8.31-1,12.62s.91,8.71,2.53,12.77c1.52,3.82,2.92,7.52,5.28,10.85a51.1,51.1,0,0,0,13.13,13.26c8.67,6.29,19.74,8,30.1,6,11.34-2.21,21.2-11.88,24.13-23,3.4-12.93-1-28.25-13.21-35.12-8.77-4.93-19.31-5.73-28.27-.63a28.91,28.91,0,0,0-13.45,17.55c-2,7.57-1.79,15.82-.76,23.5,1.32,9.8,4.91,18.56,11.79,25.85a38.67,38.67,0,0,0,27.07,11.87c12.17.16,23.1-6.49,29.65-16.49a35.58,35.58,0,0,0,4.25-28.51,30.75,30.75,0,0,0-13.76-18.08,27.79,27.79,0,0,0-33.18,3.93,32.09,32.09,0,0,0-7.94,32.23c3.39,10.79,12.15,20.17,23.39,22.81,12.68,3,24.82-1.8,34.25-10.15a32.33,32.33,0,0,0,4-4.69,31.48,31.48,0,0,0,3.5-5A33.72,33.72,0,0,0,903.7,627a29,29,0,0,0-3.85-11.56,28.14,28.14,0,0,0-16.29-12.83c-9.45-2.48-20.53-.46-27.45,6.93-7.09,7.57-10.32,17.12-7.88,27.41a29.58,29.58,0,0,0,14.28,18.43,30.76,30.76,0,0,0,24.25,2.49,36.11,36.11,0,0,0,15.86-10.24c6.27-7.24,11.4-15.81,13.15-25.36,1.17-6.43,1.19-13.49-2.52-19.26a26,26,0,0,0-12-10.23c-11.13-4.7-25.17-.73-31.22,10.23-3.48,6.3-5,14.32-2.7,21.34A29.43,29.43,0,0,0,880,640.66c11.62,7,25.37,4.22,35.18-4.39,4-3.48,7.1-8.22,10.06-12.53A44.81,44.81,0,0,0,932,608.67a26.4,26.4,0,0,0-2.52-19.27c-3-5.18-9-10.13-14.94-11.49-6.4-1.45-13.58-1.14-19.26,2.52-5.35,3.45-10,8.57-11.49,14.94a24.47,24.47,0,0,1-1.3,4l2.52-6a41.55,41.55,0,0,1-5,7.87l3.91-5.06a30.13,30.13,0,0,1-4.14,4.73l5.06-3.91a6.16,6.16,0,0,1-1.22.75l6-2.52a4.46,4.46,0,0,1-1.38.4l6.65-.89h-.6l6.64.89a3.13,3.13,0,0,1-1.15-.35l6,2.52-.52-.32,5.06,3.91a3.76,3.76,0,0,1-.84-.85l3.91,5.05-.28-.49,2.52,6-.17-.52.89,6.64,0-.53-.89,6.65.11-.53-2.52,6,.28-.5L867.55,609a34,34,0,0,1-1.87,6.47l2.52-6a32.68,32.68,0,0,1-3.78,6.56l3.91-5.06a24.76,24.76,0,0,1-3.28,3.51l5.06-3.91a12.81,12.81,0,0,1-2.62,1.61l6-2.52a8.55,8.55,0,0,1-1.47.44l6.64-.9a8.47,8.47,0,0,1-1.95,0l6.65.89a6.22,6.22,0,0,1-1.27-.32l6,2.52a7.59,7.59,0,0,1-1.66-1l5.06,3.91-.45-.44,3.91,5.06a4,4,0,0,1-.68-1l2.52,6a3.23,3.23,0,0,1-.31-1.18l.89,6.65,0-.59-.9,6.65a4,4,0,0,1,.34-1.12l-2.52,6,.3-.51-3.91,5.06a4.09,4.09,0,0,1,.79-.87l-5.06,3.91a3.76,3.76,0,0,1,1-.59l-6,2.52.53-.15-6.65.89.55,0-6.65-.9a2.42,2.42,0,0,1,1.08.29l-6-2.52.62.44-5.06-3.91.52.57-3.91-5.06a6.26,6.26,0,0,1,.72,1.29l-2.52-6A6.44,6.44,0,0,1,855,637l-.89-6.65a9.35,9.35,0,0,1,0,2l.89-6.65a11,11,0,0,1-.5,2l2.52-6a14.72,14.72,0,0,1-1.81,3.09l3.9-5.06a20.73,20.73,0,0,1-2.66,2.64l5.06-3.91a21,21,0,0,1-4,2.37l6-2.52a14.83,14.83,0,0,1-3.31.93l6.64-.89a7.7,7.7,0,0,1-1.44,0l6.65.89a8.25,8.25,0,0,1-2.19-.59l6,2.52a12,12,0,0,1-1.45-.89l5.06,3.91a11.35,11.35,0,0,1-1.6-1.65l3.91,5.06a11.55,11.55,0,0,1-1.15-2l2.52,6a11.31,11.31,0,0,1-.61-2.23l.89,6.65a10.14,10.14,0,0,1,0-2.27l-.89,6.65a10.17,10.17,0,0,1,.48-1.63l-2.52,6a6.7,6.7,0,0,1,.57-1l-3.91,5.06a4.28,4.28,0,0,1,1-1l-5.06,3.91.61-.34-6,2.52.68-.15-6.65.89.66,0-6.64-.89.63.23-6-2.52.6.37-5.06-3.91a5.22,5.22,0,0,1,1,1.06l-3.91-5.06a5.72,5.72,0,0,1,.72,1.3l-2.52-6a12.59,12.59,0,0,1,.51,1.82l-.89-6.65a12.07,12.07,0,0,1,0,3.12l.89-6.65a13.64,13.64,0,0,1-.66,2.43l2.52-6a13.67,13.67,0,0,1-1.56,2.73l3.91-5.06a13.53,13.53,0,0,1-1.76,1.79l5.06-3.91a12.51,12.51,0,0,1-2.13,1.3l6-2.52a12.76,12.76,0,0,1-2.58.69l6.64-.9a12.92,12.92,0,0,1-2.78,0l6.64.9a15.8,15.8,0,0,1-2.69-.75l6,2.52a16.9,16.9,0,0,1-3.7-2.2l5.06,3.91a21,21,0,0,1-2.57-2.6l3.91,5.06a19.17,19.17,0,0,1-2.27-3.86l2.52,6a28.05,28.05,0,0,1-1.69-6.52l.89,6.65a51.29,51.29,0,0,1,0-12.32l-.89,6.64a13.68,13.68,0,0,1,.46-1.78l-2.52,6a5,5,0,0,1,.54-1L860.22,633a2.89,2.89,0,0,1,.76-.76l-5.06,3.91.47-.25-6,2.52.54-.15-6.65.9.67,0-6.65-.89.65.15-6-2.52a4.1,4.1,0,0,1,1.18.64l-5.06-3.91a5.11,5.11,0,0,1,.83.78L826,628.32a7.87,7.87,0,0,1,.84,1.4l-2.52-6a9.71,9.71,0,0,1,.39,1.59l-.89-6.64a11.92,11.92,0,0,1,0,1.69l.89-6.64a10.69,10.69,0,0,1-.62,2.23l2.52-6a10.52,10.52,0,0,1-1.21,2l3.91-5.06a10.3,10.3,0,0,1-1.26,1.21l5.06-3.91a10.34,10.34,0,0,1-1.7.93l6-2.52a13.18,13.18,0,0,1-2.2.57l6.64-.89a14.81,14.81,0,0,1-3.05,0l6.65.9a18.41,18.41,0,0,1-3.77-1.07l6,2.52a20.48,20.48,0,0,1-4-2.39l5.06,3.91a25.31,25.31,0,0,1-3.7-3.69l3.91,5.06a26.83,26.83,0,0,1-3.07-5.12l2.52,6a26.51,26.51,0,0,1-1.78-6.48l.89,6.65a26.12,26.12,0,0,1,0-5.23l-.89,6.65.1-.75a19,19,0,0,0,.45-10,18.68,18.68,0,0,0-3-9.3c-3-5.19-9-10.13-14.94-11.49-6.4-1.46-13.58-1.14-19.27,2.52-5,3.26-10.63,8.69-11.48,14.94Z" transform="translate(-744.68 -379.44)"/></g><g class="cls-12"><path class="cls-1" d="M881.56,493.77l-2.1-3.49a24.05,24.05,0,0,0-24.91-11.93,18.66,18.66,0,0,0-9.29,3l-5.06,3.91a25,25,0,0,0-6.43,11l-.89,6.64a24.87,24.87,0,0,0,3.41,12.62l2.09,3.49a24.1,24.1,0,0,0,24.91,11.93,18.58,18.58,0,0,0,9.3-3l5.06-3.91a25,25,0,0,0,6.43-11l.89-6.64a25,25,0,0,0-3.41-12.62Z" transform="translate(-744.68 -379.44)"/></g><g class="cls-12"><path class="cls-1" d="M840.45,533.48a25.82,25.82,0,0,0,17.68-7.32c4.33-4.34,7.6-11.45,7.32-17.68-.29-6.47-2.42-13.17-7.32-17.68s-10.91-7.32-17.68-7.32a25.81,25.81,0,0,0-17.68,7.32c-4.34,4.34-7.6,11.45-7.32,17.68.29,6.46,2.41,13.17,7.32,17.68a26,26,0,0,0,17.68,7.32Z" transform="translate(-744.68 -379.44)"/></g><g class="cls-12"><path class="cls-1" d="M870,541.49l6.27-4.88a24.18,24.18,0,0,0,5.17-27.31,18.69,18.69,0,0,0-5.17-8c-4.76-4.38-11-7.62-17.68-7.32l-6.64.89a25,25,0,0,0-11,6.43l-6.28,4.88a24.18,24.18,0,0,0-5.17,27.31,18.69,18.69,0,0,0,5.17,8c4.77,4.38,11,7.62,17.68,7.33l6.65-.9a24.92,24.92,0,0,0,11-6.43Z" transform="translate(-744.68 -379.44)"/></g><g class="cls-12"><path class="cls-1" d="M896.92,551.61a25.79,25.79,0,0,0,17.68-7.33c4.33-4.33,7.6-11.45,7.32-17.67-.29-6.47-2.41-13.18-7.32-17.68a25,25,0,0,0-35.36,0c-4.33,4.33-7.6,11.45-7.32,17.68.29,6.46,2.41,13.17,7.32,17.67a26,26,0,0,0,17.68,7.33Z" transform="translate(-744.68 -379.44)"/></g><g class="cls-12"><path class="cls-1" d="M921,528.29l-2.78-.69a18.91,18.91,0,0,0-10-.45,18.58,18.58,0,0,0-9.3,3,28,28,0,0,0-11.49,14.94l-.89,6.64A24.85,24.85,0,0,0,890,564.32l3.91,5.06a25,25,0,0,0,11,6.43l2.79.7a18.9,18.9,0,0,0,10,.44,18.67,18.67,0,0,0,9.3-3,28,28,0,0,0,11.49-14.94l.89-6.65a24.88,24.88,0,0,0-3.42-12.62l-3.9-5.06a25,25,0,0,0-11-6.43Z" transform="translate(-744.68 -379.44)"/></g><g class="cls-12"><path class="cls-1" d="M886.56,581v.7a25.69,25.69,0,0,0,25,25l6.65-.89a25,25,0,0,0,11-6.43l3.91-5.06a24.87,24.87,0,0,0,3.41-12.62V581a25.72,25.72,0,0,0-25-25l-6.65.9a25,25,0,0,0-11,6.43L890,568.37A24.84,24.84,0,0,0,886.56,581Z" transform="translate(-744.68 -379.44)"/></g><g class="cls-12"><path class="cls-1" d="M886.06,594.56l-1.4,3.48a18.9,18.9,0,0,0-.44,10,18.67,18.67,0,0,0,3,9.3,28,28,0,0,0,14.94,11.49l6.65.89a24.88,24.88,0,0,0,12.62-3.42l5.06-3.9a25,25,0,0,0,6.43-11l1.39-3.48a19,19,0,0,0,.45-10,18.58,18.58,0,0,0-3-9.3,28,28,0,0,0-14.94-11.48l-6.64-.9a24.86,24.86,0,0,0-12.62,3.42l-5.06,3.9a25,25,0,0,0-6.43,11Z" transform="translate(-744.68 -379.44)"/></g><g class="cls-12"><path class="cls-1" d="M909.84,605.68l-3.49-1.4a18.89,18.89,0,0,0-10-.44,18.58,18.58,0,0,0-9.29,3,27.95,27.95,0,0,0-11.49,14.94l-.89,6.64A24.87,24.87,0,0,0,878.12,641l3.91,5.06a25,25,0,0,0,11,6.43l3.49,1.39a18.9,18.9,0,0,0,10,.45,18.58,18.58,0,0,0,9.29-3,18.92,18.92,0,0,0,7-6.44,18.72,18.72,0,0,0,4.47-8.5l.89-6.64a24.85,24.85,0,0,0-3.41-12.62l-3.91-5.06a25,25,0,0,0-11-6.43Z" transform="translate(-744.68 -379.44)"/></g><g class="cls-12"><path class="cls-1" d="M876.42,615.61a38.78,38.78,0,0,1-7,4.06l6-2.52a35.74,35.74,0,0,1-8.54,2.42l6.65-.89a31,31,0,0,1-8,0l6.64.89a27.68,27.68,0,0,1-5.72-1.56l6,2.52a28.7,28.7,0,0,1-5.51-3.16l5.06,3.91a27.45,27.45,0,0,1-4.51-4.44l3.91,5.06a24.85,24.85,0,0,1-2.85-4.78l2.52,6a22.17,22.17,0,0,1-1.48-5.37l.89,6.65a10.72,10.72,0,0,1,0-2.12l-.89,6.64.2-.66-2.52,6,.34-.6-3.91,5.06.41-.43L859,642.13l.47-.31-6,2.52a3,3,0,0,1,1.09-.3l-6.65.89a4.36,4.36,0,0,1,1.2.07l-6.64-.89a5.8,5.8,0,0,1,1.2.39l-6-2.53a6.8,6.8,0,0,1,1.11.64l-5.06-3.91a10.45,10.45,0,0,1,1.77,1.81l-3.91-5a14.07,14.07,0,0,1,1,1.64l-2.52-6a13.44,13.44,0,0,1,.86,3l-.89-6.64a15.16,15.16,0,0,1,0,3.23l.89-6.64a15.73,15.73,0,0,1-.83,3.15l2.52-6a14.34,14.34,0,0,1-1.64,2.81l3.91-5.06a14.82,14.82,0,0,1-2,1.92l5.06-3.91a16.61,16.61,0,0,1-3.11,1.79l6-2.52a19.14,19.14,0,0,1-3.49.94l6.65-.89a20.14,20.14,0,0,1-4.39,0l6.65.89a18.89,18.89,0,0,1-4.26-1.08l6,2.52a16.56,16.56,0,0,1-3.16-1.76l5.06,3.91a17,17,0,0,1-2.63-2.52l3.91,5.06A14.87,14.87,0,0,1,849.7,621l2.52,6a11,11,0,0,1-.71-2.64l.89,6.65a10.79,10.79,0,0,1,.07-2l-.89,6.64a11.42,11.42,0,0,1,.6-1.88l-2.52,6a11.8,11.8,0,0,1,1-1.57l-3.91,5.06a12.22,12.22,0,0,1,1.81-1.71l-5.06,3.91a16.08,16.08,0,0,1,2.84-1.58l-6,2.52a22.86,22.86,0,0,1,5.17-1.34l-6.65.89a15.51,15.51,0,0,1,3.12-.09l-6.64-.89a9.8,9.8,0,0,1,1.76.42l-6-2.52a4.14,4.14,0,0,1,1,.56l-5.06-3.91.41.37-3.91-5.06a3.32,3.32,0,0,1,.59,1l-2.52-6,.17.69-.89-6.65v.68l.9-6.64a4.25,4.25,0,0,1-.37,1.34l2.52-6a6.55,6.55,0,0,1-.77,1.26l3.91-5.06a19.17,19.17,0,0,1-2.84,2.71l5.06-3.91a36.39,36.39,0,0,1-7.94,4.61l6-2.52a36.88,36.88,0,0,1-8.07,2.17l6.65-.9a16,16,0,0,1-4.15.08l6.64.9a5.66,5.66,0,0,1-1.55-.52l6,2.52-.56-.34,5.06,3.91a4.67,4.67,0,0,1-1-.88l3.9,5.06a8.61,8.61,0,0,1-1-1.69l2.52,6a9.87,9.87,0,0,1-.45-1.95l.89,6.65a7.61,7.61,0,0,1,0-1.35l-.89,6.65a12.36,12.36,0,0,1,.52-2.18l-2.52,6a16.08,16.08,0,0,1,2-3.42L837.49,642a31,31,0,0,1,4.62-4.47l-5.06,3.91a35.32,35.32,0,0,1,7.63-4.45l-6,2.52a35.88,35.88,0,0,1,7.75-2.12l-6.65.89a19.55,19.55,0,0,1,3.05-.21l-6.64-.89a3.32,3.32,0,0,1,1.34.37l-6-2.52.55.42-9-9,.34.48L821,621l.2.54-.9-6.65a2.81,2.81,0,0,1,0,1.19l.9-6.65L821,610l2.52-6-.29.54,3.91-5.06a3.5,3.5,0,0,1-.91.93l5.06-3.91a5.17,5.17,0,0,1-1.23.65l6-2.52a16.73,16.73,0,0,1-2.8.65l6.64-.9a24.33,24.33,0,0,1-6,0l6.65.9a22.56,22.56,0,0,1-5-1.42l6,2.52a19.7,19.7,0,0,1-3.81-2.3l5.06,3.91a17.22,17.22,0,0,1-2.47-2.58l3.9,5.06a18.37,18.37,0,0,1-1.7-3l2.52,6a17.71,17.71,0,0,1-.93-3.35l.89,6.65a17.11,17.11,0,0,1-.08-3.43l-.89,6.65a13.83,13.83,0,0,1,.84-3.29l-2.52,6a13.13,13.13,0,0,1,1.41-2.4l-3.91,5.06a13.18,13.18,0,0,1,1.6-1.57l-5.06,3.91a10.85,10.85,0,0,1,1.91-1.07l-6,2.52a6.11,6.11,0,0,1,1.4-.35l-6.65.89a5.34,5.34,0,0,1,1.44,0l-6.64-.89a5.69,5.69,0,0,1,1.34.38l-6-2.52a6.39,6.39,0,0,1,1.21.71l-5.06-3.91a10.06,10.06,0,0,1,1.49,1.5l-3.91-5.06a10.76,10.76,0,0,1,.9,1.67l-2.52-6a10.92,10.92,0,0,1,.4,1.69l-.89-6.64a12.64,12.64,0,0,1,0,1.74l.89-6.65a12.18,12.18,0,0,1-.57,2.29l2.52-6a12.92,12.92,0,0,1-1.5,2.6l3.9-5.06a12.49,12.49,0,0,1-1.71,1.7l5.06-3.91a11.83,11.83,0,0,1-2.06,1.21l6-2.52a11.6,11.6,0,0,1-1.72.49l6.65-.89a10.92,10.92,0,0,1-2.68,0l6.64.89a12.54,12.54,0,0,1-2.62-.78l6,2.52a14.62,14.62,0,0,1-2.35-1.46l5.06,3.91a16.18,16.18,0,0,1-2-2l3.91,5.06a15.2,15.2,0,0,1-1.76-3l2.52,6a15.09,15.09,0,0,1-.7-2.72l.9,6.64a14.29,14.29,0,0,1,0-2.85l-.89,6.65a13.4,13.4,0,0,1,.54-2.07l-2.52,6a10.46,10.46,0,0,1,1-1.84l-3.91,5.06a6.43,6.43,0,0,1,.95-1l-5.06,3.91a9.67,9.67,0,0,1,1.72-1l-6,2.52a11.79,11.79,0,0,1,1.94-.51l-6.64.9a10.59,10.59,0,0,1,2,0l-6.65-.9a11.8,11.8,0,0,1,2,.53l-6-2.52a10.77,10.77,0,0,1,1.82,1.08l-5.06-3.91a12.37,12.37,0,0,1,1.52,1.55L806,607.08a13.67,13.67,0,0,1,1.13,1.87l-2.52-6a13.63,13.63,0,0,1,.82,2.8l-.89-6.65.08.73A27.81,27.81,0,0,0,812,617.54c4.33,4.33,11.45,7.6,17.68,7.32,6.46-.29,13.17-2.41,17.67-7.32,4.21-4.59,8-11.21,7.33-17.68s-1.39-10.38-4.32-16.14a29.77,29.77,0,0,0-6.55-8.48,33.42,33.42,0,0,0-31.13-7.85c-10.78,2.82-18.95,11.51-22.24,22a41.09,41.09,0,0,0-1.32,8.38,16.06,16.06,0,0,0-.06,2.5,40,40,0,0,0,4.43,16.34,36.06,36.06,0,0,0,6.07,8.27,43.84,43.84,0,0,0,6.34,5.1,16,16,0,0,0,2.36,1.46,37.28,37.28,0,0,0,15.92,4.28,16.73,16.73,0,0,0,2-.09,34.8,34.8,0,0,0,8.36-1.39,35.17,35.17,0,0,0,13.56-8,32,32,0,0,0,6.15-7.88,34.75,34.75,0,0,0,3.3-25.8c-2.87-10.6-11.74-18.93-22.15-21.92-10.77-3.1-23.65,1-31,9.32a37.18,37.18,0,0,0-9.65,24.74,39.4,39.4,0,0,0,5.8,20.49A42.71,42.71,0,0,0,838,644.57c10.47-.51,19.87-3.71,26.46-12.24a27.5,27.5,0,0,0-13.59-43c-7.13-2.22-15.35-1.26-22.41.88a54.28,54.28,0,0,0-15.34,7.08c-6.31,4.43-12,9.33-16,16.05a32.86,32.86,0,0,0-2.2,29.5,30,30,0,0,0,9.64,12.57,31.32,31.32,0,0,0,18.5,6.34c3.84.15,7.89-.69,11.63-1.44a35.79,35.79,0,0,0,6-1.82,65.86,65.86,0,0,0,19.63-11.56,30.46,30.46,0,0,0,6.86-8.51,29.89,29.89,0,0,0,2.7-22,27.88,27.88,0,0,0-13-16.58,33.45,33.45,0,0,0-15.83-4.14c-7.22,0-13.86,1.95-20.28,5a32.57,32.57,0,0,0-15.56,16.68,31.2,31.2,0,0,0-2.85,13.23,35.25,35.25,0,0,0,4.45,16.23,34.87,34.87,0,0,0,6.3,8.19,36.47,36.47,0,0,0,9,6.56,40.36,40.36,0,0,0,10.18,3.78c3.57.64,7.37,1.34,11,1a41,41,0,0,0,10.86-1.92,41.49,41.49,0,0,0,14.42-8.44A35.74,35.74,0,0,0,879,638.38c4.32-17.71-4.87-37.52-23.2-42.48-14.57-3.95-30.71,4.82-34.46,19.68-2.37,9.36.12,18.3,4,26.76a24.57,24.57,0,0,0,2.43,4.22,54.63,54.63,0,0,0,6.94,8.46,50.88,50.88,0,0,0,15.45,9.92,49.12,49.12,0,0,0,19.35,4,68.2,68.2,0,0,0,11-1.23,34.15,34.15,0,0,0,5.88-1.46,59.16,59.16,0,0,0,15.24-7.48c5.41-4,9.64-8.24,11.49-14.94,1.64-6,.9-14-2.52-19.26s-8.57-10-15-11.49c-6.17-1.41-13.92-1.38-19.26,2.52Z" transform="translate(-744.68 -379.44)"/></g><g class="cls-12"><path class="cls-1" d="M797.43,605.36A124.14,124.14,0,0,0,835,651.09a54.76,54.76,0,0,0,31.2,10.54c12.27.19,26.16-4.73,34.18-14.34,4.34-5.21,7.32-10.66,7.32-17.68,0-6.13-2.72-13.45-7.32-17.68-4.77-4.37-11-7.62-17.68-7.32-6.28.28-13.49,2.3-17.68,7.32a19.86,19.86,0,0,1-3,3L867,611a21.27,21.27,0,0,1-4.29,2.41l6-2.52a25.15,25.15,0,0,1-5.53,1.44l6.64-.89a28.43,28.43,0,0,1-6.52,0l6.65.9a30.88,30.88,0,0,1-7.35-2l6,2.52a43.48,43.48,0,0,1-9-5.37l5,3.91A92.62,92.62,0,0,1,848.94,595l3.91,5.06a116.25,116.25,0,0,1-12.25-19.91c-2.61-5.38-9.35-10-14.94-11.49-6-1.64-13.95-.9-19.27,2.52s-10,8.57-11.48,14.94l-.9,6.65a24.88,24.88,0,0,0,3.42,12.62Z" transform="translate(-744.68 -379.44)"/></g><g class="cls-12"><path class="cls-1" d="M785.62,625.53c8.23,13.75,17,28.1,29.1,38.77a102.74,102.74,0,0,0,12.65,9.61,85,85,0,0,0,14,6.72,47,47,0,0,0,9.35,2.79c5.37,1,10.9,1.76,16.37,1.37,6.69-.47,12.82-2.46,17.68-7.32,4.33-4.34,7.6-11.45,7.32-17.68-.29-6.46-2.42-13.17-7.32-17.67-4.69-4.31-11.1-7.8-17.68-7.33a40.83,40.83,0,0,1-8.12-.23l6.65.9a47.31,47.31,0,0,1-11-3l6,2.52a59.2,59.2,0,0,1-12.76-7.54l5.06,3.91a82,82,0,0,1-13.69-14.11l3.91,5.06a227.56,227.56,0,0,1-14.35-22,26,26,0,0,0-14.94-11.48c-6-1.65-14-.91-19.27,2.52s-10,8.56-11.49,14.94-1,13.39,2.52,19.26Z" transform="translate(-744.68 -379.44)"/></g><g class="cls-12"><path class="cls-1" d="M883.37,612.59c-14.57-4.1-29.59-6.27-43.65-12.13l6,2.52a54.56,54.56,0,0,1-12-6.66l5.06,3.91a27.67,27.67,0,0,1-4.59-4.46l3.91,5.06a18.64,18.64,0,0,1-2.36-4l2.52,6a17.68,17.68,0,0,1-.76-2.37L813.4,632.09l.76.09-6.65-.9a34.57,34.57,0,0,1,8.09,2.35l-6-2.52c8.84,3.86,16.32,10.16,25,14.24,5.94,2.77,12.69,4.64,19.26,2.52a26,26,0,0,0,13-9c3.26-4.22,5.61-9.67,5.37-15.15-.31-6.91-2.81-12.42-7.32-17.68-5.38-6.27-13.1-11-21.56-11-6.16,0-13.43,2.69-17.68,7.33l-3.91,5.06a24.81,24.81,0,0,0-3.41,12.61c-.61,4.82,1.81,10.79,4.66,14.59A28,28,0,0,0,838,646.21c6,1.65,14,.9,19.26-2.52s10-8.57,11.49-14.94c1.4-6.13,1.42-14-2.52-19.27a17,17,0,0,1-1.19-1.72l2.52,6-.07-.17.9,6.64v-.08l-25,25h.08l-12.62-3.41a1.38,1.38,0,0,1,.33.2L826.14,638a26.15,26.15,0,0,1,3.47,3.43l30.3-39.27c-6.07-2.83-11.51-6.75-17.24-10.16a101.36,101.36,0,0,0-13.78-6.6c-5.08-2.08-10-2.66-15.49-3.32a24.84,24.84,0,0,0-12.61,3.41,18.92,18.92,0,0,0-7,6.44,24.84,24.84,0,0,0-4.47,21.79,41.92,41.92,0,0,0,12.49,20.5,66.15,66.15,0,0,0,17.12,11.25,198.86,198.86,0,0,0,36.72,11.85c4.82,1.12,9.68,2.13,14.45,3.47a25.79,25.79,0,0,0,19.26-2.52c5.19-3,10.13-9,11.49-14.94,1.46-6.4,1.14-13.58-2.52-19.26a26.24,26.24,0,0,0-14.94-11.49Z" transform="translate(-744.68 -379.44)"/></g><g class="cls-12"><path class="cls-1" d="M836,660.65a25.81,25.81,0,0,0,17.68-7.32c4.34-4.34,7.6-11.45,7.32-17.68-.29-6.47-2.41-13.17-7.32-17.68a25,25,0,0,0-35.35,0c-4.34,4.34-7.6,11.45-7.33,17.68.29,6.47,2.42,13.17,7.33,17.68A26,26,0,0,0,836,660.65Z" transform="translate(-744.68 -379.44)"/></g><g class="cls-12"><path class="cls-1" d="M853.65,618l-3.35-3.35a25.72,25.72,0,0,0-35.36,0L811,619.68a24.84,24.84,0,0,0-3.41,12.61l.89,6.65a25,25,0,0,0,6.43,11l3.36,3.36A27.75,27.75,0,0,0,836,660.65a18.89,18.89,0,0,0,9.64-2.15,18.69,18.69,0,0,0,8-5.17l3.91-5.06A24.87,24.87,0,0,0,861,635.65l-.89-6.65a25,25,0,0,0-6.43-11Z" transform="translate(-744.68 -379.44)"/></g><g class="cls-12"><path class="cls-1" d="M825.9,595.5a3.57,3.57,0,0,1-.73,0l6.64.9a4.22,4.22,0,0,1-.69-.21l6,2.52a4.34,4.34,0,0,1-.63-.37l5.06,3.91a3.69,3.69,0,0,1-.65-.66l3.9,5.06a4.34,4.34,0,0,1-.37-.63l2.52,6a4.33,4.33,0,0,1-.21-.7l.9,6.65a3.06,3.06,0,0,1,0-.74,25.72,25.72,0,0,0-25-25l-6.64.9a25,25,0,0,0-11,6.43l-3.9,5.06a24.85,24.85,0,0,0-3.42,12.61,20.5,20.5,0,0,0,.46,4.06,19.9,19.9,0,0,0,.62,3.93,33.29,33.29,0,0,0,2.82,6.54l.11.15,3.91,5.06c.1.12.19.24.3.35l.28.24c1.06.9,4,3.25,5.21,4a3.14,3.14,0,0,0,.39.24l.16.08,6,2.52a4.65,4.65,0,0,0,.7.21c-1.14-.25,5.21,1.11,7.38.91a25.72,25.72,0,0,0,25-25l-.9-6.65a24.94,24.94,0,0,0-6.42-11l-5.06-3.91a24.87,24.87,0,0,0-12.62-3.41Z" transform="translate(-744.68 -379.44)"/></g><g class="cls-12"><path class="cls-1" d="M835.19,591.12l-1.68-1.68a18.69,18.69,0,0,0-8-5.17,22.66,22.66,0,0,0-19.27,0,18.69,18.69,0,0,0-8,5.17l-3.91,5.06a25,25,0,0,0-3.42,12.62l.9,6.64a25,25,0,0,0,6.43,11l1.67,1.67a25.72,25.72,0,0,0,35.36,0l3.91-5.06a24.81,24.81,0,0,0,3.41-12.61l-.89-6.65a25,25,0,0,0-6.43-11Z" transform="translate(-744.68 -379.44)"/></g><g class="cls-12"><path class="cls-1" d="M818.28,586.06a25.36,25.36,0,0,0-4.29,5.58l-2.52,6a1,1,0,0,0-.08.24,25.69,25.69,0,0,0-.93,6.83,28.42,28.42,0,0,0,.92,7.22c0,.13.07.25.11.38.43,1,.87,2.08,1.31,3.11s.83,2.09,1.32,3.11l.21.33,3.91,5.06a1,1,0,0,0,.13.16,29.64,29.64,0,0,0,5.5,4.28,24.2,24.2,0,0,0,6.56,2.72l6.65.89a1,1,0,0,0,.25,0,34.5,34.5,0,0,0,6.91-.94,24.09,24.09,0,0,0,17.91-20.78,19,19,0,0,0-.45-10l-2.52-6a25,25,0,0,0-9-9l-6-2.52a25.18,25.18,0,0,0-13.29,0l-.13,0,6.64-.9a1.61,1.61,0,0,1-.38,0l6.65.9a1.7,1.7,0,0,1-.37-.1l6,2.52a2.67,2.67,0,0,1-.43-.25l5.06,3.9a2.1,2.1,0,0,1-.36-.37l3.91,5.06a3.14,3.14,0,0,1-.28-.46l2.52,6a3.48,3.48,0,0,1-.18-.63l.9,6.64a2.17,2.17,0,0,1,0-.51l-.89,6.65a1.48,1.48,0,0,1,.1-.36l-2.52,6a1.73,1.73,0,0,1,.2-.32l-3.91,5.06a1.14,1.14,0,0,1,.19-.19,24.15,24.15,0,0,0,5.16-27.31,18.76,18.76,0,0,0-5.16-8.05l-5.06-3.91A25,25,0,0,0,836,578.74l-6.65.89a25.11,25.11,0,0,0-11,6.43Z" transform="translate(-744.68 -379.44)"/></g><g class="cls-12"><path class="cls-1" d="M891.18,627.26V623.9a25.7,25.7,0,0,0-25-25l-6.64.9a24.94,24.94,0,0,0-11,6.42l-3.91,5.06a25,25,0,0,0-3.42,12.62v3.36a25.69,25.69,0,0,0,25,25l6.65-.89a25,25,0,0,0,11-6.43l3.91-5.06a24.87,24.87,0,0,0,3.41-12.62Z" transform="translate(-744.68 -379.44)"/></g><g class="cls-12"><path class="cls-1" d="M906.46,627.43h-1.67a25.69,25.69,0,0,0-25,25l.89,6.65a25,25,0,0,0,6.43,11l5.06,3.91a24.85,24.85,0,0,0,12.62,3.41h1.67a25.67,25.67,0,0,0,25-25l-.89-6.64a25,25,0,0,0-6.43-11l-5.06-3.91a25,25,0,0,0-12.62-3.42Z" transform="translate(-744.68 -379.44)"/></g><g class="cls-12"><path class="cls-1" d="M914.86,655.62a25.75,25.75,0,0,0,17.67-7.33c4.34-4.33,7.61-11.45,7.33-17.67-.29-6.47-2.42-13.18-7.33-17.68a25,25,0,0,0-35.35,0c-4.34,4.33-7.6,11.45-7.32,17.68.29,6.46,2.41,13.17,7.32,17.67s10.9,7.33,17.68,7.33Z" transform="translate(-744.68 -379.44)"/></g><g class="cls-12"><path class="cls-1" d="M846,484.42a25.76,25.76,0,0,0,17.68-7.32c4.34-4.33,7.6-11.45,7.32-17.68-.29-6.46-2.41-13.17-7.32-17.67s-10.9-7.33-17.68-7.33a25.75,25.75,0,0,0-17.67,7.33c-4.34,4.33-7.6,11.45-7.33,17.67.29,6.47,2.42,13.18,7.33,17.68A26,26,0,0,0,846,484.42Z" transform="translate(-744.68 -379.44)"/></g><g class="cls-12"><path class="cls-1" d="M876.25,523a25.77,25.77,0,0,0,17.68-7.33c4.34-4.33,7.6-11.45,7.32-17.67-.28-6.47-2.41-13.18-7.32-17.68a25,25,0,0,0-35.35,0c-4.34,4.33-7.6,11.45-7.33,17.68.29,6.46,2.42,13.17,7.33,17.67s10.9,7.33,17.67,7.33Z" transform="translate(-744.68 -379.44)"/></g><g class="cls-12"><path class="cls-1" d="M913.25,504.13l-6.72,1.68a24.09,24.09,0,0,0-17.91,20.78,19,19,0,0,0,.45,10c2,6.05,5.71,11.89,11.49,14.94l6,2.52a25.18,25.18,0,0,0,13.29,0l6.72-1.68a24.09,24.09,0,0,0,17.91-20.78,19,19,0,0,0-.45-10c-2-6.05-5.71-11.89-11.49-14.94l-6-2.52a25.18,25.18,0,0,0-13.29,0Z" transform="translate(-744.68 -379.44)"/></g></svg>