<svg id="Calque_1" data-name="Calque 1" xmlns="http://www.w3.org/2000/svg" viewBox="0 0 132.28 186.94"><defs><style>.cls-1{fill:#d34738;}.cls-2{fill:#f4d5b2;}.cls-3{fill:#ededed;}.cls-4{fill:#c6c6c6;}.cls-5{fill:#fff;}.cls-6{fill:#495e5a;}.cls-7{fill:#1d1d1b;}.cls-8{opacity:0.55;}.cls-20,.cls-9{fill:#ca9e67;}.cls-10{opacity:0.24;}.cls-11{fill:#be1622;}.cls-12{fill:#9b1419;}.cls-13,.cls-16{fill:#063;}.cls-14{fill:#f6f6f6;}.cls-15{opacity:0.28;}.cls-16{stroke:#063;}.cls-16,.cls-20,.cls-23{stroke-miterlimit:10;}.cls-17{fill:#00431f;}.cls-18{opacity:0.23;}.cls-19{fill:#6a0f08;}.cls-20,.cls-23{stroke:#1d1d1b;stroke-width:1.5px;}.cls-21{opacity:0.46;}.cls-22{fill:#936037;}.cls-23{fill:none;}</style></defs><title>18</title><path class="cls-1" d="M796.9,452.64c-.42,4.23-.67,8.48-.92,12.72-3,51.16-6,102.78,1.86,153.41.42,2.65.9,5.4,2.48,7.56,2.8,3.84,8.09,4.71,12.83,5.16a344.31,344.31,0,0,0,88.51-3,18.1,18.1,0,0,0,6.61-2c5.2-3.17,6-10.27,6.17-16.36,1.46-50.16-.1-100.36-1.67-150.52-.06-1.91-.22-4-1.65-5.32a6.41,6.41,0,0,0-3.33-1.27c-5.32-.81-10.74-.16-16.12-.11-10.34.11-20.57-2-30.9-2.54-8.39-.45-16.81.13-25.2.7l-29.77,2" transform="translate(-787.8 -447.28)"/><path class="cls-1" d="M796.4,452.64c-1.85,19.49-2.57,39.19-3.34,58.75s-1.09,39.18-.3,58.75c.39,9.6,1,19.19,2,28.75q.71,6.87,1.65,13.72c.56,4,.75,8.53,2.47,12.25,3.06,6.62,11.36,6.9,17.65,7.44q14.58,1.26,29.24,1.26a323.49,323.49,0,0,0,56.87-4.68c3.45-.62,6.66-1.73,8.82-4.63a18.29,18.29,0,0,0,3-8.39c1.23-8.7.76-17.85.88-26.62.54-39.71-.56-79.43-1.78-119.12-.14-4.26.28-9-.59-13.14-.67-3.23-3.08-4.16-6.1-4.54-4.59-.56-9.21-.14-13.82,0a109.18,109.18,0,0,1-14.46-.73c-9.53-1-18.92-2.14-28.52-1.88-9.82.27-19.63,1.14-29.42,1.81l-14.89,1c-.64,0-.65,1,0,1l27.79-1.9c9.2-.62,18.44-1.33,27.67-.8,9,.52,18,2.19,27,2.47,4.46.14,8.91-.26,13.37-.25a27.14,27.14,0,0,1,7.08.6c3.12.86,3.46,3.57,3.55,6.39,1.29,37.36,2.33,74.76,2.24,112.15q0,14.21-.34,28.4c-.09,4.19-.08,8.4-.4,12.58-.28,3.54-.91,7.36-3.06,10.3-2.74,3.73-7.35,4.2-11.6,4.86q-7.17,1.13-14.37,1.94-13.82,1.56-27.74,2-13.65.43-27.32-.21-6.81-.33-13.63-.92c-3.92-.34-8.17-.52-11.76-2.31-4.15-2.07-5.3-6.05-6-10.31-.76-4.79-1.39-9.6-2-14.41-1.08-9.22-1.83-18.47-2.32-27.74-1.93-36.72.2-73.49,2.37-110.15.27-4.57.55-9.14,1-13.7.06-.64-.94-.63-1,0Z" transform="translate(-787.8 -447.28)"/><path class="cls-2" d="M837.59,554a19.15,19.15,0,0,0,.37,14.5,15.53,15.53,0,0,0,11.26,8.81c4.7.76,9.41-.92,13.87-2.57a43.94,43.94,0,0,0,7.52-3.32c3.13-1.89,6-5.21,5.29-8.79a4.76,4.76,0,0,0-1.25-2.45,5.58,5.58,0,0,0-3.16-1.43c-3.32-.49-6.59.91-9.89,1.5a20.89,20.89,0,0,1-9.81-.58c-5-1.53-9.4-4.94-14.55-6" transform="translate(-787.8 -447.28)"/><path class="cls-2" d="M837.11,553.88c-2.17,6.31-1.57,13.55,2.93,18.72,5,5.77,12.18,6.22,19.11,4.06,5.81-1.82,14.78-4.23,17-10.77a5.77,5.77,0,0,0-1.76-6.58c-2.68-1.89-6.38-1.08-9.31-.37-5.35,1.3-10.23,1.56-15.41-.57-4.13-1.71-7.88-4.16-12.27-5.17-.63-.14-.9.82-.27,1,7.33,1.68,13.08,7,20.9,6.92,4.27,0,8.33-2.18,12.58-1.92,3.33.21,5.66,2.68,4.69,6.12a9.85,9.85,0,0,1-3.75,4.9c-3.49,2.62-8.07,4-12.19,5.36-4.5,1.45-9.3,2.24-13.73.1-8.09-3.91-10.29-13.51-7.54-21.5.21-.61-.75-.88-1-.27Z" transform="translate(-787.8 -447.28)"/><path class="cls-2" d="M845.28,499.41c-2.55,1.38-5.39,3.16-5.86,6.13-.33,2,.6,4,.87,6.11a19.51,19.51,0,0,1-.26,5.17l-2,14.07a8.7,8.7,0,0,0-.08,2.74,8.23,8.23,0,0,0,1,2.36c1.83,3.36,4.14,6.88,7.69,7.91,4.4,1.29,8.81-1.7,13.34-2.34,2.18-.31,4.53-.1,6.48-1.18a4.73,4.73,0,0,1,1.66-.77c2.12-.26,4,3.47,5.67,2.09.71-.58.68-1.7.57-2.63A132.56,132.56,0,0,0,869.9,517c-1.46-5-3.29-10-6.66-13.79s-8.58-6.21-13.35-4.8c-1.12.33-2.42.83-3.36.1" transform="translate(-787.8 -447.28)"/><path class="cls-2" d="M845,499c-3.34,1.83-6.5,4.16-6.12,8.37.11,1.21.53,2.36.75,3.55a18.15,18.15,0,0,1-.11,5.79c-.39,3-.83,5.94-1.24,8.91-.34,2.44-1.26,5.55-.82,8,.36,2,1.76,4.06,2.91,5.73,2.24,3.22,5.25,5.61,9.36,5.33a28.18,28.18,0,0,0,6.39-1.64c2.7-.86,5.38-.9,8.12-1.42,1.13-.22,1.94-.87,3-1.13a3.53,3.53,0,0,1,3.4.84c.85.63,1.87,1.49,3,1,1.47-.6,1.29-2.5,1.16-3.76-.31-2.85-.77-5.69-1.29-8.51a113.86,113.86,0,0,0-4.27-16.77c-1.64-4.73-3.94-9.54-8-12.67a14.62,14.62,0,0,0-6.9-3.06,11.05,11.05,0,0,0-3,0c-1.47.2-3.12,1.2-4.54.48-.58-.29-1.09.58-.51.87a4.31,4.31,0,0,0,3.4.05,11.17,11.17,0,0,1,6.93.21c4.52,1.61,7.64,5.43,9.72,9.61,4.16,8.35,5.94,18.38,7.19,27.54a12.65,12.65,0,0,1,.41,3.46c-.49,2.7-1.7,1.47-2.77.68-.88-.65-1.85-1.47-3-1.36a3.56,3.56,0,0,0-1.11.38,13.79,13.79,0,0,1-3.78,1.26,37,37,0,0,0-6.17,1c-4.63,1.35-9.45,3.56-13.58-.24A19.23,19.23,0,0,1,840.1,537a9.66,9.66,0,0,1-1.69-4.28,23.84,23.84,0,0,1,.54-4.51c.68-4.86,1.87-9.92,1.92-14.84,0-2.75-1.61-5.68-.82-8.36s3.33-4,5.48-5.17c.57-.31.06-1.18-.5-.86Z" transform="translate(-787.8 -447.28)"/><path class="cls-3" d="M841.12,501.76a16.6,16.6,0,0,0-12.34,1.58c-3.31,1.88-6.13,5-9.9,5.47a53.19,53.19,0,0,0,13-.31,2.34,2.34,0,0,1-1.41,2.79,15,15,0,0,1-3.35.79c-4.5,1-7.32,5.35-9.65,9.33,2.18.41,4.52-2.77,6.15-1.27,1.19,1.09,0,3-1.32,4s-2.86,2.36-2.25,3.84l4.36-.47a31.17,31.17,0,0,0-4.87,15.19c-.1,2.08.37,4.68,2.36,5.3l2.84-7.12c.65-1.63,1.5-3.46,3.18-4a7.07,7.07,0,0,1,2.43-.11,20.82,20.82,0,0,0,8.45-1.29c-2.6-7.13,1.47-14.9,1.24-22.48-.11-3.79-1.2-8,1.09-11.06" transform="translate(-787.8 -447.28)"/><path class="cls-3" d="M841.26,501.28a17.54,17.54,0,0,0-11.21.87c-4,1.75-6.89,5.4-11.3,6.18-.6.11-.39.94.13,1A58.17,58.17,0,0,0,832,509l-.62-.35c.54,2.78-4.31,2.79-5.84,3.4a11.44,11.44,0,0,0-3.15,2,27.72,27.72,0,0,0-5.37,7.15.5.5,0,0,0,.43.75,5,5,0,0,0,2.45-.55,9.68,9.68,0,0,1,1.54-.78c.91-.6,1.53,0,1.84,1.67a4.23,4.23,0,0,1-1.08,1.29c-1.43,1.35-3.13,2.37-2.65,4.57a.48.48,0,0,0,.48.36l4.36-.47-.43-.76a32.5,32.5,0,0,0-4.7,12.84c-.37,2.81-.78,7,2.37,8.34a.5.5,0,0,0,.73-.3l2.13-5.34c.88-2.19,1.51-4.76,4-5.37,1.78-.42,3.81,0,5.65-.27a23.09,23.09,0,0,0,4.72-1.16.51.51,0,0,0,.35-.62c-1.92-5.84.13-11.71.94-17.56a32.41,32.41,0,0,0,.17-7.1c-.23-2.94-.56-5.9,1.18-8.49.36-.54-.51-1-.87-.51a10.61,10.61,0,0,0-1.49,6.66,49.35,49.35,0,0,1-.08,10c-.89,5.76-2.71,11.5-.82,17.25l.35-.61a21.76,21.76,0,0,1-7.45,1.3c-1.68,0-3.29-.33-4.7.79a8,8,0,0,0-2.12,3.32c-1,2.46-2,5-3,7.43l.73-.3c-3.4-1.49-2-7.46-1.35-10.2a31.55,31.55,0,0,1,4.05-9.61.5.5,0,0,0-.44-.75c-1,.11-3.34.82-3.59-.11-.33-1.17,1.66-2.14,2.38-2.87s1.76-2.23,1.27-3.5c-1.18-3.1-5.2.5-7,.39l.43.75c2.14-3.62,4.67-7.82,9-9,2.38-.65,6.14-.83,5.47-4.28a.52.52,0,0,0-.62-.35,56.36,56.36,0,0,1-12.85.29l.13,1c3.43-.6,5.91-2.85,8.73-4.71A16.59,16.59,0,0,1,841,502.24c.63.15.89-.81.27-1Z" transform="translate(-787.8 -447.28)"/><path class="cls-3" d="M839.32,535.58c-1.65,1.44-3.43,3.11-3.54,5.3s1.61,4.23,2,6.47c.15,1,0,2,.11,2.94a10.82,10.82,0,0,0,1.18,3.9,21,21,0,0,0,28.35,9.6,13.88,13.88,0,0,0,5.68-4.88,8.29,8.29,0,0,0,.89-7.26c-.57-1.46-1.67-2.86-1.44-4.41a15.68,15.68,0,0,1,1.12-2.73,4.27,4.27,0,0,0-2.86-5.3l2.48,2c-1.88-.84-3.87-1.68-5.91-1.46-2.2.24-4.09,1.69-6.25,2.12s-4.62-.27-6.92-.06c-1.85.17-3.64.95-5.49.91-3.78-.08-6.62-3.34-8.94-6.32" transform="translate(-787.8 -447.28)"/><path class="cls-3" d="M839,535.23c-1.79,1.58-3.74,3.44-3.68,6a8.8,8.8,0,0,0,.86,3.13,21.76,21.76,0,0,1,1.25,6.31c.67,5.38,5.26,10.31,9.77,12.94a21.68,21.68,0,0,0,18.05,1.63c4.86-1.74,10-5.7,9.7-11.41-.09-1.75-1-2.94-1.5-4.57-.66-2.23.73-3.61.88-5.67a4.84,4.84,0,0,0-3.4-4.88.5.5,0,0,0-.49.83l2.48,2,.61-.79c-2.26-1-4.61-1.94-7.1-1.36-1.49.35-2.82,1.16-4.26,1.64a13.68,13.68,0,0,1-5.37.3c-3.12-.21-6.42,1.4-9.42.69s-5.36-3.59-7.25-6c-.4-.5-1.1.21-.71.71,1.66,2.11,3.45,4.31,5.88,5.56,2.22,1.14,4.32.94,6.68.42,3.12-.68,6.2.24,9.27-.38,1.65-.34,3.06-1.25,4.65-1.74,2.58-.8,4.78,0,7.12,1,.47.2,1.09-.39.61-.79l-2.48-2-.49.84c2.86,1,2.85,3.54,1.94,5.91a5.15,5.15,0,0,0-.57,2.47,10.72,10.72,0,0,0,1.2,3.11,7.62,7.62,0,0,1,.07,6.17c-2.78,6.77-12.18,9-18.71,7.9a20.65,20.65,0,0,1-14.76-10.64,12.76,12.76,0,0,1-1.48-5.79,9.62,9.62,0,0,0-.5-3.06c-.62-1.78-1.87-3.45-1.46-5.46.37-1.83,2-3.19,3.32-4.36.48-.43-.23-1.13-.71-.71Z" transform="translate(-787.8 -447.28)"/><path class="cls-4" d="M848.71,526.53A13.07,13.07,0,0,1,860,525.09l.27-1a16.5,16.5,0,0,0-10.22.78c-.59.23-.33,1.2.26,1a15.64,15.64,0,0,1,9.69-.77.5.5,0,0,0,.27-1,14.09,14.09,0,0,0-12,1.54c-.55.35,0,1.21.5.87Z" transform="translate(-787.8 -447.28)"/><path class="cls-4" d="M865.31,524.81c1.65-1.26,3.62-2.7,5.81-2l.13-1A8.86,8.86,0,0,0,864.9,524c-.49.42.22,1.12.71.7a7.8,7.8,0,0,1,5.64-1.91c.58,0,.66-.82.13-1-2.46-.76-4.69.69-6.58,2.13-.5.39,0,1.25.51.86Z" transform="translate(-787.8 -447.28)"/><path class="cls-5" d="M855.84,526.44a1.7,1.7,0,0,1-1.05,0,8.92,8.92,0,0,0-4.92,1.06,8.37,8.37,0,0,0,4.27,1.6,8.24,8.24,0,0,0,2.44-.38,15.66,15.66,0,0,0,2.27-.85.81.81,0,0,0,.35-.26c.18-.29-.34-.54-.79-.66a13.25,13.25,0,0,0-3.46-.36" transform="translate(-787.8 -447.28)"/><path class="cls-5" d="M855.71,526c-1.08.2-2.2-.11-3.3.13a15.47,15.47,0,0,0-2.79,1,.5.5,0,0,0,0,.86c3.06,1.88,6.72,2.31,9.84.12a.52.52,0,0,0,.24-.44c-.18-1.74-3.55-1.52-4.75-1.52a.5.5,0,0,0,0,1c.83,0,2.68-.19,3.32.35h.32l-1,.42c-.48.18-1,.34-1.46.47a7.34,7.34,0,0,1-6-1.25V528a10,10,0,0,1,3.69-1,12.87,12.87,0,0,0,2.15,0c.63-.12.37-1.08-.26-1Z" transform="translate(-787.8 -447.28)"/><path class="cls-5" d="M869.94,524.91c-.21.21-.62.19-1,.19a7.58,7.58,0,0,0-4.22,1.86,7.4,7.4,0,0,0,4.12.87,6.8,6.8,0,0,0,2.13-.78,14.39,14.39,0,0,0,1.88-1.21.74.74,0,0,0,.28-.31c.1-.31-.41-.48-.84-.52a11.32,11.32,0,0,0-3.17.21" transform="translate(-787.8 -447.28)"/><path class="cls-5" d="M869.68,524.48c-.77.41-2,.26-2.85.63a12.1,12.1,0,0,0-2.31,1.41c-.27.2-.38.7,0,.87,3,1.32,6.06,1.24,8.63-1.12.46-.41.74-.86.25-1.4-.86-.93-3.32-.32-4.37-.13-.63.12-.36,1.08.27,1,.14,0,2.85-.6,2.91,0,0,.21-1.49.91-1.69,1-1.95.94-3.61.6-5.5-.23v.87a9.15,9.15,0,0,1,3.06-1.67,7.79,7.79,0,0,0,2.11-.38c.57-.3.06-1.16-.51-.86Z" transform="translate(-787.8 -447.28)"/><path class="cls-6" d="M854.23,526.44a1.51,1.51,0,1,0,1.82,1.25,1.38,1.38,0,0,0-2.49-.6c-.66,1,.63,2.44,1.67,1.65a.92.92,0,0,0-.05-1.53.8.8,0,0,0-1.15.92.49.49,0,0,0,.61.35.69.69,0,0,0,.33-1.11c-.4-.48-1-.2-1.31.25a.53.53,0,0,0,.08.61.66.66,0,0,0,1-.12c.38-.53-.49-1-.86-.51l0,.07.3-.23.28.08.08.6-.38-.4.3-.23-.07,0,.61.35s-.68.25-.63-.17a.38.38,0,0,1,.29-.23c.37,0,.49.44.35.69-.47.81-1.55-.46-.51-.75a.5.5,0,0,0-.26-1Z" transform="translate(-787.8 -447.28)"/><path class="cls-6" d="M869.37,525.28c-1.06.09-1.56,1.64-.44,2.1a1.12,1.12,0,0,0,1.35-1.69,1.17,1.17,0,0,0-2.11.79,1.22,1.22,0,0,0,2.33.39c.48-1-.89-2.21-1.73-1.25s.93,2.21,1.44,1a.75.75,0,0,0-.58-1,.76.76,0,0,0-.83,1c.37,1.27,2.37.12,1.37-.91a.88.88,0,0,0-1.38.11,1,1,0,0,0,.38,1.39,1,1,0,0,0,1.37-.7,1.08,1.08,0,0,0-1.09-1.24c-.64,0-.64,1,0,1,.19,0,.16.21.11,0,0,.12.1.22-.07.31s-.47-.2-.23-.35.34.09.2.21-.24-.15-.09-.16c.64-.06.65-1.06,0-1Z" transform="translate(-787.8 -447.28)"/><path class="cls-7" d="M855.22,528.22l.11-.11c.45-.45-.26-1.16-.71-.7l-.1.1c-.46.45.25,1.16.7.71Z" transform="translate(-787.8 -447.28)"/><path class="cls-7" d="M869.53,526.74a.5.5,0,0,0,0-1,.5.5,0,0,0,0,1Z" transform="translate(-787.8 -447.28)"/><g class="cls-8"><path class="cls-9" d="M860.52,532.75c.18,1.21.76,3,.57,4.14-.16,1-1.19,1.63-1.23,2.62-.06,1.61,2.08,2.19,3.26,2.51l-.12-.91a1.46,1.46,0,0,1-2-.8l-.68.68c.8.58,1.18,1.31,2.26,1.27.64,0,.64-1,0-1s-1.27-.78-1.76-1.13-.88.28-.68.68A2.48,2.48,0,0,0,863.5,542a.5.5,0,0,0-.12-.91,4.78,4.78,0,0,1-1.11-.35c-3.08-1.84-1-1.36-.71-2.23a6.19,6.19,0,0,0,.48-1.11c.28-1.52-.33-3.39-.56-4.89-.1-.63-1.06-.37-1,.27Z" transform="translate(-787.8 -447.28)"/></g><g class="cls-8"><path class="cls-9" d="M849.34,527a15.85,15.85,0,0,1,4.29-1.5l-.39-.91a28.77,28.77,0,0,1-3.78,1.64c-.6.22-.35,1.18.26,1a30.66,30.66,0,0,0,4-1.75c.52-.28.14-1-.39-.91a16.57,16.57,0,0,0-4.52,1.6c-.57.29-.07,1.16.5.86Z" transform="translate(-787.8 -447.28)"/></g><g class="cls-8"><path class="cls-9" d="M866.15,525.55l2.35-1.4a.5.5,0,0,0-.39-.91,6.15,6.15,0,0,0-2.47,1.18c-.51.4.2,1.1.71.71a5.08,5.08,0,0,1,2-.93l-.39-.91-2.34,1.4a.5.5,0,0,0,.5.86Z" transform="translate(-787.8 -447.28)"/></g><g class="cls-10"><path class="cls-7" d="M835,502a13.91,13.91,0,0,0-6.52,3,17.1,17.1,0,0,1-1.57,1.27c-.84.54-1.81.84-2.66,1.35a6.24,6.24,0,0,0,7.32.47.58.58,0,0,0,.19-.19.59.59,0,0,0,0-.43c-.34-1.29.72-2.5,1.7-3.42l1.65-1.55" transform="translate(-787.8 -447.28)"/><path class="cls-7" d="M834.83,501.47a15.3,15.3,0,0,0-5.48,2.2c-.63.42-1.19.91-1.78,1.39a21.65,21.65,0,0,1-3.61,2.1.51.51,0,0,0-.1.79,6.89,6.89,0,0,0,6.73,1.14A3.09,3.09,0,0,0,832.2,508a1.37,1.37,0,0,0,0-.57,3,3,0,0,1,1.06-2.58c.66-.73,1.43-1.37,2.14-2,.47-.44-.24-1.15-.7-.71-1.49,1.41-2.94,2.56-3.54,4.56-.07.22.14.59,0,.77-.38.68-1.26.84-2,1a5.72,5.72,0,0,1-4.66-1.17l-.1.78a26.68,26.68,0,0,0,4.32-2.69,14.52,14.52,0,0,1,6.3-2.89c.63-.13.37-1.09-.26-1Z" transform="translate(-787.8 -447.28)"/></g><g class="cls-10"><path class="cls-7" d="M825.72,514.1a29.82,29.82,0,0,0-6.88,6.62,14.25,14.25,0,0,1,4.66-2.36,3.3,3.3,0,0,0,1.16-.38,2.6,2.6,0,0,0,.85-1.85c.08-.51,0-1.2-.47-1.32" transform="translate(-787.8 -447.28)"/><path class="cls-7" d="M825.46,513.67a32.43,32.43,0,0,0-7.05,6.79c-.31.4.28.95.68.69a16.64,16.64,0,0,1,3.63-2c.87-.31,1.94-.31,2.59-1.05s1.21-3,0-3.68c-.57-.31-1.07.55-.51.86.33.17.23.84.19,1.11a1.43,1.43,0,0,1-.74,1.16,11.74,11.74,0,0,1-2.22.81,19,19,0,0,0-3.42,2l.68.69a30.78,30.78,0,0,1,6.7-6.44c.52-.37,0-1.24-.51-.86Z" transform="translate(-787.8 -447.28)"/></g><g class="cls-10"><path class="cls-7" d="M824.15,526.24c-.94.18-1.44,1.17-1.81,2-.12.28-.2.68.06.83a.56.56,0,0,0,.36,0,2.46,2.46,0,0,0,2-2.74l-.27-.37" transform="translate(-787.8 -447.28)"/><path class="cls-7" d="M824,525.75a3.05,3.05,0,0,0-1.89,1.81c-.31.65-.76,1.89.32,2.08a2.58,2.58,0,0,0,2.27-1.15,3.08,3.08,0,0,0,.55-1.27,1.64,1.64,0,0,0-.33-1.43c-.37-.52-1.24,0-.86.5a.75.75,0,0,1,.22.63,1.83,1.83,0,0,1-.22.72,2.06,2.06,0,0,1-1.19,1c-.15,0-.12.18-.13,0a1,1,0,0,1,.12-.36c.1-.21.2-.42.31-.62a1.8,1.8,0,0,1,1.1-1,.5.5,0,0,0-.27-1Z" transform="translate(-787.8 -447.28)"/></g><g class="cls-10"><path class="cls-7" d="M829.83,534.07a7,7,0,0,0-5.31,2.85c-1.72,2.39-1.74,5.55-2.56,8.37.95-1.75,1.44-3.71,2.3-5.51a7.09,7.09,0,0,1,4.14-4,4.48,4.48,0,0,0,1.16-.36,1.66,1.66,0,0,0,.51-2.32" transform="translate(-787.8 -447.28)"/><path class="cls-7" d="M829.83,533.57c-6.52.6-7,6.45-8.35,11.59-.14.53.66.91.92.38,1.77-3.54,2.27-7.88,6.43-9.4,1.59-.57,2.47-1.64,1.67-3.34-.27-.58-1.13-.08-.86.5.8,1.72-1.84,2-2.69,2.52a7.36,7.36,0,0,0-2.05,1.92c-1.62,2.15-2.18,4.93-3.37,7.3l.92.39c1.21-4.55,1.41-10.31,7.38-10.86.64-.06.64-1.06,0-1Z" transform="translate(-787.8 -447.28)"/></g><g class="cls-10"><path class="cls-7" d="M839.82,509.85a68,68,0,0,0-.22,7.82,14.32,14.32,0,0,1-1.88,7.49c-.75,1.15-1.8,2.22-1.89,3.58a5.52,5.52,0,0,0,.74,2.66l1.37,2.93c.35.74.89,1.6,1.71,1.53.47-2.35-1.35-4.53-1.66-6.9-.25-1.88.47-3.73,1-5.54a29.07,29.07,0,0,0,1.13-9" transform="translate(-787.8 -447.28)"/><path class="cls-7" d="M839.32,509.85c-.36,3.13,0,6.27-.3,9.39a13.14,13.14,0,0,1-1.34,5c-.56,1.06-1.45,1.93-1.94,3-.78,1.72-.18,3.15.57,4.75s1.28,4,3.2,4.32a.52.52,0,0,0,.64-.48,8.81,8.81,0,0,0-.86-4.33,9.37,9.37,0,0,1-.3-6.41,36,36,0,0,0,1.62-10.74c0-.64-1-.65-1,0a30.56,30.56,0,0,1-.56,6.68c-.38,1.82-1.09,3.55-1.42,5.37-.64,3.45,1.85,6.1,1.52,9.43l.63-.48c-1.84-.35-3.71-5.73-3.35-7.17.46-1.79,2.15-3.22,2.79-5,1.53-4.27.59-9,1.1-13.36.07-.63-.93-.63-1,0Z" transform="translate(-787.8 -447.28)"/></g><g class="cls-10"><path class="cls-7" d="M839.46,536.79a5.48,5.48,0,0,0-2.77,5.94c.32,1.37,1.17,2.56,1.56,3.92.7,2.46-.18,5.23.76,7.62a10.57,10.57,0,0,0,1.8,2.71,27.91,27.91,0,0,0,4.77,4.94A9.56,9.56,0,0,0,852,564c-1-1.9-3.14-2.74-4.78-4.09-2.93-2.4-4-6.41-4.24-10.19a31.8,31.8,0,0,0-.39-4.88c-.58-2.76-2.24-5.22-2.73-8" transform="translate(-787.8 -447.28)"/><path class="cls-7" d="M839.21,536.36a6.09,6.09,0,0,0-3.11,5.81c.22,2.19,1.71,3.93,1.92,6.16.15,1.61-.12,3.24.19,4.85.58,3.06,3.48,6,5.7,8a11.31,11.31,0,0,0,8.08,3.34.51.51,0,0,0,.43-.76c-1.08-1.78-2.77-2.61-4.4-3.83a11.79,11.79,0,0,1-4.26-7.66c-.43-2.5-.18-5.07-.7-7.55-.58-2.77-2.12-5.22-2.72-8-.14-.63-1.1-.36-1,.27.61,2.77,2.14,5.22,2.73,8s.24,5.56.85,8.3a13.38,13.38,0,0,0,2.6,5.66c1.72,2.11,4.58,3,6,5.32l.43-.75a10.48,10.48,0,0,1-7.68-3.35c-2.09-2-4.74-4.68-5.16-7.62-.34-2.32.12-4.57-.7-6.83a24.06,24.06,0,0,1-1.28-3.12,5.12,5.12,0,0,1,2.54-5.38.5.5,0,0,0-.5-.86Z" transform="translate(-787.8 -447.28)"/></g><g class="cls-10"><path class="cls-7" d="M855.22,542.72a6.82,6.82,0,0,0-3.1,4.34,2.64,2.64,0,0,0,.82,2.88,3.25,3.25,0,0,0,2.38,0l14-3.32a.94.94,0,0,0-.88-.82,2.72,2.72,0,0,0-1.28.25,55.35,55.35,0,0,1-10.61,2.6,6.09,6.09,0,0,1-2.33,0,2.22,2.22,0,0,1-1.66-1.48c-.32-1.24.82-2.33,1.84-3.1" transform="translate(-787.8 -447.28)"/><path class="cls-7" d="M855,542.29c-2,1.35-5.48,6.11-2.27,8.08,1.71,1,4.82-.38,6.5-.78l10.3-2.44a.51.51,0,0,0,.3-.73c-1.12-2.2-4.1-.32-5.77.17a54.27,54.27,0,0,1-5.33,1.26c-1.07.2-2.55.76-3.6.42-1.4.16-1.83-.8-1.3-2.91a8.32,8.32,0,0,1,1-.87c.5-.4-.21-1.11-.71-.71-1.89,1.53-3.19,4.51,0,5.42,1.75.49,4-.21,5.73-.56,1.24-.25,8.48-2.89,9.07-1.72l.3-.73-9.82,2.32-2.34.56c-1.66.39-1.66.63-3.17-.72s-1.47-1.42-.6-3a6.89,6.89,0,0,1,2.18-2.25c.53-.36,0-1.22-.51-.86Z" transform="translate(-787.8 -447.28)"/></g><g class="cls-8"><path class="cls-9" d="M867.26,536.92a4.29,4.29,0,0,1,1.85,2.37.5.5,0,0,0,1-.27,1.25,1.25,0,0,0-1.33-1c-.64,0-.64,1,0,1,.23,0,.32.07.37.29l1-.27a5.4,5.4,0,0,0-2.31-3c-.55-.34-1,.53-.5.86Z" transform="translate(-787.8 -447.28)"/></g><g class="cls-8"><path class="cls-9" d="M848.82,500.67c-2.63,1-3.44,4.25-3.88,7l-2.18,14a28.64,28.64,0,0,0-.49,8.35c.39,2.91,1.67,5.8,1.11,8.69-1.39.23-2.19-1.51-2.49-2.88-.85-3.83-1.7-7.76-1.15-11.64.34-2.46,1.24-4.82,1.63-7.27a26.61,26.61,0,0,0,0-7.35c-.23-1.91-.56-3.94.23-5.7,1.13-2.51,4.07-3.56,6.7-4.36" transform="translate(-787.8 -447.28)"/><path class="cls-9" d="M848.57,500.24a6.86,6.86,0,0,0-3.56,4.7A81.91,81.91,0,0,0,843.3,515c-.52,3.3-1.14,6.6-1.5,9.91-.39,3.59.37,6.55,1,10,0,.22.51,2.81.21,2.9-1.12.33-1.42-1.46-1.62-2.14a36.43,36.43,0,0,1-1.13-6.12c-.47-4.11.65-7.65,1.45-11.61.68-3.4.25-6.65,0-10.06-.38-4.85,2.61-6.64,6.76-7.92.61-.19.35-1.15-.27-1-2.83.87-6.11,2-7.19,5.09-.67,1.92-.27,3.95-.06,5.91a25.5,25.5,0,0,1-.39,8.58c-1,4.48-1.77,8.28-1,12.9.38,2.33.57,7.62,3.87,7.7a.52.52,0,0,0,.5-.5c.44-3.33-1-6.34-1.21-9.62-.28-3.52.54-7.09,1.08-10.55.51-3.27,1-6.55,1.53-9.82.45-2.84.86-6.3,3.79-7.65.59-.27.08-1.14-.5-.87Z" transform="translate(-787.8 -447.28)"/></g><g class="cls-8"><path class="cls-9" d="M847.13,527.61a5.1,5.1,0,0,1-3.89-1.19c-.49-.41-1.2.29-.71.71a6.08,6.08,0,0,0,4.6,1.48c.63-.06.64-1.06,0-1Z" transform="translate(-787.8 -447.28)"/></g><g class="cls-8"><path class="cls-9" d="M843.58,529.4a4.66,4.66,0,0,0,5.22-.74c.48-.43-.23-1.14-.71-.71a3.58,3.58,0,0,1-4,.59c-.58-.28-1.09.58-.51.86Z" transform="translate(-787.8 -447.28)"/></g><g class="cls-8"><path class="cls-9" d="M850.67,526.79l-.38.33a.5.5,0,0,0,.6.79c1.9-1.2,3.86-2.37,6.19-2.24.65,0,.64-1,0-1-2.5-.14-4.64,1.09-6.69,2.38l.6.78.39-.34c.48-.42-.23-1.13-.71-.7Z" transform="translate(-787.8 -447.28)"/></g><g class="cls-8"><path class="cls-9" d="M851,527.36a22.64,22.64,0,0,1,3-.8c1-.18,2.59-.62,3.4.21.45.46,1.16-.25.71-.71-1.71-1.73-5.48-.31-7.39.33-.6.21-.34,1.17.27,1Z" transform="translate(-787.8 -447.28)"/></g><g class="cls-8"><path class="cls-9" d="M853.76,525.71a13,13,0,0,1,5.93,1.44c.57.29,1.08-.57.5-.87a14.23,14.23,0,0,0-6.43-1.57.5.5,0,0,0,0,1Z" transform="translate(-787.8 -447.28)"/></g><g class="cls-8"><path class="cls-9" d="M865.82,526.53a6.36,6.36,0,0,1,3-.48c.86-.08,2.12-.75,2.92-.26.55.34,1-.52.5-.86-1.1-.69-2.13-.06-3.3.09s-2.46,0-3.6.64a.5.5,0,0,0,.51.87Z" transform="translate(-787.8 -447.28)"/></g><g class="cls-8"><path class="cls-9" d="M866.46,526.13a21,21,0,0,1,2.57-.86c.9-.23,2.21-.68,3.08-.18.56.31,1.07-.55.51-.87-1.8-1-4.71.26-6.42.94-.59.24-.34,1.21.26,1Z" transform="translate(-787.8 -447.28)"/></g><g class="cls-8"><path class="cls-9" d="M865.77,525.62c.62-.41,5.32-2.31,5.58-.82.11.64,1.08.37,1-.26-.25-1.38-1.63-1.26-2.73-1.13a9.57,9.57,0,0,0-4.33,1.35c-.53.36,0,1.22.51.86Z" transform="translate(-787.8 -447.28)"/></g><g class="cls-8"><path class="cls-9" d="M860.37,528.44l-2.72,1.78c-.59.39-2.2,1.87-2.91,1.49s-1.07.56-.5.86c1,.51,1.74-.07,2.56-.6l4.07-2.66c.54-.35,0-1.22-.5-.87Z" transform="translate(-787.8 -447.28)"/></g><g class="cls-8"><path class="cls-9" d="M858.29,529.79a8.84,8.84,0,0,1-4.8,2.24c-.64.09-.37,1.06.26,1a9.74,9.74,0,0,0,5.24-2.5c.48-.44-.23-1.14-.7-.71Z" transform="translate(-787.8 -447.28)"/></g><g class="cls-8"><path class="cls-9" d="M859,529.41a9.7,9.7,0,0,0-4.86,1.77c-.51.38,0,1.24.51.87a8.59,8.59,0,0,1,4.35-1.64c.63-.06.64-1.06,0-1Z" transform="translate(-787.8 -447.28)"/></g><g class="cls-8"><path class="cls-9" d="M864.87,528a4,4,0,0,0,3.14,2c.64.07.64-.93,0-1a3,3,0,0,1-2.27-1.54c-.32-.56-1.18-.05-.87.51Z" transform="translate(-787.8 -447.28)"/></g><g class="cls-8"><path class="cls-9" d="M863.72,528.81a6.29,6.29,0,0,0,4,3.17.5.5,0,0,0,.27-1,5.33,5.33,0,0,1-3.42-2.71c-.3-.57-1.16-.07-.86.5Z" transform="translate(-787.8 -447.28)"/></g><g class="cls-8"><path class="cls-9" d="M863.65,531.06c1.87,1.63,4.55,3.38,6.82,1.38.49-.42-.22-1.13-.71-.71-1.79,1.58-4-.16-5.4-1.38-.49-.42-1.2.29-.71.71Z" transform="translate(-787.8 -447.28)"/></g><g class="cls-8"><path class="cls-9" d="M864.48,528.8a4.9,4.9,0,0,0,5.95.78.5.5,0,0,0-.5-.86,3.89,3.89,0,0,1-4.74-.63.5.5,0,0,0-.71.71Z" transform="translate(-787.8 -447.28)"/></g><g class="cls-8"><path class="cls-9" d="M858.19,530.4c-1.15,1.28-2.62,2.6-4.48,2.07a.5.5,0,0,0-.26,1c2.21.63,4-.76,5.44-2.32.43-.48-.27-1.19-.7-.71Z" transform="translate(-787.8 -447.28)"/></g><g class="cls-8"><path class="cls-9" d="M849.2,509.4c1.63-4.07,5.26-5.65,9.28-3.89a4.43,4.43,0,0,0,1.85.56c1.33,0,2.3-1.27,3.78-.73.6.22.86-.75.26-1a2.55,2.55,0,0,0-1.57-.18c-1.88.2-1.67,1.11-4.12.3-1.46-.49-2.5-1.05-4.13-.85-3.1.38-5.21,2.73-6.32,5.49-.24.6.73.86,1,.27Z" transform="translate(-787.8 -447.28)"/></g><g class="cls-8"><path class="cls-9" d="M853,511.06c.43-.48.71-1.09,1.13-1.55,1.57-1.71,2.36-.71,3.92-.55,2,.2,3.74-1,5.61-1.42.63-.13.36-1.09-.27-1-1.35.27-2.54.95-3.87,1.27s-2.54-.53-3.92-.48c-1.77.06-2.29,1.86-3.31,3-.43.48.28,1.19.71.71Z" transform="translate(-787.8 -447.28)"/></g><g class="cls-8"><path class="cls-9" d="M855.31,512.46a15.93,15.93,0,0,1,5-1.69,7.93,7.93,0,0,0,3.69-1.13c.51-.38,0-1.25-.51-.86-1.31,1-3,.89-4.58,1.24a16.45,16.45,0,0,0-4.12,1.57c-.57.31-.07,1.17.5.87Z" transform="translate(-787.8 -447.28)"/></g><g class="cls-10"><path class="cls-7" d="M855.71,543.42l-1,6.85c-.09.63.88.9,1,.27l.95-6.85c.09-.63-.88-.9-1-.27Z" transform="translate(-787.8 -447.28)"/></g><g class="cls-10"><path class="cls-7" d="M857.9,542.76a6.31,6.31,0,0,0,3.45,6c.58.29,1.08-.57.51-.86a5.35,5.35,0,0,1-3-5.16c0-.64-1-.64-1,0Z" transform="translate(-787.8 -447.28)"/></g><g class="cls-10"><path class="cls-7" d="M863.54,543.13a5,5,0,0,0,1.24,3.08c.42.49,1.13-.22.71-.71a3.81,3.81,0,0,1-1-2.37c0-.64-1-.64-1,0Z" transform="translate(-787.8 -447.28)"/></g><g class="cls-10"><path class="cls-7" d="M866.45,544l.77.39c.58.28,1.09-.58.51-.87l-.77-.38c-.57-.29-1.08.57-.51.86Z" transform="translate(-787.8 -447.28)"/></g><g class="cls-10"><path class="cls-7" d="M869.77,540.84a6,6,0,0,1,2,4.61.5.5,0,0,0,1,0,7,7,0,0,0-2.32-5.31c-.48-.43-1.18.27-.71.7Z" transform="translate(-787.8 -447.28)"/></g><g class="cls-10"><path class="cls-7" d="M872.35,541.35a10.35,10.35,0,0,1,.12,5.52.5.5,0,0,0,1,.27,11.5,11.5,0,0,0-.12-6,.5.5,0,0,0-1,.26Z" transform="translate(-787.8 -447.28)"/></g><g class="cls-10"><path class="cls-7" d="M833.76,524.16c-5.65-2-11.48,4.91-14.16,9-.35.54.52,1.05.87.51,2.42-3.73,7.9-10.34,13-8.56.6.21.87-.76.26-1Z" transform="translate(-787.8 -447.28)"/></g><path class="cls-11" d="M837.68,549.67a48.4,48.4,0,0,0,1.91,13.15,11.12,11.12,0,0,0,2.21,4.52,9.89,9.89,0,0,0,4.33,2.48c11.44,3.67,25.18-3.36,28.89-14.78,13,1.24,23.53,10.85,31.65,21a21.69,21.69,0,0,1,3.91,6.4,22.78,22.78,0,0,1,.77,7.55q-.17,12.93-1.11,25.84L901,612.1l2.43,11.59c-10.86,5-23.21,5.38-35.17,5.36s-24-.35-36-.69l-18.73-.53a2.57,2.57,0,0,1-3.05-3l-.75-9.63,0,10a2.57,2.57,0,0,1-.42,1.71,2.53,2.53,0,0,1-2.05.6q-4.67,0-9.32-.41a2.31,2.31,0,0,1-2.61-2.64q-1.53-17.13-2.91-34.28c-.28-3.54-.56-7.15.31-10.59,1.62-6.5,7.06-11.39,13-14.59S818,560,824,557c5.13-2.54,8.32-5.39,13.71-7.34" transform="translate(-787.8 -447.28)"/><path class="cls-11" d="M837.18,549.67c.08,5.07.64,10.64,2.64,15.35,1.38,3.27,4.13,4.81,7.46,5.64A24.35,24.35,0,0,0,867.65,566a23.1,23.1,0,0,0,6.82-8.28c.18-.39.53-1.75.82-2,.7-.49,2.67.16,3.42.33a33.68,33.68,0,0,1,7.08,2.5c8.62,4.16,15.81,11.43,21.48,19a16.13,16.13,0,0,1,3.54,9c.2,3.11,0,6.26-.08,9.37q-.26,9.94-1,19.87l.63-.49-9.27-3.75c-.38-.15-.69.29-.62.62l1.63,7.72a12.51,12.51,0,0,1,.61,2.9c-.27,1.33-2.46,1.62-3.59,2a61.4,61.4,0,0,1-12.9,2.88c-9,1.1-18.19.85-27.25.73-9.42-.12-18.83-.4-28.25-.66l-14.29-.4c-1.5,0-4.51.32-5.32-1.4a9.88,9.88,0,0,1-.34-3.12l-.6-7.7a.5.5,0,0,0-1,0l0,5.94c0,2.11.56,5.27-2,5.92-1.72.45-4.31-.09-6.06-.19a12.32,12.32,0,0,1-2.79-.18c-2-.61-2.59-2.28-2.76-4.14q-1.12-12.74-2.17-25.46c-.64-7.8-2.33-16.31,2.45-23.16,4.59-6.57,12.27-9.81,19.46-12.67a92.56,92.56,0,0,0,11.23-5c3.75-2.11,7.24-4.53,11.29-6.07.6-.22.34-1.19-.26-1-3.87,1.46-7.25,3.69-10.81,5.76-4.53,2.62-9.44,4.39-14.26,6.37-7.21,3-14.79,6.85-18.67,14a21.43,21.43,0,0,0-2.23,11.38c.2,5.11.78,10.22,1.2,15.31s.88,10.45,1.34,15.67a56.65,56.65,0,0,0,.7,7.6,2.59,2.59,0,0,0,1.86,2.22c2.17.69,5,.45,7.21.53,1.49,0,3.86.55,5.21-.31s1-2.5,1-3.81l0-8.68h-1l.6,7.7c.1,1.22,0,3,.67,4.11s1.82,1.22,3,1.32c2.28.2,4.61.13,6.9.2,10,.28,19.89.58,29.84.8,17.56.38,37,2.15,53.43-5.21a.49.49,0,0,0,.23-.56L901.45,612l-.62.62,9.28,3.75c.32.13.61-.2.63-.48q.9-12.4,1.1-24.84c0-3.21.14-6.5-1.1-9.52-1.16-2.85-3.25-5.27-5.2-7.61-7.86-9.41-17.89-18-30.52-19.35a.5.5,0,0,0-.48.36c-2.85,8.29-10.71,14.17-19.33,15.23-4.11.5-10.06.12-13.06-3.14-1.79-2-2.35-5-2.89-7.53a49.67,49.67,0,0,1-1.08-9.79.5.5,0,0,0-1,0Z" transform="translate(-787.8 -447.28)"/><path class="cls-12" d="M812.56,561.77c2.33,6.91,1.92,14.44.84,21.65s-2.78,14.36-3,21.65c-.19,6.75.92,13.46,2,20.13l15.19.61c-3.44-7.46-3.51-16.06-2.4-24.2s3.33-16.11,4.31-24.27a79.93,79.93,0,0,0-.59-23.06,85,85,0,0,1-16.57,7" transform="translate(-787.8 -447.28)"/><path class="cls-12" d="M812.08,561.9c3.43,10.78.67,21.84-1.06,32.65A74,74,0,0,0,810,609.41a137.67,137.67,0,0,0,2,15.92.51.51,0,0,0,.48.37l15.19.61a.51.51,0,0,0,.43-.75c-5.15-11.65-2.47-24.45,0-36.41,2.36-11.7,3.39-23.16,1.43-35a.51.51,0,0,0-.74-.3,88.58,88.58,0,0,1-16.46,7c-.61.19-.35,1.16.27,1a91.17,91.17,0,0,0,16.7-7.07l-.74-.3a81.11,81.11,0,0,1,.86,20.05c-.53,6.44-2,12.74-3.22,19.07-2.12,10.8-3.49,22.16,1.08,32.54l.44-.76-10-.4c-1.09,0-3.78.25-4.58-.49s-.89-3.82-1.07-5.08a74.73,74.73,0,0,1-.61-20.42c1.53-12.37,5.58-24.94,1.65-37.28-.2-.61-1.16-.35-1,.26Z" transform="translate(-787.8 -447.28)"/><path class="cls-12" d="M879.75,556c-.93,5.38.14,10.92,1.92,16.08s4.27,10,6.31,15.09a93.84,93.84,0,0,1,6.68,39.23,23.12,23.12,0,0,0,8.84-3.06c-4.4-19.4-1.57-40.61-10.3-58.49a13.5,13.5,0,0,0-2.7-4,12.63,12.63,0,0,0-2.53-1.74,34.89,34.89,0,0,0-8.47-3.33" transform="translate(-787.8 -447.28)"/><path class="cls-12" d="M879.27,555.85c-1.84,12.13,5,22.67,9.05,33.56a94.31,94.31,0,0,1,5.84,37,.51.51,0,0,0,.63.48,25.49,25.49,0,0,0,9-3.11.52.52,0,0,0,.23-.56c-2.93-13.2-2.63-26.81-4.81-40.12a66.46,66.46,0,0,0-5.37-18.1,13,13,0,0,0-4.92-5.93,35.16,35.16,0,0,0-9.25-3.77.5.5,0,0,0-.27,1c3.66,1,8,2.31,10.78,5,2.57,2.39,3.9,6.49,5,9.72a90.6,90.6,0,0,1,4.08,20.43c.69,6.66,1,13.34,1.8,20,.36,3.21.81,6.41,1.43,9.58.16.85.57,1.61,0,2.4-.4.58-2.57,1.2-3,1.36a24.48,24.48,0,0,1-5,1.22l.63.49a95.29,95.29,0,0,0-4.95-34.66c-4-11.57-11.91-22.85-10-35.6.1-.63-.87-.9-1-.27Z" transform="translate(-787.8 -447.28)"/><path class="cls-13" d="M851.23,474.44a6.81,6.81,0,0,0,.35-4.25l-1-.06.51-2-1.17.19a2.82,2.82,0,0,0-.1-1.82c-.3-.54-1.16-.79-1.53-.3-1.22-1.91-3.43-2.91-5.51-3.81a1.27,1.27,0,0,0-.87-.15c-.47.16-.57.77-.59,1.27,1.15.62.59,2.83,1.81,3.28.6.22,1.37-.15,1.87.25s.37.81.53,1.24a1.84,1.84,0,0,0,1.29,1.12l-.48,1.67h1.29c-.29.88-.3,2.22.62,2.3.33,0,.87.28.57.43l.81-.59" transform="translate(-787.8 -447.28)"/><path class="cls-13" d="M851.71,474.58a8.32,8.32,0,0,0,.35-4.53.49.49,0,0,0-.48-.36l-1-.06.48.64.51-2a.5.5,0,0,0-.61-.61l-1.17.19.61.61c.2-1.42-.44-4-2.37-2.68l.69.18c-.92-1.25-7.76-6.83-7.87-2.69,0,.79.59,1.34.87,2.08.21.59.26,1.22.78,1.64,1,.77,1.49.29,2.6,1.55a3.67,3.67,0,0,0,1.58,1.36l-.35-.62-.48,1.67a.51.51,0,0,0,.49.63h1.29l-.49-.63a3.12,3.12,0,0,0,0,2.09c.09.18,1,1.36,1.22.63-.13.4.38.83.73.57l.81-.59c.52-.37,0-1.24-.5-.86l-.81.58.73.57.06-.17a.52.52,0,0,0-.23-.57c-.83-.51-1.48-.07-1-2a.52.52,0,0,0-.48-.64h-1.29l.48.63.48-1.66a.52.52,0,0,0-.35-.62c-1.09-.45-.93-1.82-1.82-2.36-.35-.21-.7-.09-1-.2-1-.36-1.06-.73-1.48-1.54s-1-1.8.61-1.7,3.84,2.27,4.62,3.34a.53.53,0,0,0,.69.18l.9,1.55a.5.5,0,0,0,.61.61l1.17-.19-.61-.61-.51,2a.51.51,0,0,0,.48.63c1.43.08.49,2.81.18,3.68-.22.61.75.87,1,.27Z" transform="translate(-787.8 -447.28)"/><path class="cls-14" d="M839.06,477.44a47.49,47.49,0,0,0,.48,20.65,4.67,4.67,0,0,0,.78,1.86c1.33,1.63,3.88.92,5.93.45,3-.67,6.12-.46,9.2-.6a3.65,3.65,0,0,0,2.21-.6,3.79,3.79,0,0,0,1-2.61,91.86,91.86,0,0,0,.46-17,3,3,0,0,0-.41-1.58,3.11,3.11,0,0,0-2.47-.93l-13.7-.87a5.57,5.57,0,0,0-2.27.18,1.85,1.85,0,0,0-1.28,1.71" transform="translate(-787.8 -447.28)"/><path class="cls-7" d="M838.57,477.31a49.6,49.6,0,0,0-.75,13.32,47.28,47.28,0,0,0,1,6.68c.28,1.22.53,2.59,1.56,3.41,2.26,1.81,6.11,0,8.58-.22,2.67-.24,8.21,1.06,9.72-1.9.71-1.39.66-3.32.8-4.83.2-2.35.32-4.72.35-7.08a44.15,44.15,0,0,0-.19-7.09c-.18-1.17-.31-2-1.44-2.6-1.4-.71-3.36-.5-4.87-.59l-7.35-.47c-2.22-.14-7-1.3-7.45,2-.09.63.88.9,1,.27.15-1.08,2.69-1.55,3.54-1.5l2,.13,4.41.28,4.9.31a7.42,7.42,0,0,1,1.95.12l2.38,2c0,.48.06.95.08,1.42q.21,4.25,0,8.51c-.06,1.41-.15,2.83-.27,4.24a18.2,18.2,0,0,1-.29,2.65,4.49,4.49,0,0,1-3.69,2.91c-2.47.35-5,0-7.5.42-1.14.19-2.26.56-3.42.65-2.26.18-3.33-1.33-3.79-3.36a47.61,47.61,0,0,1-.27-19.46c.12-.63-.85-.9-1-.27Z" transform="translate(-787.8 -447.28)"/><g class="cls-15"><path class="cls-7" d="M840.33,477.14a59.28,59.28,0,0,0,1.89,11.68,14.35,14.35,0,0,0,3.15,6.49c2.75,2.81,7.06,3.23,11,3.49-3.93,2.07-8.61,2-13.05,1.88a3.78,3.78,0,0,1-2.44-.65,3.53,3.53,0,0,1-.87-1.6,35.66,35.66,0,0,1-.3-21" transform="translate(-787.8 -447.28)"/><path class="cls-7" d="M839.83,477.14c.38,5.52.92,12.47,4.1,17.17,2.77,4.11,7.88,4.68,12.42,5l-.25-.93a20.87,20.87,0,0,1-9,1.85c-1.26,0-2.53,0-3.78,0-2.5-.14-3.06-2.42-3.55-4.44a35.71,35.71,0,0,1,.42-18.13.5.5,0,0,0-1-.27,37.4,37.4,0,0,0-1.42,11.52c.13,3.31.48,7.4,2,10.4,1.25,2.52,4.5,2,6.89,2a22.6,22.6,0,0,0,9.94-2c.48-.23.21-.9-.25-.93-4.86-.33-10-1-12.35-5.89-2.23-4.56-2.83-10.29-3.17-15.27-.05-.64-1.05-.64-1,0Z" transform="translate(-787.8 -447.28)"/></g><path class="cls-16" d="M848.59,473.71a15.81,15.81,0,0,0-2.63,4.86l-1.09-6.64a1.52,1.52,0,0,0-.32-.84c-.44-.43-1.24-.12-1.52.43a3,3,0,0,0-.08,1.8q2.17,13.2,3.33,26.52a4.64,4.64,0,0,0,3.44-3.66,13.54,13.54,0,0,0-.16-5.3l-.88-5.47c-.52-3.22-.87-7,1.49-9.26a2.46,2.46,0,0,1,1.78-.79,7.08,7.08,0,0,1,2,.91c.67.29,1.71.1,1.77-.63a2,2,0,0,0,3.19,1.24l2,11.33c.55,3.14,1.15,6.42,3.07,9a2.23,2.23,0,0,0,1.65,1.09,2.07,2.07,0,0,0,1.68,2.61c.3,3.76.63,7.62,2.26,11,.53,1.11,1.19,2.16,1.67,3.3a21.34,21.34,0,0,1,1.28,5.31c1.19,8.05,2,16.14,2.76,24.25q1.44,15.9,2.38,31.86a9.39,9.39,0,0,0,1,4.37,36.23,36.23,0,0,0,3.49,17.2,2.81,2.81,0,0,0,1.52,1.66c1.24.35,2.34-1.19,2.1-2.46a5.82,5.82,0,0,0-2.28-3,3.22,3.22,0,0,0-1.09-4.43c1.41-1.58.87-4,.36-6.06A58.88,58.88,0,0,1,881,573c-.25-4.4,0-8.8-.09-13.2a182.52,182.52,0,0,0-2.05-21.26l-1.22-9c-.38-2.73-.75-5.47-1.38-8.16-.34-1.47-.75-2.92-1.17-4.37l-1.42-4.93c-1.78-6.18-3.56-12.36-5.81-18.38-1.27-3.39-2.69-6.73-4.11-10.07l.1-1.87,1.61,2c2,2.39,4.1,4.91,7.07,5.78a7.72,7.72,0,0,0,9.71-9c-.21.94-1.45,1.09-2.41,1.22s-2.12,1-1.63,1.8c-3.67,2.22-8.33,0-12-2.2l-3.5-2.09c-.53-3.19-2-7.11-5.21-7.24-1.68-.08-3.47,1-5,.23-.36-.18-.7-.59-.54-1s.92,0,.64.26" transform="translate(-787.8 -447.28)"/><path class="cls-17" d="M841.1,462.59c-.11,2,.45,4.32,2.94,3.93l-.56-.73a1.67,1.67,0,0,0,.1,2.21c.3.35.71.41,1.06.62,1.09.68,1.26,1.73,1.7,2.92.5,1.39,1.3,4.75,3.39,2.68l-.79-.1.3.49c.34.55,1.2.05.87-.5l-.3-.49a.51.51,0,0,0-.79-.1c-.87.86-1.63-2-1.72-2.24-.37-1-.75-2.06-1.12-3.08a.48.48,0,0,0-.35-.35c-.87,0-1.37-.48-1.49-1.56.28-.39-.18-.79-.56-.73-1.92.29-1.73-2-1.68-3,0-.65-1-.64-1,0Z" transform="translate(-787.8 -447.28)"/><path class="cls-17" d="M843.78,471.41a4.08,4.08,0,0,0,1.13,6.62l-.18-.69a3.66,3.66,0,0,0-.78,2.25c0,.72.32,1.42.34,2.13s-.12,1.43-.1,2.15c0,1.73.53,3.38.63,5.11a9.09,9.09,0,0,0,.31,2.07,4.29,4.29,0,0,1,0,1.75c0,.83.43,1.38.5,2.1.16,1.6-.48,2.59.85,4,.44.47,1.15-.24.7-.7l-.32-2.85a.53.53,0,0,0-.07-.61l-.26-2.8a.52.52,0,0,0-.08-.61c.31.38-.63-3.24-.79-3.88a15.84,15.84,0,0,1-.51-3.55c0-1.48-.38-5,.41-6a.51.51,0,0,0-.18-.69,3.29,3.29,0,0,1-.93-5c.43-.48-.27-1.19-.71-.71Z" transform="translate(-787.8 -447.28)"/><path class="cls-17" d="M853.1,476.1c1.54.75,3.46,3.64,5.14,1.35l-.92-.39c-.7,2.14,1.19,3.39,3.07,2.5l-.74-.56c-.23,1.16-1,6.06,1.64,4.62l-.73-.56c-.22,1.51-.74,6.12,2.06,5.21l-.57-.73a4.32,4.32,0,0,0-.24,3.84,13.52,13.52,0,0,1,.66,3.6,2.84,2.84,0,0,0,.5,1.72c.22.32.84.34.92-.12.11-.67.12-.74-.37-1.24a.5.5,0,0,0-.85.35,3.33,3.33,0,0,0,2,3.56c.58.27,1.08-.59.5-.86a2.28,2.28,0,0,1-1.53-2.7l-.86.35.11.28.92-.12c-.6-.91-.3-2.49-.56-3.54-.39-1.56-1.37-3-.36-4.62a.5.5,0,0,0-.57-.73c-1.46.47-.84-3.87-.83-4a.5.5,0,0,0-.73-.56c-.8.44-.14-3.66-.17-3.5a.51.51,0,0,0-.74-.56l-1.59-1.37c.18-.58-.61-.82-.92-.39-.58.8-3-1.34-3.77-1.71-.57-.28-1.08.58-.5.87Z" transform="translate(-787.8 -447.28)"/><path class="cls-17" d="M865.15,484.08c1,1.41,1.29,3.27,2.8,4.33.81.57,1.95.47,2.64,1s.49,1.23,1.66,1.22,1.89-1.15,2.35-2.13l-.92-.39c-.34,2.4,2.42,2.72,3.35.69l-.92-.12c.71,1.76,2.46,1.07,2.93-.48l-.92.12c1,2.41,4.52-1.72,3.67-3.29-.3-.57-1.17-.07-.86.5.39.74-1.95,2.27-1.94,2.29-.18-.42-.8-.25-.92.12l-1,.47c-.14-.35-.72-.55-.92-.12l-1.51.09c.07-.51-.65-.95-.91-.39-.27,1-1,1.17-2.35.53a.49.49,0,0,0-.48-.37c-3.24.17-3.42-2.57-4.9-4.57-.38-.52-1.24,0-.86.5Z" transform="translate(-787.8 -447.28)"/><path class="cls-17" d="M864.58,498.09a5.31,5.31,0,0,0,3.61,5.18l-.22-.84c-2,1.91-.39,4,.39,6.1.57,1.52-.15,5.41,2.63,5.08l-.48-.64a4.25,4.25,0,0,0,.17,3.49,20.71,20.71,0,0,1,1,3.52,13.93,13.93,0,0,0,.66,2.35,12.91,12.91,0,0,1,1.27,6.35c-.1,1.41.41,3,.24,4.27,0,.25-.56,1-.65,1.32a5.28,5.28,0,0,0-.09,2c.19,1.55,1,3,1.29,4.51.84,4.12-.23,8.3,1.61,12.23.27.58,1.14.08.87-.5-1.53-3.26-.94-6.77-1.27-10.23-.26-2.7-2.84-6.81-.62-9.08a.53.53,0,0,0,.08-.61c-1.42-2.76.16-6.05-1.06-9a20.57,20.57,0,0,1-1.14-2.76c-.22-.88-.07-1.81-.27-2.67-.42-1.75-1.92-2.95-1.17-4.94a.5.5,0,0,0-.48-.63c-1.4.16-1.23-3.23-1.52-4.06-.57-1.61-2.59-3.71-.79-5.41a.51.51,0,0,0-.22-.84,4.24,4.24,0,0,1-2.88-4.21.5.5,0,0,0-1,0Z" transform="translate(-787.8 -447.28)"/><path class="cls-17" d="M877.2,550a4.52,4.52,0,0,0-.81,5.19c.5,1.12,1.41,1.89,2.41.81a.5.5,0,0,0-.1-.78c-2.43-1.1-2.1,3.36-1.81,4.57a.51.51,0,0,0,.74.3c2-.89-.57-3.41-1.41-1-.39,1.14-.15,4.49,1.12,5.17a1,1,0,0,0,1.59-.67.5.5,0,0,0-.23-.56c-1.2-.83-1.84,1.06-2,1.94a5.45,5.45,0,0,0,2.34,5.09l-.18-.69a4.11,4.11,0,0,0-.23,3.24.5.5,0,0,0,1-.26l.13-2.47a.53.53,0,0,0-.17-.69c-1.81-1.34-1.77-2.69-1.75-4.67,0,0-1.3-5-.73-5.3l.74.29a3.82,3.82,0,0,1,.33-3.44l-.1-.78a2.24,2.24,0,0,1-1.14-2.18,2.63,2.63,0,0,1,1-2.41c.48-.43-.23-1.14-.71-.71Z" transform="translate(-787.8 -447.28)"/><path class="cls-17" d="M878.67,574.93a7.61,7.61,0,0,0-.89,5.69c.32,1.32.93,3,2.44,3.1a.47.47,0,0,0,.43-.25c.72-1.58-1.32-2.15-2.07-.68s-.43,6.09,2,5.5c1.32-.32,1-2.43-.3-2.13-2.06.46-.51,5.14.48,5.94a.52.52,0,0,0,.6.08l.14-.09a.53.53,0,0,0,.23-.57l0-.13c-.1-.5-.83-.44-1,0a6,6,0,0,0,0,3.65.5.5,0,0,0,1-.26,4.07,4.07,0,0,1,0-3.12h-1c-.22-1.13-.07-2.38-.36-3.52a5.67,5.67,0,0,1-1.12-3.12c0-.64,0-1.27,0-1.91,0-1.4-.61-2.41-.72-3.78a6.56,6.56,0,0,1,.94-3.89.5.5,0,0,0-.87-.51Z" transform="translate(-787.8 -447.28)"/><path class="cls-17" d="M881.77,597.58c.48,1.15,1.43,2.51,2.75,2.75,1.06.2,2.14-.87,1.51-1.9-.33-.54-1.2,0-.86.51.23.37-.37.45-.59.38a2.18,2.18,0,0,1-.85-.56,4,4,0,0,1-1-1.45c-.25-.59-1.21-.33-1,.27Z" transform="translate(-787.8 -447.28)"/><path class="cls-17" d="M876.44,562.87a13.44,13.44,0,0,0,1.45,7.82c.3.57,1.16.06.86-.51a12.42,12.42,0,0,1-1.31-7.31c.07-.64-.93-.64-1,0Z" transform="translate(-787.8 -447.28)"/><g class="cls-18"><path class="cls-19" d="M838.07,550.23l.19,2.74c.3,4.25.64,8.63,2.6,12.4s6,6.81,10.23,6.23c-11.94,5-20.21,16.34-25.09,28.32l1.89-14.38c-5.51,4.66-11.29,9.74-13.22,16.69-1,3.43-.88,7.06-.77,10.63.13,3.81.32,7.72,1.87,11.2-1,1.24-3.21.78-4.23-.48a8.34,8.34,0,0,1-1.37-4.59l.11,4.88A1.56,1.56,0,0,1,810,625a1.52,1.52,0,0,1-1.15.3,41.36,41.36,0,0,1-8-1,3.4,3.4,0,0,1-2.14-1.14,3.46,3.46,0,0,1-.43-1.88L796.64,578c-.09-2.21-.14-4.56.94-6.49s2.95-3,4.79-4.08a210.58,210.58,0,0,1,28.92-13.81c2.14-.82,4.41-1.71,5.75-3.56" transform="translate(-787.8 -447.28)"/><path class="cls-19" d="M837.57,550.23c.37,5.25.4,11,3,15.72,2.12,3.78,6,6.54,10.47,6.15l-.26-.93c-12.25,5.31-20.34,16.6-25.32,28.62l1,.13,1.89-14.38c.06-.47-.57-.59-.86-.35-5.57,4.72-11.58,10-13.45,17.33-1,4.07-.81,8.39-.59,12.54a35.34,35.34,0,0,0,.71,5.81c.25,1.1,2,4.37-1.47,3.06-1.73-.65-1.91-3.45-2.06-4.94-.07-.62-1-.65-1,0a21.33,21.33,0,0,1,.08,3.91,1.43,1.43,0,0,1-.89,1.88c-.6,0-1.2,0-1.79-.1-2-.15-4.9-.13-6.67-1.1-2.35-1.28-1.75-6.07-1.83-8.27l-.26-6.88L797.21,580c-.08-2.2-.39-4.68.24-6.81.77-2.62,2.95-4,5.17-5.3,4.07-2.38,8.27-4.57,12.5-6.63s8.47-4,12.8-5.73c3.26-1.33,7.15-2.26,9.48-5.09.4-.49-.3-1.21-.71-.71C834,553,828.82,554,825,555.6s-7.57,3.33-11.27,5.16c-3.95,2-7.85,4-11.65,6.21-2.6,1.51-5,3.22-5.73,6.31-.88,3.81-.12,8.2,0,12.07L797,599.1l.53,13.76.24,6.38c0,1.25-.17,3,.62,4.16s2.13,1.26,3.27,1.51a38.88,38.88,0,0,0,6.35.83c1,0,2,.19,2.6-.77.84-1.44.14-4.39.11-6h-1c.21,2,.47,4.4,2.3,5.63a3.27,3.27,0,0,0,4.15-.2.5.5,0,0,0,.13-.49c-1.46-3.54-1.72-7.28-1.85-11.07s-.2-7.87,1.1-11.6c2.23-6.44,7.7-11.09,12.74-15.36l-.85-.36-1.89,14.38c-.08.61.78.6,1,.14,4.88-11.8,12.85-22.82,24.86-28,.45-.19.23-1-.25-.93-11.1,1-12-13.18-12.52-20.87,0-.64-1-.65-1,0Z" transform="translate(-787.8 -447.28)"/></g><path class="cls-20" d="M917,450.12c3.07,1.65,3.21,179.85,0,181.71s-122.75,2.51-126.39,0-1.61-178,0-181.71S913.9,448.47,917,450.12Zm-118.65,7.63c-1.43,3.42-3.21,164.68,0,167s108.64,1.71,111.47,0,2.71-165.47,0-167S799.74,454.33,798.32,457.75Z" transform="translate(-787.8 -447.28)"/><g class="cls-21"><path class="cls-22" d="M916.58,631.79a15.46,15.46,0,0,1-6.29-6.73q-54.21,2.45-108.51.35c-1.46-.06-3.11-.21-4-1.28a4.62,4.62,0,0,1-.77-3q-2-81.87,1.16-163.76c-8.41,16.12-8.77,34.75-8.93,52.69-.38,40.67-.6,81.37,1.51,122q62.64,2.36,125.35.07" transform="translate(-787.8 -447.28)"/><path class="cls-22" d="M916.83,631.36a15.88,15.88,0,0,1-6.11-6.55.5.5,0,0,0-.43-.25c-35.81,1.6-71.7,1.82-107.51.38-.46,0-.92,0-1.37-.05-1.77-.14-1.62-.11-2.81-1.59s-1.11-1.89-1.16-3.65l-.15-7q-.15-6.75-.25-13.48-.21-13.48-.29-27-.15-27,.26-53.93.47-30.45,1.63-60.9a.51.51,0,0,0-.94-.25c-9.74,19-8.9,41.08-9.07,61.87-.2,24.14-.3,48.28.18,72.42q.39,20.33,1.41,40.64a.51.51,0,0,0,.5.5q62.64,2.34,125.35.07c.64,0,.64-1,0-1q-59.67,2.16-119.39.15c-1.29,0-2.69,0-4-.14-1.52-.22-1.54-.39-1.62-2-.12-2.48-.24-5-.34-7.44q-.32-7.42-.55-14.87-.45-14.87-.61-29.75c-.22-19.84-.12-39.68,0-59.52.17-20.3-.58-41.8,8.93-60.38l-.93-.25q-2.25,58.89-1.87,117.83.09,14.47.35,29,.14,7.49.31,15c.07,2.93,0,5.83,3.36,6.55,4.24.9,9.11.47,13.43.6q7.23.21,14.44.35,14.69.27,29.37.22,16.44-.07,32.86-.55,8.21-.24,16.42-.59c1.11,0,2.94-.52,3.89.27a13.84,13.84,0,0,1,1.34,2,17,17,0,0,0,4.79,4.18c.55.34,1-.53.5-.86Z" transform="translate(-787.8 -447.28)"/></g><path class="cls-23" d="M917,450.12c3.07,1.65,3.21,179.85,0,181.71s-122.75,2.51-126.39,0-1.61-178,0-181.71S913.9,448.47,917,450.12Zm-118.65,7.63c-1.43,3.42-3.21,164.68,0,167s108.64,1.71,111.47,0,2.71-165.47,0-167S799.74,454.33,798.32,457.75Z" transform="translate(-787.8 -447.28)"/><path class="cls-7" d="M917.34,630.65a41.15,41.15,0,0,1-7-6.09c-.44-.47-1.15.24-.71.71a43.11,43.11,0,0,0,7.23,6.25c.53.36,1-.51.5-.87Z" transform="translate(-787.8 -447.28)"/><path class="cls-7" d="M791.41,631.54a23.61,23.61,0,0,1,6.43-6c.54-.34,0-1.21-.51-.86a24.78,24.78,0,0,0-6.78,6.37c-.38.52.48,1,.86.5Z" transform="translate(-787.8 -447.28)"/><path class="cls-7" d="M909.93,457.8a29.75,29.75,0,0,1,7-7.14c.51-.38,0-1.25-.51-.87a31.52,31.52,0,0,0-7.38,7.51c-.37.53.5,1,.87.5Z" transform="translate(-787.8 -447.28)"/><path class="cls-7" d="M798.22,456.81a10.78,10.78,0,0,1-6.28-6.84.5.5,0,0,0-1,.27,11.83,11.83,0,0,0,7,7.53c.6.25.85-.72.27-1Z" transform="translate(-787.8 -447.28)"/></svg>