<svg id="Calque_1" data-name="Calque 1" xmlns="http://www.w3.org/2000/svg" xmlns:xlink="http://www.w3.org/1999/xlink" viewBox="0 0 95.15 73.97"><defs><style>.cls-1{fill:#5f272c;}.cls-2{fill:#432918;}.cls-3{fill:#8b5513;}.cls-4{fill:#1d1d1b;}.cls-5{opacity:0.48;}.cls-6{fill:#432b1d;}.cls-7{fill:#575756;}.cls-8{fill:#e30613;}.cls-9{fill:#312783;}.cls-10{fill:#f9b233;}.cls-11{fill:#00431f;}.cls-12{fill:#b07e9a;}.cls-13{fill:#ca9e67;}.cls-14{fill:#d8ebe1;}.cls-15{fill:#6a0f08;}.cls-16{fill:url(#Orange_Jaune);}.cls-17{fill:#5297d2;}.cls-18{fill:url(#Blanc_Noir);}.cls-19{fill:#e71d73;}.cls-20{fill:#9d815f;}.cls-21{fill:#ebc700;}.cls-22{fill:#00a19a;}.cls-23{fill:#aa3016;}.cls-24{fill:#706f6f;}.cls-25{fill:#3c3c3b;}.cls-26{fill:#3c8174;}.cls-27{fill:#998317;}.cls-28{fill:#2e2d2c;}</style><linearGradient id="Orange_Jaune" x1="842.64" y1="549.67" x2="849.51" y2="549.67" gradientUnits="userSpaceOnUse"><stop offset="0" stop-color="#ffef26"/><stop offset="0.02" stop-color="#ffea21"/><stop offset="0.1" stop-color="#fed70f"/><stop offset="0.19" stop-color="#fdcc04"/><stop offset="0.28" stop-color="#fdc800"/><stop offset="0.67" stop-color="#f18f34"/><stop offset="0.89" stop-color="#e95f32"/><stop offset="1" stop-color="#e3312d"/></linearGradient><linearGradient id="Blanc_Noir" x1="856.97" y1="550.17" x2="861.89" y2="550.17" gradientUnits="userSpaceOnUse"><stop offset="0" stop-color="#fff"/><stop offset="1" stop-color="#1d1d1b"/></linearGradient></defs><title>23</title><path class="cls-1" d="M816.37,507.35a3.7,3.7,0,0,0-4-1.63,4.9,4.9,0,0,0-3.15,3.4,14.57,14.57,0,0,0-.35,4.8L811,569.1c.06,1.46.16,3,1.13,4.15,1.15,1.31,3.1,1.46,4.84,1.48,16,.16,32-3.32,47.89-1.57,10,1.1,20,4.25,29.88,2.2a5.83,5.83,0,0,0,3.21-1.48,5.92,5.92,0,0,0,1.16-2.42A62.66,62.66,0,0,0,901,555.83a206.08,206.08,0,0,0-2.93-40.15c-.45-2.59-1.08-5.39-3.12-7-2.38-1.91-5.78-1.58-8.81-1.27-11.47,1.17-23,.7-34.55.22l-40.67-1.68" transform="translate(-806.51 -503.06)"/><path class="cls-2" d="M816.8,507.1a4.26,4.26,0,0,0-7-.19c-2.66,3.3-1.37,9.08-1.23,12.92l1.34,35,.33,8.38a56.14,56.14,0,0,0,.4,7.89c.69,3.78,4,4.14,7.25,4.15,11.54,0,23-1.76,34.51-2a98.5,98.5,0,0,1,17.91,1.23,131.83,131.83,0,0,0,15.58,2.07c3.43.14,9.83.55,12.41-2.32,1.23-1.37,1.55-3.56,1.92-5.29a56.91,56.91,0,0,0,1-7.49,182.23,182.23,0,0,0-1.11-35c-.58-4.84-.76-10.5-2.67-15-1.42-3.35-4.31-4.7-7.83-4.7-3,0-5.94.49-8.9.66-3.29.2-6.58.29-9.87.3-6.59,0-13.18-.26-19.76-.53l-40.18-1.66c-.65,0-.65,1,0,1,19.94.82,40,2.25,59.94,2.19,4.94,0,9.87-.21,14.79-.68a19.43,19.43,0,0,1,6.5,0c2.93.71,4.32,3.05,5,5.8,2.36,9.42,2.91,19.69,3.27,29.37.18,4.87.2,9.76,0,14.64-.18,4.7-.41,9.82-2.06,14.28-1.13,3.06-5.07,3.26-7.84,3.47a45.17,45.17,0,0,1-7-.08c-5.15-.43-10.22-1.51-15.33-2.26-9.24-1.34-18.52-1-27.8-.22-5,.4-9.9.87-14.86,1.13-2.24.12-4.48.2-6.72.22-2.72,0-6.38.3-7.18-3.05-.6-2.51-.34-5.43-.43-8l-.34-8.87-.63-16.26-.64-16.75c-.1-2.73-.27-5.47-.31-8.2a12.24,12.24,0,0,1,.36-3.86c.86-2.67,4.12-4.51,6.24-1.64.38.51,1.25,0,.87-.51Z" transform="translate(-806.51 -503.06)"/><path class="cls-3" d="M881.79,514.07c0-.33-.56-.17-.73.1a4.43,4.43,0,0,0-.26,2.93,23.64,23.64,0,0,1-.41,8c.51-.08.73-.69.85-1.19a67.22,67.22,0,0,0,1.29-8.22,13.13,13.13,0,0,1,.53,2.61c.22.87,1,1.75,1.86,1.53L883,525.21l1.91.19,1.28-7.74a1.81,1.81,0,0,0,.68,1.79,16.27,16.27,0,0,0,1.69,1.09,1,1,0,0,1,.48.58,1.12,1.12,0,0,1-.1.59l-.75,2.1a3.31,3.31,0,0,0-.28,1.6,1.1,1.1,0,0,0,1.11,1,4.59,4.59,0,0,0,.67-2.25l.89-7.56a3.9,3.9,0,0,0,1.67,3.29,2.92,2.92,0,0,1,1.11.94,2,2,0,0,1,.15,1,11.54,11.54,0,0,1-.44,2.68.41.41,0,0,0,0,.39.29.29,0,0,0,.2.11c.76.15,1.18-.82,1.31-1.58l.6-3.43,1.42.92a13.05,13.05,0,0,0,.48-3.92,4.32,4.32,0,0,0-1.86-3.35.75.75,0,0,0-.47-.13c-.24,0-.4.27-.5.49a7,7,0,0,0-.74,3.17,18.66,18.66,0,0,0-2.17-3.33c-.41-.5-1.13-1-1.63-.61a1.11,1.11,0,0,0-.34.65,5.77,5.77,0,0,0-.08,2.48,11.26,11.26,0,0,0-2.06-2.74,1.37,1.37,0,0,0-.69-.43c-.52-.07-.93.46-1,1a11.09,11.09,0,0,1-.25,1.53,6.6,6.6,0,0,0-3.25-2.15" transform="translate(-806.51 -503.06)"/><path class="cls-3" d="M882.06,513.8c-.74-.78-1.42.26-1.65,1-.4,1.2.11,2.92.16,4.14A24.65,24.65,0,0,1,880,525a.38.38,0,0,0,.55.42c1.15-.63,1.16-2,1.4-3.23.41-2.15.71-4.32.93-6.5l-.74.1c.5,1.45.33,2.82,1.39,4,.64.73.48,0,.68.83s-1.26,3.56-1.59,4.48c-.09.25.14.45.36.48l1.91.19a.38.38,0,0,0,.36-.28l1.28-7.74-.73-.1a2.42,2.42,0,0,0,.78,2.05c.34.34.85.49,1.2.8,1.13,1,.67,1.37.28,2.5-.49,1.4-1.1,3.36.84,3.76a.39.39,0,0,0,.43-.18c1.45-2.82,1.24-6.89,1.6-10h-.75a5,5,0,0,0,1.2,3.06c.77,1,1.33.29,1.73,2.16.22,1-.45,2.05-.43,3.07a.36.36,0,0,0,.19.32,1.2,1.2,0,0,0,1.58-.43c.92-1.11.13-4.73,1.95-3.54A.38.38,0,0,0,897,521c.53-2.35,1.18-5.91-1.29-7.5-2.1-1.34-2.46,2.28-2.54,3.66l.7-.19c-.56-1-2-4.28-3.57-4.26-1.71,0-1.47,2.54-1.35,3.64l.7-.19c-.57-1-1.72-3.3-3.07-3.35s-1.48,1.85-1.66,2.77l.63-.16a8,8,0,0,0-3.43-2.25c-.45-.16-.65.56-.19.72A7.3,7.3,0,0,1,885,516a.37.37,0,0,0,.62-.17c.15-.74.19-1.83,1.37-1.91.64,0,1.7,2.16,2,2.67.17.3.74.19.69-.19a1.05,1.05,0,0,1,.66-1.54q1-1.65,1.65.48a21.34,21.34,0,0,1,1.21,2.06.38.38,0,0,0,.7-.19c0-.5.15-2.74.69-3l1.64,1.07a3.72,3.72,0,0,1,.46,1.84c.12,1.25.36,3.65-1.3,2.57a.37.37,0,0,0-.55.22c-.15.86-.11,2.72-.6,3.43-.87,1.28-.32-1.39-.35-1.75-.21-2.24-2.72-2.22-2.93-5a.38.38,0,0,0-.75,0q-.33,2.83-.67,5.67c-.06.54-.08,3.77-.65,2.12-.3-.91,0-1.24.3-2.22.78-2.68-2.72-1.74-2.61-4.5,0-.41-.67-.52-.74-.1l-.64,3.87c-.12.72-.06,2.4-.48,2.9-1.31,1.58-.83-.3-.71-.81a33.29,33.29,0,0,1,1.27-3.59.39.39,0,0,0-.36-.48c-1.13,0-1.55-1.83-1.69-2.53a9,9,0,0,0-.34-1.33.37.37,0,0,0-.73.1c-.17,1.65-.38,3.3-.66,4.94-.18,1-.27,3.58-1.3,4.14l.55.43a26,26,0,0,0,.59-5,23.93,23.93,0,0,0-.12-2.68c0-.21,0-3.58.31-3.22s.86-.17.53-.53Z" transform="translate(-806.51 -503.06)"/><path class="cls-3" d="M809.55,513.91c-.49-.17-1,.3-1.11.82a3.68,3.68,0,0,0,.23,1.53,8.35,8.35,0,0,1-.13,4.85,21.15,21.15,0,0,0,.28-4.13l-.94,8.12c.72-.09,1-1,1.14-1.69l1-5.85a4.71,4.71,0,0,0,1.5,2.08,1.73,1.73,0,0,1,.57.57,1.47,1.47,0,0,1,0,1.07l-1.19,4,1.48.24a27.35,27.35,0,0,1,1.3-5.92,2.09,2.09,0,0,1,2.36,2.82l-.42,3.86,1.09.09a47.58,47.58,0,0,0,1.58-7.93l2.08,2a3,3,0,0,1,.66.77c.49.91,0,2-.39,3l.25-1.58-.2,1.94a.69.69,0,0,0,0,.38.5.5,0,0,0,.55.22c.68-.12.91-1,1-1.64l.57-4.12c.41,1.19,2,1.88,2,3.14,0,.85-.75,1.58-.72,2.44a.62.62,0,0,0,.19.45.54.54,0,0,0,.71-.11,1.5,1.5,0,0,0,.29-.74,33.78,33.78,0,0,0,.63-5.3l2.33,2a1.12,1.12,0,0,1,.37.44c.11.33-.1.68-.16,1a1.21,1.21,0,0,0,1.18,1.36,37.78,37.78,0,0,1,.47-5.2l1.31,1.49a17.29,17.29,0,0,0,.77-4.68c0-.77-.11-1.69-.8-2a1.44,1.44,0,0,0-1.65.53,4.36,4.36,0,0,0-.67,1.72,10,10,0,0,0-2.22-2,1,1,0,0,0-.59-.22.87.87,0,0,0-.59.52,5.25,5.25,0,0,0-.63,2c-.45-.57-.67-1.3-1.16-1.83s-1.45-.78-1.9-.21a1.74,1.74,0,0,0-.28,1l-.21,2.41A23.93,23.93,0,0,0,819,514c-.28-.35-.68-.72-1.11-.59a1,1,0,0,0-.53.52,4.73,4.73,0,0,0-.64,2.32,4.53,4.53,0,0,0-1.39-2.17,1.67,1.67,0,0,0-1.93-.37c-.74.51-.49,1.67-.92,2.45a4.21,4.21,0,0,0-2.95-2.65" transform="translate(-806.51 -503.06)"/><path class="cls-3" d="M809.55,513.53a1.4,1.4,0,0,0-1.47,1.1c-.18.57.14,1.19.23,1.73a9.89,9.89,0,0,1-.13,4.65l.72.2a26,26,0,0,0,.29-4.23c0-.49-.69-.47-.75,0l-.94,8.12c0,.32.34.42.57.33a2.1,2.1,0,0,0,1.24-1.64,57.44,57.44,0,0,0,1.11-6.13l-.69.09c.44,1,1.43,1.54,1.87,2.41.61,1.18-.73,3.86-1.08,5.05a.38.38,0,0,0,.26.46l1.48.24a.38.38,0,0,0,.48-.36,28.76,28.76,0,0,1,.56-3.32c.29-1.22,0-2,1.42-1.09,1.3.77,1,.86.82,2.27-.1,1-.21,1.94-.31,2.9,0,.22.19.37.37.38l1.09.08a.36.36,0,0,0,.36-.27,53.3,53.3,0,0,0,1.59-8l-.64.27c1.5,1.44,3.47,2.57,2.3,5.28l.69.29.24-1.58-.74-.1c-.09.85-.76,3.18.91,2.89,1.83-.33,1.61-4.81,1.78-6l-.69.09c.32.61.88,1,1.2,1.62,1.66,3-.21,1.7,0,3.67.06.51.15.82.63,1,2,.57,1.87-5.57,1.93-6.55l-.64.27c.58.48,2,1.27,2.32,1.94.18.37,0,.91.12,1.3.24,1,.4,1.31,1.44,1.62a.38.38,0,0,0,.48-.36,43.51,43.51,0,0,1,.45-5.1l-.63.16,1.31,1.49a.38.38,0,0,0,.63-.16c.43-1.53,1.89-6-.17-7.08-1.66-.88-2.6,1.23-2.9,2.44l.63-.16c-.57-.65-2.07-2.58-3.18-2.35s-1.34,2-1.48,2.79l.68-.09c-.6-.94-1.5-3-3.06-2.49-1.39.49-1.09,2.94-1.18,4l.7-.19c-.56-1-2.26-4.66-3.85-4.34-1.23.26-1.45,2.24-1.54,3.22l.74-.1c-.45-1.21-1.5-3.07-3-3s-1.5,1.78-1.93,2.91l.69-.09a5,5,0,0,0-3.17-2.83c-.46-.15-.66.58-.2.73a4.45,4.45,0,0,1,2.72,2.48c.15.32.59.18.69-.09s.14-1.08.35-1.32c0-.64.48-.64,1.36,0a1.43,1.43,0,0,1,1.81,1.39.38.38,0,0,0,.74-.1c.45-4.8,3-.16,4,1.49a.38.38,0,0,0,.7-.18c.1-1.19-.16-1.49,1.12-2s1-.19,1.73.86c.16.24.63.24.68-.09l.12-.7c0-1.27.48-1.56,1.36-.87a3.65,3.65,0,0,1,1.93,1.46.37.37,0,0,0,.62-.17c0-.79.41-1,1.27-.47,1.08-.25,1.43.11,1.07,1.08.2,1-.44,2.66-.72,3.63l.63-.17-1.31-1.49a.38.38,0,0,0-.63.17c-.13.89-.25,1.79-.33,2.69,0,.14-.16,1.73-.12,1.74-.3-.05-.22-1-.3-1.26-.48-1.25-1.74-2-2.8-2.9a.38.38,0,0,0-.64.26,18.9,18.9,0,0,1-.54,4.76c-.25.75-.3.5-.21-.14.12-.89.38-.3.39-1.26,0-1.43-1.4-2.26-2-3.43-.14-.26-.64-.23-.68.09A35.21,35.21,0,0,1,822,523c-.16.63,0,.79-.53,1.25-.79.68-.23-1.18-.18-1.64s-.67-.52-.74-.1l-.24,1.58c0,.38.5.72.69.29,1.33-3.09-.18-4-2.42-6.19a.38.38,0,0,0-.64.26,29.15,29.15,0,0,1-1.1,6.09,2,2,0,0,1-.65,1.42l-.06-.63c-.3-.73.32-2.45.34-3.27,0-1.94-.93-2.63-2.76-2.83a.4.4,0,0,0-.37.28c-.26.83-.51,1.65-.71,2.5a13.51,13.51,0,0,1-.47,2.56c-1.09,1.39-.05-1.9.09-2.4.77-2.73-.74-2.34-1.82-4.82a.38.38,0,0,0-.69.09l-.69,3.9c-.18,1-.14,2.91-1.31,3.42l.56.32.94-8.12h-.75a24.66,24.66,0,0,1-.26,4c-.07.47.59.68.72.2a10,10,0,0,0,.43-2.92c0-.71-.71-4,.22-4,.48,0,.48-.77,0-.75Z" transform="translate(-806.51 -503.06)"/><path class="cls-4" d="M813.75,519.91a15.62,15.62,0,0,0,1.79,1.36c.4.27.78-.38.38-.64a15.42,15.42,0,0,1-1.64-1.25c-.36-.32-.89.21-.53.53Z" transform="translate(-806.51 -503.06)"/><path class="cls-4" d="M818.71,519.79a6,6,0,0,1,1.16,1.08c.31.36.84-.17.53-.53a6.72,6.72,0,0,0-1.31-1.19c-.39-.28-.77.37-.38.64Z" transform="translate(-806.51 -503.06)"/><path class="cls-4" d="M822.55,520.81l1.16,1.07c.35.33.89-.2.53-.53l-1.16-1.07c-.35-.33-.88.2-.53.53Z" transform="translate(-806.51 -503.06)"/><path class="cls-4" d="M826.16,520.06l1,1.42c.28.39.93,0,.65-.38l-1-1.42c-.28-.39-.93,0-.65.38Z" transform="translate(-806.51 -503.06)"/><path class="cls-4" d="M830.18,519.5l.6,1.29c.21.44.86.06.65-.37l-.6-1.3c-.21-.43-.85,0-.65.38Z" transform="translate(-806.51 -503.06)"/><g class="cls-5"><path class="cls-2" d="M810.46,516.3a.74.74,0,0,0,1,.18,1.85,1.85,0,0,0,.7-.81,11.58,11.58,0,0,1-.54,4.37,31.73,31.73,0,0,1-1.07-3.16" transform="translate(-806.51 -503.06)"/><path class="cls-6" d="M810.19,516.57c.82.88,1.79.09,2.25-.71l-.69-.19a12.35,12.35,0,0,1-.53,4.27h.72c-.41-1-.76-2.09-1.07-3.16a.37.37,0,0,0-.72.2,32.62,32.62,0,0,0,1.07,3.16.38.38,0,0,0,.72,0,12.75,12.75,0,0,0,.56-4.47.38.38,0,0,0-.7-.19,1,1,0,0,1-1.08.56c-.32-.36-.85.18-.53.53Z" transform="translate(-806.51 -503.06)"/></g><g class="cls-5"><path class="cls-2" d="M814.61,516.44a1.45,1.45,0,0,0,1.71-.4,9.13,9.13,0,0,1-.5,4.66c-.33-.46-.94-.67-1.19-1.18a2.07,2.07,0,0,1-.1-1.16l.2-1.86" transform="translate(-806.51 -503.06)"/><path class="cls-6" d="M814.51,516.8a1.89,1.89,0,0,0,2.08-.49l-.63-.17a9.39,9.39,0,0,1-.5,4.46l.62-.16c-.53-.63-1.2-.81-1.2-1.78a19.76,19.76,0,0,1,.22-2.16c0-.48-.7-.48-.75,0a9.15,9.15,0,0,0-.18,2.85c.18.76.91,1.06,1.38,1.62a.38.38,0,0,0,.63-.17,10,10,0,0,0,.5-4.86.37.37,0,0,0-.62-.16,1.17,1.17,0,0,1-1.35.3c-.46-.17-.65.56-.2.72Z" transform="translate(-806.51 -503.06)"/></g><g class="cls-5"><path class="cls-2" d="M819.2,516.55l1-.54c.15-.07.33-.15.47-.06a.43.43,0,0,1,.16.3,6.67,6.67,0,0,1-.15,2.77l-.32,1.58-.66-.76a4.57,4.57,0,0,1-.56-.82,2.61,2.61,0,0,1,.1-2.51" transform="translate(-806.51 -503.06)"/><path class="cls-6" d="M819.39,516.88c.15-.08,1-.62,1.13-.53s.05,1.32,0,1.58c-.11.86-.31,1.72-.48,2.57l.63-.16c-.95-1.07-1.84-2.18-1.07-3.64.23-.42-.42-.8-.65-.37-1,1.79,0,3.19,1.19,4.54a.37.37,0,0,0,.62-.17c.27-1.34.92-3.18.47-4.55-.37-1.15-1.53-.28-2.23.08-.43.22,0,.87.38.65Z" transform="translate(-806.51 -503.06)"/></g><g class="cls-5"><path class="cls-2" d="M823.33,517.35a7.72,7.72,0,0,1,.87-1.72,2,2,0,0,1,.66,1.88,18.23,18.23,0,0,1-.44,3.53c0,.1-.06.21-.16.23a.17.17,0,0,1-.12,0,1.79,1.79,0,0,1-1-1.76,11.91,11.91,0,0,0,0-2.15" transform="translate(-806.51 -503.06)"/><path class="cls-6" d="M823.69,517.45a9.61,9.61,0,0,1,.83-1.63l-.59.07c1.07.87.46,3.33.25,4.47,0,.13,0,.26-.08.39s-.06.26-.14,0a1.67,1.67,0,0,1-.4-1c-.09-.79.1-1.57,0-2.37-.06-.47-.81-.48-.75,0,.14,1.19-.35,2.57.39,3.63.29.43.88.89,1.37.52.31-.23.3-.79.36-1.13a17.82,17.82,0,0,0,.25-2.06c.08-1,.16-2.22-.73-2.94a.39.39,0,0,0-.59.08,10.9,10.9,0,0,0-.9,1.81c-.17.45.55.65.72.2Z" transform="translate(-806.51 -503.06)"/></g><g class="cls-5"><path class="cls-2" d="M827.11,516.76c.26-.4.52-.8.79-1.18a.71.71,0,0,1,.2-.22.47.47,0,0,1,.61.22,1.33,1.33,0,0,1,.12.69,13.71,13.71,0,0,1-1.06,5,3.51,3.51,0,0,1-.73-2.72c0-.65,0-1.29,0-1.93" transform="translate(-806.51 -503.06)"/><path class="cls-6" d="M827.44,517c.2-.31.55-1.31,1-.68.18.25-.1,1.34-.14,1.65a15,15,0,0,1-.9,3.22L828,521c-1-1.08-.61-3.05-.59-4.39a.38.38,0,0,0-.75,0c0,1.62-.37,3.61.81,4.92a.38.38,0,0,0,.63-.17,14.84,14.84,0,0,0,.91-3.27,4.57,4.57,0,0,0,0-2.64c-.79-1.41-1.86.53-2.26,1.14-.26.4.39.78.65.38Z" transform="translate(-806.51 -503.06)"/></g><g class="cls-5"><path class="cls-2" d="M830.6,516.58l.88-1.28a.76.76,0,0,1,.44-.37c.37,0,.56.43.58.8a7.4,7.4,0,0,1-1.06,4.33,5.25,5.25,0,0,1-.67-3.57" transform="translate(-806.51 -503.06)"/><path class="cls-6" d="M830.92,516.77c.13-.19.82-1.46,1.18-1.17.19.15,0,1.24,0,1.47a7.14,7.14,0,0,1-1,2.8h.65a5.06,5.06,0,0,1-.62-3.28c.06-.47-.66-.68-.73-.2a6,6,0,0,0,.7,3.86.38.38,0,0,0,.65,0c.76-1.31,1.63-3.55,1-5.07-.71-1.72-2,.6-2.47,1.21-.28.4.37.78.64.38Z" transform="translate(-806.51 -503.06)"/></g><path class="cls-3" d="M833.65,513.76c-.49-.17-1,.31-1.11.82a3.66,3.66,0,0,0,.23,1.53,8.38,8.38,0,0,1-.13,4.86,21.15,21.15,0,0,0,.28-4.13L832,525c.72-.09,1-1,1.14-1.69l1-5.86a4.6,4.6,0,0,0,1.5,2.08,1.94,1.94,0,0,1,.57.57,1.5,1.5,0,0,1-.05,1.08l-1.19,4,1.48.25a26.74,26.74,0,0,1,1.3-5.93,2.85,2.85,0,0,1,2,.76,2.8,2.8,0,0,1,.31,2.06l-.42,3.87,1.09.09a47.58,47.58,0,0,0,1.58-7.93l2.08,2a3,3,0,0,1,.66.77c.49.91,0,2-.39,3l.25-1.58-.2,1.94a.7.7,0,0,0,0,.38.5.5,0,0,0,.55.22c.68-.12.91-1,1-1.64l.57-4.12c.41,1.18,2,1.87,2,3.13,0,.86-.76,1.59-.72,2.45a.64.64,0,0,0,.19.45.54.54,0,0,0,.71-.12,1.47,1.47,0,0,0,.29-.73,33.78,33.78,0,0,0,.63-5.3l2.33,1.94a1.15,1.15,0,0,1,.37.45c.11.33-.1.67-.16,1a1.22,1.22,0,0,0,1.18,1.36,37.78,37.78,0,0,1,.47-5.2l1.31,1.48a17.22,17.22,0,0,0,.77-4.67c0-.77-.11-1.69-.81-2a1.43,1.43,0,0,0-1.64.53,4.16,4.16,0,0,0-.67,1.72,10.27,10.27,0,0,0-2.22-2,.89.89,0,0,0-.59-.21.87.87,0,0,0-.59.52,5.2,5.2,0,0,0-.63,2c-.45-.57-.67-1.29-1.16-1.82s-1.45-.78-1.9-.22a1.79,1.79,0,0,0-.28,1l-.21,2.41a25,25,0,0,0-2.41-3.56c-.28-.34-.68-.71-1.11-.58a1,1,0,0,0-.53.51,4.73,4.73,0,0,0-.64,2.32,4.5,4.5,0,0,0-1.39-2.16,1.67,1.67,0,0,0-1.93-.38c-.74.51-.49,1.68-.93,2.45a4.21,4.21,0,0,0-2.94-2.65" transform="translate(-806.51 -503.06)"/><path class="cls-3" d="M833.65,513.39a1.38,1.38,0,0,0-1.47,1.09c-.18.57.14,1.2.23,1.73a9.92,9.92,0,0,1-.13,4.66l.72.2a26,26,0,0,0,.29-4.23c0-.5-.69-.47-.75,0L831.6,525c0,.32.34.42.56.32a2.06,2.06,0,0,0,1.25-1.64,55,55,0,0,0,1.1-6.13l-.68.09c.44,1,1.42,1.55,1.87,2.42.61,1.17-.73,3.85-1.08,5a.4.4,0,0,0,.26.47l1.48.24a.38.38,0,0,0,.48-.36,28.4,28.4,0,0,1,.56-3.32c.29-1.22,0-2,1.42-1.1,1.3.78,1,.87.82,2.28-.1,1-.21,1.93-.31,2.9,0,.21.19.36.37.38l1.09.08a.39.39,0,0,0,.36-.27,53.55,53.55,0,0,0,1.59-8l-.64.27c1.5,1.43,3.47,2.57,2.3,5.28l.69.29.24-1.58-.74-.1c-.09.85-.76,3.18.91,2.88,1.83-.32,1.61-4.8,1.78-6l-.69.09c.32.61.88,1,1.2,1.61,1.65,3-.22,1.7,0,3.68.06.5.15.82.63,1,2,.56,1.87-5.58,1.93-6.55l-.64.26c.58.49,2,1.28,2.32,2,.18.36,0,.91.12,1.3.24,1,.4,1.3,1.44,1.62a.39.39,0,0,0,.48-.36,43.87,43.87,0,0,1,.45-5.11l-.63.17,1.31,1.49a.38.38,0,0,0,.63-.17c.43-1.53,1.89-6-.17-7.08-1.66-.88-2.6,1.24-2.9,2.45l.63-.16c-.57-.65-2.07-2.59-3.18-2.35s-1.34,2-1.48,2.78l.68-.09c-.6-.93-1.5-3.05-3.06-2.49-1.39.5-1.09,2.94-1.18,4l.7-.19c-.56-1-2.26-4.66-3.85-4.33-1.23.26-1.45,2.23-1.54,3.21l.74-.1c-.45-1.2-1.5-3.07-3.05-3s-1.5,1.78-1.93,2.91l.69-.09a4.93,4.93,0,0,0-3.17-2.83c-.46-.15-.66.57-.2.72a4.51,4.51,0,0,1,2.72,2.48c.15.33.58.18.69-.09s.14-1.07.35-1.32c0-.64.48-.63,1.36,0a1.42,1.42,0,0,1,1.81,1.38.38.38,0,0,0,.74-.1c.45-4.79,3-.15,4,1.5a.38.38,0,0,0,.7-.19c.1-1.18-.16-1.49,1.12-2s1.05-.19,1.73.85a.37.37,0,0,0,.68-.09l.12-.69c0-1.28.48-1.57,1.36-.87a3.54,3.54,0,0,1,1.92,1.46.38.38,0,0,0,.63-.17c0-.79.41-1,1.27-.48,1.08-.24,1.43.12,1.07,1.09.2,1-.44,2.66-.72,3.62l.63-.16-1.31-1.49a.38.38,0,0,0-.63.17c-.13.89-.25,1.79-.33,2.69,0,.14-.16,1.73-.12,1.74-.3-.06-.22-1-.3-1.26-.48-1.25-1.74-2-2.8-2.91a.38.38,0,0,0-.64.27,19.42,19.42,0,0,1-.54,4.76c-.25.75-.3.5-.21-.14.12-.89.38-.3.39-1.27,0-1.42-1.4-2.26-2-3.42a.38.38,0,0,0-.69.09,33.06,33.06,0,0,1-.5,3.71c-.16.62,0,.79-.53,1.24-.79.69-.23-1.17-.18-1.63s-.67-.52-.74-.1l-.24,1.58c-.05.38.5.72.69.29,1.33-3.09-.18-4-2.42-6.19a.38.38,0,0,0-.64.26,29.94,29.94,0,0,1-1.1,6.09,2,2,0,0,1-.65,1.42l-.06-.64c-.3-.73.32-2.44.34-3.26,0-1.94-.93-2.63-2.76-2.83a.39.39,0,0,0-.37.27c-.26.83-.51,1.66-.71,2.51a12.9,12.9,0,0,1-.48,2.56c-1.08,1.39,0-1.91.1-2.41.77-2.72-.74-2.34-1.82-4.82a.38.38,0,0,0-.69.09l-.69,3.91c-.18,1-.14,2.91-1.31,3.42l.56.32.94-8.12h-.75a24.8,24.8,0,0,1-.26,4c-.07.46.59.68.72.2a10,10,0,0,0,.43-2.93c0-.7-.71-4,.22-4,.48,0,.48-.77,0-.75Z" transform="translate(-806.51 -503.06)"/><path class="cls-4" d="M837.85,519.77a16.86,16.86,0,0,0,1.79,1.36c.4.27.78-.38.38-.65a14.11,14.11,0,0,1-1.64-1.24c-.36-.32-.89.21-.53.53Z" transform="translate(-806.51 -503.06)"/><path class="cls-4" d="M842.81,519.65a6.22,6.22,0,0,1,1.16,1.07c.31.37.84-.16.53-.53a7.42,7.42,0,0,0-1.31-1.19c-.39-.28-.77.37-.38.65Z" transform="translate(-806.51 -503.06)"/><path class="cls-4" d="M846.65,520.67l1.16,1.07c.35.33.89-.2.53-.53l-1.16-1.07c-.35-.33-.88.2-.53.53Z" transform="translate(-806.51 -503.06)"/><path class="cls-4" d="M850.26,519.92l1,1.42c.28.39.93,0,.65-.38l-1-1.42c-.27-.39-.92,0-.64.38Z" transform="translate(-806.51 -503.06)"/><path class="cls-4" d="M854.28,519.36l.6,1.29c.21.44.85.06.65-.38l-.6-1.29c-.21-.44-.85-.06-.65.38Z" transform="translate(-806.51 -503.06)"/><g class="cls-5"><path class="cls-2" d="M834.56,516.16a.74.74,0,0,0,1,.18,1.85,1.85,0,0,0,.7-.81,11.51,11.51,0,0,1-.54,4.36,31.55,31.55,0,0,1-1.07-3.15" transform="translate(-806.51 -503.06)"/><path class="cls-6" d="M834.29,516.43c.82.88,1.79.09,2.25-.71l-.7-.19a12,12,0,0,1-.52,4.26H836c-.41-1-.76-2.08-1.07-3.15a.37.37,0,0,0-.72.2,31.55,31.55,0,0,0,1.07,3.15.37.37,0,0,0,.72,0,12.46,12.46,0,0,0,.55-4.46.37.37,0,0,0-.69-.19,1,1,0,0,1-1.08.56c-.33-.36-.85.17-.53.53Z" transform="translate(-806.51 -503.06)"/></g><g class="cls-5"><path class="cls-2" d="M838.71,516.3a1.47,1.47,0,0,0,1.71-.4,9.25,9.25,0,0,1-.5,4.66c-.33-.46-.94-.68-1.19-1.18a2.07,2.07,0,0,1-.1-1.16l.19-1.86" transform="translate(-806.51 -503.06)"/><path class="cls-6" d="M838.61,516.66a1.89,1.89,0,0,0,2.08-.49l-.63-.17a9.39,9.39,0,0,1-.5,4.46l.62-.17c-.53-.62-1.2-.8-1.21-1.77a19.27,19.27,0,0,1,.23-2.16c0-.48-.7-.48-.75,0a9.09,9.09,0,0,0-.18,2.84c.18.77.91,1.07,1.38,1.62a.38.38,0,0,0,.63-.16,10,10,0,0,0,.5-4.86c0-.29-.45-.35-.63-.17a1.14,1.14,0,0,1-1.34.31c-.46-.17-.65.55-.2.72Z" transform="translate(-806.51 -503.06)"/></g><g class="cls-5"><path class="cls-2" d="M843.3,516.41l1.05-.54a.48.48,0,0,1,.47-.06.41.41,0,0,1,.16.3,6.62,6.62,0,0,1-.15,2.76l-.32,1.59c-.22-.25-.45-.51-.66-.77a4.5,4.5,0,0,1-.56-.81,2.61,2.61,0,0,1,.1-2.51" transform="translate(-806.51 -503.06)"/><path class="cls-6" d="M843.49,516.73c.15-.07,1-.62,1.13-.52s0,1.32,0,1.58c-.11.86-.31,1.72-.48,2.57l.63-.17c-.95-1.06-1.84-2.18-1.07-3.63.23-.43-.42-.8-.65-.38-.95,1.79,0,3.19,1.19,4.54a.37.37,0,0,0,.62-.16c.27-1.35.92-3.18.47-4.55-.37-1.15-1.53-.28-2.23.08-.43.22-.05.87.38.64Z" transform="translate(-806.51 -503.06)"/></g><g class="cls-5"><path class="cls-2" d="M847.43,517.21a8,8,0,0,1,.87-1.73,2.08,2.08,0,0,1,.66,1.89,18.33,18.33,0,0,1-.44,3.53c0,.09-.06.2-.16.23a.25.25,0,0,1-.12,0,1.81,1.81,0,0,1-1-1.77,11.78,11.78,0,0,0,0-2.14" transform="translate(-806.51 -503.06)"/><path class="cls-6" d="M847.79,517.31a9.7,9.7,0,0,1,.83-1.64l-.59.08c1.07.87.46,3.32.25,4.46,0,.13,0,.26-.08.39s-.07.26-.14,0a1.65,1.65,0,0,1-.4-1c-.09-.79.1-1.58,0-2.37-.06-.48-.81-.48-.75,0,.14,1.18-.35,2.56.39,3.63.29.42.88.89,1.37.52.31-.23.3-.79.36-1.13a17.82,17.82,0,0,0,.25-2.06c.08-1,.16-2.22-.73-2.94a.38.38,0,0,0-.59.07,10.27,10.27,0,0,0-.9,1.82c-.17.45.55.64.72.2Z" transform="translate(-806.51 -503.06)"/></g><g class="cls-5"><path class="cls-2" d="M851.21,516.61c.26-.4.52-.79.79-1.18a.8.8,0,0,1,.2-.21.48.48,0,0,1,.61.21,1.39,1.39,0,0,1,.12.7,13.92,13.92,0,0,1-1.06,5,3.53,3.53,0,0,1-.73-2.73c0-.64,0-1.28,0-1.93" transform="translate(-806.51 -503.06)"/><path class="cls-6" d="M851.54,516.8c.2-.3.55-1.31,1-.67.18.25-.1,1.34-.14,1.64a15,15,0,0,1-.9,3.23l.62-.17c-1-1.07-.61-3.05-.59-4.39a.38.38,0,0,0-.75,0c0,1.63-.37,3.61.81,4.92a.38.38,0,0,0,.63-.16,14.93,14.93,0,0,0,.91-3.28,4.53,4.53,0,0,0,0-2.63c-.79-1.41-1.86.52-2.26,1.14-.26.4.38.78.65.37Z" transform="translate(-806.51 -503.06)"/></g><g class="cls-5"><path class="cls-2" d="M854.7,516.44l.88-1.29a.71.71,0,0,1,.44-.36c.37,0,.56.43.58.8a7.4,7.4,0,0,1-1.06,4.33,5.26,5.26,0,0,1-.67-3.57" transform="translate(-806.51 -503.06)"/><path class="cls-6" d="M855,516.63c.13-.19.82-1.46,1.18-1.17.19.14,0,1.24,0,1.47a7.25,7.25,0,0,1-1,2.8h.65a5.08,5.08,0,0,1-.62-3.28c.06-.48-.66-.68-.73-.2a6,6,0,0,0,.7,3.86.38.38,0,0,0,.65,0c.76-1.32,1.63-3.56,1-5.08-.71-1.72-2.05.61-2.48,1.22-.27.4.38.77.65.38Z" transform="translate(-806.51 -503.06)"/></g><path class="cls-3" d="M858.21,514.12c-.49-.17-1,.31-1.11.82a3.57,3.57,0,0,0,.23,1.54,8.44,8.44,0,0,1-.13,4.85,21.15,21.15,0,0,0,.28-4.13l-1,8.12c.73-.09,1-1,1.15-1.69l1-5.86a4.6,4.6,0,0,0,1.5,2.08,1.94,1.94,0,0,1,.57.57,1.5,1.5,0,0,1,0,1.08l-1.19,4,1.48.25a27.29,27.29,0,0,1,1.29-5.93,2.86,2.86,0,0,1,2.06.76,2.8,2.8,0,0,1,.31,2.06l-.42,3.87,1.09.09a47.58,47.58,0,0,0,1.58-7.93l2.08,2a3,3,0,0,1,.66.77c.49.91.05,2-.39,3l.25-1.58-.2,1.94a.7.7,0,0,0,0,.38.5.5,0,0,0,.55.22c.68-.12.91-1,1-1.64l.57-4.12c.41,1.18,2,1.87,2,3.13,0,.86-.76,1.59-.72,2.45a.64.64,0,0,0,.19.45.54.54,0,0,0,.71-.12,1.47,1.47,0,0,0,.29-.73,35,35,0,0,0,.63-5.3l2.33,1.94a1.15,1.15,0,0,1,.37.45c.11.33-.1.67-.16,1a1.22,1.22,0,0,0,1.18,1.36,37.78,37.78,0,0,1,.47-5.2l1.3,1.48a16.86,16.86,0,0,0,.78-4.67c0-.77-.11-1.69-.81-2a1.43,1.43,0,0,0-1.64.53,4.16,4.16,0,0,0-.67,1.72,10.75,10.75,0,0,0-2.22-2,.89.89,0,0,0-.59-.21.87.87,0,0,0-.59.52,5,5,0,0,0-.63,2c-.45-.57-.68-1.29-1.16-1.82s-1.45-.78-1.9-.22a1.79,1.79,0,0,0-.28,1l-.21,2.41a25,25,0,0,0-2.41-3.56c-.28-.34-.68-.71-1.11-.58a1,1,0,0,0-.53.51,4.73,4.73,0,0,0-.64,2.32,4.5,4.5,0,0,0-1.39-2.16,1.66,1.66,0,0,0-1.94-.37c-.73.5-.48,1.67-.92,2.45a4.21,4.21,0,0,0-2.94-2.66" transform="translate(-806.51 -503.06)"/><path class="cls-3" d="M858.21,513.75a1.38,1.38,0,0,0-1.47,1.09c-.18.57.14,1.2.23,1.73a9.92,9.92,0,0,1-.13,4.66l.72.2a26,26,0,0,0,.29-4.23.38.38,0,0,0-.75,0l-.94,8.12c0,.32.34.42.56.32A2.06,2.06,0,0,0,858,524a55,55,0,0,0,1.1-6.13l-.68.09c.44,1,1.42,1.55,1.87,2.42.61,1.17-.73,3.85-1.08,5a.39.39,0,0,0,.26.46l1.48.24a.39.39,0,0,0,.48-.36,28.4,28.4,0,0,1,.56-3.32c.28-1.22-.05-2,1.42-1.1,1.3.78,1,.87.82,2.28-.1,1-.21,1.93-.31,2.9,0,.21.19.36.37.38l1.09.08a.37.37,0,0,0,.36-.27,53.55,53.55,0,0,0,1.59-8l-.64.27c1.5,1.43,3.47,2.57,2.3,5.28l.69.29.24-1.58-.74-.1c-.09.85-.76,3.18.91,2.88,1.83-.32,1.61-4.8,1.78-6l-.69.09c.32.61.88,1,1.2,1.61,1.65,3-.22,1.7,0,3.68.06.5.15.82.63.95,2,.56,1.87-5.58,1.93-6.55l-.64.26c.58.49,2,1.28,2.32,2,.18.37,0,.91.12,1.3.24,1,.4,1.3,1.44,1.62a.38.38,0,0,0,.47-.36,45.79,45.79,0,0,1,.46-5.1l-.63.16,1.31,1.49a.38.38,0,0,0,.63-.17c.43-1.53,1.89-6-.17-7.08-1.66-.88-2.61,1.24-2.9,2.45l.62-.16c-.56-.65-2.06-2.59-3.17-2.35s-1.34,2-1.48,2.78l.68-.09c-.6-.93-1.5-3.05-3.06-2.49-1.39.5-1.09,2.94-1.18,4l.7-.19c-.56-1-2.26-4.66-3.85-4.33-1.23.26-1.45,2.24-1.54,3.21l.73-.1c-.44-1.2-1.49-3.07-3-3s-1.49,1.78-1.92,2.91l.69-.09a4.93,4.93,0,0,0-3.17-2.83c-.46-.15-.66.57-.2.72a4.51,4.51,0,0,1,2.72,2.48c.15.33.58.18.69-.09s.14-1.07.35-1.32c0-.64.48-.63,1.36,0a1.42,1.42,0,0,1,1.81,1.38.38.38,0,0,0,.74-.1c.45-4.79,3-.15,4,1.5a.38.38,0,0,0,.7-.19c.1-1.18-.16-1.49,1.12-2s1-.19,1.73.85a.37.37,0,0,0,.68-.09l.12-.69c0-1.28.48-1.57,1.36-.87a3.54,3.54,0,0,1,1.92,1.46.38.38,0,0,0,.63-.17c0-.79.4-1,1.27-.47,1.08-.25,1.43.11,1.06,1.08.21,1-.43,2.66-.71,3.62l.63-.16L879,518.81a.38.38,0,0,0-.63.17c-.13.89-.25,1.79-.33,2.69,0,.14-.16,1.73-.12,1.74-.3-.06-.22-1-.3-1.26-.48-1.25-1.74-2-2.8-2.91a.38.38,0,0,0-.64.27,19.42,19.42,0,0,1-.54,4.76c-.25.75-.3.5-.21-.14.12-.89.38-.3.39-1.27,0-1.42-1.4-2.26-2-3.42a.38.38,0,0,0-.69.09,33.06,33.06,0,0,1-.5,3.71c-.16.62,0,.79-.53,1.24-.79.69-.23-1.17-.18-1.63s-.67-.52-.74-.1l-.24,1.58c-.06.38.5.72.69.29,1.33-3.09-.18-4-2.42-6.19a.38.38,0,0,0-.64.26,29.94,29.94,0,0,1-1.1,6.09,2,2,0,0,1-.65,1.42l-.06-.64c-.3-.73.32-2.44.34-3.26,0-1.94-.93-2.63-2.77-2.83a.38.38,0,0,0-.36.28c-.26.82-.52,1.65-.71,2.5a12.9,12.9,0,0,1-.48,2.56c-1.08,1.39,0-1.91.1-2.4.77-2.73-.74-2.35-1.82-4.83a.39.39,0,0,0-.69.09l-.69,3.91c-.18,1-.14,2.91-1.31,3.42l.56.32.94-8.12h-.75a24.8,24.8,0,0,1-.26,4c-.07.46.59.68.72.2a10,10,0,0,0,.43-2.93c0-.7-.71-4,.22-4,.48,0,.48-.77,0-.75Z" transform="translate(-806.51 -503.06)"/><path class="cls-4" d="M862.41,520.13a16.86,16.86,0,0,0,1.79,1.36c.4.27.78-.38.38-.65a14.11,14.11,0,0,1-1.64-1.24c-.36-.32-.89.21-.53.53Z" transform="translate(-806.51 -503.06)"/><path class="cls-4" d="M867.37,520a6.92,6.92,0,0,1,1.16,1.07c.31.37.84-.16.53-.53a7.42,7.42,0,0,0-1.31-1.19c-.39-.28-.77.37-.38.65Z" transform="translate(-806.51 -503.06)"/><path class="cls-4" d="M871.21,521l1.16,1.07c.35.33.89-.2.53-.53l-1.16-1.07c-.35-.33-.88.2-.53.53Z" transform="translate(-806.51 -503.06)"/><path class="cls-4" d="M874.82,520.28l1,1.42c.28.39.93,0,.65-.38l-1-1.42c-.27-.39-.92,0-.64.38Z" transform="translate(-806.51 -503.06)"/><path class="cls-4" d="M878.84,519.72l.6,1.29c.21.44.85.06.65-.38l-.6-1.29c-.21-.44-.85-.06-.65.38Z" transform="translate(-806.51 -503.06)"/><path class="cls-7" d="M858.66,513.15l-.22-4.5c0-.48-.77-.48-.75,0l.22,4.5c0,.48.77.48.75,0Z" transform="translate(-806.51 -503.06)"/><path class="cls-7" d="M875.64,512.77l-.11-3.75a.38.38,0,0,0-.75,0l.11,3.75a.38.38,0,0,0,.75,0Z" transform="translate(-806.51 -503.06)"/><g class="cls-5"><path class="cls-2" d="M859.12,516.52a.73.73,0,0,0,1,.18,1.91,1.91,0,0,0,.7-.81,11.51,11.51,0,0,1-.54,4.36,31.55,31.55,0,0,1-1.07-3.15" transform="translate(-806.51 -503.06)"/><path class="cls-6" d="M858.85,516.79c.82.88,1.79.09,2.25-.71l-.7-.19a12,12,0,0,1-.52,4.26h.72c-.41-1-.76-2.08-1.07-3.15a.37.37,0,0,0-.72.2,31.55,31.55,0,0,0,1.07,3.15.37.37,0,0,0,.72,0,12.46,12.46,0,0,0,.55-4.46.37.37,0,0,0-.69-.19,1,1,0,0,1-1.08.56c-.33-.36-.86.17-.53.53Z" transform="translate(-806.51 -503.06)"/></g><g class="cls-5"><path class="cls-2" d="M863.27,516.66a1.47,1.47,0,0,0,1.71-.4,9.25,9.25,0,0,1-.5,4.66c-.33-.46-.94-.68-1.2-1.18a2.07,2.07,0,0,1-.09-1.16l.19-1.86" transform="translate(-806.51 -503.06)"/><path class="cls-6" d="M863.17,517a1.87,1.87,0,0,0,2.07-.49l-.62-.17a9.27,9.27,0,0,1-.51,4.46l.63-.17c-.53-.62-1.2-.8-1.21-1.77a19.27,19.27,0,0,1,.23-2.16c0-.48-.7-.48-.75,0a8.8,8.8,0,0,0-.18,2.84c.18.77.91,1.07,1.38,1.63a.38.38,0,0,0,.63-.17,10.16,10.16,0,0,0,.5-4.86.38.38,0,0,0-.63-.16,1.16,1.16,0,0,1-1.35.3c-.45-.17-.65.55-.19.72Z" transform="translate(-806.51 -503.06)"/></g><g class="cls-5"><path class="cls-2" d="M867.86,516.77l1-.54a.47.47,0,0,1,.47-.06.41.41,0,0,1,.16.3,6.79,6.79,0,0,1-.16,2.76l-.31,1.59c-.23-.25-.45-.51-.66-.77a4.55,4.55,0,0,1-.57-.81,2.66,2.66,0,0,1,.1-2.51" transform="translate(-806.51 -503.06)"/><path class="cls-6" d="M868.05,517.09c.15-.07,1-.62,1.13-.52s0,1.32,0,1.58c-.11.86-.31,1.72-.48,2.57l.63-.17c-1-1.06-1.84-2.18-1.07-3.63.23-.42-.42-.8-.65-.38-1,1.79,0,3.19,1.19,4.54a.37.37,0,0,0,.62-.16c.27-1.35.92-3.18.47-4.55-.37-1.15-1.53-.28-2.23.08-.43.22,0,.87.38.64Z" transform="translate(-806.51 -503.06)"/></g><g class="cls-5"><path class="cls-2" d="M872,517.57a8,8,0,0,1,.87-1.73,2.08,2.08,0,0,1,.66,1.89,19.15,19.15,0,0,1-.44,3.53c0,.09-.06.2-.16.23a.32.32,0,0,1-.13,0,1.8,1.8,0,0,1-1-1.77,11.78,11.78,0,0,0,0-2.14" transform="translate(-806.51 -503.06)"/><path class="cls-6" d="M872.35,517.67a9.7,9.7,0,0,1,.83-1.64l-.59.08c1.07.87.46,3.32.25,4.47,0,.13-.05.25-.08.38s-.07.26-.14,0a1.62,1.62,0,0,1-.4-1c-.1-.79.1-1.58,0-2.37-.06-.48-.81-.48-.75,0,.14,1.18-.35,2.56.39,3.63.29.43.88.89,1.37.52.31-.23.3-.79.36-1.13a17.82,17.82,0,0,0,.25-2.06c.08-1,.16-2.22-.73-2.94a.38.38,0,0,0-.59.07,10.27,10.27,0,0,0-.9,1.82c-.18.45.55.64.72.2Z" transform="translate(-806.51 -503.06)"/></g><g class="cls-5"><path class="cls-2" d="M875.77,517c.26-.39.52-.79.79-1.18a.8.8,0,0,1,.2-.21.48.48,0,0,1,.61.21,1.39,1.39,0,0,1,.12.7,13.92,13.92,0,0,1-1.06,5,3.58,3.58,0,0,1-.74-2.73l0-1.93" transform="translate(-806.51 -503.06)"/><path class="cls-6" d="M876.1,517.16c.19-.3.55-1.3,1-.67.18.25-.1,1.34-.14,1.64a14.51,14.51,0,0,1-.91,3.23l.63-.17c-1-1.07-.61-3.05-.59-4.39a.38.38,0,0,0-.75,0c0,1.63-.37,3.61.81,4.92a.38.38,0,0,0,.63-.16,14.93,14.93,0,0,0,.91-3.28,4.53,4.53,0,0,0,0-2.63c-.79-1.41-1.87.52-2.26,1.14-.26.4.38.78.65.37Z" transform="translate(-806.51 -503.06)"/></g><g class="cls-5"><path class="cls-2" d="M879.26,516.8l.88-1.29a.71.71,0,0,1,.44-.36c.37,0,.55.43.58.8a7.47,7.47,0,0,1-1.06,4.33,5.25,5.25,0,0,1-.67-3.57" transform="translate(-806.51 -503.06)"/><path class="cls-6" d="M879.58,517c.13-.19.82-1.46,1.18-1.17.19.14,0,1.24,0,1.47a7.2,7.2,0,0,1-1,2.8h.65a5.08,5.08,0,0,1-.62-3.28c.06-.48-.66-.68-.73-.2a6,6,0,0,0,.7,3.86.38.38,0,0,0,.65,0c.76-1.32,1.63-3.56,1-5.08-.72-1.72-2.06.61-2.48,1.22-.27.4.38.77.65.38Z" transform="translate(-806.51 -503.06)"/></g><path class="cls-4" d="M886.06,519.62a17,17,0,0,0,1.79,1.37c.4.26.78-.39.37-.65a15,15,0,0,1-1.63-1.25c-.36-.32-.89.21-.53.53Z" transform="translate(-806.51 -503.06)"/><path class="cls-4" d="M891,519.51a6.17,6.17,0,0,1,1.16,1.07c.31.37.84-.17.53-.53a6.72,6.72,0,0,0-1.31-1.19c-.4-.28-.77.37-.38.65Z" transform="translate(-806.51 -503.06)"/><path class="cls-4" d="M894.86,520.53,896,521.6c.35.33.88-.2.53-.53L895.39,520c-.35-.32-.88.21-.53.54Z" transform="translate(-806.51 -503.06)"/><g class="cls-5"><path class="cls-2" d="M882.77,516a.73.73,0,0,0,1,.18,2,2,0,0,0,.7-.81,11.51,11.51,0,0,1-.54,4.36,29.36,29.36,0,0,1-1.07-3.16" transform="translate(-806.51 -503.06)"/><path class="cls-6" d="M882.5,516.28c.82.88,1.79.09,2.25-.7l-.7-.19a12.05,12.05,0,0,1-.52,4.26h.72a30.88,30.88,0,0,1-1.07-3.16.37.37,0,0,0-.72.2,32.62,32.62,0,0,0,1.07,3.16.38.38,0,0,0,.72,0,12.49,12.49,0,0,0,.55-4.46.38.38,0,0,0-.7-.19.94.94,0,0,1-1.07.55c-.33-.35-.86.18-.53.53Z" transform="translate(-806.51 -503.06)"/></g><g class="cls-5"><path class="cls-2" d="M886.91,516.15a1.47,1.47,0,0,0,1.72-.39,9.26,9.26,0,0,1-.5,4.66c-.33-.46-.94-.68-1.2-1.18a2.08,2.08,0,0,1-.09-1.16l.19-1.87" transform="translate(-806.51 -503.06)"/><path class="cls-6" d="M886.82,516.51a1.87,1.87,0,0,0,2.07-.49l-.62-.16a9.3,9.3,0,0,1-.51,4.46l.63-.17c-.53-.63-1.2-.8-1.21-1.78a19.79,19.79,0,0,1,.23-2.16c.05-.48-.7-.47-.75,0a8.86,8.86,0,0,0-.18,2.85c.18.76.91,1.07,1.38,1.62a.38.38,0,0,0,.63-.16,10.18,10.18,0,0,0,.5-4.86c0-.29-.45-.35-.63-.17a1.16,1.16,0,0,1-1.35.3c-.45-.16-.65.56-.19.72Z" transform="translate(-806.51 -503.06)"/></g><g class="cls-5"><path class="cls-2" d="M891.51,516.27l1-.54c.14-.08.33-.16.47-.07a.47.47,0,0,1,.16.3,6.84,6.84,0,0,1-.16,2.77l-.31,1.59c-.23-.25-.45-.51-.66-.77a4.62,4.62,0,0,1-.57-.82,2.64,2.64,0,0,1,.1-2.5" transform="translate(-806.51 -503.06)"/><path class="cls-6" d="M891.7,516.59c.15-.08,1-.62,1.13-.53s0,1.32,0,1.58c-.11.87-.31,1.72-.48,2.58l.63-.17c-1-1.06-1.84-2.18-1.07-3.63.22-.43-.42-.81-.65-.38-.95,1.79,0,3.19,1.19,4.54a.37.37,0,0,0,.62-.16c.27-1.35.92-3.18.47-4.56-.37-1.14-1.53-.28-2.23.08-.43.22-.05.87.38.65Z" transform="translate(-806.51 -503.06)"/></g><g class="cls-5"><path class="cls-2" d="M895.64,517.06a8.64,8.64,0,0,1,.86-1.72,2,2,0,0,1,.67,1.88,19,19,0,0,1-.44,3.53c0,.1-.06.21-.16.23a.3.3,0,0,1-.13,0,1.8,1.8,0,0,1-1-1.77,11.89,11.89,0,0,0,0-2.15" transform="translate(-806.51 -503.06)"/><path class="cls-6" d="M896,517.16a9.61,9.61,0,0,1,.83-1.63l-.59.07c1.07.87.46,3.33.25,4.47,0,.13,0,.26-.08.39s-.07.26-.14,0a1.56,1.56,0,0,1-.4-1c-.1-.78.1-1.57,0-2.37-.06-.47-.81-.48-.75,0,.14,1.19-.35,2.57.39,3.64.29.42.88.88,1.37.51.31-.23.3-.78.36-1.12.12-.69.2-1.38.25-2.07.08-1,.16-2.22-.73-2.94a.39.39,0,0,0-.59.08,10.18,10.18,0,0,0-.9,1.81c-.18.45.55.65.72.2Z" transform="translate(-806.51 -503.06)"/></g><path class="cls-4" d="M812.26,514.55c-.91-1.13-2.77-2.77-4.12-1.15-.86,1-.25,2.85-.26,4,0,2.26-.5,4.49-.7,6.73-.1,1.07-.07,3.13,1.4,1.85,2.14-1.85,1.82-7.19,1.83-9.63l-.74.1c.53,1.43.06,3,1.52,3.93.41.25.79-.4.38-.65-1.09-.66-.77-2.38-1.18-3.48a.37.37,0,0,0-.73.1,34.33,34.33,0,0,1-.28,5.07,6.44,6.44,0,0,1-.56,2.41c-1.45,2.06-.82-.44-.75-1,.18-1.49.44-3,.52-4.48,0-.83-.15-1.89,0-2.69l-.06-.73c1.5-1,2.58-1,3.23.16.3.37.83-.16.53-.53Z" transform="translate(-806.51 -503.06)"/><path class="cls-4" d="M816.8,514.89c-.95-.95-2.64-4.08-4.09-1.78-.79,1.24-.49,4.33-.72,5.72a37.48,37.48,0,0,1-1.92,6.89.38.38,0,0,0,.36.48,3,3,0,0,1,2,.31c.24.1.46-.14.47-.36.26-3.37,2.25-6.34,1.83-9.77-.06-.48-.81-.48-.75,0,.29,2.36-.59,4.41-1.24,6.63a10.48,10.48,0,0,1-.53,2.37c-1,.74-1-.25-1-.72,0-1,.76-2.43,1-3.44s.44-2.07.6-3.13c.12-.82-.07-2.46.31-3.16-.11-.65.25-.83,1.09-.56.64-.39,1.06-.32,1.27.19-.24-.15,1.27,1.39.74.86a.38.38,0,0,0,.53-.53Z" transform="translate(-806.51 -503.06)"/><path class="cls-4" d="M821.07,516c-.74-1.13-2.27-4.85-4.12-3-1.18,1.18-.51,4.59-.73,6-.37,2.53-1.1,5-1.71,7.5a.38.38,0,0,0,.36.48,3,3,0,0,1,2,.32.37.37,0,0,0,.46-.26,61.77,61.77,0,0,0,2-10.8c0-.48-.71-.47-.75,0a59.22,59.22,0,0,1-1.3,8c-.16.64-.34,2.82-1.59,2-.53-.35,0-1.36.15-1.89a49.67,49.67,0,0,0,1.26-6.15c.08-.76-.24-4.95,1.69-4.36.46.15,1.36,2.1,1.64,2.54s.91,0,.65-.38Z" transform="translate(-806.51 -503.06)"/><path class="cls-4" d="M825.31,516.13c-.4-1.11-2-4.7-3.68-3.18-.85.75-.53,2.68-.58,3.6a58.74,58.74,0,0,1-1.19,7.59c-.1.55-.39,1.2.21,1.59a3,3,0,0,0,2.12-.14c.63-.44.4-1.2.46-1.87.19-2.2,1-4.2.89-6.43,0-.48-.78-.48-.75,0,.12,2-.53,3.67-.79,5.57-.12.87.25,1.87-.88,2.14s-.35-1.31-.21-2c.31-1.53.58-3.06.74-4.62a12.56,12.56,0,0,1,.19-2.75c-.28-1.16.33-1.57,1.81-1.23a6.76,6.76,0,0,1,.93,1.93c.17.45.89.25.73-.2Z" transform="translate(-806.51 -503.06)"/><path class="cls-4" d="M828.69,514.7c-.91-1.42-2.4-3.39-3.55-.91-.75,1.61-.34,4-.55,5.71-.27,2.17-1.06,4.33-1,6.53,0,.18.16.4.37.37a3,3,0,0,1,1.42,0,.38.38,0,0,0,.37-.28c.63-3.13,1.16-6.28,1.61-9.45.07-.47-.66-.68-.72-.2-.27,1.9-.56,3.79-.9,5.68-.1.58-.1,2.37-.53,2.83-1.29,1.42-.79-.66-.62-1.55.28-1.47.58-2.91.74-4.39.1-.88.16-1.75.19-2.63,0-.39,0-.77,0-1.16q1.78-1.9,2.43-.19c.26.41.91,0,.65-.38Z" transform="translate(-806.51 -503.06)"/><path class="cls-4" d="M832.38,514.15c-.49-1.55-2-2.68-3.19-1-.79,1.05-.53,2.57-.59,3.79a32.77,32.77,0,0,1-1.24,7.23.37.37,0,0,0,.36.47,1.6,1.6,0,0,1,1.88.73c.17.36.67.15.7-.19l.65-8.78c0-.48-.71-.47-.75,0l-.65,8.78.7-.19c-.41-.84-.27-.58-1.09-1.09-.27-.17-.62.08-.8-.23s.32-1.64.36-1.85a30.37,30.37,0,0,0,.49-3.13c.08-.73.13-1.46.16-2.19l0-.87c-.2-1.18.55-1.6,2.27-1.28a.37.37,0,0,0,.72-.2Z" transform="translate(-806.51 -503.06)"/><path class="cls-7" d="M810,512.93l-.22-4.5c0-.48-.77-.48-.75,0l.22,4.5c0,.48.78.48.75,0Z" transform="translate(-806.51 -503.06)"/><path class="cls-7" d="M814.26,512.56l-.28-3.84c0-.48-.79-.49-.75,0l.28,3.84c0,.48.79.48.75,0Z" transform="translate(-806.51 -503.06)"/><path class="cls-7" d="M818.5,512.65l-.12-4.22a.38.38,0,0,0-.75,0l.12,4.22a.38.38,0,0,0,.75,0Z" transform="translate(-806.51 -503.06)"/><path class="cls-7" d="M822.92,512.92a19.28,19.28,0,0,1-.17-4c0-.48-.72-.48-.75,0a19.84,19.84,0,0,0,.19,4.22c.08.48.8.28.73-.2Z" transform="translate(-806.51 -503.06)"/><path class="cls-7" d="M827,512.56l-.11-3.75a.38.38,0,0,0-.75,0l.11,3.75a.38.38,0,0,0,.75,0Z" transform="translate(-806.51 -503.06)"/><path class="cls-7" d="M830.78,512.65c-.09-1.44-.11-2.87-.07-4.31,0-.48-.73-.48-.75,0,0,1.44,0,2.87.07,4.31,0,.48.78.48.75,0Z" transform="translate(-806.51 -503.06)"/><path class="cls-4" d="M836.36,514.4c-.91-1.13-2.77-2.76-4.12-1.15-.86,1-.25,2.86-.26,4,0,2.26-.5,4.48-.7,6.73-.1,1.07-.07,3.12,1.4,1.85,2.14-1.86,1.82-7.19,1.83-9.63l-.74.1c.53,1.42.06,3,1.52,3.92.41.25.79-.39.38-.65-1.09-.66-.77-2.38-1.18-3.47a.37.37,0,0,0-.73.1,34.33,34.33,0,0,1-.28,5.07,6.63,6.63,0,0,1-.56,2.41c-1.46,2.06-.82-.45-.75-1.05.18-1.5.44-3,.52-4.49,0-.82-.15-1.89,0-2.69l-.06-.72q2.25-1.56,3.23.15c.3.38.83-.15.53-.53Z" transform="translate(-806.51 -503.06)"/><path class="cls-4" d="M840.9,514.74c-.95-1-2.64-4.08-4.09-1.78-.79,1.25-.49,4.34-.72,5.73a37.48,37.48,0,0,1-1.92,6.89.37.37,0,0,0,.36.47,3.09,3.09,0,0,1,2,.32c.24.09.46-.15.47-.36.26-3.37,2.25-6.34,1.83-9.78-.06-.47-.81-.48-.75,0,.29,2.37-.59,4.42-1.24,6.64a10.48,10.48,0,0,1-.53,2.37c-1,.73-1-.25-1-.72,0-1,.76-2.43,1-3.44s.44-2.08.6-3.13c.11-.82-.07-2.46.31-3.17-.11-.64.25-.82,1.09-.55.64-.39,1.06-.33,1.27.18-.24-.14,1.27,1.4.74.86a.38.38,0,0,0,.53-.53Z" transform="translate(-806.51 -503.06)"/><path class="cls-4" d="M845.17,515.82c-.74-1.14-2.27-4.86-4.12-3-1.18,1.18-.51,4.58-.73,6-.37,2.54-1.1,5-1.71,7.51a.37.37,0,0,0,.36.47,3,3,0,0,1,2,.33.38.38,0,0,0,.46-.27,61.83,61.83,0,0,0,2-10.79c0-.48-.71-.48-.75,0a57.94,57.94,0,0,1-1.31,8c-.15.64-.33,2.82-1.58,2-.53-.35,0-1.37.15-1.89a49.67,49.67,0,0,0,1.26-6.15c.08-.76-.25-5,1.68-4.36.47.14,1.37,2.1,1.65,2.54s.91,0,.65-.38Z" transform="translate(-806.51 -503.06)"/><path class="cls-4" d="M849.41,516c-.4-1.1-2-4.69-3.68-3.17-.85.75-.53,2.68-.58,3.59A60.39,60.39,0,0,1,844,524c-.1.55-.39,1.19.21,1.59a3.11,3.11,0,0,0,2.12-.14c.63-.45.4-1.2.46-1.87.19-2.2,1-4.2.89-6.43,0-.48-.78-.49-.75,0,.12,2-.53,3.66-.79,5.57-.12.86.25,1.87-.88,2.13s-.35-1.3-.21-2c.31-1.53.58-3.07.74-4.63a12.47,12.47,0,0,1,.19-2.74c-.28-1.17.33-1.58,1.81-1.23a6.83,6.83,0,0,1,.93,1.92c.17.45.89.26.73-.2Z" transform="translate(-806.51 -503.06)"/><path class="cls-4" d="M852.79,514.56c-.91-1.42-2.4-3.39-3.55-.91-.75,1.61-.34,4-.56,5.7-.26,2.18-1,4.33-.94,6.54a.38.38,0,0,0,.37.37,3,3,0,0,1,1.42,0,.38.38,0,0,0,.37-.28c.63-3.14,1.16-6.29,1.61-9.46.07-.47-.66-.67-.72-.2-.27,1.91-.56,3.8-.9,5.69-.1.57-.11,2.37-.53,2.83-1.29,1.42-.79-.66-.62-1.56.28-1.46.58-2.9.74-4.38.1-.88.16-1.76.19-2.64,0-.38,0-.77,0-1.15,1.19-1.27,2-1.34,2.43-.19.26.4.91,0,.65-.38Z" transform="translate(-806.51 -503.06)"/><path class="cls-4" d="M856.48,514c-.49-1.55-2-2.68-3.2-1-.78,1-.52,2.57-.58,3.8a32.78,32.78,0,0,1-1.24,7.22.38.38,0,0,0,.36.48,1.58,1.58,0,0,1,1.88.73c.17.36.67.14.7-.19l.65-8.78c0-.48-.71-.48-.75,0l-.65,8.78.7-.19c-.41-.85-.27-.58-1.09-1.1-.27-.17-.62.09-.8-.22s.32-1.65.36-1.86a29.77,29.77,0,0,0,.49-3.12c.08-.73.13-1.46.16-2.19l0-.88c-.2-1.17.55-1.6,2.27-1.27a.37.37,0,0,0,.72-.2Z" transform="translate(-806.51 -503.06)"/><path class="cls-7" d="M834.1,512.79l-.22-4.5c0-.48-.77-.48-.75,0l.22,4.5c0,.48.78.48.75,0Z" transform="translate(-806.51 -503.06)"/><path class="cls-7" d="M838.36,512.42l-.28-3.85c0-.48-.79-.48-.75,0l.28,3.85c0,.47.79.48.75,0Z" transform="translate(-806.51 -503.06)"/><path class="cls-7" d="M842.6,512.51l-.12-4.22a.38.38,0,0,0-.75,0l.12,4.22a.38.38,0,0,0,.75,0Z" transform="translate(-806.51 -503.06)"/><path class="cls-7" d="M847,512.78a18.63,18.63,0,0,1-.17-4c0-.48-.72-.48-.75,0a19.84,19.84,0,0,0,.19,4.22c.08.48.8.27.73-.2Z" transform="translate(-806.51 -503.06)"/><path class="cls-7" d="M851.08,512.41l-.11-3.75a.38.38,0,0,0-.75,0l.11,3.75a.38.38,0,0,0,.75,0Z" transform="translate(-806.51 -503.06)"/><path class="cls-7" d="M854.88,512.51c-.09-1.44-.11-2.88-.07-4.31,0-.49-.73-.49-.75,0,0,1.43,0,2.87.07,4.31,0,.48.78.48.75,0Z" transform="translate(-806.51 -503.06)"/><path class="cls-4" d="M860.92,514.76c-.91-1.12-2.77-2.76-4.12-1.14-.86,1-.25,2.85-.26,4,0,2.26-.5,4.48-.7,6.73-.1,1.07-.08,3.12,1.4,1.85,2.14-1.86,1.82-7.19,1.83-9.63l-.74.1c.53,1.42.06,3,1.52,3.92a.37.37,0,0,0,.38-.64c-1.09-.67-.77-2.38-1.18-3.48a.37.37,0,0,0-.73.1,34.33,34.33,0,0,1-.28,5.07,6.63,6.63,0,0,1-.56,2.41c-1.46,2.06-.82-.45-.75-1.05.18-1.5.44-3,.52-4.49,0-.82-.15-1.89,0-2.69l-.07-.72q2.26-1.56,3.24.16c.3.37.83-.16.53-.54Z" transform="translate(-806.51 -503.06)"/><path class="cls-4" d="M865.46,515.1c-1-1-2.64-4.08-4.09-1.78-.8,1.25-.49,4.34-.72,5.73a37.48,37.48,0,0,1-1.92,6.89.37.37,0,0,0,.36.47,3.09,3.09,0,0,1,2,.32c.24.09.46-.15.47-.36.26-3.37,2.24-6.34,1.83-9.78-.06-.47-.81-.47-.75,0,.28,2.37-.59,4.42-1.24,6.64a10.48,10.48,0,0,1-.53,2.37c-1,.73-1-.25-1-.72,0-1,.76-2.43,1-3.44s.44-2.08.6-3.13c.11-.82-.07-2.46.31-3.17-.12-.64.25-.82,1.09-.55.64-.39,1.06-.33,1.27.18-.24-.14,1.27,1.4.74.86a.38.38,0,0,0,.53-.53Z" transform="translate(-806.51 -503.06)"/><path class="cls-4" d="M869.73,516.18c-.74-1.14-2.27-4.86-4.12-3-1.18,1.18-.51,4.58-.73,6-.37,2.54-1.1,5-1.71,7.51a.37.37,0,0,0,.36.47,3,3,0,0,1,2,.33.39.39,0,0,0,.46-.26,62.12,62.12,0,0,0,2-10.8c0-.48-.71-.48-.75,0a59.51,59.51,0,0,1-1.31,8c-.15.64-.33,2.82-1.58,2-.53-.35,0-1.37.14-1.89a46.25,46.25,0,0,0,1.26-6.15c.09-.76-.24-5,1.69-4.36.47.15,1.37,2.1,1.65,2.54s.91,0,.65-.38Z" transform="translate(-806.51 -503.06)"/><path class="cls-4" d="M874,516.34c-.4-1.1-2-4.69-3.68-3.17-.85.75-.53,2.68-.59,3.6a58.72,58.72,0,0,1-1.18,7.59c-.1.55-.39,1.19.21,1.59a3.11,3.11,0,0,0,2.12-.14c.62-.45.4-1.2.46-1.87.19-2.2,1-4.2.89-6.43,0-.48-.78-.49-.75,0,.12,2-.53,3.66-.79,5.57-.12.86.25,1.87-.88,2.13s-.35-1.3-.21-2c.3-1.53.58-3.07.74-4.63a12.47,12.47,0,0,1,.19-2.74c-.28-1.17.33-1.58,1.81-1.23a6.83,6.83,0,0,1,.93,1.92c.17.45.89.26.73-.2Z" transform="translate(-806.51 -503.06)"/><path class="cls-4" d="M877.35,514.92c-.91-1.42-2.4-3.39-3.55-.91-.75,1.61-.34,4-.56,5.7-.26,2.18-1,4.33-.94,6.54a.37.37,0,0,0,.37.37,3,3,0,0,1,1.42,0,.38.38,0,0,0,.37-.28c.63-3.14,1.16-6.29,1.61-9.46.07-.47-.66-.67-.72-.2-.27,1.91-.56,3.8-.9,5.69-.1.58-.11,2.37-.53,2.83-1.29,1.42-.79-.66-.62-1.56.28-1.46.58-2.9.74-4.38.1-.88.15-1.76.19-2.64,0-.38,0-.77,0-1.15,1.19-1.27,2-1.34,2.43-.19.26.4.91,0,.65-.38Z" transform="translate(-806.51 -503.06)"/><path class="cls-4" d="M881,514.37c-.49-1.55-1.95-2.68-3.2-1-.78,1-.52,2.57-.58,3.8a32.78,32.78,0,0,1-1.24,7.22.38.38,0,0,0,.36.48,1.58,1.58,0,0,1,1.88.73c.17.36.67.14.7-.19l.65-8.78c0-.48-.71-.48-.75,0l-.65,8.78.7-.19c-.41-.85-.28-.58-1.09-1.1-.27-.17-.63.09-.8-.22s.32-1.65.36-1.86a29.77,29.77,0,0,0,.49-3.12c.08-.73.13-1.46.16-2.19l0-.87c-.2-1.18.55-1.61,2.27-1.28a.37.37,0,0,0,.72-.2Z" transform="translate(-806.51 -503.06)"/><path class="cls-7" d="M862.92,512.78l-.29-3.85c0-.47-.78-.48-.75,0l.29,3.85c0,.48.79.48.75,0Z" transform="translate(-806.51 -503.06)"/><path class="cls-7" d="M867.15,512.87l-.11-4.22a.38.38,0,0,0-.75,0l.11,4.22c0,.48.77.48.75,0Z" transform="translate(-806.51 -503.06)"/><path class="cls-7" d="M871.58,513.14a18.63,18.63,0,0,1-.17-4c0-.48-.72-.48-.75,0a19.84,19.84,0,0,0,.19,4.22c.07.48.8.27.73-.2Z" transform="translate(-806.51 -503.06)"/><path class="cls-7" d="M879.44,512.87c-.09-1.44-.11-2.88-.07-4.31,0-.49-.73-.49-.75,0,0,1.43,0,2.87.07,4.31,0,.48.78.48.75,0Z" transform="translate(-806.51 -503.06)"/><path class="cls-7" d="M882.31,512.64l-.22-4.49c0-.48-.77-.49-.75,0l.22,4.49c0,.48.77.49.75,0Z" transform="translate(-806.51 -503.06)"/><path class="cls-7" d="M886.57,512.27l-.29-3.84c0-.48-.78-.48-.75,0l.29,3.84c0,.48.79.49.75,0Z" transform="translate(-806.51 -503.06)"/><path class="cls-7" d="M890.8,512.36l-.11-4.22a.38.38,0,0,0-.75,0l.11,4.22c0,.49.77.49.75,0Z" transform="translate(-806.51 -503.06)"/><path class="cls-7" d="M895.23,512.64a18.68,18.68,0,0,1-.17-4c0-.49-.72-.48-.75,0a19.9,19.9,0,0,0,.19,4.22c.07.47.8.27.73-.2Z" transform="translate(-806.51 -503.06)"/><path class="cls-4" d="M884.57,514.26c-.91-1.13-2.77-2.77-4.12-1.15-.86,1-.25,2.85-.26,4,0,2.26-.5,4.49-.7,6.73-.1,1.08-.08,3.13,1.39,1.86,2.15-1.86,1.83-7.19,1.83-9.63l-.73.1c.53,1.42.06,3,1.52,3.92.41.25.79-.4.38-.65-1.09-.66-.77-2.38-1.18-3.47a.38.38,0,0,0-.74.1,31.74,31.74,0,0,1-.28,5.06,6.43,6.43,0,0,1-.55,2.42c-1.46,2-.82-.45-.75-1.06.18-1.49.44-3,.52-4.48,0-.82-.15-1.89,0-2.69l-.07-.73q2.26-1.54,3.24.16c.3.38.83-.16.53-.53Z" transform="translate(-806.51 -503.06)"/><path class="cls-4" d="M889.11,514.6c-1-1-2.64-4.08-4.1-1.78-.79,1.25-.48,4.33-.71,5.72a38.05,38.05,0,0,1-1.92,6.89.38.38,0,0,0,.36.48,3.08,3.08,0,0,1,2,.31c.24.1.46-.14.47-.36.26-3.36,2.24-6.33,1.83-9.77-.06-.47-.81-.48-.75,0,.28,2.36-.59,4.42-1.24,6.63-.12.39-.27,2.18-.53,2.37-.95.74-1-.25-1-.72,0-1,.76-2.43,1-3.44s.44-2.07.59-3.12c.12-.83-.06-2.47.32-3.17-.12-.64.25-.83,1.09-.56.64-.38,1.06-.32,1.27.19-.24-.15,1.27,1.4.74.86a.38.38,0,0,0,.53-.53Z" transform="translate(-806.51 -503.06)"/><path class="cls-4" d="M893.38,515.68c-.74-1.14-2.27-4.86-4.12-3-1.18,1.19-.51,4.59-.73,6-.38,2.53-1.1,5-1.71,7.51a.38.38,0,0,0,.36.47,3.08,3.08,0,0,1,2,.32.37.37,0,0,0,.46-.26,61.83,61.83,0,0,0,2-10.79c0-.48-.71-.48-.75,0a59.51,59.51,0,0,1-1.31,8c-.15.64-.33,2.81-1.58,2-.53-.34,0-1.36.14-1.89a45.93,45.93,0,0,0,1.26-6.15c.09-.76-.24-5,1.69-4.35.47.14,1.37,2.1,1.65,2.53s.91,0,.65-.37Z" transform="translate(-806.51 -503.06)"/><path class="cls-4" d="M897.62,515.84c-.4-1.11-2-4.69-3.68-3.18-.85.75-.53,2.68-.59,3.6a58.72,58.72,0,0,1-1.18,7.59c-.11.56-.39,1.2.21,1.59a3,3,0,0,0,2.11-.14c.63-.44.41-1.2.47-1.87.19-2.19,1-4.2.89-6.43,0-.48-.78-.48-.75,0,.12,2-.53,3.67-.79,5.57-.12.87.25,1.88-.88,2.14s-.35-1.3-.22-2c.31-1.54.59-3.07.75-4.63a12.6,12.6,0,0,1,.19-2.75c-.28-1.16.32-1.57,1.81-1.23a7,7,0,0,1,.93,1.93c.17.45.89.26.73-.2Z" transform="translate(-806.51 -503.06)"/><path class="cls-8" d="M812.87,573.77q-.3-4-.38-8.09a29.83,29.83,0,0,0-.35-5.09c-.54-2.78-1.94-5.39-2.07-8.22a39.3,39.3,0,0,1,.51-5.4c.19-2.16,0-4.34,0-6.51a29.81,29.81,0,0,1,1.92-10.31,5.32,5.32,0,0,0,.56-3.22c-.3-1.07-1.78-1.81-2.54-1l-.23-.2a18.44,18.44,0,0,0-1.9,6.28,35.76,35.76,0,0,0-.15,4.63l0,5.42c0,2,0,4,.2,5.93.13,1.43.34,2.87.39,4.31a51.67,51.67,0,0,1-.21,5.56,87.15,87.15,0,0,0,.51,16.15" transform="translate(-806.51 -503.06)"/><path class="cls-4" d="M813.25,573.77c-.34-4.62.14-9.59-.94-14.11-.62-2.61-1.81-5-1.87-7.74s.63-5.44.57-8.2a40.71,40.71,0,0,1,.42-8.4c.45-2.38,1.74-4.71,2-7.08a2.6,2.6,0,0,0-.83-2.55c-.58-.45-2.06-.22-2.07-.23a.37.37,0,0,0-.59.08,22.65,22.65,0,0,0-2.12,10.16c0,4.22-.08,8.51.31,12.71a99,99,0,0,1,0,12.3,90.81,90.81,0,0,0,.63,13.29c.06.48.81.48.75,0a92.51,92.51,0,0,1-.65-12.34c.07-4,.54-7.95.14-12s-.38-8.1-.42-12.16a37.39,37.39,0,0,1,.24-6.26c.16-.95,1.51-5,1.39-5.09a.39.39,0,0,0,.46,0c1.78.74,2.36,1.74,1.73,3-.21.53-.4,1.07-.6,1.61-.28.84-.53,1.68-.75,2.53a30.7,30.7,0,0,0-.82,5.31c-.13,1.82,0,3.64,0,5.47a61.84,61.84,0,0,1-.52,6.39c-.32,3.62,1.36,6.66,2,10.12.81,4.22.42,8.8.73,13.08,0,.48.78.48.75,0Z" transform="translate(-806.51 -503.06)"/><path class="cls-9" d="M813.27,574.29c-.91-2-.46-4.34-.31-6.54a23.49,23.49,0,0,0-1.13-9,28.48,28.48,0,0,1-1.15-3.68,17.38,17.38,0,0,1-.17-3.46c.11-7.81.26-15.8,3-23.11.32-.86.78-1.8,1.67-2a2,2,0,0,1,2.13,1.18,4.94,4.94,0,0,1,.3,2.59c-.46,5.14-2.85,10-3,15.17-.06,2,.23,4.06.35,6.09.19,3.42-.11,6.86,0,10.29a96.72,96.72,0,0,0,1.34,12.58" transform="translate(-806.51 -503.06)"/><path class="cls-4" d="M813.63,574.19c-1.26-3.46,0-7.46-.44-11.08-.51-4-2.34-7.4-2.31-11.47,0-3.91.12-7.85.52-11.74a54.29,54.29,0,0,1,1-6.11c.2-.88.42-1.75.67-2.61q.26-.85.54-1.71c.11-1.17.78-1.33,2-.47,1.45-.26,2,.16,1.66,1.27a19.81,19.81,0,0,1-.28,2c-.17,1-.4,2-.65,2.94-.42,1.68-.92,3.33-1.31,5a34,34,0,0,0-.48,10.41c.29,4-.1,8.08,0,12.13a107,107,0,0,0,1.33,11.71c.07.48.8.28.72-.2a94.84,94.84,0,0,1-1.29-16.23c.1-4.47-.63-9.05-.29-13.49.34-4.6,2.32-8.89,2.86-13.46.2-1.73,0-5.74-2.86-5-1.06.29-1.5,1.36-1.89,2.27a33,33,0,0,0-1.86,6.91,82.71,82.71,0,0,0-1.09,13.14,42.44,42.44,0,0,0,0,5.86c.25,2.19,1.25,4.16,1.77,6.28a25.06,25.06,0,0,1,.55,8,13.24,13.24,0,0,0,.39,5.81c.16.45.89.26.72-.2Z" transform="translate(-806.51 -503.06)"/><path class="cls-10" d="M816.52,574.47a27.3,27.3,0,0,1-1-8.26l-.39-18.66a39.15,39.15,0,0,1,.1-4.72,37.34,37.34,0,0,1,.72-4.05l2.24-10.41a6.51,6.51,0,0,1,.66-2,2.15,2.15,0,0,1,1.68-1.1,2.06,2.06,0,0,1,1.77,1.19,4.77,4.77,0,0,1,.41,2.18c0,4-1.68,7.75-2.21,11.69-.23,1.63-.26,3.27-.5,4.89s-.72,3.3-1,5a17.27,17.27,0,0,0-.32,4.91c.15,1.62.61,3.19.88,4.8a40.35,40.35,0,0,1,.41,5.6l.22,8.43" transform="translate(-806.51 -503.06)"/><path class="cls-4" d="M816.88,574.37c-1.28-4.2-1-8.73-1.11-13.07l-.25-11.78A52.72,52.72,0,0,1,816.69,537l1.22-5.68a12.28,12.28,0,0,1,.61-2.84c.14-1.57,1.35-2,3.65-1.2a7.21,7.21,0,0,1,.12,1.85c0,3.83-1.69,7.47-2.2,11.23-.29,2.15-.35,4.31-.79,6.45-.33,1.66-.8,3.28-1,5-.41,3.46.73,6.58,1,10,.37,4,.29,8.13.39,12.17a.38.38,0,0,0,.75,0c-.12-4.66.12-9.52-.64-14.13-.39-2.41-1.06-4.69-.88-7.16s1-4.84,1.36-7.3.43-5.08,1-7.59c.48-2.09,1.12-4.14,1.46-6.26.3-1.93.85-6.44-2.21-6.56s-3.21,5.25-3.62,7.13c-.89,4.16-2.14,8.39-2.27,12.66-.16,5.18.18,10.41.29,15.6.1,4.72-.23,9.68,1.16,14.25a.37.37,0,0,0,.72-.2Z" transform="translate(-806.51 -503.06)"/><path class="cls-11" d="M820.72,574.61c-1.34-3.2-.48-6.83-.55-10.3-.07-3.82-1.29-7.55-1.28-11.37a36.6,36.6,0,0,1,.47-4.9l1.5-10.41a32.93,32.93,0,0,1,.81-4.28,29.94,29.94,0,0,0,1.25-4.61,6.55,6.55,0,0,1,.28-1.77,1.48,1.48,0,0,1,1.33-1,1.41,1.41,0,0,1,1.16,1.14,4.35,4.35,0,0,1-.08,1.72,152.45,152.45,0,0,0-2.17,16.49,46.5,46.5,0,0,0-.14,6.57c.1,1.62.35,3.23.4,4.86.06,1.91-.17,3.83-.21,5.74a44.22,44.22,0,0,0,1.56,11.82" transform="translate(-806.51 -503.06)"/><path class="cls-4" d="M821.08,574.51c-1.39-3.87-.27-8-.64-12-.34-3.72-1.38-7.33-1.11-11.1.3-4.26,1.14-8.55,1.76-12.78a39.59,39.59,0,0,1,1-5.61c.26-.89.61-1.77.83-2.67a9.42,9.42,0,0,1,.32-1.66c1.59-.66,2.21-.51,1.87.45-.09.48-.18,1-.26,1.45-.17,1-.33,1.93-.48,2.9-.28,1.8-.52,3.61-.74,5.43a79.76,79.76,0,0,0-.8,12c.07,2.1.43,4.18.45,6.28s-.24,4.12-.23,6.18a48.13,48.13,0,0,0,1.59,11c.11.47.83.27.72-.2a55.74,55.74,0,0,1-1.35-15.55c.15-4.8-.56-9.48-.17-14.32.43-5.18,1.49-10.26,2.08-15.41.15-1.29,0-4.15-2.19-3.16-1.32.61-1.13,2.56-1.35,3.67-.36,1.88-1.14,3.65-1.52,5.53-.91,4.59-1.42,9.32-2,14-.56,4.16,0,7.89.63,12,.65,4.57-.71,9.4.87,13.8.16.45.88.26.72-.2Z" transform="translate(-806.51 -503.06)"/><path class="cls-12" d="M825.49,574.2c-1.37-3.88-1.49-8.07-1.61-12.17l-.26-9.53c0-1.79-.1-3.58-.08-5.36a113.25,113.25,0,0,1,2.38-19.57,6.4,6.4,0,0,1,.63-2,2.18,2.18,0,0,1,1.7-1.15,2.25,2.25,0,0,1,2,2.15,7.66,7.66,0,0,1-.68,3.17c-2.11,6-2.3,12.56-2.46,18.95a109.35,109.35,0,0,0,.22,13.79c.24,2.38.63,4.74,1,7.09l.82,4.94-.3-1" transform="translate(-806.51 -503.06)"/><path class="cls-4" d="M825.85,574.1c-1.28-3.92-1.47-8-1.59-12.07s-.26-8.14-.33-12.21a83.72,83.72,0,0,1,.69-12.05c.29-2.3.66-4.58,1.06-6.87a12.73,12.73,0,0,1,.6-3.23l.15-.7c2.82-.32,3.85.31,3.09,1.86-.31,1.73-1.11,3.43-1.48,5.17a50.8,50.8,0,0,0-.81,5.51c-.39,4-.45,8.07-.53,12.11a123.72,123.72,0,0,0,2.15,23l.73-.2-.31-1a.37.37,0,0,0-.72.2l.3,1a.38.38,0,0,0,.73-.2,133.22,133.22,0,0,1-2.06-14.87c-.27-5.13-.08-10.3.15-15.43A62.42,62.42,0,0,1,830.24,529c.51-1.71.72-5.13-2-5-3.14.14-3.14,6.08-3.48,8.07a99.8,99.8,0,0,0-1.53,14.11c-.13,4.95.15,9.92.29,14.87.13,4.48.24,8.94,1.65,13.23.15.46.87.26.72-.2Z" transform="translate(-806.51 -503.06)"/><path class="cls-13" d="M836.63,573.16c-.21-2.69-.34-5.39-.39-8.08a30,30,0,0,0-.35-5.1c-.53-2.78-1.94-5.39-2.07-8.21a40.92,40.92,0,0,1,.51-5.41c.19-2.16,0-4.34,0-6.51a29.82,29.82,0,0,1,1.93-10.31,5.32,5.32,0,0,0,.55-3.22c-.29-1.07-1.78-1.81-2.54-1l-.23-.19a18.61,18.61,0,0,0-1.9,6.27A37.64,37.64,0,0,0,832,536l0,5.42c0,2,0,4,.21,5.93.12,1.44.33,2.87.39,4.31.07,1.85-.1,3.71-.21,5.56a88,88,0,0,0,.5,16.15" transform="translate(-806.51 -503.06)"/><path class="cls-4" d="M837,573.16c-.34-4.62.15-9.59-.93-14.11-.63-2.61-1.82-5-1.88-7.74s.64-5.44.58-8.2a39.36,39.36,0,0,1,.42-8.4c.44-2.38,1.73-4.71,2-7.08a2.6,2.6,0,0,0-.83-2.55c-.58-.45-2-.22-2.07-.23a.38.38,0,0,0-.59.08,22.69,22.69,0,0,0-2.11,10.17c0,4.21-.08,8.5.3,12.7a99,99,0,0,1,0,12.3,92.22,92.22,0,0,0,.63,13.29c.06.48.81.48.75,0a92.51,92.51,0,0,1-.65-12.34c.07-4,.55-7.95.15-12s-.39-8.1-.43-12.16a37.39,37.39,0,0,1,.25-6.26c.15-.95,1.5-5,1.39-5.09a.4.4,0,0,0,.45.06c1.78.73,2.36,1.74,1.73,3-.2.53-.4,1.07-.59,1.61-.29.84-.54,1.68-.75,2.53a30.72,30.72,0,0,0-.83,5.31c-.12,1.82,0,3.65,0,5.47,0,2.17-.33,4.25-.52,6.39-.32,3.62,1.35,6.66,2,10.12.81,4.22.41,8.8.72,13.08,0,.48.79.49.75,0Z" transform="translate(-806.51 -503.06)"/><path class="cls-14" d="M837,573.68c-.9-2-.46-4.34-.31-6.54a23.51,23.51,0,0,0-1.13-9,28.43,28.43,0,0,1-1.14-3.68,17.39,17.39,0,0,1-.18-3.46c.11-7.81.26-15.8,3-23.11.32-.86.79-1.8,1.67-2a2,2,0,0,1,2.13,1.18,4.84,4.84,0,0,1,.3,2.59c-.45,5.14-2.85,10-3,15.17-.06,2,.22,4.06.34,6.09.2,3.42-.1,6.86,0,10.29A98.85,98.85,0,0,0,840,573.8" transform="translate(-806.51 -503.06)"/><path class="cls-4" d="M837.39,573.58c-1.27-3.46,0-7.46-.45-11.08-.51-4-2.34-7.4-2.31-11.47,0-3.91.12-7.85.52-11.74a52.46,52.46,0,0,1,1-6.11q.28-1.32.66-2.61c.17-.57.35-1.14.55-1.71.1-1.17.77-1.33,2-.46,1.46-.27,2,.15,1.67,1.26-.06.68-.16,1.36-.28,2-.18,1-.41,2-.66,2.94-.42,1.68-.91,3.33-1.31,5a34,34,0,0,0-.47,10.41c.28,4-.11,8.08.05,12.13a107.47,107.47,0,0,0,1.32,11.72c.08.47.8.27.73-.2a94,94,0,0,1-1.3-16.24c.1-4.47-.62-9-.29-13.49.34-4.6,2.32-8.89,2.86-13.46.21-1.73,0-5.74-2.86-5-1.06.29-1.5,1.36-1.88,2.27a32.33,32.33,0,0,0-1.87,6.92,83.67,83.67,0,0,0-1.09,13.13,42.44,42.44,0,0,0,0,5.86c.25,2.19,1.24,4.16,1.76,6.28a25.08,25.08,0,0,1,.55,8,13.24,13.24,0,0,0,.39,5.81c.17.45.89.26.73-.2Z" transform="translate(-806.51 -503.06)"/><path class="cls-15" d="M840.27,573.86a27.3,27.3,0,0,1-1-8.26l-.39-18.66a37.19,37.19,0,0,1,.1-4.72,39.9,39.9,0,0,1,.71-4.05l2.24-10.41a6.27,6.27,0,0,1,.67-2,2.11,2.11,0,0,1,1.67-1.09,2.05,2.05,0,0,1,1.77,1.18,4.64,4.64,0,0,1,.41,2.18c0,4-1.67,7.75-2.21,11.69-.22,1.63-.25,3.27-.49,4.9s-.72,3.29-1,4.94a17.69,17.69,0,0,0-.33,4.92c.15,1.61.62,3.19.89,4.79a41.94,41.94,0,0,1,.4,5.6l.22,8.43" transform="translate(-806.51 -503.06)"/><path class="cls-4" d="M840.63,573.76c-1.28-4.2-1-8.73-1.11-13.07l-.25-11.78a52.77,52.77,0,0,1,1.17-12.53l1.22-5.68a11.8,11.8,0,0,1,.62-2.84c.13-1.57,1.35-2,3.64-1.19a7.1,7.1,0,0,1,.12,1.84c0,3.83-1.68,7.47-2.2,11.23-.29,2.16-.35,4.31-.78,6.45-.34,1.66-.8,3.28-1,5-.4,3.47.73,6.58,1,10,.37,4,.29,8.13.39,12.17,0,.48.77.48.75,0-.12-4.66.13-9.52-.63-14.13-.4-2.41-1.06-4.69-.88-7.16s1-4.84,1.36-7.29.43-5.09,1-7.6c.48-2.09,1.12-4.14,1.46-6.26.31-1.93.86-6.44-2.21-6.56s-3.21,5.25-3.61,7.13c-.9,4.16-2.14,8.39-2.27,12.66-.16,5.18.17,10.41.28,15.6.1,4.72-.23,9.68,1.16,14.25a.37.37,0,0,0,.72-.2Z" transform="translate(-806.51 -503.06)"/><path class="cls-16" d="M844.47,574c-1.33-3.2-.48-6.83-.54-10.29-.08-3.82-1.3-7.56-1.29-11.38a35.19,35.19,0,0,1,.48-4.9l1.49-10.4a34,34,0,0,1,.81-4.28,29,29,0,0,0,1.25-4.62,7,7,0,0,1,.28-1.77,1.46,1.46,0,0,1,1.34-1,1.39,1.39,0,0,1,1.15,1.13,4,4,0,0,1-.08,1.72,152.42,152.42,0,0,0-2.16,16.49,46.51,46.51,0,0,0-.15,6.57c.11,1.62.36,3.23.4,4.86.06,1.91-.17,3.83-.21,5.74a44.62,44.62,0,0,0,1.56,11.82" transform="translate(-806.51 -503.06)"/><path class="cls-4" d="M844.83,573.9c-1.39-3.87-.27-7.95-.64-11.95-.34-3.72-1.37-7.33-1.11-11.1.3-4.26,1.15-8.55,1.76-12.78a39.62,39.62,0,0,1,1.06-5.61c.26-.89.6-1.77.83-2.67a8.59,8.59,0,0,1,.32-1.66q2.37-1,1.86.45c-.09.49-.17,1-.26,1.45-.17,1-.32,1.93-.47,2.9q-.42,2.7-.74,5.43a78.56,78.56,0,0,0-.81,12c.07,2.1.43,4.18.45,6.28s-.24,4.12-.22,6.18a47.57,47.57,0,0,0,1.58,11c.11.47.84.27.72-.2A55.71,55.71,0,0,1,847.81,558c.16-4.8-.56-9.48-.16-14.31.43-5.19,1.49-10.27,2.07-15.42.15-1.29,0-4.15-2.19-3.16-1.32.61-1.13,2.56-1.34,3.67-.36,1.88-1.15,3.65-1.53,5.53-.91,4.6-1.41,9.33-2,14-.57,4.16,0,7.89.62,12,.65,4.57-.71,9.4.87,13.8.16.45.89.26.72-.2Z" transform="translate(-806.51 -503.06)"/><path class="cls-17" d="M849.24,573.59c-1.36-3.88-1.49-8.06-1.6-12.17l-.27-9.53c0-1.79-.09-3.58-.07-5.36A112.26,112.26,0,0,1,849.67,527a6.42,6.42,0,0,1,.64-2,2.16,2.16,0,0,1,1.69-1.15,2.25,2.25,0,0,1,2,2.15,7.51,7.51,0,0,1-.68,3.17c-2.11,6-2.3,12.56-2.46,18.95a109.54,109.54,0,0,0,.22,13.8c.24,2.37.63,4.73,1,7.08l.83,4.94-.31-1" transform="translate(-806.51 -503.06)"/><path class="cls-4" d="M849.6,573.49c-1.28-3.92-1.47-8-1.59-12.07s-.26-8.14-.33-12.21a85.18,85.18,0,0,1,.69-12.05c.29-2.29.66-4.58,1.07-6.87a12.31,12.31,0,0,1,.6-3.23l.14-.7c2.83-.32,3.86.31,3.09,1.86-.3,1.73-1.11,3.43-1.47,5.17a48.8,48.8,0,0,0-.82,5.51c-.39,4-.45,8.08-.53,12.11a122.8,122.8,0,0,0,2.16,23l.72-.19-.31-1a.37.37,0,0,0-.72.2l.31,1a.37.37,0,0,0,.72-.19,133.7,133.7,0,0,1-2.05-14.88c-.27-5.13-.09-10.3.14-15.43A62.44,62.44,0,0,1,854,528.42c.5-1.71.72-5.13-2-5-3.13.14-3.14,6.08-3.48,8.08a101,101,0,0,0-1.53,14.1c-.13,4.95.16,9.92.3,14.87.12,4.48.23,8.94,1.64,13.23.15.46.87.26.72-.2Z" transform="translate(-806.51 -503.06)"/><path class="cls-18" d="M861.62,574.15q-.3-4-.38-8.09a28.86,28.86,0,0,0-.36-5.09c-.53-2.78-1.93-5.39-2.06-8.22a39.3,39.3,0,0,1,.51-5.4c.19-2.16,0-4.34,0-6.51a30.05,30.05,0,0,1,1.93-10.31,5.4,5.4,0,0,0,.56-3.22c-.3-1.07-1.78-1.81-2.54-1l-.23-.2a18.44,18.44,0,0,0-1.9,6.28A35.76,35.76,0,0,0,857,537l0,5.42c0,2,0,4,.2,5.93.13,1.43.33,2.87.39,4.31a54.39,54.39,0,0,1-.21,5.56,88,88,0,0,0,.5,16.15" transform="translate(-806.51 -503.06)"/><path class="cls-4" d="M862,574.15c-.34-4.62.14-9.59-.94-14.11-.62-2.61-1.81-5-1.87-7.74s.63-5.44.57-8.2a40.71,40.71,0,0,1,.42-8.4c.45-2.38,1.74-4.71,2-7.08a2.6,2.6,0,0,0-.82-2.55c-.58-.45-2.06-.22-2.08-.23a.36.36,0,0,0-.58.08,22.52,22.52,0,0,0-2.12,10.16c0,4.22-.08,8.51.31,12.71a101,101,0,0,1,0,12.3,90.81,90.81,0,0,0,.63,13.29c.06.48.81.48.75,0a90.87,90.87,0,0,1-.65-12.34c.06-4,.54-7.95.14-12s-.39-8.1-.42-12.16a37.39,37.39,0,0,1,.24-6.26c.16-.95,1.51-5,1.39-5.09a.39.39,0,0,0,.46,0c1.78.74,2.35,1.74,1.72,3-.2.53-.4,1.07-.59,1.61-.28.84-.53,1.68-.75,2.53a30.7,30.7,0,0,0-.82,5.31c-.13,1.82,0,3.64,0,5.47a61.84,61.84,0,0,1-.52,6.39c-.32,3.62,1.36,6.66,2,10.12.81,4.22.41,8.8.73,13.08,0,.48.78.48.75,0Z" transform="translate(-806.51 -503.06)"/><path class="cls-19" d="M862,574.67c-.91-2-.46-4.34-.31-6.54a23.49,23.49,0,0,0-1.13-9,28.48,28.48,0,0,1-1.15-3.68,18.17,18.17,0,0,1-.18-3.46c.12-7.81.27-15.8,3-23.11.31-.86.78-1.8,1.66-2a2,2,0,0,1,2.14,1.18,5,5,0,0,1,.3,2.59c-.46,5.14-2.85,10-3,15.17-.06,2,.23,4.06.35,6.09.19,3.42-.11,6.86,0,10.29A96.72,96.72,0,0,0,865,574.78" transform="translate(-806.51 -503.06)"/><path class="cls-4" d="M862.38,574.57c-1.26-3.46,0-7.46-.44-11.08-.52-4-2.34-7.4-2.31-11.47,0-3.91.12-7.85.52-11.74a54.29,54.29,0,0,1,1-6.11c.2-.88.42-1.75.67-2.61q.26-.85.54-1.71c.11-1.17.78-1.33,2-.47,1.45-.26,2,.16,1.66,1.27a19.81,19.81,0,0,1-.28,2c-.17,1-.41,2-.65,2.94-.42,1.68-.92,3.33-1.31,5a34,34,0,0,0-.48,10.41c.28,4-.1,8.08,0,12.13a107,107,0,0,0,1.33,11.71c.07.48.79.28.72-.2a93.84,93.84,0,0,1-1.29-16.23c.09-4.47-.63-9.05-.3-13.49.35-4.6,2.33-8.89,2.87-13.46.2-1.73,0-5.74-2.86-5-1.06.29-1.5,1.36-1.89,2.27a33,33,0,0,0-1.86,6.91,83.91,83.91,0,0,0-1.1,13.14,44.07,44.07,0,0,0,0,5.86c.25,2.19,1.25,4.16,1.77,6.28a25.06,25.06,0,0,1,.54,8,13.24,13.24,0,0,0,.4,5.81c.16.45.89.26.72-.2Z" transform="translate(-806.51 -503.06)"/><path class="cls-20" d="M865.27,574.85a27.3,27.3,0,0,1-1-8.26l-.39-18.66a39.15,39.15,0,0,1,.1-4.72,37.34,37.34,0,0,1,.72-4.05l2.24-10.41a6.51,6.51,0,0,1,.66-2,2.15,2.15,0,0,1,1.68-1.1,2.07,2.07,0,0,1,1.77,1.19,4.77,4.77,0,0,1,.41,2.18c0,4-1.68,7.75-2.22,11.69-.22,1.63-.25,3.27-.49,4.89s-.72,3.3-1,5a17.27,17.27,0,0,0-.32,4.91c.15,1.62.61,3.19.88,4.8a40.35,40.35,0,0,1,.41,5.6l.22,8.43" transform="translate(-806.51 -503.06)"/><path class="cls-4" d="M865.63,574.75c-1.28-4.2-1-8.73-1.11-13.07l-.25-11.78a52.2,52.2,0,0,1,1.17-12.53l1.22-5.68a12.28,12.28,0,0,1,.61-2.84c.14-1.57,1.35-2,3.65-1.2a7.21,7.21,0,0,1,.12,1.85c0,3.83-1.69,7.47-2.2,11.23-.29,2.15-.35,4.31-.79,6.45-.34,1.66-.8,3.28-1,5-.41,3.46.72,6.58,1,10,.37,4,.29,8.13.39,12.17a.38.38,0,0,0,.75,0c-.12-4.66.12-9.52-.64-14.13-.39-2.41-1.06-4.69-.88-7.16s1-4.84,1.36-7.3.43-5.08,1-7.59c.48-2.09,1.12-4.14,1.46-6.26.3-1.93.85-6.44-2.21-6.56s-3.21,5.25-3.62,7.13c-.89,4.16-2.14,8.39-2.27,12.66-.16,5.18.18,10.41.29,15.6.09,4.72-.24,9.68,1.16,14.25a.37.37,0,0,0,.72-.2Z" transform="translate(-806.51 -503.06)"/><path class="cls-21" d="M869.47,575c-1.34-3.2-.48-6.83-.55-10.3-.07-3.82-1.29-7.55-1.28-11.37a35,35,0,0,1,.47-4.9l1.5-10.41a34.67,34.67,0,0,1,.8-4.28,28.89,28.89,0,0,0,1.26-4.61,6.55,6.55,0,0,1,.28-1.77,1.47,1.47,0,0,1,1.33-1,1.41,1.41,0,0,1,1.16,1.14,4.35,4.35,0,0,1-.08,1.72,152.45,152.45,0,0,0-2.17,16.49,45.05,45.05,0,0,0-.14,6.57c.1,1.62.35,3.23.4,4.86.06,1.91-.17,3.83-.22,5.74a44.63,44.63,0,0,0,1.57,11.82" transform="translate(-806.51 -503.06)"/><path class="cls-4" d="M869.83,574.89c-1.39-3.87-.27-7.95-.64-11.95-.34-3.72-1.38-7.33-1.11-11.1.3-4.26,1.14-8.55,1.75-12.78a41.09,41.09,0,0,1,1.06-5.61c.26-.89.61-1.77.83-2.67a8.59,8.59,0,0,1,.32-1.66c1.59-.66,2.21-.51,1.87.45-.09.48-.18,1-.26,1.45-.17,1-.33,1.93-.48,2.9-.28,1.8-.52,3.61-.74,5.43a79.76,79.76,0,0,0-.8,12c.07,2.1.43,4.18.45,6.28s-.24,4.12-.23,6.18a48.12,48.12,0,0,0,1.58,11,.38.38,0,0,0,.73-.2A56.13,56.13,0,0,1,872.8,559c.16-4.8-.56-9.48-.16-14.32.43-5.18,1.49-10.26,2.08-15.41.15-1.29,0-4.15-2.19-3.16-1.32.61-1.13,2.56-1.35,3.67-.36,1.88-1.15,3.65-1.52,5.53-.91,4.59-1.42,9.32-2,14-.56,4.16,0,7.89.63,12,.65,4.57-.71,9.4.87,13.8.16.45.88.26.72-.2Z" transform="translate(-806.51 -503.06)"/><path class="cls-22" d="M874.24,574.58c-1.37-3.88-1.49-8.07-1.61-12.17l-.26-9.53c0-1.79-.1-3.58-.08-5.36A113.25,113.25,0,0,1,874.67,528a6.16,6.16,0,0,1,.63-2,2.16,2.16,0,0,1,1.7-1.15,2.26,2.26,0,0,1,2,2.15,7.66,7.66,0,0,1-.68,3.17c-2.11,6-2.3,12.56-2.47,18.95a111.26,111.26,0,0,0,.23,13.79c.23,2.38.63,4.74,1,7.09l.82,4.94-.3-1" transform="translate(-806.51 -503.06)"/><path class="cls-4" d="M874.6,574.48c-1.29-3.92-1.47-8-1.59-12.07s-.26-8.14-.33-12.21a83.72,83.72,0,0,1,.69-12.05c.29-2.3.66-4.58,1.06-6.87a12.73,12.73,0,0,1,.6-3.23l.15-.7c2.82-.32,3.85.31,3.09,1.86-.31,1.73-1.11,3.43-1.48,5.17a48.45,48.45,0,0,0-.81,5.51c-.39,4-.45,8.07-.53,12.11a123.72,123.72,0,0,0,2.15,23l.72-.2-.3-1a.38.38,0,0,0-.73.2l.31,1a.37.37,0,0,0,.72-.2,133.2,133.2,0,0,1-2.05-14.87c-.27-5.13-.08-10.3.15-15.43A62.42,62.42,0,0,1,879,529.41c.51-1.71.72-5.13-2-5-3.14.14-3.14,6.07-3.48,8.07a99.8,99.8,0,0,0-1.53,14.11c-.13,4.95.15,9.92.29,14.87.13,4.48.24,8.93,1.65,13.23.14.46.87.26.72-.2Z" transform="translate(-806.51 -503.06)"/><path class="cls-23" d="M885.44,573.1c-.21-2.69-.33-5.39-.38-8.09a30.89,30.89,0,0,0-.36-5.09c-.53-2.78-1.93-5.39-2.07-8.22a41.26,41.26,0,0,1,.52-5.41c.19-2.16,0-4.33,0-6.5a29.83,29.83,0,0,1,1.93-10.32,5.27,5.27,0,0,0,.55-3.21c-.29-1.07-1.77-1.82-2.54-1l-.22-.2a18.69,18.69,0,0,0-1.91,6.27,37.8,37.8,0,0,0-.15,4.64l.05,5.41c0,2,0,4,.21,5.93.13,1.44.33,2.87.39,4.31.07,1.86-.1,3.72-.21,5.57a88,88,0,0,0,.5,16.15" transform="translate(-806.51 -503.06)"/><path class="cls-4" d="M885.81,573.1c-.33-4.62.15-9.59-.93-14.11-.62-2.61-1.81-5-1.87-7.74s.63-5.44.57-8.21a39.3,39.3,0,0,1,.42-8.39c.45-2.39,1.74-4.71,2-7.08a2.57,2.57,0,0,0-.83-2.55c-.57-.45-2-.22-2.07-.23a.38.38,0,0,0-.59.07A22.69,22.69,0,0,0,880.41,535c0,4.22-.08,8.5.31,12.7a103,103,0,0,1,0,12.3,89.57,89.57,0,0,0,.63,13.3c0,.47.8.48.75,0a91,91,0,0,1-.66-12.35c.07-4,.55-8,.15-12s-.39-8.1-.42-12.17a37.27,37.27,0,0,1,.24-6.25c.15-1,1.5-5,1.39-5.1a.37.37,0,0,0,.45.06c1.79.74,2.36,1.74,1.73,3-.2.54-.4,1.08-.59,1.62-.28.83-.54,1.67-.75,2.53a30.76,30.76,0,0,0-.83,5.3c-.12,1.83,0,3.65,0,5.48a62.29,62.29,0,0,1-.52,6.39c-.32,3.61,1.36,6.65,2,10.12.81,4.22.41,8.79.72,13.08,0,.48.79.48.75,0Z" transform="translate(-806.51 -503.06)"/><path class="cls-24" d="M885.84,573.62c-.91-2-.47-4.34-.32-6.55a23.34,23.34,0,0,0-1.13-9,28.29,28.29,0,0,1-1.14-3.67,18.21,18.21,0,0,1-.18-3.46c.12-7.81.26-15.8,3-23.12.32-.85.79-1.79,1.67-2a2,2,0,0,1,2.14,1.18,4.93,4.93,0,0,1,.29,2.59c-.45,5.14-2.84,10-3,15.16-.06,2,.23,4.06.34,6.09.2,3.43-.1,6.86,0,10.29a96.68,96.68,0,0,0,1.34,12.59" transform="translate(-806.51 -503.06)"/><path class="cls-4" d="M886.2,573.52c-1.27-3.47,0-7.46-.44-11.09-.52-4-2.35-7.4-2.31-11.46s.11-7.85.51-11.75a52.79,52.79,0,0,1,1-6.11c.19-.87.41-1.74.67-2.6q.24-.87.54-1.71c.11-1.18.78-1.33,2-.47,1.45-.26,2,.16,1.66,1.27a19.62,19.62,0,0,1-.28,2c-.18,1-.41,2-.65,3-.43,1.67-.92,3.33-1.31,5a33.61,33.61,0,0,0-.48,10.4c.28,4-.1,8.09,0,12.14a104.63,104.63,0,0,0,1.33,11.71c.07.48.79.27.72-.2a94.93,94.93,0,0,1-1.3-16.23c.1-4.48-.62-9-.29-13.5s2.32-8.88,2.86-13.45c.21-1.74,0-5.74-2.85-5-1.07.28-1.5,1.36-1.89,2.26a33.25,33.25,0,0,0-1.87,6.92,84.89,84.89,0,0,0-1.09,13.13,44.22,44.22,0,0,0,0,5.87c.25,2.18,1.24,4.16,1.76,6.28a25,25,0,0,1,.55,7.95,13.44,13.44,0,0,0,.39,5.82c.17.45.89.26.73-.2Z" transform="translate(-806.51 -503.06)"/><path class="cls-25" d="M889.08,573.79a27.54,27.54,0,0,1-1-8.26l-.39-18.65a39.15,39.15,0,0,1,.1-4.72,36.91,36.91,0,0,1,.72-4l2.24-10.41a6.17,6.17,0,0,1,.66-2,2.13,2.13,0,0,1,1.68-1.1,2.07,2.07,0,0,1,1.77,1.19,4.74,4.74,0,0,1,.41,2.18c0,4-1.68,7.75-2.22,11.69-.22,1.62-.25,3.27-.49,4.89s-.72,3.29-1,4.95a17.62,17.62,0,0,0-.33,4.91c.16,1.62.62,3.19.89,4.79a38.89,38.89,0,0,1,.4,5.61l.22,8.43" transform="translate(-806.51 -503.06)"/><path class="cls-4" d="M889.45,573.69c-1.28-4.2-1-8.72-1.12-13.07l-.24-11.78a52.25,52.25,0,0,1,1.17-12.53l1.22-5.67a11.23,11.23,0,0,1,.61-2.84c.13-1.57,1.35-2,3.64-1.2a7.65,7.65,0,0,1,.13,1.85c0,3.83-1.69,7.46-2.2,11.23-.3,2.15-.36,4.31-.79,6.45-.34,1.66-.8,3.28-1,5-.4,3.46.73,6.57,1,10,.37,4,.29,8.13.4,12.18a.38.38,0,0,0,.75,0c-.12-4.67.12-9.52-.64-14.14-.4-2.4-1.06-4.69-.88-7.15s1-4.85,1.36-7.3.43-5.08,1-7.6c.49-2.08,1.13-4.14,1.46-6.26.31-1.92.86-6.44-2.2-6.55s-3.22,5.25-3.62,7.12c-.89,4.16-2.14,8.39-2.27,12.66-.16,5.19.17,10.42.28,15.6.1,4.73-.23,9.68,1.16,14.25.14.46.87.27.73-.2Z" transform="translate(-806.51 -503.06)"/><path class="cls-26" d="M893.28,573.94c-1.33-3.2-.47-6.83-.54-10.3-.07-3.82-1.3-7.56-1.28-11.38a34.89,34.89,0,0,1,.47-4.89l1.5-10.41a32.59,32.59,0,0,1,.8-4.28,29,29,0,0,0,1.25-4.62,6.89,6.89,0,0,1,.29-1.76,1.45,1.45,0,0,1,1.33-1,1.41,1.41,0,0,1,1.16,1.14,4.18,4.18,0,0,1-.09,1.72A152.42,152.42,0,0,0,896,544.63a46.47,46.47,0,0,0-.15,6.57c.11,1.62.36,3.23.41,4.85.05,1.92-.17,3.83-.22,5.75a45.09,45.09,0,0,0,1.56,11.82" transform="translate(-806.51 -503.06)"/><path class="cls-4" d="M893.65,573.84c-1.39-3.88-.27-8-.64-12-.35-3.72-1.38-7.32-1.11-11.09.3-4.27,1.14-8.55,1.75-12.78a39.36,39.36,0,0,1,1.06-5.61c.26-.9.6-1.77.83-2.68a8.74,8.74,0,0,1,.32-1.66c1.58-.66,2.2-.5,1.86.46-.09.48-.17,1-.26,1.44-.16,1-.32,1.94-.47,2.9q-.42,2.71-.74,5.44a78.47,78.47,0,0,0-.81,12c.08,2.1.44,4.17.46,6.27s-.25,4.12-.23,6.19a47.65,47.65,0,0,0,1.58,11,.37.37,0,0,0,.72-.2A55.74,55.74,0,0,1,896.62,558c.16-4.81-.56-9.49-.16-14.32.43-5.18,1.49-10.26,2.08-15.41.14-1.29,0-4.16-2.19-3.16-1.33.6-1.14,2.55-1.35,3.67-.36,1.88-1.15,3.65-1.52,5.53-.92,4.59-1.42,9.32-2.05,14-.56,4.16,0,7.89.62,12,.65,4.57-.71,9.4.87,13.81.16.45.89.26.73-.2Z" transform="translate(-806.51 -503.06)"/><path class="cls-27" d="M829.34,574.3a7.14,7.14,0,0,1-.83-3.23q-1.07-11.42-1.07-22.89a65.61,65.61,0,0,1,1-12.91c.27-1.38.63-2.75,1-4.12l.75-2.89a4.5,4.5,0,0,1,.85-2,1.56,1.56,0,0,1,1.94-.41c.2,1.77-.5,3.51-.88,5.25a29.88,29.88,0,0,0-.53,5.08,66.27,66.27,0,0,0,.09,10.45c.2,1.71.53,3.41.67,5.14a57.21,57.21,0,0,1-.06,7.05,109.09,109.09,0,0,0,.46,15.23" transform="translate(-806.51 -503.06)"/><path class="cls-4" d="M829.66,574.11c-1-2.15-1-5-1.14-7.33-.15-2.06-.28-4.13-.39-6.19q-.28-5.73-.31-11.46a72.62,72.62,0,0,1,.78-12.85c.3-1.7.72-3.36,1.15-5a12.93,12.93,0,0,1,.75-2.89c.1-1,.79-1.56,2.09-1.59a11.27,11.27,0,0,1-.35,2.09,60.61,60.61,0,0,0-.53,21.28c.5,3.86.11,7.7.06,11.58a113.53,113.53,0,0,0,.53,12.37c.05.48.8.48.75,0a113.53,113.53,0,0,1-.53-12.37c.05-3.91.44-7.79-.06-11.68a71.27,71.27,0,0,1-.62-12.39,38.19,38.19,0,0,1,.57-6.41,22.1,22.1,0,0,0,.9-5.35.4.4,0,0,0-.28-.36c-3.14-1.17-3.63,4.07-4.11,5.93a60.09,60.09,0,0,0-1.83,13.94c-.09,5.06,0,10.13.29,15.19q.21,4,.54,8.1c.17,2,.2,4,1.1,5.8.21.43.86,0,.64-.38Z" transform="translate(-806.51 -503.06)"/><path class="cls-26" d="M853.22,574.33a156.17,156.17,0,0,1-1.67-31.23c.24-5.22.8-10.59,3.29-15.18a4.08,4.08,0,0,1,1.23-1.55,1.63,1.63,0,0,1,1.87,0c.8.63.53,1.88.21,2.85a31,31,0,0,0-1.42,6.45,48.84,48.84,0,0,0-.07,6q.38,11.9.77,23.78l.28,8.62" transform="translate(-806.51 -503.06)"/><path class="cls-4" d="M853.58,574.23a158,158,0,0,1-1.83-24.77,101.88,101.88,0,0,1,.58-11.59,33.32,33.32,0,0,1,1.21-5.86,22,22,0,0,1,1.22-3.13l.4-.77q.69-1.85,2.81.36a9.9,9.9,0,0,1-.72,2.42c-.25.91-.46,1.84-.62,2.77a29,29,0,0,0-.4,4.56c-.05,3.79.19,7.6.31,11.39q.39,12.23.79,24.47c0,.48.77.49.75,0q-.48-14.72-1-29.43c-.15-4.95-.29-9.65,1.1-14.47.44-1.52,1.34-5-1.59-4.44-2.56.48-3.65,5.3-4.18,7.32a56.92,56.92,0,0,0-1.38,12.49,159.53,159.53,0,0,0,1.77,28.88c.08.48.8.27.73-.2Z" transform="translate(-806.51 -503.06)"/><path class="cls-28" d="M807.75,575.32c-.52-22.85-1.35-47.83,0-70.67,40.38-1.24,51.4-1.66,92.42,0,.52,22.84,1.35,47.82,0,70.67v.26c-29.7,1.27-47.07,1.28-92.42,0Zm7.93-7.8c37.11,1,51.32,1,75.62,0v-.21c1.1-17.6.43-36.85,0-54.46-33.57-1.27-42.58-1-75.62,0-1.11,17.61-.43,36.86,0,54.46Z" transform="translate(-806.51 -503.06)"/><path class="cls-4" d="M808.25,575.32c-.29-12.57-.64-25.13-.72-37.7,0-6.41,0-12.82.16-19.23.07-2.77.16-5.53.28-8.3,0-.91-.31-3.73.23-4.54.64-1,4.21-.55,5.21-.58,18.6-.57,37.19-1.13,55.79-.8q7.62.13,15.23.4l8.15.28,4.66.18a9.27,9.27,0,0,1,1.94.08c.84.63.54,1.73.56,2.71.3,12.6.64,25.21.66,37.82,0,6.24,0,12.48-.25,18.71q-.14,4.59-.38,9.16a10,10,0,0,1-.1,1.81c-.21.19.08-.37-.48-.2a14.35,14.35,0,0,1-3.48.15c-7.79.31-15.59.55-23.38.67-9.29.15-18.57.11-27.86,0q-8.43-.12-16.87-.32c-2-.05-19.35-.59-19.35-.28a.5.5,0,0,0-1,0v.26a.5.5,0,0,0,.5.5c24.65.7,49.31,1.33,74,.66,6.15-.16,12.3-.4,18.45-.66a.51.51,0,0,0,.5-.5c0-5.43.5-10.89.61-16.33.13-6.11.14-12.22.1-18.32-.1-12.1-.44-24.19-.71-36.28a.51.51,0,0,0-.5-.5c-15.48-.62-31-1.15-46.45-1.09-15.33.06-30.65.62-46,1.09a.51.51,0,0,0-.5.5c-1.36,23.53-.54,47.12,0,70.67C807.27,576,808.27,576,808.25,575.32Z" transform="translate(-806.51 -503.06)"/><path class="cls-4" d="M815.68,568c25.22.67,50.4,1,75.62,0a.51.51,0,0,0,.5-.5c0-4.08.4-8.18.5-12.25q.15-7.12.08-14.23c-.07-9.4-.35-18.79-.58-28.19a.52.52,0,0,0-.5-.5c-25.26-1-50.37-.73-75.62,0a.51.51,0,0,0-.5.5c-1.12,18.25,0,36.42,0,54.67a.5.5,0,0,0,1,0c0-9.46-.51-18.93-.59-28.39,0-5.21,0-10.43.12-15.64.07-2.32.15-4.65.26-7,0-1-.21-2.56.68-3.19.66-.47,3.37-.1,4.22-.13,15-.43,30-.85,45.06-.6q5.94.1,11.88.29l6.4.21,3.69.13c1.73.06,2.67-.35,2.94,1.45a61,61,0,0,1,.19,7.41l.18,7.53c.1,5.08.18,10.15.19,15.23s-.06,10.06-.24,15.09c0,1.24-.1,2.47-.16,3.71,0,.46.12,3.38-.2,3.66.32-.28-1.22-.22-1.43-.21l-2.52.09c-6.31.23-12.63.41-18.94.5-17.41.24-34.83-.21-52.23-.67A.5.5,0,0,0,815.68,568Z" transform="translate(-806.51 -503.06)"/><path class="cls-4" d="M808.23,504.94a12.68,12.68,0,0,0,7.06,9.53q-.57,26.74.44,53.5c11.29.66,22.6.7,33.91.75,14,0,27.94.11,41.87-.89q-3.24,3.2-6.52,6.35a6.49,6.49,0,0,1-2.11,1.54,6.27,6.27,0,0,1-2.07.27q-23.47.56-46.94-.1-6.25-.17-12.5-.4l-13.1-.44.66-2.72-.63,1.06a624.81,624.81,0,0,1,0-67.88" transform="translate(-806.51 -503.06)"/><path class="cls-4" d="M807.75,505.08c.71,4.09,2.92,6.6,6,9.13,1.89,1.55.92,5.84.89,8.19q-.06,4.7-.07,9.41,0,18.09.64,36.16a.51.51,0,0,0,.5.5c12.75.72,25.53.72,38.29.76,12.5,0,25,0,37.49-.9l-.36-.86c-2.3,2.27-4.53,4.73-7,6.81-1.67,1.42-3.77,1.23-5.84,1.27l-5.49.09q-11,.17-22,.06c-14.2-.13-28.39-.67-42.58-1.15l.49.63.65-2.72a.5.5,0,0,0-.91-.39l-.63,1.07.93.25a635.12,635.12,0,0,1,0-67.88c0-.64-1-.64-1,0a635.12,635.12,0,0,0,0,67.88.5.5,0,0,0,.93.25l.63-1.06-.91-.39-.66,2.72a.51.51,0,0,0,.48.64c15.19.51,30.37,1.08,45.57,1.18q11.49.06,23-.15c2.49-.05,5.43.41,7.55-1.16,2.72-2,5.09-4.86,7.5-7.24a.5.5,0,0,0-.35-.85c-16.42,1.15-32.91,1-49.35.85-4.16,0-8.32-.07-12.48-.17q-3.24-.07-6.48-.19l-3-.12c-.77,0-2.86.24-3.49-.17-1.15-.77-.66-4.21-.7-5.5-.06-2.15-.12-4.29-.17-6.44q-.15-6.2-.21-12.38-.15-14.37.15-28.74a.47.47,0,0,0-.24-.43,12.49,12.49,0,0,1-6.84-9.23c-.1-.63-1.07-.36-1,.27Z" transform="translate(-806.51 -503.06)"/></svg>