<svg id="Calque_1" data-name="Calque 1" xmlns="http://www.w3.org/2000/svg" viewBox="0 0 193.28 240.56"><defs><style>.cls-1{fill:#fff;}.cls-2{fill:#144391;}.cls-3{fill:#634e42;}.cls-4{fill:#1d1d1b;}.cls-5{opacity:0.55;}.cls-6{fill:#432918;}</style></defs><title>25</title><path class="cls-1" d="M813.61,439.55c-15.66-5.82-33.41,6.12-40,21.48s-5,32.82-3.36,49.45l9.66,95.63c1.13,11.14,3.15,23.81,12.57,29.88,3.88,2.49,8.52,3.46,13,4.39L845,648.44c20.42,4.17,41.61,8.34,61.89,3.57,10.89-2.57,21.81-8.34,26.8-18.35,3.85-7.75,3.61-16.83,3.28-25.48l-5.5-144.45c-.32-8.23-.75-16.88-5.08-23.89C918.43,427,900.94,424.51,885.87,425A209.89,209.89,0,0,0,811,441.45" transform="translate(-756.95 -420.57)"/><path class="cls-2" d="M813.75,439.07c-17.79-6.31-35.66,8.2-41.61,24.27-4,10.93-4.28,22.83-3.53,34.34.82,12.67,2.39,25.31,3.67,37.94l4,39.44c1.23,12.15,2.12,24.39,3.78,36.49,1.2,8.7,3.54,18.42,10.93,24,4.19,3.16,9.37,4.27,14.41,5.31q9.61,2,19.24,3.93c12.64,2.59,25.26,5.42,38,7.52,12.15,2,24.57,3.18,36.83,1.55,9.71-1.29,19.66-4.3,27.26-10.73,8.19-6.92,10.8-16.7,10.9-27.1.12-12.89-.86-25.85-1.35-38.73l-1.51-39.85-1.52-39.85c-.5-12.94-.73-25.92-1.53-38.84-.59-9.67-2.81-19.36-10.69-25.71-6.71-5.42-15.48-7.52-23.91-8.28-10.82-1-21.91.07-32.63,1.52a210.54,210.54,0,0,0-36.18,8.21c-5.89,1.89-11.69,4.06-17.4,6.47-.59.24-.33,1.21.26,1a210.46,210.46,0,0,1,68.23-16.12c17.47-1.11,41.92-.4,48.94,19.31,1.84,5.16,2.27,10.7,2.51,16.13.29,6.14.48,12.28.71,18.42l1.41,36.86,2.85,74.71c.23,6.23.49,12.45.7,18.67.2,5.72.28,11.56-1,17.17-2.42,10.26-10.11,17.37-19.55,21.44-22.08,9.54-47.77,4.14-70.34-.47l-36.07-7.37c-5.65-1.15-11.82-1.94-16.77-5.13a22.92,22.92,0,0,1-8.56-11.09c-3.75-9.45-3.94-20.19-4.95-30.18l-3.74-37-3.74-37c-1.14-11.34-2.65-22.76-2.44-34.18.2-10.74,2.06-22.05,8.15-31.12,5.2-7.74,13.3-14.05,22.53-16a25.05,25.05,0,0,1,13.51.94c.61.22.87-.75.27-1Z" transform="translate(-756.95 -420.57)"/><path class="cls-3" d="M758.18,424.55q92.63-2.62,185.3-3c1.33,0,3.49-.62,3.88.65,1,3.21,1.92,67.43,1.94,76.13.15,53.55.48,120.81-1,158.71-2.21,3.25-46.48,2.68-67.58,3.12-18.33.37-32.64.27-51-.09-22.69-.45-34.55-.91-57.25-.71-13.26.11-12.24-1.74-11.78-2.32-.57-46.51-2.29-85.58-2.86-132.1-.38-30.69.38-68.83,0-99.53ZM790.36,458c.25,22-.25,49.43,0,71.47.38,33.4,1.51,61.46,1.89,94.86-.3.41-1,1.74,7.79,1.66,15-.14,22.83.19,37.82.51,12.11.26,21.57.33,33.68.06,13.94-.31,43.2.1,44.66-2.23,1-27.22.74-75.51.64-114,0-6.25-.63-52.36-1.28-54.67-.26-.91-1.69-.47-2.56-.47q-61.23.27-122.45,2.16Z" transform="translate(-756.95 -420.57)"/><path class="cls-4" d="M758.18,425.3q55-1.56,110.08-2.33,27.39-.37,54.8-.56l14-.08c2.15,0,4.32.06,6.47,0,.9,0,2.65-.52,3.21.29.28.42.16,1.53.2,2,.08,1.18.14,2.36.2,3.54.85,17.92,1,35.88,1.27,53.81.32,21.91.29,43.83.32,65.74.05,29.65.07,59.31-.53,89q-.17,8.76-.46,17.52c-.06,1.74.51,2.43-1.12,2.93a22.44,22.44,0,0,1-4,.71c-10.12,1.21-20.45,1.13-30.62,1.26-28.37.37-56.73.77-85.09.19-14.89-.3-29.77-.71-44.66-.7-4.13,0-8.25.1-12.37,0-2.44,0-5.22.07-7.58-.68-.29-.09-.79-.17-1-.42,0,0,.1.17.05,0s.17-2,.16-2.49q0-3.69-.11-7.38c-.54-34.41-1.77-68.8-2.42-103.21-.63-32.71-.21-65.41-.2-98.13,0-3.69,0-7.39,0-11.08,0-1.93,0-3.86,0-5.79,0-1.54-.28-3.25.22-4.71.31-.92-1.13-1.31-1.44-.4-1,2.84-.26,6.66-.25,9.65q0,5.94,0,11.9c0,8.41,0,16.83-.09,25.24-.09,16.58-.22,33.17-.07,49.76.33,35.4,1.61,70.78,2.39,106.18q.3,13.74.49,27.48a22.2,22.2,0,0,1,0,2.31c0,.26-.2.45-.19.74,0,.74.63,1.16,1.24,1.46a13.12,13.12,0,0,0,4.69.86c4,.32,8,.16,12,.14q11.52,0,23,.14c16.53.28,33.05.79,49.58.9,14.43.11,28.85-.24,43.28-.36,12-.11,24.06-.12,36.08-.58,4.47-.17,9-.36,13.41-.93,1.46-.18,4.88-.24,5.79-1.74.47-.77.23-2.17.26-3,.05-1.5.1-3,.14-4.48q.13-4.49.24-9,.23-10.12.35-20.24c.19-15.37.25-30.74.28-46.11,0-27.26.12-54.54-.18-81.8-.21-18.52-.51-37-1.08-55.55-.11-3.51-.22-7-.41-10.53-.07-1.44.13-3.54-.47-4.9-.93-2.08-4.33-1.11-6.06-1.11l-14.45.08q-13.95.09-27.9.22-56.79.56-113.57,2-14,.35-27.89.74C757.22,423.83,757.21,425.33,758.18,425.3Z" transform="translate(-756.95 -420.57)"/><path class="cls-4" d="M789.61,458c.25,23-.23,46,0,69.06.22,24.43,1,48.86,1.53,73.29q.2,9.52.33,19.06c0,1.59-.17,3.52-.05,5a1.51,1.51,0,0,0,.44,1.22,4.55,4.55,0,0,0,2.45.82,43.2,43.2,0,0,0,6.73.25c5.48,0,11,0,16.45.07,11.25.18,22.49.57,33.74.66,9.9.08,19.8-.18,29.71-.27,8.31-.07,16.63-.07,24.94-.5a60.13,60.13,0,0,0,8.26-.78c1.92-.37,2.81-.67,2.88-2.72.65-19.59.67-39.21.69-58.82,0-32,.07-64-.78-96-.1-4,.32-8.5-.53-12.4a1.76,1.76,0,0,0-1-1.48,3.53,3.53,0,0,0-1.62-.1c-1.57,0-3.14.06-4.72.07l-19.91.15Q849.53,455,810,456q-9.71.27-19.41.56a.77.77,0,0,0-.72.55l-.19.62c-.29.92,1.15,1.32,1.44.4l.2-.62-.73.55q38.07-1.17,76.15-1.72,18.91-.27,37.83-.39c3,0,6,.08,8.94-.08,1.21-.06,1.16-.22,1.46.65.49,1.45.21,3.63.27,5.15,1,27.61.93,55.27,1,82.9,0,20.6.05,41.19-.29,61.79q-.09,6.3-.26,12.59l-.09,3a14.91,14.91,0,0,1,0,1.91c-.31.42-1.65.5-2.11.58-6.71,1.18-13.82,1-20.61,1-19.57.29-39.13.55-58.69.1-10.11-.23-20.21-.5-30.31-.46-2.57,0-5.16.12-7.72,0-.8-.06-1.57-.17-2.36-.3-.17,0-1.14-.45-.87-.14.07.07.12-2.87.12-3.35,0-3.23-.09-6.47-.15-9.7-.4-23.5-1.15-47-1.55-70.5-.37-22.44-.1-44.88-.09-67.32,0-5.28,0-10.57-.07-15.85A.75.75,0,0,0,789.61,458Z" transform="translate(-756.95 -420.57)"/><g class="cls-5"><path class="cls-6" d="M790.81,570.71q.72,25.51,1.45,51a5.62,5.62,0,0,0,.36,2.2c.87,1.87,3.35,2.17,5.42,2.22q50.72,1,101.46.53c5.58-.05,11.23-.13,16.62-1.59-10.87,8.46-23.41,19.66-26.92,22-6,3.95-16.93,12.43-16.93,12.43a100.07,100.07,0,0,1-16.24.63l-91.42-1.45a2.15,2.15,0,0,1-2.63-2.54l-1.79-51c-.32-9.34-1.57-59.31-1.57-59.31,0-12.85-.29-35.43-.84-60.84-.42-19.35.93-58.95.73-58.61l.2-.34q14.68,14.09,28.75,28.79a7.68,7.68,0,0,1,2.75,7.24q-1.56,55.13.65,110.28Z" transform="translate(-756.95 -420.57)"/><path class="cls-6" d="M790.06,570.71l1.05,36.8.25,8.83c.06,2.36-.43,5.58.54,7.8,1.55,3.55,7.08,2.79,10.11,2.84q37.31.72,74.61.61,10.18,0,20.39-.12c6.48-.06,13,0,19.31-1.64l-.73-1.26c-10.41,8.12-20.14,17-30.88,24.71-2.55,1.82-5.07,3.69-7.57,5.58a47.51,47.51,0,0,1-5,3.78c-1,.58-2.47.45-3.7.55-2.39.19-4.78.25-7.17.25-4.74,0-9.48-.12-14.21-.19L789,658.32l-14.41-.23-6.95-.11c-1.68,0-2.68.25-3.92-.94s-.76-.66-1-1.87a19.93,19.93,0,0,1-.08-2.45l-1-28.92c-.75-21.23-1.33-42.46-1.87-63.69-.54-21-.55-42-1-63-.45-23.09.17-46.1.49-69.18a7.3,7.3,0,0,0,0-1.75.74.74,0,0,0-.72-.55h0l.65,1.13.2-.34-1.18.15Q769,437,779.52,447.74q2.72,2.77,5.4,5.56c2,2.11,4.38,4,4.55,7.15.28,5-.23,10.09-.33,15.07q-.63,30.8-.06,61.61.31,17.63,1,35.26c0,1,1.53,1,1.5,0l-.05-1.68a.75.75,0,0,0-1.5,0l.05,1.68h1.5q-1.29-32.28-1.3-64.58,0-15.9.32-31.79c.1-5.15.59-10.42.34-15.57-.2-4.33-3.86-7.05-6.67-9.95q-12.3-12.71-25.06-24.95a.75.75,0,0,0-1.17.15l-.2.34a.76.76,0,0,0,.64,1.13h0l-.72-.55s0,1.46,0,1.92c0,1.7-.07,3.4-.11,5.1q-.2,8.13-.37,16.26c-.26,12.69-.46,25.39-.19,38.09.49,23,.47,46.1,1.06,69.14.53,20.92,1.08,41.84,1.81,62.75l1,29.41c.08,2.27,0,4.59.24,6.86.11,1.25.29,2.4,1.53,3s3.39.33,4.83.35l7.95.13,59.13.94c9.81.15,19.68.61,29.5.35,2.59-.06,6.59.3,8.83-1a56.79,56.79,0,0,0,5.13-3.9c4.33-3.26,8.91-6.22,13.19-9.53,5.34-4.13,10.39-8.63,15.58-12.93,3.22-2.67,6.46-5.31,9.75-7.88.63-.48-.06-1.42-.72-1.25-5.55,1.42-11.24,1.51-16.93,1.57s-11.61.09-17.41.12q-17.16.07-34.32,0T813,625.68l-8.46-.15a60,60,0,0,1-8.27-.27c-3.84-.62-3.24-4.4-3.33-7.45l-.25-8.83-1.09-38.27A.75.75,0,0,0,790.06,570.71Z" transform="translate(-756.95 -420.57)"/></g><g class="cls-5"><path class="cls-6" d="M946.88,424.08l-7.37,12.08c-3.75,6.14-7.52,12.32-10.21,19a115.1,115.1,0,0,0-3.69,11.13q-5,17.13-8.79,34.57.25-21.27-.65-42.54a7.7,7.7,0,0,1,.37-3.38,7.48,7.48,0,0,1,1.69-2.2L946.44,424" transform="translate(-756.95 -420.57)"/><path class="cls-6" d="M946.24,423.7c-7,11.43-14.9,22.72-19.22,35.5-4.58,13.49-7.86,27.55-10.92,41.46l1.47.2q.12-10.89,0-21.77c-.06-3.63-.14-7.25-.25-10.88s-.79-7.83-.33-11.5c.42-3.39,4.68-6.37,7-8.7l7.57-7.71L947,424.54c.68-.69-.38-1.76-1.06-1.07l-16.52,16.82-7.91,8.06c-1.91,1.94-5,4.09-5.79,6.8-1,3-.11,7,0,10.09q.19,5.94.3,11.87.22,11.88.08,23.75a.75.75,0,0,0,1.47.2,417.84,417.84,0,0,1,10.64-40.61c4.26-13,12.28-24.42,19.35-36a.75.75,0,0,0-1.29-.76Z" transform="translate(-756.95 -420.57)"/></g><path class="cls-4" d="M915.55,624.68a100.23,100.23,0,0,0,32.4,33c.83.51,1.58-.79.76-1.3a98.4,98.4,0,0,1-31.86-32.47.75.75,0,0,0-1.3.76Z" transform="translate(-756.95 -420.57)"/><path class="cls-4" d="M758.09,425.78c11.13,10.29,22,20.59,31.48,32.51.6.76,1.65-.31,1.06-1.06-9.44-11.92-20.35-22.22-31.48-32.51-.71-.65-1.78.41-1.06,1.06Z" transform="translate(-756.95 -420.57)"/><path class="cls-4" d="M916.5,455.33a251.46,251.46,0,0,1,17.35-18.7c2.76-2.71,5.54-5.39,8.29-8.11,1.39-1.37,2.8-2.73,4.15-4.14.87-.92,1.67-1.71,1.19-3-.33-.9-1.78-.51-1.44.4.4,1.09-3.63,4.39-4.37,5.13l-3.48,3.41c-2.46,2.4-4.94,4.8-7.38,7.23-5.38,5.35-10.53,10.9-15.37,16.74-.61.74.45,1.8,1.06,1.06Z" transform="translate(-756.95 -420.57)"/><path class="cls-4" d="M791.72,623.77C782,635,773.35,648.58,760.38,656.39a.75.75,0,0,0,.75,1.3c13.11-7.89,21.79-21.55,31.65-32.86.64-.73-.42-1.79-1.06-1.06Z" transform="translate(-756.95 -420.57)"/><path class="cls-4" d="M758.18,425.3q55-1.56,110.08-2.33,27.39-.37,54.8-.56l14-.08c2.15,0,4.32.06,6.47,0,.9,0,2.65-.52,3.21.29.28.42.16,1.53.2,2,.08,1.18.14,2.36.2,3.54.85,17.92,1,35.88,1.27,53.81.32,21.91.29,43.83.32,65.74.05,29.65.07,59.31-.53,89q-.17,8.76-.46,17.52c-.06,1.74.51,2.43-1.12,2.93a22.44,22.44,0,0,1-4,.71c-10.12,1.21-20.45,1.13-30.62,1.26-28.37.37-56.73.77-85.09.19-14.89-.3-29.77-.71-44.66-.7-4.13,0-8.25.1-12.37,0-2.44,0-5.22.07-7.58-.68-.29-.09-.79-.17-1-.42,0,0,.1.17.05,0s.17-2,.16-2.49q0-3.69-.11-7.38c-.54-34.41-1.77-68.8-2.42-103.21-.63-32.71-.21-65.41-.2-98.13,0-3.69,0-7.39,0-11.08,0-1.93,0-3.86,0-5.79,0-1.54-.28-3.25.22-4.71.31-.92-1.13-1.31-1.44-.4-1,2.84-.26,6.66-.25,9.65q0,5.94,0,11.9c0,8.41,0,16.83-.09,25.24-.09,16.58-.22,33.17-.07,49.76.33,35.4,1.61,70.78,2.39,106.18q.3,13.74.49,27.48a22.2,22.2,0,0,1,0,2.31c0,.26-.2.45-.19.74,0,.74.63,1.16,1.24,1.46a13.12,13.12,0,0,0,4.69.86c4,.32,8,.16,12,.14q11.52,0,23,.14c16.53.28,33.05.79,49.58.9,14.43.11,28.85-.24,43.28-.36,12-.11,24.06-.12,36.08-.58,4.47-.17,9-.36,13.41-.93,1.46-.18,4.88-.24,5.79-1.74.47-.77.23-2.17.26-3,.05-1.5.1-3,.14-4.48q.13-4.49.24-9,.23-10.12.35-20.24c.19-15.37.25-30.74.28-46.11,0-27.26.12-54.54-.18-81.8-.21-18.52-.51-37-1.08-55.55-.11-3.51-.22-7-.41-10.53-.07-1.44.13-3.54-.47-4.9-.93-2.08-4.33-1.11-6.06-1.11l-14.45.08q-13.95.09-27.9.22-56.79.56-113.57,2-14,.35-27.89.74C757.22,423.83,757.21,425.33,758.18,425.3Z" transform="translate(-756.95 -420.57)"/><path class="cls-4" d="M789.61,458c.25,23-.23,46,0,69.06.22,24.43,1,48.86,1.53,73.29q.2,9.52.33,19.06c0,1.59-.17,3.52-.05,5a1.51,1.51,0,0,0,.44,1.22,4.55,4.55,0,0,0,2.45.82,43.2,43.2,0,0,0,6.73.25c5.48,0,11,0,16.45.07,11.25.18,22.49.57,33.74.66,9.9.08,19.8-.18,29.71-.27,8.31-.07,16.63-.07,24.94-.5a60.13,60.13,0,0,0,8.26-.78c1.92-.37,2.81-.67,2.88-2.72.65-19.59.67-39.21.69-58.82,0-32,.07-64-.78-96-.1-4,.32-8.5-.53-12.4a1.76,1.76,0,0,0-1-1.48,3.53,3.53,0,0,0-1.62-.1c-1.57,0-3.14.06-4.72.07l-19.91.15Q849.53,455,810,456q-9.71.27-19.41.56a.77.77,0,0,0-.72.55l-.19.62c-.29.92,1.15,1.32,1.44.4l.2-.62-.73.55q38.07-1.17,76.15-1.72,18.91-.27,37.83-.39c3,0,6,.08,8.94-.08,1.21-.06,1.16-.22,1.46.65.49,1.45.21,3.63.27,5.15,1,27.61.93,55.27,1,82.9,0,20.6.05,41.19-.29,61.79q-.09,6.3-.26,12.59l-.09,3a14.91,14.91,0,0,1,0,1.91c-.31.42-1.65.5-2.11.58-6.71,1.18-13.82,1-20.61,1-19.57.29-39.13.55-58.69.1-10.11-.23-20.21-.5-30.31-.46-2.57,0-5.16.12-7.72,0-.8-.06-1.57-.17-2.36-.3-.17,0-1.14-.45-.87-.14.07.07.12-2.87.12-3.35,0-3.23-.09-6.47-.15-9.7-.4-23.5-1.15-47-1.55-70.5-.37-22.44-.1-44.88-.09-67.32,0-5.28,0-10.57-.07-15.85A.75.75,0,0,0,789.61,458Z" transform="translate(-756.95 -420.57)"/><path class="cls-2" d="M840.5,487c-3.54,1.85-5.74,6.15-4.28,9.86l-8.59,2.95c-1.22.42-2.56,1-3.13,2.11a1.56,1.56,0,0,0-.18.92,1.61,1.61,0,0,0,1.48,1.18,5.55,5.55,0,0,0,2-.35,26.29,26.29,0,0,1,13,0,75.82,75.82,0,0,1,12.35,4.36,10.39,10.39,0,0,0-3.49,7.94,62.89,62.89,0,0,1-13.77-.49c-3.73-.41-7.54-.86-10.93-2.48a34.24,34.24,0,0,1-6.87-4.81c-3.39-2.82-7-6-7.85-10.33a5.69,5.69,0,0,1,.48-4c1.1-1.85,3.43-2.49,5.54-3l10.66-2.43c4.47-1,9-2,13.6-1.49" transform="translate(-756.95 -420.57)"/><path class="cls-2" d="M840.24,486.6c-3.68,2.12-5.9,6.23-4.5,10.42l.35-.61-6.87,2.36c-1.4.48-3.14.85-4.28,1.85-1.52,1.33-1.49,3.55.8,3.92,1.68.27,3.81-.82,5.48-1a27,27,0,0,1,7.71.32c4.89.85,9.51,2.79,14.07,4.7l-.22-.84c-2.06,2-2.83,4-3.54,6.68-.2.73,0,.82-.58,1.21-.43.28-2.45.11-2.95.12-2,0-3.94-.12-5.91-.29a63.66,63.66,0,0,1-11.5-1.67c-3.84-1.09-6.86-3.37-9.87-5.88-2.54-2.12-5.23-4.36-6.76-7.35-1.25-2.45-1.84-5.8.74-7.67,1.37-1,3.3-1.28,4.93-1.65,7.46-1.71,15.44-4.43,23.16-3.68.64.06.63-.94,0-1-8.09-.79-16.61,2.07-24.4,3.94-2.42.58-5.19,1.36-6.17,3.94-.91,2.39,0,5.19,1.25,7.29a28.12,28.12,0,0,0,6.54,6.88,31.63,31.63,0,0,0,7.87,5.3A36.78,36.78,0,0,0,835.87,516a67.49,67.49,0,0,0,13.77.49.52.52,0,0,0,.5-.5,10.38,10.38,0,0,1,3.35-7.59.51.51,0,0,0-.22-.84c-6.07-2.54-12.33-5.09-19-5.19a24.86,24.86,0,0,0-4,.27,13.54,13.54,0,0,1-2.56.56l-.65.18c-1.46-1.39-1.6-2.26-.4-2.6,1.18-.87,3.21-1.18,4.59-1.66l5.15-1.77a.5.5,0,0,0,.35-.61c-1.26-3.78.74-7.39,4-9.3a.5.5,0,0,0-.51-.86Z" transform="translate(-756.95 -420.57)"/><path class="cls-2" d="M858.7,489.25a13.23,13.23,0,0,1,4.9,7,1.09,1.09,0,0,0,.18.43,1.16,1.16,0,0,0,.47.27,30.64,30.64,0,0,0,10.89,1.89,60.3,60.3,0,0,0-8.48-7.64,12.92,12.92,0,0,0-3.33-1.93,14,14,0,0,0-3.1-.59l-1.74-.2" transform="translate(-756.95 -420.57)"/><path class="cls-2" d="M858.35,489.6a13.55,13.55,0,0,1,3.95,4.69c.58,1.16.57,2.41,1.69,3.08,3,1.77,7.81,1.94,11.15,2a.51.51,0,0,0,.36-.85,62,62,0,0,0-8.24-7.45c-2.81-2.12-5.34-2.67-8.77-3.06-.64-.08-.64.92,0,1a21.54,21.54,0,0,1,4.71.77,18,18,0,0,1,4.85,3.15,61.76,61.76,0,0,1,6.74,6.3l.35-.86c-3.41,0-9.54,0-11.45-3.34-1.37-2.4-2.37-4.34-4.64-6.09-.5-.39-1.21.31-.7.7Z" transform="translate(-756.95 -420.57)"/><path class="cls-2" d="M889,529.76a27,27,0,0,0-.49-9.73c-2.5-10.47-11.78-18.84-22.37-20.74-2.35-.42-5.28-.27-6.43,1.81h-.31c.87-4.1.58-8.82-2.34-11.83a11.11,11.11,0,0,0-4.66-2.73,10.34,10.34,0,0,0-7.83.33c-3.35,1.76-4.93,6.08-4,9.75a11.66,11.66,0,0,0,7.64,7.78,17.86,17.86,0,0,0,11.17-.23c-.88,3.39-4.7,5.29-5.86,8.6a7.42,7.42,0,0,0,1.64,7.12,12.15,12.15,0,0,0,6.62,3.59,9.69,9.69,0,0,1,4.32-8.14c1.13-.74,3-1.05,3.58.19a2.23,2.23,0,0,1-.81,2.41,16,16,0,0,0-2.1,1.73c-1.38,1.69-.54,4.41,1.17,5.77s4,1.72,6.17,2a17.4,17.4,0,0,1-1.59-3.65,2.62,2.62,0,0,1-.13-1.38,1.9,1.9,0,0,1,2.67-.9,5,5,0,0,1,2,2.47c5.1,10.72,4.07,23.2,2.93,35l-2.33,24.24.1-.27c.92,6.15,4.88,11.58,5.5,17.78.15,1.44.27,3.18,1.56,3.84a3.84,3.84,0,0,0,1.25.32l4.69.67a1,1,0,0,0-.36-.81,1.08,1.08,0,0,1,1.41-.13c.45.26.79.69,1.23,1a5,5,0,0,0,3.41.24,28.53,28.53,0,0,1,8.15,0c-4.31-4-8.84-8.2-14.51-9.81a4.79,4.79,0,0,1-4.2-2.91c-1.2-2-2.84-3.82-3.45-6.08-1-3.76,1.06-7.57,2.54-11.18,3.1-7.55,3.72-15.85,4.3-24,.55-7.62,1.09-15.3.15-22.88" transform="translate(-756.95 -420.57)"/><path class="cls-2" d="M889.5,529.76a27.65,27.65,0,0,0-10.15-24.84,29.32,29.32,0,0,0-11-5.65,13.64,13.64,0,0,0-5.71-.55,5.36,5.36,0,0,0-2.16.82c-.26.18-1,1.07-1.1,1.07l.48.63c1-5.07.4-10.88-4.39-13.84-4.23-2.63-10.6-3-13.83,1.36-3,4.06-2.06,9.59,1.4,13,4.37,4.36,10.85,4.56,16.46,2.87l-.62-.62c-1.41,4.44-6.81,6.48-6.14,11.73.58,4.6,4.75,7.2,8.9,8.21a.51.51,0,0,0,.63-.49,9.53,9.53,0,0,1,1.24-4.69c.64-1.08,2.34-3.47,3.82-3.47q2.32,1.77.68,2.64l-.6.45a6.64,6.64,0,0,0-1,.9,3.78,3.78,0,0,0-.81,2c-.46,4.67,4.84,6.09,8.37,6.61a.51.51,0,0,0,.57-.73c-.26-.47-.51-.94-.74-1.42a14.55,14.55,0,0,1-.67-1.74c-.37-.71.09-.93,1.37-.66,2-.38,1.24-.48,2,.57a12.31,12.31,0,0,1,1.11,2.55,38.78,38.78,0,0,1,1.95,7,68.13,68.13,0,0,1,.69,16.33c-.63,11.15-2,22.28-3.08,33.4-.06.6.8.62,1,.13l.11-.27h-1c.94,5.52,4.08,10.32,5.18,15.79.34,1.69.14,4.07,1.34,5.48,1.4,1.65,4.88,1.41,6.83,1.69a.51.51,0,0,0,.61-.62,1.4,1.4,0,0,0-.41-.92l-.18.68c.37-.26,2.53,1.08,3.21,1.23a6.22,6.22,0,0,0,2,0,38.53,38.53,0,0,1,8.72-.08c.44,0,.65-.58.35-.86a68.77,68.77,0,0,0-7.49-6.36,31.37,31.37,0,0,0-7.91-3.76c-2.39-.85-3-2.2-4.3-4.13s-2.44-3.56-2.57-5.8c-.21-3.79,2-7.28,3.28-10.7,2.54-6.87,3.19-14.25,3.72-21.49.59-8.07,1.19-16.17.25-24.24-.08-.63-1.08-.64-1,0,1,8.52.3,17.08-.35,25.6s-2,16.08-5.25,23.87c-1.24,3-2.3,6.24-1.14,9.44a17,17,0,0,0,2,3.5,20.61,20.61,0,0,0,2.44,3.61,7.82,7.82,0,0,0,3.35,1.49,23,23,0,0,1,5,2.17,53.37,53.37,0,0,1,9.31,7.51l.36-.85c-3.07-.39-5.88,0-8.92.09-1.66,0-2.58-.94-4-1.37a1.56,1.56,0,0,0-1.55.27.49.49,0,0,0-.17.68l.31.69.62-.61c-1.26-.18-2.51-.35-3.76-.54a3.44,3.44,0,0,1-3.31-3.18,31,31,0,0,0-1.27-5.87c-1.44-4.25-3.55-8.22-4.31-12.68-.1-.53-.81-.41-1,0l-.1.27,1,.14q1.14-11.88,2.29-23.75c.68-7.11,1.37-14.29.72-21.43a46.71,46.71,0,0,0-1.76-9.39c-.69-2.23-1.54-5.63-3.45-7.15a2.65,2.65,0,0,0-3.69.09c-1.3,1.61.63,4.66,1.41,6.09l.57-.73c-2.19-.33-4.82-.64-6.43-2.35-2-2.11-1.12-4.24.88-5.92,1.19-1,2.55-3,.7-4.2s-3.89.46-5.08,1.63a10.45,10.45,0,0,0-3,7.33l.63-.48c-4.79-1.16-10.5-5.64-7.41-11.16,1.55-2.77,4.36-4.41,5.36-7.54a.51.51,0,0,0-.62-.62c-4.61,1.4-9.84,1.57-14-1.32-3.82-2.69-5.78-7.66-3.48-12,2.57-4.85,9-4.74,13.17-2.12s4.82,8.1,3.93,12.72a.5.5,0,0,0,.48.63c1.24,0,1.63-1.44,2.89-1.8,2.1-.59,4.47,0,6.5.62a28.44,28.44,0,0,1,10.68,5.89,26.67,26.67,0,0,1,9,23.44c-.08.63.92.63,1,0Z" transform="translate(-756.95 -420.57)"/><path class="cls-2" d="M863.89,525.1a10.58,10.58,0,0,0,11.45,4.37c1.94,7.48,1.77,15.34,1,23s-2.1,15.32-2.44,23a21.46,21.46,0,0,0,1,8.92,23.83,23.83,0,0,1-5.72-8.47c-1.06-2.67-1.63-5.5-2.46-8.24a45.55,45.55,0,0,0-8.12-15.43,2.87,2.87,0,0,1-.68-1.18,2.94,2.94,0,0,1,.14-1.28c1-4.05,1.21-8.27,1.77-12.42s1.55-8.36,4-11.77" transform="translate(-756.95 -420.57)"/><path class="cls-2" d="M863.45,525.35a11.26,11.26,0,0,0,12,4.6l-.61-.34c2.3,9.27,1.54,18.79.39,28.17-.56,4.63-1.21,9.25-1.59,13.91-.35,4.31-.7,8.76.79,12.9l.84-.48c-4-4-5.92-8.65-7.36-14a50,50,0,0,0-5.73-13.61c-.66-1.06-1.37-2.1-2.11-3.1-1-1.32-1.67-2-1.41-3.83.33-2.41.85-4.78,1.12-7.21.62-5.73,1.17-11.52,4.47-16.43.36-.53-.51-1-.87-.5-3,4.52-3.84,9.84-4.41,15.14-.35,3.2-1,6.32-1.45,9.49-.32,2.13,1.52,3.55,2.66,5.2a50.89,50.89,0,0,1,7,16c1.41,5.22,3.49,9.77,7.39,13.61.34.33,1,0,.84-.48-1.67-4.62-1-9.77-.59-14.57.45-4.64,1.11-9.26,1.65-13.9,1-8.85,1.5-17.8-.66-26.52a.5.5,0,0,0-.61-.35,10.23,10.23,0,0,1-10.89-4.15c-.37-.52-1.23,0-.87.51Z" transform="translate(-756.95 -420.57)"/><path class="cls-2" d="M849.41,540.6a17.75,17.75,0,0,1,7,7.19c.25-4,.53-8.17,2.29-11.81a4.62,4.62,0,0,0-2.92.73l-2.68,1.37-3.57,1.82" transform="translate(-756.95 -420.57)"/><path class="cls-2" d="M849.16,541a18.14,18.14,0,0,1,6.76,7,.51.51,0,0,0,.94-.25c.25-4,.57-7.9,2.22-11.55a.51.51,0,0,0-.43-.76c-3.1-.17-6.76,2.63-9.42,4-.57.29-.07,1.15.5.86,2.44-1.24,6.17-4,8.92-3.85l-.43-.75c-1.73,3.82-2.1,7.92-2.36,12.06l.93-.26a19.17,19.17,0,0,0-7.13-7.36.5.5,0,0,0-.5.86Z" transform="translate(-756.95 -420.57)"/><path class="cls-2" d="M820.81,519.42a111.84,111.84,0,0,0-6.53,43.91,2.26,2.26,0,0,0,.26,1.12,2.41,2.41,0,0,0,1.32.83,27.73,27.73,0,0,1,10.53,6.85c-.28-7.94-.54-16,1-23.76a28.72,28.72,0,0,1,2.39,5.37c4,10.53,9.59,20.62,17.68,28.44s18.83,13.25,30.08,13.58c-1.14-5.65-5-10.29-7.94-15.23-2.89-4.79-5-10-7.35-15.07-6.79-14.82-15.54-29-27.54-40-3.61-3.32-8-6.52-12.91-6.22" transform="translate(-756.95 -420.57)"/><path class="cls-2" d="M820.33,519.29a113.37,113.37,0,0,0-6.55,32.41q-.22,4.18-.12,8.38c0,1.45-.38,3.74.7,4.91s3.69,1.68,5.21,2.52a28.39,28.39,0,0,1,6.46,5,.51.51,0,0,0,.86-.35c-.27-7.9-.49-15.82,1-23.62l-.92.12c1.7,2.9,2.65,6.2,4,9.29a92.22,92.22,0,0,0,4,8.38,69,69,0,0,0,11.25,15.35c8.33,8.41,19.4,14.13,31.34,14.61a.5.5,0,0,0,.48-.63,32.56,32.56,0,0,0-4.87-10.46,106.18,106.18,0,0,1-6.61-11.47c-3.76-7.91-7.17-15.92-11.63-23.49a116.48,116.48,0,0,0-14.49-19.77c-4.82-5.23-10.9-11.89-18.62-11.72a.5.5,0,0,0,0,1c8.33-.18,15.18,8.17,20.15,13.94a119.81,119.81,0,0,1,13.36,19.25c3.91,6.9,7,14.15,10.37,21.29A93.41,93.41,0,0,0,871.81,585c2.22,3.42,4.31,6.88,5.21,10.91l.49-.63c-12.27-.49-23.52-6.67-31.8-15.54a69.89,69.89,0,0,1-10.53-15,95.41,95.41,0,0,1-4-8.71,59.16,59.16,0,0,0-3.35-7.85.51.51,0,0,0-.92.12c-1.46,7.9-1.27,15.9-1,23.89l.85-.35a28.89,28.89,0,0,0-9.64-6.55,3.31,3.31,0,0,1-2.38-3.29q-.08-1.86-.09-3.72,0-4,.23-7.91a112.67,112.67,0,0,1,6.43-30.75c.22-.61-.75-.87-1-.27Z" transform="translate(-756.95 -420.57)"/><path class="cls-2" d="M816,589a33.62,33.62,0,0,0-10.48,10.08,2.9,2.9,0,0,0-.67,2.13,2.09,2.09,0,0,0,2.58,1.27,6.5,6.5,0,0,0,2.64-1.76,70.52,70.52,0,0,1,10.3-7.9,12.08,12.08,0,0,0-2.38-1.49,3,3,0,0,1-1.61-2.17" transform="translate(-756.95 -420.57)"/><path class="cls-2" d="M815.77,588.56a35,35,0,0,0-8.65,7.54c-1.16,1.42-3.75,4-2.41,5.93s3.77.69,5.13-.42a113.63,113.63,0,0,1,10.8-8.37.51.51,0,0,0,.11-.79c-1.28-1-3.44-1.64-3.87-3.43-.15-.63-1.11-.36-1,.26.53,2.2,2.52,2.58,4.12,3.88l.1-.79c-2,1.26-3.89,2.59-5.73,4-2.1,1.63-4,3.88-6.39,5.08-1,1-1.56.73-1.58-.79-.62-.64-.7-1.2-.24-1.69a7.33,7.33,0,0,1,1.17-1.59,32.88,32.88,0,0,1,2.63-3,34.2,34.2,0,0,1,6.28-5c.54-.34,0-1.21-.51-.86Z" transform="translate(-756.95 -420.57)"/><path class="cls-2" d="M828.45,570.79q.54-7.18.76-14.4a20.09,20.09,0,0,1,1.61,4.78c1.06,3.63,3.15,6.86,4.86,10.24a.6.6,0,0,1,.08.28c0,.26-.37.33-.63.32-2,0-3.89-.13-5.84-.26a1.47,1.47,0,0,1-.8-.21.52.52,0,0,1-.13-.73" transform="translate(-756.95 -420.57)"/><path class="cls-2" d="M829,570.79q.52-7.18.76-14.4l-.93.26c1.64,3.15,2.14,6.78,3.79,10,.4.78.82,1.55,1.24,2.32s1.24,1.56.69,2.23c-.41.49-5.74.1-5.66-.24.14-.63-.82-.9-1-.27-.36,1.56,1.25,1.55,2.39,1.63s5.41,1.06,6-.42c.18-.49-.31-1.11-.51-1.51-.8-1.55-1.69-3.07-2.47-4.63-1.56-3.1-2-6.57-3.6-9.61a.5.5,0,0,0-.93.25q-.23,7.22-.76,14.4c-.05.65.95.64,1,0Z" transform="translate(-756.95 -420.57)"/><path class="cls-2" d="M812.68,558.77a10.9,10.9,0,0,0-2.5,4.81,21.88,21.88,0,0,0,.45,12.89A27.45,27.45,0,0,0,820,588.83a55.2,55.2,0,0,0,13.82,7.39,112.49,112.49,0,0,0,47.79,7.44l-1.27-4.48a1.1,1.1,0,0,0-.27-.55,1.16,1.16,0,0,0-.8-.2,34.54,34.54,0,0,1-9.94-1.49,68.85,68.85,0,0,1-12.8-5.88l-12.07-6.57A108.1,108.1,0,0,1,833,577.64c-3.26-2.33-6.28-5-9.85-6.86-2.62-1.34-5.53-2.19-7.84-4s-3.9-5.09-2.61-7.74" transform="translate(-756.95 -420.57)"/><path class="cls-2" d="M812.32,558.42c-4.9,5.56-4.06,15-.89,21.18,3.61,7,10.31,11.75,17.3,15,16.34,7.61,34.94,10.62,52.87,9.56a.5.5,0,0,0,.48-.63c-.54-1.9-.53-5.22-2.82-5.6-2-.34-4.16-.2-6.24-.59a36.57,36.57,0,0,1-5.24-1.43c-7.48-2.65-14.41-7.13-21.36-10.91-3.18-1.73-6.38-3.43-9.46-5.34s-6.13-4.37-9.2-6.58a52,52,0,0,0-8.75-4.72c-3.49-1.65-7.55-4.85-5.81-9.21.23-.6-.73-.86-1-.26-2.5,6.27,4.77,9.6,9.23,11.63a49.49,49.49,0,0,1,9.22,6,85.46,85.46,0,0,0,9.61,6.25c7.07,4,14.18,8,21.45,11.6a44.05,44.05,0,0,0,10.11,3.74,36.17,36.17,0,0,0,5.58.76c1.49.08,1.9-.32,2.68,1.33a24.37,24.37,0,0,1,1,3.58l.48-.63A112.8,112.8,0,0,1,834,595.74c-7.39-2.89-14.8-6.78-19.59-13.32-4.51-6.16-6.92-17-1.33-23.3.43-.48-.28-1.19-.71-.7Z" transform="translate(-756.95 -420.57)"/></svg>