<svg id="Calque_1" data-name="Calque 1" xmlns="http://www.w3.org/2000/svg" viewBox="0 0 88.78 124"><defs><style>.cls-1{fill:#ffed00;}.cls-2{fill:#fff;}.cls-3{fill:#1d1d1b;}.cls-4{opacity:0.17;}</style></defs><title>26</title><path class="cls-1" d="M850.53,483.51a41.2,41.2,0,0,0-19.06,13.21,55,55,0,0,0-6.94,11.57,84.07,84.07,0,0,0-2.08,64.39,45.66,45.66,0,0,0,7.81,13.81A32.32,32.32,0,0,0,865.75,595c11.31-4.55,19.06-15.32,23.62-26.64a61.55,61.55,0,0,0,4.14-15.18c1.08-8.54-.09-17.21-1.72-25.67-2.11-10.95-5.13-22.08-11.86-31S862,481.36,851,483.22" transform="translate(-809.62 -478.55)"/><path class="cls-1" d="M850.4,483a42.66,42.66,0,0,0-22.72,18.23,78.35,78.35,0,0,0-10.34,30A85.33,85.33,0,0,0,818.91,563c2.33,9.58,6.18,20,13.79,26.66a33.29,33.29,0,0,0,24,8c8.83-.63,16.64-5.13,22.54-11.59,6.56-7.2,11-16.48,13.43-25.84,3-11.41,1.59-23-.71-34.45-2.27-11.21-5.68-22.86-13.38-31.64-6.87-7.82-17.12-12.95-27.66-11.35-.63.1-.36,1.06.27,1,9.78-1.49,19.3,3.18,25.89,10.22,6.84,7.29,10.39,17,12.71,26.59,2.48,10.27,4.5,21.17,3.35,31.75a62.29,62.29,0,0,1-10.52,27.85c-4.91,7.17-11.84,13.32-20.4,15.57a32.25,32.25,0,0,1-25.16-4c-8.35-5.29-12.77-14.42-15.66-23.56A83.07,83.07,0,0,1,817.63,539c1-22,10.49-47.31,33-55,.61-.21.35-1.18-.26-1Z" transform="translate(-809.62 -478.55)"/><path class="cls-2" d="M873.36,486.22a65.5,65.5,0,0,1,13.52,15c4.35,6.67,8,13.9,9.69,21.68a72.38,72.38,0,0,1,1.32,15.9c-.1,13.9-2.14,28.14-8.93,40.26S870,601,856.13,602c-17.24,1.27-33.37-11.32-40.44-27.09s-6.53-34-3.25-50.93c1.76-9.14,4.35-18.27,9.26-26.17s12.9-13.09,21.43-16.81C851.36,477.37,864.26,478.83,873.36,486.22Zm-27.53,3.59c-7,3.19-13.53,7.63-17.56,14.4s-6.14,14.59-7.59,22.41c-2.68,14.54-3.12,30.12,2.67,43.63s19,24.3,33.13,23.21c11.36-.88,21.35-9.19,26.91-19.58s7.23-22.59,7.32-34.49a64.67,64.67,0,0,0-1.09-13.62,57.62,57.62,0,0,0-7.94-18.57,55.12,55.12,0,0,0-11.08-12.9C863.15,488,852.58,486.73,845.83,489.81Z" transform="translate(-809.62 -478.55)"/><path class="cls-3" d="M873,486.57a71.13,71.13,0,0,1,19.83,26.59c4.86,11.13,5.13,23.33,4.16,35.27-1.72,20.89-10.89,43.9-32.35,51.26-19.55,6.72-39.42-6.29-47.9-23.74-5-10.38-6.5-22.16-6-33.58a113.29,113.29,0,0,1,6.24-33.48c2.25-6.19,5.32-12.21,10-16.89a50.46,50.46,0,0,1,14.24-9.61c10.43-4.94,22.81-2.93,31.8,4.18.5.39,1.22-.31.71-.71-7.48-5.91-17.79-8.8-27.19-6.54-4.76,1.14-9.41,3.79-13.46,6.47a39.54,39.54,0,0,0-11.36,11.07c-6.55,10-9.26,22.27-10.91,33.91-1.7,11.94-1.82,24.34,1.46,36,5.35,19.06,22.37,37,43.51,35.69,22.45-1.4,36.59-22.5,40.66-42.71a108.94,108.94,0,0,0,2-20.06c.09-7.14-.32-14.31-2.47-21.17a70.55,70.55,0,0,0-22.21-32.69C873.22,485.46,872.51,486.16,873,486.57Z" transform="translate(-809.62 -478.55)"/><path class="cls-3" d="M845.58,489.38c-8.49,3.93-15.47,9.5-19.6,18-4.43,9.19-6.35,19.71-7.29,29.81C817,556,820.91,577,837.43,588.4c6.64,4.56,14.79,6.75,22.76,5s15-7.09,20-13.59c6-7.88,8.94-17.65,10.2-27.36,1.33-10.13,1.73-21.26-1.37-31.11-3.32-10.53-10-21-18.65-27.91-6.76-5.37-16.66-7.58-24.76-4.07-.59.25-.08,1.11.5.86,7.94-3.43,17.71-1,24.17,4.42a59.37,59.37,0,0,1,16.28,22.88c3.78,9.17,4.08,19.06,3.43,28.84s-2.62,19.4-7.36,27.91c-4,7.2-10.24,13.49-17.93,16.67A27.24,27.24,0,0,1,841,589.43c-16.65-9.09-22.26-28.58-21.69-46.4.34-10.58,2.09-21.72,6-31.61A35.91,35.91,0,0,1,834,498a45.65,45.65,0,0,1,12.11-7.76C846.67,490,846.16,489.11,845.58,489.38Z" transform="translate(-809.62 -478.55)"/><g class="cls-4"><path class="cls-3" d="M830.06,501.21a85.92,85.92,0,0,0-17.89,41.49,65.3,65.3,0,0,0,1.45,26.95,44.17,44.17,0,0,0,14.5,22.48,55.66,55.66,0,0,0,10.55,6.37c4.66,2.25,12.28,3.39,17.46,3.47,7.26.1,11.58-2.76,16.63-8s8.37-11.88,10.87-18.69c-5.77,7.44-13,14.35-22.2,16.61-10.6,2.62-22.2-1.74-29.77-9.62s-11.41-18.8-12.28-29.69a98.9,98.9,0,0,1-.13-11.55c.34-9.19,1.35-18.48,4.56-27.1a79.25,79.25,0,0,1,6.25-12.74" transform="translate(-809.62 -478.55)"/><path class="cls-3" d="M829.71,500.86c-14.78,18.65-23.35,45.42-16.57,68.92a44.29,44.29,0,0,0,19.06,25.8,43,43,0,0,0,15.26,6c4.72.83,9.89,1.46,14.58.18,5.15-1.42,9.38-5.3,12.75-9.3,4.22-5,7.06-11,9.32-17.05.17-.45-.53-.88-.83-.49-5.52,7.07-12.35,13.81-21.22,16.29-8.65,2.41-18,0-25.22-5.14-16.94-12-18.36-34.47-16.56-53.32a74,74,0,0,1,10.21-31.31.5.5,0,0,0-.86-.5,73.36,73.36,0,0,0-9.94,28.15c-1.4,10.65-1.91,22,.62,32.55,4.17,17.35,19,33.79,38.28,31.28,10.71-1.39,19-9.12,25.4-17.29l-.84-.49c-3.51,9.45-9.29,20.48-19,24.81-4.75,2.11-10.23,1.64-15.23.86a41.81,41.81,0,0,1-14.68-5.21c-21.27-12.18-25.36-38.1-20.18-60.28a86.25,86.25,0,0,1,16.36-33.78c.4-.5-.3-1.21-.7-.7Z" transform="translate(-809.62 -478.55)"/></g><path class="cls-3" d="M840.5,555.93q.06-16.14,1.19-32.25c.21-3,.49-6.12,2-8.72a3.54,3.54,0,0,1,1.81-1.71,2.89,2.89,0,0,1,3.14,1.36,8.06,8.06,0,0,1,1,3.5,96,96,0,0,1,.37,18.8,44.89,44.89,0,0,1,9.46-17.45,4.72,4.72,0,0,1,2-1.53c1.69-.53,3.48,1,3.86,2.73a8.72,8.72,0,0,1-.91,5.15,59.81,59.81,0,0,1-7.78,13.52,3.07,3.07,0,0,0,.16,4.69,39.58,39.58,0,0,1,6,12.56c.5,1.82.53,4.34-1.25,5-1.47.52-2.92-.75-3.91-1.94a49.13,49.13,0,0,1-8.2-14.2,70.82,70.82,0,0,1-1.1,14.46,5.14,5.14,0,0,1-1.16,2.85c-1.48,1.46-4.19.61-5.33-1.12s-1.18-3.94-1.17-6" transform="translate(-809.62 -478.55)"/><path class="cls-3" d="M841,555.93c0-10.89.4-21.8,1.22-32.66a19.33,19.33,0,0,1,1.71-7.69c.69-1.29.76-1.3,2.38-1.24s2,.46,2.53,2.08a20.48,20.48,0,0,1,.59,4.5,99.26,99.26,0,0,1,.08,16c0,.57.83.66,1,.13A44.4,44.4,0,0,1,857.31,523c.88-1.23,2.34-3.66,3.81-4.35,3.2-1.49,4,2.59,3.64,4.52a15.63,15.63,0,0,1-1.14,3.22c-.68,1.6-1.44,3.16-2.26,4.69-1.69,3.13-4.14,5.83-5.79,8.93-1.24,2.33.79,4.22,2,6.1a37.81,37.81,0,0,1,4.59,10.21c.55,2,.64,6.38-3.1,4-1.6-1-2.85-3.25-3.89-4.78a50.84,50.84,0,0,1-5.29-10.26c-.19-.5-1-.47-1,.13A73.17,73.17,0,0,1,848,558.3a10,10,0,0,1-.64,2.88,2.78,2.78,0,0,1-4.43.91c-1.9-1.52-1.85-4.3-1.85-6.51a.5.5,0,0,0-1,0c0,2.3,0,5.07,1.7,6.86a4.32,4.32,0,0,0,4.8,1.2c2.28-1.07,2.32-4.46,2.61-6.57a75.78,75.78,0,0,0,.65-11.66l-1,.13a51.15,51.15,0,0,0,4.91,9.78c1.41,2.17,3.62,6.32,6.46,6.77,5.94.94,1.91-9.07,1-11.12a38.68,38.68,0,0,0-2.63-5c-.51-.83-1.27-1.64-1.68-2.5a4.14,4.14,0,0,1,.6-4.56,62.09,62.09,0,0,0,6.21-10.44c1.17-2.51,3-5.82,1.77-8.62a3.7,3.7,0,0,0-4.36-2.33c-1.46.48-2.5,2.07-3.41,3.2a45.7,45.7,0,0,0-8.25,16.07l1,.14c.48-6.56.66-13.54-.55-20-.8-4.32-5-5.72-7.08-1.45a20.57,20.57,0,0,0-1.63,7.43c-.28,3.52-.47,7.06-.65,10.59q-.55,11.22-.6,22.48a.5.5,0,0,0,1,0Z" transform="translate(-809.62 -478.55)"/><path class="cls-3" d="M872.84,556a3.6,3.6,0,0,0-2.06,5.9,3.6,3.6,0,0,0,5,.27,3.52,3.52,0,0,0,0-4.93,4.3,4.3,0,0,0-3.59-.94" transform="translate(-809.62 -478.55)"/><path class="cls-3" d="M872.71,555.49c-4.88,1.16-3.85,8.7,1.3,8a3.81,3.81,0,0,0,3.22-4.26c-.28-2.55-2.7-3.7-5.05-3.42-.63.07-.63,1.07,0,1,1.71-.21,3.61.36,4,2.24a2.83,2.83,0,0,1-2.5,3.48c-3.87.33-4.3-5.19-.71-6,.62-.15.36-1.11-.27-1Z" transform="translate(-809.62 -478.55)"/><path class="cls-2" d="M842.51,553.08q.06-16.14,1.19-32.25c.21-3,.49-6.11,2-8.72a3.58,3.58,0,0,1,1.81-1.71,2.91,2.91,0,0,1,3.14,1.36,8.14,8.14,0,0,1,1,3.5,96,96,0,0,1,.37,18.8,44.89,44.89,0,0,1,9.46-17.45,4.8,4.8,0,0,1,2-1.53c1.69-.53,3.48,1,3.86,2.73a8.71,8.71,0,0,1-.91,5.15,60.09,60.09,0,0,1-7.78,13.53,4.16,4.16,0,0,0-1,1.89,4.22,4.22,0,0,0,1.15,2.79,39.58,39.58,0,0,1,6,12.56c.5,1.82.53,4.34-1.25,5-1.47.52-2.92-.74-3.91-1.94a49.13,49.13,0,0,1-8.2-14.2,70.82,70.82,0,0,1-1.1,14.46,5.11,5.11,0,0,1-1.16,2.85c-1.48,1.46-4.19.61-5.33-1.12s-1.18-3.94-1.17-6" transform="translate(-809.62 -478.55)"/><path class="cls-3" d="M843,553.08c0-10.89.4-21.79,1.22-32.66a19.33,19.33,0,0,1,1.71-7.69c.69-1.28.76-1.3,2.38-1.24s2,.46,2.53,2.09a20.39,20.39,0,0,1,.59,4.49,99.26,99.26,0,0,1,.08,16c0,.57.83.66,1,.13a44.4,44.4,0,0,1,6.82-14.07c.88-1.22,2.34-3.66,3.81-4.35,3.2-1.48,4,2.59,3.64,4.52a15.42,15.42,0,0,1-1.14,3.22c-.68,1.6-1.44,3.17-2.26,4.7-1.69,3.12-4.14,5.83-5.79,8.92-1.24,2.34.79,4.22,2,6.11a37.62,37.62,0,0,1,4.59,10.2c.55,2,.64,6.38-3.1,4-1.6-1-2.85-3.24-3.89-4.78a50.84,50.84,0,0,1-5.29-10.26c-.19-.5-1-.47-1,.13a73.17,73.17,0,0,1-.84,12.89,10.18,10.18,0,0,1-.64,2.89,2.78,2.78,0,0,1-4.43.9c-1.9-1.52-1.85-4.3-1.85-6.51a.5.5,0,0,0-1,0c0,2.3,0,5.07,1.7,6.87a4.33,4.33,0,0,0,4.8,1.19c2.28-1.07,2.32-4.45,2.61-6.57a74.55,74.55,0,0,0,.65-11.66l-1,.13a50.86,50.86,0,0,0,4.91,9.78c1.41,2.17,3.63,6.32,6.46,6.77,5.94.94,1.91-9.07,1-11.11a38.17,38.17,0,0,0-2.63-5,28.74,28.74,0,0,1-1.68-2.5,4.15,4.15,0,0,1,.6-4.56,62.09,62.09,0,0,0,6.21-10.44c1.17-2.51,3-5.82,1.77-8.62a3.7,3.7,0,0,0-4.36-2.33c-1.46.49-2.5,2.07-3.41,3.21a45,45,0,0,0-3.19,4.53,46.75,46.75,0,0,0-5.06,11.54l1,.13c.48-6.55.66-13.53-.55-20-.8-4.32-5-5.72-7.08-1.45a20.62,20.62,0,0,0-1.63,7.43c-.28,3.53-.47,7.06-.65,10.59q-.55,11.24-.6,22.48a.5.5,0,0,0,1,0Z" transform="translate(-809.62 -478.55)"/><path class="cls-2" d="M874.85,553.12a3.6,3.6,0,0,0-2.06,5.9,3.6,3.6,0,0,0,5,.27,3.5,3.5,0,0,0,0-4.92,4.28,4.28,0,0,0-3.59-1" transform="translate(-809.62 -478.55)"/><path class="cls-3" d="M874.72,552.64c-4.88,1.16-3.85,8.71,1.3,8a3.8,3.8,0,0,0,3.22-4.25c-.28-2.56-2.7-3.71-5-3.43-.63.07-.63,1.07,0,1,1.71-.2,3.61.36,4,2.24a2.83,2.83,0,0,1-2.5,3.48c-3.87.33-4.3-5.19-.71-6,.62-.15.36-1.11-.27-1Z" transform="translate(-809.62 -478.55)"/></svg>