<svg id="Calque_1" data-name="Calque 1" xmlns="http://www.w3.org/2000/svg" viewBox="0 0 217.99 320.86"><defs><style>.cls-1{fill:#fff;}.cls-2{fill:#1d1d1b;}.cls-3{fill:#62402f;}.cls-4{opacity:0.68;}.cls-5{fill:#432b1d;}.cls-6{fill:#575756;}.cls-7{fill:#878787;}.cls-8{fill:#c6c6c6;}.cls-9{opacity:0.4;}.cls-10{opacity:0.3;}.cls-11{opacity:0.34;}.cls-12{opacity:0.03;}</style></defs><title>27</title><path class="cls-1" d="M876.89,443.67c-6.25-2.8-13.44-2.14-20.23-1.22-23.55,3.2-48.12,9.71-64.55,26.87-19.7,20.58-23.23,51.41-24.57,79.86-1.23,26.18-1.43,52.85,5.85,78,2.61,9,6.22,17.84,11.83,25.36C793,662.93,804.05,670.22,815,677.2c15.56,10,32.36,20.07,50.84,20,22.24-.08,41.81-15.08,55.87-32.3A99.61,99.61,0,0,0,936,642.39c5.75-13,7.51-27.39,9.2-41.51,3.73-31.14,7.44-62.93,1.1-93.64-1.73-8.38-4.27-16.75-9.11-23.8-5.32-7.74-13.09-13.42-20.92-18.59a313.12,313.12,0,0,0-35.72-20.32" transform="translate(-745.26 -379.26)"/><path class="cls-2" d="M877.15,443.24c-9.82-4.14-21.58-1.39-31.65.49a131.1,131.1,0,0,0-30.6,9.21,73.76,73.76,0,0,0-25.23,18.31A78.22,78.22,0,0,0,775,497.63c-7.1,20.83-7.89,43.51-8.45,65.31-.65,25,.4,51.34,10,74.8a67.46,67.46,0,0,0,19.76,26.91c8.77,7.29,18.69,13.39,28.48,19.2s20.51,11.17,32,13.08a54.46,54.46,0,0,0,30.35-3.79c9.73-4.13,18.37-10.57,25.89-17.93a115.42,115.42,0,0,0,20.73-27c5.82-10.73,8.6-22.6,10.37-34.58,1.84-12.5,3.22-25.1,4.43-37.67,2.42-25.21,3.5-51.76-3.52-76.39a53.31,53.31,0,0,0-17.57-27.31c-9.16-7.57-19.68-13.74-30-19.54q-8.16-4.58-16.57-8.65c-.58-.28-1.08.58-.5.86a316.89,316.89,0,0,1,31.79,17.78c9.53,6.08,19.46,12.62,25.6,22.38s8.51,22,10,33.44a213.76,213.76,0,0,1,1.25,37.26c-.55,12.51-1.88,25-3.33,37.42-1.39,11.81-2.52,23.76-5.45,35.32-5.57,22-20.51,41.85-38.71,55.15-8.22,6-17.57,10.63-27.67,12.31-11.45,1.9-22.92-.58-33.45-5.14-10.37-4.5-20-10.71-29.39-16.87S792.13,661.12,785.39,652c-6.95-9.46-10.79-20.87-13.42-32.2a189.91,189.91,0,0,1-4.45-37.34c-.36-12,0-24,.66-35.95a241.7,241.7,0,0,1,3.25-30.85c3.7-20.21,11.86-39.88,28.59-52.69s38.61-17.9,59.2-20.29c5.87-.68,11.88-.87,17.42,1.48.59.24,1.1-.62.51-.87Z" transform="translate(-745.26 -379.26)"/><path class="cls-3" d="M847.16,699c-32.58-.21-62.8-21.05-79.88-48.79s-22.39-61.41-21.09-94c1.59-40.05,14.19-82,44.8-107.85a4.75,4.75,0,0,1-3.42-1.65,15.78,15.78,0,0,1,10-3.51c-.7-2.29,2.17-4.75,4.33-3.7A22.72,22.72,0,0,1,817.63,429c1.41-.21,3.15-.14,3.86,1.1,2.28-2.89,6.36-3.4,9.8-4.7s6.87-4.94,5.24-8.24c-1.32-2.64-5.37-3.56-5.75-6.49-.27-2,1.6-3.82,3.61-4.14a9,9,0,0,1,5.76,1.54,15.91,15.91,0,0,1,11.43-15.64c-2.48-2.18-4.83-5.11-4.45-8.39s5.15-5.58,7.1-2.93c1.95-2.65,6.72-.34,7.1,2.93s-2,6.21-4.45,8.39a15.92,15.92,0,0,1,11.43,15.64,9,9,0,0,1,5.76-1.54c2,.32,3.88,2.13,3.61,4.14-.39,2.93-4.44,3.85-5.75,6.49-1.64,3.3,1.8,6.94,5.24,8.24s7.51,1.81,9.79,4.7c.71-1.24,2.45-1.31,3.86-1.1a22.76,22.76,0,0,1,15.71,10.47c2.16-1.05,5,1.41,4.32,3.7a15.76,15.76,0,0,1,10,3.51,4.73,4.73,0,0,1-3.41,1.65c30.6,25.88,43.2,67.8,44.8,107.85,1.3,32.55-4,66.22-21.09,94S893.87,698.75,861.3,699Zm3.25-244.83c-11-.31-33,10.85-41,18.35-16.4,15.37-27.61,35.87-33.36,57.6s-6.23,44.66-3.11,66.92c1.24,8.86,3.06,17.72,6.59,25.94,16.76,39,58.69,50.54,81.27,50.54S917.44,662,934.2,622.94c3.53-8.22,5.34-17.08,6.59-25.94,3.12-22.26,2.65-45.19-3.11-66.92s-17-42.23-33.36-57.6c-8-7.5-30.07-18.66-41-18.35Z" transform="translate(-745.26 -379.26)"/><path class="cls-2" d="M847.16,698.21c-19.81-.23-38.77-8-54.2-20.22-16.22-12.85-28.1-30.18-35.49-49.43-7.89-20.54-10.87-42.71-10.72-64.63.14-20.11,2.84-40.32,9.1-59.48,6.94-21.22,18.55-41,35.67-55.56.55-.47,0-1.21-.53-1.28a4,4,0,0,1-2.89-1.43l-.15,1.18A15.82,15.82,0,0,1,797.6,444a.76.76,0,0,0,.72-.95,2.54,2.54,0,0,1,3.41-2.78.76.76,0,0,0,.85-.34,22.2,22.2,0,0,1,7.71-7.46c2.21-1.27,8.56-4.44,10.67-1.76a.76.76,0,0,0,1.06,0c4.13-4.71,13.71-3.22,15.51-10.47.61-2.46-.71-4.32-2.54-5.79-1.48-1.2-3.46-2.12-3.28-4.28.35-4.28,5.68-2.69,8.06-1.38a.75.75,0,0,0,1.13-.64,15.27,15.27,0,0,1,10.87-14.91.77.77,0,0,0,.34-1.26c-2.09-1.9-4.64-4.57-4.22-7.65.35-2.46,3.76-4.93,5.81-2.61a.75.75,0,0,0,1.06,0c2-2.29,5.51.12,5.8,2.61.36,3.11-2.09,5.72-4.21,7.65a.76.76,0,0,0,.33,1.26,15.29,15.29,0,0,1,10.88,14.91.75.75,0,0,0,1.12.64c2.25-1.24,6.46-2.78,8,.44,1.17,2.49-1.58,3.93-3.12,5.16-1.86,1.48-3.24,3.35-2.62,5.85,1.8,7.24,11.39,5.77,15.51,10.47a.75.75,0,0,0,1.06,0c2.12-2.69,8.46.48,10.67,1.76a22.32,22.32,0,0,1,7.72,7.46.77.77,0,0,0,.84.34,2.54,2.54,0,0,1,3.41,2.78.76.76,0,0,0,.72.95,15.78,15.78,0,0,1,9.65,3.41l-.15-1.18a4,4,0,0,1-2.88,1.43c-.57.07-1.08.81-.53,1.28,34.46,29.38,45.59,77.54,44.72,121.07-.49,24.49-5.09,49.32-16.31,71.26-10.1,19.76-25.82,36.63-45.55,47a85.14,85.14,0,0,1-34.73,9.88c-6,.33-12,.12-17.91.12a.75.75,0,0,0,0,1.5c5,0,9.93.07,14.89,0a84,84,0,0,0,31-6.67c20.21-8.46,37.3-23.9,48.76-42.48,13-21.09,19.18-45.72,20.87-70.26,1.61-23.25-.31-47.08-6.62-69.55-6.73-24-19-46.61-38.08-62.91l-.53,1.28a6.2,6.2,0,0,0,3.94-1.87.76.76,0,0,0-.15-1.17,17.06,17.06,0,0,0-10.41-3.62l.72.95a4,4,0,0,0-5.24-4.62l.84.34a23.82,23.82,0,0,0-10.25-9c-2.71-1.24-8.15-3.46-10.49-.5h1.06c-2.57-2.94-6.31-3.44-9.78-4.77-2.31-.89-5.39-2.95-5.45-5.76-.06-2.36,2.33-3.56,3.9-4.86,2-1.67,3.18-4.17,1.31-6.49-2.48-3.08-6.59-1.91-9.54-.27l1.13.65a16.82,16.82,0,0,0-12-16.36l.33,1.25c2.83-2.58,6.42-7.11,3.89-11.06-1.61-2.52-5.42-3.8-7.6-1.32h1.06c-2.19-2.48-6-1.2-7.61,1.32-2.53,3.95,1.06,8.48,3.89,11.06l.34-1.25a16.8,16.8,0,0,0-12,16.36l1.13-.65c-2.9-1.6-6.74-2.74-9.32,0-2.15,2.3-1,5,1.08,6.74,1.48,1.22,3.55,2.25,3.83,4.33.4,2.88-2.68,5.21-5,6.17-3.56,1.45-7.46,1.84-10.13,4.89H822c-2.33-3-7.78-.74-10.49.5a23.82,23.82,0,0,0-10.25,9l.85-.34a4.06,4.06,0,0,0-5.25,4.62l.72-.95a17.11,17.11,0,0,0-10.41,3.62.76.76,0,0,0-.15,1.17,6.2,6.2,0,0,0,4,1.87l-.53-1.28c-31.17,26.57-43.44,68.72-45,108.38-1.73,43,8.58,89.58,42.08,119.17C804,689.93,825,699.46,847.16,699.71A.75.75,0,0,0,847.16,698.21Z" transform="translate(-745.26 -379.26)"/><path class="cls-2" d="M850.41,453.38c-8.66-.12-17.57,4.05-25.13,7.87a75.46,75.46,0,0,0-22.75,17.15c-16.34,18.18-26.29,41.4-30.19,65.4a171.4,171.4,0,0,0-1.52,40.92c1,13,2.84,26.5,8,38.6,7.64,17.77,21.79,31.71,39,40.31,13.28,6.63,28.47,10.7,43.37,10.6a79.57,79.57,0,0,0,43.45-13.62c17.65-11.89,30-30.89,34.73-51.55,6-26.43,5.79-55.46-1.64-81.56A129.74,129.74,0,0,0,923.54,495c-5.66-9.19-12.7-18.55-21.28-25.21a92.44,92.44,0,0,0-24.42-13.18,47.94,47.94,0,0,0-12.22-3.12c-2.49-.23-5-.09-7.54-.09h-7.67a.75.75,0,0,0,0,1.5c4.74,0,9.51-.2,14.24,0,8.93.41,18.05,4.91,25.75,9.08a64.14,64.14,0,0,1,21.87,18,119.35,119.35,0,0,1,18.15,29.47c10.38,23.87,13.1,50.4,10.72,76.15-1.23,13.26-3.47,26.57-9.26,38.67a85.31,85.31,0,0,1-17.76,24.86A79,79,0,0,1,871.22,672c-13.65,2-27.69-.15-40.66-4.61-17-5.83-32.51-16.29-42.84-31.12A81,81,0,0,1,775,605a181.79,181.79,0,0,1-3.16-40.26c.78-25,7.28-50,20.94-71.12,5.7-8.83,12.7-17.86,21.34-24A93.81,93.81,0,0,1,839,457.06a35.49,35.49,0,0,1,11.37-2.18A.75.75,0,0,0,850.41,453.38Z" transform="translate(-745.26 -379.26)"/><g class="cls-4"><path class="cls-5" d="M921.46,644.69c-13.87,17.35-35.71,27.72-57.9,28.77s-44.45-6.9-61.8-20.78a76.13,76.13,0,0,1-11.62-11.36C782.38,631.75,777.71,620,775,608s-3.55-24.36-4.34-36.65L771,571c-.92-28,7.8-61.85,15.5-88.75,2.33-8.11,4.72-16.37,9.41-23.37,4.05-6,9.62-10.87,15.15-15.58,6.73-5.74,13.68-11.53,22-14.67,3-1.16,6.41-2.05,8.52-4.53,2.43-2.85,2.5-7,3.86-10.48s5.77-6.6,8.67-4.22c-3.29-1-4.8-5.13-4.06-8.5s3.13-6.11,5.58-8.54c-4.18-2.33-6.9-8.66-3.87-12.35l-.3.68c-2.75-.16-4.63,3.18-4.07,5.88s2.66,4.76,4.66,6.65a35.84,35.84,0,0,0-11,19.32,6.78,6.78,0,0,0-8.59.1c3.19.15,5.25,4,4.49,7.1s-3.48,5.37-6.36,6.76-6,2.13-8.92,3.51a20.91,20.91,0,0,0-20,10.1,3.09,3.09,0,0,0-3,4.06,21.73,21.73,0,0,0-10.54,2.23l4.21,2.44c-16.35,13-27.83,31.37-34.8,51s-9.63,40.62-10.53,61.46l.1-.6c0,20.86,2.15,41.87,8.58,61.71s17.28,38.51,32.87,52.36c18,16,48.86,26.82,72.8,24.17,24.24-2.69,57.71-45.88,61.29-56.17Z" transform="translate(-745.26 -379.26)"/><path class="cls-5" d="M920.93,644.16c-16.33,20.2-42.59,30.48-68.31,28.35-27.12-2.25-55.89-17.74-68.87-42.3-6.91-13.07-9.65-27.82-11.07-42.4-.38-3.87-.67-7.75-.94-11.64a42.71,42.71,0,0,1-.38-4.49c0-.14.34-.3.36-.5a24.71,24.71,0,0,0,0-2.58,163.6,163.6,0,0,1,1-19.92,314.43,314.43,0,0,1,7.73-41.18c1.63-6.58,3.39-13.13,5.22-19.65a193.45,193.45,0,0,1,5.82-18.74A53.72,53.72,0,0,1,805.67,449a146.72,146.72,0,0,1,17.93-14.6,52.46,52.46,0,0,1,11-5.59c2.68-1,5.5-2,7.43-4.2s2.46-5.16,3.17-7.91c.86-3.29,4-9.71,8.45-6.67l.58-1.37c-3.14-1.21-4.19-4.91-3.44-8s3.08-5.61,5.29-7.83a.77.77,0,0,0-.15-1.18c-3.65-2.22-6.44-7.45-3.6-11.33l-1.29-.75c-.27.59-1.54.57-2.36,1.2a5.94,5.94,0,0,0-2.13,3.72c-.63,3.78,2.39,6.83,4.89,9.2v-1.06a37.32,37.32,0,0,0-11.16,19.65l1.1-.45a7.66,7.66,0,0,0-9.5.22c-.58.46,0,1.22.53,1.28,3.77.47,4.68,5.15,3,8s-4.62,4.31-7.51,5.42c-2.42.94-5.14,2.33-7.74,2.37a23.72,23.72,0,0,0-6.91.94,21.9,21.9,0,0,0-10.63,7.19,8.62,8.62,0,0,1-1.72,2.09c-.57.35-1.2.34-1.78.8a3.86,3.86,0,0,0-1.29,4.19l.72-1a23.85,23.85,0,0,0-10.92,2.33.76.76,0,0,0,0,1.3l4.21,2.43-.15-1.17c-25.48,20.38-38.06,52-42.82,83.51a280.6,280.6,0,0,0-2.73,29.52c0,.83,1.33,1,1.47.2l.11-.6-1.48-.2c0,45.06,11.89,97.15,52.74,122.85C816,694.23,837,701,857.13,700c15.63-.71,28.37-11.21,39.11-21.73a178.67,178.67,0,0,0,18-20.53c3.38-4.51,7.2-9.41,9.13-14.78.29-.82-1-1.29-1.37-.58l-1.13,1.91a.75.75,0,0,0,1.29.75l1.13-1.9-1.37-.58c-1.57,4.39-4.62,8.42-7.31,12.16A175.36,175.36,0,0,1,900,672.29a132.07,132.07,0,0,1-18.36,16.53c-5.59,4-11.9,7.88-18.78,9.15-9.23,1.7-19.35.41-28.41-1.59a111.3,111.3,0,0,1-28.84-10.7C787,675.62,773,659.26,763.7,640.38c-12.18-24.65-15.89-52.43-15.9-79.66,0-.81-1.33-1.05-1.47-.2l-.1.6,1.47.2c1.45-32.7,7.49-66.53,27.34-93.44a98.73,98.73,0,0,1,17.77-18.53.75.75,0,0,0-.15-1.18l-4.21-2.44V447a22.17,22.17,0,0,1,10.16-2.13.75.75,0,0,0,.73-.94,1.71,1.71,0,0,1,.29-2,1.89,1.89,0,0,1,2-1.16c.13-.08.31,0,.45-.16a34.85,34.85,0,0,0,2.15-3,20.34,20.34,0,0,1,6.63-5.07,19.84,19.84,0,0,1,8.25-2,17.32,17.32,0,0,0,2.88,0c1.63-.31,3.53-1.41,5.11-2,4.28-1.54,9.36-3.86,10.53-8.75.87-3.67-1.43-7.58-5.22-8.05l.53,1.28a6.2,6.2,0,0,1,7.68,0,.76.76,0,0,0,1.11-.44,35.94,35.94,0,0,1,10.77-19,.75.75,0,0,0,0-1.06,15.62,15.62,0,0,1-4-5c-1-2.4-.27-6.12,2.91-6.24a.73.73,0,0,0,.64-.37l.31-.69a.75.75,0,0,0-1.29-.75c-3.34,4.55-.17,10.77,4.13,13.38l-.15-1.18c-2.87,2.88-5.92,6.39-6,10.69a7.77,7.77,0,0,0,4.79,7.61c.84.32,1.23-.92.58-1.37-4.31-3-8.87,1.79-10.14,5.73-1,3.27-1.26,7.07-3.81,9.63s-6.27,3.14-9.36,4.46c-6.4,2.74-12,7-17.32,11.42-5.66,4.7-11.47,9.45-16.1,15.2-8.76,10.87-11.65,25.48-15.23,38.65a409.28,409.28,0,0,0-9.7,43.46,210.22,210.22,0,0,0-2.35,21.09c-.2,3.4-.29,6.81-.24,10.22a17.21,17.21,0,0,1,.11,2c0,.16-.33.3-.35.5a30.36,30.36,0,0,0,.32,5.54c1.07,15.53,2.66,31.31,8.37,45.92a74,74,0,0,0,25.42,32.81,96.19,96.19,0,0,0,38.37,17.18c25.87,5.17,53.67-1.84,73-20.15a73.82,73.82,0,0,0,6.61-7.2C922.6,644.48,921.54,643.41,920.93,644.16Z" transform="translate(-745.26 -379.26)"/></g><g class="cls-4"><path class="cls-5" d="M877.67,408.63l-6.21,4.08a9.14,9.14,0,0,0-1.84,1.44,6.67,6.67,0,0,0-1.13,1.77,8.94,8.94,0,0,0-.94,4.24,5.43,5.43,0,0,0,1.83,3.86,8.94,8.94,0,0,0,4.14,1.55l4.08.8c-2.57-.94-5.07-2.54-6.19-5s-.34-5.94,2.17-7c.59-.26,1.23-.37,1.81-.65a3.66,3.66,0,0,0,1.84-4.33" transform="translate(-745.26 -379.26)"/><path class="cls-5" d="M877.29,408c-4.51,2.95-10.47,5.48-10.48,11.73,0,6,6,6.48,10.59,7.37a.75.75,0,0,0,.4-1.45c-2.42-.94-5-2.46-5.9-5.09a4.49,4.49,0,0,1,2.79-5.83c2.46-1,3.88-2.84,3.27-5.58-.21-.94-1.66-.54-1.45.4.8,3.54-3.18,3.38-4.92,5.33a6.25,6.25,0,0,0-1.42,4.32c.13,4.08,3.79,6.55,7.23,7.9l.4-1.45c-4.21-.81-10.39-1.14-9.35-7.12.83-4.77,5.92-6.83,9.6-9.24.8-.53.05-1.83-.76-1.29Z" transform="translate(-745.26 -379.26)"/></g><path class="cls-2" d="M847.16,698.21c-19.81-.23-38.77-8-54.2-20.22-16.22-12.85-28.1-30.18-35.49-49.43-7.89-20.54-10.87-42.71-10.72-64.63.14-20.11,2.84-40.32,9.1-59.48,6.94-21.22,18.55-41,35.67-55.56.55-.47,0-1.21-.53-1.28a4,4,0,0,1-2.89-1.43l-.15,1.18A15.82,15.82,0,0,1,797.6,444a.76.76,0,0,0,.72-.95,2.54,2.54,0,0,1,3.41-2.78.76.76,0,0,0,.85-.34,22.2,22.2,0,0,1,7.71-7.46c2.21-1.27,8.56-4.44,10.67-1.76a.76.76,0,0,0,1.06,0c4.13-4.71,13.71-3.22,15.51-10.47.61-2.46-.71-4.32-2.54-5.79-1.48-1.2-3.46-2.12-3.28-4.28.35-4.28,5.68-2.69,8.06-1.38a.75.75,0,0,0,1.13-.64,15.27,15.27,0,0,1,10.87-14.91.77.77,0,0,0,.34-1.26c-2.09-1.9-4.64-4.57-4.22-7.65.35-2.46,3.76-4.93,5.81-2.61a.75.75,0,0,0,1.06,0c2-2.29,5.51.12,5.8,2.61.36,3.11-2.09,5.72-4.21,7.65a.76.76,0,0,0,.33,1.26,15.29,15.29,0,0,1,10.88,14.91.75.75,0,0,0,1.12.64c2.25-1.24,6.46-2.78,8,.44,1.17,2.49-1.58,3.93-3.12,5.16-1.86,1.48-3.24,3.35-2.62,5.85,1.8,7.24,11.39,5.77,15.51,10.47a.75.75,0,0,0,1.06,0c2.12-2.69,8.46.48,10.67,1.76a22.32,22.32,0,0,1,7.72,7.46.77.77,0,0,0,.84.34,2.54,2.54,0,0,1,3.41,2.78.76.76,0,0,0,.72.95,15.78,15.78,0,0,1,9.65,3.41l-.15-1.18a4,4,0,0,1-2.88,1.43c-.57.07-1.08.81-.53,1.28,34.46,29.38,45.59,77.54,44.72,121.07-.49,24.49-5.09,49.32-16.31,71.26-10.1,19.76-25.82,36.63-45.55,47a85.14,85.14,0,0,1-34.73,9.88c-6,.33-12,.12-17.91.12a.75.75,0,0,0,0,1.5c5,0,9.93.07,14.89,0a84,84,0,0,0,31-6.67c20.21-8.46,37.3-23.9,48.76-42.48,13-21.09,19.18-45.72,20.87-70.26,1.61-23.25-.31-47.08-6.62-69.55-6.73-24-19-46.61-38.08-62.91l-.53,1.28a6.2,6.2,0,0,0,3.94-1.87.76.76,0,0,0-.15-1.17,17.06,17.06,0,0,0-10.41-3.62l.72.95a4,4,0,0,0-5.24-4.62l.84.34a23.82,23.82,0,0,0-10.25-9c-2.71-1.24-8.15-3.46-10.49-.5h1.06c-2.57-2.94-6.31-3.44-9.78-4.77-2.31-.89-5.39-2.95-5.45-5.76-.06-2.36,2.33-3.56,3.9-4.86,2-1.67,3.18-4.17,1.31-6.49-2.48-3.08-6.59-1.91-9.54-.27l1.13.65a16.82,16.82,0,0,0-12-16.36l.33,1.25c2.83-2.58,6.42-7.11,3.89-11.06-1.61-2.52-5.42-3.8-7.6-1.32h1.06c-2.19-2.48-6-1.2-7.61,1.32-2.53,3.95,1.06,8.48,3.89,11.06l.34-1.25a16.8,16.8,0,0,0-12,16.36l1.13-.65c-2.9-1.6-6.74-2.74-9.32,0-2.15,2.3-1,5,1.08,6.74,1.48,1.22,3.55,2.25,3.83,4.33.4,2.88-2.68,5.21-5,6.17-3.56,1.45-7.46,1.84-10.13,4.89H822c-2.33-3-7.78-.74-10.49.5a23.82,23.82,0,0,0-10.25,9l.85-.34a4.06,4.06,0,0,0-5.25,4.62l.72-.95a17.11,17.11,0,0,0-10.41,3.62.76.76,0,0,0-.15,1.17,6.2,6.2,0,0,0,4,1.87l-.53-1.28c-31.17,26.57-43.44,68.72-45,108.38-1.73,43,8.58,89.58,42.08,119.17C804,689.93,825,699.46,847.16,699.71A.75.75,0,0,0,847.16,698.21Z" transform="translate(-745.26 -379.26)"/><path class="cls-2" d="M850.41,453.38c-8.66-.12-17.57,4.05-25.13,7.87a75.46,75.46,0,0,0-22.75,17.15c-16.34,18.18-26.29,41.4-30.19,65.4a171.4,171.4,0,0,0-1.52,40.92c1,13,2.84,26.5,8,38.6,7.64,17.77,21.79,31.71,39,40.31,13.28,6.63,28.47,10.7,43.37,10.6a79.57,79.57,0,0,0,43.45-13.62c17.65-11.89,30-30.89,34.73-51.55,6-26.43,5.79-55.46-1.64-81.56A129.74,129.74,0,0,0,923.54,495c-5.66-9.19-12.7-18.55-21.28-25.21a92.44,92.44,0,0,0-24.42-13.18,47.94,47.94,0,0,0-12.22-3.12c-2.49-.23-5-.09-7.54-.09h-7.67a.75.75,0,0,0,0,1.5c4.74,0,9.51-.2,14.24,0,8.93.41,18.05,4.91,25.75,9.08a64.14,64.14,0,0,1,21.87,18,119.35,119.35,0,0,1,18.15,29.47c10.38,23.87,13.1,50.4,10.72,76.15-1.23,13.26-3.47,26.57-9.26,38.67a85.31,85.31,0,0,1-17.76,24.86A79,79,0,0,1,871.22,672c-13.65,2-27.69-.15-40.66-4.61-17-5.83-32.51-16.29-42.84-31.12A81,81,0,0,1,775,605a181.79,181.79,0,0,1-3.16-40.26c.78-25,7.28-50,20.94-71.12,5.7-8.83,12.7-17.86,21.34-24A93.81,93.81,0,0,1,839,457.06a35.49,35.49,0,0,1,11.37-2.18A.75.75,0,0,0,850.41,453.38Z" transform="translate(-745.26 -379.26)"/><path class="cls-6" d="M879.17,585.32c-3.64,6.52-9.53,9.68-15.91,13-5.28,2.77-10.51,5.64-15.53,8.85-9.61,6.17-18.41,13.73-24.13,23.74l.91.12c-3.07-9.49,3.55-17.87,8.22-25.48,4.48-7.32,6.61-15.2,5.41-23.78a.51.51,0,0,0-.84-.22c-3.18,3.89-7.56,6.23-11.69,8.95a30.87,30.87,0,0,0-9.56,9.54c-5.55,8.87-10.44,19.39-11.19,29.93-.05.64.95.64,1,0,.75-10.55,5.76-21.35,11.5-30.13,2.77-4.21,6.45-7,10.66-9.7,3.62-2.28,7.25-4.52,10-7.88l-.84-.22A32.38,32.38,0,0,1,835.85,597c-1.53,4.54-4.23,8.51-6.78,12.52-4.13,6.47-8.06,14-5.52,21.85a.5.5,0,0,0,.91.12c6.18-10.81,16-18.66,26.47-25.06,5.12-3.11,10.42-5.9,15.72-8.67,5.57-2.92,10.26-6.3,13.38-11.89a.5.5,0,0,0-.86-.5Z" transform="translate(-745.26 -379.26)"/><path class="cls-7" d="M837.39,583.63q-6.66,4.43-13.16,9.11a27.38,27.38,0,0,0-11.56,14.42c-1.66,3.72-3.27,7.46-4.87,11.2-1.41,3.26-2.83,6.63-2.87,10.18a8.3,8.3,0,0,0,.48,3.09,11.8,11.8,0,0,0,2.24,3.25c8,9.17,16.37,18.66,27.64,23.22a70.94,70.94,0,0,0,14.47,3.68c12.67,2.19,25.77,3.74,38.29.83a10.4,10.4,0,0,0,3.92-1.55,10.65,10.65,0,0,0,2.4-2.85,60.33,60.33,0,0,0,8-45.11c-1.26-5.66-3.42-11.25-7.23-15.62s-9-7.26-14.12-10.05a2.19,2.19,0,0,0-1.89-.38,2.34,2.34,0,0,0-.87.87c-3.06,4.32-7.94,6.89-12.6,9.38-16.23,8.64-32.65,18.53-42.82,33.85-.69-5.29,1-10.61,3.4-15.38s5.41-9.19,7.66-14a48.26,48.26,0,0,0,4.43-18" transform="translate(-745.26 -379.26)"/><path class="cls-7" d="M837.14,583.2c-5.15,3.42-10.33,6.88-15.24,10.63a29.42,29.42,0,0,0-9.13,11.91c-2.37,5.19-4.81,10.44-6.81,15.79-1.72,4.57-2.44,9.12.81,13.1,6.42,7.84,13.73,15.82,22.52,21,9.67,5.74,21.61,7.19,32.62,8.39a90.18,90.18,0,0,0,18.29.33c4.53-.44,10.65-.68,13.67-4.57,6.07-7.82,9.21-18.64,10.12-28.35,1-10.18-.36-21.69-5.76-30.57a32,32,0,0,0-10.47-10.15,51.52,51.52,0,0,0-6.8-3.9c-1.46-.63-2.16-.31-3.15.83-4.28,5-9.61,7.66-15.28,10.74-5.27,2.85-10.47,5.84-15.48,9.15-9.51,6.3-18.24,13.82-24.66,23.34l.94.25c-1-9.3,4.44-17.08,8.75-24.82a52,52,0,0,0,6.74-22.63c0-.64-1-.64-1,0-.51,9.26-3.77,17.27-8.37,25.21-4,6.83-8,14.06-7.12,22.24a.5.5,0,0,0,.93.25c10.9-16.19,28-25.68,44.75-34.8a43,43,0,0,0,10.12-7.69,2.66,2.66,0,0,1,3.36-.65,26,26,0,0,1,2.91,1.63,51.45,51.45,0,0,1,6.8,4.52c8.17,6.63,11.23,17.26,11.91,27.41a60.2,60.2,0,0,1-5.53,29.53,56.9,56.9,0,0,1-3.2,5.9,10.13,10.13,0,0,1-7.38,5.09,68.7,68.7,0,0,1-16.63,1.32,132.46,132.46,0,0,1-16.75-1.75,98.32,98.32,0,0,1-15.57-3.34c-9.51-3.14-17.1-9.82-23.81-17-1.76-1.89-3.47-3.83-5.17-5.78a19.17,19.17,0,0,1-2.89-3.66,9.57,9.57,0,0,1-.5-6.05c1.05-5.82,4.28-11.53,6.66-16.91s4.78-10.26,9.49-14c5-4,10.48-7.53,15.82-11.08.53-.36,0-1.22-.51-.86Z" transform="translate(-745.26 -379.26)"/><path class="cls-8" d="M825.83,560.26c1.64,6.2,3.71,13,9.2,16.32,1.06.63,2.28,1.19,2.79,2.31a4.82,4.82,0,0,1,.31,1.73,47.29,47.29,0,0,1-8.72,29.4c-2.76,3.86-6.16,7.38-7.88,11.8s-1.17,10.24,2.8,12.84a84.67,84.67,0,0,1,21.33-17.85c10.4-6.11,22.22-10.08,31.27-18,2.67-2.35,5.25-5.7,4.34-9.14-1.13-4.24-6.53-5.44-9.74-8.45-2.81-2.63-3.85-6.66-4.1-10.5a34.86,34.86,0,0,1,8.68-25.27c1.91-2.14,4.11-4.06,5.57-6.52s2.06-5.71.57-8.16c-1.18-1.94-3.41-3-5.56-3.7-3.85-1.29-7.89-1.93-11.7-3.31-6-2.21-11.29-6.24-17.23-8.74s-13.39-3.19-18.35.92c-3.89,3.23-5.25,8.56-6,13.56a105,105,0,0,0-1,23.3c.05.74,1,1.67,1.26,1" transform="translate(-745.26 -379.26)"/><path class="cls-8" d="M825.35,560.39c1.51,5.7,3.33,12.11,8.27,15.83.76.57,1.74.94,2.45,1.56,1.66,1.43,1.59,2.8,1.6,4.53a44.54,44.54,0,0,1-.33,5.89A46.9,46.9,0,0,1,833.9,601a49.77,49.77,0,0,1-6.4,10.73c-2.22,2.9-4.63,5.73-6.1,9.11-2.09,4.78-1.85,11,2.67,14.25a.51.51,0,0,0,.61-.08,85.24,85.24,0,0,1,20.51-17.34c7.48-4.5,15.63-7.75,23.14-12.19,4.93-2.91,14.52-8.3,13.56-15.26-.38-2.75-2.53-4.51-4.73-5.9-3.9-2.46-7.17-4.44-8.5-9.2-2.35-8.37.09-18.16,4.71-25.31,3.34-5.17,13.32-11.71,9.49-19-1.66-3.15-5.55-4.21-8.73-5.08-4.87-1.33-9.56-2.44-14.08-4.8-6.94-3.64-13.64-8.56-21.83-8.48-8.79.09-13.33,6.62-14.92,14.6a93.23,93.23,0,0,0-1.6,15c-.09,2.92-.06,5.85.08,8.76.07,1.38-.1,2.92,1.33,3.6a.51.51,0,0,0,.6-.07l.3-.25c.5-.41-.21-1.12-.71-.71-.18.15-.61-5.06-.62-5.49,0-1.29,0-2.59,0-3.89.05-3.25.24-6.49.59-9.72.59-5.48,1.24-12,4.93-16.44,8.12-9.69,21.47-1.46,29.82,3.13a63.66,63.66,0,0,0,15,5.5c2.71.71,6,1.39,8,3.45,3.13,3.15,1.26,7.78-1.12,10.7-3.23,4-6.78,7.2-9.14,11.85A35.89,35.89,0,0,0,867,565.83c-.33,4.29-.05,9,2.08,12.89,2,3.58,5.52,4.91,8.69,7.17,11.57,8.26-11.22,19.67-17.3,22.73-9.29,4.69-18.48,9.16-26.52,15.88-2,1.72-4,3.54-5.91,5.45-.8.8-1.57,1.62-2.33,2.46-.51.55-.79,1.26-1.56,1.19s-1.3-1-1.69-1.68c-2.75-4.59-.8-10.16,1.9-14.25,3.28-5,7.23-9.22,9.79-14.67a48.34,48.34,0,0,0,4.34-15.64c.25-2.52.89-6.2-.14-8.6-.83-1.94-3.4-2.68-4.88-4-4.17-3.69-5.73-9.46-7.1-14.64a.5.5,0,0,0-1,.26Z" transform="translate(-745.26 -379.26)"/><path class="cls-6" d="M858.22,499.51c-2.91,1.65-5.82-3-9.16-2.91s-5.11,4.78-8.48,5.29c-1.67.25-3.41-.63-5-.18-3.31.92-3.4,6.13-6.47,7.66a13.11,13.11,0,0,1-2.41.71,8.37,8.37,0,0,0-5.92,7.18,6,6,0,0,1-.59,3,6.1,6.1,0,0,1-1.64,1.33,7.43,7.43,0,0,0-3.06,5.72,7.09,7.09,0,0,1-.19,2.26c-.53,1.41-2.2,2-3.15,3.18-1.35,1.68-.94,4.18-.06,6.16s2.16,3.84,2.38,6c.13,1.29-.13,2.6.11,3.87.49,2.66,3,4.42,4.47,6.65a23.53,23.53,0,0,0,2.25,3.37,3.19,3.19,0,0,0,3.67.89c1.36-.78,1.45-2.67,1.38-4.23l-.53-11.76a11.52,11.52,0,0,1,.45-4.79,16.5,16.5,0,0,1,2.63-3.79,19.33,19.33,0,0,0,4-11.43c1.85,4.23,3.91,8.72,7.84,11.16a20.13,20.13,0,0,0,7.42,2.37,73.49,73.49,0,0,0,27.88-.9,10.47,10.47,0,0,0-4.45,8.85,17.65,17.65,0,0,1,.1,2.81,11.32,11.32,0,0,1-.68,2.47,30.75,30.75,0,0,0-1.62,9.74,62.56,62.56,0,0,0,19.31-9.46,17.59,17.59,0,0,0,5-4.93,7.36,7.36,0,0,0,.68-6.75,19.15,19.15,0,0,1-1-2c-.88-2.74,1.83-5.82.63-8.44-1.06-2.31-4.59-2.79-5.38-5.21a8.24,8.24,0,0,1,0-3.28,9.36,9.36,0,0,0-4.54-8.67,9.28,9.28,0,0,1-3.08-2.07,10.64,10.64,0,0,1-1.09-2.65c-1.32-3.4-5.07-5.28-8.69-5.74a5.66,5.66,0,0,1-2.34-.59,9.54,9.54,0,0,1-1.92-2.26c-2.27-2.71-7.4-1.85-8.66,1.45" transform="translate(-745.26 -379.26)"/><path class="cls-6" d="M858,499.08c-2.29,1-4.55-1.49-6.49-2.37a4.88,4.88,0,0,0-4.25-.16c-1.54.71-2.61,2.1-3.85,3.2a5.38,5.38,0,0,1-4.42,1.59,10.65,10.65,0,0,0-3.56-.11,5.29,5.29,0,0,0-2.95,2.59c-1.54,2.54-2,4.52-5.1,5.58-4,1.35-6.33,3.6-7.11,7.86a6.81,6.81,0,0,1-2.66,4.4,8.08,8.08,0,0,0-1.86,2.48,7.94,7.94,0,0,0-.71,2.39c-.07.49,0,1-.06,1.51-.3,2.22-.82,2.21-2.19,3.38-3.66,3.11-1.29,7.07.29,10.63,1.2,2.69.29,5.56,1.45,8.18.92,2.09,2.8,3.56,4.08,5.4,1.08,1.57,1.81,3.57,3.66,4.42a3,3,0,0,0,4-1.07c1.24-2,.49-5.27.39-7.49-.16-3.63-1.1-8.19-.16-11.73.77-2.92,3.65-5.18,5-7.93a20.73,20.73,0,0,0,1.92-8.19l-.93.25c1.55,3.53,3.19,7.24,6.1,9.88s6.63,3.47,10.38,4a75.06,75.06,0,0,0,27.22-1l-.39-.92a11.2,11.2,0,0,0-4.69,8.92,17.21,17.21,0,0,1-.16,4.3c-.31,1.29-.84,2.52-1.15,3.82a32.43,32.43,0,0,0-.89,7.27.5.5,0,0,0,.63.48c7.73-2.3,15.59-5.94,21.7-11.29,2.44-2.13,4.48-5.08,4.14-8.47-.18-1.83-1.6-3.3-1.66-5.12s1-3.49,1.11-5.28c.15-2.88-2.09-3.9-4.1-5.38-2.38-1.75-1.35-4-1.55-6.46a10,10,0,0,0-1.47-4.4,9.72,9.72,0,0,0-3-3,18.94,18.94,0,0,1-2.3-1.29c-1.18-1-1.53-2.42-2.15-3.77a10.14,10.14,0,0,0-6.48-5.14c-.83-.25-1.67-.32-2.5-.53a6.25,6.25,0,0,1-3-1.46c-.36-.36-.59-.87-.94-1.25a5.34,5.34,0,0,0-3.08-1.67,5.9,5.9,0,0,0-6.36,3.23c-.27.58.6,1.08.86.5a4.86,4.86,0,0,1,4.89-2.8c2.68.22,3,2.46,4.91,3.71,1.32.88,3.1.71,4.59,1.13a9.74,9.74,0,0,1,5.75,3.9c.92,1.46,1,3.26,2.28,4.5s3.05,1.61,4.33,2.86a9,9,0,0,1,2.64,7c-.09,1.65-.48,3.09.57,4.52a11.36,11.36,0,0,0,3,2.33c2.66,1.85,2,4,1.31,6.68a6.76,6.76,0,0,0-.15,3.54c.28,1,1,1.74,1.26,2.7a6.94,6.94,0,0,1-.53,4.94c-2,4.2-7.1,7-11,9.2a63.62,63.62,0,0,1-13.39,5.66l.64.48a31.85,31.85,0,0,1,.85-7c.42-1.71,1.25-3.38,1.44-5.13.22-2-.28-3.72.22-5.67a10.2,10.2,0,0,1,3.89-5.63.51.51,0,0,0-.39-.92,73.75,73.75,0,0,1-25,1.28c-4.38-.53-9-1.25-12.21-4.52-2.51-2.53-4-5.93-5.4-9.15-.21-.49-.91-.2-.93.25a19.41,19.41,0,0,1-2,8.05c-1.08,2.18-2.83,3.83-4.06,5.9a9.53,9.53,0,0,0-1.08,5.25c.06,2.88.26,5.77.39,8.65.11,2.37,1.25,9.44-3.25,7.38-1.89-.87-3.25-4.25-4.66-5.87a12.69,12.69,0,0,1-2.24-3.11c-.65-1.45-.46-2.75-.51-4.25a13.61,13.61,0,0,0-1.78-5.56c-1.47-3-2.32-5.8.64-8.24a4.58,4.58,0,0,0,2.09-3c.22-1.51,0-2.78.72-4.2.77-1.6,1.71-2.13,3-3.22,1.46-1.24,1.36-2.33,1.6-4.12A8.05,8.05,0,0,1,825.6,511c1.76-.87,3.66-.77,5.08-2.26a16.79,16.79,0,0,0,2.23-3.7,6.85,6.85,0,0,1,1.6-2.21c1.47-1.18,3.11-.55,4.81-.46a5.63,5.63,0,0,0,4.11-1.36c1.7-1.34,3.24-3.85,5.63-3.93,3.5-.11,5.74,4.5,9.42,2.85.58-.27.07-1.13-.51-.87Z" transform="translate(-745.26 -379.26)"/><path class="cls-6" d="M830.92,536.44a6.52,6.52,0,0,1,6.48,0,7.94,7.94,0,0,0,3.39,1.17l-.14-1a7,7,0,0,1-4.06-.44,29.82,29.82,0,0,0-3-1.58,2.72,2.72,0,0,0-3,.72c-.44.47.27,1.18.71.71,1.48-1.61,4.3,1,5.8,1.44a8.38,8.38,0,0,0,3.76.11c.58-.1.41-1-.13-1-2.06-.09-3.68-1.77-5.75-2a7.6,7.6,0,0,0-4.62,1,.5.5,0,0,0,.5.87Z" transform="translate(-745.26 -379.26)"/><path class="cls-6" d="M836.93,539.49c0,1.11-1.62,4.38,1.17,3.82,2.19-.43,1.85-3.56.41-4.57a.47.47,0,0,0-.5,0,3,3,0,0,0-.86,4,.51.51,0,0,0,.86,0,2.88,2.88,0,0,0,.24-3,.51.51,0,0,0-.92.12,4.29,4.29,0,0,0,0,1.92.5.5,0,0,0,.73.3,1.53,1.53,0,0,0,.57-2.25.51.51,0,0,0-.87,0,6,6,0,0,0-.49,1.92.5.5,0,0,0,.75.43,1.85,1.85,0,0,0,.34-3c-1.35-1.36-3.65-.77-5.16-.07-.53.25-.14,1,.39.91a15.41,15.41,0,0,1,9.75.92c.58.26,1.09-.6.5-.86a16.54,16.54,0,0,0-10.52-1l.39.91a5.34,5.34,0,0,1,2.29-.6c1.11-.14,1.61.49,1.52,1.92l.75.43.36-1.42h-.87l-.2.89.73.3,0-1.4-.92.12-.23,2H838c-.63-.85-.44-1.48.55-1.9-.83.84-1.13,1-.91.56-.06-.21.29-1.09.28-1.43,0-.65-1-.65-1,0Z" transform="translate(-745.26 -379.26)"/><path class="cls-6" d="M853.73,544.32c2.13-1.13,3.55-3.13,6.23-2.75,1.65.23,3.15,1,4.82,1.2l-.13-1-.6-.08a.5.5,0,0,0-.5.87,1.29,1.29,0,0,0,1.37.18c.58-.15.39-.92-.14-1-2.07-.24-4-1.46-6.15-1.27s-3.59,2-5.4,3c-.57.3-.07,1.16.5.86Z" transform="translate(-745.26 -379.26)"/><path class="cls-6" d="M854.14,541c1.28-.07,2-.83,3.13-1.4a7,7,0,0,1,6.34,0l.39-.92a9.1,9.1,0,0,0-4.41-.61c-1.66.2-3.27,1.46-4.9,1.41-.64,0-.64,1,0,1,1.37,0,2.34-.71,3.61-1.11a8,8,0,0,1,5.43.28c.52.2.9-.67.39-.92a8.36,8.36,0,0,0-4.87-.8,7.72,7.72,0,0,0-1.89.54c-1.05.45-2,1.49-3.22,1.55-.64,0-.64,1,0,1Z" transform="translate(-745.26 -379.26)"/><path class="cls-6" d="M837.22,536.28l-1.08-.7-.51.87,2.5,1.14c.58.26,1.07-.53.51-.87l-2.54-1.54-.38.92,1,.17c.63.1.9-.87.26-1l-1-.17a.5.5,0,0,0-.38.92l2.53,1.54.51-.87-2.5-1.14a.5.5,0,0,0-.51.87l1.09.69c.54.35,1-.51.5-.86Z" transform="translate(-745.26 -379.26)"/><path class="cls-6" d="M857.6,541.15a5.65,5.65,0,0,0-1,3.48c.11.79.69,1.66,1.6,1.38a2.61,2.61,0,0,0,1.44-2.36,3.22,3.22,0,0,0-1.13-2.66.49.49,0,0,0-.7,0c-.76.76-2.48,3.41-.83,4.13a1.43,1.43,0,0,0,1.58-.38,2.52,2.52,0,0,0,.19-2.4.5.5,0,0,0-.91-.12,2.41,2.41,0,0,0-.33,2.1.51.51,0,0,0,.83.22,1.72,1.72,0,0,0,.58-1.69.5.5,0,0,0-.83-.22,2.25,2.25,0,0,0-.66,1.38c-.08.63.92.63,1,0a1,1,0,0,1,.36-.67l-.83-.22a.7.7,0,0,1-.32.71l.83.22a1.48,1.48,0,0,1,.23-1.33l-.91-.12a2.15,2.15,0,0,1,.14,1.27c-.3.67-.56,0-.48-.44a3.79,3.79,0,0,1,1.06-1.74h-.7a2.28,2.28,0,0,1,.48,3c-.76.89-.74-.53-.65-1a6.12,6.12,0,0,1,.81-2,.5.5,0,0,0-.86-.51Z" transform="translate(-745.26 -379.26)"/><g class="cls-9"><path class="cls-2" d="M847.65,540.41a17.26,17.26,0,0,1-1.45,10.11c-.27.56-.56,1.27-.18,1.76s.75.42,1.13.63a1.75,1.75,0,0,1,.47,2.54c1,0,2.3-.42,2.39-1.44.06-.79-.66-1.38-1.12-2-1.08-1.55-.66-3.63-.5-5.51a17.43,17.43,0,0,0-.36-5.29" transform="translate(-745.26 -379.26)"/><path class="cls-2" d="M847.17,540.54c.48,3.59-.3,6.5-1.45,9.85a2.51,2.51,0,0,0-.27,1.75c.35,1,2.48,1.69,1.74,3.06a.5.5,0,0,0,.43.75c2.1-.21,3.37-1.19,2.46-3.26-.54-1.21-1.35-1.89-1.4-3.34a17.28,17.28,0,0,1,.14-2.16,21.78,21.78,0,0,0-.3-6.14c-.13-.63-1.09-.36-1,.27.55,2.79.06,5.27.13,8a6.12,6.12,0,0,0,.39,2.16c.36.84,2.62,3.13-.45,3.44l.43.76a2.4,2.4,0,0,0,.25-2.17c-.75-1.78-2.36-1-1.32-3.56a18.68,18.68,0,0,0,1.16-9.7c-.09-.64-1-.37-1,.26Z" transform="translate(-745.26 -379.26)"/></g><g class="cls-9"><path class="cls-2" d="M840.93,553.67c.34.6,1.22.49,1.91.46a4.51,4.51,0,0,1,4.36,3,3.71,3.71,0,0,1-2.34-.36l-2.56-1a2.29,2.29,0,0,1-1.11-.71.8.8,0,0,1,.2-1.16" transform="translate(-745.26 -379.26)"/><path class="cls-2" d="M840.58,554c.63.79,1.53.59,2.44.61a4.05,4.05,0,0,1,3.69,2.6l.35-.61a5.5,5.5,0,0,1-2.92-.69c-.19-.07-3.14-1.14-2.49-1.62s0-1.24-.51-.86c-1.14.85-.46,2.07.6,2.6a28.56,28.56,0,0,0,3,1.18,4.58,4.58,0,0,0,2.6.35.5.5,0,0,0,.35-.61,5.1,5.1,0,0,0-2.39-2.76,4.73,4.73,0,0,0-1.68-.54c-.66-.08-1.85.24-2.32-.36s-1.11.21-.71.71Z" transform="translate(-745.26 -379.26)"/></g><path class="cls-6" d="M839.09,564.24a13.61,13.61,0,0,1,4.27.2c1.1.24,2.16.85,3.28,1,2.13.25,3.9-2,6-1.34.61.2.88-.76.27-1-2.5-.81-4.2,1.74-6.68,1.18s-4.45-1.31-7.17-1.07c-.64,0-.64,1,0,1Z" transform="translate(-745.26 -379.26)"/><path class="cls-6" d="M840.12,563.09c1.18.73,2.19-.1,3.43,0s1.59,1.54,2.86,1.56a.5.5,0,0,0,.25-.93,6.44,6.44,0,0,0-5.37-1.11c-.63.14-.36,1.11.26,1a5.48,5.48,0,0,1,4.61,1l.25-.93c-.92,0-1.52-1.36-2.51-1.54s-2.32.67-3.28.08c-.55-.34-1,.53-.5.86Z" transform="translate(-745.26 -379.26)"/><path class="cls-6" d="M841.08,564.87a7.88,7.88,0,0,0,7.83,2.69l-.38-.91a5.78,5.78,0,0,1-5.7-.43l-.5.86a6.92,6.92,0,0,0,5.51.37c.61-.21.35-1.18-.26-1a6,6,0,0,1-4.75-.26.5.5,0,0,0-.5.86,6.75,6.75,0,0,0,6.7.43c.54-.25.15-1-.38-.91a6.89,6.89,0,0,1-6.87-2.44c-.41-.5-1.11.21-.7.71Z" transform="translate(-745.26 -379.26)"/><g class="cls-10"><path class="cls-2" d="M867.14,559.5c-2.55,3-3.78,6.84-6.19,9.92a21.41,21.41,0,0,1-10.75,6.83,63,63,0,0,1-12.76,2,38.62,38.62,0,0,0,13.38,7.77,3.38,3.38,0,0,1,2.2,1.43c.44,1-.07,2.2.54,3a2,2,0,0,0,2.27.48c3.38-1.21,3-6.42,5.68-8.82.81-.72,1.84-1.13,2.72-1.77,3.12-2.25,3.59-6.67,3.3-10.5s-1-7.89.63-11.36" transform="translate(-745.26 -379.26)"/><path class="cls-2" d="M866.79,559.14c-3.81,4.66-5.3,10.44-10.6,13.86-5.54,3.59-12.34,4.21-18.75,4.8-.39,0-.7.54-.35.85a40.85,40.85,0,0,0,7.47,5.25,41.54,41.54,0,0,0,3.82,1.8c2,.8,3.88.87,4.35,3.36.29,1.5.61,2.7,2.48,2.59,1.71-.1,2.9-1.59,3.6-3,1.21-2.46,1.5-5.08,3.94-6.72,1.91-1.29,3.41-2.23,4.36-4.44,2.57-6-1.05-12.66,1.48-18.66.25-.59-.61-1.1-.86-.51-2,4.71-.41,9.48-.65,14.37-.15,3.1-1.07,6-3.78,7.75-1.86,1.21-3,2.07-3.94,4.14-.69,1.55-1.2,4.75-2.91,5.51-.45.49-1,.42-1.54-.22-1,0-1.37-.36-1.18-1.13-.12-.33,0-.72-.14-1.07a2.53,2.53,0,0,0-1-1.32,11.06,11.06,0,0,0-2.82-1.17,36.42,36.42,0,0,1-4.37-2A38.84,38.84,0,0,1,837.8,578l-.36.85c6.37-.59,13-1.23,18.61-4.53a19.08,19.08,0,0,0,5.83-5.27c2.09-2.93,3.33-6.35,5.62-9.15.4-.49-.3-1.21-.71-.71Z" transform="translate(-745.26 -379.26)"/></g><path class="cls-6" d="M879.18,586.6c2.38,2.37,5.38,3.82,8.06,5.79a36.09,36.09,0,0,1,6.87,6.71,43,43,0,0,1,8.22,18.24c3,14.93-1.81,30.19-9.42,43a.5.5,0,0,0,.86.51c7.63-12.82,12.4-28,9.67-43a44.69,44.69,0,0,0-7.63-18.13,37.68,37.68,0,0,0-6.77-7.16c-2.94-2.37-6.47-4-9.15-6.64a.5.5,0,0,0-.71.71Z" transform="translate(-745.26 -379.26)"/><path class="cls-6" d="M885.73,603.14c-9,4.17-18,9.23-23.9,17.43-6.15,8.56-8.4,19.23-14.6,27.77-.37.52.49,1,.87.51,5.88-8.11,8.2-18.08,13.66-26.41,5.79-8.81,15.14-14.11,24.48-18.44.58-.27.07-1.13-.51-.86Z" transform="translate(-745.26 -379.26)"/><path class="cls-6" d="M847.08,610.67c-5,11.34-14.53,21.88-12.92,35.09.07.64,1.07.64,1,0-1.58-13,7.84-23.4,12.79-34.58.26-.58-.61-1.09-.87-.51Z" transform="translate(-745.26 -379.26)"/><g class="cls-10"><path class="cls-2" d="M837.65,584l-9.19,5.52a52.21,52.21,0,0,0-8.43,5.82c-6.36,5.75-9.5,14.16-12.42,22.22-1.89,5.23-3.78,11-1.79,16.21,1.52,4,5,6.75,8.35,9.35l8.32,6.46a26.18,26.18,0,0,1,.43-29.58c2.19-3,5-5.46,7.36-8.33a34.14,34.14,0,0,0,7.17-26.84" transform="translate(-745.26 -379.26)"/><path class="cls-2" d="M837.4,583.54c-6.55,3.93-14.15,7.44-19.43,13.1-4.65,5-7.37,11.41-9.73,17.72s-5.59,13.77-2.54,20.36c1.36,2.94,3.77,5.21,6.24,7.23,3.33,2.73,6.79,5.31,10.19,8,.41.31,1.13-.09.79-.61a25.72,25.72,0,0,1-4.09-17.53c.86-6.78,4.38-11.73,8.95-16.59,7.87-8.37,11.92-19,10.15-30.52-.1-.63-1.06-.36-1,.27a33.89,33.89,0,0,1-2.87,19.76c-2.82,5.94-7.81,9.83-11.6,15a26.77,26.77,0,0,0-.44,30.09l.79-.61c-3-2.32-6-4.62-8.94-7-2.55-2-5.16-4.14-6.8-7-3.83-6.7-.08-14.85,2.39-21.38,2.32-6.13,5.08-12.36,9.74-17.1,5.17-5.24,12.42-8.62,18.68-12.37a.5.5,0,0,0-.51-.86Z" transform="translate(-745.26 -379.26)"/></g><g class="cls-10"><path class="cls-2" d="M834.55,503.31a25.29,25.29,0,0,0-4.49,6.31,9,9,0,0,0-.15,7.52c1,1.91,2.91,3.85,2,5.81-.47,1.07-1.66,1.63-2.41,2.53-1.69,2-.85,5.06-1.39,7.63-.76,3.61-4.21,6.14-5.14,9.71-1.21,4.63,2.14,9.67.57,14.19a1.53,1.53,0,0,1-.77,1c-.68.26-1.34-.41-1.76-1l-3.55-4.94a11.94,11.94,0,0,1-1.71-2.95c-.55-1.59-.4-3.33-.74-5-.73-3.52-3.64-7-2.1-10.28.8-1.71,2.69-2.74,3.43-4.48s.15-4,1.08-5.77c.84-1.58,2.73-2.31,3.83-3.73a14.46,14.46,0,0,0,1.62-3.52,12.92,12.92,0,0,1,9.24-7.57" transform="translate(-745.26 -379.26)"/><path class="cls-2" d="M834.2,503c-2.36,2.66-4.79,5.53-5.4,9.15a8.85,8.85,0,0,0,.21,4.09c.49,1.62,2.42,3.28,2.53,4.93.17,2.45-2.32,3.33-3.13,5.29a11.6,11.6,0,0,0-.54,4.14c-.14,4.5-3.07,6.8-4.8,10.63-1.31,2.89-.72,5.9-.12,8.9a27.32,27.32,0,0,1,.52,3.26,12.18,12.18,0,0,1,0,1.48c-.08,1.29.09,1.34-1.35,1.27s-1.8-.93-2.69-2.18c-.67-.93-1.38-1.85-2-2.81-1.37-2.1-1.42-3.9-1.77-6.28a27.37,27.37,0,0,0-1.9-5.69c-1-2.66-1-4.7,1-6.89a8.43,8.43,0,0,0,2.3-3.44c.63-2.33,0-4.47,2-6.35,1.3-1.22,2.59-2,3.38-3.66,1-2.2,1.65-4.23,3.39-6a12.81,12.81,0,0,1,6.4-3.5c.63-.15.37-1.11-.26-1a13.69,13.69,0,0,0-8.52,5.86c-1.18,1.83-1.5,4.27-3,5.86-1.14,1.2-2.74,1.9-3.51,3.44-1,2-.22,4.36-1.36,6.28-1,1.71-2.85,2.68-3.42,4.68a7.58,7.58,0,0,0,.47,4.6,33.52,33.52,0,0,1,2.17,7.62c.47,4,3.21,7.75,5.85,10.7,2.29,2.56,3.65,0,3.8-2.52.27-4.47-2.44-8.83-.51-13.19,1.63-3.67,4.64-6.09,4.86-10.34a19,19,0,0,1,.28-3.84c.48-1.8,1.84-2.23,2.83-3.57a3.52,3.52,0,0,0,.28-3.73c-1.22-2.9-3.1-4.68-2.4-8.17.66-3.28,2.93-5.9,5.08-8.32.42-.49-.28-1.19-.71-.71Z" transform="translate(-745.26 -379.26)"/></g><g class="cls-10"><path class="cls-2" d="M833.36,528.79a7.13,7.13,0,0,0,3.59,5.82c2.48,1.18,5.66.33,8,1.83a63.78,63.78,0,0,1-10-9.75c-.23-.28-.55-.58-.88-.47s-.38.37-.45.63a5.65,5.65,0,0,0-.16,2.24" transform="translate(-745.26 -379.26)"/><path class="cls-2" d="M832.88,528.92a7.92,7.92,0,0,0,3.26,5.8c2.57,1.65,5.88.69,8.52,2.15.48.26,1.07-.42.61-.79a80.1,80.1,0,0,1-9.71-9.43c-2-2.26-2.72.5-2.6,2.44,0,.64,1,.65,1,0s-.19-2,.39-2.08,1,.94,1.3,1.29c.9,1,1.83,2,2.79,3a64.76,64.76,0,0,0,6.12,5.47l.61-.78c-2-1.08-4-.93-6.12-1.31-3.18-.56-4.79-3-5.2-6-.09-.64-1.05-.37-1,.26Z" transform="translate(-745.26 -379.26)"/></g><g class="cls-11"><path class="cls-2" d="M849,453.86a85,85,0,0,0-58,40.66c-5.62,9.75-9.2,20.51-12.75,31.19a148.24,148.24,0,0,0-5.51,19.47,118.12,118.12,0,0,0-1.53,23.17,290,290,0,0,0,2.73,36,76,76,0,0,0,4,17.42,59.82,59.82,0,0,0,7.68,13.39c18.66,25.37,51,40.45,82.29,37s60.1-25.86,69.77-55.84c3-9.28,4.23-19,4.82-28.77,1.8-29.36-2.34-59.47-15.14-85.95-7.33-15.14-18.46-26.73-32.49-36s-31.23-15.81-47.32-10.9" transform="translate(-745.26 -379.26)"/><path class="cls-2" d="M848.85,453.38a85.83,85.83,0,0,0-48.7,27.52,91,91,0,0,0-15.64,25.77,237.67,237.67,0,0,0-11.28,33.67c-2.88,11.71-2.84,23.85-2.36,35.83A232.73,232.73,0,0,0,774.63,612c3.91,19.78,18.78,36,35.41,46.61,16,10.17,35.09,15.64,54.06,14.46a84.93,84.93,0,0,0,48.54-19.56,81.24,81.24,0,0,0,28.07-47A167.41,167.41,0,0,0,943.36,572a186.84,186.84,0,0,0-3.28-33c-4-20.53-11.41-41.61-25.6-57.36a101.13,101.13,0,0,0-23-18.77c-8.81-5.31-18.69-9.42-29-10.22a42.28,42.28,0,0,0-15.05,1.57.5.5,0,0,0,.27,1C868.4,449.17,890,461,905.36,474.2c15.69,13.49,24.85,31.61,30.46,51.28,5.92,20.74,7.55,42.57,6,64-.77,10.94-2.47,22-6.67,32.15a78.37,78.37,0,0,1-14.42,22.67,85.51,85.51,0,0,1-44.49,26c-18.34,4.06-37.76,1.29-54.72-6.58s-32.65-21.16-41.25-37.9c-5.33-10.39-6.31-22.65-7.39-34.1a231.94,231.94,0,0,1-1.06-35.06c.68-12,4.19-23.05,8-34.33,3.5-10.42,7.25-20.87,13.13-30.22a83.95,83.95,0,0,1,56.15-37.82c.64-.11.37-1.07-.26-1Z" transform="translate(-745.26 -379.26)"/></g><g class="cls-12"><path class="cls-1" d="M797.84,595.46a25.77,25.77,0,0,0,17.68-7.33c4.34-4.33,7.6-11.45,7.32-17.67-.29-6.47-2.41-13.18-7.32-17.68a25,25,0,0,0-35.35,0c-4.34,4.33-7.61,11.45-7.33,17.68.29,6.46,2.42,13.17,7.33,17.67s10.9,7.33,17.67,7.33Z" transform="translate(-745.26 -379.26)"/></g><g class="cls-12"><path class="cls-1" d="M809,627.82a25.81,25.81,0,0,0,17.68-7.32c4.34-4.34,7.6-11.45,7.32-17.68-.29-6.47-2.41-13.17-7.32-17.68a25,25,0,0,0-35.35,0c-4.34,4.34-7.61,11.45-7.33,17.68.29,6.46,2.42,13.17,7.33,17.68A26,26,0,0,0,809,627.82Z" transform="translate(-745.26 -379.26)"/></g><g class="cls-12"><path class="cls-1" d="M827.26,633.11a25.76,25.76,0,0,0,17.68-7.32c4.34-4.33,7.6-11.45,7.32-17.68-.29-6.46-2.41-13.17-7.32-17.67s-10.9-7.33-17.68-7.33a25.75,25.75,0,0,0-17.67,7.33c-4.34,4.33-7.6,11.45-7.33,17.67.29,6.47,2.42,13.18,7.33,17.68a26,26,0,0,0,17.67,7.32Z" transform="translate(-745.26 -379.26)"/></g><g class="cls-12"><path class="cls-1" d="M846.09,668.42a25.81,25.81,0,0,0,17.68-7.32c4.34-4.34,7.6-11.45,7.32-17.68-.29-6.47-2.41-13.17-7.32-17.68a25,25,0,0,0-35.35,0c-4.34,4.34-7.6,11.45-7.33,17.68.29,6.47,2.42,13.17,7.33,17.68a26,26,0,0,0,17.67,7.32Z" transform="translate(-745.26 -379.26)"/></g><g class="cls-12"><path class="cls-1" d="M870.81,672.54a25.82,25.82,0,0,0,17.68-7.32c4.33-4.34,7.6-11.45,7.32-17.68-.29-6.47-2.42-13.17-7.32-17.68s-10.91-7.32-17.68-7.32a25.81,25.81,0,0,0-17.68,7.32c-4.34,4.34-7.6,11.45-7.32,17.68.29,6.46,2.41,13.17,7.32,17.68a26,26,0,0,0,17.68,7.32Z" transform="translate(-745.26 -379.26)"/></g><g class="cls-12"><path class="cls-1" d="M881.4,652.53a25.82,25.82,0,0,0,17.68-7.32c4.33-4.34,7.6-11.45,7.32-17.68-.29-6.46-2.41-13.17-7.32-17.68a25,25,0,0,0-35.36,0c-4.33,4.34-7.6,11.46-7.32,17.68.29,6.47,2.41,13.17,7.32,17.68a26,26,0,0,0,17.68,7.32Z" transform="translate(-745.26 -379.26)"/></g><g class="cls-12"><path class="cls-1" d="M893.76,645.47a25.78,25.78,0,0,0,17.67-7.32c4.34-4.34,7.61-11.45,7.33-17.68-.29-6.46-2.42-13.17-7.33-17.68a25,25,0,0,0-35.35,0c-4.34,4.34-7.6,11.45-7.32,17.68.29,6.47,2.41,13.17,7.32,17.68a26,26,0,0,0,17.68,7.32Z" transform="translate(-745.26 -379.26)"/></g><g class="cls-12"><path class="cls-1" d="M905.53,660.77a25.78,25.78,0,0,0,17.67-7.32c4.34-4.34,7.6-11.45,7.33-17.68-.29-6.47-2.42-13.17-7.33-17.68a25,25,0,0,0-35.35,0c-4.34,4.34-7.6,11.45-7.32,17.68.28,6.47,2.41,13.17,7.32,17.68a26,26,0,0,0,17.68,7.32Z" transform="translate(-745.26 -379.26)"/></g><g class="cls-12"><path class="cls-1" d="M896.11,669.6a25.79,25.79,0,0,0,17.68-7.33c4.33-4.33,7.6-11.45,7.32-17.67-.29-6.47-2.41-13.17-7.32-17.68a25,25,0,0,0-35.36,0c-4.33,4.34-7.6,11.45-7.32,17.68.29,6.46,2.41,13.17,7.32,17.67a26,26,0,0,0,17.68,7.33Z" transform="translate(-745.26 -379.26)"/></g><g class="cls-12"><path class="cls-1" d="M870.05,625.22a21.1,21.1,0,0,1-2.49.5l6.64-.89a21.15,21.15,0,0,1-4.57,0,25.72,25.72,0,0,0-25,25c.29,6.46,2.42,13.17,7.33,17.68l5,3.91a25,25,0,0,0,12.62,3.41,40.72,40.72,0,0,0,13.72-1.44A28,28,0,0,0,898.29,662a18.67,18.67,0,0,0,3-9.3,18.9,18.9,0,0,0-.44-10c-2-6-5.71-11.88-11.49-14.94a26.43,26.43,0,0,0-19.27-2.52Z" transform="translate(-745.26 -379.26)"/></g><g class="cls-12"><path class="cls-1" d="M885.22,645.19v-.59a25.69,25.69,0,0,0-25-25l-6.65.89a25,25,0,0,0-11,6.43L838.63,632a24.85,24.85,0,0,0-3.41,12.62v.59a25.7,25.7,0,0,0,25,25l6.64-.9a25,25,0,0,0,11-6.43l3.91-5.06a25,25,0,0,0,3.42-12.61Z" transform="translate(-745.26 -379.26)"/></g><g class="cls-12"><path class="cls-1" d="M847.6,623.6a12.2,12.2,0,0,1-2,1.11l6-2.52a13,13,0,0,1-2.24.61l6.65-.89a11.75,11.75,0,0,1-2.78,0,18.8,18.8,0,0,0-9.64,2.16,25.67,25.67,0,0,0-15.36,22.84c.29,6.47,2.41,13.17,7.32,17.68l5.06,3.91a24.85,24.85,0,0,0,12.62,3.41,10.42,10.42,0,0,0,2.09,0,53.37,53.37,0,0,0,8.25-1.16,43.9,43.9,0,0,0,7.3-3,13.33,13.33,0,0,0,2-1.11,24.09,24.09,0,0,0,11.94-24.91,18.58,18.58,0,0,0-3-9.3c-3.44-5.33-8.57-10-14.94-11.48l-6.65-.9a24.85,24.85,0,0,0-12.61,3.42Z" transform="translate(-745.26 -379.26)"/></g><g class="cls-12"><path class="cls-1" d="M832.38,619.87a5,5,0,0,1-.56.09l6.65-.89a8,8,0,0,1-1.69,0l6.64.9a8.61,8.61,0,0,1-1.63-.46l6,2.52-.26-.12a18.67,18.67,0,0,0-9.3-3,25.69,25.69,0,0,0-24.91,11.93l-2.52,6a25.18,25.18,0,0,0,0,13.29l2.52,6a25.12,25.12,0,0,0,9,9c2,.9,4.18,1.85,6.23,2.63a5.35,5.35,0,0,0,.67.24,47.82,47.82,0,0,0,7.61,1.11,8.42,8.42,0,0,0,1.12.07,36.19,36.19,0,0,0,3.89-.49c1.23-.16,2.61-.3,3.88-.53a27.95,27.95,0,0,0,14.94-11.49,28,28,0,0,0,2.52-19.26l-2.52-6a25.25,25.25,0,0,0-9-9l-6-2.52a25.18,25.18,0,0,0-13.29,0Z" transform="translate(-745.26 -379.26)"/></g><g class="cls-12"><path class="cls-1" d="M818.25,615.14l-2.35.59A27.92,27.92,0,0,0,801,627.22a18.51,18.51,0,0,0-3,9.29,18.9,18.9,0,0,0,.45,10l2.52,6a25.09,25.09,0,0,0,9,9l6,2.52a25.18,25.18,0,0,0,13.29,0l2.35-.59a24.09,24.09,0,0,0,17.91-20.78,19,19,0,0,0-.45-10l-2.52-6a25.09,25.09,0,0,0-9-9l-6-2.52a25,25,0,0,0-13.29,0Z" transform="translate(-745.26 -379.26)"/></g><g class="cls-12"><path class="cls-1" d="M810,608.7l-.38.07,6.65-.9a4.4,4.4,0,0,1-1,0l6.64.89a5.09,5.09,0,0,1-.93-.24l6,2.52a4.42,4.42,0,0,1-.68-.36,18.58,18.58,0,0,0-9.29-3,19,19,0,0,0-10,.45,27.92,27.92,0,0,0-14.94,11.49l-2.52,6a25.18,25.18,0,0,0,0,13.29l2.52,6a25,25,0,0,0,9,9,24.52,24.52,0,0,0,3.66,1.62,19.07,19.07,0,0,0,3.82,1.49c1.14.18,2.28.34,3.42.46s2.28.34,3.42.46a3.85,3.85,0,0,0,.48,0,41.12,41.12,0,0,0,7.41-1,24.09,24.09,0,0,0,17.91-20.78,18.9,18.9,0,0,0-.45-10l-2.52-6a25.09,25.09,0,0,0-9-9l-6-2.52a25.18,25.18,0,0,0-13.29,0Z" transform="translate(-745.26 -379.26)"/></g><g class="cls-12"><path class="cls-1" d="M832.88,615l-2.31-3.56a24.09,24.09,0,0,0-24.91-11.94,18.55,18.55,0,0,0-9.29,3l-5.06,3.91a24.92,24.92,0,0,0-6.43,11L784,624a25,25,0,0,0,3.42,12.62l2.31,3.56a24.1,24.1,0,0,0,24.91,11.93,18.58,18.58,0,0,0,9.29-3l5.06-3.91a24.9,24.9,0,0,0,6.43-11l.89-6.64A24.85,24.85,0,0,0,832.88,615Z" transform="translate(-745.26 -379.26)"/></g><g class="cls-12"><path class="cls-1" d="M823.76,598.67l-.59-.58a25.7,25.7,0,0,0-35.35,0l-3.91,5.06a24.85,24.85,0,0,0-3.42,12.61l.9,6.65a24.86,24.86,0,0,0,6.43,11l.58.59a25.72,25.72,0,0,0,35.36,0l3.91-5.06a24.85,24.85,0,0,0,3.41-12.62l-.89-6.64a25,25,0,0,0-6.43-11Z" transform="translate(-745.26 -379.26)"/></g><g class="cls-12"><path class="cls-1" d="M810.94,586.46a5.49,5.49,0,0,1-1-.27l6,2.52a6.05,6.05,0,0,1-1.21-.7l5.06,3.91a5.26,5.26,0,0,1-.85-.85l3.91,5.06a4.73,4.73,0,0,1-.44-.66,24.09,24.09,0,0,0-24.91-11.94,18.58,18.58,0,0,0-9.3,3l-5.06,3.91a25,25,0,0,0-6.43,11l-.89,6.65a24.84,24.84,0,0,0,3.41,12.61c2.81,4.92,5.85,7.34,10.34,10.54a6,6,0,0,0,1,.6c2,.89,4.58,2.36,7,2.84a18.9,18.9,0,0,0,10,.44,18.67,18.67,0,0,0,9.3-3,28,28,0,0,0,11.49-14.95l.89-6.64A25,25,0,0,0,825.89,598L822,592.89a25,25,0,0,0-11-6.43Z" transform="translate(-745.26 -379.26)"/></g><g class="cls-12"><path class="cls-1" d="M816.11,577.49,813.17,574a25.72,25.72,0,0,0-35.36,0L773.9,579a24.87,24.87,0,0,0-3.41,12.62l.89,6.64a25,25,0,0,0,6.43,11l2.94,3.53a25.72,25.72,0,0,0,35.36,0l3.91-5.06a24.87,24.87,0,0,0,3.41-12.62l-.89-6.65a25,25,0,0,0-6.43-11Z" transform="translate(-745.26 -379.26)"/></g><g class="cls-12"><path class="cls-1" d="M792.55,604.87a25.82,25.82,0,0,0,17.68-7.32c4.33-4.34,7.6-11.45,7.32-17.68-.29-6.47-2.42-13.17-7.32-17.68s-10.91-7.32-17.68-7.32a25.81,25.81,0,0,0-17.68,7.32c-4.34,4.34-7.6,11.45-7.32,17.68.29,6.47,2.41,13.17,7.32,17.68a26,26,0,0,0,17.68,7.32Z" transform="translate(-745.26 -379.26)"/></g><g class="cls-12"><path class="cls-1" d="M770.21,585.34l.58,1.76a28,28,0,0,0,11.49,14.95,18.67,18.67,0,0,0,9.3,3,18.9,18.9,0,0,0,10-.44l6-2.52a25.2,25.2,0,0,0,9-9l2.52-6a25.18,25.18,0,0,0,0-13.29l-.59-1.76a25.76,25.76,0,0,0-30.75-17.46l-6,2.52a25.09,25.09,0,0,0-9,9l-2.52,6a25,25,0,0,0,0,13.29Z" transform="translate(-745.26 -379.26)"/></g><g class="cls-12"><path class="cls-1" d="M814.91,650.77a25.79,25.79,0,0,0,17.68-7.33c4.33-4.33,7.6-11.45,7.32-17.67-.29-6.47-2.42-13.17-7.32-17.68s-10.91-7.32-17.68-7.32a25.81,25.81,0,0,0-17.68,7.32c-4.34,4.34-7.6,11.45-7.32,17.68.29,6.46,2.41,13.17,7.32,17.67a25.93,25.93,0,0,0,17.68,7.33Z" transform="translate(-745.26 -379.26)"/></g><g class="cls-12"><path class="cls-1" d="M811.33,665.23l2.33,3a25.72,25.72,0,0,0,35.36,0l3.91-5.06a24.85,24.85,0,0,0,3.41-12.62l-.89-6.64a25,25,0,0,0-6.43-11l-2.33-3a25.72,25.72,0,0,0-35.36,0l-3.91,5.06A24.85,24.85,0,0,0,804,647.56l.89,6.64a25,25,0,0,0,6.43,11Z" transform="translate(-745.26 -379.26)"/></g><g class="cls-12"><path class="cls-1" d="M860.39,678.71l1.76-.59a24,24,0,0,0,17.91-20.79,18.86,18.86,0,0,0-.44-10l-2.52-6a25.25,25.25,0,0,0-9-9l-6-2.53a25.18,25.18,0,0,0-13.29,0l-1.76.59A28,28,0,0,0,832.16,642a18.58,18.58,0,0,0-3,9.3,18.91,18.91,0,0,0,.45,10l2.52,6a25.2,25.2,0,0,0,9,9l6,2.52a25.18,25.18,0,0,0,13.29,0Z" transform="translate(-745.26 -379.26)"/></g><g class="cls-12"><path class="cls-1" d="M902,661.07c2.95-3.64,6-7.3,8.08-11.5a18.58,18.58,0,0,0,3-9.29,19,19,0,0,0-.45-10,27.92,27.92,0,0,0-11.49-14.94c-5.8-3.07-12.83-4.6-19.26-2.52l-6,2.52a25,25,0,0,0-9,9,37,37,0,0,1-3.61,5.72l3.91-5.06c-.18.24-.37.48-.56.71A24.13,24.13,0,0,0,861.46,653a18.69,18.69,0,0,0,5.17,8.05c4.76,4.37,11,7.62,17.67,7.32l6.65-.89a25.11,25.11,0,0,0,11-6.43Z" transform="translate(-745.26 -379.26)"/></g><g class="cls-12"><path class="cls-1" d="M906.11,649.59c6.94-.82,7-.49,13.21-3.56a3.26,3.26,0,0,0,.4-.24l5.06-3.91.21-.18a25.74,25.74,0,0,0,4.3-5.61c3-5.45,2.87-7.13,3.59-13.26a18.89,18.89,0,0,0-2.15-9.64,25.7,25.7,0,0,0-22.85-15.36l-6.64.89a25,25,0,0,0-11,6.43l-3.91,5.06a25,25,0,0,0-3.41,12.62V623l.89-6.65a2.5,2.5,0,0,1-.11.39l2.52-6a2.2,2.2,0,0,1-.27.47l3.91-5.06a2.73,2.73,0,0,1-.38.38l5.06-3.91a2.2,2.2,0,0,1-.47.27l6-2.52a2.5,2.5,0,0,1-.39.11l6.65-.89h-.14a25.72,25.72,0,0,0-25,25l.9,6.65a24.92,24.92,0,0,0,6.43,11l5.06,3.91a24.84,24.84,0,0,0,12.61,3.41Z" transform="translate(-745.26 -379.26)"/></g><g class="cls-12"><path class="cls-1" d="M942.41,604.32l-1.18-1.76a24.09,24.09,0,0,0-24.91-11.94,18.58,18.58,0,0,0-9.29,3L902,597.5a25,25,0,0,0-6.43,11l-.89,6.65a24.84,24.84,0,0,0,3.41,12.61l1.18,1.77a25.79,25.79,0,0,0,34.2,9l5.06-3.91a25,25,0,0,0,6.43-11l.89-6.65a24.87,24.87,0,0,0-3.41-12.62Z" transform="translate(-745.26 -379.26)"/></g><g class="cls-12"><path class="cls-1" d="M932.77,575.72a3.13,3.13,0,0,1-.52-.16l6,2.52a3.7,3.7,0,0,1-.47-.29l5,3.91a3.59,3.59,0,0,1-.39-.39l3.91,5.06a2.83,2.83,0,0,1-.29-.47l2.52,6a3,3,0,0,1-.13-.39,28,28,0,0,0-11.49-15,18.67,18.67,0,0,0-9.3-3,18.9,18.9,0,0,0-10,.44l-6,2.52a25.36,25.36,0,0,0-9,9l-2.52,6a25.18,25.18,0,0,0,0,13.29,26,26,0,0,0,2.79,6.61c.57.93,1.9,2.47,2.11,2.75a24.84,24.84,0,0,0,2.19,2.79l.16.13,5.06,3.91a2.12,2.12,0,0,0,.35.23,23.22,23.22,0,0,0,6.62,2.74,18.91,18.91,0,0,0,10,.45,18.58,18.58,0,0,0,9.3-3,28,28,0,0,0,11.49-14.94l.89-6.64a25,25,0,0,0-3.41-12.62l-3.91-5.06a25,25,0,0,0-11-6.43Z" transform="translate(-745.26 -379.26)"/></g><g class="cls-12"><path class="cls-1" d="M921.82,554l-.31.07,6.64-.9a2.73,2.73,0,0,1-.64,0l6.65.89a2.91,2.91,0,0,1-.77-.2l6,2.52a3.3,3.3,0,0,1-.55-.32l5.06,3.91a3.26,3.26,0,0,1-.46-.45l3.91,5.06a2.48,2.48,0,0,1-.19-.26,25.79,25.79,0,0,0-34.2-9l-5.06,3.91a25,25,0,0,0-6.43,11l-.89,6.65A24.87,24.87,0,0,0,904,589.54a25.44,25.44,0,0,0,4.49,5.71c4.83,4.15,5.69,4.59,11.65,6.8a2.38,2.38,0,0,0,.45.15,1.8,1.8,0,0,0,.32.06l6.64.89a26,26,0,0,0,7.6-1A24.06,24.06,0,0,0,953,581.4a18.9,18.9,0,0,0-.45-10l-2.52-6a25,25,0,0,0-9-9l-6-2.52a25.18,25.18,0,0,0-13.29,0Z" transform="translate(-745.26 -379.26)"/></g><g class="cls-12"><path class="cls-1" d="M939.3,533a10.84,10.84,0,0,1-1-.64l5.06,3.91a10.17,10.17,0,0,1-1.66-1.62l3.91,5.06a10.07,10.07,0,0,1-1.32-2.24l2.52,6-.1-.27a28,28,0,0,0-11.49-14.94,18.58,18.58,0,0,0-9.3-3,19,19,0,0,0-10,.45l-6,2.52a25.09,25.09,0,0,0-9,9l-2.53,6a25.18,25.18,0,0,0,0,13.29,55.55,55.55,0,0,0,3.13,7.29,45.58,45.58,0,0,0,4.82,6.37,10.21,10.21,0,0,0,1.22,1.24,50.72,50.72,0,0,0,6.37,4.82,18.67,18.67,0,0,0,9.3,3,25.69,25.69,0,0,0,24.91-11.93l2.52-6a25.22,25.22,0,0,0,0-13.3l-2.52-6a25.2,25.2,0,0,0-9-9Z" transform="translate(-745.26 -379.26)"/></g><g class="cls-12"><path class="cls-1" d="M934,513a10.89,10.89,0,0,1-2-1.22l5.06,3.91a10.86,10.86,0,0,1-1.65-1.67l3.91,5.06c-.16-.21-.31-.42-.46-.64A24.05,24.05,0,0,0,914,506.48a18.58,18.58,0,0,0-9.3,3l-5.06,3.9a25.08,25.08,0,0,0-6.43,11l-.89,6.64a24.88,24.88,0,0,0,3.42,12.62,61.71,61.71,0,0,0,4.69,6.1,9.82,9.82,0,0,0,1,1c1.68,1.45,3.58,2.83,5.36,4.16.21.16.42.32.63.46a10.34,10.34,0,0,0,1.38.77,18.63,18.63,0,0,0,9.29,3A25.69,25.69,0,0,0,943,547.18l2.52-6a25.22,25.22,0,0,0,0-13.3l-2.52-6a25,25,0,0,0-9-9Z" transform="translate(-745.26 -379.26)"/></g><g class="cls-12"><path class="cls-1" d="M935.56,502.76l-2.35-2.35a25.72,25.72,0,0,0-35.36,0l-3.91,5.06a24.85,24.85,0,0,0-3.41,12.62l.89,6.64a25,25,0,0,0,6.43,11l2.35,2.36a25.72,25.72,0,0,0,35.36,0l3.91-5.06a24.87,24.87,0,0,0,3.41-12.62l-.89-6.65a25,25,0,0,0-6.43-11Z" transform="translate(-745.26 -379.26)"/></g><g class="cls-12"><path class="cls-1" d="M924.62,482.38a18.57,18.57,0,0,1-2.64-1.66l5.06,3.91a17.56,17.56,0,0,1-2.07-1.88,25.75,25.75,0,0,0-35.36,0l-3.91,5.06a24.87,24.87,0,0,0-3.41,12.62l.89,6.65a25,25,0,0,0,6.43,11,55.17,55.17,0,0,0,7.14,5.79,19.34,19.34,0,0,0,2.63,1.65,18.58,18.58,0,0,0,9.29,3,25.63,25.63,0,0,0,24.91-11.94l2.52-6a25,25,0,0,0,0-13.29l-2.52-6a25.09,25.09,0,0,0-9-9Z" transform="translate(-745.26 -379.26)"/></g><g class="cls-12"><path class="cls-1" d="M913.4,468.9a34.55,34.55,0,0,0-5.78-2.78,35,35,0,0,0-6-2.22,18.89,18.89,0,0,0-10-.44,18.66,18.66,0,0,0-9.29,3,28,28,0,0,0-11.49,14.94L870,488a24.87,24.87,0,0,0,3.41,12.62l3.91,5.06a25,25,0,0,0,11,6.43,18.14,18.14,0,0,1,3,1l-6-2.52a18.86,18.86,0,0,1,2.79,1.52,18.58,18.58,0,0,0,9.3,3,25.67,25.67,0,0,0,24.91-11.94l2.52-6a25.18,25.18,0,0,0,0-13.29l-2.52-6a25.2,25.2,0,0,0-9-9Z" transform="translate(-745.26 -379.26)"/></g><g class="cls-12"><path class="cls-1" d="M866.69,508.37a25.82,25.82,0,0,0,17.68-7.32c4.33-4.34,7.6-11.45,7.32-17.68-.29-6.47-2.41-13.17-7.32-17.68a25,25,0,0,0-35.36,0c-4.33,4.34-7.6,11.45-7.32,17.68.29,6.46,2.41,13.17,7.32,17.68a26,26,0,0,0,17.68,7.32Z" transform="translate(-745.26 -379.26)"/></g><g class="cls-12"><path class="cls-1" d="M861.07,478.26l-1.77-1.18a18.58,18.58,0,0,0-9.29-3,25.68,25.68,0,0,0-24.91,11.94l-2.52,6a25,25,0,0,0,0,13.29l2.52,6a25.14,25.14,0,0,0,9,9l1.77,1.18a18.58,18.58,0,0,0,9.29,3,19,19,0,0,0,10-.45A27.82,27.82,0,0,0,870,512.46l2.52-6a25,25,0,0,0,0-13.29l-2.52-6a25.09,25.09,0,0,0-9-9Z" transform="translate(-745.26 -379.26)"/></g><g class="cls-12"><path class="cls-1" d="M799,474.52l-.59.59a24.12,24.12,0,0,0-5.17,27.3,18.72,18.72,0,0,0,5.17,8l5.06,3.91a24.84,24.84,0,0,0,12.61,3.41l6.65-.89a25,25,0,0,0,11-6.43l.59-.59a18.69,18.69,0,0,0,5.17-8,22.66,22.66,0,0,0,0-19.27,18.69,18.69,0,0,0-5.17-8l-5.06-3.91a25,25,0,0,0-12.62-3.42l-6.64.9a24.9,24.9,0,0,0-11,6.43Z" transform="translate(-745.26 -379.26)"/></g><g class="cls-12"><path class="cls-1" d="M807.23,512.81l2.95,3.53a25.71,25.71,0,0,0,35.35,0l3.91-5.05a24.87,24.87,0,0,0,3.41-12.62L852,492a25,25,0,0,0-6.43-11l-2.94-3.53a25.72,25.72,0,0,0-35.36,0l-3.91,5.06a24.85,24.85,0,0,0-3.41,12.62l.89,6.64a24.9,24.9,0,0,0,6.43,11Z" transform="translate(-745.26 -379.26)"/></g><g class="cls-12"><path class="cls-1" d="M881.42,498.05l-1.17-1.17a25.72,25.72,0,0,0-35.36,0L841,501.94a24.84,24.84,0,0,0-3.41,12.61l.89,6.65a25,25,0,0,0,6.43,11l1.18,1.18a25.7,25.7,0,0,0,35.35,0l3.91-5.06a24.88,24.88,0,0,0,3.42-12.62l-.9-6.64a24.89,24.89,0,0,0-6.43-11Z" transform="translate(-745.26 -379.26)"/></g><g class="cls-12"><path class="cls-1" d="M864.92,541.32h.59A24.13,24.13,0,0,0,888.36,526a18.88,18.88,0,0,0,2.15-9.63l-.89-6.65a25,25,0,0,0-6.43-11l-5.06-3.91a24.87,24.87,0,0,0-12.62-3.41h-.59a24.13,24.13,0,0,0-22.84,15.37,18.78,18.78,0,0,0-2.16,9.63l.9,6.65a24.92,24.92,0,0,0,6.43,11l5.06,3.91a24.84,24.84,0,0,0,12.61,3.41Z" transform="translate(-745.26 -379.26)"/></g><g class="cls-12"><path class="cls-1" d="M877.28,611.93A25.82,25.82,0,0,0,895,604.61c4.33-4.34,7.6-11.45,7.32-17.68-.29-6.46-2.41-13.17-7.32-17.68a25,25,0,0,0-35.36,0c-4.33,4.34-7.6,11.45-7.32,17.68.29,6.47,2.41,13.17,7.32,17.68a26,26,0,0,0,17.68,7.32Z" transform="translate(-745.26 -379.26)"/></g><g class="cls-12"><path class="cls-1" d="M866.69,615.46a25.82,25.82,0,0,0,17.68-7.32c4.33-4.34,7.6-11.45,7.32-17.68-.29-6.46-2.41-13.17-7.32-17.68a25,25,0,0,0-35.36,0c-4.33,4.34-7.6,11.45-7.32,17.68.29,6.47,2.41,13.17,7.32,17.68a26,26,0,0,0,17.68,7.32Z" transform="translate(-745.26 -379.26)"/></g><g class="cls-12"><path class="cls-1" d="M798.45,582.05l-.59,1.77a18.86,18.86,0,0,0-.44,10,18.57,18.57,0,0,0,3,9.3,28,28,0,0,0,14.94,11.49l6.65.89a24.87,24.87,0,0,0,12.62-3.41l5.06-3.91a25.11,25.11,0,0,0,6.43-11l.58-1.77a18.9,18.9,0,0,0,.45-10,18.58,18.58,0,0,0-3-9.29,18.92,18.92,0,0,0-6.44-7,18.72,18.72,0,0,0-8.5-4.47l-6.64-.89a24.85,24.85,0,0,0-12.62,3.41L804.88,571a25,25,0,0,0-6.43,11Z" transform="translate(-745.26 -379.26)"/></g><g class="cls-12"><path class="cls-1" d="M829,610.75a25.78,25.78,0,0,0,17.68-7.32c4.33-4.33,7.6-11.45,7.32-17.68-.29-6.46-2.41-13.17-7.32-17.67a25,25,0,0,0-35.36,0c-4.33,4.33-7.6,11.45-7.32,17.67.29,6.47,2.41,13.18,7.32,17.68A26,26,0,0,0,829,610.75Z" transform="translate(-745.26 -379.26)"/></g><g class="cls-12"><path class="cls-1" d="M812,644.29A25.74,25.74,0,0,0,829.64,637c4.34-4.33,7.6-11.45,7.33-17.68-.29-6.46-2.42-13.17-7.33-17.67s-10.9-7.33-17.67-7.33a25.77,25.77,0,0,0-17.68,7.33c-4.34,4.33-7.6,11.45-7.32,17.67.29,6.47,2.41,13.18,7.32,17.68A26,26,0,0,0,812,644.29Z" transform="translate(-745.26 -379.26)"/></g><g class="cls-12"><path class="cls-1" d="M813.14,649a25.81,25.81,0,0,0,17.68-7.32c4.34-4.34,7.6-11.45,7.32-17.68-.29-6.46-2.41-13.17-7.32-17.68a25,25,0,0,0-35.36,0c-4.33,4.34-7.6,11.45-7.32,17.68.29,6.47,2.42,13.17,7.32,17.68S806.37,649,813.14,649Z" transform="translate(-745.26 -379.26)"/></g><g class="cls-12"><path class="cls-1" d="M819,663.71a25.78,25.78,0,0,0,17.67-7.32c4.34-4.34,7.61-11.45,7.33-17.68-.29-6.46-2.42-13.17-7.33-17.67a25,25,0,0,0-35.35,0c-4.34,4.33-7.6,11.45-7.32,17.67.29,6.47,2.41,13.17,7.32,17.68A26,26,0,0,0,819,663.71Z" transform="translate(-745.26 -379.26)"/></g><g class="cls-12"><path class="cls-1" d="M814.63,662.68l.09.06-5.06-3.9a1.05,1.05,0,0,1,.23.24L806,654a1.32,1.32,0,0,1,.15.29l-2.52-6a1.92,1.92,0,0,1,.09.32l-.89-6.64a3.38,3.38,0,0,1,0,.45l.89-6.65a1.78,1.78,0,0,1-.09.33l2.52-6a1.59,1.59,0,0,1-.15.29l3.91-5.06a1.81,1.81,0,0,1-.24.24l5.06-3.91-.09.07a24.05,24.05,0,0,0-11.93,24.91,18.63,18.63,0,0,0,3,9.29l3.91,5.06a25,25,0,0,0,11,6.43l6.65.9A25,25,0,0,0,839.87,665c4.11-2.85,6.91-5,9.4-9.46a26.53,26.53,0,0,0,0-26.55c-2.5-4.46-5.29-6.61-9.4-9.46a18.58,18.58,0,0,0-9.3-3,25.67,25.67,0,0,0-24.91,11.94l-2.52,6a25.18,25.18,0,0,0,0,13.29l2.52,6a25,25,0,0,0,9,9Z" transform="translate(-745.26 -379.26)"/></g><g class="cls-12"><path class="cls-1" d="M809.05,645l0,.12-.89,6.65c0,.08,0,.17,0,.25l.9,6.65,0,.13a20.1,20.1,0,0,0,2.6,6.15,33.53,33.53,0,0,0,2.05,2.69,23.2,23.2,0,0,0,2.1,2.67c.27.27,4.83,3.78,5.16,4a13.62,13.62,0,0,0,3,1.29c1,.48,2.06.91,3.11,1.31a18.9,18.9,0,0,0,10,.44,18.67,18.67,0,0,0,9.3-3,28,28,0,0,0,11.48-14.94l.9-6.65a24.88,24.88,0,0,0-3.42-12.62l-3.9-5.06a25,25,0,0,0-11-6.43l-.12,0,6,2.52-.11-.07,5.06,3.91a1.54,1.54,0,0,1-.19-.17l3.91,5.06a1,1,0,0,1-.13-.23l2.52,6a.78.78,0,0,1-.07-.25l.89,6.64a.7.7,0,0,1,0-.25l-.9,6.64,0-.12a18.9,18.9,0,0,0,.44-10,18.67,18.67,0,0,0-3-9.3,28,28,0,0,0-15-11.49l-6.64-.89a25,25,0,0,0-12.62,3.41L815.48,634a25,25,0,0,0-6.43,11Z" transform="translate(-745.26 -379.26)"/></g><g class="cls-12"><path class="cls-1" d="M836.83,618.85a33.89,33.89,0,0,1-6-1.81l6,2.52a33.05,33.05,0,0,1-6.75-3.95l5.06,3.91a34.58,34.58,0,0,1-3.47-3.16l-35.36,35.35a130.12,130.12,0,0,0,17.06,14.19A64,64,0,0,0,825.76,672c5.89,2.36,13,3.33,19.19,1.42,12.84-4,21.13-15.6,19.3-29.2-1-7.82-5.15-13.41-10.19-19.23a52,52,0,0,0-17.55-13.12,18.63,18.63,0,0,0-9.29-3,18.9,18.9,0,0,0-10,.44,26,26,0,0,0-13,9c-7.33,9.5-7.2,24.29,2,32.83a116.27,116.27,0,0,0,16.5,12.82c5.93,3.8,12.34,6.5,18.86,9.16l6.65.89a18.88,18.88,0,0,0,9.63-2.15c4.8-2,9.45-5.49,11.95-10.23A29.62,29.62,0,0,0,873.23,649c.25-5.69-2.87-13.94-7.33-17.68a28.83,28.83,0,0,1-4-4.14l3.91,5.06-.49-.66-34.21,34.21,5.36,2.78c5.94,3.08,12.69,4.33,19.26,2.52,5.8-1.6,12.09-6.08,14.94-11.49,3.07-5.8,4.61-12.83,2.52-19.27-1.95-6-5.7-11.93-11.49-14.94l-5.35-2.78a25.92,25.92,0,0,0-15.94-3c-5.25.7-10.67,2.85-14.36,6.87a29.84,29.84,0,0,0-6.43,11c-1.73,5.36-1,14.61,2.52,19.27,2.62,3.48,5.11,7.05,8.46,9.86l24.32-41.79-1.58-.65,6,2.52a81.45,81.45,0,0,1-16.91-9.91l5.06,3.91q-3-2.37-5.85-5L811.28,655a38.07,38.07,0,0,1,7.56,4.51l-5.06-3.91a38.59,38.59,0,0,1,6.2,6.25l-3.91-5.06a28.7,28.7,0,0,1,1.79,2.61l-2.52-6,.25.71-.89-6.65,0,.72,3.41-12.61-.24.46,3.91-5.06-.37.33,5.06-3.91-.48.21,6-2.52-.55.1,6.65-.89a5.16,5.16,0,0,1-1.18,0l6.65.89a25.92,25.92,0,0,1-4.45-1.43l6,2.52a44,44,0,0,1-9.11-5.49l5.06,3.91a124.76,124.76,0,0,1-9.32-8.33A26,26,0,0,0,814,609c-6.13,0-13.46,2.72-17.68,7.32-4.37,4.76-7.62,11-7.32,17.68a26.45,26.45,0,0,0,7.32,17.67,53.9,53.9,0,0,0,27.25,15.35c6.63,1.35,13.28,1,19.26-2.52,5.19-3,10.13-9,11.49-14.94,1.46-6.4,1.14-13.58-2.52-19.26-3.39-5.26-8.59-10.21-14.94-11.49Z" transform="translate(-745.26 -379.26)"/></g><g class="cls-12"><path class="cls-1" d="M864.92,621.8a85,85,0,0,1-12.75-.72l6.65.9a85.28,85.28,0,0,1-18.53-4.78c-5.72-2.19-14.18-.46-19.26,2.52s-10.13,9-11.49,14.94c-1.46,6.4-1.14,13.58,2.52,19.26L816,659a25,25,0,0,0,11,6.43,102.34,102.34,0,0,0,37.92,6.39,26,26,0,0,0,17.68-7.32c4.33-4.34,7.6-11.45,7.32-17.68-.29-6.46-2.41-13.17-7.32-17.67s-11-7.44-17.68-7.33Z" transform="translate(-745.26 -379.26)"/></g><g class="cls-12"><path class="cls-1" d="M846.36,613.57A89.89,89.89,0,0,1,828.14,603c-4.84-3.64-13.71-4.05-19.26-2.52-5.8,1.59-12.08,6.08-14.94,11.48-3.07,5.81-4.6,12.84-2.52,19.27l2.52,6a25,25,0,0,0,9,9,89.93,89.93,0,0,0,18.22,10.61,18.66,18.66,0,0,0,9.29,3,18.89,18.89,0,0,0,10-.44c5.8-1.6,12.09-6.08,14.94-11.49,3.07-5.8,4.61-12.83,2.52-19.27-1.86-5.76-5.67-12.41-11.49-14.94Z" transform="translate(-745.26 -379.26)"/></g><g class="cls-12"><path class="cls-1" d="M831.65,600.81a77.57,77.57,0,0,1-8.64-9.12l3.91,5.06a32.59,32.59,0,0,1-3.53-5.89l2.52,6a22.73,22.73,0,0,1-1.46-5l.89,6.64c-.08-.5-.13-1-.16-1.52-.55-6.73-2.42-12.77-7.32-17.68-4.34-4.33-11.45-7.6-17.68-7.32-6.46.29-13.17,2.41-17.68,7.32-4.27,4.66-7.85,11.13-7.32,17.68.71,8.61,2.81,17,7.88,24.13a97.37,97.37,0,0,0,13.23,15.13A26.14,26.14,0,0,0,814,643.49c6.13,0,13.45-2.72,17.68-7.32,4.37-4.77,7.62-11,7.32-17.68-.29-6.5-2.44-13.11-7.32-17.68Z" transform="translate(-745.26 -379.26)"/></g><g class="cls-12"><path class="cls-1" d="M824.16,579a22.32,22.32,0,0,1-2.54-4.18l2.52,6a21.82,21.82,0,0,1-1.51-5.49l.89,6.64a25.31,25.31,0,0,1-.1-3.26c.22-6.26-2.95-13.3-7.32-17.68s-11.45-7.6-17.68-7.32c-6.46.29-13.17,2.42-17.68,7.32a26.74,26.74,0,0,0-7.32,17.68,37.66,37.66,0,0,0,.55,6.59,37.74,37.74,0,0,0,7,19,27.92,27.92,0,0,0,14.94,11.49c6,1.65,14,.9,19.27-2.52s10-8.57,11.49-14.94c1.38-6.07,1.47-14.08-2.52-19.26Z" transform="translate(-745.26 -379.26)"/></g><g class="cls-12"><path class="cls-1" d="M801.84,613.62A109.64,109.64,0,0,0,808.93,629a117,117,0,0,0,9.85,13.67A101,101,0,0,0,834.27,658c10.14,8.16,21.22,15.78,34.94,15.43,15.55-.39,32-10.59,35.29-26.71L867.77,661.7c12.25,7.36,28.43,6.76,40.57-.58,9.16-5.54,16.07-14.28,20.36-24a18.67,18.67,0,0,0,3-9.3,18.86,18.86,0,0,0-.44-10c-1.6-5.8-6.08-12.09-11.49-15-5.8-3.06-12.83-4.6-19.27-2.52-5.78,1.88-12.37,5.68-14.94,11.49a47.55,47.55,0,0,1-5.1,9.14l3.91-5.06a27.71,27.71,0,0,1-4.41,4.58l5.06-3.91a20.75,20.75,0,0,1-3.86,2.33l6-2.52a20.35,20.35,0,0,1-4.27,1.26l6.65-.9a17.27,17.27,0,0,1-4.37.05l6.65.89A16.76,16.76,0,0,1,889,617l6,2.52a16.77,16.77,0,0,1-1.93-1,24.38,24.38,0,0,0-22.25-1.26c-6.72,2.83-13,8.71-14.48,16.2a11,11,0,0,1-.53,1.86l2.52-6a10.9,10.9,0,0,1-1.31,2.17l3.91-5.06a13.71,13.71,0,0,1-1.87,1.78l5.06-3.91a15.39,15.39,0,0,1-2.89,1.6l6-2.52a17.14,17.14,0,0,1-3.24.84l6.64-.89a16.87,16.87,0,0,1-3.48,0l6.65.89A22.76,22.76,0,0,1,869,623l6,2.52a40.78,40.78,0,0,1-8.48-5.19l5.06,3.91a103.12,103.12,0,0,1-17.91-17.52l3.91,5.06a73.2,73.2,0,0,1-9.4-15.87l2.52,6q-.31-.75-.6-1.5a28,28,0,0,0-11.49-14.94c-5.36-3.14-13.26-4.46-19.27-2.52s-11.88,5.71-14.94,11.49c-3,5.58-4.94,13.13-2.52,19.26Z" transform="translate(-745.26 -379.26)"/></g><g class="cls-12"><path class="cls-1" d="M895.4,581.76a101.26,101.26,0,0,1-7.69,12l3.91-5.06a39.09,39.09,0,0,1-6.69,6.73l5.06-3.91a27.39,27.39,0,0,1-5,2.92l6-2.52c-.68.28-1.36.54-2,.78-6.19,2.11-11.57,5.72-14.94,11.49-3.14,5.36-4.47,13.25-2.52,19.26s5.7,11.89,11.48,14.94,12.91,4.7,19.27,2.52c8.93-3,17.09-7.94,23.31-15.13a115.61,115.61,0,0,0,13-18.8,26.08,26.08,0,0,0,2.52-19.26c-1.6-5.8-6.08-12.09-11.49-14.94-5.8-3.07-12.83-4.61-19.27-2.52-6.15,2-11.68,5.73-14.94,11.48Z" transform="translate(-745.26 -379.26)"/></g><g class="cls-12"><path class="cls-1" d="M817.28,537.32a33.8,33.8,0,0,1-1.11-5l.89,6.65a35.34,35.34,0,0,1,0-8.72l-.89,6.65a36.64,36.64,0,0,1,2.28-8.43l-2.52,6a35.53,35.53,0,0,1,4.39-7.54L816.42,532a35.55,35.55,0,0,1,4-4.22c4.62-4.11,7.32-11.65,7.32-17.68s-2.72-13.45-7.32-17.68c-4.76-4.37-11-7.62-17.68-7.32a27.4,27.4,0,0,0-17.67,7.32c-15.78,14-22.07,38.14-16,58.21a26.12,26.12,0,0,0,11.49,14.94c5.36,3.14,13.26,4.47,19.27,2.52s11.88-5.7,14.94-11.49,4.49-12.74,2.52-19.26Z" transform="translate(-745.26 -379.26)"/></g><g class="cls-12"><path class="cls-1" d="M891,566.08,881,582c-3.39,5.38-4.19,13.22-2.52,19.27,1.59,5.8,6.08,12.08,11.49,14.94,12.31,6.5,26.75,2.86,34.2-9l10-15.89c3.39-5.38,4.19-13.21,2.52-19.26-1.59-5.8-6.08-12.09-11.49-14.94-12.31-6.51-26.75-2.87-34.2,9Z" transform="translate(-745.26 -379.26)"/></g><g class="cls-12"><path class="cls-1" d="M895.24,635.17l-5-8.42a25.93,25.93,0,0,0-14.94-11.49,18.9,18.9,0,0,0-10-.44,18.63,18.63,0,0,0-9.29,3c-5.34,3.45-10,8.57-11.49,14.94-1.49,6.55-1,13.38,2.52,19.27l5,8.41A25.93,25.93,0,0,0,867,671.89a19,19,0,0,0,10,.45,18.58,18.58,0,0,0,9.3-3c5.34-3.44,10-8.56,11.49-14.94,1.49-6.54,1-13.37-2.52-19.26Z" transform="translate(-745.26 -379.26)"/></g><g class="cls-12"><path class="cls-1" d="M850,607l-8.39-3.36a18.89,18.89,0,0,0-10-.44,18.63,18.63,0,0,0-9.29,3,27.92,27.92,0,0,0-11.49,14.94c-1.46,6.4-1.14,13.59,2.52,19.27l3.91,5.06a25,25,0,0,0,11,6.43l8.39,3.35a18.9,18.9,0,0,0,10,.45,18.51,18.51,0,0,0,9.29-3,27.82,27.82,0,0,0,11.49-14.94c1.46-6.4,1.15-13.58-2.52-19.26L861,613.38A24.9,24.9,0,0,0,850,607Z" transform="translate(-745.26 -379.26)"/></g><g class="cls-12"><path class="cls-1" d="M832.49,605l-3.35-3.36a25.72,25.72,0,0,0-35.36,0l-3.91,5.06a24.87,24.87,0,0,0-3.41,12.62l.89,6.64a25,25,0,0,0,6.43,11l3.36,3.35a25.7,25.7,0,0,0,35.35,0l3.91-5.06a24.84,24.84,0,0,0,3.41-12.61l-.89-6.65a25,25,0,0,0-6.43-11Z" transform="translate(-745.26 -379.26)"/></g><g class="cls-12"><path class="cls-1" d="M801.39,581a1.63,1.63,0,0,1-.38,0l6.65.89a2.44,2.44,0,0,1-.53-.14l6,2.52a3.24,3.24,0,0,1-.47-.28l5.06,3.91a3.66,3.66,0,0,1-.51-.53l3.91,5.06a4,4,0,0,1-.37-.67l2.52,6A5.13,5.13,0,0,1,823,597l.9,6.64a3.29,3.29,0,0,1,0-.94L823,609.3a3.18,3.18,0,0,1,.14-.53l-2.52,6a2.73,2.73,0,0,1,.27-.47L817,619.33a2.94,2.94,0,0,1,.4-.39l-5.06,3.91.16-.11a24.09,24.09,0,0,0,11.94-24.91,18.58,18.58,0,0,0-3-9.29l-3.91-5.06a25,25,0,0,0-11-6.43l-6.65-.89a24.87,24.87,0,0,0-12.62,3.41,24.26,24.26,0,0,0-2.69,2.06q-1.37,1-2.67,2.07c-1.42,1.31-6.5,9.33-4.16,5.33a24.55,24.55,0,0,0-2.85,6.62,1.9,1.9,0,0,0-.09.36l-.89,6.64c0,.19,0,.37,0,.56a26.72,26.72,0,0,0,.48,3.7,31.62,31.62,0,0,0,.56,3.8c0,.09.06.18.1.27l2.52,6,.26.51a25,25,0,0,0,4.46,5.69,26.86,26.86,0,0,0,11.57,6.76l.52.15L801,631a1.63,1.63,0,0,0,.38,0,25.69,25.69,0,0,0,25-25l-.89-6.64a25,25,0,0,0-6.43-11L814,584.37A25,25,0,0,0,801.39,581Z" transform="translate(-745.26 -379.26)"/></g><g class="cls-12"><path class="cls-1" d="M896,506.93l-1.68-5A28,28,0,0,0,882.82,487a18.68,18.68,0,0,0-9.3-3,19,19,0,0,0-10,.45l-6,2.52a25.2,25.2,0,0,0-9,9l-2.52,6a25.18,25.18,0,0,0,0,13.29l1.68,5a28,28,0,0,0,11.49,14.94,18.58,18.58,0,0,0,9.3,3,19,19,0,0,0,10-.45l6-2.52a25.2,25.2,0,0,0,9-9l2.52-6a25.18,25.18,0,0,0,0-13.29Z" transform="translate(-745.26 -379.26)"/></g><g class="cls-12"><path class="cls-1" d="M857.84,532.1l-1.68,5a18.89,18.89,0,0,0-.44,10,18.66,18.66,0,0,0,3,9.29,27.92,27.92,0,0,0,14.94,11.49l6.65.89a24.87,24.87,0,0,0,12.62-3.41l5.06-3.91a25,25,0,0,0,6.43-11l1.68-5a18.86,18.86,0,0,0,.44-10,18.67,18.67,0,0,0-3-9.3,28,28,0,0,0-14.95-11.49l-6.64-.89a24.87,24.87,0,0,0-12.62,3.41l-5.06,3.91a25,25,0,0,0-6.43,11Z" transform="translate(-745.26 -379.26)"/></g><g class="cls-12"><path class="cls-1" d="M897.05,560.74h-1.67a25.69,25.69,0,0,0-25,25l.89,6.65a25,25,0,0,0,6.43,11l5.06,3.91a24.85,24.85,0,0,0,12.62,3.41h1.67a18.89,18.89,0,0,0,9.64-2.15,25.7,25.7,0,0,0,15.36-22.85l-.89-6.64a25,25,0,0,0-6.43-11l-5.06-3.9a24.86,24.86,0,0,0-12.62-3.42Z" transform="translate(-745.26 -379.26)"/></g><g class="cls-12"><path class="cls-1" d="M889,574.87l-3.36,6.71a18.58,18.58,0,0,0-3,9.3,25.67,25.67,0,0,0,11.94,24.91c5.8,3.06,12.83,4.6,19.26,2.52,6-1.93,12-5.69,14.94-11.49l3.36-6.71a18.58,18.58,0,0,0,3-9.3,19,19,0,0,0-.45-10,27.92,27.92,0,0,0-11.49-14.94c-5.8-3.07-12.83-4.6-19.26-2.52-6,1.93-12,5.69-14.94,11.49Z" transform="translate(-745.26 -379.26)"/></g></svg>