<svg id="Calque_1" data-name="Calque 1" xmlns="http://www.w3.org/2000/svg" viewBox="0 0 72.79 97.2"><defs><style>.cls-1{fill:#fff;}.cls-2{fill:#1d1d1b;}.cls-3{opacity:0.08;}.cls-4{opacity:0.13;}.cls-5{fill:#f6f6f6;}.cls-6{opacity:0.14;}.cls-7{opacity:0.47;}.cls-8{opacity:0.31;}.cls-9{opacity:0.23;}.cls-10{opacity:0.41;}.cls-11{opacity:0.4;}.cls-12{opacity:0.58;}.cls-13{opacity:0.06;}</style></defs><title>29</title><path class="cls-1" d="M822.61,498.27c-2.67,20.26-2.08,40.79-1.48,61.22l.44,15.09c.13,4.44.91,9.86,5.06,11.45,2.22.85,4.71.23,7-.32a113.44,113.44,0,0,1,34.16-2.81c5.44.38,11,1.15,16.28-.26a91.11,91.11,0,0,1-.59-11.79c.17-4.71,1.06-9.37,1.51-14.07a150.83,150.83,0,0,0,.14-20.17c-.48-12.55-1-25.28-4.9-37.22a2.79,2.79,0,0,0-.78-1.38,2.84,2.84,0,0,0-1.84-.43q-18.45,0-36.88.92c-5.66.3-11.41.67-17-.54" transform="translate(-817.01 -492.17)"/><path class="cls-2" d="M821.86,498.27c-2.75,21.25-2,42.69-1.4,64.05.14,4.83,0,9.73.49,14.54.27,2.94.91,6.26,3.12,8.41,2.74,2.64,6.44,1.93,9.79,1.16a117.32,117.32,0,0,1,16.77-2.67,113.39,113.39,0,0,1,17.19-.11c5.53.39,11,1.05,16.48-.29a.75.75,0,0,0,.55-.72,80.16,80.16,0,0,1-.41-14.61c.4-4.72,1.27-9.39,1.56-14.12.58-9.49,0-19.15-.62-28.62-.29-4.45-.71-8.9-1.4-13.31s-1.3-9.37-3.18-13.3c-1.38-2.87-5.53-1.86-8.15-1.84q-7.47,0-14.95.24-8.48.23-16.94.67c-5.61.3-11.21.61-16.75-.51-.94-.2-1.35,1.25-.4,1.44,8.56,1.73,17.47.5,26.11.16q7-.27,14-.4c2.33,0,4.65-.07,7-.09l3,0c1.09,0,3-.34,4,0,2.53.84,2.88,4.4,3.44,6.68s.94,4.28,1.3,6.44a136.76,136.76,0,0,1,1.5,13.84,258.59,258.59,0,0,1,.71,26.7c-.2,5.07-1.06,10.06-1.57,15.1a80,80,0,0,0,.33,15.55l.55-.72c-4.72,1.15-9.48.74-14.26.37A120.85,120.85,0,0,0,855.4,582a113.18,113.18,0,0,0-14,1.42q-3.3.54-6.56,1.27c-2.75.62-6,1.84-8.69.32-3.32-1.91-3.7-6.67-3.84-10.08-.2-4.66-.28-9.33-.41-14-.29-9.89-.6-19.77-.55-29.66a269.32,269.32,0,0,1,2-33c.13-1-1.38-.95-1.5,0Z" transform="translate(-817.01 -492.17)"/><g class="cls-3"><path class="cls-2" d="M827.47,503.26a487.49,487.49,0,0,0-.15,55.92,91.53,91.53,0,0,0,1.93,16,9.42,9.42,0,0,0,2.23,4.73c2.26,2.16,5.84,1.82,8.93,1.38a302.17,302.17,0,0,1,42-3c-3.68-25.42,5.77-52.28-2.49-76.61a5.49,5.49,0,0,0-1.29-2.34c-1.15-1.06-2.9-1-4.46-.87l-44.72,3.68c-.49,0-1.11.18-1.21.67s.95.56.72.12" transform="translate(-817.01 -492.17)"/><path class="cls-2" d="M826.72,503.26a492.05,492.05,0,0,0-.22,54.45c.21,4.2.46,8.4,1.06,12.56.47,3.2.83,7.41,3.14,9.91,2,2.18,5.1,2.36,7.88,2.1,4.35-.41,8.66-1.14,13-1.59,10.22-1.05,20.5-1.57,30.78-1.6a.77.77,0,0,0,.73-1c-2.74-19.68,2.13-39.36.81-59.08a73.42,73.42,0,0,0-2-13.26c-.75-2.91-1.35-7.19-4.83-8-1.88-.42-4,0-5.89.18l-7.95.65L846.8,500c-5.74.47-11.82.43-17.49,1.44-1.94.35-2.52,2.9-.22,2.49a.7.7,0,0,0,.52-.53l0-.23c.13-.95-1.31-1.36-1.45-.4,0,0,13.36-.84,14.63-.94l12.92-1.06,13.41-1.11c2-.16,4-.42,6-.46,3.18-.08,3.89,2.19,4.68,4.84,4.6,15.51,2.43,31.92,1.39,47.77-.58,8.91-.8,17.84.43,26.71l.72-.95q-12.48,0-24.93,1.06-6.11.51-12.18,1.26c-3.51.44-7.69,1.69-11.17.65-4.26-1.28-4.62-7.38-5.13-11.06-.58-4.23-.8-8.51-1-12.77q-.63-12.5-.61-25,0-14.24.88-28.45c.06-1-1.44-1-1.5,0Z" transform="translate(-817.01 -492.17)"/></g><g class="cls-4"><path class="cls-2" d="M847.77,523a11.58,11.58,0,0,0-6.85,6.81,27.94,27.94,0,0,0-1.67,9.78c-.16,4.56.19,9.6,3.38,12.85,1.08,1.1,2.56,2.22,2.39,3.76a11.21,11.21,0,0,1-.58,1.75,4.25,4.25,0,0,0,1.48,4.23,9.43,9.43,0,0,0,4.28,1.89,13.88,13.88,0,0,0,8.2-.32,4.9,4.9,0,0,0,1.87-1.22,4.44,4.44,0,0,0,.91-3.28,12.73,12.73,0,0,0-.92-3.35,2.93,2.93,0,0,0,2.87-1.56A8.4,8.4,0,0,0,864,551a29,29,0,0,0-.1-9.88,25.58,25.58,0,0,0-2.51-6.08,76.18,76.18,0,0,0-6.31-9.94,8.86,8.86,0,0,0-2-2.09,4.79,4.79,0,0,0-4.73-.35" transform="translate(-817.01 -492.17)"/><path class="cls-2" d="M847.57,522.27c-6.19,2.2-8.42,8.54-8.93,14.59a34.09,34.09,0,0,0,.32,9.83,14.33,14.33,0,0,0,1.29,3.71,24.78,24.78,0,0,0,2.83,3.52,4,4,0,0,1,.85,3.24,11.44,11.44,0,0,0-.36,1.76,5.13,5.13,0,0,0,1.22,3.15c1.68,2,4.56,2.72,7.06,3,2.68.35,6.18.26,8.4-1.56,2.48-2,1.69-5.25.73-7.86l-.72.95c3.64.07,4.28-3.67,4.58-6.56.47-4.49.34-8.68-1.52-12.85A65.42,65.42,0,0,0,856,525.06c-2-2.65-4.4-4.48-7.81-3.14-.88.34-.5,1.8.4,1.44,3.92-1.53,6.07,2.27,7.95,5a78,78,0,0,1,4.4,7.35,20.88,20.88,0,0,1,2.67,8.9c.11,2.58.43,10.56-3.35,10.48a.75.75,0,0,0-.72,1c.54,1.49,1.19,3.08.69,4.67-.6,1.92-2.47,2.57-4.33,2.86-2.69.42-6.3.07-8.65-1.42a3.9,3.9,0,0,1-1.88-4.64,5.32,5.32,0,0,0,.38-2c-.19-1.57-1.59-2.57-2.59-3.65-3.47-3.75-3.38-9.35-3.08-14.14.35-5.57,2-12,7.89-14,.9-.32.51-1.77-.4-1.45Z" transform="translate(-817.01 -492.17)"/></g><path class="cls-5" d="M888.35,586a6.51,6.51,0,0,1-2.6.5l-25.89,1.29c-11.18.56-40,.88-40,.88-1-1.32-1.6-39.69-2.09-55.14-.33-10.32,1.39-38,1.88-38.42a3,3,0,0,1,1.95-.49l55.74-1.51c3.11-.08,6.22-.17,9.33-.1C886.71,493,890.58,584.83,888.35,586Zm-12-82c-2.14-.06-4.29,0-6.43.07l-38.47,1.1a2,2,0,0,0-1.34.38c-.34.32.09-.48,0,0-1.44,7.81-1.5,21.69-1.27,29.67.36,11.93,1.82,42.4,1.82,42.4s5.94.69,7.66.6l19.6-1.07,17.86-1a4.1,4.1,0,0,0,1.8-.38C879.08,574.92,876.31,504,876.31,504Z" transform="translate(-817.01 -492.17)"/><path class="cls-2" d="M888.15,585.23c-2.5,1-5.72.63-8.38.76l-9.46.48c-4.65.23-9.3.49-13.95.67-7.18.26-14.37.39-21.56.51l-9.3.14-3.27.05a6,6,0,0,0-2,0c-.54.27.21.25.25.18.16-.27-.21-1.59-.24-1.93-.19-2.22-.29-4.46-.39-6.69-1.19-26.76-2.16-53.69.1-80.42a12.07,12.07,0,0,1,.3-3c0-.14,0-.51.11-.62.47-.47,4.46-.14,5.25-.16l19.91-.54c13.7-.37,27.47-1.19,41.18-1L886,493q.63,15.15,1.15,30.31c.57,16.5,1.15,33,1.18,49.54,0,3,0,6-.12,8.93,0,.89-.06,1.79-.18,2.68-.08.59-.41,1.14,0,.88-.81.53-.06,1.83.75,1.3s.74-2,.82-2.8c.18-2.14.2-4.31.23-6.46.08-7.34-.07-14.68-.23-22-.38-16.9-1-33.8-1.62-50.7q-.23-5.83-.47-11.66a.77.77,0,0,0-.75-.75c-12.71-.21-25.49.54-38.2.88l-19.91.54c-2.48.06-5.43-.28-7.85.25-.89.19-1.49.4-1.86,1.22-.63,1.43-.43,3.78-.54,5.3-.27,3.38-.47,6.77-.66,10.15-.39,7.24-.78,14.51-.66,21.76q.36,21.83,1.19,43.67c.11,2.77.22,5.53.4,8.3.08,1.26-.07,3.13.47,4.31.43,1,1.15.77,2.1.76l7.32-.1c8.44-.12,16.88-.26,25.31-.53,5-.16,10-.43,15-.68l10.95-.55c2.8-.14,6.13.22,8.78-.82C889.44,586.33,889.06,584.88,888.15,585.23Z" transform="translate(-817.01 -492.17)"/><path class="cls-2" d="M876.31,503.24c-8-.15-16.14.34-24.19.58l-11.83.34c-3.48.1-7.22-.18-10.55.69l.84,1.1.1-.17-1.37-.18c.2.81-.39,2.44-.49,3.3-.18,1.51-.32,3-.42,4.54-.25,3.45-.37,6.91-.42,10.36-.08,5.22,0,10.43.22,15.64.36,10,.83,20.1,1.29,30.15.12,2.67.25,5.35.38,8a.78.78,0,0,0,.75.75,90.17,90.17,0,0,0,15.59.16l24.57-1.33a53.77,53.77,0,0,0,5.68-.33,2.53,2.53,0,0,0,1.77-.74,2.93,2.93,0,0,0,.3-1.31,53.08,53.08,0,0,0,.22-6.31c.11-16.65-.58-33.32-1.16-50q-.24-7.27-.53-14.55a.75.75,0,0,0-1.5,0q.69,17.53,1.18,35.07c.23,8.22.44,16.44.5,24.66,0,2.81,0,5.61,0,8.41,0,.83-.09,1.66-.14,2.48a1.49,1.49,0,0,1-.09.63s-.08.21,0,.13-1.37,0-1.69.08c-9,.67-18.12,1-27.17,1.47a101.8,101.8,0,0,1-17.46-.06l.75.75c-.83-17.27-2-34.61-1.91-51.9,0-3.72.12-7.44.36-11.15.11-1.78.26-3.56.46-5.33.14-1.19.77-2.86.48-4a.76.76,0,0,0-1.38-.18l-.09.18a.76.76,0,0,0,.85,1.1c3.2-.84,6.83-.55,10.15-.64l12.33-.36c7.88-.22,15.81-.71,23.69-.56A.75.75,0,0,0,876.31,503.24Z" transform="translate(-817.01 -492.17)"/><g class="cls-6"><path class="cls-2" d="M877.23,503.1a6.26,6.26,0,0,1,2.73-2.68l.53,30.12c.16,9.05,1.28,44.19,1,50.5-.83-1.7-2.85-2.7-3.29-4.54a7.19,7.19,0,0,1,.12-2.65,34.29,34.29,0,0,0,.2-5.64l-.87-42.69-.16-7.79c-.09-4.51-.18-9-.61-13.5" transform="translate(-817.01 -492.17)"/><path class="cls-2" d="M877.87,503.47a6.47,6.47,0,0,1,2.47-2.4l-1.13-.65c.41,23.11,1.06,46.21,1.49,69.32.08,3.76.21,7.54.08,11.3l1.39-.38a12.38,12.38,0,0,0-1.68-2.14c-1.38-1.53-1.61-2.55-1.38-4.67a75.18,75.18,0,0,0,.12-9.61l-.42-20.35c-.26-13.18.05-26.53-1.14-39.66-.08-1-1.58-1-1.5,0,1.25,13.78.9,27.81,1.18,41.64l.43,20.85c0,1.75.12,3.51,0,5.26-.09,1.47-.58,3-.3,4.52.4,2.07,2.39,3.19,3.39,4.92a.76.76,0,0,0,1.4-.38c.29-8.15-.17-16.38-.38-24.53-.22-8.82-.51-17.64-.67-26.46q-.27-14.82-.52-29.63a.76.76,0,0,0-1.13-.65,8,8,0,0,0-3,3c-.51.82.79,1.58,1.29.75Z" transform="translate(-817.01 -492.17)"/></g><g class="cls-6"><path class="cls-2" d="M829.82,506a17.45,17.45,0,0,0-4.41-3.71c-1,11.61.5,70.58,1.22,79.08a6.29,6.29,0,0,0,3.44-4.81,12.68,12.68,0,0,0-.17-3.25c-2-15.17-2.12-30.54-2.21-45.85,0-2.95,0-5.91.08-8.86a100.08,100.08,0,0,1,1.1-11.46" transform="translate(-817.01 -492.17)"/><path class="cls-2" d="M830.35,505.43a21,21,0,0,0-4.56-3.83.76.76,0,0,0-1.13.65c-.84,9.72-.37,19.64-.24,29.37q.26,18.9.9,37.79c.14,4,.23,8,.56,11.92A.76.76,0,0,0,827,582c5-2.77,3.7-7.82,3.16-12.59-.77-6.79-1.18-13.62-1.41-20.46-.46-13.76-1.2-28,.83-41.63.14-.94-1.3-1.35-1.44-.39-1.83,12.25-1.3,24.79-1,37.14.14,6.18.39,12.37.89,18.54q.39,4.86,1,9.71c.43,3.36.6,6.5-2.77,8.39l1.13.64c-.74-9-.78-18.12-1-27.15-.33-12.8-.59-25.6-.56-38.4,0-4.5,0-9,.35-13.53l-1.13.65a19.29,19.29,0,0,1,4.26,3.59c.64.73,1.7-.34,1.06-1.06Z" transform="translate(-817.01 -492.17)"/></g><g class="cls-6"><path class="cls-2" d="M878.61,500l-53.05,2.39c1.93.18,3.12,2.39,5,2.8a6,6,0,0,0,2.12-.07c2.65-.4,5.33-.69,8-.87,3.48-.23,7-.29,10.47-.34,7.48-.11,15-.22,22.42.06a6.45,6.45,0,0,0,2.36-.2c1.53-.55,2.37-2.17,3-3.65" transform="translate(-817.01 -492.17)"/><path class="cls-2" d="M878.61,499.21l-53.05,2.39c-.81,0-1.07,1.29-.2,1.47,1.86.39,2.92,2.15,4.71,2.7,2,.62,4.62-.24,6.61-.45,5.47-.6,11-.65,16.44-.73s11-.13,16.57,0c2,0,4.69.59,6.64-.2,1.69-.69,2.57-2.34,3.32-3.91.41-.87-.88-1.63-1.3-.76-.51,1.08-1.08,2.45-2.16,3.08-1.25.73-3.18.38-4.55.34-2.27-.07-4.54-.1-6.82-.11-4.87,0-9.73.05-14.6.13-4.67.07-9.34.2-14,.72-2,.23-4.65,1.12-6.46.14-1.46-.78-2.33-2-4-2.37l-.2,1.47,53.05-2.39c1,0,1-1.54,0-1.5Z" transform="translate(-817.01 -492.17)"/></g><g class="cls-6"><path class="cls-2" d="M877.43,577a8.48,8.48,0,0,1,3.52,4l-54.14-.31c1.16-1.15,2.46-2.36,4.08-2.51a8.58,8.58,0,0,1,1.82.13c4.67.62,9.41.14,14.11-.23a295.77,295.77,0,0,1,30.07-.81" transform="translate(-817.01 -492.17)"/><path class="cls-2" d="M877.05,577.65a8.75,8.75,0,0,1,3.25,3.75l.65-1.12L826.81,580l.53,1.28c2.1-2,3.43-2.34,6.3-2a46.2,46.2,0,0,0,5.64.16c4.14-.12,8.26-.59,12.39-.84,8.39-.52,16.81-.66,25.22-.47a.75.75,0,0,0,0-1.5c-9.38-.21-18.77,0-28.13.66a108.49,108.49,0,0,1-13.24.63c-1.78-.09-3.75-.7-5.5-.22a9.18,9.18,0,0,0-3.74,2.57.76.76,0,0,0,.53,1.28l54.14.31a.76.76,0,0,0,.65-1.13,10.1,10.1,0,0,0-3.79-4.29c-.81-.53-1.57.77-.76,1.29Z" transform="translate(-817.01 -492.17)"/></g><g class="cls-7"><path class="cls-2" d="M847.39,522.26a2.29,2.29,0,0,1,.31-2.32,3.84,3.84,0,0,1,1.21-.93,3,3,0,0,1,2.59-.44c1.2.54,1.34,2.19,2.19,3.19-2-.57-4.2,0-6.2.7" transform="translate(-817.01 -492.17)"/><path class="cls-2" d="M847.63,522.19a2.27,2.27,0,0,1,1.07-2.77c.87-.56,2.17-1.14,3.11-.35s1,2,1.66,2.81l.29-.36a11.4,11.4,0,0,0-6.34.7c-.3.11-.17.59.14.49a10.78,10.78,0,0,1,6.06-.71c.19,0,.43-.18.28-.37-1-1.39-1.32-3.75-3.58-3.42-2,.29-3.89,2-3.17,4.12.1.3.59.17.48-.14Z" transform="translate(-817.01 -492.17)"/></g><g class="cls-7"><path class="cls-2" d="M845.35,524.09a2.65,2.65,0,0,0-2.47.82,6.71,6.71,0,0,0-1.35,2.35,30.08,30.08,0,0,0-2,11.87c.75-2.59,1-5.29,1.73-7.89a13.11,13.11,0,0,1,3.9-6.92" transform="translate(-817.01 -492.17)"/><path class="cls-2" d="M845.35,523.84c-2.42-.22-3.48,1.79-4.22,3.79a31.26,31.26,0,0,0-1.86,11.5.25.25,0,0,0,.49.06c1.38-5.08,1.4-10.91,5.57-14.69.24-.22-.12-.57-.36-.35-3.42,3.1-4.11,7.53-5,11.85-.09.44-.49,3.18-.24,1.73.28-1.65.19-3.37.49-5,.48-2.61,1.46-8.69,5.1-8.36.32,0,.32-.47,0-.5Z" transform="translate(-817.01 -492.17)"/></g><g class="cls-8"><path class="cls-2" d="M840.67,551.59a5.55,5.55,0,0,1-6.38,5.84c1.89,2.25,1.78,6,4.3,7.54,1,.63,2.57.92,2.83,2.12a1.92,1.92,0,0,1-.7,1.78,6,6,0,0,1-1.75,1,40.7,40.7,0,0,0-6.75,3.72,4,4,0,0,0-1,.88,3.91,3.91,0,0,0-.29,2.85.6.6,0,0,0,.56.64c4.74,1.32,9.77-.08,14.69-.07,4.33,0,8.66,1.13,13,.66,3-.33,5.86-1.41,8.81-2a29,29,0,0,1,6.09-.62c-2-1.47-4.4-2.23-6.48-3.57s-3.91-3.6-3.53-6a8.05,8.05,0,0,0,5.57-2.29,24.22,24.22,0,0,0,3.8-4.85,12,12,0,0,1-6.24-.07,5.2,5.2,0,0,1-3.66-4.64,4.4,4.4,0,0,1-3.29,2c-.15,1.5,1.45,2.66,1.6,4.16a3.29,3.29,0,0,1-1.26,2.64c-1.76,1.56-4.29,1.87-6.65,1.94a16.2,16.2,0,0,1-5.64-.59A6.87,6.87,0,0,1,844,561a4.42,4.42,0,0,1,1.1-5.18,3.6,3.6,0,0,1-2.61-2.3,9.35,9.35,0,0,0-1.82-3.12l-.23,1.12" transform="translate(-817.01 -492.17)"/><path class="cls-2" d="M840.42,551.59a5.42,5.42,0,0,1-6.13,5.59.25.25,0,0,0-.21.38c1.43,1.91,1.64,4.42,3,6.33.73,1,1.63,1.11,2.5,1.86.83.2,1,.8.51,1.79.4,1,.18,1.6-.66,1.81a15.2,15.2,0,0,1-2.17,1c-2,1-5.75,2.34-6.58,4.62a2.71,2.71,0,0,0,.72,3.21c1,.67,3.49.57,4.58.58,1.86,0,3.7-.2,5.55-.36a57.4,57.4,0,0,1,11.12.23,29,29,0,0,0,9.65-.43c3.94-.94,7.64-2,11.73-2.07a.26.26,0,0,0,.13-.47c-1.82-1.25-3.88-2-5.78-3.14-1.47-.86-6.17-5-3.15-6.08a12.67,12.67,0,0,0,4.24-2,22.59,22.59,0,0,0,4.13-5.15.25.25,0,0,0-.28-.37c-3.67.66-9.22.47-9.58-4.47a.25.25,0,0,0-.46-.13,4.49,4.49,0,0,1-3.15,1.85.26.26,0,0,0-.18.25c.07,1.26.86,1.93,1.23,3.07,1.57,4.86-5,5.37-7.69,5.43a12.41,12.41,0,0,1-6.74-1.32c-2.71-1.63-4-5.21-1.46-7.6a.25.25,0,0,0-.11-.42c-2.54-.64-2.8-3.7-4.32-5.36a.26.26,0,0,0-.42.11l-.23,1.13c-.07.31.41.45.48.13.29-1.41,1.06.92,1.29,1.39a8.35,8.35,0,0,0,1.11,1.92c.34.39,1.26.78,1.35,1.22,0,.1-.82,1.4-.9,1.7a4.93,4.93,0,0,0-.17,1.32,5.26,5.26,0,0,0,1.15,3.2c1.65,2.11,4.35,2.88,6.92,3.05,2.87.19,6.53.14,8.92-1.71,2-1.56,1.72-3,.92-5a2.14,2.14,0,0,1-.36-2.11,3.73,3.73,0,0,0,.69-.23,7.86,7.86,0,0,1,1.18-.71c1.07-.51.28-.37,1,.95,1.34,2.53,4.25,3.32,6.92,3.21,0,0,1.91-.15,1.87-.21.33.53-1.69,2.74-1.92,3a9,9,0,0,1-6.62,3.48.25.25,0,0,0-.25.25,6.7,6.7,0,0,0,3,5.81,23.46,23.46,0,0,0,3.92,2.18c.57.28,1.8.65,2.18,1.16,1,1.34.37,0,.28.22a13.23,13.23,0,0,1-1.75.1c-3.48.3-6.72,1.48-10.12,2.17-4.17.85-8.17.18-12.35-.16-3.9-.31-7.69.32-11.58.47a22.82,22.82,0,0,1-3.2-.05c-1.05-.1-1.7-.09-2.42-.93l-.68-.68,1.26-2.77c1.08-1.22,3.36-2.1,4.81-2.82s4.94-1.56,4.51-3.87a2,2,0,0,0-.74-1.16c-1.37-1.25-2.89-1.28-3.89-3.13-.7-1.31-1.06-2.81-1.69-4.17-.5-1.07-.59-.61.35-.92.48-.16,1-.17,1.47-.35a5.93,5.93,0,0,0,3.75-5.77.25.25,0,0,0-.5,0Z" transform="translate(-817.01 -492.17)"/></g><path class="cls-2" d="M849.63,534c-1.21-.15-2-1-3.29-.83s-1.8,1-2.86,1.29c-.09,0-.13.18,0,.23a1,1,0,0,0,1,.09c.33-.13.58-.48.88-.68a4.06,4.06,0,0,1,1.9-.67c.16,0,.16-.26,0-.25a4.21,4.21,0,0,0-1.86.6c-.31.19-2.22,1.37-1,.53a3.66,3.66,0,0,1,3.28-.78,11,11,0,0,0,2,.72c.16,0,.16-.24,0-.25Z" transform="translate(-817.01 -492.17)"/><path class="cls-2" d="M856.83,534.63a6.6,6.6,0,0,1,2.77-.79,2.47,2.47,0,0,1,2,1.15,2.74,2.74,0,0,1,.58.85c.06.34.32.26-.35.2-.35,0-.71-.11-1.06-.17l-1.06-.16-.42-.07c-.8,0-.91-.52-.31-1.62.16,0,.16-.23,0-.25a1.07,1.07,0,0,0-.92,1.65c.3.44.9.42,1.38.49l3.17.5c.09,0,.21-.09.14-.19-.62-.9-1.16-2.2-2.28-2.53a5.59,5.59,0,0,0-3.76.72c-.14.07,0,.28.13.22Z" transform="translate(-817.01 -492.17)"/><path class="cls-2" d="M856.68,534.61a3.27,3.27,0,0,0,2.15,1.21.13.13,0,0,0,0-.25,3.06,3.06,0,0,1-2-1.14c-.11-.12-.28.06-.17.18Z" transform="translate(-817.01 -492.17)"/><path class="cls-2" d="M845.89,533.27a.82.82,0,0,1-.37-.74.13.13,0,0,0-.25,0,1.11,1.11,0,0,0,.49,1c.14.09.26-.12.13-.22Z" transform="translate(-817.01 -492.17)"/><path class="cls-2" d="M846.25,533.1a1.59,1.59,0,0,1,0-.78c0-.16-.21-.23-.24-.07a1.76,1.76,0,0,0,0,.91c0,.16.29.09.24-.06Z" transform="translate(-817.01 -492.17)"/><path class="cls-2" d="M846.8,533.05l0-.41a.12.12,0,0,0-.21-.12.68.68,0,0,0-.06.59c.05.15.29.09.24-.06Z" transform="translate(-817.01 -492.17)"/><path class="cls-2" d="M847.31,533.33a.41.41,0,0,1,.27-.5c.15-.07,0-.28-.12-.22a.65.65,0,0,0-.4.72c0,.15.27.16.25,0Z" transform="translate(-817.01 -492.17)"/><path class="cls-2" d="M847.8,533.48A.6.6,0,0,1,848,533c.12-.11-.06-.29-.17-.18a.91.91,0,0,0-.29.69c0,.16.24.16.25,0Z" transform="translate(-817.01 -492.17)"/><path class="cls-2" d="M848.25,533.58l.16-.36a.13.13,0,0,0-.18-.18.74.74,0,0,0-.23.54c0,.16.23.16.25,0Z" transform="translate(-817.01 -492.17)"/><path class="cls-2" d="M845.27,533.34a.84.84,0,0,1-.63-.52c-.06-.15-.28,0-.22.12a1,1,0,0,0,.78.64.13.13,0,0,0,.07-.24Z" transform="translate(-817.01 -492.17)"/><path class="cls-2" d="M844.93,533.53a1.09,1.09,0,0,1-.43-.73c0-.16-.26-.09-.24.06a1.3,1.3,0,0,0,.49.85c.12.1.3-.08.18-.18Z" transform="translate(-817.01 -492.17)"/><path class="cls-2" d="M844.57,534a1.11,1.11,0,0,1-.45-.77c0-.16-.27-.16-.25,0a1.34,1.34,0,0,0,.52.94c.12.1.3-.07.18-.17Z" transform="translate(-817.01 -492.17)"/><path class="cls-2" d="M844.35,534.26a.84.84,0,0,1-.45-.56.12.12,0,0,0-.24.06,1,1,0,0,0,.57.71c.14.07.27-.14.12-.21Z" transform="translate(-817.01 -492.17)"/><path class="cls-2" d="M843.87,534.49a.83.83,0,0,1-.61-.65c0-.15-.28-.09-.25.07a1.12,1.12,0,0,0,.8.83.13.13,0,0,0,.06-.25Z" transform="translate(-817.01 -492.17)"/><path class="cls-2" d="M843.82,534.68c-.18,0-1.13-.1-1.1-.36s-.23-.16-.25,0c-.06.58.93.54,1.28.6.16,0,.23-.21.07-.24Z" transform="translate(-817.01 -492.17)"/><path class="cls-2" d="M844.14,534.35h-.24l0,.24c.72-.29,1.24-1,2-1.14l-.12-.21a3.35,3.35,0,0,1-1.36.74l.1.23,1.35-.76c.14-.08,0-.3-.13-.22l-1.35.76a.13.13,0,0,0,.1.23,3.84,3.84,0,0,0,1.47-.8c.1-.09,0-.23-.13-.21-.79.15-1.29.84-2,1.14-.12,0-.12.25,0,.25h.24a.13.13,0,0,0,0-.25Z" transform="translate(-817.01 -492.17)"/><path class="cls-2" d="M846,533.41a2.25,2.25,0,0,0-1.37,1.1c-.08.14.13.27.21.13a2,2,0,0,1,1.22-1c.16,0,.09-.29-.06-.24Z" transform="translate(-817.01 -492.17)"/><path class="cls-2" d="M859.46,533.74a1,1,0,1,0-.5,2c1.16.32,2.36-1.39,1.13-2.09a1,1,0,0,0-1.41.51,1.13,1.13,0,0,0,.6,1.39c1.11.56,2.44-.74,1.46-1.72l-.91,1.18A3.71,3.71,0,0,1,861,536l.53-1.28a8.84,8.84,0,0,1-1.7-.12l-.19,1.47a8.19,8.19,0,0,1,1.9.37c.92.29,1.32-1.16.4-1.45a10.59,10.59,0,0,0-2.3-.42.76.76,0,0,0-.2,1.48,12.19,12.19,0,0,0,2.09.17.76.76,0,0,0,.53-1.28,4.71,4.71,0,0,0-1.45-1.17.75.75,0,0,0-.91,1.18l.43-.19-.45.35c-.43-1-.63-1-.6.1.94.2,1.34-1.24.4-1.44Z" transform="translate(-817.01 -492.17)"/><path class="cls-2" d="M846.26,533.21c-.6.31-1.25.78-.85,1.56a1.42,1.42,0,0,0,1.82.46,1,1,0,1,0-1.18-1.52,1.16,1.16,0,1,0,2.14.81c.34-1.68-3-1.63-2.45.12a.75.75,0,0,0,1.45-.4l0-.12v.4c-.28.19-.33.27-.17.26s.11-.07-.25-.26v-.4l.22-.2.38.1.07.17-.11.38-.06,0-.38.1-.34-.28V534q.3-.22.09-.18c-.18,0-.13.08.15.23v.39c-.22.26-.23.31,0,.18l.28-.15c.86-.44.1-1.74-.76-1.29Z" transform="translate(-817.01 -492.17)"/><path class="cls-2" d="M858.28,533.73a.38.38,0,0,1-.09-.54.13.13,0,0,0-.22-.13.65.65,0,0,0,.14.85c.12.1.29-.07.17-.18Z" transform="translate(-817.01 -492.17)"/><path class="cls-2" d="M858.64,533.72l-.08-.26c0-.15-.22-.22-.24-.06a.51.51,0,0,0,.11.44c.09.13.31,0,.21-.12Z" transform="translate(-817.01 -492.17)"/><path class="cls-2" d="M859,533.61a.62.62,0,0,1,0-.67c.08-.14-.14-.27-.22-.13a1,1,0,0,0,0,.93c.06.15.28,0,.22-.13Z" transform="translate(-817.01 -492.17)"/><path class="cls-2" d="M859.5,533.55a.82.82,0,0,1,.09-.65c.08-.15-.14-.27-.21-.13a1.22,1.22,0,0,0-.12.84c0,.16.27.09.24-.06Z" transform="translate(-817.01 -492.17)"/><path class="cls-2" d="M859.86,533.63l.08-.34c.08-.14-.14-.26-.22-.13a.65.65,0,0,0-.11.47c0,.16.27.16.25,0Z" transform="translate(-817.01 -492.17)"/><path class="cls-2" d="M860.31,533.84a.47.47,0,0,1,.1-.59c.11-.11-.07-.29-.18-.17a.74.74,0,0,0-.17.83c.06.15.31.08.25-.07Z" transform="translate(-817.01 -492.17)"/><path class="cls-2" d="M860.65,533.91l.25-.36c.14-.08,0-.3-.13-.22a.61.61,0,0,0-.36.51c0,.16.22.23.24.07Z" transform="translate(-817.01 -492.17)"/><path class="cls-2" d="M861.07,534.07l.2-.2c.11-.12-.07-.29-.18-.18l-.2.2c-.11.11.06.29.18.18Z" transform="translate(-817.01 -492.17)"/><path class="cls-2" d="M861.49,534.34l.15-.35c.06-.14-.15-.27-.22-.12l-.15.34c-.06.15.15.28.22.13Z" transform="translate(-817.01 -492.17)"/><path class="cls-2" d="M844.42,535a3.92,3.92,0,0,0,1.31.26c.16,0,.16-.24,0-.25a3.47,3.47,0,0,1-1.24-.25c-.16-.06-.22.18-.07.24Z" transform="translate(-817.01 -492.17)"/><path class="cls-2" d="M844.4,534.75a.76.76,0,0,0-.53.54c0,.15.19.22.24.07l.36-.37c.15,0,.08-.29-.07-.24Z" transform="translate(-817.01 -492.17)"/><path class="cls-2" d="M844.85,534.84a2.16,2.16,0,0,0-.61.63c-.09.13.13.26.21.12a1.82,1.82,0,0,1,.53-.54c.13-.09,0-.3-.13-.21Z" transform="translate(-817.01 -492.17)"/><path class="cls-2" d="M845.08,535a.68.68,0,0,0-.23.74c0,.15.29.09.24-.07a.4.4,0,0,1,.17-.49c.13-.1,0-.28-.18-.18Z" transform="translate(-817.01 -492.17)"/><path class="cls-2" d="M845.33,535.11a.54.54,0,0,0-.07.49c0,.16.29.09.24-.06l0-.3c.09-.14-.13-.26-.21-.13Z" transform="translate(-817.01 -492.17)"/><path class="cls-2" d="M845.51,535.46l0,.14c.05.16.29.09.24-.06l0-.15c0-.15-.29-.09-.24.07Z" transform="translate(-817.01 -492.17)"/><path class="cls-2" d="M846,535.32a.38.38,0,0,0,.06.49c.11.12.29-.06.18-.18l0-.19a.12.12,0,1,0-.21-.12Z" transform="translate(-817.01 -492.17)"/><path class="cls-2" d="M846.6,535.67v.15a.13.13,0,0,0,.25,0v-.15a.13.13,0,0,0-.25,0Z" transform="translate(-817.01 -492.17)"/><g class="cls-9"><path class="cls-2" d="M851.83,537.63s-.07-.1-.13-.08a1.57,1.57,0,0,0-1,.89,1,1,0,0,0-.13.58,1.35,1.35,0,0,0,.57.81c.14.11.32.24.49.18s.2-.2.26-.34l.29-.75a1.53,1.53,0,0,0,.15-.75.53.53,0,0,0-.5-.49l0-.14" transform="translate(-817.01 -492.17)"/><path class="cls-2" d="M852,537.63v0a.13.13,0,0,0-.06-.11c-.49-.27-1.11.55-1.28.91a1.25,1.25,0,0,0,.66,1.68c.66.36.85-.6,1-1s.36-1.41-.44-1.48l.12.16,0-.14a.12.12,0,0,0-.24-.06l0,.14a.13.13,0,0,0,.13.15c.65.06.3.89.17,1.24a2.82,2.82,0,0,1-.18.45c0,.17-.12.24-.32.2s-.29.09-.38-.05a.92.92,0,0,1-.25-1.26,1.54,1.54,0,0,1,.27-.36l.54-.39a.13.13,0,0,0,.25,0Z" transform="translate(-817.01 -492.17)"/></g><g class="cls-9"><path class="cls-2" d="M854.46,537.65a.66.66,0,0,0-.52.8,1.32,1.32,0,0,0,.2.34l.81,1.07a.56.56,0,0,0,.23.2.38.38,0,0,0,.43-.2,1,1,0,0,0,.1-.5,2.19,2.19,0,0,0-.08-.72,1.24,1.24,0,0,0-1.13-.85" transform="translate(-817.01 -492.17)"/><path class="cls-2" d="M854.43,537.53a.78.78,0,0,0-.51,1.16,10.52,10.52,0,0,0,.87,1.15c.14.18.29.39.54.36.61-.08.55-1,.47-1.42a1.42,1.42,0,0,0-1.3-1.12c-.16,0-.15.24,0,.25a1.18,1.18,0,0,1,.91.54,1.54,1.54,0,0,1,.17.73c0,.31,0,.3-.32.38s-.33.06-.55-.23l-.29-.38c-.28-.36-.65-.94.08-1.18.15,0,.08-.29-.07-.24Z" transform="translate(-817.01 -492.17)"/></g><path class="cls-2" d="M855.21,542c-.45.16-.45.9.1.85s.5-.9,0-.73c-.15,0-.09.29.06.24l-.08-.12c.15,0,.09-.29-.07-.24Z" transform="translate(-817.01 -492.17)"/><g class="cls-7"><path class="cls-2" d="M847.6,546.78a9,9,0,0,1,2.29.38,15.25,15.25,0,0,0,4.32,0l5-.44a15.1,15.1,0,0,0-2.07-2.51,5.09,5.09,0,0,0-2.88-1.4c-.41,0-.91.06-1.06.44l-.05-.07a3.08,3.08,0,0,0-3.46.61,10.39,10.39,0,0,0-1.66,1.9,2.3,2.3,0,0,0-.57,1.21" transform="translate(-817.01 -492.17)"/><path class="cls-2" d="M847.6,546.9c2,.12,3.7.62,5.75.49s3.9-.34,5.85-.51c.09,0,.17-.1.11-.19-1-1.42-2.1-3-3.78-3.65a4.16,4.16,0,0,0-1.74-.31c-.28,0-.49.39-.56.39-1.13.07-1.66-.5-2.82.08a6.64,6.64,0,0,0-3.08,3.69.13.13,0,0,0,.25.07c.37-1.24,3.83-5.82,5.51-3.62a.12.12,0,0,0,.19,0c.76-.88,2.63.13,3.25.59a5.57,5.57,0,0,1,1.59,1.58c.66,1.18.43.92-.58,1.25a11.1,11.1,0,0,1-2.08.18,33,33,0,0,1-3.85.25c-1.37-.05-2.65-.48-4-.56-.16,0-.16.24,0,.25Z" transform="translate(-817.01 -492.17)"/></g><g class="cls-10"><path class="cls-2" d="M847.69,546.73a14.11,14.11,0,0,1,4.1-1.53,8,8,0,0,1,4.33.32c.87.34,1.68.88,2.58,1.14a7.5,7.5,0,0,0-5.59-2.27,8.92,8.92,0,0,0-5.64,2.31" transform="translate(-817.01 -492.17)"/><path class="cls-2" d="M847.75,546.84a12.13,12.13,0,0,1,5.86-1.66c1.9.05,3.35,1,5.06,1.6a.13.13,0,0,0,.12-.21c-3.31-3.18-8-2.79-11.41,0-.12.1.06.28.18.18a8.51,8.51,0,0,1,7.57-2c.39.1,3.13,1.09,3,1.53,0,0-1.85-.82-2-.87-2.92-1.06-5.88-.14-8.53,1.22-.14.07,0,.29.13.22Z" transform="translate(-817.01 -492.17)"/></g><g class="cls-11"><path class="cls-2" d="M850.66,528.6a11.25,11.25,0,0,0-.86-1,.67.67,0,0,0-.28-.19.74.74,0,0,0-.36,0c-1.16.24-2.41-.16-3.53.22a7.76,7.76,0,0,0-3.67,4.07,14.42,14.42,0,0,1,2.37-2.44,4.88,4.88,0,0,1,3.17-1.08,7.67,7.67,0,0,1,1.5.3l1.66.47" transform="translate(-817.01 -492.17)"/><path class="cls-2" d="M850.75,528.52c-.58-.7-.79-1.07-1.59-1.18a9,9,0,0,0-3.58.22,6.82,6.82,0,0,0-3.74,4.16c0,.11.13.22.21.12a10.53,10.53,0,0,1,3.32-3c1.78-.85,3.48-.2,5.25.3a.13.13,0,0,0,.07-.24c-2.75-.77-4.8-1.21-7.09.89-.28.25-.54.53-.8.81-.11.13-.65.95-.47.45a6.49,6.49,0,0,1,1.76-2.15,4.61,4.61,0,0,1,3.29-1.24c1.37,0,2.24-.09,3.2,1.05.1.13.27-.05.17-.17Z" transform="translate(-817.01 -492.17)"/></g><g class="cls-8"><path class="cls-2" d="M845.24,523.12a4.24,4.24,0,0,0-4.35.78,11.62,11.62,0,0,0-2.73,3.75,153.66,153.66,0,0,0-6.41,14.07c-1.4,3.46-2.75,7.37-1.36,10.84a15.2,15.2,0,0,0,2.36,3.65,5.74,5.74,0,0,0,1.22,1.24c1.72,1.12,4.1,0,5.3-1.71a7.82,7.82,0,0,0,1.35-5.88,5.62,5.62,0,0,0,4.83-5,4.26,4.26,0,0,1-2.07,2.32,2.46,2.46,0,0,1-2.89-.61,4,4,0,0,0,4.14-6,7.14,7.14,0,0,1-1,3.07,2.44,2.44,0,0,1-2.84,1c-1.21-.56-1.39-2.18-1.4-3.51,0-4.93,0-10.11,2.44-14.39a6.24,6.24,0,0,1,1.29-1.65,7.94,7.94,0,0,1,1.5-.92l2.77-1.42a3.85,3.85,0,0,1,.48-3.14,2.69,2.69,0,0,1,2.85-1.11,4.63,4.63,0,0,1,2.29,2.17l6.36,9.81a37.48,37.48,0,0,1,4.65,8.77,10,10,0,0,1,.5,4.68,5.27,5.27,0,0,1-2.56,3.81,3.6,3.6,0,0,1-4.33-.71c-.64-.78-.73-2.15.14-2.66-1.37,1.28-1,3.76.46,4.92a5.16,5.16,0,0,0,5.31.34,5,5,0,0,1-4.91.76,6.48,6.48,0,0,0,4,3.74,2.47,2.47,0,0,1,.91.43c.5.46.4,1.26.61,1.9a3.69,3.69,0,0,0,2.28,2c2.54,1.12,5.54,1.89,8,.66a7.53,7.53,0,0,0,3.7-5.23,22.37,22.37,0,0,0,.17-6.59l-.36-4.85a12.66,12.66,0,0,0-.94-4.62c-1.1-2.25-3.42-3.63-4.93-5.63-.9-1.19-1.5-2.59-2.29-3.86a28.89,28.89,0,0,0-4.36-5,23.33,23.33,0,0,0-5.45-4.37,22.44,22.44,0,0,0-5.06-1.68,11.59,11.59,0,0,0-4.91-.49,6,6,0,0,0-4.71,5.25c0,.4.09.93.49,1" transform="translate(-817.01 -492.17)"/><path class="cls-2" d="M845.27,523c-5.82-2-8.69,7.33-10.41,11.12-1.43,3.15-2.86,6.35-4,9.61-1,2.82-1.72,6-.58,8.86.65,1.66,2.39,4.62,4.23,5.26s3.79-.6,4.86-2a7.56,7.56,0,0,0,1.29-2.86c.35-1.49-.1-2.49,1.32-3.32,2-1.16,3.27-2.42,3.6-4.8,0-.12-.16-.23-.23-.09-1.09,2.24-1.25,1.14-4.2,2,1.65-.45-.32.34,1.32-.22a4.16,4.16,0,0,0,1.91-1.31,4.32,4.32,0,0,0,.37-4.75.13.13,0,0,0-.23,0,14.82,14.82,0,0,1-.33,1.61q-4.77,3.06-4.65-.44c-.06-.73,0-1.5,0-2.23a42.47,42.47,0,0,1,.41-6.57,15.77,15.77,0,0,1,2-6.1c1.34-2.06,3.42-2.88,5.51-4a.13.13,0,0,0,.06-.14l0-1.89,2-2.21c1.16-.46,2.45.79,3.06,1.57s1.31,2,2,3l4.51,6.95c2.62,4,7.58,10.66,4.74,15.65a4.78,4.78,0,0,1-2.44,2.08l-1.95.06-2.06-3.18c-.23.1-.42,1-.45,1.17a3.79,3.79,0,0,0,.84,3,4.16,4.16,0,0,0,2.77,1.36,7.26,7.26,0,0,0,2.13-.17c.7-.12.14,0-.39.1a6.88,6.88,0,0,1-3.52.06.13.13,0,0,0-.14.19,7,7,0,0,0,2.13,2.79c.39.3.83.48,1.23.74a6.17,6.17,0,0,1,2.11,2.52c1.26,2.09,4.07,3,6.4,3.25,6.94.86,8.42-6.14,8.09-11.54-.2-3.27.09-7.44-1.37-10.45s-4.5-4.69-6.13-7.57c-3.19-5.66-8.33-11-14.75-12.75-2.89-.78-6.19-1.71-8.77.35-1.21,1-3.35,3.88-1.78,5.26.12.1.3-.07.17-.18-2.08-1.83,2.17-5.4,3.51-5.84,2.19-.72,4.68.07,6.81.65,3.91,1,6.62,3.19,9.45,6a27.41,27.41,0,0,1,4,4.69c.81,1.28,1.4,2.68,2.31,3.89a40.4,40.4,0,0,0,3.16,3.25,9.44,9.44,0,0,1,2.61,6.12c.37,3.84,1.2,8.41.26,12.2-.58,2.35-2,4.64-4.37,5.45-2.1.7-4.45.14-6.43-.64a4.86,4.86,0,0,1-3.11-2.89c-.22-.47-.08-.85-.48-1.25-.56-.57-1.57-.66-2.24-1.06-.35-.21-2.8-2.11-2.21-2.59.3-.24.87,0,1.28,0a5.45,5.45,0,0,0,3.15-1.09c.11-.07,0-.29-.09-.23a5.23,5.23,0,0,1-3.67.31c-2.29-.69-3.85-3.13-2-5.36.11-.12-.06-.29-.17-.18-1.25,1.22-.49,3,1,3.67,2.18,1,4.48-.35,5.45-2.34,1.34-2.72.36-5.92-.78-8.52-1.81-4.11-4.59-7.82-7-11.58-1.23-1.89-2.34-3.94-3.75-5.71a3.26,3.26,0,0,0-2.43-1.51c-2.52,0-2.48,2.1-3,3.81-.44,1.53-3,1.91-4.1,2.88a8.91,8.91,0,0,0-2.06,3.17c-1.49,3.43-1.7,7.23-1.73,10.91,0,1.72-.46,5.62,2.15,5.86a2.81,2.81,0,0,0,2.33-1.21c.75-1,.27-.45.41-.73.28-.57.22-2.41.68-.89.79,2.6-2,4.59-4.34,4.4a.13.13,0,0,0-.09.21,2.75,2.75,0,0,0,3.6.3,9,9,0,0,0,1.23-1.45c.37,0-1.72,2.92-1.65,2.86a5.81,5.81,0,0,1-3,1.41.14.14,0,0,0-.09.12,7.73,7.73,0,0,1-1.75,6.33c-1.27,1.36-3.36,2.2-5.13.81a13.47,13.47,0,0,1-1.82-2.24c-2.73-3.92-1.84-8-.24-12.2,1.41-3.65,3-7.25,4.68-10.78s4.06-10.19,9-8.54c.15.06.22-.19.06-.24Z" transform="translate(-817.01 -492.17)"/></g><g class="cls-3"><path class="cls-2" d="M848.3,529.46a2,2,0,0,1,1.68.16,3.64,3.64,0,0,1,1.78,1.57,2,2,0,0,1-.27,2.24,10,10,0,0,0-.94.75,2.11,2.11,0,0,1-.28.37.4.4,0,0,1-.42.12,2.91,2.91,0,0,0,.86-1.77,2.53,2.53,0,0,0-.89-1.71,11.58,11.58,0,0,1-1.43-1.37c-.06-.08-.08-.24,0-.23" transform="translate(-817.01 -492.17)"/><path class="cls-2" d="M848.34,529.58a3.08,3.08,0,0,1,3.47,2.15,1.86,1.86,0,0,1-.87,1.95c-.22.18-.87.87-1.09.86l.09.22a2.55,2.55,0,0,0,.77-2.52c-.15-.4-2.24-2.52-2.21-2.56s-.07-.3-.18-.18c-.27.33.19.67.42.9s.77.64,1.11,1c1,1.07.77,2.13-.09,3.18a.13.13,0,0,0,.09.21.65.65,0,0,0,.58-.24c.38-.32.8-.68,1.15-1a2,2,0,0,0,.5-1.71,3.3,3.3,0,0,0-3.81-2.46c-.15,0-.09.29.07.24Z" transform="translate(-817.01 -492.17)"/></g><g class="cls-3"><path class="cls-2" d="M857,530l-1.13.93a2.26,2.26,0,0,0-.59.64,2.4,2.4,0,0,0-.17.76,3.79,3.79,0,0,0,.18,2,2.76,2.76,0,0,0,1.29,1.19c.53.27,1.11.45,1.65.68a3.29,3.29,0,0,1-1-.9,3.47,3.47,0,0,1-.93-1.76,1.88,1.88,0,0,1,1.17-1.91,4,4,0,0,0,.48-.2.85.85,0,0,0,.24-1.2.86.86,0,0,0-1.22-.12" transform="translate(-817.01 -492.17)"/><path class="cls-2" d="M856.88,529.94c-1.37,1.13-2.22,1.76-2,3.69.24,1.71,1.84,2.16,3.24,2.74.14,0,.21-.16.1-.23a4.79,4.79,0,0,1-1.45-1.52,2,2,0,0,1-.37-1.69,1.77,1.77,0,0,1,1.27-1.23c.37-.23.68-.38.71-.88.06-.9-.9-1.18-1.56-.78-.13.09,0,.3.13.22q1,1,.39,1.29l-.17.09c-.11.11-.32.19-.45.3a2.12,2.12,0,0,0-.56.93,2.57,2.57,0,0,0,.64,2.23,6.1,6.1,0,0,0,1,1,.7.7,0,0,0-.22-.27c-.38-.27-.91-.34-1.31-.6a2.73,2.73,0,0,1-1.09-2.92c.27-1.1,1-1.57,1.85-2.24.13-.1,0-.28-.18-.18Z" transform="translate(-817.01 -492.17)"/></g><g class="cls-9"><path class="cls-2" d="M849.68,538.16a1.23,1.23,0,0,0-.13.54,2.34,2.34,0,0,0,.25,1.57,1.5,1.5,0,0,0,1.2.56c.07.26-.28.43-.54.38a1.39,1.39,0,0,1-1-1,2.47,2.47,0,0,1,0-1.45" transform="translate(-817.01 -492.17)"/><path class="cls-2" d="M849.57,538.1a2.81,2.81,0,0,0-.05,1.92A1.61,1.61,0,0,0,851,541l-.13-.13-.54.22a.78.78,0,0,1-.37-.22,1.34,1.34,0,0,1-.42-.6,2.44,2.44,0,0,1,0-1.39c0-.16-.21-.22-.25-.07a2.16,2.16,0,0,0,.58,2.32c.36.27,1.26.43,1.24-.26a.12.12,0,0,0-.12-.12,1.34,1.34,0,0,1-1.3-1,2.71,2.71,0,0,1,.09-1.52c.06-.15-.15-.28-.22-.13Z" transform="translate(-817.01 -492.17)"/></g><g class="cls-9"><path class="cls-2" d="M856.62,538.67a6.29,6.29,0,0,1,.11,1.22,1.46,1.46,0,0,1-.22.85,1.16,1.16,0,0,1-1.49.08,2.28,2.28,0,0,0,.84.45.81.81,0,0,0,.86-.26,1.06,1.06,0,0,0,.15-.42,3.26,3.26,0,0,0-.12-1.58" transform="translate(-817.01 -492.17)"/><path class="cls-2" d="M856.5,538.71a4.1,4.1,0,0,1,.06,1.6c-.17.74-.94.7-1.48.4-.14-.08-.25.12-.13.22.49.34,1.23.77,1.77.27s.34-1.62.15-2.22a.12.12,0,0,0-.24.06,2.77,2.77,0,0,1,.09,1.66c-.33.84-1.15.36-1.64,0l-.13.22a1.3,1.3,0,0,0,1.65-.11c.45-.55.25-1.54.14-2.18,0-.16-.27-.09-.24.07Z" transform="translate(-817.01 -492.17)"/></g><g class="cls-12"><path class="cls-2" d="M849.84,549.59a13.77,13.77,0,0,0,1.63-.39,5.12,5.12,0,0,1,2,.45,6.88,6.88,0,0,0,2.55.31c.1,0,.21,0,.28.07s0,.26-.11.34c-.44.37-1.11.17-1.66,0a20,20,0,0,0-3.08-.61l-1.75-.25" transform="translate(-817.01 -492.17)"/><path class="cls-2" d="M849.84,549.72a7.1,7.1,0,0,1,3.24-.09,15.15,15.15,0,0,0,2.56.47c1.21.19-.56.21-1,.15s-1.16-.3-1.74-.4c-1-.19-2.06-.31-3.08-.46-.16,0-.23.22-.07.24,1.75.25,3.45.56,5.17,1,.37.09,1.55.29,1.6-.38s-1.83-.42-2.1-.47c-.77-.14-1.49-.52-2.26-.63a8.17,8.17,0,0,0-2.29.36c-.16,0-.16.27,0,.25Z" transform="translate(-817.01 -492.17)"/></g><path class="cls-2" d="M849.86,533.24a5.51,5.51,0,0,1-1.27-.67c-.13-.1-.25.12-.12.21a5.13,5.13,0,0,0,1.33.7c.15.06.21-.18.06-.24Z" transform="translate(-817.01 -492.17)"/><path class="cls-2" d="M857,533.55a2.83,2.83,0,0,1,1.79-1c.16,0,.09-.26-.07-.24a2.93,2.93,0,0,0-1.89,1.07c-.11.13.07.31.17.18Z" transform="translate(-817.01 -492.17)"/><g class="cls-13"><path class="cls-2" d="M845.86,555.61a111.82,111.82,0,0,0,12.81.67.89.89,0,0,1,.7.2c.34.4-.21.94-.68,1.18a26,26,0,0,0-6.15,4.35c-.8.77-1.82,1.67-2.88,1.32a3,3,0,0,1-1.47-1.61l-2.3-4.38c-.23-.43-.46-.86-.65-1.31" transform="translate(-817.01 -492.17)"/><path class="cls-2" d="M845.86,555.74c2.78.29,5.57.5,8.37.6,1,0,3.06-.35,3.95.06.53-.16.68,0,.47.58.14.43,0,.69-.4.77a10.53,10.53,0,0,1-1.81,1,25.27,25.27,0,0,0-2.08,1.48c-.73.57-1.58,1.75-2.41,2.11l-3.38-.24-.27-.5a10.74,10.74,0,0,1-1.15-2.18c-.62-1.16-1.25-2.31-1.8-3.51-.06-.14-.28,0-.21.13a40.36,40.36,0,0,0,3.22,6.19,2.48,2.48,0,0,0,1.3,1.17,2.75,2.75,0,0,0,2.46-.88,47,47,0,0,1,5.52-4.2c.77-.44,2.8-1.28,1.45-2.18-.82-.55-4.31-.08-5.35-.12-2.64-.1-5.26-.31-7.88-.58-.16,0-.16.23,0,.25Z" transform="translate(-817.01 -492.17)"/></g><g class="cls-8"><path class="cls-2" d="M844,560.06a8.45,8.45,0,0,1-1.72,4.19,5.21,5.21,0,0,0-1.17,1.87c-.1.42,0,.87-.13,1.29a3.08,3.08,0,0,1-.82,1.55,9.24,9.24,0,0,1-2.89,1.86l-3.1,1.47a8.66,8.66,0,0,0-2.63,1.65,3,3,0,0,0-.9,2.83,1.23,1.23,0,0,0,.59.79,1.74,1.74,0,0,0,.68.12l15.46.42c2.52.06,5.06.13,7.58,0,6.38-.38,12.64-2.16,19-2.07-1.65-2.71-5.83-2.58-8-4.93a9.31,9.31,0,0,1-1.47-2.54l-3.25-7.34a4.27,4.27,0,0,1-1.25,2.52,3.67,3.67,0,0,1-1.11.53,16.52,16.52,0,0,1-8.23.88,10.09,10.09,0,0,1-6.86-4.35" transform="translate(-817.01 -492.17)"/><path class="cls-2" d="M843.78,560c-.43,2.6-2.22,4.38-3,6.77-1.09,3.49-4.53,4.09-7.45,5.65-1.48.79-3.61,2.36-3,4.36.47,1.4,1.69,1.16,3,1.2,6.7.18,13.46.63,20.17.42,6.87-.21,13.56-2.13,20.45-2.13a.25.25,0,0,0,.21-.38c-1.64-2.29-4.29-2.47-6.55-3.86-2-1.22-2.69-3.2-3.59-5.24l-2.54-5.7a.25.25,0,0,0-.45.06c-1,3.74-6.23,4.17-9.39,3.84a10.19,10.19,0,0,1-7.6-4.33c-.18-.26-.62,0-.43.26,3.36,4.87,10.76,6.05,16,3.36.79-.41.93-1,1.52-1.58s-.12-1,.52-.14a14.87,14.87,0,0,1,1.26,2.85c1.14,2.56,1.94,5.55,4.49,7.05,1.13.66,2.41,1,3.59,1.57.46.21,2.21.88,2,1.48s-2.22.35-2.86.4c-4.14.34-8.22,1.21-12.35,1.68a92,92,0,0,1-12.86.2l-5.8-.16-2.89-.08-1.45,0c-1.78,0-1.8.35-2.51-1.72-.63-1.81-.81-1.68.6-2.56a15.25,15.25,0,0,1,1.39-.72c.9-.44,1.81-.85,2.72-1.28,1.31-.63,2.86-1.27,3.69-2.54s.95-2.88,1.75-4.25a11.61,11.61,0,0,0,1.79-4.31c0-.31-.43-.45-.48-.13Z" transform="translate(-817.01 -492.17)"/></g></svg>