<svg id="Calque_1" data-name="Calque 1" xmlns="http://www.w3.org/2000/svg" viewBox="0 0 49.81 71.42"><defs><style>.cls-1{fill:#fff;}.cls-2{fill:#1d1d1b;}.cls-3{opacity:0.17;}</style></defs><title>30</title><path class="cls-1" d="M876.27,575.91,878,506.49c-15.85-.82-31.29-1.66-47.12-.33-1.82,23.42-.58,44.65-1.82,68.11C829,575.16,865.48,576.65,876.27,575.91Z" transform="translate(-828.55 -505.12)"/><path class="cls-2" d="M876.64,575.91l1.27-51.26.45-18.16a.39.39,0,0,0-.38-.38c-15.7-.8-31.42-1.6-47.12-.32a.39.39,0,0,0-.38.37c-.88,11.65-1.06,23.31-1.13,35,0,5.85-.06,11.71-.16,17.56-.05,2.73-.12,5.47-.21,8.2-.05,1.47-.11,2.94-.17,4.4,0,.76-.48,2.51-.13,3.09s1.39.54,2,.61c2.08.27,4.19.39,6.29.52,6.58.41,13.17.65,19.76.81s13.06.38,19.55,0c.48,0,.48-.79,0-.75-11.93.78-24.11,0-36-.59-2.45-.13-4.9-.27-7.35-.47-.78-.07-1.56-.13-2.33-.24a2.65,2.65,0,0,1-.88-.13c-.66-.5-.1.77-.22-.83-.18-2.55.24-5.28.31-7.84.1-3,.16-6.09.2-9.13.08-5.53.1-11.06.14-16.58s.09-11.06.25-16.59c.08-2.72.18-5.45.32-8.17.06-1.3.13-2.59.21-3.89s-.3-3.9,1-4.62c.92-.52,3.43-.24,4.44-.3,1.31-.07,2.62-.13,3.93-.17q4.65-.17,9.31-.15c5.54,0,11.09.2,16.63.44,3,.13,5.9.28,8.86.43a8.33,8.33,0,0,1,2,.1c.68.35.36-.12.59.69a10.27,10.27,0,0,1-.06,2.65l-.26,10.35-.57,23.31-.8,32.1A.38.38,0,0,0,876.64,575.91Z" transform="translate(-828.55 -505.12)"/><path class="cls-2" d="M853.56,520.65a20.95,20.95,0,0,0-16.29,34.56c5.68,6.64,16,8.1,23.73,4.35s12.72-12.83,12.42-21.39c-.33-9.62-11.15-16.67-19.86-17.52-2.11-.21-2.1,3.09,0,3.3,6.46.63,14.44,5.55,16.26,12.15s-2.61,15.47-8.09,19.22c-6.05,4.14-15.36,4.12-20.82-1.07a18,18,0,0,1-4.39-18.44c2.4-7.18,9.6-11.86,17-11.86a1.65,1.65,0,0,0,0-3.3Z" transform="translate(-828.55 -505.12)"/><path class="cls-2" d="M841.39,533q-.15,8.18,0,16.36c0,2.12,3.33,2.13,3.3,0q-.12-8.17,0-16.36c0-2.12-3.27-2.12-3.3,0Z" transform="translate(-828.55 -505.12)"/><path class="cls-2" d="M842.26,535.33q6.9,5.11,13.52,10.6c1.62,1.35,6.64,7.33,8.69,3.67,1-1.86-1.8-3.52-2.85-1.67.8-1.42-.25-1.6-1.32-2.5l-2.19-1.83q-2.37-2-4.8-3.91c-3.08-2.46-6.22-4.86-9.39-7.21-1.7-1.27-3.35,1.59-1.66,2.85Z" transform="translate(-828.55 -505.12)"/><path class="cls-2" d="M860.54,532.91l.39,15.59c.05,2.12,3.35,2.12,3.3,0l-.39-15.59c-.06-2.12-3.36-2.12-3.3,0Z" transform="translate(-828.55 -505.12)"/><path class="cls-2" d="M858.51,535.43c-1.63-4.66-9.73-6.12-11.5-.72-.89,2.69.92,4.42,2.79,6a51.26,51.26,0,0,1,3.89,3.63c4.1,4.36-3.63,4.67-3.8,2.16-.15-2.11-3.45-2.13-3.3,0a5.1,5.1,0,0,0,5,4.83c2.51.22,5.92-.37,6.82-3.1,1-3.08-1.64-5.57-3.63-7.47-1.2-1.15-2.73-2.15-3.81-3.4-2.65-3,3.39-3.92,4.38-1.1.7,2,3.89,1.13,3.18-.88Z" transform="translate(-828.55 -505.12)"/><path class="cls-2" d="M842.29,534.65l3.39,3.06a1.68,1.68,0,0,0,2.33,0,1.65,1.65,0,0,0,0-2.33l-3.38-3.07a1.7,1.7,0,0,0-2.34,0,1.68,1.68,0,0,0,0,2.34Z" transform="translate(-828.55 -505.12)"/><path class="cls-2" d="M860.63,546.87c0,.16.09.33.14.5l0,.17h0a5,5,0,0,1,0,1,1.65,1.65,0,0,0,1.65,1.65,1.68,1.68,0,0,0,1.65-1.65,6.25,6.25,0,0,0-.28-2.5,1.65,1.65,0,0,0-3.18.88Z" transform="translate(-828.55 -505.12)"/><g class="cls-3"><path class="cls-2" d="M831.48,506.77c-.33,12.18-1.48,24.43.21,36.5s6.61,24.23,16.2,31.75q-8.68-.12-17.34-.86a.92.92,0,0,1-.93-1.21c-.1-5.49.76-11,.81-16.44,0-2.69-.14-5.38-.25-8.08-.55-13.28.36-26.59,1.5-39.84" transform="translate(-828.55 -505.12)"/><path class="cls-2" d="M831,506.77c-.67,23.23-3.92,52.17,16.55,68.61l.36-.86c-3.54-.06-7.08-.18-10.61-.38-1.58-.09-3.24-.08-4.81-.33-1.08-.16-2-.18-2.35-1.35a8.13,8.13,0,0,1,0-2.41c.22-6.81.89-13.45.59-20.27-.62-13.75.27-27.49,1.44-41.19.06-.64-.94-.64-1,0-.65,7.6-1.23,15.2-1.5,22.82s0,14.93.22,22.41a107.44,107.44,0,0,1-.43,10.91c-.14,1.77-.27,3.54-.32,5.32,0,.94-.38,2.87.12,3.77.38.69.59.66,1.28.84a30.71,30.71,0,0,0,5.77.42q5.77.36,11.57.44c.4,0,.7-.57.35-.85C828,558.41,831.32,529.76,832,506.77c0-.64-1-.64-1,0Z" transform="translate(-828.55 -505.12)"/></g></svg>