<svg id="Calque_1" data-name="Calque 1" xmlns="http://www.w3.org/2000/svg" viewBox="0 0 146.05 139.44"><defs><style>.cls-1{fill:#fff;}.cls-2{fill:#163659;}.cls-3{fill:#e83576;}.cls-4{fill:#4e73b8;}.cls-5{fill:#fdcd70;}.cls-6{fill:#432918;}.cls-7{fill:#1d1d1b;}.cls-8{opacity:0.27;}.cls-9{opacity:0.15;}</style></defs><title>32</title><polygon class="cls-1" points="118.8 119.15 26.66 118.5 26.32 21.01 114.2 20.52 118.8 119.15"/><path class="cls-2" d="M828.41,534.56c-4.18-2.1-8.26,3.26-4.84,6.61a3.7,3.7,0,0,0,5.1,0c2-1.74,1.86-4.43,1.47-6.8-.19-1.16-1.9-.8-2,.27-.09,1.61-.16,3.22-.17,4.83a16.27,16.27,0,0,1,0,2.52,1.85,1.85,0,0,1-.54,1.53c-.86.81-1.76.72-2.73-.27,0-1.29-2-1.29-2,0-.13,2.86,3.9,3.45,5.75,2a4.4,4.4,0,0,0,1.56-3.54c.11-2.36,0-4.73.18-7.09l-2,.26c.28,1.74.53,4.88-1.9,5.15-3.19.35-2.15-5.38,1.08-3.75,1.14.58,2.16-1.15,1-1.73Z" transform="translate(-780.72 -470.99)"/><path class="cls-2" d="M827.44,536.05a2.7,2.7,0,0,0,1,1c1.14.59,2.15-1.13,1-1.72a.74.74,0,0,1-.32-.26c-.7-1.08-2.43-.07-1.72,1Z" transform="translate(-780.72 -470.99)"/><path class="cls-2" d="M833.31,539a30.59,30.59,0,0,0,6.2,0,1,1,0,0,0,1-1.27c-.54-2-1.78-4.21-4.18-4.16a4.3,4.3,0,0,0-4,3.89c-.18,1.25,1.74,1.8,1.93.53.17-1.11.72-2.34,2-2.41,1.45-.09,2,1.55,2.29,2.68l1-1.26a30.59,30.59,0,0,1-6.2,0c-1.28-.13-1.27,1.87,0,2Z" transform="translate(-780.72 -470.99)"/><path class="cls-2" d="M832.92,540.54a4.32,4.32,0,0,0,7.4.14c.73-1.07-1-2.07-1.73-1a2.29,2.29,0,0,1-3.94-.14,1,1,0,0,0-1.73,1Z" transform="translate(-780.72 -470.99)"/><path class="cls-2" d="M845.36,534a3.71,3.71,0,0,0-3.92,4.5c.46,2.56,1.93,4.18,4.64,3.81a4.46,4.46,0,0,0,3.57-5.14,3.84,3.84,0,0,0-5-3.27c-1.2.43-.68,2.36.53,1.93,2.91-1,3.39,4.2.44,4.53-1.35.15-1.84-.57-2.14-1.79-.36-1.44.21-2.68,1.85-2.57,1.29.09,1.28-1.91,0-2Z" transform="translate(-780.72 -470.99)"/><path class="cls-2" d="M851.43,535.34l-.17,5.82a1,1,0,0,0,2,.27l.12-.38c.4-1.23-1.53-1.75-1.93-.53l-.12.38,2,.26.17-5.82c0-1.28-2-1.28-2,0Z" transform="translate(-780.72 -470.99)"/><path class="cls-2" d="M853.88,537.29a1.53,1.53,0,0,1,1.55-.92c1.28.07,1.28-1.93,0-2a3.56,3.56,0,0,0-3.48,2.39,1,1,0,0,0,.7,1.23,1,1,0,0,0,1.23-.7Z" transform="translate(-780.72 -470.99)"/><path class="cls-2" d="M864.94,536.17c-1.22-1.49-3.49-2.7-5.42-1.89s-2.24,3.38-1.55,5a3.54,3.54,0,0,0,4.64,2c2.29-1.06,2.56-3.71,2.5-5.93a1,1,0,0,0-2,0,44.39,44.39,0,0,0,.24,5.15c.1,1,.32,2.11-.88,2.49s-2.17-.4-3-.94l.36,1.37.2-.43c.53-1.16-1.19-2.17-1.73-1l-.2.43a1,1,0,0,0,.36,1.37c1.89,1.16,4.62,2.07,6.32,0a3.85,3.85,0,0,0,.65-3c-.15-1.84-.3-3.64-.28-5.49h-2a6.35,6.35,0,0,1-.38,3.12c-.57,1.11-2.06,1.55-2.83.25-.59-1-.22-2.78,1.42-2.67a3.54,3.54,0,0,1,2.2,1.48c.82,1,2.23-.42,1.42-1.41Z" transform="translate(-780.72 -470.99)"/><path class="cls-2" d="M868.61,539a32.82,32.82,0,0,0,5.78.22,1,1,0,0,0,1-.73,4.34,4.34,0,0,0-4.92-5,3.85,3.85,0,0,0-3,2.53c-.41,1.11-.49,2.62,1,2.81,1.27.16,1.26-1.84,0-2l-.14,0,.86.5c-.13-.33.5-1.24.74-1.44a1.75,1.75,0,0,1,1.7-.33,2.17,2.17,0,0,1,1.84,2.44l1-.73a32.82,32.82,0,0,1-5.78-.22c-1.28-.16-1.27,1.85,0,2Z" transform="translate(-780.72 -470.99)"/><path class="cls-2" d="M867.83,540a4,4,0,0,0,3.69,3.05,3.24,3.24,0,0,0,3.52-3c.06-1.28-1.94-1.28-2,0,0,.86-1.23,1.07-1.89.89a2,2,0,0,1-1.39-1.52,1,1,0,0,0-1.93.53Z" transform="translate(-780.72 -470.99)"/><path class="cls-2" d="M882.31,535.29c-1.47-1.92-6.39-1.75-5.73,1.48.31,1.5,1.64,2.06,2.91,2.57.6.25,2.18,1.15.74,1.34a2.42,2.42,0,0,1-2.18-1.42c-.61-1.13-2.34-.12-1.73,1a4.44,4.44,0,0,0,3.3,2.35c1.22.18,2.75-.14,3.18-1.46a2.81,2.81,0,0,0-1.55-3.22c-.63-.35-1.36-.48-2-.83-1.76-1,.76-1.53,1.32-.82.77,1,2.51,0,1.72-1Z" transform="translate(-780.72 -470.99)"/><path class="cls-3" d="M893.14,529.61a4.54,4.54,0,0,0-4.27,1.39,4.76,4.76,0,0,0-1,4.39,5,5,0,0,0,3.1,3.31,4.56,4.56,0,0,0,1.9.26,4.43,4.43,0,0,0,3.22-2,5.32,5.32,0,0,0,.81-3.71,4,4,0,0,0-.86-2,6.07,6.07,0,0,0-3.13-1.55" transform="translate(-780.72 -470.99)"/><path class="cls-4" d="M850.42,546.13a6.8,6.8,0,0,0-2,.28,2.22,2.22,0,0,0-1.41,1.33,3.31,3.31,0,0,0,0,1.5q.55,3.16,1.13,6.33a2.74,2.74,0,0,0,.69,1.62,2.26,2.26,0,0,0,1.94.32,13,13,0,0,0,5.87-3.34,2,2,0,0,0,.68-.86c.22-.68-.31-1.36-.8-1.88L853,547.6c-.77-.83-1.74-1.73-2.86-1.57" transform="translate(-780.72 -470.99)"/><path class="cls-5" d="M817,523.36l-.87,1.08-3,3.77a2.63,2.63,0,0,0-.75,1.49c0,.94.87,1.61,1.68,2.11l4,2.47a1.78,1.78,0,0,0,1.17.37,1.61,1.61,0,0,0,.73-.43,14.27,14.27,0,0,0,3.35-4.83,2.25,2.25,0,0,0,.19-2,2.3,2.3,0,0,0-.83-.71l-5.55-3.39" transform="translate(-780.72 -470.99)"/><path class="cls-6" d="M922.33,471.89c1.89.66,5.12,136,2.88,137.24s-140.13,0-140.13,0c-3.13-36.87-5-132.82-2.35-134.45S920.44,471.22,922.33,471.89ZM810.92,496.44c-1.57,1.11-.47,66.23,1.42,91.26,0,0,83.14.81,84.49,0s-.6-92.7-1.74-93.16S812.5,495.33,810.92,496.44Z" transform="translate(-780.72 -470.99)"/><path class="cls-7" d="M922,472.53c-.43-.22-.11-.38-.16,0a4.32,4.32,0,0,0,.14.8c.16,1,.22,2.09.3,3.14.28,3.49.46,7,.63,10.5.53,11,.88,22,1.19,33,.7,24.3,1.29,48.63,1.16,72.94,0,3.61-.05,7.22-.18,10.83a32.83,32.83,0,0,1-.39,4.88c0-.16.52-.14.11-.17l-.68.06c-.93.07-1.86.09-2.79.12-3.31.11-6.63.14-9.95.17-23.84.24-47.68.06-71.52-.06q-17.4-.1-34.81-.23l-12.31-.09a60.29,60.29,0,0,0-6.72-.06,6.61,6.61,0,0,1-.89,0l.75.75c-2.08-24.72-2.68-49.6-3.21-74.39-.26-12.33-.43-24.66-.38-37,0-7-.37-14.42.76-21.36,0-.31.12-.61.17-.92s.18-.32,0-.16.65-.09.92-.12c2-.25,3.93-.31,5.89-.41,7.65-.38,15.31-.58,23-.78,21.82-.57,43.64-.93,65.47-1.21,14.29-.18,28.7-.78,43-.23a6.9,6.9,0,0,0,.76.05.75.75,0,0,0,.4-1.45,12.55,12.55,0,0,0-3.24-.14c-2.57,0-5.15,0-7.73,0q-13,0-26,.2-33.5.39-67,1.16c-8.51.2-17,.42-25.53.78-2.52.11-5,.21-7.55.41-.9.07-2.53-.06-3.28.56-1,.84-.89,3.25-1,4.39-.28,3.43-.35,6.88-.42,10.31-.23,11.31-.11,22.64.06,33.95.39,26.42,1.08,52.89,2.88,79.25.16,2.37.34,4.75.54,7.12a.78.78,0,0,0,.75.75q23.59.2,47.19.33c25.13.15,50.27.32,75.4.14,3.84,0,7.67-.06,11.5-.14,1.78,0,4.17.27,5.9-.29,1.19-.37,1.14-1.47,1.25-2.6.27-2.81.28-5.67.33-8.49.39-23.75-.27-47.53-.89-71.26-.31-12-.67-23.93-1.19-35.89-.18-4.15-.37-8.3-.64-12.45a41.48,41.48,0,0,0-.63-6.77c-.1-.43-.15-1-.59-1.22C921.86,470.79,921.1,472.08,922,472.53Z" transform="translate(-780.72 -470.99)"/><path class="cls-7" d="M810.39,495.91c-1.29,1.18-.78,5.47-.83,7-.17,5.7-.16,11.41-.13,17.12q.14,23,1,46c.27,7.25.59,14.5,1.13,21.74a.76.76,0,0,0,.75.75q27.93.27,55.85.36c8.93,0,17.9.21,26.83-.19,1.42-.07,2.44,0,2.71-1.53a49.2,49.2,0,0,0,.28-7.87c.23-23-.36-46-1.18-68.89-.15-3.94-.29-7.87-.54-11.8-.06-1,.21-3.92-.82-4.63-.42-.29-1.32-.17-1.79-.18-1.35,0-2.7,0-4,0-4.52,0-9,.05-13.57.1q-18.67.22-37.34.66c-8.75.22-17.65.12-26.37,1a4.44,4.44,0,0,0-1.81.33.75.75,0,0,0,.76,1.3c.93-.55,4.37-.36,5.8-.43,4.52-.22,9-.36,13.56-.49q18.11-.51,36.22-.75c8.74-.13,17.5-.33,26.25-.21l1.72.05c-.89,0-.17-.7-.34,0a3.62,3.62,0,0,0,.12,1.08c.29,3.09.38,6.19.51,9.29q1.4,33.41,1.39,66.89c0,3.78,0,7.56-.1,11.33a20.08,20.08,0,0,0-.17,3.09c0,.17-.1.28-.09.49,0-.79.71-.14.11-.35a11,11,0,0,0-3,.13c-1.61,0-3.21.06-4.82.08-4.82.06-9.65.06-14.47.06-20.15,0-40.3-.16-60.45-.35h-1.23l.75.75c-1-13.47-1.38-27-1.72-40.51s-.62-27.29-.39-40.93c0-2.2.09-4.41.22-6.61,0-.68.1-1.35.17-2,0-.33.29-.84.08-.65C812.16,496.31,811.1,495.26,810.39,495.91Z" transform="translate(-780.72 -470.99)"/><g class="cls-8"><path class="cls-6" d="M907.35,483.89l-23.06.33-32.23.47-13.59.19c-12.64.18-24.68.6-37.62,1.11a45.68,45.68,0,0,0,8.42,7.85,20.72,20.72,0,0,1,1.63,1.7,21.92,21.92,0,0,0,3.07-.27c11.13-.63,21.55-.62,32.71-.82,16.2-.29,31.62-.48,48.41.09-2.35-.47-35.85-1.75-33-6.09.68-1.05,41.42-4.07,45.28-4.56" transform="translate(-780.72 -470.99)"/><path class="cls-6" d="M907.35,483.39c-35.5.51-71,.71-106.5,2.1a.51.51,0,0,0-.35.86,56.36,56.36,0,0,0,7.81,7.4c.75.57,1.52,1.83,2.34,2.22s2.12-.08,3-.16c8.82-.91,17.88-.64,26.74-.76,18.25-.26,36.49-.62,54.74,0,.55,0,.7-.87.13-1-4.45-.81-9.18-.72-13.68-1.13-3.48-.31-7-.67-10.42-1.2-2.45-.38-5.24-.69-7.5-1.79-1.42-.68-1.54-1.11,0-1.39,2.18-.4,4.42-.59,6.62-.83,6.95-.73,13.92-1.32,20.88-1.91,5.42-.46,10.88-.75,16.28-1.42.63-.08.64-1.08,0-1-12.73,1.57-25.61,2.06-38.36,3.46-1.21.13-8.64,0-7.45,2.7.64,1.44,3.22,1.9,4.53,2.23a77.57,77.57,0,0,0,9.59,1.56c4.08.47,8.17.81,12.27,1.11a68.91,68.91,0,0,1,7,.58l.13-1c-17.6-.58-35.2-.28-52.81,0-8.79.13-17.58.2-26.36.64-1,.06-3.61.71-4.59.4-.64-.21-1.25-1.17-1.8-1.65a82.55,82.55,0,0,1-8.32-7.77l-.36.85c35.49-1.39,71-1.59,106.5-2.1a.5.5,0,0,0,0-1Z" transform="translate(-780.72 -470.99)"/></g><g class="cls-8"><path class="cls-6" d="M800.1,486.19a1084.5,1084.5,0,0,0,2.34,110l-.35.14c.11.88,1.43,1.23,2.5,1.25,3,.09,6-.63,9-.64,2.51,0,5,.46,7.5.5,4.14.07,8.16-1,12.21-1.78,8.23-1.51,16.73-1.52,25.14-2A219.1,219.1,0,0,0,896.62,588a229.47,229.47,0,0,1-24,.64c-2.76-.12-5.51-.34-8.27-.41-5.15-.13-10.29.27-15.44.32-2.91,0-5.82-.05-8.73-.13l-27.67-.77L812,588l-.8-36.47-.19-8.62q-.5-22.62-1-45.25a4.31,4.31,0,0,0-.25-1.63,5.29,5.29,0,0,0-1.31-1.58l-8.28-7.69Z" transform="translate(-780.72 -470.99)"/><path class="cls-6" d="M799.6,486.19q-.81,27.73-.21,55.5.3,13.88,1,27.74.33,6.93.75,13.86c.07,1.24,1.24,12.37.87,12.52a.51.51,0,0,0-.3.74c1,2.46,5.51,1.42,7.45,1.21,4.1-.44,7.93.09,12,.14,3.87.05,7.63-.89,11.41-1.62a104.51,104.51,0,0,1,13.79-1.58c8.57-.49,17.12-.76,25.65-1.78a221.44,221.44,0,0,0,24.77-4.4c.54-.13.44-1-.13-1-7.36.45-14.73.91-22.11.71-7.13-.2-14.14-.51-21.29-.27-7.32.25-14.64-.07-22-.27l-10.87-.3-5.93-.17a5.3,5.3,0,0,0-2.75.28l.76.43-1.21-55.42-.6-27.54c0-2.3-.08-4.59-.15-6.89a4.85,4.85,0,0,0-1-3.31,52.31,52.31,0,0,0-4.53-4.27l-2.42-2.24c-.52-.49-1.9-1.36-2-2.09s-1.08-.64-1,0c.12,1.07.78,1.4,1.58,2.15l4.83,4.49a15.17,15.17,0,0,1,2.58,2.41,8,8,0,0,1,.95,4.34l.15,6.88.59,27.06L811.47,588a.5.5,0,0,0,.75.43c1.17-.59,3.41-.1,4.71-.07l5.43.15,10.87.3c7.16.2,14.29.42,21.44.17,7-.25,13.84.2,20.8.34s14.11-.3,21.15-.73l-.14-1c-15.76,3.72-31.59,5.23-47.72,6-3.88.19-7.76.44-11.61.94-3.53.46-7,1.31-10.48,1.89-4.16.69-7.95.14-12.1,0a41.71,41.71,0,0,0-5.91.39c-1.44.15-5.39,1-6.14-.77l-.3.74.35-.14a.51.51,0,0,0,.37-.49,1096.14,1096.14,0,0,1-2.34-110A.5.5,0,0,0,799.6,486.19Z" transform="translate(-780.72 -470.99)"/></g><g class="cls-8"><path class="cls-6" d="M908.16,483.83a9.3,9.3,0,0,0-5.64,6.41,22.65,22.65,0,0,0-.12,8.21c.68,6.48,1.23,13,1.41,19.46.49,17.83-1.86,35.62-4.21,53.34l-1.94,14.68a4.29,4.29,0,0,0,.17,2.51,5.05,5.05,0,0,0,1.69,1.69,53.88,53.88,0,0,0,10.66,6l.09-20.43c.15-30.28.29-60.59-2.32-90.8" transform="translate(-780.72 -470.99)"/><path class="cls-6" d="M908,483.35c-6.58,2.75-6.72,9.4-6.08,15.59a226.13,226.13,0,0,1,1.41,26.4c-.25,18-2.93,35.91-5.29,53.74-.32,2.41-.79,4.85-1,7.28a3.93,3.93,0,0,0,1.4,3.63c3.15,2.86,7.55,4.86,11.42,6.52a.51.51,0,0,0,.75-.43c.17-37.07.93-74.25-2.23-111.23-.05-.64-1.05-.64-1,0,3.16,37,2.4,74.16,2.23,111.23l.75-.43c-4-1.7-12.15-4.75-12.27-9.72-.06-2.21.61-4.65.91-6.85.34-2.61.69-5.22,1-7.83,1.31-9.84,2.61-19.69,3.43-29.59a208.8,208.8,0,0,0,.53-29.59c-.29-4.86-.79-9.69-1.26-14.53-.5-5.25,0-10.92,5.49-13.23.59-.24.33-1.21-.26-1Z" transform="translate(-780.72 -470.99)"/></g><path class="cls-7" d="M799.67,485.67c-.53.45-.5,1.74-.56,2.35-.21,2-.27,4-.33,6-.23,7-.21,14-.16,21q.17,28.13,1.33,56.25c.35,8.74.75,17.48,1.44,26.19a.38.38,0,0,0,.37.38q34.95.33,69.89.43c11.78,0,23.59.18,35.37-.19,1.3,0,3.45.4,4-1a12,12,0,0,0,.26-3.28c.08-2,.11-3.93.14-5.9.36-28.55-.45-57.2-1.55-85.73-.18-4.81-.36-9.62-.71-14.42-.08-1.17.2-4-1-4.53a8.38,8.38,0,0,0-2.74-.08c-1.89,0-3.78,0-5.67,0q-9,0-18,.15-23.55.27-47.1.81c-10.92.25-22,.18-32.85,1.19a5.26,5.26,0,0,0-2,.33.38.38,0,0,0,.38.65c.69-.4,2.34-.29,3.2-.35,2.56-.18,5.13-.28,7.69-.38,8-.31,15.91-.51,23.87-.7q27.79-.65,55.61-.89c5.35-.05,10.71-.15,16.06,0a4.56,4.56,0,0,1,1.43,0c.16.07-.11-.28.06.27a22.76,22.76,0,0,1,.42,4.6c1,15.56,1.26,31.19,1.61,46.77.39,17.23.77,34.47.57,51.71,0,2.35,0,4.7-.17,7.05,0,.69-.11,1.39-.15,2.08,0,.27-.28.9,0,.68-.58.46-2.63.19-3.31.21-2.54.08-5.09.11-7.64.13-17.56.18-35.13,0-52.69,0q-21.44-.12-42.86-.31a7.39,7.39,0,0,1-1.63,0c-.08,0-.3,0-.36,0,.25.19.19-.61.19-1,0-4.57-.6-9.2-.83-13.76-.58-11.36-1-22.73-1.26-34.09-.51-19.25-1.39-38.74-.25-58,0-.78-.13-3.52.51-4.06C800.58,485.89,800,485.36,799.67,485.67Z" transform="translate(-780.72 -470.99)"/><path class="cls-7" d="M800.15,486.26a71.2,71.2,0,0,0,10.56,9.6c.39.29.76-.36.38-.64a69.91,69.91,0,0,1-10.41-9.49c-.32-.36-.85.17-.53.53Z" transform="translate(-780.72 -470.99)"/><path class="cls-7" d="M907.52,483.6a73,73,0,0,0-12.75,10.57c-.34.35.19.88.53.53a72.58,72.58,0,0,1,12.6-10.46c.4-.26,0-.91-.38-.64Z" transform="translate(-780.72 -470.99)"/><path class="cls-7" d="M802.18,597.82c4.14-2.91,7.42-7.34,10.86-11,.33-.35-.2-.88-.53-.53-3.38,3.62-6.64,8-10.71,10.9-.39.28,0,.93.38.65Z" transform="translate(-780.72 -470.99)"/><path class="cls-7" d="M896.64,587.27c3.05,5,8.86,7.22,13.67,10.15.41.25.79-.4.38-.65-4.69-2.85-10.44-5-13.4-9.87-.25-.42-.9,0-.65.37Z" transform="translate(-780.72 -470.99)"/><g class="cls-9"><path class="cls-6" d="M799.26,517.09l-1.1,31.39c-.72,20.39-1.61,41.44-12.07,59.9,19.29.41,38.58.83,57.88,1q40.2.35,80.39-.72l-42.31-3.16c-6.26-.47-13.19-1.22-17.22-5.23a9.33,9.33,0,0,0-2.31-2,8.66,8.66,0,0,0-4.2-.51c-18.25.78-36.55.69-54.79-.27a4,4,0,0,1-2.19-.55,2.52,2.52,0,0,1-.72-2.06l-1.71-57.53" transform="translate(-780.72 -470.99)"/><path class="cls-6" d="M798.76,517.09c-.56,15.79-.75,31.64-1.86,47.41-1.07,15.13-3.76,30.23-11.24,43.63a.5.5,0,0,0,.43.75c35.84.77,71.67,1.36,107.51.89q15.38-.21,30.76-.61a.5.5,0,0,0,0-1l-36.9-2.76c-5.25-.39-10.71-.47-15.8-2a15.62,15.62,0,0,1-6.48-3.52c-1.66-1.56-2.73-2.58-5.12-2.71-6.15-.32-12.5.42-18.67.51q-9,.12-17.94,0c-6.23-.12-12.74.12-18.93-.66-.91-.11-2.65-.38-3.29-1.18-.35-.43-.14-1.9-.16-2.47l-.13-4.46-.29-9.92-1.24-41.66a.5.5,0,0,0-1,0L799.59,577l.26,8.92c.09,3.07-.24,6.54.31,9.56a2.65,2.65,0,0,0,2.45,2.4c2.76.61,6.06.34,8.88.45q19.92.76,39.86.16c2.86-.09,5.86-.48,8.71-.29,3.09.21,4.93,3.3,7.56,4.69,3.94,2.09,8.55,2.61,12.92,3,14.59,1.24,29.22,2.19,43.82,3.28v-1c-35.77.94-71.56,1-107.34.35q-15.46-.28-30.93-.63l.44.75c7.26-13,10.09-27.67,11.24-42.4,1.27-16.33,1.41-32.78,2-49.14,0-.65-1-.64-1,0Z" transform="translate(-780.72 -470.99)"/></g><path class="cls-7" d="M922,472.53c-.43-.22-.11-.38-.16,0a4.32,4.32,0,0,0,.14.8c.16,1,.22,2.09.3,3.14.28,3.49.46,7,.63,10.5.53,11,.88,22,1.19,33,.7,24.3,1.29,48.63,1.16,72.94,0,3.61-.05,7.22-.18,10.83a32.83,32.83,0,0,1-.39,4.88c0-.16.52-.14.11-.17l-.68.06c-.93.07-1.86.09-2.79.12-3.31.11-6.63.14-9.95.17-23.84.24-47.68.06-71.52-.06q-17.4-.1-34.81-.23l-12.31-.09a60.29,60.29,0,0,0-6.72-.06,6.61,6.61,0,0,1-.89,0l.75.75c-2.08-24.72-2.68-49.6-3.21-74.39-.26-12.33-.43-24.66-.38-37,0-7-.37-14.42.76-21.36,0-.31.12-.61.17-.92s.18-.32,0-.16.65-.09.92-.12c2-.25,3.93-.31,5.89-.41,7.65-.38,15.31-.58,23-.78,21.82-.57,43.64-.93,65.47-1.21,14.29-.18,28.7-.78,43-.23a6.9,6.9,0,0,0,.76.05.75.75,0,0,0,.4-1.45,12.55,12.55,0,0,0-3.24-.14c-2.57,0-5.15,0-7.73,0q-13,0-26,.2-33.5.39-67,1.16c-8.51.2-17,.42-25.53.78-2.52.11-5,.21-7.55.41-.9.07-2.53-.06-3.28.56-1,.84-.89,3.25-1,4.39-.28,3.43-.35,6.88-.42,10.31-.23,11.31-.11,22.64.06,33.95.39,26.42,1.08,52.89,2.88,79.25.16,2.37.34,4.75.54,7.12a.78.78,0,0,0,.75.75q23.59.2,47.19.33c25.13.15,50.27.32,75.4.14,3.84,0,7.67-.06,11.5-.14,1.78,0,4.17.27,5.9-.29,1.19-.37,1.14-1.47,1.25-2.6.27-2.81.28-5.67.33-8.49.39-23.75-.27-47.53-.89-71.26-.31-12-.67-23.93-1.19-35.89-.18-4.15-.37-8.3-.64-12.45a41.48,41.48,0,0,0-.63-6.77c-.1-.43-.15-1-.59-1.22C921.86,470.79,921.1,472.08,922,472.53Z" transform="translate(-780.72 -470.99)"/><path class="cls-7" d="M810.39,495.91c-1.29,1.18-.78,5.47-.83,7-.17,5.7-.16,11.41-.13,17.12q.14,23,1,46c.27,7.25.59,14.5,1.13,21.74a.76.76,0,0,0,.75.75q27.93.27,55.85.36c8.93,0,17.9.21,26.83-.19,1.42-.07,2.44,0,2.71-1.53a49.2,49.2,0,0,0,.28-7.87c.23-23-.36-46-1.18-68.89-.15-3.94-.29-7.87-.54-11.8-.06-1,.21-3.92-.82-4.63-.42-.29-1.32-.17-1.79-.18-1.35,0-2.7,0-4,0-4.52,0-9,.05-13.57.1q-18.67.22-37.34.66c-8.75.22-17.65.12-26.37,1a4.44,4.44,0,0,0-1.81.33.75.75,0,0,0,.76,1.3c.93-.55,4.37-.36,5.8-.43,4.52-.22,9-.36,13.56-.49q18.11-.51,36.22-.75c8.74-.13,17.5-.33,26.25-.21l1.72.05c-.89,0-.17-.7-.34,0a3.62,3.62,0,0,0,.12,1.08c.29,3.09.38,6.19.51,9.29q1.4,33.41,1.39,66.89c0,3.78,0,7.56-.1,11.33a20.08,20.08,0,0,0-.17,3.09c0,.17-.1.28-.09.49,0-.79.71-.14.11-.35a11,11,0,0,0-3,.13c-1.61,0-3.21.06-4.82.08-4.82.06-9.65.06-14.47.06-20.15,0-40.3-.16-60.45-.35h-1.23l.75.75c-1-13.47-1.38-27-1.72-40.51s-.62-27.29-.39-40.93c0-2.2.09-4.41.22-6.61,0-.68.1-1.35.17-2,0-.33.29-.84.08-.65C812.16,496.31,811.1,495.26,810.39,495.91Z" transform="translate(-780.72 -470.99)"/></svg>