<svg id="Calque_1" data-name="Calque 1" xmlns="http://www.w3.org/2000/svg" viewBox="0 0 92.68 70.44"><defs><style>.cls-1{fill:#fff;}.cls-2{fill:#1d1d1b;}.cls-3{fill:#706f6f;}.cls-4{opacity:0.37;}.cls-5{opacity:0.17;}.cls-6{opacity:0.41;}</style></defs><title>33</title><path class="cls-1" d="M808.1,576l90.34,0c.54-23.08,1.13-45.57-1.12-68.55-30.5-1.79-58.08.79-88.62-.17C807.54,507.25,806.78,560.38,808.1,576Z" transform="translate(-807.03 -506.07)"/><path class="cls-2" d="M808.1,576.41l66.94,0h23.4a.39.39,0,0,0,.38-.38c.53-22.86,1.07-45.75-1.12-68.55a.38.38,0,0,0-.38-.37c-16.17-.93-32.37-.66-48.56-.31-8,.17-15.92.34-23.88.36-4.07,0-8.14,0-12.21-.12-1.11,0-3.62-.72-4.4.23s-.44,3.32-.5,4.28c-.21,3.31-.31,6.62-.41,9.93-.26,9.23-.35,18.46-.33,27.68,0,9,0,18,.69,26.91,0,.48.79.48.75,0-1.34-16.42-.82-33.15-.48-49.6.13-5.9-.07-12.06.78-17.92.2-1.36.34-.91,1.92-.8,4.21.29,8.51.16,12.74.16,7.65,0,15.31-.15,23-.31,15.33-.33,30.66-.68,46,0a17.29,17.29,0,0,1,3,.15c1.53.34,1.38.19,1.79,1.7a32.15,32.15,0,0,1,.48,5.89q.42,5.87.64,11.74c.3,8.13.36,16.27.28,24.4,0,3.59-.09,7.18-.16,10.77l-.12,5.89c0,1,0,2-.07,3s.34,3.11-.09,3.94-.22.62-1.17.62H885.08l-31.18,0H808.1A.38.38,0,0,0,808.1,576.41Z" transform="translate(-807.03 -506.07)"/><path class="cls-2" d="M808.52,576l66.94,0h23.4a.37.37,0,0,0,.37-.37c.54-22.86,1.08-45.76-1.11-68.55a.4.4,0,0,0-.38-.38c-16.18-.92-32.37-.65-48.56-.3-8,.17-15.92.34-23.88.35q-6.1,0-12.21-.11c-1.11,0-3.62-.72-4.4.22s-.44,3.32-.5,4.29c-.21,3.3-.31,6.62-.41,9.93-.26,9.22-.35,18.45-.33,27.68,0,9,0,18,.69,26.91,0,.47.79.48.75,0-1.35-16.43-.83-33.15-.48-49.61.12-5.9-.07-12.06.78-17.91.2-1.36.34-.92,1.92-.81,4.21.3,8.51.16,12.74.17,7.65,0,15.31-.15,23-.31,15.33-.33,30.66-.68,46,0a18.36,18.36,0,0,1,3,.14c1.53.35,1.38.2,1.79,1.71a32,32,0,0,1,.48,5.89q.42,5.87.63,11.74c.31,8.13.36,16.26.29,24.4,0,3.59-.09,7.17-.16,10.76l-.12,5.9c0,1,0,2-.07,3s.33,3.12-.09,3.95-.22.61-1.17.62h-43l-45.79,0A.38.38,0,0,0,808.52,576Z" transform="translate(-807.03 -506.07)"/><path class="cls-2" d="M839.94,507c1.62,22.59-.4,45.21.12,67.82,0,.64,1,.64,1,0-.52-22.61,1.5-45.23-.12-67.82,0-.64-1-.65-1,0Z" transform="translate(-807.03 -506.07)"/><path class="cls-2" d="M880.24,507.58l-.37,67.49a.5.5,0,0,0,1,0l.37-67.49a.5.5,0,0,0-1,0Z" transform="translate(-807.03 -506.07)"/><path class="cls-3" d="M844.27,574.76q-.18-6.74.19-13.46,14.87-.66,29.77-.42c.85,0,1.86.11,2.23.67a1.37,1.37,0,0,1,.13.87l-1,12.78" transform="translate(-807.03 -506.07)"/><path class="cls-2" d="M844.77,574.76c-.06-2.41-.08-4.81,0-7.21q0-1.68.09-3.36c.06-1.75-.16-2.17,1.62-2.47a50.16,50.16,0,0,1,6.94-.24c2.31-.06,4.63-.1,6.94-.13,4.61-.06,9.3-.25,13.9,0,2.89.18,1.64,3.87,1.48,6l-.61,7.86c0,.65,1,.64,1,0l.54-6.88c.13-1.73.88-4.66.46-6.35-.55-2.17-3.67-1.6-5.35-1.62q-13.65-.17-27.29.45a.52.52,0,0,0-.5.5q-.35,6.74-.19,13.46c0,.64,1,.64,1,0Z" transform="translate(-807.03 -506.07)"/><path class="cls-2" d="M832.94,508.19q.16,14.85-.34,29.69l.85-.36c-.82-1-1.66-1.94-2.48-2.92a7.67,7.67,0,0,1-2.08-5.51c.05-2.75.13-5.5.19-8.25l.17-7.76c0-1.21-.38-3.29.1-4.37.34-.77.86-.73,1.83-.79.8-.05,1.66,0,2.46.05a.5.5,0,0,0,0-1c-1.45,0-4.58-.88-5.24.87-.53,1.38-.12,3.78-.15,5.24l-.14,6.31c-.08,3.77-.57,7.79-.2,11.54.29,2.94,3,5.17,4.84,7.3.29.35.84,0,.85-.35q.51-14.85.34-29.69a.5.5,0,0,0-1,0Z" transform="translate(-807.03 -506.07)"/><path class="cls-2" d="M824.6,507.58a321.23,321.23,0,0,1,1.09,33.84l.85-.35-6.71-6.32c-1.18-1.1-2.77-2.13-3-3.83-.23-1.44.22-3.34.29-4.82a138.63,138.63,0,0,0-.5-18.34c-.06-.63-1.06-.64-1,0a136.82,136.82,0,0,1,.34,21.23c-.19,3-.07,3.39,2.14,5.47l7.77,7.31a.51.51,0,0,0,.86-.35,321.23,321.23,0,0,0-1.09-33.84c-.05-.63-1.05-.64-1,0Z" transform="translate(-807.03 -506.07)"/><path class="cls-2" d="M815.27,507.34a1.8,1.8,0,0,0-.69,1.65c0,1.71.57,3.52.72,5.24a77.51,77.51,0,0,1-.09,11.9c-.2,2.91-1.05,5.42,1.13,7.64,2.85,2.89,5.76,5.71,8.64,8.57a.5.5,0,0,0,.78-.6c-2.13-3.78-6.11-6.42-9.33-9.2-.49-.42-1.2.28-.71.7,3.13,2.7,7.12,5.34,9.18,9l.78-.61-6.56-6.51c-1.44-1.43-2.89-2.56-3.23-4.71-.22-1.41.26-3.31.35-4.76.19-2.85.31-5.72.22-8.58-.05-1.58-.16-3.16-.36-4.73-.11-.91-1-3.58-.13-4.3.5-.41-.21-1.11-.7-.7Z" transform="translate(-807.03 -506.07)"/><path class="cls-2" d="M827.51,554.31,827,575h1l.42-21.27a.53.53,0,0,0-.37-.48,22.47,22.47,0,0,1-4.17-2.28c-.35-.24-.72.09-.76.43-.45,4-.76,7.91-.9,11.89,0,.9.16,11.4,0,11.43s-.16-10.32-.12-11.14c.16-4.21.55-8.4,1.1-12.58l-1,.13c.58,3.92-.44,8.21-.6,12.15s-.11,7.59.08,11.38l1-.13a3.71,3.71,0,0,1-.2-3,.5.5,0,0,0-1-.27,5.12,5.12,0,0,0,.2,3.51c.19.49,1,.48,1-.13-.21-4.11-.24-8.22,0-12.32.18-3.77,1.08-7.73.52-11.47-.09-.61-.92-.37-1,.13a138.22,138.22,0,0,0-1.05,24.23.5.5,0,0,0,.5.5l1.14,0a.51.51,0,0,0,.5-.5,151.47,151.47,0,0,1,.82-23.81l-.75.43c1.21.83,3.58,1.39,4,2.87a12.8,12.8,0,0,1-.07,3.38l-.07,3.39L827,575c0,.64,1,.64,1,0l.5-20.68a.5.5,0,0,0-1,0Z" transform="translate(-807.03 -506.07)"/><path class="cls-2" d="M823.2,551.57a27.77,27.77,0,0,0,4.35,2.54c.58.27,1.09-.59.51-.86a28.33,28.33,0,0,1-4.36-2.54c-.52-.37-1,.49-.5.86Z" transform="translate(-807.03 -506.07)"/><path class="cls-2" d="M836.26,561.48c-1.32,4.34-1.45,8.8-1.51,13.3a.5.5,0,0,0,1,0c0-4.41.18-8.78,1.47-13,.19-.62-.77-.88-1-.27Z" transform="translate(-807.03 -506.07)"/><path class="cls-2" d="M837.35,561.61c-.33.31-.31.57,0,.77l.83.89c.3.31,1.14.94,1.2,1.31s-.44-.34-.77-.58a10.28,10.28,0,0,0-1.53-.91.51.51,0,0,0-.75.43c-.18,1.92-.33,3.83-.44,5.75-.06,1-.11,1.92-.14,2.88,0,.49-.22,1.83.05,1.73s.66-4.91.73-5.49a43.33,43.33,0,0,1,1.08-6.31l-.92.12,1.9,2.53.79-.61a1.8,1.8,0,0,0-1.07-.76c-.52-.22-.89.66-.39.91a5.21,5.21,0,0,1,2.34,2.14l.69-.69c-2.59-1.89-2,8.54-2,9.65,0,.64,1,.64,1,0l.17-4.7c0-.54.39-4,.33-4.08.42.3.93-.28.69-.69a6.14,6.14,0,0,0-2.7-2.49l-.39.91.63.51c.36.44,1.13-.15.79-.6l-1.9-2.53a.51.51,0,0,0-.92.12c-1,3.44-1.18,7.15-1.65,10.69-.17,1.24-.61,3.35,1.3,3a.51.51,0,0,0,.37-.48q.13-5.78.67-11.51l-.75.44a9.33,9.33,0,0,1,2.54,1.87.51.51,0,0,0,.7,0l.72-.8a.49.49,0,0,0,0-.7c-1-1-2.07-3-3.46-3.34a.48.48,0,0,0-.48.13l-.19.19a.5.5,0,0,0-.07.6l.1.2c.29.57,1.15.07.86-.5Z" transform="translate(-807.03 -506.07)"/><path class="cls-2" d="M808.87,563.35c.2-1.32.46-3.23,1.39-4.25a2.74,2.74,0,0,1,2.55-.54c.14,0,.21.28.37.31a6.1,6.1,0,0,0,1.19.13c.2,0,.57-.51.65-.5,1.65.19,3,5.91,3.36,7.31a24.71,24.71,0,0,1,.35,9.11c-.09.63.87.9,1,.27a25.86,25.86,0,0,0-.79-11.3c-.66-2.13-1.68-6.11-4.28-6.44a.5.5,0,0,0-.48.37c-.07.4-1.73-1-1.95-1a1.9,1.9,0,0,0-1.58.32c-1.75,1.1-2.43,4.12-2.71,6-.09.63.87.9,1,.26Z" transform="translate(-807.03 -506.07)"/><path class="cls-2" d="M816,557.8a237.92,237.92,0,0,1-5.36-35.73c0-.63-1-.65-1,0,.17,12.25-.47,24.47-1.14,36.69,0,.65,1,.65,1,0,.67-12.22,1.31-24.44,1.14-36.69h-1a240.42,240.42,0,0,0,5.4,36c.14.63,1.11.36,1-.27Z" transform="translate(-807.03 -506.07)"/><path class="cls-2" d="M810.57,522.4a1.45,1.45,0,0,1,1.36.43c.45.46,1.16-.25.71-.71a2.47,2.47,0,0,0-2.34-.68c-.62.14-.36,1.1.27,1Z" transform="translate(-807.03 -506.07)"/><path class="cls-2" d="M832.54,564.59c-1.55.07-2,1.77-2.46,3a16.51,16.51,0,0,0-.68,7.58c.08.63,1.08.64,1,0a16.29,16.29,0,0,1,0-4.88c.17-1,.81-4.67,2.12-4.73.64,0,.64-1,0-1Z" transform="translate(-807.03 -506.07)"/><path class="cls-2" d="M832.29,565.3c1.6,3.16,1.38,6.66,1.09,10.09,0,.64,1,.63,1,0,.3-3.64.46-7.26-1.23-10.6-.29-.57-1.15-.07-.86.51Z" transform="translate(-807.03 -506.07)"/><path class="cls-2" d="M830.4,568.61a162.18,162.18,0,0,1,.1-21.6l-1,.13L832.35,565c.1.63,1.07.36,1-.27l-2.84-17.89c-.09-.58-.94-.39-1,.14a162.18,162.18,0,0,0-.1,21.6c0,.64,1,.64,1,0Z" transform="translate(-807.03 -506.07)"/><path class="cls-2" d="M830.38,547.24a2.38,2.38,0,0,1,1.12-.12c.63.09.91-.88.27-1a3.6,3.6,0,0,0-1.66.12c-.61.2-.34,1.16.27,1Z" transform="translate(-807.03 -506.07)"/><path class="cls-2" d="M880.86,551.39a46.79,46.79,0,0,1,4.67-3.36l-.74-.56a135.07,135.07,0,0,0-.9,27.92l.93-.25c-1.1-1.7-.32-4.87-.24-6.81l.28-6.79.55-13.58a.5.5,0,0,0-.75-.43,21.13,21.13,0,0,0-4.16,2.91c-.48.43.23,1.14.71.71a20,20,0,0,1,3.95-2.75l-.75-.44-.63,15.52-.32,7.75c-.06,1.52-.37,3.08.49,4.41.25.39,1,.27.94-.25a133.85,133.85,0,0,1,.87-27.65c0-.4-.33-.83-.74-.57a49.12,49.12,0,0,0-4.86,3.51c-.5.41.21,1.11.7.71Z" transform="translate(-807.03 -506.07)"/><path class="cls-2" d="M881.45,540.29a245.88,245.88,0,0,0,16.84-26.1.5.5,0,0,0-.87-.5,244.23,244.23,0,0,1-16.83,26.1c-.38.51.49,1,.86.5Z" transform="translate(-807.03 -506.07)"/><path class="cls-2" d="M896.4,506.92q-8.53,13.06-16,26.78c-.31.56.55,1.07.86.5q7.46-13.71,16-26.78c.35-.54-.51-1-.86-.5Z" transform="translate(-807.03 -506.07)"/><path class="cls-2" d="M841.69,507.85c-.71,5.31,1.77,10.49,5.34,14.31s8.69,5,13.69,4.27c9.5-1.31,21.45-8.48,19.86-19.53,0-.31-.52-.18-.48.14,1.51,10.49-9.71,17.19-18.63,18.77-5.28.93-10.68-.22-14.37-4.32-3.33-3.7-5.58-8.6-4.91-13.64,0-.32-.46-.31-.5,0Z" transform="translate(-807.03 -506.07)"/><path class="cls-2" d="M850.87,524.88c2.45,15.1,30.62,7.32,25.33-6.15-.11-.3-.6-.17-.48.13,5,12.81-22,20.4-24.37,5.88-.05-.31-.53-.18-.48.14Z" transform="translate(-807.03 -506.07)"/><path class="cls-2" d="M850.5,524.52a10.63,10.63,0,1,0,19.8,7c.07-.31-.41-.44-.48-.13-1.21,5.72-6.88,9.72-12.68,8a10.27,10.27,0,0,1-6.21-14.62c.14-.28-.29-.54-.43-.25Z" transform="translate(-807.03 -506.07)"/><path class="cls-2" d="M855.89,539.31a8.68,8.68,0,0,0,5.27,6.34c3,1.18,6,.27,8.82-1,6.67-3,8.82-10.59,4.37-16.5a.26.26,0,0,0-.28-.12l-.83.18c-.32.07-.19.55.13.48,2.58-.55,3,6.14,2.79,7.65a9.92,9.92,0,0,1-5.66,7.52c-2.56,1.26-5.63,2.34-8.49,1.54a8.23,8.23,0,0,1-5.64-6.26c-.06-.31-.55-.18-.48.14Z" transform="translate(-807.03 -506.07)"/><path class="cls-2" d="M852.39,537.24c-4.38,4.26-1.8,13,3.51,15.26,5.48,2.29,13.41-1.08,13.47-7.56a.25.25,0,0,0-.5,0c-.06,6.15-7.65,9.22-12.76,7.08-5-2.07-7.5-10.4-3.37-14.43.23-.22-.12-.57-.35-.35Z" transform="translate(-807.03 -506.07)"/><path class="cls-2" d="M860.85,553c1.79,4.29,8.63,4.39,12.15,2.38a8.06,8.06,0,0,0,4-5.7c.48-3-.86-5.38-2.57-7.75a.25.25,0,0,0-.43,0l-.28.55c-.15.29.28.54.43.26s1.14,1.31,1.28,1.55a8.5,8.5,0,0,1,1.17,3.73,7.52,7.52,0,0,1-3,6.34c-3.1,2.37-10.47,2.78-12.26-1.49-.12-.29-.6-.16-.48.13Z" transform="translate(-807.03 -506.07)"/><g class="cls-4"><path class="cls-2" d="M837.56,561.84A67,67,0,0,0,837,549a22.39,22.39,0,0,0-5.3-11.51,33.31,33.31,0,0,0-4.94-4.07,11.44,11.44,0,0,1-.64,8.29L816.26,534a3.3,3.3,0,0,1-1-1.13,2.93,2.93,0,0,1-.17-1.35c.18-3.14,1.56-6.41.33-9.3a7.66,7.66,0,0,0-1.68-2.36,9.12,9.12,0,0,0-4.94-2.62,31.18,31.18,0,0,1,.43-10.06,134,134,0,0,0,13.6.45l15.6,0a2.23,2.23,0,0,1,1.2.23,2.13,2.13,0,0,1,.75,1.48,56.36,56.36,0,0,1,.64,11.32c-.23,17.77-.62,35.54-1.55,53.28a17.24,17.24,0,0,0-1.84-11.4" transform="translate(-807.03 -506.07)"/><path class="cls-2" d="M838.06,561.84c.1-5.91.2-12-1.84-17.63-1.78-4.93-5.07-8.2-9.23-11.21-.37-.27-.84.17-.74.56a11.48,11.48,0,0,1-.59,7.91l.78-.1-5.29-4.16c-1.93-1.51-5-3.13-5.6-5.69-.38-1.72.75-4.21.82-6a7.68,7.68,0,0,0-.88-4.18,9.64,9.64,0,0,0-2.78-2.94c-1.74-1.24-3.52-1-3.64-3.43,0-1.07,0-2.15,0-3.22,0-.78-.07-3,.4-3.51.93-1.06,5.6-.16,7-.13,4.54.09,9.09,0,13.63,0l6.82,0a2.75,2.75,0,0,1,3.11,2.28,17.41,17.41,0,0,1,.39,4.09c.46,9.25-.11,18.63-.33,27.88-.25,10.52-.61,21-1.16,31.56,0,.55.9.7,1,.13a18.69,18.69,0,0,0-1.9-11.79c-.3-.57-1.16-.06-.86.51a17.47,17.47,0,0,1,1.79,11l1,.13c.91-17.58,1.31-35.18,1.54-52.78,0-3.87.38-8.17-.64-11.95-.74-2.69-3-2.08-5.37-2.07-8.73,0-17.57.41-26.27-.42a.52.52,0,0,0-.49.37,34.48,34.48,0,0,0-.44,10.19.51.51,0,0,0,.37.48c3.36.7,6.6,3.29,6.75,6.94.11,2.5-1.23,5.15-.81,7.62.32,1.92,2.59,3.06,4,4.15l7.18,5.64c.22.18.64.23.78-.1a12.71,12.71,0,0,0,.7-8.67l-.74.56c4.45,3.22,7.7,6.77,9.28,12.15,1.5,5.12,1.39,10.54,1.3,15.83a.5.5,0,0,0,1,0Z" transform="translate(-807.03 -506.07)"/></g><g class="cls-4"><path class="cls-2" d="M896.64,507.79l-12.95,21c-.26.43-.53,1-.29,1.41a1.27,1.27,0,0,0,1.09.5,6.6,6.6,0,0,0,4.76-1.95,19.6,19.6,0,0,0,3.17-4.22c.75,2.94-1.4,5.73-3.18,8.19a45.14,45.14,0,0,0-7.46,16.69c.64.1,1.15-.63,1.8-.66,1-.05,1.27,1.27,1.24,2.24l-.62,21.79a4.85,4.85,0,0,1-.43,2.27,1.71,1.71,0,0,1-1.93.92c-.94-.34-1.11-1.58-1.12-2.58q-.24-28,.52-56a60.2,60.2,0,0,0-.25-9.78q7.68-.22,15.37.12" transform="translate(-807.03 -506.07)"/><path class="cls-2" d="M896.21,507.54,889,519.29l-3.11,5c-.86,1.39-2.7,3.37-3,5-.33,2,1.88,2,3.24,1.69,3.2-.73,5.13-3.67,6.75-6.27l-.92-.12c.52,3.08-1.47,5.46-3.13,7.81a48,48,0,0,0-3.24,5.2,46.81,46.81,0,0,0-4.27,11.61.51.51,0,0,0,.61.62c3.1-.63,2.35,3.14,2.3,5l-.2,6.93-.2,6.94c0,1,0,2-.08,3a17.64,17.64,0,0,1-.17,2.41q-2.67,1.49-2.34-.81c-.51-8.78-.07-17.74,0-26.54s.22-17.68.45-26.53c.06-2.28.15-4.57.15-6.86,0-1.14,0-2.29-.09-3.43-.11-1.57-.36-1.7,1.18-2a37.81,37.81,0,0,1,6.73,0c2.24,0,4.48.09,6.72.19a.5.5,0,0,0,0-1q-7.68-.33-15.37-.12a.51.51,0,0,0-.5.5c.62,5.19.23,10.46.11,15.67s-.22,10.48-.29,15.72q-.21,15.72-.11,31.45c0,1.58-.63,6.44,2.33,6.07,3.23-.41,2.25-6.68,2.31-8.68.15-5.28.38-10.57.45-15.85,0-1.06.21-2.76-.86-3.46s-1.8.21-2.78.41l.61.62a45.79,45.79,0,0,1,5.94-14.4c2.12-3.34,5.42-6.49,4.71-10.76-.08-.44-.71-.45-.92-.12-1.27,2-4.22,7-7,5.3-1.2-.73-.7-.79-.08-1.78l1-1.68,2.33-3.78L897.07,508c.34-.55-.53-1.05-.86-.5Z" transform="translate(-807.03 -506.07)"/></g><g class="cls-5"><path class="cls-2" d="M840.88,507.91c.13,0,.08-.24,0-.21s-.18.2-.19.34a42.53,42.53,0,0,0,0,7.57,15.51,15.51,0,0,0,.71,3.83c.83,2.39,2.59,4.37,3.5,6.73,1.05,2.72.9,5.73.74,8.63L843.3,575a.87.87,0,0,1-1.32.13,2.37,2.37,0,0,1-.61-1.37c-1-5.17-.56-10.5-.3-15.76.58-11.92.13-23.85-.33-35.77" transform="translate(-807.03 -506.07)"/><path class="cls-2" d="M841.31,508.16l.07-.1a.5.5,0,0,0-.08-.61l-.12-.1a.51.51,0,0,0-.79.1c-.78,1.43-.46,3.74-.44,5.32a24.73,24.73,0,0,0,.64,6.06,23.46,23.46,0,0,0,2.65,5.33,15.15,15.15,0,0,1,1.91,8c-.11,10.33-1.12,20.73-1.69,31.05l-.44,7.84c0,.74.4,4.1-1.17,2.55-.68-.68-.48-3.43-.54-4.47-.29-5,.26-10.1.41-15.14.33-10.6-.08-21.2-.48-31.79,0-.64-1-.65-1,0,.35,9.27.71,18.54.57,27.82-.06,4.52-.36,9-.52,13.53a58.14,58.14,0,0,0,.05,6.05c.11,1.54.1,3.65.77,5.07.51,1.08,2.08,1.76,2.68.37a11.06,11.06,0,0,0,.17-3l.2-3.43.38-6.86c.51-9.13,1.06-18.25,1.53-27.38.22-4.29-.2-7.72-2.4-11.44a16.66,16.66,0,0,1-2.54-6.93c-.13-1.23-.17-2.47-.18-3.7s-.29-3.26.31-4.35l-.79.11,0-.4c-.38.52.49,1,.86.5Z" transform="translate(-807.03 -506.07)"/></g><g class="cls-5"><path class="cls-2" d="M880.39,513.38c-3.16,7.72-3.29,16.31-3.37,24.65l-.1,10.18c-.08,8.5-.17,17,.84,25.48.1.81.43,1.83,1.24,1.86s1.25-1.17,1.28-2.07c.41-10.65-.31-21.31.08-32,.33-9,1.45-18.12,0-27" transform="translate(-807.03 -506.07)"/><path class="cls-2" d="M879.91,513.25c-3.12,7.9-3.31,16.4-3.39,24.78-.1,9.27-.39,18.58.09,27.84.12,2.28.29,4.57.54,6.84.11.95.13,2.42,1,3,1.65,1.15,2.45-1,2.6-2.27.54-4.58.14-9.44.07-14s-.16-9.36-.09-14c.15-10.35,1.66-20.73,0-31-.1-.64-1.07-.37-1,.26,1.6,10.21.07,20.52-.08,30.77-.08,5.16,0,10.33.11,15.49,0,2.59,0,5.17,0,7.75a16.12,16.12,0,0,1-.08,3.87c.25,1-.23,1.59-1.44,1.67-.12-.65-.21-1.3-.27-2-1.13-9.94-.72-20-.62-30,.09-9.64-.2-19.55,3.4-28.68.23-.59-.73-.85-1-.26Z" transform="translate(-807.03 -506.07)"/></g><path class="cls-2" d="M845.9,508.5a.61.61,0,0,0-1.07.33c-.12.9,1.23.84,1.38,1.53a.25.25,0,0,0,.45.06,2.82,2.82,0,0,0,.49-1.42c0-.37,0-1-.34-1.22a.63.63,0,0,0-.81.08,1.1,1.1,0,0,0-.09,1.17c.1.31.59.18.48-.13s-.17-1,.17-.6a1.18,1.18,0,0,1,.09.62,2.26,2.26,0,0,1-.42,1.25l.46.06a1.11,1.11,0,0,0-.5-.68l-.45-.24a.84.84,0,0,1-.24-.16c-.09-.11,0-.36,0-.4.19.26.62,0,.44-.25Z" transform="translate(-807.03 -506.07)"/><path class="cls-2" d="M850.17,509.61a1.16,1.16,0,0,0-.15,1.79,2.09,2.09,0,0,0,.94.7c.39.06.51-.29.58-.6.14-.57.51-2.11-.26-2.41s-1,1.09-.9,1.59a.25.25,0,0,0,.48-.13,1,1,0,0,1,0-.62c0-.22.13-.29.33-.23l0,.18a3.12,3.12,0,0,1-.13,1.39c-.05.21,0,.26-.17.25s-.33-.26-.43-.36c-.28-.29-.52-.85-.06-1.12a.25.25,0,0,0-.25-.43Z" transform="translate(-807.03 -506.07)"/><path class="cls-2" d="M847.6,512.84a1,1,0,0,0-1.16,1.16c.13.88,1,1.24,1.79,1.43a.26.26,0,0,0,.3-.18,3.12,3.12,0,0,0-.21-2.55.25.25,0,0,0-.39-.05,1.86,1.86,0,0,0-.44,1.7c.07.32.55.19.48-.13a1.36,1.36,0,0,1,.31-1.22l-.39,0a2.69,2.69,0,0,1,.16,2.17l.31-.18a2.45,2.45,0,0,1-1.11-.47c-.32-.3-.53-1.27.22-1.15.31,0,.45-.43.13-.48Z" transform="translate(-807.03 -506.07)"/><path class="cls-2" d="M844.24,511.15a1,1,0,0,0-1.16,1.16c.13.88,1,1.24,1.79,1.42a.24.24,0,0,0,.3-.17A3.12,3.12,0,0,0,845,511a.25.25,0,0,0-.39-.05,1.86,1.86,0,0,0-.44,1.7c.07.32.55.18.48-.13a1.36,1.36,0,0,1,.31-1.22l-.39-.05a2.69,2.69,0,0,1,.16,2.17l.31-.18a2.36,2.36,0,0,1-1.11-.48c-.32-.29-.53-1.26.22-1.14.31.05.45-.43.13-.48Z" transform="translate(-807.03 -506.07)"/><path class="cls-2" d="M853.76,507.67a.6.6,0,0,0-1.06.32c-.12.91,1.22.85,1.37,1.54a.26.26,0,0,0,.46.06,2.71,2.71,0,0,0,.48-1.42,1.59,1.59,0,0,0-.33-1.22.62.62,0,0,0-.81.08,1.08,1.08,0,0,0-.09,1.17c.1.31.58.18.48-.13s-.18-1,.17-.6a1.28,1.28,0,0,1,.08.62,2.33,2.33,0,0,1-.41,1.25l.45.06a1,1,0,0,0-.5-.68c-.14-.09-.3-.16-.45-.24a1,1,0,0,1-.24-.16c-.08-.11,0-.36,0-.4.18.26.62,0,.43-.25Z" transform="translate(-807.03 -506.07)"/><path class="cls-2" d="M858,508.78a1.16,1.16,0,0,0-.14,1.79,2.16,2.16,0,0,0,.94.7c.38.06.5-.29.58-.6.13-.57.5-2.11-.27-2.41s-1,1.09-.9,1.59a.25.25,0,0,0,.48-.13,1.13,1.13,0,0,1,0-.63c0-.21.12-.28.32-.22l0,.18a3.12,3.12,0,0,1-.13,1.39c0,.21,0,.26-.16.25s-.34-.26-.43-.36c-.28-.29-.53-.85-.07-1.12a.25.25,0,0,0-.25-.43Z" transform="translate(-807.03 -506.07)"/><path class="cls-2" d="M855.47,512a1,1,0,0,0-1.16,1.16c.13.88,1,1.24,1.78,1.42a.25.25,0,0,0,.31-.17,3.2,3.2,0,0,0-.21-2.55.25.25,0,0,0-.39-.05,1.89,1.89,0,0,0-.45,1.7c.07.32.55.18.49-.13a1.36,1.36,0,0,1,.31-1.22l-.39,0a2.69,2.69,0,0,1,.16,2.17l.3-.18a2.36,2.36,0,0,1-1.11-.48c-.32-.29-.53-1.26.22-1.14.32,0,.45-.43.14-.48Z" transform="translate(-807.03 -506.07)"/><path class="cls-2" d="M862,508a.61.61,0,0,0-1.07.32c-.12.9,1.23.84,1.38,1.54a.25.25,0,0,0,.45.06,2.82,2.82,0,0,0,.49-1.42c0-.37,0-1-.34-1.22a.62.62,0,0,0-.81.08,1.1,1.1,0,0,0-.09,1.17c.1.3.59.17.48-.13s-.17-1,.17-.6a1.18,1.18,0,0,1,.09.62,2.2,2.2,0,0,1-.42,1.24l.46.06a1.09,1.09,0,0,0-.5-.67c-.15-.09-.31-.16-.45-.24a.84.84,0,0,1-.24-.16c-.09-.11,0-.36,0-.4.19.26.62,0,.44-.25Z" transform="translate(-807.03 -506.07)"/><path class="cls-2" d="M866.24,509.1a1.16,1.16,0,0,0-.15,1.79,2.06,2.06,0,0,0,.94.69c.39.07.51-.28.58-.59.14-.57.51-2.12-.26-2.42s-1,1.1-.9,1.6a.25.25,0,0,0,.48-.13,1,1,0,0,1,0-.63c0-.21.13-.28.33-.22l0,.18a3.12,3.12,0,0,1-.13,1.39c0,.21,0,.26-.17.24s-.33-.26-.43-.35c-.28-.3-.52-.85-.06-1.12.28-.17,0-.6-.25-.43Z" transform="translate(-807.03 -506.07)"/><path class="cls-2" d="M863.67,512.32a1,1,0,0,0-1.16,1.17c.13.88,1,1.24,1.79,1.42a.24.24,0,0,0,.3-.17,3.12,3.12,0,0,0-.21-2.55.25.25,0,0,0-.39-.05,1.86,1.86,0,0,0-.44,1.7c.07.32.55.18.48-.13a1.36,1.36,0,0,1,.31-1.22l-.39,0a2.67,2.67,0,0,1,.16,2.16l.31-.17a2.55,2.55,0,0,1-1.12-.48c-.31-.29-.52-1.26.23-1.14.31.05.45-.43.13-.49Z" transform="translate(-807.03 -506.07)"/><path class="cls-2" d="M870.88,508a.6.6,0,0,0-1.06.32c-.12.9,1.22.84,1.37,1.54a.26.26,0,0,0,.46.06,2.71,2.71,0,0,0,.48-1.42,1.55,1.55,0,0,0-.33-1.22.61.61,0,0,0-.81.08,1.1,1.1,0,0,0-.09,1.17c.1.3.58.17.48-.13s-.18-1,.17-.6a1.08,1.08,0,0,1,.08.62,2.12,2.12,0,0,1-.41,1.24l.46.06a1.07,1.07,0,0,0-.51-.67c-.14-.09-.3-.16-.45-.24a1.25,1.25,0,0,1-.24-.16c-.08-.11,0-.36,0-.4.19.26.62,0,.43-.25Z" transform="translate(-807.03 -506.07)"/><path class="cls-2" d="M875.15,509.1a1.16,1.16,0,0,0-.14,1.79,2.06,2.06,0,0,0,.94.69c.39.07.5-.28.58-.59.13-.57.51-2.12-.27-2.42s-1,1.1-.9,1.6a.25.25,0,0,0,.49-.13,1,1,0,0,1,0-.63c0-.21.13-.28.32-.22l0,.18a3.27,3.27,0,0,1-.12,1.39c-.05.21,0,.26-.17.24s-.34-.26-.43-.35c-.28-.3-.53-.85-.06-1.12a.25.25,0,0,0-.26-.43Z" transform="translate(-807.03 -506.07)"/><path class="cls-2" d="M872.59,512.32a1,1,0,0,0-1.16,1.17c.13.88,1,1.24,1.78,1.42a.25.25,0,0,0,.31-.17,3.2,3.2,0,0,0-.21-2.55.25.25,0,0,0-.39-.05,1.86,1.86,0,0,0-.44,1.7c.06.32.55.18.48-.13a1.36,1.36,0,0,1,.31-1.22l-.39,0a2.67,2.67,0,0,1,.16,2.16l.31-.17a2.55,2.55,0,0,1-1.12-.48c-.32-.29-.52-1.26.23-1.14.31.05.45-.43.13-.49Z" transform="translate(-807.03 -506.07)"/><path class="cls-2" d="M858.77,514.79a.6.6,0,0,0-1.06.33c-.12.9,1.22.84,1.37,1.53a.25.25,0,0,0,.46.06,2.66,2.66,0,0,0,.48-1.42,1.55,1.55,0,0,0-.33-1.22.63.63,0,0,0-.81.09,1.1,1.1,0,0,0-.09,1.17c.1.3.58.17.48-.14s-.18-1,.17-.59a1.07,1.07,0,0,1,.08.62,2.17,2.17,0,0,1-.41,1.24l.46.06a1,1,0,0,0-.51-.67c-.14-.1-.3-.16-.45-.25a.72.72,0,0,1-.24-.16c-.08-.1,0-.36,0-.39.19.26.62,0,.43-.26Z" transform="translate(-807.03 -506.07)"/><path class="cls-2" d="M863,515.9a1.16,1.16,0,0,0-.14,1.79,2,2,0,0,0,.94.7c.39.06.5-.29.58-.59.13-.57.51-2.12-.27-2.42s-1,1.09-.9,1.6a.26.26,0,0,0,.49-.14,1,1,0,0,1,0-.62c0-.21.13-.29.32-.22l0,.18a3.28,3.28,0,0,1-.12,1.39c-.05.21,0,.25-.17.24s-.34-.26-.43-.36c-.28-.29-.53-.85-.06-1.12a.25.25,0,0,0-.26-.43Z" transform="translate(-807.03 -506.07)"/><path class="cls-2" d="M860.48,519.13a1,1,0,0,0-1.16,1.17c.13.88,1,1.23,1.78,1.42a.25.25,0,0,0,.31-.18,3.2,3.2,0,0,0-.21-2.55.25.25,0,0,0-.39,0,1.87,1.87,0,0,0-.44,1.71c.06.31.55.18.48-.14a1.33,1.33,0,0,1,.31-1.21l-.39-.06a2.7,2.7,0,0,1,.16,2.17l.31-.17a2.55,2.55,0,0,1-1.12-.48c-.32-.29-.52-1.27.23-1.15.31,0,.45-.43.13-.48Z" transform="translate(-807.03 -506.07)"/><path class="cls-2" d="M858,522.54a1,1,0,0,0-1.16,1.17c.14.88,1,1.23,1.79,1.42a.25.25,0,0,0,.3-.18,3.12,3.12,0,0,0-.21-2.55.25.25,0,0,0-.39,0,1.9,1.9,0,0,0-.44,1.71c.07.31.55.18.48-.14a1.34,1.34,0,0,1,.32-1.21l-.4-.06a2.7,2.7,0,0,1,.16,2.17l.31-.17a2.46,2.46,0,0,1-1.11-.48c-.32-.29-.53-1.27.22-1.15.31.05.45-.43.13-.48Z" transform="translate(-807.03 -506.07)"/><path class="cls-2" d="M864.57,520.09a1,1,0,0,0-1.16,1.16c.13.88,1,1.24,1.78,1.42a.25.25,0,0,0,.31-.17,3.2,3.2,0,0,0-.21-2.55.25.25,0,0,0-.39-.05,1.89,1.89,0,0,0-.45,1.7c.07.32.55.18.49-.13a1.36,1.36,0,0,1,.31-1.22l-.39,0a2.69,2.69,0,0,1,.16,2.17l.3-.18a2.36,2.36,0,0,1-1.11-.48c-.32-.29-.52-1.26.22-1.14.32,0,.45-.43.14-.48Z" transform="translate(-807.03 -506.07)"/><path class="cls-2" d="M852.17,515.75a.6.6,0,0,0-1.06.32c-.13.91,1.22.85,1.37,1.54a.26.26,0,0,0,.46.06,2.9,2.9,0,0,0,.48-1.42,1.55,1.55,0,0,0-.34-1.22.61.61,0,0,0-.8.08,1.1,1.1,0,0,0-.1,1.17c.11.31.59.18.49-.13s-.18-1,.17-.6a1.28,1.28,0,0,1,.08.62,2.26,2.26,0,0,1-.42,1.25l.46.05a1.08,1.08,0,0,0-.5-.67c-.14-.09-.3-.16-.45-.24a1,1,0,0,1-.24-.16c-.09-.11,0-.36,0-.4.18.26.62,0,.43-.25Z" transform="translate(-807.03 -506.07)"/><path class="cls-2" d="M856.44,516.86a1.15,1.15,0,0,0-.14,1.79,2.16,2.16,0,0,0,.94.7c.38.06.5-.29.57-.6.14-.57.51-2.11-.26-2.42s-1,1.1-.9,1.6a.25.25,0,0,0,.48-.13,1.13,1.13,0,0,1,0-.63c0-.21.13-.28.33-.22l0,.18a3.12,3.12,0,0,1-.13,1.39c0,.21,0,.26-.16.25s-.34-.26-.44-.36c-.27-.29-.52-.85-.06-1.12a.25.25,0,0,0-.25-.43Z" transform="translate(-807.03 -506.07)"/><path class="cls-2" d="M848,517.82a1.15,1.15,0,0,0-.14,1.79,1.94,1.94,0,0,0,.93.7c.39.07.51-.28.58-.59.14-.57.51-2.12-.26-2.42s-1,1.09-.9,1.6a.25.25,0,0,0,.48-.13,1.13,1.13,0,0,1,0-.63c0-.21.13-.29.33-.22l0,.18a3.13,3.13,0,0,1-.13,1.39c0,.21,0,.25-.17.24s-.33-.26-.43-.36c-.28-.29-.52-.84-.06-1.11a.25.25,0,0,0-.25-.44Z" transform="translate(-807.03 -506.07)"/><path class="cls-2" d="M853.87,520.09a1,1,0,0,0-1.15,1.16c.13.88,1,1.24,1.78,1.42a.25.25,0,0,0,.31-.17,3.2,3.2,0,0,0-.21-2.55.26.26,0,0,0-.4-.05,1.92,1.92,0,0,0-.44,1.7c.07.32.55.18.48-.13a1.36,1.36,0,0,1,.32-1.22l-.4,0a2.65,2.65,0,0,1,.16,2.17l.31-.18a2.36,2.36,0,0,1-1.11-.48c-.32-.29-.53-1.26.22-1.14.32,0,.45-.43.13-.48Z" transform="translate(-807.03 -506.07)"/><path class="cls-2" d="M867.69,515.11a.6.6,0,0,0-1.06.33c-.12.9,1.22.84,1.37,1.53a.25.25,0,0,0,.46.06,2.66,2.66,0,0,0,.48-1.42,1.55,1.55,0,0,0-.34-1.22.61.61,0,0,0-.8.09,1.07,1.07,0,0,0-.09,1.17c.1.3.58.17.48-.14-.06-.16-.18-1,.17-.59a1.23,1.23,0,0,1,.08.61,2.33,2.33,0,0,1-.41,1.25l.45.06a1,1,0,0,0-.5-.68c-.14-.09-.3-.15-.45-.24a.78.78,0,0,1-.24-.16c-.08-.1,0-.36,0-.4.18.26.62,0,.43-.25Z" transform="translate(-807.03 -506.07)"/><path class="cls-2" d="M872,516.22a1.16,1.16,0,0,0-.14,1.79,2.09,2.09,0,0,0,.94.7c.38.06.5-.29.58-.6.13-.57.5-2.11-.27-2.41s-1,1.09-.9,1.6a.25.25,0,0,0,.48-.14,1.09,1.09,0,0,1,0-.62c0-.22.12-.29.32-.22l0,.17a3.16,3.16,0,0,1-.13,1.4c0,.21,0,.25-.16.24s-.34-.26-.43-.36c-.28-.29-.53-.85-.07-1.12a.25.25,0,0,0-.25-.43Z" transform="translate(-807.03 -506.07)"/><path class="cls-2" d="M869.4,519.45a1,1,0,0,0-1.16,1.17c.13.87,1,1.23,1.78,1.42a.27.27,0,0,0,.31-.18,3.2,3.2,0,0,0-.21-2.55.25.25,0,0,0-.39,0,1.91,1.91,0,0,0-.45,1.71c.07.31.55.18.49-.14a1.36,1.36,0,0,1,.31-1.22l-.39-.05a2.7,2.7,0,0,1,.16,2.17l.3-.18a2.35,2.35,0,0,1-1.11-.47c-.32-.29-.53-1.27.22-1.15.32.05.45-.43.14-.48Z" transform="translate(-807.03 -506.07)"/><path class="cls-2" d="M854.26,526.61v.53a.25.25,0,0,0,.25.25c1.06,0,.53-1.6-.31-1-.26.18,0,.62.25.43l.06.09.25.25v-.53c0-.32-.51-.32-.5,0Z" transform="translate(-807.03 -506.07)"/><path class="cls-2" d="M855.28,529.56c-.45.72.7,1.35,1,.53s-1-.91-1.05-.06c0,.32.49.32.5,0l0-.22c.17-.27-.26-.52-.43-.25Z" transform="translate(-807.03 -506.07)"/><path class="cls-2" d="M857.56,527.28a1.47,1.47,0,0,0-.17.82.25.25,0,0,0,.25.25.85.85,0,0,0,.87-.46.26.26,0,0,0,0-.3.53.53,0,0,0-.9.27c-.07.31.41.45.48.13l.06,0,0-.3a.36.36,0,0,1-.44.21l.25.25a1,1,0,0,1,.1-.57c.14-.29-.29-.54-.43-.25Z" transform="translate(-807.03 -506.07)"/><path class="cls-2" d="M859,529.83a.48.48,0,0,0-.07.78c.24.21.59-.14.35-.35h0c.25-.19,0-.62-.25-.43Z" transform="translate(-807.03 -506.07)"/><path class="cls-2" d="M859.08,530.28a.25.25,0,0,0,0-.5.25.25,0,0,0,0,.5Z" transform="translate(-807.03 -506.07)"/><path class="cls-2" d="M861.13,528.4a.94.94,0,0,0,1-.26.25.25,0,0,0-.11-.42.69.69,0,0,0-.8.35.25.25,0,0,0,.43.25l.24-.12-.11-.42a.48.48,0,0,1-.55.14c-.3-.11-.43.38-.13.48Z" transform="translate(-807.03 -506.07)"/><path class="cls-2" d="M864.39,526.51a.6.6,0,0,0-.27,1.06c.47.31,1-.19.88-.66a.23.23,0,0,0-.17-.17.73.73,0,0,0-1,.47c-.11.31.37.44.48.14l.34-.13-.17-.18v0c.31,0,.18-.54-.14-.49Z" transform="translate(-807.03 -506.07)"/><path class="cls-2" d="M863.49,530.5a.56.56,0,0,0,0,1.08.72.72,0,0,0,.71-.31,1,1,0,0,0,0-1.08.24.24,0,0,0-.34-.09.67.67,0,0,0-.35.81.26.26,0,0,0,.49-.14l.12-.24-.35-.09c.16.2.12.38-.14.54.31-.1.18-.58-.13-.48Z" transform="translate(-807.03 -506.07)"/><path class="cls-2" d="M866.45,529.32c-.9.41-.18,1.82.64,1.17s-.54-1.62-1-.74c-.14.29.29.54.44.25.27-.13.26-.13,0,0a.24.24,0,0,1,.18-.25c.29-.14,0-.57-.25-.43Z" transform="translate(-807.03 -506.07)"/><path class="cls-2" d="M867.18,526.19a.73.73,0,0,0,0,1,.58.58,0,0,0,.84-.09c.47-.71-.92-1-.83-.23,0,.32.53.32.5,0l-.11-.31c.2-.25-.15-.61-.36-.36Z" transform="translate(-807.03 -506.07)"/><path class="cls-2" d="M869.24,524.72a.59.59,0,0,0,.54.76c.47,0,.71-.46.68-.87a.26.26,0,0,0-.38-.22,1,1,0,0,0-.44.39c-.18.27.26.53.43.26a.41.41,0,0,1,.26-.21l-.37-.22q.07.24-.24.24a.25.25,0,0,0-.48-.13Z" transform="translate(-807.03 -506.07)"/><path class="cls-2" d="M870.37,527.29a.48.48,0,0,0-.47.6.24.24,0,0,0,.18.17.9.9,0,0,0,.85-.2.62.62,0,0,0,.07-.75c-.34-.5-1.07,0-.79.52.15.28.58,0,.43-.26a.32.32,0,0,1-.43.21l.18.18,0,0c.32,0,.32-.52,0-.5Z" transform="translate(-807.03 -506.07)"/><path class="cls-2" d="M872.25,524.58a.9.9,0,0,0,.14.81.28.28,0,0,0,.29.12.8.8,0,0,0,.6-1.07.25.25,0,0,0-.31-.18.62.62,0,0,0-.48.64c0,.32.51.32.5,0l.12-.16-.31-.17a.33.33,0,0,1-.26.46l.29.11a.38.38,0,0,1-.1-.42.25.25,0,0,0-.48-.14Z" transform="translate(-807.03 -506.07)"/><path class="cls-2" d="M873.78,521.46a.68.68,0,0,0,.65,1,.69.69,0,0,0,.35-1.12c-.13-.16-.36,0-.42.12l-.17.21c-.26.19,0,.62.25.43a1,1,0,0,0,.4-.51l-.42.11c.11.13-.32.24-.2,0s-.29-.54-.44-.25Z" transform="translate(-807.03 -506.07)"/><path class="cls-2" d="M876.24,523.92a.5.5,0,0,0-.42-.41.26.26,0,0,0-.28.11.75.75,0,0,0,0,.86.25.25,0,0,0,.28.11.49.49,0,0,0,.32-.68c-.2-.45-.55-.19-.81,0s.1.55.35.35l.27-.21-.24.06,0,0,.29.11,0-.35-.28.12.07.06c.07.32.56.18.48-.13Z" transform="translate(-807.03 -506.07)"/><path class="cls-2" d="M871.94,528.19a.8.8,0,0,0,.19,1.43.26.26,0,0,0,.32-.24.78.78,0,0,0-.14-.51c-.18-.27-.61,0-.43.25l.07.26.31-.24a.3.3,0,0,1-.07-.52c.27-.17,0-.61-.25-.43Z" transform="translate(-807.03 -506.07)"/><path class="cls-2" d="M851,526.11a9.79,9.79,0,0,0-1.23,2.54c-.09.3.39.44.49.13a9,9,0,0,1,1.17-2.42c.18-.27-.25-.52-.43-.25Z" transform="translate(-807.03 -506.07)"/><path class="cls-2" d="M851.47,527.52l-1.56,3.68c-.13.29.3.55.43.25l1.56-3.68c.13-.29-.3-.55-.43-.25Z" transform="translate(-807.03 -506.07)"/><path class="cls-2" d="M852.75,528.35a51.28,51.28,0,0,0-2.07,4.75c-.12.3.36.43.48.13a48.64,48.64,0,0,1,2-4.62c.14-.29-.29-.55-.44-.26Z" transform="translate(-807.03 -506.07)"/><path class="cls-2" d="M853.54,530.46a50.29,50.29,0,0,0-2.4,4.89.25.25,0,0,0,.43.26l.25-.34c.19-.26-.25-.51-.44-.25l-.24.33.43.26a49.35,49.35,0,0,1,2.4-4.9.25.25,0,0,0-.43-.25Z" transform="translate(-807.03 -506.07)"/><path class="cls-2" d="M854.72,531.24l-2.3,5.35c-.13.29.3.55.43.25l2.3-5.35c.13-.29-.3-.55-.43-.25Z" transform="translate(-807.03 -506.07)"/><path class="cls-2" d="M856.43,532q-1.33,2.85-2.5,5.78c-.12.3.36.43.48.14q1.14-2.88,2.45-5.67c.14-.29-.3-.55-.43-.25Z" transform="translate(-807.03 -506.07)"/><path class="cls-2" d="M857.88,532.82a56,56,0,0,0-2.24,5.44c-.11.3.37.43.48.13a57.17,57.17,0,0,1,2.19-5.32c.13-.29-.3-.55-.43-.25Z" transform="translate(-807.03 -506.07)"/><path class="cls-2" d="M859.62,533l-2.52,6.36c-.1.26.34.44.46.19l.16-.32c.13-.29-.3-.55-.44-.26l-.15.33.46.19,2.51-6.36c.12-.3-.36-.43-.48-.13Z" transform="translate(-807.03 -506.07)"/><path class="cls-2" d="M861.55,532.81a48.36,48.36,0,0,0-2.42,6.21c-.1.31.38.44.48.14a46.81,46.81,0,0,1,2.37-6.09c.14-.29-.3-.55-.43-.26Z" transform="translate(-807.03 -506.07)"/><path class="cls-2" d="M863.23,532.94a34.28,34.28,0,0,0-1.52,3.78c-.18.54-.93,2-.55,2.5a.25.25,0,0,0,.39.06l0,0a.26.26,0,0,0-.06-.4l0,0a.25.25,0,0,0-.25.44l0,0,0-.4,0,0,.4.05c-.22-.3.71-2.44.82-2.75a30.65,30.65,0,0,1,1.25-3c.13-.29-.3-.55-.43-.25Z" transform="translate(-807.03 -506.07)"/><path class="cls-2" d="M865.17,533a47.55,47.55,0,0,0-1.88,5.82.25.25,0,0,0,.46.19l.27-.45a.25.25,0,0,0-.43-.25l-.27.45.45.19a47.55,47.55,0,0,1,1.88-5.82c.12-.3-.37-.43-.48-.13Z" transform="translate(-807.03 -506.07)"/><path class="cls-2" d="M867.54,532.34a31.09,31.09,0,0,0-1.66,5.25c-.07.31.41.45.48.13a31.09,31.09,0,0,1,1.66-5.25c.13-.3-.36-.43-.48-.13Z" transform="translate(-807.03 -506.07)"/><path class="cls-2" d="M868.72,531.93a18.69,18.69,0,0,1-1,3.14c-.12.3.36.43.48.14a17.25,17.25,0,0,0,1-3.14c.07-.32-.42-.45-.48-.14Z" transform="translate(-807.03 -506.07)"/><path class="cls-2" d="M872.35,531.52a1.71,1.71,0,0,0-1.89,1.71,1.69,1.69,0,0,0,1.63,1.61,1.73,1.73,0,0,0,1.83-1.49,1.54,1.54,0,0,0-1.72-1.74c-.31,0-.32.54,0,.5a1.06,1.06,0,0,1,1.2,1.32,1.22,1.22,0,0,1-1.34.91,1.17,1.17,0,1,1,.29-2.32c.32,0,.32-.47,0-.5Z" transform="translate(-807.03 -506.07)"/><path class="cls-2" d="M866,538.33a1.43,1.43,0,0,0,.21,1.93,1.56,1.56,0,0,0,1.91,0,1.74,1.74,0,0,0,.48-2,2.08,2.08,0,0,0-2-1.22.25.25,0,0,0,0,.5c1,0,2.13,1.05,1.42,2.09s-2.44.06-1.61-1c.19-.25-.24-.5-.43-.25Z" transform="translate(-807.03 -506.07)"/><path class="cls-2" d="M859.86,540.64c-1.4,1-.18,3.41,1.46,2.5a1.42,1.42,0,1,0-1.68-2.22.25.25,0,0,0,.35.35,1,1,0,0,1,1.59.31,1,1,0,0,1-.65,1.19c-1,.4-1.63-1.11-.81-1.7.26-.19,0-.62-.26-.43Z" transform="translate(-807.03 -506.07)"/><path class="cls-2" d="M863.86,545.65a1.37,1.37,0,0,1,2.67-.25.25.25,0,0,0,.48-.13l-.07-.34c-.07-.32-.55-.19-.48.13l.07.34.48-.13a1.87,1.87,0,0,0-3.65.38c0,.32.46.32.5,0Z" transform="translate(-807.03 -506.07)"/><path class="cls-2" d="M871.49,542.78a1.52,1.52,0,0,1,.5-1.89,1.24,1.24,0,0,1,1-.11c.14,0,1,.46.79.73l.34-.09-.05,0,.13.22v-.06l-.18.24h0a.25.25,0,0,0-.13-.48h0a.26.26,0,0,0-.18.24c0,.14,0,.24.18.3a.27.27,0,0,0,.34-.09c.27-.4-.18-.94-.49-1.17a1.84,1.84,0,0,0-1.45-.32,1.93,1.93,0,0,0-1.22,2.65c.12.29.61.16.48-.14Z" transform="translate(-807.03 -506.07)"/><path class="cls-2" d="M874.22,535.43a1.62,1.62,0,0,0-.46,2,1.15,1.15,0,0,0,1.81.09c.31-.3,1.1-1.39.43-1.68a2.69,2.69,0,0,0-1.26,0,4.87,4.87,0,0,0-1.47.52c-.28.15,0,.58.26.43a4.21,4.21,0,0,1,1.26-.45c.1,0,.7-.15.81-.07s0,.33-.09.49c-.27.46-1,1-1.36.3-.25-.48.08-1,.42-1.31s-.13-.58-.35-.35Z" transform="translate(-807.03 -506.07)"/><path class="cls-2" d="M852.65,540.91a.25.25,0,0,0,0-.5.25.25,0,0,0,0,.5Z" transform="translate(-807.03 -506.07)"/><path class="cls-2" d="M852.39,544.32a.25.25,0,0,0,0-.5.25.25,0,0,0,0,.5Z" transform="translate(-807.03 -506.07)"/><path class="cls-2" d="M855,542.75a.25.25,0,0,0,0-.5.25.25,0,0,0,0,.5Z" transform="translate(-807.03 -506.07)"/><path class="cls-2" d="M858.16,546a.25.25,0,0,0,0-.5.25.25,0,0,0,0,.5Z" transform="translate(-807.03 -506.07)"/><path class="cls-2" d="M855.67,549.71a.25.25,0,0,0,0-.5.25.25,0,0,0,0,.5Z" transform="translate(-807.03 -506.07)"/><path class="cls-2" d="M855.14,546.82a.25.25,0,0,0,0-.5.25.25,0,0,0,0,.5Z" transform="translate(-807.03 -506.07)"/><path class="cls-2" d="M859.87,547.87a.25.25,0,0,0,0-.5.25.25,0,0,0,0,.5Z" transform="translate(-807.03 -506.07)"/><path class="cls-2" d="M863.28,547.21a.25.25,0,0,0,0-.5.25.25,0,0,0,0,.5Z" transform="translate(-807.03 -506.07)"/><path class="cls-2" d="M864.86,548.81h-.13a.25.25,0,0,0,0,.5h.13a.25.25,0,0,0,0-.5Z" transform="translate(-807.03 -506.07)"/><path class="cls-2" d="M860,552.07a.25.25,0,0,0,0-.5.25.25,0,0,0,0,.5Z" transform="translate(-807.03 -506.07)"/><path class="cls-2" d="M857.5,550.24v-.13a.25.25,0,0,0-.5,0v.13a.25.25,0,0,0,.5,0Z" transform="translate(-807.03 -506.07)"/><path class="cls-2" d="M862.5,548.92a.25.25,0,0,0,0-.5.25.25,0,0,0,0,.5Z" transform="translate(-807.03 -506.07)"/><path class="cls-2" d="M864.72,550.24v-.13a.25.25,0,0,0-.5,0v.13a.25.25,0,0,0,.5,0Z" transform="translate(-807.03 -506.07)"/><g class="cls-6"><path class="cls-2" d="M851.35,506.69c-2.69,3.24-2.24,8.29.1,11.79s6.18,5.71,10.06,7.36c-4.45.15-9.32,0-12.74-2.83a17.17,17.17,0,0,1-3-3.56c-2.39-3.5-4.56-7.62-3.79-11.79a17.29,17.29,0,0,1,8.69-.26" transform="translate(-807.03 -506.07)"/><path class="cls-2" d="M851.14,506.57a10.08,10.08,0,0,0-.91,10.17,14.53,14.53,0,0,0,4.24,5.35c1.79,1.47,3.94,2.22,5.82,3.49.46.31.6-.06,0,0a10.28,10.28,0,0,1-2,0,23.43,23.43,0,0,1-4.65-.54,12.37,12.37,0,0,1-7.47-5.44,22.3,22.3,0,0,1-3.88-7.91,4.29,4.29,0,0,1,.15-3.23c.72-1.23,1.37-1.1,2.95-1.23a18.41,18.41,0,0,1,5.18.37c.31.06.44-.42.13-.49a19.05,19.05,0,0,0-8.82.27.24.24,0,0,0-.18.18c-.73,5.21,2.18,10.37,5.5,14.21,3.6,4.17,9.13,4.43,14.28,4.28.22,0,.36-.36.12-.46-3.77-1.65-7.63-3.76-10-7.28s-2.69-8.11-.1-11.53c.19-.26-.24-.51-.43-.25Z" transform="translate(-807.03 -506.07)"/></g><g class="cls-6"><path class="cls-2" d="M857.36,526.47a7.43,7.43,0,0,0,.23,2.49c.58,1.78,2.34,2.86,4,3.62a8.54,8.54,0,0,1-10.29-6.65.26.26,0,0,1,.27-.35,10.63,10.63,0,0,1,5.65.81" transform="translate(-807.03 -506.07)"/><path class="cls-2" d="M857.11,526.47c-.05,3.29,1.49,5,4.41,6.33l.06-.46a8.39,8.39,0,0,1-8.51-3.2c-.74-1-2.16-2.9-.37-3.39,1.31-.36,3.29.4,4.5.88.3.12.43-.36.14-.48-1.67-.67-4.35-1.47-6.1-.67a.24.24,0,0,0-.12.22c-.12,2,1.82,4.43,3.31,5.57a9.08,9.08,0,0,0,7.28,1.55.25.25,0,0,0,.06-.45c-2.65-1.23-4.21-2.82-4.16-5.9a.25.25,0,0,0-.5,0Z" transform="translate(-807.03 -506.07)"/></g><g class="cls-6"><path class="cls-2" d="M857.53,533.85a4.47,4.47,0,0,0,.66,5.75,9,9,0,0,1-4.1-.69,6.4,6.4,0,0,1-2.52-2.73,21.86,21.86,0,0,1-1.93-7.28,5.86,5.86,0,0,1-.07-1.77,2.94,2.94,0,0,1,.93-1.69A18.27,18.27,0,0,0,853,530a7,7,0,0,0,4.36,2.63" transform="translate(-807.03 -506.07)"/><path class="cls-2" d="M857.31,533.72a4.86,4.86,0,0,0-.41,4.47c.59,1.4.94,1.44-1.19.95-2.78-.65-4-2.83-4.85-5.35a26.22,26.22,0,0,1-.86-4.12,2.23,2.23,0,0,1,.21-2.48q.42-1.63.78,0a16.52,16.52,0,0,1,1.28,2.26,8,8,0,0,0,5,3.43c.31.06.45-.42.13-.49-3.67-.72-5.36-3.9-6.72-7a.24.24,0,0,0-.39-.05c-2.13,2.4-.58,7.22.48,9.83,1.42,3.51,3.72,4.68,7.39,4.75a.26.26,0,0,0,.18-.43,4.36,4.36,0,0,1-.63-5.45c.17-.27-.26-.52-.43-.25Z" transform="translate(-807.03 -506.07)"/></g><path class="cls-2" d="M856.79,540a17.6,17.6,0,0,0,3.6.54c.8,0,2.24-.72,2.86-.58s.59.93.87,1.5a6.74,6.74,0,0,0,1.75,2.22c.65.53,1.58.68,2.19,1.16.18.14.93-.14-.56.24a15.94,15.94,0,0,1-2.29.69c-4.09.5-7-2.69-9-5.84-.17-.27-.6,0-.43.25,1.42,2.23,3.11,4.41,5.59,5.51,3,1.3,4.95.14,7.84-.64.22-.06.25-.44,0-.48a6.07,6.07,0,0,1-5.16-5.28.25.25,0,0,0-.37-.14c-2.14,1.26-4.43.87-6.75.36-.32-.06-.45.42-.13.49Z" transform="translate(-807.03 -506.07)"/><g class="cls-6"><path class="cls-2" d="M857.67,542.94a8.38,8.38,0,0,0-2.26,4.08c-.28,2.28,1.37,4.39,3.32,5.6a10.18,10.18,0,0,1-4.48-1.66c-1.77-1.4-2.39-3.76-2.91-6a14.9,14.9,0,0,1-.51-3.31,5,5,0,0,1,1-3.14.64.64,0,0,1,.38-.27.78.78,0,0,1,.37.06l3.64,1.36" transform="translate(-807.03 -506.07)"/><path class="cls-2" d="M857.5,542.76c-1.19,1.44-2.48,3.06-2.36,5a5.35,5.35,0,0,0,.89,2.53c.25.39,1.61,2.23,1.94,2.06s-1-.42-1.14-.48a6.76,6.76,0,0,1-3-1.63,10,10,0,0,1-2.12-4.61c-.45-1.77-1.17-4.12-.33-5.84.58-1.21.73-1.12,2-.91a17.56,17.56,0,0,1,2.73,1c.3.12.43-.37.13-.48-1.23-.46-3.45-2.06-4.65-1.06s-1.07,3.61-.85,5c.34,2.17.91,4.8,2.26,6.6s3.48,2.39,5.66,2.83a.25.25,0,0,0,.19-.46,6.73,6.73,0,0,1-3.12-4c-.46-2.16.86-3.8,2.11-5.33.2-.24-.15-.6-.35-.35Z" transform="translate(-807.03 -506.07)"/></g><g class="cls-6"><path class="cls-2" d="M866.47,551.13A5.87,5.87,0,0,0,869,553.5a4.15,4.15,0,0,0,1.72.19,7.73,7.73,0,0,0,5.16-2.51c.27,0,.2.44.06.66-1.14,1.7-2.51,3.45-4.48,4a8.7,8.7,0,0,1-2,.27,15.19,15.19,0,0,1-4.76-.27,5.71,5.71,0,0,1-3.73-2.78q2.58-1,5.13-2" transform="translate(-807.03 -506.07)"/><path class="cls-2" d="M866.25,551.26c1.08,1.46,2.15,2.63,4.07,2.68a7.23,7.23,0,0,0,2.68-.49c.31-.12,2.4-1.62,2.58-1.57-.08,0-1.18,1.67-1.44,1.93a6.53,6.53,0,0,1-2.71,1.8,13.29,13.29,0,0,1-4.36.31c-1.15-.06-5.4-.6-5.15-2.43.12-.85.85-.83,1.7-1.16s1.71-.67,2.56-1c.29-.11.17-.6-.13-.48-1.71.69-3.42,1.35-5.13,2a.25.25,0,0,0-.15.36c2,3.39,6.53,3.68,10.06,3.06a6.77,6.77,0,0,0,3.93-2.36c.57-.64,2-2,1.37-2.83a.25.25,0,0,0-.39,0,7.9,7.9,0,0,1-3.6,2.19c-2.48.67-4-.29-5.46-2.19-.19-.26-.62,0-.43.25Z" transform="translate(-807.03 -506.07)"/></g></svg>