<svg id="Calque_1" data-name="Calque 1" xmlns="http://www.w3.org/2000/svg" viewBox="0 0 117.95 154.88"><defs><style>.cls-1{fill:#5fa1d4;}.cls-2{fill:#1d1d1b;}.cls-3{fill:#fedf00;}.cls-4{fill:#b8181d;}.cls-5{fill:#fff;}.cls-6{fill:#78bc69;}</style></defs><title>34</title><path class="cls-1" d="M795.24,464.77l-.19,152.14c38.84,1,76.68,2,115.36-1.69,3.1-51.36-1.16-97.81.53-149.24C911,464,821.6,462.6,795.24,464.77Z" transform="translate(-793.98 -463.3)"/><path class="cls-2" d="M794.86,464.77l0,37.29-.1,75.7-.05,39.15a.39.39,0,0,0,.38.38c38.46,1,77,2,115.36-1.69a.38.38,0,0,0,.37-.38c1.6-26.89,1.21-53.83.68-80.75-.26-13.36-.54-26.72-.55-40.08,0-6.83,0-13.66.19-20.49,0-1.64.08-3.29.13-4.94,0-.66.42-2.49.07-3.1-.14-.25-.26-.27-.49-.42a6.76,6.76,0,0,0-2.58-.43c-1.74-.19-3.49-.3-5.24-.4-5.59-.34-11.19-.53-16.79-.69-15.58-.45-31.16-.63-46.74-.62-14.71,0-29.54-.1-44.22,1.1-.48,0-.48.79,0,.75,12.41-1,24.92-1,37.36-1.08q23.29-.12,46.59.42c9.88.23,20.09,0,29.9,1.38,2.18.3,1.46.62,1.39,3.09q-.3,10.29-.32,20.59c0,13.08.18,26.16.44,39.23.51,26,1.07,52-.12,78-.08,1.64-.16,3.29-.25,4.93-.11,2.12.08,3.11-2.28,3.33q-5.15.46-10.3.83-10,.71-20,1.06c-13.31.49-26.63.56-39.94.43s-26.46-.46-39.68-.79c-.41,0-2.31.22-2.59-.2a4.85,4.85,0,0,1,0-1v-8.52l0-11.59.07-53.18.09-76.07v-1.27A.38.38,0,0,0,794.86,464.77Z" transform="translate(-793.98 -463.3)"/><path class="cls-3" d="M795,581.41q-.57,16.67-.43,33.36a1.72,1.72,0,0,0,.35,1.24,1.74,1.74,0,0,0,1.19.33l19.2.32c30.84.52,61.76,1.05,92.47-1.82a1.67,1.67,0,0,0,1.2-.45,1.61,1.61,0,0,0,.27-.93,252,252,0,0,0,.6-32.28L883.74,581c-29.51-.16-59-.31-88.55-.14l2.92-.56" transform="translate(-793.98 -463.3)"/><path class="cls-3" d="M794.52,581.41q-.33,9.8-.42,19.62c0,2.94,0,5.89,0,8.83a33.52,33.52,0,0,0,0,4.91c.1.6,0,1.11.49,1.59,1.26,1.24,4.76.53,6.35.56l9.6.16q9.54.17,19.07.31c25.74.37,51.57.45,77.22-2,1.65-.16,2.64-.24,2.95-2a76.3,76.3,0,0,0,.64-10.26c.31-7.34.28-14.68,0-22a.51.51,0,0,0-.5-.5c-38.23-.2-76.45-.5-114.68-.28l.13,1,2.92-.57c.63-.12.36-1.09-.27-1l-2.91.56c-.57.11-.43,1,.13,1,19.24-.11,38.47-.08,57.71,0l28.36.14,14.1.08,6.77,0,3.39,0c1,0,3-.4,3.64.26.93.89.41,5.26.44,6.6q.06,3.68,0,7.34Q909.52,603,909,610c-.12,1.8.15,3.57-2.21,4.39a13.58,13.58,0,0,1-2.94.26c-2.61.22-5.23.41-7.85.59q-6.87.45-13.75.73c-19,.77-38.08.61-57.11.31l-15.6-.26-7.68-.13-3.84-.06c-1.84,0-2.69-.14-3-2.08a55.58,55.58,0,0,1,0-7.85q0-4.19.07-8.35.11-8.08.38-16.18a.5.5,0,0,0-1,0Z" transform="translate(-793.98 -463.3)"/><path class="cls-2" d="M794.86,464.77l0,37.29-.1,75.7-.05,39.15a.39.39,0,0,0,.38.38c38.46,1,77,2,115.36-1.69a.38.38,0,0,0,.37-.38c1.6-26.89,1.21-53.83.68-80.75-.26-13.36-.54-26.72-.55-40.08,0-6.83,0-13.66.19-20.49,0-1.64.08-3.29.13-4.94,0-.66.42-2.49.07-3.1-.14-.25-.26-.27-.49-.42a6.76,6.76,0,0,0-2.58-.43c-1.74-.19-3.49-.3-5.24-.4-5.59-.34-11.19-.53-16.79-.69-15.58-.45-31.16-.63-46.74-.62-14.71,0-29.54-.1-44.22,1.1-.48,0-.48.79,0,.75,12.41-1,24.92-1,37.36-1.08q23.29-.12,46.59.42c9.88.23,20.09,0,29.9,1.38,2.18.3,1.46.62,1.39,3.09q-.3,10.29-.32,20.59c0,13.08.18,26.16.44,39.23.51,26,1.07,52-.12,78-.08,1.64-.16,3.29-.25,4.93-.11,2.12.08,3.11-2.28,3.33q-5.15.46-10.3.83-10,.71-20,1.06c-13.31.49-26.63.56-39.94.43s-26.46-.46-39.68-.79c-.41,0-2.31.22-2.59-.2a4.85,4.85,0,0,1,0-1v-8.52l0-11.59.07-53.18.09-76.07v-1.27A.38.38,0,0,0,794.86,464.77Z" transform="translate(-793.98 -463.3)"/><path class="cls-4" d="M874.84,471.26l.65.76a200.72,200.72,0,0,0,13.57,15c5.47,5.28,15.37,14.77,15.37,14.77-.53,13.8,0,44.16,0,44.16a295.72,295.72,0,0,0-30.27,29.38l-.77-.08c-5.84.17-37.8.29-43.66-.67l-.66-.76a198.76,198.76,0,0,0-13.57-15c-5.47-5.29-15.18-17.67-15.18-17.67q.81-20.7.26-41.43l-.45.16a294.57,294.57,0,0,0,30.27-29.37l.77.08C837,470.42,869,470.3,874.84,471.26Z" transform="translate(-793.98 -463.3)"/><path class="cls-5" d="M874.48,471.61c6.83,7.92,13.84,15.4,21.37,22.63l4.31,4.14a29.1,29.1,0,0,1,3.35,3.21c.62.82.39.87.36,2.08-.06,2-.1,4-.12,6-.11,8.2-.06,16.41,0,24.61,0,3,.06,5.91.11,8.87a8.94,8.94,0,0,1,0,2.31c-.33,1.1-1.66,1.69-2.64,2.53a293.18,293.18,0,0,0-26.55,26c-.88,1-1.49.81-2.73.83l-3.88.05c-3.38,0-6.75,0-10.13,0-7.37,0-14.76,0-22.12-.33-2-.08-4.93.28-6.44-1.06-2.23-2-4-4.75-6-7s-4.1-4.56-6.27-6.73c-3.42-3.42-6.65-7-9.76-10.67q-2-2.42-4-4.88c-.72-.88-2-2-2.47-3.09a3.89,3.89,0,0,1,0-1.93c.14-2,.13-3.95.18-5.92.1-3.62.16-7.23.2-10.85q.11-11.34-.2-22.69a.5.5,0,0,0-.63-.48l-.45.16.49.84q9.82-8.28,18.92-17.37,4.55-4.55,8.88-9.28a17.19,17.19,0,0,1,1.85-2,1.5,1.5,0,0,1,1.13-.47c.56-.06,1.16,0,1.73,0q14.46-.24,28.93.06a97.18,97.18,0,0,1,12.77.63c.63.1.9-.86.27-1a83.77,83.77,0,0,0-10.63-.61c-5.54-.14-11.08-.18-16.62-.2-4.64,0-9.29,0-13.93.07-.92,0-2.75-.32-3.58,0-1.2.48-2.68,2.89-3.56,3.84-1.55,1.69-3.13,3.35-4.73,5a297.87,297.87,0,0,1-22.14,20.64.5.5,0,0,0,.48.84l.45-.16-.63-.49q.27,10.61.21,21.21c0,3.45-.08,6.91-.16,10.36,0,1.64-.08,3.29-.13,4.93,0,1.47-.59,3.69-.16,5.06a4.34,4.34,0,0,0,.88,1.16c1,1.23,2,2.46,2.95,3.68,2.74,3.36,5.52,6.7,8.45,9.91,3.68,4,7.63,7.74,11.22,11.84,1.86,2.13,3.57,4.49,5.55,6.49a2.76,2.76,0,0,0,2.23.88c6.86.66,13.85.54,20.74.59s13.61.07,20.41-.06a7,7,0,0,0,2.14,0c.82-.35,2-2.17,2.57-2.8q1.86-2,3.75-4,6.64-7,13.73-13.52,3.36-3.12,6.83-6.12c1.05-.91,3.24-2.09,3.64-3.43.44-1.51-.06-3.94-.08-5.48-.11-8.2-.18-16.41-.15-24.61,0-4.4.41-8.9.21-13.29-.11-2.19-3.39-4.17-4.88-5.6-3.76-3.61-7.56-7.2-11.27-10.86-4.84-4.75-9.15-10-13.57-15.1C874.77,470.42,874.06,471.13,874.48,471.61Z" transform="translate(-793.98 -463.3)"/><path class="cls-5" d="M844.43,512a12.72,12.72,0,0,0-5.9-13.33c-4.54-2.53-10.93-1.35-14,2.86-2,2.81-2.46,6.42-2.67,9.87A112.51,112.51,0,0,0,823,535.34c.39,2.56,1,5.36,3.1,6.91,2.62,1.94,6.29,1.06,9.37,0,1.8-.62,3.89-1.66,4-3.55a7.52,7.52,0,0,0,1.58,3.39,2.59,2.59,0,0,0,3.41.38l-.31-21.76a74.84,74.84,0,0,0-11.1.53,12,12,0,0,0,0,4.74c.87-1,2.64-.54,3.41.53a6.7,6.7,0,0,1,.88,3.81,10.48,10.48,0,0,1-.73,5.19c-.81,1.57-2.77,2.69-4.38,2s-2-2.48-2.28-4.07a79,79,0,0,1-.59-24.89c.3-2.27,1.08-5,3.3-5.56a4,4,0,0,1,4.2,2,8.42,8.42,0,0,1,.86,4.86c0,.73-.1,1.6.47,2.07a2.21,2.21,0,0,0,1.39.35l5.11.13" transform="translate(-793.98 -463.3)"/><path class="cls-5" d="M844.91,512.16c.91-5.43-1.35-11.45-6.43-14-4.59-2.35-10.82-1.28-14.06,2.83A15.67,15.67,0,0,0,821.6,509a88.74,88.74,0,0,0-.37,12.94,113.78,113.78,0,0,0,1,12.08c.38,2.76.75,6.06,2.9,8.1s5.4,2,8.18,1.26c2.53-.64,6-1.62,6.57-4.58h-1c.5,1.74,1.14,3.74,3,4.43a2.38,2.38,0,0,0,3-.79c.51-1-.06-3.81-.07-5l-.09-5.93-.15-10.88a.51.51,0,0,0-.5-.5,80.67,80.67,0,0,0-11.1.53c-.2,0-.45.14-.48.37a15.26,15.26,0,0,0,0,5c.07.42.58.43.84.22,1.31-1,2.72.66,3.21,1.74a8.33,8.33,0,0,1,.24,2.63,10.32,10.32,0,0,1-.44,3.91c-.32.86-1.31,2.46-2.43,2.49a3.78,3.78,0,0,1-3.23-2.45,25.2,25.2,0,0,1-.72-3.76,79.73,79.73,0,0,1-.67-17.6c.18-2.5.19-5.39,1.28-7.69,1.16-2.45,4.16-3,5.79-.39.87,1.37.8,3.06.79,4.61,0,4.1,4.4,3,7.47,3.05.64,0,.64-1,0-1-2.28-.06-5.86.69-6.47-2.05-.4-1.8.13-3.4-.92-5.11-1.23-2-3.89-3.15-6-1.68-2.46,1.75-2.55,5.66-2.81,8.34a79.54,79.54,0,0,0-.05,14.88c.19,2.12.46,4.24.83,6.33.26,1.49.49,3.23,1.53,4.42,1.68,1.91,4.4,1.26,5.82-.62,1.68-2.24,1.76-6.84.68-9.32-.83-1.88-3-2.77-4.64-1.43l.84.22c-.18-1.12-.48-2.44.12-3.46s.92-.83,2.17-.94,2.78-.19,4.17-.23c1.11,0,3-.5,3.68.48.53.75.06,3.95.07,4.95l.13,8.89c0,1.49.38,3.5.07,5v1l-2.53.25c-.73-.25-1.23-2.37-1.46-3.17-.13-.44-.87-.5-1,0-.58,3.19-6.41,4.39-9.13,4.33-4.51-.09-5.79-3.93-6.38-7.69a108.81,108.81,0,0,1-1.1-22.81c.18-3.35.41-7,2.22-9.91a10.14,10.14,0,0,1,8.78-4.6c7.26.05,11.73,7.29,10.6,14-.1.63.86.9,1,.26Z" transform="translate(-793.98 -463.3)"/><path class="cls-5" d="M866,498c-2.55.47-4.51,2.65-5.45,5.06a22.62,22.62,0,0,0-1.1,7.65,175.39,175.39,0,0,0,.37,20.51c.38,4.07,1.37,8.66,4.91,10.68a11.65,11.65,0,0,0,4.91,1.23c2.7.2,5.58.09,7.89-1.34,4.47-2.75,5-8.93,5-14.18l.06-16.12c0-4.52-.27-9.71-3.81-12.52-3.34-2.64-8.11-2-12.29-1.26" transform="translate(-793.98 -463.3)"/><path class="cls-5" d="M865.89,497.53c-3.41.85-5.51,3.75-6.31,7.05-1.16,4.75-.74,10.09-.73,14.94a82.88,82.88,0,0,0,.87,14.6c.58,3.18,1.84,6.52,4.78,8.22,3.16,1.83,8.37,1.93,11.74.65a10,10,0,0,0,5.87-6.88c1.21-4.1.94-8.54,1-12.76,0-5,.28-10.12,0-15.13-.24-3.67-1.11-7.63-4.28-9.89-3.59-2.54-8.33-1.81-12.37-1.09-.64.11-.37,1.08.26,1,4.67-.82,10.59-1.56,13.56,3.1,2.38,3.75,1.91,8.8,1.9,13,0,4.89.06,9.78-.07,14.67-.1,3.9-.48,8.59-3.52,11.42-3.44,3.22-11.6,3.32-15-.08-3.22-3.24-3.25-8.79-3.48-13-.29-5.21-.24-10.43-.11-15.64.12-4.93.31-11.74,6.2-13.2a.5.5,0,0,0-.26-1Z" transform="translate(-793.98 -463.3)"/><path class="cls-4" d="M869.88,504.21a5.34,5.34,0,0,0-2.79,3.53,15.48,15.48,0,0,0-.38,4.61l.23,15.28a14.35,14.35,0,0,0,.95,6c.87,1.85,2.8,3.35,4.81,3a4.9,4.9,0,0,0,3.59-3.31,14.32,14.32,0,0,0,.57-5.06l-.11-16.76c0-2-.11-4.22-1.52-5.64s-3.79-1.55-5.88-1.52" transform="translate(-793.98 -463.3)"/><path class="cls-5" d="M869.62,503.78c-2.54,1.37-3.28,4-3.41,6.71-.21,4.4.1,8.91.17,13.32,0,3.36-.48,7.65,1.4,10.66,1.21,1.93,3.53,3.3,5.82,2.47,2.67-1,3.56-4,3.72-6.51.29-4.45,0-9,0-13.48,0-3.14.69-7.56-1-10.43-1.45-2.5-4.36-2.67-7-2.65a.5.5,0,0,0,0,1c3.33,0,6.26.66,6.77,4.45a64.79,64.79,0,0,1,.17,8.13l.05,8.38c0,2.92.66,7.52-2,9.49-4.21,3.08-6.6-2.63-6.81-5.94-.17-2.64-.11-5.31-.15-8l-.12-8.12c0-3.13-.27-6.94,2.91-8.66.57-.31.06-1.17-.51-.86Z" transform="translate(-793.98 -463.3)"/><path class="cls-6" d="M809.16,598.83c0-1,.37-2.73-.51-3.46s-2.88-.55-3.76-.31c-2.93.8-1.73,5.63-1.67,7.76s-.19,4.5.24,6.49a2.3,2.3,0,0,0,1.43,1.89,4,4,0,0,0,3.07-.37c1.21-.85.79-2.31.69-3.61s-2.09-1.28-2,0a15.44,15.44,0,0,1,.14,1.93c-1.84,1-1.26-.95-1.42-1.45-.43-1.33-.1-3.46-.15-4.88a22.2,22.2,0,0,1-.13-4.38c.12-.67.63-2,1.62-1.41.69.44.45,1,.45,1.8a1,1,0,0,0,2,0Z" transform="translate(-793.98 -463.3)"/><path class="cls-6" d="M816.18,596.23c.72,4.67.25,9.73.27,14.45a1,1,0,0,0,2,0c0-4.93.41-10.1-.34-15-.2-1.27-2.12-.73-1.93.53Z" transform="translate(-793.98 -463.3)"/><path class="cls-6" d="M820.66,596c.14,2.44.23,4.88.22,7.32,0,1.14,0,2.28-.07,3.42,0,.89.23,2.84-.2,3.61l1.57-.2-.07-.08v1.42l.06,0c1-.82-.43-2.23-1.41-1.41l-.06,0a1,1,0,0,0,0,1.42l.06.08a1,1,0,0,0,1.57-.21c.92-1.63.5-4.74.53-6.57,0-2.93,0-5.86-.2-8.79-.08-1.28-2.08-1.28-2,0Z" transform="translate(-793.98 -463.3)"/><path class="cls-6" d="M818,604.3a3.2,3.2,0,0,0,2.4.41,1,1,0,0,0,.69-1.23,1,1,0,0,0-1.23-.7,1.11,1.11,0,0,1-.85-.2c-1.1-.69-2.1,1-1,1.72Z" transform="translate(-793.98 -463.3)"/><path class="cls-6" d="M829.62,596.12q.43,7.47.35,15a1,1,0,0,0,2,0v-.53a1,1,0,0,0-2,0v.53h2q.09-7.49-.35-15c-.08-1.28-2.08-1.29-2,0Z" transform="translate(-793.98 -463.3)"/><path class="cls-6" d="M841.15,610.55l-.17-14.8a1,1,0,0,0-2,0l.17,14.8a1,1,0,0,0,2,0Z" transform="translate(-793.98 -463.3)"/><path class="cls-6" d="M840.74,596.88a5.58,5.58,0,0,1,1.68,0c1.22.45.86,1.4.8,2.34-.07,1.2.38,4.86-1.73,4.36-1.25-.29-1.79,1.64-.53,1.93s2.71.44,3.55-.75.6-3.68.69-5.19c.07-1.22.38-2.84-.5-3.87s-2.65-.81-4-.77a1,1,0,0,0,0,2Z" transform="translate(-793.98 -463.3)"/><path class="cls-6" d="M860.53,595.63q.16,7.46-.07,14.92c0,1.29,2,1.29,2,0q.22-7.45.07-14.92a1,1,0,0,0-2,0Z" transform="translate(-793.98 -463.3)"/><path class="cls-6" d="M865.46,595.42,863,600.33c-.69,1.39-1,1.66-.62,3,.55,1.7,1.12,3.28,1.57,5,.26,1,.54,2.57,1.38,3.28a1,1,0,0,0,1.67-.44l.05-.12a1,1,0,0,0-.46-1.13l-.09,0c-1.16-.53-2.18,1.19-1,1.72l.08,0-.46-1.13,0,.13,1.67-.45c-.95-.79-1.14-3.58-1.44-4.72a14.91,14.91,0,0,0-1.39-3.53v1l3.25-6.54c.57-1.15-1.15-2.17-1.73-1Z" transform="translate(-793.98 -463.3)"/><path class="cls-6" d="M873.48,596.13a108.74,108.74,0,0,1,.56,14.55c0,1.29,2,1.28,2,0a108.74,108.74,0,0,0-.56-14.55c-.13-1.27-2.14-1.28-2,0Z" transform="translate(-793.98 -463.3)"/><path class="cls-6" d="M883,596.21a28.37,28.37,0,0,0-.11,6.25l.2,7.82a1,1,0,0,0,1,1c1.67.08,3.7.84,4.68-1s.58-5.21.57-7.35c0-3.94,0-8.88-5.22-7.42a1,1,0,0,0,.53,1.93,2.54,2.54,0,0,1,2.35.53,5.89,5.89,0,0,1,.25,2.17,39.06,39.06,0,0,1,.07,4.19,20.26,20.26,0,0,1-.16,3.74,1.14,1.14,0,0,1-.36,1c-.13.57-.44.71-.95.43-.09,0-1.8-.19-1.76-.18l1,1-.17-6.84c-.06-2.18-.42-4.56,0-6.7.25-1.26-1.68-1.8-1.93-.53Z" transform="translate(-793.98 -463.3)"/><path class="cls-6" d="M896.37,596.37l.25,8c.06,1.8-.31,4.5.23,6.23.6,2,3.73,1.41,4.79.08.82-1,.73-2.76.82-4a75.17,75.17,0,0,0,.21-7.8c0-1.11.05-2.54-.81-3.42-1.11-1.12-3-.43-4.28-.21s-.73,2.15.53,1.93c2.3-.39,2.56.82,2.57,2.68,0,1,0,2,0,2.92,0,.8,0,8-1.77,7-.64-.35-.28-5.78-.3-6.43l-.22-7c0-1.29-2-1.29-2,0Z" transform="translate(-793.98 -463.3)"/><path class="cls-5" d="M804,590.22l.88-3.64h-.73a24.85,24.85,0,0,1,.69,3.62c0,.48.8.48.75,0a26.21,26.21,0,0,0-.71-3.82.38.38,0,0,0-.73,0l-.88,3.64a.38.38,0,0,0,.73.2Z" transform="translate(-793.98 -463.3)"/><path class="cls-5" d="M804.14,589.86l1,0c.48,0,.48-.73,0-.75l-1,0c-.48,0-.48.73,0,.75Z" transform="translate(-793.98 -463.3)"/><path class="cls-5" d="M809,586.57a16.81,16.81,0,0,1,.14,3.4c0,.49.73.48.75,0a17.35,17.35,0,0,0-.17-3.6c-.07-.48-.79-.27-.72.2Z" transform="translate(-793.98 -463.3)"/><path class="cls-5" d="M810.08,588.6l1.27-1.75c.29-.4-.36-.77-.64-.38l-1.28,1.75c-.29.39.36.76.65.38Z" transform="translate(-793.98 -463.3)"/><path class="cls-5" d="M809.52,588.85c.38.55.73,1.11,1.07,1.68a.38.38,0,0,0,.7-.19v-.29c0-.48-.77-.48-.75,0v.29l.7-.19c-.34-.57-.7-1.13-1.07-1.68s-.92,0-.65.38Z" transform="translate(-793.98 -463.3)"/><path class="cls-5" d="M812.57,586.78c0,1,.06,2,0,3a.38.38,0,0,0,.75,0c0-1,0-2,0-3,0-.48-.78-.48-.75,0Z" transform="translate(-793.98 -463.3)"/><path class="cls-5" d="M814.59,586.86a32.13,32.13,0,0,1,.08,3.25h.75a1.05,1.05,0,0,0-.13-.49c-.22-.43-.86,0-.65.38l0,.11a.38.38,0,0,0,.75,0,32.13,32.13,0,0,0-.08-3.25c0-.47-.79-.48-.75,0Z" transform="translate(-793.98 -463.3)"/><path class="cls-5" d="M815.34,587.08c1.5-.4,1.75,3.14,0,2.53-.46-.15-.65.57-.2.73,2.93,1,2.82-4.72,0-4a.38.38,0,0,0,.2.73Z" transform="translate(-793.98 -463.3)"/><path class="cls-5" d="M818.48,586.7c0,1,0,2.1,0,3.16l.73-.1-.08-.37c-.1-.47-.83-.27-.72.2l.08.37c.09.41.74.31.74-.1,0-1.06,0-2.11,0-3.16a.38.38,0,0,0-.75,0Z" transform="translate(-793.98 -463.3)"/><path class="cls-5" d="M818.88,587c.8,0,1.13.72,1.28,1.4.1.44.27,1-.29,1.26a1.93,1.93,0,0,1-.83,0c-.48,0-.48.72,0,.75,1.27.08,2.12-.45,1.92-1.82-.17-1.13-.75-2.41-2.08-2.37-.49,0-.49.77,0,.75Z" transform="translate(-793.98 -463.3)"/><path class="cls-5" d="M822.21,586.81a.69.69,0,0,1,0,.61c-.22.43.42.81.64.38a1.5,1.5,0,0,0,0-1.37c-.19-.44-.84-.06-.65.38Z" transform="translate(-793.98 -463.3)"/><path class="cls-5" d="M826.29,587.29a.8.8,0,0,0-1.37-.82,1.67,1.67,0,0,0-.18,1.59,4.54,4.54,0,0,0,.41.9,2.24,2.24,0,0,1,.22.4c.16.14.15.24,0,.28s-.26.1-.32-.18c-.27-.4-.92,0-.65.38s1.37,1.32,1.88.41a1.27,1.27,0,0,0-.18-1.17c-.14-.27-.3-.53-.43-.8a3.33,3.33,0,0,1-.21-.52c-.11-.45,0-.4.21-.85-.2.44.45.82.65.38Z" transform="translate(-793.98 -463.3)"/><path class="cls-5" d="M832.22,587c-.38-.56-1-1.1-1.68-.56s-.57,1.79-.33,2.54.71,1.76,1.56,1.57.86-1.33.57-2a.41.41,0,0,0-.36-.28l-.37,0c-.48,0-.48.71,0,.75l.37,0-.36-.27c.09.21.54,1.25-.29.85-.22-.1-.38-.7-.43-.9a3,3,0,0,1-.11-1c.05-.52.41-.85.79-.3.27.39.92,0,.64-.38Z" transform="translate(-793.98 -463.3)"/><path class="cls-5" d="M833.3,587a9.61,9.61,0,0,1,.1,1.61,3.84,3.84,0,0,0,.06,1.31,1.09,1.09,0,0,0,1.35.76,2.21,2.21,0,0,0,1.12-1.44,5.8,5.8,0,0,0-.36-2.43c-.1-.47-.83-.27-.72.2s.24,1,.31,1.44,0,1.37-.65,1.43-.35-1.23-.36-1.64a14,14,0,0,0-.12-1.44c-.07-.47-.79-.27-.73.2Z" transform="translate(-793.98 -463.3)"/><path class="cls-5" d="M837.24,587.15l.07,3.2h.75l0-.22c0-.48-.79-.48-.75,0l0,.22c0,.47.76.49.75,0l-.07-3.2a.38.38,0,0,0-.75,0Z" transform="translate(-793.98 -463.3)"/><path class="cls-5" d="M840,587.16c-.08,0,0,2.69,0,2.94a.38.38,0,0,0,.74.1l.06-.21a.37.37,0,0,0-.72-.2L840,590l.74.1-.12-2.56c0-.4,0-1-.48-1.1s-.67.64-.2.72Z" transform="translate(-793.98 -463.3)"/><path class="cls-5" d="M840.42,587.31c.75-.2,1.11.58,1.18,1.19a2.73,2.73,0,0,1,0,.7c0,.21-.48,1.12-.81.52-.23-.43-.87-.05-.64.38a1,1,0,0,0,1.3.45,1.64,1.64,0,0,0,.92-1.45c.1-1.25-.62-2.92-2.14-2.51a.37.37,0,0,0,.2.72Z" transform="translate(-793.98 -463.3)"/><path class="cls-5" d="M843.68,586.61a11.2,11.2,0,0,0-.26,3.16c.09.89.86.92,1.65.89.48,0,.48-.77,0-.75s-.74.09-.9-.28a2.64,2.64,0,0,1,0-.93,11.91,11.91,0,0,1,.24-1.89c.09-.47-.63-.67-.73-.2Z" transform="translate(-793.98 -463.3)"/><path class="cls-5" d="M844.24,588.84a1.25,1.25,0,0,0,.93,0c.44-.18.25-.9-.2-.72a.65.65,0,0,1-.53,0c-.45-.16-.65.57-.2.73Z" transform="translate(-793.98 -463.3)"/><path class="cls-5" d="M844.11,587.15a1.19,1.19,0,0,0,1.17,0c.42-.24,0-.88-.38-.65a.34.34,0,0,1-.41,0c-.43-.22-.81.43-.38.65Z" transform="translate(-793.98 -463.3)"/><path class="cls-5" d="M849.05,587.06l1.59.05c.49,0,.49-.73,0-.75l-1.59-.05a.38.38,0,0,0,0,.75Z" transform="translate(-793.98 -463.3)"/><path class="cls-5" d="M849.38,587.13a16,16,0,0,1,.16,3.17c0,.49.73.49.75,0v-.17c0-.48-.72-.48-.75,0v.17h.75a15.86,15.86,0,0,0-.19-3.37c-.07-.48-.79-.28-.72.2Z" transform="translate(-793.98 -463.3)"/><path class="cls-5" d="M853,586.24c-1.15.48-1,1.67-.9,2.72.07.77.07,2.38,1.32,1.9a2.14,2.14,0,0,0,1.07-2.45c-.12-.84-.46-2.42-1.65-2-.46.15-.26.87.2.73s.67,1.15.71,1.38.1,1.57-.47,1.63-.42-1-.44-1.3c0-.52-.29-1.57.36-1.84.44-.18.25-.91-.2-.72Z" transform="translate(-793.98 -463.3)"/><path class="cls-5" d="M860.2,587a1,1,0,0,0-1.71-.3c-.68.75-.29,2.11-.06,3,.18.65,1,1.48,1.62.79a1.65,1.65,0,0,0,0-2.13c-.37-.32-.9.21-.53.53.15.13.33.78.09.93-.41.25-.42-.42-.47-.63s-.1-.52-.14-.78a3.19,3.19,0,0,1-.08-.63c0-.42.16-.6.61-.54.18.44.91.24.72-.2Z" transform="translate(-793.98 -463.3)"/><path class="cls-5" d="M862.75,590.05a12.68,12.68,0,0,1-.09-2.68c0-.2-.07-.32.19-.21a1,1,0,0,1,.35.52c.09.39-.21.3-.49.45a.37.37,0,0,0,0,.64,1.73,1.73,0,0,1,.63,1.44c0,.47.8.48.75,0a2.43,2.43,0,0,0-1-2.08v.64c.21-.11.45,0,.66-.18a.8.8,0,0,0,.26-.68,1.92,1.92,0,0,0-1.07-1.58.69.69,0,0,0-1,.58,14.36,14.36,0,0,0,.07,3.14c0,.48.78.48.75,0Z" transform="translate(-793.98 -463.3)"/><path class="cls-5" d="M865.69,590.22c.32-1.23.69-2.45,1.1-3.65l-.63.16c.43.42.4,1.33.47,1.88l.27,2c.05.39.62.32.72,0l0-.11a.35.35,0,0,0-.1-.36l-.07-.07c-.35-.34-.88.19-.53.53l.07.07-.09-.36,0,.1h.72l-.35-2.56a2.47,2.47,0,0,0-.58-1.61.37.37,0,0,0-.62.17c-.41,1.2-.78,2.42-1.1,3.65a.37.37,0,0,0,.72.2Z" transform="translate(-793.98 -463.3)"/><path class="cls-5" d="M865.93,589.71a4.56,4.56,0,0,0,1.22-.18.37.37,0,0,0-.2-.72,3.55,3.55,0,0,1-1,.15.38.38,0,0,0,0,.75Z" transform="translate(-793.98 -463.3)"/><path class="cls-5" d="M869.69,589.73c-.05-.42-.09-.83-.13-1.25a4.87,4.87,0,0,1-.07-1.37c.13-.55.77-.14.94.22s-.14,1-.66.77-.64.55-.2.72a1.24,1.24,0,0,0,1.57-.62,1.52,1.52,0,0,0-.55-1.81c-.42-.31-1.48-.58-1.8,0a3.33,3.33,0,0,0,0,1.44c0,.62.09,1.25.17,1.87s.8.48.75,0Z" transform="translate(-793.98 -463.3)"/><path class="cls-5" d="M872.67,586.63c-.08,1.14-.12,2.27-.1,3.42a.38.38,0,0,0,.64.26l.16-.14c.36-.33-.17-.86-.53-.53l-.16.14.64.27c0-1.15,0-2.28.1-3.42,0-.48-.71-.48-.75,0Z" transform="translate(-793.98 -463.3)"/><path class="cls-5" d="M874.24,586.54a23.8,23.8,0,0,0,.17,3.27c.06.47.81.48.75,0a23.8,23.8,0,0,1-.17-3.27.38.38,0,0,0-.75,0Z" transform="translate(-793.98 -463.3)"/><path class="cls-5" d="M873.42,588.5l1-.12c.47,0,.48-.8,0-.75l-1,.12c-.48.06-.48.81,0,.75Z" transform="translate(-793.98 -463.3)"/><path class="cls-5" d="M876.32,586.71a13.45,13.45,0,0,0,.24,3.41c.08.4.61.32.73,0l.07-.21c.17-.45-.55-.65-.72-.2l-.08.21h.73a12.35,12.35,0,0,1-.22-3.21c0-.49-.72-.49-.75,0Z" transform="translate(-793.98 -463.3)"/><path class="cls-5" d="M881.08,587.24a1.46,1.46,0,0,0-1.36-1.16c-.83,0-1,.78-1,1.44a4.13,4.13,0,0,0,.6,2.72c.56.56,1.25-.26,1.61-.65s-.21-.88-.53-.53c-.17.19-.41.58-.64.41s-.27-1.12-.29-1.3a3,3,0,0,1,0-1.07c.19-.56.74-.05.84.34s.83.27.72-.2Z" transform="translate(-793.98 -463.3)"/><path class="cls-5" d="M884.61,586.84a10.51,10.51,0,0,0,0,2.91c.06.47.79.27.72-.2a8.8,8.8,0,0,1,0-2.51c.06-.47-.66-.67-.73-.2Z" transform="translate(-793.98 -463.3)"/><path class="cls-5" d="M885,587.2c.89-.12,1.37.65,1.45,1.45,0,.3.09,1-.21,1.18s-.65.06-.91,0c-.47-.1-.67.63-.2.72a2.1,2.1,0,0,0,1.56-.12,1.72,1.72,0,0,0,.53-1.56c0-1.24-.81-2.61-2.22-2.43-.48.06-.48.81,0,.75Z" transform="translate(-793.98 -463.3)"/><path class="cls-5" d="M889,586.49c-.61.24-.52.86-.5,1.44a19,19,0,0,0,.27,2.7.36.36,0,0,0,.26.26,2.43,2.43,0,0,0,1.53-.09c.44-.17.25-.89-.2-.72a1.76,1.76,0,0,1-1.13.09l.26.26c-.09-.56-.16-1.12-.2-1.68,0-.15-.13-1.52-.09-1.53.45-.17.26-.9-.2-.73Z" transform="translate(-793.98 -463.3)"/><path class="cls-5" d="M889.35,588.91H890a.38.38,0,0,0,0-.75h-.63a.38.38,0,0,0,0,.75Z" transform="translate(-793.98 -463.3)"/><path class="cls-5" d="M889.54,587.27a.91.91,0,0,1,.74,0,.37.37,0,0,0,.2-.72,1.65,1.65,0,0,0-1.32.12c-.43.22,0,.87.38.65Z" transform="translate(-793.98 -463.3)"/><path class="cls-5" d="M893.82,586.66a1.1,1.1,0,0,0-1.81,0,1.34,1.34,0,0,0,0,1.23,5.92,5.92,0,0,0,.58,1c.1.15.21.29.3.44a1.41,1.41,0,0,1,.13.24c.18.26,0,.3-.43.14a.38.38,0,0,0-.73.2c.22.83,1.33,1.37,1.88.48a1.27,1.27,0,0,0-.09-1.25c-.18-.34-.44-.65-.65-1a1.59,1.59,0,0,1-.31-.64.26.26,0,0,1,0-.39c.09-.23.25-.24.49,0,.28.38.93,0,.64-.38Z" transform="translate(-793.98 -463.3)"/><path class="cls-5" d="M895.46,586.62c-.05,1.27-.05,2.53,0,3.79a.37.37,0,0,0,.73.1l.15-.36c.18-.45-.55-.64-.73-.2l-.14.36.74.1c0-1.26,0-2.52,0-3.79a.38.38,0,0,0-.75,0Z" transform="translate(-793.98 -463.3)"/><path class="cls-5" d="M899.79,587.14c-.39-.71-1.43-1.58-2.1-.62a3.81,3.81,0,0,0-.06,3.31c.37.76,1.43,1.39,2,.42.33-.6.54-2.27-.6-2a.37.37,0,0,0,.2.72c-.4.11.12.77-.45.81s-.64-.85-.67-1.25a4,4,0,0,1,.1-1.15,1,1,0,0,1,.09-.38c.44-.42.75.25.88.49a.38.38,0,0,0,.65-.38Z" transform="translate(-793.98 -463.3)"/><path class="cls-5" d="M902.07,590.13c.08-1.14.1-2.27.07-3.4l-.7.18c.63,1,.68,2.29,1.4,3.27a.38.38,0,0,0,.7-.19,12.61,12.61,0,0,0,0-3.47c-.08-.47-.8-.27-.73.2a11.56,11.56,0,0,1,0,3.27l.7-.19c-.72-1-.78-2.24-1.4-3.26a.38.38,0,0,0-.7.19c0,1.13,0,2.26-.07,3.4,0,.48.72.48.75,0Z" transform="translate(-793.98 -463.3)"/></svg>