<svg id="Calque_1" data-name="Calque 1" xmlns="http://www.w3.org/2000/svg" viewBox="0 0 141.96 116.19"><defs><style>.cls-1{fill:#fff;stroke:#26291c;stroke-miterlimit:10;}.cls-2{fill:#b17f4a;}.cls-3{fill:#14092c;}.cls-4{opacity:0.33;}.cls-5{fill:#432918;}.cls-6{fill:#1d1d1b;}</style></defs><title>36</title><rect class="cls-1" x="4.84" y="5.03" width="128.58" height="104.4"/><path class="cls-2" d="M785,486.35c.21-.5,15.26-4.47,53.33-3.69,33.65,0,82.35.06,83.86,0,1.25,48.66,2.76,55.39.18,110.78h-.18c-.2.49-15.26,4.47-53.32,3.68-33.65,0-82.36,0-83.87,0l-.34.63c-1.24-48.66-2.75-55.39-.17-110.77Zm7.36,9.09c-2.28,46.57-.94,52.23.16,93.15l.3-.53c1.34,0,44.48,0,74.28,0,33.72.66,47-2.68,47.24-3.1h.15c2.28-46.58,1-52.23-.15-93.15-1.34,0-44.48,0-74.28,0-33.72-.66-47.06,2.68-47.24,3.1Z" transform="translate(-782.59 -482.06)"/><path class="cls-3" d="M785.45,486.6c-.16.24.81-.2,1.19-.3,1.18-.31,2.39-.54,3.59-.75a143.55,143.55,0,0,1,14.64-1.7c17-1.26,34.18-.69,51.26-.69l47.82,0h14.9c.68,0,2.52-.35,3.13,0,.39.22-.3,0-.25.36.14,1.1.06,2.28.09,3.39.06,2.38.13,4.77.2,7.15.4,13.55,1,27.11,1.19,40.67.22,14.26-.11,28.53-.65,42.78q-.13,3.47-.28,6.92c0,1.23-.11,2.45-.16,3.68s.19,3.38,0,4.57c-.08.45-.1.36-.79.58a46.64,46.64,0,0,1-7.86,1.52c-15.24,2.14-30.62,1.83-46,1.83-27.18,0-54.37-.32-81.54,0-1,0-1.21,0-1.72.89l.93.25c-.7-27.18-2-54.33-1.3-81.53q.2-6.87.46-13.75.15-3.93.32-7.86l.21-4.69c0-1.07-.19-2.38.51-3.22.4-.49-.3-1.2-.71-.71-.81,1-.69,1.59-.75,3-.13,2.79-.25,5.57-.37,8.36q-.28,6.93-.52,13.85c-.23,7.24-.39,14.49-.43,21.74-.06,12.36.33,24.72.74,37.08q.46,13.89.84,27.77a.5.5,0,0,0,.93.25c.36-.66-.19-.27.18-.38a3.37,3.37,0,0,1,.84,0h14.64l35.53,0q20.33,0,40.65.1a275,275,0,0,0,34.31-1.64,86.1,86.1,0,0,0,8.58-1.39,14.47,14.47,0,0,0,2-.54l.48-.2c.58-.19-.12,0,0,0a.51.51,0,0,0,.5-.5c.74-16,1.38-31.93,1.41-47.9,0-11.92-.37-23.82-.77-35.73q-.45-13.57-.82-27.15a.5.5,0,0,0-.5-.5c-17.18.51-34.45,0-51.65,0q-20.13,0-40.27-.11a275.44,275.44,0,0,0-34.1,1.62,87.79,87.79,0,0,0-8.69,1.39c-.73.16-2.44.3-2.91,1C784.23,486.64,785.1,487.14,785.45,486.6Z" transform="translate(-782.59 -482.06)"/><path class="cls-3" d="M791.87,495.44c-1.14,23.49-1.39,46.83-.57,70.33q.41,11.4.73,22.82a.5.5,0,0,0,.93.25c.34-.59-.33-.11.21-.28a2.9,2.9,0,0,1,.78,0h13.29l31.7,0c11.91,0,23.82.06,35.73.09a255.65,255.65,0,0,0,29.93-1.38c2.56-.3,5.14-.63,7.67-1.18.59-.13,1.19-.27,1.77-.45.15,0,.29-.12.44-.16.42-.14.22,0,0,0a.51.51,0,0,0,.5-.5c1.15-23.49,1.39-46.83.57-70.33q-.41-11.42-.72-22.82a.51.51,0,0,0-.5-.5c-15.6.42-31.27,0-46.87,0-12,0-23.91-.09-35.87-.09a247.76,247.76,0,0,0-29.84,1.47,70,70,0,0,0-7.22,1.17,3.9,3.9,0,0,0-2.53,1.22c-.42.49.28,1.2.71.71.59-.69.21-.49,1.07-.72s1.78-.42,2.68-.59A114.46,114.46,0,0,1,808,493.07c14.74-1.21,29.54-.77,44.31-.77l43,0h14.38a30.27,30.27,0,0,1,3.81,0c.11,0,.7-.08.77,0-.32-.39-.36,1.5-.35,1.65,0,1.25.07,2.49.1,3.73.74,24.73,1.59,49.3.59,74-.09,2.19-.19,4.37-.28,6.55-.05.93-.09,1.87-.13,2.8a15.34,15.34,0,0,0-.09,1.92,11.21,11.21,0,0,0,.18,1.48c-.07.19-.43.2-.9.33a57,57,0,0,1-7.58,1.33c-13.42,1.68-26.93,1.43-40.42,1.43q-22,0-44,0c-9.21,0-18.45-.24-27.66,0-.87,0-1.11,0-1.6.79l.94.25c-.61-22.47-1.79-44.92-1.18-67.41.23-8.58.6-17.17,1-25.74C792.9,494.79,791.9,494.79,791.87,495.44Z" transform="translate(-782.59 -482.06)"/><g class="cls-4"><path class="cls-5" d="M785.1,487.09c.35,3.74,4.47,6,5.65,9.59a13,13,0,0,1,.44,4.09c.06,29.14,1.28,58.68,1.34,87.82,15.26,0,29.36-.32,44.63-.28l40.75.11c12.46,0,25.13,0,37.05-3.58-4.22,2.7-6.55,7.81-11,10.16-3.14,1.68-6.86,1.71-10.42,1.7-36.08-.07-72.47.5-108.56.42-.5-17.47-.7-35.58-1.2-53-.44-15.05-.87-30.14.26-45.17.33-4.44.49-7.39,1-11.81" transform="translate(-782.59 -482.06)"/><path class="cls-5" d="M784.61,487.22c.48,3.06,2.8,4.95,4.48,7.37,2.49,3.61,1.6,8.88,1.64,13.06.06,8.88.22,17.76.41,26.64.37,18.1.84,36.2.89,54.3a.5.5,0,0,0,.5.5c20.84,0,41.67-.29,62.52-.23,10.42,0,20.86.18,31.29,0,9.7-.13,19.41-.81,28.76-3.58l-.39-.91c-5.31,3.61-7.87,10.12-14.69,11.41-3.7.69-7.63.38-11.37.38q-6.4,0-12.82,0c-16.46,0-32.92.18-49.39.29q-12.33.07-24.68.11c-3.94,0-7.88,0-11.82,0a20.89,20.89,0,0,1-3,0c-1.52-.25-1.21.08-1.52-1.42-.43-2.07-.12-4.59-.17-6.71-.39-16.12-.64-32.24-1.09-48.35-.5-17.7-.67-35.45,1.4-53.06.07-.64-.93-.63-1,0-2.12,18.1-1.88,36.34-1.36,54.53.53,18.5.74,37,1.27,55.5a.51.51,0,0,0,.5.5c18.76,0,37.51-.09,56.26-.22,9.22-.06,18.44-.13,27.66-.16s18.38.28,27.53-.07c3.62-.14,7.07-.86,9.94-3.2,3.22-2.63,5.34-6.34,8.82-8.7a.5.5,0,0,0-.39-.91c-14.37,4.25-29.56,3.58-44.38,3.54-15.33,0-30.67-.17-46,0-7.37.06-14.73.16-22.1.21l-4.87,0a18.28,18.28,0,0,1-3,0c-1.55-.26-1.21.07-1.49-1.46a31.07,31.07,0,0,1,0-4.92q0-3.45-.07-6.9c-.19-15.15-.59-30.3-.88-45.46-.17-8.54-.3-17.09-.34-25.64,0-3.1.31-6.31-1.38-9.07s-4.25-4.5-4.74-7.68c-.1-.64-1.06-.37-1,.26Z" transform="translate(-782.59 -482.06)"/></g><path class="cls-3" d="M785.71,486.6c-.16.24.81-.2,1.2-.3,1.18-.31,2.38-.54,3.58-.75a143.88,143.88,0,0,1,14.64-1.7c17-1.26,34.18-.69,51.26-.69l47.82,0h14.9c.69,0,2.52-.35,3.13,0,.39.22-.3,0-.25.36.14,1.1.06,2.28.09,3.39.06,2.38.13,4.77.2,7.15.41,13.55,1,27.11,1.19,40.67.23,14.26-.1,28.53-.65,42.78q-.14,3.47-.28,6.92c0,1.23-.1,2.45-.16,3.68s.19,3.38,0,4.57c-.08.45-.1.36-.79.58a46.45,46.45,0,0,1-7.86,1.52c-15.24,2.14-30.62,1.83-46,1.83-27.18,0-54.37-.32-81.54,0-1,0-1.21,0-1.72.89l.93.25c-.7-27.18-2-54.33-1.29-81.53.12-4.58.28-9.16.45-13.75.11-2.62.21-5.24.33-7.86.06-1.56.13-3.13.2-4.69,0-1.07-.18-2.38.51-3.22.41-.49-.3-1.2-.71-.71-.81,1-.69,1.59-.75,3-.13,2.79-.25,5.57-.37,8.36-.19,4.62-.37,9.23-.51,13.85-.24,7.24-.4,14.49-.43,21.74-.07,12.36.32,24.72.73,37.08q.46,13.89.84,27.77a.5.5,0,0,0,.93.25c.36-.66-.19-.27.19-.38a3.29,3.29,0,0,1,.83,0H801l35.53,0q20.33,0,40.66.1a274.81,274.81,0,0,0,34.3-1.64,86.1,86.1,0,0,0,8.58-1.39,14.25,14.25,0,0,0,2-.54l.48-.2c.57-.19-.12,0,0,0a.51.51,0,0,0,.5-.5c.74-16,1.38-31.93,1.41-47.9,0-11.92-.37-23.82-.77-35.73q-.45-13.57-.81-27.15a.51.51,0,0,0-.5-.5c-17.19.51-34.46,0-51.65,0q-20.15,0-40.28-.11a275.44,275.44,0,0,0-34.1,1.62c-2.91.35-5.82.75-8.69,1.39-.72.16-2.44.3-2.91,1C784.5,486.64,785.36,487.14,785.71,486.6Z" transform="translate(-782.59 -482.06)"/><path class="cls-3" d="M792.14,495.44c-1.15,23.49-1.4,46.83-.57,70.33q.39,11.4.72,22.82a.5.5,0,0,0,.93.25c.35-.59-.33-.11.21-.28a2.91,2.91,0,0,1,.78,0H807.5l31.7,0c11.91,0,23.82.06,35.74.09a255.58,255.58,0,0,0,29.92-1.38c2.57-.3,5.14-.63,7.67-1.18.6-.13,1.19-.27,1.77-.45.15,0,.29-.12.44-.16.42-.14.23,0,0,0a.51.51,0,0,0,.5-.5c1.15-23.49,1.4-46.83.57-70.33q-.39-11.42-.72-22.82a.5.5,0,0,0-.5-.5c-15.6.42-31.26,0-46.86,0-12,0-23.92-.09-35.88-.09A247.86,247.86,0,0,0,802,492.69a70,70,0,0,0-7.22,1.17,3.93,3.93,0,0,0-2.53,1.22c-.42.49.29,1.2.71.71.59-.69.21-.49,1.07-.72s1.78-.42,2.68-.59a114.66,114.66,0,0,1,11.54-1.41c14.73-1.21,29.53-.77,44.3-.77l43,0h14.38a30.28,30.28,0,0,1,3.81,0c.11,0,.7-.08.77,0-.32-.39-.36,1.5-.35,1.65,0,1.25.07,2.49.11,3.73.73,24.73,1.58,49.3.58,74q-.14,3.28-.28,6.55c0,.93-.09,1.87-.13,2.8a15.34,15.34,0,0,0-.09,1.92,13.24,13.24,0,0,0,.18,1.48c-.07.19-.43.2-.9.33a57.1,57.1,0,0,1-7.57,1.33c-13.42,1.68-26.93,1.43-40.43,1.43q-22,0-44,0c-9.21,0-18.46-.24-27.66,0-.87,0-1.12,0-1.6.79l.93.25c-.61-22.47-1.79-44.92-1.18-67.41.23-8.58.61-17.17,1-25.74C793.17,494.79,792.17,494.79,792.14,495.44Z" transform="translate(-782.59 -482.06)"/><path class="cls-6" d="M834.37,537.73a5.47,5.47,0,0,0,1.26-5.52.5.5,0,0,0-.91-.11,4.27,4.27,0,0,0-1.19,3.21,2.44,2.44,0,0,0,1.41,2c1.61.62,3.32-1.52,2-2.83a.47.47,0,0,0-.48-.12c-1.71.6-.69,3.26,1,2.92a2.32,2.32,0,0,0,1.67-2.06,4.22,4.22,0,0,0-1.28-3.28.51.51,0,0,0-.84.22,5.3,5.3,0,0,0,1.5,5.37c.48.43,1.19-.27.71-.71a4.28,4.28,0,0,1-1.24-4.39l-.84.22a3,3,0,0,1,.94,2.74c-.13.4-.47,1-1,.89-.25,0-.9-.77-.38-1l-.48-.13c.44.46-.13,1.12-.62,1.19s-.95-.44-1.1-1c-.3-1.07.41-2,1-2.82l-.91-.12a4.47,4.47,0,0,1-1,4.55c-.44.46.26,1.17.71.7Z" transform="translate(-782.59 -482.06)"/><path class="cls-6" d="M841.14,537.32a7.09,7.09,0,0,0,.36-5.44.5.5,0,0,0-.83-.22,3.24,3.24,0,0,0,.9,5.06.51.51,0,0,0,.74-.3L843,534a.5.5,0,0,0-1-.27,3.69,3.69,0,0,0,.85,3.86.51.51,0,0,0,.79-.1l.83-1.44h-.86l.88,1.37c.35.54,1.22,0,.87-.5l-.89-1.37a.5.5,0,0,0-.86,0l-.84,1.44.79-.11A2.68,2.68,0,0,1,843,534l-1-.27-.7,2.42.74-.3a2.22,2.22,0,0,1-.71-3.48l-.83-.22a6.12,6.12,0,0,1-.26,4.66c-.28.58.58,1.09.86.51Z" transform="translate(-782.59 -482.06)"/><path class="cls-6" d="M847,537.17a11.57,11.57,0,0,0-1.08-6.18c-.22-.48-.9-.2-.93.25a20,20,0,0,0,.31,4.89.49.49,0,0,0,.48.37l4.26.3c.65,0,.64-1,0-1l-4.26-.3.48.37a19.42,19.42,0,0,1-.27-4.63l-.93.25a10.68,10.68,0,0,1,.94,5.68c-.06.64.94.63,1,0Z" transform="translate(-782.59 -482.06)"/><path class="cls-6" d="M853.42,535.26a.93.93,0,0,0-.24,1.68c.5.29.79-.12,1.17-.38a3.79,3.79,0,0,1,1.75-.64c.63-.06.64-1.06,0-1a4.92,4.92,0,0,0-2.87,1.27l.36-.15s.34.15.1.19c.63-.09.36-1.05-.27-1Z" transform="translate(-782.59 -482.06)"/><path class="cls-6" d="M838.32,541.49l2.4.45c.07.41.57.43.83.22,1.81-1.44,4-.92,6.11-.8,2,.11,3.93.23,5.9.33.64,0,.64-1,0-1l-7.86-.44c-2.6-.16-2.89-.36-4.86,1.2l.84.22a2.3,2.3,0,0,0-4.23-.69.5.5,0,0,0,.87.51Z" transform="translate(-782.59 -482.06)"/><path class="cls-6" d="M840.91,545.33l11.65.58c.64,0,.64-1,0-1l-11.65-.58c-.65,0-.64,1,0,1Z" transform="translate(-782.59 -482.06)"/></svg>