<svg id="Calque_1" data-name="Calque 1" xmlns="http://www.w3.org/2000/svg" viewBox="0 0 81.47 60.43"><defs><style>.cls-1{fill:#5297d2;}.cls-2{fill:#ebc700;}.cls-3{fill:#f4d5b2;}.cls-4{fill:#3c8174;}.cls-5{fill:#2b1f11;}.cls-6{fill:#edc088;}.cls-7{opacity:0.27;}.cls-8{fill:#b17f4a;}.cls-9{fill:#62402f;}.cls-10{fill:#1d1d1b;}.cls-11{opacity:0.68;}.cls-12{fill:#432b1d;}</style></defs><title>37</title><path class="cls-1" d="M823,520.49a75.54,75.54,0,0,0-.29,14.19l.74,17.85c0,.9.17,2,.94,2.41a2.31,2.31,0,0,0,2-.06c2.83-1.11,4.67-3.86,7.29-5.42,2.33-1.39,5.13-1.73,7.84-1.94a98.6,98.6,0,0,1,24.8,1.31c6.21,1.13,12.48,2.86,18.73,2a3.21,3.21,0,0,0,1.57-.54,3.17,3.17,0,0,0,1-1.88c.82-3.52.49-7.2.16-10.8-.57-6.28-1.15-12.61-2.83-18.69a6.81,6.81,0,0,0-1.85-3.55c-1.26-1.08-3.08-1.17-4.74-1.15a176.85,176.85,0,0,0-17.92,1.69,286.14,286.14,0,0,1-38.82,1.9" transform="translate(-813.15 -510.15)"/><path class="cls-1" d="M822.48,520.49c-1,7.31-.27,14.78,0,22.12.14,3.43-.16,7.24.47,10.61.3,1.62,1.09,2.59,2.83,2.34,2.24-.32,4.12-2.49,5.74-3.9,3.2-2.78,6.75-3.44,10.87-3.7a97,97,0,0,1,22.77,1.19c6.44,1.1,13.34,3.31,19.93,2.12,2.1-.38,2.71-1.67,3.07-3.65a37.17,37.17,0,0,0,0-10c-.59-6.56-.86-13.92-3.26-20.13-2-5.29-8.78-3.79-13.28-3.38-8.3.75-16.53,2-24.85,2.57s-16.84.78-25.27.64c-.64,0-.64,1,0,1a290,290,0,0,0,37.85-1.79c6.27-.72,12.56-1.77,18.89-1.8,2,0,4,.1,5.17,1.92a10.51,10.51,0,0,1,1.18,3.33,78.74,78.74,0,0,1,1.87,10.57c.34,3,.63,5.92.86,8.88.22,2.7,1.27,9.49-1.94,10.83-2.71,1.13-7.4.23-10.13-.19-3.14-.48-6.23-1.2-9.36-1.75a97.92,97.92,0,0,0-17.76-1.51c-5,0-11.12-.24-15.43,2.68-1.94,1.31-6.73,7.52-8.81,3.09-.55-1.18-.15-3.6-.2-5l-.23-5.45c-.3-7.18-1-14.47,0-21.63.09-.63-.92-.63-1,0Z" transform="translate(-813.15 -510.15)"/><path class="cls-2" d="M819.05,553.08c6.33-1.72,11.25-6.83,17.45-9a39.81,39.81,0,0,1,10-1.63,47.79,47.79,0,0,1,11.71,0c5.34.9,10.26,3.59,15.62,4.33,3.17.44,6.38.17,9.57.34a6.2,6.2,0,0,1,2.73.61,5.73,5.73,0,0,1,2.21,3,19.49,19.49,0,0,1,.88,12,3.53,3.53,0,0,1-1.07,2,3.59,3.59,0,0,1-1.49.59c-17.76,4.09-36.31.33-54.51,1.23a32.6,32.6,0,0,1-7.19-.09,9.18,9.18,0,0,1-6.07-3.49,6.82,6.82,0,0,1,.3-7.93" transform="translate(-813.15 -510.15)"/><path class="cls-2" d="M819.18,553.57c4.13-1.22,7.62-3.64,11.25-5.86a31.81,31.81,0,0,1,14.66-4.63c5.22-.45,10.46-.87,15.59.49,4.72,1.26,9.17,3.4,14.07,3.88,2.55.25,5.11.1,7.67.19,2,.08,3.52.17,4.79,2a12.39,12.39,0,0,1,1.54,4.14c.55,2.38.9,5.56.14,7.94-1.24,3.93-6.28,4-9.79,4.37-10.49,1.26-21.08.42-31.6,0-6-.24-12-.12-18.09.06-2.82.09-5.83-.06-8.26-1.68a6.37,6.37,0,0,1-1.56-9.2c.38-.53-.49-1-.86-.51a7.35,7.35,0,0,0,1.34,10.16c4.39,3.44,10.77,2.06,15.88,2,13.13-.22,26.25,1.52,39.37.55a83.74,83.74,0,0,0,8.63-1.09c2.16-.4,4.58-.5,5.5-2.79,1.69-4.22,1.13-11.48-1.81-15.06-1.14-1.39-2.55-1.7-4.27-1.83-3.44-.25-6.89.13-10.32-.46-6-1-11.41-4.09-17.55-4.52a68.12,68.12,0,0,0-10.87.41,33.58,33.58,0,0,0-9,1.78c-5.92,2.28-10.58,6.9-16.72,8.71a.5.5,0,0,0,.27,1Z" transform="translate(-813.15 -510.15)"/><path class="cls-3" d="M848,524.19a4.79,4.79,0,0,0,.22,3.46,2.2,2.2,0,0,0,3,.9,2.83,2.83,0,0,0,.88-2.24c0-1.53-.45-3.28-1.84-3.92a1.34,1.34,0,0,0-1.09-.08,1.5,1.5,0,0,0-.64.63,4.15,4.15,0,0,0-.61,2" transform="translate(-813.15 -510.15)"/><path class="cls-3" d="M847.51,524.06c-.4,1.84-.36,4.21,1.67,5.07,1.79.76,3.16-.53,3.39-2.28s-.26-3.92-1.91-4.81c-2-1.12-3.07,1.21-3.23,2.9-.06.64.94.63,1,0,.08-.85.41-2.67,1.87-2a2.18,2.18,0,0,1,.86,1,4.76,4.76,0,0,1,.44,2.52c-.11,1.46-1.39,2.53-2.63,1.32-.92-.89-.74-2.37-.49-3.49.13-.62-.83-.89-1-.26Z" transform="translate(-813.15 -510.15)"/><path class="cls-3" d="M849.11,528.7l0,2.08a.5.5,0,0,0,.5.5,5.49,5.49,0,0,1,1.34.13c.29.06.67-.14.63-.48l-.19-2.09c-.06-.64-1.07-.64-1,0l.19,2.09.64-.48a6.73,6.73,0,0,0-1.61-.17l.5.5,0-2.08a.5.5,0,0,0-1,0Z" transform="translate(-813.15 -510.15)"/><path class="cls-3" d="M849.76,530.94l-5.38.38a1.26,1.26,0,0,0-1.23.7l-2.29,3.41a1.57,1.57,0,0,0-.35.83c0,.57.57.94,1.06,1.22a24,24,0,0,1,6.81,5.79c.19-1.59-1-3-2.33-3.94s-2.8-1.62-2.89-3.08a2,2,0,0,1,2.05-2c.34,3.23.84,5.11,3.51,9,.19.27,0,.71.23.92a1.07,1.07,0,0,0,.64.19l2.46.16c2.78-4.16,1.88-6.77,1.76-10.73a14.11,14.11,0,0,1,3.24,2.4,1.36,1.36,0,0,1,.53,1,1.45,1.45,0,0,1-.31.75c-1.29,1.93-1.53,4.28-4.43,5.37a37.58,37.58,0,0,0,5.58-6,1.21,1.21,0,0,0-.06-1.9,15.8,15.8,0,0,0-3.23-3.15,5.25,5.25,0,0,0-4.31-.81" transform="translate(-813.15 -510.15)"/><path class="cls-3" d="M849.76,530.44c-1.77.12-4.85-.29-6.43.66a6.52,6.52,0,0,0-1.52,2,11.16,11.16,0,0,0-1.67,2.56c-.33,1.11.34,1.63,1.18,2.22a31.58,31.58,0,0,1,6.7,5.72.51.51,0,0,0,.86-.36,5,5,0,0,0-2-4c-.52-.42-1.11-.73-1.65-1.12l-.9-.73.47-2.61s.45,2.54.49,2.67c.58,2.14,1.85,3.78,2.79,5.74s1.78,1.57,4,1.71a.52.52,0,0,0,.43-.25c2.28-3.63,2-6.86,1.83-11l-.75.43c.86.5,2.82,1.38,3.14,2.32s-.34,1.91-.69,2.6a6.81,6.81,0,0,1-3.43,3.69l.61.79a40,40,0,0,0,5.09-5.32c.69-.89,1.34-1.61.84-2.73-1.32-3-5.29-5.28-8.43-4.62-.63.13-.37,1.1.26,1,2.57-.53,8.44,2.6,6.57,5.73a24.92,24.92,0,0,1-5,5.27c-.46.4.13,1,.61.79,2.42-1.08,3.51-3.27,4.61-5.56s-1.94-3.8-3.64-4.78a.5.5,0,0,0-.75.43c.08,1.94.89,12.3-3.46,10-1.09-.59-2.1-2.82-2.72-4.09a15.88,15.88,0,0,1-1.42-5.4c0-.24-.21-.54-.5-.5-1.54.19-2.81,1.27-2.47,2.95.63,3.1,5.15,2.87,5.14,6.6l.85-.35a26.93,26.93,0,0,0-3.44-3.48c-1-.79-2.21-1.36-3.11-2.19s-.87-1.29-.43-2.25a10.23,10.23,0,0,1,1.38-2c1.74-1.6,4.43-1.36,6.63-1.51.64-.05.64-1.05,0-1Z" transform="translate(-813.15 -510.15)"/><path class="cls-3" d="M849.57,528.7a8.38,8.38,0,0,0,.19,2.23c.13.63,1.1.36,1-.27a7.18,7.18,0,0,1-.15-2c0-.65-1-.65-1,0Z" transform="translate(-813.15 -510.15)"/><path class="cls-4" d="M848.59,543.91a31.55,31.55,0,0,0-3.25,9.67,5.89,5.89,0,0,1,4-.23,14.82,14.82,0,0,1,.92-6.39l1.36,5.91a.54.54,0,0,0,.76.5l3.41-.53L854.46,548a15.89,15.89,0,0,0-1.26-3.46,1.2,1.2,0,0,0-.49-.55,1.18,1.18,0,0,0-.59-.05l-3,.19" transform="translate(-813.15 -510.15)"/><path class="cls-4" d="M848.16,543.66a33.88,33.88,0,0,0-3.3,9.79c-.06.34.22.76.61.61a6.05,6.05,0,0,1,3.76-.22.51.51,0,0,0,.64-.49,15.82,15.82,0,0,1,.9-6.25h-1l.94,4.06c.14.58.2,2.06.77,2.5,1,.76,3.41-.18,4.44-.34a.5.5,0,0,0,.35-.61,50,50,0,0,0-2.34-7.82c-1-2.14-2.65-1.45-4.79-1.31-.64,0-.65,1,0,1s2.24-.44,3-.19c1.15.39,1.34,1.94,1.66,3,.55,1.86,1,3.74,1.56,5.6l.35-.61a16.15,16.15,0,0,1-2.05.32c-1.2,0-1.42-.34-1.85-1.42a30,30,0,0,1-1-4.43.51.51,0,0,0-1,0,16.63,16.63,0,0,0-.93,6.52l.63-.48a7.06,7.06,0,0,0-4.29.23l.61.62a33.28,33.28,0,0,1,3.21-9.56c.29-.57-.57-1.08-.87-.5Z" transform="translate(-813.15 -510.15)"/><path class="cls-3" d="M847.27,553.9l-.29-.28a.51.51,0,0,0-.85.36l-.5,4.08c-.08.67-.33,1.68.55,1.92a1.13,1.13,0,0,0,1.33-1,17.76,17.76,0,0,0,0-3.79h-1a14.56,14.56,0,0,1-.14,2.47l1,.14c0-.85.18-1.66.22-2.49,0-.1.13-.79,0-.45a4,4,0,0,0-.14,1.12l-.29,2.2c-.06.43-.23.91,0,1.3a.5.5,0,0,0,.68.17l.1,0a.52.52,0,0,0,.18-.68l0-.08c-.28-.58-1.14-.07-.86.51l0,.07.18-.68-.09,0,.68.18c-.14-.21.18-1.32.21-1.59.09-.67.19-1.34.27-2s.16-1.41-.54-1.64c-1.68-.54-1.58,3.24-1.58,4.06,0,.54.9.7,1,.13a15.71,15.71,0,0,0,.18-2.74.5.5,0,0,0-1,0v2c0,.39,0,.8,0,1.2,0,.69,0,.35.05-.14l.52-4.29-.86.35.3.28c.46.45,1.17-.26.7-.71Z" transform="translate(-813.15 -510.15)"/><path class="cls-3" d="M853.52,554.43a11.45,11.45,0,0,0,.33,4.28c.11.45.88.51,1,0a24,24,0,0,0,.26-5.08.5.5,0,0,0-1,0,13.81,13.81,0,0,0,1,5.61.5.5,0,0,0,1-.13,13.83,13.83,0,0,0-.48-4.05.5.5,0,0,0-1,.13,7.44,7.44,0,0,0,.48,2.32.5.5,0,0,0,1-.27l-.7-3c-.12-.54-1.05-.43-1,.13a33.78,33.78,0,0,0,.91,4.69l.12-.49c-.48.43-1-.55-1-.9a5,5,0,0,1,.22-1.22,5,5,0,0,0,.09-1.8c-.1-.64-1.06-.37-1,.26.21,1.36-.95,3,.1,4.18a1.53,1.53,0,0,0,2.22.19.5.5,0,0,0,.13-.48,31.82,31.82,0,0,1-.87-4.43l-1,.14.7,3,1-.27a6.54,6.54,0,0,1-.44-2l-1,.13a13.11,13.11,0,0,1,.44,3.79l1-.13a13.22,13.22,0,0,1-1-5.35h-1a22.85,22.85,0,0,1-.22,4.82h1a10.9,10.9,0,0,1-.29-4c.06-.64-.94-.64-1,0Z" transform="translate(-813.15 -510.15)"/><path class="cls-5" d="M848.36,524.06l-.9-.71,1-.13-.37-.48c.24.4,1,.26.93-.25l.38,0a.51.51,0,0,0,1,0l.49.55c0,.58.83.67,1,.14l.46,0a.51.51,0,0,0,.86.36.54.54,0,0,1,.36.8l.64-.49-.1,0,.37.48a.86.86,0,0,0-.8,1l.61.08c-.19-.23-.72-2.65-1.56-1.75H852l.26.79.75-.43-.09-.19-.79.11a1.9,1.9,0,0,1,.78,1.86l.64-.48-.36-.21c-.39-.47-1,.13-.78.61a1.62,1.62,0,0,0,.93,1.21l-.75.43,0-.15.57.73.26-.52c.29-.58-.57-1.08-.86-.51l-.26.52a.51.51,0,0,0,.56.74c1-.2,1-1.14.28-1.68-.32-.23-.74.09-.75.44a.71.71,0,0,0,1.07.64c.78-.48.12-1.79-.14-2.36l-.78.61a1,1,0,0,0,.79.46.5.5,0,0,0,.63-.48,2.78,2.78,0,0,0-1.07-2.57.51.51,0,0,0-.79.1,1.06,1.06,0,0,0,.46,1.55.5.5,0,0,0,.75-.43,1.71,1.71,0,0,0-.56-1.5.5.5,0,0,0-.7,0,.84.84,0,0,0,.06,1.29c.38.32.72.25,1,.81a4,4,0,0,0,.5,1.06.51.51,0,0,0,.61.08,1.51,1.51,0,0,0,.14-2.49.49.49,0,0,0-.51,0,.67.67,0,0,0-.34.66.52.52,0,0,0,.36.49l.1,0a.5.5,0,0,0,.63-.48c.15-1.24-.9-2.6-2.07-1.51l.85.35a1.22,1.22,0,0,0-2.42-.22l1,.13c.11-1.56-2-2.62-2.46-.81h1a1.18,1.18,0,1,0-2.35.29l.93-.25a.84.84,0,0,0-1.14-.37c-.64.31-.52,1.06-.32,1.61s1,.47,1-.13c0-.77-.8-1.82-1.56-1s.33,2.3,1.2,2.63c.6.23.86-.74.26-1Z" transform="translate(-813.15 -510.15)"/><path class="cls-5" d="M849.29,521.77c-1.39-.21-2,.83-2.23,2.05a.5.5,0,0,0,1,.27c.19-.53.16-1.39-.6-1.41-1.06,0-1,1.6-1,2.25a.51.51,0,0,0,.86.35l.26-.27a.51.51,0,0,0-.22-.84c-1.18-.38-1.6,1.65-1.09,2.41a1.11,1.11,0,0,0,2.06-.59.5.5,0,0,0-.85-.36,2.61,2.61,0,0,0-.32,3.13.5.5,0,0,0,.86-.5,1.63,1.63,0,0,1,.16-1.92l-.85-.35.09-1-.49.13.16,0-.22-.84-.26.28.85.35a1.73,1.73,0,0,1,.24-1.32h-.5l-.11.21,1,.27c.1-.46.24-1.47,1-1.36s.9-.87.27-1Z" transform="translate(-813.15 -510.15)"/><path class="cls-6" d="M848.54,522.85a6.69,6.69,0,0,0,.07,4.92l.84-.49a2.66,2.66,0,0,1-1.11-2.42.5.5,0,0,0-1,0,4.83,4.83,0,0,0,2.11,4.21l.38-.91-1.14-.9-.68.68c1.54,1.08,1,1.43.89,2.95l.64-.49a6.39,6.39,0,0,0-6.85,1.69c-1.19,1.19-3.19,3.52-2,5.24a.5.5,0,0,0,.91-.12,5.33,5.33,0,0,1,2.92-3.66c.5-.25.15-1.08-.39-.91a3.75,3.75,0,0,0-2.38,5.46l.68-.69-.82-.41c-.47-.24-1.07.41-.6.78a50.51,50.51,0,0,0,4.49,3.18.51.51,0,0,0,.61-.79c-2-2-4.44-6-.77-7.85l-.61-.79a6.55,6.55,0,0,0-2.47,6,.5.5,0,0,0,1,0c.08-2.33.53-4.88,3.07-5.75l-.63-.49c0,1.2-.78,2.42-.91,3.62a6.57,6.57,0,0,0,.43,3c.17.5,1,.46,1-.13a11.83,11.83,0,0,1,.86-6.2l-.91-.39a20,20,0,0,0-.76,8.17.5.5,0,0,0,.93.25,5,5,0,0,0,.91-2.11c.12-.63-.84-.9-1-.26a3.26,3.26,0,0,1-.8,1.87l.93.25a19.37,19.37,0,0,1,.72-7.9c.16-.53-.65-.9-.91-.39a12.71,12.71,0,0,0-1,6.71l1-.14a6.21,6.21,0,0,1,.23-4.62,3.76,3.76,0,0,0,.29-1.74.51.51,0,0,0-.64-.48c-3,1-3.7,3.86-3.8,6.72h1a5.68,5.68,0,0,1,2.18-5.33c.46-.38-.13-1-.61-.79-4.23,2.13-1.94,7,.57,9.43l.61-.79a51,51,0,0,1-4.3-3l-.6.78.82.42a.51.51,0,0,0,.68-.69c-.62-2.18,0-3.51,1.79-4l-.39-.91a6.15,6.15,0,0,0-3.37,4.25l.91-.12c-.82-1.21,1.36-3.58,2.12-4.28a5.4,5.4,0,0,1,5.62-1.17.5.5,0,0,0,.63-.48l.38-1.64a.53.53,0,0,0-.08-.6,7.41,7.41,0,0,0-1.69-1.57c-.43-.3-.9.27-.68.68a2.35,2.35,0,0,0,1.74,1.36c.58.16.81-.59.38-.91a3.53,3.53,0,0,1-1.61-3.35h-1a4,4,0,0,0,1.4,3.13c.34.3,1,0,.84-.49a5.82,5.82,0,0,1-.07-4.38c.21-.61-.75-.87-1-.27Z" transform="translate(-813.15 -510.15)"/><path class="cls-6" d="M847.23,530.84c-2,1.16-1.17,5.6-.92,7.44.08.55,1,.42,1-.14a40.74,40.74,0,0,1,.25-7.57c.08-.57-.83-.66-1-.13-1,3.49-1.82,7-.59,10.54a.5.5,0,0,0,1-.14,23.4,23.4,0,0,0-.23-4.18c-.09-.59-.93-.38-1,.14-.18,1.93-.41,4.78,1.63,5.8a.5.5,0,0,0,.73-.56c-.42-3.08-.77-6.2.57-9.12l-.92-.38a20.8,20.8,0,0,0-.25,8.28l1-.26a18.9,18.9,0,0,1,.54-9.44c.19-.61-.77-.88-1-.26l-.63,2,1,.26a12.06,12.06,0,0,1,.47-1.86l-1-.27c-.45,1.55-1.34,3-1.59,4.59a11.46,11.46,0,0,0,.76,5.17c.19.61,1.15.35,1-.27-.56-1.82-1.08-3.62-.55-5.53.35-1.26,1-2.43,1.38-3.69.19-.62-.75-.87-1-.27a11.93,11.93,0,0,0-.48,1.87.5.5,0,0,0,1,.26l.62-2-1-.26a19.91,19.91,0,0,0-.54,10c.12.64,1.07.36,1-.26a19.51,19.51,0,0,1,.26-7.76c.12-.52-.67-.92-.92-.38-1.46,3.18-1.13,6.5-.66,9.88l.73-.56c-1.59-.8-1.27-3.48-1.13-4.94l-1,.13a21.35,21.35,0,0,1,.19,3.91l1-.13c-1.17-3.36-.34-6.7.59-10l-1-.13a40.74,40.74,0,0,0-.25,7.57l1-.13c-.16-1.2-.79-5.57.46-6.31a.5.5,0,0,0-.51-.86Z" transform="translate(-813.15 -510.15)"/><path class="cls-6" d="M846.47,553.8a10.94,10.94,0,0,0-1,4.86h1a19.42,19.42,0,0,1,.25-4.24l-.91.12.1.5c-.09.63.87.9,1,.26a1.79,1.79,0,0,0-.21-1.26.5.5,0,0,0-.91.12,20.52,20.52,0,0,0-.29,4.5c0,.64,1,.64,1,0a9.61,9.61,0,0,1,.82-4.36c.25-.58-.61-1.09-.87-.5Z" transform="translate(-813.15 -510.15)"/><path class="cls-6" d="M854.85,535.22c1.24.88,2.19,2,1.15,3.46a30.08,30.08,0,0,1-2,2.49c-.42.48.28,1.19.71.7.94-1.07,2.55-2.56,2.83-4s-1.06-2.71-2.17-3.49c-.52-.37-1,.5-.5.87Z" transform="translate(-813.15 -510.15)"/><path class="cls-6" d="M853.58,554.25a16.84,16.84,0,0,0-.14,4.91c.08.63,1.08.63,1,0a15.68,15.68,0,0,1,.11-4.64c.11-.63-.86-.9-1-.27Z" transform="translate(-813.15 -510.15)"/><g class="cls-7"><path class="cls-8" d="M837.51,544c-2.06,1.83-2.67,4.87-2.24,7.59a24.65,24.65,0,0,0,3.07,7.62c-1.8-.22-3.55.56-5.34.83a19.3,19.3,0,0,1-7-.67,1.53,1.53,0,0,1-1-.48,1.57,1.57,0,0,1-.22-.77l-.39-3.79c-.11-1.16-.19-2.46.56-3.34a7,7,0,0,1,1.28-1,19.93,19.93,0,0,0,1.58-1.48c2.62-2.48,6.25-3.51,9.73-4.46" transform="translate(-813.15 -510.15)"/><path class="cls-8" d="M837.15,543.61c-4.6,4.57-1.83,11,.75,15.81l.44-.75c-2.72-.1-5.23,1.1-8,.91a23,23,0,0,1-2.49-.36c-1.15-.21-1.54-.2-2.2-1.23a8.57,8.57,0,0,1-.81-4.41c.13-2.46,3.34-5.05,5.36-6.3a28.29,28.29,0,0,1,7.47-2.8.5.5,0,0,0-.26-1c-3.05.83-6.2,1.71-8.78,3.61-2.29,1.68-4.85,3.41-4.79,6.45,0,1.32-.09,4.3.67,5.4.52.75,1.34.84,2.2,1a19.92,19.92,0,0,0,5.38.59c2.12-.14,4.08-1,6.22-.93a.5.5,0,0,0,.43-.75c-2.36-4.4-5.16-10.39-.91-14.6a.5.5,0,0,0-.71-.71Z" transform="translate(-813.15 -510.15)"/></g><path class="cls-9" d="M815.54,512.12c28.08-1.2,44.4-.24,70.56-1.11,2-.06,4.57-.08,5.48,1.75a5.1,5.1,0,0,1,.38,2.13l.8,21.11q.53,13.66,1,27.34c.08,2,0,4.41-1.65,5.61-1.11.81-32.17.5-45.06.74-8.61.16-22.19.54-30.6-1.28a2.39,2.39,0,0,1-1.41-.66,2.47,2.47,0,0,1-.38-1.59L814,520.73c0-2.54-.07-5.07,0-7.6Zm7.59,9.59c-.06,1.75,0,3.5,0,5.25l.51,31.35a1.64,1.64,0,0,0,.3,1.1,1.92,1.92,0,0,0,1.09.45c6.49,1.26,17,1,23.63.89,10-.17,33.93,0,34.79-.51,1.27-.83,1.33-2.47,1.27-3.87l-.8-18.87-.62-14.57a3.23,3.23,0,0,0-.3-1.47c-.7-1.26-2.65-1.25-4.23-1.2-20.19.59-32.8-.07-54.48.76Z" transform="translate(-813.15 -510.15)"/><path class="cls-10" d="M815.54,512.87c18.21-.76,36.43-.55,54.66-.76q7-.08,14.07-.29c2.12-.06,5.9-.76,6.82,1.82.41,1.15.19,2.92.23,4.13l.18,4.79q.62,16,1.22,32c.09,2.6.2,5.21.29,7.81.06,1.68.49,5.11-1.36,6-1.12.52-3.19.23-4.39.27-6,.19-11.91.19-17.87.21-14.08.05-28.31.8-42.37.07-2.41-.12-4.83-.31-7.22-.65a11.15,11.15,0,0,1-3.11-.54c-1.51-.74-1.26-2.48-1.28-4l-.26-18.27-.27-18.77c0-2.92-.11-5.85-.13-8.77V516c0-.06-.2-2.3-.21-2.28.16-.32,1.06-.72,1.37-.93.8-.54.05-1.84-.75-1.3-.6.41-1.51.78-1.83,1.46s-.08,2.69-.08,3.52c0,1.75,0,3.51,0,5.26l.27,18.28.26,18.27c0,2.75-.26,5.75.14,8.47a2.58,2.58,0,0,0,2.06,2.34c3.88,1.24,8.51,1.22,12.54,1.38,4.85.2,9.71.15,14.56.07,7-.13,13.94-.18,20.91-.2s14.22,0,21.33-.17c3.81-.08,8.28.83,9.06-4,.41-2.49,0-5.16-.07-7.66l-.35-9.28-.68-18-.33-8.64a77,77,0,0,0-.35-8.6c-.59-3.87-4.33-3.76-7.47-3.67-23.21.71-46.44.11-69.64,1.08C814.57,511.41,814.57,512.91,815.54,512.87Z" transform="translate(-813.15 -510.15)"/><path class="cls-10" d="M822.38,521.71c-.27,8.91.2,17.89.34,26.8l.12,6.86c0,1.25-.39,3.33.45,4.42,1.2,1.57,5.47,1.38,7.23,1.51,12.05.91,24.36.15,36.45.1,4.75,0,9.53,0,14.28-.19a6.37,6.37,0,0,0,2.57-.32c2.41-1.27,1.6-5.45,1.51-7.5l-1.17-27.54c-.12-2.81.27-5.68-3.09-6.26s-7.49.06-11,.11c-8,.12-16.09.08-24.13.12q-6.63,0-13.24.19c-3.14.07-7.17-.61-9.92,1a.75.75,0,0,0,.75,1.3c2.21-1.34,5.73-.77,8.28-.83,3.66-.1,7.31-.15,11-.19,6.17-.05,12.34,0,18.5-.06q4.82,0,9.63-.09l5.17-.11c2.25-.05,5.59-.93,6.49,1.85.53,1.64.17,4.11.25,5.83l.2,4.86.55,12.82c.15,3.59.84,7.59.42,11.16-.29,2.39-1.52,2.07-3.37,2.14-4.12.15-8.25.14-12.37.16-10.21,0-20.44.32-30.65.18a89.55,89.55,0,0,1-10-.56,9.6,9.6,0,0,1-2.4-.38c-1.33-.7-.86-2.53-.88-3.77l-.12-6.86c-.14-8.91-.61-17.89-.34-26.8C823.91,520.75,822.41,520.75,822.38,521.71Z" transform="translate(-813.15 -510.15)"/><g class="cls-11"><path class="cls-12" d="M815.28,513.16l5.49,6a9.27,9.27,0,0,1,1.91,2.67,9.06,9.06,0,0,1,.46,3.24l.64,31.85a4.22,4.22,0,0,0,.27,1.73c.64,1.36,2.42,1.65,3.92,1.75,18.75,1.31,37.61,2.62,56.3.7-7,2.7-14.11,5.42-21.5,6.88-10.85,2.15-22,1.51-33.07.87l-9-.53c-1.65-.09-3.48-.28-4.57-1.52s-1-2.66-1.06-4.1l-.55-25.43a174.41,174.41,0,0,1,.79-24.08" transform="translate(-813.15 -510.15)"/><path class="cls-12" d="M814.75,513.69l4.88,5.31a9.3,9.3,0,0,1,2.78,7c.11,5,.2,10,.3,14.93L823,554.9c.07,3.47.36,5.6,4.13,6.14,4.49.64,9.16.67,13.69.94s9.23.52,13.85.66a228.63,228.63,0,0,0,29.61-.82l-.2-1.48c-9.67,3.73-19.32,7.16-29.73,8-9.85.81-19.76,0-29.61-.57-2-.12-4.82.18-6.69-.64-3.06-1.35-2.27-5.66-2.33-8.38l-.35-15.65c-.22-10-.37-20,.67-30,.1-1-1.4-.95-1.5,0a201.79,201.79,0,0,0-.76,25.55l.29,13.2c.09,4.08-.21,8.37.34,12.42.37,2.76,2,4.17,4.74,4.57,3.92.58,8,.52,12,.75,8.66.5,17.39.93,26-.08,9.52-1.1,18.42-4.36,27.31-7.78.72-.28.71-1.56-.2-1.47-18.36,1.83-37,.86-55.31-.63a7.74,7.74,0,0,1-2.76-.35c-2.13-1.08-1.7-3.6-1.73-5.44l-.14-7L824.05,533c0-2.32-.09-4.64-.14-7a12.17,12.17,0,0,0-.58-4.61,14.14,14.14,0,0,0-2.94-3.81l-4.58-5c-.65-.71-1.71.35-1.06,1.06Z" transform="translate(-813.15 -510.15)"/></g><path class="cls-10" d="M815.54,512.76c18.21-.76,36.43-.55,54.66-.76q7-.08,14.07-.29c2.12-.06,5.9-.76,6.82,1.82.41,1.15.19,2.92.23,4.13l.18,4.8q.62,16,1.22,32c.09,2.6.2,5.21.29,7.81.06,1.68.49,5.11-1.36,6-1.12.52-3.19.24-4.39.27-6,.19-11.91.19-17.87.21-14.08,0-28.31.8-42.37.07-2.41-.12-4.83-.31-7.22-.64a11.53,11.53,0,0,1-3.11-.55c-1.51-.74-1.26-2.48-1.28-4l-.26-18.27-.27-18.77c0-2.92-.11-5.85-.13-8.77v-1.9c0-.06-.2-2.3-.21-2.28.16-.32,1.06-.72,1.37-.93.8-.54.05-1.84-.75-1.29-.6.4-1.51.78-1.83,1.45s-.08,2.69-.08,3.52c0,1.76,0,3.51,0,5.26l.27,18.28.26,18.27c0,2.75-.26,5.75.14,8.47A2.58,2.58,0,0,0,816,569c3.88,1.24,8.51,1.22,12.54,1.38,4.85.2,9.71.15,14.56.07,7-.13,13.94-.17,20.91-.2s14.22,0,21.33-.17c3.81-.08,8.28.83,9.06-4,.41-2.49,0-5.16-.07-7.66l-.35-9.28-.68-18-.33-8.63a77.08,77.08,0,0,0-.35-8.61c-.59-3.87-4.33-3.76-7.47-3.67-23.21.71-46.44.11-69.64,1.08C814.57,511.3,814.57,512.8,815.54,512.76Z" transform="translate(-813.15 -510.15)"/><path class="cls-10" d="M822.38,521.6c-.27,8.91.2,17.89.34,26.8l.12,6.86c0,1.25-.39,3.33.45,4.42,1.2,1.57,5.47,1.38,7.23,1.51,12.05.91,24.36.15,36.45.1,4.75,0,9.53,0,14.28-.19a6.37,6.37,0,0,0,2.57-.32c2.41-1.27,1.6-5.45,1.51-7.5l-1.17-27.54c-.12-2.81.27-5.68-3.09-6.26s-7.49.06-11,.11c-8,.12-16.09.08-24.13.12-4.42,0-8.83.08-13.24.19-3.14.07-7.17-.61-9.92,1.05a.75.75,0,0,0,.75,1.3c2.21-1.34,5.73-.77,8.28-.83q5.49-.13,11-.19c6.17-.05,12.34,0,18.5-.06q4.82,0,9.63-.09c1.72,0,3.45-.06,5.17-.11,2.25-.05,5.59-.93,6.49,1.85.53,1.64.17,4.11.25,5.83l.2,4.86.55,12.82c.15,3.59.84,7.59.42,11.17-.29,2.38-1.52,2.06-3.37,2.13-4.12.15-8.25.14-12.37.16-10.21,0-20.44.32-30.65.18a89.55,89.55,0,0,1-10-.56,9.6,9.6,0,0,1-2.4-.38c-1.33-.7-.86-2.53-.88-3.77l-.12-6.86c-.14-8.91-.61-17.89-.34-26.8C823.91,520.64,822.41,520.64,822.38,521.6Z" transform="translate(-813.15 -510.15)"/></svg>