<svg id="Calque_1" data-name="Calque 1" xmlns="http://www.w3.org/2000/svg" viewBox="0 0 225.91 124.41"><defs><style>.cls-1{fill:#fff;}.cls-2{fill:#1d1d1b;}.cls-3{opacity:0.71;}.cls-4{opacity:0.04;}.cls-5{opacity:0.82;}.cls-6{opacity:0.74;}.cls-7{opacity:0.73;}.cls-8{opacity:0.7;}.cls-9{opacity:0.59;}.cls-10{opacity:0.16;}.cls-11{opacity:0.32;}.cls-12{opacity:0.88;}.cls-13{opacity:0.58;}.cls-14{opacity:0.45;}.cls-15{opacity:0.21;}.cls-16{opacity:0.42;}.cls-17{opacity:0.18;}.cls-18{opacity:0.23;}.cls-19{fill:#432918;}.cls-20{fill:#2b1f11;}</style></defs><title>39</title><path class="cls-1" d="M756.55,486c-3.87-2.64-9.54,0-11.78,4.1s-2,9.08-1.74,13.75l5,84.85a10.31,10.31,0,0,0,.84,4.16c1.49,2.87,5.17,3.66,8.39,4,12.56,1.12,25.23-.46,37.79.57,8.42.69,16.72,2.54,25.15,3,9,.55,18-.44,27-1.31a975.76,975.76,0,0,1,106.08-4.43c1.71,0,3.59,0,4.9-1.11a7,7,0,0,0,1.91-3.72c4.66-17.32,4.62-35.53,4-53.45q-.75-20.9-2.53-41.74c-.19-2.27-.45-4.68-1.85-6.47-2.09-2.69-5.93-3.08-9.33-3.26-16.93-.89-33.87-1.78-50.82-2.37q-70.71-2.44-141.43,2.14" transform="translate(-740.8 -477.97)"/><path class="cls-2" d="M756.8,485.52c-6.19-3.77-12.6,2.31-13.91,8.22-1,4.58-.4,9.43-.12,14.06l1,17.46,2,33.94,1,17,.51,8.48c.13,2.32,0,4.85.65,7.1.9,3.2,3.83,4.61,6.88,5.18,4.89.91,10.07.78,15,.75,11.36-.08,22.49-.44,33.78,1.16,5.19.74,10.37,1.6,15.6,2a113.36,113.36,0,0,0,16.38-.2c11.11-.82,22.19-2.08,33.3-2.91q33.66-2.49,67.44-2.64c5.63,0,11.25.06,16.88.07,3.6,0,6-.92,7.09-4.51,3.12-9.91,4-20.77,4.36-31.09.39-10.87-.05-21.77-.56-32.63-.52-11.13-1-22.35-2.25-33.43-.37-3.33-1.44-6.3-4.64-7.79-3.71-1.72-8.43-1.38-12.41-1.59-11.45-.6-22.91-1.18-34.37-1.66q-67.72-2.81-135.49.73c-5.64.29-11.28.63-16.91,1-.64,0-.65,1,0,1q62.89-4.07,126-2.59c20.94.5,41.86,1.54,62.77,2.64,4.13.21,10.31-.27,12.82,3.81,1.35,2.21,1.31,5.08,1.52,7.59s.43,5.29.62,7.94q1.16,15.63,1.72,31.31a282.3,282.3,0,0,1-.12,29.81,136.39,136.39,0,0,1-1.94,15.74q-.65,3.48-1.52,6.9a14.72,14.72,0,0,1-1,3.32c-1.07,2-2.77,2.45-4.9,2.51-10.15.31-20.36-.11-30.52.07q-15.88.28-31.75,1.09-15.62.78-31.2,2.07c-10.21.85-20.42,2.2-30.66,2.58s-20.24-1.44-30.42-2.67-20.34-.62-30.54-.6c-4.81,0-10.06.25-14.76-.92-2.26-.56-4.25-1.67-5.07-4-.93-2.6-.68-5.91-.84-8.65l-1.87-31.44-1.9-32q-.47-7.72-.92-15.47c-.28-4.7-.73-10.05,1.81-14.27,2.17-3.62,7-6,10.93-3.64.55.33,1.05-.53.5-.87Z" transform="translate(-740.8 -477.97)"/><g class="cls-3"><path class="cls-2" d="M962.49,554c-3.11-1.42-6.41,1.41-8.67,4l-13.29,15.16c-.84,1-1.69,1.92-2.6,2.82s-1.85,1.68-2.68,2.61a15.59,15.59,0,0,0-3.81,10.25c0,1.43.25,3.06,1.45,3.86a5,5,0,0,0,2.06.62q11.58,1.7,23.22,2.92a5.51,5.51,0,0,0,3.1-.27,4.7,4.7,0,0,0,2.21-4.72c-2.06-15.65-1.11-25.9-1-37.23" transform="translate(-740.8 -477.97)"/><path class="cls-2" d="M962.62,553.54c-3.42-1.24-6.42,1.17-8.65,3.55-3.57,3.79-6.89,7.84-10.31,11.75-1.69,1.92-3.34,3.89-5.08,5.75-1.39,1.49-3,2.76-4.28,4.36A15.51,15.51,0,0,0,931,590.09c.55,3.85,4,3.75,7.19,4.2,5,.7,10.08,1.35,15.13,1.92,3.27.37,8,1.92,10-1.67.84-1.54.66-3.06.46-4.74q-.48-3.84-.75-7.69c-.66-9.37-.17-18.72-.06-28.09a.5.5,0,0,0-1,0c-.07,6.16-.37,12.32-.32,18.49,0,3.49.17,7,.44,10.46.14,1.81.31,3.61.52,5.41.3,2.7,1.28,6.9-2.87,7.45-1.71.22-3.76-.32-5.46-.51-2.1-.24-4.2-.48-6.3-.74-2.37-.29-4.75-.6-7.12-.92a40.49,40.49,0,0,1-6.15-.88c-2.79-.85-3-3-2.7-5.54a15.44,15.44,0,0,1,2-6.15c1.93-3.26,5.3-5.81,7.79-8.65L951,562c2.65-3,6.6-9.18,11.34-7.47.61.22.87-.75.27-1Z" transform="translate(-740.8 -477.97)"/></g><g class="cls-4"><path class="cls-2" d="M870.39,500.93a10.89,10.89,0,0,0-3.95-7,6.34,6.34,0,0,0,4.39,1.72,8.26,8.26,0,0,1-6-2.65,2.62,2.62,0,0,1,3.33-.08,4.37,4.37,0,0,0-.91,2.22c0,.82.64,1.69,1.44,1.6a2.11,2.11,0,0,0,1-.52l4.15-3.15L872,497.88l4.73-1.4a2.4,2.4,0,0,1,1.21-.15,4.29,4.29,0,0,1,1.33.75,3.14,3.14,0,0,0,4.06-.83l-.23,2.75,5-3.82a3.27,3.27,0,0,1-.37,2.27l11.54-4.29c-.35,1.41,1.1,2.53,2.19,3.5s1.77,3,.45,3.64l1.62,1.12c-.64.31-.47,1.31,0,1.83s1.19.87,1.49,1.52c.55,1.23-.68,2.66-.31,4,.43,1.51,2.48,1.65,4,1.48l17.06-1.86a50.61,50.61,0,0,0-4.17,7.87c-.54,1.28-1,2.74-.51,4s2.55,1.92,3.31.75l4.74,12.2a4.1,4.1,0,0,0,1.27,2,6.88,6.88,0,0,0,2.11.69,5.14,5.14,0,0,1,3.18,2.66,21,21,0,0,1-4.47-10l3.28,5.15c-.2.51-.91-.43-.42-.69s1,.21,1.37.65c2.44,3.22,2.73,7.64,1.85,11.59s-2.79,7.56-4.44,11.24a93.76,93.76,0,0,0-6.34,19.7,4.62,4.62,0,0,0-.1,2,2.53,2.53,0,0,0,4,1.17l-1.33,9.44a5.6,5.6,0,0,1-1,2.92c-1.06,1.26-2.94,1.34-4.59,1.33q-32.91-.36-65.83-1.29a6.73,6.73,0,0,1-3.92-.94,6.65,6.65,0,0,1-1.91-3.17,80.53,80.53,0,0,1-3.76-12.06c-1.95-9.84-.15-20,1.64-29.84,2.92-16,6-32.47,14.39-46.43" transform="translate(-740.8 -477.97)"/><path class="cls-2" d="M874.73,499.73a15.25,15.25,0,0,0-5.11-9l-6.36,6.36a12.22,12.22,0,0,0,7.57,3v-9A4,4,0,0,1,868,489.8l-.91,7.07a9.71,9.71,0,0,1-1.21-.07l-1.62-6.16c-2.08,3.38-2.12,8.34,2.12,10.11,3.89,1.61,6.91-1.64,9.75-3.8l-6.61-5.09-1.93,4.82c-1.3,3.25,2.51,6.43,5.54,5.54,1.4-.42,3.3-1.39,4.74-1.39l-2.27-.62c1.87.86,3.3,1.87,5.46,1.77a7.8,7.8,0,0,0,5.38-2.55l-7.68-3.18-.23,2.75c-.25,3.18,4.12,5.92,6.78,3.89l5-3.83-6.77-3.88a.91.91,0,0,1-.21,1.08c-1.29,3.09,2.54,6.65,5.54,5.53l11.54-4.29-5.7-4.34a6.81,6.81,0,0,0,1.69,4.85,6.15,6.15,0,0,0,1.33,1.41c1.34.78-.82.8.64-1.68l1.62-1.61-.41.29a4.57,4.57,0,0,0,0,7.77l1.62,1.12-.91-7.07a5.47,5.47,0,0,0-1.58,5.21,6.69,6.69,0,0,0,.89,2.07,4.15,4.15,0,0,0,1,1.15c.56.6.55.21,0-1.15a10,10,0,0,0-.45,2.54,6.47,6.47,0,0,0,4.43,6.18c3.12,1.08,6.68.19,9.87-.16l11.37-1.24-3.88-6.77c-2.49,3.91-6.4,9.7-5.34,14.57s7.36,7.39,11,3.53l-7.52-2c1.58,4.06,3.11,8.15,4.74,12.19.75,1.87,1.56,3.57,3.34,4.69,1.12.7,3,.6,3.68,1.73l7.06-5.45a17.83,17.83,0,0,1-3.32-8l-8.22,3.46,3.28,5.15,1.62-6.16-.22.15,5.45.7-.25-.2,1.16,2-.12-.35-.45,3.47.17-.28-3.89,2.22.5,0-2.27-.61c-.59-.34-.13-.21.07.33a12.8,12.8,0,0,1,.52,1.34,9.65,9.65,0,0,1,.35,2.93,19,19,0,0,1-1.41,6.3c-1.85,5-4.4,9.64-6.17,14.65-.85,2.4-1.61,4.84-2.26,7.31s-1.61,5.27-1.56,7.8c.09,5.27,6.37,9,10.85,5.72l-6.61-5.08c-.4,2.83-.79,5.66-1.19,8.49a14.59,14.59,0,0,0-.26,1.72c0,2.21.48-.29.55.06,0,.09-3.44.09-3.65.08q-9.23-.09-18.46-.25-18-.29-35.91-.75l-8.47-.23c-.58,0-1.2-.06-1.78,0-.42,0-1.08-.44-.49,0s-.11-.54-.22-.81c-.36-.82-.63-1.7-.94-2.54a50.91,50.91,0,0,1-3.48-16c-.31-11,2.38-22.27,4.6-33,2.39-11.58,5.56-23.06,11.63-33.3,3-5-4.81-9.52-7.77-4.54-6.23,10.5-9.75,22.28-12.27,34.16-1.27,6-2.39,12.07-3.42,18.13-1.15,6.75-2.14,13.65-1.69,20.51.43,6.48,2.24,12.51,4.5,18.57,1,2.63,2.09,5.25,4.71,6.64,2.88,1.53,6.45,1.22,9.61,1.31q20.44.55,40.9.89c7.39.12,15,.76,22.39.25,3.77-.26,7.08-2.15,8.17-6,1-3.47,1.12-7.41,1.62-11,.26-1.84,0-3.54-1.62-4.73-1.32-1-3.54-1.42-5-.35,1.3-1,1.93,2.3,2.69,2a15,15,0,0,0,.39-1.83c.32-1.47.69-2.93,1.08-4.37.76-2.76,1.64-5.47,2.65-8.15,2-5.31,5-10.3,6.47-15.82,1.3-5,1.19-10.79-1.67-15.28-1.68-2.63-4.87-4.68-8-2.87-2.72,1.59-3.24,5.87-.71,7.89,1.51,1.21,3.67,1.88,5.45.71l.22-.15a4.56,4.56,0,0,0,1.62-6.15l-3.29-5.15c-2.84-4.46-9.1-1.48-8.22,3.47a26.67,26.67,0,0,0,5.63,12c3.22,4.09,9.56-1.14,7.07-5.45a10.26,10.26,0,0,0-3.81-3.87,15.91,15.91,0,0,0-2.79-1c.49.18.81,1.74.15-.23-1.28-3.83-2.94-7.57-4.4-11.32-1.17-3-5-4.65-7.52-2l.14-.15,2.28-.61a5.14,5.14,0,0,1,1.74,2l.25-.81a19.66,19.66,0,0,0,1.16-2.55,55.67,55.67,0,0,1,2.87-5c1.71-2.67-.48-7.14-3.89-6.77L915.36,505l-4.74.51a21.19,21.19,0,0,0-2.5.26c-1.24.3-.24-.81.45.7l.62,2.27c-.14-1.39.63-3,.29-4.52a6.26,6.26,0,0,0-1-2.27c-.23-.34-1.38-2.2-1.05-.87v2.39l.08-.49-1.16,2,.34-.34a4.57,4.57,0,0,0-.91-7.07l-1.61-1.12v7.77a6.2,6.2,0,0,0,2.66-7,8.51,8.51,0,0,0-1.83-3.26c-.27-.3-.57-.55-.86-.83a9.35,9.35,0,0,1-.72-.69c-.47-.53-.36-.26.33.79.23-2.76-3.07-5.31-5.69-4.34l-11.54,4.3,5.53,5.53a7.35,7.35,0,0,0,.53-3.47c-.24-3-3.81-6.16-6.77-3.89l-5,3.83,6.77,3.88.23-2.75c.31-3.87-5.16-6-7.68-3.18-.25.55.21.59,1.39.13a4.58,4.58,0,0,0-1.32-.76,5.78,5.78,0,0,0-2.89-.61c-2.2.1-4.44,1.09-6.53,1.71l5.54,5.53,1.93-4.81c1.4-3.5-3.57-7.4-6.61-5.08-1,.8-3,2.82-4.1,3.21h2.39l-.57-.1,2,1.16.28.49v2.39a1.29,1.29,0,0,1,.45-1.15,4.58,4.58,0,0,0-1.61-6.16,7.18,7.18,0,0,0-7.87.08c-2.35,1.63-3.1,4.89-.91,7.07a13.51,13.51,0,0,0,9.15,4c5.79.3,5.77-8.69,0-9a2,2,0,0,1-1.21-.4,4.62,4.62,0,0,0-6.36,0c-1.62,1.62-1.85,4.77,0,6.36a7.74,7.74,0,0,1,2.79,5c.4,2.4,3.36,3.74,5.53,3.15,2.55-.7,3.55-3.13,3.15-5.54Z" transform="translate(-740.8 -477.97)"/></g><g class="cls-4"><path class="cls-2" d="M783.13,492.52c-3.29-1.35-6.64-2.72-10.19-3.06s-7.37.47-9.9,3c-2.28,2.26-3.21,5.51-4,8.61a67,67,0,0,0-2.51,12.35c-.58,7.57,1.43,15.13,1.29,22.72-.09,4.52-.93,9-1,13.52s.57,9.26,3.22,12.92l-3.06-5.28c0,3.9,3.61,6.68,5.79,9.91,4.8,7.12,2.85,16.62.72,24.93a439.38,439.38,0,0,1,63.61,4.1c-5.9-11.71-3.89-26.11,1.78-37.92,1.61-3.37,3.5-6.59,5.31-9.85a173.13,173.13,0,0,0,16-37.56,8.28,8.28,0,0,0,.43-3,6,6,0,0,0-2-3.61c-2.84-2.63-6.89-3.36-10.7-4l-51.95-8.47" transform="translate(-740.8 -477.97)"/><path class="cls-2" d="M784.33,488.18c-7.72-3.16-16.88-5.47-23.91.56-3.28,2.81-4.66,7.08-5.76,11.1a76.14,76.14,0,0,0-2.6,12.65c-.91,9.18,1.78,18.27,1,27.49-.73,8.46-2.07,17.36,3,24.85,3.22,4.74,10.71.53,7.77-4.55L760.77,555c-2.14-3.71-8.7-2.3-8.39,2.27.24,3.53,1.71,6.24,3.86,9,1.69,2.14,3.45,4.06,4.23,6.73,1.72,5.85,0,12.22-1.42,17.94a4.54,4.54,0,0,0,4.34,5.69,438.55,438.55,0,0,1,62.41,3.93c3.92.54,6.92-2.83,5.08-6.61-9.8-20.13,6-39.54,14.16-57,2.33-5,4.48-10.14,6.34-15.35q1.38-3.86,2.54-7.77c.74-2.54,1.55-5.22.8-7.86-1.42-5-6.44-7.89-11.15-9.14-5.31-1.41-10.94-1.95-16.36-2.84L787,487.44c-2.4-.39-4.85.62-5.54,3.14-.59,2.15.73,5.14,3.14,5.54l34.31,5.59,17.15,2.8c2.24.37,9.64.94,9.93,4.11a10.62,10.62,0,0,1-.78,2.81c-.34,1.17-.7,2.32-1.07,3.48q-1.26,3.89-2.73,7.7c-1.93,5-4.15,9.91-6.55,14.71-4.65,9.29-10.64,18-13.65,28-3.3,11-3.19,22.74,1.87,33.14l5.08-6.61a454.46,454.46,0,0,0-64.8-4.26l4.34,5.7c1.7-6.67,3.12-13.56,1.94-20.45a20.9,20.9,0,0,0-3.76-8.84c-1.36-1.84-4.36-4.31-4.53-6.75L753,559.54l3,5.29,7.77-4.55c-4-5.86-2.43-13.22-1.82-19.82.72-7.87-1-15.46-1.12-23.29a41.43,41.43,0,0,1,1.31-10.57c.75-3.08,1.35-6.54,2.86-9.35,3.35-6.26,12.08-2.36,16.88-.39,2.25.92,5-1,5.54-3.14.71-2.58-.89-4.61-3.14-5.54Z" transform="translate(-740.8 -477.97)"/></g><path class="cls-2" d="M762.45,487.34c-2.33,3.1-3.5,6.89-4.63,10.6L755,507.35c-.52,1.71-1.05,3.42-1.4,5.17a44.93,44.93,0,0,0-.73,6.66c1.26-4.25-.18-8.84.45-13.22.22-1.52.69-3,.9-4.52s.16-3.13.23-4.7a55.5,55.5,0,0,1,.9-6.92,1.83,1.83,0,0,1,2-1.87l5.13-.64" transform="translate(-740.8 -477.97)"/><path class="cls-2" d="M762,487.08c-3.15,4.43-4.4,9.84-6,15-1.74,5.71-3.4,11.14-3.72,17.14a.51.51,0,0,0,1,.13,26.05,26.05,0,0,0,.39-8c-.18-3.39.48-6.38.95-9.71.39-2.72.21-5.5.59-8.24.27-1.93.27-4.16,2.3-4.9,1.38-.5,3.45-.43,4.91-.62.63-.07.64-1.07,0-1-1.85.23-5.56-.08-7,1.35-.78.78-.76,2.25-.92,3.25-.26,1.62-.49,3.25-.59,4.89a50.3,50.3,0,0,1-.49,6.37,34.18,34.18,0,0,0-.8,4.61c-.25,4,.7,7.85-.3,11.76l1,.14c.31-5.92,2-11.25,3.68-16.87,1.54-5,2.77-10.37,5.87-14.72.37-.53-.5-1-.87-.51Z" transform="translate(-740.8 -477.97)"/><g class="cls-5"><path class="cls-2" d="M778.24,486.1a8.64,8.64,0,0,0,9.92,6.15l2.53,1c2.9.74,5.77,1.54,8.63,2.41a9.06,9.06,0,0,1,2.63-1.74,10.12,10.12,0,0,1,2,3.34l1.38-1.54a21.66,21.66,0,0,0,3.59,2.66,5.78,5.78,0,0,0,2.64-1.34l1.49,1.7.64-.78a17.14,17.14,0,0,1,10,4.58,6.25,6.25,0,0,1,8,4.43l1.16-1.36a1,1,0,0,0,.73.95c.42.08.88-.39.68-.77a3.37,3.37,0,0,0,4,2.57l7.37,5.33a16.59,16.59,0,0,0,3.29-6.41c.68,5.19-3.35,9.69-4.93,14.68-1.22,3.86-1,8-1.65,12-1.9,10.88-10.63,19.39-13.73,30-.91,3.11-1.38,6.51-3.42,9-.78,1-1.76,1.77-2.45,2.81-1.62,2.42-1.32,5.63-.6,8.46a35.41,35.41,0,0,0,3.24,8.24,5.29,5.29,0,0,0,1.66,2,5.41,5.41,0,0,0,2.49.59,124.66,124.66,0,0,0,22.28-.37c-1.25-4.69-4.83-8.43-6.43-13-1.18-3.36-1.23-7-1.13-10.55.45-16.42,3.74-32.65,8.05-48.5A52,52,0,0,1,856.14,512c1.51-2.9,3.52-5.51,5.13-8.35a34.9,34.9,0,0,0,4.33-20.45l-84.4,2.42" transform="translate(-740.8 -477.97)"/><path class="cls-2" d="M777.76,486.23c1.35,4.62,5.24,6.53,9.73,6.64,1.48,0,2.94.82,4.37,1.19,1.59.42,3.17.85,4.75,1.31.84.24,2.1.9,3,.71.4-.09,1.35-1.47,1.92-1.39,1,.14,1.7,2,2,2.69a.51.51,0,0,0,.84.22c1-1.07.94-1.13,2.08-.34.62.42,1.68,1.5,2.46,1.61.57.07,1.22-.39,1.73-.57,1.23-.43,1.09-.38,2.12.79a.52.52,0,0,0,.71,0c1.05-1.29,4.62.38,5.77.93a17.12,17.12,0,0,1,2.41,1.42c.44.31,1.38,1.43,1.86,1.52,1,.2,2.14-.39,3.28-.16a5.87,5.87,0,0,1,4.5,4.29.51.51,0,0,0,.84.22l1.15-1.35-.83-.22c.48,1.32,2.41,1.92,2.39,0l-1,.13a4.12,4.12,0,0,0,3.52,3c2.9.61,5.69,3.45,8.1,5.19a.48.48,0,0,0,.6-.08,18.87,18.87,0,0,0,3.42-6.63l-1-.13c.4,4.54-2.26,8.24-4,12.21-1.5,3.41-1.81,6.94-2.12,10.6-.73,8.67-5,15.49-9.2,22.86a54.71,54.71,0,0,0-4.61,9.76c-.59,1.8-1,3.66-1.52,5.47a15.17,15.17,0,0,1-3.64,6.12c-2.19,2.46-2.56,5.35-2,8.53a27.74,27.74,0,0,0,4.15,10.78c2.07,2.91,6.74,2.22,9.87,2.3a129.39,129.39,0,0,0,16.47-.66.51.51,0,0,0,.49-.63,38.7,38.7,0,0,0-4.19-8.42,23.48,23.48,0,0,1-3.37-11.45,131.5,131.5,0,0,1,2-24.57c1.29-8.12,3.08-16.15,5.16-24.1a93.19,93.19,0,0,1,3.24-10.76c1.47-3.72,3.79-6.87,5.84-10.26a36,36,0,0,0,5.08-21.85.51.51,0,0,0-.5-.5l-84.4,2.42c-.64,0-.65,1,0,1l41.7-1.19,20.85-.6,9.93-.29,5-.14,3-.08c.7,0,2.47-.41,3-.09,1.67,1.06.47,6.88.16,8.64a34.48,34.48,0,0,1-3.12,9.53c-2.68,5.35-6.4,9.84-8.31,15.6A202.84,202.84,0,0,0,845,555.78c-.89,7-1.85,14.55-1,21.62.76,6.66,5.55,11.25,7.4,17.47l.48-.63c-4.34.44-8.7.69-13.07.7q-3.16,0-6.31-.15c-2.69-.13-5.1,0-6.61-2.55-2-3.43-3.93-8.3-3.75-12.36s3.73-6,5.2-9.53,2-7.39,3.57-10.93A99.43,99.43,0,0,1,836,550c3.44-5.88,6.53-11.75,7.23-18.63a69.37,69.37,0,0,1,.85-7.62,27.55,27.55,0,0,1,2.46-6.31c1.63-3.24,3.25-6.46,2.93-10.18a.5.5,0,0,0-1-.13,14.13,14.13,0,0,1-1.84,4.32,1.47,1.47,0,0,1-.94,1c-.45.45-.87.37-1.25-.25a11.32,11.32,0,0,1-1.84-1.33c-1.22-.88-2.4-1.9-3.69-2.67-1.54-.92-3.48-.29-4.16-2.53a.5.5,0,0,0-1,.13l-.43-.31a.5.5,0,0,0-.83-.22l-1.16,1.35.83.22a6.65,6.65,0,0,0-3.27-4.25,6.89,6.89,0,0,0-2.69-.85c-1.17-.11-2,.28-3.08-.34-2.21-1.3-4-2.7-6.58-3.39a13.46,13.46,0,0,0-3-.52c-.24,0-.42.55-.54.52s-1-1.13-1.11-1.31a.5.5,0,0,0-.7,0c-2.23,1.73-3.79.21-5.53-1.32a.51.51,0,0,0-.71,0l-1.37,1.53.84.22a13.53,13.53,0,0,0-2.12-3.56.53.53,0,0,0-.61-.07,20.28,20.28,0,0,1-2.13,1.3c-1.19.33-2.42-.3-3.55-.62-2.32-.66-4.63-1.23-6.89-2.06-2-.73-3.93,0-6-.94a8.18,8.18,0,0,1-4.43-5.19.5.5,0,0,0-1,.26Z" transform="translate(-740.8 -477.97)"/></g><g class="cls-6"><path class="cls-2" d="M808.1,504.93l.68,3.95c5.2-.59,10.52-1.07,15.62.13s10,4.38,12,9.23c-.1-5.17-4.17-9.58-8.89-11.68s-10-2.34-15.18-2.54l-3.2-.13a1.26,1.26,0,0,0-1,.21c-.25.23-.18.76.15.78" transform="translate(-740.8 -477.97)"/><path class="cls-2" d="M807.62,505.06l.68,4a.48.48,0,0,0,.48.36c9.62-1.07,22.52-1.42,27.15,9.11.21.46,1,.22.94-.25-.36-6.4-5.46-11-11.25-12.93a42.2,42.2,0,0,0-11.16-1.7,32.1,32.1,0,0,0-5.62-.21c-.79.1-1.09.26-1.33,1a.52.52,0,0,0,.13.49l.3.31c.45.47,1.15-.24.71-.71.13.14,3.22,0,3.65,0,1.29.05,2.59.1,3.88.19a37,37,0,0,1,8.76,1.43c5.5,1.73,10.58,6,10.93,12.1l.93-.26c-2.06-4.68-6.4-7.77-11.23-9.17a30.71,30.71,0,0,0-9.4-1c-1.83,0-3.74.46-5.55.39-.87,0-1.13.25-1.56-.62a11.47,11.47,0,0,1-.48-2.77c-.1-.63-1.07-.36-1,.27Z" transform="translate(-740.8 -477.97)"/></g><g class="cls-7"><path class="cls-2" d="M762.86,499.48c3.45-3.75,8.49-6.33,13.56-5.79a21.52,21.52,0,0,1,5.55,1.55,57.67,57.67,0,0,1,6.87,3.29c1.36.76,2.88,2,2.57,3.52l-4.92-.91a20.64,20.64,0,0,1-3.72-.92c-1-.39-2-.94-3-1.41a23.61,23.61,0,0,0-8.84-2.29,10.25,10.25,0,0,0-8.08,3" transform="translate(-740.8 -477.97)"/><path class="cls-2" d="M763.21,499.84c3.7-3.87,8.84-6.51,14.3-5.47a30.62,30.62,0,0,1,6.93,2.47c2,.92,6.58,2.5,6.47,5.21l.63-.48c-2.84-.53-5.92-.8-8.63-1.83s-5.23-2.56-8.2-3.2c-4.37-1-8.89-.7-12.2,2.59-.46.45.25,1.16.7.71,4-3.94,10-3.14,14.75-1.28,2.09.81,4,2,6.14,2.6,2.35.61,4.79.93,7.17,1.37a.52.52,0,0,0,.64-.48c.11-2.54-2.35-3.74-4.31-4.76a41,41,0,0,0-9-3.71c-6.07-1.49-11.9,1.18-16.07,5.55-.45.46.26,1.17.7.71Z" transform="translate(-740.8 -477.97)"/><g class="cls-6"><path class="cls-2" d="M791.12,500.37l-.84,2.32a.48.48,0,0,1-.21.3.51.51,0,0,1-.3,0,23.92,23.92,0,0,1-7.54-3.37c-.29-.19-.61-.48-.53-.82a.78.78,0,0,1,.38-.44c1.41-.85,3.21-.3,4.72.36s2.69,1.24,4,2" transform="translate(-740.8 -477.97)"/><path class="cls-2" d="M790.64,500.24c-.67,1.86-.9,2.32-2.88,1.62a18.78,18.78,0,0,1-4.2-2c-.9-.61-2.25-1.38.23-1.44a6.33,6.33,0,0,1,2.3.53,36.32,36.32,0,0,1,4.44,2.15c.57.31,1.07-.56.5-.86-2.07-1.13-4.78-2.85-7.24-2.82-1.12,0-3.27.62-2.36,2.14.53.89,2.15,1.49,3,1.94A24.19,24.19,0,0,0,788.1,503c.64.21,1.6.71,2.27.37s1-2.21,1.23-2.89-.75-.86-1-.26Z" transform="translate(-740.8 -477.97)"/></g></g><path class="cls-2" d="M766.28,506.4a10.33,10.33,0,0,0,6.68,5.73,19.58,19.58,0,0,0,3.57.52l10.47.9a8.15,8.15,0,0,0-3.23.35,2.75,2.75,0,0,0-1.86,2.46,2.1,2.1,0,0,0-.83-1.19,1.92,1.92,0,0,0-.53,1.32l-.65-1.2-.52,2a3,3,0,0,0-.66-1.4,7.39,7.39,0,0,0-.51,2.07,4,4,0,0,0-.58-2,8.31,8.31,0,0,0-.74,2.24,5.85,5.85,0,0,0-.59-1.93,4.42,4.42,0,0,0-1,2.25l0-2.44a3.57,3.57,0,0,0-1.7,1.81l.4-2a6.18,6.18,0,0,0-2.26,1.63,4.33,4.33,0,0,0,.86-1.87,9.42,9.42,0,0,1-2.89,1.16,3,3,0,0,0,1.31-1.74l-3.25,1.26a5.67,5.67,0,0,0,1.61-1.7l-4,.7a4.49,4.49,0,0,0,3.31-1.47,8,8,0,0,1-4.83-.9c1.39.07,3.08-.14,3.64-1.42.68-1.54-.91-3.12-1.16-4.78" transform="translate(-740.8 -477.97)"/><path class="cls-2" d="M765.85,506.65c3.82,7.88,13.76,6.77,21.15,7.4v-1c-2.51,0-5.21.38-5.59,3.31l.93-.26a2.55,2.55,0,0,0-.91-1.28.51.51,0,0,0-.79.1,2.36,2.36,0,0,0-.57,1.44l.91-.12-.65-1.2a.5.5,0,0,0-.91.12l-.52,2h1a3.86,3.86,0,0,0-.71-1.52.51.51,0,0,0-.92.12,10.52,10.52,0,0,0-.51,2.06l1,.14a6.37,6.37,0,0,0-.64-2.26.51.51,0,0,0-.87,0,12,12,0,0,0-.79,2.35h1a9.2,9.2,0,0,0-.64-2c-.17-.37-.67-.26-.86,0a6.23,6.23,0,0,0-1.1,2.38l1,.13,0-2.44a.5.5,0,0,0-.75-.43,4.87,4.87,0,0,0-1.88,2l.91.39.4-2a.5.5,0,0,0-.73-.56,7.85,7.85,0,0,0-2.36,1.71l.78.6a6.19,6.19,0,0,0,.91-2,.51.51,0,0,0-.74-.56,11.71,11.71,0,0,1-2.77,1.11l.49.83a4.34,4.34,0,0,0,1.44-2,.5.5,0,0,0-.62-.61l-3.24,1.26.48.83a8.19,8.19,0,0,0,1.69-1.79c.29-.4-.18-.81-.56-.74l-4,.7c-.55.09-.43,1,.13,1a5.72,5.72,0,0,0,3.66-1.61.51.51,0,0,0-.35-.86,8.41,8.41,0,0,1-4.58-.84l-.25.94c1.4,0,3.11-.1,3.92-1.42,1.08-1.76-.53-3.75-1-5.42a.5.5,0,0,0-1,.27c.17.64.52,1.24.68,1.87.7,2.8-.57,3.74-2.67,3.7a.5.5,0,0,0-.26.93,9.63,9.63,0,0,0,5.09,1l-.36-.85a4,4,0,0,1-2.95,1.32l.13,1,4-.69-.57-.74a5.4,5.4,0,0,1-1.53,1.59.5.5,0,0,0,.48.84l3.25-1.26-.62-.61-1.18,1.52c-.41.32,0,.95.49.83a12.09,12.09,0,0,0,3-1.21l-.74-.57a3.88,3.88,0,0,1-.8,1.76c-.32.48.39,1,.78.6a8.07,8.07,0,0,1,2.16-1.55l-.73-.56-.4,2c-.11.53.63.91.91.39a3.14,3.14,0,0,1,1.53-1.64l-.76-.43,0,2.44a.5.5,0,0,0,1,.14,4.21,4.21,0,0,1,1-2.14h-.86a5.73,5.73,0,0,1,.54,1.81.5.5,0,0,0,1,0,7.65,7.65,0,0,1,.7-2.12h-.87l.51,1.76c0,.51.89.73,1,.13a10.37,10.37,0,0,1,.52-2.06l-.92.11.61,1.29a.51.51,0,0,0,1,0l.51-2-.91.12.65,1.21a.5.5,0,0,0,.91-.12l.48-1.21-.79.1.76,1.09c.24.5.88.17.93-.25.29-2.29,2.81-2.34,4.59-2.31.65,0,.63-.94,0-1-3.79-.32-7.59-.56-11.37-1-4-.43-7.14-2.25-8.92-5.92-.28-.58-1.14-.07-.86.5Z" transform="translate(-740.8 -477.97)"/><path class="cls-2" d="M806.74,518.3a30.08,30.08,0,0,0,13.57,5.41c2.93.4,6.11.3,8.58-1.32l-3.2,1.63a3.29,3.29,0,0,0-1.6,1.33,2.09,2.09,0,0,0,.78,2.46,4.24,4.24,0,0,0,2.66.65c-1.45.76-3.15-.32-4.37-1.41a2.63,2.63,0,0,0,1.24,1.78l-1.27-.25c-.17,0-.24.31-.14.17l-1.62-1,.59,1-1.51-1.09.21,1.35a6,6,0,0,0-1.49-1.73l-.36,1.58-.93-2.24-.67,2.15-.38-2.1-.45,1.06-.67-2.13a2.73,2.73,0,0,1-1,1.15l.7-1.6a3.43,3.43,0,0,1-1.66,1.46L814,525a4.28,4.28,0,0,0-1.6.89,4.81,4.81,0,0,0,.66-1.72l-1.89.76.76-1.37-1.37.16.58-1a2.81,2.81,0,0,0-1.81,0l.63-.63-2.35-1.17a1.16,1.16,0,0,0,.83-.84,1,1,0,0,1-.6-1.1" transform="translate(-740.8 -477.97)"/><path class="cls-2" d="M806.49,518.73c5.93,4.16,15.75,8.15,22.66,4.09a.5.5,0,0,0-.51-.86c-1.61.82-5.22,1.79-5.2,4.12s2.32,2.85,4.09,2.88l-.13-1c-1.57.54-2.76-.34-3.88-1.29-.35-.29-1,0-.84.49a3.8,3.8,0,0,0,1.37,2l.49-.84c-.6-.12-1.3-.46-1.84-.08a.53.53,0,0,0-.18.69l0,0,.68-.69-1.62-1a.5.5,0,0,0-.68.69l.59,1,.68-.68-1.5-1.1c-.4-.28-.8.19-.74.57l.2,1.35.92-.38a9.11,9.11,0,0,0-1.56-1.83.51.51,0,0,0-.84.22l-.36,1.57h1l-.93-2.23a.5.5,0,0,0-1,0l-.67,2.15h1l-.37-2.1a.5.5,0,0,0-.92-.12l-.45,1.06.92.12-.67-2.13a.51.51,0,0,0-.92-.12l-1,1,.79.6.71-1.6a.5.5,0,0,0-.87-.51l-1.48,1.29.73.57.32-1.62c.07-.34-.23-.76-.61-.62a6.26,6.26,0,0,0-1.72.94l.68.69a7.16,7.16,0,0,0,.71-1.85c.08-.33-.24-.76-.61-.61l-1.89.76.56.73.76-1.37c.16-.3,0-.8-.43-.75l-1.37.16.43.75.59-1a.5.5,0,0,0-.3-.73,4.31,4.31,0,0,0-2.08,0l.49.83.62-.63a.5.5,0,0,0-.1-.78l-2.35-1.17v.86c.68-.39.63-.34,1-1a.51.51,0,0,0-.08-.61l-.47-.87c-.1-.63-1.07-.36-1,.27.05.29.4,1.14,0,1.37a.5.5,0,0,0,0,.86l2.36,1.17-.1-.78-.63.63a.5.5,0,0,0,.48.83h1.55l-.3-.73-.59,1c-.17.3.05.8.44.75L812,524l-.44-.75-.75,1.37c-.19.34.13.9.56.73l1.89-.76-.61-.61a4.46,4.46,0,0,1-.61,1.6c-.22.4.26,1,.68.69a3.83,3.83,0,0,1,1.48-.84l-.61-.62-.32,1.62a.5.5,0,0,0,.73.56,5.21,5.21,0,0,0,1.85-1.64l-.87-.51-.71,1.61a.51.51,0,0,0,.79.61,3.45,3.45,0,0,0,1.11-1.26l-.91-.12.67,2.13c.12.37.74.55.92.12l.45-1.06-.92-.12.38,2.1c.09.52.83.44,1,0l.67-2.14h-1l.93,2.23c.17.41.84.53,1,0l.36-1.57-.83.22a5.45,5.45,0,0,1,1.4,1.62.5.5,0,0,0,.92-.38l-.21-1.36-.73.57,1.51,1.09c.41.3.94-.28.68-.68l-.59-1-.68.69,1.61,1c.41.24,1-.27.69-.69l0,0-.18.69a7.55,7.55,0,0,1,1.06.17c.44.09.91-.49.49-.83l-1.11-1.57-.84.49c1.43,1.21,3,2.19,4.85,1.54a.5.5,0,0,0-.13-1c-1.79.27-2.52-.78-2.21-3.16.33-.19.68-.38,1-.55.92-.48,1.86-1,2.8-1.43l-.51-.86c-6.57,3.85-16-.16-21.65-4.09-.52-.37-1,.49-.5.86Z" transform="translate(-740.8 -477.97)"/><g class="cls-8"><path class="cls-2" d="M793.35,539.86a2.79,2.79,0,0,1,.6-1.09c.09-.09.29-.3.44-.23s.16.3.17.41a.84.84,0,0,1-.31.82c-.18.1-.54.09-.63-.14l-.12.48.69-.66h-.7a.28.28,0,0,1,0,.25c0,.6.8.62,1,.13l.18-.49c.23-.61-.73-.87-1-.27l-.19.5,1,.13a1.2,1.2,0,0,0-.33-1,.48.48,0,0,0-.7,0l-.7.66a.48.48,0,0,0-.13.48,1.44,1.44,0,0,0,1.7.9,1.75,1.75,0,0,0,1.21-1.84c-.05-.77-.59-1.58-1.46-1.41s-1.46,1.25-1.73,2.05c-.2.62.76.88,1,.27Z" transform="translate(-740.8 -477.97)"/></g><g class="cls-7"><path class="cls-2" d="M783.89,537.5l.15-.85a1.86,1.86,0,0,0,.08-.41l0-.12c.05-.1,0-.11-.15,0a1.27,1.27,0,0,0,.07.24c0,.16,0,.33,0,.49l.11,1.08.76-.43-.89-.41c-.58-.27-1.09.59-.5.87l.88.41c.31.14.8,0,.75-.44a16,16,0,0,0-.2-1.83,1.18,1.18,0,0,0-.73-1c-1.17-.33-1.25,1.42-1.38,2.13s.85.9,1,.26Z" transform="translate(-740.8 -477.97)"/><g class="cls-8"><path class="cls-2" d="M784.32,536.47v-.37a.5.5,0,0,0-1,0v.37a.5.5,0,0,0,1,0Z" transform="translate(-740.8 -477.97)"/></g></g><g class="cls-9"><path class="cls-2" d="M783.33,529.81c-.56,1-1.54,1.55-2.17,2.47a5.37,5.37,0,0,0-.73,2.68c-.1,1.58-.13,3.35,1.26,4.36l.25-.43c-2.27-1.46-1.27-4.15-.41-6.09.12-.29-.31-.55-.44-.25-1,2.24-1.89,5.17.6,6.77.28.18.51-.25.25-.43-1.58-1.16-1.23-4.55-.45-6,.59-1.09,1.66-1.73,2.27-2.81.16-.29-.28-.54-.43-.26Z" transform="translate(-740.8 -477.97)"/></g><g class="cls-9"><path class="cls-2" d="M800.61,533.55c.08,1.51.25,3,.25,4.56a5.12,5.12,0,0,1-.56,2.85,2.76,2.76,0,0,1-4.38.42.25.25,0,0,0-.39.31c1.61,3.14,5.18,1,5.7-1.69.06-.31-.42-.44-.48-.13-.42,2.15-3.34,4.39-4.79,1.56l-.39.31a3.23,3.23,0,0,0,4.81-.08c1.8-2,.86-5.7.73-8.11,0-.32-.52-.32-.5,0Z" transform="translate(-740.8 -477.97)"/></g><g class="cls-9"><path class="cls-2" d="M769.77,551.61a8.69,8.69,0,0,0,6.75.3,4.91,4.91,0,0,1,4.2.07c-.14-.06,1.18.88,1.07.82a5.48,5.48,0,0,0,2.57.68c1.41.07,2.81-.25,4.22-.19a10.34,10.34,0,0,1,5.52,2.21c2.14,1.49,4.15,3.38,6.76,4a3.65,3.65,0,0,0,1.19.17c.63.08.51,0-.36-.26a5,5,0,0,1-2.16-.48,16,16,0,0,1-4.52-3,11.74,11.74,0,0,0-5.73-2.95c-1.9-.3-3.85-.09-5.72-.57-1.24-.32-2.31-1.09-3.55-1.41a6,6,0,0,0-3.3.19c-2.2.6-3.94,1.05-6.12.14-.3-.13-.43.36-.14.48,3.12,1.3,5.22-.38,8.32-.35,1.74,0,3,1,4.66,1.44a23.53,23.53,0,0,0,4.19.42c3.94.29,5.94,2.29,8.92,4.51,2,1.51,4.2,2.5,6.72,1.85a.25.25,0,0,0-.07-.49c-6.16.38-9.45-6.67-15.77-6.34-1.8.1-3.72.49-5.38-.45-.85-.49-1.45-1.32-2.41-1.61a3.76,3.76,0,0,0-2.58.37c-2.51.93-4.49,1.18-7,0-.29-.13-.55.3-.25.44Z" transform="translate(-740.8 -477.97)"/></g><g class="cls-10"><path class="cls-2" d="M768.43,551.09c1.15.24,1.65-.49,2.64-1.12a18.92,18.92,0,0,1,5.24-2.27,19.44,19.44,0,0,1,11.66.57c.3.1.43-.38.13-.49a19.9,19.9,0,0,0-9.64-1,19.55,19.55,0,0,0-4.87,1.34c-1.22.51-3.76,2.77-5,2.51-.31-.06-.45.42-.13.48Z" transform="translate(-740.8 -477.97)"/></g><g class="cls-9"><path class="cls-2" d="M771.71,553.55c2.4,2.12,4.93,4.31,8,5.06a20.17,20.17,0,0,0,2.7.38l8.8.84a6.21,6.21,0,0,1-4.73,1.18,41.38,41.38,0,0,1-4.9-1.13c-1.9-.44-4.1-.78-5.14-2.43" transform="translate(-740.8 -477.97)"/><path class="cls-2" d="M771.53,553.72a24.9,24.9,0,0,0,6.23,4.46c2.4,1.06,5.06,1.09,7.63,1.34.61.06,4.65,0,4.9.47l.27,0a4.15,4.15,0,0,1-1.91.65,8.25,8.25,0,0,1-2.89,0c-2.59-.43-7.38-1.15-9-3.32-.2-.26-.63,0-.43.25,1.64,2.12,4.47,2.33,6.91,3,2.83.73,5.67,1.35,8.2-.5a.25.25,0,0,0-.13-.46c-3.5-.34-7.1-.47-10.57-1.07s-6.19-2.83-8.8-5.14c-.25-.21-.6.14-.36.35Z" transform="translate(-740.8 -477.97)"/></g><path class="cls-2" d="M752.42,518.45c.91,9.48,1.81,19,.67,28.55-.5,4.16-1.26,8.35-.16,12.49a24.43,24.43,0,0,0,4.72,8.81c4.91,6.18,10.93,11.67,18.77,13.49a77.17,77.17,0,0,0,12,1.89c4.41.3,8.54-.61,12.77-1.77,5.09-1.41,10.13-3.06,15.07-4.95,3.9-1.49,7.81-3.05,11-5.85.24-.22-.11-.57-.35-.36-3.1,2.75-6.93,4.27-10.76,5.73s-7.84,2.83-11.83,4-8.33,2.55-12.62,2.74-8.47-.65-12.6-1.42a27.68,27.68,0,0,1-11-4.1,48.75,48.75,0,0,1-8.52-7.91,26.41,26.41,0,0,1-6.16-10.46c-1.09-4.09-.32-8.24.18-12.35,1.14-9.51.24-19.07-.67-28.55,0-.32-.53-.32-.5,0Z" transform="translate(-740.8 -477.97)"/><path class="cls-2" d="M760.54,572.2c.17,6.33,1.22,13.45-1.24,19.45-.12.3.36.43.48.13,2.49-6.06,1.43-13.2,1.26-19.58,0-.32-.51-.32-.5,0Z" transform="translate(-740.8 -477.97)"/><g class="cls-11"><path class="cls-2" d="M773.41,580.6c3.24,4.32,8.39,6.67,13.32,8.86a3.32,3.32,0,0,0,3.33,0l28.27-10.88a12.15,12.15,0,0,0,3-1.48,12.4,12.4,0,0,0,3.21-4.22c-6.84,3-13.95,5.42-21,7.81a54.88,54.88,0,0,1-7.51,2.14c-7.27,1.35-14.75-.26-21.88-2.21" transform="translate(-740.8 -477.97)"/><path class="cls-2" d="M773.23,580.78c2.85,3.62,6.78,5.87,10.9,7.78,1.43.67,3.13,1.76,4.77,1.56,2.65-.33,5.59-2.06,8.07-3l16.87-6.5a45.13,45.13,0,0,0,6.92-2.8c1.88-1.1,3-2.92,4-4.77a.25.25,0,0,0-.34-.34,218.49,218.49,0,0,1-24.3,8.87c-8.75,2.65-17.32,1.19-26-1.15a.25.25,0,0,0-.13.48c8.37,2.27,16.87,3.84,25.39,1.4,4.38-1.26,8.7-2.84,13-4.36,2.21-.78,4.4-1.59,6.58-2.45.64-.25,4.38-2.35,5-2a21.29,21.29,0,0,1-2.21,3,10.79,10.79,0,0,1-3.47,1.9c-2.42,1-4.87,1.87-7.3,2.81l-13.68,5.26-6.38,2.45a5.45,5.45,0,0,1-4.76,0c-.95-.41-1.89-.85-2.82-1.3a26.85,26.85,0,0,1-9.75-7.2c-.2-.26-.55.1-.35.35Z" transform="translate(-740.8 -477.97)"/></g><g class="cls-9"><path class="cls-2" d="M875.37,509.59a4.76,4.76,0,0,1-2.89-1.9,5.28,5.28,0,0,0-.92-1.22c-.78-.62-1.9-.46-2.89-.56-1.64-.15-3.15-1.08-4.8-1.14-2-.07-3.72,1.08-5.33,2.18a13.75,13.75,0,0,0,3.91,2.7,20.33,20.33,0,0,0,2.77.78,40.25,40.25,0,0,1,12.58,5.49,1.58,1.58,0,0,0,.69.3,1,1,0,0,0,.92-.87,2.23,2.23,0,0,0-.3-1.33,8.17,8.17,0,0,0-4-3.82" transform="translate(-740.8 -477.97)"/><path class="cls-2" d="M875.47,509.23c-2.14-.62-2.54-2.62-4.36-3.42-1.31-.57-3-.32-4.34-.74-3.4-1-5.48-.42-8.42,1.55a.38.38,0,0,0-.08.59A17.15,17.15,0,0,0,866,511a44.09,44.09,0,0,1,10.93,4.76c1.37.81,3.1,1.18,2.85-1.1-.23-2.1-2.71-3.95-4.4-4.8-.43-.21-.81.43-.37.65a8.92,8.92,0,0,1,2.47,1.76c.62.66,2.14,3.44.19,3.08-.79-.15-1.87-1.15-2.6-1.54s-1.52-.8-2.31-1.16a71.42,71.42,0,0,0-9.14-3,10.11,10.11,0,0,1-2.68-1.26c-1.4-.94-2-1-.75-2,2.12-1.77,4.5-1.06,6.81-.43,2.08.57,3.3.32,5.26,2a7.14,7.14,0,0,0,3,2,.37.37,0,0,0,.2-.72Z" transform="translate(-740.8 -477.97)"/></g><g class="cls-9"><path class="cls-2" d="M895.19,522.88c-.88-1.4.41-3.3,2-3.78s3.27-.05,4.9.16c2.61.34,5.25.07,7.88.15a4.61,4.61,0,0,1,1.95.37,5.84,5.84,0,0,1,1.48,1.28,25.33,25.33,0,0,0,4,3.49,38,38,0,0,1,3.25,2.37,10.94,10.94,0,0,1,2.74,3.78c-1.51.82-3.37.37-5-.19a56.94,56.94,0,0,1-10.56-4.84,31.06,31.06,0,0,0-5.93-3.11,7.73,7.73,0,0,0-6.49.43" transform="translate(-740.8 -477.97)"/><path class="cls-2" d="M895.51,522.69a2.67,2.67,0,0,1,1.28-3,5.85,5.85,0,0,1,3.58-.26c1.23.15,2.43.34,3.66.39,3,.12,6.47-.79,8.86,1.3a57.72,57.72,0,0,0,5.26,4.47,15.4,15.4,0,0,1,3.27,2.75c1.34,1.6,1.92,2.71-.85,2.36-5.23-.65-10.29-4-14.75-6.63-3.3-1.9-7-3.33-10.64-1.37-.42.23,0,.88.38.64,5.47-3,11.28,2.5,16,4.8,3.29,1.6,8.2,4.5,11.9,2.95a.38.38,0,0,0,.22-.55c-1.68-3.5-4.56-4.94-7.45-7.3-1.25-1-2.26-2.46-3.57-3.39s-2.71-.8-4.17-.79a57.34,57.34,0,0,1-7.53-.31,8.47,8.47,0,0,0-3.91,0,3.23,3.23,0,0,0-2.16,4.32c.18.44.83.06.64-.38Z" transform="translate(-740.8 -477.97)"/></g><g class="cls-12"><path class="cls-2" d="M877.53,521.68a6.38,6.38,0,0,0-2.56-.35,16.64,16.64,0,0,0-3.26.78,14.3,14.3,0,0,1-6.7.62,7.06,7.06,0,0,1-5.25-3.88,3.41,3.41,0,0,1-.37,4.21c.36-.63,1-1.36,1.65-1.13a1.09,1.09,0,0,1,.57,1.33,3.16,3.16,0,0,1-.89,1.29,12.39,12.39,0,0,1,1.14-1.58,1,1,0,0,1,.43-.36c.5-.16.92.44,1,1a2.82,2.82,0,0,1-.51,2,5.26,5.26,0,0,1,1.17-2c.24-.25.6-.5.91-.33a.82.82,0,0,1,.29.74,5.07,5.07,0,0,1-.36,1.88,2.57,2.57,0,0,1,2.21-2.53.82.82,0,0,1,.62.13.9.9,0,0,1,.24.52,5.76,5.76,0,0,1,0,2.41l.64-2.23c.09-.32.24-.7.57-.76s.67.35.8.73a4.43,4.43,0,0,1,.19,2,5,5,0,0,1,.85-2.68.48.48,0,0,1,.33-.26.48.48,0,0,1,.39.22,1.83,1.83,0,1,0,2.26-1.54" transform="translate(-740.8 -477.97)"/><path class="cls-2" d="M877.63,521.32c-2.77-.78-5,.28-7.67.86-3.74.8-8,.23-9.88-3.52l-.65.38a3,3,0,0,1-.3,3.76l.58.45.74,1,.59.45a7.94,7.94,0,0,1,.72-1q1-1.65.7,1.68l.69.29c1.31-2.06,1.83-2.44,1.55-1.12a3.49,3.49,0,0,1-.27,1.19l.74.1c2.15-1.81,2.91-1.67,2.3.43-.07.46.59.67.72.2s.21-1.54.53-1.86c.07-.59.25-.51.54.22a1.06,1.06,0,0,1,.4,1.26c0,.49.7.47.75,0-.25-1,0-1.45.8-1.43.56-.33.79-.17.7.47.07.41.78.32.73-.1a2.59,2.59,0,0,1,1.41-2.87c.41-.25,0-.9-.38-.65a3.38,3.38,0,0,0-1.78,3.52l.74-.1a2.67,2.67,0,0,0-1.23-2.11.39.39,0,0,0-.46.06,4.48,4.48,0,0,0-1.28,3.21h.75c0-.75.05-3.2-1.32-3.08s-1.4,2.49-1.62,3.26l.72.2c.19-1.17.58-3.51-1.19-3.53-1.56,0-2.44,1.6-2.58,2.9,0,.44.61.49.73.1.23-.7.88-2.67-.19-3.08-1.31-.49-2.21,1.79-2.54,2.61-.15.4.49.66.69.29.45-.84,1.12-2.85-.16-3.42s-2.05,1.22-2.56,2c-.22.35.31.77.59.45,2-2.31-.13-4.65-1.91-1.94-.23.35.32.79.59.45a4,4,0,0,0,.42-4.67c-.23-.42-.86,0-.65.38a7.8,7.8,0,0,0,6.32,4.17c4,.44,7.82-2.25,11.68-1.17a.37.37,0,0,0,.2-.72Z" transform="translate(-740.8 -477.97)"/></g><g class="cls-12"><path class="cls-2" d="M895.81,529.66l1.13,3a6.57,6.57,0,0,0,.88,1.78,5.93,5.93,0,0,0,1.92,1.47,29.77,29.77,0,0,0,13.06,3.65,10.52,10.52,0,0,1,4.11.63,7,7,0,0,0-2.83-.57,2.4,2.4,0,0,0-2.21,1.59,1.6,1.6,0,0,0-.72-1.2,1.07,1.07,0,0,0-1.28.53,3.23,3.23,0,0,0-.33,1.47l-.61-2.4a.68.68,0,0,0-.23-.43c-.29-.17-.62.14-.79.42a7.93,7.93,0,0,0-1,2.93,13,13,0,0,0-.12-3c-.06-.33-.2-.73-.53-.75a.74.74,0,0,0-.46.18,4,4,0,0,0-1.45,2.15,9.82,9.82,0,0,0,.35-3,1.9,1.9,0,0,0-2.07,1.24,5.07,5.07,0,0,0,.29-1.68.62.62,0,0,0-.19-.53.6.6,0,0,0-.54,0,7.06,7.06,0,0,0-2.15,1.14c.58-.25.39-1.23-.18-1.48a2,2,0,0,0-1.79.32l.34-1.71-1-.19a1.34,1.34,0,0,0-1.81-1.27,3.3,3.3,0,0,0,.75-2" transform="translate(-740.8 -477.97)"/><path class="cls-2" d="M895.45,529.76c.59,1.58,1,3.56,2.07,4.93,1.19,1.53,3.44,2.35,5.16,3.06a29.88,29.88,0,0,0,6.62,1.85c2.48.4,5.14.09,7.51,1l.2-.72c-2-.67-4.44-1.11-5.46,1.19l.68.09c-.77-2.68-2.86-1.21-3.06.9l.74-.1A12.81,12.81,0,0,0,909,539a.38.38,0,0,0-.32-.18c-1.56.13-2,2.39-2.2,3.62l.74.1c0-.95.46-3.79-.93-4.16-1.15-.31-2.1,1.83-2.38,2.59l.73.2a12.48,12.48,0,0,0,.36-3.11.37.37,0,0,0-.37-.37,2.4,2.4,0,0,0-2.39,1.42l.68.29c.82-3.17-.78-3.11-3.14-1.5l.45.59a1.21,1.21,0,0,0,.17-1.71c-.67-.85-1.8-.43-2.59,0l.55.43.34-1.71a.38.38,0,0,0-.26-.46c-1.4-.28-1.25-1.81-3-1.46l.43.55a4.83,4.83,0,0,0,.79-2.23c.06-.47-.69-.47-.75,0l-.69,1.86c-.19.29.12.61.42.55l1.35,1a.38.38,0,0,0,.26.26.92.92,0,0,1,.38,1.44.38.38,0,0,0,.55.42l1.51.57c-.29.3.09.84.46.59a2.61,2.61,0,0,1,1.49-.69c1.11-.59,1.29-.14.55,1.34a.37.37,0,0,0,.68.29c1.19-1,1.62-1,1.29,0a5.45,5.45,0,0,1-.26,1.44.38.38,0,0,0,.73.2c.41-1.15,1.23-2.29,1.83-.54a6.44,6.44,0,0,1,0,1.91.38.38,0,0,0,.74.1c.15-.79.11-1.49,1-1.82s.74.33,1,1.3c.11.44.7.3.74-.1l1.59-.7c.08.28.55.39.68.09.93-2.08,3-1.39,4.62-.85.46.15.65-.56.2-.72a17.68,17.68,0,0,0-5.07-.69,29.59,29.59,0,0,1-6.19-1.13,23.56,23.56,0,0,1-5.82-2.42c-2.36-1.48-2.84-3.6-3.76-6.05-.17-.45-.89-.25-.72.2Z" transform="translate(-740.8 -477.97)"/></g><g class="cls-13"><path class="cls-2" d="M867.84,539.37c-1.77,1.26-4.22,2.52-5.34,4.47-.69,1.21-1.16,3.18-.16,4.38,1.27,1.53,3.55,1,4.35,3.31-.39-1.12.34.65.39.54s-1.8-1.75-2-1.94-1.24-1.35-1.2-1,1.8,1.61,2.08,1.93.56-.07.39-.3c-1.19-1.69.45.93-.3-.17l-.44.26.51.67c.19.25.62,0,.43-.26l-.5-.67c-.19-.25-.62,0-.44.26a2.08,2.08,0,0,0,.88.88c.22.15.45-.14.34-.34a5.85,5.85,0,0,0-1.29-1.77c-.19-.19-.56.06-.39.3.79,1.12.54.05-.11-.51a11.93,11.93,0,0,0-1.53-1.11c-.25-.16-.47.19-.3.39,1.25,1.49,2.35,3.47,4.41,3.73.27,0,.3-.34.12-.47-.87-.61-.8-1.55-1.47-2.28-.48-.52-1-.55-1.6-.86-5.6-3.06.51-6.94,3.39-9,.26-.19,0-.62-.25-.43Z" transform="translate(-740.8 -477.97)"/></g><g class="cls-14"><path class="cls-2" d="M890.61,544.15l.71,5.78a11.22,11.22,0,0,1-.07,4.51,3.75,3.75,0,0,1-3.18,2.84,1.66,1.66,0,0,1-1.68-.93,6.38,6.38,0,0,1-.14-1c-.23-1.23-1.67-1.89-2.92-1.81a15.38,15.38,0,0,0-3.59,1.06,10.28,10.28,0,0,1-7.89-.78c1.26,1.83,3.56,2.63,5.74,3.07a62.92,62.92,0,0,0,10.45.91l2.37.07a3.85,3.85,0,0,0,1,0,2.58,2.58,0,0,0,1.75-2.53,8.2,8.2,0,0,0-.83-3.19,6.47,6.47,0,0,1-.64-3.21" transform="translate(-740.8 -477.97)"/><path class="cls-2" d="M890.36,544.15c.36,2.94,1.31,6.42.78,9.37-.19,1-.93,3.73-2.51,3.42a24.12,24.12,0,0,1-2.14-1.64c-.32-.42-.28-.78-.7-1.19-1.07-1-2.68-.88-4-.5-3.51,1-6.34,1.73-9.83,0a.25.25,0,0,0-.31.39c3.54,4.42,11.33,3.89,16.37,4,1.83.06,4,.59,5-1.34,1.3-2.48-1.19-5.29-1.12-7.82a.25.25,0,0,0-.5,0,8.53,8.53,0,0,0,.65,3.28c.28.78,1.07,2.33.82,3.12-.34,1.08-2.22,2.21-3.25,2.31a44.51,44.51,0,0,1-10.11-.64,17.87,17.87,0,0,1-4.68-1.18,21.74,21.74,0,0,1-2.35-1.56c-.33.2.61.41.41.35a11.6,11.6,0,0,0,6.92.27c1.5-.44,3.68-1.78,5.24-.67.9.64.75,2,1.39,2.72a2.46,2.46,0,0,0,2.91.29c4.29-2.14,1.94-9.53,1.51-13,0-.32-.54-.32-.5,0Z" transform="translate(-740.8 -477.97)"/></g><g class="cls-13"><path class="cls-2" d="M857.33,568.05c2,1.85,4.52,1.11,7,1.3,3.51.27,6,3,9.49,3,2.4,0,4.1.1,6.23,1.39,1.37.82,2.58,1.89,4,2.66a11.42,11.42,0,0,0,3.32,1.17c2.32.47-.86-.11-1.12-.18a19.12,19.12,0,0,1-3.29-1.72c-.28-.15-.53.28-.25.43,1.52.79,5.25,3.83,6.54,1.25a.26.26,0,0,0-.29-.37c-3.81.53-6.26-2.4-9.29-4.06-2-1.08-3.66-1-5.83-1.07-2.89-.1-5-2.18-7.76-2.79s-6.22.6-8.34-1.4c-.24-.22-.59.13-.36.35Z" transform="translate(-740.8 -477.97)"/></g><g class="cls-13"><path class="cls-2" d="M861,567.81c2.63-1.06,5.55-1.82,8.25-.48,1.4.7,2.33,1.43,3.93,1.63,2.64.33,5,.33,7.31,1.9,1.67,1.14,2.88,2.76,4.65,3.77.28.16.54-.27.26-.43-2-1.14-3.35-3.07-5.35-4.21a14.11,14.11,0,0,0-6-1.46c-2.57-.24-4.32-2-6.81-2.36a12.56,12.56,0,0,0-6.32,1.16c-.3.12-.17.61.13.48Z" transform="translate(-740.8 -477.97)"/></g><g class="cls-13"><path class="cls-2" d="M861.22,571.33c2,2.29,3.18,4.95,6,6.39a20.4,20.4,0,0,0,9.66,2.55c.32,0,.32-.51,0-.5a19.72,19.72,0,0,1-10.16-2.88c-2.3-1.39-3.43-3.95-5.15-5.92-.21-.24-.57.12-.35.36Z" transform="translate(-740.8 -477.97)"/></g><g class="cls-15"><path class="cls-2" d="M865.28,576.26c.8,1.57.72,3.46,1.33,5.12a8.63,8.63,0,0,0,4.4,4.48,25.64,25.64,0,0,0,6.15,1.83c.68.14,1.52.22,1.93-.34a1.4,1.4,0,0,0,.06-1.31c-.45-1.2-1.61-2-2.17-3.16a8.27,8.27,0,0,0-1-2.09,4.22,4.22,0,0,0-2.6-1,26.68,26.68,0,0,1-7.78-2.58" transform="translate(-740.8 -477.97)"/><path class="cls-2" d="M865.06,576.38c.79,1.86.71,4,1.62,5.78a8.66,8.66,0,0,0,3,3.2,17.11,17.11,0,0,0,5.66,2.18c.88.21,2.63.9,3.56.32a1.53,1.53,0,0,0,.52-1.91,4.86,4.86,0,0,0-.9-1.43,31.68,31.68,0,0,1-1.82-3.18,3.58,3.58,0,0,0-2.81-1.76,33.46,33.46,0,0,1-8.08-2.61c-.29-.15-.54.29-.25.43,2.56,1.25,5.18,1.71,7.84,2.6,2,.66,2.74,2,3.73,3.56.65,1,3.36,3.17.14,3.89-1.12.25-3.4-.75-4.46-1.13a11.63,11.63,0,0,1-4.22-2.48c-2.23-2.15-1.93-5.07-3.06-7.71-.12-.3-.55,0-.43.25Z" transform="translate(-740.8 -477.97)"/></g><g class="cls-16"><path class="cls-2" d="M891.21,561.58A29.38,29.38,0,0,1,894,571.71c0,.31.53.32.5,0a30.53,30.53,0,0,0-2.87-10.38c-.14-.29-.57,0-.44.25Z" transform="translate(-740.8 -477.97)"/></g><g class="cls-17"><path class="cls-2" d="M874.28,560.78a4.46,4.46,0,0,1-.47,1.7,6,6,0,0,0-.54,1.69,1.77,1.77,0,0,0,.58,1.59,1.07,1.07,0,0,0,1.55-.22,1.47,1.47,0,0,0,0-1.13c-.33-1.26-1-2.51-.72-3.77" transform="translate(-740.8 -477.97)"/><path class="cls-2" d="M874,560.78c-.11,1.37-1.22,2.57-1,4a1.61,1.61,0,0,0,1.4,1.47,1.18,1.18,0,0,0,1.32-1.1c.13-1.54-1.12-2.81-.82-4.42.06-.31-.42-.45-.48-.13a4.09,4.09,0,0,0,.07,1.84c.18.73.84,1.81.74,2.57-.41.93-.94,1-1.58.2l-.18-.73a4.32,4.32,0,0,1,.52-1.85,5.93,5.93,0,0,0,.5-1.83c0-.32-.47-.32-.5,0Z" transform="translate(-740.8 -477.97)"/></g><g class="cls-18"><path class="cls-2" d="M893.76,524.28c-2,.82-4.11,1.8-5,3.74-.77,1.69-.38,3.65,0,5.45a3.49,3.49,0,0,1,.43-1.84.62.62,0,0,1,.37-.34c.4-.08.53.52.51.94a9.51,9.51,0,0,0,3.46,7.3,27.8,27.8,0,0,0,7.17,4.24,44.83,44.83,0,0,1-4.54-6.07c-.75-1.21-1.46-2.75-.8-4a13.15,13.15,0,0,0,.74-1.19,3.47,3.47,0,0,0-.34-2.54,1.1,1.1,0,0,0-.43-.58c-.29-.15-.65,0-1,.07s-.79-.07-.78-.4a2.21,2.21,0,0,0,1.4.43c.49-.08.89-.71.57-1.09s-1.24,0-1.75-.35c-1-.68,1-2.66,0-3.37" transform="translate(-740.8 -477.97)"/><path class="cls-2" d="M893.63,524.07c-1.85.78-3.88,1.68-4.91,3.52s-.59,4-.16,5.95c.06.29.48.21.49-.07.68-1.53,1-1.7.81-.49,0,.26,0,.52.08.78a8.4,8.4,0,0,0,.52,1.84,10.57,10.57,0,0,0,1.86,3c2.19,2.53,5.32,4,8.29,5.36a.25.25,0,0,0,.31-.39,44.47,44.47,0,0,1-4.28-5.66c-1.12-1.8-1.23-2.43-.64-4.71.26-1,.48-.3.52-1.57,0-.58-.31-2.18-1-2.46-.22-.09-1.8-.16-1.33.43.76,1,1.83-.66,1.53-1.42-.09-.23-.51-.16-.69-.29-1.79-1.38-1.09-.41-.93-1.71.09-.78.39-1.07-.15-1.72-.2-.25-.55.11-.35.35.74.91-.78,2-.28,3,.08.16.29.28.35.42-.53-1.21,2.55,1.86,0,.58-.2-.1-.5.13-.34.34.67.91.2-.09,1.06.52,2.75,2,.37,3.06.43,5.34.08,2.51,2.57,5.14,4.05,7,.17.22.9,1.34,1.17,1.19-.29.16-2.29-1.12-2.63-1.31a16.73,16.73,0,0,1-4.8-3.62,9.66,9.66,0,0,1-2-3.51c-.27-.91,0-2.14-.36-3-.2-.49-.18-.55-.67-.73a.24.24,0,0,0-.24.07,2,2,0,0,0-.69,1,3.84,3.84,0,0,1-.15.69c.4-.65,0-1.3,0-2.14-.05-3.48,2.42-5,5.29-6.2.29-.13,0-.56-.26-.43Z" transform="translate(-740.8 -477.97)"/></g><g class="cls-18"><path class="cls-2" d="M877,519.35a15.8,15.8,0,0,1-5.92-1.77c-.85-.47-1.73-1.4-2.75-1.47s-1.88.66-2.73.86a16.8,16.8,0,0,1-6.24-.16c-.32,0-.45.44-.13.49a26.81,26.81,0,0,0,4.47.39,24.86,24.86,0,0,0,3.59-.76c2-.34,3.36,1.1,5,1.79a16.42,16.42,0,0,0,4.68,1.13c.32,0,.32-.47,0-.5Z" transform="translate(-740.8 -477.97)"/></g><g class="cls-18"><path class="cls-2" d="M899.4,529a16.82,16.82,0,0,1,5.49,2.77c1.31,1,2.27,2.56,3.62,3.46a6.59,6.59,0,0,0,2.91.76,25.88,25.88,0,0,1,6.6,2l.26-.43c-1.6-.71-3-1.74-4.7-2.32-1.88-.65-4.28-.07-5.81-1.56-.23-.23-.58.13-.35.35a4.9,4.9,0,0,0,3.32,1.22c2.8.29,4.78,1.63,7.28,2.74.29.13.55-.29.26-.43a26.34,26.34,0,0,0-5-1.75c-2.23-.52-4-.5-5.74-2.32a17.79,17.79,0,0,0-8-5c-.31-.1-.44.38-.13.48Z" transform="translate(-740.8 -477.97)"/></g><g class="cls-18"><path class="cls-2" d="M899.28,534.61a34.15,34.15,0,0,0,5.74,2.55c2.17.55,4.41-.08,6.6.14,1.33.14,2.32.88,3.58,1.15.91.2,1.06.1.17-.26-2.47-1-6.34.76-8.64-.86-.27-.18-.52.25-.26.44,1.08.75,2.68.55,3.94.63l6.31.37c.33,0,.31-.46,0-.5-1.53-.17-2.73-1.08-4.2-1.38a12.8,12.8,0,0,0-3.33-.09,13.53,13.53,0,0,1-4.4-.24,35.37,35.37,0,0,1-5.25-2.38c-.29-.14-.55.3-.26.43Z" transform="translate(-740.8 -477.97)"/></g><g class="cls-18"><path class="cls-2" d="M909,530c3.92,1.59,7.71,3.63,9.67,7.58.14.29.57,0,.43-.26-2-4-5.93-6.16-10-7.8-.3-.12-.43.36-.13.48Z" transform="translate(-740.8 -477.97)"/></g><g class="cls-18"><path class="cls-2" d="M917.69,539a11.13,11.13,0,0,0,8.36.68c.3-.09.17-.58-.14-.48a10.58,10.58,0,0,1-8-.63c-.29-.14-.54.29-.26.43Z" transform="translate(-740.8 -477.97)"/></g><g class="cls-18"><path class="cls-2" d="M917.56,541l5.52,2.37c.29.13.55-.31.25-.43l-5.52-2.37c-.29-.13-.55.3-.25.43Z" transform="translate(-740.8 -477.97)"/></g><g class="cls-18"><path class="cls-2" d="M920.87,536.93a9,9,0,0,1,3.58.88c.29.14.54-.29.25-.43a9.61,9.61,0,0,0-3.83-1c-.32,0-.32.49,0,.5Z" transform="translate(-740.8 -477.97)"/></g><g class="cls-18"><path class="cls-2" d="M859.32,511.13a41.59,41.59,0,0,0,.6,4.58,10.75,10.75,0,0,1-.16,4.59,4.81,4.81,0,0,1-3,3.27,6.48,6.48,0,0,1-1.53.2,24,24,0,0,1-2.68,0l1.43-6c.6-2.53,1.32-5.26,3.36-6.88.56-.44,1.49-.74,1.91-.15" transform="translate(-740.8 -477.97)"/><path class="cls-2" d="M859.07,511.13c.16,2.44.94,4.91.75,7.36-.16,2-1,4.14-3.15,4.83-.65.22-3,.58-3.47-.07-.71-.91.87-5,1.17-6.16s2.25-8,4.73-6.19c.26.19.51-.24.25-.43-4.24-3.05-6.69,11.63-7.06,13.22a.26.26,0,0,0,.24.32c2.67.11,5.39.2,6.9-2.37,1.87-3.16.35-7.16.14-10.51,0-.32-.52-.33-.5,0Z" transform="translate(-740.8 -477.97)"/></g><g class="cls-13"><path class="cls-2" d="M865.77,489.42l4.8.15c2.19.06-.13.75-1,1.29a.26.26,0,0,0,.13.47L876,491a15.14,15.14,0,0,1,2.73-.15c.1.1-1.56,1.35-1.82,1.56a.25.25,0,0,0,.18.43,45,45,0,0,0,9.91-1.73l-.13-.48a3.54,3.54,0,0,0-2.1,1.67.25.25,0,0,0,.29.36l6.95-1.12c.36-.06,3.12-.71,3.25-.52s-1.09,1.19-1.45,1.55a.25.25,0,0,0,.24.42l3.56-.64c1.1-.2,2.42-.89,1.46.68a.25.25,0,0,0,.14.37c2.9.92,4.85,3.28,8,3.78,2.12.34,3.22-.33,1,1.9a25.31,25.31,0,0,1-4.76,3.44.25.25,0,0,0,.13.46c.35,0,4.13-.56,4.29-.3s-1.55,2.1-2,2.58a.26.26,0,0,0,.18.43,86.24,86.24,0,0,0,14-.2c2.66-.26,5.59-.43,7.33-2.72l-.43-.25a80.51,80.51,0,0,0-4.68,7.56c-.09.18.07.45.28.37a10.31,10.31,0,0,1,1.48-.58c1.24-.25.63-.39.6.47,0,1-.92,2.17-1.06,3.28l-1.08,8.57c0,.27.34.3.46.12a13,13,0,0,1,1.86-2.22,1.08,1.08,0,0,1,.91-.59c.54-.24.68,0,.4.86.4,1.48.38,3.18.75,4.69a.25.25,0,0,0,.45.06c.14-.22,1.23-2.57,1.53-2.58.78,0,.68.61,1,1.3.83,1.87,1.76,3.68,2.75,5.46a.25.25,0,0,0,.46-.06c.2-.7.29-3.12.76-3.58.2-.2,1.81,4.78,1.92,5.44,0,.2.38.26.46.06,1.07-2.51,2.21,1.33,2.44,1.89a24.17,24.17,0,0,1,1,2.91,25,25,0,0,1,.79,6.38A24.42,24.42,0,0,1,936.86,555a.26.26,0,0,0,.34.35l1.79-.92-.25-.44c-4.53,3.41-6.69,8.71-8.88,13.75-1.44,3.31-4.85,9.14-1.74,12.4a.26.26,0,0,0,.31,0c2.84-1.5,4-4.44,5-7.35a93.38,93.38,0,0,1,5.75-14.11,80.28,80.28,0,0,1,7.61-12.09,10.15,10.15,0,0,1,6-4.28c2.88-.71,5.82-1.23,8.71-1.84.32-.07.19-.55-.13-.48-3.38.71-7.32,1-10.53,2.26-2.43,1-4.07,3.45-5.54,5.48a84.5,84.5,0,0,0-9.87,17.85c-1.31,3.24-2.11,6.72-3.55,9.9-.44,1-1.83,3.88-3.11,3.92s-1.38-2.16-1.34-2.87a10.29,10.29,0,0,1,.52-2.51,79.5,79.5,0,0,1,4.23-10.25c1.67-3.57,3.63-7,6.83-9.38a.25.25,0,0,0-.25-.44c-1.66.86-1,.63-.32-.74a25.14,25.14,0,0,0-1-23.78.26.26,0,0,0-.34-.09c-1.24.91-.75,1.32-1.25-.42a16.28,16.28,0,0,0-2-4.22.25.25,0,0,0-.46.12c0,.29-.27,3.44-.52,3.44-.57,0-.68-.84-.91-1.28-.93-1.79-1.76-3.63-2.52-5.5a.26.26,0,0,0-.46-.06,18.6,18.6,0,0,1-1,1.73c-.55.74-.36,1.13-.88.41-.71-1-.45-3.84-.44-5.07a.25.25,0,0,0-.38-.21,16.58,16.58,0,0,0-2.27,2c-1.24,1.34-.9,1.52-.65-.46a39.53,39.53,0,0,1,2.39-10.7.25.25,0,0,0-.31-.3c-.09,0-2.2.89-2.21.87-.17-.35.86-1.69,1.08-2.06,1-1.66,2-3.26,3.14-4.85.19-.27-.24-.5-.43-.25-2.45,3.23-8.88,2.73-12.5,2.83-1.87.06-3.74.06-5.61,0-.47,0-1.85.22-2.1-.34a17.92,17.92,0,0,1,2.11-2.46c.13-.15.06-.44-.17-.43a24,24,0,0,1-3.87.28c-.76-.07-.49.26.11-.23s1-.68,1.55-1a14.53,14.53,0,0,0,3.89-4,.26.26,0,0,0-.22-.38,10.05,10.05,0,0,1-6.91-1.61,20.38,20.38,0,0,0-1.74-1.48c-1.16-.61-2-.29-1.09-1.85.13-.2-.08-.4-.28-.37-1.48.27-3,.51-4.45.8-2,.38-.11-.68.6-1.39a.25.25,0,0,0-.24-.41l-5.57.89-2.78.45-.93.15q-2,.57.22-.77c.3-.11.18-.57-.13-.48a45.27,45.27,0,0,1-6.19,1.36,15.61,15.61,0,0,1-2.73.28,13.11,13.11,0,0,1,1.86-1.54c.17-.13,0-.44-.17-.43l-6.36.34a12.14,12.14,0,0,1-2.73.14,16.38,16.38,0,0,0,2-1.19.25.25,0,0,0-.13-.46l-6.72-.21c-.32,0-.32.49,0,.5Z" transform="translate(-740.8 -477.97)"/></g><g class="cls-13"><path class="cls-2" d="M947.38,548.87a26.52,26.52,0,0,1,6.86-3.52c1-.35,2.33-.59,3.11.18a2.13,2.13,0,0,1,.42,2.05,6.18,6.18,0,0,1-1,1.92l-5.61,8c.38-3.1,3.22-5.44,3.7-8.53a2.52,2.52,0,0,0-.13-1.49,2.13,2.13,0,0,0-1.83-1.09,4.36,4.36,0,0,0-2.13.57" transform="translate(-740.8 -477.97)"/><path class="cls-2" d="M947.51,549.09a29.54,29.54,0,0,1,4.46-2.58,10.48,10.48,0,0,1,2.66-1c1.2-.45,2.16.22,2.9,2a5.59,5.59,0,0,1-.81,1.55c-1.76,2.86-3.88,5.56-5.81,8.31l.45.19c.56-3.07,4.22-6.15,3.75-9.39-.35-2.39-2.78-2.2-4.51-1.44-.29.13,0,.56.25.43,3.8-1.67,4,2,2.78,4.36-.33.65-.74,1.26-1.1,1.89a12,12,0,0,0-1.65,4,.25.25,0,0,0,.46.19c1.78-2.55,3.58-5.08,5.35-7.64.78-1.12,2-2.7,1.18-4.14-1.8-3.37-8.86,1.59-10.61,2.8-.27.19,0,.62.25.44Z" transform="translate(-740.8 -477.97)"/></g><g class="cls-13"><path class="cls-2" d="M941.05,555.36l2.63-2.43a1.35,1.35,0,0,1,.8-.45,1,1,0,0,1,.9.7,3.88,3.88,0,0,1-.48,3.27,6.85,6.85,0,0,0-1.12,3.2c0,.57.21,1.13.25,1.71a1.62,1.62,0,0,1-.63,1.52c-.67.4-1.52-.07-2.16-.52l-2.37-1.66a.75.75,0,0,1-.28-.31.64.64,0,0,1,.25-.58,19.69,19.69,0,0,0,2.06-2.13,2.62,2.62,0,0,0,.32-2.79c-.06-.09-.15-.18-.24-.13s0,.21.07.11" transform="translate(-740.8 -477.97)"/><path class="cls-2" d="M941.23,555.54c.35-.33,2.27-2.5,2.62-2.43l1.34,2a9.42,9.42,0,0,1-.66,1.53c-.16.34-.35.65-.5,1a6.94,6.94,0,0,0-.44,2.6c-.1,1.22.77.06-.8,1.44-1.15,1-.93.82-2,.07-.3-.22-1-.52-1.18-.83-.76-1.19.1-1.52.72-2.15a5.5,5.5,0,0,0,1.12-1.5c.36-.79.58-2.2-.33-2.71a.25.25,0,0,0-.37.22v.11c0,.14.12.23.25.25h.08c.32,0,.32-.47,0-.5.76.07-.45,3-.69,3.35a11.09,11.09,0,0,1-.84.84c-.29.27-1,.71-1.1,1.14-.18.65.14.78.62,1.17,1.12.9,4.48,3.71,5.19.89a3.5,3.5,0,0,0,0-1.29,7,7,0,0,1,.93-4.14c.47-1,1-2.33.5-3.47-1.15-2.42-3.84,1.24-4.74,2.07-.24.22.12.58.35.36Z" transform="translate(-740.8 -477.97)"/></g><g class="cls-13"><path class="cls-2" d="M944.22,566.32a9.1,9.1,0,0,0-2.69.63,3,3,0,0,0-1.76,2,.55.55,0,0,0,0,.4c.14.25.51.21.78.12a8.46,8.46,0,0,0,3.84-2.58" transform="translate(-740.8 -477.97)"/><path class="cls-2" d="M944.22,566.07a7.19,7.19,0,0,0-3.53,1.1c-.54.42-1.5,1.49-1.13,2.27s1.47.17,2-.05a8.93,8.93,0,0,0,3.08-2.3c.21-.24-.14-.6-.36-.36a8.43,8.43,0,0,1-1.69,1.52c-.35.24-1.63,1.12-2,1-1.3-.4.75-1.89,1.15-2.08a8.32,8.32,0,0,1,2.56-.6c.31,0,.32-.54,0-.5Z" transform="translate(-740.8 -477.97)"/></g><g class="cls-13"><path class="cls-2" d="M933.81,570.82l-.23,3.3a4.78,4.78,0,0,0,.16,2,1.62,1.62,0,0,0,1.55,1.12,6.65,6.65,0,0,1,1-.19c.34,0,.67.44.44.69a.62.62,0,0,1-.25.14c-1.45.52-3.39.42-4.12-.93s.16-2.92,1-4.16" transform="translate(-740.8 -477.97)"/><path class="cls-2" d="M933.56,570.82c-.12,1.72-1.19,5.73,1.08,6.59.34.13.76-.06,1.05,0,1.08.36-1,.51-1.33.47-2.94-.38-1.88-3.32-.78-5,.18-.27-.25-.52-.43-.26-.87,1.31-2,3.21-.83,4.7a3.41,3.41,0,0,0,3.34,1c.58-.1,2.07-.6,1.06-1.38-.39-.3-.36,0-.77-.14h-.07c-1,.36-1.64-.21-2.08-1.72-.27-1.28.17-3,.26-4.33,0-.32-.48-.32-.5,0Z" transform="translate(-740.8 -477.97)"/></g><g class="cls-13"><path class="cls-2" d="M934.92,579.25l.05-.16a.26.26,0,0,0-.12-.28l-.16-.12a.26.26,0,0,0-.3,0c-1.14.95-1.63,3-1.83,4.42s-.1,2.69-.37,4a17.21,17.21,0,0,0-.53,3.34.25.25,0,0,0,.49.07l.2-.5c.12-.3-.36-.43-.48-.14l-.2.5.49.07c0-1.82.67-3.54.77-5.35.13-2.4.86-3.8,1.51-6a.25.25,0,0,0,.48.14Z" transform="translate(-740.8 -477.97)"/></g><g class="cls-13"><path class="cls-2" d="M934.73,579.27a8.79,8.79,0,0,0,5.37-4.15c1-1.82.7-3.11,2.6-4.52a12.11,12.11,0,0,0,2.23-1.75c1-1.1,1.77-2.33,2.86-3.33s2.51-2,3.72-3c2.56-2.2,4.11-5,5.61-8,.14-.28-.29-.54-.44-.25-1.47,2.94-3,5.76-5.53,7.94a38.92,38.92,0,0,0-5.72,5.24,11.89,11.89,0,0,1-3.57,3c-.6.39-.74.42-1.07,1-.61,1.17-.56,2.56-1.29,3.76a8.34,8.34,0,0,1-4.91,3.61.25.25,0,0,0,.14.48Z" transform="translate(-740.8 -477.97)"/></g><g class="cls-3"><path class="cls-2" d="M756,487.93a80.42,80.42,0,0,0-2.81,17.37c-.37,7,.19,14.06.42,21.09a225.76,225.76,0,0,1-.76,27.52c-.22,2.4-.46,4.9.36,7.17,1,2.76,3.41,4.73,5.08,7.15,4.12,5.94,3.47,13.9,2.16,21-.36,1.93-.82,4-2.24,5.32-2,1.89-5.37,1.68-7.57,0a10.67,10.67,0,0,1-3.74-7.09,50.12,50.12,0,0,1-.1-8.22c.14-7.86-1.35-15.68-1.27-23.54.07-6.37,1.17-12.67,1.95-19a194.33,194.33,0,0,0,1.11-36.09c-.21-3.41-.5-6.94.66-10.16s4.23-6,7.63-5.68" transform="translate(-740.8 -477.97)"/><path class="cls-2" d="M755.47,487.8a85,85,0,0,0-3,21.81c0,7.73.63,15.44.66,23.17,0,8-.89,15.89-1.08,23.85a11.68,11.68,0,0,0,2.18,7.46c2.21,3.07,4.73,5.47,5.79,9.25a27,27,0,0,1,.71,9.43c-.24,3.26-.37,9-3,11.43-3.56,3.3-8.34-.34-9.73-3.91-1.47-3.79-.83-8-.82-11.94,0-7.56-1.36-15.05-1.28-22.6s1.6-15.26,2.4-22.87a196.49,196.49,0,0,0,.94-26.35c-.13-3.93-.71-7.94-.42-11.87.31-4.43,2.77-9.55,7.93-9.33.64,0,.64-1,0-1-6.31-.27-8.9,6.32-9,11.62-.05,4.17.43,8.36.52,12.53q.15,6.84-.18,13.68c-.42,8.72-1.8,17.3-2.72,26s.2,17.24.67,26c.34,6.4-1.85,15.43,3.53,20.37a7.08,7.08,0,0,0,6.59,1.68c2.67-.74,3.83-3.18,4.4-5.7,1.42-6.29,2.2-13.64-.46-19.72-1.51-3.46-4.67-5.76-6.24-9.14-1.86-4-.48-9.35-.22-13.58a290.89,290.89,0,0,0,0-30.26c-.41-10.08.09-19.91,2.73-29.7a.5.5,0,0,0-1-.26Z" transform="translate(-740.8 -477.97)"/></g><g class="cls-4"><path class="cls-2" d="M761.66,483.16a213,213,0,0,0-9.4,20.85,42.12,42.12,0,0,0-2.76,11.21,45.05,45.05,0,0,0,1,11.86c.71,3.86,1.56,7.7,2.52,11.52.39,1.59,1.34,3.61,1.35,5.25,0,1.46-1,3.14-1.32,4.57a31.7,31.7,0,0,0,2.23,21l7.77-4.54a28.39,28.39,0,0,1-4-14.46c0-5.68,2-11,1-16.68-.45-2.39-3.33-3.75-5.53-3.14a4.6,4.6,0,0,0-3.15,5.54c.51,2.66-.3,5.42-.71,8.05a36.86,36.86,0,0,0,4.63,25.23c3,5.1,10.15.63,7.77-4.54-2.64-5.75-2.14-11.52-.29-17.37,1.15-3.61.08-6.86-.83-10.39s-1.68-7-2.38-10.55a43,43,0,0,1-1.13-10.42c.15-3.37,1.34-6.65,2.5-9.79a191.65,191.65,0,0,1,8.49-18.7c2.57-5.17-5.19-9.74-7.77-4.54Z" transform="translate(-740.8 -477.97)"/></g><g class="cls-4"><path class="cls-2" d="M802.41,550.58a13.36,13.36,0,0,0,4.74-4.47,4.52,4.52,0,0,0-1.61-6.15,4.61,4.61,0,0,0-6.16,1.61c-.11.17-.23.34-.35.5l.7-.91a8.44,8.44,0,0,1-1.58,1.58l.91-.7a9.41,9.41,0,0,1-1.2.77,4.53,4.53,0,0,0-1.61,6.15,4.6,4.6,0,0,0,6.16,1.62Z" transform="translate(-740.8 -477.97)"/></g><g class="cls-4"><path class="cls-2" d="M785.61,512.79a15.67,15.67,0,0,0-5.18-.66,21,21,0,0,0-2.74.36l-1.05.25a2.47,2.47,0,0,1,2,.7c-1.57-1.85-4.74-1.62-6.36,0a4.6,4.6,0,0,0,0,6.37c3,3.52,7.25.59,11,1.66,5.58,1.61,8-7.08,2.39-8.68Z" transform="translate(-740.8 -477.97)"/></g><g class="cls-4"><path class="cls-2" d="M811.63,517.23l-.23-.23a4.69,4.69,0,0,0-5.45-.7c-5.58,2.42-1.05,9.33,1.85,11.81,3.65,3.13,8.16,4.58,12.73,5.8,5.6,1.5,8-7.17,2.39-8.68-3.14-.84-9.52-2.07-10.75-5.72v2.39l.05-.37-2.07,2.69.34-.15-5.45-.7.23.22c4.15,4,10.52-2.31,6.36-6.36Z" transform="translate(-740.8 -477.97)"/></g><g class="cls-4"><path class="cls-2" d="M780,513.17a13.46,13.46,0,0,1-10.07-1.78c-5-3-9.5,4.78-4.55,7.77a22.79,22.79,0,0,0,17,2.68c5.65-1.25,3.26-9.93-2.39-8.67Z" transform="translate(-740.8 -477.97)"/></g><g class="cls-4"><path class="cls-2" d="M858.82,537c-6.63,7.11-5.11,18.9,3.93,23.25l3.46-8.22a8.36,8.36,0,0,1-2.83-1.94,4.56,4.56,0,0,0-7.69,3.18l0,5.88,2.23-3.88-.49.21,2.28-.61-.48-.06,2.27.61c1,.61.24-1,.12-1.72-.2-1.27-.4-2.55-.57-3.83q-.53-4-.85-8c-.44-5.31-.62-10.63-.57-16,0-5.08-7.48-6.1-8.84-1.2-3.36,12.07-6.88,24.11-10.06,36.22a43.76,43.76,0,0,0-1.39,17.55A56,56,0,0,0,845,595.19c1.95,4,8.65,2.1,8.38-2.28-.42-7-1.07-14-1.19-21-.08-4.57.43-11.77,5.49-13.88l-4.38-7.52a38.29,38.29,0,0,0-3.82,41.33c2.71,5.12,10.48.58,7.77-4.55-5-9.42-4.18-21.91,2.41-30.42,1.25-1.61,1.81-3.57.7-5.45-.91-1.57-3.27-2.82-5.08-2.07-7.5,3.13-11.16,10-11.93,17.87a77.5,77.5,0,0,0,.23,12.28l.8,13.39,8.39-2.27A44.43,44.43,0,0,1,848,576.31c-.62-5.36.66-10.45,2.08-15.57q4.65-16.8,9.33-33.57l-8.83-1.2a173.91,173.91,0,0,0,1.27,22.7c.7,5.72,1.45,18.46,10.56,14.38a4.42,4.42,0,0,0,2.23-3.89l0-5.88L857,556.47a19.42,19.42,0,0,0,6.81,4.25c4.73,1.81,8-6,3.47-8.23-3.62-1.74-5.06-6-2.11-9.12,4-4.23-2.4-10.61-6.36-6.36Z" transform="translate(-740.8 -477.97)"/></g><g class="cls-4"><path class="cls-2" d="M864.62,574.69c4,2.87,9.43,7.33,14.57,7.18,5.78-.17,5.81-9.17,0-9-1.46,0-3.6-1.72-4.84-2.48q-2.65-1.64-5.19-3.47c-2-1.42-5-.34-6.15,1.62-1.33,2.26-.37,4.73,1.61,6.15Z" transform="translate(-740.8 -477.97)"/></g><g class="cls-4"><path class="cls-2" d="M863.3,573a19,19,0,0,0,14.27,8.32c2.42.24,4.5-2.23,4.5-4.5,0-2.62-2.07-4.26-4.5-4.5a9.23,9.23,0,0,1-6.49-3.86,4.61,4.61,0,0,0-6.16-1.61c-2,1.15-3,4.14-1.62,6.15Z" transform="translate(-740.8 -477.97)"/></g><g class="cls-4"><path class="cls-2" d="M775.35,559.11q7.51,2.68,15.18,4.94c5.57,1.63,8-7,2.4-8.68q-7.66-2.25-15.19-4.94c-5.46-1.95-7.81,6.74-2.39,8.68Z" transform="translate(-740.8 -477.97)"/></g><g class="cls-4"><path class="cls-2" d="M773.44,558.12a33.1,33.1,0,0,0,13.12,1.26c2.42-.26,4.5-1.88,4.5-4.5,0-2.23-2.06-4.76-4.5-4.5a26.47,26.47,0,0,1-10.73-.94c-5.56-1.68-7.93,7-2.39,8.68Z" transform="translate(-740.8 -477.97)"/></g><g class="cls-4"><path class="cls-2" d="M776.58,556a31.49,31.49,0,0,1,11,1.61c5.52,1.81,7.88-6.87,2.39-8.68A39.36,39.36,0,0,0,776.58,547c-5.78.17-5.8,9.17,0,9Z" transform="translate(-740.8 -477.97)"/></g><g class="cls-4"><path class="cls-2" d="M781.06,557.39a62.39,62.39,0,0,0,11.18.7c5.78-.19,5.8-9.19,0-9a49.64,49.64,0,0,1-8.79-.37c-2.4-.35-4.84.59-5.54,3.14-.58,2.11.72,5.19,3.15,5.53Z" transform="translate(-740.8 -477.97)"/></g><g class="cls-4"><path class="cls-2" d="M869.36,573.94a50.83,50.83,0,0,0,9.43,3.19,4.6,4.6,0,0,0,5.54-3.14,4.55,4.55,0,0,0-3.14-5.54,39.51,39.51,0,0,1-7.29-2.28c-2.22-1-4.83-.65-6.16,1.62-1.11,1.91-.62,5.17,1.62,6.15Z" transform="translate(-740.8 -477.97)"/></g><g class="cls-4"><path class="cls-2" d="M934.32,536.66c1.09,6.6,1,13.33-3.5,18.68-2.37,2.81-5,5.33-7.1,8.39a32,32,0,0,0-4.24,9.76,74.62,74.62,0,0,0-1.81,10.71c-.39,3.39-.66,7.23,2.76,9.24,7.21,4.24,13.59-7.69,15.4-12.93,1.46-4.24-4.56-7.65-7.52-4.38a11.34,11.34,0,0,1-3.88,2.83L931,584c0,.05.36-1.47.38-1.46-.19-.14-2.7,1-2.38.7-.09.1-.08.16-.32,1.07a19.24,19.24,0,0,1-1,2.62c-.94,2.24,1,4.95,3.14,5.53,2.59.72,4.6-.89,5.54-3.14,2.06-5,2.24-11.06-3.12-14-5.2-2.81-9.86,1.16-10.94,6.24a4.57,4.57,0,0,0,6.62,5.08,18,18,0,0,0,5.69-4.24l-7.52-4.38a17.8,17.8,0,0,1-2.27,4.45,14.19,14.19,0,0,1-1.35,1.66,11.9,11.9,0,0,1-.86.88c-.89.73-.8.76.26.09l2.27.62-.46-.28,1.62,1.62s-.05.23,0,.14a7.29,7.29,0,0,0,.17-1.84c.13-1.13.25-2.27.41-3.4a50.12,50.12,0,0,1,1.44-7c1.38-4.81,4.14-8.2,7.44-11.84s6.31-7.91,7.38-13c1.12-5.33.68-10.65-.2-16-.4-2.4-3.37-3.74-5.53-3.14-2.55.7-3.55,3.12-3.15,5.53Z" transform="translate(-740.8 -477.97)"/></g><g class="cls-4"><path class="cls-2" d="M948.17,570.74a22,22,0,0,1,8.27-14.45c1.94-1.46,2.94-3.9,1.61-6.16-1.12-1.92-4.19-3.08-6.15-1.62a30.75,30.75,0,0,0-12.4,19.84c-.38,2.39.61,4.84,3.14,5.53,2.14.59,5.16-.73,5.53-3.14Z" transform="translate(-740.8 -477.97)"/></g><g class="cls-4"><path class="cls-2" d="M902.58,493.2c2.82,2.93,6.59,4.06,10.48,4.74a48.22,48.22,0,0,1,5.22,1.05,6.71,6.71,0,0,1,1.67.67c-1.21-.73,1.28.73.71.51.61.24,0,.53.06,0l.62-2.27c.35-.66,1.49-.65.31-.58a6.33,6.33,0,0,0-1.26.33,17.11,17.11,0,0,0-3.19,1.23,8.89,8.89,0,0,0-4.2,5c-1,2.67,1.62,5.85,4.33,5.7,3.06-.17,6.11-.36,9.16-.52a21.68,21.68,0,0,1,2.5,0c-.6-1.13-.93-1.42-1-.88l0,.21a7.07,7.07,0,0,0-.36,1.55c-1.4,5.56-2.87,11.87-1.92,17.61.83,5.09,5,8.52,6.51,13.38a20,20,0,0,1-.65,13.74c-1,2.22-.65,4.84,1.61,6.16,1.92,1.12,5.17.62,6.16-1.62a30,30,0,0,0,2-18.78,27.45,27.45,0,0,0-3.53-8.65c-1.77-2.82-3.5-4.64-3.39-8.12a47.52,47.52,0,0,1,1.38-9.56c.81-3.36,1.94-6.84.17-10.11-1.54-2.85-4.67-3.94-7.72-4-3.62-.12-7.34.37-10.95.58l4.34,5.7c-.36.93-.28.31.48.25a12.38,12.38,0,0,0,2.2-.6c2-.62,3.75-1.5,4.76-3.47,2-4-.82-8.16-4.13-10.29-2.57-1.66-5.62-2.26-8.59-2.77-2.54-.43-5.59-.66-7.44-2.58-4-4.19-10.38,2.18-6.37,6.36Z" transform="translate(-740.8 -477.97)"/></g><g class="cls-4"><path class="cls-2" d="M834.17,496.59c2.08,5.91,3,14.68,9.78,17,5.5,1.86,7.86-6.83,2.39-8.68.69.24.14,0-.18-.65a23.05,23.05,0,0,1-1-3.05q-1.11-3.51-2.34-7c-1.91-5.42-10.6-3.09-8.67,2.4Z" transform="translate(-740.8 -477.97)"/></g><g class="cls-4"><path class="cls-2" d="M848.87,490.1c-.36,20.47-10.17,39.45-10.33,60,0,5.8,9,5.8,9,0,.16-20.48,10-39.47,10.33-60,.1-5.79-8.9-5.79-9,0Z" transform="translate(-740.8 -477.97)"/></g><g class="cls-4"><path class="cls-2" d="M849,494.31q-5.65,29-10.09,58.13c-.37,2.4.6,4.84,3.14,5.53,2.13.59,5.17-.72,5.53-3.14q4.44-29.16,10.1-58.12c1.11-5.66-7.57-8.08-8.68-2.4Z" transform="translate(-740.8 -477.97)"/></g><g class="cls-4"><path class="cls-2" d="M838.61,503.62c-.7,11-1.5,22.06-4.48,32.78a100.3,100.3,0,0,1-12.87,28.13c-3.18,4.86,4.61,9.37,7.77,4.54a108.55,108.55,0,0,0,13.78-30.28c3.19-11.46,4.05-23.35,4.8-35.17.37-5.78-8.63-5.76-9,0Z" transform="translate(-740.8 -477.97)"/></g><g class="cls-4"><path class="cls-2" d="M846.43,515.06c-8.86-9.43-19.57-18-32.26-21.44a46.1,46.1,0,0,0-10-1.55c-3.73-.18-7.48.09-11.16-.66-7-1.42-13.48-4.67-20.25-6.85-5.53-1.78-7.89,6.91-2.39,8.68,6.49,2.09,12.7,5.16,19.38,6.66s13.74.45,20.48,2c11.88,2.75,21.65,10.82,29.81,19.51,4,4.23,10.33-2.14,6.37-6.36Z" transform="translate(-740.8 -477.97)"/></g><path class="cls-19" d="M743.31,484c2.64-5.29,95.15-4.59,110.3-4.85,21-.35,104.57.63,109.89,6.36s0,109.79,0,109.79c-3.85,2.82-84.73,5.42-103.3,6.38-24.73,1.27-86.82-1.58-116.73-2.13C738.82,590.76,743.31,484,743.31,484Zm7.4,108.84c28.1.5,86.43,3,109.66,1.9,17.45-.85,93.44-3.18,97.06-5.69,0,0,5-92.95,0-98.06s-83.51-6-103.24-5.68c-14.24.23-101.15-.39-103.63,4.33C750.56,489.61,746.33,585,750.71,592.81Z" transform="translate(-740.8 -477.97)"/><path class="cls-2" d="M743.74,484.22c.82-1.46,5.1-1.58,6.48-1.78,4.69-.65,9.43-1,14.15-1.24,13.26-.77,26.55-1,39.83-1.22q30.48-.44,61-.42c27.1.05,54.45.26,81.44,2.92a85.36,85.36,0,0,1,13.22,2c2.08.54,3.43.94,4,3.08a49.86,49.86,0,0,1,1.13,10c.28,5.05.36,10.1.39,15.16.15,23.93-.78,47.87-1.84,71.77q-.19,4.56-.42,9.1a6.54,6.54,0,0,1-.08,1.66c0-.1.39-.3-.11-.17s-.89.24-1.34.34a91,91,0,0,1-11.29,1.31c-6,.49-12,.86-18,1.21-24.75,1.41-49.55,2.41-74.33,3.37-15.41.59-30.88.11-46.3-.27-17.7-.45-35.39-1.08-53.09-1.59-3.68-.11-7.37-.2-11-.29-.67,0-3.4.21-3.67,0s-.31-1-.38-1.24a51.51,51.51,0,0,1-1.07-9.6c-.64-11.23-.56-22.51-.45-33.75.2-22.16.87-44.33,1.74-66.48.05-1.35.1-2.7.16-4,0-.64-1-.64-1,0q-.78,18.48-1.25,37c-.56,20.43-1.13,40.93-.46,61.37.12,3.79.28,7.59.68,11.36.21,2,.33,4.28,1.26,6.09a.48.48,0,0,0,.43.25c27.68.52,55.34,1.79,83,2.28,19.83.35,39.53-.43,59.33-1.25,21.93-.9,43.94-1.6,65.81-3.5,3.06-.26,6.14-.53,9.18-1,1-.17,2.77-.24,3.21-1.3s.13-2.73.18-3.76q.21-4.34.39-8.67c.86-19.57,1.56-39.17,1.75-58.76.08-8.95.12-17.92-.38-26.86a73.43,73.43,0,0,0-.83-8.37c-.23-1.29-.45-3-1.49-3.87-1.4-1.25-3.9-1.57-5.66-1.91-3.6-.72-7.27-1.13-10.93-1.49-10.83-1.09-21.73-1.59-32.6-2-20.21-.77-40.48-1.2-60.7-.9-17.52.26-35,.13-52.56.41-11,.17-22,.42-32.95,1-7.18.36-14.65.52-21.69,2.08-1.11.24-3,.53-3.66,1.65A.5.5,0,0,0,743.74,484.22Z" transform="translate(-740.8 -477.97)"/><path class="cls-2" d="M750.71,593.31c31.68.57,63.35,2.24,95,2.19,22.85,0,45.79-1.46,68.61-2.52,11.63-.54,23.3-1,34.9-2.13,2.34-.23,5.74-.09,7.9-1.17,1.12-.55.82-1.76.87-2.92,1-20.25,1.85-40.53,2.07-60.81.1-9.65.33-19.45-.72-29.05-.2-1.83-.23-4.61-1.47-6.12s-4.27-1.83-6.08-2.15c-10.59-1.91-21.55-2.23-32.28-2.72-13.65-.61-27.31-.92-41-1.09-18.61-.22-37.23,0-55.84.13-13,.09-26.11.25-39.15.68-9.51.31-19.25.4-28.65,2-1.3.21-4.23.41-4.87,1.87-.46,1-.14,3-.19,4.06q-.54,13.41-.94,26.84c-.37,12.38-.66,24.77-.72,37.15,0,9.73-.19,19.57.78,29.26.2,2,.28,4.44,1.26,6.28.31.56,1.17.06.87-.51-1.07-2-1.06-4.84-1.25-7-.35-4.21-.48-8.44-.56-12.67-.24-11.61-.07-23.23.17-34.84q.35-16.65,1-33.29.19-5.49.42-11c0-.93-.32-3.3.18-4.14a10.61,10.61,0,0,0,1.77-.55,33.47,33.47,0,0,1,4.21-.76c4.22-.56,8.48-.83,12.72-1.08,12.12-.69,24.27-.92,36.42-1.1q28.22-.4,56.45-.39c25,0,50.09.28,75,2.26,4.66.37,9.34.77,13.94,1.6,1.66.3,4.71.5,5.73,2.07,1.25,1.9,1.13,5.36,1.3,7.51.34,4.33.45,8.69.51,13,.3,22-.64,44.12-1.66,66.13q-.21,4.45-.43,8.91a6.19,6.19,0,0,1-.09,1.67c-.1.26.46-.37,0-.21a7.87,7.87,0,0,1-1.18.31,79.34,79.34,0,0,1-10.08,1.15c-5.43.44-10.86.76-16.29,1.06-23,1.27-45.94,1.92-68.91,3-13.56.63-27.17.26-40.73,0-16.52-.36-33-.91-49.53-1.38-6.51-.19-13-.37-19.52-.49A.5.5,0,0,0,750.71,593.31Z" transform="translate(-740.8 -477.97)"/><g class="cls-5"><path class="cls-20" d="M743.81,484.46c2.23,10.84,6.1,23.61,6.1,23.61a589,589,0,0,0,0,84.75c60.31,3.25,119,2.32,179.27-1.09,8.86-.5,19.66-.23,28.11-2.93-5.36,3.18-11.66,4.3-17.82,5.25-64.68,9.94-129,8.16-196,5.47-1.89-4.52-1.07-80.22.34-115.06" transform="translate(-740.8 -477.97)"/><path class="cls-20" d="M743.33,484.6c1.54,7.38,3.48,14.68,5.59,21.91.81,2.76.2,5.59,0,8.45q-.47,7.88-.74,15.76a592.86,592.86,0,0,0,1.21,62.1.51.51,0,0,0,.5.5c55.42,3,111,2.41,166.37-.4,7.32-.37,14.64-.76,22-1.06,6.45-.27,13-.68,19.19-2.58l-.39-.92c-5.73,3.29-12.22,4.37-18.66,5.35q-10.83,1.65-21.73,2.88c-13.91,1.58-27.87,2.67-41.85,3.39-28.11,1.45-56.29,1.36-84.43.65-14.33-.37-28.65-.89-43-1.45-.61,0-3.43.15-3.51.07s0-.35-.12-.48a6.41,6.41,0,0,1-.25-2c-.18-2-.26-4.07-.34-6.11-.57-15.6-.37-31.25-.21-46.87.2-19.77.54-39.55,1.33-59.32,0-.64-1-.64-1,0-1.38,34.39-2.15,69-1.21,103.4.08,2.62.16,5.25.35,7.88a13.57,13.57,0,0,0,.54,3.91.51.51,0,0,0,.48.37c57.06,2.29,114.4,4.06,171.29-2.22q11.5-1.27,23-3c6.84-1,13.76-2.1,19.84-5.59a.5.5,0,0,0-.38-.92c-9.19,2.82-19,2.42-28.48,3q-16.58.91-33.15,1.61-32.62,1.32-65.3,1.45T764.8,593q-4-.16-7.93-.36l-4-.2a8.57,8.57,0,0,1-2-.11c-.84-.58-.64-1.57-.7-2.5q-.54-8.11-.86-16.25-.66-16.51-.38-33,.15-9.12.58-18.23c.15-3.12.33-6.24.52-9.36a25.09,25.09,0,0,0,.26-5.25c-.45-2.85-1.67-5.77-2.43-8.56-1.33-4.92-2.57-9.86-3.61-14.85-.13-.63-1.09-.36-1,.27Z" transform="translate(-740.8 -477.97)"/></g><path class="cls-19" d="M743.63,483.42c2.65-5.29,95.16-4.59,110.31-4.85,21-.36,104.57.63,109.89,6.35s0,109.8,0,109.8c-3.86,2.81-84.74,5.41-103.31,6.37-24.73,1.27-86.81-1.57-116.73-2.13C739.14,590.21,743.63,483.42,743.63,483.42ZM751,592.26c28.1.49,86.43,3,109.67,1.9,17.45-.86,93.43-3.18,97-5.69,0,0,5-93,0-98.07s-83.51-6-103.24-5.67c-14.23.23-101.14-.4-103.63,4.33C750.88,489.06,746.66,584.44,751,592.26Z" transform="translate(-740.8 -477.97)"/><path class="cls-2" d="M744.07,483.67c.82-1.46,5.1-1.59,6.47-1.78,4.69-.66,9.43-1,14.16-1.24,13.26-.78,26.55-1,39.83-1.22q30.48-.44,61-.42c27.09.05,54.44.26,81.43,2.91a86.9,86.9,0,0,1,13.23,2c2.07.54,3.43.94,4,3.09a50.52,50.52,0,0,1,1.13,10c.28,5,.36,10.1.39,15.15.15,23.93-.78,47.88-1.84,71.78q-.21,4.54-.43,9.09a6.64,6.64,0,0,1-.08,1.67c0-.1.4-.3-.11-.18s-.88.25-1.33.35a93.13,93.13,0,0,1-11.29,1.3c-6,.5-12,.87-18,1.21-24.76,1.41-49.56,2.41-74.34,3.37-15.41.6-30.88.12-46.29-.27-17.7-.45-35.4-1.08-53.09-1.58-3.69-.11-7.37-.21-11.06-.29-.66,0-3.4.21-3.66,0s-.31-1-.39-1.24a53.35,53.35,0,0,1-1.07-9.6c-.64-11.23-.55-22.51-.45-33.75.21-22.17.88-44.34,1.74-66.49.06-1.35.11-2.7.16-4,0-.65-1-.65-1,0q-.76,18.48-1.25,37c-.56,20.44-1.12,40.93-.46,61.37.13,3.79.29,7.59.69,11.37.21,2,.33,4.28,1.25,6.09a.5.5,0,0,0,.43.24c27.68.52,55.34,1.8,83,2.28,19.83.35,39.52-.42,59.32-1.24,21.94-.91,43.94-1.6,65.82-3.5,3.06-.27,6.14-.53,9.17-1,1-.18,2.78-.24,3.21-1.31s.13-2.73.18-3.76q.21-4.32.4-8.66c.85-19.58,1.55-39.17,1.74-58.77.09-8.94.13-17.91-.38-26.85a71.4,71.4,0,0,0-.83-8.38c-.23-1.29-.45-2.94-1.48-3.87-1.41-1.25-3.91-1.56-5.66-1.91-3.61-.71-7.28-1.12-10.93-1.49-10.84-1.08-21.73-1.58-32.61-2-20.21-.76-40.47-1.19-60.7-.89-17.51.25-35,.12-52.55.4-11,.18-22,.42-33,1-7.17.36-14.64.51-21.69,2.07-1.11.25-3,.53-3.66,1.65C742.89,483.72,743.75,484.23,744.07,483.67Z" transform="translate(-740.8 -477.97)"/><path class="cls-2" d="M751,592.76c31.68.56,63.35,2.23,95.05,2.19,22.85,0,45.79-1.47,68.61-2.53,11.64-.54,23.31-1,34.91-2.13,2.33-.22,5.74-.08,7.9-1.16,1.11-.56.81-1.77.87-2.92,1-20.26,1.84-40.54,2.06-60.82.1-9.64.33-19.44-.72-29.05-.19-1.82-.23-4.61-1.46-6.12s-4.28-1.82-6.09-2.15c-10.59-1.91-21.55-2.23-32.28-2.71-13.65-.62-27.31-.93-41-1.09-18.61-.22-37.23,0-55.84.12-13.05.1-26.1.26-39.15.68-9.5.31-19.25.41-28.65,2-1.3.22-4.22.41-4.87,1.87-.45,1-.14,3-.18,4.06q-.56,13.42-1,26.85c-.37,12.38-.65,24.76-.71,37.15,0,9.72-.19,19.56.77,29.25.2,2,.29,4.45,1.27,6.28.3.57,1.16.06.86-.5-1.07-2-1.06-4.84-1.24-7-.36-4.21-.48-8.44-.57-12.66-.24-11.61-.07-23.23.17-34.84q.34-16.65,1-33.29.19-5.49.42-11c0-.93-.32-3.31.17-4.14a11.75,11.75,0,0,0,1.78-.56,31.59,31.59,0,0,1,4.2-.75c4.22-.57,8.48-.84,12.72-1.08,12.13-.69,24.28-.93,36.42-1.1q28.21-.4,56.45-.4c25,0,50.1.29,75,2.27,4.65.37,9.34.77,13.94,1.6,1.66.29,4.7.5,5.73,2.06,1.25,1.9,1.12,5.36,1.29,7.52.35,4.33.45,8.68.51,13,.3,22.05-.64,44.12-1.65,66.14-.14,3-.28,5.93-.44,8.9a6.28,6.28,0,0,1-.08,1.68c-.1.26.45-.37,0-.21a9.91,9.91,0,0,1-1.19.31A79.11,79.11,0,0,1,946,589.6c-5.42.44-10.85.76-16.28,1.06-23,1.27-46,1.93-68.92,3-13.55.63-27.17.27-40.73,0-16.51-.36-33-.9-49.53-1.38-6.51-.19-13-.37-19.52-.48A.5.5,0,0,0,751,592.76Z" transform="translate(-740.8 -477.97)"/><g class="cls-5"><path class="cls-20" d="M744.13,483.91c2.24,10.84,6.1,23.61,6.1,23.61a590.46,590.46,0,0,0,0,84.75c60.31,3.25,119,2.31,179.27-1.09,8.86-.5,19.66-.24,28.12-2.94-5.36,3.19-11.67,4.3-17.83,5.25-64.68,10-128.95,8.16-196,5.47-1.89-4.51-1.06-80.21.34-115" transform="translate(-740.8 -477.97)"/><path class="cls-20" d="M743.65,484c1.54,7.38,3.48,14.68,5.6,21.92.8,2.75.2,5.59,0,8.45q-.48,7.88-.74,15.76a595.7,595.7,0,0,0,1.2,62.1.51.51,0,0,0,.5.5c55.42,3,111,2.4,166.37-.4,7.32-.37,14.64-.76,22-1.07,6.46-.26,13-.67,19.19-2.58l-.39-.91c-5.73,3.28-12.21,4.36-18.65,5.34Q927.88,594.8,917,596c-13.9,1.58-27.86,2.68-41.84,3.4-28.12,1.44-56.29,1.35-84.43.64-14.33-.36-28.65-.88-43-1.45-.6,0-3.43.16-3.5.08s-.05-.36-.12-.48a5.91,5.91,0,0,1-.25-2c-.19-2-.27-4.08-.34-6.11-.57-15.61-.37-31.26-.22-46.87.21-19.78.54-39.56,1.33-59.32,0-.64-1-.64-1,0-1.37,34.38-2.15,69-1.2,103.39.07,2.63.15,5.26.34,7.88a14.37,14.37,0,0,0,.54,3.92.52.52,0,0,0,.48.36c57.06,2.29,114.41,4.06,171.29-2.22q11.5-1.26,22.95-3c6.84-1,13.76-2.1,19.85-5.59a.5.5,0,0,0-.39-.91c-9.18,2.82-19,2.42-28.48,2.94-11,.61-22.09,1.17-33.14,1.61q-32.64,1.34-65.31,1.46t-65.44-1.28l-7.93-.37-4-.2a8.46,8.46,0,0,1-2-.1c-.85-.58-.64-1.58-.7-2.51q-.56-8.12-.87-16.25-.64-16.5-.38-33,.15-9.12.59-18.24.23-4.68.52-9.35a25.84,25.84,0,0,0,.25-5.26c-.44-2.85-1.67-5.77-2.43-8.55-1.33-4.92-2.56-9.87-3.6-14.85-.14-.63-1.1-.37-1,.26Z" transform="translate(-740.8 -477.97)"/></g></svg>