<svg id="Calque_1" data-name="Calque 1" xmlns="http://www.w3.org/2000/svg" viewBox="0 0 86.03 64.48"><defs><style>.cls-1{fill:#29235c;}.cls-2{opacity:0.28;}.cls-3{fill:#280f2e;}.cls-4{fill:#f6f6f6;}.cls-5{fill:#1d1d1b;}.cls-6{opacity:0.14;}.cls-7{fill:#fff;}.cls-8{opacity:0.11;}.cls-9{fill:#575756;}.cls-10{fill:#706f6f;}.cls-11{fill:#f4d5b2;}.cls-12{fill:#9d9d9c;}.cls-13{fill:#2a2219;}.cls-14{fill:#3d4b78;}.cls-15{opacity:0.6;}.cls-16{fill:#5297d2;}.cls-17{fill:#9b1419;}.cls-18{fill:#a93c47;}</style></defs><title>40</title><path class="cls-1" d="M822.29,539.51l32.33-17.73a17.59,17.59,0,0,1,4.52-2,17.8,17.8,0,0,1,3.79-.31l18.58-.19c1.19,0,2.57.07,3.25,1a3.73,3.73,0,0,1,.37,2.43c-.78,12.86,2.58,25.76,1.16,38.56q-21.66,1.36-43.36,1.35a148.36,148.36,0,0,1-18.62-.89,3.09,3.09,0,0,1-1.66-.56,3.17,3.17,0,0,1-.84-2.19,104.38,104.38,0,0,1-.21-19.2" transform="translate(-810.66 -508.71)"/><path class="cls-1" d="M822.48,539.84c10.89-6,21.75-12,32.69-17.93,5.56-3,12.37-2.07,18.51-2.13,2.79,0,5.66-.26,8.43-.08,3.91.26,2.49,7,2.56,9.69.17,6,.91,11.92,1.32,17.89.18,2.66.3,5.32.27,8a23.81,23.81,0,0,1-.17,4.22c-.4,2-1.86,1.63-3.74,1.73q-18.71,1.06-37.45,1.11c-3.27,0-6.55,0-9.82-.1-1.64-.05-3.27-.12-4.91-.23a25.09,25.09,0,0,1-5.62-.54c-3.5-1.1-2.83-7.92-2.9-11-.07-3.52.05-7,.32-10.56,0-.49-.71-.48-.75,0a108,108,0,0,0-.29,11.52c.08,2.74-.27,6.51.78,9.07.86,2.12,3.61,1.88,5.53,2.06,3.91.37,7.84.5,11.76.54,15.77.18,31.55-.35,47.29-1.32a.39.39,0,0,0,.37-.38c1-9.75-.59-19.42-1.12-29.14-.13-2.51-.2-5-.12-7.53.05-1.36.51-3.27-.34-4.51a3.12,3.12,0,0,0-2.35-1.18,45.43,45.43,0,0,0-6.6,0c-5,0-10.11-.17-15.11.19-4.18.3-7.82,2.94-11.4,4.9l-27.52,15.1c-.42.23-.05.88.38.65Z" transform="translate(-810.66 -508.71)"/><path class="cls-1" d="M826.29,537a57,57,0,0,0,1.53-7.72c.11-1.46.09-3-1.31-3.76l-.19.7c1.91.09.65,5.18.53,6-.17,1.07-.14,4-1,4.7l.45.59.34-.42c.29-.37-.23-.9-.54-.53l-.33.42c-.24.3.09.87.45.59.75-.57.74-1.2.9-2.13.29-1.74.57-3.49.8-5.24s.78-4.63-1.58-4.74a.38.38,0,0,0-.19.7c2.5,1.39-.1,8.51-.56,10.63-.11.47.62.67.72.2Z" transform="translate(-810.66 -508.71)"/><path class="cls-1" d="M834.64,524.74l-.08-.28a.37.37,0,0,0-.73.1c0,1.35-.09,2.69-.17,4,0,.61,0,4.23-.68,4.47l.47.36c.31-2.95.51-5.91.62-8.88l-.48.36.29,0c.48.07.68-.65.2-.72l-.29,0a.38.38,0,0,0-.47.36c-.11,3-.31,5.93-.62,8.88a.38.38,0,0,0,.48.36c1-.37.91-1.56,1-2.5q.33-3.36.4-6.73l-.74.1.08.28a.37.37,0,0,0,.72-.2Z" transform="translate(-810.66 -508.71)"/><path class="cls-1" d="M838.09,526.18l-.17,4.21a.38.38,0,0,0,.56.33l2.07-1c.39-.19,1-.35,1.18-.77a3.59,3.59,0,0,0,0-1.5,6.37,6.37,0,0,0-.11-2.05.38.38,0,0,0-.46-.26,20.17,20.17,0,0,1-2.07.51c-.39,0-.75-.06-1,.31s0,1,0,1.42a12.73,12.73,0,0,1,0,2.39.38.38,0,0,0,.7.19,7.16,7.16,0,0,0,.5-3.81l-.74.1a9.31,9.31,0,0,1,.31,3.6c0,.37.53.51.7.19.56-1.09-.36-2.32.22-3.32l-.68-.09.56,2.54c.08.39.61.33.72,0a4,4,0,0,0-.07-2.55.37.37,0,0,0-.72,0c-.15.49-.18,2.08.79,1.81s.31-1.86.09-2.34a.37.37,0,0,0-.64,0,1.3,1.3,0,0,0,.29,1.62.39.39,0,0,0,.59-.08,1.82,1.82,0,0,0,.23-1.14.38.38,0,0,0-.75,0,2.9,2.9,0,0,0,.1,1.24c.08.29.55.4.68.09a1.54,1.54,0,0,0,.08-1.26c-.13-.38-.75-.34-.73.1s.24,1.88-.22,2.1l.51.51a4.25,4.25,0,0,0,.24-3.52c-.16-.45-.88-.26-.72.2a3.55,3.55,0,0,1-.17,2.94.38.38,0,0,0,.51.52c1-.46.62-1.88.6-2.75l-.74.1v.68l.68.09a2.44,2.44,0,0,1-.07-1h-.75a1,1,0,0,1-.13.76l.59-.07-.18-.71h-.64a2.32,2.32,0,0,1,.25,1,.92.92,0,0,0,.23-.66h-.72a3.44,3.44,0,0,1,.07,2.15h.72l-.56-2.54a.38.38,0,0,0-.69-.09c-.63,1.09.32,2.27-.22,3.32l.7.19a10.16,10.16,0,0,0-.33-3.8c-.12-.39-.77-.33-.74.1a6.46,6.46,0,0,1-.4,3.43l.7.19a13.09,13.09,0,0,0,.08-1.66,5.47,5.47,0,0,1-.11-1.38c.13-.44.7-.35,1-.42.51-.09,1-.37,1.47-.45l-.46-.26a5.19,5.19,0,0,1,.08,1.67c0,.37.17,1.11-.06,1.41s-1,.47-1.27.62l-1.58.78.56.32.17-4.21a.38.38,0,0,0-.75,0Z" transform="translate(-810.66 -508.71)"/><path class="cls-1" d="M849.53,520.77c-.17,1.14-.29,2.28-.38,3.43a.38.38,0,0,0,.57.33c.48-.35,1.35-.74,1.52-1.35a4.53,4.53,0,0,0,0-1.22l0-1.65c0-.4-.68-.54-.74-.1l-.44,2.93.73.1,0-2.73c0-.42-.65-.53-.73-.1a8.64,8.64,0,0,0-.13,2.38.38.38,0,0,0,.75,0,8.1,8.1,0,0,0-.2-2.25.38.38,0,0,0-.73,0,3.72,3.72,0,0,0,0,2.24.38.38,0,0,0,.72,0,6,6,0,0,0,.25-2l-.64.26.26.3A.38.38,0,0,0,851,521a.93.93,0,0,1,.08-.87l-.51.13a11.47,11.47,0,0,1-.07,1.41q-.06.75-.15,1.5c-.06.47.69.47.75,0,.1-.83.17-1.66.19-2.5,0-.41.08-.86-.35-1.06a.38.38,0,0,0-.51.14,1.88,1.88,0,0,0-.16,1.45L851,521a1.18,1.18,0,0,0-.38-.45c-.24-.18-.66-.09-.64.27a5.84,5.84,0,0,1-.22,1.81h.72a3,3,0,0,1,0-1.84h-.73a7.06,7.06,0,0,1,.18,2h.75a7.59,7.59,0,0,1,.1-2.18l-.74-.1,0,2.73c0,.41.68.53.74.1l.44-2.93-.73-.1c0,.66.08,1.33.06,2a1.32,1.32,0,0,1-.45,1.07,6.16,6.16,0,0,1-.71.52l.56.32c.08-1.08.2-2.16.35-3.23.07-.47-.65-.67-.72-.2Z" transform="translate(-810.66 -508.71)"/><g class="cls-2"><path class="cls-3" d="M846.71,526a16.82,16.82,0,0,0-3.64,4.23c-1.85,2.71-3.69,5.65-3.83,8.93a15.48,15.48,0,0,0,2.1,7.53c2.22,4.35,5.25,8.45,9.42,11a35.84,35.84,0,0,0,5.16,2.45c2.3.94,4.62,1.86,6.94,2.75a170.09,170.09,0,0,1-36.44.75,6.39,6.39,0,0,1-3.2-.87,5.63,5.63,0,0,1-1.84-3.11,47.43,47.43,0,0,1-1.36-7,67.16,67.16,0,0,1-.93-10.68,2,2,0,0,1,.29-1.17,1.81,1.81,0,0,1,.72-.49,21.76,21.76,0,0,0,4.41-2.31,4.76,4.76,0,0,0,2-4.32l.09,2c0,.3.08.67.36.76a.74.74,0,0,0,.55-.12l3.4-1.76a6.53,6.53,0,0,0,2.09-1.45,2.2,2.2,0,0,0,.39-2.38l.64,2.08a48.61,48.61,0,0,0,4.34-2.58,4.53,4.53,0,0,1-.11-3.37,2.3,2.3,0,0,1,2.83-1.3,4.1,4.1,0,0,0-1,3.52l6.34-2.94" transform="translate(-810.66 -508.71)"/><path class="cls-3" d="M846.53,525.84a24.88,24.88,0,0,0-6.4,8.9,12,12,0,0,0-.13,9.61c2.43,6.32,7,12,13.16,14.89,1.59.74,3.23,1.38,4.86,2,1,.4,2.08.71,3,1.2a5.76,5.76,0,0,0,.86.31A14.08,14.08,0,0,1,860,563c-4.61.52-9.25.84-13.89,1s-9.29.06-13.93-.18c-2.23-.12-4.87,0-7-.54-3-.78-3.63-3.6-4.16-6.24-.59-2.87-1-5.8-1.28-8.71-.26-2.28-1.28-6.46.91-7.94,2.73-1.84,6.45-2.55,6.16-6.67,0-.31-.51-.32-.5,0,.12,2.65,0,3.56,2.65,2.2,2-1,5.67-2.26,4.72-5.22a.25.25,0,0,0-.48.13l.63,2.09a.26.26,0,0,0,.37.15c1.49-.8,2.93-1.66,4.35-2.59a.26.26,0,0,0,.11-.28c-.7-1.54-.1-2.92,1.8-4.12a7.14,7.14,0,0,0-.37.73,8.84,8.84,0,0,0-.22,2.31.25.25,0,0,0,.37.22l6.34-2.95c.29-.13,0-.57-.25-.43l-4.08,1.89c-.39.19-1.22.8-1.65.58-.66-.34.32-2.14.75-2.7a.25.25,0,0,0-.14-.37,2.6,2.6,0,0,0-3.26,1.88c-.4,1.29.32,2.48-.72,3.5A6.48,6.48,0,0,1,835,532c-1.15.32-1.07-.3-1.38-1.33l-.48.13c.68,2.12-1.14,2.89-2.36,3.56-.56.3-1.89,1.32-2.56,1.31-2.53,0-.59-1.21-1.92-1.28a4.69,4.69,0,0,1-1.44,3,6.73,6.73,0,0,1-1.53,1.13c-1.54.94-4.12,1.17-4.48,3.19-.61,3.47.42,7.6.91,11.06.41,2.89.59,6.59,2.25,9.11,1.22,1.87,3.31,2,5.35,2.14,3.83.3,7.68.48,11.52.54a168.31,168.31,0,0,0,24-1.37.25.25,0,0,0,.07-.49c-4-1.55-8.36-2.92-12-5.18a24.29,24.29,0,0,1-7.82-8.21c-2.29-3.73-4.36-8-3.19-12.43a23.09,23.09,0,0,1,7-10.65c.25-.2-.11-.56-.36-.35Z" transform="translate(-810.66 -508.71)"/></g><path class="cls-4" d="M893.59,510.08a5.75,5.75,0,0,1,.44,2.3l1.14,22.87c.49,9.88.77,35.3.77,35.3-1.16.89-35.05,1.41-48.7,1.85-9.12.29-33.58-1.23-33.94-1.67a2.73,2.73,0,0,1-.44-1.72l-1.33-49.24c-.07-2.75-.15-5.49-.09-8.24C811.44,511.53,892.6,508.11,893.59,510.08Zm-72.41,10.63c0,1.9,0,3.79.07,5.69l1,34a1.78,1.78,0,0,0,.34,1.19c.28.3-.43-.08,0,0,6.9,1.27,19.16,1.32,26.2,1.11,10.54-.31,37.46-1.6,37.46-1.6s.61-5.25.53-6.77L885.81,537,885,521.22a3.61,3.61,0,0,0-.34-1.59C883.85,518.27,821.18,520.71,821.18,520.71Z" transform="translate(-810.66 -508.71)"/><path class="cls-5" d="M892.87,510.28c.86,2.43.58,5.49.71,8.07l.42,8.45c.19,3.91.42,7.83.56,11.74.23,6.31.34,12.63.45,18.94l.12,8.23c0,1-.45,3.6.06,4.53.26.46.51-.12.15-.29s-1.38.18-1.73.21c-2,.17-4.05.26-6.07.35-23.63,1-47.43,1.92-71-.12a8.08,8.08,0,0,1-2.47-.26c-.65-.32,0,.34-.45-.6s-.05-3.33-.08-4.45L813,547.35c-.32-11.92-1-23.9-.84-35.82l-.75.75c23.44-1,46.92-2,70.39-2.06,2.61,0,5.22,0,7.83.1.82,0,1.65.05,2.47.16.56.07,1.11.41.81,0,.54.79,1.84,0,1.3-.76s-1.8-.7-2.59-.77c-1.91-.16-3.85-.17-5.78-.2-6.47-.07-13,.06-19.42.21-14.83.33-29.66.85-44.48,1.42l-10.53.42a.77.77,0,0,0-.75.75c-.18,11.27.48,22.59.78,33.85l.46,16.74c.06,2.4-.22,5.14.22,7.51.14.77.29,1.49,1,1.86,1.11.55,3.1.38,4.29.48,3,.24,5.95.42,8.92.58,6.4.36,12.83.7,19.24.63,12.88-.13,25.79-.57,38.66-1,2.59-.1,5.18-.2,7.77-.37,1.09-.07,2.88.09,3.9-.42.84-.42.72-.92.72-1.78,0-2,0-4.09-.08-6.14-.11-7.53-.23-15.06-.47-22.58-.13-4.19-.35-8.37-.56-12.56l-.49-9.94c-.14-2.73.16-5.87-.77-8.47C894,509,892.54,509.37,892.87,510.28Z" transform="translate(-810.66 -508.71)"/><path class="cls-5" d="M820.43,520.71c-.12,7.22.32,14.47.53,21.68l.31,11c.08,2.82-.11,5.79.59,8.49L823,561l-.16-.08-.18,1.37c1-.26,3.26.49,4.35.59,1.71.17,3.42.29,5.14.38,3.81.2,7.63.26,11.45.23,5.42,0,10.83-.28,16.24-.5q13.22-.54,26.41-1.19a.77.77,0,0,0,.75-.75,83.26,83.26,0,0,0,.12-14.3l-1.18-21.62c-.12-2.29.72-6.08-2.16-6.49a41.12,41.12,0,0,0-5.77-.2c-14.65-.08-29.31.52-44,1q-6.42.21-12.85.46c-1,0-1,1.54,0,1.5q15.35-.59,30.68-1c7.28-.2,14.56-.39,21.85-.45,2.46,0,4.93,0,7.4,0,.73,0,1.48,0,2.21.11,1,.09.91,0,.88,1.09-.14,4.22.47,8.6.7,12.82l.61,11.24a92.62,92.62,0,0,1,0,15.8l.75-.75q-13.35.64-26.71,1.2c-5.55.23-11.1.48-16.66.5-3.83,0-7.67-.06-11.49-.28-1.69-.1-3.38-.22-5.07-.41-1.15-.12-2.91-.76-4.06-.46a.76.76,0,0,0-.18,1.37l.16.08a.76.76,0,0,0,1.1-.85c-.75-2.87-.48-6.12-.57-9.09l-.3-10.5c-.2-7-.62-14.13-.51-21.18A.75.75,0,0,0,820.43,520.71Z" transform="translate(-810.66 -508.71)"/><g class="cls-6"><path class="cls-5" d="M820.4,519.91a5.49,5.49,0,0,1-2.37-2.42l26.61-.46c8-.14,39-1.14,44.61-.92-1.5.73-2.39,2.52-4,2.9a6.18,6.18,0,0,1-2.34-.11,31.86,31.86,0,0,0-5-.17l-37.71.77-6.89.14c-4,.08-8,.16-11.92.54" transform="translate(-810.66 -508.71)"/><path class="cls-5" d="M820.78,519.26a5.56,5.56,0,0,1-2.1-2.15l-.65,1.13c13.92-.24,27.83-.48,41.74-.85,9.8-.26,19.69-.88,29.48-.53l-.37-1.4a16,16,0,0,0-1.89,1.48,4.81,4.81,0,0,1-4.09,1.21,64.06,64.06,0,0,0-8-.11l-18.36.37c-11.69.24-23.53,0-35.18,1-1,.08-1,1.58,0,1.5,12.3-1.11,24.82-.81,37.17-1.06l18.85-.38c1.27,0,2.55-.07,3.83,0s2.7.51,4,.26c1.85-.36,2.85-2.09,4.39-3a.76.76,0,0,0-.38-1.4c-9.79-.35-19.68.27-29.48.53-13.91.37-27.82.61-41.74.85a.76.76,0,0,0-.65,1.13,7.25,7.25,0,0,0,2.64,2.69c.83.5,1.58-.8.76-1.3Z" transform="translate(-810.66 -508.71)"/></g><g class="cls-6"><path class="cls-5" d="M822.93,561.79a15.32,15.32,0,0,0-3.28,3.89c10.25.92,62.35-.44,69.86-1.08a5.56,5.56,0,0,0-4.25-3,11.53,11.53,0,0,0-2.87.14c-13.41,1.8-27,1.88-40.5,2-2.61,0-5.22,0-7.83-.07a90.24,90.24,0,0,1-10.12-1" transform="translate(-810.66 -508.71)"/><path class="cls-5" d="M822.4,561.26a18.2,18.2,0,0,0-3.39,4,.75.75,0,0,0,.64,1.13c8.55.74,17.27.33,25.83.22q16.66-.23,33.32-.8c3.57-.12,7.15-.2,10.71-.5a.75.75,0,0,0,.65-1.12c-2.49-4.38-6.86-3.34-11.13-2.85-6.07.69-12.18,1-18.3,1.26-12.1.4-24.58,1.05-36.59-.74-.95-.14-1.35,1.31-.4,1.45,10.62,1.58,21.46,1.14,32.16.92,5.48-.12,11-.33,16.41-.75,2.72-.22,5.45-.48,8.16-.81,3.21-.39,6.52-1,8.39,2.27l.65-1.13c-7.92.65-15.93.69-23.87.9-11.28.29-22.57.51-33.85.49-4,0-8.11,0-12.14-.31l.65,1.13a17,17,0,0,1,3.16-3.74c.72-.65-.34-1.71-1.06-1.06Z" transform="translate(-810.66 -508.71)"/></g><g class="cls-6"><path class="cls-5" d="M817.63,518.69l2.11,46.86c.16-1.71,2.11-2.75,2.47-4.43a5.36,5.36,0,0,0-.06-1.87c-.35-2.34-.61-4.71-.77-7.07-.2-3.08-.25-6.17-.3-9.26-.09-6.6-.19-13.2.06-19.8A5.59,5.59,0,0,0,821,521c-.48-1.36-1.91-2.09-3.22-2.7" transform="translate(-810.66 -508.71)"/><path class="cls-5" d="M816.88,518.69,819,565.55c0,.81,1.28,1.06,1.47.2.39-1.73,2.08-2.7,2.47-4.43.46-2-.38-4.48-.58-6.48-.45-4.62-.48-9.26-.54-13.9-.07-5-.13-9.9,0-14.85,0-1.71.46-3.79-.2-5.43s-2.1-2.3-3.49-3c-.86-.41-1.63.88-.75,1.3,1.27.61,2.16,1,2.67,2.42a9,9,0,0,1,.29,3.69q-.08,3-.09,5.94c0,4.27,0,8.54.12,12.81.06,4,.17,7.93.6,11.87.2,1.86,1,4.46.1,6.18-.71,1.29-1.7,2-2,3.45l1.47.2-2.11-46.86c0-1-1.54-1-1.5,0Z" transform="translate(-810.66 -508.71)"/></g><g class="cls-6"><path class="cls-5" d="M885.69,519.73a7.37,7.37,0,0,1,3.55-3.11L889,564.44a6.42,6.42,0,0,1-2.22-3.6,7.27,7.27,0,0,1,.11-1.61c.55-4.12.13-8.31-.2-12.47A258.62,258.62,0,0,1,886,520.2" transform="translate(-810.66 -508.71)"/><path class="cls-5" d="M886.33,520.11a7.55,7.55,0,0,1,3.29-2.84l-1.13-.65-.27,47.82,1.28-.53a6.83,6.83,0,0,1-1.88-2.58,8.47,8.47,0,0,1,.1-3.05,38.27,38.27,0,0,0,.14-4.79c-.1-3.72-.53-7.43-.76-11.15-.45-7.37-.57-14.75-.4-22.14a.75.75,0,0,0-1.5,0q-.29,12.56.6,25.09a85,85,0,0,1,.5,12c-.1,1.43-.55,3-.13,4.4a8.34,8.34,0,0,0,2.27,3.24.76.76,0,0,0,1.28-.53l.27-47.82a.76.76,0,0,0-1.13-.65,8.93,8.93,0,0,0-3.82,3.38c-.53.81.77,1.57,1.29.76Z" transform="translate(-810.66 -508.71)"/></g><path class="cls-7" d="M822.93,546a162.48,162.48,0,0,1,20.07-8.9c1.73-.59,3.49-1.12,5.2-1.79,2.17-.85,4.25-1.91,6.33-3l22.81-11.61a7.91,7.91,0,0,1,2.14-.85c1.65-.32,3.39.4,5,0a10.91,10.91,0,0,1-.2,3.56,1.93,1.93,0,0,1-.32.8,2,2,0,0,1-1,.54,103.34,103.34,0,0,0-10.35,3.79c-5.06,2.17-10,4.75-15,6.92-5.37,2.3-10.93,4.14-16.47,6a183.37,183.37,0,0,0-19.38,7.36l.19-2.68" transform="translate(-810.66 -508.71)"/><path class="cls-7" d="M823.18,546.38c3.83-1.9,7.65-3.81,11.56-5.54,4.31-1.91,8.76-3.27,13.16-4.94,8.12-3.07,15.82-7.73,23.55-11.66,1.9-1,3.79-2,5.7-2.91a8.13,8.13,0,0,1,4-1.05c.8,0,2.35-.09,2.93.49.25.26-.48,3-.24,2.54a3.05,3.05,0,0,1-1.44,1.12,24.76,24.76,0,0,1-3,1c-2,.7-4,1.47-6,2.29-8.08,3.37-15.75,7.5-24,10.44-9.31,3.31-18.8,6.09-27.8,10.24l.75.43.19-2.68c0-.64-1-.64-1,0l-.19,2.68a.51.51,0,0,0,.76.43c11.75-5.42,24.41-8.39,36.26-13.53,6-2.6,11.77-5.71,17.88-8.07q2.15-.84,4.32-1.56a17.14,17.14,0,0,0,3.31-1.1c1.57-1,1.34-3.56,1.23-5.13,0-.24-.22-.53-.5-.5-2.34.27-4.44-.46-6.68.5-2.51,1.06-4.91,2.48-7.33,3.72l-16.62,8.46c-5.23,2.65-10.76,4.23-16.17,6.43-5.13,2.09-10.09,4.56-15,7-.58.29-.07,1.15.5.86Z" transform="translate(-810.66 -508.71)"/><g class="cls-8"><path class="cls-5" d="M879.31,519.45c-6.34,5.1-13.54,9-20.7,12.83l-14.8,8c-1,.52-1.91,1-2.89,1.49-1.24.57-2.51,1-3.78,1.53l-15.44,5.8-.23-2.11a1.07,1.07,0,0,1,.08-.73,1,1,0,0,1,.51-.38l9-4.35c2.08-1,4.16-2,6.32-2.82,1.52-.58,3.08-1,4.62-1.57,8.77-2.94,17-7.31,25.14-11.65L878,519.68" transform="translate(-810.66 -508.71)"/><path class="cls-5" d="M879.13,519.28c-6.5,5.15-13.79,9.1-21.08,13-7.64,4.11-15.12,8.51-23.25,11.57l-5.9,2.22c-1.87.7-3.94,1.85-5.9,2.22-1,.19-1.5-.21-1.28-1.36s1.42-1.36,2.26-1.77l6.3-3c7.34-3.54,15.16-5.72,22.55-9.14,8.61-4,16.9-8.65,25.27-13.1.29-.15,0-.58-.25-.43-10.5,5.58-20.9,11.67-32,16-5,2-10.05,3.49-14.91,5.83-2.7,1.3-5.43,2.55-8.1,3.91-2.05,1.06-1.64,1.53-1.38,3.88,0,.15.15.31.32.24,5.4-2,10.81-4,16.2-6.09,4.81-1.85,9.27-4.53,13.8-7,9.47-5.1,19.25-9.9,27.71-16.61.26-.2-.1-.55-.35-.35Z" transform="translate(-810.66 -508.71)"/></g><path class="cls-9" d="M825.79,535.39q6,.93,12,1.44c.49,0,.48-.71,0-.75q-5.9-.51-11.75-1.41c-.47-.08-.67.65-.2.72Z" transform="translate(-810.66 -508.71)"/><path class="cls-9" d="M825.68,539.47a37.61,37.61,0,0,0,11.38,1.19c.48,0,.48-.77,0-.75a37,37,0,0,1-11.18-1.16.37.37,0,0,0-.2.72Z" transform="translate(-810.66 -508.71)"/><path class="cls-9" d="M825.45,544.33a39.28,39.28,0,0,1,6.12.7,30.68,30.68,0,0,0,5.25,0c.48,0,.48-.77,0-.75a30.91,30.91,0,0,1-5.61-.07,33.74,33.74,0,0,0-5.76-.64c-.48,0-.48.77,0,.75Z" transform="translate(-810.66 -508.71)"/><path class="cls-9" d="M824.49,548.25a45.56,45.56,0,0,1,5.83.75,26.19,26.19,0,0,0,6.13-.08c.47,0,.48-.8,0-.75a24.76,24.76,0,0,1-6.77,0,30.07,30.07,0,0,0-5.19-.65.38.38,0,0,0,0,.75Z" transform="translate(-810.66 -508.71)"/><path class="cls-9" d="M824.84,552.34c.95,0,10.83,0,10.91.35a.37.37,0,0,0,.72-.2c-.24-1-2.48-.54-3.13-.57l-8.5-.33c-.48,0-.48.73,0,.75Z" transform="translate(-810.66 -508.71)"/><path class="cls-9" d="M824.25,556.31a21,21,0,0,0,4,.48.38.38,0,0,0,0-.75,18.91,18.91,0,0,1-3.83-.45c-.47-.11-.67.62-.2.72Z" transform="translate(-810.66 -508.71)"/><path class="cls-10" d="M837.19,535c.13,4.61-.81,9.25-1.32,13.83q-.79,7.14-1.34,14.29c0,.65,1,.64,1,0q.56-7.15,1.34-14.29c.51-4.58,1.45-9.22,1.32-13.83a.5.5,0,0,0-1,0Z" transform="translate(-810.66 -508.71)"/><path class="cls-11" d="M837.62,538.9v-.17a.5.5,0,0,0-1-.13,1,1,0,0,0,.1,1,.63.63,0,0,0,.84,0,.72.72,0,0,0-.73-1.21c-.66.3-.47,1.52.33,1.33a.76.76,0,0,0,.51-.75.72.72,0,0,0-.72-.75.5.5,0,0,0-.44.25,1.64,1.64,0,0,0-.17,1.07c0,.34.48.42.74.3a1,1,0,0,0,.5-1.15.52.52,0,0,0-.62-.35.65.65,0,0,0-.5.68l1-.13a.78.78,0,0,0-.42-.56c-.16-.09-.56-.06-.66-.19l-.71.71,1,1.21a.51.51,0,0,0,.79-.1,1.12,1.12,0,0,0-.14-1.42c-.42-.48-1.13.23-.7.71a.13.13,0,0,1,0,.2l.78-.1-1-1.21c-.42-.49-1.12.22-.71.71a1,1,0,0,0,.45.29l.25,0c.13,0,.14.07.12,0,.1.55,1,.43,1-.13l0,.08-.3.23.09,0-.62-.35h0l.74.3a.4.4,0,0,1,.07-.3l-.43.25.12,0-.35-.15.08.1-.14-.35.11,0h.51l-.17-.06.35.15c.08.08.12,0,.12-.08l-1-.14v.17a.5.5,0,0,0,1,0Z" transform="translate(-810.66 -508.71)"/><path class="cls-11" d="M841.05,544.12a1.05,1.05,0,0,0,.35-.85c0-.46-.72-.74-.93-.26a4.06,4.06,0,0,0-.27.81.5.5,0,0,0,1,.27,2.75,2.75,0,0,0,.14-.94.51.51,0,0,0-1-.14,3.19,3.19,0,0,0-.15.59.51.51,0,0,0,.61.62.8.8,0,0,0,.62-.58c.22-.61-.75-.87-1-.27l.08-.12.61.62a2.85,2.85,0,0,1,.16-.59l-1-.13a2.18,2.18,0,0,1-.1.67l1,.27a2.69,2.69,0,0,1,.17-.57l-.93-.25,0,.15a.5.5,0,0,0,.7.7Z" transform="translate(-810.66 -508.71)"/><path class="cls-12" d="M839.55,543.51a1.86,1.86,0,0,1-.92.21l.13,1a12.06,12.06,0,0,0,1.41-.66.51.51,0,0,0-.26-.94c-.58,0-1.35.24-1.84-.07s-.56-1.13-.7-1.71-.34-1.44-1.11-1.55c-2-.29-.49,2.8-.08,3.49a.5.5,0,0,0,.93-.25,3.91,3.91,0,0,0-1-2.46.5.5,0,0,0-.93.26,4.82,4.82,0,0,0,1.16,3,2.81,2.81,0,0,0,2.36,1c.64.05.64-.95,0-1-.89-.08-1.28-.14-1.78-.89a3.47,3.47,0,0,1-.74-2.08l-.94.25a3.12,3.12,0,0,1,.85,2l.93-.26a6.64,6.64,0,0,1-.58-1.2c-.06-.16-.37-1.38-.19-.5a12.77,12.77,0,0,0,.53,2c.55,1.4,1.86,1.12,3.11,1l-.25-.93a8.37,8.37,0,0,1-1.17.56.51.51,0,0,0,.14,1,2.93,2.93,0,0,0,1.42-.35c.58-.29.07-1.15-.5-.86Z" transform="translate(-810.66 -508.71)"/><path class="cls-12" d="M834.38,540l-1.39.2a.52.52,0,0,0-.68.18,9,9,0,0,0-1.8,5.29c.09,1.58,2.17.64,3.16,1,1.32.44,1.89,1,2.34-.55a5.19,5.19,0,0,0,.43-2c0-.17-.19-.29-.27-.43a5.91,5.91,0,0,1-1.06-2.9.51.51,0,0,0-.86-.36c-.73.58-1.45.26-1.94,1a11.28,11.28,0,0,0-.92,3.75.5.5,0,0,0,.61.61,2.85,2.85,0,0,1,2.44.36.5.5,0,0,0,.73-.3c.21-.92.46-1.57,0-2.4a9.43,9.43,0,0,1-.56-.84l-.42-1.11c-.12-.13-.13-.23-.29-.33-1.67-.93-1.46,2.79-1.47,3.35a.5.5,0,0,0,.85.35,1.94,1.94,0,0,0,.55-1.38l-.93.25c.19.29.34.48.55.75a.51.51,0,0,0,.84-.22,1.23,1.23,0,0,0,.08-.71c-.07-.63-1.07-.64-1,0a3.21,3.21,0,0,0,.38,1.29c.26.47.89.2.94-.25a1.57,1.57,0,0,0-.33-1.22.5.5,0,0,0-.93.25,1.08,1.08,0,0,0,.21.78.5.5,0,0,0,.91-.38,2.6,2.6,0,0,0-.26-.86.52.52,0,0,0-.62-.35.75.75,0,0,0-.68.51.5.5,0,0,0,.18.68l.3.16a.5.5,0,0,0,.75-.43,1.26,1.26,0,0,0-.39-1,.5.5,0,0,0-.84.22,1.22,1.22,0,0,0,.11.82.51.51,0,0,0,.87,0,2,2,0,0,0,.41-.91.51.51,0,0,0-.84-.49.88.88,0,0,0-.34,1c0,.44.69.75.93.25a2.09,2.09,0,0,0,.25-1.05c.06-1.25,0-2,1.21-2.63l-.5-.86a2.13,2.13,0,0,0-.7.7l.86.51.42-.53a.51.51,0,0,0,.08-.61c-1.08-1.43-3,.15-3.22,1.45-.13.63.83.9,1,.27s.54-1.14,1.39-1.22l.08-.6a1.52,1.52,0,0,0-.57.73.5.5,0,0,0,.86.51l.34-.35a.5.5,0,0,0-.5-.86,3.4,3.4,0,0,0-1.73,1.61c-.32.79.26,1.7-.09,2.43l.93.25,0-.24-.83-.49-.32.68H834v-.06l-.84.22.1.29.76-.44-.31-.15.18.68.09,0-.62-.35a2.56,2.56,0,0,1,.27.85l.91-.38-.07-.28-.94.26.2.71.93-.26-.25-.78h-1l-.05.44.84-.22-.4-.54a.5.5,0,0,0-.93.25l-.26.67.86.36a16.11,16.11,0,0,0,.07-1.7c0-.51-.48-1.09,0-.21.59,1.09,1,1.63.71,3l.73-.3a3.74,3.74,0,0,0-3.2-.46l.61.62c.16-.88.31-3,1-3.56.43-.35,1.15-.4,1.64-.79l-.85-.35a9.08,9.08,0,0,0,1,3.11,2.35,2.35,0,0,1,0,2c-.06.6-.15.66-.27.16a3.81,3.81,0,0,0-.57-.29,3.9,3.9,0,0,0-1.7-.23l-1.11.13a1.11,1.11,0,0,0,.24-.79,10.25,10.25,0,0,1,1.53-3.91l-.68.18a2.18,2.18,0,0,0,2.59-.36c.49-.42-.22-1.13-.7-.71Z" transform="translate(-810.66 -508.71)"/><path class="cls-12" d="M834.23,544.3a.83.83,0,0,0-.35-.37.51.51,0,0,0-.75.44l0,.4.93-.25-.2-.31-.79.61a14.52,14.52,0,0,1,1.67,2,.5.5,0,0,0,.91-.38c-.36-1.64-1.31-4-.69-5.59.23-.6-.73-.86-1-.26-.7,1.86.28,4.27.69,6.11l.91-.38a15.38,15.38,0,0,0-1.82-2.21c-.39-.4-1.1.12-.78.6l.2.31a.5.5,0,0,0,.93-.25l0-.4-.75.43h0c.27.58,1.14.08.86-.5Z" transform="translate(-810.66 -508.71)"/><path class="cls-13" d="M835.3,538.05a1,1,0,0,1,1.43-.78.8.8,0,0,1,.38.41q.25.23,0,.24c-.11.09-.59,0-.71,0a9.81,9.81,0,0,0-2.76.12l.13.48c.75-.19,1.81-.25,2.22-1a.25.25,0,0,0-.43-.25.78.78,0,0,0-.12.39.25.25,0,0,0,.31.25.87.87,0,0,0,.59-.57c.11-.25-.25-.4-.41-.25a.47.47,0,0,0-.15.57.25.25,0,0,0,.24.19.45.45,0,0,0,.47-.37l-.42.11.15.06-.25-.25c0,.63.84.75,1,.1a.25.25,0,0,0-.36-.28.32.32,0,0,0-.08.56.25.25,0,0,0,.42-.11.56.56,0,0,0,0-.44c0-.26-.41-.22-.48,0a.52.52,0,0,0,0,.51.25.25,0,0,0,.46.06l.11-.17-.35.09.23.28.45-.19-.14-.24a.25.25,0,0,0-.43.25l.14.24c.14.23.55.08.46-.2a.94.94,0,0,0-.45-.57.27.27,0,0,0-.35.09l-.1.17.46.06,0-.25h-.48l0,.18.42-.11,0,.22-.37-.28,0,0a.25.25,0,0,0-.25-.25c-.47,0-.73.63-.21.82s.67-.4.41-.73a.25.25,0,0,0-.42.11h0l.24.18,0-.08-.42-.25-.24.22.32.24.05-.14-.43-.25c-.3.55-1.37.63-1.92.77a.25.25,0,0,0,.13.48,7.72,7.72,0,0,1,2.2-.12,5,5,0,0,0,1.6,0,.26.26,0,0,0,.18-.17,1.44,1.44,0,0,0-1.2-1.53,1.52,1.52,0,0,0-1.7,1.24c-.06.32.42.45.48.14Z" transform="translate(-810.66 -508.71)"/><path class="cls-13" d="M836.94,537.85a1.11,1.11,0,0,0-.28-.77.25.25,0,0,0-.42.18.41.41,0,0,0,.74.3c.17-.16,0-.4-.18-.43-.52-.06-.68.47-.4.83s.55-.1.35-.35l0,0-.18-.42.12,0-.43.17a.52.52,0,0,1,.13.42.25.25,0,0,0,.5,0Z" transform="translate(-810.66 -508.71)"/><path class="cls-14" d="M831.32,546.85a2,2,0,0,0-.17,2.55,9.83,9.83,0,0,0,1,1,2.9,2.9,0,0,1,.79,3c-.12.33-.32.64-.47,1a4,4,0,0,0-.34,2.21l1.22.19a.42.42,0,0,0,.27,0c.12-.08.11-.26.1-.41a5,5,0,0,1,.84-2.36,8.63,8.63,0,0,0,.11-6.25,1.75,1.75,0,0,0-.27-.61,1.64,1.64,0,0,0-1.45-.48,8.42,8.42,0,0,1-1.58.13" transform="translate(-810.66 -508.71)"/><path class="cls-14" d="M831.11,546.73a2.37,2.37,0,0,0,.18,3.21,5.88,5.88,0,0,1,1.1,1.27c.59,1.07.21,1.9-.1,3a6.21,6.21,0,0,0-.37,2.34.26.26,0,0,0,.19.24c1,.15,1.29.37,1.89-.19.38-.36.55-1.84.83-2.56a8.28,8.28,0,0,0,.6-2.23c.15-1.29.13-3.77-.77-4.85s-2.18-.48-3.25-.48c-.32,0-.32.49,0,.5a7.57,7.57,0,0,1,1.05-.06c.6-.21,1,0,1.36.69a1.27,1.27,0,0,1,.9,1.08,7.23,7.23,0,0,1,.16,3.4,16.64,16.64,0,0,1-1.1,2.93c-.19.55-.3,2.06-1.16,1.17s.83-2.76.73-3.93c-.16-1.82-3.23-3.24-1.81-5.25.18-.26-.25-.52-.43-.25Z" transform="translate(-810.66 -508.71)"/><path class="cls-14" d="M831.07,550.16a2.18,2.18,0,0,1,.43,1.38,7.18,7.18,0,0,1-.23,1.45l-.76,3.33a.93.93,0,0,0,.73.18c.36-.11.44-.57.46-.94a6.3,6.3,0,0,1,.26-1.62,8.5,8.5,0,0,0,.44-1.19,3.12,3.12,0,0,0-1.15-2.55s-.07-.07-.06-.11.09-.05.09,0" transform="translate(-810.66 -508.71)"/><path class="cls-14" d="M830.86,550.28c1,1.54-.21,4.31-.59,6a.24.24,0,0,0,.11.28c1.48.7,1.48-.67,1.66-1.77a11.07,11.07,0,0,0,.62-2.49,2.84,2.84,0,0,0-.4-1.21,4.21,4.21,0,0,0-.28-.41.61.61,0,0,0-.83-.36c.27.18.52-.25.25-.44l0,0a.24.24,0,0,0-.3,0l0,0a.26.26,0,0,0,0,.3c.21.42.62.69.85,1.11.54.94.19,1.64-.1,2.55a5.19,5.19,0,0,0-.19.87c0,.27-.06.54-.08.82-.58.54-.75.5-.48-.12a7.08,7.08,0,0,1,.44-1.9c.1-.48.23-1,.29-1.44a2.93,2.93,0,0,0-.41-2.07c-.17-.27-.6,0-.43.25Z" transform="translate(-810.66 -508.71)"/><g class="cls-15"><path class="cls-3" d="M830.63,548.36c0,1,.61,1.52,1.14,2.35,1.09,1.72.24,3.58-.31,5.32-.1.3.39.44.48.13.43-1.32,1.07-2.76.85-4.18s-1.65-2.29-1.66-3.62a.25.25,0,0,0-.5,0Z" transform="translate(-810.66 -508.71)"/></g><g class="cls-15"><path class="cls-3" d="M830.88,549.64c-.22,2,.58,4.73-.46,6.47a.25.25,0,0,0,.43.25c1.13-1.9.3-4.61.53-6.72,0-.32-.47-.32-.5,0Z" transform="translate(-810.66 -508.71)"/></g><g class="cls-15"><path class="cls-5" d="M833.44,539.27a13.68,13.68,0,0,1-1,1.42,9.55,9.55,0,0,0-1.72,5,.5.5,0,0,0,0,.32.57.57,0,0,0,.45.24,7.35,7.35,0,0,0,2.34,0,1.7,1.7,0,0,1-1.42-1.35,4.3,4.3,0,0,1,.16-2.07,19.39,19.39,0,0,1,1.27-3.46c0-.08.14-.19.22-.13" transform="translate(-810.66 -508.71)"/><path class="cls-5" d="M833.23,539.14c-1.13,1.91-2.33,3.41-2.65,5.68-.08.59-.25,1.21.28,1.59s2.07.2,2.73.12c.26,0,.37-.44.07-.49-1.71-.33-1.31-2.4-.95-3.62.13-.46.76-2.87,1.11-2.9s.32-.52,0-.5c-1,.08-1.72,3.58-1.86,4.29-.26,1.34,0,2.91,1.57,3.21l.06-.49c-.31,0-.62.08-.94.09-.66,0-1.18.1-1.48-.48s.09-1.81.32-2.49a20.56,20.56,0,0,1,2.17-3.75.25.25,0,0,0-.43-.26Z" transform="translate(-810.66 -508.71)"/></g><g class="cls-15"><path class="cls-5" d="M835.58,540c-.83.67-.24,1.76.07,2.55a3,3,0,0,0,1.74,2.09c.31.11.43-.37.14-.48-1.38-.5-1.75-1.94-1.94-3.24l-.48.14a30.71,30.71,0,0,1,1,3.53c0,.32.53.32.5,0a31.58,31.58,0,0,0-1-3.67c-.06-.32-.52-.17-.48.14.21,1.51.73,3,2.28,3.58l.14-.48a2.5,2.5,0,0,1-1.4-1.74c-.22-.56-.81-1.58-.2-2.06.25-.2-.1-.56-.35-.36Z" transform="translate(-810.66 -508.71)"/></g><path class="cls-10" d="M828.79,529c-.44,11.16-1.37,22.32-2.07,33.47,0,.64,1,.64,1,0,.7-11.15,1.63-22.31,2.07-33.47,0-.64-1-.64-1,0Z" transform="translate(-810.66 -508.71)"/><path class="cls-10" d="M842.59,530.67c-.31,5.58-1.07,11.12-1.53,16.69-.45,5.39-.53,10.82-.73,16.23,0,.64,1,.64,1,0,.2-5.41.28-10.84.73-16.23.46-5.57,1.22-11.11,1.53-16.69,0-.64-1-.64-1,0Z" transform="translate(-810.66 -508.71)"/><path class="cls-10" d="M824.79,533.5q-.49,13.65-2,27.24h1l0-.35c0-.64-1-.64-1,0l0,.35a.5.5,0,0,0,1,0q1.47-13.59,2-27.24a.5.5,0,0,0-1,0Z" transform="translate(-810.66 -508.71)"/><path class="cls-10" d="M829.51,532a44,44,0,0,1,6.75.91c2.14.29,4.29.14,6.41.58.47.1.67-.62.2-.72-2.4-.5-4.85-.32-7.27-.73a33.86,33.86,0,0,0-6.09-.79.38.38,0,0,0,0,.75Z" transform="translate(-810.66 -508.71)"/><path class="cls-10" d="M829.31,536.18q3,.41,6.11.76c1.68.19,5.65,0,7,1,.37.3.91-.22.53-.53-1.32-1.06-3.52-.82-5.13-1-2.82-.3-5.64-.65-8.46-1-.48-.06-.47.69,0,.75Z" transform="translate(-810.66 -508.71)"/><path class="cls-10" d="M829,540q6.54,1.1,13.12,1.78c.48,0,.48-.7,0-.75q-6.48-.68-12.92-1.75c-.47-.08-.67.64-.2.72Z" transform="translate(-810.66 -508.71)"/><path class="cls-10" d="M829.15,545.57l12.15,1.25c.48,0,.48-.7,0-.75l-12.15-1.25c-.48-.05-.48.7,0,.75Z" transform="translate(-810.66 -508.71)"/><path class="cls-10" d="M828.71,550.5c2-.46,4.37,0,6.42.12l6,.4c.49,0,.48-.72,0-.75l-6.91-.46a19.45,19.45,0,0,0-5.7,0c-.47.11-.27.83.2.72Z" transform="translate(-810.66 -508.71)"/><path class="cls-10" d="M828.32,554.89a64.73,64.73,0,0,0,12.67.91c.48,0,.48-.77,0-.75a63.46,63.46,0,0,1-12.47-.88c-.48-.08-.68.64-.2.72Z" transform="translate(-810.66 -508.71)"/><path class="cls-10" d="M827.92,556.36l6.66.52a26.1,26.1,0,0,0,6.55,0c-.15,1.2-.25,2.41-.29,3.61a53.85,53.85,0,0,0-6.71-.65l-6.41-.34c.12-1,.2-2,.22-3.06" transform="translate(-810.66 -508.71)"/><path class="cls-10" d="M827.92,556.74c2.69.21,5.38.45,8.07.62.71,0,3.63-.37,4.21,0a1.82,1.82,0,0,1,0,2.39c-.48.39-2.15,0-2.75-.09-1.43-.13-2.86-.19-4.29-.27-1.2-.07-2.47,0-3.66-.2-1.83-.27-1.29-1.16-1.23-2.78a.38.38,0,0,0-.75,0c0,1-.11,2-.22,3.06,0,.21.19.36.37.37a118.09,118.09,0,0,1,13,1,.38.38,0,0,0,.47-.37c.06-1.21.15-2.4.29-3.61,0-.27-.26-.39-.47-.36-4.3.61-8.81-.16-13.11-.49-.49,0-.48.71,0,.75Z" transform="translate(-810.66 -508.71)"/><path class="cls-10" d="M827.71,556.64l-2,.77a4.87,4.87,0,0,1-1.43.37,1.37,1.37,0,0,0-.45.07c-.32.14-.39.56-.42.91l-.12,1.6a.27.27,0,0,0,0,.16.21.21,0,0,0,.17.06,5.56,5.56,0,0,0,1.79-.34l1.52-.47a.92.92,0,0,0,.3-.14.9.9,0,0,0,.24-.55l.31-1.81" transform="translate(-810.66 -508.71)"/><path class="cls-10" d="M827.61,556.28c-.76.29-1.52.6-2.29.87-.55.19-1.29.12-1.77.43a1.29,1.29,0,0,0-.5,1,6.56,6.56,0,0,0-.1,2.07.37.37,0,0,0,.26.27,2.91,2.91,0,0,0,1.57-.12,16.77,16.77,0,0,0,2.19-.67c1-.41.88-1.84,1-2.73.08-.47-.65-.68-.73-.2l-.23,1.36c-.09.56-.09.75-.65,1-.74.29-2.22.92-3,.66l.26.27a4.92,4.92,0,0,1,.1-1.67c.13-.39.17-.47.65-.62.14,0,.39,0,.53-.09a25.18,25.18,0,0,0,2.86-1c.45-.17.25-.89-.2-.72Z" transform="translate(-810.66 -508.71)"/><path class="cls-9" d="M824.69,533.63c.48,4.32-.32,8.56-.65,12.86-.34,4.52-.5,9.07-.74,13.6,0,.48.72.48.75,0,.24-4.53.4-9.08.74-13.6.33-4.3,1.13-8.54.65-12.86-.05-.48-.8-.48-.75,0Z" transform="translate(-810.66 -508.71)"/><path class="cls-16" d="M850.49,550.39l-.07-.21a.38.38,0,0,0-.74.1,8.32,8.32,0,0,0,.06,1.41c0,.29.4.53.64.26a1.2,1.2,0,0,0-.1-1.75.38.38,0,0,0-.63.17,1.83,1.83,0,0,0,.17,1.43.38.38,0,0,0,.65,0,1.44,1.44,0,0,0,.09-1.28.38.38,0,0,0-.72,0,1.79,1.79,0,0,0,0,1.12c.14.45.87.26.72-.2a1.11,1.11,0,0,1,0-.72h-.72a.75.75,0,0,1,0,.7h.65a1,1,0,0,1-.09-.86l-.63.17a.45.45,0,0,1,.1.69l.64.27a8.32,8.32,0,0,1-.06-1.41l-.73.1.07.21c.16.45.89.26.72-.2Z" transform="translate(-810.66 -508.71)"/><path class="cls-17" d="M866.05,533.93a11.42,11.42,0,0,0-.8,2.28c-.11.43-.21.87-.32,1.3,0,.21-.46,1-.11,1.1-.48-.08-.68.65-.2.73.7.11.8-.79,1-1.3a20.86,20.86,0,0,1,1.13-3.73c.22-.43-.43-.81-.65-.38Z" transform="translate(-810.66 -508.71)"/><path class="cls-18" d="M882,528.87c-.28,1-.91,1.79-1.26,2.72a10.25,10.25,0,0,0-.51,2.81q-.75,8.72-1.44,17.45a39.83,39.83,0,0,0,5.57.15l1.08-4.21h-3.69a.74.74,0,0,1-.57-.15.72.72,0,0,1-.15-.54,175,175,0,0,1,1-17.71" transform="translate(-810.66 -508.71)"/><path class="cls-18" d="M881.61,528.77A22.62,22.62,0,0,0,880,533c-.32,1.9-.36,3.87-.53,5.79q-.54,6.54-1.07,13.09a.38.38,0,0,0,.38.37,47,47,0,0,0,5.57.15.37.37,0,0,0,.36-.27l1.08-4.21a.38.38,0,0,0-.36-.47,12.23,12.23,0,0,1-2.77,0c-1.06-.4-1.16-1.42-1.27-2.29a30.59,30.59,0,0,1,.17-5.41c.19-3.45.49-6.89.79-10.33,0-.48-.71-.47-.75,0-.46,5.24-.92,10.48-1,15.74,0,.86-.3,2.24.43,2.87,1.45,1.27,4.28-1.39,3.46,1.79-.38,1.46-.56,1.64-2,1.86-1.06.16-2.71.22-3.26-.78-.37-.67.25-3.09.31-3.88.11-1.29.21-2.59.32-3.88q.31-3.87.65-7.76a22.85,22.85,0,0,1,1.84-6.39c.17-.45-.56-.64-.73-.2Z" transform="translate(-810.66 -508.71)"/><path class="cls-18" d="M876.11,530.64a20.75,20.75,0,0,0-1.82,4.09,17.48,17.48,0,0,0-.51,3.53c-.13,1.94-.2,3.87-.19,5.81a17.77,17.77,0,0,1-.13,2.83c-.28,1.77-1.16,3.53-.71,5.26a8.71,8.71,0,0,0,3.4.36,20.61,20.61,0,0,1,2.05-4.63c-.9-.3-1.91-.7-2.24-1.59a3.27,3.27,0,0,1-.13-1.08l-.13-12.9" transform="translate(-810.66 -508.71)"/><path class="cls-18" d="M875.79,530.45a21.77,21.77,0,0,0-2.51,10.23,43,43,0,0,1-.36,7,12.31,12.31,0,0,0-.53,4.58.37.37,0,0,0,.27.26,11.1,11.1,0,0,0,3.49.37.38.38,0,0,0,.36-.27,24.22,24.22,0,0,1,2-4.54.38.38,0,0,0-.22-.55c-3-1.06-2.13-5.24-2.15-7.77l-.07-7.44a.38.38,0,0,0-.75,0c0,4.26-.22,8.65.12,12.9a2.75,2.75,0,0,0,.92,2.2c1.18,1,1.34.39.52,2.15a9.06,9.06,0,0,1-.84,2c-1.54,1.6-3,.22-2.86-2,.14-1.74.76-3.29.78-5.1,0-4.91.1-9.27,2.47-13.71.22-.42-.42-.8-.65-.38Z" transform="translate(-810.66 -508.71)"/><path class="cls-18" d="M869,532.87c-1.28,2-1.56,4.46-1.8,6.82l-1.39,13.64a.93.93,0,0,0,1.11,0,2.19,2.19,0,0,0,.66-1,6.34,6.34,0,0,0,.19-3.9,4.19,4.19,0,0,1,1,3.05,5.09,5.09,0,0,0,0,1.1,1,1,0,0,0,.65.81c.48.1.89-.34,1.15-.76a8.5,8.5,0,0,0,.58-7.69,1.62,1.62,0,0,0-.42-.64A3.29,3.29,0,0,0,870,544c-1.13-.43-1.62-1.76-1.82-3a13.75,13.75,0,0,1,0-4.83" transform="translate(-810.66 -508.71)"/><path class="cls-18" d="M868.71,532.68c-1.49,2.62-1.69,5.54-2,8.47l-1.25,12.18a.38.38,0,0,0,.28.36c2.8.87,2.76-3.72,2.42-5.38l-.68.29c1,1.36.55,2.57.94,4a1.37,1.37,0,0,0,.83,1.08c1.31.39,2.08-1.54,2.4-2.41.71-1.92.9-4.69-.15-6.54-.59-1-1.74-1.22-2.44-2.15-1.14-1.52-.74-4.59-.47-6.3.08-.47-.64-.67-.72-.2-.45,2.81-.59,6.08,1.69,8.06a4.39,4.39,0,0,1,1.81,3.14c.16,1.43.17,4.28-1.47,4.58-1.17.2-.6-.56-.77-1.5a4.94,4.94,0,0,0-1-2.15.38.38,0,0,0-.69.29s.61,4.82-1.13,3.84a29.24,29.24,0,0,1,.3-2.92l.55-5.35c.37-3.67.32-7.74,2.19-11a.38.38,0,0,0-.65-.38Z" transform="translate(-810.66 -508.71)"/><path class="cls-18" d="M863.16,535.32a3.42,3.42,0,0,0-1.08,2.39,15,15,0,0,0,.17,2.67,40.13,40.13,0,0,1,.06,4.78l-.25,8.4c0,.11,0,.25.1.31s.3-.06.4-.19a14.76,14.76,0,0,0,1.52-2.53,3.63,3.63,0,0,0,.29-.84,3.58,3.58,0,0,0,0-1.13l-1.51-13" transform="translate(-810.66 -508.71)"/><path class="cls-18" d="M862.89,535.06c-2,2.22-.9,5.47-.91,8.19,0,1.88-.1,3.76-.16,5.64,0,1.49-.48,3.67,0,5.08a.38.38,0,0,0,.36.27c1.61-.08,2.6-3.48,2.59-4.77,0-4.35-1-8.94-1.53-13.26-.06-.48-.81-.48-.75,0l1,8.34c.16,1.39.33,2.78.48,4.17.08.68-.31,4.19-1.26,4.17-.38,0,0-6.5,0-7.27,0-1.42.1-2.86,0-4.28-.1-2-.77-4.12.73-5.75.33-.36-.2-.89-.53-.53Z" transform="translate(-810.66 -508.71)"/><path class="cls-18" d="M858.31,537.44a9.72,9.72,0,0,0-1.65,6,50.45,50.45,0,0,1,0,6.39,12.33,12.33,0,0,0-.32,4.26,13.65,13.65,0,0,0,1.76-2.51l.36,3a9.6,9.6,0,0,0,1.51-2.93,2.41,2.41,0,0,0,.12-.64,3.65,3.65,0,0,0-.17-.81,9.51,9.51,0,0,1-.07-3.49l.37-3.55a9.33,9.33,0,0,0,0-3,3.07,3.07,0,0,0-1.81-2.29" transform="translate(-810.66 -508.71)"/><path class="cls-18" d="M858,537.25c-1.49,2.16-1.74,4.59-1.7,7.16,0,1.52.19,3,.07,4.57-.13,1.79-.63,3.36-.4,5.16,0,.28.4.55.64.27a18,18,0,0,0,1.81-2.6l-.7-.18.36,3a.38.38,0,0,0,.7.19,8.38,8.38,0,0,0,1.68-3.76c.11-1.07-.36-2.3-.32-3.42s.21-2.07.31-3.1c.27-2.52.8-5.59-1.88-7-.42-.22-.8.43-.37.65,2.85,1.48,1.51,6,1.27,8.55a19.15,19.15,0,0,0-.07,2.73,6.44,6.44,0,0,1-.09,2.83,8.83,8.83,0,0,1-1.18,2.12l.7.19-.36-3a.38.38,0,0,0-.7-.19,16.62,16.62,0,0,1-1.69,2.44l.64.26c-.33-2.55.49-5.28.41-7.9-.1-3-.28-6,1.52-8.61.27-.4-.38-.78-.65-.38Z" transform="translate(-810.66 -508.71)"/><path class="cls-18" d="M852.9,539.33a5.24,5.24,0,0,0-1.24,3.63,111.06,111.06,0,0,0-.22,11.54A6.07,6.07,0,0,0,853,552l.41,2.51c0,.21.12.47.34.47a.34.34,0,0,0,.24-.11,3.91,3.91,0,0,0,1.26-3c0-1.11-.21-2.21-.29-3.31-.25-3.38,1-6.77.53-10.14a33.41,33.41,0,0,0-1.36,4.61l-.83-3.38c0-.07-.05-.16-.12-.19s-.16.1-.09.13" transform="translate(-810.66 -508.71)"/><path class="cls-18" d="M852.63,539.07c-1.31,1.51-1.33,3.41-1.44,5.33-.19,3.36-.22,6.73-.12,10.1a.38.38,0,0,0,.64.27,8.24,8.24,0,0,0,1.7-2.65h-.73c.11.66,0,3,1,3.25.78.15,1.42-1.16,1.63-1.71.8-2,0-4.32,0-6.43.06-2.94.81-5.78.55-8.75a.38.38,0,0,0-.74-.1,41.26,41.26,0,0,0-1.36,4.61h.73c-.28-1.12-.37-2.69-1-3.65a.38.38,0,0,0-.51-.14l-.1,0a.4.4,0,0,0-.17.43v.08c.07.48.79.28.73-.2a2,2,0,0,0-.1,2l.41,1.69a.38.38,0,0,0,.73,0,41.21,41.21,0,0,1,1.35-4.61l-.73-.1c.27,3.12-.59,6.12-.57,9.22,0,1.28.32,2.54.31,3.81,0,.31-.32,3.06-1.09,2.92a16.9,16.9,0,0,1-.4-2.51c-.07-.41-.61-.29-.73,0a5.68,5.68,0,0,1-1.5,2.32l.64.26c-.07-2.4-.09-4.81,0-7.22s-.31-5.77,1.35-7.68c.32-.36-.21-.9-.53-.53Z" transform="translate(-810.66 -508.71)"/><path class="cls-18" d="M849.39,551.32a6.15,6.15,0,0,0-.44,3.2,3.64,3.64,0,0,0,.85-3.31,7.06,7.06,0,0,0-.7,3.61,10,10,0,0,0,.41-3.57,11.15,11.15,0,0,0-.43,4,11.87,11.87,0,0,0,.3-2.51c0-.43-.11-1-.53-1s-.65.31-.82.64a10.47,10.47,0,0,0-.94,2.65,9,9,0,0,0,0-3,5.39,5.39,0,0,0-.2,2.29,5.87,5.87,0,0,0,.15-3.27,6.66,6.66,0,0,0-.45,2.15,16.48,16.48,0,0,0,.41-5.73,43.56,43.56,0,0,0,.13,5.48l.26-4.63-.18,1.9a7.66,7.66,0,0,0-.13-2.9,19.76,19.76,0,0,0-.11,2.43l-.53-.14a11.9,11.9,0,0,0-1.26,5.06c.11-1,.17-2.09.19-3.14a9.19,9.19,0,0,0-.4,3.29,8.69,8.69,0,0,0-.12-5.29l-.18,2.93a54,54,0,0,1,.68-8.7c-.05,3.82-.2,7.65-.44,11.46a2.09,2.09,0,0,1-.28-1.15" transform="translate(-810.66 -508.71)"/><path class="cls-18" d="M849,551.22a7.58,7.58,0,0,0-.45,3.3.38.38,0,0,0,.7.19,4.4,4.4,0,0,0,.88-3.6.38.38,0,0,0-.68-.09,8.91,8.91,0,0,0-.76,3.8.38.38,0,0,0,.74.1,12.25,12.25,0,0,0,.42-3.67.38.38,0,0,0-.74-.1,13.93,13.93,0,0,0-.43,4.12c0,.4.65.53.73.1.17-.86,1-3.73-.49-4s-2,2.74-2.23,3.55l.74.1a11.81,11.81,0,0,0,0-3c-.05-.38-.63-.54-.74-.1a7.7,7.7,0,0,0-.21,2.39.37.37,0,0,0,.73.1,7.68,7.68,0,0,0,.15-3.47c-.06-.39-.62-.32-.72,0a10.36,10.36,0,0,0-.47,2.25c0,.43.65.51.74.1a19.35,19.35,0,0,0,.43-5.83.38.38,0,0,0-.75,0,52.7,52.7,0,0,0,.12,5.48.38.38,0,0,0,.75,0l.26-4.63c0-.49-.7-.48-.75,0l-.18,1.9c0,.48.7.48.75,0a10.06,10.06,0,0,0-.14-3c-.09-.44-.71-.3-.74.1-.07.82-.1,1.61-.1,2.43l.47-.36-.54-.14a.38.38,0,0,0-.42.17,14.24,14.24,0,0,0-1.3,5.25c0,.48.71.47.75,0,.09-1,.15-2.09.18-3.14a.38.38,0,0,0-.74-.1,12.54,12.54,0,0,0-.41,3.39.38.38,0,0,0,.74.1,10,10,0,0,0-.11-5.49.38.38,0,0,0-.74.1l-.19,2.93h.75a60.41,60.41,0,0,1,.67-8.6l-.74-.1c-.06,3.82-.2,7.65-.43,11.46l.73-.1-.26-1c0-.48-.8-.48-.75,0a2.7,2.7,0,0,0,.29,1.25.38.38,0,0,0,.74-.1c.23-3.81.37-7.64.43-11.46,0-.41-.67-.53-.73-.1a61.77,61.77,0,0,0-.7,8.8.38.38,0,0,0,.75,0l.19-2.93-.74.1a9.09,9.09,0,0,1,.11,5.09l.74.1a11.87,11.87,0,0,1,.39-3.19l-.74-.1c0,1.05-.09,2.09-.18,3.14h.75c0-.13.44-4.79,1.31-4.56a.37.37,0,0,0,.48-.36c0-.82,0-1.61.1-2.43l-.74.1a8.82,8.82,0,0,1,.12,2.8h.75l.18-1.9H847l-.26,4.63h.75a52.7,52.7,0,0,1-.12-5.48h-.75a18.69,18.69,0,0,1-.4,5.63l.73.1a6.83,6.83,0,0,1,.44-2.05h-.72a5.53,5.53,0,0,1-.15,3.07l.74.1a4.94,4.94,0,0,1,.19-2.19l-.74-.1a11.81,11.81,0,0,1,0,3c-.05.42.64.5.74.1s.54-2.41.91-2.56c1.24-.5.36,2.65.36,2.62l.74.1a13,13,0,0,1,.41-3.92l-.74-.1a11.43,11.43,0,0,1-.4,3.48l.74.09a8.08,8.08,0,0,1,.65-3.42l-.68-.09a3.4,3.4,0,0,1-.81,3l.7.19a7.6,7.6,0,0,1,.42-3.1c.16-.46-.56-.66-.72-.2Z" transform="translate(-810.66 -508.71)"/><path class="cls-16" d="M843.1,541.81q.15,5.31,0,10.6a.38.38,0,0,0,.74.1,39.81,39.81,0,0,0,1.44-10.86.38.38,0,0,0-.75,0,46.94,46.94,0,0,1-.47,5.68,24.61,24.61,0,0,1-.93,4.9c.41-1,.09-3.38.06-4.61,0-1.83-.13-3.67-.24-5.5l-.74.1a10.46,10.46,0,0,1,.32,2.54h.75l-.14-2.85h-.75a33.7,33.7,0,0,1,0,4c0,.48.71.48.75,0a33.7,33.7,0,0,0,0-4c0-.48-.78-.48-.75,0l.14,2.85c0,.48.77.49.75,0A15.93,15.93,0,0,0,843,542a.37.37,0,0,0-.73.1c.23,3.67.31,7.33.25,11a.38.38,0,0,0,.37.38l.36,0a.4.4,0,0,0,.36-.28,47.87,47.87,0,0,0,1.74-11.54h-.75a39.12,39.12,0,0,1-1.41,10.66l.73.1q.11-5.29,0-10.6a.38.38,0,0,0-.75,0Z" transform="translate(-810.66 -508.71)"/><path class="cls-16" d="M846,541.14a70.71,70.71,0,0,1-.63,11.35c-.06.46.62.68.72.2.88-4.06,2.13-8,2.19-12.2h-.75a71.29,71.29,0,0,1,.09,11.87h.75l1-1.47a.38.38,0,0,0,.22-.55c-.9-1.48-.16-3.92-.05-5.53s.15-3.22.2-4.84H849a33.64,33.64,0,0,1-1.26,11.68.37.37,0,0,0,.72.2A34,34,0,0,0,849.73,540a.38.38,0,0,0-.75,0c-.09,3-.78,6.35-.58,9.37.06.84.18.62,0,1.14-.24.75-.81.93-.84,1.88,0,.49.7.47.75,0a71.29,71.29,0,0,0-.09-11.87.38.38,0,0,0-.75,0c-.06,4.11-1.3,8-2.16,12l.72.2a72,72,0,0,0,.66-11.55.38.38,0,0,0-.75,0Z" transform="translate(-810.66 -508.71)"/><path class="cls-16" d="M853.17,538.3a54.43,54.43,0,0,1-1.35,13l.73.1a47,47,0,0,1,.92-6.21c.3-2.26.44-4.53.59-6.8l-.74.1q1,6,1.59,12l.74-.1L854.29,544c-.1-.47-.8-.27-.72.2l1.16,6.53c.07.43.71.3.73-.1.23-4.15-.07-8.82.95-12.85l-.73-.1a72.05,72.05,0,0,1-1.2,11h.73q-.48-3.14-1.13-6.25c-.1-.47-.83-.27-.73.2.44,2.08.81,4.16,1.13,6.25a.38.38,0,0,0,.73,0,73.27,73.27,0,0,0,1.22-11.16.38.38,0,0,0-.74-.1c-1,4.1-.75,8.84-1,13l.74-.1L854.29,544l-.72.2,1.35,6.42c.09.41.79.32.74-.1q-.64-6.12-1.61-12.2c-.07-.44-.71-.29-.74.1-.16,2.56-.32,5.13-.72,7.66a34.7,34.7,0,0,0-.79,5.35.38.38,0,0,0,.74.1,55.49,55.49,0,0,0,1.38-13.23.38.38,0,0,0-.75,0Z" transform="translate(-810.66 -508.71)"/><path class="cls-16" d="M857.64,550.11l.63-6.56c.21-2.19.13-4.67.92-6.73l-.74-.1-.32,2.87c0,.43.62.49.73.1a9.65,9.65,0,0,0,.39-2.49h-.75l.17,2.27a.38.38,0,0,0,.75,0c.11-.9.18-1.78.21-2.69,0-.48-.72-.48-.75,0l-.14,2.39a.38.38,0,0,0,.74.1l.5-1.82-.73-.1-.09,1.62c0,.44.61.48.74.1a10.32,10.32,0,0,0,.51-2.25h-.75a11.33,11.33,0,0,0,.24,1.92.38.38,0,0,0,.73,0,11,11,0,0,0,.25-2.06h-.75a11.88,11.88,0,0,0,.13,2.06c.06.38.63.33.72,0a8.31,8.31,0,0,0,.35-1.63l-.74-.1a13.5,13.5,0,0,0,.08,1.91.38.38,0,0,0,.74.1,7.35,7.35,0,0,0,.4-1.68l-.74-.1A108.37,108.37,0,0,1,860,549.83l.74.1a107,107,0,0,0,.46-11,.38.38,0,0,0-.57-.32l-2.11.93.56.32c0-2,.38-2.84,2.25-3.47l-.29-.69a4.61,4.61,0,0,0-1.14.92c-.26.24,0,.76.36.62a3,3,0,0,0,1.37-.79l-.63-.17.16.73a.37.37,0,0,0,.73-.09v-.47l-.73.1.07.49.68-.29-.12-.18c-.25-.41-.9,0-.64.38l.12.18a.37.37,0,0,0,.68-.29l-.07-.49c-.06-.42-.73-.31-.74.1v.47l.74-.1-.16-.73a.37.37,0,0,0-.62-.17l-1,.6.37.63,1-.8c.33-.22.13-.83-.29-.69-3,1-2.77,1-2.8,4.2a.38.38,0,0,0,.56.32l2.12-.93-.56-.32a107,107,0,0,1-.46,11c0,.42.67.52.73.1a109.45,109.45,0,0,0,1.12-12.79c0-.41-.66-.52-.74-.1a6.85,6.85,0,0,1-.39,1.68l.73.1a13.5,13.5,0,0,1-.08-1.91c0-.41-.67-.53-.74-.1a7.63,7.63,0,0,1-.34,1.63H861a7.27,7.27,0,0,1-.1-1.86c0-.49-.73-.49-.75,0a6.92,6.92,0,0,1-.23,1.86h.73l-.22-1.72a.38.38,0,0,0-.75,0,6.59,6.59,0,0,1-.48,2l.73.1.09-1.62a.38.38,0,0,0-.74-.1l-.51,1.82.74.1.14-2.39h-.75c0,.91-.1,1.79-.21,2.69h.75l-.17-2.27a.38.38,0,0,0-.75,0,6.35,6.35,0,0,1-.36,2.29l.74.1.32-2.87c.06-.45-.59-.46-.73-.1-.73,1.87-.68,4-.86,6l-.72,7.5c0,.48.7.48.75,0Z" transform="translate(-810.66 -508.71)"/><path class="cls-16" d="M858.53,545.37a.68.68,0,0,0,.13-.39h-.75v2c0,.5.7.47.75,0l.31-2.51h-.75a11.11,11.11,0,0,0,.08,2.08c.05.39.62.55.73.1a14.62,14.62,0,0,0,.38-2.06h-.75a7.72,7.72,0,0,0,.28,2.53.37.37,0,0,0,.72,0,5.31,5.31,0,0,0,.27-2,.38.38,0,0,0-.75,0l-.07,1.09c0,.43.62.49.74.1a7.67,7.67,0,0,0,.27-1.15l-.74-.1,0,1.35a.38.38,0,0,0,.74.1,7.53,7.53,0,0,1,.26-1l-.18.23,0,0-.46-.06,0,0v-.53l0,0,.64.26c.07-1.05-1.84-1.18-2.36-.52-.21.27,0,.76.37.63l1.31-.44-.46-.26,0,.08c-.35.33.18.86.53.53a.75.75,0,0,0,.22-.81.38.38,0,0,0-.46-.26l-1.31.43.36.63a.54.54,0,0,1,.63-.17c.08,0,.46.1.45.16a.38.38,0,0,0,.64.27l0,0a.4.4,0,0,0,0-.53l0,0a.36.36,0,0,0-.45,0c-.37.26-.38.89-.47,1.29l.73.1,0-1.35c0-.41-.66-.53-.73-.1a11.29,11.29,0,0,1-.27,1.15l.73.1.07-1.09h-.75a4.74,4.74,0,0,1-.24,1.83h.72a7.44,7.44,0,0,1-.25-2.34c0-.49-.69-.47-.75,0a13,13,0,0,1-.35,1.86l.74.1a11.11,11.11,0,0,1-.08-2.08c0-.49-.7-.47-.75,0l-.31,2.51h.75v-2c0-.5-.69-.47-.75,0h0c-.28.39.37.77.64.38Z" transform="translate(-810.66 -508.71)"/><path class="cls-16" d="M864.22,535.62l0,0a.38.38,0,0,0,0-.53l-.08-.07a.37.37,0,0,0-.62.16c-.61,1.57.12,4.45.17,6.15.07,2.59.06,5.17,0,7.75a.38.38,0,0,0,.75,0c.1-3.22,1.33-6.37,1.91-9.54.28-1.55,1.36-4.33.6-5.81a.37.37,0,0,0-.68.09L864,543l.73.1a68.65,68.65,0,0,0-.47-8.48c0-.32-.53-.57-.7-.19-.77,1.72-.34,3.69-.2,5.51a46.24,46.24,0,0,1,.06,8h.75a32.68,32.68,0,0,1,1.3-6.8l-.73-.2A31,31,0,0,0,864,544a.37.37,0,0,0,.72.2,14.65,14.65,0,0,0,.65-2.14l-.73-.2L863.46,549l.73.1-.12-8.28a.38.38,0,0,0-.75,0l.12,8.28c0,.41.67.53.74.1l1.2-7.12c.08-.47-.62-.68-.73-.2A14.61,14.61,0,0,1,864,544l.72.2a28.62,28.62,0,0,1,.75-3.17c.14-.46-.59-.66-.73-.2a34,34,0,0,0-1.32,7c0,.48.71.47.75,0a36.54,36.54,0,0,0,.07-6.1c-.12-2-.88-5.12,0-7l-.7-.19a68.65,68.65,0,0,1,.47,8.48.38.38,0,0,0,.74.1l2.32-9.19-.68.09c.48.94-.36,3.36-.53,4.36-.23,1.33-.48,2.65-.79,4a33.1,33.1,0,0,0-1.3,6.66h.75c0-2.26.06-4.52,0-6.78,0-1,0-1.94-.09-2.9s-.52-3-.13-4l-.63.17,0-.41c-.33.35.2.89.53.53Z" transform="translate(-810.66 -508.71)"/><path class="cls-16" d="M859.33,544.46h-.75l.1.74.86-.12A2,2,0,0,1,860,545c.25,0,.2.09.15.3-.14.59-.31,1.19-.47,1.78l.37-.28a2.49,2.49,0,0,1-1.46-.17l.17.22,0-.11,0,.29.06-.08c.28-.39-.37-.77-.65-.38-.69,1,1.51,1,2,1a.38.38,0,0,0,.36-.27l.42-1.6a1.61,1.61,0,0,0,0-1.08.74.74,0,0,0-.79-.37c-.54,0-1.09.16-1.63.24s-.32.74.1.73h.75a.38.38,0,0,0,0-.75Z" transform="translate(-810.66 -508.71)"/><path class="cls-16" d="M869.16,533.37a116.64,116.64,0,0,0-1.91,15.81A1.15,1.15,0,0,0,868,549a8.67,8.67,0,0,1,.26-3.36.67.67,0,0,1,.17-.36.75.75,0,0,1,.49-.15,19,19,0,0,1,2,0,19.73,19.73,0,0,0-.33,3.43c0,.1,0,.22.09.27a.32.32,0,0,0,.27,0l1.32-.39a139.84,139.84,0,0,0,1.18-17.11l-3.74,1.15a1.13,1.13,0,0,0-.6.34,1,1,0,0,0-.14.63l0,2" transform="translate(-810.66 -508.71)"/><path class="cls-16" d="M868.79,533.27a126.77,126.77,0,0,0-1.92,15.91.38.38,0,0,0,.47.36l.73-.19a.38.38,0,0,0,.28-.36c-.07-.88-.34-3.49,1.2-3.52.65,0,.51-.09.83.43s-.37,2.17-.09,3a.38.38,0,0,0,.36.28,5.49,5.49,0,0,0,1.69-.4.38.38,0,0,0,.28-.36,148.25,148.25,0,0,0,1.17-17.11.38.38,0,0,0-.47-.36c-1.05.32-3.71.64-4.47,1.55-.57.69-.31,2.16-.32,2.93a.38.38,0,0,0,.75,0,3,3,0,0,1,2.37-3.18c1.52-.32,1.15-.23,1.37,1,.32,1.87-.15,4.32-.27,6.19s-.29,3.8-.49,5.7c-.07.7.08,2.28-.52,2.75-1.31,1-.56-2.19-.49-2.66a.38.38,0,0,0-.36-.47c-.77,0-2.19-.28-2.81.35a4.21,4.21,0,0,0-.41,3.16c-.35-.71.22-2.92.29-3.74s.19-1.86.29-2.79c.33-2.76.76-5.51,1.27-8.24.08-.47-.64-.68-.73-.2Z" transform="translate(-810.66 -508.71)"/><path class="cls-16" d="M876.45,530.52c.06,6.06-1.61,12-2,18.05l3.26-.43a.79.79,0,0,0,.4-.13.83.83,0,0,0,.19-.4c.37-1.55.68-3.11,1-4.69l-2.09.42a.5.5,0,0,1-.27,0c-.28-.08-.27-.48-.21-.76a52.32,52.32,0,0,0,.82-11.93.84.84,0,0,0-.17-.63c-.17-.16-.52-.07-.5.15" transform="translate(-810.66 -508.71)"/><path class="cls-16" d="M876.07,530.52c0,6.08-1.54,12-2,18.05a.39.39,0,0,0,.38.38c1-.14,3.12,0,3.92-.68,1-.9,1-4,1.24-5.25a.38.38,0,0,0-.46-.46c-1,.2-1.7.52-1.92-.78a10.61,10.61,0,0,1,.3-1.91,48.41,48.41,0,0,0,.35-5.52c0-1,.77-4.43-.77-4.75a.36.36,0,0,0-.37.1l-.18.21c-.31.37.22.9.53.53-.25.3,0,2.53,0,3,0,.92,0,1.85-.06,2.77s-.1,1.84-.19,2.76a24.75,24.75,0,0,0-.58,3.58c.17,1.84,1.48,1.06,3,.75l-.47-.47c-.29,1.69-.47,5.76-3.21,5.21-1.53-.3-.25-4.65,0-6a76.55,76.55,0,0,0,1.21-11.5.38.38,0,0,0-.75,0Z" transform="translate(-810.66 -508.71)"/><path class="cls-16" d="M884.59,527.66l-2.17.58c-.92,6.47-1.56,13-1.91,19.52a22.66,22.66,0,0,1,4.93-.42l.59-4.61a.42.42,0,0,0,0-.33.44.44,0,0,0-.25-.14,14.81,14.81,0,0,0-2.37-.46l1.18-9.1a.44.44,0,0,1,.18-.36c.1-.06.24,0,.34-.08s.19-.27.2-.45l.18-3.51" transform="translate(-810.66 -508.71)"/><path class="cls-16" d="M884.49,527.3l-2.17.57a.37.37,0,0,0-.26.27q-1.37,9.76-1.93,19.62a.38.38,0,0,0,.48.36,25.27,25.27,0,0,1,4.83-.4.38.38,0,0,0,.37-.38c.16-1.19,1.18-4.17.45-5.2-.32-.45-1.2-.31-1.6-.51-1.07-.55-.72-1.3-.56-2.56a28.38,28.38,0,0,1,1.2-6.51,13.84,13.84,0,0,0,.53-4.26c0-.48-.73-.48-.75,0a12.09,12.09,0,0,1-.54,3.72,7.16,7.16,0,0,0-.36.68c-.75,2.88-.8,6.15-1.18,9.1,0,.22.19.36.37.38.41.05,2,.11,2.29.55.16.27-.2,1.52-.24,1.85-.19,1.5-.09,2.15-1.63,2.41a11.86,11.86,0,0,1-2.57.26c-.71-.52-.1-3.21-.05-3.9q.29-3.92.71-7.81c.14-1.3.3-2.6.46-3.9.27-2.13.26-3.06,2.35-3.62a.37.37,0,0,0-.2-.72Z" transform="translate(-810.66 -508.71)"/><path class="cls-18" d="M870,537.06a21.5,21.5,0,0,0-.79,4.61,5.25,5.25,0,0,0,2.4-.16,14.7,14.7,0,0,0,.43-4.43.25.25,0,0,0-.08-.21.46.46,0,0,0-.31-.09A4,4,0,0,0,870,537" transform="translate(-810.66 -508.71)"/><path class="cls-18" d="M869.64,537a23.57,23.57,0,0,0-.81,4.71.38.38,0,0,0,.38.37,6,6,0,0,0,2.5-.17.36.36,0,0,0,.26-.26,10.87,10.87,0,0,0,.43-4.63c-.26-1-1.82-.54-2.5-.32-.45.15-.26.87.2.72a4.2,4.2,0,0,1,.92-.2,2.66,2.66,0,0,1,.63,0l0,.31a5.27,5.27,0,0,1-.06,1.85c0,.48,0,1.46-.36,1.83s-1.6.21-2,.15l.37.38a23,23,0,0,1,.78-4.51.37.37,0,0,0-.72-.2Z" transform="translate(-810.66 -508.71)"/></svg>