<svg id="Calque_1" data-name="Calque 1" xmlns="http://www.w3.org/2000/svg" viewBox="0 0 406.27 238.17"><defs><style>.cls-1{fill:#c5c8b1;}.cls-2{fill:#cfaa8a;}.cls-3{fill:#b17f4a;}.cls-4{fill:#14092c;}.cls-5{opacity:0.33;}.cls-6{fill:#432918;}.cls-7{opacity:0.67;}.cls-8{fill:#1d1d1b;}.cls-9{opacity:0.44;}.cls-10{fill:#b4805b;}.cls-11{opacity:0.34;}.cls-12{fill:#622717;}</style></defs><title>42</title><polygon class="cls-1" points="392.51 228.78 14.61 228.78 9.41 13.78 396.83 7.97 392.51 228.78"/><path class="cls-2" d="M665,518.67a359.93,359.93,0,0,0,2.76,52.61c.18,1.47.76,3.31,2.24,3.4a3.22,3.22,0,0,0,1.76-.63c12.12-7.22,24.57-14.73,33-26.07,3.12-4.22,5.62-8.91,9.11-12.85s8.28-7.14,13.53-7.08a5.47,5.47,0,0,1,3.12.81c1.41,1,1.87,2.84,2.53,4.44a14.16,14.16,0,0,0,9.57,8.18,41.05,41.05,0,0,0,6.45.7,43.31,43.31,0,0,1,30.31,16.37,11.07,11.07,0,0,0-.94,5.52c.33,1.86,2,3.63,3.86,3.37,2.41-.35,3.22-3.38,3.47-5.8a5.64,5.64,0,0,0,9.39-5.37c-.65-2.75-3.26-4.74-3.81-7.51-.64-3.23,1.66-6.85,0-9.69-.88-1.52-2.61-2.27-4.24-2.93l-8-3.22a57.32,57.32,0,0,1,3,8.37,36.67,36.67,0,0,1-12.24-5.59,17.24,17.24,0,0,1,18.75,1.95c3.94,3.31,7.16,8.76,12.29,8.51-1.34,1.86-.73,4.59.77,6.33s3.66,2.72,5.75,3.65a5.8,5.8,0,0,0,5.17,9.7,9.65,9.65,0,0,0,0-6.76,8.83,8.83,0,0,0,10.14,7.56,14.24,14.24,0,0,1-2.87-10.59c.24-1.82.84-3.69.32-5.45a13.72,13.72,0,0,0-2.38-3.76,13,13,0,0,1-1.91-10.63c5.44,4.18,8.24,11.89,14.78,14,2.11.66,5.29-.29,4.92-2.47a4,4,0,0,0-.63-1.37l-12.71-20.1a15.57,15.57,0,0,0-3.38-4.18c-1.92-1.49-4.39-2-6.74-2.65a47.28,47.28,0,0,1-21.26-12.62,27.74,27.74,0,0,0-4-3.75c-5.78-4-13.53-1.44-20.53-1-17.06,1-33.59-11.55-50.18-7.48-7.51,1.84-13.78,6.87-20.82,10.05S680.9,509,673.92,512c-2.86,1.2-5.72,2.78-7.41,5.39" transform="translate(-650.34 -421.67)"/><path class="cls-2" d="M664.53,518.67c-.34,17.43,0,35.36,2.76,52.61.24,1.55.77,3.71,2.67,3.89a5.08,5.08,0,0,0,2.8-1.11c1.67-1,3.34-2,5-3a131.91,131.91,0,0,0,17.77-12.52c5.68-4.92,9.94-10.61,14.07-16.83,2.29-3.46,4.73-6.87,8-9.44,3.12-2.42,9.44-5.7,13.08-2.57,1.28,1.11,1.6,3.36,2.37,4.85a14.29,14.29,0,0,0,2.64,3.59,14.67,14.67,0,0,0,7.67,4c3.72.69,7.52.54,11.25,1.37A42.45,42.45,0,0,1,765,547.3a43.41,43.41,0,0,1,9.91,7c1.13,1.08,3.44,2.89,3.67,4.47.25,1.75-1,3.49-.61,5.39.47,2.27,2.66,4.43,5.1,3.55s2.94-3.93,3.21-6.11l-.85.35c2.62,2.17,6.58,2.32,8.89-.45,2.53-3,1.27-6.35-.66-9.27-1.82-2.75-2-4.77-1.5-8,.28-1.72.59-3.51-.2-5.14s-2.38-2.49-4-3.2c-2.86-1.26-5.8-2.35-8.69-3.52-.45-.18-.72.39-.56.74a62.07,62.07,0,0,1,3,8.25l.61-.61a38.37,38.37,0,0,1-12.11-5.54v.86a16.87,16.87,0,0,1,19.15,2.78c3.42,3.21,6.45,7.76,11.63,7.75l-.43-.76c-3,5.15,2.69,8.88,6.7,10.67l-.1-.79a6.37,6.37,0,0,0,5.52,10.56.51.51,0,0,0,.48-.37,10.82,10.82,0,0,0,0-7c-.16-.5-1.06-.46-1,.13a9.39,9.39,0,0,0,10.78,8,.49.49,0,0,0,.29-.73,14.34,14.34,0,0,1-2.91-7.93c-.12-2.52,1-5.05.5-7.55-.43-2.1-2.14-3.52-3.15-5.33a12.81,12.81,0,0,1-1.23-9.24l-.83.22c4.84,3.88,7.46,10.37,13.08,13.29,1.9,1,4.5,1.62,6.37.19,2.2-1.68.47-3.84-.66-5.63l-7.68-12.15c-2.08-3.29-3.95-7.38-6.84-10.06-2.67-2.48-6.54-2.88-9.86-4A46.84,46.84,0,0,1,799.22,513a60.12,60.12,0,0,1-9.61-8.27,13.83,13.83,0,0,0-8.23-4.23c-3.68-.49-7.41.16-11.06.61a43.52,43.52,0,0,1-12.17-.05c-14.54-2.24-29.13-11.28-44.08-6.44-8.74,2.82-16,8.84-24.75,11.76-4.6,1.53-9.32,2.7-13.85,4.43-3.61,1.39-7.1,3.06-9.4,6.29-.37.53.5,1,.87.51,2.38-3.37,6.32-5,10.08-6.31s7.51-2.34,11.27-3.54c6.71-2.14,12.5-5.54,18.66-8.88,6.65-3.59,13.35-5.3,20.9-4.36,7,.88,13.77,3.37,20.57,5.31,6.22,1.78,12.61,3.15,19.12,2.59,7.08-.61,15-3,20.81,2.46,2.36,2.22,4.47,4.6,7,6.6a47.55,47.55,0,0,0,8.6,5.36,50.77,50.77,0,0,0,8.82,3.26A18.25,18.25,0,0,1,818,522c1.84,1.17,3,3.09,4.12,4.88q3.85,6.08,7.68,12.15l3.71,5.86c.84,1.33,1.89,3.46.37,4.6a4,4,0,0,1-3,.17c-6.53-1.82-9.57-9.82-14.56-13.83a.51.51,0,0,0-.84.22,14.06,14.06,0,0,0,.17,7.34c.79,2.59,2.84,4.3,3.84,6.71,1.22,3-.5,6.72,0,9.94a15.29,15.29,0,0,0,2.9,6.83l.3-.73a8.39,8.39,0,0,1-9.51-7.08l-1,.14a10,10,0,0,1,.59,4.1c-.21,2.34-1.29,2.51-3.31,1.54a5.36,5.36,0,0,1-1.56-8.37.51.51,0,0,0-.1-.79c-3.46-1.54-9.07-4.66-6.35-9.29a.5.5,0,0,0-.43-.75c-6.46,0-9.78-7.79-15.11-10.46a18,18,0,0,0-16.18.07.5.5,0,0,0,0,.86A39.19,39.19,0,0,0,782,541.77a.5.5,0,0,0,.62-.61,63.08,63.08,0,0,0-3.1-8.5l-.56.74,5.32,2.15c1.89.76,4.2,1.34,5.74,2.74,3,2.7.17,7.1.78,10.47.48,2.68,2.76,4.46,3.62,7,1.76,5.1-4.27,8.92-8.34,5.55a.52.52,0,0,0-.86.36c-.2,1.62-.53,4.08-2.15,5-2.69,1.5-4.18-1.71-4.27-3.48a10.58,10.58,0,0,1,.7-3.56c.39-1.25.47-1-.29-2a37,37,0,0,0-3.66-4,44.16,44.16,0,0,0-14.43-9.15,43,43,0,0,0-8.9-2.42c-3.37-.53-6.94-.25-10.21-1.25a13.73,13.73,0,0,1-7.94-6.45c-1.23-2.23-1.55-5.26-4.18-6.37-5-2.11-11.32,1.81-14.77,5.08-5,4.75-8,11.19-12.28,16.52a76.84,76.84,0,0,1-15.82,14.24c-2.5,1.76-5.07,3.42-7.67,5-1.41.89-2.84,1.75-4.27,2.61-1.66,1-5.62,4.13-6.62.81a39.9,39.9,0,0,1-.89-6.83c-.25-2.26-.47-4.53-.68-6.8q-.57-6.31-.92-12.66-.75-13.65-.47-27.33a.5.5,0,0,0-1,0Z" transform="translate(-650.34 -421.67)"/><path class="cls-2" d="M1042.26,487.88c-22.46,14.21-51.07,13.38-76.23,22-5.09,1.74-10.11,3.88-15.46,4.45-2,.21-4,.2-6,.38-4.72.41-9.28,1.85-13.8,3.29L911.7,524c-4.34,1.37-8.68,2.75-13.13,3.71-17.72,3.79-37.21.91-53.2,9.43-1.27.67-2.69,1.8-2.39,3.2a3,3,0,0,0,1.33,1.71c5.08,3.73,12.15,2.79,18.19,1-.1-.4-.79,0-.66.36s.61.5,1,.55a18.38,18.38,0,0,0,11.78-2.61,15,15,0,0,0,15.31.82c-.72,4.48,4.76,7.13,9.16,8.25a43.79,43.79,0,0,0-17.27,10.72,4.81,4.81,0,0,0-1.76,3.26c.06,2,2.25,3.09,4.18,3.37s4.06.2,5.59,1.41a.86.86,0,1,0,.29,1.45c-3,2.3-4.37,6.25-4.44,10s1,7.49,2,11.13c.62,2.13,1.43,4.49,3.43,5.44s5-1.15,3.93-3.07c-.42,2.27,2.29,4.2,4.54,3.68s3.78-2.69,4.4-4.91.53-4.57.78-6.87a24.19,24.19,0,0,1,10.67-17.37l2.06.82c-5,5.82-2.78,14.77.28,21.82.59,1.35,1.38,2.84,2.81,3.17,1.83.42,3.49-1.44,3.78-3.3s-.3-3.73-.44-5.6c-.37-4.9,2.29-9.46,4.86-13.65a16.19,16.19,0,0,0,14.61-1.91,21.56,21.56,0,0,1,4.13-2.76,35,35,0,0,1,4.31-1c6.26-1.68,9.43-8.6,14.71-12.36s12.41-4.08,18.84-2.9,12.55,3.64,19,4.88c11.5,2.23,23.36.45,34.94-1.34,2.05-.32,4.27-.73,5.62-2.29,1.22-1.39,1.44-3.37,1.58-5.21a213.73,213.73,0,0,0-2-49.58" transform="translate(-650.34 -421.67)"/><path class="cls-2" d="M1042,487.45c-13.07,8.16-28.2,11.41-43.15,14.24-7.41,1.4-14.84,2.73-22.17,4.54-7.7,1.9-15,5.27-22.73,7-3.91.86-7.91.64-11.85,1.26a82.47,82.47,0,0,0-12.36,3.29c-8.23,2.61-16.42,5.38-24.71,7.79-15.33,4.46-31.35,3.09-46.83,6.5A52.57,52.57,0,0,0,846.62,536c-1.94.94-5.29,2.63-3.79,5.32,1.39,2.51,5.69,3.5,8.26,3.76a30.75,30.75,0,0,0,11.54-1.49.51.51,0,0,0,.12-.92l-.24-.16a.52.52,0,0,0-.51,0c-1.43.78-.2,1.79.85,2,3.11.67,7-.25,9.8-1.5.79-.35,1.45-1,2.37-.76a15,15,0,0,1,2.05,1,15.11,15.11,0,0,0,4,1,15.72,15.72,0,0,0,9.16-1.65l-.75-.43c-.53,5.21,5.39,7.62,9.53,8.73v-1c-6.55,2.24-13.5,6-18,11.41-1.44,1.72-2,3.87-.1,5.52,2.47,2.15,6.1,1,8.74,2.74l.25-.93c-2.5.13-1.67,3.42.55,2.38l-.61-.79c-6.77,5.63-4.6,15.38-2.22,22.63.73,2.23,2.16,5.21,4.94,5.05,2-.11,3.88-1.89,3.08-3.91a.5.5,0,0,0-1,.13,4.17,4.17,0,0,0,4.73,4.22c3.22-.36,4.95-3.74,5.46-6.58.84-4.66.63-9,2.79-13.38a23.87,23.87,0,0,1,3.71-5.47,21.57,21.57,0,0,1,2.44-2.34c1.44-1.18,2-1.28,3.69-.62l-.22-.83c-4.21,5.2-3.46,12-1.49,18,.75,2.28,1.67,6,3.85,7.37s4.38-.34,5.12-2.42a8.29,8.29,0,0,0,.16-3.87,17.5,17.5,0,0,1,.36-8,31.62,31.62,0,0,1,2.94-6.19c1.2-2,2.43-1,4.42-.77a16.74,16.74,0,0,0,9.85-2c1.54-.86,2.8-2.12,4.32-3,2.06-1.18,4.43-1.1,6.59-2,6.39-2.55,9.26-9.73,15.18-13,7.87-4.34,17.3-2,25.39.33,8.68,2.53,17,4.12,26.05,3.69,4.34-.2,8.64-.71,12.94-1.31,3.45-.49,7.92-.48,11-2.28s3.1-5.88,3.31-9.12q.52-8,.44-16.08a216,216,0,0,0-2.61-31.2c-.09-.63-1.06-.36-1,.27a215.43,215.43,0,0,1,2.51,38.73q-.12,4.88-.48,9.73a12.64,12.64,0,0,1-.83,4.65c-1,2-2.67,2.69-4.69,3.11a142.42,142.42,0,0,1-18.75,2.4,66.39,66.39,0,0,1-19.13-1.21c-5.89-1.33-11.56-3.54-17.53-4.56a29.27,29.27,0,0,0-13.89.56c-4.46,1.45-7.54,4.52-10.6,7.92a28.53,28.53,0,0,1-6,5.55c-2.45,1.49-5.26,1.34-7.77,2.53-2.9,1.38-4.92,3.72-8.1,4.68a15.93,15.93,0,0,1-9.89-.24.5.5,0,0,0-.56.23c-2,3.23-4,6.61-4.71,10.37a14.85,14.85,0,0,0-.1,4.61,12.62,12.62,0,0,1,.16,4.62c-.56,2.47-3.43,3.51-4.93.95C915.18,586,913,576,917.91,569.9a.51.51,0,0,0-.22-.83c-1.39-.55-1.87-1.11-3.08-.35a19.8,19.8,0,0,0-3.52,3,25,25,0,0,0-5,7.66,28.81,28.81,0,0,0-1.93,9.31c-.17,2.25-.34,4.64-1.69,6.55-1.77,2.51-7.12,3.28-6.84-1l-1,.13a2.2,2.2,0,0,1-1,2.34,2.88,2.88,0,0,1-3.11-.48,7.09,7.09,0,0,1-1.83-3.2,49.52,49.52,0,0,1-1.94-7.26c-1-5.27-.6-11.07,3.8-14.72.46-.39-.13-1-.61-.79l0-.51a.5.5,0,0,0,.25-.93c-1.78-1.18-3.7-1.12-5.73-1.49a5.31,5.31,0,0,1-2.37-.8c-1.61-1.27-1.37-2.72-.33-4.4a15.28,15.28,0,0,1,2.92-2.81,44.22,44.22,0,0,1,14.65-8.35.5.5,0,0,0,0-1c-3.7-1-9.27-3.06-8.79-7.77,0-.41-.45-.59-.76-.44a14.77,14.77,0,0,1-14.8-.81.47.47,0,0,0-.5,0,18.6,18.6,0,0,1-5.55,2.24,17.21,17.21,0,0,1-3.11.41c-.72,0-3,.26-3.47-.09l.12-.92a30.76,30.76,0,0,1-10.5,1.52,14.81,14.81,0,0,1-5.66-1.45,9.9,9.9,0,0,1-1-.57c-1.33-.86-1.17-.67-.68-2.48s1-2,2.6-2.78c6.88-3.32,14.52-4.67,22.06-5.45,7.12-.72,14.28-1,21.39-1.84a119,119,0,0,0,21.7-5.18c7.57-2.4,15.11-4.94,22.72-7.18A52.76,52.76,0,0,1,947.58,515a40.81,40.81,0,0,0,10.1-1.74c6.86-2.1,13.49-4.67,20.49-6.35,6.8-1.63,13.68-2.87,20.55-4.17,15.16-2.87,30.53-6.14,43.79-14.42.55-.34,0-1.2-.5-.86Z" transform="translate(-650.34 -421.67)"/><path class="cls-3" d="M656.38,430c.59-1,43.87-9.2,153.31-7.59,96.74,0,236.77.11,241.11,0,3.57,100.19,7.91,114,.5,228.09h-.5c-.59,1-43.88,9.2-153.31,7.59-96.74,0-236.77-.11-241.11,0l-1,1.3c-3.57-100.19-7.91-114.05-.5-228.1ZM668.82,441c-6.57,95.91,2.08,120.91,5.24,205.16h0a.11.11,0,0,0,.08.17c6.68-.1,128.22-.31,212.85-.34,96.93,1.36,151.58-1.71,152.1-2.56h0c6.57-95.91,3.17-124.7,0-209-3.84.1-124.29,0-210,0-96.94-1.35-159.78,5.68-160.3,6.53Z" transform="translate(-650.34 -421.67)"/><path class="cls-4" d="M656.81,430.22c-.18.26.26,0,.65-.14.71-.19,1.43-.34,2.15-.49,2.76-.56,5.55-1,8.34-1.36,11.21-1.56,22.52-2.49,33.81-3.24,44.48-3,89-2.11,133.59-2.11s88.83,0,133.25,0c26.72,0,53.45.11,80.17,0,.33,0,1.68-.23,2,0-.38-.28-.29,3.44-.27,3.83l.15,4.22c.13,3.24.25,6.47.38,9.71q.65,16,1.4,32c.78,17,1.63,34,2.1,51,1.11,40.7-.79,81.36-3.38,122-.06,1-.21,2-.18,2.94,0,.16.13,1.45.12,1.48.08-.2-.94.36-.62.17.07,0,0,0-.11,0-.52.17-1.06.31-1.59.43-2.31.53-4.65.89-7,1.25-10.24,1.54-20.59,2.46-30.92,3.22-43.62,3.23-87.3,2.49-131,2.49q-67.23,0-134.47,0c-28.4,0-56.79-.07-85.19,0-1,0-2,0-3,0-1.23.05-1.36.45-2.2,1.55l.93.26c-1.07-30-2.74-60.05-3.83-90.09q-1.41-39,.11-78.06.57-14.61,1.37-29.22.47-8.4,1-16.79c.19-3,.37-6,.56-9,.08-1.21-.25-3.61.29-4.67.21-.42,1-.88,1.37-1.2s-.22-1.13-.7-.71-1.36.94-1.63,1.59a14.2,14.2,0,0,0-.23,3.52c-.09,1.46-.19,2.91-.28,4.36-.33,5.35-.66,10.69-1,16q-.79,13.89-1.42,27.79c-.64,14.71-1.08,29.43-1.16,44.15-.14,25.18,1,50.32,2.15,75.45.87,19,1.71,37.89,2.39,56.85a.5.5,0,0,0,.93.25c.2-.26,1.22-1.29.59-1.05.05,0,.13,0,.18,0a2.76,2.76,0,0,1,.76,0c.82,0,1.65,0,2.46,0l9.32,0h32.44l100.71,0c38.12,0,76.25,0,114.38.2,33.28.16,66.66-.38,99.84-3.12,8.12-.68,16.23-1.47,24.29-2.64a62.91,62.91,0,0,0,9.83-1.87c.12,0,.23-.12.35-.15.56-.14-.31,0,.33,0a.51.51,0,0,0,.5-.5c2.13-32.92,4-65.9,4-98.91.05-24.55-1.08-49.06-2.21-73.58-.86-18.53-1.68-37.06-2.34-55.6a.51.51,0,0,0-.5-.5c-15.6.38-31.24.05-46.83,0l-100.59,0q-56.89,0-113.78-.2c-33-.14-66.05.41-98.93,3.13-8.07.66-16.15,1.46-24.17,2.61-2.24.33-4.48.67-6.7,1.11a12,12,0,0,0-3.21.76c-.25.14-.47.17-.64.41C655.58,430.24,656.44,430.74,656.81,430.22Z" transform="translate(-650.34 -421.67)"/><path class="cls-4" d="M668.32,441c-2,29.42-3,58.91-1.94,88.39.86,23.41,3,46.75,4.64,70.12q.79,11.28,1.42,22.57.36,6.32.64,12.65c.11,2.23.2,4.46.29,6.69.06,1.45-.31,3.84.34,5.16a.5.5,0,0,0,.43.25c26.53-.37,53.08-.16,79.61-.2,46.71-.08,93.45-.62,140.16,0,42.09.51,84.26.58,126.32-1.27,4.46-.2,8.91-.42,13.36-.74,1.43-.11,4.21.16,5.5-.59a1,1,0,0,0,.49-.42c.61-1,.27-3.88.35-5.05.12-1.92.25-3.83.37-5.75q.66-10.29,1.21-20.59,1-18.12,1.48-36.26c1.07-40.82-1-81.54-2.64-122.31q-.39-9.57-.76-19.13a.51.51,0,0,0-.5-.5c-13.78.32-27.61,0-41.4,0l-88.55,0c-34.09,0-68.19-.13-102.28-.18-32.3,0-64.63.75-96.87,2.79-9.44.59-18.87,1.29-28.28,2.22-2.77.27-5.55.56-8.32.91a19.93,19.93,0,0,0-4.21.64c-.23.08-.54.08-.72.29-.41.49.29,1.2.71.71-.1.11.87-.15,1.27-.22,1.25-.21,2.51-.36,3.77-.52,4.63-.56,9.28-1,13.93-1.41,17-1.48,34-2.43,50.94-3.12,49.55-2,99.17-1.13,148.75-1.12q62.28,0,124.57,0h23.05a11.39,11.39,0,0,1,3.14,0c.08,0,.33-.06.38,0-.36-.37-.28,2-.28,2.1q.19,5,.4,10.08.36,9,.74,17.95c.45,10.6.92,21.19,1.33,31.79,1.64,42,1.24,83.8-1.24,125.74-.2,3.37-.4,6.75-.62,10.12-.12,1.92-.25,3.83-.37,5.75,0,.66,0,4.41-.12,4.51a9.64,9.64,0,0,1-1.36.21c-3,.36-6,.5-9.06.67-13.6.77-27.22,1.13-40.83,1.42-47.7,1-95.4.15-143.1.2q-65.13,0-130.24.18-17.9,0-35.78.1a15.49,15.49,0,0,1-3.6,0c-.11,0-.43.08-.51,0a9.84,9.84,0,0,0,.13-2.26c-.13-3.35-.28-6.7-.43-10.06q-.81-17-2-34c-1.32-18.89-3-37.75-4-56.65q-1.69-31-.71-62.12c.41-13.26,1.12-26.5,2-39.74C669.36,440.39,668.36,440.39,668.32,441Z" transform="translate(-650.34 -421.67)"/><g class="cls-5"><path class="cls-6" d="M656.61,431.5c1,7.7,9.5,5,12.88,12.39,1.24,2.69-3.1,11.85-3.09,14.69.16,60,2.93,118.81,7.54,187.78,43.89.09,82.14-.09,126,0,39.06.08,78.19-.08,117.24,0,35.82.07,87.62,4.55,121.89-2.9-12.14,5.55-27.95,5.39-40.66,10.24-9,3.44-19.73,3.51-30,3.5-103.73-.16-208.36,1-312.09.86-1.45-36-2-73.26-3.47-109.23-1.25-31-2.5-62.08.75-93,1-9.15,1.43-15.21,3-24.32" transform="translate(-650.34 -421.67)"/><path class="cls-6" d="M656.13,431.63c.82,4.93,4.73,5.83,8.57,8,2.54,1.42,4.84,3.73,4.41,6.83a45,45,0,0,1-2,7.18c-1.85,5.82-1.18,11.88-1.13,17.93q.1,11.44.33,22.9c.62,31.52,1.92,63,3.63,94.5q1.56,28.72,3.51,57.42a.51.51,0,0,0,.5.5q76.42.15,152.84,0c26.5,0,53-.06,79.5,0,21.4,0,42.76.88,64.15,1.27,22.86.43,46.33.65,68.8-4.17l-.39-.91c-8,3.57-16.83,4.71-25.39,6.3a102.29,102.29,0,0,0-12.11,2.83c-4.24,1.34-8.27,2.83-12.69,3.52-9.59,1.48-19.44,1-29.1,1q-15.37,0-30.76,0-60.91.07-121.84.45-61.16.3-122.3.42H662.33c-1.3,0-2.68.12-4,0-1.71-.17-1.53-.69-1.6-2.39q-.57-14.83-1-29.67c-.6-20.07-1.08-40.14-1.75-60.21s-1.75-40.33-1.91-60.52a516.3,516.3,0,0,1,3.13-59.49c.5-4.57,1.11-9.12,1.86-13.65.1-.63-.86-.9-1-.27-4.74,28.62-5.51,57.84-4.79,86.78.73,29.75,2.09,59.48,2.91,89.23.47,16.9,1,33.8,1.63,50.69a.51.51,0,0,0,.5.5c52,.07,104-.18,156-.43,51.68-.25,103.37-.5,155.05-.44a148.07,148.07,0,0,0,20-.84c6-.8,11.45-3.09,17.29-4.62,11.47-3,23.65-3.46,34.6-8.34.54-.24.14-1-.39-.91-16.74,3.59-34.06,4.19-51.13,4.27-18,.09-36-.67-54-1.13-19.79-.5-39.59-.29-59.38-.27q-33,0-66.09,0c-42.18,0-84.36.06-126.54,0-1.49,0-6.62.77-7.48-.5-.48-.71-.21-3.11-.26-4l-.33-4.92q-.52-8-1-16-1-15.53-1.82-31.07-1.62-29.85-2.69-59.72-1-28.62-1.28-57.27c0-4.64-.5-9.51-.07-14.13.27-2.94,1.69-5.85,2.49-8.68.6-2.14,1.32-4.49.22-6.56-1.36-2.57-3.73-4-6.28-5.22-3.1-1.44-5.63-2.76-6.24-6.46-.11-.63-1.07-.36-1,.27Z" transform="translate(-650.34 -421.67)"/></g><path class="cls-4" d="M657.57,430.22c-.19.26.25,0,.64-.14.72-.19,1.44-.34,2.16-.49,2.76-.56,5.55-1,8.34-1.36,11.21-1.56,22.52-2.49,33.81-3.24,44.48-3,89-2.11,133.58-2.11s88.84,0,133.26,0c26.72,0,53.44.11,80.16,0,.34,0,1.69-.23,2,0-.37-.28-.28,3.44-.27,3.83,0,1.4.11,2.81.16,4.22.12,3.24.25,6.47.38,9.71q.64,16,1.39,32c.79,17,1.64,34,2.1,51,1.12,40.7-.79,81.36-3.37,122-.06,1-.21,2-.19,2.94,0,.16.14,1.45.12,1.48.08-.2-.93.36-.61.17.07,0,0,0-.12,0-.52.17-1,.31-1.59.43-2.3.53-4.64.89-7,1.25-10.25,1.54-20.6,2.46-30.93,3.22-43.61,3.23-87.29,2.49-131,2.49q-67.24,0-134.48,0c-28.39,0-56.79-.07-85.18,0-1,0-2,0-3,0-1.23.05-1.36.45-2.21,1.55l.94.26c-1.08-30-2.75-60.05-3.83-90.09q-1.43-39,.11-78.06.55-14.61,1.37-29.22.45-8.4,1-16.79c.18-3,.37-6,.56-9,.08-1.21-.26-3.61.28-4.67.22-.42,1-.88,1.38-1.2s-.22-1.13-.71-.71-1.35.94-1.62,1.59c-.36.84-.18,2.62-.24,3.52l-.27,4.36q-.51,8-1,16-.79,13.89-1.41,27.79c-.64,14.71-1.08,29.43-1.16,44.15-.14,25.18,1,50.32,2.14,75.45.88,19,1.72,37.89,2.4,56.85a.5.5,0,0,0,.93.25c.2-.26,1.22-1.29.59-1.05.05,0,.12,0,.18,0a2.76,2.76,0,0,1,.76,0c.82,0,1.64,0,2.46,0l9.32,0h32.43l100.71,0c38.13,0,76.26,0,114.39.2,33.28.16,66.66-.38,99.84-3.12,8.11-.68,16.23-1.47,24.29-2.64a63.13,63.13,0,0,0,9.83-1.87c.12,0,.23-.12.34-.15.57-.14-.31,0,.33,0a.5.5,0,0,0,.5-.5c2.14-32.92,4-65.9,4.06-98.91.05-24.55-1.08-49.06-2.22-73.58-.86-18.53-1.67-37.06-2.33-55.6a.51.51,0,0,0-.5-.5c-15.6.38-31.24.05-46.84,0q-50.29,0-100.58,0-56.89,0-113.79-.2c-33-.14-66,.41-98.92,3.13-8.08.66-16.15,1.46-24.17,2.61-2.24.33-4.48.67-6.71,1.11a12.05,12.05,0,0,0-3.2.76c-.25.14-.47.17-.65.41C656.33,430.24,657.2,430.74,657.57,430.22Z" transform="translate(-650.34 -421.67)"/><path class="cls-4" d="M668.32,441c-2,29.23-3,58.53-2,87.82.81,23.09,2.87,46.11,4.49,69.15q1.69,24.16,2.64,48.36a.51.51,0,0,0,.5.5c25.6-.58,51.26-.15,76.86-.2q34.51-.06,69-.09c23.38,0,46.78-.32,70.15,0,43.15.57,86.39.68,129.51-1.19,4.54-.2,9.07-.42,13.6-.74,1.59-.11,4.48.18,5.94-.6.15-.08.3-.09.43-.22.56-.56.29-2.57.34-3.32.14-1.93.26-3.87.39-5.8q.71-10.82,1.29-21.64,1-17.85,1.48-35.7c1.14-41.29-.9-82.48-2.6-123.72q-.39-9.57-.76-19.13a.51.51,0,0,0-.5-.5c-13.78.32-27.61,0-41.4,0l-88.55,0c-34.09,0-68.19-.13-102.28-.18-32.3,0-64.63.75-96.87,2.79-9.44.59-18.87,1.29-28.28,2.22-2.77.27-5.55.56-8.32.91a19.93,19.93,0,0,0-4.21.64c-.23.08-.54.08-.72.29-.41.49.29,1.2.71.71-.1.11.88-.15,1.27-.22,1.25-.21,2.51-.36,3.77-.52,4.63-.56,9.28-1,13.93-1.41,17-1.48,34-2.43,50.94-3.12,49.81-2,99.69-1.13,149.53-1.12q62.13,0,124.26,0h22.95c.72,0,2.25-.3,2.92,0,.07,0,.26-.05.32,0-.51-.45-.37,2.09-.37,2.1,0,.57,0,1.15.07,1.72l.39,10q.36,8.91.74,17.81c.45,10.53.91,21.06,1.32,31.59,1.64,42.45,1.12,84.75-1.45,127.16-.2,3.42-.42,6.84-.64,10.27-.13,1.93-.34,3.88-.39,5.83,0,.21-.18,1.76.1,1.56a4.58,4.58,0,0,1-1.73.26c-3.18.34-6.38.5-9.57.68-13.92.76-27.86,1.12-41.8,1.4-48,1-96.09.13-144.13.17q-64.51.06-129,.18-17.43,0-34.86.1a13.1,13.1,0,0,1-3.19,0c-.08,0-.34.06-.4,0,.17.15.22-.92.27-1.24a28.39,28.39,0,0,0-.21-5.12c-.07-1.66-.14-3.32-.22-5q-.8-17.1-2-34.16c-1.3-18.93-3-37.84-4-56.79q-1.69-31.17-.71-62.39c.41-13.4,1.14-26.78,2.05-40.15C669.36,440.39,668.36,440.39,668.32,441Z" transform="translate(-650.34 -421.67)"/><g class="cls-7"><path class="cls-8" d="M839.87,434.88a47.16,47.16,0,0,0-9.92,8.05c-1.59,1.7-3.13,4.2-1.92,6.19.92,1.51,3.08,1.95,3.92,3.5,1.23,2.26-1.1,4.8-3.3,6.12s-4.91,3-4.73,5.56c.09,1.2.85,2.3.8,3.51a5.42,5.42,0,0,1-1,2.53,95,95,0,0,1-7.29,10.76,62.52,62.52,0,0,0-4.3,5.35A19.15,19.15,0,0,0,810,502.8C808,494.32,813.49,486,818.71,479l6.28-8.41c1.5-2,3.09-4.28,2.87-6.79a12.76,12.76,0,0,1-.2-1.94c.28-3.87,7.63-4.69,7-8.52-.28-1.7-2.12-2.65-2.92-4.18-1.41-2.71.93-5.87,3.39-7.7s5.46-3.64,5.93-6.66a4.35,4.35,0,0,1-3.15-.56" transform="translate(-650.34 -421.67)"/><path class="cls-8" d="M839.61,434.45a49.55,49.55,0,0,0-8.82,6.9c-1.78,1.76-4.38,4.42-3.55,7.22a4.5,4.5,0,0,0,2,2.34c1.65,1.2,3.31,2.17,2.14,4.57a7.48,7.48,0,0,1-2.34,2.44c-2,1.39-4.71,2.5-5.43,5-.37,1.31.17,2.29.43,3.57.52,2.54-1.39,4.68-2.67,6.72a115.48,115.48,0,0,1-8,10.78,20.14,20.14,0,0,0-3.74,18.9.5.5,0,0,0,1-.26c-1.9-8.79,3.64-16.69,8.61-23.39,2.57-3.46,5.52-6.82,7.74-10.51a9.41,9.41,0,0,0,1.43-3.71c.22-1.8-.6-3.46.76-5,2.22-2.5,8.47-4.27,5.18-8.62-1.29-1.69-3-2.92-2.21-5.36.72-2.21,2.71-3.69,4.49-5,2.22-1.65,4.37-3.3,5-6.12.06-.29-.15-.67-.49-.63a4,4,0,0,1-2.9-.49c-.57-.28-1.08.58-.5.87a5.62,5.62,0,0,0,3.4.62l-.48-.64c-1.15,5.1-12.56,8.27-9.27,14.75.76,1.5,2.91,2.54,2.89,4.37,0,1.53-1.61,2.48-2.73,3.23-1.56,1-3.58,2.12-4.15,4.06-.49,1.67.3,3.29-.25,5-.68,2.16-2.32,4-3.64,5.78-2.57,3.43-5.22,6.83-7.66,10.36-4.2,6.08-7.84,13.09-6.2,20.67l1-.26a19,19,0,0,1,0-11.71c1.3-3.91,4-6.72,6.55-9.86a87.48,87.48,0,0,0,6.11-8.93c.73-1.19,1.75-2.47,2-3.89s-.43-2.18-.63-3.4c-.83-5.22,11-6.75,7.86-12.51a7.1,7.1,0,0,0-2.39-2.13c-3.26-2.38-1.24-5.36.9-7.58a47.8,47.8,0,0,1,9.23-7.35c.54-.34,0-1.2-.51-.86Z" transform="translate(-650.34 -421.67)"/></g><g class="cls-9"><path class="cls-10" d="M733.71,533.55a16.29,16.29,0,0,0,4.15,5.75,9.89,9.89,0,0,0,6.54,2.48c1.44,0,2.85-.45,4.29-.52a9.2,9.2,0,0,0,3.15-.35,5.68,5.68,0,0,1-1-7A4.21,4.21,0,0,1,748.1,536a12.48,12.48,0,0,1-3.51.3c-3.78,0-8-.24-10.61-2.95-.09-.09-.18-.22-.12-.33s.28.05.16.1" transform="translate(-650.34 -421.67)"/><path class="cls-10" d="M733.28,533.81c1.55,3.21,3.76,6.22,7.14,7.66a9.76,9.76,0,0,0,5,.73,36.08,36.08,0,0,0,6.57-.8.5.5,0,0,0,.22-.84,5.31,5.31,0,0,1-.93-6.39.5.5,0,0,0-.87-.5c-1.71,2.75-5.85,2.25-8.68,2-1.93-.15-6.58-.6-7.37-2.82l-.48.63-.32-.27c.1.64,1.06.37,1-.26l0-.11a.49.49,0,0,0-.48-.37h-.15c-.3,0-.6.31-.48.63.94,2.68,5.6,3.33,8,3.53,3.37.28,7.86.78,9.91-2.51l-.87-.5a6.34,6.34,0,0,0,1.1,7.6l.22-.84a31.41,31.41,0,0,1-4.44.49,12.14,12.14,0,0,1-5.84-.12c-3.51-1.18-5.76-4.32-7.29-7.5-.28-.58-1.14-.07-.86.51Z" transform="translate(-650.34 -421.67)"/></g><g class="cls-9"><path class="cls-10" d="M762.37,523.13c0-1,1.16-1.64,2.17-1.86,5.33-1.15,11,1.2,16.26-.38-.1,2-1.88,3.5-3.52,4.69-2.58,1.85-5.3,3.71-8.42,4.29a1.3,1.3,0,0,1-.62,0,1.46,1.46,0,0,1-.74-.8,18.87,18.87,0,0,0-6.06-6.65" transform="translate(-650.34 -421.67)"/><path class="cls-10" d="M762.85,523.26c.61-3,7.77-1.7,9.86-1.52a23.88,23.88,0,0,0,8.22-.36l-.61-.62c-.34,2.33-2.22,3.62-4,4.89s-4.16,3.14-6.34,3.43c-2.43.31-2.88-1.83-4.22-3.42a20.82,20.82,0,0,0-4.07-3.66c-.52-.38-1,.49-.5.86a19.87,19.87,0,0,1,3.6,3.19c1,1.1,1.56,2.76,2.58,3.76s2.84.31,4.15-.22c3.4-1.35,9.18-4.48,9.76-8.56a.51.51,0,0,0-.62-.62c-4.24,1.11-8.42,0-12.71,0-2.05,0-5.54,0-6.06,2.56-.13.62.83.89,1,.26Z" transform="translate(-650.34 -421.67)"/></g><g class="cls-9"><path class="cls-10" d="M727.3,499.79c.5,2.33,2.51,4,4.59,5.21s4.38,2,6.22,3.5c2.62,2.15,4,5.42,6.18,8a17.41,17.41,0,0,0,14.85,6.13c-7.12-4.7-13.45-11.93-13.68-20.46a3.57,3.57,0,0,0-.26-1.56,3.15,3.15,0,0,0-2.43-1.29,51.54,51.54,0,0,0-14.62-.47" transform="translate(-650.34 -421.67)"/><path class="cls-10" d="M726.82,499.92c.89,3.14,3.46,4.84,6.23,6.25a21.58,21.58,0,0,1,5.29,3.2,28.19,28.19,0,0,1,3.9,5.19c3.86,5.73,9.9,9.11,16.9,8.59a.5.5,0,0,0,.26-.93c-6.74-4.53-12.88-11.18-13.42-19.66-.21-3.24-1.89-3.57-4.89-4a53.35,53.35,0,0,0-12.94-.2c-.63.07-.64,1.07,0,1a51.89,51.89,0,0,1,13.58.3c1.83.3,2.75.28,3.23,2.52.15.71.09,1.5.2,2.22a19.51,19.51,0,0,0,1.18,4.39c2.4,6,7.25,10.72,12.55,14.29l.25-.94a17.23,17.23,0,0,1-10-2.18c-3.33-1.91-5.28-4.78-7.37-7.88a16.4,16.4,0,0,0-5.76-5.53c-3.2-1.75-7.16-3-8.26-6.91a.5.5,0,0,0-1,.27Z" transform="translate(-650.34 -421.67)"/></g><g class="cls-9"><path class="cls-10" d="M711.74,511.25c-2.91-3.08-8.07-2.18-11.78-.15s-7.09,5-11.28,5.64c2.28-.34,3.88,2.63,3.2,4.84s-2.67,3.7-4.48,5.13a75.22,75.22,0,0,0-16.64,18.14,7.07,7.07,0,0,0-1.21,2.61,7.29,7.29,0,0,0,.09,2.28l1,6.57c8.64-5.82,15.32-14,22.42-21.66s15.08-15,25-18.17a17.6,17.6,0,0,1-6.42-5.25" transform="translate(-650.34 -421.67)"/><path class="cls-10" d="M712.09,510.9c-7.34-7-16.41,4-23.54,5.36-.56.1-.43,1,.13,1a3,3,0,0,1,2.86,3.19,5.75,5.75,0,0,1-2.1,3.93c-1.35,1.32-2.94,2.39-4.38,3.61a75.06,75.06,0,0,0-8.78,8.69c-2.36,2.75-5.14,5.88-6.7,9.19-1.47,3.12.08,7.38.55,10.59a.5.5,0,0,0,.73.3c17-11.67,26.94-32.93,47.3-39.78a.52.52,0,0,0,.12-.92,18.55,18.55,0,0,1-6.33-5.17c-.4-.5-1.1.21-.71.71a19.38,19.38,0,0,0,6.53,5.33l.12-.92c-20.52,6.91-30.4,28.14-47.53,39.89l.73.29c-.4-2.73-1.49-6.18-.87-8.88.53-2.32,2.49-4.5,3.91-6.38a75.29,75.29,0,0,1,10.66-11.41c2.61-2.26,7.2-4.61,7.71-8.42.32-2.39-1.28-4.92-3.82-4.84l.13,1c6.71-1.24,15.83-12,22.57-5.62.47.45,1.18-.26.71-.7Z" transform="translate(-650.34 -421.67)"/></g><g class="cls-9"><path class="cls-10" d="M812.71,520.25c-.62,1.89.79,3.88,2.43,5s3.61,1.83,5,3.26,2.08,3.55,3,5.43a20,20,0,0,0,6.94,8q-3.12-7.23-6.77-14.21a15,15,0,0,0-2.08-3.24c-2-2.22-5.13-3.06-8.05-3.81" transform="translate(-650.34 -421.67)"/><path class="cls-10" d="M812.23,520.11c-1.11,5.56,6.35,6.48,8.63,10.22,1.42,2.32,2.16,4.93,3.8,7.15a21.74,21.74,0,0,0,5.14,4.9c.46.32.86-.28.69-.68a157.78,157.78,0,0,0-7.32-15.23c-2.19-3.86-5.75-5.2-9.87-6.26a.5.5,0,0,0-.27,1,19.65,19.65,0,0,1,6.22,2.33c2.09,1.38,3.14,3.56,4.25,5.72q3.29,6.38,6.12,13l.69-.68a20.24,20.24,0,0,1-5.23-5.17,52.71,52.71,0,0,1-3-5.85,9.24,9.24,0,0,0-3.15-3.56c-2.35-1.56-6.49-2.88-5.76-6.56.13-.63-.83-.9-1-.27Z" transform="translate(-650.34 -421.67)"/></g><g class="cls-9"><path class="cls-10" d="M951.77,528.2c-1.19,1.17-1.34,3-1.1,4.7a24.71,24.71,0,0,1,.65,5c-.24,3.44-3.14,6.24-3.43,9.67a9.21,9.21,0,0,0,6.79-2c2-1.41,3.6-3.23,5.46-4.79a50,50,0,0,1,6.77-4.54c4.84-2.88,10-5.84,15.61-5.89,2.41,0,4.93.49,7.15-.44a5.91,5.91,0,0,0-2.75-11.35c-1.85.15-3.52,1.15-5.33,1.53a11.31,11.31,0,0,1-7.13-1.18,4.14,4.14,0,0,0-2.18-.63,3.67,3.67,0,0,0-1.63.77c-6.12,4.28-12.44,9.23-19.9,9.5" transform="translate(-650.34 -421.67)"/><path class="cls-10" d="M951.42,527.84c-2.14,2.59-1,5.42-.69,8.43.44,4.15-2.78,7.17-3.32,11.13a.51.51,0,0,0,.48.63c3.23.37,6-1.09,8.41-3.11,3.2-2.69,6.08-5.38,9.7-7.56s7.27-4.43,11.31-5.67a19.45,19.45,0,0,1,6-.84,22.25,22.25,0,0,0,5.35-.12c4.9-1.12,6.89-7.47,3.05-11-2.09-1.9-4.66-2-7.24-1.17-2.07.69-3.81,1.35-6.06,1-1.89-.28-3.49-1.53-5.32-1.8-1.53-.23-2.53.66-3.72,1.5-1.72,1.21-3.44,2.44-5.2,3.58-4.1,2.66-8.48,4.84-13.43,5.13-.64,0-.65,1,0,1a24.87,24.87,0,0,0,10.34-3.12,54.53,54.53,0,0,0,5-3.08c1.64-1.11,3.48-3,5.32-3.71s5,1.22,6.81,1.5a10.08,10.08,0,0,0,4.27-.26c2.58-.71,4.84-2.12,7.5-.62a5.32,5.32,0,0,1,2.52,6.32c-1.82,5.47-8.22,3.34-12.49,4a29.56,29.56,0,0,0-9.67,3.62,64.89,64.89,0,0,0-10.57,6.75c-3.55,3-6.73,7.2-11.89,6.61l.48.63c.43-3.12,2.58-5.55,3.26-8.58.76-3.44-2-7.54.49-10.53.41-.49-.29-1.2-.7-.71Z" transform="translate(-650.34 -421.67)"/></g><g class="cls-9"><path class="cls-10" d="M926,543.79c-1.81-.3-3.56.76-5,1.89-4.36,3.36-8,7.61-12.26,11.06s-9.65,6.13-15.11,5.48a13.12,13.12,0,0,1,1.21,6.44c2.82-3.74,7.73-5,12-6.9,3.17-1.36,6.16-3.12,9.35-4.43a71.83,71.83,0,0,1,13.43-3.56,5.84,5.84,0,0,1-4-6.08c.19-1.69,1.12-3.54.2-5" transform="translate(-650.34 -421.67)"/><path class="cls-10" d="M926,543.29c-2.56-.17-4.49,1.29-6.39,2.85-2.58,2.11-4.91,4.5-7.34,6.79-5.12,4.85-11.22,9.45-18.66,8.79-.42,0-.57.45-.44.76a13.8,13.8,0,0,1,1.15,6.18.51.51,0,0,0,.86.35c3.65-4.52,9.89-5.74,14.9-8.21a68.26,68.26,0,0,1,9.74-4.23,98.85,98.85,0,0,1,9.94-2.32c.53-.1.41-.8,0-1-3.13-1.19-3.86-3.92-3.32-6.94.25-1.46.49-2.5-.14-3.88-.27-.59-1.13-.08-.87.5,1.06,2.33-.83,5,.14,7.53a6.49,6.49,0,0,0,3.92,3.75v-1a89,89,0,0,0-10.81,2.6,72.41,72.41,0,0,0-9.1,4c-5.09,2.51-11.39,3.78-15.11,8.38l.85.35a15.07,15.07,0,0,0-1.28-6.69l-.43.75c5.77.51,11-2.1,15.47-5.63,2.49-2,4.73-4.27,7-6.47,2.56-2.45,6-6.58,9.88-6.33.64,0,.64-1,0-1Z" transform="translate(-650.34 -421.67)"/></g><g class="cls-9"><path class="cls-10" d="M980.47,540c2.54,1.7,5.9,1.1,8.92,1.55,2.46.37,4.74,1.46,7.15,2.1,14.58,3.91,29.78-9.08,44.36-5.16.55-6,1.38-12,2.5-17.91-9.2,6.56-18.89,13.32-30.08,14.89-5.81.81-11.7.17-17.56.31s-12,1.19-16.56,4.85" transform="translate(-650.34 -421.67)"/><path class="cls-10" d="M980.22,540.39a12.76,12.76,0,0,0,6.08,1.4,34,34,0,0,1,8.91,2,27.93,27.93,0,0,0,14,.38c10.4-2.06,20.76-7.89,31.58-5.19a.5.5,0,0,0,.63-.48q.84-8.94,2.49-17.78c.07-.38-.35-.84-.74-.56-9.56,6.81-19.73,13.93-31.77,15-10.87,1-23-2.15-32.43,5-.51.38,0,1.25.5.86,10.07-7.66,23.31-3.34,34.83-5.23,11-1.82,20.47-8.47,29.38-14.82l-.74-.56q-1.67,9-2.52,18l.64-.48c-9.73-2.43-19.15,1.87-28.41,4.31-5.07,1.34-10.42,2.23-15.6.94-2.55-.63-5-1.81-7.57-2.2-3-.44-6,.08-8.74-1.5a.5.5,0,0,0-.5.87Z" transform="translate(-650.34 -421.67)"/></g><g class="cls-11"><path class="cls-12" d="M1041.27,539.66c-6.12-2.24-12.94-.94-19.2.89s-12.54,4.18-19.06,4c-4.49-.14-8.84-1.48-13.23-2.48a54.82,54.82,0,0,0-19.46-1.34,31.27,31.27,0,0,0-17.56,8c-3.33,3.21-6,7.49-10.44,8.9-3.25,1-6.77.28-10-.72-2.42-.74-5.41-1.49-7.19.32A20.6,20.6,0,0,0,935.82,572a45.55,45.55,0,0,1-6.45-11.3l20.19,5.7a7.54,7.54,0,0,0,2.73.43,7.26,7.26,0,0,0,3.8-2,63.27,63.27,0,0,0,7.62-7.56c2.43-2.85,4.85-6.1,8.45-7.16,2.66-.78,5.5-.22,8.2.41q5,1.15,9.94,2.57c3.38,1,6.74,2,10.17,2.86a74.92,74.92,0,0,0,40.6-1.66,2.61,2.61,0,0,0,1.39-.83,2.53,2.53,0,0,0,.3-1.49,32.51,32.51,0,0,0-2.22-11.36" transform="translate(-650.34 -421.67)"/><path class="cls-12" d="M1041.4,539.18c-8-2.72-16.18-.11-23.94,2.24-4.54,1.37-9.19,2.68-14,2.62-4.63,0-9.08-1.45-13.56-2.47-8-1.83-16.52-2.56-24.55-.35a31.18,31.18,0,0,0-10,4.72c-2.87,2.08-5,4.78-7.47,7.29-4,4-8.32,5.08-13.78,3.66-3.08-.8-6.54-2.36-9.32,0a.52.52,0,0,0-.13.49,21.44,21.44,0,0,0,10.94,15c.4.21,1-.26.69-.69a48.13,48.13,0,0,1-6.4-11.19l-.61.62,14.9,4.21c3.61,1,7.59,3.11,11.05.77a47.86,47.86,0,0,0,9.11-8.82c3.14-3.7,6.15-7.33,11.48-7.08,4.94.22,10.13,2.08,14.85,3.45a138.43,138.43,0,0,0,14.18,3.65,75.75,75.75,0,0,0,26.65-.12,72.8,72.8,0,0,0,7.56-1.79c1.14-.34,3.12-.62,3.87-1.74.93-1.38.3-3.92.11-5.44a34.94,34.94,0,0,0-2-7.79c-.22-.6-1.19-.34-1,.27a34.87,34.87,0,0,1,1.7,6c.2,1.13.34,2.28.43,3.42a3.48,3.48,0,0,1-2.13,3.91,28.74,28.74,0,0,1-6.18,1.65c-2.34.51-4.7.92-7.08,1.21a74.52,74.52,0,0,1-26.2-1.49c-4.33-1-8.57-2.44-12.87-3.6-3.85-1-7.93-2.39-12-2.6-7.58-.41-11.37,6.92-16.08,11.59a28.32,28.32,0,0,1-5.64,4.85c-2.62,1.46-6.47-.37-9.17-1.14l-15.39-4.34c-.33-.1-.76.25-.61.61a49.51,49.51,0,0,0,6.49,11.43l.69-.69a20.51,20.51,0,0,1-8.77-9,20.07,20.07,0,0,1-1.24-3.26,5,5,0,0,1-.34-1.41c.14-.61,1.31-1,1.8-1.13,2.21-.53,5,.9,7.12,1.39,3.61.84,7.31.81,10.51-1.24,3-2,5.16-5,7.7-7.49,7-6.92,17.22-9,26.77-8.35s18.58,5.07,28.14,3.78c11.12-1.48,22-8.47,33.38-4.61.61.2.87-.76.26-1Z" transform="translate(-650.34 -421.67)"/></g><g class="cls-11"><path class="cls-12" d="M844.77,543c2.29,1.74,5.34,2.14,8.21,2s5.72-.72,8.6-.71c3.64,0,7.61.91,10.7-1a6.78,6.78,0,0,1,2.18-1.2,4.37,4.37,0,0,1,2,.22c3.51,1,7.35,2.42,10.64.85a2.09,2.09,0,0,1,1.35-.34c.49.12.77.62,1,1.06a10.59,10.59,0,0,0,6,5.09,6.88,6.88,0,0,0,7.28-2l-6.49-3.73a20,20,0,0,0-5.73-2.54c-3.65-.78-7.43.52-11.15.31-2.36-.13-4.66-.87-7-1a28.73,28.73,0,0,0-6.58.73,166.85,166.85,0,0,1-20.65,2.44,1.12,1.12,0,0,1,.32-1.38" transform="translate(-650.34 -421.67)"/><path class="cls-12" d="M844.52,543.4c5.19,3.57,11.28,1.36,17.06,1.37,2.65,0,5.36.5,8,0a10.74,10.74,0,0,0,3.47-1.45c2-1.13,3.34-.55,5.35,0,2.47.7,5.15,1.37,7.7.67,1.83-.5,2.58-.31,3.75,1.31a12.11,12.11,0,0,0,2.13,2.28c3.29,2.69,8.15,3,11.1-.37a.51.51,0,0,0-.1-.79c-4-2.27-8.22-5.63-12.79-6.4a24.16,24.16,0,0,0-6.63.16,30,30,0,0,1-8.45-.43c-4.52-.77-8.76.33-13.21,1-2.92.46-5.84.85-8.78,1.15-1.25.13-2.51.25-3.77.35l-1.88.15c-.09,0-2.19.22-1.69-.39s-.29-1.2-.7-.7a1.8,1.8,0,0,0-.46,1.87.5.5,0,0,0,.49.36c4.76-.28,9.52-.74,14.25-1.41,5.12-.72,10.3-2.31,15.48-1.46a29.81,29.81,0,0,0,6.38.68c2.19-.1,4.35-.57,6.53-.56,5.38,0,10.23,3.87,14.72,6.45l-.1-.78a6.7,6.7,0,0,1-8.34,1.26,10.12,10.12,0,0,1-3.52-3.27,7.26,7.26,0,0,0-1.26-1.86c-1.47-1.1-3.68.63-5.29.66-3,.06-5.51-1.39-8.35-1.75-2-.25-3.07,1.21-4.84,1.86-2.54.94-5.38.47-8,.37-5.89-.23-12.44,2.38-17.73-1.26-.54-.37-1,.5-.51.86Z" transform="translate(-650.34 -421.67)"/></g><g class="cls-11"><path class="cls-12" d="M905.68,537.64c.34,3.4,2.5,6.52,2.31,9.93a64.18,64.18,0,0,1,4.34-6.68c1.59-2.06,3.53-4.16,3.65-6.76a33.9,33.9,0,0,1-10.87,3.12" transform="translate(-650.34 -421.67)"/><path class="cls-12" d="M905.19,537.77c.47,3.36,2.32,6.37,2.3,9.8a.51.51,0,0,0,.94.25,79.35,79.35,0,0,1,5.48-8.14,11,11,0,0,0,2.57-5.55c0-.42-.45-.57-.76-.43a35.3,35.3,0,0,1-10.61,3c-.63.08-.64,1.08,0,1a36.92,36.92,0,0,0,11.12-3.19l-.75-.43c-.32,2.77-2.26,4.73-3.85,6.86a68.8,68.8,0,0,0-4.07,6.33l.93.25c0-3.54-1.85-6.61-2.33-10.06-.09-.64-1.06-.37-1,.26Z" transform="translate(-650.34 -421.67)"/></g><g class="cls-11"><path class="cls-12" d="M890.11,570.94a7,7,0,0,0-3.3,2.4,2.28,2.28,0,0,0-.56,1.29c0,1.38,1.73,1.91,2.85,2.72,2.41,1.74,2,5.33,2.15,8.31.15,3.85,1.54,7.53,2.92,11.13a24.25,24.25,0,0,1,2.31-12.32,16.28,16.28,0,0,0,2-4.94c.23-1.76-.31-3.58,0-5.33.91-4.56,7.33-6.71,7.56-11.36a28.17,28.17,0,0,1-16.91,7.54l2.59-1.19" transform="translate(-650.34 -421.67)"/><path class="cls-12" d="M890,570.46c-1.62.65-4.05,2-4.2,4-.14,1.81,1.89,2.37,3,3.29,2.72,2.21,1.73,6.54,2.11,9.63a41.45,41.45,0,0,0,2.79,9.5c.19.49,1,.48,1-.13a24.65,24.65,0,0,1,2.24-12.06,26.49,26.49,0,0,0,1.78-4c.47-1.63.16-3.14.19-4.8.07-5.82,7.08-7.55,7.67-13.13.05-.46-.57-.62-.86-.36a28.34,28.34,0,0,1-16.55,7.4l.25.93,2.59-1.18c.59-.27.08-1.13-.5-.87L888.89,570a.5.5,0,0,0,.25.93,29.49,29.49,0,0,0,17.26-7.69l-.85-.35c-.33,3.12-3.13,4.94-5.1,7.07a8.35,8.35,0,0,0-2.57,6.06c0,2.22.16,4.09-.8,6.19-.69,1.52-1.49,2.94-2.06,4.52a25.36,25.36,0,0,0-1.35,10.11l1-.13a48.81,48.81,0,0,1-2.46-7.63c-.52-2.55-.29-5.09-.61-7.65a6.76,6.76,0,0,0-1.41-3.71,15.53,15.53,0,0,0-1.88-1.4c-2.47-2.18,0-4.07,2-4.84.59-.24.33-1.21-.27-1Z" transform="translate(-650.34 -421.67)"/></g><g class="cls-11"><path class="cls-12" d="M915.34,579.29a6,6,0,0,1,5.17-2,3.42,3.42,0,0,0,1.74,0,2.2,2.2,0,0,0,.73-.56,4.38,4.38,0,0,0-1.31-6.83,10.82,10.82,0,0,1,3.81.42A3.69,3.69,0,0,1,928,573a5.4,5.4,0,0,1-.38,2.5,6.21,6.21,0,0,1-1.49,2.82c-.61.55-1.42.83-2,1.39-1.36,1.27-1.24,3.41-1,5.25l.31,2.58a13.28,13.28,0,0,0-3.87-1.52,4.57,4.57,0,0,0-3.9,1l-1.53-3.59a3.75,3.75,0,0,1-.31-1c-.13-1.46,1.51-2.59,1.47-4" transform="translate(-650.34 -421.67)"/><path class="cls-12" d="M915.69,579.64a5.88,5.88,0,0,1,4.1-1.92c.85,0,1.76.35,2.59,0a3.64,3.64,0,0,0,1.77-2,5,5,0,0,0-2.23-6.34l-.25.94c3.23,0,6.67.62,5.45,5-.59,2.13-2.28,2.73-3.6,4.25-1.83,2.09-.93,5.46-.64,7.92l.76-.43c-2.74-1.4-5.7-2.55-8.39-.47l.79.1c-.89-2.09-2.15-3.85-1.14-6.13a7.06,7.06,0,0,0,.84-2.27c.08-.64-.92-.64-1,0-.19,1.5-1.59,2.54-1.46,4.1s1.28,3.36,1.89,4.8c.14.33.57.28.79.11,2.29-1.78,4.95-.51,7.17.62.3.15.8,0,.75-.43-.15-1.32-.4-2.67-.43-4-.05-2.51,1.29-3.32,2.92-4.79a7.71,7.71,0,0,0,2-4.35c.68-4.11-3.55-5-6.74-5a.5.5,0,0,0-.25.93,3.92,3.92,0,0,1,1.77,5.07c-1,1.86-2.45,1.21-4.12,1.42a6.87,6.87,0,0,0-4.09,2.16c-.45.46.26,1.17.71.7Z" transform="translate(-650.34 -421.67)"/></g><g class="cls-11"><path class="cls-12" d="M910.2,562.57c.13-.25-.38-.07-.39.2-.09,1.43.31,2.85.29,4.29a7.43,7.43,0,0,1-2.92,5.75c-.8.61-1.72,1.05-2.46,1.72-1.71,1.55-2.17,4.08-2,6.39s.89,4.54,1.09,6.84a16.08,16.08,0,0,0,1.52-7.87,5.35,5.35,0,0,1,.34-3.18,3.76,3.76,0,0,1,1.29-1.15c1.63-1,3.51-1.51,5.08-2.58a6.93,6.93,0,0,0,3.13-6.46c-.36-2.49-2.83-4.63-5.32-4.21" transform="translate(-650.34 -421.67)"/><path class="cls-12" d="M910.69,562.43l-.05-.11a.5.5,0,0,0-.73-.3c-1.42.61-.34,3.51-.32,4.61a7.18,7.18,0,0,1-1.94,5.09c-.95,1-2.28,1.5-3.28,2.45-3.78,3.59-1.54,9.24-1,13.59,0,.43.71.76.94.25a18,18,0,0,0,1.5-5.29c.18-1.62-.38-3.61.1-5.14.6-1.93,3.42-2.53,5-3.36a9.53,9.53,0,0,0,3.21-2.49c3-3.8,1.3-10.35-4.25-9.92-.63.05-.64,1.05,0,1,4.37-.34,5.93,4.53,3.87,7.74-1.66,2.59-4.6,3.05-7,4.58a3.68,3.68,0,0,0-1.94,3c-.12,1.15.12,2.34.07,3.51a16.31,16.31,0,0,1-1.46,5.82l.93.25c-.28-2.5-1.11-5-1.12-7.54a8.06,8.06,0,0,1,.9-4.1c.8-1.36,2.14-2,3.33-2.87a8.07,8.07,0,0,0,3.17-6.19c0-.4-.64-4-.19-4.18l-.73-.3,0,.12c.23.59,1.2.33,1-.27Z" transform="translate(-650.34 -421.67)"/></g><g class="cls-11"><path class="cls-12" d="M779.8,524.71l-10.21,6.46c.12,1.68.62,3.81,2.28,4.08,1.92.32,3.13-2.17,5-2.66,1.68-.44,3.35.89,4.19,2.41s1.18,3.28,2.07,4.77c2,3.31,6.27,4.69,8.25,8a20.53,20.53,0,0,0-1.62-9.85,16.84,16.84,0,0,0,8.7,7.76,3.79,3.79,0,0,1,1.63.93c.63.75.49,1.86.68,2.82.54,2.69,3.49,4,5.82,5.44a2.43,2.43,0,0,1,1,1c.34.83-.24,1.71-.58,2.53a5.08,5.08,0,0,0,4.67,6.66l-.29-11.16a15.25,15.25,0,0,0,4.22,9.43c2-8.27-.85-16.93-.23-25.41a2.52,2.52,0,0,0-.1-1.16,2.82,2.82,0,0,0-1-1,8,8,0,0,1-3.08-4.58,3.73,3.73,0,0,0-.7-1.78c-.77-.8-2.08-.53-3.17-.32a15,15,0,0,1-14.48-5.52,10.16,10.16,0,0,1-9.52,3.48,5.1,5.1,0,0,1-2.87-1.4,2.6,2.6,0,0,1-.45-3" transform="translate(-650.34 -421.67)"/><path class="cls-12" d="M779.54,524.28l-10.2,6.45a.52.52,0,0,0-.25.44c.15,1.57.47,3.7,2.14,4.41,2.29,1,3.93-1.88,5.89-2.28,3.88-.78,4.67,6.08,6.9,8.41s5.16,3.62,6.94,6.31a.5.5,0,0,0,.93-.25,22.19,22.19,0,0,0-1.64-10l-.91.39a17.75,17.75,0,0,0,7.52,7.34c1.62.81,2.44.75,3.32,3.18.18.48.13,1,.31,1.52a6.4,6.4,0,0,0,2.28,2.84,22.78,22.78,0,0,0,2.37,1.53c1.58.95,2.12,1.73,1.48,3.57a5.26,5.26,0,0,0-.26,2.86,5.68,5.68,0,0,0,5.36,4.55.51.51,0,0,0,.5-.5l-.29-11.16h-1a16.51,16.51,0,0,0,4.37,9.78.51.51,0,0,0,.84-.22c1.15-5.3.6-10.61.1-16a66.44,66.44,0,0,1-.39-8.22c.08-2.49.06-2.66-1.73-4.29-2.71-2.47-1.75-7-6.21-6.5-5.75.67-10.87-.56-14.66-5.27a.51.51,0,0,0-.71,0,9.94,9.94,0,0,1-5.43,3.28c-2.22.47-8.16.14-6.57-3.71.24-.59-.73-.85-1-.26-2.16,5.25,6.17,5.62,9.16,4.54a10.74,10.74,0,0,0,3-1.66c.32-.26.85-1,1.28-.9s1.19,1.25,1.56,1.57a15.79,15.79,0,0,0,7.52,3.54,14.73,14.73,0,0,0,3.81.18c2.14-.18,4.12-.88,5,1.87s3.75,4.27,4,7.15c.35,3.93.34,7.93.69,11.87a40.94,40.94,0,0,1-.38,12.5L816,563a15.41,15.41,0,0,1-4.08-9.08c-.06-.62-1-.65-1,0l.19,7.44c0,.77.57,2.95-.52,3.09-1.32.16-2.78-2.09-3.11-3.08-.68-2,.89-3.18.72-5-.13-1.33-1.21-1.85-2.26-2.47-1.9-1.14-4.11-2.27-4.68-4.6-.36-1.43-.09-2.57-1.39-3.53-1.69-1.25-3.84-1.69-5.54-3.07a17.09,17.09,0,0,1-4.14-5c-.27-.48-1.13-.14-.91.39a21.69,21.69,0,0,1,1.6,9.72l.93-.25c-1.84-2.8-4.85-4.13-7.09-6.51s-2.28-7-5.57-8.59a3.47,3.47,0,0,0-3.08-.06c-1.53.69-3.58,4-5.37,1.38-1.65-2.38,1.46-3.61,3.06-4.62l6.28-4c.54-.34,0-1.21-.51-.86Z" transform="translate(-650.34 -421.67)"/></g><g class="cls-11"><path class="cls-12" d="M725.7,521.15c-1.45-2.63-4.69-3.9-7.69-3.72a17.94,17.94,0,0,0-8.34,3.15c-12.65,8-20.67,21.43-31.6,31.64-2,1.87-4.22,3.69-6.9,4.3a3.1,3.1,0,0,0-1.72.71,2.59,2.59,0,0,0-.43,1.82l.23,14.49c2.25.86,4.73-.3,6.83-1.48,14.3-8.06,27.39-19,35.55-33.22a26.08,26.08,0,0,1,3.77-5.64c3.8-3.84,9.73-4.35,15.12-4.64a11.22,11.22,0,0,0-4.58-8.51" transform="translate(-650.34 -421.67)"/><path class="cls-12" d="M726.14,520.9c-3.88-6.17-11.65-3.92-16.72-.75-6.71,4.2-12.18,10-17.34,16S681.74,549.19,675.24,554a12.43,12.43,0,0,1-3.41,1.86,10.48,10.48,0,0,0-2.14.61,2.51,2.51,0,0,0-1.16,2.3c-.32,4.87.15,9.93.22,14.81a.53.53,0,0,0,.37.48c2.9.82,5.43-.52,7.91-1.93q4.23-2.4,8.24-5.15a98.72,98.72,0,0,0,15.3-12.74,77.4,77.4,0,0,0,11.7-15.48c2-3.56,4.13-6.59,8.13-8.06a34.69,34.69,0,0,1,10.12-1.6.5.5,0,0,0,.5-.5,12.11,12.11,0,0,0-4.72-8.86c-.51-.39-1.22.31-.71.7a11.77,11.77,0,0,1,3,3.31c.34.56,2,3.53,1.21,4.39-.27.31-3.26.25-3.74.31a32.59,32.59,0,0,0-3.81.65c-4.74,1.18-7.78,3.87-10.19,8a86.49,86.49,0,0,1-22.67,25.66,108.48,108.48,0,0,1-13.55,8.87c-1.22.67-3.57,2.13-5,1.7-1.71-.49-1.08-3.29-1.1-4.62l-.08-4.83c0-1.47-.44-3.41-.08-4.83.58-2.28,1.83-1.92,3.46-2.6a13.87,13.87,0,0,0,2.92-1.73,51.45,51.45,0,0,0,6.5-6.11c3.7-3.9,7.12-8.05,10.65-12.09a89.62,89.62,0,0,1,13.59-13.25c4.89-3.65,14.13-9,18.63-1.86.34.54,1.21,0,.87-.51Z" transform="translate(-650.34 -421.67)"/></g><path class="cls-8" d="M666.69,518.85c4-8.69,14.55-9.13,22.6-11.3s14.46-7.59,22-10.95c17.31-7.73,34.65,3.44,51.52,6.89,8.89,1.82,18.92.79,26.61,6.37.52.37,1-.49.5-.87-7-5.05-15.8-4.71-23.94-5.94-9.27-1.41-18-5.16-26.92-7.72-8.17-2.33-16.89-3.67-25.13-.85-8.51,2.91-15.33,9.33-24,11.86-8.51,2.48-19.81,2.72-24.09,12-.26.58.6,1.09.87.51Z" transform="translate(-650.34 -421.67)"/><path class="cls-8" d="M752.38,500.34c7.47,2.53,15.29,1.78,23,1.39,4-.2,8.91-1,12.08,2s5.2,7,7.55,10.38c.37.53,1.24,0,.87-.5-2.31-3.34-4.41-7.1-7.2-10.07-2.47-2.62-5.37-3-8.82-3-9.12.09-18.37,1.8-27.23-1.2-.61-.21-.88.76-.27,1Z" transform="translate(-650.34 -421.67)"/><path class="cls-8" d="M793.39,510.35a33.93,33.93,0,0,0,10.34,6.94c4.55,1.94,9.65,2.39,14,4.72,4.64,2.48,6.81,7.17,9.15,11.62a132.74,132.74,0,0,0,8.58,14.07c.36.53,1.23,0,.86-.5a133.68,133.68,0,0,1-8.57-14.07c-2-3.86-3.93-8-7.51-10.71s-8.2-3.46-12.44-4.73a33.2,33.2,0,0,1-13.73-8.05c-.46-.45-1.17.26-.71.71Z" transform="translate(-650.34 -421.67)"/><path class="cls-8" d="M835.19,548c-1.33,4.53-7,1.27-9.15-.51a19,19,0,0,1-4.68-5.67c-.91-1.68-1.63-3.14-3.34-4.13-2.34-1.36-4.44-2.43-5.7-5-.61-1.26-.47-3.69-1.79-4.47-1.09-.64-2.56.12-3.65.36a13.28,13.28,0,0,1-13.69-5.64c-.25-.37-1-.28-.94.25.39,3.45-4.53,3.24-6.66,3.18a6.67,6.67,0,0,1-5.24-2c-.42-.49-1.13.22-.71.7,2.63,3,14.28,4.18,13.61-1.85l-.93.25a14.41,14.41,0,0,0,11.58,6.43,13.06,13.06,0,0,0,3.24-.32,7,7,0,0,1,1.57-.44c2,.1,1.78,1.4,2.15,2.59a10.4,10.4,0,0,0,3.85,5.32c1.2.86,2.75,1.26,3.85,2.26s1.69,2.71,2.5,4a19.26,19.26,0,0,0,5,5.44c2.84,2.11,8.67,4.49,10.13-.47a.5.5,0,0,0-1-.27Z" transform="translate(-650.34 -421.67)"/><path class="cls-8" d="M781.77,520.25a25.76,25.76,0,0,1-13.72,9.49.5.5,0,0,0,.26,1,26.81,26.81,0,0,0,14.32-10c.39-.52-.48-1-.86-.5Z" transform="translate(-650.34 -421.67)"/><path class="cls-8" d="M761.57,524.15a9.12,9.12,0,0,1,5.3,3.92c1.11,1.83,1.41,4,2.28,5.92a11.35,11.35,0,0,0,5.23,5.26c2.78,1.49,5.86,2.29,8.72,3.57a19.71,19.71,0,0,1,8.26,6.89c2,2.88,4.76,8.77,2,11.84s-8.23.07-11-1.73c-5.53-3.54-9.93-8.51-15.26-12.3a25.4,25.4,0,0,0-8.86-4.25c-2.16-.49-4.73-.29-6.29-2.13s-1-4.85-.58-7c.12-.63-.84-.9-1-.26-.54,2.78-1,6.47,1.39,8.55,1.37,1.15,3.14,1.23,4.83,1.51a20.82,20.82,0,0,1,6.23,2.09c7.25,3.77,12.4,10.48,19.28,14.8,2.68,1.68,6,3.47,9.32,2.87s4.31-3.7,3.89-6.73c-1.09-7.77-7-13.31-14-16-4.94-1.89-9.85-3.37-11.77-8.82-1.49-4.24-3.06-7.61-7.69-9a.5.5,0,0,0-.27,1Z" transform="translate(-650.34 -421.67)"/><path class="cls-8" d="M750.42,542.66a9,9,0,0,1-6.29-6.17.5.5,0,0,0-1,.27,10,10,0,0,0,7,6.86.5.5,0,0,0,.26-1Z" transform="translate(-650.34 -421.67)"/><path class="cls-8" d="M752.22,541.12c-3.93.65-8.25,1.36-12-.49-2.94-1.45-5-4.19-6.49-7-2.8-5.17-4.14-11-8.33-15.39-.44-.46-1.15.25-.7.71,5.09,5.29,5.92,13,10.44,18.69s10.74,5.55,17.33,4.45c.63-.1.36-1.07-.27-1Z" transform="translate(-650.34 -421.67)"/><path class="cls-8" d="M729.31,527.57c-14.19-.89-19.95,14.91-27.37,23.92-8.77,10.64-21.06,17.45-32.94,24-.56.31-.06,1.17.51.86,11-6.08,22.33-12.36,31-21.7,8.28-8.93,14.06-27,28.82-26.09.64,0,.64-1,0-1Z" transform="translate(-650.34 -421.67)"/><path class="cls-8" d="M770.32,536.07a12,12,0,0,0,6.19-1.89c1-.62.9-1.09,2.14.19a8.61,8.61,0,0,1,1,1.7,13.28,13.28,0,0,1,1.82,5.24c.07.63,1.07.64,1,0a13.57,13.57,0,0,0-1.39-4.7c-.59-1.19-1.38-3.22-2.47-4-.73-.51-1-.34-1.73,0-2.23,1.25-3.9,2.28-6.58,2.4-.64,0-.64,1,0,1Z" transform="translate(-650.34 -421.67)"/><path class="cls-8" d="M789.9,538.63a16.27,16.27,0,0,1,1.54,4.71c.07.43.49,5.1-.23,5.1a.5.5,0,0,0,0,1c1.61,0,1.4-2.64,1.4-3.7a17.12,17.12,0,0,0-1.84-7.62c-.29-.57-1.15-.07-.87.51Z" transform="translate(-650.34 -421.67)"/><path class="cls-8" d="M790,538.94a24.45,24.45,0,0,0,4.75,5.63A10.94,10.94,0,0,0,797,546c.77.33,2.19.31,2.72.95.37.46.29,2.3.51,3a10,10,0,0,0,3.5,4.78c1.47,1.06,2.43.85,2.07,3.25-.53,3.54-.38,7.63,3.88,8.7,1.12.28,3.22.31,3.92-.88.77-1.34-.74-4.37-1.09-5.67a.5.5,0,0,0-1,.26c.3,1.12,1.08,2.74,1,3.91-.06,2.14-2.71,1.69-4,.82a5.66,5.66,0,0,1-2.06-5.8c.16-.92.76-1.84.67-2.78-.14-1.53-1.61-1.78-2.74-2.59a8.86,8.86,0,0,1-3.67-7.68.51.51,0,0,0-.5-.5c-4.45-.28-7.1-3.87-9.42-7.26-.36-.52-1.22,0-.86.51Z" transform="translate(-650.34 -421.67)"/><path class="cls-8" d="M804.09,539.53c-.06,3.1.19,6.34,2.09,8.92a10.49,10.49,0,0,0,3.21,2.55c2.19,1.49,1.41,3.92,1.71,6.16.69,5.32,5.6,12.56,11.78,10.06a.5.5,0,0,0,.3-.73c-1.66-3.25-3.3-6.59-3-10.34.16-2.19,1-4.64,0-6.76a9.44,9.44,0,0,0-2-2.37,5.84,5.84,0,0,1-1.75-5.32c.21-1.36.64-2.52-.61-3.44-.51-.39-1,.48-.5.86.86.64.08,2.31,0,3.14a6.58,6.58,0,0,0,.39,2.92c1,2.59,3.88,3.6,3.93,6.64,0,2.41-.73,4.65-.38,7.08a26.39,26.39,0,0,0,3.06,8.09l.3-.73c-3.89,1.57-7.13-1.37-9-4.57a12.82,12.82,0,0,1-1.57-4.74c-.17-1.42.19-2.91,0-4.3-.29-2-1.83-2.13-3.33-3.1-3.33-2.15-3.73-6.42-3.66-10,0-.64-1-.64-1,0Z" transform="translate(-650.34 -421.67)"/><path class="cls-8" d="M778.78,559c-.23,3-1.32,7.89,2.12,9.54a2.91,2.91,0,0,0,3.2-.26c1.25-1.06,1.08-3,1.33-4.44.11-.62-.85-.9-1-.26a12.26,12.26,0,0,1-.44,3c-1,2.15-3.34,1.29-4.13-.48-.93-2.07-.28-4.9-.12-7.08.05-.64-.95-.64-1,0Z" transform="translate(-650.34 -421.67)"/><path class="cls-8" d="M787,553.63c-1.52,1.81-4.19,3.71-2,5.86,1.94,1.88,4.64,3.48,7.39,2.47,1.94-.71,3.12-2.58,1.72-4.36-1.72-2.18-4.39-4.05-7.25-3.3a.5.5,0,0,0,.26,1c1.93-.51,3.58.41,5,1.67.68.62,1.69,1.89,1.49,2.9s-1.86,1.35-2.67,1.41a6.63,6.63,0,0,1-4.74-2c-1.85-1.61.38-3.56,1.49-4.88.42-.49-.29-1.2-.7-.71Z" transform="translate(-650.34 -421.67)"/><path class="cls-8" d="M1042.54,487.24c-8.64,4.21-17.46,8.22-26.79,10.66-4.1,1.07-8.31,1.63-12.4,2.75-2.86.77-5.67,1.62-8.6,2.16-7,1.3-13.9,1.95-20.75,4q-8.37,2.51-16.67,5.23a25.88,25.88,0,0,1-5.49,1.58c-2.61.27-5.25.31-7.88.47a32.77,32.77,0,0,0-8.06,1.77l-14,4.46c-9.43,3-18.84,6.25-28.71,7.5-9.34,1.18-18.83,1-28.12,2.6a90.63,90.63,0,0,0-15.37,4.37c-2.45.88-7.53,1.79-8,5.07-.4,2.9,3,4.68,5.37,5.22a27.26,27.26,0,0,0,14-.9.51.51,0,0,0,.12-.92l-3.74-2a.5.5,0,0,0-.5.86,16.84,16.84,0,0,0,17.78.64.5.5,0,0,0,.23-.56,4,4,0,0,0-3-3,.5.5,0,0,0-.48.83,15.45,15.45,0,0,0,18,3.6c.58-.27.07-1.14-.51-.86a14.44,14.44,0,0,1-16.81-3.44l-.48.83c1.06.08,1.61.57,1.67,1.45.37.58.2.91-.52,1a6.34,6.34,0,0,1-2,.76,15.8,15.8,0,0,1-13.43-2.12l-.5.86,3.73,2,.12-.92c-4.27,1.34-9.35,2-13.75.83a8,8,0,0,1-2.92-1.43c-1.12-.93-1.17-1.12-.92-2.61.21-1.31.13-1.44,1.14-2a37,37,0,0,1,6.52-2.53,97.68,97.68,0,0,1,26.8-5.35c8.7-.59,17.35-1.07,25.85-3.17,8.67-2.15,17.15-5.14,25.66-7.85,3.8-1.21,7.72-2.9,11.64-3.67a52.27,52.27,0,0,1,7.3-.52,28.08,28.08,0,0,0,5.5-.51c2-.52,3.89-1.33,5.82-2,5.11-1.65,10.24-3.27,15.39-4.8,6.39-1.9,12.84-2.56,19.38-3.7,3.2-.56,6.29-1.46,9.42-2.31,4.24-1.15,8.59-1.73,12.84-2.87,9.25-2.46,18-6.46,26.59-10.64.58-.28.07-1.14-.51-.86Z" transform="translate(-650.34 -421.67)"/><path class="cls-8" d="M888.48,539a10.23,10.23,0,0,0,2.25,8.9,7.56,7.56,0,0,0,8.19,1.88c.59-.23.33-1.2-.27-1-6.15,2.42-10.11-4.18-9.2-9.55.1-.63-.86-.9-1-.27Z" transform="translate(-650.34 -421.67)"/><path class="cls-8" d="M900.17,543.22l4,2.54c.55.34,1.05-.52.51-.87l-4-2.53c-.54-.35-1,.52-.5.86Z" transform="translate(-650.34 -421.67)"/><path class="cls-8" d="M901.33,547.19a64.29,64.29,0,0,0-11.79,6.86c-.51.38,0,1.25.51.87a64,64,0,0,1,11.79-6.87c.58-.26.08-1.12-.51-.86Z" transform="translate(-650.34 -421.67)"/><path class="cls-8" d="M917.26,533.08c-3.39,6.57-8.43,14.14-15.08,17.81-3.67,2-7.51.83-11.33,2a16.49,16.49,0,0,0-7,4.78c-1.48,1.59-4.48,4.37-4.73,6.61s2.41,3.84,4.09,4.63c5.67,2.66,12.12.65,17.31-2.15,4-2.18,7.75-4.82,12-6.63a52.24,52.24,0,0,1,14.4-3.73c.63-.07.64-1.08,0-1a54.93,54.93,0,0,0-13.08,3.11,74.35,74.35,0,0,0-11.1,5.84c-3.89,2.31-8,4.49-12.58,4.76a13.28,13.28,0,0,1-6.72-1.21c-1-.52-2.56-1.37-3-2.48-.59-1.39.46-2.41,1.17-3.36,2.57-3.41,5.65-7.18,10-8.31,2.19-.57,4.41-.14,6.62-.41a12.87,12.87,0,0,0,4.6-1.56c6.79-3.78,12-11.45,15.45-18.18.29-.57-.57-1.08-.87-.5Z" transform="translate(-650.34 -421.67)"/><path class="cls-8" d="M925.28,549.28a6.57,6.57,0,0,0,6.24,7c.64,0,.64-1,0-1a5.57,5.57,0,0,1-5.24-6c.06-.64-.94-.63-1,0Z" transform="translate(-650.34 -421.67)"/><path class="cls-8" d="M889.68,570c-2.47,2.67-4.7,5.74-5.23,9.44-.64,4.39,2.22,7.23,2.69,11.39.28,2.59.35,5.89,2.83,7.46a3.57,3.57,0,0,0,5.12-1.15c.3-.57-.56-1.08-.87-.51-1.06,2-3.61,1.3-4.72-.24a7.92,7.92,0,0,1-1.18-3.71c-.25-2-.28-4-1.19-5.91-1.41-2.93-2.31-5.39-1.37-8.69a18.63,18.63,0,0,1,4.63-7.38c.44-.47-.27-1.18-.71-.7Z" transform="translate(-650.34 -421.67)"/><path class="cls-8" d="M906.74,564.15c-1.77,3.83-6.48,5.26-8,9.26-.86,2.3.34,4.62-.32,7s-2.1,4.64-2.88,7c-1,3.25-2,7.61.56,10.43,2,2.11,5.37,2,6.72-.67.29-.57-.57-1.08-.86-.5-1.71,3.38-5.66.93-6.33-1.87a12.1,12.1,0,0,1,.53-5.93c.85-3.11,2.83-5.91,3.43-9.07a13.22,13.22,0,0,0-.12-3.61c-.16-2.47.89-4.12,2.69-5.77,2-1.83,4.23-3.24,5.4-5.78.27-.58-.59-1.09-.86-.51Z" transform="translate(-650.34 -421.67)"/><path class="cls-8" d="M899.59,587.67a4.09,4.09,0,0,1,4.51,1.54c.36.52,1.23,0,.86-.5a5.09,5.09,0,0,0-5.64-2,.5.5,0,0,0,.27,1Z" transform="translate(-650.34 -421.67)"/><path class="cls-8" d="M901.55,575.2a3,3,0,0,1,4.29,1c.3.57,1.16.06.87-.51a4,4,0,0,0-5.66-1.41c-.53.37,0,1.23.5.87Z" transform="translate(-650.34 -421.67)"/><path class="cls-8" d="M886.29,584.16a5.88,5.88,0,0,1,5-.13c.6.25.86-.71.27-1a6.84,6.84,0,0,0-5.78.22c-.57.29-.07,1.15.51.87Z" transform="translate(-650.34 -421.67)"/><path class="cls-8" d="M889.81,574.23a5.66,5.66,0,0,1,5-.55c.61.22.87-.74.27-1a6.62,6.62,0,0,0-5.82.65c-.54.34,0,1.21.51.86Z" transform="translate(-650.34 -421.67)"/><path class="cls-8" d="M913.44,564.45c1-.83,1.41,3.81,1.38,4.21-.24,2.56-2.33,3.74-4.31,5-1.74,1.1-4.17,2.58-4.69,4.72-.33,1.35,0,3-.16,4.42-.23,2-1.18,3.65-1.73,5.55s.13,4.09-.59,5.88c-.27.66-1.1,1.25-1.23,2a.5.5,0,0,0,.84.48c.13-.13.25-.27.37-.41.41-.49-.29-1.2-.71-.71a4.83,4.83,0,0,1-.37.42l.84.48c.15-.84,1.18-1.57,1.41-2.46.44-1.64-.1-3.41.33-5.1.26-1,.76-2,1.12-3a18.45,18.45,0,0,0,.88-6.27c0-2.27,1.74-3.52,3.58-4.74,3.16-2.08,5.84-3.7,5.37-7.88-.15-1.33-1.08-5-3-3.28-.49.42.22,1.13.71.71Z" transform="translate(-650.34 -421.67)"/><path class="cls-8" d="M916,570.05c3.11-.11,11.1-1.27,11.83,2.85.12.64,1.08.37,1-.26a4,4,0,0,0-3.73-3.45,50.86,50.86,0,0,0-9.07-.14c-.64,0-.64,1,0,1Z" transform="translate(-650.34 -421.67)"/><path class="cls-8" d="M917.93,568.78a8.12,8.12,0,0,0-3.69,4.87,7.82,7.82,0,0,0-.21,2.85c.08.74.38,1.34.51,2.06.3,1.63-.11,2.16-.52,3.48a5.73,5.73,0,0,0,.85,5.61c.83,1.11.58-.68,1.53,2.23.08.26.16,1.29.24,1.57a6.48,6.48,0,0,0,1.58,2.7c1.29,1.31,3.56,2.37,5.24,1.14s1.75-4.24,1.63-6.14a35.46,35.46,0,0,0-.68-4.47,6.58,6.58,0,0,1-.15-2.76c.22-1.23.73-1.42,1.5-2.32a11.16,11.16,0,0,0,2.58-6.82c0-.64-1-.64-1,0a10.07,10.07,0,0,1-3.05,6.92c-.91.89-1.44,1.18-1.35,2.52.15,2.33,1,4.58,1.15,6.93.07,1.14.28,3-.35,3.94-2.34,3.7-5.53.2-6.14-1.91-.46-1.6-.06-2.33-1.14-3.59-.93-1.09-1.89-1.74-1.85-3.35a15.52,15.52,0,0,1,.89-3.39c.44-1.87-.51-3.28-.52-5.13a7.07,7.07,0,0,1,3.45-6.08c.55-.34.05-1.21-.5-.86Z" transform="translate(-650.34 -421.67)"/><path class="cls-8" d="M928.76,572.88c5.54,2.34,11.28,1,15.72-2.86,2.88-2.49,6.56-1.83,9.66-3.85s5.75-4.79,8.5-7.2c3.18-2.78,6.66-7,11-7.63s9.34.4,13.6,1.28c7.81,1.6,15.23,4.31,23.26,4.77,9.32.53,18.62-.9,27.81-2.3.63-.1.36-1.06-.27-1-8.32,1.28-16.71,2.55-25.16,2.36s-16.24-2.84-24.46-4.64a75,75,0,0,0-10.75-1.53c-3.38-.23-6.24.05-9,2.12-3,2.25-5.76,5-8.6,7.45-3.1,2.71-6.13,6.18-10.36,6.9a11.24,11.24,0,0,0-4.44,1.3c-1.44.92-2.54,2.27-4,3.16a13.65,13.65,0,0,1-12.24.68c-.6-.25-.85.72-.27,1Z" transform="translate(-650.34 -421.67)"/><path class="cls-8" d="M935.48,559.21A22.24,22.24,0,0,0,952,550.37c.39-.52-.48-1-.87-.51a21.15,21.15,0,0,1-15.64,8.35c-.64,0-.64,1,0,1Z" transform="translate(-650.34 -421.67)"/><path class="cls-8" d="M960.32,544.28A30.73,30.73,0,0,1,980,540.39c.64.08.63-.92,0-1a31.6,31.6,0,0,0-20.13,4,.5.5,0,0,0,.5.86Z" transform="translate(-650.34 -421.67)"/><path class="cls-8" d="M883.71,564.12a8.81,8.81,0,0,0,3-2.72c1.27-1.52,3.07-3.75,5.36-1.11a7,7,0,0,1,1,2.58c.43,1.44,1.36,3.18-.41,4.43-.81.58-2.67.62-3.57.69a16.86,16.86,0,0,1-2.93,0,13.58,13.58,0,0,1-2.13-.4c-1.39-.22-1.77-1.15-1.17-2.78.6-.22.34-1.19-.27-1-2.51.91-1.33,3.68.58,4.5a13.85,13.85,0,0,0,6.76.6c1.36-.17,3.7-.35,4.59-1.62s0-3-.36-4.27c-.43-1.46-.84-3.25-2.08-4.27-3.62-3-6.29,3.28-8.91,4.5-.58.28-.07,1.14.51.87Z" transform="translate(-650.34 -421.67)"/></svg>