<svg id="Calque_1" data-name="Calque 1" xmlns="http://www.w3.org/2000/svg" viewBox="0 0 119.48 119.04"><defs><style>.cls-1{fill:#fff;}.cls-2{fill:#1d1d1b;}.cls-3{fill:#dcb383;}.cls-4{opacity:0.51;}.cls-5{fill:#9d815f;}.cls-6{opacity:0.23;}.cls-7{fill:#22bada;}.cls-8{fill:#280f2e;}.cls-9{fill:#662483;}.cls-10{opacity:0.32;}</style></defs><title>43</title><path class="cls-1" d="M832.45,491.06a53.5,53.5,0,0,0-28,29.57,64.8,64.8,0,0,0-3.18,12,44.63,44.63,0,0,0-.6,13.44,59.74,59.74,0,0,0,2.7,10.5c2.13,6.59,4.34,13.34,8.65,18.77a44.26,44.26,0,0,0,7.72,7.32c8.1,6.29,17.4,11.29,27.47,13.26s21,.71,29.71-4.66a69.72,69.72,0,0,0,8.47-6.47c4.34-3.69,8.73-7.42,12.16-12A47.94,47.94,0,0,0,904.26,560c4.79-13.48,4.77-28.76-.84-41.91s-16.91-24-30.59-28.14-28.54-1.8-42.11,2.68" transform="translate(-794.25 -480.63)"/><path class="cls-2" d="M832.19,490.62a54.53,54.53,0,0,0-23,19.64c-6.32,9.61-10,22.31-9.22,33.84.44,5.94,2.55,11.72,4.5,17.31,1.74,5,3.83,10,7.15,14.18,3.47,4.38,8.11,7.88,12.72,11a68.68,68.68,0,0,0,15.33,7.78c10.59,3.7,22.55,4.14,33-.35,5.21-2.25,9.5-5.83,13.78-9.48,4.57-3.89,9.12-7.89,12.54-12.87,12.66-18.45,12.33-45.55-.71-63.65a49.49,49.49,0,0,0-27.09-19.05c-13.47-3.54-27.64-1.05-40.64,3.19-.61.2-.35,1.17.27,1,11.28-3.67,23.36-6.07,35.23-4.2a47.41,47.41,0,0,1,26.6,13.94c15.52,16,18.43,40.79,9.58,60.86-4.66,10.57-13.73,18.69-23,25.36s-20.88,8.49-31.91,6.34c-10.85-2.11-20.91-7.76-29.33-14.8-8.81-7.37-12.42-17.8-15.5-28.53-3.64-12.68-.58-27.41,6-38.71a53.51,53.51,0,0,1,24.19-21.86c.58-.27.08-1.13-.51-.87Z" transform="translate(-794.25 -480.63)"/><path class="cls-3" d="M890.66,493.71c8.71,6,16.34,20.14,19.79,30.11a47.78,47.78,0,0,1,2.4,12.6c1,15.3-3.84,31.06-13.9,42.64s-29.63,19.66-45,19.7c-13.29,0-39.53-7.94-53.15-30.93-7.86-13.25-5.82-29.47-4.91-38.78,2.45-25,30.44-47.67,55.45-47.67C866.11,481.38,882,487.75,890.66,493.71Zm-38.31-3.93c-21.53,0-45.62,19.51-47.74,41.07-.78,8-2.53,22,4.23,33.41,11.72,19.81,34.31,26.67,45.76,26.64,13.2,0,30-7,38.71-17s12.82-23.55,12-36.73a41.25,41.25,0,0,0-2.07-10.85c-3-8.59-9.54-20.81-17-25.94S865,489.78,852.35,489.78Z" transform="translate(-794.25 -480.63)"/><path class="cls-2" d="M890.28,494.36c5.05,3.56,8.84,8.71,12,13.95A78.18,78.18,0,0,1,910,524.89c4.22,13.2,2.42,28.57-3.42,41-5.48,11.65-14.54,20.12-26.1,25.61-9.66,4.59-20.8,7.49-31.54,6.2-20.48-2.44-42.79-16.09-50.24-36-4-10.59-3.29-22.27-2-33.3,1.38-11.61,8.12-22,16.54-29.88,9.56-8.9,22.24-15.48,35.42-16.3,14.26-.89,29.82,4.21,41.58,12.15.8.54,1.55-.76.76-1.3a73.9,73.9,0,0,0-38.39-12.42c-12-.29-23.84,4.3-33.55,11.21s-18,16.5-21.87,27.85c-1.76,5.07-2.24,10.37-2.66,15.69a75,75,0,0,0,.55,18.64c4,23.26,26.57,39.66,48.58,44.3,10.24,2.15,20.5.9,30.33-2.56,11.87-4.18,22.66-11.2,29.72-21.78a61.17,61.17,0,0,0,9.66-39.86c-1.32-12.7-7.83-25.84-16.18-35.41a35,35,0,0,0-6.19-5.66C890.25,492.5,889.5,493.8,890.28,494.36Z" transform="translate(-794.25 -480.63)"/><path class="cls-2" d="M852.35,489c-20.1.19-40.79,15.29-47,34.46a56.68,56.68,0,0,0-2.08,13.21,62.9,62.9,0,0,0,.61,16.33c2.06,10.88,9.1,20.06,17.8,26.66a60.49,60.49,0,0,0,24.49,11c8.93,1.79,17.91.54,26.43-2.59,10.41-3.82,19.68-10.17,25.62-19.67a53,53,0,0,0,7.5-34c-.77-6.5-3.2-12.57-6.22-18.33-2.79-5.31-6.21-10.66-10.78-14.63-4.39-3.8-10-6.33-15.41-8.34a62.24,62.24,0,0,0-21-4.11.75.75,0,0,0,0,1.5,62.55,62.55,0,0,1,32.41,9.84c8.61,5.54,14.16,16.17,17.52,25.57,4,11.28,2.82,24.49-1.92,35.36a45.36,45.36,0,0,1-22,22.75c-8.34,4.17-18.13,6.88-27.51,5.9a56.94,56.94,0,0,1-22.35-7.53c-8.58-4.95-16.46-12.38-20.61-21.5-4.28-9.4-3.68-20.06-2.58-30.07,2.42-21.93,25.47-40.12,47-40.32A.75.75,0,0,0,852.35,489Z" transform="translate(-794.25 -480.63)"/><g class="cls-4"><path class="cls-5" d="M815.89,506.49c-9.25,10.39-15.12,24-15.43,37.87s5.19,28,15.44,37.44a73.53,73.53,0,0,0,12.81,9,46.35,46.35,0,0,0,9.23,4.43C843.29,597,849,597,854.64,597c5.89,0,12-.08,17.34-2.5,6.34-2.85,10.82-8.59,15-14.12a52.78,52.78,0,0,1-19.21,9.56c-19.28,4.89-40.4-3.27-54-17.76a43.71,43.71,0,0,1-6.53-8.67c-3.71-6.74-4.85-14.66-4.48-22.34s2.76-15,4.65-22.45" transform="translate(-794.25 -480.63)"/><path class="cls-5" d="M815.36,506c-14.2,16.16-20.11,39.14-11.67,59.46,4.18,10.08,11.4,17.75,20.54,23.56,4.76,3,9.78,6.12,15.31,7.51,5.9,1.49,12.17,1.3,18.21,1.19,6.19-.12,12.44-.84,17.74-4.31,5-3.24,8.62-8,12.17-12.66.45-.59-.44-1.47-1-1a51,51,0,0,1-24.89,10.57,52.3,52.3,0,0,1-23.61-3c-15.86-5.7-31.46-18.73-34.15-36.11-1.73-11.15,1.42-21.63,4.15-32.31a.75.75,0,0,0-1.45-.4c-2.53,9.9-5.46,19.58-4.54,29.93a39.69,39.69,0,0,0,11.1,24.26c11.53,12.25,28.45,20.2,45.45,19.34a51.9,51.9,0,0,0,28.7-11l-1-1c-3.15,4.13-6.4,8.38-10.65,11.46-4.65,3.36-10.1,4.45-15.74,4.7a85.49,85.49,0,0,1-17.3-.51c-5.53-.89-10.34-3.47-15.08-6.31-9-5.41-16.59-12.11-21.27-21.67A51,51,0,0,1,801.73,538a60.57,60.57,0,0,1,14.7-31c.63-.73-.43-1.79-1.07-1.06Z" transform="translate(-794.25 -480.63)"/></g><path class="cls-2" d="M890.28,494.63c5.05,3.56,8.84,8.72,12,13.95A78.26,78.26,0,0,1,910,525.17c4.22,13.19,2.42,28.56-3.42,41-5.48,11.65-14.54,20.12-26.1,25.61-9.66,4.59-20.8,7.48-31.54,6.2-20.48-2.44-42.79-16.1-50.24-36-4-10.59-3.29-22.28-2-33.31,1.38-11.61,8.12-22,16.54-29.87,9.56-8.9,22.24-15.48,35.42-16.3,14.26-.89,29.82,4.21,41.58,12.14.8.54,1.55-.76.76-1.29a73.81,73.81,0,0,0-38.39-12.42c-12-.29-23.84,4.3-33.55,11.21s-18,16.49-21.87,27.84c-1.76,5.08-2.24,10.37-2.66,15.69a75,75,0,0,0,.55,18.64c4,23.26,26.57,39.67,48.58,44.3,10.24,2.16,20.5.91,30.33-2.56,11.87-4.18,22.66-11.19,29.72-21.77a61.18,61.18,0,0,0,9.66-39.87c-1.32-12.69-7.83-25.83-16.18-35.41a35.32,35.32,0,0,0-6.19-5.65C890.25,492.78,889.5,494.08,890.28,494.63Z" transform="translate(-794.25 -480.63)"/><path class="cls-2" d="M852.35,489.31c-20.1.18-40.79,15.29-47,34.46a56.68,56.68,0,0,0-2.08,13.2,62.88,62.88,0,0,0,.61,16.33c2.06,10.89,9.1,20.07,17.8,26.67a60.61,60.61,0,0,0,24.49,11c8.93,1.79,17.91.54,26.43-2.58,10.41-3.83,19.68-10.17,25.62-19.68a53,53,0,0,0,7.5-34c-.77-6.49-3.2-12.57-6.22-18.32-2.79-5.32-6.21-10.66-10.78-14.63-4.39-3.81-10-6.34-15.41-8.34a62.24,62.24,0,0,0-21-4.11.75.75,0,0,0,0,1.5,62.45,62.45,0,0,1,32.41,9.83c8.61,5.54,14.16,16.18,17.52,25.58,4,11.28,2.82,24.48-1.92,35.36a45.34,45.34,0,0,1-22,22.74c-8.34,4.17-18.13,6.89-27.51,5.91a57.26,57.26,0,0,1-22.35-7.53c-8.58-5-16.46-12.39-20.61-21.51-4.28-9.39-3.68-20.06-2.58-30.06,2.42-21.93,25.47-40.12,47-40.32A.75.75,0,0,0,852.35,489.31Z" transform="translate(-794.25 -480.63)"/><g class="cls-6"><path class="cls-2" d="M814,515.31a6.72,6.72,0,0,0-.63,7.65c1.16,1.92,3.26,3.17,4.24,5.19,1.17,2.4.48,5.24.36,7.92a17.58,17.58,0,0,0,1.81,8.55,6.26,6.26,0,0,1,.77,2c.16,1.41-.83,2.72-.9,4.14-.1,1.94,1.48,3.54,2.08,5.4a22.67,22.67,0,0,1,.55,3.88c.54,3.82,3,7.06,5.38,10.11a12.34,12.34,0,0,0,2.87,2.94,8.64,8.64,0,0,0,3.81,1.22A14.44,14.44,0,0,0,847,569c1.33-1.7,2.62-3.91,4.77-4,1.31-.07,2.73.7,3.88.06a5.27,5.27,0,0,1,.88-.53c.85-.29,1.65.51,2.24,1.19a21.74,21.74,0,0,0,9.11,6.21,7.63,7.63,0,0,0,3.55.56,6.37,6.37,0,0,0,4.77-4.25,18.77,18.77,0,0,0,.86-6.6,35.44,35.44,0,0,1-16.92-7.86c-1.37-1.16-2.74-2.62-2.81-4.42a6.69,6.69,0,0,1,1.36-3.7c4.42-7,10.74-13.14,12.51-21.22A29.27,29.27,0,0,0,861,533.13c-1.43,2-2.61,4.08-4,6a33.68,33.68,0,0,1-5.86,6.36,7,7,0,0,1-3,1.68c-1.62.34-3.26-.37-4.76-1.07-4.08-1.91-8.3-4-11.06-7.55-3.68-4.78-4.13-11.49-7.92-16.18-2.28-2.82-5.54-4.63-8.71-6.37" transform="translate(-794.25 -480.63)"/><path class="cls-2" d="M813.6,515.06a7.29,7.29,0,0,0-.17,8.82c1.47,2,3.65,3.31,4.24,5.89s-.3,5.42-.15,8.06A18.81,18.81,0,0,0,819,544c.65,1.54,1.3,2.41.86,4.23a10.39,10.39,0,0,0-.64,2.91c.08,1.93,1.49,3.39,2.08,5.17.76,2.3.49,4.72,1.44,7a26.55,26.55,0,0,0,6.93,9.73c3.12,2.5,8,2.2,11.48.81a15.19,15.19,0,0,0,4.1-2.39c1.68-1.39,2.65-3.25,4.18-4.75,1.73-1.71,4.21-1,6.42-1.27,1.28-.17-.57-.47,1.29-.13.87.16,1,.39,1.55,1a24,24,0,0,0,2.65,2.49c2.86,2.27,7.85,5.36,11.62,3.71,4.2-1.84,4.55-7,4.6-10.93a.5.5,0,0,0-.37-.49,36.14,36.14,0,0,1-12.13-4.46,25.45,25.45,0,0,1-5.71-4.33c-2.42-2.65-1.08-5.23.65-7.79,4.33-6.44,9.83-12.24,11.68-20a.51.51,0,0,0-.74-.56c-5.64,3-9.46,7.38-12.87,12.69a35.61,35.61,0,0,1-7.28,8.53c-2.31,1.89-4.51,1.71-7.12.53-1.45-.67-2.9-1.37-4.3-2.14a19.43,19.43,0,0,1-7.82-7.11c-1.62-2.81-2.48-6-3.71-9-2.39-5.82-6.47-8.93-11.86-11.89-.57-.31-1.07.55-.51.86,3.54,1.95,7.12,4,9.42,7.41,2,2.9,2.85,6.36,4.14,9.57,2.49,6.16,6.82,9.61,12.7,12.44,2.25,1.08,4.82,2.54,7.36,1.56,2.88-1.11,5.38-4.19,7.23-6.54,2.35-3,4-6.43,6.53-9.31a29.81,29.81,0,0,1,8.6-6.78l-.74-.56c-1.43,6-5.15,10.91-8.76,15.81-2.49,3.38-7.1,8-3.9,12.25,2.94,3.92,8.43,6.59,12.93,8.2,1.41.5,3,.7,4.34,1.24.61.24.82,0,1.23.67a7,7,0,0,1-.13,2.52c-.52,4.72-3.42,8.09-8.41,6.45a20.37,20.37,0,0,1-7.8-4.92c-1.28-1.27-2-2.69-3.94-2.44a18.84,18.84,0,0,1-3.57.47,6.63,6.63,0,0,0-1,0,4.27,4.27,0,0,0-2.41,1c-1.85,1.48-2.88,3.75-4.75,5.27a14,14,0,0,1-8.65,3.13c-4.46,0-6.8-2.61-9.27-6a18.45,18.45,0,0,1-3.91-9.05,12.74,12.74,0,0,0-.58-3.18c-.59-1.58-1.71-2.83-1.8-4.57-.07-1.48.77-2.69.77-4.14a8.8,8.8,0,0,0-1.17-3.38c-1.61-3.78-1.31-7.24-1.13-11.21a8.5,8.5,0,0,0-2.32-6.71c-1.26-1.37-2.71-2.56-3.24-4.44a6.39,6.39,0,0,1,1.24-5.69c.39-.51-.48-1-.87-.51Z" transform="translate(-794.25 -480.63)"/></g><path class="cls-7" d="M854.19,547c.94-1.35,4-6,4.87-7.36a106.21,106.21,0,0,1,14.34-18,35.45,35.45,0,0,1,7.32-6,15.23,15.23,0,0,1,9-2.2c1.74.18,3.62.92,4.32,2.51.87,2-.42,4.2-1.85,5.81s-3.16,3.24-3.32,5.38a4.33,4.33,0,0,1-.22,1.57c-.18.39-.55.69-.73,1.09A3.72,3.72,0,0,0,888,532c.11.71,0,1.61-.74,1.83.6,0,.79.87.58,1.43a12.4,12.4,0,0,0-.81,1.58,4.67,4.67,0,0,0,.5,2.39,5.39,5.39,0,0,1-5,7l3.76,3.9a1,1,0,0,1,.34.66c0,.41-.57.56-.85.87-.83.92.86,2.69-.08,3.5-.25.22-.64.28-.84.55a1.29,1.29,0,0,0-.08.91,5.2,5.2,0,0,1-1.15,3.85,2.31,2.31,0,0,0-.62,1c0,.25,0,.53-.1.75-.24.41-1,.32-1.17.75-.11.23,0,.5-.07.75-.14.72-1.27.74-1.62,1.38a3.57,3.57,0,0,0-.21.81,2.77,2.77,0,0,1-.94,1.16c-2,1.68-4.31,3.46-6.92,3.25-2.23-.18-4.06-1.77-5.65-3.34a94.81,94.81,0,0,1-9.82-11.36,3.43,3.43,0,0,1-.72-1.39c-.09-.52-1-5.12-.53-5.33" transform="translate(-794.25 -480.63)"/><path class="cls-2" d="M854.62,547.28C861,538,866.81,528.68,875,520.83a25.6,25.6,0,0,1,9-6.06c3.22-1.11,12.46-1.56,9.25,4.8-1.14,2.28-3.54,3.69-4.47,6.11a32.11,32.11,0,0,0-1.24,4c-.18.79,0,3.44-.48,3.76-.28.19-.36.7,0,.86.88.4-.35,1.93-.46,2.45a3.68,3.68,0,0,0,.21,1.86c.31,1.66.84,2.88,0,4.55a5,5,0,0,1-4.17,2.66.51.51,0,0,0-.35.85l1.88,2c.2.22,1.86,1.68,1.87,2,0,.62-.6.79-.81,1.36s.14,1.13.18,1.73c.07,1.14-.66,1.2-.92,2-.45,1.39.08,2.64-.78,4.08a24.42,24.42,0,0,1-1.37,2.19c-.29.38-.73.59-1,1-.4.65.33.23-.37,1.06-.19.21-.67.32-.9.52-1.09.94-1.43,2.33-2.64,3.25-1.72,1.29-3.71,2.5-6,2.06-3.35-.65-6.2-4.54-8.37-6.93q-1.62-1.8-3.17-3.69c-1.2-1.48-2.95-3.17-3.57-5-.28-.84-1.16-4.23-.66-4.85s-.31-1.21-.71-.71c-.86,1.09,0,3.88.27,5.09.66,3,3.46,5.64,5.38,7.88,2.54,3,5.47,6.93,9.07,8.64,3,1.42,5.81.22,8.29-1.65a21.35,21.35,0,0,0,4.26-4.78c1.23-1.69,2.76-3.52,3.07-5.75a4.83,4.83,0,0,0,0-1.37.91.91,0,0,1,.67-1c.12-.2.29-.26.42-.52a2,2,0,0,0,.1-.8c.07-1.48-.51-1,.24-2.71.28-.65.51-.62.25-1.38-.2-.6-1.15-1.26-1.57-1.7l-2.5-2.61-.36.86a6,6,0,0,0,5.69-5.44,8.88,8.88,0,0,0-.25-2.25,12.37,12.37,0,0,1,.31-3.7c.1-.88.09-1.59-.8-2v.86c.81-.53.88-1,1-2a47.63,47.63,0,0,1,1-5.61c.84-3.5,5.13-5.16,5.34-9,.39-6.67-9.87-4.63-13.23-3-7,3.43-12.64,10.58-17.32,16.64-3.81,4.94-7,10.31-10.53,15.45-.37.53.5,1,.86.5Z" transform="translate(-794.25 -480.63)"/><path class="cls-8" d="M855.34,549c0,1.65-1.34,3.15-1.13,4.8a5.63,5.63,0,0,0,1,2.22,37.5,37.5,0,0,0,5.41,6.86,35.93,35.93,0,0,0,3.85,3l4.41,3.12a9.25,9.25,0,0,0,2.68,1.47,3.07,3.07,0,0,0,2.89-.5,7.16,7.16,0,0,1-6.55-2,18.18,18.18,0,0,1-3.79-6,31.32,31.32,0,0,0-3.31-6.34c-1.49-2-3.53-3.51-4.7-5.68-.29-.53-.46-1.31,0-1.63" transform="translate(-794.25 -480.63)"/><path class="cls-2" d="M854.84,549c-.17,1.41-1.06,2.68-1.13,4.1a5.3,5.3,0,0,0,1.1,3.17,31.53,31.53,0,0,0,6.41,7.76,94.86,94.86,0,0,0,7.76,5.6c1.79,1.22,3.79,2.1,5.75.75a.5.5,0,0,0-.38-.91c-6,1.14-8.62-5.27-10.59-9.66a22.67,22.67,0,0,0-2.58-4.61c-.89-1.17-5.64-5.12-4.57-6.71.36-.53-.5-1-.86-.5-1.14,1.68.9,3.65,2,4.85a30.76,30.76,0,0,1,5.66,8.57c2.07,4.67,5.26,10.16,11.23,9l-.38-.91c-2.44,1.68-5.34-1.16-7.27-2.53a51,51,0,0,1-6.27-4.77,35.58,35.58,0,0,1-4.77-6.09,5.1,5.1,0,0,1-.75-4.6,11.12,11.12,0,0,0,.67-2.53c.07-.64-.93-.64-1,0Z" transform="translate(-794.25 -480.63)"/><path class="cls-9" d="M856,542.46l10.24-13.27a61.31,61.31,0,0,1,8.39-9.44,30.83,30.83,0,0,1,16.78-7.17,5.08,5.08,0,0,1,2.6.23c1.65.73,2.18,3,1.62,4.67a11.43,11.43,0,0,1-3.2,4.32,10.77,10.77,0,0,0-3.14,4.35,26.83,26.83,0,0,0,3.18-6.74,4.58,4.58,0,0,0,.23-2.73,3.26,3.26,0,0,0-2.32-2,7.22,7.22,0,0,0-3.17,0c-7.23,1.33-13.2,6.47-17.78,12.22s-8.14,12.26-12.85,17.91a5.66,5.66,0,0,0-.42-2.57" transform="translate(-794.25 -480.63)"/><path class="cls-2" d="M856.41,542.71l10.24-13.26c3.44-4.45,7-8.86,11.78-11.88a30.1,30.1,0,0,1,6.8-3.18c2.55-.82,5.86-1.92,8.32-.77,1.29.6,1.6.78,1.72,2.12a4.15,4.15,0,0,1-.45,2.24,11.85,11.85,0,0,1-2.76,3.46,12.86,12.86,0,0,0-3.27,4.57c-.2.55.62.85.92.39,1.68-2.67,5.78-9,2.12-11.58-3.5-2.51-9.73.71-12.82,2.6-10.35,6.35-15.36,18-22.8,27.07l.85.36a8.57,8.57,0,0,0-.43-2.7c-.2-.61-1.17-.35-1,.27a5.28,5.28,0,0,1,.4,2.43c0,.4.57.7.86.35,5.82-7.11,10-15.54,16.54-22.06A28.48,28.48,0,0,1,885,515.75c3.21-1,8-1.57,6.93,3.53a21.28,21.28,0,0,1-3.13,6.62l.92.38c1.42-3.84,9-7.61,5.94-12.57-2.34-3.77-10.05-.67-13.06.57-5.68,2.35-10.12,6.28-14,11-4.52,5.52-8.76,11.28-13.12,16.93-.39.51.48,1,.86.5Z" transform="translate(-794.25 -480.63)"/><path class="cls-8" d="M856.54,544.24l-.34.94a1.35,1.35,0,0,0,0,1.28c.53.67,1.67-.16,2.47.17a2.77,2.77,0,0,1-1.24,1.68,9.43,9.43,0,0,0-1,.55,1,1,0,0,0-.47.95" transform="translate(-794.25 -480.63)"/><path class="cls-2" d="M856.05,544.11c-.3.84-.92,2-.13,2.78s1.75,0,2.61.23l-.35-.62c-.36,1.14-1.21,1.29-2,2a1.63,1.63,0,0,0-.67,1.35.5.5,0,0,0,1,0c0-.63,1.47-1.18,1.89-1.63a3.5,3.5,0,0,0,.78-1.41.51.51,0,0,0-.35-.62,3.42,3.42,0,0,0-1.46,0c-1.24.18-.55-1.14-.31-1.78s-.75-.87-1-.27Z" transform="translate(-794.25 -480.63)"/><g class="cls-10"><path class="cls-8" d="M878.17,518.23c3-1,6.78.29,8,3.2a10.61,10.61,0,0,1,.55,3.93l.09,7.91c.46.21,1-.27,1.06-.76a8.4,8.4,0,0,0-.09-1.5,4.63,4.63,0,0,1,.22-1.38,26.42,26.42,0,0,1,3.18-7.11,18.38,18.38,0,0,0,2.29-4.07,4.19,4.19,0,0,0-.82-4.36c-1.35-1.25-3.48-1-5.25-.47a29.3,29.3,0,0,0-7.43,3.31c-.19.12-.41.31-.35.53s.51,0,.33-.11" transform="translate(-794.25 -480.63)"/><path class="cls-8" d="M878.3,518.72c3.42-.91,7.08.58,7.73,4.31.58,3.29.22,6.91.26,10.24a.5.5,0,0,0,.5.5,1.42,1.42,0,0,0,1.54-1.13c.27-.87-.09-1.95.13-2.88a21.54,21.54,0,0,1,1.46-4c1.42-3,4.84-6.2,4.2-9.83-.51-2.92-3.28-3.6-5.85-3.09a24,24,0,0,0-5.79,2.08c-1,.5-3,1.1-3.36,2.36a.5.5,0,0,0,.23.56.65.65,0,0,0,.72.08.51.51,0,0,0,.37-.48v-.14c-.06-.63-1.06-.64-1,0,0,.12,4.49-1.94,4.73-2.05a24.46,24.46,0,0,1,3.69-1.29c2.08-.51,4.38-.47,5.26,1.9.52,1.42-.42,3.2-1.1,4.39-2.09,3.64-4.89,7.31-4.7,11.72,0,.71,0-1,0-1.22l0-2c0-1.42,0-2.84-.06-4.26a7.85,7.85,0,0,0-1.25-4.51c-1.8-2.43-5.11-3-7.89-2.3a.5.5,0,0,0,.26,1Z" transform="translate(-794.25 -480.63)"/></g><g class="cls-10"><path class="cls-8" d="M884.84,545.52a61.46,61.46,0,0,1-11.51.27q4,.88,7.85,2.16c1.8.58,3.89,1.63,4,3.52-1.4.67-1.18,2.66-1.06,4.2a6.75,6.75,0,0,1-2,5.67,9.71,9.71,0,0,1-4.66,1.71,30.54,30.54,0,0,1-7.49.7,10.26,10.26,0,0,1-6.78-2.86,20.89,20.89,0,0,0,5.77,7.56,8.19,8.19,0,0,0,2.43,1.47,6.52,6.52,0,0,0,5.82-1.29,19.07,19.07,0,0,0,4-4.69l1.34-2c1.15-1.67,2.34-3.48,2.32-5.51,0-.81.06-2,.87-2l-.75.75c.7-.07.91-1,.79-1.71s-.33-1.51.14-2c.19-.22.49-.38.54-.67a.85.85,0,0,0-.24-.63,28.84,28.84,0,0,0-3.27-3.71,1.49,1.49,0,0,1,1-.63" transform="translate(-794.25 -480.63)"/><path class="cls-8" d="M884.84,545a67,67,0,0,1-11.51.27.5.5,0,0,0-.13,1c1.91.44,3.81.92,5.69,1.48,1.61.48,3.84.9,5,2.28s.26,1.34-.15,2.52a8.61,8.61,0,0,0-.1,3.12c.08,2.13-.4,4.41-2.31,5.66a12.58,12.58,0,0,1-4.9,1.4c-4.44.75-9.32,1.18-12.84-2.2a.51.51,0,0,0-.79.61c2.19,4.64,7.08,11.47,13,8.9,2.88-1.25,4.62-4,6.33-6.5a22.46,22.46,0,0,0,2.79-4.62c.26-.7.35-3.74,1-4l-.49-.84-.75.76c-.42.42.11,1,.61.78.72-.32.85-.71,1-1.46.07-.26,0-.55,0-.81a2.24,2.24,0,0,1,.41-2,1.76,1.76,0,0,0,.24-.42,2.23,2.23,0,0,0-.52-1.4c-.34-.52-2.81-3.09-2.28-3.28s.35-1.18-.26-1a2.29,2.29,0,0,0-1.27.76.51.51,0,0,0,0,.71c.59.57,1.17,1.16,1.72,1.78s1,1.19,1.48,1.82a1.23,1.23,0,0,1-.27.75c0,.47-1,3.74-.79,3.63l.61.79.75-.76c.34-.34,0-1-.48-.84-1.63.57-1.08,2.46-1.41,3.83-.68,2.74-3.06,5.51-4.74,7.71-2.56,3.35-6.37,5.61-10.16,2.57a20.7,20.7,0,0,1-5.69-7.46l-.79.6c4.32,4.14,10.82,3.28,16.17,2,2.29-.54,4.18-1.64,5.07-3.89a8,8,0,0,0,.53-2.64c.06-1.49-.67-3.81.8-4.82a.52.52,0,0,0,.23-.56c-.29-1.75-1.56-2.71-3.11-3.41a50,50,0,0,0-9.06-2.63l-.14,1a67,67,0,0,0,11.51-.27c.64-.07.64-1.07,0-1Z" transform="translate(-794.25 -480.63)"/></g><path class="cls-7" d="M855,547.42c-.94-1.35-4-6-4.87-7.35a105.89,105.89,0,0,0-14.34-18,35.78,35.78,0,0,0-7.32-6,15.32,15.32,0,0,0-9.05-2.2c-1.73.19-3.61.92-4.32,2.52-.86,2,.43,4.2,1.86,5.8s3.16,3.24,3.32,5.38a4.55,4.55,0,0,0,.21,1.57c.19.4.56.69.74,1.09a3.84,3.84,0,0,1-.08,2.12c-.11.7.05,1.61.73,1.82-.59,0-.78.87-.57,1.43a12.4,12.4,0,0,1,.81,1.58,4.67,4.67,0,0,1-.5,2.39,5.4,5.4,0,0,0,5,7l-3.75,3.91a.93.93,0,0,0-.34.65c0,.41.57.56.85.87.83.92-.86,2.69.08,3.5.25.22.64.28.84.55a1.29,1.29,0,0,1,.08.91,5.2,5.2,0,0,0,1.14,3.85,2.24,2.24,0,0,1,.63,1c0,.25,0,.53.1.75.24.41,1,.32,1.17.75.11.23,0,.5.07.75.14.72,1.27.74,1.62,1.38a4.18,4.18,0,0,1,.21.81,2.64,2.64,0,0,0,.94,1.16c2,1.68,4.31,3.46,6.92,3.25,2.23-.18,4.06-1.77,5.65-3.34a94.51,94.51,0,0,0,9.81-11.35,3.55,3.55,0,0,0,.73-1.4c.09-.52,1-5.12.53-5.33" transform="translate(-794.25 -480.63)"/><path class="cls-2" d="M855.44,547.17c-3.54-5.14-6.72-10.5-10.53-15.45-4.68-6.06-10.29-13.21-17.32-16.63-3.37-1.64-13.62-3.67-13.24,3,.22,3.81,4.5,5.49,5.35,9a37.72,37.72,0,0,1,1,5.34c.09,1,.06,1.64,1,2.25v-.86c-.78.35-.9,1-.84,1.77.08,1.19.71,2.22.49,3.53a9.69,9.69,0,0,0-.39,2.64,6,6,0,0,0,5.68,5.44l-.35-.85-2.5,2.6c-.43.44-1.37,1.1-1.58,1.7-.25.76,0,.73.26,1.38.75,1.74.19,1.23.23,2.71a2,2,0,0,0,.11.8c.09.2.31.34.41.52a.91.91,0,0,1,.68,1,5.23,5.23,0,0,0,0,1.37c.32,2.23,1.84,4.06,3.08,5.75a21.35,21.35,0,0,0,4.26,4.78c2.47,1.87,5.31,3.08,8.28,1.66,3.61-1.73,6.53-5.68,9.07-8.64,1.93-2.26,4.73-4.93,5.39-7.89.27-1.21,1.13-4,.27-5.09-.4-.5-1.11.21-.71.71s-.39,4-.65,4.77c-.54,1.7-2.21,3.4-3.31,4.75s-2.26,2.72-3.45,4c-2.12,2.34-4.64,5.7-7.74,6.71-2.26.74-4.16-.11-6-1.39s-1.25-1.38-2.81-3.15c-.19-.22-.11-.29-.42-.55a5.21,5.21,0,0,1-1.24-1.4c-.2-.28-.51-.55-.72-.82a25.37,25.37,0,0,1-1.65-2.56c-.85-1.41-.34-2.68-.78-4.08-.23-.7-1-.75-1-1.75,0-.66.49-1.22.27-1.92s-.83-.75-.83-1.42,3.16-3.29,3.75-3.91a.51.51,0,0,0-.36-.85,5.08,5.08,0,0,1-4.17-2.65c-.85-1.68-.32-2.89,0-4.56a3.9,3.9,0,0,0,.21-1.86c-.11-.52-1.35-2.05-.46-2.45.36-.16.28-.67,0-.86-.5-.33-.32-2.94-.46-3.7s-.76-1.91-.91-2.53a9.89,9.89,0,0,0-.33-1.43c-.9-2.45-3.32-3.89-4.49-6.16-.8-1.55-.46-4,1.18-4.89a6.6,6.6,0,0,1,2.46-.65,13.06,13.06,0,0,1,5.61.74,25.12,25.12,0,0,1,9,6.06c8.19,7.83,14,17.2,20.37,26.44.36.53,1.23,0,.86-.5Z" transform="translate(-794.25 -480.63)"/><path class="cls-8" d="M853.86,549.36c0,1.66,1.34,3.15,1.13,4.8a5.45,5.45,0,0,1-1,2.22,37.11,37.11,0,0,1-5.4,6.86,38.14,38.14,0,0,1-3.85,3l-4.42,3.12a9.07,9.07,0,0,1-2.67,1.47,3.08,3.08,0,0,1-2.89-.51,7.17,7.17,0,0,0,6.55-2,18.34,18.34,0,0,0,3.79-6,31.58,31.58,0,0,1,3.31-6.34c1.49-2,3.53-3.51,4.7-5.68.29-.52.46-1.3-.05-1.63" transform="translate(-794.25 -480.63)"/><path class="cls-2" d="M853.36,549.36a10,10,0,0,0,.54,2.2,5.27,5.27,0,0,1-.38,4.57,28.28,28.28,0,0,1-5,6.46,48.62,48.62,0,0,1-5.9,4.5c-2,1.41-5.13,4.52-7.64,2.79l-.39.92c6,1.13,9.17-4.36,11.23-9a31.44,31.44,0,0,1,5.66-8.57c1.07-1.2,3.12-3.17,2-4.85-.36-.53-1.22,0-.86.51,1.07,1.58-3.69,5.53-4.57,6.7a23.2,23.2,0,0,0-2.59,4.61c-2,4.39-4.56,10.81-10.58,9.66a.5.5,0,0,0-.38.92c1.82,1.25,3.71.56,5.43-.53a80,80,0,0,0,8.08-5.83,32.71,32.71,0,0,0,6.16-7.4,6,6,0,0,0,1.35-3.18c0-1.56-1-2.92-1.13-4.45-.07-.63-1.07-.64-1,0Z" transform="translate(-794.25 -480.63)"/><path class="cls-9" d="M853.22,542.85,843,529.59a61.39,61.39,0,0,0-8.39-9.45A30.9,30.9,0,0,0,817.81,513a5.18,5.18,0,0,0-2.6.23c-1.65.73-2.18,3-1.62,4.68a11.48,11.48,0,0,0,3.2,4.31,10.72,10.72,0,0,1,3.13,4.35,27.47,27.47,0,0,1-3.18-6.73,4.7,4.7,0,0,1-.22-2.74,3.23,3.23,0,0,1,2.32-2,7.07,7.07,0,0,1,3.17,0c7.23,1.33,13.2,6.47,17.78,12.22s8.14,12.26,12.84,17.91a5.88,5.88,0,0,1,.42-2.56" transform="translate(-794.25 -480.63)"/><path class="cls-2" d="M853.65,542.6c-4.36-5.65-8.61-11.4-13.12-16.93-3.85-4.71-8.29-8.66-14-11-3-1.24-10.72-4.35-13.06-.57-3.06,4.95,4.52,8.74,5.94,12.57l.92-.38a21.18,21.18,0,0,1-3.13-6.62c-1.07-5.1,3.72-4.5,6.92-3.52a28.56,28.56,0,0,1,11.59,7.38c6.55,6.52,10.72,15,16.54,22.06a.5.5,0,0,0,.85-.35,5.42,5.42,0,0,1,.41-2.43c.19-.61-.77-.88-1-.27a8.87,8.87,0,0,0-.44,2.7l.86-.35c-7.46-9.1-12.46-20.7-22.8-27.07-3.11-1.92-9.22-5.05-12.77-2.65-3.78,2.56.41,9,2.07,11.62.29.46,1.12.17.92-.38a12,12,0,0,0-3-4.3c-1.57-1.58-5.17-5-3.06-7.5.95-1.1,2.89-1.2,4.18-1,.65.08,1.28.18,1.92.3,1.06.21,2.1.48,3.12.79a30.14,30.14,0,0,1,7.18,3.3c4.58,2.87,8,7,11.27,11.21q5.38,7,10.75,13.94c.39.5,1.26,0,.87-.51Z" transform="translate(-794.25 -480.63)"/><path class="cls-8" d="M852.66,544.63l.34.94a1.35,1.35,0,0,1,0,1.28c-.54.67-1.68-.16-2.47.18a2.78,2.78,0,0,0,1.23,1.67,10.49,10.49,0,0,1,1,.55,1,1,0,0,1,.47,1" transform="translate(-794.25 -480.63)"/><path class="cls-2" d="M852.18,544.77c.24.65.91,2-.31,1.79a3.27,3.27,0,0,0-1.46,0,.5.5,0,0,0-.35.62,3.5,3.5,0,0,0,.78,1.41c.45.48,1.88,1,1.89,1.64a.5.5,0,0,0,1,0,1.63,1.63,0,0,0-.67-1.35c-.83-.68-1.68-.82-2-2l-.35.62c.87-.24,1.85.48,2.61-.23s.16-1.95-.14-2.78c-.21-.6-1.18-.34-1,.27Z" transform="translate(-794.25 -480.63)"/><g class="cls-10"><path class="cls-8" d="M831,518.63c-3-1-6.78.28-8,3.19a10.61,10.61,0,0,0-.55,3.93l-.09,7.92c-.46.2-1-.28-1.06-.77a7.6,7.6,0,0,1,.09-1.5,4.63,4.63,0,0,0-.22-1.38,26.56,26.56,0,0,0-3.18-7.11,17.78,17.78,0,0,1-2.29-4.07,4.21,4.21,0,0,1,.81-4.36c1.36-1.25,3.49-1,5.26-.47a29.45,29.45,0,0,1,7.43,3.31c.19.12.41.31.35.53s-.51,0-.33-.11" transform="translate(-794.25 -480.63)"/><path class="cls-8" d="M831.16,518.14c-2.76-.73-6-.14-7.85,2.25a7.4,7.4,0,0,0-1.28,4.16c-.08,1.38,0,2.78-.06,4.17l0,2c0,.22-.09,2.59-.05,1.72.2-4.17-2.37-8-4.49-11.4a6.73,6.73,0,0,1-1.35-4.11c.25-2.8,2.83-3.07,5-2.6a22.81,22.81,0,0,1,3.25,1.05c.24.1,5.51,2.47,5.51,2.38.06-.64-.94-.63-1,0v.14a.5.5,0,0,0,.37.48.63.63,0,0,0,.72-.08.5.5,0,0,0,.23-.56c-.31-1.16-2-1.68-3-2.16a25.88,25.88,0,0,0-5.85-2.21c-2.65-.6-5.66-.07-6.2,3-.62,3.53,2.6,6.51,4,9.45a21.94,21.94,0,0,1,1.52,3.92c.28,1.07,0,2.22.25,3.23a1.45,1.45,0,0,0,1.55,1.2.51.51,0,0,0,.5-.5c0-3.32-.36-7,.26-10.24.69-3.71,4.28-5.24,7.72-4.32a.5.5,0,0,0,.27-1Z" transform="translate(-794.25 -480.63)"/></g><g class="cls-10"><path class="cls-8" d="M824.36,545.92a61.37,61.37,0,0,0,11.5.26c-2.64.59-5.26,1.31-7.84,2.16-1.8.58-3.89,1.63-4,3.52,1.39.67,1.17,2.66,1.06,4.2a6.74,6.74,0,0,0,2,5.67,9.61,9.61,0,0,0,4.66,1.71,31,31,0,0,0,7.48.71,10.28,10.28,0,0,0,6.78-2.87,20.76,20.76,0,0,1-5.76,7.56,7.79,7.79,0,0,1-2.43,1.47A6.55,6.55,0,0,1,832,569a18.85,18.85,0,0,1-4-4.69l-1.35-2c-1.14-1.67-2.33-3.48-2.31-5.51,0-.81-.06-2-.87-2l.75.75c-.7-.07-.91-1-.8-1.71s.34-1.51-.13-2c-.19-.23-.5-.39-.54-.68a.85.85,0,0,1,.24-.63,28.1,28.1,0,0,1,3.27-3.7,1.51,1.51,0,0,0-1-.64" transform="translate(-794.25 -480.63)"/><path class="cls-8" d="M824.36,546.42a66.92,66.92,0,0,0,11.5.26l-.13-1a49,49,0,0,0-9.06,2.62c-1.55.7-2.82,1.66-3.11,3.41a.53.53,0,0,0,.23.57c1.42,1,.77,3,.78,4.46a8.51,8.51,0,0,0,.55,3c.9,2.26,2.79,3.35,5.07,3.89,5.34,1.28,11.85,2.12,16.17-2l-.79-.6a20.73,20.73,0,0,1-5.69,7.46c-3.79,3-7.62.78-10.16-2.56-1.69-2.22-4.06-5-4.74-7.72-.33-1.37.22-3.25-1.41-3.82-.48-.17-.82.49-.48.83l.75.76.61-.79c.14.07-.76-3.17-.8-3.63a1.26,1.26,0,0,1-.26-.75c.38-.52.79-1,1.21-1.51.63-.73,1.3-1.42,2-2.09a.52.52,0,0,0,0-.71,2.35,2.35,0,0,0-1.27-.76c-.61-.22-.87.75-.27,1s-1.79,2.65-2,2.95c-.54.7-.77.93-.77,1.73,0-.25.62,2.19.49,1.46,0,.3,0,1.34.13,1.69.19.79.31,1.18,1.06,1.53.49.22,1-.36.61-.79l-.76-.76-.48.84c.64.22.73,3.26,1,4a22.46,22.46,0,0,0,2.79,4.62c1.71,2.49,3.45,5.25,6.33,6.5,5.93,2.57,10.83-4.26,13-8.9a.5.5,0,0,0-.79-.6c-3.39,3.24-8.07,3-12.38,2.27-1.75-.28-3.84-.48-5.37-1.48-1.91-1.26-2.37-3.53-2.3-5.66a8.84,8.84,0,0,0-.1-3.12c-.26-.75-.91-1.12-.7-2,.39-1.59,3.81-2.32,5.08-2.7,2-.62,4.06-1.14,6.12-1.62a.5.5,0,0,0-.14-1,66.92,66.92,0,0,1-11.5-.26c-.64-.08-.64.93,0,1Z" transform="translate(-794.25 -480.63)"/></g><path class="cls-2" d="M854.44,540.85a50.38,50.38,0,0,0-3.35-9.15,16.49,16.49,0,0,0-2.16-3.73,4.43,4.43,0,0,0-.64-.66l-.52-.39c-.49-.47-.73-.4-.71.22.59-.26.08-1.12-.51-.87l-.12.05a.5.5,0,0,0-.24.44v.15a.49.49,0,0,0,.24.43c4.2,2.69,5.84,9.17,7.05,13.78a.5.5,0,0,0,1-.27Z" transform="translate(-794.25 -480.63)"/><path class="cls-2" d="M856.06,541a49.47,49.47,0,0,1,1.94-7.38,31.71,31.71,0,0,1,1.56-3.81c.45-.86,1.21-1.46,1.64-2.3a.5.5,0,0,0-.29-.73l-.12,0a.49.49,0,0,0-.61.35l0,.08c-.13.63.84.9,1,.27l0-.09-.62.35.12,0-.3-.73c-.42.81-1.2,1.45-1.64,2.29a29.06,29.06,0,0,0-1.35,3.21,48.66,48.66,0,0,0-2.26,8.23c-.11.62.85.89,1,.26Z" transform="translate(-794.25 -480.63)"/><path class="cls-2" d="M854.86,540.4a3.18,3.18,0,0,0-2.92,4.46,1,1,0,0,0,.63.64c.3.07.67-.24.54-.52a4.23,4.23,0,0,0-.71,3.26c.15,1.13.55,2.22.77,3.34.6,3.11-.15,6.54,1.31,9.36.09.16.23.35.42.32s.23-.18.29-.32c1-2.46.18-5.29.5-7.94.16-1.37.64-2.68.87-4a5.45,5.45,0,0,0-.6-4c-.07.45.65.67,1,.37a1.56,1.56,0,0,0,.34-1.28,10.32,10.32,0,0,0-.32-2,3.14,3.14,0,0,0-.82-1.56,1.31,1.31,0,0,0-1.64-.15" transform="translate(-794.25 -480.63)"/><path class="cls-2" d="M854.86,539.9c-2.21.23-4.05,2-3.62,4.34.22,1.2,1.83,2.75,2.35.87a.5.5,0,0,0-.91-.38c-1.89,2.93.14,6.87.27,10,.07,1.66-.23,6.26,1.82,7a.46.46,0,0,0,.48-.13c1.87-2.06.67-6.08,1-8.55.35-2.91,1.73-5.56.18-8.34-.26-.48-1.13-.15-.91.38.76,1.87,2.23.35,2.31-1,.1-1.9-1-5.19-3.41-4.18-.59.24-.33,1.21.26,1a2.25,2.25,0,0,1,2,2,1.93,1.93,0,0,1-.2,2l-.91.38c1.4,2.52,0,5.12-.33,7.71-.14,1.16.68,6.83-.26,7.44,0,.54-.09.43-.28-.35a4,4,0,0,1-.34-1,12.63,12.63,0,0,1-.29-2.2c-.09-1.21,0-2.41-.16-3.61-.22-2.59-1.88-5.52-.33-7.93l-.91-.38c-.69-2.38,0-3.69,2.23-4,.64-.06.64-1.06,0-1Z" transform="translate(-794.25 -480.63)"/></svg>