<svg id="Calque_1" data-name="Calque 1" xmlns="http://www.w3.org/2000/svg" viewBox="0 0 121.17 124.22"><defs><style>.cls-1{fill:#3a3938;}.cls-2{fill:#1d1d1b;}.cls-3{opacity:0.38;}.cls-4{fill:#2e2d2c;}.cls-5{fill:#fff;}.cls-6{fill:#dadada;}.cls-7{fill:#575756;}.cls-8{opacity:0.19;}</style></defs><title>44</title><path class="cls-1" d="M801.31,486.71l1.12,100.68c0,2.28.09,4.69,1.31,6.62,2.36,3.72,7.6,3.87,12,4,11,.36,21.88,3.3,32.93,3.57a137.24,137.24,0,0,0,15.82-.86l36.64-3.4c2.23-.2,4.71-.54,6.1-2.29,1.66-2.09,1-5.1.48-7.71-2.42-12.41.85-25.12,2.15-37.7,1.72-16.55,0-33.24-1.71-49.79L907,488.43a3.15,3.15,0,0,0-3.73-3.64c-12.8-.16-25.6.12-38.4.39-21.15.45-42.32.9-63.42,2.53l.33,2.28" transform="translate(-793.18 -479.15)"/><path class="cls-2" d="M800.31,486.71l1,91.71c0,3.62-.07,7.27.16,10.89a9.77,9.77,0,0,0,2.33,6.42c3.47,3.6,9.26,3.12,13.81,3.38,7.26.42,14.41,1.83,21.61,2.72a104.46,104.46,0,0,0,22.29.18c7.59-.66,15.18-1.4,22.77-2.1l11.38-1.06c3-.28,6.22-.22,9.08-1.11,5.58-1.75,4.51-7,3.74-11.6-1.29-7.62-.48-15.4.56-23,1-7.09,2.06-14.14,2.37-21.3a196.11,196.11,0,0,0-.47-22.48c-.53-7.47-1.33-14.92-2.1-22.37a92.67,92.67,0,0,0-1.07-9.85,3.92,3.92,0,0,0-3.88-3.33c-4.09-.41-8.38-.08-12.49-.05s-8.53.07-12.79.15q-12.86.21-25.69.53c-17.19.4-34.38,1-51.52,2.27a1,1,0,0,0-1,1.27l.33,2.28c.19,1.27,2.12.73,1.93-.54l-.33-2.27-1,1.26c28-2.14,56.07-2.58,84.1-2.9,3.44,0,6.89-.07,10.34-.06,1.8,0,3.61,0,5.41,0a16.15,16.15,0,0,1,2,0c2.31.36,2.6,1.66,2.83,3.59.8,6.72,1.42,13.48,2.06,20.22,1.3,13.61,2.14,27.35.63,41-.77,6.95-2.07,13.83-2.64,20.8a68.88,68.88,0,0,0-.2,9.42c.17,3.21,1,6.3,1.29,9.48.16,1.6.14,3.37-1.14,4.54a7.54,7.54,0,0,1-4.27,1.45c-3.51.43-7,.66-10.57,1l-20.8,1.93c-7.06.66-14.16,1.53-21.27,1.41s-14-1.36-20.91-2.34c-2.9-.41-5.81-.79-8.73-1s-6-.11-9-.58c-2.71-.44-5.44-1.52-6.51-4.27-1.15-3-.64-6.87-.67-10l-1.07-95.69a1,1,0,0,0-2,0Z" transform="translate(-793.18 -479.15)"/><g class="cls-3"><path class="cls-2" d="M900.71,492.62c-7.55,1.26-15.15,2.52-22.81,2.53-7.13,0-14.27-1.07-21.35-.23a39.89,39.89,0,0,0-17.67,6.62,27.11,27.11,0,0,0-7.3,7c-2.85,4.15-4.09,9.18-5,14.14-2.4,13.81-2.24,27.92-2.07,41.94.13,10.47.28,21.13,3.43,31.13l-20.35-2.3a5.94,5.94,0,0,1-3.26-1.05,5.58,5.58,0,0,1-1.5-2.92,86,86,0,0,1-2.29-14.29c-2.65-28.37-.42-56.93,1.81-85.33a3.94,3.94,0,0,1,.53-2,3.82,3.82,0,0,1,2.82-1.17c32.65-3.87,66-7.71,98.15-.77" transform="translate(-793.18 -479.15)"/><path class="cls-2" d="M900.45,491.65A174.54,174.54,0,0,1,882.68,494c-5.66.36-11.28-.13-16.93-.32-10.18-.36-20.07,1.62-28.41,7.75a26.12,26.12,0,0,0-8.65,10.28c-2.08,4.59-2.93,9.64-3.63,14.59-1.56,11.08-1.66,22.29-1.55,33.45.11,12.15-.08,24.56,3.52,36.29l1-1.26-10.66-1.21-5.81-.66c-1.82-.2-4.47,0-6.07-1s-1.72-3.07-2.07-4.58c-.44-1.88-.78-3.78-1-5.69-.55-3.77-.87-7.56-1.15-11.35a363.31,363.31,0,0,1-.25-44.15c.36-7.53.86-15,1.42-22.57.25-3.43.52-6.86.78-10.3.16-2-.14-4.8,2.26-5.52a38.12,38.12,0,0,1,6.08-.73c14.31-1.67,28.66-3.21,43.07-3.74,16.45-.6,33,.19,49.1,3.61,1.25.27,1.79-1.66.53-1.92-31.22-6.64-63.24-3.41-94.61.28-2.19.26-5.9,0-7.41,2a5.77,5.77,0,0,0-.78,3.08c-.19,2.12-.34,4.24-.5,6.36-.65,8.34-1.26,16.68-1.71,25a377.06,377.06,0,0,0,.05,49.06c.33,4.28.72,8.58,1.41,12.82.47,2.85.71,7.56,3.15,9.58a6.71,6.71,0,0,0,3.52,1.21c2.21.3,4.43.51,6.65.76l14,1.59a1,1,0,0,0,1-1.27c-3.07-10-3.27-20.48-3.4-30.86-.13-10.76-.25-21.55.78-32.27,1-10.09,2.29-21.16,10.53-28.07s18.79-9,29.37-8.62c5.81.23,11.57.67,17.39.25s11.59-1.39,17.35-2.35c1.27-.21.73-2.14-.53-1.93Z" transform="translate(-793.18 -479.15)"/></g><path class="cls-4" d="M794.65,600.83c-.67-38.64-1.74-80.88,0-119.5,52.09-2.1,66.3-2.8,119.2,0-.49,40.08.2,79.54,0,119.5v.45c-38.29,2.15-60.7,2.17-119.2,0Zm10.19-7.35c47.87,1.66,66.51,1.34,97.85-.31h0c1.42-29.77.55-73,0-102.73-43.29-1-55.11-.67-97.73.95-1.43,29.76-.66,70.23-.11,100Z" transform="translate(-793.18 -479.15)"/><path class="cls-2" d="M795.15,600.83c-.63-35.84-1.55-71.7-.45-107.54q.09-3,.21-6l.12-3.21c.07-1.66-.07-2.09,1.57-2.32,4.12-.59,8.54-.35,12.7-.51,7.29-.29,14.57-.57,21.86-.8,12.28-.38,24.57-.57,36.85-.37,6.77.1,13.53.3,20.29.56q5.78.22,11.55.5l6.3.3c1.39.07,6.05-.36,7,.62s.19,5.35.17,6.72c0,2.32,0,4.63,0,6.94q0,7.17-.05,14.34,0,14.07.06,28.12c.07,18.57.19,37.15.15,55.73,0,1.15,0,2.31,0,3.46,0,.48.33,3.06,0,3.47a27.45,27.45,0,0,1-3.68.18c-2.88.15-5.75.3-8.63.43q-8.29.39-16.6.64c-25.8.73-51.61,0-77.4-.86-1.34,0-11.89-.37-11.89-.39a.5.5,0,0,0-1,0v.45a.51.51,0,0,0,.5.5c31.83,1.18,63.68,2.24,95.52,1.11,7.9-.28,15.79-.67,23.68-1.11a.51.51,0,0,0,.5-.5c0-40-.48-80,0-119.95a.5.5,0,0,0-.5-.5c-29.86-1.58-59.6-2.22-89.49-1.16-9.91.35-19.81.76-29.71,1.16a.51.51,0,0,0-.5.5c-1.77,39.81-.7,79.68,0,119.5A.5.5,0,0,0,795.15,600.83Z" transform="translate(-793.18 -479.15)"/><path class="cls-2" d="M804.84,594c26.12.9,52.25,1.56,78.38.59,6.49-.24,13-.56,19.47-.9a.51.51,0,0,0,.5-.5c1.27-27,.83-54.08.38-81.1-.11-7.21-.25-14.42-.38-21.63a.52.52,0,0,0-.5-.5c-24.39-.58-48.73-.75-73.11.05-8.21.27-16.42.59-24.62.9a.51.51,0,0,0-.5.5c-1.31,27.76-.87,55.61-.41,83.38.11,6.24.33,12.47.29,18.71a.5.5,0,0,0,1,0c.07-12.63-.42-25.27-.56-37.9-.17-14.77-.22-29.55.05-44.32.07-3.47.15-6.94.26-10.41,0-1.54.1-3.08.16-4.62l.09-2.25c0-1.19-.23-1.91,1.08-2.15,3.59-.64,7.66-.29,11.32-.42l10.35-.37c11.47-.38,22.94-.66,34.42-.68q8.94,0,17.87.13c3.54.05,7.09.12,10.64.19l5.87.13c1.25,0,4.85-.45,5.31.67s.07,3.39.09,4.6l.09,4.79c.06,3.34.12,6.67.17,10q.18,10.64.3,21.27c.14,14.18.19,28.37-.08,42.55q-.09,4.95-.25,9.91c0,1.45-.09,2.9-.15,4.36l-.09,2.12c0,1.25.13,1.3-.89,1.65a15.63,15.63,0,0,1-3.82.19l-4.31.21c-2.48.12-5,.23-7.43.33-22.9.91-45.8.61-68.71-.09l-12.28-.4C804.2,593,804.2,594,804.84,594Z" transform="translate(-793.18 -479.15)"/><path class="cls-2" d="M795.27,481.83c.75,6.9,4.29,13.17,9.11,16.11-.42,32.68.53,100.26.46,95.54,14.56,1.1,30.63,1,45.21,1.1,18,.1,34.67.28,52.64-1.41-2.79,3.6-5.59,2.18-8.41,5.74a8.76,8.76,0,0,1-2.72,2.59,6.31,6.31,0,0,1-2.67.47q-30.27.93-60.55-.17c-5.37-.19-10.75-.43-16.12-.67l-16.89-.76.84-4.6-.81,1.8c-1.58-38.22-1.58-76.56,0-114.78" transform="translate(-793.18 -479.15)"/><path class="cls-2" d="M794.77,481.83a24.63,24.63,0,0,0,5.67,13.42,26.89,26.89,0,0,0,2.55,2.34c.94.83.88,1.09.87,2.32,0,1.93,0,3.87-.05,5.8-.06,9,0,18,0,26.93q.11,25.15.41,50.29c0,3.59.08,7.19.14,10.78a.5.5,0,0,0,1,0c0-.47,0,.38.39.33,2-.21,4.32.29,6.34.39,4.34.22,8.67.35,13,.44,8.32.17,16.64.17,25,.21,17.56.09,35.13.21,52.64-1.41l-.36-.85c-1.47,1.71-3,2.28-5,3.17a11,11,0,0,0-3.91,3.18c-1.9,2.16-3.83,2.29-6.53,2.36-2.31.07-4.63.12-6.95.17q-14.13.28-28.29.14c-18.79-.19-37.56-1.13-56.33-2l.48.63.84-4.59c.1-.52-.66-.94-.91-.39l-.82,1.8.94.25q-2.36-57.36,0-114.78c0-.64-1-.64-1,0q-2.36,57.36,0,114.78c0,.45.71.73.93.25l.81-1.79-.91-.39-.85,4.6a.51.51,0,0,0,.49.63c19.76.89,39.52,1.86,59.31,2q14.9.11,29.78-.27c3.55-.09,6.94.45,9.46-2.42a13.34,13.34,0,0,1,5.35-3.87,9.85,9.85,0,0,0,3.81-2.79c.25-.29.11-.89-.35-.85-16.53,1.53-33.12,1.52-49.7,1.43-16-.09-32.13.06-48.15-1.12a.5.5,0,0,0-.5.5,1.85,1.85,0,0,0,0,.23h1c-.41-27.82-.67-55.65-.56-83.48,0-2.23,0-4.46,0-6.69l0-3.13a7.89,7.89,0,0,0,0-2.61c-.38-.78-1.59-1.21-2.25-1.8a18,18,0,0,1-3.11-3.63,24.54,24.54,0,0,1-3.73-10.54c-.08-.63-1.08-.64-1,0Z" transform="translate(-793.18 -479.15)"/><path class="cls-5" d="M837.17,508.73a7.22,7.22,0,0,1,0-7l.83,2.65a15.52,15.52,0,0,1,1.8-4.7l.13,1.94,2.17-2.89a2,2,0,0,1,.63,1.84l1.85-1.95a2,2,0,0,1,.64,1.25l1-1.51c.12-.18.28-.39.51-.39s.43.5.4.85l-.26,2.82a9,9,0,0,0,1.88-2.76l.13,2.5,1.43-1.27a4.69,4.69,0,0,1-.13,3.05,9.47,9.47,0,0,1,2-1.46L851,505a21.07,21.07,0,0,0,3.82-3.3q-2.1,4-4,8.11a27.17,27.17,0,0,0-10.08-.55,19.72,19.72,0,0,1-3.24.3c-.27,0-.63-.11-.64-.39s.57-.05.32.06" transform="translate(-793.18 -479.15)"/><path class="cls-5" d="M837.6,508.47a7,7,0,0,1,0-6.5l-.92-.12.83,2.65a.51.51,0,0,0,1,0,17.82,17.82,0,0,1,1.74-4.59l-.93-.25.13,1.94a.5.5,0,0,0,.93.26l2.17-2.9-.78.1.48,1.49a.51.51,0,0,0,.86.36l1.84-2-.78-.1.58,1.13a.51.51,0,0,0,.92.12l.48-.75c.42-.73.55-.75.4-.08a8.8,8.8,0,0,1-.21,2.35.51.51,0,0,0,.86.36,12.22,12.22,0,0,0,2-2.87l-.93-.25.13,2.5a.51.51,0,0,0,.86.35l1.42-1.26-.83-.22a4.21,4.21,0,0,1-.13,2.78.5.5,0,0,0,.83.49,8.8,8.8,0,0,1,1.88-1.39l-.74-.56-1,3.28a.51.51,0,0,0,.74.56A26.3,26.3,0,0,0,855.2,502l-.79-.61c-.83,1.61-1.66,3.22-2.45,4.84-.27.55-.67,2.07-1.18,2.45-.86.63-1.64.19-2.61.06a27.52,27.52,0,0,0-5.13-.24c-.8,0-1.58.12-2.37.2l-.87.13a4.72,4.72,0,0,0-2.72.7l-.35-.62,0,.13c-.12.63.84.9,1,.27l0-.13a.51.51,0,0,0-.35-.62l-.21-.06a.48.48,0,0,0-.48.13l-.14.13a.51.51,0,0,0-.08.61c.83,1.11,2.43.57,3.63.42a30.39,30.39,0,0,1,10.63.44.5.5,0,0,0,.57-.23q1.92-4.09,4-8.11c.26-.48-.37-1-.78-.6a24.93,24.93,0,0,1-3.73,3.22l.74.56,1-3.28a.51.51,0,0,0-.74-.56,13.56,13.56,0,0,0-2.07,1.54l.83.49a6.24,6.24,0,0,0,.13-3.32.5.5,0,0,0-.83-.22L848.43,501l.85.36-.13-2.5c0-.46-.7-.73-.93-.25a10.85,10.85,0,0,1-1.8,2.66l.85.35c.11-1.25.79-3.09-.29-4a.55.55,0,0,0-.61-.08c-.81.34-1.19,1.38-1.64,2.08l.92.11a2.6,2.6,0,0,0-.69-1.37.51.51,0,0,0-.78-.1l-1.85,2,.85.35a3,3,0,0,0-.78-2.2c-.22-.28-.61-.12-.78.1l-2.17,2.9.93.25-.13-1.94a.5.5,0,0,0-.93-.26,18.49,18.49,0,0,0-1.85,4.83h1l-.83-2.65a.51.51,0,0,0-.92-.12,8,8,0,0,0,0,7.52c.29.57,1.16.07.86-.51Z" transform="translate(-793.18 -479.15)"/><path class="cls-6" d="M837.59,509.37l.52,3.61a1.39,1.39,0,0,1-.05.88c-.14.27-.55.41-.75.19a3.62,3.62,0,0,0,1.15,2.61c.89,1.09,1.76,2.2,2.61,3.31a22.33,22.33,0,0,1,2.18,3.29,19.79,19.79,0,0,1,1.3,3.44,3.07,3.07,0,0,1,.19,1.3c-.13,1-1.12,1.9-.72,2.81a1.47,1.47,0,0,0,1.83.6,5.8,5.8,0,0,0,1.72-1.2,11,11,0,0,1,4-2.14,1.22,1.22,0,0,0,.68-.36c.3-.42-.08-1-.44-1.36l-2.94-3.08a1.13,1.13,0,0,1-.42-.77,1.15,1.15,0,0,1,.34-.65,21.25,21.25,0,0,0,3.75-7,.83.83,0,0,0,.06-.44c-.07-.37-.59-.49-.92-.31a1.79,1.79,0,0,0-.68.89,4.42,4.42,0,0,1-.88-3.1,2.86,2.86,0,0,0,0-1.2c-.22-.7-1-1-1.75-1.13a21,21,0,0,0-8.83-.07c-.64.14-1.43.75-1,1.25" transform="translate(-793.18 -479.15)"/><path class="cls-6" d="M837.11,509.5c0,.33.54,4.12.33,4.07a.5.5,0,0,0-.63.48c.12,2.54,2.65,4.58,4.07,6.49a18.51,18.51,0,0,1,2.62,4.54,5.58,5.58,0,0,1,.39,3.82c-.14.59-.42.61-.44,1.23a1.74,1.74,0,0,0,1.87,1.87,3.74,3.74,0,0,0,2.07-1c.67-.48,1.26-1,2-1.46s1.77-.6,2.49-1.07c.89-.57,1.14-1,.65-2s-2.1-1.81-2.72-2.93-.93-.52-.11-2.06c.36-.69.93-1.33,1.32-2,.5-.85,2.6-4.19,2-5.3-.72-1.34-2-.29-2.46.58h.86c-.89-1.43-.39-2.63-.8-4.05a2,2,0,0,0-.41-.8c-.87-1-2.86-1.05-4-1.19-1.59-.18-8.48-.9-8.17,2,.07.64,1.07.65,1,0-.12-1.13,4.14-1.19,4.94-1.19,1.42,0,3.52,0,4.76.65s.93,3.57,1.85,5a.5.5,0,0,0,.86,0c.71-.77.84-.7.37.23a17.43,17.43,0,0,1-.88,2.09A20.62,20.62,0,0,1,849.5,520c-.66,1-1.78,1.82-1.43,3.06s2.11,2,2.77,3a1.14,1.14,0,0,1,.57,1.5l-.72.24a23.79,23.79,0,0,1-2.15,1,17.45,17.45,0,0,1-1.82,1.38c-.67.82-1.33.53-2-.85.11-.23.21-.46.31-.69a10.6,10.6,0,0,0-.6-3.9,18.28,18.28,0,0,0-2.48-4.47c-1.25-1.7-4.07-4.15-4.17-6.3l-.64.49c2.59.55,1.06-4.22.91-5.31-.1-.63-1.06-.36-1,.27Z" transform="translate(-793.18 -479.15)"/><path class="cls-7" d="M843.41,530.7c-1.78-.33-3.46,1.07-4.38,2.63s-1.4,3.38-2.45,4.87c-.57.81-1.31,1.51-1.81,2.37a10.38,10.38,0,0,0-1.09,4,141.83,141.83,0,0,0-1.61,18.84l2.07-.79c.94,2,4.61-.4,6,1.28A30.59,30.59,0,0,1,841,545.2a28.46,28.46,0,0,1,6.75,19.16,68.16,68.16,0,0,1,23.64-1.55,48.92,48.92,0,0,0-5.14-24.67c3,.74,6.61,2.23,6.69,5.3.05,1.75-1.17,3.24-1.95,4.82s-.9,3.87.64,4.7a78.19,78.19,0,0,0,8.09-11.6,1.68,1.68,0,0,0,0-2.26l-11-15.94a4.27,4.27,0,0,0-1.62-1.62,4.17,4.17,0,0,0-2.72.06,86.27,86.27,0,0,0-12.62,4.25,1.49,1.49,0,0,1,.35,2,4.37,4.37,0,0,1-1.75,1.42l-3.87,2.15a3.82,3.82,0,0,1-2.06.67c-.73-.06-1.46-.73-1.29-1.44" transform="translate(-793.18 -479.15)"/><path class="cls-7" d="M843.41,530.2c-2.27-.15-3.94,1.32-5,3.22a50.3,50.3,0,0,1-2.26,4.53,17.64,17.64,0,0,0-2.24,3.24c-1.21,3-1.2,6.86-1.55,10a111.64,111.64,0,0,0-.79,12.26.51.51,0,0,0,.64.48,4.69,4.69,0,0,1,1.82-.56c.31,0,.77.47,1.12.56,1.45.34,3.38-.78,4.64.36a.5.5,0,0,0,.83-.48,31.13,31.13,0,0,1,.82-18.49l-.83.22a28.6,28.6,0,0,1,6.6,18.81.51.51,0,0,0,.63.48,70.17,70.17,0,0,1,23.51-1.53.5.5,0,0,0,.5-.5,50.7,50.7,0,0,0-5.21-24.92l-.56.73c1.86.49,4,1.11,5.36,2.6,2,2.27.07,4.57-.92,6.78-.84,1.88-1,4.08.82,5.39a.5.5,0,0,0,.61-.08c2.95-3.54,6.58-7.7,8.31-12,.63-1.56-.1-2.29-1-3.64l-4.94-7.17c-1.55-2.26-3.09-4.52-4.66-6.77-.86-1.24-1.63-2.62-3.25-2.85-2-.29-4.45.84-6.33,1.41-2.88.89-5.71,1.93-8.49,3.1a.5.5,0,0,0-.22.83c2.24,2.19-7.68,6.23-7.77,4.46,0-.64-1-.64-1,0,.16,3.42,4.12,1.19,5.65.34s6.41-3,3.83-5.51l-.23.84a94.91,94.91,0,0,1,9.41-3.37c.76-.22,1.52-.44,2.29-.64,1.47-.39,1.54-.43,3.15.35a5.27,5.27,0,0,1,2.65,2.34L871,527.4l5.49,8c.78,1.14,2.33,2.67,2.74,4,.58,1.86-1.08,3.71-2,5.16q-1.2,1.88-2.49,3.66c-.58.81-1.17,1.6-1.79,2.38-.27.35-.55.69-.83,1-.27.56-.51.45-.73-.32-1.58-1.82,1.71-5,2-7.08.55-4-3.91-5.71-7-6.52a.5.5,0,0,0-.57.73,50.32,50.32,0,0,1,4,11.45,49.24,49.24,0,0,1,.95,6.39c.06.77.74,5.09.12,5.7-.87.87-4.06,0-5.24,0-2.22-.06-4.45,0-6.66.15a72,72,0,0,0-11.41,1.79l.63.49a29.55,29.55,0,0,0-6.9-19.51c-.26-.32-.72-.1-.83.22a31.88,31.88,0,0,0-.82,19l.84-.48c-1.59-1.44-4.89.35-5.92-1.18a.51.51,0,0,0-.57-.23l-2.07.79.63.48a143.06,143.06,0,0,1,1.48-17.9,11.61,11.61,0,0,1,1.55-5.29c.58-.85,1.3-1.58,1.83-2.47,1.49-2.52,2.22-6.86,6-6.6.65,0,.64-1,0-1Z" transform="translate(-793.18 -479.15)"/><path class="cls-6" d="M841.83,531.19c-3.77,4.44,3.72,8.18,6.06,10.82s4,6,5.86,9.1c1.31,2.2,2.92,4.56,5.34,5.66,5.3,2.41,2.5-7.78,2-10.06-1.61-7.23-4.4-14.42-3.12-21.94.11-.63-.85-.9-1-.26-.8,4.67-.14,9.25,1,13.82.62,2.61,1.36,5.2,2,7.82.29,1.24.56,2.48.76,3.73s.8,3.61.48,4.87c-.93,3.72-5.31-2.13-6.17-3.51-1.34-2.16-2.48-4.44-3.87-6.56a25.38,25.38,0,0,0-4.25-5.11c-1.94-1.72-7.07-4.46-4.34-7.67.41-.49-.29-1.2-.71-.71Z" transform="translate(-793.18 -479.15)"/><path class="cls-6" d="M839.89,532.67c.23,5.59,3.8,9.94,7.44,13.88,2.17,2.35,4.35,5.43,6.9,7.35a1.65,1.65,0,0,0,2.62-.25c1.39-1.8.77-5.64.68-7.69-.17-3.82-.5-7.64-.76-11.45l-.35-5.26c-.08-1.24.22-3.77-.36-4.83-.38-.68-.66-.94-1.32-.41-.12.1.06.28.18.18,1-.82,1.14,3.43,1.15,3.63l.23,3.34.48,7.17c.15,2.22.32,4.45.45,6.67.11,2,.72,5.52-.14,7.3-1.84,3.81-5.38-1.43-6.57-2.71-1.38-1.47-2.77-2.92-4.11-4.42-3.19-3.58-6.06-7.54-6.27-12.5a.13.13,0,0,0-.25,0Z" transform="translate(-793.18 -479.15)"/><path class="cls-6" d="M841.45,531.89a55.16,55.16,0,0,1,8.25,11.17c.73,1.23,2.36,5.82,4.47,5.13.92-.3,1.34-2.27,1.57-3.07a20.32,20.32,0,0,0,.74-5.43c.07-4.63-.94-9.2-1-13.84a.12.12,0,0,0-.24,0l-.23.72c0,.15.2.22.24.06-.4,1.3.18,3.35.32,4.7.17,1.66.39,3.32.51,5a31.66,31.66,0,0,1,.08,4.67c-.07.94-.41,6-1.56,6.41l-2.5-.66-.88-1.51c-.36-.63-.73-1.26-1.1-1.89-.82-1.39-1.65-2.76-2.53-4.11a45.89,45.89,0,0,0-6-7.49c-.11-.11-.29.07-.17.18Z" transform="translate(-793.18 -479.15)"/><path class="cls-6" d="M839.84,536.68A139.86,139.86,0,0,0,848.58,554c1.44,2.4,5.22,9.52,9,8.38,1.67-.51,1.54-2.55,1.56-3.93.06-3.26,0-6.52-.1-9.78-.13-6.95-.07-13.9,1.56-20.69,0-.16-.21-.23-.24-.07-2.46,10.27-1,20.59-1.48,31-.07,1.75.18,1.75-1.78,2.35s-1.63.61-2.87-.4a17,17,0,0,1-3.17-3.49,73.45,73.45,0,0,1-3.85-6.29,140.5,140.5,0,0,1-7.12-14.53c-.06-.15-.28,0-.21.12Z" transform="translate(-793.18 -479.15)"/><path class="cls-6" d="M842.2,536.35a55,55,0,0,0,4.95,8.19c.76,1,1.77,3.25,3.18,3.15,1.85-.13,3.58-3.1,4.46-4.43a11.24,11.24,0,0,0,1.72-3.53c.43-1.89.16-3.74,1-5.59.07-.15-.15-.27-.21-.13-.81,1.86-.55,3.71-1,5.65a13.47,13.47,0,0,1-4.46,6.82c-1.67,1.13-2.32.68-3.41-.71-.89-1.13-1.74-2.3-2.53-3.5a56.34,56.34,0,0,1-3.45-6c-.08-.15-.29,0-.22.12Z" transform="translate(-793.18 -479.15)"/><path class="cls-6" d="M842.35,532.09c.13,1,.49,2.64,1.46,3.27.62.4,1.52,0,1.34-.78a.13.13,0,0,0-.23,0,5.42,5.42,0,0,0-.74,2c0,.16.21.23.24.07a5.45,5.45,0,0,1,.71-1.91l-.23,0-1.11.37a1.9,1.9,0,0,1-.34-.42,5.28,5.28,0,0,1-.33-.62,6.17,6.17,0,0,1-.52-1.89c0-.16-.27-.16-.25,0Z" transform="translate(-793.18 -479.15)"/><path class="cls-6" d="M847.25,539.68c-.39,1.19-.85,3.05.51,3.84a1.32,1.32,0,0,0,2-1,.13.13,0,0,0-.22-.09,3.23,3.23,0,0,0-.41,3.63c.08.15.29,0,.22-.12a3.07,3.07,0,0,1-.36-1.57,2.17,2.17,0,0,1,.23-.94c.37-.66-.07-.71-1.34-.12-1.28-.67-.74-2.53-.4-3.56,0-.15-.2-.22-.24-.07Z" transform="translate(-793.18 -479.15)"/><path class="cls-6" d="M852.23,549.91a1.3,1.3,0,0,0,1.61,1l-.16-.15a4.7,4.7,0,0,0,.32,3.58.13.13,0,0,0,.15.06,1.21,1.21,0,0,0,.81-.91c0-.15-.21-.22-.25-.06l-.62.54a4.62,4.62,0,0,1-.23-.62,4.11,4.11,0,0,1-.15-.92,4.64,4.64,0,0,1,.21-1.61.12.12,0,0,0-.15-.15,1.06,1.06,0,0,1-1.3-.86c0-.16-.27-.09-.24.06Z" transform="translate(-793.18 -479.15)"/><path class="cls-6" d="M856.5,540.56a.13.13,0,0,0,0-.25.13.13,0,0,0,0,.25Z" transform="translate(-793.18 -479.15)"/><path class="cls-6" d="M855.91,526.94a2.47,2.47,0,0,0,2.42-3.12c0-.12-.26-.11-.25,0,.07.61.1,1.45-.56,1.75-.15.07,0,.28.12.22.76-.34.76-1.26.69-2l-.24,0a2.21,2.21,0,0,1-2.18,2.8c-.16,0-.16.24,0,.25Z" transform="translate(-793.18 -479.15)"/><g class="cls-8"><path class="cls-2" d="M837.87,502.22a2.13,2.13,0,0,0,1.54,2.64c.38.08.82.07,1.09.35.49.51,0,1.48.43,2,.29.33.84.33,1.12.66s.1,1.06-.17,1.54a11.22,11.22,0,0,0-1.56,4.55,4.75,4.75,0,0,0,1.84,4.24c.49.33,1.08.57,1.32,1.1a3.58,3.58,0,0,1,.06,1.5,3,3,0,0,0,4.37,2.52c.07,1.22-1,2.16-1.73,3.15a6.2,6.2,0,0,0-1,4.69c-.83.57-1.87-.61-1.79-1.61s.72-1.9.77-2.9a5.25,5.25,0,0,0-1.34-3.2l-6.58-9.13a1.73,1.73,0,0,0,1.89-1.58,3.88,3.88,0,0,0-.87-2.58,12,12,0,0,1-1.52-2.32,7.35,7.35,0,0,1,.15-4.74,1.16,1.16,0,0,1,.46-.77c.27-.15.71.06.63.36" transform="translate(-793.18 -479.15)"/><path class="cls-2" d="M837.74,502.19a2.35,2.35,0,0,0,.6,2.21c.15.15.36.25.5.38a2.77,2.77,0,0,1,1.76,1.43,2.25,2.25,0,0,0,0,.58c-.52-.61.24.51.25.55a.93.93,0,0,1,.74,1.18,1.26,1.26,0,0,1-.2,1.57c-.46,1.58-1.32,2.85-1.2,4.58a5.07,5.07,0,0,0,.91,2.69c.42.58,1.07.79,1.49,1.28,2,2.39.39,1.51.87,2.76a3.47,3.47,0,0,0,1.77,2.08c.63.3,1.78,0,2.21.2s-1.85,3.43-2.14,4.2c0,0-.37,1.64-.38,1.66q.23,2.13-1.32-.68c.17-.47.33-1,.49-1.43.59-3-2.37-5.61-4-7.82-.75-1-3.63-4-3.26-5.18.17-.55,1.18-.75,1.32-1.64a4,4,0,0,0-.89-2.67c-.85-1.34-1.65-2-1.83-3.81a8.27,8.27,0,0,1,.28-2.37,1,1,0,0,1,1.07-1.17c.07.14.29,0,.21-.12l-.18-.35a.14.14,0,0,0-.11-.06c-1.3,0-1.34,1.88-1.45,2.87a5.71,5.71,0,0,0,.28,2.81,8.54,8.54,0,0,0,1.11,1.76l.41.56c1,1.2.67,2.52-.91,4-.09,0-.17.1-.11.18l4.39,6.09c1.51,2.1,3.92,4.41,3.27,7.24-.28,1.19-1,4.26,1.42,3.57a.12.12,0,0,0,.09-.12c-.27-2.43.73-3.87,2-5.8a4.17,4.17,0,0,0,.82-2c0-.11-.12-.14-.19-.11a2.7,2.7,0,0,1-3.78-1.49c-1.09-2.45.27.33-.36-1.72-.29-.94.08-.54-.51-1.26-1-1.24-1.79-.75-2.5-2.75a5.81,5.81,0,0,1-.25-2c0-1.93,1.47-3.26,1.79-5a1.43,1.43,0,0,0-.07-1.11s0,0,0-.06l-.56-.34a1.81,1.81,0,0,1-.72-1.52c-.16-.24,0-.53-.27-.82s-.39-.15-.54-.27c-1-.84-2.36-.51-2-2.59,0-.15-.22-.22-.25-.06Z" transform="translate(-793.18 -479.15)"/></g><g class="cls-3"><path class="cls-2" d="M840.42,532.08a2.86,2.86,0,0,0-2.63,1.6c-.55.94-.8,2-1.27,3-1.08,2.23-3.28,3.82-4.12,6.14-.9,2.51,0,5.25.42,7.87a26.23,26.23,0,0,1,0,9c-.16,1,0,2.49,1,2.47a1.43,1.43,0,0,0,1.11-.85c1.22-2.15.38-4.83.34-7.31a10.94,10.94,0,0,1,2.78-7.41,1.14,1.14,0,0,1,.71-.45,1.19,1.19,0,0,1,.82.43,27.9,27.9,0,0,1,8.49,18.31l4-3a2.09,2.09,0,0,0,.87-1,2.12,2.12,0,0,0-.21-1.43l-6.64-16.78a5.38,5.38,0,0,1-.54-2.24,4.25,4.25,0,0,1,.69-1.9c.9-1.52,2.18-2.78,3.16-4.25a6.33,6.33,0,0,0,1.24-5,10.75,10.75,0,0,1-9.26,2.66" transform="translate(-793.18 -479.15)"/><path class="cls-2" d="M840.42,532c-2.68.09-3,2.68-4,4.66-1.39,2.79-4.16,4.57-4.5,7.87-.36,3.55,1.18,7.12,1.2,10.68,0,1.75-.57,3.6-.41,5.3,0,.52.07,1.36.64,1.64,1.36.69,2.1-1.36,2.3-2.3a14.58,14.58,0,0,0-.08-4.17,11.84,11.84,0,0,1,1.24-7c.57-1,1.21-2.64,2.74-2,.49.21,1.3,1.32,1.65,1.72a27.23,27.23,0,0,1,3.58,5.19A28.37,28.37,0,0,1,848,564.85c0,.09.11.17.19.11,1.51-1.11,5-2.59,5-4.76,0-1.47-1.44-3.78-2-5.16l-2.27-5.74q-1.14-2.87-2.27-5.74c-.46-1.17-1.09-2.4-.77-3.72s1.54-2.61,2.37-3.67c1.61-2.07,3.07-4.14,2.6-6.88a.13.13,0,0,0-.21,0,11,11,0,0,1-9.13,2.63c-.16,0-.23.22-.07.24a11.81,11.81,0,0,0,3.89,0,11.32,11.32,0,0,0,2.22-.65,26.87,26.87,0,0,1,2.66-1.55c.85.1.07,2.6-.11,3a17.86,17.86,0,0,1-2.31,3.42c-.87,1.13-2,2.31-2.21,3.76s.5,2.71,1,4l2.62,6.62,2.45,6.18c.8,2,1.85,3.31-.23,5.41a11,11,0,0,1-2.69,2c-.91,0-1-3.41-1.2-4.14a28.41,28.41,0,0,0-1.67-4.91c-1.32-3-3.44-6.82-6.14-8.75-1.72-1.23-2.86,1.36-3.5,2.75a11.08,11.08,0,0,0-1,4,18.91,18.91,0,0,0,.14,2.91c0,.42.09.84.12,1.26.09,1.53.3,1.52-1.25,2.26-1.74.82-1.31,1-1.09-.81.07-.6.14-1.2.18-1.81a27,27,0,0,0,0-3.6c-.17-2.39-.94-4.71-1.1-7.1-.23-3.38,1.33-5.14,3.22-7.63,1.41-1.85,2.28-6.34,5-6.43.16,0,.16-.26,0-.25Z" transform="translate(-793.18 -479.15)"/></g><path class="cls-5" d="M832.43,568.21c-.88-2.29-3.27-2.69-5.44-2s-3.2,2.82-3.12,5a4.65,4.65,0,0,0,8.73,2c.63-1.13-1.1-2.14-1.73-1a2.65,2.65,0,0,1-4.86-.21,4,4,0,0,1,.38-3.12c.71-1.05,3.52-1.74,4.11-.22.46,1.19,2.4.67,1.93-.53Z" transform="translate(-793.18 -479.15)"/><path class="cls-5" d="M835,567.07a70.88,70.88,0,0,1,.29,7.43,1,1,0,0,0,2,0,70.88,70.88,0,0,0-.29-7.43c-.12-1.27-2.12-1.29-2,0Z" transform="translate(-793.18 -479.15)"/><path class="cls-5" d="M841.12,567.53q0,3.75.26,7.5l2-.27-.07-.29c-.29-1.26-2.22-.73-1.92.53l.07.3a1,1,0,0,0,2-.27q-.21-3.75-.26-7.5a1,1,0,0,0-2,0Z" transform="translate(-793.18 -479.15)"/><path class="cls-5" d="M837.2,571.66a17.87,17.87,0,0,0,4.07,0c1.27-.14,1.28-2.14,0-2a17.87,17.87,0,0,1-4.07,0c-1.28-.15-1.27,1.85,0,2Z" transform="translate(-793.18 -479.15)"/><path class="cls-5" d="M846.8,575.22q.87-2.22,1.75-4.43a9.67,9.67,0,0,1,.8-1.69c.63-1,.4-.63.77.21,1,2.16,2.41,4,3.41,6.1.56,1.16,2.28.15,1.73-1-.75-1.59-2-2.9-2.73-4.49-.55-1.15-.95-3.36-2.54-3.53-1.35-.15-2.25,1.39-2.74,2.41-.92,1.9-1.6,3.94-2.38,5.9-.47,1.19,1.46,1.71,1.93.53Z" transform="translate(-793.18 -479.15)"/><path class="cls-5" d="M847.85,573.93a35.2,35.2,0,0,0,4.7-.2c1.26-.15,1.28-2.15,0-2a35.2,35.2,0,0,1-4.7.2,1,1,0,0,0,0,2Z" transform="translate(-793.18 -479.15)"/><path class="cls-5" d="M858.88,575.36c0-2.65-.07-5.29-.13-7.94l-1,1a6,6,0,0,1,1.2,0l-1-1c-.19,1.65,1.31,3.4,2.16,4.74a12.8,12.8,0,0,0,3.36,3.71A1,1,0,0,0,865,575c-.19-2.43-.3-4.85-.3-7.29a1,1,0,0,0-2,0c0,2.44.11,4.86.3,7.29l1.51-.86a10.57,10.57,0,0,1-2.65-3c-.61-1-2-2.59-1.88-3.73a1,1,0,0,0-1-1,6,6,0,0,0-1.2,0,1,1,0,0,0-1,1c.06,2.65.11,5.29.13,7.94a1,1,0,0,0,2,0Z" transform="translate(-793.18 -479.15)"/><path class="cls-5" d="M868.09,567.69l.12,4.64c0,1-.23,2.48.18,3.39s1,.77,1.72.8c1.48.06,3,0,4.44-.07,1.28-.06,1.28-2.06,0-2-1.49.07-3.48.43-4.93,0l.7.7a16,16,0,0,1-.13-3.73l-.1-3.77a1,1,0,0,0-2,0Z" transform="translate(-793.18 -479.15)"/><path class="cls-5" d="M868.71,568.33c.69.49,1.62,0,2.39,0a9,9,0,0,1,2.88.31,1,1,0,0,0,.53-1.92,10.7,10.7,0,0,0-5.42-.07l.77.1-.14-.11c-1.05-.74-2.05,1-1,1.73Z" transform="translate(-793.18 -479.15)"/><path class="cls-5" d="M870.42,572.77a14.09,14.09,0,0,1,2.16-.18c.55,0,1.26.18,1.75-.15a1,1,0,0,0,.46-1.13l0-.08a1,1,0,0,0-1.23-.7l-.06,0a1,1,0,0,0,.53,1.93l.06,0-1.23-.7,0,.08.46-1.13c.43-.07.45-.1.07-.1l-.54,0-1,0a19.63,19.63,0,0,0-2,.23c-1.27.2-.73,2.13.53,1.93Z" transform="translate(-793.18 -479.15)"/><path class="cls-5" d="M877.48,568l.32,4.19c.07,1-.14,2.62.35,3.51.4.73,1.12.66,1.87.69l4.08.15c1.29.05,1.28-1.95,0-2l-2.45-.09a10.53,10.53,0,0,1-2.32-.1l.7.7a15.91,15.91,0,0,1-.28-3.46l-.27-3.59c-.1-1.27-2.1-1.28-2,0Z" transform="translate(-793.18 -479.15)"/></svg>