<svg id="Calque_1" data-name="Calque 1" xmlns="http://www.w3.org/2000/svg" viewBox="0 0 147.16 145.41"><defs><style>.cls-1{fill:#fff;}.cls-2{fill:#5f272c;}.cls-3{fill:#ae6546;}.cls-4{fill:#5b9b32;}.cls-5{opacity:0.47;}.cls-6{fill:#063;}.cls-7{fill:#c4143b;}.cls-8{fill:#7d4e24;}.cls-9{fill:#1d1d1b;}.cls-10{opacity:0.27;}.cls-11{fill:#432918;}.cls-12{opacity:0.15;}.cls-13{fill:#6a0f08;}.cls-14{fill:#ef7852;}.cls-15{fill:#2a2219;}.cls-16{fill:#371526;}</style></defs><title>47</title><path class="cls-1" d="M803.57,491.88a368.56,368.56,0,0,0-.44,85.41c.89,7.88,2.75,16.82,9.65,20.73,3.22,1.81,7,2.18,10.71,2.5q10.93,1,21.87,1.78c15.47,1.17,31.11,2.15,46.42-.31a21.84,21.84,0,0,0,8.58-2.78c3.84-2.5,5.94-7,7.24-11.34,4.59-15.36,1.69-31.81,1.21-47.83-.47-15.35,1.21-31.39-4.93-45.46-.64-1.48-1.47-3-2.93-3.7a7.14,7.14,0,0,0-3.12-.44l-83.3.56c-3,0-6.61.41-7.94,3.1" transform="translate(-780.24 -467.93)"/><path class="cls-2" d="M803.07,491.88A378.54,378.54,0,0,0,800.36,537c0,14.36.56,29,2.65,43.2.71,4.85,1.89,10,4.84,14,3.19,4.35,7.89,5.95,13.08,6.56,7.45.86,15,1.3,22.44,1.87s14.89,1.12,22.35,1.3A148.71,148.71,0,0,0,888,603c5.47-.68,11.42-1.36,15.33-5.68s5.32-10.18,6.28-15.6a94.1,94.1,0,0,0,1-20.33c-.3-7.14-1-14.25-1.2-21.38-.21-6.85,0-13.7-.22-20.54a79.82,79.82,0,0,0-2.53-18.85c-1.22-4.34-2.58-10.4-7.93-10.71-8.46-.48-17.11.11-25.59.17l-24.79.17-25.78.17c-3.53,0-7.22-.25-10.72.22-2.3.31-4.38,1.11-5.59,3.18a.5.5,0,0,0,.86.5c1.55-2.64,4.77-2.79,7.51-2.85,3.64-.07,7.28-.05,10.91-.07l20.83-.14,40.66-.28,9.91-.06c2.19,0,4.26-.05,5.64,2a21.21,21.21,0,0,1,2.2,5,66.83,66.83,0,0,1,3.24,18c.38,6.25.25,12.51.3,18.76,0,6.44.46,12.85.87,19.27.81,12.4,1.84,26.38-3.52,38a15.84,15.84,0,0,1-5.46,6.83c-2.79,1.82-6.18,2.38-9.42,2.88A135.32,135.32,0,0,1,870.57,603c-13.72,0-27.45-1.34-41.12-2.49-6.13-.51-13.61-.18-18.55-4.44-4-3.48-5.66-8.93-6.58-14a191,191,0,0,1-2.17-21.48q-.75-11.29-.79-22.61a376.48,376.48,0,0,1,2.71-46.14c.07-.64-.93-.63-1,0Z" transform="translate(-780.24 -467.93)"/><path class="cls-3" d="M835.41,493.66a96.6,96.6,0,0,1-8.74,16.67,62.33,62.33,0,0,0-4.15,6.75c-3.49,7.17-3.16,15.59-1.86,23.45s3.49,15.66,3.46,23.63a53.75,53.75,0,0,1,10.1-1c4.13.1,8.18,1.13,12.29,1.36,4.66.26,9.31-.5,13.94-1.09a183.57,183.57,0,0,1,27.63-1.4c.65,0,1.46,0,1.72-.65a1.67,1.67,0,0,0,0-.86l-.9-7.08a1.58,1.58,0,0,0-.33-.95,1.66,1.66,0,0,0-1.2-.36c-5.29-.11-10.59.18-15.86-.16a25.3,25.3,0,0,1-8.41-1.69c-5.89-2.51-9.65-8.3-12.58-14-3.54-6.88-6.47-14.39-6.09-22.12.15-3,.76-6.22-.63-8.9s-4.73-4.24-6.3-7a12.71,12.71,0,0,0-1.25-2.15,2,2,0,0,0-2.23-.66" transform="translate(-780.24 -467.93)"/><path class="cls-3" d="M834.93,493.52a101.9,101.9,0,0,1-9.17,17.3c-3.17,4.8-5.58,9.39-6.26,15.18-1.51,12.92,4,25.31,4.12,38.16a.51.51,0,0,0,.63.48,53.11,53.11,0,0,1,10-1c3.18.08,6.3.71,9.45,1.09,6.32.78,12.48-.33,18.74-1.06a183.32,183.32,0,0,1,19.74-1.21c1.48,0,3,0,4.45,0a7.21,7.21,0,0,0,2.62-.08c1.87-.71,1-3,.78-4.56s.07-4.4-1-5.62-4.66-.64-6.09-.63c-6.14,0-13,.67-18.88-1.5-5.55-2.05-9.21-7-12-12a56.71,56.71,0,0,1-6.62-17,44,44,0,0,1-.26-10.26c.11-2.53-.14-4.95-1.71-7S839.4,500.32,838,498c-1-1.66-1.74-3.6-4-3-.62.15-.36,1.12.27,1,1.48-.36,4.22,4.36,5.35,5.41,2.23,2.05,4.3,3.73,4.63,7,.26,2.51-.27,5.06-.24,7.58a33.21,33.21,0,0,0,.93,7.15,59.52,59.52,0,0,0,5.61,14.12c2,3.87,4.45,7.74,7.83,10.61a20.32,20.32,0,0,0,11.51,4.5,83.54,83.54,0,0,0,8.66.31c1.33,0,2.65,0,4,0s3.9-.54,5,0c1.46.78,1.37,3.44,1.54,4.79.19,1.52,1.06,3.4-.87,4.11-1,.39-2.82,0-4,0-1.65,0-3.3,0-5,0-5.93.14-11.86.56-17.75,1.28-6.61.8-12.87,1.64-19.51.71a54.29,54.29,0,0,0-9.08-.85,64.16,64.16,0,0,0-8.85,1l.63.49c-.09-12.58-5.39-24.68-4.21-37.32.63-6.62,3.69-11.56,7.18-17a99.83,99.83,0,0,0,8.3-16c.25-.6-.72-.86-1-.27Z" transform="translate(-780.24 -467.93)"/><path class="cls-4" d="M838,494.61q.15,32.6,1.14,65.17c8.07-.62,16.09,1.62,24.19,1.81,6.15.15,12.26-.89,18.32-1.92l6.86-1.17a1.45,1.45,0,0,0,.79-.31,1.43,1.43,0,0,0,.31-1q1.8-32.21.55-64.47c-5.59,1.6-11.53.89-17.32.48A164.83,164.83,0,0,0,839,494.34" transform="translate(-780.24 -467.93)"/><path class="cls-4" d="M837.51,494.61q.15,32.6,1.14,65.17a.5.5,0,0,0,.5.5c10.07-.64,19.91,2.42,30,1.63,4.91-.38,9.76-1.27,14.61-2.1,1.44-.24,4.71-.12,5.8-1.19.76-.74.59-1.94.64-2.91q1.69-31.46.47-63a.5.5,0,0,0-.63-.48c-8.37,2.2-17.4.23-25.92.08a168.47,168.47,0,0,0-25.29,1.53c-.63.08-.36,1.05.27,1a165.32,165.32,0,0,1,27-1.44c8,.23,16.35,1.91,24.24-.17l-.63-.48q.68,17.59.46,35.22-.12,8.67-.45,17.35-.16,4.47-.4,8.92c-.06,1.2.31,3.08-.89,3.79s-3.57.61-4.9.84c-6,1-12.08,2.17-18.21,2.25-5.5.08-10.92-.9-16.37-1.49-2.62-.29-5.3-.13-7.9-.42-.67-.08-.89.26-1.39-.4a8.89,8.89,0,0,1-.06-2c0-1.65-.1-3.29-.14-4.94q-.24-8.88-.42-17.77-.4-19.74-.49-39.5a.5.5,0,0,0-1,0Z" transform="translate(-780.24 -467.93)"/><g class="cls-5"><path class="cls-6" d="M839.13,495.48a58.13,58.13,0,0,1,13.54,3,24.87,24.87,0,0,1,8.19,4.4c3.19,2.78,5.13,6.73,6.39,10.77a43,43,0,0,1-3.33,33.11c-2.11,3.83-5,7.49-9.08,9.07-4.59,1.79-9.85.65-14.57,2-.12,1.43,1.75,2.05,3.18,2.17L864.64,562a16.88,16.88,0,0,0,3.48.06c4.58-.57,8.56-4.94,13-3.85a11,11,0,0,0-9.73,3.51A49.64,49.64,0,0,1,887,558.38a3.28,3.28,0,0,0,2.44-.78,3.1,3.1,0,0,0,.54-1.82c1.63-19.78.93-39.67.24-59.5a2.89,2.89,0,0,0-.57-2,2.75,2.75,0,0,0-1.44-.64c-5.59-1.22-11.38-.27-17.07.34-7.59.81-15.23,1-22.86,1.11a22.37,22.37,0,0,0-6.78.78" transform="translate(-780.24 -467.93)"/><path class="cls-6" d="M839.13,496c8.22.91,18.77,3,23.94,10.12,4.37,6,5.79,14.31,5.54,21.58a40.89,40.89,0,0,1-6.75,21.52c-2.35,3.43-5.48,6.08-9.64,6.9-4,.79-8.11.3-12.08,1.34a.5.5,0,0,0-.37.48c.21,2.35,2.74,2.58,4.65,2.76,4.49.43,9,.79,13.48,1.19,3.77.33,8.06,1.37,11.78.34s7.16-4.31,11.36-3.55l.13-1a11.78,11.78,0,0,0-10.09,3.66c-.32.33,0,1,.49.83a51.36,51.36,0,0,1,14.48-3.23c2.85-.21,4.18-.62,4.45-3.65.87-9.71,1-19.5,1-29.24s.12-19.95-.75-29.77c-.26-3-2.1-3.21-4.85-3.53-4.76-.55-9.53.16-14.26.68-5.21.56-10.45.85-15.7,1-4.77.14-9.91-.38-14.54.95a.5.5,0,0,0,.27,1c3.8-1.1,8-.76,11.89-.85,4.13-.1,8.26-.25,12.38-.56s7.93-.84,11.9-1.18a47.14,47.14,0,0,1,5.7-.19,26.1,26.1,0,0,1,3.64.37c1.65.29,2.26,1.08,2.59,2.84a40.63,40.63,0,0,1,.21,6q.11,3.22.2,6.45.2,6.45.28,12.9c.11,8.27,0,16.54-.36,24.79-.13,2.48-.28,5-.47,7.43-.13,1.75-.66,3.41-2.6,3.58-1.09.1-2.18.15-3.27.27a52.53,52.53,0,0,0-12.41,3.06l.49.84a10.84,10.84,0,0,1,9.38-3.37c.55.07.69-.88.13-1-3.71-.68-6.66,1.42-9.92,2.83-5.06,2.18-11.53.51-16.85,0l-7.71-.68c-1.27-.11-3.14,0-4.35-.47-.57-.24-1.43-.27-1.23-1.24.07-.31,2.62-.41,2.87-.43,4.46-.42,9,0,13-2.46,7-4.31,10.56-13.95,11.87-21.68,1.41-8.36.57-17.73-3.42-25.32-5-9.49-16.59-12.21-26.46-13.31-.63-.07-.63.93,0,1Z" transform="translate(-780.24 -467.93)"/></g><path class="cls-2" d="M819.55,567.65c.28,1.31,2,1.57,3.34,1.54,6-.11,12-.22,18-.88,2.07-.24,6.06.9,8.14.89,2.86,0,3.76-.94,6.6-.71,8.35.68,16.76-1.13,25.11-.39,2.58.22,5.15.7,7.74.8a1.92,1.92,0,0,0,1.47-.36,2,2,0,0,0,.35-1.55l-.41-7.48-21.36,2.77c-6.46.84-13,1.68-19.49,1.06-4.28-.4-8.47-1.43-12.73-1.89s-8.74-.33-12.63,1.47a16,16,0,0,0-2.81,1.69" transform="translate(-780.24 -467.93)"/><path class="cls-2" d="M819.07,567.78c.94,2.29,3.66,1.92,5.72,1.88,4.1-.08,8.21-.18,12.3-.5a38.75,38.75,0,0,1,5.15-.35c1.66.09,3.29.5,4.93.72,3,.41,5.88-.67,8.91-.5,8.54.46,17.07-1.22,25.6-.34a49.82,49.82,0,0,0,6.77.71,2.45,2.45,0,0,0,1.82-.51c.72-.73.49-1.94.45-2.83-.1-2.19-.24-4.37-.36-6.55,0-.25-.21-.54-.5-.5l-18.44,2.39c-6.3.82-12.63,1.79-19,1.64-10.53-.25-22.28-5.66-31.84,1.14-.52.37,0,1.24.51.86,8.44-6,18.6-2.07,27.92-1.2,10,.94,20.27-1.16,30.17-2.45l7.29-.94c.78-.1,2.38-.69,2.95,0,.43.53.19,3.55.23,4.21.06,1.27.45,3.18-1.2,3.75-.89.31-3-.24-3.87-.35a71.48,71.48,0,0,0-7.73-.63c-5,0-10,.55-15,.69-2.39.07-4.77-.18-7.15-.15-1.94,0-3.78.74-5.72.74a50.55,50.55,0,0,1-5.73-.78,30.46,30.46,0,0,0-6.18.24c-2.83.22-5.67.33-8.51.41-1.76,0-7.68,1.06-8.54-1.05-.24-.59-1.21-.33-1,.26Z" transform="translate(-780.24 -467.93)"/><path class="cls-7" d="M816.74,495.8q.53,35.57.42,71.14a2.82,2.82,0,0,0,.25,1.41c.65,1.09,2.28.78,3.47.33a1.59,1.59,0,0,0,1.33-1.87,35.45,35.45,0,0,0-.63-6.16l.71,6.23a1.67,1.67,0,0,0,.39,1.09,1.73,1.73,0,0,0,1.59.15l5.91-1.37a2,2,0,0,0,1.32-.71,2,2,0,0,0,.11-1.39L828.54,546a52.22,52.22,0,0,0-1.89-8.5c-1.11-3.26-2.87-6.31-3.66-9.67a5.93,5.93,0,0,1-.16-2.61,7.39,7.39,0,0,1,1.25-2.47,113.62,113.62,0,0,0,13.81-28.84l-21,1.41" transform="translate(-780.24 -467.93)"/><path class="cls-7" d="M816.24,495.8q.38,25.69.43,51.38,0,6.42,0,12.84c0,2,0,4,0,5.93,0,1.09-.17,2.41.79,3.19,1.18,1,4,.38,4.89-.83,1.25-1.79.07-5.78-.28-7.79-.1-.55-1.05-.43-1,.13.24,2.09.28,4.32.73,6.37.18.83.34,1.38,1.21,1.67,1.32.44,3.49-.58,4.76-.87s2.82-.3,3.72-1.07.63-1.35.59-2.24a64,64,0,0,0-1.29-7.84c-.76-4.6-1.44-9.21-2.3-13.79-.79-4.24-2.44-7.9-4-11.89-1.08-2.82-1.76-5.23,0-8,1.12-1.75,2.26-3.49,3.32-5.28a116.48,116.48,0,0,0,10.55-23.68.51.51,0,0,0-.49-.63l-21,1.41c-.64,0-.64,1,0,1l21-1.41-.48-.63a115.41,115.41,0,0,1-9.12,21.12c-1.7,3.06-4.07,5.94-5.54,9.1-1.2,2.59.14,5.59,1.13,8a56.58,56.58,0,0,1,3.41,9.8c.84,4,1.4,8.09,2.06,12.14l1,5.88c.16,1,.42,2,.49,2.94a2.27,2.27,0,0,1-.3,2.21c0,1-.42,1.47-1.31,1.43-.8.4-4.24,1.4-5.06,1.18-2-.54-1.87-5.35-2.06-7l-1,.14c.27,1.51.82,3.59.58,5.14a2.72,2.72,0,0,1-2.15,2.57c-1.61.22-1.74-1.38-1.86-2.55-.34-3.21,0-6.65,0-9.88q0-10.12,0-20.25-.1-20-.4-40a.5.5,0,0,0-1,0Z" transform="translate(-780.24 -467.93)"/><path class="cls-8" d="M923,468.83c1.91.7,5.15,141.92,2.9,143.17s-141.23,0-141.23,0c-3.16-38.46-5-138.55-2.37-140.26S921.05,468.14,923,468.83ZM810.67,494.45c-1.59,1.15-.47,69.09,1.43,95.2,0,0,83.79.85,85.15,0s-.6-96.71-1.75-97.18S812.26,493.29,810.67,494.45Z" transform="translate(-780.24 -467.93)"/><path class="cls-9" d="M922.58,469.48c-.42-.23-.12-.39-.17,0a4,4,0,0,0,.14.83c.16,1,.22,2.11.3,3.16.27,3.48.45,7,.61,10.46.54,11.25.89,22.5,1.2,33.75.71,25.17,1.28,50.37,1.21,75.56,0,3.94,0,7.88-.15,11.82,0,1.34-.08,2.67-.17,4a12.38,12.38,0,0,0-.22,2.23c.06.43.25.1,0,.05a11.71,11.71,0,0,0-2.28.15c-3.16.13-6.31.16-9.47.2-24.15.28-48.31.09-72.45-.05q-18-.09-36-.23l-12.61-.1a58.43,58.43,0,0,0-7-.06c-.3,0-.63,0-.93,0l.75.75c-2.06-25.27-2.67-50.7-3.2-76-.27-12.74-.46-25.49-.42-38.23,0-7.74-.19-15.65.66-23.36a7.76,7.76,0,0,1,.36-2.08c0,.11-.38,0,.33,0,1.65-.05,3.46-.32,5.16-.42,7.58-.43,15.17-.63,22.76-.84,22.16-.62,44.32-1,66.49-1.29,14.78-.2,29.65-.78,44.43-.25.28,0,.93.08.81.05.92.28,1.32-1.17.4-1.45a12.21,12.21,0,0,0-3.31-.15c-2.68,0-5.35,0-8,0-8.94,0-17.88.12-26.81.22q-34.18.42-68.37,1.24c-8.48.22-17,.44-25.45.84-2.34.11-4.68.21-7,.44-1,.1-2.14,0-2.72.9-.87,1.32-.66,3.95-.76,5.43-.23,3.81-.31,7.64-.37,11.45-.18,11.92-.06,23.84.13,35.76.42,26.9,1.1,53.85,2.9,80.7.15,2.36.33,4.72.52,7.08a.76.76,0,0,0,.75.75q24.33.22,48.67.36c25.55.15,51.09.34,76.64.13,3.72,0,7.44-.07,11.16-.18,1.32,0,3.66.3,4.9-.31s1-2.51,1-3.61c.21-3.17.24-6.36.28-9.54.3-24.7-.32-49.44-1-74.13-.31-12.19-.67-24.38-1.19-36.56-.17-4.21-.36-8.42-.63-12.62a40.54,40.54,0,0,0-.63-6.87c-.1-.44-.13-1-.58-1.23C922.49,467.73,921.73,469,922.58,469.48Z" transform="translate(-780.24 -467.93)"/><path class="cls-9" d="M810.14,493.92c-.53.5-.5,1.58-.57,2.23-.17,1.67-.21,3.35-.26,5-.18,5.93-.16,11.87-.13,17.81q.12,23.94,1,47.86c.28,7.6.6,15.21,1.15,22.8a.77.77,0,0,0,.75.75q28.56.29,57.14.37c8.85,0,17.81.32,26.66-.22,1.56-.1,2.13-.27,2.3-1.89.3-2.83.22-5.73.25-8.57.19-23.46-.38-47-1.18-70.42-.14-4.16-.29-8.32-.53-12.47-.06-1.14.26-4.33-.68-5.24s-4.1-.34-5.21-.34c-4.54,0-9.08,0-13.62.1q-19,.21-37.94.68c-9,.23-18.21.13-27.2,1.06a4.4,4.4,0,0,0-1.8.34.75.75,0,0,0,.76,1.29c1-.59,4.55-.38,6-.46,4.69-.23,9.39-.37,14.09-.51,12.24-.36,24.49-.59,36.74-.78,8.67-.13,17.36-.37,26-.2a3.85,3.85,0,0,0,1.07,0c.83-.25-.42.43-.18-.39a7.36,7.36,0,0,0,.23,1.84c.27,3.28.38,6.58.51,9.86q1.36,34.42,1.38,68.93c0,3.91,0,7.82-.09,11.72,0,1.1-.06,2.2-.15,3.29a4.24,4.24,0,0,0-.09.74c.06.34.53-.14.19-.18-2-.23-5,.2-7.24.23-4.78.06-9.56.07-14.34.07-20.62,0-41.23-.17-61.85-.37H812.1l.75.75c-1-14.15-1.4-28.36-1.74-42.53s-.62-28.39-.38-42.57c0-2.25.08-4.5.22-6.75,0-.71.1-1.42.17-2.13,0-.34.28-.89.08-.69C811.91,494.31,810.84,493.25,810.14,493.92Z" transform="translate(-780.24 -467.93)"/><g class="cls-10"><path class="cls-11" d="M907.86,481.35l-23.25.35-32.48.49-13.69.2c-12.74.19-24.87.63-37.92,1.16a46.43,46.43,0,0,0,8.49,8.18,23.05,23.05,0,0,1,1.64,1.78,22.15,22.15,0,0,0,3.09-.28c11.22-.66,21.72-.65,33-.86,16.32-.3,31.87-.5,48.79.1-2.36-.5-36.14-1.83-33.28-6.36.69-1.09,41.75-4.24,45.64-4.76" transform="translate(-780.24 -467.93)"/><path class="cls-11" d="M907.86,480.85c-35.78.54-71.58.75-107.34,2.2a.5.5,0,0,0-.35.85,57.26,57.26,0,0,0,7.82,7.67c.69.56,1.56,1.87,2.31,2.29a3.62,3.62,0,0,0,2.09,0c9.06-1,18.35-.79,27.45-.92,18.56-.27,37.11-.65,55.66,0,.56,0,.7-.88.14-1-4.42-.84-9.13-.75-13.6-1.16-3.48-.32-7-.69-10.43-1.23a29.39,29.39,0,0,1-7.64-1.83c-1.31-.6-2-1.22-.35-1.55,2.19-.44,4.45-.63,6.67-.88,7-.77,14.06-1.38,21.1-2,5.48-.48,11-.79,16.47-1.49.63-.08.64-1.08,0-1C895,482.5,882,483,869.09,484.48c-1.27.14-8.58,0-7.4,2.76.64,1.5,3.31,2,4.65,2.34a76.07,76.07,0,0,0,9.83,1.64c4.07.48,8.14.83,12.22,1.14a64.83,64.83,0,0,1,7,.59l.13-1c-17.9-.62-35.8-.29-53.71,0-9,.13-18,.18-27.06.72-.91.05-3.13.68-3.82.37s-2.21-2.16-2.85-2.67a52.39,52.39,0,0,1-7.18-7.18l-.36.86c35.76-1.45,71.56-1.66,107.34-2.2a.5.5,0,0,0,0-1Z" transform="translate(-780.24 -467.93)"/></g><g class="cls-10"><path class="cls-11" d="M799.76,483.75q-1.62,57.38,2.36,114.72l-.35.14c.11.92,1.44,1.28,2.52,1.31,3.05.09,6.06-.66,9.11-.67,2.53,0,5,.48,7.56.52,4.17.07,8.22-1.09,12.3-1.86,8.3-1.57,16.87-1.59,25.34-2.09A214.31,214.31,0,0,0,897,590a220.05,220.05,0,0,1-24.22.67c-2.78-.12-5.55-.35-8.33-.43-5.19-.13-10.37.28-15.56.33-2.93,0-5.87-.05-8.8-.13l-27.88-.8-.53.27-.8-38-.19-9-1-47.2a4.65,4.65,0,0,0-.25-1.7,5.43,5.43,0,0,0-1.32-1.65l-8.35-8Z" transform="translate(-780.24 -467.93)"/><path class="cls-11" d="M799.26,483.75q-.81,28.94-.21,57.88.3,14.34,1,28.68.33,7.17.74,14.33c.13,2.3.27,4.61.42,6.91.05.8.68,6.5.48,6.58a.51.51,0,0,0-.35.62c1,2.42,4.6,1.68,6.64,1.47a49.22,49.22,0,0,1,6.41-.46c2.22.08,4.41.48,6.62.51,3.9.05,7.69-.94,11.49-1.69a103,103,0,0,1,13.89-1.64c8.53-.52,17-.79,25.54-1.83a214.59,214.59,0,0,0,25.29-4.63c.54-.13.44-1-.13-1-7.42.48-14.85,1-22.28.74-7.19-.2-14.25-.53-21.45-.28-7.38.26-14.76-.07-22.14-.28l-11-.31-6-.17a5.16,5.16,0,0,0-2.77.28l.75.43L811,532.55,810.41,504c0-2.46-.08-4.92-.15-7.38a6.13,6.13,0,0,0-.76-3.63c-1.11-1.65-3-3-4.46-4.4L802.26,486c-.54-.53-1.91-1.43-2-2.2s-1.07-.64-1,0c.14,1.22,1.06,1.72,2,2.57l5.21,5a14.55,14.55,0,0,1,1.91,1.85c1.16,1.63.93,3.59,1,5.44l.15,6.88.59,28,1.18,56.38a.51.51,0,0,0,.76.43c1.17-.6,3.45-.11,4.75-.07l5.47.15,11,.32c7.21.2,14.39.44,21.61.17,7-.26,13.94.21,21,.36S890,591,897,590.5l-.13-1c-15.59,3.8-31.28,5.46-47.27,6.24a160.08,160.08,0,0,0-22.15,2.82c-4.21.8-8,.51-12.2.24a32.05,32.05,0,0,0-5.54.19c-1.43.16-6.74,1.31-7.5-.53l-.35.62.35-.15a.51.51,0,0,0,.37-.48q-4-57.27-2.36-114.72C800.28,483.11,799.28,483.11,799.26,483.75Z" transform="translate(-780.24 -467.93)"/></g><g class="cls-10"><path class="cls-11" d="M908.67,481.29A9.59,9.59,0,0,0,903,488c-.72,2.8-.41,5.71-.12,8.57.68,6.75,1.24,13.52,1.42,20.3.5,18.59-1.87,37.15-4.24,55.64l-2,15.31a4.57,4.57,0,0,0,.18,2.62,5.21,5.21,0,0,0,1.7,1.77,53.68,53.68,0,0,0,10.74,6.2l.1-21.31c.14-31.59.28-63.21-2.35-94.72" transform="translate(-780.24 -467.93)"/><path class="cls-11" d="M908.42,480.86c-7.23,3.13-6.5,11.06-5.86,17.62a234.4,234.4,0,0,1,1.25,27.66c-.37,18.42-3,36.72-5.36,55-.31,2.43-.81,4.91-.94,7.36a4,4,0,0,0,1.14,3.26c3.07,3.16,7.84,5.33,11.81,7.09a.51.51,0,0,0,.75-.43c.17-38.67.94-77.45-2.25-116-.05-.64-1.05-.65-1,0,3.19,38.58,2.42,77.36,2.25,116L911,598a54.6,54.6,0,0,1-9.67-5.43c-1.29-.92-2.64-2-2.79-3.73a12.47,12.47,0,0,1,.27-2.43l.8-6.22c1-8.07,2.1-16.14,3-24.22,1.87-16.38,2.89-32.78,1.68-49.24-.33-4.5-1-9-1.18-13.49-.23-4.79,1.13-9.44,5.84-11.47.59-.26.08-1.12-.51-.87Z" transform="translate(-780.24 -467.93)"/></g><path class="cls-9" d="M799.34,483.22c-.55.48-.51,1.81-.57,2.45-.22,2.12-.28,4.26-.34,6.39-.22,7.21-.2,14.43-.16,21.64q.18,29.25,1.33,58.49c.36,9.22.76,18.44,1.46,27.64a.39.39,0,0,0,.38.38q35.74.35,71.5.45c11.72,0,23.48.22,35.2-.22,1.46-.05,3,.34,3.43-1.25.72-3,.33-6.66.37-9.74.33-29.38-.46-58.83-1.53-88.19-.19-5.06-.37-10.13-.7-15.18-.07-1.11.25-4.65-.87-5.37-.47-.31-1.76-.1-2.28-.11-1.73,0-3.46,0-5.19,0-5.9,0-11.81.06-17.71.13q-24.24.29-48.48.85c-11.2.27-22.56.18-33.73,1.26a5.22,5.22,0,0,0-2,.35.37.37,0,0,0,.38.64c.72-.43,2.49-.31,3.38-.38,2.65-.18,5.31-.29,8-.4,8.26-.33,16.52-.54,24.78-.73q28.33-.68,56.68-.93,7.59-.06,15.17,0c1.07,0,.73-.22.88.88.25,1.8.31,3.64.42,5.45.94,16.41,1.24,32.87,1.59,49.31.37,17.47.73,35,.54,52.43,0,2.41-.06,4.82-.18,7.22,0,.71-.11,1.42-.15,2.13,0,.27-.29.92,0,.69-.6.47-2.67.2-3.37.22-2.6.09-5.2.11-7.81.14-18,.19-36.08,0-54.12-.05q-21.31-.13-42.63-.33c-.29,0-1.06.14-1.32,0-.47-.27.49.59.18,0s-.17-2.27-.22-3c-.33-4.82-.58-9.64-.81-14.47-.54-11.73-.92-23.46-1.21-35.2-.48-19.58-1.37-39.41-.19-59,0-.77-.13-3.46.51-4C800.23,483.44,799.7,482.91,799.34,483.22Z" transform="translate(-780.24 -467.93)"/><path class="cls-9" d="M799.82,483.81a72.08,72.08,0,0,0,10.64,10c.38.3.76-.36.38-.65a70.7,70.7,0,0,1-10.49-9.9c-.31-.36-.84.17-.53.53Z" transform="translate(-780.24 -467.93)"/><path class="cls-9" d="M908,481.06a75.12,75.12,0,0,0-12.85,11c-.33.35.2.88.53.53a73.43,73.43,0,0,1,12.7-10.91c.4-.27,0-.92-.38-.65Z" transform="translate(-780.24 -467.93)"/><path class="cls-9" d="M801.85,600.19c4.2-3.05,7.49-7.66,10.95-11.49.32-.36-.21-.89-.53-.53-3.4,3.77-6.66,8.37-10.79,11.37-.39.29,0,.94.37.65Z" transform="translate(-780.24 -467.93)"/><path class="cls-9" d="M897.07,589.2c3,5.19,8.9,7.5,13.77,10.57.41.26.79-.39.38-.65-4.76-3-10.54-5.24-13.5-10.3a.38.38,0,0,0-.65.38Z" transform="translate(-780.24 -467.93)"/><g class="cls-12"><path class="cls-11" d="M798.91,516l-1.1,32.75c-.72,21.26-1.63,43.23-12.16,62.48,19.44.43,38.88.87,58.33,1q40.51.38,81-.75l-42.64-3.3c-6.31-.48-13.3-1.27-17.36-5.45a10,10,0,0,0-2.33-2.11,8.54,8.54,0,0,0-4.23-.53c-18.39.82-36.84.73-55.22-.28a3.76,3.76,0,0,1-2.2-.58,2.68,2.68,0,0,1-.74-2.14l-1.71-60" transform="translate(-780.24 -467.93)"/><path class="cls-11" d="M798.41,516c-.56,16.53-.75,33.13-1.88,49.64-1.08,15.68-3.78,31.36-11.31,45.34a.5.5,0,0,0,.43.75c36.24.81,72.47,1.42,108.73.92q15.32-.21,30.62-.63a.5.5,0,0,0,0-1l-38.18-3c-5.42-.42-11.18-.49-16.33-2.44a18.12,18.12,0,0,1-6.21-4.36,6.74,6.74,0,0,0-5.11-1.67c-12.42.18-24.79.72-37.22.46-3.12-.06-6.25-.16-9.37-.28s-7.71.42-10.52-1c-1.53-.79-1.23-1-1.3-2.61,0-.66,0-1.32-.06-2l-.13-4.43-.28-9.84-1.22-42.8c0-.64-1-.65-1,0l1.15,40.34c.19,6.54.08,13.16.56,19.68.11,1.38.37,2.41,1.75,3a10,10,0,0,0,3.17.33l5.42.26q20.21.86,40.44.24c3-.09,6-.33,9-.33,3.47,0,4.77,2.69,7.37,4.36,3.87,2.5,8.67,3.14,13.16,3.57C895,609.94,910,610.85,925,612v-1c-36.23,1-72.47,1-108.71.36q-15.31-.29-30.64-.65l.43.75c7.34-13.6,10.16-28.83,11.32-44.1,1.3-17.08,1.44-34.27,2-51.38,0-.65-1-.65-1,0Z" transform="translate(-780.24 -467.93)"/></g><path class="cls-9" d="M922.58,469.48c-.42-.23-.12-.39-.17,0a4,4,0,0,0,.14.83c.16,1,.22,2.11.3,3.16.27,3.48.45,7,.61,10.46.54,11.25.89,22.5,1.2,33.75.71,25.17,1.28,50.37,1.21,75.56,0,3.94,0,7.88-.15,11.82,0,1.34-.08,2.67-.17,4a12.38,12.38,0,0,0-.22,2.23c.06.43.25.1,0,.05a11.71,11.71,0,0,0-2.28.15c-3.16.13-6.31.16-9.47.2-24.15.28-48.31.09-72.45-.05q-18-.09-36-.23l-12.61-.1a58.43,58.43,0,0,0-7-.06c-.3,0-.63,0-.93,0l.75.75c-2.06-25.27-2.67-50.7-3.2-76-.27-12.74-.46-25.49-.42-38.23,0-7.74-.19-15.65.66-23.36a7.76,7.76,0,0,1,.36-2.08c0,.11-.38,0,.33,0,1.65-.05,3.46-.32,5.16-.42,7.58-.43,15.17-.63,22.76-.84,22.16-.62,44.32-1,66.49-1.29,14.78-.2,29.65-.78,44.43-.25.28,0,.93.08.81.05.92.28,1.32-1.17.4-1.45a12.21,12.21,0,0,0-3.31-.15c-2.68,0-5.35,0-8,0-8.94,0-17.88.12-26.81.22q-34.18.42-68.37,1.24c-8.48.22-17,.44-25.45.84-2.34.11-4.68.21-7,.44-1,.1-2.14,0-2.72.9-.87,1.32-.66,3.95-.76,5.43-.23,3.81-.31,7.64-.37,11.45-.18,11.92-.06,23.84.13,35.76.42,26.9,1.1,53.85,2.9,80.7.15,2.36.33,4.72.52,7.08a.76.76,0,0,0,.75.75q24.33.22,48.67.36c25.55.15,51.09.34,76.64.13,3.72,0,7.44-.07,11.16-.18,1.32,0,3.66.3,4.9-.31s1-2.51,1-3.61c.21-3.17.24-6.36.28-9.54.3-24.7-.32-49.44-1-74.13-.31-12.19-.67-24.38-1.19-36.56-.17-4.21-.36-8.42-.63-12.62a40.54,40.54,0,0,0-.63-6.87c-.1-.44-.13-1-.58-1.23C922.49,467.73,921.73,469,922.58,469.48Z" transform="translate(-780.24 -467.93)"/><path class="cls-9" d="M810.14,493.92c-.53.5-.5,1.58-.57,2.23-.17,1.67-.21,3.35-.26,5-.18,5.93-.16,11.87-.13,17.81q.12,23.94,1,47.86c.28,7.6.6,15.21,1.15,22.8a.77.77,0,0,0,.75.75q28.56.29,57.14.37c8.85,0,17.81.32,26.66-.22,1.56-.1,2.13-.27,2.3-1.89.3-2.83.22-5.73.25-8.57.19-23.46-.38-47-1.18-70.42-.14-4.16-.29-8.32-.53-12.47-.06-1.14.26-4.33-.68-5.24s-4.1-.34-5.21-.34c-4.54,0-9.08,0-13.62.1q-19,.21-37.94.68c-9,.23-18.21.13-27.2,1.06a4.4,4.4,0,0,0-1.8.34.75.75,0,0,0,.76,1.29c1-.59,4.55-.38,6-.46,4.69-.23,9.39-.37,14.09-.51,12.24-.36,24.49-.59,36.74-.78,8.67-.13,17.36-.37,26-.2a3.85,3.85,0,0,0,1.07,0c.83-.25-.42.43-.18-.39a7.36,7.36,0,0,0,.23,1.84c.27,3.28.38,6.58.51,9.86q1.36,34.42,1.38,68.93c0,3.91,0,7.82-.09,11.72,0,1.1-.06,2.2-.15,3.29a4.24,4.24,0,0,0-.09.74c.06.34.53-.14.19-.18-2-.23-5,.2-7.24.23-4.78.06-9.56.07-14.34.07-20.62,0-41.23-.17-61.85-.37H812.1l.75.75c-1-14.15-1.4-28.36-1.74-42.53s-.62-28.39-.38-42.57c0-2.25.08-4.5.22-6.75,0-.71.1-1.42.17-2.13,0-.34.28-.89.08-.69C811.91,494.31,810.84,493.25,810.14,493.92Z" transform="translate(-780.24 -467.93)"/><path class="cls-9" d="M828.64,507.25l-.09,3.84a5.48,5.48,0,0,0,.24,2.51c.38.78,1.4,1.45,2.23.87a1.18,1.18,0,0,0,.2-1.78c-.55-.52-1.31-.05-1.84-.82s-.25-3-.18-3.95l-.37.37a22.29,22.29,0,0,1,2.31.08c.49.07,1.36.18,1.61.72a3.77,3.77,0,0,1,0,1.21c0,1-.21,2.49.52,3.36s2.54.83,2.45-.58c-.05-.79-.61-.89-1.17-1.18-.14-.07-.38.11-.49,0-.48-.33-.61-1.37-.7-1.91-.14-.79-.16-1.61-.24-2.4s0-1.27-.7-1.61a2.94,2.94,0,0,0-1.18-.12c-.26,0-2.42.31-2.28-.1s-.58-.66-.73-.2c-.61,1.89,2,1,2.75,1.06,2.73.14.78,4.25,2.1,5.67a1.66,1.66,0,0,0,.49.34c1,.39,0-.51-.06-.91-.23-1,.23-2.15,0-3.14-.48-1.64-3.36-1-4.64-1.08a.39.39,0,0,0-.38.38c-.09,1.2-.48,4.36.86,5.08a1.51,1.51,0,0,0,.55.12c.78.11.59-.16-.58-.81v-.58a22.39,22.39,0,0,1,.1-4.48.38.38,0,0,0-.75,0Z" transform="translate(-780.24 -467.93)"/><path class="cls-9" d="M828.63,506.59c.48,1.27,1.69,1.05,2.73.58.34-.16.16-.71-.19-.7l-1.49,0a.37.37,0,0,0-.1.73,6.68,6.68,0,0,0,2.9.4.37.37,0,0,0,.1-.73,7.65,7.65,0,0,0-2-.57c-.16,0-1.88.17-1.85-.07l-.73-.1a16.44,16.44,0,0,0,.84,6.07c.16.46.88.26.73-.2a16,16,0,0,1-.82-5.87c0-.42-.68-.52-.74-.1a.92.92,0,0,0,.72,1.16,5,5,0,0,0,1.39-.15,5.63,5.63,0,0,1,2.3.55l.1-.74a6.07,6.07,0,0,1-2.7-.37l-.1.74,1.49,0-.19-.7-1.63-.13c-.16-.45-.89-.25-.72.2Z" transform="translate(-780.24 -467.93)"/><path class="cls-9" d="M829.1,507.7a1.6,1.6,0,0,0,1.48.47c.48-.08.28-.8-.2-.72a.84.84,0,0,1-.75-.28c-.34-.35-.87.18-.53.53Z" transform="translate(-780.24 -467.93)"/><path class="cls-9" d="M870.84,515.15a2.44,2.44,0,0,0-1.69.72,1.1,1.1,0,0,0,.15,1.52,1.55,1.55,0,0,0,1.65.23,3.34,3.34,0,0,0,1.39-1.66.41.41,0,0,0-.06-.46,1.84,1.84,0,0,0-2.66-.24,1.33,1.33,0,0,0,.48,2.22,1.13,1.13,0,0,0,1.41-1.39c-.29-1-1.58-.48-1.42.45a.38.38,0,0,0,.55.23.56.56,0,0,0,.09-1,.57.57,0,0,0-.85.47c0,.88,1.5.63,1.36-.28-.07-.47-.79-.27-.72.2l.06-.11,0,.29-.36-.26.55.22.15-.06-.27-.11a.37.37,0,0,1-.22.62c-.45.05-.6-.54-.43-.85.4-.7,1.27-.38,1.71.09l-.06-.45c-.29.58-.76,1.62-1.58,1.41-.38-.1-.62-.44-.28-.75a1.83,1.83,0,0,1,1-.34c.47-.06.48-.81,0-.75Z" transform="translate(-780.24 -467.93)"/><path class="cls-9" d="M875.68,514.91c-1.1-1.13-2.68,1.29-1.71,2.23a1.48,1.48,0,0,0,1.62.23,3,3,0,0,0,1.27-1.86.39.39,0,0,0-.17-.42,2.32,2.32,0,0,0-2.66.24c-.67.58-.83,1.71.22,2a1.35,1.35,0,0,0,1.2-.31c.33-.25.85-.73.8-1.19a.82.82,0,0,0-.85-.68c-.5,0-.81.46-1,.85a.38.38,0,0,0,.33.56,1.17,1.17,0,0,0,1.14-.67.38.38,0,0,0-.32-.56,1.4,1.4,0,0,0-1.12.45c-.34.35.17.84.53.53l.12,0-.29,0,.07,0-.17-.23v0l.26-.26-.06,0c-.44.18-.24.91.2.72a.48.48,0,0,0,.28-.72c-.23-.39-.67-.21-.94,0l.53.53a.71.71,0,0,1,.59-.23l-.32-.56a.48.48,0,0,1-.5.29l.32.57c0-.05.41-.63.47-.48s-.28.33-.34.39a.85.85,0,0,1-.61.33c-.29,0-.37-.18-.24-.44a1.5,1.5,0,0,1,2-.41l-.18-.43c-.18.53-.46,1.4-1.13,1.45-.22,0-.53-.06-.6-.31s.43-1.34.75-1,.87-.18.53-.53Z" transform="translate(-780.24 -467.93)"/><path class="cls-9" d="M875.19,515.93a.78.78,0,0,0-.7,1,.38.38,0,0,0,.55.22,1,1,0,0,0,.51-.89.38.38,0,0,0-.75,0l-.14.25.55.22,0-.09c.47-.06.48-.81,0-.75Z" transform="translate(-780.24 -467.93)"/><path class="cls-9" d="M871.77,516.29c0-.06,0-.1.08-.13.38-.3-.15-.83-.53-.53a.83.83,0,0,0-.2,1c.19.45.84.06.65-.37Z" transform="translate(-780.24 -467.93)"/><path class="cls-9" d="M877.1,514.93a15.43,15.43,0,0,1-2.72-6.77c0-.25-.36-.32-.55-.22a26.54,26.54,0,0,1-4.12,1.63.39.39,0,0,0-.27.47l2.06,5.77c.17.45.89.26.73-.2l-2.06-5.77-.27.46a29.74,29.74,0,0,0,4.31-1.71l-.55-.23a15.83,15.83,0,0,0,2.79,6.95c.28.39.93,0,.65-.38Z" transform="translate(-780.24 -467.93)"/><path class="cls-9" d="M870.37,512.1a17.31,17.31,0,0,0,4-2,.4.4,0,0,0,.13-.52,5.41,5.41,0,0,0-.64-1.12.39.39,0,0,0-.52-.14,17.87,17.87,0,0,0-2.71,1.6c-.37.31-.54.76-.18,1.13a.42.42,0,0,0,.37.1,1,1,0,0,0,.74-1,.38.38,0,0,0-.47-.36,1.14,1.14,0,0,0-.84,1.41.37.37,0,0,0,.55.22,9.27,9.27,0,0,0,2.79-1.94.38.38,0,0,0-.37-.62,2.09,2.09,0,0,0-1.56,1.17.38.38,0,0,0,.42.55,3.21,3.21,0,0,0,1.55-.88.38.38,0,0,0-.27-.64,1.26,1.26,0,0,0-1.1.4.38.38,0,0,0,.27.64,1,1,0,0,0,1-.64c.19-.44-.46-.82-.65-.38l-.4.27.26.64a.54.54,0,0,1,.57-.18l-.26-.64a2.45,2.45,0,0,1-1.22.69l.43.55a1.42,1.42,0,0,1,1.11-.83l-.36-.63a8.87,8.87,0,0,1-2.64,1.83l.55.22.32-.49-.48-.36-.19.27.36.1a20.81,20.81,0,0,0,2.74-1.55l-.51-.14a5.75,5.75,0,0,1,.64,1.13l.14-.51a15.83,15.83,0,0,1-3.86,1.87c-.45.16-.26.88.2.73Z" transform="translate(-780.24 -467.93)"/><path class="cls-9" d="M871.68,509.83l-1.5.42a.37.37,0,0,0,.2.72l1.5-.41a.38.38,0,0,0-.2-.73Z" transform="translate(-780.24 -467.93)"/><path class="cls-9" d="M852,536a1.44,1.44,0,1,0,1,.37,1.36,1.36,0,0,0-2.11,1.66,1.22,1.22,0,0,0,1.69.47,1.27,1.27,0,0,0,.45-1.76c-.42-.62-1.54-.61-1.65.26a.71.71,0,0,0,1.31.47.38.38,0,0,0-.13-.51c-.46-.24-1.26.13-1,.72s1,.37,1.3,0a.38.38,0,0,0-.23-.55.64.64,0,0,0-.71.93c.21.43.86,0,.65-.38l-.14.18-.22-.55-.06,0,.09.36-.09,0L852,537c.22-.31.46.23.42.38a.59.59,0,0,1-.31.41.49.49,0,0,1-.66-.36c-.23-.68.76-1,1.12-.48a.69.69,0,1,1-.56-.29c.48,0,.48-.78,0-.75Z" transform="translate(-780.24 -467.93)"/><path class="cls-9" d="M856.85,536.5a1.16,1.16,0,0,0-1.63.12,1.2,1.2,0,0,0,.26,1.73c1.36,1,3.19-1.36,1.73-2.11s-2.88,1.75-1.26,2.07a1.22,1.22,0,0,0,1.43-1.06,1.08,1.08,0,0,0-1.39-1.08,1,1,0,0,0-.37,1.59c.66.67,1.6,0,1.9-.7a.38.38,0,0,0-.14-.51,1,1,0,0,0-1.43,1.14.37.37,0,0,0,.26.27.9.9,0,0,0,1-.62.37.37,0,0,0-.1-.36.84.84,0,0,0-1.42.55c0,.82,1.26.64,1.22-.12,0-.48-.78-.49-.75,0a1.18,1.18,0,0,1,.42.1l-.09-.37-.13.09.26.27c-.07-.19.14-.42.33-.31l-.13-.51c-.07.16-.48.83-.72.54s.17-.47.38-.26c.4.41-.42.81-.53.5s.38-.48.49-.53c.31-.12.57,0,.45.41a.75.75,0,0,1-.76.51c-.27,0-.57-.34-.47-.63a.42.42,0,0,1,.61-.19c.36.31.9-.22.53-.53Z" transform="translate(-780.24 -467.93)"/><path class="cls-9" d="M857.77,536.93l-.47-2.76a19.52,19.52,0,0,0-.46-2.77c-.31-.87-.9-.67-1.72-.54s-2.48,0-2.75.89a8.5,8.5,0,0,0,.26,2.64l.34,2.84c.06.48.81.48.75,0l-.45-3.79a7.23,7.23,0,0,1-.17-1.43c.2-.26,1.2-.26,1.52-.31l.93-.15c.5-.13.71,0,.64.51a5.39,5.39,0,0,1,.23,1.39l.62,3.68c.08.47.81.27.73-.2Z" transform="translate(-780.24 -467.93)"/><path class="cls-9" d="M853.44,533.72c.79-.25,1.7-.15,2.39-.65a1.45,1.45,0,0,0,.63-1.64.4.4,0,0,0-.46-.26l-2.8.63a.38.38,0,0,0-.16.63c.34.44,1.57.81,1.82.05s-.74-1.12-1.26-.9a1,1,0,0,0,0,1.67c.71.52,1.55-.08,1.8-.79a.4.4,0,0,0-.18-.43,1.77,1.77,0,0,0-1.88,0,.38.38,0,0,0,.09.69,3.14,3.14,0,0,0,2.77-.7c.29-.25,0-.71-.37-.62a3.22,3.22,0,0,0-1.23.64.38.38,0,0,0,.27.64c.32,0,.63.1.9-.13a.52.52,0,0,0,.17-.62.49.49,0,0,0-.94.18c0,.48.72.48.75,0v-.06l-.19.32-.28-.06,0-.29c0-.14-.25-.1-.38-.09l.26.64a2.31,2.31,0,0,1,.9-.45l-.36-.63a2.31,2.31,0,0,1-2,.5l.09.69a1,1,0,0,1,1.13,0l-.17-.42c-.08.24-.4.61-.68.35s.17-.46.17-.23l.19-.32a.53.53,0,0,1-.74-.16l-.17.63,2.8-.63-.46-.27c.4,1.19-1.86,1.17-2.5,1.37-.46.14-.26.87.2.72Z" transform="translate(-780.24 -467.93)"/><path class="cls-9" d="M817.66,528.38a1.55,1.55,0,0,1,2.6-.58,5.54,5.54,0,0,1,4.2-2.69,3.54,3.54,0,0,1,1.45,0,2.77,2.77,0,0,1,1.84,3.13,4.69,4.69,0,0,1-2.33,3.09,3,3,0,0,1-1,.44c-1,.17-2-.49-2.93-.9a1.22,1.22,0,0,0-.67-.13c-.56.1-.76.82-1.26,1.08-.78.4-2-.43-2.51.28a8.1,8.1,0,0,1-.44-3.81.77.77,0,0,1,.91.11" transform="translate(-780.24 -467.93)"/><path class="cls-9" d="M818.09,528.63l1.81-.47a.52.52,0,0,0,.79-.11,5,5,0,0,1,3.27-2.32c2.11-.55,4.12,1.18,2.91,3.46a3.62,3.62,0,0,1-3.57,1.95c-.73-.16-1.31-.76-2.06-.85s-.82.16-1.48.54c-.93.55-2.09.18-3,.81l.74.3c-.1-.32-.62-3.3-.26-3.14.58.28,1.09-.58.51-.86a1.49,1.49,0,0,0-1.3-.16.52.52,0,0,0-.37.48,10.19,10.19,0,0,0,.46,4,.5.5,0,0,0,.73.29c.58-.39,1.9-.1,2.61-.36a2.18,2.18,0,0,0,.61-.6,2.2,2.2,0,0,1,1.86.28,7.31,7.31,0,0,0,1.3.42c2,.21,4-1.74,4.52-3.58a3.27,3.27,0,0,0-2.18-4.07c-2.28-.57-5,1.07-6.15,3l.79-.1a2.06,2.06,0,0,0-3.38.67c-.26.59.6,1.1.86.51Z" transform="translate(-780.24 -467.93)"/><path class="cls-13" d="M828.83,495.59A24.24,24.24,0,0,0,823,510h1c.1-2.42.3-4.82.63-7.22a17.55,17.55,0,0,1,.59-3.55c.7-1.89,1.61-2.2,3.47-2l-.14-1c-2.33.95-3.29,3-4.13,5.3l1,.27a11.32,11.32,0,0,1,1.21-3.61c.25-.48-.42-1.08-.78-.61a11.21,11.21,0,0,0-1.54,2.6l.91.39a14.63,14.63,0,0,0,.68-3.27.5.5,0,0,0-.93-.25,3.22,3.22,0,0,0-.42,1.71c0,.64,1,.64,1,0l.28-1.2-.93-.26a13.57,13.57,0,0,1-.64,3c-.18.53.69.91.91.39a9.77,9.77,0,0,1,1.38-2.4l-.78-.61a12,12,0,0,0-1.31,3.85.5.5,0,0,0,1,.27c.69-1.84,1.46-3.8,3.44-4.6a.5.5,0,0,0-.13-1c-2.4-.22-3.87.33-4.44,2.77A60.12,60.12,0,0,0,823,510c0,.65,1,.64,1,0a23.13,23.13,0,0,1,5.51-13.72c.42-.49-.29-1.2-.7-.71Z" transform="translate(-780.24 -467.93)"/><path class="cls-13" d="M831.53,497.73a56.86,56.86,0,0,0-8,24.23c-.06.64.94.64,1,0a55.9,55.9,0,0,1,7.84-23.72.5.5,0,0,0-.86-.51Z" transform="translate(-780.24 -467.93)"/><path class="cls-13" d="M819.49,524.09a39.81,39.81,0,0,1-.79-12.5c.06-.65-.94-.64-1,0a40.83,40.83,0,0,0,.82,12.76c.14.63,1.11.36,1-.26Z" transform="translate(-780.24 -467.93)"/><path class="cls-13" d="M820.38,534.79a63.55,63.55,0,0,0,.18,16.07c.93,5.82,2.46,11.53,2.07,17.47a.5.5,0,0,0,.25.43c2.89,1.66,1.38-8.51,1.26-9.71-.62-6.24-4.46-12.24-3.14-18.61.13-.62-.84-.89-1-.26-.91,4.41.52,8.48,1.78,12.67a35.08,35.08,0,0,1,1.47,7.94c.08,1.32.12,2.65.17,4,0,.5,0,3.53.26,2.17.42-2.17-.2-4.92-.53-7.09-.4-2.63-1-5.23-1.42-7.85a63.53,63.53,0,0,1-.38-17.2c.06-.64-.94-.64-1,0Z" transform="translate(-780.24 -467.93)"/><path class="cls-13" d="M821.34,553.41a39.31,39.31,0,0,1,1.6,7.61c.06.63,1.07.64,1,0a39.85,39.85,0,0,0-1.64-7.88c-.19-.61-1.16-.35-1,.27Z" transform="translate(-780.24 -467.93)"/><path class="cls-13" d="M822.28,533.75a21.75,21.75,0,0,1,3.32,12,.5.5,0,0,0,1,0,22.85,22.85,0,0,0-3.46-12.49c-.34-.54-1.2,0-.86.51Z" transform="translate(-780.24 -467.93)"/><path class="cls-13" d="M817.55,535.73l-.37,5.29c0,.64,1,.64,1,0l.37-5.29c.05-.64-.95-.64-1,0Z" transform="translate(-780.24 -467.93)"/><path class="cls-13" d="M821.54,523.66a14.37,14.37,0,0,0-.75-6.17c-.21-.61-1.18-.35-1,.26a13.8,13.8,0,0,1,.71,5.91c-.06.64.94.63,1,0Z" transform="translate(-780.24 -467.93)"/><path class="cls-14" d="M833,520.89a4,4,0,0,0-2.8,5.7c.65,1.34,3.63,4.55,3.77,1.29,0-1.07,0-2.14,0-3.21a9.12,9.12,0,0,0-.06-2.45,1.21,1.21,0,0,0-2.07-.64c-1.95,1.51-1.69,4.61-.06,6.21a.5.5,0,0,0,.84-.22,12,12,0,0,0-.24-5.17.5.5,0,0,0-1,0,6.81,6.81,0,0,0,0,3.72.5.5,0,0,0,1,0,3.4,3.4,0,0,0,0-2.49.51.51,0,0,0-.92-.12,2.68,2.68,0,0,0-.1,2.82.5.5,0,0,0,.86,0,4.4,4.4,0,0,0,.74-3,.51.51,0,0,0-1-.13,3.78,3.78,0,0,0,.26,3.05.5.5,0,0,0,.91-.12,10.35,10.35,0,0,0,.06-3.19.51.51,0,0,0-1,0,11.33,11.33,0,0,0,.07,3.81c.11.59.93.39,1-.13a18,18,0,0,0-.15-4.46c-.09-.61-.92-.37-1,.13a17.66,17.66,0,0,0,.1,4.87c.1.59.94.38,1-.14a9.79,9.79,0,0,0-.27-3.45c-.15-.58-.92-.39-1,.14a17.94,17.94,0,0,0-.1,3,.51.51,0,0,0,.94.26,1.65,1.65,0,0,0,.25-1.68c-.17-.5-1.05-.46-1,.13l.32,2.78.64-.49-.6-.4c-.23-.59-1.2-.34-1,.27a1.52,1.52,0,0,0,1.29,1.1c.28,0,.67-.13.63-.48l-.32-2.78-1,.13-.16.91.93.25a17.94,17.94,0,0,1,.1-3l-1,.13a9,9,0,0,1,.23,3.18l1-.13a16.11,16.11,0,0,1-.07-4.6l-1,.14a16.78,16.78,0,0,1,.11,4.19l1-.14a9.76,9.76,0,0,1-.06-3.28h-1a8.25,8.25,0,0,1,0,2.67l.91-.12a2.9,2.9,0,0,1-.15-2.29l-1-.13a3.6,3.6,0,0,1-.6,2.53h.86a1.57,1.57,0,0,1,.11-1.82l-.92-.12a2.84,2.84,0,0,1,0,2h1a5.9,5.9,0,0,1,0-3.2h-1a10.74,10.74,0,0,1,.23,4.65l.84-.22c-.93-.92-1.64-3.13-.49-4.2.42-.38.81-.13,1,.32a3.84,3.84,0,0,1,0,1.17l0,2.62c0,.78.18,1.49-.65.79a5.45,5.45,0,0,1-1.27-1.7,3,3,0,0,1,2.2-4.23c.63-.14.37-1.11-.26-1Z" transform="translate(-780.24 -467.93)"/><path class="cls-15" d="M833.53,521.61a22.09,22.09,0,0,0,2.72-4.12l2.43,5.23a.45.45,0,0,1,.06.27c0,.23-.34.27-.57.27a6.39,6.39,0,0,0-3.94,1.37l-.84-2.69" transform="translate(-780.24 -467.93)"/><path class="cls-15" d="M833.89,522a25.88,25.88,0,0,0,2.8-4.21h-.87l1.21,2.61c.15.31,1.26,2.16,1.14,2.4,0,0-1.82.24-2,.3a7.41,7.41,0,0,0-2.2,1.13l.74.3-.85-2.68c-.19-.62-1.16-.35-1,.26l.84,2.69a.51.51,0,0,0,.74.3,6.54,6.54,0,0,1,2-1c.66-.2,1.33-.13,2-.27.36-.09.71-.22.82-.62.15-.6-.56-1.6-.78-2.08l-1.76-3.81a.51.51,0,0,0-.87,0,24.23,24.23,0,0,1-2.64,4c-.4.49.3,1.2.71.7Z" transform="translate(-780.24 -467.93)"/><path class="cls-15" d="M834.39,525.91a10.1,10.1,0,0,1-.26,3.46q2.45.54,4.84,1.27v-5.85l-3.73.46c-.5.06-1.18.41-1,.87" transform="translate(-780.24 -467.93)"/><path class="cls-15" d="M833.89,525.91a11.33,11.33,0,0,1-.24,3.33.5.5,0,0,0,.35.61c1.63.36,3.24.79,4.84,1.27a.51.51,0,0,0,.63-.48v-5.85c0-.25-.23-.54-.5-.5a23.7,23.7,0,0,0-4.12.53c-.7.22-1.2.67-1,1.43s1.09.36,1-.27c0-.25,3.84-.65,4.2-.69l-.5-.5v5.85l.63-.49q-2.4-.72-4.84-1.26l.35.61a11.71,11.71,0,0,0,.28-3.59c-.06-.64-1.06-.65-1,0Z" transform="translate(-780.24 -467.93)"/><path class="cls-9" d="M833.1,529.32l.36,11.13c0,.64,1,.65,1,0l-.36-11.13a.5.5,0,0,0-1,0Z" transform="translate(-780.24 -467.93)"/><path class="cls-16" d="M830.8,540.08a75.11,75.11,0,0,0,1.55,10.44.42.42,0,0,0,.71.33,33.52,33.52,0,0,0,3.18-2,62.36,62.36,0,0,1,10.91-5.66.86.86,0,0,0,.52-.38.8.8,0,0,0,0-.46,44.65,44.65,0,0,0-1.89-7.49c-.07-.21-.19-.45-.4-.48a.56.56,0,0,0-.31.06l-13.66,5.57" transform="translate(-780.24 -467.93)"/><path class="cls-16" d="M830.3,540.08c.16,2,.38,3.91.68,5.85.26,1.68.34,3.76,1.16,5.24a.5.5,0,0,0,.57.23c1.87-.28,3.68-2,5.27-3a61.43,61.43,0,0,1,5.4-3,41.66,41.66,0,0,0,3.91-1.72c.26-.16.57-.2.73-.5.45-.89-.06-2.16-.26-3.07-.3-1.45-.63-6.19-2.66-6.17a10.68,10.68,0,0,0-2.88,1.14l-3.65,1.49-7.28,3c-.59.24-.33,1.21.26,1l11.84-4.82,1.37-.56c.53-.39.81-.16.82.69a12.41,12.41,0,0,1,.73,2.48c.49,1.87,1.32,3.76-.63,5-1.56,1-3.52,1.59-5.16,2.47s-3,1.74-4.53,2.69c-.38.24-1.91,1.51-2.36,1.51-1.34,0-1.2-1.51-1.37-2.41-.45-2.48-.75-5-1-7.48-.06-.64-1.06-.65-1,0Z" transform="translate(-780.24 -467.93)"/><path class="cls-16" d="M847.47,536.65q.45-.27.63.09a1.38,1.38,0,0,1,.25.48c.13.3.22.64.33.94l.73,2.12.35-.62c-.82.27-1.64.5-2.47.72-.62.15-.36,1.12.27,1,.83-.21,1.65-.45,2.46-.71a.51.51,0,0,0,.35-.62c-.32-.94-.63-1.88-1-2.82a2.88,2.88,0,0,0-.8-1.37,1.28,1.28,0,0,0-2.09.57.5.5,0,0,0,1,.26Z" transform="translate(-780.24 -467.93)"/><path class="cls-16" d="M830,539.62c-1.1,1.76-1.89,2.5-1.37,4.53.75,2.93,1.77,5.82,2.65,8.71a.5.5,0,0,0,.91.12,13.35,13.35,0,0,0,1-2.39c.2-.61-.77-.87-1-.26a8.08,8.08,0,0,1-.94,2.15l.91.11-1.95-6.42a15,15,0,0,1-.84-2.75c-.09-1.31.76-2.26,1.41-3.29.34-.55-.52-1-.86-.51Z" transform="translate(-780.24 -467.93)"/><path class="cls-16" d="M830.36,542.65l.45-1.59a.5.5,0,0,0-1-.26,8.64,8.64,0,0,0-.41,2.19c0,.48.74.72.93.26l.38-.9-.91-.39a7.41,7.41,0,0,0-.39,2.18.5.5,0,0,0,.93.25l.54-1L830,543l-.38,2.42a.51.51,0,0,0,.84.49,2.31,2.31,0,0,0,.78-1.22l-1-.27-.27,1.9c-.08.51.62.93.91.38a6.63,6.63,0,0,0,.7-1.91l-1-.13-.28,2.91c-.05.53.68.62.94.25l.31-.47-.93-.25a37,37,0,0,1,.23,4.34c0,.61.77.62,1,.13a1.92,1.92,0,0,0,.24-1.24.5.5,0,0,0-1,0,1.24,1.24,0,0,0,.37,1.22c.37.52,1.24,0,.86-.5l-.23-.72h-1l-.21,1,1,.13a37,37,0,0,0-.23-4.34.5.5,0,0,0-.93-.25l-.32.47.93.25.28-2.91a.51.51,0,0,0-1-.14,4.08,4.08,0,0,1-.59,1.68l.91.38.28-1.89a.5.5,0,0,0-1-.27l-.52.78.84.49.37-2.43c.08-.52-.62-.92-.91-.38l-.54,1,.93.26a4.77,4.77,0,0,1,.35-1.91c.18-.53-.69-.91-.91-.39l-.38.9.93.25a5.51,5.51,0,0,1,.37-1.93l-1-.26-.45,1.58a.5.5,0,0,0,1,.27Z" transform="translate(-780.24 -467.93)"/><path class="cls-16" d="M834.83,549.5c-1.83,2-.62,5.38,2.23,5.23,3.42-.19,3.65-5,2.79-7.4-.18-.5-1-.46-1,.13a7.1,7.1,0,0,1-.74,4.08,2.61,2.61,0,0,1-1.68,1.33c-1,.19-2.15-.58-1.66-1.69l-.92-.12c.44,1.75,1.79,4.23,4,3.29.54-.23,1.21-.85.82-1.47-.52-.82-1.36-.08-1.94.1a.5.5,0,0,0,.26,1s.67-.18.64-.29-1.45-.35-1.56-.42a3.82,3.82,0,0,1-1.28-2.44.51.51,0,0,0-.92-.12,2.33,2.33,0,0,0,2.79,3.16c2.71-.62,3.3-4,3.16-6.37l-1,.14c.53,1.5.73,4.93-.89,5.84a2,2,0,0,1-2.46-3.23c.44-.47-.26-1.18-.7-.71Z" transform="translate(-780.24 -467.93)"/><path class="cls-16" d="M837,554.54c-1-.71-2,.21-2.44,1.11a5.7,5.7,0,0,0-.26,4.59c1.08,2.78,4.32,2.11,5.41-.3,1-2.12-.74-6.82-3.69-5.68-1.25.48-2,2.17-2.32,3.36a4.2,4.2,0,0,0,.7,3.89c2.1,2.44,5.37.4,5.8-2.32.33-2.09-2.13-5.88-4.34-3.61-1.41,1.44-1.47,5.31,1,5.73,2.83.49,3.51-3.12,2.1-4.86-.69-.86-2.07-2-3.14-1.12a3.51,3.51,0,0,0-.64,4,1.81,1.81,0,0,0,2.75.87c1.28-1,.61-2.68-.39-3.6-.48-.43-1.19.27-.71.71.7.45.4.86-.89,1.24a2.77,2.77,0,0,1,0-1.4c.41-1.59,2-.68,2.51.25,1.41,2.32-2,4.11-2.48,1.58a3.68,3.68,0,0,1,.2-1.94c.68-1.77,2.72-.48,3,.84.39,1.64-1,4.29-3,3.69-1.79-.54-1.85-2.72-1.34-4.16.43-1.22,1.32-3,3.13-1.65a3.36,3.36,0,0,1,1.13,2.48c0,1.68-2.24,4.35-3.69,2a4.32,4.32,0,0,1-.37-2.85c.07-.4.64-2.59,1.48-2,.52.37,1-.5.5-.87Z" transform="translate(-780.24 -467.93)"/><path class="cls-16" d="M848.65,537.37l-.31-.61a.51.51,0,0,0-.87,0,3.93,3.93,0,0,0-.3,2.39,1,1,0,0,0,1.27.9,1.34,1.34,0,0,0,.93-1.27,2.44,2.44,0,0,0-1.21-1.68.47.47,0,0,0-.5,0,1.46,1.46,0,0,0-.46,2,.52.52,0,0,0,.56.23.82.82,0,0,0,.22-1.47c-.71-.47-1.41.45-1.16,1.12a1,1,0,0,0,1.78.05c.58-.92-.25-1.78-.93-2.3a.51.51,0,0,0-.74.3,2.43,2.43,0,0,0,.55,2.32,1.39,1.39,0,0,0,2-.09,1.19,1.19,0,1,0-2.12-.91c-.1.63.86.91,1,.27,0-.17.23-.42.37-.18s-.1.29-.26.27c-.63-.08-.57-1-.51-1.42l-.73.3a1.58,1.58,0,0,1,.55.57c0,.09.11.24,0,.33s-.11.1-.21.07-.25,0,0-.19l.56.23a.48.48,0,0,1,.1-.69h-.5a2.32,2.32,0,0,1,.61.6.46.46,0,0,1,.09.32s-.13.23-.18.21-.09-.65-.09-.75a3,3,0,0,1,.25-1.07h-.87l.32.6c.29.57,1.15.07.86-.5Z" transform="translate(-780.24 -467.93)"/><path class="cls-1" d="M844.53,520.85a130,130,0,0,1,6.36-12.51,2.43,2.43,0,0,1,.89-1,2.37,2.37,0,0,1,1.47-.1q6.35.9,12.62,2.22-3.2,6.42-6.85,12.6a1,1,0,0,1-1.16.62l-13.05-.76" transform="translate(-780.24 -467.93)"/><path class="cls-9" d="M845,521.1c.89-2,1.82-4,2.8-5.92a33.65,33.65,0,0,1,3.1-5.77q.72-1.94,3.24-1.56l1,.15a36.64,36.64,0,0,1,3.89.63q3.4.6,6.78,1.31l-.3-.74q-1.5,3-3.09,5.94c-1,1.89-2.14,5.13-3.89,6.43a1.09,1.09,0,0,1-1.53.54l-1.87-.1-3.26-.19-7-.41c-.64,0-.64,1,0,1l7.92.46c1.53.09,4.72.88,6.12.11.59-.33,1-1.39,1.32-1.92.72-1.24,1.43-2.48,2.13-3.74q2.09-3.77,4-7.61a.51.51,0,0,0-.3-.74c-2.89-.6-5.8-1.15-8.72-1.63-1.52-.25-4.32-1.26-5.81-.41s-2.66,4.07-3.5,5.67c-1.38,2.62-2.66,5.29-3.88,8-.26.59.61,1.1.87.51Z" transform="translate(-780.24 -467.93)"/><path class="cls-9" d="M849.64,519.76,849,518.2a.51.51,0,0,0-1,0,1.3,1.3,0,0,0,2.27,1.14,1.84,1.84,0,0,0-1.32-3,.5.5,0,0,0-.5.5,3.16,3.16,0,0,0,1,2.43,1.59,1.59,0,0,0,2.13-.2,2.17,2.17,0,0,0-1-3.46.51.51,0,0,0-.64.48c0,1.25,1,2.63,2.4,2.11a1.41,1.41,0,0,0,.16-2.58c-.42-.23-1,.25-.68.69a1.34,1.34,0,0,0,2.19.19l-.61.08a1,1,0,0,0,1.54-.53c.24-.59-.72-.85-1-.26l-.07-.08a.52.52,0,0,0-.61.08h-.62l-.68.69c-.82.45-1.17.32-1.06-.4l-.63.48a1.13,1.13,0,0,1,.73,1.28c0,.57-.46.65-1.36.26a3.3,3.3,0,0,1-.28-1.27l-.5.5c.43,0,.64.23.65.6.19.4,0,.57-.63.52h-1l.63,1.56c.23.59,1.2.33,1-.26Z" transform="translate(-780.24 -467.93)"/><path class="cls-9" d="M856.52,516.24a.5.5,0,0,0,0-1,.5.5,0,0,0,0,1Z" transform="translate(-780.24 -467.93)"/><path class="cls-9" d="M858,515.22a4.4,4.4,0,0,0-2.18-3.08c-.41-.24-1,.26-.68.69.75,1.11,2.53,2.43,3.69,1,1-1.2-.35-2.64-1.67-2.39a.5.5,0,0,0-.35.61c.4,1.12,1.56,2.28,2.84,1.65a1.68,1.68,0,0,0,.52-2.61.51.51,0,0,0-.71,0,1.07,1.07,0,0,0,.47,1.73c.95.37,1.62-.55,2-1.28l-.78.11.47.36a.5.5,0,0,0,.7,0l.39-.41c.44-.47-.27-1.18-.71-.71l-.38.42h.7l-.47-.37a.5.5,0,0,0-.78.1,2.29,2.29,0,0,1-.3.5.44.44,0,0,1-.6.26h-.71c.32.53.12.73-.57.6-.62.33-1,.12-1.11-.61l-.35.61c.82,1,.63,1.24-.58.86a2.77,2.77,0,0,1-.85-.92l-.68.69a3.43,3.43,0,0,1,1.72,2.47c.12.63,1.08.37,1-.26Z" transform="translate(-780.24 -467.93)"/><path class="cls-1" d="M859.9,534.93c.12-.08-.06-.27-.18-.21a.43.43,0,0,0-.17.37,55.73,55.73,0,0,0-.16,7.86.7.7,0,0,0,1,.75,36.54,36.54,0,0,0,6.71-1.32.7.7,0,0,0,.41-.23.74.74,0,0,0,.09-.51l-.45-6.16A.68.68,0,0,0,867,535a.75.75,0,0,0-.44-.12l-6-.25" transform="translate(-780.24 -467.93)"/><path class="cls-9" d="M860.4,534.93v-.16a.5.5,0,0,0-.37-.48l-.18,0a.52.52,0,0,0-.49.13c-.7.86-.46,2.56-.5,3.58-.06,1.6-.45,3.89.12,5.41.4,1.09,1.39.85,2.41.72a27.57,27.57,0,0,0,5.49-1.12c.82-.29,1.11-.46,1.2-1.32a18.77,18.77,0,0,0-.22-3.08,22.44,22.44,0,0,0-.23-3.08c-.16-.72-.29-1-1.06-1.13a42.61,42.61,0,0,0-6.09-.26c-.64,0-.64,1,0,1,1.44.06,5.53-.48,6.2,1.07.37.84.18,2.51.25,3.42A8,8,0,0,1,867,541l.05.69a2.44,2.44,0,0,1-1.12.54,19.23,19.23,0,0,1-3,.66,7.4,7.4,0,0,1-1.9.28l-.68.08a1.62,1.62,0,0,1-.52-1.32c-.13-.75.49-6.46-.08-6.62l-.37-.49v.16a.5.5,0,0,0,1,0Z" transform="translate(-780.24 -467.93)"/><path class="cls-9" d="M862.92,536c-4-.25-4,7.51.16,6.77,1.53-.27,3.67-2.25,3.59-3.92s-3-2.92-4.47-2.36c-.6.22-.34,1.19.26,1,.81-.31,3.32.4,3.19,1.66a4.28,4.28,0,0,1-2.22,2.5c-3.1,1.32-3.39-4.79-.51-4.61.64,0,.64-1,0-1Z" transform="translate(-780.24 -467.93)"/><path class="cls-9" d="M862.28,541.77l.3-4.5-.93.25a12.45,12.45,0,0,0,2.2,3.41.5.5,0,0,0,.85-.36,12.42,12.42,0,0,0-.08-1.93,7.18,7.18,0,0,1-.3-1.66l-.48.37h.09l-.43-.25,0,.09.18-.68-.06,0c-.57.3-.06,1.16.51.87l.05,0a.5.5,0,0,0,.18-.68l0-.1a.5.5,0,0,0-.43-.24h-.09a.48.48,0,0,0-.48.36,3.33,3.33,0,0,0,.17,1.39,11.37,11.37,0,0,1,.17,2.47l.85-.35a11.59,11.59,0,0,1-2-3.21c-.21-.49-.9-.19-.93.26l-.3,4.5c0,.64,1,.64,1,0Z" transform="translate(-780.24 -467.93)"/><path class="cls-9" d="M864.82,537.85a1,1,0,0,0-1.2-.84c-.73.11-1,.87-1.27,1.48a2.5,2.5,0,0,0,0,2.29,2.11,2.11,0,0,0,.64.55c.06,0,.32.06.35.1.36.52-.36.48-.6.5-.64,0-.65,1,0,1,.9-.06,2.1-.43,1.92-1.59a1,1,0,0,0-.6-.78c-.66-.29-1.13-.36-.94-1.29a5.44,5.44,0,0,1,.23-.68c0-.33.18-.48.47-.47.09.63,1,.36,1-.27Z" transform="translate(-780.24 -467.93)"/><path class="cls-9" d="M844.5,546a56.88,56.88,0,0,0-1.34,5.63c-.14.79-.61,2.08-.16,2.86s2,.83,2.81.91c1.51.14,3.63.49,5.1,0,.76-.24.9-.73,1.07-1.45.22-.91,1.1-3,.63-3.9s-2-.8-2.73-.92a21.84,21.84,0,0,0-5.42-.12c-.63.06-.64,1.05,0,1l.17,0c.64,0,.65-1,0-1l-.17,0v1a20.73,20.73,0,0,1,6.14.26c.82.17,1,.11.94,1a13,13,0,0,1-.3,1.38c-.28,1.29-.3,1.8-1.77,1.84-.89,0-1.78,0-2.66,0a5.59,5.59,0,0,1-1.66-.15l-1.2-1.43.11-.67a25.28,25.28,0,0,1,1.4-6,.5.5,0,0,0-1-.26Z" transform="translate(-780.24 -467.93)"/><path class="cls-9" d="M844.74,549.43a7.68,7.68,0,0,0-.77,3.8.5.5,0,0,0,.85.35,3.24,3.24,0,0,0,.06-4.36.5.5,0,0,0-.83.22,5.39,5.39,0,0,0,.24,4.13.51.51,0,0,0,.79.1c.69-.83,1.69-3.18.37-3.95s-1.67,2.53-1.63,3.25c.1,1.5.94,2.5,2.22,1.2a3.8,3.8,0,0,0,.55-4.45.5.5,0,0,0-.56-.23c-1.56.65-2,2.7-1.4,4.21.76,1.88,2.46-.05,2.85-1.09.26-.71.52-3.52-1.09-2.89s-1.08,3.18-.36,4.13a.53.53,0,0,0,.69.18c1-.65,3.43-3.29,1.08-3.92a1.55,1.55,0,0,0-1.8.92,3.38,3.38,0,0,0,.33,2.78.52.52,0,0,0,.69.18c1.09-.57,2.56-2,1.89-3.37a1.27,1.27,0,0,0-2.28-.08c-.49.8-.3,2.75.75,3.09s2.29-1.06,2.23-2.06a1.48,1.48,0,0,0-2.1-1.36c-1.15.56-1.36,2.52-.71,3.53a1.43,1.43,0,0,0,2.37-.22,2.46,2.46,0,0,0-.45-3.2.51.51,0,0,0-.71,0,2.39,2.39,0,0,0-.79,2.2,1.51,1.51,0,0,0,1.53,1.16c2-.14,2-2.8,1.18-4a.5.5,0,0,0-.78-.1,3.41,3.41,0,0,0-.75,3.34.51.51,0,0,0,.49.37,2.15,2.15,0,0,0,1.83-2.91.5.5,0,0,0-.48-.36c-2.13-.05-2,4.62.26,3.81a1.47,1.47,0,0,0,.72-2c-.66-1.49-2.75-1.12-4-1.57l-.14,1,1.72-.1a.5.5,0,0,0,.13-1,11.43,11.43,0,0,0-2.18-.29c-.64,0-.64,1,0,1l3.08.12c.78,0,.86.07.76.93a6.48,6.48,0,0,1-.48,1.55l1,.26.6-2.29-1-.13a8.22,8.22,0,0,1-.32,1.89c-.33.82-.57,1-1.45.94l-3.22,0,.25.93c.24-.11,2.56-.68,2.6-1-.05.4.33.81.74.56l.83-.51a.5.5,0,0,0-.51-.86l-.83.51.74.56c.28-2.06-3.31-.47-4.07-.13-.48.2-.21.92.25.93l3,0a3.64,3.64,0,0,0,1.94-.2c1-.63,1-2.6,1.08-3.63.07-.57-.84-.67-1-.14l-.61,2.3c-.17.63.74.85,1,.26.31-.8,1.17-2.76.23-3.48a2.58,2.58,0,0,0-1.48-.26l-3.08-.12v1a9.44,9.44,0,0,1,1.91.26l.14-1-1.72.1a.5.5,0,0,0-.13,1,8.56,8.56,0,0,0,1.88.36s.78.19.82.18.28-.76.56-.75l-.48-.37a1.17,1.17,0,0,1-.87,1.64l.48.37a2.38,2.38,0,0,1,.49-2.37l-.79-.1c.3.45.65,1.1.33,1.63,0,.53-.19.61-.65.24-.77-.08-.78-.4,0-1H848c.35.31.76,1,.53,1.48-.77.78-1.12.72-1-.19-.16-.73,0-.88.52-.45.8.28.62.39-.53.32-.25-.74-.21-.9.13-.47.39.23.33.49-.19.78a2.83,2.83,0,0,1-.91.62l.69.18a3.66,3.66,0,0,1-.3-.8c-.17-.35.05-.55.64-.59.12.24-1.26,1.21-1.33,1.25l.68.18a2.16,2.16,0,0,1-.47-1.85c.19-.84.42-.3.24.4-.08.33-.43,1.65-1.17,1.06a8.65,8.65,0,0,1,0-.88,1.68,1.68,0,0,1,.85-1.62l-.56-.23a2.77,2.77,0,0,1,.29,1.95,3.09,3.09,0,0,1-.34.84l-.34.45c-.35.4-.5.37-.46-.11a4,4,0,0,1,.17-2.25c.16-.61,0,.38-.06.41a2.8,2.8,0,0,1-.62,1.45l.79.1a4.33,4.33,0,0,1-.15-3.35l-.84.22a2.22,2.22,0,0,1-.06,3l.86.35a6.72,6.72,0,0,1,.63-3.3c.28-.58-.58-1.09-.86-.5Z" transform="translate(-780.24 -467.93)"/><path class="cls-9" d="M845.2,546.59l7.74-.68c.63-.06.64-1.06,0-1l-7.74.68c-.64.06-.64,1.06,0,1Z" transform="translate(-780.24 -467.93)"/><path class="cls-9" d="M845.94,549.34a2.21,2.21,0,0,1,1.48-1.2.5.5,0,0,0-.27-1,3.23,3.23,0,0,0-2.08,1.67c-.28.57.58,1.08.87.5Z" transform="translate(-780.24 -467.93)"/><path class="cls-9" d="M848,549.29l1.51-1.32c.49-.42-.22-1.13-.7-.71l-1.51,1.32c-.49.43.22,1.13.7.71Z" transform="translate(-780.24 -467.93)"/><path class="cls-9" d="M850.17,549.57a3,3,0,0,1,.93-.79.5.5,0,0,0-.51-.87,4.33,4.33,0,0,0-1.29,1.16c-.39.51.48,1,.87.5Z" transform="translate(-780.24 -467.93)"/><path class="cls-9" d="M852.15,549.86l.19-.19c.46-.46-.25-1.17-.7-.71l-.19.19a.5.5,0,0,0,.7.71Z" transform="translate(-780.24 -467.93)"/><path class="cls-9" d="M845.79,546.27a6.18,6.18,0,0,0,1.91,1.1c.6.22.86-.74.26-1a5,5,0,0,1-1.46-.85c-.49-.42-1.2.29-.71.71Z" transform="translate(-780.24 -467.93)"/><path class="cls-9" d="M848.17,546.52l2.23,1.18c.57.31,1.07-.56.5-.86l-2.23-1.19c-.57-.3-1.07.56-.5.87Z" transform="translate(-780.24 -467.93)"/><path class="cls-9" d="M851.35,546.18l1.51,1.12c.52.38,1-.48.51-.86l-1.52-1.12c-.52-.38-1,.48-.5.86Z" transform="translate(-780.24 -467.93)"/><path class="cls-1" d="M852.57,546.1a4.59,4.59,0,0,0,.81.89c.5.41,1.21-.3.71-.7a3.53,3.53,0,0,1-.65-.69c-.37-.53-1.24,0-.87.5Z" transform="translate(-780.24 -467.93)"/><path class="cls-1" d="M849.93,546.64l1.73.74c.59.25,1.1-.61.51-.86l-1.74-.74c-.59-.25-1.1.61-.5.86Z" transform="translate(-780.24 -467.93)"/><path class="cls-1" d="M847.54,546.75a6.93,6.93,0,0,0,1,.69.5.5,0,0,0,.5-.86,5.34,5.34,0,0,1-.8-.54c-.5-.4-1.21.3-.71.71Z" transform="translate(-780.24 -467.93)"/><path class="cls-1" d="M845.47,547.52a2.34,2.34,0,0,1,1.08.09l.13-1c-.51-.06-1.23-.3-1.56.23s-.1,1.11-.44,1.56l.92.39a.28.28,0,0,1,.17-.21.5.5,0,0,0-.39-.91,1.66,1.66,0,0,0-.48.24.5.5,0,0,0,.51.86l.23-.11c.59-.27.08-1.13-.5-.86l-.24.11.51.86a.58.58,0,0,1,.24-.14l-.38-.91a1.38,1.38,0,0,0-.64.8c-.19.58.6.81.92.39a2.26,2.26,0,0,0,.34-1.1,1,1,0,0,0,0-.3c0-.08,0-.09,0,0s-.08,0,0,0a2.37,2.37,0,0,0,.76.1c.58.08.65-.82.13-1a3.19,3.19,0,0,0-1.34-.12c-.63.08-.64,1.08,0,1Z" transform="translate(-780.24 -467.93)"/><path class="cls-1" d="M847.27,549.2a7.72,7.72,0,0,1,.74-.67c.5-.38,0-1.23-.5-.86a6.53,6.53,0,0,0-1.17,1,.51.51,0,0,0,.35.86.66.66,0,0,0,.47-.13c.53-.35,0-1.22-.51-.86h0l.36.85a5.51,5.51,0,0,1,1-.84l-.5-.86a7.37,7.37,0,0,0-.94.82c-.45.46.25,1.17.7.71Z" transform="translate(-780.24 -467.93)"/><path class="cls-1" d="M849.59,549.12a1.51,1.51,0,0,1,.56-.69.5.5,0,0,0-.51-.86,2.5,2.5,0,0,0-1.07,1.11c-.28.57.58,1.08.87.5a1.52,1.52,0,0,1,.71-.75l-.51-.86a2.47,2.47,0,0,0-.91,1c-.27.59.59,1.09.86.51Z" transform="translate(-780.24 -467.93)"/><path class="cls-1" d="M851.48,549.7c.24-.28.48-.56.74-.82a.51.51,0,0,0-.49-.84,1.92,1.92,0,0,0-1.1.88.52.52,0,0,0,.44.76,1.35,1.35,0,0,0,.59-.14c.58-.28.07-1.14-.5-.87h-.09l.43.75a.84.84,0,0,1,.5-.42l-.49-.84c-.25.27-.5.54-.73.82-.41.49.29,1.21.7.71Z" transform="translate(-780.24 -467.93)"/><path class="cls-9" d="M827.6,578.3a2.93,2.93,0,0,0-3.74,1.09,2.1,2.1,0,0,0,1,3,2.13,2.13,0,0,0,2.65-1.5c.66-1.82,0-4.32-.27-6.16,0-.28-.5-.21-.49.07.05,1.79-.28,4.11.31,5.82a1.88,1.88,0,0,0,2.2,1.41c.31-.06.18-.54-.14-.48-2.35.43-1.84-5.46-1.87-6.75l-.49.06a20.06,20.06,0,0,1,.43,5,2.55,2.55,0,0,1-.49,1.44c-.22.45-.62.55-1.2.28-.85.33-1.25.06-1.19-.79a.9.9,0,0,1,.29-1.4,1.08,1.08,0,0,1,1-.73,2.69,2.69,0,0,1,1.79.12c.3.11.43-.37.13-.48Z" transform="translate(-780.24 -467.93)"/><path class="cls-9" d="M831,582.05v-.55a.26.26,0,0,0-.25-.25.4.4,0,1,0,.09.77c.3-.11.17-.59-.13-.48l0,.21-.25-.25v.55a.25.25,0,0,0,.5,0Z" transform="translate(-780.24 -467.93)"/><path class="cls-9" d="M832.8,582a6.11,6.11,0,0,0,.44-4.1.25.25,0,0,0-.48.14l.57,2.46a3.33,3.33,0,0,0,.61,1.51,1.16,1.16,0,0,0,1.89-.08.25.25,0,0,0-.44-.25c-.44.79-1.19-.07-1.36-.5a6.45,6.45,0,0,1-.25-1l-.54-2.32-.48.14a5.53,5.53,0,0,1-.39,3.71c-.14.29.29.54.43.25Z" transform="translate(-780.24 -467.93)"/><path class="cls-9" d="M834,574.64a.73.73,0,0,0-1.17-.07c-.21.24.14.6.35.35a.25.25,0,0,1,.39,0c.19.25.63,0,.43-.25Z" transform="translate(-780.24 -467.93)"/><path class="cls-9" d="M837.24,581.57c-.52-.18-.81.53-.4.84.26.19.51-.24.25-.43v.07c.31.1.44-.38.14-.48Z" transform="translate(-780.24 -467.93)"/><path class="cls-9" d="M839.1,582.21a4.73,4.73,0,0,0,.86-3.65c-.06-.32-.54-.18-.48.13a4.31,4.31,0,0,1-.81,3.27c-.18.26.25.51.43.25Z" transform="translate(-780.24 -467.93)"/><path class="cls-9" d="M839.69,578.74c-.24.83-.72,4.21,1,3.83.66-.14,1-.9,1.26-1.46a5,5,0,0,0,.29-2.65c0-.32-.52-.19-.48.13a4.47,4.47,0,0,1,0,1.63,3,3,0,0,1-.64,1.48c-.1.22-.28.23-.54,0-.35.07-.51,0-.5-.35a2.53,2.53,0,0,1-.09-.87,5.44,5.44,0,0,1,.23-1.65.25.25,0,0,0-.48-.13Z" transform="translate(-780.24 -467.93)"/><path class="cls-9" d="M841.74,578.49l.1,3.12c0,.82.4,2.65.1,3.41.1.41-.14.61-.71.59-.73.49-.9.46-.54-.09.06-.57.72-1,1.12-1.4a25.33,25.33,0,0,0,2.13-1.88c.21-.24-.14-.59-.35-.35-1.06,1.19-2.73,1.94-3.4,3.45-.31.69-.45,2.09.58,2.32s1.52-1,1.64-1.75c.37-2.34-.1-5-.17-7.42,0-.32-.51-.32-.5,0Z" transform="translate(-780.24 -467.93)"/><path class="cls-9" d="M847.8,577.84c.35-.47.64,1,.64,1.1a4.94,4.94,0,0,1,0,.94,1.79,1.79,0,0,0,.28,1.24,1.38,1.38,0,0,0,1.8.14c1.22-.85,1.12-3.39-.35-3.91a.24.24,0,0,0-.28.11.7.7,0,0,0,.45,1c.68.16,1.1-.48,1.34-1,.14-.29-.29-.55-.43-.25a3,3,0,0,1-.18.36c-.18.44-.43.48-.75.11l-.28.11c1,.34,1,1.95.51,2.68a.84.84,0,0,1-1.61-.38c0-.4,0-.79,0-1.2s-.13-1.25-.62-1.55a.68.68,0,0,0-1,.2c-.2.26.23.51.43.26Z" transform="translate(-780.24 -467.93)"/><path class="cls-9" d="M851.08,577.46a14.87,14.87,0,0,1,.1,2.21,2.43,2.43,0,0,0,.26,1.57,1,1,0,0,0,1.61.07c.19-.26-.24-.51-.43-.25-.52.71-1-.56-1-.89s0-.52,0-.77a14,14,0,0,0-.11-1.94c0-.31-.54-.31-.5,0Z" transform="translate(-780.24 -467.93)"/><path class="cls-9" d="M855.15,577.49a2.76,2.76,0,0,0-3,1.78,2.29,2.29,0,0,0,.91,2.8c3.17,1.56,2.25-5.9,2.23-6.94a.25.25,0,0,0-.5,0,24.45,24.45,0,0,0,.17,3.63,5.79,5.79,0,0,0,.82,2.81c1,1.15,2-.89,2-1.73,0-.32-.49-.32-.5,0q-1.18,1.67-1.41.63c-.07-.23-.14-.45-.19-.68a11.06,11.06,0,0,1-.29-1.8,27.32,27.32,0,0,1-.08-2.86h-.5c0,1.52.16,3.1.08,4.62,0,.31,0,1.18-.27,1.35L852.7,581l-.19-.92a2.28,2.28,0,0,1,2.64-2.1c.32,0,.32-.46,0-.5Z" transform="translate(-780.24 -467.93)"/><path class="cls-9" d="M857.69,579.79a2,2,0,0,0,1.35-2.45c-.38-1-1.36-.81-1.8,0a3.23,3.23,0,0,0,.12,3.45,1.79,1.79,0,0,0,2.77.15c.21-.24-.14-.59-.35-.35a1.28,1.28,0,0,1-1.68.22,2.1,2.1,0,0,1-.77-2c0-.4.56-2.29,1.22-1.28.45.68-.46,1.58-1,1.8-.29.12-.16.61.13.48Z" transform="translate(-780.24 -467.93)"/><path class="cls-9" d="M858.5,573.93a1.86,1.86,0,0,1-1,.87c-.3.11-.17.59.13.48a2.43,2.43,0,0,0,1.35-1.09c.16-.28-.28-.54-.44-.26Z" transform="translate(-780.24 -467.93)"/><path class="cls-9" d="M851.47,574.33a.5.5,0,0,0-.15.9.24.24,0,0,0,.3,0,.43.43,0,0,0-.07-.69c-.26-.19-.51.24-.25.44l0-.1.3,0h0c.31-.07.18-.55-.13-.48Z" transform="translate(-780.24 -467.93)"/><path class="cls-9" d="M862.34,576.63c-2-.44-3.26,1.42-2.86,3.24s2.41,2.29,3.3.59c.51-1,.18-4.27-1.61-3.5a1,1,0,0,0-.33,1.47,1.45,1.45,0,0,0,2.06.1c.27-.17,0-.61-.25-.43a1.44,1.44,0,0,1-.82.32c.25-.71.43-.77.55-.21a3.56,3.56,0,0,1,.16,1c0,1-1.11,2.57-2.16,1.41-1.23-1.36-.08-4,1.82-3.53.32.07.45-.41.14-.48Z" transform="translate(-780.24 -467.93)"/><path class="cls-9" d="M862.63,578.63c.61-.09.43-.6.85-.9.75-.54.79.93.8,1.38a12.55,12.55,0,0,1-.1,1.94h.5l-.06-1.69c0-.35-.17-1.1,0-1.38.82-1.21,1.26,1.39,1.26,1.43a8.19,8.19,0,0,1-.13,1.64l.49.06a4.91,4.91,0,0,1,.51-3.72l-.34.09c1.56.91,0,2.71,1,3.71.46.46,1,.08,1.41-.26s-.11-.56-.35-.35c-.65-.14-.91-.46-.79-1,0-.26,0-.51,0-.77a3.42,3.42,0,0,0-.12-.7,1.79,1.79,0,0,0-.87-1.09.26.26,0,0,0-.34.09,5.22,5.22,0,0,0-.58,4c0,.25.44.38.49.07.17-1.09.47-3.69-1.12-4s-1,3.17-1,3.89a.25.25,0,0,0,.5,0c.11-.91.54-3.38-.47-4s-1,1-1.72,1.14c-.31,0-.18.52.14.48Z" transform="translate(-780.24 -467.93)"/><path class="cls-9" d="M871.07,577c-2.25-.43-3.8,2.7-1.84,4.09a1.61,1.61,0,0,0,2.32-.41c.63-1,.24-2.45,0-3.5l-.48.13a12.8,12.8,0,0,1,.32,2.54,2.22,2.22,0,0,0,.29,1.21,1,1,0,0,0,1.53.13c.21-.24-.14-.6-.35-.35-.66-.1-1-.39-1-.85,0-.14,0-.28,0-.42a7.89,7.89,0,0,0,0-.84,10.07,10.07,0,0,0-.28-1.55c-.08-.32-.55-.18-.48.13.22,1,.85,3.34-.72,3.52-2.2.25-1.8-3.8.58-3.35.32.06.45-.42.14-.48Z" transform="translate(-780.24 -467.93)"/><path class="cls-9" d="M873,581.3a4.42,4.42,0,0,0,1.23-2.38c.16-1-.27-2-.26-3a.25.25,0,0,0-.5,0,26.7,26.7,0,0,0,0,2.83,5.84,5.84,0,0,0,.38,2.19,1.05,1.05,0,0,0,1.71.36c.23-.23-.13-.58-.36-.35-.62,0-1-.16-1-.59a3.6,3.6,0,0,1-.12-.81c0-.4-.08-.8-.1-1.2a21.89,21.89,0,0,1,0-2.43h-.5c0,.8.29,1.55.3,2.34a3.81,3.81,0,0,1-1.12,2.74c-.22.23.13.58.35.35Z" transform="translate(-780.24 -467.93)"/><path class="cls-9" d="M873.69,577.42a3.65,3.65,0,0,0,1.09-.12.25.25,0,0,0-.13-.48,3.45,3.45,0,0,1-1,.1c-.33,0-.32.48,0,.5Z" transform="translate(-780.24 -467.93)"/><path class="cls-9" d="M877.05,576.81c-2.26-.33-3,3-1.47,4.28,1.86,1.63,3.73-.75,3.18-2.65-.23-.78-1-1.8-1.89-1.61a1,1,0,0,0-.55,1.61c.43.58,1.36,1,2,.48.28-.26.57-1.65,1.16-1.3.33.2.4,1.39.4,1.7a4.34,4.34,0,0,1-.25,1.48c-.1.31.38.44.48.14a4.48,4.48,0,0,0-.2-3.57c-.4-.66-1.09-.58-1.47.09-.11.19-.11.44-.22.62-.51.59-1,.67-1.36.22,0-.92.25-1.18.67-.8.9.38,1,1.86.68,2.62a1.44,1.44,0,0,1-2.69,0c-.51-1-.13-3.09,1.41-2.87.32.05.45-.44.13-.48Z" transform="translate(-780.24 -467.93)"/><path class="cls-9" d="M880.12,580.36a13,13,0,0,1,.17-1.87c.08-.5,0-.58.58-.58s.53.15.53.68a5.94,5.94,0,0,0,.07,2.34c.43,1,1.89,1.31,2.25.1.09-.31-.4-.44-.49-.13-.73.38-1.16.31-1.29-.2a.87.87,0,0,1-.11-.44,3.84,3.84,0,0,1,0-.83,5.93,5.93,0,0,0,0-1.33c-.07-.49-.3-1.13-.85-1.24-1.48-.3-1.39,2.7-1.41,3.5,0,.32.48.32.5,0Z" transform="translate(-780.24 -467.93)"/><path class="cls-9" d="M815.73,495.54l.72,47.84c.11,7.64.15,15.29.34,22.93.06,2.19.28,3.38,2.6,3.82a38.68,38.68,0,0,0,10.42,0c15.24-1.41,30.53-.49,45.83-.72,3.93,0,7.88-.1,11.82-.26,2.53-.11,3.12-.6,3.32-3.18.58-7.69.82-15.45.92-23.16.22-17.07-.48-34.16-.87-51.22a.5.5,0,0,0-1,0c.32,14.19.78,28.38.89,42.58q.07,10.35-.36,20.71c-.15,3.37-.32,6.75-.53,10.13-.07,1.15.11,1.7-.75,2.52s-1.47.62-2.61.65l-5.91.15q-10.83.23-21.67.15c-7,0-14.1-.55-21.11-.1-3.29.2-6.56.67-9.85.91-1.56.11-3.12.18-4.68.14-.93,0-1.87-.07-2.79-.18-1.91-.24-2.37-1.24-2.67-3-.58-3.45-.11-7.48-.16-11l-.16-11-.74-48.84a.5.5,0,0,0-1,0Z" transform="translate(-780.24 -467.93)"/></svg>