<svg id="Calque_1" data-name="Calque 1" xmlns="http://www.w3.org/2000/svg" viewBox="0 0 81.47 60.43"><defs><style>.cls-1{fill:#441b0a;}.cls-2{fill:#523e2d;}.cls-3{fill:#9db7b5;}.cls-4{fill:#1d1d1b;}.cls-5{fill:#2b1f11;}.cls-6{opacity:0.45;}.cls-7{fill:#1d71b8;}.cls-8{opacity:0.58;}.cls-9{fill:#62402f;}.cls-10{opacity:0.68;}.cls-11{fill:#432b1d;}</style></defs><title>48</title><path class="cls-1" d="M836.35,516.64l-6.82.54c-3.33.26-7.11.77-9,3.5s-1,6.72-.26,10.12a72.32,72.32,0,0,1,1.89,15.92c0,3.55-.21,7.14.48,10.62s2.49,6.95,5.59,8.68a11.48,11.48,0,0,0,8.56.72,25.77,25.77,0,0,0,7.8-4,8.14,8.14,0,0,0,2.5-2.35,8.58,8.58,0,0,0,.89-2.7,175.51,175.51,0,0,0,3.6-31.58c.07-2.86,0-6-1.75-8.21a8.86,8.86,0,0,0-6.18-3.12,26.46,26.46,0,0,0-7.09.53" transform="translate(-813.11 -509.83)"/><path class="cls-1" d="M836.35,516.14c-4.41.35-10.09-.06-14.06,2.27-3.49,2-3.82,5.9-3.19,9.53,1,6,2.38,11.72,2.5,17.84.11,5.17-.51,10.63,1.75,15.46,4.45,9.56,15.28,6.69,22.07,1.5,3.7-2.83,3.71-8.24,4.4-12.5.93-5.76,1.58-11.57,1.94-17.39.28-4.64,1.51-11.31-1.61-15.31-3.28-4.19-9.15-3.47-13.76-2.71-.63.1-.36,1.07.27,1,4.37-.72,10.4-1.5,13.14,3,2.18,3.59,1.24,9.12,1,13.1q-.39,7.15-1.38,14.27c-.58,4.18-1,8.77-2.31,12.79-1.26,3.84-7.65,6.73-11.28,7.5a10,10,0,0,1-11.63-5.71c-2-4.37-1.56-9.34-1.59-14a74.07,74.07,0,0,0-1.15-12.35c-.77-4.34-3.6-10.81.31-14.38,3.43-3.13,10.27-2.51,14.57-2.85.64,0,.64-1,0-1Z" transform="translate(-813.11 -509.83)"/><path class="cls-2" d="M859.84,514.5c-1.86-.14-3,2-3.54,3.74A87.4,87.4,0,0,0,853.6,560c.44,2.41,1.11,5,3.09,6.46a9.37,9.37,0,0,0,4.32,1.41c6.13.86,12.36.65,18.55.44a13.58,13.58,0,0,0,4.75-.74,9.14,9.14,0,0,0,4.93-6.11,27,27,0,0,0,.64-8.07l-.45-21.21c-.08-3.75-.23-7.74-2.31-10.86-2.73-4.1-8-5.6-13-5.94s-10,.15-14.67-1.27" transform="translate(-813.11 -509.83)"/><path class="cls-2" d="M859.84,514c-4.27.25-5,7.2-5.73,10.3a87.93,87.93,0,0,0-2.34,17.84,85,85,0,0,0,1.35,18c.9,4.82,2.9,7.52,7.89,8.24a96,96,0,0,0,19.77.38,9.39,9.39,0,0,0,9-7.16,27.53,27.53,0,0,0,.65-8.2c-.06-3.54-.15-7.07-.22-10.61-.12-5.61.38-11.67-.8-17.19-3-14-19.83-9.22-29.73-12a.5.5,0,0,0-.27,1c8.3,2.3,19.77-1.27,26.32,5.73,3.55,3.78,3.2,9.45,3.3,14.27l.34,15.9c.1,5,.9,11.23-3,15.09-2,2-4.63,2.15-7.28,2.24s-5.55.19-8.33.17c-2.6,0-5.21-.11-7.8-.38-3-.31-6.09-.66-7.65-3.61-1.08-2.05-1.33-4.59-1.66-6.85a84.39,84.39,0,0,1-.81-8.55,87.21,87.21,0,0,1,.92-17.24q.63-4.1,1.65-8.09c.58-2.28,1.38-8.05,4.44-8.23.64,0,.64-1,0-1Z" transform="translate(-813.11 -509.83)"/><path class="cls-3" d="M848.64,531.49c-.64,1.69-2.57,2.39-4,3.43-2.18,1.55-3.48,4.06-4.4,6.57A35.61,35.61,0,0,0,838.58,560a1.93,1.93,0,0,0,.53,1.19,2,2,0,0,0,1.19.3l25.45.71a33.91,33.91,0,0,0-7.14-29.09c-2-2.34-5.25-4.55-8-3.07-.32.18-.73.39-1,.15s.43-.62.34-.27" transform="translate(-813.11 -509.83)"/><path class="cls-3" d="M848.2,531.24c-1.09,2.17-3.83,2.89-5.43,4.66a16.6,16.6,0,0,0-3,5.46,35.66,35.66,0,0,0-2,16.41c.17,1.49.07,3.43,1.66,4.07a7.11,7.11,0,0,0,2.35.17l4.9.14,19.08.53a.48.48,0,0,0,.48-.36,34.82,34.82,0,0,0-2.48-22.14,26.64,26.64,0,0,0-6.35-9,8.62,8.62,0,0,0-4-2.07,4.93,4.93,0,0,0-1.58,0,2.51,2.51,0,0,0-.77.21.93.93,0,0,0-.9.88l-.68-.18.11.14c.38.51,1.25,0,.86-.5l-.11-.14a.5.5,0,0,0-.68-.18l-.25.16a.5.5,0,0,0-.24.43v.25a.5.5,0,0,0,.36.48c1.5.25,2.66-.87,4.27-.42,2.06.56,3.68,2.22,5,3.83a32.49,32.49,0,0,1,5.8,11,33.86,33.86,0,0,1,1.49,10.86c0,1.55.22,5-1.28,5.78-.65.35-2.64-.08-3.42-.1l-3.43-.1-13.21-.37c-2.37-.07-5,.57-5.8-2.13a22.41,22.41,0,0,1-.34-7c.21-4.4,1.16-9.32,3.38-13.18a12.89,12.89,0,0,1,4.66-4.53,6.45,6.45,0,0,0,2.46-2.51c.29-.58-.58-1.08-.87-.51Z" transform="translate(-813.11 -509.83)"/><path class="cls-4" d="M846.81,521.11c-1.06,3.36.4,7.6,2.52,10.32,1.66,2.14,4.33,1.56,5.78-.52a16.44,16.44,0,0,0,1.95-4.93c.39-1.41,1-3.43.29-4.84a2.39,2.39,0,0,0-1.8-1.28c-2.35-.53-5.28-.08-7.69-.08a.5.5,0,0,0,0,1h3.74a12.74,12.74,0,0,1,3.38,0c3.07,1,1.15,5,.46,7-.42,1.17-1,3.36-2.41,3.76l-3-.84a10.1,10.1,0,0,1-.62-1.11c-1.35-2.54-2.51-5.31-1.6-8.19.19-.62-.77-.88-1-.27Z" transform="translate(-813.11 -509.83)"/><path class="cls-5" d="M848.12,520.49c-1.1,0-1.78,1.28-1.8,2.37a1,1,0,0,0,.25.79c.2.2.63.14.68-.14a3.25,3.25,0,0,0-1.48,2.15c0,.9,1.1,1.76,1.76,1.15a3,3,0,0,0-1,1.2,1,1,0,0,0,.55,1.29,1.48,1.48,0,0,0,1.17-.4,1.73,1.73,0,0,0-.14,2,1.1,1.1,0,0,0,1.75.07c-.28.23.25.63.58.48s.55-.53.92-.57a1.34,1.34,0,0,0,1.5.78,1.36,1.36,0,0,0,1-1.38,1.26,1.26,0,0,0,1.37-1.56,1.43,1.43,0,0,0,1.7-1.82,1.54,1.54,0,0,0,1.12-2c.5.08.92-.45,1-1s0-1,0-1.53.49-1.27.19-1.82c-.4-.75-1.51-.48-2.34-.31-2.91.61-6.17-1.33-8.79.09" transform="translate(-813.11 -509.83)"/><path class="cls-5" d="M848,520c-2.82.7-2.23,5.48-.38,3.85.49-.42-.22-1.12-.7-.7-.91.78-2.06,2-1.46,3.28a1.65,1.65,0,0,0,2.34.8l-.6-.78c-.74.69-1.67,1.76-.91,2.81.6.85,1.52.5,2.25.06l-.69-.68c-.86,1.79.43,4.28,2.41,2.63l-.84-.49,0,.26a.52.52,0,0,0,.13.49c.86.68,1.28.16,2.15-.28l-.68-.18c1.46,2,3.06.46,4.28-.84.21-.22.3-.66.52-.83s.46-.21.67-.38a2.11,2.11,0,0,0,1-2.31l-.35.62a2.14,2.14,0,0,0,1.46-2.63l-.35.61c1.47-.3,1.31-1.58,1.47-2.82.13-1,.56-2.16-.55-2.78a2.64,2.64,0,0,0-1.5-.12,19.14,19.14,0,0,1-4.28,0c-1.91-.28-3.6-.51-5.42.28-.59.25-.08,1.11.51.86,2.43-1,4.92.17,7.42.09,1,0,1.58-.43,2.35.27,1,.85.36.31.42,1.18,0,.56-.06,1.94-.69,2.07a.51.51,0,0,0-.35.61l-.76,1.4a.53.53,0,0,0-.35.62l-1.22,1.18a.51.51,0,0,0-.5.5l-.87,1.06a.52.52,0,0,0-.49.37l-1.58.48a.51.51,0,0,0-.69-.18,1.06,1.06,0,0,0-.76.66.5.5,0,0,0-.83-.49l-.83-1.42a.51.51,0,0,0-.69-.68l-.13-1.31c.44-.41-.11-1-.6-.78-.68-1.16-.57-2,.32-2.52l-.7-.7c-.3-.88.15-1.61,1.35-2.18a.5.5,0,0,0-.27-1Z" transform="translate(-813.11 -509.83)"/><g class="cls-6"><path class="cls-7" d="M848.37,531.25a8.64,8.64,0,0,0,7.25.37l-3.71,3.56a3.5,3.5,0,0,0,1.87-.1c-.92.85-2.32.81-3.5,1.24a7,7,0,0,0-3.73,4.32c-.69,1.83-1,3.8-1.82,5.59a8.66,8.66,0,0,0-.67,1.68,5.18,5.18,0,0,0,.05,2,13.4,13.4,0,0,0,8,9.83,39.2,39.2,0,0,0-8.39.27,6.09,6.09,0,0,1-2.84.13c-1.95-.6-2.49-3.06-2.69-5.1a9.2,9.2,0,0,0,.66,3.85c-1.85-2.5-.82-6-.16-9,.86-4,1-8.33,3.13-11.84a11.65,11.65,0,0,1,6-4.86l-.65-.94a.82.82,0,0,1,.67-.46" transform="translate(-813.11 -509.83)"/><path class="cls-7" d="M848.12,531.68a9.61,9.61,0,0,0,7.63.43l-.49-.84-3.7,3.56a.5.5,0,0,0,.35.85,5.23,5.23,0,0,0,2-.11l-.39-.92c-1.38.94-3.07.84-4.46,1.74a7.14,7.14,0,0,0-2.33,2.64,17.87,17.87,0,0,0-1.42,3.88c-.49,1.66-1.41,3.27-1.75,4.94-1.05,5.15,4.09,10.47,8.34,12.33l.25-.94a43.16,43.16,0,0,0-7.54.14c-1.52.2-3.28.68-4.49-.44-1-1-1.24-2.56-1.39-3.9-.08-.62-1-.66-1,0a11.57,11.57,0,0,0,.67,4l.92-.39c-1.55-2.47-.86-5.19-.28-7.86.41-1.88.69-3.77,1-5.66.9-5,2.84-9.45,7.9-11.46a.52.52,0,0,0,.3-.74c-.3-.18-.39-.4-.28-.65.61-.21.35-1.18-.26-1a1.45,1.45,0,0,0-.89.59.53.53,0,0,0-.08.61l.64.93.3-.74c-5,2-7.44,6.2-8.45,11.35-.57,2.93-1.18,5.89-1.66,8.84a8.59,8.59,0,0,0,.86,6.27c.29.46,1.11.17.92-.39a10.7,10.7,0,0,1-.64-3.72h-1c.24,2.09.7,4.78,3,5.55,1.28.44,2.73,0,4-.21a44.6,44.6,0,0,1,7.4-.14c.47,0,.72-.73.26-.93a13.26,13.26,0,0,1-5.56-4.37,12.88,12.88,0,0,1-1.92-3.74,6.34,6.34,0,0,1,.25-4.77c.81-2.24,1.23-4.82,2.41-6.9a5.84,5.84,0,0,1,3.54-2.94,9.22,9.22,0,0,0,2.9-1.08.5.5,0,0,0-.39-.91,3.32,3.32,0,0,1-1.74.08l.35.86L856,532a.51.51,0,0,0-.49-.84,8.71,8.71,0,0,1-6.86-.32c-.57-.28-1.08.59-.5.86Z" transform="translate(-813.11 -509.83)"/></g><path class="cls-4" d="M848.51,529.8a1.91,1.91,0,0,0-1.77,2.81c.65,1.55,3.11,3.08,4.67,3.39,2.14.44,4.18-1.11,5.47-2.68.45-.56,1-1.18.68-2s-1.44-.8-1.62-1.48a.5.5,0,0,0-1,.26,1.35,1.35,0,0,0,.57.87c.55.46.68.08.68,1,0,.74-.37,1-.89,1.46-1.2,1.1-2.38,1.81-4,1.39a5.35,5.35,0,0,1-1.84-.9l-.85-.63c-.84-.54-.89-1.38-.13-2.53.64.07.63-.93,0-1Z" transform="translate(-813.11 -509.83)"/><path class="cls-4" d="M847.31,531.12c.05,1.65-2.25,2.36-3.32,3.18a11.34,11.34,0,0,0-2.22,2.21,14.78,14.78,0,0,0-2.38,5.52c-1.45,5.71-2.57,11.56-1.85,17.46.08.63,1.08.64,1,0-.75-6.13.4-12.44,2.11-18.34a11.41,11.41,0,0,1,5.1-6.82c1.31-.82,2.61-1.49,2.56-3.21a.5.5,0,0,0-1,0Z" transform="translate(-813.11 -509.83)"/><path class="cls-4" d="M857.45,532.68a34.72,34.72,0,0,1,8.74,26.3c-.06.64.94.64,1,0a35.74,35.74,0,0,0-9-27c-.43-.48-1.13.23-.7.71Z" transform="translate(-813.11 -509.83)"/><path class="cls-4" d="M843.14,549l-.61,9.23c0,.64,1,.64,1,0l.61-9.23c0-.64-1-.64-1,0Z" transform="translate(-813.11 -509.83)"/><path class="cls-4" d="M859.88,550.5a15.43,15.43,0,0,1,1.3,9.1c-.1.63.87.9,1,.27a16.62,16.62,0,0,0-1.41-9.87c-.27-.58-1.13-.08-.86.5Z" transform="translate(-813.11 -509.83)"/><g class="cls-8"><path class="cls-5" d="M823.76,521.94A56.19,56.19,0,0,0,828,540.32a110.36,110.36,0,0,0,5,10.16l5.09,9.43a44.46,44.46,0,0,1-11.29.42c-1.59-.14-3.34-.46-4.32-1.71a6.36,6.36,0,0,1-.91-4q-.08-8.17-.09-16.37c0-5.07,0-10.19,1.12-15.14" transform="translate(-813.11 -509.83)"/><path class="cls-5" d="M823.26,521.94a58.24,58.24,0,0,0,4.28,18.63c2.83,6.77,6.67,13.14,10.15,19.59l.3-.74c-4,.62-8.78,1.19-12.75.17-4.47-1.16-3.17-8.09-3.19-11.66,0-8.15-.65-16.61,1.06-24.63.14-.63-.83-.9-1-.27-2.12,9.92-1.16,20.6-1.06,30.68,0,3,.25,5.8,3.55,6.76,4.22,1.23,9.35.58,13.62-.08.33,0,.43-.48.3-.74-3.19-5.9-6.63-11.73-9.4-17.85a57.12,57.12,0,0,1-4.9-19.86c0-.64-1-.64-1,0Z" transform="translate(-813.11 -509.83)"/></g><path class="cls-9" d="M815.49,511.8c28.08-1.2,44.41-.24,70.56-1.11,2.05-.07,4.57-.08,5.48,1.75a5.11,5.11,0,0,1,.39,2.13l.8,21.11q.51,13.67,1,27.33c.08,2,0,4.42-1.64,5.62-1.11.81-32.18.5-45.06.74-8.61.16-22.19.54-30.61-1.28a2.45,2.45,0,0,1-1.4-.66,2.54,2.54,0,0,1-.39-1.59L814,520.4c0-2.53-.08-5.06,0-7.6Zm7.6,9.59c-.07,1.75,0,3.49,0,5.24l.51,31.36a1.6,1.6,0,0,0,.3,1.09,1.93,1.93,0,0,0,1.08.46c6.5,1.26,17,1,23.63.89,9.95-.17,33.94.05,34.79-.51,1.27-.83,1.34-2.47,1.28-3.88l-.8-18.86-.62-14.57a3.23,3.23,0,0,0-.3-1.47c-.71-1.26-2.66-1.25-4.23-1.2-20.2.59-32.8-.07-54.49.76Z" transform="translate(-813.11 -509.83)"/><path class="cls-4" d="M815.49,512.55c18.22-.77,36.44-.55,54.66-.76q7-.09,14.07-.29c2.13-.07,5.91-.77,6.83,1.82.41,1.14.18,2.91.23,4.13l.18,4.79q.6,16,1.21,32L893,562c.06,1.68.49,5.1-1.36,6-1.13.52-3.19.23-4.39.27-6,.19-11.92.18-17.87.2-14.08.06-28.31.81-42.38.08-2.41-.13-4.82-.31-7.21-.65a12.07,12.07,0,0,1-3.12-.54c-1.5-.74-1.25-2.48-1.27-4l-.27-18.27-.27-18.77c0-2.93-.1-5.85-.12-8.78,0-.63,0-1.26,0-1.9,0-.06-.2-2.29-.21-2.27.15-.33,1.06-.72,1.37-.93.79-.54,0-1.84-.76-1.3-.59.4-1.51.78-1.82,1.45s-.08,2.7-.08,3.53c0,1.75,0,3.51,0,5.26q.13,9.14.26,18.27l.27,18.28c0,2.75-.26,5.74.14,8.46a2.57,2.57,0,0,0,2.06,2.35c3.88,1.24,8.51,1.22,12.54,1.38,4.85.19,9.7.15,14.55.06,7-.12,13.95-.17,20.92-.19s14.22,0,21.33-.17c3.81-.09,8.27.83,9.06-4,.4-2.49,0-5.16-.07-7.67l-.35-9.27-.68-18-.33-8.64a77,77,0,0,0-.36-8.6c-.58-3.87-4.32-3.76-7.46-3.67-23.22.7-46.44.1-69.65,1.08C814.53,511.09,814.52,512.59,815.49,512.55Z" transform="translate(-813.11 -509.83)"/><path class="cls-4" d="M822.34,521.39c-.27,8.91.2,17.89.34,26.8l.11,6.86c0,1.25-.38,3.33.45,4.41,1.21,1.57,5.48,1.38,7.23,1.52,12.06.91,24.36.14,36.45.1,4.76,0,9.54,0,14.29-.19a6.66,6.66,0,0,0,2.56-.32c2.42-1.27,1.61-5.45,1.52-7.5l-1.17-27.55c-.12-2.8.27-5.67-3.1-6.25s-7.49.06-11,.11c-8,.12-16.08.07-24.13.12q-6.61,0-13.23.18c-3.14.08-7.18-.6-9.93,1.06-.82.5-.07,1.8.76,1.3,2.21-1.34,5.72-.77,8.28-.83,3.65-.1,7.31-.16,11-.19,6.17-.06,12.33,0,18.5-.06q4.81,0,9.63-.09l5.17-.11c2.25-.06,5.59-.94,6.49,1.85.52,1.63.17,4.1.24,5.83l.21,4.85.54,12.82c.16,3.6.85,7.6.42,11.17-.28,2.39-1.51,2.07-3.37,2.14-4.12.15-8.24.14-12.37.16-10.2,0-20.43.32-30.64.18a91.89,91.89,0,0,1-9.95-.56,9.67,9.67,0,0,1-2.41-.38c-1.32-.7-.86-2.54-.88-3.77l-.11-6.86c-.14-8.91-.61-17.89-.34-26.8A.75.75,0,0,0,822.34,521.39Z" transform="translate(-813.11 -509.83)"/><g class="cls-10"><path class="cls-11" d="M815.24,512.84l5.49,6a9.23,9.23,0,0,1,1.91,2.66,9.11,9.11,0,0,1,.46,3.25l.63,31.85a4.43,4.43,0,0,0,.28,1.73c.64,1.36,2.42,1.65,3.92,1.75,18.74,1.31,37.6,2.62,56.29.69-7,2.71-14.1,5.43-21.49,6.89-10.85,2.14-22,1.51-33.08.87l-9-.53c-1.65-.1-3.49-.28-4.57-1.53-.95-1.08-1-2.65-1.06-4.09l-.56-25.43a174.36,174.36,0,0,1,.8-24.08" transform="translate(-813.11 -509.83)"/><path class="cls-11" d="M814.71,513.37l4.88,5.31a9.3,9.3,0,0,1,2.78,7c.11,5,.2,9.95.3,14.93l.27,13.94c.07,3.47.37,5.6,4.13,6.14,4.5.64,9.17.66,13.7.94s9.23.51,13.84.66a226.86,226.86,0,0,0,29.61-.83L884,560c-9.68,3.72-19.32,7.16-29.73,8-9.86.81-19.77,0-29.61-.57-2-.12-4.82.18-6.7-.65-3-1.34-2.27-5.66-2.32-8.38l-.35-15.64c-.22-10-.37-20,.67-29.95.1-1-1.4-1-1.5,0a203.61,203.61,0,0,0-.77,25.55l.29,13.2c.09,4.08-.2,8.37.35,12.42.37,2.76,2,4.17,4.73,4.57,3.92.58,8,.52,12,.75,8.67.5,17.4.93,26-.08,9.51-1.1,18.42-4.36,27.3-7.78.72-.28.72-1.57-.2-1.48-18.35,1.84-37,.86-55.3-.62a7.74,7.74,0,0,1-2.76-.35c-2.13-1.08-1.7-3.6-1.74-5.44l-.14-7L824,532.68c0-2.32-.09-4.65-.14-7a12.58,12.58,0,0,0-.58-4.61,14.18,14.18,0,0,0-2.95-3.82l-4.57-5c-.65-.71-1.71.35-1.06,1.06Z" transform="translate(-813.11 -509.83)"/></g><path class="cls-4" d="M815.49,512.44c18.22-.77,36.44-.55,54.66-.76q7-.07,14.07-.29c2.13-.06,5.91-.76,6.83,1.82.41,1.14.18,2.91.23,4.13l.18,4.79q.6,16,1.21,32l.3,7.81c.06,1.68.49,5.1-1.36,6-1.13.52-3.19.23-4.39.27-6,.19-11.92.18-17.87.21-14.08,0-28.31.8-42.38.07-2.41-.13-4.82-.31-7.21-.65a11.66,11.66,0,0,1-3.12-.54c-1.5-.74-1.25-2.48-1.27-4L815.1,545l-.27-18.77c0-2.92-.1-5.85-.12-8.78,0-.63,0-1.26,0-1.9,0-.06-.2-2.29-.21-2.27.15-.32,1.06-.72,1.37-.93.79-.54,0-1.84-.76-1.3-.59.41-1.51.78-1.82,1.45s-.08,2.7-.08,3.53c0,1.75,0,3.51,0,5.26q.13,9.13.26,18.28l.27,18.27c0,2.75-.26,5.74.14,8.46a2.57,2.57,0,0,0,2.06,2.35c3.88,1.24,8.51,1.22,12.54,1.38,4.85.19,9.7.15,14.55.06,7-.12,13.95-.17,20.92-.19s14.22,0,21.33-.17c3.81-.09,8.27.83,9.06-4,.4-2.49,0-5.16-.07-7.67l-.35-9.27-.68-18-.33-8.64a77,77,0,0,0-.36-8.6c-.58-3.87-4.32-3.76-7.46-3.67-23.22.71-46.44.1-69.65,1.08C814.53,511,814.52,512.48,815.49,512.44Z" transform="translate(-813.11 -509.83)"/><path class="cls-4" d="M822.34,521.28c-.27,8.91.2,17.89.34,26.8l.11,6.86c0,1.25-.38,3.33.45,4.41,1.21,1.57,5.48,1.38,7.23,1.52,12.06.91,24.36.15,36.45.1,4.76,0,9.54,0,14.29-.19a6.66,6.66,0,0,0,2.56-.32c2.42-1.27,1.61-5.45,1.52-7.5l-1.17-27.55c-.12-2.8.27-5.67-3.1-6.25s-7.49.06-11,.11c-8,.12-16.08.08-24.13.12q-6.61,0-13.23.18c-3.14.08-7.18-.6-9.93,1.06-.82.5-.07,1.8.76,1.3,2.21-1.34,5.72-.77,8.28-.83,3.65-.1,7.31-.16,11-.19,6.17,0,12.33,0,18.5-.06q4.81,0,9.63-.09l5.17-.11c2.25-.06,5.59-.94,6.49,1.85.52,1.63.17,4.1.24,5.83l.21,4.85.54,12.83c.16,3.59.85,7.59.42,11.16-.28,2.39-1.51,2.07-3.37,2.14-4.12.15-8.24.14-12.37.16-10.2,0-20.43.32-30.64.18a91.89,91.89,0,0,1-9.95-.56,9.67,9.67,0,0,1-2.41-.38c-1.32-.7-.86-2.53-.88-3.77l-.11-6.86c-.14-8.91-.61-17.89-.34-26.8A.75.75,0,0,0,822.34,521.28Z" transform="translate(-813.11 -509.83)"/></svg>