<svg id="Calque_1" data-name="Calque 1" xmlns="http://www.w3.org/2000/svg" viewBox="0 0 285.96 166.08"><defs><style>.cls-1{fill:#62402f;}.cls-2{fill:#683c11;}.cls-3{fill:#7d4e24;}.cls-4{fill:#b17f4a;}.cls-5{fill:#b69164;}.cls-6{fill:#1d1d1b;}.cls-7{fill:#5297d2;}.cls-8{fill:#be1622;}.cls-9{fill:#fff;}.cls-10{fill:#edc088;}.cls-11{fill:#cbbba0;}.cls-12{fill:#495e5a;}.cls-13{fill:#d8ebe1;}.cls-14{fill:#f9c9b9;}.cls-15{fill:#95c11f;}.cls-16{fill:#f4d5b2;}.cls-17{fill:#ffdb00;}.cls-18{fill:#f39200;}.cls-19{fill:#b2b2b2;}.cls-20{fill:#313233;}.cls-21{fill:#2fac66;}</style></defs><title>caisse_livres02</title><path class="cls-1" d="M734.53,475l-2.18,47.45c-1.4,30.43-2.73,61.52,5.87,90.73.64,2.18,1.47,4.52,3.4,5.72a9.59,9.59,0,0,0,4.53,1c20.84,1.31,41.74,1.13,62.62.94l133-1.17c15.16-.14,30.37-.28,45.39-2.37a8.46,8.46,0,0,0,4.33-1.46c2.56-2.12,1.9-6.15.93-9.33-10.44-34.1-29.28-65.93-33.34-101.36-1.24-10.76-1.07-21.65-2.38-32.4-.24-2-.6-4.13-2-5.62-1.72-1.9-4.53-2.23-7.08-2.36-14.89-.73-29.74,1.59-44.53,3.39-54.88,6.68-110.33,6.29-165.61,5.9" transform="translate(-710.57 -457.68)"/><path class="cls-1" d="M734,475c-1.2,26.18-3,52.42-3.2,78.63A253.83,253.83,0,0,0,733,591.3a159.29,159.29,0,0,0,3.7,18.37c1,4,1.92,9.25,6.56,10.4a42.67,42.67,0,0,0,7.83.65c3.64.19,7.28.33,10.92.45q9.94.3,19.88.32c13.42.06,26.84-.12,40.25-.23l80.9-.72,39.69-.35c13.22-.12,26.47-.27,39.62-1.75,3.73-.43,9.48-.2,11-4.49s-1.08-9.53-2.38-13.44c-3.85-11.51-8.5-22.73-13-34-9.2-22.7-17.58-45.51-19.14-70.17-.41-6.56-.6-13.12-1.2-19.66-.39-4.18-.36-9.58-4.87-11.49a17.25,17.25,0,0,0-6.06-.95c-3.56-.15-7.12-.12-10.67,0-6.48.27-12.93.94-19.37,1.71-26.43,3.19-52.79,5.72-79.4,6.76s-53.32,1.1-80,1l-19.75-.13a.5.5,0,0,0,0,1c51.14.36,102.42.73,153.35-4.52,12.48-1.29,24.89-3.24,37.39-4.29a147.41,147.41,0,0,1,18.91-.5c3,.14,6.43.41,8,3.36s1.37,6.86,1.63,10c1,12.12,1,24.25,3.26,36.23a205.21,205.21,0,0,0,9.36,32.5c3.93,10.7,8.36,21.2,12.58,31.77,2.2,5.5,4.34,11,6.32,16.6.89,2.5,1.75,5,2.56,7.54s1.88,5.24,1.91,8c0,4.2-3.1,5.22-6.65,5.7-3.33.45-6.68.8-10,1.07-6.27.53-12.55.79-18.84.94-12.77.31-25.55.31-38.32.42l-76.44.68c-25.82.22-51.68.85-77.5.17-6.28-.16-12.6-.33-18.87-.82-3.82-.29-5.92-1.72-7.14-5.41-.94-2.85-1.66-5.79-2.34-8.71a192.63,192.63,0,0,1-4.62-36.59c-1-25,1-50,2.12-75L735,475c0-.64-1-.64-1,0Z" transform="translate(-710.57 -457.68)"/><path class="cls-2" d="M984.84,461.72l-33.71,10.4a4.38,4.38,0,0,0-2.1,1.09c-.8.88-.75,2.22-.67,3.41q4.41,59.8,3.11,119.85a6.17,6.17,0,0,0,.45,3.08,6.24,6.24,0,0,0,3.36,2.45Q973,609.52,991,616.2c5.69-17.09.31-35.75,1.47-53.73.34-5.26,1.25-10.51.79-15.75-.59-6.91-3.51-13.48-3.88-20.4-.31-5.71,1.13-11.37,1.25-17.08s-1-11.14-1.26-16.73c-.46-10.11,1.92-20.51-.95-30.22l1.65-1.05" transform="translate(-710.57 -457.68)"/><path class="cls-2" d="M984.71,461.24l-20.6,6.35-10.3,3.18c-1.83.56-4.6.87-5.6,2.77-1.11,2.1-.15,5.8,0,8q.38,5.43.71,10.88.66,10.88,1.14,21.78.95,21.78,1.14,43.59.1,10.91,0,21.81c0,3.63-.08,7.27-.14,10.9-.05,2.78-.89,6.59.36,9.17,1.1,2.28,4.24,3,6.37,3.92q5.33,2.24,10.67,4.39,11.16,4.5,22.43,8.68a.51.51,0,0,0,.62-.34c3-9.4,2.92-19.24,2.31-29-.65-10.36-1.26-20.44-.31-30.8a49.59,49.59,0,0,0-.6-15.33c-1.1-5.11-2.83-10.12-3-15.39s1-10.42,1.24-15.65-.66-10.24-1.08-15.35c-.46-5.72,0-11.41.26-17.13a68.8,68.8,0,0,0-.08-8.25c-.11-1.25-.26-2.51-.47-3.74-.3-1.71-1.13-3,.6-4.05.54-.34,0-1.21-.51-.86l-1.65,1.05a.5.5,0,0,0-.23.56c2.75,9.89.46,20,.93,30.09.23,5,1.15,9.89,1.26,14.87.11,5.24-1,10.39-1.26,15.61-.43,10,4.43,19.13,4,29.14-.25,5.14-1,10.23-1,15.38,0,4.93.31,9.86.65,14.78.79,11.31,1.59,22.81-1.93,33.78l.62-.35q-9-3.35-18-6.89c-6.09-2.42-12.44-4.65-18.33-7.54a4.81,4.81,0,0,1-2.91-4.82c0-1.65.06-3.31.09-5,.07-3.47.11-6.94.15-10.4q.09-9.92,0-19.83-.25-39.9-3-79.72c-.12-1.65-.28-3.3-.36-4.94-.13-3,1.88-3.86,4.28-4.6l10.3-3.18L985,462.2c.62-.19.36-1.16-.26-1Z" transform="translate(-710.57 -457.68)"/><path class="cls-3" d="M742.67,468.69c-1.48,3.68-.24,11.28-.24,11.28a25.14,25.14,0,0,0,6,.47c47.11-1.26,94.22-2.83,141.33-4.4l45.13-1.51c3.68-.12,12.3-.19,12.3-.19,2.62-1,9.83-3.24,15.25-5l20.24-6.74q-57.37-1.14-114.73,2.17c-13.55.78-27.1,1.75-40.67,1.82-14.25.08-28.5-.83-42.75-.56-13.84.27-27.64,1.65-41.42,3" transform="translate(-710.57 -457.68)"/><path class="cls-3" d="M742.19,468.55c-1.28,3.59-.83,7.85-.25,11.55a.51.51,0,0,0,.35.35c2.36.76,5.19.52,7.63.45l12.94-.35q13.18-.37,26.38-.77,26.37-.79,52.75-1.66c33.26-1.08,66.55-2.78,99.82-3.22a31.67,31.67,0,0,0,5.51-.08c3.06-.59,6.24-2.11,9.22-3.07,8.78-2.84,17.52-5.8,26.27-8.71a.5.5,0,0,0-.13-1q-47-.92-94,1.11c-15.52.68-31,1.83-46.53,2.49s-31.12,0-46.7-.18c-17.54-.24-34.93,1.29-52.36,3-.64.07-.64,1.07,0,1,15.59-1.56,31.2-3.07,46.89-3.08s31.46.93,47.21.41c15.53-.51,31-1.72,46.55-2.45s31-1.21,46.48-1.46q26.22-.4,52.44.12l-.14-1c-8.24,2.75-16.46,5.54-24.72,8.22-3.26,1-6.53,2.06-9.75,3.2-1.69.6-3.56.38-5.35.4-16.68.2-33.35,1-50,1.55q-56,1.88-111.92,3.59-15.67.47-31.36.89a38.32,38.32,0,0,1-5.25-.14c-1.57-.17-1.28.15-1.46-1.46-.34-3.1-.62-6.52.45-9.5.21-.61-.75-.87-1-.27Z" transform="translate(-710.57 -457.68)"/><path class="cls-4" d="M737.15,465.42q-12.93,2.59-25.61,6.34l.69,143.7a4.75,4.75,0,0,0,.85,3.3,4.68,4.68,0,0,0,2.77,1.13q10.06,1.67,20.24,2.37c1.35.09,2.95,0,3.68-1.09a3.86,3.86,0,0,0,.31-2.52,121.42,121.42,0,0,1-.25-20c.35-5,1-10,.76-15-.3-6-1.91-11.84-2.43-17.81-.66-7.76.53-15.54,1-23.31.69-12.14-.45-24.31-.09-36.45.4-13.31,2.54-27.12-2.2-39.56" transform="translate(-710.57 -457.68)"/><path class="cls-4" d="M737,464.94q-12.94,2.63-25.61,6.33a.53.53,0,0,0-.37.49l.67,139.7c0,3.39-.86,7.71,3.25,8.77,5.2,1.33,11,1.65,16.3,2.14,2.49.23,8.13,1.74,9.25-1.64.63-1.87-.14-4.44-.26-6.36q-.25-4.27-.21-8.57c.06-5.53.73-11,1-16.5a70.92,70.92,0,0,0-1.27-15.59,78.1,78.1,0,0,1-1.17-17.54c.3-5.52,1-11,1.16-16.56.44-12.84-.68-25.66,0-38.5.6-11.62,1.66-23.54-2.44-34.69-.22-.6-1.18-.34-1,.27,3.79,10.33,3.12,21.34,2.52,32.13-.62,11.32-.08,22.58,0,33.9s-2.27,22.8-1.11,34.1c.55,5.34,1.9,10.57,2.28,15.92.4,5.64-.41,11.25-.76,16.86a120,120,0,0,0,.07,16.2c0,.64.1,1.27.16,1.9.12,1.51.26,1.42-.67,2.8s-.8,1.29-2.39,1.27c-.6,0-1.2-.07-1.8-.12-3.06-.23-6.13-.53-9.18-.89-2.84-.34-5.69-.73-8.52-1.2-2-.33-4-1.06-4.2-3.39-.11-1.56,0-3.15,0-4.71L712.63,594l-.34-69.35-.19-39.42,0-9.48a14.82,14.82,0,0,1,0-2c.21-1.45.23-1.52,1.5-2.06a36.08,36.08,0,0,1,4.71-1.31c6.29-1.7,12.64-3.18,19-4.48.63-.12.36-1.09-.27-1Z" transform="translate(-710.57 -457.68)"/><path class="cls-5" d="M736.86,464.72c-.69,48.73,0,109.22,1.92,157.92l5.54-5q-2.82-73-1.79-146.16Z" transform="translate(-710.57 -457.68)"/><path class="cls-6" d="M736.48,464.72c-.58,41.45-.21,82.92.86,124.35q.43,16.78,1.07,33.57a.38.38,0,0,0,.64.26c1.61-1.46,4.09-3,5.28-4.8.73-1.12.28-2.61.23-4q-.19-5.21-.37-10.43-.65-19.38-1-38.77-.76-39.28-.42-78.56,0-5.48.12-10.94c0-1.61.44-3.3-.4-4.64-1.41-2.27-3.61-4.28-5.34-6.32-.31-.37-.84.16-.53.53l4.48,5.29c1.06,1.26,1.13,1.41,1.06,3.15-.14,3.3-.08,6.63-.11,9.94q-.19,18.9-.12,37.79.15,37.8,1.32,75.57c.11,3.64.23,7.29.36,10.93l.18,5c0,.67,0,1.33.07,2s.43,2.23.19,2.74c-.42.93-2.16,2-2.91,2.66l-2.59,2.35.64.27c-1.59-41.42-2.24-82.89-2.18-124.33q0-16.8.25-33.59A.38.38,0,0,0,736.48,464.72Z" transform="translate(-710.57 -457.68)"/><path class="cls-5" d="M991.79,458.51c-48.7-1.79-196.88,4.51-254.93,6.21l5.67,6.72c53.37-3.76,195-9.69,243.73-7.9Z" transform="translate(-710.57 -457.68)"/><path class="cls-6" d="M991.79,458.13c-30.43-1.1-61,0-91.42.86-38,1-76,2.36-114.07,3.7-16.48.58-33,1.17-49.44,1.66a.38.38,0,0,0-.27.64l2.37,2.8c.92,1.09,1.94,2.89,3.11,3.68.73.5,1.44.28,2.38.21l4.88-.33q11.31-.74,22.62-1.34,28.56-1.58,57.15-2.77c40.34-1.72,80.71-3.18,121.09-3.58,8.57-.08,17.15-.12,25.73,0,1.75,0,3.49.05,5.24.09a26.07,26.07,0,0,0,4.75.14c1-.17,1.7-1.08,2.49-1.8l3.66-3.33c.35-.32-.18-.85-.53-.53-1.53,1.38-4,4.51-5.79,4.91a19.76,19.76,0,0,1-4.2-.13c-1.59,0-3.19-.07-4.78-.09-7.25-.11-14.51-.11-21.76-.06-18.44.13-36.88.55-55.32,1.08q-60.06,1.73-120.07,4.89-13.18.71-26.36,1.51l-5.59.36-2.42.17a12.56,12.56,0,0,1-2.46.27c-1-.44-2.27-2.68-3-3.52l-2.68-3.17-.26.64c32.7-1,65.4-2.25,98.1-3.35,37.39-1.26,74.8-2.49,112.21-3,14.86-.21,29.76-.4,44.62.14C992.27,458.9,992.27,458.15,991.79,458.13Z" transform="translate(-710.57 -457.68)"/><path class="cls-5" d="M739,622.73c48.7,1.78,198.94-1.36,257-3.07L991.32,615c-53.36,3.76-198.05,4.53-246.75,2.74Z" transform="translate(-710.57 -457.68)"/><path class="cls-6" d="M739,623.1c30.6,1.11,61.29.56,91.89.22q57.81-.65,115.6-2,24.75-.56,49.51-1.26a.38.38,0,0,0,.26-.64l-3-3c-.77-.78-1.28-1.58-2.3-1.75a21.85,21.85,0,0,0-4.25.28c-1.81.11-3.63.22-5.45.31-7.69.42-15.38.74-23.08,1-19.14.68-38.28,1.09-57.43,1.4-40.23.64-80.48.87-120.72.44-8.44-.09-16.88-.21-25.31-.42l-5.14-.14a26,26,0,0,0-4.66-.15c-1,.17-1.7,1.09-2.48,1.81l-3.66,3.32c-.35.33.18.86.53.53,1.53-1.38,4.07-4.67,6-4.9,2.74-.34,5.87.19,8.64.26q10.68.27,21.39.39c18.42.23,36.84.27,55.27.23,40.14-.08,80.3-.5,120.43-1.78q13.35-.42,26.7-1.06,5.4-.27,10.8-.61a9.44,9.44,0,0,1,2.47-.17c.43.11.86.62,1.28,1l3.54,3.54.27-.64q-49.29,1.44-98.57,2.28c-37.91.7-75.82,1.28-113.73,1.31-14.9,0-29.81,0-44.7-.53C738.56,622.33,738.56,623.08,739,623.1Z" transform="translate(-710.57 -457.68)"/><path class="cls-5" d="M996,619.66c.69-48.72-2.37-112.46-4.25-161.15l-5.53,5c1.88,48.69,5.75,102.69,5.06,151.41Z" transform="translate(-710.57 -457.68)"/><path class="cls-6" d="M996.41,619.66c.58-42.46-1.19-84.94-2.89-127.35-.45-11.27-.92-22.54-1.35-33.8a.38.38,0,0,0-.64-.27l-2.23,2c-.93.84-2.55,1.83-3.19,2.9s-.1,3.59-.05,4.87q.2,4.75.41,9.53c.57,12.85,1.21,25.7,1.84,38.55,1.24,25.65,2.4,51.32,2.67,77,.07,7-.14,14,0,20.93,0,2.34,3.22,4.29,4.81,5.88a.38.38,0,0,0,.53-.53L993.94,617l-1.48-1.48c-.75-.75-.63-.55-.75-1.51-.37-2.89.06-6.11.07-9s0-6.09,0-9.14c-.09-12.43-.41-24.87-.85-37.29-.88-24.73-2.23-49.43-3.37-74.15-.16-3.35-.31-6.71-.45-10.06-.14-3.18-.79-6.79-.41-9.94.11-1,0-.78.78-1.48l1.66-1.51,2.95-2.68-.64-.26c1.64,42.43,3.65,84.87,4.21,127.34.15,11.27.19,22.54,0,33.81A.38.38,0,0,0,996.41,619.66Z" transform="translate(-710.57 -457.68)"/><path class="cls-6" d="M710.57,471.58l.55,115.7c0,10.69,0,21.4.88,32.05,0,.48.79.49.75,0-1.61-18.88-.91-38-1-57l-.28-57.85-.15-32.92a.38.38,0,0,0-.75,0Z" transform="translate(-710.57 -457.68)"/><path class="cls-6" d="M711,471.94a118.48,118.48,0,0,1,16.34-4.55c2.3-.54,4.62-1.05,6.92-1.58.73-.17,2.23-.25,2.82-.82.35-.34-.18-.87-.53-.53-.62.59-2.91.72-3.7.9-2.3.53-4.6,1-6.89,1.58a111.86,111.86,0,0,0-15.16,4.28c-.44.17-.25.9.2.72Z" transform="translate(-710.57 -457.68)"/><path class="cls-6" d="M738.78,622.26c-8.88.33-17.62-1.7-26.3-3.29-.48-.08-.68.64-.2.73,8.74,1.6,17.56,3.65,26.5,3.31.49,0,.49-.77,0-.75Z" transform="translate(-710.57 -457.68)"/><path class="cls-6" d="M744.32,602.65h70c25.1,0,50.2.17,75.3-.52,20.6-.56,41.25-1.87,61.87-1.66a.38.38,0,0,0,0-.75c-17.82-.18-35.66.87-53.46,1.42-15.66.48-31.31.76-47,.76H744.32a.38.38,0,0,0,0,.75Z" transform="translate(-710.57 -457.68)"/><path class="cls-6" d="M742.42,481.05c21.71.18,43.48-.88,65.18-1.52,27.21-.82,54.41-1.83,81.61-2.85,19.31-.72,38.66-1.65,58-1.45a.38.38,0,0,0,0-.75c-33.19-.35-66.44,1.88-99.6,3q-37.46,1.29-74.91,2.25c-10.08.26-20.18.63-30.26.55a.38.38,0,0,0,0,.75Z" transform="translate(-710.57 -457.68)"/><path class="cls-6" d="M947.4,474.76c2.78,31.58,3.57,63.23,3.7,94.92q.06,15.21,0,30.41a.38.38,0,0,0,.75,0c0-32.75.09-65.54-1.77-98.26q-.76-13.54-2-27.07c0-.48-.79-.48-.75,0Z" transform="translate(-710.57 -457.68)"/><path class="cls-6" d="M947.29,475.21c11.19-4.25,22.83-7.25,34-11.5.45-.17.26-.9-.2-.72-11.19,4.25-22.83,7.24-34,11.5-.45.17-.25.89.2.72Z" transform="translate(-710.57 -457.68)"/><path class="cls-6" d="M951.33,600.42a340.64,340.64,0,0,0,37.8,15.17c.46.15.66-.58.2-.73a337.36,337.36,0,0,1-37.62-15.09c-.44-.2-.82.44-.38.65Z" transform="translate(-710.57 -457.68)"/><path class="cls-7" d="M742.8,513.33c-.38,27.23-1.48,54.54.83,81.66a125.7,125.7,0,0,1,.69,13.48c0,1.11.17,4.13.95,4.92s3.08.71,4.23.69c4.13-.07,4.67.13,5.56-.86s.83-2.59.75-4c-1.91-31-.83-62-1.07-93,0-1.27-.16-2.8-1.3-3.37a3.52,3.52,0,0,0-1.62-.25l-6.77,0c-1.06,0-2.46.32-2.49,1.38" transform="translate(-710.57 -457.68)"/><path class="cls-6" d="M742.3,513.33c-.25,17.56-.79,35.12-.52,52.68.13,8.85.47,17.71,1.15,26.53.29,3.66.67,7.31.82,11,.1,2.73-.18,5.56.37,8.25.41,2,1.42,2.66,3.44,2.8s4.94.48,6.8-.25c1.61-.63,2-2.45,2-4,0-4.3-.47-8.63-.63-12.92-.7-17.64-.6-35.29-.51-52.94q0-7.43.07-14.85c0-4.69.45-9.68-.09-14.34-.4-3.42-2.89-3.14-5.79-3.13-1.95,0-6.62-.93-7.33,1.77a.5.5,0,0,0,1,.26c.44-1.68,4.66-1,5.88-1,2.07,0,5-.4,5.3,2.46.38,3.76.06,7.74.06,11.53,0,7.43,0,14.85-.09,22.28-.08,15-.1,30,.42,45,.12,3.46.26,6.92.45,10.38.12,2.37,1.55,8.11-1.75,8.71a24.24,24.24,0,0,1-3.81.07,8.21,8.21,0,0,1-3.25-.22c-2.15-1-1.41-6.45-1.46-8.32-.14-6.3-.92-12.58-1.3-18.88-.44-7.53-.67-15.07-.75-22.61-.18-16.74.32-33.48.56-50.22a.5.5,0,0,0-1,0Z" transform="translate(-710.57 -457.68)"/><path class="cls-8" d="M776.36,513.67c-.48,27.22-1.9,54.53,1.06,81.66a97.47,97.47,0,0,1,.89,13.47c0,1.11.22,4.13,1.22,4.92s4,.71,5.42.69c5.29-.07,6,.13,7.14-.86s1.06-2.59,1-4c-2.45-31-1.07-62-1.37-93,0-1.27-.22-2.79-1.67-3.37a5.72,5.72,0,0,0-2.08-.25l-8.68,0c-1.36,0-3.16.33-3.2,1.38" transform="translate(-710.57 -457.68)"/><path class="cls-6" d="M775.86,513.67c-.33,18.37-1.08,36.75-.62,55.13.22,9,.76,18,1.73,27,.4,3.6.78,7.19.83,10.81,0,2.07-.36,5.37,1.06,7.13,1.25,1.55,4.1,1.21,5.85,1.19,2,0,4.66.41,6.6-.31,1.68-.63,2.3-2.27,2.29-4,0-4.45-.62-9-.84-13.41-.9-18.3-.73-36.62-.6-54.92,0-5.12.06-10.23.06-15.35,0-2.64,0-5.28,0-7.92,0-1.52.27-3.44-.47-4.86-1.43-2.77-6.17-1.72-8.62-1.71-1.91,0-6.79-.86-7.55,1.76a.5.5,0,0,0,1,.27c.45-1.58,4.48-1,5.61-1a40,40,0,0,1,5.79,0c3,.46,3.22,1.73,3.26,4.11s0,4.62,0,6.93c0,7.59,0,15.18-.1,22.77-.1,15.5-.17,31,.48,46.51.15,3.62.35,7.25.59,10.87.17,2.57,1.72,8.56-2,9.17a39.22,39.22,0,0,1-6.32.11c-1.66,0-3.72.26-4.61-1.53a8.89,8.89,0,0,1-.5-3.59c-.2-6.83-1-13.53-1.55-20.34-.62-7.52-1-15.06-1.08-22.61-.32-17.4.36-34.79.68-52.18a.5.5,0,0,0-1,0Z" transform="translate(-710.57 -457.68)"/><path class="cls-9" d="M768.91,614.08c.47-25.24,1.84-50.56-1-75.71a86.84,86.84,0,0,1-.86-12.5c0-1-.22-3.82-1.19-4.56s-3.82-.66-5.25-.64c-5.14.07-5.81-.12-6.92.8s-1,2.4-.93,3.68c2.37,28.7,1,57.49,1.32,86.24,0,1.18.21,2.59,1.62,3.12a5.84,5.84,0,0,0,2,.23l8.42,0c1.31,0,3.06-.3,3.1-1.28" transform="translate(-710.57 -457.68)"/><path class="cls-6" d="M769.41,614.08c.33-17.22,1.06-34.44.59-51.66-.24-8.48-.81-16.94-1.77-25.37a90.06,90.06,0,0,1-.71-9.84c0-1.82.23-4.69-1.19-6.09s-4.39-1-6.21-.94-4.1-.36-5.83.33a3.64,3.64,0,0,0-2.12,3.66c0,4.25.63,8.61.84,12.86.87,17.17.67,34.37.55,51.55,0,4.79-.06,9.59,0,14.38,0,2.48,0,5,0,7.44,0,1.17-.07,2.56.65,3.58a3.22,3.22,0,0,0,2.46,1.22,59,59,0,0,0,6.65,0c1.73,0,5.7.63,6.4-1.65a.5.5,0,0,0-1-.27c-.55,1.8-8.57.94-10.11.94a8.1,8.1,0,0,1-1.63,0c-2.74-.67-2.4-2-2.45-3.83s0-4,0-5.95c0-7.28,0-14.55.1-21.82.1-14.21.16-28.43-.46-42.63-.15-3.47-.34-6.93-.59-10.4-.15-2.22-1.53-7.51,1.55-8.29,1.85-.47,4.1-.13,6-.15,1.55,0,3.19-.24,4.34.9s1.06,2.73,1.08,4.27c.08,6,.92,11.93,1.45,17.92.65,7.18,1,14.4,1.1,21.61.3,16.08-.36,32.15-.66,48.22,0,.64,1,.64,1,0Z" transform="translate(-710.57 -457.68)"/><path class="cls-10" d="M805.88,612.13c.47-25.24,1.85-50.56-1-75.71a85.38,85.38,0,0,1-.85-12.49c0-1-.22-3.83-1.19-4.57s-3.83-.65-5.25-.63c-5.14.06-5.82-.13-6.93.79s-1,2.4-.93,3.68c2.38,28.7,1,57.49,1.33,86.24,0,1.18.21,2.59,1.62,3.12a5.58,5.58,0,0,0,2,.24l8.43,0c1.31,0,3.06-.3,3.1-1.28" transform="translate(-710.57 -457.68)"/><path class="cls-6" d="M806.38,612.13c.33-17.21,1.07-34.44.59-51.66q-.35-12.72-1.77-25.37a92.42,92.42,0,0,1-.7-9.84c0-1.82.23-4.68-1.19-6.09s-4.39-1-6.21-.94-4.1-.36-5.83.33a3.62,3.62,0,0,0-2.12,3.66c0,4.25.62,8.61.84,12.86.87,17.17.67,34.37.55,51.55,0,4.8-.06,9.59,0,14.38,0,2.48,0,5,0,7.44,0,1.18-.08,2.57.65,3.58a3.27,3.27,0,0,0,2.46,1.23,64.12,64.12,0,0,0,6.65,0c1.73,0,5.7.63,6.39-1.66.19-.62-.77-.88-1-.27-.55,1.81-8.57.94-10.11.94a8.86,8.86,0,0,1-1.63,0c-2.74-.68-2.4-2-2.45-3.84s0-4,0-6c0-7.27,0-14.54.09-21.82.1-14.21.17-28.43-.45-42.63-.15-3.46-.35-6.93-.59-10.39-.15-2.23-1.53-7.52,1.55-8.3,1.85-.46,4.1-.13,6-.14,1.55,0,3.19-.24,4.34.9s1.05,2.72,1.07,4.26c.08,6,.92,11.93,1.46,17.92.64,7.19,1,14.4,1.1,21.61.3,16.08-.36,32.15-.67,48.22a.5.5,0,0,0,1,0Z" transform="translate(-710.57 -457.68)"/><path class="cls-11" d="M813.8,613.58c.27-25.24,1-50.57-.59-75.72-.31-4.89-.5-7.52-.48-12.49,0-1-.12-3.83-.67-4.56s-2.17-.66-3-.64c-2.91.06-3.29-.13-3.92.79s-.59,2.41-.53,3.69c1.35,28.7.59,57.48.75,86.24,0,1.17.12,2.58.92,3.12a2,2,0,0,0,1.14.23l4.77,0c.75,0,1.74-.3,1.76-1.28" transform="translate(-710.57 -457.68)"/><path class="cls-6" d="M814.3,613.58c.17-16.08.55-32.15.38-48.22-.09-7.87-.3-15.73-.73-23.58-.19-3.5-.48-7-.62-10.52-.12-2.84.11-5.76-.27-8.59-.21-1.62-.54-2.66-2.27-2.95-1.35-.24-4-.47-5.31.25s-1.37,2.58-1.38,3.89c0,4.21.36,8.46.48,12.67.45,15.85.39,31.72.33,47.58,0,8.9-.38,17.88,0,26.78.11,2.74.72,3.83,3.52,3.84,1.83,0,5.47.79,6.05-1.67.15-.62-.81-.89-1-.26-.31,1.33-4,1.07-5.09.93-1.46-.18-2.2-.67-2.51-2.48a16.74,16.74,0,0,1,0-2.35c0-3.3,0-6.61,0-9.91q0-9.93.07-19.84c0-13.38.05-26.77-.29-40.15-.08-3.13-.18-6.27-.3-9.4-.08-2.29-1.36-8.32,1.51-8.9a13.42,13.42,0,0,1,2.69,0c2,.05,2.42.84,2.59,2.62.25,2.52.09,5.08.18,7.6.49,12.82,1.33,25.57,1.4,38.41.08,14.76-.25,29.52-.41,44.29a.5.5,0,0,0,1,0Z" transform="translate(-710.57 -457.68)"/><path class="cls-12" d="M778.32,613.71c.29-27.22,1.16-54.53-.65-81.66-.35-5.28-.57-8.12-.54-13.48,0-1.11-.14-4.12-.75-4.92s-2.41-.7-3.31-.68c-3.23.06-3.66-.14-4.36.85s-.65,2.6-.58,4c1.49,31,.65,62,.83,93,0,1.27.13,2.79,1,3.36a2.16,2.16,0,0,0,1.27.25l5.3,0c.83,0,1.94-.32,2-1.38" transform="translate(-710.57 -457.68)"/><path class="cls-6" d="M778.82,613.71c.19-17.23.6-34.46.42-51.69-.09-8.53-.32-17-.8-25.56-.22-3.82-.54-7.65-.7-11.48-.13-3,.09-6-.25-9-.22-1.81-.54-3.16-2.53-3.48-1.54-.24-4.23-.47-5.7.2s-1.69,2.87-1.66,4.38c.07,4.35.37,8.71.51,13.06.52,17.31.45,34.63.38,52,0,9.55-.33,19.16,0,28.71.09,2.87.73,4.1,3.67,4.11,2,0,6.21.9,6.86-1.78.15-.62-.81-.89-1-.26-.36,1.49-4.79,1.21-5.9,1-2.56-.39-2.65-1.87-2.68-4.1,0-3.63,0-7.26,0-10.89,0-7.26.05-14.52.08-21.78,0-14.51.06-29-.31-43.54q-.13-5.45-.36-10.87c-.08-2.07-1.37-8.35,1.08-9.18a12.18,12.18,0,0,1,3.67-.11c1.92,0,2.66.63,2.9,2.54.3,2.49.12,5,.2,7.53.42,13.67,1.47,27.27,1.57,41,.12,16.41-.26,32.82-.44,49.23a.5.5,0,0,0,1,0Z" transform="translate(-710.57 -457.68)"/><path class="cls-13" d="M812.51,513c-.38,27.22-1.48,54.53.83,81.66a125.52,125.52,0,0,1,.69,13.47c0,1.12.17,4.13,1,4.92s3.07.71,4.22.69c4.13-.07,4.68.14,5.57-.85s.83-2.6.75-4c-1.91-30.95-.84-62-1.07-93,0-1.27-.17-2.79-1.3-3.37a3.54,3.54,0,0,0-1.62-.25l-6.77,0c-1.06,0-2.47.33-2.5,1.39" transform="translate(-710.57 -457.68)"/><path class="cls-6" d="M812,513c-.25,17.56-.79,35.12-.53,52.68.13,8.85.47,17.7,1.16,26.53.28,3.65.67,7.31.81,11,.11,2.73-.18,5.56.37,8.25.41,2,1.43,2.66,3.45,2.8s4.93.49,6.79-.24c1.62-.64,2-2.46,2-4,0-4.29-.47-8.62-.64-12.92-.69-17.63-.59-35.29-.5-52.94q0-7.43.06-14.85c0-4.68.46-9.68-.08-14.34-.4-3.42-2.9-3.14-5.79-3.13-2,0-6.63-.92-7.33,1.77a.5.5,0,0,0,1,.27c.44-1.69,4.66-1,5.89-1,2.07,0,5-.4,5.3,2.45.37,3.77.06,7.75.06,11.54,0,7.42-.06,14.85-.1,22.27-.07,15-.09,30,.42,45q.18,5.19.45,10.38c.13,2.37,1.55,8.1-1.74,8.71a23.19,23.19,0,0,1-3.82.06A8.23,8.23,0,0,1,816,613c-2.15-1-1.41-6.45-1.45-8.32-.15-6.31-.93-12.59-1.3-18.88-.45-7.53-.67-15.07-.75-22.61-.18-16.74.32-33.48.56-50.22a.5.5,0,0,0-1,0Z" transform="translate(-710.57 -457.68)"/><path class="cls-14" d="M846.07,513.34c-.49,27.22-1.9,54.54,1.06,81.66a96.08,96.08,0,0,1,.88,13.48c0,1.11.23,4.12,1.23,4.92s3.94.7,5.41.68c5.3-.06,6,.14,7.14-.85s1.07-2.6,1-4c-2.45-31-1.07-62-1.37-93,0-1.27-.21-2.79-1.66-3.36a5.51,5.51,0,0,0-2.08-.25l-8.69,0c-1.35,0-3.16.32-3.2,1.38" transform="translate(-710.57 -457.68)"/><path class="cls-6" d="M845.57,513.34c-.34,18.38-1.08,36.76-.62,55.14.22,9,.75,18,1.73,27,.39,3.6.77,7.19.83,10.81,0,2.07-.37,5.38,1.06,7.14,1.25,1.55,4.1,1.21,5.84,1.19,2,0,4.67.4,6.6-.32,1.69-.63,2.3-2.27,2.3-4,0-4.45-.63-9-.84-13.41-.91-18.29-.73-36.61-.61-54.92q.06-7.66.07-15.34,0-4,0-7.92c0-1.53.26-3.45-.47-4.87-1.44-2.77-6.17-1.72-8.63-1.71-1.9,0-6.78-.85-7.54,1.77a.5.5,0,0,0,1,.26c.46-1.57,4.49-1,5.62-1a38.6,38.6,0,0,1,5.79,0c3,.45,3.22,1.73,3.25,4.1s0,4.62,0,6.93c0,7.59,0,15.18-.1,22.77-.1,15.51-.18,31,.48,46.51.15,3.63.34,7.25.58,10.88.17,2.56,1.72,8.56-1.94,9.17a41.77,41.77,0,0,1-6.33.11c-1.66,0-3.72.26-4.61-1.54a9.2,9.2,0,0,1-.5-3.58c-.19-6.84-1-13.54-1.54-20.35-.63-7.52-1-15.06-1.09-22.6-.31-17.4.37-34.8.69-52.19a.5.5,0,0,0-1,0Z" transform="translate(-710.57 -457.68)"/><path class="cls-15" d="M838.61,613.75c.47-25.23,1.85-50.56-1-75.71a86.6,86.6,0,0,1-.86-12.49c0-1-.21-3.83-1.18-4.56s-3.83-.66-5.25-.64c-5.14.06-5.82-.13-6.93.79s-1,2.41-.93,3.68c2.38,28.7,1,57.49,1.33,86.24,0,1.18.21,2.59,1.61,3.12a5.64,5.64,0,0,0,2,.24l8.42,0c1.32,0,3.07-.3,3.11-1.28" transform="translate(-710.57 -457.68)"/><path class="cls-6" d="M839.11,613.75c.33-17.21,1.06-34.44.59-51.66q-.35-12.72-1.77-25.36a95.52,95.52,0,0,1-.71-9.85c0-1.82.24-4.68-1.18-6.09s-4.39-1-6.21-.94-4.1-.36-5.83.33a3.62,3.62,0,0,0-2.12,3.66c0,4.26.62,8.61.84,12.86.86,17.17.67,34.37.55,51.55,0,4.8-.06,9.59-.06,14.39,0,2.47,0,5,0,7.43,0,1.18-.08,2.57.65,3.58a3.25,3.25,0,0,0,2.46,1.23,61.45,61.45,0,0,0,6.65,0c1.73,0,5.7.63,6.39-1.66a.5.5,0,0,0-1-.27c-.55,1.81-8.57.94-10.11.94a8.86,8.86,0,0,1-1.63,0c-2.74-.68-2.4-2-2.45-3.84s0-4,0-6c0-7.27,0-14.54.09-21.82.1-14.21.17-28.42-.45-42.62-.16-3.47-.35-6.94-.59-10.4-.15-2.23-1.53-7.52,1.55-8.3,1.85-.46,4.1-.13,6-.14,1.55,0,3.19-.24,4.34.9s1.05,2.72,1.07,4.26c.08,6,.92,11.93,1.46,17.92.64,7.19,1,14.4,1.1,21.61.3,16.08-.36,32.15-.67,48.22a.5.5,0,0,0,1,0Z" transform="translate(-710.57 -457.68)"/><path class="cls-16" d="M875.59,611.81c.47-25.24,1.84-50.57-1-75.72a86.6,86.6,0,0,1-.86-12.49c0-1-.21-3.83-1.19-4.56s-3.82-.66-5.25-.64c-5.13.06-5.81-.12-6.92.79s-1,2.41-.93,3.69c2.37,28.7,1,57.48,1.32,86.24,0,1.17.21,2.59,1.62,3.12a5.84,5.84,0,0,0,2,.23l8.42,0c1.32,0,3.07-.3,3.11-1.28" transform="translate(-710.57 -457.68)"/><path class="cls-6" d="M876.09,611.81c.33-17.22,1.06-34.44.59-51.66q-.34-12.74-1.77-25.37a90.06,90.06,0,0,1-.71-9.85c0-1.82.24-4.68-1.18-6.09s-4.4-1-6.21-.93-4.11-.36-5.84.32a3.65,3.65,0,0,0-2.12,3.67c0,4.25.63,8.6.84,12.86.87,17.17.68,34.36.56,51.55q-.06,7.19-.06,14.38c0,2.48,0,5,0,7.44,0,1.17-.07,2.56.66,3.58a3.24,3.24,0,0,0,2.45,1.22,59,59,0,0,0,6.65,0c1.73,0,5.7.63,6.4-1.66.19-.61-.78-.88-1-.26-.54,1.8-8.56.94-10.11.94a8.8,8.8,0,0,1-1.62,0c-2.74-.67-2.4-2-2.46-3.83s0-4,0-6c0-7.28,0-14.55.1-21.82.1-14.21.16-28.43-.46-42.63-.15-3.47-.34-6.93-.58-10.4-.16-2.22-1.53-7.51,1.55-8.29,1.85-.47,4.1-.13,6-.15,1.54,0,3.19-.24,4.34.9s1,2.72,1.07,4.26c.08,6,.92,11.94,1.46,17.93.64,7.18,1,14.39,1.1,21.61.3,16.07-.36,32.15-.67,48.22a.5.5,0,0,0,1,0Z" transform="translate(-710.57 -457.68)"/><path class="cls-9" d="M883.5,613.25c.27-25.24,1-50.56-.58-75.71-.32-4.9-.51-7.53-.49-12.5,0-1-.12-3.82-.67-4.56s-2.16-.65-3-.64c-2.91.07-3.3-.12-3.92.8s-.59,2.4-.53,3.68c1.34,28.7.58,57.49.75,86.24,0,1.18.12,2.59.91,3.12a1.93,1.93,0,0,0,1.15.23l4.77,0c.74,0,1.74-.31,1.76-1.29" transform="translate(-710.57 -457.68)"/><path class="cls-6" d="M884,613.25c.18-16.07.55-32.14.38-48.22-.08-7.86-.29-15.72-.72-23.57-.2-3.51-.48-7-.63-10.52-.11-2.85.12-5.76-.26-8.59-.22-1.63-.55-2.66-2.27-3-1.36-.24-4-.46-5.31.25s-1.38,2.59-1.38,3.9c0,4.21.35,8.45.47,12.66.46,15.86.4,31.72.33,47.58,0,8.91-.38,17.88,0,26.78.11,2.75.71,3.83,3.51,3.85,1.84,0,5.48.79,6.06-1.67.15-.63-.82-.9-1-.27-.32,1.33-4,1.07-5.1.94-1.45-.18-2.19-.68-2.5-2.49a14.06,14.06,0,0,1,0-2.34c0-3.31,0-6.61,0-9.92,0-6.61,0-13.22.06-19.83,0-13.39.06-26.77-.28-40.15-.08-3.14-.18-6.27-.3-9.41-.09-2.28-1.37-8.32,1.5-8.89a12.81,12.81,0,0,1,2.7,0c2,0,2.41.85,2.59,2.63.25,2.51.08,5.07.18,7.6.49,12.82,1.33,25.57,1.39,38.41.08,14.76-.25,29.52-.41,44.28a.5.5,0,0,0,1,0Z" transform="translate(-710.57 -457.68)"/><path class="cls-6" d="M848,613.38c.3-27.22,1.16-54.53-.65-81.66-.35-5.28-.56-8.11-.54-13.47,0-1.11-.13-4.13-.74-4.92s-2.41-.71-3.31-.69c-3.24.07-3.66-.13-4.36.86s-.66,2.59-.59,4c1.5,30.95.65,62,.84,93,0,1.27.13,2.79,1,3.37a2.25,2.25,0,0,0,1.27.25l5.31,0c.83,0,1.93-.33,2-1.38" transform="translate(-710.57 -457.68)"/><path class="cls-6" d="M848.52,613.38c.19-17.23.61-34.46.43-51.69-.09-8.52-.33-17-.8-25.55-.22-3.83-.54-7.65-.7-11.48-.13-3,.09-6-.26-9-.21-1.82-.53-3.16-2.52-3.48-1.55-.25-4.23-.47-5.7.2s-1.69,2.86-1.67,4.38c.07,4.35.38,8.7.51,13.05.52,17.31.45,34.64.38,51.95,0,9.56-.32,19.16,0,28.71.08,2.87.73,4.1,3.67,4.11,2,0,6.21.9,6.86-1.77a.5.5,0,0,0-1-.27c-.36,1.49-4.78,1.21-5.89,1-2.57-.38-2.66-1.87-2.68-4.1,0-3.63,0-7.26,0-10.89,0-7.26,0-14.52.07-21.78.06-14.51.07-29-.3-43.54-.1-3.62-.21-7.25-.36-10.87-.08-2.06-1.37-8.34,1.07-9.18a12.52,12.52,0,0,1,3.67-.1c1.93,0,2.67.62,2.9,2.54.3,2.49.12,5,.2,7.53.42,13.66,1.48,27.27,1.58,40.95.12,16.41-.26,32.82-.45,49.23a.5.5,0,0,0,1,0Z" transform="translate(-710.57 -457.68)"/><path class="cls-17" d="M905.79,535.44c-.48,21-1.9,42.07,1.07,63a59.25,59.25,0,0,1,.88,10.39c0,.86.22,3.19,1.22,3.8s3.95.54,5.42.53c5.3,0,6,.1,7.14-.66s1.07-2,1-3.07c-2.45-23.87-1.07-47.83-1.37-71.75a2.4,2.4,0,0,0-1.67-2.6,7.43,7.43,0,0,0-2.08-.19l-8.68,0c-1.36,0-3.16.25-3.2,1.07" transform="translate(-710.57 -457.68)"/><path class="cls-6" d="M905.29,535.44c-.36,15.1-1.17,30.21-.51,45.31.32,7.32,1.29,14.5,2.13,21.77.3,2.56,0,5.2.45,7.73.26,1.61.78,2.78,2.4,3.18,2.21.56,4.76.23,7,.21a12.09,12.09,0,0,0,4.28-.33,3,3,0,0,0,1.92-2.24c.29-1.44-.16-3.15-.29-4.58-.17-2-.32-3.93-.45-5.89-1-15.05-.75-30.15-.63-45.22,0-4.26.06-8.52,0-12.78,0-2,.81-6.16-1.23-7.59a4.36,4.36,0,0,0-2.34-.61c-2.15-.15-4.36,0-6.51,0-1.69,0-5.66-.68-6.52,1.32-.26.58.6,1.09.86.5.71-1.65,7.1-.83,8.56-.83,1.69,0,5.09-.52,6,1.4.58,1.17.13,3.49.14,4.81,0,6.23,0,12.46-.08,18.69-.11,12.12-.21,24.26.43,36.37q.24,4.43.61,8.84c.17,2,1.43,6.13-1.25,7a15.79,15.79,0,0,1-4.29.17c-2.37,0-6.66.8-7.61-2-.7-2-.21-4.61-.4-6.71-.25-2.84-.75-5.66-1.09-8.49-.74-6-1.14-12.11-1.32-18.18-.41-14,.31-27.92.64-41.87,0-.64-1-.64-1,0Z" transform="translate(-710.57 -457.68)"/><path class="cls-18" d="M898.34,612.91c.47-22.13,1.84-44.33-1-66.38a66.82,66.82,0,0,1-.86-10.95c0-.91-.22-3.36-1.19-4S891.44,531,890,531c-5.14.05-5.81-.11-6.92.69s-1,2.11-.93,3.23c2.37,25.16,1,50.4,1.32,75.61a2.52,2.52,0,0,0,1.62,2.73,6.37,6.37,0,0,0,2,.21l8.42,0c1.32,0,3.07-.26,3.11-1.12" transform="translate(-710.57 -457.68)"/><path class="cls-6" d="M898.84,612.91c.34-15.63,1.11-31.26.53-46.89-.28-7.65-1.08-15.19-2-22.78-.32-2.7-.3-5.36-.45-8.07-.09-1.58-.31-3.57-1.94-4.27-1.92-.82-4.7-.38-6.72-.37-1.51,0-3.4-.25-4.83.39a3.16,3.16,0,0,0-1.85,2.87c-.21,3.56.59,7.4.81,11,.93,15.69.69,31.42.58,47.13q-.06,6.39,0,12.78a49.11,49.11,0,0,0,.07,6.42,3.11,3.11,0,0,0,1.13,2.26,4.4,4.4,0,0,0,2.63.65c2,.06,4,0,6,0,1.77,0,5.54.65,6.4-1.5.24-.59-.73-.85-1-.26-.63,1.57-7.77.77-9.17.77-1.66,0-3.83.13-4.91-1.5-.68-1-.13-4.58-.13-5.84,0-6.22,0-12.45.08-18.67.1-12.93.2-25.87-.44-38.79-.15-3.1-.34-6.21-.59-9.31-.16-2-1.38-6.33,1.28-7.18,1.55-.5,3.71-.15,5.28-.17,1,0,1.93,0,2.9,0,2.26.12,3.28,1.14,3.46,3.39s.07,4.58.3,6.87c.29,2.88.74,5.75,1,8.63.71,6.48,1.07,13,1.22,19.5.34,14.33-.34,28.66-.65,43,0,.64,1,.64,1,0Z" transform="translate(-710.57 -457.68)"/><path class="cls-19" d="M935.32,610.78c.47-28.88,1.84-57.87-1-86.66a113.31,113.31,0,0,1-.86-14.3c0-1.18-.22-4.38-1.19-5.22s-3.82-.75-5.25-.73c-5.14.07-5.82-.14-6.92.91s-1,2.75-.93,4.22c2.37,32.85,1,65.79,1.32,98.7,0,1.35.21,3,1.62,3.58a5.18,5.18,0,0,0,2,.26l8.43,0c1.31,0,3.06-.35,3.1-1.47" transform="translate(-710.57 -457.68)"/><path class="cls-6" d="M935.82,610.78c.31-19,1-38.1.63-57.16-.19-9.52-.66-19-1.57-28.51-.38-3.94-.82-7.87-.93-11.83-.06-2.54.39-5.76-.77-8.14-1-2-3.73-1.79-5.67-1.78s-4.87-.46-6.81.39-2.17,2.81-2.11,4.61c.17,4.65.61,9.3.82,13.95.85,19.07.69,38.16.58,57.25q-.06,7.91-.07,15.8c0,2.8,0,5.6,0,8.39,0,1.88-.28,4,.25,5.87,1,3.29,5,2.42,7.66,2.41,2,0,7.51,1,8.26-1.85a.5.5,0,0,0-1-.27c-.44,1.66-4.26,1.11-5.43,1.11a35.16,35.16,0,0,1-5.62,0c-3.42-.55-3.13-2.69-3.15-5.31q0-3.47,0-6.91c0-8.23.05-16.46.1-24.69.1-16.13.15-32.26-.47-48.37q-.22-5.93-.59-11.83c-.14-2.41-1.66-8.48,1.56-9.4,2-.56,4.57-.18,6.59-.17s3.62-.1,4.44,2a12.79,12.79,0,0,1,.37,4.37c0,7.11,1,14.15,1.55,21.23.58,7.86.89,15.73,1,23.61.3,18.4-.36,36.8-.66,55.19a.5.5,0,0,0,1,0Z" transform="translate(-710.57 -457.68)"/><path class="cls-20" d="M943.23,612.12c.27-33,1-66-.58-98.86-.32-6.39-.51-9.82-.49-16.31,0-1.35-.12-5-.67-6s-2.17-.85-3-.83c-2.91.08-3.29-.16-3.92,1s-.59,3.14-.53,4.81c1.35,37.47.59,75,.75,112.6,0,1.53.12,3.38.92,4.07a1.61,1.61,0,0,0,1.14.31l4.78,0a1.64,1.64,0,0,0,1.75-1.68" transform="translate(-710.57 -457.68)"/><path class="cls-6" d="M943.73,612.12c.16-20,.51-39.91.4-59.86-.1-18.58-1.2-37.12-1.47-55.69,0-1.69.3-5.09-1.18-6.34-1.21-1-4.84-1-6.21-.38-1.9.8-1.76,3.76-1.73,5.43.09,5.05.33,10.1.44,15.16.46,20.09.43,40.19.37,60.28,0,11.14-.08,22.27-.05,33.4,0,2.12-1.08,8.29,1.79,9.29a9,9,0,0,0,2.69.06,14.79,14.79,0,0,0,3.33-.08,2.16,2.16,0,0,0,1.78-2c.11-.63-.85-.9-1-.27-.29,1.62-4.8,1.79-6,1.35-2.23-.8-1.56-5.06-1.57-6.87q0-6.48,0-13,0-13,.07-25.93c0-17.1,0-34.21-.27-51.32q-.12-6.46-.31-12.94c-.07-2.15-.15-4.31-.22-6.46,0-1.51-.42-4.24,1.07-5.09a7.13,7.13,0,0,1,3.89-.28c2.22.66,2,2.8,2.1,4.66.14,3.15,0,6.32.14,9.47.54,16.5,1.31,33,1.38,49.47.08,19.29-.25,38.59-.41,57.88a.5.5,0,0,0,1,0Z" transform="translate(-710.57 -457.68)"/><path class="cls-21" d="M907.75,612.46c.3-27.23,1.16-54.54-.65-81.66-.35-5.28-.57-8.12-.54-13.48,0-1.11-.14-4.13-.75-4.92s-2.41-.71-3.31-.69c-3.23.07-3.66-.13-4.36.86s-.65,2.59-.58,4c1.49,31,.65,62,.83,93,0,1.27.13,2.79,1,3.37a2.25,2.25,0,0,0,1.27.25l5.31,0c.83,0,1.93-.33,2-1.38" transform="translate(-710.57 -457.68)"/><path class="cls-6" d="M908.25,612.46c.19-17.24.6-34.47.42-51.7-.09-8.52-.32-17-.8-25.55-.21-3.83-.53-7.65-.7-11.48-.13-3,.09-6-.25-9-.21-1.82-.54-3.16-2.53-3.48-1.54-.25-4.22-.47-5.7.2s-1.69,2.86-1.66,4.38c.07,4.35.38,8.7.51,13,.52,17.32.45,34.64.38,52,0,9.56-.33,19.16,0,28.71.09,2.88.73,4.1,3.67,4.12,2,0,6.22.89,6.86-1.78.16-.62-.81-.89-1-.27-.36,1.49-4.79,1.21-5.9,1-2.56-.39-2.65-1.88-2.67-4.11,0-3.63,0-7.26,0-10.88,0-7.27,0-14.53.07-21.79,0-14.51.07-29-.31-43.54-.09-3.62-.21-7.25-.35-10.87-.09-2.06-1.38-8.34,1.07-9.18a12.51,12.51,0,0,1,3.67-.1c1.92,0,2.66.63,2.9,2.54.3,2.49.12,5,.2,7.53.42,13.66,1.48,27.27,1.57,41,.12,16.41-.26,32.82-.44,49.24a.5.5,0,0,0,1,0Z" transform="translate(-710.57 -457.68)"/></svg>