<svg id="Calque_1" data-name="Calque 1" xmlns="http://www.w3.org/2000/svg" viewBox="0 0 285.95 163.9"><defs><style>.cls-1{fill:#62402f;}.cls-2{fill:#683c11;}.cls-3{fill:#7d4e24;}.cls-4{fill:#b17f4a;}.cls-5{fill:#b69164;}.cls-6{fill:#1d1d1b;}.cls-7{fill:#a93c47;}.cls-8{fill:#d83c21;}.cls-9{fill:#be1622;}.cls-10{fill:#29235c;}.cls-11{fill:#6a0f08;}.cls-12{fill:#cbbba0;}.cls-13{fill:#5297d2;}.cls-14{fill:#fff;}.cls-15{fill:#b07e9a;}.cls-16{fill:#f9b233;}.cls-17{fill:#ededed;}.cls-18{fill:#d60b52;}.cls-19{fill:#a48a7b;}.cls-20{fill:#ebac91;}.cls-21{fill:#ffed00;}.cls-22{fill:#545e2a;}.cls-23{fill:#edc088;}.cls-24{fill:#9db7b5;}</style></defs><title>caisse_livres01</title><path class="cls-1" d="M969.94,470.31l3.6,47.37c2.3,30.36,4.56,61.4-3.17,90.86-.57,2.2-1.33,4.56-3.22,5.82a9.64,9.64,0,0,1-4.5,1.18c-20.79,1.94-41.69,2.38-62.56,2.82l-133,2.79c-15.15.32-30.36.64-45.43-1a8.39,8.39,0,0,1-4.38-1.33c-2.63-2-2.08-6.09-1.2-9.29,9.4-34.4,27.29-66.78,30.29-102.31.91-10.8.42-21.68,1.41-32.46.18-2,.47-4.15,1.79-5.68,1.66-1.95,4.46-2.37,7-2.57,14.86-1.17,29.77.7,44.61,2.06,55,5,110.47,3,165.71.95" transform="translate(-711.22 -459.22)"/><path class="cls-1" d="M969.44,470.31c1.91,25.14,4.32,50.3,5.42,75.48a272.86,272.86,0,0,1-.53,36.62,166.34,166.34,0,0,1-2.71,18.6c-.58,2.81-1.18,5.64-2,8.39a9.62,9.62,0,0,1-1.82,3.73c-1.47,1.62-3.62,1.77-5.65,2-25.56,2.4-51.3,2.54-76.95,3.08l-76.42,1.61-38.21.8c-12.69.27-25.4.62-38.08-.07-3.13-.17-6.25-.4-9.36-.71-3.89-.39-7.33-1.22-7.27-5.87a29.2,29.2,0,0,1,1.67-7.71q1.25-4.29,2.63-8.53c3.51-10.8,7.59-21.39,11.5-32,8-21.67,14.87-43.55,15.69-66.8.22-6.4.21-12.8.57-19.19.16-2.74.06-5.92,1-8.52,1.35-3.6,5.29-4,8.6-4.21,12.62-.9,25.27.37,37.83,1.58,50.78,4.89,101.75,4,152.66,2.18L966.9,470c.64,0,.64-1,0-1-53.55,2-107.28,4-160.76-.52-12.95-1.08-25.88-2.79-38.89-2.86-3.24,0-6.48.07-9.7.3a17.21,17.21,0,0,0-6,1.13c-4.45,2-4.27,7.43-4.53,11.61-.83,13.33-.31,26.63-2.56,39.85a220.71,220.71,0,0,1-9.2,34.24c-3.88,11.29-8.24,22.41-12.25,33.65-2.06,5.76-4,11.55-5.78,17.4-1.16,3.87-3.51,9.19-1.82,13.25,1.82,4.37,8.34,3.83,12.19,4.13,6.57.51,13.16.69,19.75.72,13.38,0,26.76-.41,40.13-.69l79.9-1.68c26.8-.56,53.67-.67,80.44-2.35q4.71-.3,9.42-.67c2.79-.23,6-.11,8.68-1,4.31-1.46,5-6.68,5.89-10.52a183,183,0,0,0,4.38-37.25c.61-25.91-2.25-51.88-4.21-77.69l-1.5-19.73c-.05-.64-1.05-.64-1,0Z" transform="translate(-711.22 -459.22)"/><path class="cls-2" d="M719.34,464.53l34,9.39a4.42,4.42,0,0,1,2.13,1,4.55,4.55,0,0,1,.77,3.39q-2.62,59.91.48,119.89a4.7,4.7,0,0,1-3.66,5.65q-17.48,8-35.31,15.26c-6.2-16.92-1.38-35.73-3.08-53.67-.49-5.24-1.55-10.46-1.26-15.72.39-6.92,3.11-13.57,3.28-20.5.14-5.71-1.47-11.33-1.77-17s.68-11.16.76-16.75c.16-10.12-2.53-20.45,0-30.24l-1.68-1" transform="translate(-711.22 -459.22)"/><path class="cls-2" d="M719.21,465l18.89,5.22,9.45,2.6c1.57.44,3.16.84,4.72,1.31a8.85,8.85,0,0,1,2.33.76c1.3.91,1.14,2.11,1.15,3.43,0,6.75-.54,13.55-.72,20.31q-.28,9.9-.39,19.82-.24,19.81.15,39.64.21,9.92.55,19.82c.24,6.76.82,13.54.89,20.3,0,2.38-.62,3.76-2.76,4.91-1.61.87-3.36,1.55-5,2.3q-4.83,2.19-9.67,4.31-10.51,4.6-21.16,8.91l.62.35c-3.37-9.5-3.46-19.55-3.11-29.5s.63-19.67-.6-29.58a49.93,49.93,0,0,1,.15-15.86c.86-4.48,2.14-8.9,2.45-13.47.36-5.24-.87-10.36-1.45-15.54-.57-5-.08-9.95.28-14.94.84-11.55-2.55-23.4.26-34.77a.49.49,0,0,0-.23-.56l-1.68-1a.5.5,0,0,0-.51.86c2,1.19.7,3.94.51,6a56.38,56.38,0,0,0-.08,8.22c.26,5.09.93,10.15,1,15.25,0,5.28-.81,10.52-.82,15.81s1.25,10.35,1.68,15.56c.46,5.53-.74,10.77-1.89,16.14a47.26,47.26,0,0,0-1.1,14.18c.44,5,1.28,10,1.44,15.11s-.06,10.3-.26,15.45c-.44,11.08-.74,22.34,3,32.94a.51.51,0,0,0,.62.35q9.42-3.83,18.75-7.86,4.85-2.1,9.68-4.27c2.9-1.3,6.31-2.33,8.9-4.2,1.81-1.3,2.06-2.93,2-5.06-.1-3.63-.36-7.26-.52-10.89q-.47-10.89-.75-21.79c-.74-28.92-.32-57.81.77-86.71.09-2.39-.09-4.2-2.48-5.16-3.51-1.42-7.5-2.1-11.16-3.11l-23.62-6.51a.5.5,0,0,0-.26,1Z" transform="translate(-711.22 -459.22)"/><path class="cls-3" d="M961.61,464.26c1.59,3.64.58,11.27.58,11.27a24.8,24.8,0,0,1-6,.65c-47.14.15-94.27,0-141.4-.17l-45.15-.16c-3.69,0-12.31.17-12.31.17-2.65-.92-9.92-2.94-15.39-4.58l-20.43-6.14q57.32-2.85,114.74-1.26c13.57.38,27.14.95,40.7.61,14.25-.35,28.47-1.68,42.72-1.83,13.85-.15,27.68.82,41.49,1.79" transform="translate(-711.22 -459.22)"/><path class="cls-3" d="M961.13,464.39c1,2.67,1,5.71.8,8.53a7.42,7.42,0,0,1-.22,2.46c.13-.19-.09-.05-.58-.09a24.21,24.21,0,0,0-2.9.31c-8.74.57-17.66.13-26.42.14q-28.12,0-56.26-.05c-36.35-.08-72.73-.73-109.07-.32-2.82,0-5.75.34-8.56.14s-5.61-1.57-8.2-2.32c-9.37-2.72-18.71-5.56-28.06-8.37l-.13,1q46.85-2.31,93.78-1.69c15.6.21,31.18.9,46.77,1.1s31.1-.91,46.68-1.58c17.52-.76,35,.25,52.42,1.48.65.05.64-.95,0-1-15.46-1.09-30.95-2.13-46.46-1.7s-31.09,1.85-46.68,1.84-31.16-.77-46.74-1.05-31.27-.3-46.9-.08q-26.46.38-52.87,1.68a.51.51,0,0,0-.13,1c7.93,2.38,15.85,4.8,23.79,7.13,3.24.94,6.49,1.86,9.71,2.84a11.72,11.72,0,0,0,4.06.73c14.69-.29,29.38-.08,44.07,0q52.69.19,105.38.28,14.94,0,29.87,0l14.44,0c3,0,6.69.36,9.61-.68a.52.52,0,0,0,.36-.48c.47-3.66.77-7.9-.6-11.4-.23-.6-1.2-.34-1,.26Z" transform="translate(-711.22 -459.22)"/><path class="cls-4" d="M967,460.83q13,2.22,25.79,5.57l3.6,143.65a4.78,4.78,0,0,1-.75,3.34,4.68,4.68,0,0,1-2.74,1.2q-10,2-20.16,3c-1.34.13-2.95.13-3.71-1a3.89,3.89,0,0,1-.38-2.51,120.35,120.35,0,0,0-.35-20c-.5-5-1.31-9.94-1.2-14.93.12-6,1.55-11.89,1.89-17.87.43-7.78-1-15.52-1.67-23.28-1.05-12.11-.27-24.3-1-36.43-.8-13.29-3.35-27,1-39.61" transform="translate(-711.22 -459.22)"/><path class="cls-4" d="M966.89,461.32q8.45,1.44,16.78,3.34c1.43.33,2.86.67,4.28,1,.94.23,3,.35,3.79.95,1,.82.65,2.59.68,3.76l.13,5,.87,34.91,1.75,69.84.43,17,.21,8.48c0,1.49.13,3,.11,4.48a5.21,5.21,0,0,1-.13,2c-.68,1.39-2.57,2-3.94,2.26-5.67,1.11-11.4,2-17.15,2.57a11.61,11.61,0,0,1-3.32.25c-2.94-.67-2.16-3.51-2.07-5.42q.2-4.29.09-8.58c-.14-5.54-.84-11-1.4-16.5a71.45,71.45,0,0,1,.61-17.22,77.51,77.51,0,0,0,.82-15.89c-.36-5.51-1.22-11-1.66-16.49-1-12.86-.15-25.77-1.13-38.63-.92-12.11-2.71-24.52,1.22-36.3.2-.61-.77-.87-1-.26-3.31,9.92-2.62,20.37-1.75,30.62,1,11.27,1,22.46,1.15,33.75q.16,8.59,1.11,17.13a113.56,113.56,0,0,1,1.16,17c-.19,5.37-1.37,10.65-1.79,16-.44,5.65.37,11.22,1,16.83a123,123,0,0,1,.66,16.17c-.08,2.8-1.59,7.94,2.3,8.73,2.15.43,4.75-.25,6.9-.51q3.92-.48,7.82-1.1c2.67-.43,5.39-.81,8-1.45,1.44-.35,2.67-.9,3.2-2.36.72-2,.23-4.52.18-6.57l-.22-9-.44-17.46-.86-34.42-2-78.81a.5.5,0,0,0-.37-.48q-12.76-3.33-25.79-5.57c-.63-.11-.9.86-.27,1Z" transform="translate(-711.22 -459.22)"/><path class="cls-5" d="M967.31,460.13c2.14,48.68,3.21,109.17,2.78,157.9l-5.68-4.87q.65-73.1-2.58-146.15Z" transform="translate(-711.22 -459.22)"/><path class="cls-6" d="M966.93,460.13c1.82,41.41,2.69,82.87,2.86,124.31q.06,16.8-.07,33.59l.64-.27c-1.63-1.39-4-2.77-5.23-4.48-.94-1.25-.31-4.43-.3-6.09,0-3.31,0-6.63,0-9.94q.06-18.9-.15-37.79-.39-37.8-1.83-75.56c-.14-3.64-.29-7.29-.44-10.93-.08-1.9-.81-4.73.13-6.32,1.31-2.23,3.37-4.23,5-6.26.3-.37-.23-.91-.53-.53l-4.56,5.73a5.21,5.21,0,0,0-1,1.37c-.33,1.09.12,2.85.17,4q.12,3,.25,6,.78,19.38,1.29,38.77,1.05,39.27,1,78.55c0,3.65,0,7.3,0,10.94q0,3,0,6a5.66,5.66,0,0,0,.1,2.25c.45.87,2.11,1.82,2.84,2.44l2.84,2.43a.38.38,0,0,0,.64-.26c.35-41.45-.24-82.92-1.54-124.34q-.52-16.79-1.25-33.56C967.66,459.65,966.91,459.64,966.93,460.13Z" transform="translate(-711.22 -459.22)"/><path class="cls-5" d="M712.3,461.53c48.62-3.24,196.93-1.38,255-1.4L961.83,467c-53.45-2.16-195.23-3.86-243.85-.62Z" transform="translate(-711.22 -459.22)"/><path class="cls-6" d="M712.3,461.9c30.3-2,60.8-1.77,91.15-1.87,38.17-.13,76.34.09,114.52.29,16.44.09,32.89.19,49.34.18l-.27-.64-2.13,2.68c-.89,1.12-1.91,3.08-3.09,3.88-.72.49-2.47.12-3.49.08-1.68-.07-3.35-.13-5-.18q-11.26-.39-22.54-.65-28.12-.71-56.26-1c-39.78-.5-79.6-.75-119.38,0-8.52.17-17,.39-25.54.75q-5.12.21-10.2.52a3.24,3.24,0,0,1-1.4,0,9.71,9.71,0,0,1-2-1.73l-3.4-2.91c-.36-.31-.89.22-.53.53l3,2.59c.75.65,1.81,2,2.73,2.34s2.52-.1,3.4-.15l4.64-.25c7.27-.35,14.54-.57,21.82-.74,18.74-.46,37.49-.59,56.24-.61q61-.09,121.93,1.33,13.3.3,26.61.74l5.49.19c1.08,0,3.21.55,4.18,0s1.9-2.39,2.58-3.25l2.89-3.63a.38.38,0,0,0-.26-.64c-32.64,0-65.27-.29-97.9-.42-37.54-.14-75.1-.25-112.64.35-14.82.24-29.67.49-44.47,1.47C711.82,461.18,711.82,461.93,712.3,461.9Z" transform="translate(-711.22 -459.22)"/><path class="cls-5" d="M969.84,618.12c-48.62,3.25-198.89,4.59-257,4.62l4.57-4.85c53.45,2.16,198.1-1.39,246.72-4.63Z" transform="translate(-711.22 -459.22)"/><path class="cls-6" d="M969.84,617.75c-30.55,2-61.24,2.39-91.84,3q-57.79,1.1-115.61,1.44-24.75.18-49.52.22l.26.64,3-3.15a7.43,7.43,0,0,1,1.33-1.41,3.55,3.55,0,0,1,1.89-.11c3.17.11,6.35.2,9.52.27,7.63.17,15.25.25,22.87.29,19,.09,38-.07,57-.33,39.66-.56,79.32-1.52,118.95-3.11,8.37-.34,16.74-.71,25.11-1.16,3.28-.17,6.55-.36,9.83-.57a3.58,3.58,0,0,1,1.54,0,8.86,8.86,0,0,1,1.84,1.58l3.58,3.06c.36.31.89-.22.53-.53l-3-2.59c-.73-.63-1.81-2-2.73-2.34s-2.41.1-3.33.15l-4.95.3q-10.77.6-21.55,1c-18.53.8-37.07,1.4-55.62,1.92-40.72,1.13-81.47,1.93-122.2,1.83-9,0-18-.1-27-.29-3.6-.08-7.2-.17-10.8-.31-1.63-.06-1.69,0-2.75,1.1l-3.59,3.8a.39.39,0,0,0,.27.65c32.86,0,65.73-.3,98.59-.67,37.91-.44,75.82-1,113.72-2.08,14.89-.44,29.8-.89,44.66-1.87C970.32,618.47,970.33,617.72,969.84,617.75Z" transform="translate(-711.22 -459.22)"/><path class="cls-5" d="M712.87,622.74c-2.15-48.68-1-112.48-.57-161.21l5.68,4.86c-.42,48.73-2.69,102.82-.54,151.5Z" transform="translate(-711.22 -459.22)"/><path class="cls-6" d="M713.24,622.74c-1.85-42.42-1.34-84.94-.91-127.39q.18-16.91.34-33.82l-.64.26,2.29,2c.9.77,2.52,1.68,3.13,2.68.4.66.14,1.82.13,2.66,0,1.51,0,3-.05,4.52l-.12,9.11c-.19,12.41-.45,24.83-.67,37.24-.46,24.75-.83,49.51-.39,74.26q.18,10,.56,20.07c.05,1.1.44,2.71,0,3.63a8,8,0,0,1-1.33,1.41l-3,3.14c-.33.36.2.89.53.54l2.29-2.43c.61-.65,2-1.66,2.34-2.5a8.45,8.45,0,0,0-.06-2.88c-.06-1.51-.12-3-.17-4.52-.11-3.18-.21-6.37-.28-9.56-.32-12.88-.39-25.77-.32-38.65.12-25.67.78-51.33,1.18-77q.09-5.48.16-11l.06-5.42c0-.81.32-2.18,0-2.89-.43-.87-2-1.72-2.71-2.35l-3-2.59a.38.38,0,0,0-.64.27c-.37,42.46-1.11,84.94-.4,127.41.18,11.27.48,22.54,1,33.8C712.52,623.22,713.27,623.22,713.24,622.74Z" transform="translate(-711.22 -459.22)"/><path class="cls-6" d="M993,466.21l2.9,115.67c.27,10.68.67,21.38.08,32.06,0,.48.72.48.75,0,1-18.93-.23-38.06-.71-57l-1.45-57.84-.82-32.9a.38.38,0,0,0-.75,0Z" transform="translate(-711.22 -459.22)"/><path class="cls-6" d="M993.51,465.85A109.45,109.45,0,0,0,978.23,462c-2.3-.47-4.62-.92-6.93-1.37-.82-.17-3.1-.21-3.73-.79-.36-.32-.89.21-.53.53.62.56,2.09.59,2.84.74,2.32.47,4.65.91,7,1.37a117.41,117.41,0,0,1,16.46,4.07c.46.16.65-.56.2-.72Z" transform="translate(-711.22 -459.22)"/><path class="cls-6" d="M970.09,618.4c9,.07,17.71-2.24,26.4-4.1.47-.1.27-.83-.2-.72-8.63,1.84-17.31,4.14-26.2,4.07a.38.38,0,0,0,0,.75Z" transform="translate(-711.22 -459.22)"/><path class="cls-6" d="M964,597.47l-70,2.09c-25.09.75-50.17,1.66-75.27,1.73-20.62.05-41.29-.64-61.9.18-.48,0-.48.77,0,.75,17.81-.71,35.67-.2,53.48-.18q23.5,0,47-.63l73.61-2.2,33.1-1c.49,0,.49-.77,0-.75Z" transform="translate(-711.22 -459.22)"/><path class="cls-6" d="M962.22,475.86c-21.69.83-43.49.42-65.19.42-27.23,0-54.45-.19-81.67-.4-19.31-.15-38.68-.5-58,.28-.48,0-.48.77,0,.75,33.17-1.34,66.46-.1,99.65,0q37.47.17,74.94,0c10.08-.05,20.19,0,30.26-.36.48,0,.48-.77,0-.75Z" transform="translate(-711.22 -459.22)"/><path class="cls-6" d="M756.4,476.46c-1.83,31.58-1.67,63.18-.86,94.79q.39,15.3.87,30.6a.38.38,0,0,0,.75,0c-1-32.69-2-65.39-1.17-98.09q.36-13.67,1.16-27.3c0-.48-.72-.48-.75,0Z" transform="translate(-711.22 -459.22)"/><path class="cls-6" d="M757.47,476.17c-11.32-3.92-23-6.56-34.35-10.48-.46-.16-.66.56-.2.72,11.31,3.92,23,6.56,34.35,10.48.46.16.65-.56.2-.72Z" transform="translate(-711.22 -459.22)"/><path class="cls-6" d="M756.59,601.52a337.25,337.25,0,0,1-37.15,16.22c-.45.16-.26.88.2.72A338.56,338.56,0,0,0,757,602.17c.44-.21.06-.86-.38-.65Z" transform="translate(-711.22 -459.22)"/><path class="cls-7" d="M962.39,511c.64,27.22,2,54.52,0,81.67a123.19,123.19,0,0,0-.56,13.48c0,1.11-.13,4.13-.91,4.93s-3.06.73-4.21.73c-4.13,0-4.67.18-5.57-.81s-.86-2.58-.79-4c1.6-31,.22-62,.15-93,0-1.27.14-2.79,1.27-3.38a3.55,3.55,0,0,1,1.62-.26l6.77,0c1.06,0,2.47.3,2.51,1.36" transform="translate(-711.22 -459.22)"/><path class="cls-6" d="M961.89,511c.35,14.93.92,29.86,1,44.8.1,14.47-.76,28.79-1.5,43.22-.14,2.59,0,5.17-.13,7.75,0,1.06.08,2.89-.61,3.75-.86,1.07-2.78.79-4,.79-2.67,0-5.68.79-5.9-2.86s.33-7.59.45-11.3c.49-14.83.4-29.68.2-44.52-.11-8.25-.26-16.5-.35-24.75-.05-4.29-.11-8.58-.11-12.87,0-.64-.16-2.24.19-2.8.83-1.3,2.83-1.34,4.13-1.34s6.39-.8,6.87,1a.5.5,0,0,0,1-.26c-.61-2.24-3.65-1.73-5.41-1.72-2.21,0-6-.86-7.28,1.51-.64,1.2-.46,2.87-.45,4.15,0,2.14,0,4.29,0,6.43q0,6.68.16,13.36c.25,17.65.61,35.3.28,53q-.12,6.67-.39,13.35c-.11,2.63-1.29,7.39.6,9.66.89,1.06,2.1,1,3.39,1,1.86,0,5.54.64,7.09-.8,1.17-1.09,1.12-3.5,1.15-5,.06-3.37,0-6.72.28-10.09.6-8.63,1.11-17.23,1.27-25.88.36-19.86-.49-39.71-1-59.56,0-.64-1-.64-1,0Z" transform="translate(-711.22 -459.22)"/><path class="cls-7" d="M752.3,511c.64,27.21,2,54.51,0,81.66a125.73,125.73,0,0,0-.56,13.48c0,1.11-.13,4.13-.9,4.93s-3.07.74-4.22.73c-4.13,0-4.67.18-5.57-.8s-.86-2.59-.79-4c1.61-31,.23-62,.16-93,0-1.27.14-2.8,1.26-3.38a3.43,3.43,0,0,1,1.62-.27l6.77,0c1.06,0,2.47.3,2.51,1.36" transform="translate(-711.22 -459.22)"/><path class="cls-6" d="M751.8,511c.36,14.93.92,29.86,1,44.79.11,14.47-.75,28.79-1.5,43.22-.14,2.59,0,5.17-.12,7.76,0,1,.07,2.88-.62,3.75-.86,1.07-2.77.78-4,.78-2.67,0-5.68.8-5.89-2.85s.33-7.6.45-11.3c.49-14.84.39-29.69.19-44.53-.11-8.25-.25-16.5-.35-24.75,0-4.29-.11-8.58-.1-12.86,0-.65-.17-2.25.19-2.81.83-1.3,2.82-1.33,4.13-1.34s6.38-.79,6.86,1a.5.5,0,0,0,1-.26c-.6-2.24-3.65-1.72-5.41-1.71-2.2,0-6-.87-7.28,1.51-.64,1.19-.45,2.86-.45,4.14,0,2.14,0,4.29,0,6.43q.06,6.69.16,13.37c.25,17.65.61,35.3.28,53-.08,4.45-.2,8.9-.39,13.35-.11,2.62-1.29,7.38.61,9.65.88,1.06,2.09,1,3.38,1,1.86,0,5.54.64,7.09-.8,1.17-1.09,1.13-3.49,1.15-5,.07-3.38,0-6.73.28-10.1.6-8.62,1.11-17.23,1.27-25.88.37-19.85-.48-39.71-1-59.55a.5.5,0,0,0-1,0Z" transform="translate(-711.22 -459.22)"/><path class="cls-8" d="M937.62,510.11c.38,27.22,1.48,54.53-.83,81.66a125.65,125.65,0,0,0-.69,13.47c0,1.12-.17,4.13-1,4.92s-3.07.71-4.22.69c-4.13-.07-4.68.14-5.57-.85s-.83-2.6-.75-4c1.91-30.95.84-62,1.07-93,0-1.27.17-2.79,1.3-3.36a3.42,3.42,0,0,1,1.62-.26l6.77,0c1.06,0,2.47.32,2.5,1.38" transform="translate(-711.22 -459.22)"/><path class="cls-6" d="M937.12,510.11c.21,14.93.64,29.87.6,44.8,0,14.47-1,28.78-1.93,43.21-.16,2.58-.09,5.17-.2,7.75,0,1.07,0,2.86-.66,3.74-.82,1-2.81.76-4,.74-2.67,0-5.68.74-5.86-2.91s.4-7.6.56-11.3c.63-14.83.68-29.68.63-44.52,0-8.25-.09-16.5-.11-24.75,0-4.29,0-8.58,0-12.87,0-.64-.14-2.24.22-2.8.84-1.29,2.84-1.3,4.15-1.3s6.39-.73,6.85,1a.5.5,0,0,0,1-.27c-.58-2.24-3.65-1.75-5.4-1.76-2.21,0-6-.92-7.29,1.45-.65,1.19-.48,2.86-.49,4.14,0,2.14,0,4.29,0,6.43q0,6.69,0,13.36c.08,17.65.27,35.31-.23,53q-.18,6.68-.52,13.35c-.13,2.62-1.37,7.37.51,9.66.88,1.07,2.09,1,3.38,1.08,1.88,0,5.52.7,7.09-.73,1.19-1.09,1.16-3.49,1.2-5,.1-3.37.11-6.72.38-10.09.68-8.62,1.28-17.22,1.52-25.87.56-19.85-.1-39.71-.38-59.56a.5.5,0,0,0-1,0Z" transform="translate(-711.22 -459.22)"/><path class="cls-9" d="M925.6,511.12c1.36,27.19,3.55,54.44,1.88,81.64a110.37,110.37,0,0,0-.32,13.5c.05,1.11,0,4.13-.91,5s-3.44.83-4.74.85c-4.67.1-5.28.32-6.32-.63s-1-2.56-1-3.95c1.09-31-1.19-62-2-93,0-1.27.09-2.8,1.35-3.42a4.45,4.45,0,0,1,1.82-.31l7.65-.24c1.2,0,2.8.23,2.87,1.29" transform="translate(-711.22 -459.22)"/><path class="cls-6" d="M925.1,511.12c.77,15.25,1.79,30.48,2.24,45.74.23,7.7.32,15.41.16,23.12-.15,6.87-.79,13.73-.91,20.59-.05,2.55.25,5.14,0,7.68-.14,1.49-.26,2.63-1.82,3.07a20.91,20.91,0,0,1-4.94.29c-2.47.06-4.68.6-5.15-2.71a27.87,27.87,0,0,1,.11-4.38q.09-3.46.14-6.93c.21-15.18-.27-30.35-.86-45.51-.33-8.57-.7-17.15-1-25.72-.15-4.11-.68-8.43-.37-12.52.23-3.06,3.27-2.6,5.54-2.67,1.25,0,6.61-.92,7.17.77.2.61,1.17.35,1-.26-.74-2.25-3.92-1.64-5.74-1.58-2.21.06-6.68-.74-8.24,1.35a5,5,0,0,0-.69,3c0,2.3.13,4.62.2,6.92q.23,6.68.49,13.36c.7,18,1.55,35.93,1.6,53.91q0,6.93-.14,13.86c-.07,2.58-1.1,6.78.75,9,.92,1.08,2.08,1.15,3.42,1.14,2.32,0,5.47.36,7.67-.56,1.82-.76,1.9-3,2-4.7.11-3.23-.13-6.47,0-9.72.42-8.69.89-17.34.89-26,0-20.19-1.46-40.34-2.48-60.5,0-.64-1-.64-1,0Z" transform="translate(-711.22 -459.22)"/><path class="cls-10" d="M935.8,611.6c.06-25.24-.78-50.59,2.62-75.67a88,88,0,0,0,1.12-12.47c0-1,.29-3.83,1.28-4.54s3.84-.58,5.26-.53c5.14.17,5.82,0,6.91.94s1,2.43.85,3.7c-3,28.65-2.24,57.46-3.13,86.2,0,1.17-.27,2.58-1.68,3.08a5.66,5.66,0,0,1-2,.19l-8.43-.2c-1.31,0-3.05-.37-3.07-1.35" transform="translate(-711.22 -459.22)"/><path class="cls-6" d="M936.3,611.6c0-14.43-.23-28.87.18-43.3.2-7,.55-14.09,1.18-21.12.57-6.31,1.68-12.57,2.17-18.88.18-2.24-.36-5.62.62-7.69,1.29-2.72,6.18-1.71,8.73-1.63,2.11.06,4,0,4.25,2.74a25.57,25.57,0,0,1-.43,4.77c-.18,2-.35,4-.51,5.93-1.11,14.34-1.44,28.72-1.66,43.09-.12,7.94-.21,15.87-.37,23.8q-.06,3-.14,6c0,1,0,2-.08,3a14.21,14.21,0,0,1-.15,2.07L947.7,612c-1.45.47-3.83-.08-5.37-.12-1.15,0-5.9.5-6.34-1.07a.5.5,0,0,0-1,.26c.5,1.81,3,1.7,4.49,1.74l6.08.15a9.12,9.12,0,0,0,3.68-.23c2.45-1,2-4.37,2-6.49.12-4.46.2-8.92.28-13.38.28-17.19.34-34.38,1.32-51.54q.36-6.44.92-12.86c.18-2,.49-4.06.58-6.09a4.49,4.49,0,0,0-.55-2.83,3.72,3.72,0,0,0-3-1.49,35.38,35.38,0,0,0-8.54-.11c-2,.3-2.67,1.33-3.05,3.29-.53,2.77-.29,5.68-.57,8.48-.79,8-2,15.85-2.54,23.84-1.3,19.32-.82,38.7-.86,58a.5.5,0,0,0,1,0Z" transform="translate(-711.22 -459.22)"/><path class="cls-11" d="M899.79,609.83c-.47-25.24-1.84-50.56,1-75.71a86.84,86.84,0,0,0,.86-12.5c0-1,.22-3.82,1.19-4.56s3.82-.65,5.25-.64c5.14.07,5.82-.12,6.92.8s1,2.4.93,3.68c-2.37,28.7-1,57.49-1.32,86.24,0,1.18-.21,2.59-1.62,3.12a5.58,5.58,0,0,1-2,.23l-8.43,0c-1.31,0-3.06-.3-3.1-1.28" transform="translate(-711.22 -459.22)"/><path class="cls-6" d="M900.29,609.83c-.27-14.43-.83-28.86-.73-43.3.06-7,.26-14.1.74-21.13.44-6.33,1.41-12.61,1.78-18.93.12-2.25-.48-5.61.45-7.7,1.23-2.76,6.13-1.85,8.68-1.83,2.12,0,4-.12,4.33,2.65a26.39,26.39,0,0,1-.33,4.77c-.15,2-.27,4-.39,5.94-.81,14.36-.84,28.75-.76,43.12.05,7.94.13,15.87.13,23.8,0,2,0,4,0,5.95,0,1,0,2,0,3a14.35,14.35,0,0,1-.1,2.07L911.71,610c-1.43.5-3.83,0-5.37,0-1.14,0-5.9.62-6.37-.93-.19-.61-1.15-.35-1,.27.54,1.8,3,1.64,4.52,1.65l6.08,0a9.24,9.24,0,0,0,3.67-.3c2.44-1.07,1.88-4.41,1.89-6.53q0-6.69,0-13.38c-.09-17.19-.39-34.38.23-51.56.16-4.3.37-8.59.66-12.88.13-2,.4-4.06.45-6.09a4.47,4.47,0,0,0-.61-2.82,3.67,3.67,0,0,0-3-1.44,35.87,35.87,0,0,0-8.54.07c-2,.34-2.65,1.37-3,3.35-.48,2.77-.17,5.68-.39,8.49-.63,8-1.67,15.88-2,23.88-.9,19.34,0,38.71.35,58.05,0,.64,1,.64,1,0Z" transform="translate(-711.22 -459.22)"/><path class="cls-12" d="M891.88,611.27c-.27-25.24-1-50.56.58-75.71.32-4.9.51-7.53.49-12.49,0-1,.12-3.83.67-4.57s2.17-.65,3-.63c2.91.06,3.29-.13,3.92.79s.59,2.4.53,3.68c-1.35,28.7-.59,57.49-.75,86.24,0,1.18-.12,2.59-.92,3.12a1.91,1.91,0,0,1-1.14.24l-4.78,0c-.74,0-1.73-.3-1.75-1.28" transform="translate(-711.22 -459.22)"/><path class="cls-6" d="M892.38,611.27c-.29-26.3-.84-52.55.78-78.82.16-2.5.27-5,.29-7.51,0-2.3-.7-6.44,2.41-6.58a14.85,14.85,0,0,1,2.75,0c1.79.25,1.88,1.46,2,3.17.16,3.35-.3,6.84-.4,10.19-.43,13.37-.48,26.76-.44,40.14,0,7.27.06,14.54.07,21.82q0,5.44,0,10.91c0,1.68.66,6-1.57,6.82-1.08.37-5.77.27-6-1-.15-.62-1.11-.36-1,.27.47,2,2.53,1.65,4.15,1.66,2.43,0,4.72.59,5.31-2.25s.14-6.52.14-9.52q0-6.45,0-12.89c-.06-15.87-.18-31.73.15-47.59q.13-6,.35-11.89c.07-2,.19-4,.25-5.94,0-1.26.18-2.82-.6-3.93a2.59,2.59,0,0,0-2.34-1c-1.52-.08-4.31-.53-5.42.86-.91,1.14-.71,3.45-.74,4.82-.07,3.55-.14,7.09-.37,10.64q-.75,11.71-1,23.44c-.35,18,.09,36.08.29,54.12a.5.5,0,0,0,1,0Z" transform="translate(-711.22 -459.22)"/><path class="cls-13" d="M752.49,611.41c-.3-27.22-1.16-54.54.65-81.66.35-5.28.56-8.12.54-13.48,0-1.11.13-4.13.74-4.92s2.41-.71,3.31-.69c3.24.07,3.66-.13,4.36.86s.66,2.59.59,4c-1.5,31-.65,62-.84,93,0,1.27-.13,2.8-1,3.37a2.25,2.25,0,0,1-1.27.25l-5.31,0c-.83,0-1.93-.32-2-1.38" transform="translate(-711.22 -459.22)"/><path class="cls-6" d="M753,611.41c-.32-28.65-.83-57.2.92-85.81q.26-4.2.27-8.41c0-1,0-1.93.08-2.9.19-2.16.74-3.09,3-3.14a12.52,12.52,0,0,1,3.67.1c1.41.48,1.32,2.3,1.32,3.54,0,3.52-.31,7.06-.43,10.58-.49,14.51-.54,29-.5,43.54,0,8.25.07,16.5.09,24.75q0,5.94,0,11.88c0,2.12.63,5.09-1.8,6.08-1,.43-6.46.29-6.78-1a.5.5,0,0,0-1,.26c.55,2.27,3.29,1.76,5.09,1.77,2.21,0,4.56.54,5.25-2a18.71,18.71,0,0,0,.21-4.55q0-3.46,0-6.93,0-6.44,0-12.87c-.06-17.32-.19-34.64.19-52,.1-4.28.22-8.57.39-12.85.11-2.86,1.1-6.88-.1-9.6-.61-1.39-1.61-1.58-3-1.63-1.69-.06-4.79-.61-5.91,1.06s-.73,4.56-.73,6.38c0,3.32-.18,6.63-.4,9.93-.56,8.58-.95,17.16-1.12,25.76-.38,19.36.11,38.72.33,58.09a.5.5,0,0,0,1,0Z" transform="translate(-711.22 -459.22)"/><path class="cls-14" d="M893.17,510.71c.38,27.22,1.48,54.53-.83,81.66a125.52,125.52,0,0,0-.69,13.47c0,1.11-.17,4.13-.95,4.92s-3.08.71-4.22.69c-4.13-.07-4.68.13-5.57-.86s-.83-2.59-.75-4c1.91-31,.84-62,1.07-93,0-1.27.17-2.79,1.3-3.37a3.54,3.54,0,0,1,1.62-.25l6.77,0c1.06,0,2.47.33,2.5,1.38" transform="translate(-711.22 -459.22)"/><path class="cls-6" d="M892.67,510.71c.21,14.93.63,29.86.59,44.8,0,14.47-1,28.78-1.92,43.2-.16,2.59-.1,5.17-.2,7.76,0,1.07,0,2.86-.66,3.74-.82,1-2.81.76-4,.74-2.68,0-5.69.74-5.87-2.92s.41-7.59.57-11.29c.63-14.83.68-29.68.63-44.52,0-8.25-.1-16.5-.11-24.75,0-4.29,0-8.58,0-12.87,0-.65-.14-2.25.22-2.8.84-1.29,2.84-1.31,4.14-1.3s6.39-.73,6.85,1a.5.5,0,0,0,1-.27c-.59-2.24-3.65-1.75-5.4-1.76-2.21,0-6-.92-7.29,1.45-.65,1.19-.48,2.85-.49,4.13,0,2.15,0,4.29,0,6.44q0,6.68,0,13.36c.08,17.65.27,35.31-.23,53q-.19,6.67-.52,13.35c-.14,2.62-1.37,7.37.51,9.66.87,1.06,2.09,1,3.37,1.07,1.89,0,5.53.71,7.1-.73,1.18-1.08,1.16-3.48,1.2-5,.09-3.38.11-6.73.37-10.1.69-8.61,1.29-17.22,1.53-25.86.56-19.85-.1-39.71-.38-59.56a.5.5,0,0,0-1,0Z" transform="translate(-711.22 -459.22)"/><path class="cls-15" d="M859.61,511c.49,27.22,1.9,54.53-1.06,81.66a97.47,97.47,0,0,0-.89,13.47c0,1.12-.22,4.13-1.22,4.92s-3.94.71-5.41.69c-5.3-.07-6,.14-7.14-.85s-1.07-2.6-1-4c2.44-31,1.07-62,1.36-93,0-1.27.22-2.79,1.67-3.37a5.72,5.72,0,0,1,2.08-.25l8.69,0c1.35,0,3.16.33,3.2,1.39" transform="translate(-711.22 -459.22)"/><path class="cls-6" d="M859.11,511c.28,15.42.85,30.85.76,46.28,0,7.87-.27,15.75-.79,23.6-.46,6.78-1.48,13.52-1.82,20.3-.13,2.46.45,5.64-.44,8-1.16,3.09-6.13,2.07-8.84,2-2.29,0-4.25.16-4.62-2.89a30.3,30.3,0,0,1,.36-5.37c.14-2,.26-4,.36-5.93.85-15.48.89-31,.81-46.5,0-8.58-.14-17.16-.14-25.74q0-3.47,0-6.93c0-1.63-.39-3.93.22-5.5.95-2.42,6-1.57,7.89-1.56,1.22,0,6.09-.66,6.58,1a.5.5,0,0,0,1-.27c-.63-2.17-3.92-1.75-5.61-1.75-2.1,0-4.19,0-6.28,0a5.46,5.46,0,0,0-3.46.69c-2.15,1.67-1.29,6.12-1.3,8.37q0,6.93,0,13.86c.09,18.31.38,36.63-.27,54.93q-.24,6.92-.68,13.84c-.17,2.64-1.5,7.23.47,9.48a4.28,4.28,0,0,0,3.4,1.24,39.1,39.1,0,0,0,8.24-.11c2.2-.39,2.77-1.73,3.08-3.84.44-3,.15-6.18.39-9.24.69-8.68,1.73-17.29,2.1-26,.89-20.67,0-41.35-.39-62a.5.5,0,0,0-1,0Z" transform="translate(-711.22 -459.22)"/><path class="cls-16" d="M867.07,611.45c-.47-25.24-1.85-50.56,1-75.71a86.83,86.83,0,0,0,.85-12.5c0-1,.22-3.82,1.19-4.56s3.82-.65,5.25-.64c5.14.07,5.82-.12,6.93.8s1,2.4.93,3.68c-2.38,28.7-1,57.49-1.33,86.24,0,1.18-.21,2.59-1.62,3.12a5.58,5.58,0,0,1-2,.23l-8.43,0c-1.31,0-3.06-.3-3.1-1.29" transform="translate(-711.22 -459.22)"/><path class="cls-6" d="M867.57,611.45c-.28-14.43-.84-28.86-.73-43.3,0-7,.26-14.1.74-21.13.43-6.33,1.41-12.61,1.77-18.93.13-2.25-.48-5.61.45-7.7,1.23-2.76,6.13-1.85,8.69-1.82,2.11,0,4-.13,4.32,2.64a25.62,25.62,0,0,1-.33,4.78c-.15,2-.27,4-.39,5.94-.81,14.35-.84,28.74-.76,43.11,0,7.94.13,15.87.13,23.8,0,2,0,4,0,5.95,0,1,0,2,0,3a13.05,13.05,0,0,1-.1,2.07L879,611.61c-1.43.5-3.83,0-5.37,0-1.14,0-5.9.62-6.37-.93-.19-.61-1.15-.35-1,.27.55,1.8,3,1.64,4.52,1.65l6.08,0a9.3,9.3,0,0,0,3.68-.3c2.43-1.06,1.87-4.41,1.89-6.52q0-6.7,0-13.39c-.08-17.19-.39-34.38.23-51.56.16-4.29.37-8.59.66-12.87.14-2,.4-4.07.45-6.1a4.48,4.48,0,0,0-.61-2.82,3.73,3.73,0,0,0-3-1.44,35.87,35.87,0,0,0-8.54.07c-2,.34-2.65,1.37-3,3.35-.48,2.77-.17,5.68-.39,8.49-.63,8-1.67,15.88-2,23.88-.9,19.34,0,38.71.36,58.05a.5.5,0,0,0,1,0Z" transform="translate(-711.22 -459.22)"/><path class="cls-17" d="M830.09,609.47c-.47-26.7-1.85-53.49,1-80.09a97,97,0,0,0,.86-13.22c0-1.09.21-4,1.18-4.82s3.83-.7,5.26-.68c5.13.07,5.81-.13,6.92.84s1,2.55.93,3.9c-2.37,30.36-1,60.81-1.33,91.22,0,1.25-.21,2.74-1.61,3.3a5.43,5.43,0,0,1-2,.25l-8.42,0c-1.32,0-3.07-.32-3.11-1.36" transform="translate(-711.22 -459.22)"/><path class="cls-6" d="M830.59,609.47c-.27-15.18-.83-30.35-.73-45.52,0-7.59.25-15.17.74-22.74.45-6.78,1.46-13.52,1.79-20.31.11-2.35-.44-5.45.42-7.71,1.14-3,6-2,8.7-2s4.15.1,4.31,3.52c.17,3.76-.56,7.81-.75,11.58-.78,15-.8,30.08-.71,45.11,0,8.44.13,16.87.13,25.3,0,2,0,4,0,5.95,0,2.51.88,6.22-2.47,7-1.57.37-3.77,0-5.37,0-1.19,0-5.89.64-6.37-1a.5.5,0,0,0-1,.27c.57,2,3.37,1.72,5,1.72l6.08,0c1.22,0,2.68.16,3.74-.6,2.06-1.48,1.35-5.34,1.36-7.41,0-4.46,0-8.92,0-13.39-.08-18-.38-36,.22-54,.15-4.46.35-8.92.63-13.37.13-2.15.32-4.29.45-6.44a5.86,5.86,0,0,0-.53-3.6,3.65,3.65,0,0,0-3-1.57,34.45,34.45,0,0,0-8.55.07c-2.16.39-2.72,1.71-3,3.78-.43,3-.15,6.08-.39,9.1-.67,8.49-1.67,16.92-2,25.44-.86,20.28,0,40.57.38,60.85a.5.5,0,0,0,1,0Z" transform="translate(-711.22 -459.22)"/><path class="cls-18" d="M822.17,611c-.26-25.24-1-50.56.59-75.72.31-4.89.51-7.52.48-12.49,0-1,.13-3.83.68-4.56s2.16-.66,3-.64c2.91.06,3.29-.12,3.92.8s.59,2.4.53,3.68c-1.34,28.7-.59,57.49-.75,86.24,0,1.17-.12,2.59-.92,3.12a2,2,0,0,1-1.14.23l-4.77,0c-.75,0-1.74-.3-1.76-1.28" transform="translate(-711.22 -459.22)"/><path class="cls-6" d="M822.67,611c-.28-26.31-.83-52.55.79-78.83.15-2.5.26-5,.28-7.51,0-2.3-.69-6.44,2.42-6.58a14.74,14.74,0,0,1,2.74,0c1.8.25,1.89,1.45,2,3.17.17,3.34-.29,6.83-.4,10.18-.43,13.38-.47,26.76-.44,40.14,0,7.28.06,14.55.08,21.82q0,5.46,0,10.91c0,1.69.66,6.05-1.58,6.82-1.08.37-5.76.27-6-.94-.15-.63-1.11-.36-1,.26.46,2,2.53,1.65,4.15,1.66,2.42,0,4.71.59,5.31-2.25s.13-6.52.13-9.52q0-6.44,0-12.89c-.06-15.86-.17-31.73.16-47.59q.12-5.94.34-11.88c.07-2,.19-4,.25-5.94,0-1.27.19-2.83-.6-3.94a2.58,2.58,0,0,0-2.34-1c-1.52-.09-4.31-.54-5.42.86-.9,1.14-.71,3.44-.74,4.81-.07,3.56-.14,7.09-.36,10.65q-.75,11.7-1,23.44c-.35,18,.1,36.08.29,54.12a.5.5,0,0,0,1,0Z" transform="translate(-711.22 -459.22)"/><path class="cls-19" d="M857.66,611c-.3-30.25-1.17-60.6.64-90.74.36-5.86.57-9,.54-15,0-1.24.14-4.59.75-5.47s2.41-.78,3.31-.76c3.24.07,3.66-.15,4.36.95s.65,2.88.59,4.41c-1.5,34.4-.66,68.9-.84,103.36,0,1.41-.13,3.1-1,3.74a2,2,0,0,1-1.27.28l-5.3,0c-.83,0-1.93-.36-2-1.53" transform="translate(-711.22 -459.22)"/><path class="cls-6" d="M858.16,611c-.32-31.46-.95-62.87.86-94.31.18-3.17.31-6.34.32-9.51,0-1.09,0-2.19,0-3.28.11-2.33,0-4.07,3-4.36a10.22,10.22,0,0,1,3.66.12c1.71.66,1.35,3.29,1.3,4.76-.14,4-.32,7.94-.43,11.91-.46,15.9-.51,31.8-.47,47.7,0,9,.07,17.9.08,26.85q0,6.45,0,12.92c0,2.14.84,6.58-1.81,7.5-1.18.4-6.44.34-6.78-1.21-.13-.62-1.1-.36-1,.27.58,2.65,3.93,1.91,6,1.93,2.89,0,4.26-.27,4.52-3.42.36-4.46.07-9,.07-13.52,0-4.64,0-9.28,0-13.92-.07-18.72-.18-37.44.19-56.16q.13-6.94.38-13.9c.08-2.32.19-4.63.27-6.95a8.8,8.8,0,0,0-.51-4.35c-.81-1.6-2.16-1.47-3.78-1.49-1.86,0-4.31-.45-5.17,1.61-1.06,2.51-.52,6.09-.56,8.72-.06,3.79-.3,7.57-.53,11.35-.54,9.18-.85,18.38-1,27.57-.33,21.06.14,42.12.36,63.17a.5.5,0,0,0,1,0Z" transform="translate(-711.22 -459.22)"/><path class="cls-20" d="M799.88,533.14c.49,21,1.91,42.07-1.06,63a59.44,59.44,0,0,0-.88,10.4c0,.86-.23,3.18-1.23,3.8s-3.94.54-5.41.53c-5.3-.06-6,.1-7.14-.66s-1.07-2-1-3.07c2.45-23.88,1.07-47.83,1.37-71.75a2.38,2.38,0,0,1,1.67-2.6,7,7,0,0,1,2.07-.19l8.69,0c1.36,0,3.16.25,3.2,1.07" transform="translate(-711.22 -459.22)"/><path class="cls-6" d="M799.38,533.14c.3,12.47.91,25,.74,37.43-.08,6.08-.35,12.15-.93,18.2-.51,5.32-1.63,10.62-1.74,16-.07,2.92.16,5.41-3.63,5.6-2.19.11-4.43,0-6.63,0-1.58,0-3.17-.1-3.55-2.11-.23-1.18.24-2.87.34-4,.15-1.64.28-3.27.4-4.91.86-12.27.86-24.57.77-36.86,0-6.88-.14-13.77-.13-20.65,0-1.8,0-3.61,0-5.41a6,6,0,0,1,.1-1.86c.69-1.65,2.79-1.41,4.12-1.41h4.82c1.16,0,5.1-.5,5.67.83.26.59,1.12.08.86-.51-.68-1.57-3.2-1.3-4.6-1.31-1.93,0-3.86,0-5.79,0a12.8,12.8,0,0,0-4.14.21c-1.48.52-1.92,1.61-2,3.08-.3,3.89-.05,7.89,0,11.8.07,15.07.44,30.16-.26,45.22q-.24,5.42-.7,10.8c-.17,2-1.22,5.19.25,6.92,1.87,2.21,6.72,1.25,9.14,1.25,1.49,0,3.79.21,4.95-1s1-4,1-5.63c.14-6.82,1.62-13.6,2.11-20.4,1.23-17.05.23-34.15-.18-51.21a.5.5,0,0,0-1,0Z" transform="translate(-711.22 -459.22)"/><path class="cls-21" d="M807.25,610.47c-.47-27.14-1.85-54.38,1-81.43a100.33,100.33,0,0,0,.86-13.44c0-1.11.21-4.12,1.18-4.91s3.83-.7,5.25-.68c5.14.06,5.82-.14,6.93.85s1,2.59.93,4c-2.37,30.87-1,61.83-1.33,92.76,0,1.26-.21,2.78-1.61,3.36a5.43,5.43,0,0,1-2,.25l-8.42,0c-1.32,0-3.07-.33-3.11-1.38" transform="translate(-711.22 -459.22)"/><path class="cls-6" d="M807.75,610.47c-.27-15.38-.83-30.76-.73-46.15,0-7.52.24-15.05.7-22.56.42-6.85,1.38-13.65,1.78-20.49.16-2.67-.48-6.15.47-8.7,1.13-3,6-2.07,8.7-2s4.15.15,4.31,3.59c.16,3.76-.55,7.78-.74,11.54-.77,15.12-.81,30.26-.73,45.39,0,8.56.13,17.11.14,25.67,0,2.3,0,4.61,0,6.91,0,1,0,2,0,3,0,1.66.17,2.28-1.32,3.31-1.85,1.27-4.29.78-6.5.77-1.2,0-5.9.64-6.37-1a.5.5,0,0,0-1,.27c.6,2.14,3.79,1.75,5.46,1.75,2,0,4.05,0,6.08,0a5.19,5.19,0,0,0,3.37-.69c2-1.61,1.25-5.7,1.26-7.85,0-4.61,0-9.22,0-13.82-.09-18.26-.38-36.53.24-54.78q.21-6.66.62-13.31c.13-2.14.31-4.27.44-6.41a5.92,5.92,0,0,0-.56-3.71,3.93,3.93,0,0,0-3.42-1.56,35.73,35.73,0,0,0-8.27.12c-2.16.42-2.64,1.9-2.91,3.95-.43,3.23-.15,6.56-.42,9.81-.73,8.57-1.66,17.08-2,25.68-.82,20.45,0,40.91.4,61.36a.5.5,0,0,0,1,0Z" transform="translate(-711.22 -459.22)"/><path class="cls-22" d="M770.36,608.48c-.47-28.89-1.84-57.87,1-86.66a113.31,113.31,0,0,0,.86-14.3c0-1.18.22-4.38,1.19-5.22s3.82-.75,5.25-.73c5.14.07,5.81-.14,6.92.91s1,2.75.93,4.21c-2.37,32.85-1,65.8-1.32,98.71,0,1.35-.21,3-1.62,3.57a5,5,0,0,1-2,.27l-8.42,0c-1.32,0-3.06-.35-3.1-1.47" transform="translate(-711.22 -459.22)"/><path class="cls-6" d="M770.86,608.48c-.27-16.43-.82-32.85-.73-49.28,0-7.88.24-15.76.69-23.63.43-7.45,1.43-14.87,1.82-22.32.14-2.84-.19-5.82.37-8.62.73-3.66,6-2.57,8.77-2.54,2.4,0,4.26.2,4.33,3.32.08,4-.52,8.12-.72,12.13-.8,16.11-.84,32.24-.76,48.36,0,9.22.12,18.43.13,27.65q0,3.47,0,6.91c0,1.95.48,4.73-.21,6.59-1,2.54-5.63,1.68-7.64,1.67-1.26,0-5.89.66-6.36-1.11a.5.5,0,0,0-1,.26c.62,2.34,4.15,1.84,5.93,1.85,2.14,0,4.3.1,6.43,0a3.62,3.62,0,0,0,3-1.14,4.78,4.78,0,0,0,.81-2.6c.2-2.31,0-4.69.06-7q0-7.15,0-14.32c-.09-19.08-.35-38.18.26-57.26.16-4.93.37-9.86.66-14.79.13-2.18.36-4.37.44-6.55a5.58,5.58,0,0,0-.67-3.38c-.86-1.29-2.14-1.51-3.57-1.57-2.62-.11-6.41-.68-8.9.36-1.83.76-2,3-2.14,4.72-.28,3.43-.11,6.89-.41,10.33-.78,9.14-1.63,18.24-2,27.42-.78,21.51.06,43,.42,64.54a.5.5,0,0,0,1,0Z" transform="translate(-711.22 -459.22)"/><path class="cls-23" d="M762.45,609.9c-.27-29.95-1.05-60,.58-89.85.32-5.81.51-8.93.49-14.82,0-1.23.12-4.54.67-5.41s2.17-.78,3-.76c2.91.07,3.29-.15,3.92.94s.58,2.85.52,4.37c-1.34,34.06-.58,68.21-.75,102.33,0,1.4-.12,3.07-.91,3.71a1.69,1.69,0,0,1-1.14.27l-4.78,0a1.6,1.6,0,0,1-1.76-1.52" transform="translate(-711.22 -459.22)"/><path class="cls-6" d="M763,609.9c-.29-31.15-.85-62.26.77-93.38.15-2.85.27-5.7.29-8.55,0-2.2-.85-7.88,2.15-8.43a9.57,9.57,0,0,1,3.46.07c1.69.54,1.54,2.45,1.52,4,0,4.22-.3,8.45-.41,12.68-.41,15.56-.46,31.12-.43,46.69q0,12.91.08,25.84,0,6.47,0,12.92c0,2,.55,5.07-.16,7s-1.9,1.47-3.32,1.46c-1.11,0-3.81.51-4.14-1.18-.13-.63-1.09-.36-1,.27.54,2.7,4,1.92,6.06,1.92,2.67,0,3.35-1.12,3.5-3.76.5-9.13,0-18.41,0-27.55-.06-18.39-.16-36.77.18-55.15q.12-7,.34-13.9c.07-2.15.17-4.3.23-6.45a9.3,9.3,0,0,0-.46-4.32c-.82-1.73-2.37-1.46-4.08-1.48-1.9,0-3.64-.07-4.17,2-.66,2.61-.36,5.54-.4,8.2,0,3.75-.27,7.5-.47,11.24-.49,9.2-.77,18.4-.9,27.6-.3,20.75.13,41.5.32,62.25a.5.5,0,0,0,1,0Z" transform="translate(-711.22 -459.22)"/><path class="cls-24" d="M797.93,610.15c-.3-27.22-1.16-54.53.65-81.66.35-5.28.56-8.11.54-13.47,0-1.11.13-4.13.75-4.92s2.4-.71,3.3-.69c3.24.07,3.67-.14,4.36.86s.66,2.59.59,4c-1.49,31-.65,62-.83,93,0,1.27-.14,2.79-1,3.37a2.25,2.25,0,0,1-1.27.25l-5.31,0c-.83,0-1.93-.33-2-1.39" transform="translate(-711.22 -459.22)"/><path class="cls-6" d="M798.43,610.15c-.32-28.65-.82-57.19.92-85.81q.25-4.2.27-8.4c0-1,0-1.94.08-2.91.2-2.15.74-3.08,3-3.13a12.18,12.18,0,0,1,3.67.1c1.41.48,1.32,2.29,1.32,3.54,0,3.52-.31,7.06-.43,10.58-.49,14.51-.54,29-.5,43.53,0,8.25.07,16.5.09,24.75q0,5.94,0,11.88c0,2.12.63,5.09-1.8,6.09-1,.42-6.46.29-6.78-1-.15-.62-1.12-.36-1,.27.55,2.26,3.29,1.75,5.09,1.76,2.21,0,4.56.54,5.25-2a18.25,18.25,0,0,0,.21-4.55q0-3.46,0-6.93c0-4.29,0-8.58,0-12.87-.07-17.32-.2-34.64.18-52q.15-6.43.39-12.85c.11-2.87,1.1-6.88-.09-9.6-.62-1.39-1.62-1.59-3-1.64-1.69-.05-4.79-.61-5.91,1.07s-.73,4.56-.73,6.38c0,3.31-.18,6.62-.4,9.93-.56,8.58-1,17.16-1.12,25.75-.38,19.37.11,38.73.33,58.09a.5.5,0,0,0,1,0Z" transform="translate(-711.22 -459.22)"/></svg>