<svg id="Calque_1" data-name="Calque 1" xmlns="http://www.w3.org/2000/svg" viewBox="0 0 90.6 204.63"><defs><style>.cls-1{fill:#be1622;}.cls-2{fill:#1d1d1b;}.cls-3{fill:#fff;}.cls-4{opacity:0.44;}.cls-5{fill:#6a0f08;}</style></defs><title>fusee</title><path class="cls-1" d="M854.78,593.46c5.06,2.91,6.57,9.37,7.59,15.11,1.35,7.53,2.7,15.21,1.55,22.77-.5,3.26-1.52,6.57-3.75,9a28.85,28.85,0,0,1-6.36.85c-6.87.06-8-4.72-8.59-9A81.42,81.42,0,0,1,847.4,600a11.2,11.2,0,0,1,2.45-5.09c1.33-1.36,3.59-2,5.18-.94l-4.35-6.34" transform="translate(-808.27 -438.17)"/><path class="cls-1" d="M854.53,593.89c3.79,2.36,5.46,6.45,6.49,10.62A110.61,110.61,0,0,1,863.37,618c.62,5.14.86,10.54-.41,15.61-.48,1.89-1.4,5.29-3.21,6.29-1.43.78-3.91.71-5.49.75-4.07.1-7-1.66-8-5.64A51.89,51.89,0,0,1,845,622.49c0-4.46,1.1-32.52,9.75-28.09.42.21,1-.24.69-.68l-4.35-6.34c-.36-.53-1.22,0-.86.5l4.34,6.34.69-.68c-8.19-4.19-9.9,12.38-10.5,16.78a83.11,83.11,0,0,0-.68,15c.17,3.58.28,7.56,1.48,11a7.52,7.52,0,0,0,4.73,4.94,13.17,13.17,0,0,0,5.26.4c1.32-.1,3.36-.12,4.56-.74,2.57-1.33,3.67-6,4.14-8.58a49.66,49.66,0,0,0,0-15.2,88.18,88.18,0,0,0-2.84-14.93c-1.14-3.69-3-7-6.37-9.13-.55-.34-1,.52-.51.86Z" transform="translate(-808.27 -438.17)"/><path class="cls-2" d="M857.24,594.61c3.56,8.85,7,17.61,7.22,27.29a33.88,33.88,0,0,1-2.78,14.91c-.66,1.41-1.61,3.54-3.09,4-1.65.45-3.75,0-5.42-.14-2.28-.25-5,0-6.44-2.15-1.25-1.79-1.66-4.72-1.88-6.84a91.22,91.22,0,0,1,0-14.41,85.05,85.05,0,0,1,2-14.73c.55-2.37,1.05-5.22,2.3-7.33,1.69-2.85,5.06-2.3,7.77-1.72.62.13.89-.84.26-1-2.85-.6-6.37-1.11-8.42,1.48a12.51,12.51,0,0,0-1.78,4.2,69.6,69.6,0,0,0-1.78,7.28c-1.63,8.68-2.45,18.37-1.29,27.15.36,2.8,1,6.88,3.92,8.18s7,1.22,9.9,1a4.57,4.57,0,0,0,1.88-.27c1.49-.83,2.63-3.61,3.24-5a34.42,34.42,0,0,0,2.52-12c.45-10.69-3.31-20.43-7.22-30.16-.24-.59-1.21-.34-1,.26Z" transform="translate(-808.27 -438.17)"/><path class="cls-1" d="M862.51,559.27a30.64,30.64,0,0,0,4.34,5.84c1.71,1.8,3.64,3.39,5.46,5.09,10.68,9.93,17.52,23.37,22.24,37.18a71.61,71.61,0,0,1,2.55,9,46.54,46.54,0,0,1,.61,14.42,17.85,17.85,0,0,1-1.92,6.86,8.16,8.16,0,0,1-5.53,4.2c-4.26.69-8.07-3.2-9.28-7.34s-.64-8.57-.91-12.87a33.86,33.86,0,0,0-16.92-27A6.16,6.16,0,0,1,861,593a5,5,0,0,1-.54-1,32.71,32.71,0,0,1-1.7-16,90.94,90.94,0,0,1,3.78-15.83l-1.1-1" transform="translate(-808.27 -438.17)"/><path class="cls-1" d="M862.08,559.52c3.1,5.26,7.74,8.75,11.94,13a73.52,73.52,0,0,1,10.8,14.32,107.57,107.57,0,0,1,7.85,16.73c2.35,6.28,4.42,12.71,4.78,19.45.29,5.69.38,16.18-6.62,18.13-3.42.95-6.59-1.47-8.25-4.28-1.9-3.2-1.91-7-1.92-10.65,0-10.35-3-19.84-10.67-27.16a37.58,37.58,0,0,0-6.59-4.9c-3.51-2.16-4.07-7.14-4.32-11-.52-7.86,1.71-15.51,4-23a.49.49,0,0,0-.13-.49l-1.1-1c-.47-.44-1.18.27-.71.71,1.4,1.31.06,3.56-.39,5.15-.53,1.85-1,3.7-1.43,5.58a48.81,48.81,0,0,0-1.3,11.23,31.07,31.07,0,0,0,1.41,9c1,3,2.19,3.79,4.76,5.39a33.5,33.5,0,0,1,12.33,14,32.86,32.86,0,0,1,2.65,8.27c.71,3.94.32,7.9.6,11.87.33,4.9,2.34,10.69,7.63,12.18,5,1.41,8.83-2.93,10.09-7.31,3.75-13-1.71-27.52-7-39.27a88.14,88.14,0,0,0-11.08-18.46c-5.09-6.4-12.23-11-16.41-18.08a.5.5,0,0,0-.86.5Z" transform="translate(-808.27 -438.17)"/><path class="cls-1" d="M844.72,559.18a93.28,93.28,0,0,1,3.75,29.61,6.28,6.28,0,0,1-.47,2.59,7.15,7.15,0,0,1-2.93,2.58,40.85,40.85,0,0,0-17.17,21.55,16.72,16.72,0,0,0-1.07,5.79,40.75,40.75,0,0,0,.63,4.51,21.2,21.2,0,0,1-.05,6.11,13.48,13.48,0,0,1-3.72,7.82,7.82,7.82,0,0,1-3,1.81c-3.32,1-7-.87-9-3.72-2.54-3.68-2.7-8.48-2.4-12.94a83.41,83.41,0,0,1,16.28-44.1c2-2.74,4.26-5.35,6.51-7.92q6.09-6.95,12.58-13.51" transform="translate(-808.27 -438.17)"/><path class="cls-1" d="M844.24,559.31a94.89,94.89,0,0,1,3.58,20.12,73.11,73.11,0,0,1,.15,9.36c-.23,3.85-3.78,5-6.47,7a41.4,41.4,0,0,0-10.43,11.67c-2.54,4.25-5.15,9.65-4.68,14.73.28,3,1,5.79.64,8.84-.41,3.51-1.82,7.4-5,9.33-2.84,1.73-6.25.85-8.59-1.32-2.58-2.4-3.47-6-3.69-9.38-.78-11.94,3.11-25,8.31-35.58,6.46-13.19,16.75-24,27-34.38.45-.46-.25-1.17-.7-.71-10.07,10.21-20.27,20.9-26.76,33.83a84.39,84.39,0,0,0-6.72,18.47c-1.44,6.12-2.62,12.86-2,19.16.44,4.84,2.68,10,7.73,11.52s9-2.39,10.57-6.81a20.4,20.4,0,0,0,.84-9.37,40.42,40.42,0,0,1-.63-4.51,18.06,18.06,0,0,1,1.31-6.4,40.54,40.54,0,0,1,11.15-16.4,39.77,39.77,0,0,1,4.87-3.7,16,16,0,0,0,2.93-2c2.22-2.31,1.48-6.69,1.41-9.6a96.62,96.62,0,0,0-3.79-24.12.5.5,0,0,0-1,.26Z" transform="translate(-808.27 -438.17)"/><path class="cls-3" d="M847.62,595c4.18-17.05-3-34.55-5.68-51.9a147.75,147.75,0,0,1-1.52-19.72,261.49,261.49,0,0,1,12.36-84.68h1.77A261.72,261.72,0,0,1,867,523.33a146.08,146.08,0,0,1-1.5,19.72c-2.67,17.35-9.8,34.87-5.59,51.91Z" transform="translate(-808.27 -438.17)"/><path class="cls-2" d="M848.1,595.1c4.73-20.24-5-40.4-6.64-60.45-1.74-21-.12-42.61,3.67-63.34q1.39-7.67,3.26-15.24c1.27-5.19,3.09-10.27,4.3-15.47.24-1,0-1.4,1-1.43s.71.41,1,1.43c.66,2.59,1.57,5.13,2.29,7.7q2.1,7.5,3.74,15.13a259,259,0,0,1,5.77,63.67c-.42,12-2.81,23.37-5.36,35-2.37,10.85-4.2,22-1.62,33l.49-.64H847.62a.5.5,0,0,0,0,1H860a.51.51,0,0,0,.48-.63c-2.47-10.5-.83-21.14,1.42-31.52,2.12-9.84,4.49-19.55,5.24-29.62a246.22,246.22,0,0,0-3.62-61.26A265.09,265.09,0,0,0,855,438.54a.53.53,0,0,0-.49-.37h-1.77a.5.5,0,0,0-.48.37,263.89,263.89,0,0,0-11.7,60.27,245.14,245.14,0,0,0-.45,31.14c.52,10.11,2.47,19.85,4.7,29.71,2.62,11.55,5,23.42,2.28,35.18C847,595.46,848,595.73,848.1,595.1Z" transform="translate(-808.27 -438.17)"/><path class="cls-1" d="M863.47,541A33.08,33.08,0,0,1,862,557.28a.81.81,0,0,1-1,.67,45.35,45.35,0,0,0-7.73.06c1.63-5.77.1-11.91,0-17.91a.85.85,0,0,1,.09-.47c.15-.2.44-.2.69-.19l8.4.43a2.14,2.14,0,0,1,1.15.28.74.74,0,0,1,.2,1" transform="translate(-808.27 -438.17)"/><path class="cls-1" d="M863,541.14a33.61,33.61,0,0,1-.33,12,9.9,9.9,0,0,1-.56,2.22c-.72,1.46-1.47,1.75-3.06,1.94-1.88.23-3.88,0-5.79.17l.48.64c1.11-4.33.72-8.68.34-13.08a30.54,30.54,0,0,1-.24-3.16,3.5,3.5,0,0,1,.21-2l1.87.1c.73,0,7.62.08,7.4,1-.15.62.81.89,1,.26.44-1.86-1.34-1.91-2.76-2-1.87-.11-3.73-.19-5.6-.28-.76,0-2.12-.41-2.81.16-.47.4-.33,1.29-.32,1.81.05,1.81.25,3.62.41,5.42.33,3.86.55,7.65-.42,11.45a.5.5,0,0,0,.48.63c2.59-.21,5.24.16,7.79-.07,1.64-.15,1.76-1.81,2.14-3.22a34.36,34.36,0,0,0,.77-14.34c-.09-.64-1.06-.37-1,.26Z" transform="translate(-808.27 -438.17)"/><path class="cls-1" d="M866.69,523.05l-2.09-.78.07,6a55.65,55.65,0,0,1-.71,12,1.25,1.25,0,0,1,1.1-.91.89.89,0,0,0,.49-.11.58.58,0,0,0,.14-.4l1.36-15.33" transform="translate(-808.27 -438.17)"/><path class="cls-1" d="M866.82,522.57l-2.09-.78a.5.5,0,0,0-.63.48c.07,5.94.48,12-.62,17.86-.1.52.64.92.91.39.39-.75,1.19-.61,1.64-1.15.71-.84.4-3.28.5-4.37l1-11.49c.06-.64-.94-.64-1,0l-.93,10.54c-.11,1.18.14,3.88-.69,4.81-.46.52-1,.34-1.4,1.15l.91.39c1.13-6,.73-12.09.66-18.13l-.64.49,2.1.77c.6.23.86-.74.26-1Z" transform="translate(-808.27 -438.17)"/><path class="cls-1" d="M852.87,523.31q.18,8.25.76,16.5l-9.21.21a1.12,1.12,0,0,0-.7.16,1.17,1.17,0,0,0-.29,1l.15,8.23a33.73,33.73,0,0,1-1.12-9.43.74.74,0,0,0,1-.3,2.12,2.12,0,0,0,.17-1.2L842.85,523a.59.59,0,0,1,.71-.76l9.62.19a.76.76,0,0,1-.29.69" transform="translate(-808.27 -438.17)"/><path class="cls-1" d="M852.37,523.31c.09,3.56.21,7.12.4,10.68.06,1,.77,4.34.12,5.09s-3.76.33-4.79.35c-1.37,0-4.48-.64-5.12,1.06-.35.94,0,2.44,0,3.42l.1,5.49,1-.14A36.39,36.39,0,0,1,843,540l-.63.48a1.39,1.39,0,0,0,1.82-1.23,13.65,13.65,0,0,0-.13-3.66l-.23-4.36-.23-4.37-.1-1.94c-.06-1-.45-1.66.48-2.06,1.15-.5,3.21-.06,4.43,0l4.81.09-.49-.63-.24.57c-.39.51.48,1,.87.51a1.13,1.13,0,0,0,.34-.81.52.52,0,0,0-.48-.64c-2.89,0-5.77-.13-8.66-.17-1,0-1.78-.13-2.16.9-.3.82.1,2.38.15,3.25l.23,4.37c0,.9.72,9.38-.14,9.26a.51.51,0,0,0-.64.48,37.61,37.61,0,0,0,1.14,9.56.5.5,0,0,0,1-.13l-.08-4.12,0-2.28c0-1.09-.31-1.56.67-2.17,1.14-.71,3.1-.39,4.39-.42l4.61-.1a.51.51,0,0,0,.5-.5q-.57-8.25-.76-16.5a.5.5,0,0,0-1,0Z" transform="translate(-808.27 -438.17)"/><path class="cls-1" d="M864.33,504.58q.39,9.3.69,18.62c-1.37-1.29-3.45-1.44-5.32-1.22s-3.73.73-5.6.49a1,1,0,0,1-.47-.15c-.31-.22-.31-.66-.29-1a109.78,109.78,0,0,0-.15-16.22c0-.37,0-.83.29-1a1,1,0,0,1,.62-.09l10,.79" transform="translate(-808.27 -438.17)"/><path class="cls-1" d="M863.83,504.58q.39,9.31.69,18.62l.85-.36a7.42,7.42,0,0,0-5.74-1.35c-1.29.14-5,1.4-5.79-.21a12.66,12.66,0,0,1,.15-2.86c0-.95.06-1.91.07-2.86q0-2.62-.06-5.25c0-.8-.07-1.59-.11-2.39,0-.55-.49-2.34-.2-2.86.67-1.22,3.65-.35,5-.25l5.47.43c.64.05.64-.95,0-1l-6.38-.5c-1-.08-3.66-.79-4.51-.14s-.51,1.57-.47,2.42c.12,2.38.28,4.76.3,7.15q0,3.35-.14,6.68c0,.92-.38,2.15.4,2.86s2.76.29,3.65.18c2.61-.34,5.39-1.16,7.7.66a.51.51,0,0,0,.85-.35q-.3-9.32-.69-18.62c0-.64-1-.64-1,0Z" transform="translate(-808.27 -438.17)"/><path class="cls-1" d="M854.34,439.42,859,457c2.57,9.8,5.16,19.7,5.48,29.82l-9.89.07a1,1,0,0,1-.79-.22,1,1,0,0,1-.19-.77l.26-17.06a29,29,0,0,1-8.22,0,211,211,0,0,1,7.95-29.94" transform="translate(-808.27 -438.17)"/><path class="cls-1" d="M853.86,439.55c3.14,11.95,6.82,23.9,8.9,36.08.29,1.67.53,3.35.72,5,.16,1.31.68,3.43.4,4.72-.32,1.51-2.53.94-3.89.95a44,44,0,0,1-4.45,0c-1.21-.12-1.21.08-1.47-.95a10.47,10.47,0,0,1,0-2.37l.07-4.74.15-9.48c0-.25-.23-.54-.5-.5a32.31,32.31,0,0,1-8.22,0l.48.64A218.39,218.39,0,0,1,854,439.05c.21-.61-.75-.87-1-.26a216.46,216.46,0,0,0-8,29.94.5.5,0,0,0,.48.63,30.51,30.51,0,0,0,5.49.23c.73,0,1.66-.43,2.21.17.28.3,0,2,0,2.37L853.11,483c0,1.39-.68,3.57.88,4.28,1.1.5,3.29,0,4.52,0l5.93,0a.5.5,0,0,0,.5-.5c-.63-16.15-6-32-10.12-47.51a.5.5,0,0,0-1,.26Z" transform="translate(-808.27 -438.17)"/><path class="cls-1" d="M853.35,486.7l.17,17.78a71,71,0,0,0-11.48.15l-.26,16.53c0,.73.64,1.76,1.12,1.22a1.4,1.4,0,0,1-1.93-.53,4.1,4.1,0,0,1-.41-2.2l0-13a1.92,1.92,0,0,1,.47-1.54c.32-.26.81-.29,1.1-.59a1.71,1.71,0,0,0,.32-1.11l.55-16.87a23.2,23.2,0,0,0,10.22-.37" transform="translate(-808.27 -438.17)"/><path class="cls-1" d="M852.85,486.7,853,501c0,.93.4,2.29-.42,2.9-.45.33-2.73-.09-3.35-.1-2.4,0-4.79.1-7.18.31a.51.51,0,0,0-.5.5l-.22,13.62c0,1-.58,5.46,1.72,4.61l-.27-1c-2.23.93-1.71-4.21-1.71-5v-4.66c0-1.53-.14-3.14,0-4.66a1.72,1.72,0,0,1,.39-1.63,1.33,1.33,0,0,1,.93-1c.1-.15.2-.26.31-.44a5.41,5.41,0,0,0,.3-2.59l.17-5,.34-10.42-.63.49a25.93,25.93,0,0,0,10.49-.37.5.5,0,0,0-.27-1,24.54,24.54,0,0,1-10,.37.52.52,0,0,0-.64.48l-.46,13.89a11.8,11.8,0,0,1-.09,3c-.55,1.59-.69.45-1.27,1.35a4.2,4.2,0,0,0-.62,2.82c0,4-.17,8.1,0,12.12.06,1.7.75,4.14,3,3.21.57-.24.34-1.19-.27-1-.37.13-.4-6.69-.38-7.54l.1-6.81c0-.87-.25-1.89.51-2.5.56-.46,3.08-.19,3.82-.21,2.24-.06,4.47,0,6.7.14a.5.5,0,0,0,.5-.5l-.17-17.78a.5.5,0,0,0-1,0Z" transform="translate(-808.27 -438.17)"/><path class="cls-1" d="M864.28,487.1l1,15.82a2.73,2.73,0,0,1-.28,1.77,2.05,2.05,0,0,1,1.72-.25,32.77,32.77,0,0,1-1-5.26c-.12-1.45-.05-2.92-.07-4.38a30.94,30.94,0,0,0-1.2-7.88" transform="translate(-808.27 -438.17)"/><path class="cls-1" d="M863.78,487.1l.57,8.9.25,4c.09,1.34.54,3.18,0,4.48a.5.5,0,0,0,.68.68l1.34-.2a.5.5,0,0,0,.61-.61c-1.44-5.81-.7-11.74-2.28-17.52a.5.5,0,0,0-1,.27c1.58,5.78.84,11.7,2.28,17.51l.61-.61a3.08,3.08,0,0,0-2.1.3l.68.68c.94-2.18.15-5.16,0-7.46l-.66-10.38c0-.64-1-.65-1,0Z" transform="translate(-808.27 -438.17)"/><g class="cls-4"><path class="cls-5" d="M862.92,559.92a86.88,86.88,0,0,0-4.17,28c0,1.71.15,3.55,1.21,4.9s2.89,1.92,4.4,2.81a18.18,18.18,0,0,1,3,2.36,50.05,50.05,0,0,1,9.2,10.51,24.28,24.28,0,0,1,3.92,13.24l1.52-7.54a4.13,4.13,0,0,0,.12-1.16,3.94,3.94,0,0,0-.58-1.57A73.54,73.54,0,0,0,867,592.83a15.2,15.2,0,0,1-3.47-4,11.79,11.79,0,0,1-1-5.13c-.18-6.52,1.21-13,.86-19.54a8.07,8.07,0,0,0-1.14-4.28" transform="translate(-808.27 -438.17)"/><path class="cls-5" d="M862.44,559.78A89.42,89.42,0,0,0,858.66,578a83.41,83.41,0,0,0-.41,9.48c0,2,.07,4.13,1.36,5.74,1.56,1.95,4.35,2.58,6.26,4.15a56.47,56.47,0,0,1,6.13,6c4.61,5.16,8,11.39,8,18.46a.51.51,0,0,0,1,.13c.54-2.69,1.65-5.79,1.64-8.54,0-2.24-2.08-4.69-3.24-6.5a74,74,0,0,0-10.49-12.93c-2.25-2.21-4.78-4-5.58-7.26s-.28-7.07,0-10.39c.25-3.09.58-6.19.61-9.3,0-2.51.06-5.11-1.26-7.32a.5.5,0,0,0-.86.5c1.56,2.63,1.19,6.21,1.05,9.15s-.49,5.88-.69,8.83c-.33,5-.66,10,3.12,13.73a99.16,99.16,0,0,1,11.11,12.33,45.24,45.24,0,0,1,4.32,6.81c1.54,3.26,0,7.23-.69,10.62l1,.14a26.12,26.12,0,0,0-5-15,43.74,43.74,0,0,0-10.79-11.17c-1-.71-2.25-1.15-3.33-1.81-1.94-1.18-2.52-3-2.66-5.14a63.06,63.06,0,0,1,.23-8.8,87.15,87.15,0,0,1,3.91-19.85c.19-.62-.77-.88-1-.27Z" transform="translate(-808.27 -438.17)"/></g><g class="cls-4"><path class="cls-5" d="M896.74,617.58a25.12,25.12,0,0,1-5.33,13.7,14,14,0,0,1-4.43,3.88,7.46,7.46,0,0,1-5.75.56,7.79,7.79,0,0,0,12.72,3.9,12.29,12.29,0,0,0,3.35-6.19,28.94,28.94,0,0,0-.16-15.45" transform="translate(-808.27 -438.17)"/><path class="cls-5" d="M896.24,617.58c-.61,6.86-5.8,20.16-14.87,17.66a.5.5,0,0,0-.62.61c1.77,5.76,8.85,8.31,13.55,4.12,2.76-2.45,3.73-6.52,4.2-10a30.19,30.19,0,0,0-.88-12.11.5.5,0,0,0-1,.26c1.56,5.73,1.76,12.59-.85,18.08-3,6.32-11.92,6.48-14.1-.6l-.61.61c9.82,2.71,15.47-11.12,16.14-18.62.06-.64-.94-.63-1,0Z" transform="translate(-808.27 -438.17)"/></g><g class="cls-4"><path class="cls-5" d="M848.52,595.65c4.8,2.39,7.06,7.94,8.34,13.16a39.09,39.09,0,0,1,1.27,13,20.37,20.37,0,0,1-4.93,11.86c-1.93,2.1-4.63,3.73-7.47,3.52,2,2.93,3.45,3,8.08,4.06,2.56.56,6-.37,7.46-2.55,4.06-6.15,4-14.39,3-21.69s-3.68-14.24-6.36-21.11a2.27,2.27,0,0,0-.67-1.05,2.15,2.15,0,0,0-1.44-.2c-2.81.31-6.19.87-8-1.3" transform="translate(-808.27 -438.17)"/><path class="cls-5" d="M848.27,596.08c6.76,3.65,8.77,13.06,9.36,20.09.63,7.46-2.1,20.64-11.9,20.47a.5.5,0,0,0-.43.75,8.16,8.16,0,0,0,4.5,3.39c2.53.77,5.37,1.48,8,.75,5.9-1.64,7.22-9.69,7.49-14.91.41-7.89-1.35-15.73-4-23.13-.71-2-1.48-4-2.26-6-.37-1-.66-2.46-1.57-3.07s-2.35-.18-3.36-.08c-2.14.2-4.36.31-6-1.34-.45-.46-1.16.25-.71.71a6.44,6.44,0,0,0,5,1.74c.69,0,1.37-.08,2.05-.15,1.22-.12,1.21-.25,2.31.72,1.48,1.32,2,3.34,2.63,5.18a72.13,72.13,0,0,1,4.75,19.39c.46,5.81.32,13-3.31,17.85-3.25,4.39-11.85,2.47-14.68-1.5l-.43.75c9.55.16,13.25-11.92,13-19.61s-2.4-18.74-10-22.82c-.57-.3-1.07.56-.5.87Z" transform="translate(-808.27 -438.17)"/></g><g class="cls-4"><path class="cls-5" d="M848.92,582.38c-1.86,5.28-6.37,9.11-10.76,12.58s-9,7.08-11.29,12.19a17,17,0,0,0,0,13.57,36.06,36.06,0,0,1,16.59-25.79,13.68,13.68,0,0,0,4.26-3.29c1.3-1.81,1.44-4.19,1.53-6.41" transform="translate(-808.27 -438.17)"/><path class="cls-5" d="M848.43,582.25c-3.18,8.35-11.73,12.29-17.61,18.41-5.31,5.53-7.45,12.93-4.47,20.2.16.38.89.55,1,0a36,36,0,0,1,10.25-20.68c2.69-2.66,5.9-4.28,8.83-6.57,2.72-2.14,3.16-5.09,3.31-8.38,0-.65-1-.65-1,0-.1,2.33-.24,4.81-1.87,6.65-1.33,1.49-3.31,2.34-4.94,3.44a36.22,36.22,0,0,0-7.57,6.95,36.8,36.8,0,0,0-8,18.32h1A16.77,16.77,0,0,1,827,608c1.58-4.06,4.76-7.19,8-9.94,5.47-4.6,11.68-8.63,14.33-15.59.23-.6-.74-.86-1-.26Z" transform="translate(-808.27 -438.17)"/></g><path class="cls-2" d="M855.59,589.52a22.27,22.27,0,0,0,7.48,6.53,33.47,33.47,0,0,1,8.76,7.17,32.34,32.34,0,0,1,7.67,21.19.5.5,0,0,0,1,.13L883,613l-1-.27c-1.31,8.61-6.22,18.47.1,26.26,4.85,6,12.86,4.13,15.59-2.84,1.82-4.66,1.11-10.09.49-14.92a88.1,88.1,0,0,0-2.81-13.53,91,91,0,0,0-12-25.56,88.6,88.6,0,0,0-9.71-12c-4-4.14-9-7.61-11.61-12.85-.29-.57-1.16-.07-.87.51,1.72,3.4,4.38,6,7.14,8.59a99,99,0,0,1,8.68,8.94,89.45,89.45,0,0,1,13.31,21.38,88.53,88.53,0,0,1,6.87,24.5c.57,4.47,1.28,9.55-.19,13.9s-5.79,8.11-10.55,6c-4.45-1.94-6.63-7.21-6.56-11.8.08-5.58,2.25-10.9,3.08-16.37.1-.62-.82-.91-1-.27l-2.5,11.57,1,.14a33.29,33.29,0,0,0-6.48-20,32.43,32.43,0,0,0-7.1-7.08c-3.74-2.71-7.73-4.36-10.46-8.29-.37-.53-1.24,0-.87.5Z" transform="translate(-808.27 -438.17)"/><path class="cls-2" d="M850.61,589c-2.73,3.94-6.72,5.6-10.45,8.31a32.48,32.48,0,0,0-7.1,7.09,33.27,33.27,0,0,0-6.44,20l1-.13-2.52-11.57c-.14-.64-1.06-.35-1,.27,1.3,8.47,6.59,19.07-.71,26.28a7.4,7.4,0,0,1-11.55-.81c-3-4-2.71-9.31-2.3-14a89.51,89.51,0,0,1,18.23-46.34,88.24,88.24,0,0,1,9.43-10.37c3.23-3,6.57-5.94,8.59-10,.29-.58-.57-1.08-.86-.51-2.29,4.56-6.32,7.65-9.89,11.15a87.43,87.43,0,0,0-9.31,10.75,90.85,90.85,0,0,0-13,25.08,89.8,89.8,0,0,0-3.52,14.47c-.68,4.45-1.35,9.19-.76,13.68.9,6.86,7.55,13.67,14.38,8.65,9.39-6.9,3.6-19.24,2.2-28.33l-1,.27,2.52,11.57a.5.5,0,0,0,1-.14,32.34,32.34,0,0,1,7.63-21.2,33.59,33.59,0,0,1,8.75-7.17,22.2,22.2,0,0,0,7.47-6.55c.37-.53-.5-1-.86-.5Z" transform="translate(-808.27 -438.17)"/><path class="cls-1" d="M861.92,557.69c-2.33,12.1-4.67,24.53-2.45,36.65l-11.65.84c1.88-4.61,1.54-9.79,1-14.75q-1.1-11.16-3-22.23a101.56,101.56,0,0,0,15.89,0l-.32-1.15" transform="translate(-808.27 -438.17)"/><path class="cls-1" d="M861.43,557.56c-2.34,12.17-4.58,24.54-2.45,36.92l.49-.64-11.65.84.48.63c2.16-5.72,1.41-11.85.77-17.79q-1.05-9.76-2.7-19.45l-.48.63a108,108,0,0,0,15.89,0,.51.51,0,0,0,.49-.63l-.33-1.15a.5.5,0,0,0-1,.27l.33,1.14.48-.63a108,108,0,0,1-15.89,0c-.35,0-.53.34-.48.63,1.07,6.37,2,12.77,2.66,19.19.63,5.85,1.4,11.89-.74,17.53a.5.5,0,0,0,.49.63l11.65-.84a.51.51,0,0,0,.48-.63c-2.11-12.18.14-24.41,2.45-36.39.12-.63-.84-.9-1-.26Z" transform="translate(-808.27 -438.17)"/><path class="cls-2" d="M848.1,595.1c4.73-20.24-5-40.4-6.64-60.45-1.74-21-.12-42.61,3.67-63.34q1.39-7.67,3.26-15.24c1.27-5.19,3.09-10.27,4.3-15.47.24-1,0-1.4,1-1.43s.71.41,1,1.43c.66,2.59,1.57,5.13,2.29,7.7q2.1,7.5,3.74,15.13a259,259,0,0,1,5.77,63.67c-.42,12-2.81,23.37-5.36,35-2.37,10.85-4.2,22-1.62,33l.49-.64H847.62a.5.5,0,0,0,0,1H860a.51.51,0,0,0,.48-.63c-2.47-10.5-.83-21.14,1.42-31.52,2.12-9.84,4.49-19.55,5.24-29.62a246.22,246.22,0,0,0-3.62-61.26A265.09,265.09,0,0,0,855,438.54a.53.53,0,0,0-.49-.37h-1.77a.5.5,0,0,0-.48.37,263.89,263.89,0,0,0-11.7,60.27,245.14,245.14,0,0,0-.45,31.14c.52,10.11,2.47,19.85,4.7,29.71,2.62,11.55,5,23.42,2.28,35.18C847,595.46,848,595.73,848.1,595.1Z" transform="translate(-808.27 -438.17)"/></svg>