<svg id="Calque_1" data-name="Calque 1" xmlns="http://www.w3.org/2000/svg" viewBox="0 0 280.28 381.14"><defs><style>.cls-1{fill:#634e42;}.cls-2{fill:#1d1d1b;}.cls-3{fill:#7b6a58;}.cls-4{fill:#094f36;}.cls-5{fill:#126848;}.cls-6{fill:#f1d682;}.cls-7{opacity:0.37;}.cls-8{fill:#063;}.cls-9{opacity:0.38;}.cls-10{fill:#a9985e;}.cls-11{fill:#ededed;}</style></defs><title>lampe_eteinte</title><path class="cls-1" d="M852.43,1080c-3.38-6.84-3.89-15.71-3.38-18.5,3.11-16.67,26.52-21.67,43.18-25.39,49.17-11,99.7-7.55,150.08-6.77,27.11.43,70.58,16.86,78.37,24.38,5.47,5.28,6.34,17.79,1,26.28" transform="translate(-848.4 -699.37)"/><path class="cls-2" d="M852.86,1079.75c-4.09-8.62-5.53-19.64,1.21-27.26,6-6.79,15.37-10,23.85-12.4,24.18-6.82,49.4-9.8,74.45-10.86,27.39-1.16,54.8-.08,82.19.47a157.56,157.56,0,0,1,30.55,3.13,224.49,224.49,0,0,1,28.62,8.3c8,2.9,16.4,6,23.64,10.71,9.18,5.91,9.11,19.25,3.92,27.91-.33.55.54,1,.87.5,4.52-7.54,5.76-20.21-1.13-26.89-4.5-4.35-11.29-6.88-16.94-9.26a225.33,225.33,0,0,0-28.71-9.8,150.07,150.07,0,0,0-29.5-5.32c-6.66-.41-13.37-.31-20.05-.47-7.42-.17-14.85-.36-22.28-.51-14.81-.3-29.63-.45-44.45,0-26.69.79-53.37,3.68-79.23,10.53-9.48,2.52-20.33,5.9-26.87,13.68-6.7,8-5.21,19.2-1,28,.28.58,1.14.08.87-.5Z" transform="translate(-848.4 -699.37)"/><path class="cls-3" d="M864,1080c-10.89,0-14.73-22.31-12-26.44,9.37-14.26,26.51-21.67,43.17-25.39,49.17-11,99.7-7.55,150.08-6.77,27.11.43,70.58,16.86,78.37,24.38s6.06,30.88-8.58,34.11" transform="translate(-848.4 -699.37)"/><path class="cls-2" d="M864,1079.46c-8.61-.23-11.77-12.7-12.28-19.53a16.31,16.31,0,0,1,.16-4.68c.48-2.17,2.25-4,3.64-5.63a53.86,53.86,0,0,1,15.24-12.13c11.94-6.57,25.44-9.4,38.75-11.66a372.27,372.27,0,0,1,47.71-4.66c15.45-.59,30.91-.49,46.36-.2,7.75.14,15.5.34,23.25.52,7.31.17,14.68.07,22,.52,11.07.68,22,3.19,32.67,6.24a204.85,204.85,0,0,1,30.16,11,59.18,59.18,0,0,1,10,5.55c3.22,2.35,4.84,5.86,5.57,9.72,1.79,9.56-1.77,22.31-12.35,24.84-.63.15-.36,1.12.26,1,8.77-2.1,13-10.95,13.47-19.33.42-7.36-1.75-14.17-8.12-18.19-8-5-17.23-8.43-26.12-11.52a200.35,200.35,0,0,0-36.22-9.27,137.25,137.25,0,0,0-17.78-1.24c-8.56-.16-17.12-.38-25.68-.58-17.07-.39-34.15-.69-51.23-.23a397.77,397.77,0,0,0-50,4.2c-14.43,2.23-29.23,5-42.26,11.91a56.55,56.55,0,0,0-15.46,11.7c-2.73,3-5.08,5.73-5.16,9.88-.13,7.13,2.34,17.33,8.76,21.42a8.81,8.81,0,0,0,4.59,1.38c.65,0,.64-1,0-1Z" transform="translate(-848.4 -699.37)"/><path class="cls-4" d="M975.52,766a17.39,17.39,0,0,0,12,9.34c-3.9,1.25-8.1-.07-12.19,0-1.41,0-2.8.2-4.2.3a70.32,70.32,0,0,1-7.26,0l-28.45-.91c-6.51-.21-13-.42-19.51-1.22a25.94,25.94,0,0,0-6.58-.31,74.09,74.09,0,0,1,9.58-2.82c3.27-.79,6.53-1.59,9.82-2.31,15.38-3.34,31.29-4.83,46.92-2.92" transform="translate(-848.4 -699.37)"/><path class="cls-4" d="M975.08,766.29a18.33,18.33,0,0,0,12.31,9.58v-1c-3.15.86-6.24.33-9.42.08s-6.05.22-9.11.27c-6.56.12-13.15-.34-19.7-.55s-13.07-.38-19.6-.65c-3.42-.14-6.84-.32-10.25-.64s-6.63-1-10-.68l.14,1a118,118,0,0,1,15.37-4.21c5.41-1.27,10.86-2.37,16.36-3.16a132.9,132.9,0,0,1,34.45-.66c.63.08.63-.92,0-1a133.39,133.39,0,0,0-33.76.56c-5.52.77-11,1.83-16.43,3.09s-11,2.41-16.26,4.41c-.48.19-.47,1,.13,1,3.34-.31,6.67.37,10,.68s6.83.5,10.25.64c6.85.28,13.72.46,20.58.68,6.51.21,13.11.74,19.63.5a67.11,67.11,0,0,1,9.08-.17c3,.28,5.87.61,8.8-.19a.51.51,0,0,0,0-1,17.33,17.33,0,0,1-11.7-9.12c-.3-.57-1.16-.06-.87.51Z" transform="translate(-848.4 -699.37)"/><path class="cls-4" d="M1016.93,764.64a11.16,11.16,0,0,1-5.28,7.43,27,27,0,0,1-8.79,3.2c4.82,1.62,10.12-1.51,15.11-.53a7.73,7.73,0,0,0-4.1.35c1.48.84,3.29.71,5,.6,5.54-.38,11.09-.35,16.63-.32l6.42,0,14.37.08h-3.44l9.68.34a1,1,0,0,0,.57-.09c.32-.19.33-.64.3-1l-.63-7.88a1.15,1.15,0,0,0-.25-.75,1.12,1.12,0,0,0-.72-.24,57.6,57.6,0,0,0-7,.09,200,200,0,0,1-36.52-1.55" transform="translate(-848.4 -699.37)"/><path class="cls-4" d="M1016.45,764.51c-1.27,6.59-7.92,9-13.72,10.28a.5.5,0,0,0,0,1c5.07,1.45,10-1.31,15.1-.53l.14-1a9.32,9.32,0,0,0-4.23.37c-.38.11-.54.72-.12.91,2.85,1.29,6.11.58,9.14.46,3.75-.14,7.5-.14,11.25-.12l22.26.13v-1h-3.44a.5.5,0,0,0,0,1l4.84.17a25.32,25.32,0,0,0,4.84.17c1.72-.29,1.37-1.53,1.25-3.08l-.39-4.93c0-.58.08-1.76-.34-2.3-1-1.32-3.78-.75-5.22-.7-13.27.4-26.3.33-39.5-1.42-.63-.08-.63.92,0,1a203.16,203.16,0,0,0,29.78,1.77c2.58,0,5.16-.14,7.74-.27,1,0,2-.1,3-.11,2.1,0,3.06.33,3.6,2.53a24.55,24.55,0,0,1,.32,3.94l.16,2a2.81,2.81,0,0,1-2.31.53,71.5,71.5,0,0,1-7.74-.27v1h3.44a.5.5,0,0,0,0-1l-20.33-.12c-3.42,0-6.83,0-10.24,0s-8.33,1.22-11.58-.24l-.12.91a8.91,8.91,0,0,1,4-.33c.55.07.69-.89.13-1-5.08-.79-10.1,2-15.11.53v1c6.14-1.38,13.08-4,14.42-11,.12-.63-.84-.89-1-.26Z" transform="translate(-848.4 -699.37)"/><path class="cls-4" d="M1065.33,766.28l1.14,9.51q19.6-1.18,39.07-4c3.86-.57,7.81-1.21,11.16-3.22a2.14,2.14,0,0,0-1.87-.68c-1.64,0-3.27,0-4.9.16-3,.23-34.81-1.28-43.72-2.09" transform="translate(-848.4 -699.37)"/><path class="cls-4" d="M1064.83,766.28l1.14,9.51a.5.5,0,0,0,.5.5q13.72-.84,27.38-2.46c4.23-.51,8.45-1.05,12.65-1.69A30.07,30.07,0,0,0,1117,769a.5.5,0,0,0,.1-.78c-1.9-1.67-5.16-.73-7.48-.66-1.1,0-2.2,0-3.3,0-4.26-.11-8.52-.29-12.78-.49-9.09-.41-18.22-.77-27.28-1.58-.65-.06-.64.94,0,1,8.58.77,17.22,1.12,25.83,1.52,4.24.19,8.49.38,12.73.51,1.35,0,2.71.09,4.07.08,2.11,0,5.88-1.07,7.5.35l.1-.78c-4,2.25-8.51,2.81-13,3.44q-7.95,1.13-16,2c-4.88.52-9.78,1-14.67,1.32l-3.43.25-2,.12a1,1,0,0,1-.71-1.34c-.73-2.28-.63-5.23-.91-7.61-.08-.64-1.08-.64-1,0Z" transform="translate(-848.4 -699.37)"/><path class="cls-5" d="M972.32,699.88c-34.22.45-39.06,4.3-52.57,19.91-10.34,12-13.38,35-11.07,53.54,6.27-3.25,13.27-4.83,20.24-6,21.25-3.46,42.9-3.08,64.42-2.7,41.62.74,83.23,1.48,124.83,2.91-5.87-31-25-55.19-53.2-60.58a218.17,218.17,0,0,0-24.68-3.26q-34-2.15-68-3.86" transform="translate(-848.4 -699.37)"/><path class="cls-5" d="M972.32,699.38c-13.21.19-29-.31-40.37,7.68-4.53,3.18-8.23,7.4-11.84,11.56-5.54,6.37-8.68,14.17-10.51,22.34a95.94,95.94,0,0,0-1.42,32.37.5.5,0,0,0,.75.43c11.93-6,26.27-7.18,39.4-8.09,13.35-.92,26.75-.81,40.12-.59q41.4.69,82.79,1.65,23.48.56,46.93,1.35a.51.51,0,0,0,.49-.63c-3.81-19.69-13.37-38.93-30-50.83-8.2-5.87-17.41-9.08-27.29-10.77-12.87-2.21-25.81-2.93-38.83-3.7q-25.11-1.5-50.24-2.77c-.64,0-.64,1,0,1q21.18,1.08,42.36,2.3c13.33.78,26.73,1.22,40,3.11,10.28,1.47,20.16,3.5,29.2,8.86a65.47,65.47,0,0,1,20.92,20.25,89.87,89.87,0,0,1,12.94,32.81l.48-.63c-28.28-1-56.58-1.62-84.88-2.18q-21-.4-41.91-.77c-13.7-.24-27.41-.43-41.1.42-13.91.86-29.22,2-41.86,8.35l.76.43a97.61,97.61,0,0,1,.64-28.35c1.48-8.49,4.18-17.32,9.68-24.11,6.84-8.45,14.38-15.72,25.26-18.22,9-2.06,18.4-2.14,27.56-2.27a.5.5,0,0,0,0-1Z" transform="translate(-848.4 -699.37)"/><path class="cls-2" d="M952.75,699.83c-15,1.26-28.12,10.59-36.08,23.08-9.57,15-11.42,33.5-9.06,50.79.09.64,1,.37,1-.26-2.29-16.8-.52-34.71,8.55-49.39,7.72-12.49,20.76-22,35.62-23.22.64-.05.65-1.05,0-1Z" transform="translate(-848.4 -699.37)"/><path class="cls-2" d="M952.75,700.83c13.38-.49,26.77-.68,40.15-.15,11.42.44,22.81,1.39,34.2,2.34,7,.57,14,1.14,20.92,1.66a83.07,83.07,0,0,1,22.32,4.62c6.21,2.22,12.59,4.52,18.12,8.17a56.32,56.32,0,0,1,13.4,12.74c8.56,11.15,13.8,24.69,16.55,38.39.12.63,1.09.37,1-.26a97.14,97.14,0,0,0-13.73-34.55,57.56,57.56,0,0,0-26.71-22.24c-6.87-2.79-13.88-5.51-21.19-6.86s-14.71-1.37-22-2c-12.27-1-24.53-2.13-36.82-2.78-15.39-.81-30.78-.69-46.18-.12-.64,0-.64,1,0,1Z" transform="translate(-848.4 -699.37)"/><path class="cls-6" d="M918,737.37a8.69,8.69,0,0,0-6.72,3.17c-.81-1.58-3-1.95-4.67-1.27a10.76,10.76,0,0,0-3.93,3.49l-2.75,3.4-.85,1.05-5.21,6.44a120.08,120.08,0,0,0-10.45,14.28c-2.07,3.49-3.81,7.76-2.23,11.5s6,5.5,10,6.48a79.11,79.11,0,0,0,26.06,2,18.86,18.86,0,0,1,3.6-.13c.75.08,1.49.26,2.23.38a28.74,28.74,0,0,0,4.45.26l15.78.13c6,0,12,.09,17.89-1l-1.2,1a3.26,3.26,0,0,0,2.13,1.84,1.22,1.22,0,0,0-.32,2.18,2,2,0,0,0-1.05,3c-.09-.89-1.72-.29-1.55.59s1.18,1.29,2,1.5a26.56,26.56,0,0,0,9.19.53,4.44,4.44,0,0,0,2.26-.75,1.7,1.7,0,0,0,.52-2.14c-.45-.67-1.74-.55-1.86.25a15.12,15.12,0,0,0,1.74-1.44,3.26,3.26,0,0,0-2.2-1.09,1.83,1.83,0,0,0,1-1.11c.11-.51-.27-1.13-.79-1.09.31.39,1,.07,1.17-.37s.19-1,.43-1.41.82-.76,1.25-1.12c1.87-1.56,1.11-4.83-.83-6.29s-4.54-1.62-7-1.73l-3.33-.15a1.85,1.85,0,0,0-1.29.27,3.68,3.68,0,0,0-.63,1.07c-.85,1.41-2.94,1-4.58.85-2.59-.17-5.08,1-7.67,1.17a22.1,22.1,0,0,1-4.73-.26c-8.54-1.07-17.17-2-25.74-1.17a33.73,33.73,0,0,1-6.1.32c-2.24-.2-4.39-1-6.62-1.32-5.08-.82-10.65.43-15.17-2a4,4,0,0,1-1.46-1.19,3.63,3.63,0,0,1-.54-2c0-2.43,1.54-4.56,3-6.51l11-14.79a6.91,6.91,0,0,1,1.93-2c1.17-.69,2.62-.65,4-.92s2.78-1.12,2.86-2.47a8.61,8.61,0,0,0,4.89,5.59,4.74,4.74,0,0,0,2.42.43c2.5-.34,3.67-3.27,4-5.78a29.21,29.21,0,0,0,.19-6.27,8,8,0,0,0-1-3.78,3.31,3.31,0,0,0-3.37-1.56" transform="translate(-848.4 -699.37)"/><path class="cls-6" d="M918,736.87a9.6,9.6,0,0,0-7.08,3.32l.79.1c-1.55-2.34-4.53-2.23-6.65-.71A23.25,23.25,0,0,0,901,744.1l-4.83,6c-3.14,3.89-6.35,7.73-9.28,11.78-2.72,3.76-5.92,8.06-6.62,12.79-1.29,8.66,7.84,11.25,14.51,12.56a80,80,0,0,0,15,1.49c2.5,0,5-.12,7.49-.33s5,.27,7.6.44c6.11.42,12.33.15,18.46.2a94.55,94.55,0,0,0,18-1.07l-.49-.84-1.2,1a.5.5,0,0,0-.08.6,4.3,4.3,0,0,0,2.42,2.07l-.12-.92a1.74,1.74,0,0,0-.42,3l.1-.79a2.52,2.52,0,0,0-1.22,3.65c.3.58,1.15.07.87-.5-.63-1.29-2.55-.49-2.49.84.12,2.67,5.93,2.62,7.58,2.68,2,.09,7.49.49,7.61-2.7a1.56,1.56,0,0,0-3-.84c-.2.4.25,1,.68.68a20.61,20.61,0,0,0,1.84-1.52.5.5,0,0,0,0-.71,4.22,4.22,0,0,0-2.41-1.21l.12.92c1.27-.82,1.9-2.53.1-3.12-.52-.17-.9.68-.38.91.81.36,1.23.17,1.82-.5s.56-1.47,1.13-2.09,1-.77,1.33-1.45c1.29-2.53-.52-5.47-2.79-6.63a13.39,13.39,0,0,0-5.38-1.14c-1.77-.11-4-.61-5.68.15-1.28.58.44,1.37-2.37,2a10.74,10.74,0,0,1-2.59-.15c-2.64-.09-5.07,1-7.67,1.17a37.84,37.84,0,0,1-7.58-.61c-2.85-.34-5.71-.65-8.58-.85a100.91,100.91,0,0,0-16.49.25c-5,.46-9.65-1.4-14.62-1.54a45.5,45.5,0,0,1-7.2-.42,11.44,11.44,0,0,1-3.64-1.23c-2.41-1.38-1.76-4.29-.67-6.34a58.37,58.37,0,0,1,5-7l5.5-7.4a39.93,39.93,0,0,1,3.11-4.11c1.37-1.41,3-1.23,4.78-1.68,1.58-.41,2.83-1.18,3.21-2.82h-1c1.53,4.81,8.57,9.65,11.47,3.2,1.61-3.57,2.84-16-3.88-15.2-.63.07-.64,1.07,0,1,5.23-.59,4.29,9.51,3.4,12.57-.83,2.87-2.82,4.81-6,3.16a8.35,8.35,0,0,1-4-5,.5.5,0,0,0-1,0c-.69,2.94-4.58,1.91-6.58,3.1-1.52.9-2.54,2.74-3.56,4.11-3.18,4.28-6.39,8.55-9.55,12.85-1.68,2.3-4.37,6.11-2.44,9,1.76,2.69,6.43,3,9.26,3.08,2.31.09,4.63,0,6.93.29s4.41,1,6.66,1.33c4.75.63,9.76-.58,14.56-.54a143,143,0,0,1,15.74,1.2,32.84,32.84,0,0,0,7.53.5c2.44-.28,4.75-1.19,7.24-1.12,1.44.05,3.21.53,4.46-.47.63-.51.68-1.06,1.43-1.46,1.06-.54,2.77-.17,3.94-.11,3.08.15,7.74.52,8.28,4.41.24,1.71-.93,2.23-1.74,3.44-.25.39-1.26,2.17-1.34,2.14l-.38.91-.35,1.29c-.33.21-.33.84.12.92,1.46.24,1.63.64.34,1.61l.68.68c.08,1.36-.41,2-1.48,1.88a14.12,14.12,0,0,1-1.71.16,25.77,25.77,0,0,1-2.78,0,24.71,24.71,0,0,1-3.53-.46c-1.31-.27-1.3-.18-2-1.55l.87-.5.86-2.29a.5.5,0,0,0,.1-.78l.22-1.4c.43-.2.23-.78-.12-.92-1.55-.77-1.78-1.43-.7-2,.42-.35-.05-.92-.49-.83-8.9,1.63-18.13,1-27.13,1-2.29,0-4.57,0-6.85-.06-2.11,0-4.1-.43-6.18-.63-4.09-.4-8.42.52-12.55.43A78.9,78.9,0,0,1,895,786.24c-3.59-.7-7.59-1.47-10.6-3.68-8.46-6.21,1.42-17.87,5.79-23.5,3-3.89,6.15-7.68,9.24-11.5,1.87-2.31,8-11.89,11.41-6.77a.5.5,0,0,0,.79.1,8.64,8.64,0,0,1,6.37-3c.64,0,.65-1,0-1Z" transform="translate(-848.4 -699.37)"/><path class="cls-6" d="M1056.79,777c-9.08,5.07-19.93,5.57-30.33,5.75q-26.6.45-53.19-.92a1.78,1.78,0,0,0-1.31.29,1.64,1.64,0,0,0-.39,1c-.29,2.18,0,4.9,2,5.76a5.92,5.92,0,0,0,2.84.2c14.54-1.37,29.18-.13,43.77-.12,5.35,0,10.69-.16,16-.32a67.39,67.39,0,0,0,12.77-1.22c5.81-1.31,11.14-4.13,16.38-6.95a38.64,38.64,0,0,0,7.45-4.76,74.26,74.26,0,0,1-15.4,1c-.3,0-.69-.1-.73-.39s.61-.19.38,0" transform="translate(-848.4 -699.37)"/><path class="cls-6" d="M1056.54,776.55c-12.31,6.66-27.35,5.75-40.91,5.79q-10.85,0-21.68-.23-5.41-.14-10.83-.35-2.46-.09-4.92-.21c-1.65-.07-4-.61-5.63-.22-2.94.72-1.65,6.3.19,7.64s4.61.52,6.61.38c3.72-.27,7.45-.38,11.17-.4,14.31-.08,28.58.7,42.9.28,7.43-.22,14.67-.41,21.67-3.18,6.2-2.45,13-5.67,18.11-10,.42-.35,0-.91-.49-.83-1,.16-16.08,1.8-16.11,1.13,0,.64,1,.65,1,0v-.15a.51.51,0,0,0-.5-.5c-.43-.05-.55.06-.8.39a.5.5,0,0,0,.08.61c1.24,1.42,5.18.59,6.87.53a79.44,79.44,0,0,0,9.74-1l-.49-.84c-4.6,3.88-10.63,6.71-16.14,9.09-6.18,2.68-12.5,3.45-19.18,3.67-12.82.41-25.56.16-38.38-.1-6.32-.12-12.64-.13-18.95.29a40.85,40.85,0,0,1-4.12.34c-2.49-.11-3.6-1.37-3.75-3.66a1.9,1.9,0,0,1,.65-2c.91-1,1.32-.68,2.6-.62l4.92.23q19.7.84,39.41.68c12.6-.1,26.07.26,37.48-5.91.56-.31.06-1.17-.51-.86Z" transform="translate(-848.4 -699.37)"/><path class="cls-6" d="M962.51,799.11c-.28,5.78-.3,11.57-.31,17.35,0,13.68-.06,27.47,2.7,40.87,3.06,14.86,9.45,28.82,16.54,42.23a5.06,5.06,0,0,1,.81,2.44c0,1.24-.93,2.29-1.18,3.51-.42,2,1,4,2.89,4.83a11.93,11.93,0,0,0,6,.62c2.21-.19,4.66-.63,6-2.42a5.1,5.1,0,0,0,.3-5.15,8.44,8.44,0,0,0-3.84-3.7,12.2,12.2,0,0,1-2.64-1.55,8.16,8.16,0,0,1-1.63-2.56c-7.74-16.41-15.48-33.23-17.52-51.26a170.27,170.27,0,0,1-.58-21.55l.37-23.9c0-.27,0-.61-.27-.74a.78.78,0,0,0-.48,0l-5.8.74a4.33,4.33,0,0,1,.65-2.47" transform="translate(-848.4 -699.37)"/><path class="cls-6" d="M962,799.11c-.43,9.27-.39,18.58-.29,27.86a170.89,170.89,0,0,0,2.08,27.21,121.28,121.28,0,0,0,7.55,25.36c1.58,3.83,3.3,7.61,5.11,11.34.93,1.91,1.89,3.81,2.86,5.7.49.94,1,1.86,1.48,2.83,1.15,2.55.7,3.11,0,5.2-2.21,6.89,7.54,7.58,11.91,6.41,2.45-.65,4.39-2.32,4.49-5,.12-3.07-2.08-5.39-4.61-6.78a8.87,8.87,0,0,1-3-2,12.93,12.93,0,0,1-1.52-2.75q-1.49-3.13-2.94-6.28c-2-4.31-3.91-8.65-5.68-13.05a127.68,127.68,0,0,1-7.66-25.51c-1.91-10.85-1.44-21.89-1.27-32.85l.25-15.93c0-.94.41-2.55-.54-3.2-.52-.36-1.6,0-2.13.1-1.26.16-4.51,1.35-3.27-1.16.28-.58-.58-1.09-.86-.51a6.48,6.48,0,0,0-.72,2.72.5.5,0,0,0,.5.5c1-.13,5.26-1.21,5.92-.59.4.37.1,2.09.09,2.63l-.05,3.49-.2,12.94c-.14,8.51-.46,17.07.4,25.55,1.57,15.48,7.36,30.07,13.78,44.11.83,1.82,1.68,3.64,2.53,5.46a25.58,25.58,0,0,0,2.5,4.92c2.32,3,7.34,3,7.47,7.81.14,5.07-7.81,5.67-11.36,4.53a4.5,4.5,0,0,1-3.18-3.18c-.27-1.3.25-2.16.64-3.38a4.36,4.36,0,0,0,0-3.4c-1.39-3.37-3.4-6.56-5-9.84-1.84-3.79-3.58-7.62-5.18-11.52a122.93,122.93,0,0,1-6.95-22.59c-1.86-9.48-2.34-19.17-2.46-28.81-.12-9.44-.16-18.91.28-28.34,0-.64-1-.64-1,0Z" transform="translate(-848.4 -699.37)"/><path class="cls-6" d="M983,908.87a23.12,23.12,0,0,0-1.6,4.73,2.26,2.26,0,0,0,.09,1.7,2,2,0,0,0-1.91,2.78,18.26,18.26,0,0,0-4.49-.25,2.83,2.83,0,0,0-1.57.46,2.87,2.87,0,0,0-.76,2.32c-.06,7.12,2.63,14.18,1.74,21.25a8.93,8.93,0,0,1-.08-2.87,31.77,31.77,0,0,1-.91,3.61c-2.13,5.94-9.12,9.09-11.22,15a2.68,2.68,0,0,0-.09,2,4.21,4.21,0,0,0,1,1.13c2.26,2.13,2.58,5.74,4.82,7.88,1.61,1.55,4.07,2.18,5.29,4.05.93,1.41.93,3.23.9,4.93l-.3,16.66c0,2,.19,4.47,2,5.32a5,5,0,0,0,1.89.36,152.26,152.26,0,0,0,24-.42,3.12,3.12,0,0,0,1.75-.54,2.84,2.84,0,0,0,.81-1.68c1.23-6-1.58-12-1.53-18.11a10.85,10.85,0,0,1,.56-3.63,15,15,0,0,1,2.73-4.21l9.3-11.31a3.69,3.69,0,0,0,1-2c.09-1.43-1.38-2.36-2.36-3.4-1.36-1.45-1.87-3.48-2.94-5.15-1.39-2.17-3.64-3.62-5.78-5.05a2.12,2.12,0,0,1-1.2-2.06,101,101,0,0,0-2-13.85l.88,3.14a87,87,0,0,0,1.23-11.84,1.68,1.68,0,0,0-1.72-2.16,28.74,28.74,0,0,0-5.4-.3,3.27,3.27,0,0,0-3.26-2.44c1.84-.84,1.53-3.82-.08-5s-3.82-1.18-5.84-1.1l-3.87.17" transform="translate(-848.4 -699.37)"/><path class="cls-6" d="M982.59,908.62c-.84,1.9-2.33,4.71-1.56,6.81l.48-.63a2.5,2.5,0,0,0-2.39,3.41l.62-.62c-1.81-.27-4.54-.86-6.21.14s-1.29,3.18-1.21,4.74c.32,6.51,2.39,12.82,1.7,19.39l1-.14a8.93,8.93,0,0,1-.06-2.73.5.5,0,0,0-1-.13,17.33,17.33,0,0,1-4,8.44c-1.82,2-3.92,3.83-5.64,6-1.12,1.39-2.47,3.22-2.68,5.06a2.68,2.68,0,0,0,.7,2.3,19.07,19.07,0,0,1,2.76,4c1,2.08,1.87,4,3.78,5.29,1.37,1,3.1,1.58,4.06,3,1.08,1.63.84,3.8.81,5.66-.06,3.59-.13,7.19-.19,10.78,0,2.7-.67,6.11.43,8.7a3.74,3.74,0,0,0,3.23,2.33,72.18,72.18,0,0,0,11.2.33q5.28,0,10.55-.45c2.11-.17,4.73.16,5.7-2.09s.58-5.38.26-7.73c-.48-3.47-1.44-6.88-1.55-10.39-.14-4.6,2.26-7.3,5-10.62,2.47-3,5.13-5.92,7.44-9,1.3-1.74,1.55-3.06,0-4.74A16.8,16.8,0,0,1,1013,952a17.53,17.53,0,0,0-2.37-4,17.87,17.87,0,0,0-3-2.6,14.29,14.29,0,0,1-1.93-1.32c-1.22-1.26-1-2.83-1.2-4.41a108.19,108.19,0,0,0-1.81-11.19l-1,.26.89,3.14c.12.45.88.51,1,0,.49-2.9.86-5.83,1.08-8.77.1-1.4.77-4-.42-5.22a4.33,4.33,0,0,0-2.53-.76c-1.09-.13-3.32.22-4.23-.41-.44-.3-.72-1.11-1.23-1.48a4,4,0,0,0-2.3-.73l.26.93a3.54,3.54,0,0,0,.46-5.4c-2.43-2.67-7.4-1.64-10.51-1.5-.64,0-.64,1,0,1,1.92-.09,3.88-.28,5.79-.19a5.34,5.34,0,0,1,3.63,1.17c1.09,1,1.89,3,.12,4.06a.5.5,0,0,0,.25.93,2.78,2.78,0,0,1,2.78,2.07.51.51,0,0,0,.48.37,16.82,16.82,0,0,1,4.43.19c2.41.61,2.19,2.47,2.05,4.51a89.94,89.94,0,0,1-1.07,9h1l-.88-3.14a.5.5,0,0,0-1,.26c.71,3.31,1.29,6.64,1.67,10,.22,1.88-.15,4.32,1.24,5.78,1.89,2,4.57,2.87,6.17,5.3.68,1,1.09,2.23,1.69,3.33a25.34,25.34,0,0,0,2,2.58c1,1.39,2.31.4.67,4a11,11,0,0,1-1.55,1.88l-2.8,3.4c-2,2.47-4.19,4.87-6.09,7.45-3.29,4.46-2.26,9.6-1.31,14.71.52,2.85,1.44,6.36.67,9.25-.72,2.73-2.8,2.71-5.06,2.89q-2.87.23-5.75.34-4.8.18-9.6.08c-3-.07-8.2.68-9-3.06-.62-2.9-.08-6.29,0-9.23.06-3.27.16-6.54.18-9.8,0-2,0-4.09-1.37-5.71s-3.48-2.19-5-3.62c-2-1.89-2.89-5.07-4.34-7.36-.73-1.16-1.85-.29-1.28-3.19a7.63,7.63,0,0,1,1.12-2.27,21.51,21.51,0,0,1,2.89-3.57,62,62,0,0,0,5.13-5.5,17.52,17.52,0,0,0,3-7.32l-1-.13a13.66,13.66,0,0,0,.1,3c.08.6.93.38,1-.13.44-4.25-.21-8.4-.87-12.59a59.3,59.3,0,0,1-.85-7.27c-.06-1.72-.38-3,1.81-3.67,1.2-.35,3.19,0,4.36.23.35.05.75-.22.62-.62l1.42-2.14a.52.52,0,0,0,.49-.64c-.64-1.71.79-4.54,1.45-6,.26-.58-.6-1.09-.86-.5Z" transform="translate(-848.4 -699.37)"/><path class="cls-6" d="M974.88,998.26a31.93,31.93,0,0,0-23.09,15.39,20.34,20.34,0,0,0-16.41,3.46q-8.16,3.64-16.19,7.6c-2.54,1.26-5.52,3.43-4.83,6.18-2.79.15-5.17,2.29-6.4,4.8a23.72,23.72,0,0,0-1.83,8.15c-.23,2.26-.44,4.64.51,6.71,1.34,2.91,4.59,4.37,7.61,5.45,22.15,7.9,46.18,8.51,69.69,7.89q30.1-.8,60-4.1c9.2-1,18.68-2.3,26.63-7a6.69,6.69,0,0,0,2.61-2.33c.76-1.38.57-3.06.36-4.62-.78-5.74-2-12.22-6.9-15.31a23.68,23.68,0,0,1-3.34-2.08,17.64,17.64,0,0,1-1.9-2.32c-2.19-2.78-5.4-4.53-8.62-6a84.14,84.14,0,0,0-25.69-7.13c-1.37-5-5.69-8.77-10.47-10.79s-10-2.55-15.19-3.06l-14.63-1.44" transform="translate(-848.4 -699.37)"/><path class="cls-6" d="M974.74,997.77A32.83,32.83,0,0,0,958.5,1005a32.36,32.36,0,0,0-5.93,6.49c-1.18,1.72-1.6,1.41-3.49,1.25a21,21,0,0,0-13,3.28c-3.16,2.06-7,3.37-10.38,5-3.82,1.81-12.71,4.34-11.84,10l.48-.64c-3.77.43-6.32,3.26-7.52,6.71a29.62,29.62,0,0,0-1.21,6.74c-.22,2.29-.45,4.74.55,6.9,1.6,3.45,5.46,4.88,8.81,6a124.09,124.09,0,0,0,16.51,4.43c22.7,4.51,46.22,3.67,69.21,2.53q18.24-.91,36.41-2.74c10.31-1,21.2-1.72,30.7-6.2,1.83-.86,4.06-1.83,5.37-3.45s1.16-3.35,1-5.16c-.46-3.89-1.13-8-3-11.49a12.67,12.67,0,0,0-3.52-4.18,27.53,27.53,0,0,0-2.39-1.44,12.54,12.54,0,0,1-3.42-3.35c-2.93-3.55-7.21-5.5-11.37-7.24a84.66,84.66,0,0,0-18.58-5.38c-1.1-.18-2.78-.08-3.79-.55s-1.27-2.05-1.75-2.89a17.48,17.48,0,0,0-4.75-5.27c-4.22-3.19-9.45-4.47-14.61-5.18-6.66-.91-13.41-1.39-20.1-2.05-.64-.07-.64.93,0,1,7.81.77,15.88,1.06,23.58,2.64,6.94,1.43,14,5.06,16.23,12.28a.54.54,0,0,0,.48.37,84.38,84.38,0,0,1,25.44,7.06,24.81,24.81,0,0,1,9.38,7.08c2.19,2.66,5.64,3.48,7.62,6.45,1.85,2.79,2.62,6.18,3.16,9.44.33,2,1.09,4.78.06,6.68s-3.68,2.92-5.48,3.77c-7.43,3.49-15.74,4.51-23.82,5.39q-26.49,2.91-53.14,3.85c-16.94.6-34,.82-50.85-1.61-9.06-1.3-18.58-3.16-27-6.8-2-.85-4-2-5.1-3.88-1.32-2.25-1-5-.71-7.48.5-4.81,1.79-11.37,7.68-12a.51.51,0,0,0,.48-.63c-.59-3.86,4.85-5.75,7.57-7.06q4.86-2.37,9.79-4.61c3-1.36,5.75-3.34,8.87-4.38a20.27,20.27,0,0,1,10.59-.58.53.53,0,0,0,.57-.23A31.8,31.8,0,0,1,975,998.74c.64-.09.37-1.06-.27-1Z" transform="translate(-848.4 -699.37)"/><g class="cls-7"><path class="cls-8" d="M975.5,765.94a18.88,18.88,0,0,0,12.79,9.31,30.31,30.31,0,0,0,5.39.43,36.94,36.94,0,0,0,12.81-1.7,17.72,17.72,0,0,0,9.88-8c-8-.72-32.18-.74-40.87-.08" transform="translate(-848.4 -699.37)"/><path class="cls-4" d="M975.07,766.19c4.31,7.48,11.73,10.07,20,10s17.33-2.17,21.74-9.91a.5.5,0,0,0-.44-.75c-6.69-.58-13.47-.55-20.18-.56-6.89,0-13.82,0-20.69.48-.64,0-.64,1,0,1,6.87-.5,13.8-.49,20.69-.48,6.71,0,13.49,0,20.18.56l-.43-.75c-4.22,7.42-12.94,9.34-20.87,9.41s-15-2.31-19.14-9.5a.5.5,0,0,0-.86.51Z" transform="translate(-848.4 -699.37)"/></g><path class="cls-2" d="M908.23,774.05c14.4-5.55,30.64-7.49,46-8.13,9.56-.41,19.19-.12,28.76-.07,24.36.11,48.72.26,73.07.82,21,.49,41.92,1,62.85,2.3l-.13-1c-26.44,7.63-53.77,8.16-81.06,7.54-28.2-.65-56.42.35-84.63-.29-15-.34-30-1-45-2.17-.64-.05-.63.95,0,1,27.2,2.18,54.53,2.55,81.8,2.51,14.44,0,28.88-.34,43.32-.14,13.83.19,27.6.7,41.43-.19A207,207,0,0,0,1119,769a.5.5,0,0,0-.13-1c-31-1.94-62-2.49-93-2.82-22.42-.23-44.88-.66-67.3-.36a187.75,187.75,0,0,0-26.15,2.3c-8.28,1.29-16.63,3-24.47,6-.59.23-.33,1.2.27,1Z" transform="translate(-848.4 -699.37)"/><path class="cls-6" d="M852.62,817.76a.5.5,0,0,0,0-1,.5.5,0,0,0,0,1Z" transform="translate(-848.4 -699.37)"/><path class="cls-6" d="M856.74,817.76a.5.5,0,0,0,0-1,.5.5,0,0,0,0,1Z" transform="translate(-848.4 -699.37)"/><g class="cls-9"><path class="cls-10" d="M913.64,744.4a1.65,1.65,0,0,0,3.3-.12c.65.78.31,2.2,1.18,2.7a1,1,0,0,0,1.37-1.27,3.09,3.09,0,0,0,1,2.13,1.35,1.35,0,0,0,2-.47,18.23,18.23,0,0,1-.94,4.07,6.57,6.57,0,0,1-1.78,2.91,2.92,2.92,0,0,1-3.2.48,4.31,4.31,0,0,1-1.06-.94l-2.68-3a1.72,1.72,0,0,0-1-.68c-.6-.08-1.08.45-1.62.71a4,4,0,0,1-1.53.3c-2.66.13-5.77-.12-7.25-2.33a8.29,8.29,0,0,1-.94-4.63,3.81,3.81,0,0,0,1.92,2.93,7.26,7.26,0,0,0,3.49.88,7.09,7.09,0,0,0,3.9-.84,9.56,9.56,0,0,0,2.61-2.76" transform="translate(-848.4 -699.37)"/><path class="cls-10" d="M913.16,744.53a2.15,2.15,0,0,0,4.27-.11l-.92.12c.53,1,.48,3.15,2.13,3a1.59,1.59,0,0,0,1.33-2l-1,.27c.36,1.8,2.53,4.22,4,1.78l-.92-.38a18.5,18.5,0,0,1-.8,3.67,7.31,7.31,0,0,1-.8,1.86,2.07,2.07,0,0,1-1.08,1c-.6.91-1.32,1-2.18.24-1.87-.73-2.53-2.18-4-3.45a2.38,2.38,0,0,0-1.29-.82,2.43,2.43,0,0,0-1.15.3,10.35,10.35,0,0,1-4.11.7,7.63,7.63,0,0,1-3.56-1c-1.88-1.19-2-3.5-2.08-5.51l-1,.13c.48,2.78,2.89,4,5.53,4.16,3.37.22,5.38-1.19,7.3-3.83.38-.52-.49-1-.86-.5-1.47,2-3,3.35-5.67,3.35-2.34,0-4.86-.73-5.34-3.44-.1-.56-1-.42-1,.13,0,2.8.49,5.45,3.26,6.73a10.11,10.11,0,0,0,4.07.75c1.48,0,3.1-.77,4.41-.6,3.06.38,3.65,6,7.58,4,2.64-1.29,3.3-5.16,3.65-7.72.07-.52-.6-.91-.92-.38-1.4,0-2.12-.5-2.16-1.55-.13-.64-1.05-.35-1,.27l-1,.06c-.06-.31-.13-.61-.21-.91s-.26-.67-.41-1a.51.51,0,0,0-.92.12l-2.33.11a.5.5,0,0,0-1,.27Z" transform="translate(-848.4 -699.37)"/></g><g class="cls-9"><path class="cls-10" d="M897.14,750.48c1.46,2.31,1.21,5.34.24,7.9s-2.58,4.82-3.8,7.26a83.26,83.26,0,0,1,11.32-13.59,5.79,5.79,0,0,1-5-5.3,8.75,8.75,0,0,1-2.85,3.39" transform="translate(-848.4 -699.37)"/><path class="cls-10" d="M896.71,750.73c2.8,5.11-1.26,10.23-3.57,14.66a.5.5,0,0,0,.87.5,86.41,86.41,0,0,1,11.25-13.49.5.5,0,0,0-.22-.83,5.42,5.42,0,0,1-4.64-4.82c0-.44-.68-.73-.93-.25a9.51,9.51,0,0,1-2.67,3.21c-.51.38,0,1.25.5.86a10.51,10.51,0,0,0,3-3.56l-.93-.26a6.42,6.42,0,0,0,5.37,5.78l-.22-.83a88,88,0,0,0-11.41,13.69l.87.5c2.5-4.8,6.59-10.15,3.56-15.67-.31-.56-1.17-.06-.86.51Z" transform="translate(-848.4 -699.37)"/></g><g class="cls-9"><path class="cls-10" d="M882,770a5.27,5.27,0,0,0,6.54,6.45c-.88,1.43.32,3.37,1.87,4s3.3.37,5,.34c5.77-.1,11.21,2.5,16.86,3.7a62.25,62.25,0,0,0,8.83,1.07,270.81,270.81,0,0,0,33,.19c1.88-.11,4.12-.47,4.9-2.19.33-.73.44-1.75,1.21-2s1.43.54,1.74,1.26a6.48,6.48,0,0,1,.45,3.56,1.28,1.28,0,0,1-.37.84,1.47,1.47,0,0,1-.74.23c-13.05,1.6-26.25,1.2-39.4.8L901,787.62c-4.06-.12-8.21-.26-12-1.69s-7.28-4.4-8.2-8.36a15.14,15.14,0,0,1,.34-6.85" transform="translate(-848.4 -699.37)"/><path class="cls-10" d="M881.48,769.88a5.86,5.86,0,0,0,7.15,7.06l-.61-.62c-1.55,3.68,2.9,5.06,5.64,5a32.76,32.76,0,0,1,8.71.92c3,.75,5.84,1.79,8.82,2.49,5.42,1.28,11.1,1.42,16.63,1.66q9.21.38,18.44.13c2.79-.07,5.62-.08,8.4-.36,1.54-.16,3.28-.47,4.3-1.76.59-.75.93-3.21,2.68-.79,1.33,1.83-.89,3.17-2.38,3.54-3.06.75-6.69.59-9.83.72-12.5.56-25-.07-37.53-.46-6.64-.2-13.82.31-20.32-1.25a15.34,15.34,0,0,1-8.19-4.63c-2.68-3.12-2.67-6.89-1.81-10.72.14-.63-.82-.9-1-.27-1.07,4.77-.68,9.25,3.07,12.72s8.88,4.38,13.8,4.68c13.63.82,27.44,1.1,41.1,1.14a191.63,191.63,0,0,0,20.18-.88c1.32-.14,3.2.08,3.92-1.26s.11-4-.76-5c-.7-.84-1.72-1.26-2.62-.41s-.4,1.93-1.84,2.91-3.72.83-5.39.91q-10.19.48-20.38.21c-7.32-.2-14.91-.27-22-2.21-3.52-1-7-2.23-10.59-2.78-2.43-.37-12.12.81-10.11-4,.16-.38-.29-.68-.62-.61a4.85,4.85,0,0,1-5.92-5.84c.13-.63-.84-.9-1-.26Z" transform="translate(-848.4 -699.37)"/></g><g class="cls-9"><path class="cls-10" d="M963.26,785.09a12.15,12.15,0,0,0,11.39-.33,3,3,0,0,1-1.62,3.61,7.16,7.16,0,0,1-4.28.36c-.6-.09-1.33-.14-1.69.34a1.76,1.76,0,0,0-.25.75l-.94,6a1.36,1.36,0,0,0,1.38,1.9l4.07.67c-3.61,1.52-5,5.8-5.91,9.62a150.26,150.26,0,0,0-3.53,24.71,227.83,227.83,0,0,1,.26-34.56,1.94,1.94,0,0,1-2.51-.87,3.54,3.54,0,0,1-.08-2.87,8.64,8.64,0,0,1,1.9-2.95l-1-2.73a2.87,2.87,0,0,0,2.59-3.32" transform="translate(-848.4 -699.37)"/><path class="cls-10" d="M963,785.53a13.09,13.09,0,0,0,11.89-.33l-.74-.3c.78,2.65-2.3,3.58-4.32,3.45a6,6,0,0,0-2.45-.08c-1.52.58-1.33,3.13-1.53,4.42s-1.08,3.62-.24,4.77,4.19,1.18,5.57,1.41l-.12-.91c-4.9,2.35-5.87,8.41-6.86,13.2a156.29,156.29,0,0,0-2.83,21.56h1a235.9,235.9,0,0,1,.26-34.56.51.51,0,0,0-.63-.49l-2.22-1.79a3.79,3.79,0,0,1,.52-1.9,8.89,8.89,0,0,1,1.49-2.15.52.52,0,0,0,.13-.49l-1-2.73-.35.62a3.41,3.41,0,0,0,3-3.81c-.06-.63-1.06-.64-1,0a2.84,2.84,0,0,1-2.22,2.84.5.5,0,0,0-.35.62c.38,1.09.88,2,.4,3-.2.45-.62.84-.85,1.28a5.09,5.09,0,0,0-.7,3.4,2.57,2.57,0,0,0,3.41,2l-.63-.48a235.9,235.9,0,0,0-.26,34.56.5.5,0,0,0,1,0,152.49,152.49,0,0,1,2.42-19.41c1-4.94,1.66-12,6.78-14.49a.51.51,0,0,0-.12-.92,23.33,23.33,0,0,1-3.26-.53c-1.27-.41-1.67-1.14-1.64-2.7a12.55,12.55,0,0,1,.27-1.72c.16-1,.09-2.69.88-3.39s2.19-.13,3.23-.19c2.54-.13,5-2,4.19-4.74a.51.51,0,0,0-.74-.3,11.94,11.94,0,0,1-10.87.33c-.58-.26-1.09.6-.51.87Z" transform="translate(-848.4 -699.37)"/></g><g class="cls-9"><path class="cls-10" d="M964.72,857.33q9.57,17.17,19.82,33.93c1.47,2.41,3,4.87,5.29,6.54-2.11-.3-4,1.84-4,4a6.3,6.3,0,0,0,3.41,5,18.47,18.47,0,0,0,6.09,1.79l-3.17,1.78a2.83,2.83,0,0,0,.95,1.74,1.67,1.67,0,0,0-.87,2.91c-.7-.41-1.61.37-1.65,1.17a3.61,3.61,0,0,0,1,2.18,72.17,72.17,0,0,1-16.62.06,8.67,8.67,0,0,1,6.19-.55c-.9-.1-1.07-1.43-.58-2.19s1.34-1.24,1.81-2c1-1.7-.14-3.82-.7-5.73a9.21,9.21,0,0,1,1.25-7.75c-1,0-1.64-.94-2.11-1.79a186.41,186.41,0,0,1-16.22-39.87" transform="translate(-848.4 -699.37)"/><path class="cls-10" d="M964.29,857.58q6.23,11.16,12.73,22.15,3.26,5.5,6.58,10.95c1.67,2.74,3.31,5.46,5.87,7.47l.36-.85a4.5,4.5,0,0,0-4.09,6.29c1.48,3.86,5.86,4.86,9.48,5.49l-.12-.91L991.94,910a.49.49,0,0,0-.23.56,4.22,4.22,0,0,0,1.08,2l.22-.84a2.19,2.19,0,0,0-1.1,3.75l.49-.84c-2.83-.53-2.31,2.59-1.24,4.09l.43-.75a77,77,0,0,1-16.62.06l.25.93a8.75,8.75,0,0,1,5.81-.49c.52.12.92-.68.38-.92-1.48-.64,1.46-3.48,1.7-4.17a4.24,4.24,0,0,0,.08-2.15c-.24-1.41-.94-2.7-1.21-4.1a9.06,9.06,0,0,1,1.39-6.58.51.51,0,0,0-.3-.74c-1.76-.29-2.84-3.45-3.55-4.79-.85-1.63-1.67-3.26-2.48-4.92q-2.58-5.29-4.82-10.76a189.41,189.41,0,0,1-7.13-20.83.5.5,0,0,0-1,.26,189.57,189.57,0,0,0,8.25,23.49q2.52,5.91,5.45,11.63c1.07,2.11,2.28,6.44,5,6.89l-.3-.74a10.46,10.46,0,0,0-1.66,4.8c-.15,2.18.82,3.84,1.2,5.92a4.41,4.41,0,0,1-.5,3.22c-.3.45-.78.76-1.11,1.2a2.7,2.7,0,0,0-.56,1.06,1.8,1.8,0,0,0,1,2.18l.38-.92a10,10,0,0,0-6.57.59c-.51.23-.18.89.25.94a77,77,0,0,0,16.62-.06c.34,0,.67-.41.43-.75-.78-.74-.75-1.61.11-2.62a.51.51,0,0,0,.49-.84l.65-2.07a.51.51,0,0,0,.22-.84c-1.38-1.5,1.25-2.24,2.12-2.73a.5.5,0,0,0-.12-.91,16.78,16.78,0,0,1-6.27-1.93,6.19,6.19,0,0,1-2.64-3.19,3.47,3.47,0,0,1,3.25-4.7c.4,0,.7-.58.35-.86-2.87-2.25-4.62-5.46-6.49-8.52q-3.18-5.25-6.31-10.54-6.24-10.57-12.22-21.3a.5.5,0,0,0-.87.5Z" transform="translate(-848.4 -699.37)"/></g><g class="cls-9"><path class="cls-10" d="M973.17,919.74a9.52,9.52,0,0,0,0,5c.15.55.35,1.08.5,1.63a15.89,15.89,0,0,1,.32,4.25l-.13,10.88a5.14,5.14,0,0,0,.67,3.18c1.08,1.42,3.2,1.31,5,1.06l6.84-1c-1.3-.94-3.16-.5-4.62-1.16-2.1-1-2.57-3.69-2.63-6s.15-4.7,1.93-6c2.38-1.66,6.08,0,8.33-1.83a38.75,38.75,0,0,1-6.8-.47,9.45,9.45,0,0,1-3.69-1.21,3.8,3.8,0,0,1-1.83-3.25c.13-1.7,1.73-2.92,3.33-3.49s3.36-.73,4.87-1.51a33.49,33.49,0,0,1-11.43-.08" transform="translate(-848.4 -699.37)"/><path class="cls-10" d="M972.69,919.61c-.78,3.58.8,6.57.84,10.12.05,4.12-.36,8.3-.14,12.41.37,6.63,8.94,3.67,13.1,3.08.44-.06.47-.72.12-.91-1.68-.93-4.07-.44-5.51-1.77-1.61-1.48-1.63-4.61-1.46-6.63.28-3.48,2.4-4.56,5.61-4.64a7.69,7.69,0,0,0,4.37-1,.5.5,0,0,0-.25-.93c-2.76,0-10.09.45-11.41-2.84-1.84-4.57,4.81-5,7.54-6.16.56-.25.13-1-.38-.91a35.17,35.17,0,0,1-11.17-.08c-.63-.11-.9.86-.26,1a36.68,36.68,0,0,0,11.69.08l-.38-.91c-2.74,1.21-10,1.94-8.24,6.82,1.57,4.41,9,4.07,12.61,4l-.25-.94c-2.36,1.58-5.3.28-7.76,1.51-1.93,1-2.57,3-2.72,5s0,4.69,1.13,6.54c1.55,2.43,4.11,1.49,6.33,2.72l.12-.91c-2.8.39-5.93,1.24-8.76,1.1-4.14-.21-3-6-3-8.84,0-2.68.22-5.4,0-8.07-.19-3-1.52-5.49-.85-8.57.14-.63-.83-.9-1-.27Z" transform="translate(-848.4 -699.37)"/></g><g class="cls-9"><path class="cls-10" d="M972.72,945.24l4.91,1.72a18.75,18.75,0,0,0-6.21,6c-1.17,1.81-1.91,4.46-.32,5.92-.75-.6-1.78.72-1.32,1.57a3.19,3.19,0,0,0,2.48,1.23l4.67.75a3.93,3.93,0,0,0-3.89,5.15c.68,1.58,2.33,2.5,4,3.09a20.58,20.58,0,0,0,5.14,1.15c-1.65.26-3.49.64-4.44,2a6.15,6.15,0,0,0-.81,3.14c-.31,4.12-.62,8.3.21,12.35s2.94,8,6.48,10.15c-3,.74-6.67,1.27-8.69-1.06-1.59-1.84-1.3-4.6-1-7a78.63,78.63,0,0,0,.33-13.55c-.15-2.42-.56-5.11-2.47-6.6-.83-.64-1.84-1-2.69-1.59a10,10,0,0,1-2.43-3l-3.42-5.44a3.5,3.5,0,0,1-.75-2.21,16.94,16.94,0,0,1,2.2-4.45c3.31-3.6,3.88-6.46,8.14-8.87" transform="translate(-848.4 -699.37)"/><path class="cls-10" d="M972.59,945.73l4.91,1.71-.12-.91c-3.39,2.1-10.48,8.24-6.63,12.67l.48-.83c-1.31-.52-2.4.93-1.94,2.18.84,2.23,5.77,2.06,7.51,2.34l.13-1a4.5,4.5,0,0,0-4.55,5.22c.83,3.88,6.6,4.81,9.75,5.17l-.13-1c-2.3.39-4.53,1-5.29,3.47-1,3.21-.8,7.44-.6,10.75.34,5.61,2.32,11.19,7.21,14.35l.12-.91c-3,.71-7.18,1.46-8.8-2-1.27-2.71-.14-6.6,0-9.46a71.87,71.87,0,0,0,0-10.06,10.56,10.56,0,0,0-1.61-5.56,7.62,7.62,0,0,0-2.42-1.9,10.09,10.09,0,0,1-3.6-3.57c-.92-1.41-1.79-2.85-2.69-4.28-1-1.62-1.61-2.91-.79-4.66A30.26,30.26,0,0,1,967,952.4c1.79-2.45,3.33-4.66,6-6.27.55-.33,0-1.2-.5-.86a18.87,18.87,0,0,0-5.75,5.78c-1.6,2.26-3.36,4.06-4.41,6.66-1,2.41.58,4.07,1.85,6.1,1.76,2.81,3.07,5.29,5.92,7,4.09,2.51,3.71,7.51,3.71,11.81,0,3.91-.74,7.81-.69,11.7.1,6.28,5.64,6.74,10.57,5.57a.5.5,0,0,0,.12-.91c-4.28-2.77-6.19-7.62-6.64-12.54a48.47,48.47,0,0,1,.06-7.62c.11-1.69-.06-3.93,1.26-5.23,1-.94,2.51-1.15,3.77-1.36.6-.1.37-.92-.14-1a16,16,0,0,1-6.91-2c-2.86-1.92-2.1-6.44,1.71-6.34.55,0,.7-.89.13-1-1.24-.2-2.49-.39-3.73-.6-.51-.07-1-.16-1.52-.26-.86,0-1.15-.62-.84-1.73.5.2.78-.5.48-.84-3.27-3.76,3.76-9.44,6.43-11.1a.5.5,0,0,0-.12-.91l-4.91-1.72c-.6-.21-.87.76-.26,1Z" transform="translate(-848.4 -699.37)"/></g><g class="cls-9"><path class="cls-10" d="M951.77,1015c2-6.77,8.12-11.44,14.38-14.66A8.72,8.72,0,0,1,971,999a15.64,15.64,0,0,1,3.63,1.26c2.76,1,5.81.94,8.77.83a174.74,174.74,0,0,0-16.42,6.38c-3.66,1.64-7.4,3.51-9.85,6.69a2.49,2.49,0,0,0-.68,2.16c.28.87,1.31,1.21,2.2,1.43l9.1,2.21a1.52,1.52,0,0,0-1.92,1.4,2.47,2.47,0,0,0,1.48,2.19,7.33,7.33,0,0,0,2.71.56c-.62,0-.92.87-.63,1.42a2.55,2.55,0,0,0,1.5,1,19.47,19.47,0,0,0,4.65,1l-10,1a4,4,0,0,0-2.36.77,3,3,0,0,0-.79,2c-.19,2.7,1.59,5.23,3.85,6.71a22.9,22.9,0,0,0,7.6,2.73,10.74,10.74,0,0,0-3.9-.29,3.61,3.61,0,0,0-2.92,2.32,2.21,2.21,0,0,0,1.87,2.82c-1.66-.38-3.29,1.15-3.57,2.83a6.91,6.91,0,0,0,1.41,4.79c3.3,5,8.95,7.78,14.34,10.36-16.42,2.49-33.13-.12-49.53-2.72a75,75,0,0,1-13-2.86,44.73,44.73,0,0,1-10-5.13,5.7,5.7,0,0,1-2.22-2.19,6.1,6.1,0,0,1-.35-2.52V1043a15.75,15.75,0,0,1,.86-6.23c.84-1.93,2.74-3.58,4.85-3.44-.53-.68.16-1.74,1-1.9a3.8,3.8,0,0,1,2.43.67,2.25,2.25,0,0,1-.61-3.06,6.54,6.54,0,0,1,2.63-2.21l12-6.87c1-.55,2.47-.94,2.91.07.36-1.84,2.76-2.26,4.63-2.27-.55-1,.64-2.05,1.66-2.56,4.28-2.11,9.32-3.75,13.75-1.95" transform="translate(-848.4 -699.37)"/><path class="cls-10" d="M952.26,1015.12c1.89-6,6.8-10.22,12.14-13.27a21,21,0,0,1,4.23-2.07c2.26-.67,3.8.24,5.84,1,2.88,1,5.9,1,8.91.85l-.14-1q-6.66,2.22-13.13,4.95c-3.61,1.53-7.41,3-10.52,5.46-1.45,1.13-5,3.94-3.26,6.12.86,1.09,2.77,1.24,4,1.53l7.28,1.77.26-1a2.05,2.05,0,0,0-2.54,2c0,2.43,2.87,3,4.68,3.12l-.13-1a1.49,1.49,0,0,0-.89,2.2c.95,1.89,4.79,2,6.54,2.21v-1c-3.52.34-7.24.37-10.71,1.06-2.1.41-3,1.7-2.95,3.87.25,6,7,8.09,11.81,9.19l.27-1c-2.36-.46-5.73-.88-7.13,1.67a2.77,2.77,0,0,0,1.92,4.15l.13-1a3.75,3.75,0,0,0-3.89,2.58c-.86,2.36.6,4.92,2,6.73,3.47,4.57,8.78,7.17,13.84,9.6l.12-.91c-16,2.33-32,0-47.82-2.5-7.49-1.18-14.71-2.49-21.38-6.32-2.19-1.26-4.77-2.47-5.26-5.26a31.5,31.5,0,0,1,0-5.14c0-3.75,0-9.88,5.21-10a.51.51,0,0,0,.48-.63l2.7-.67a.5.5,0,0,0,.5-.86c-3.22-2.47,5.66-6.5,7.15-7.36,1.23-.7,7.95-5.49,9.07-4a.5.5,0,0,0,.91-.12c.56-1.7,2.67-1.86,4.15-1.9a.51.51,0,0,0,.48-.63c-.51-2.25,5.39-3.72,6.89-4.11a13.07,13.07,0,0,1,7.9.21c.61.22.87-.75.27-1-3.64-1.3-7.33-.75-10.88.59-2,.73-5.75,1.83-5.14,4.54l.48-.63c-2.08.06-4.39.42-5.11,2.64l.91-.12c-.82-1.08-1.87-1-3.08-.51-3.27,1.29-6.44,3.65-9.49,5.41-2.15,1.23-9.18,4.66-5,7.85l.5-.86c-1.05-.53-2.34-1.15-3.46-.44a1.77,1.77,0,0,0-.71,2.23l.49-.63a6.14,6.14,0,0,0-5.61,4.55,18.62,18.62,0,0,0-.6,5.62,57,57,0,0,0,0,6c.35,3.5,3.72,5,6.52,6.55a44.86,44.86,0,0,0,12.39,4.53,267.16,267.16,0,0,0,28,4.17,116.13,116.13,0,0,0,28.8-.21.5.5,0,0,0,.12-.91,54.67,54.67,0,0,1-9.48-5.37,20.2,20.2,0,0,1-4.23-4.18c-1.55-2.11-3.46-7.93,1.28-7.5.56,0,.7-.89.14-1-1.75-1.37-2-2.45-.71-3.24a2.77,2.77,0,0,1,2.4-1,10.75,10.75,0,0,1,3,.35c.63.12.9-.82.27-1-4.26-1-10.08-2.48-11-7.58-.66-3.84,3-3.65,5.72-3.91l6.82-.67a.5.5,0,0,0,0-1,22.6,22.6,0,0,1-3.15-.56c-.11,0-3.77-1.33-2.23-1.88a.51.51,0,0,0-.14-1,6.69,6.69,0,0,1-1.6-.21c-1.15-.16-1.42-1.15-.8-3,.62.1.9-.81.26-1l-5-1.22c-1.09-.26-3.82-.4-4.64-1.14l-.25-3.22c.26-.31.54-.59.82-.87a17.26,17.26,0,0,1,2-1.69,28.8,28.8,0,0,1,3.83-2.24,144.07,144.07,0,0,1,18.85-7.53c.51-.17.46-1-.13-1a27.4,27.4,0,0,1-7-.32c-1.81-.4-3.46-1.53-5.31-1.75-2.81-.33-5.59,1.48-7.89,2.85-5.31,3.16-10,7.45-11.94,13.49-.19.61.77.88,1,.26Z" transform="translate(-848.4 -699.37)"/></g><path class="cls-2" d="M905.2,738.64c-3.34,1.37-6,4.39-5.28,8.21.77,4.42,5.14,6.3,9.23,5.14,8.61-2.46,4.62-17.11-4.07-13.3-.59.25-.08,1.12.5.86,7.76-3.4,10.62,10.59,2.21,11.67-3.43.43-6.78-1.42-7-5.18-.16-3,2-5.34,4.63-6.44.59-.24.34-1.21-.26-1Z" transform="translate(-848.4 -699.37)"/><path class="cls-2" d="M911.91,739.71c1.86-3.06,4.34,1.46,4.74,2.56a13.27,13.27,0,0,1,.69,3.48,10.61,10.61,0,0,1,0,2.7,4.16,4.16,0,0,1-.57,1.94q-1.35,2.61-4.55.09a.5.5,0,0,0-1,.27,3.13,3.13,0,0,0,4.3,2.07c2.45-1,3-3.91,2.87-6.27-.1-2.7-.67-6.18-3-7.93-1.47-1.12-3.36-1-4.36.59-.33.55.53,1,.87.5Z" transform="translate(-848.4 -699.37)"/><path class="cls-2" d="M914.13,738.65c4.55-3.46,5.82,4.3,5.7,7.11a19,19,0,0,1-.67,4.43,9.22,9.22,0,0,1-.81,2.1,1.72,1.72,0,0,1-2.79,1,2.08,2.08,0,0,1-2.46-1.36c-.35-.53-1.22,0-.87.51,1.16,1.79,3.37,3.29,5.51,2s2.69-4.8,3-7c.33-2.85.32-6.61-1.57-9a3.83,3.83,0,0,0-5.5-.59c-.5.38,0,1.25.51.86Z" transform="translate(-848.4 -699.37)"/><path class="cls-2" d="M916.6,737.77c2.54-1.45,5.06.05,5.69,2.76a22.06,22.06,0,0,1,.19,6.49c-.16,2-.37,4.6-1.72,6.24-2.28,2.77-5.94,1.83-7.26-1.17-.26-.59-1.12-.08-.86.5a5.23,5.23,0,0,0,6.18,3.17c3.27-.89,4.14-4.3,4.51-7.27s1-7.73-.94-10.4a4.75,4.75,0,0,0-6.29-1.19.5.5,0,0,0,.5.87Z" transform="translate(-848.4 -699.37)"/><path class="cls-2" d="M899.54,746c-6.75,8.81-30.74,27.79-14.56,38.75,3.45,2.34,8.09,2.84,12.11,3.4a99.3,99.3,0,0,0,12.3.86c8.68.1,17.32-.25,26,0,8.85.26,17.85.54,26.67-.49.63-.07.63-1.07,0-1-14.6,1.71-29.47.1-44.12.4-8.12.16-16.2.13-24.21-1.33-4.66-.85-8.5-2.08-11.41-6-1.63-2.22-2.48-4.49-1.66-7.21a30.72,30.72,0,0,1,2.49-5.63c4.35-8.11,11.71-14,17.26-21.21.39-.51-.48-1-.87-.51Z" transform="translate(-848.4 -699.37)"/><path class="cls-2" d="M905.3,751.35a151.41,151.41,0,0,0-12.86,15.83c-2.5,3.56-7.38,9.22-3.41,13.43.44.47,1.15-.24.71-.71-2.59-2.74-.45-6.24,1.23-8.79,1.44-2.18,2.94-4.31,4.49-6.41A150,150,0,0,1,906,752.06c.43-.47-.27-1.18-.71-.71Z" transform="translate(-848.4 -699.37)"/><path class="cls-2" d="M887.65,775.82c.87,3.59,4.55,4.7,7.82,5.13,4.95.66,10.25.48,15.23.52,8.16.06,16.28-.16,24.43.28,8.35.44,16.68,1.19,25,.19.63-.08.64-1.08,0-1-7.51.9-15,.39-22.56-.05-7.32-.44-14.63-.58-22-.46-5.23.08-10.47-.07-15.7-.18-3.75-.07-10.21-.1-11.33-4.69-.15-.63-1.11-.36-1,.26Z" transform="translate(-848.4 -699.37)"/><path class="cls-2" d="M960.46,781.33a5.51,5.51,0,0,1,1.28,6.74c-.3.57.57,1.07.87.5a6.5,6.5,0,0,0-1.45-7.94c-.48-.43-1.19.28-.7.7Z" transform="translate(-848.4 -699.37)"/><path class="cls-2" d="M961.05,780.91c0-2.45,6-1.71,7.42-1.44,2.36.46,5.12,1.19,5.85,3.84a9.59,9.59,0,0,1,.16,2.33l-2.49,3c-.81.31-2.64-.19-3.51-.26l-6.46-.5c-.64-.06-.64.94,0,1l7.39.57c1.61.13,3.35.54,4.68-.6,1.93-1.65,1.84-5.44.54-7.42-1.52-2.3-5.17-3-7.69-3.24-1.92-.19-6.92-.18-6.89,2.68a.5.5,0,0,0,1,0Z" transform="translate(-848.4 -699.37)"/><path class="cls-2" d="M1056.19,775.72c-4.7,3.94-11.22,4.79-17.14,5.31-5,.45-10,.62-15,.74-11.82.27-23.65.15-35.47-.11-4.81-.11-9.61-.24-14.4-.43-.65,0-.65,1,0,1,10.26.41,20.54.6,30.82.67,11.47.07,23,.15,34.48-.91,6.07-.56,12.58-1.53,17.39-5.56.5-.42-.21-1.12-.7-.71Z" transform="translate(-848.4 -699.37)"/><path class="cls-2" d="M1072.52,775.72c-5,4.35-12,7.47-18.06,9.93-5.36,2.17-10.6,2.59-16.31,2.81-15,.57-30,.26-44.92.14-6.84-.06-13.69-.16-20.52,0a.5.5,0,0,0,0,1c14.19-.32,28.4.11,42.59.14,7.37,0,14.74,0,22.1-.26,5.69-.2,11.11-.45,16.47-2.52a93.2,93.2,0,0,0,11.33-5.39,46.73,46.73,0,0,0,8-5.14c.49-.42-.22-1.13-.7-.71Z" transform="translate(-848.4 -699.37)"/><path class="cls-2" d="M959.86,788.59c-.51,3.31,3.94,2.32,6.09,2.41,1.62.06,7.9,1.54,7.19-1.68-.14-.63-1.1-.36-1,.27.21,1-5.35.44-5.77.42-.93,0-5.82.34-5.58-1.16.09-.63-.87-.9-1-.26Z" transform="translate(-848.4 -699.37)"/><path class="cls-2" d="M960.48,790.53c-2.82,4.63,3.61,2.71,6.07,2.73,1.65,0,5,.89,6.28-.58a1.37,1.37,0,0,0-.48-2.29c-.56-.31-1.07.55-.51.86a1.63,1.63,0,0,1-2,1.13l-.93,0c-1.09,0-2.18-.12-3.27-.08s-5.65,1-4.28-1.24c.34-.55-.53-1-.86-.5Z" transform="translate(-848.4 -699.37)"/><path class="cls-2" d="M960.43,792.54c-.87.92-1.91,2.41-.64,3.51.6.52,1.66.41,2.37.43a45.16,45.16,0,0,0,5.7-.14c1.61-.14,4.89-.12,5.82-1.8a1.55,1.55,0,0,0-.88-2.33c-.6-.24-.86.73-.27,1,1.63.64-2,1.83-2.25,1.87a30.85,30.85,0,0,1-3.84.4q-1.43.07-2.85.06c-.74,0-4.93.35-2.46-2.25.45-.47-.26-1.18-.7-.71Z" transform="translate(-848.4 -699.37)"/><path class="cls-2" d="M959.21,794.46c-.45,1.28-1.9,2.5-.3,3.61a3.53,3.53,0,0,0,1.84.41c1.87.11,3.78,0,5.65,0s3.46,0,5.18,0a3.51,3.51,0,0,0,2.64-.65c1.16-1.23.14-2.71-.76-3.73-.43-.48-1.14.23-.71.71l-.7,2.67h-3.29l-4.71,0c-.93,0-3.56.47-4.23-.08-1-.82.06-1.81.36-2.66.21-.6-.76-.86-1-.26Z" transform="translate(-848.4 -699.37)"/><path class="cls-2" d="M961.35,798.44c-.47,11.29-.32,22.61-.38,33.91a90.34,90.34,0,0,0,1.92,20c1.89,8.68,4,17.51,7.3,25.76a211.57,211.57,0,0,0,11.3,23.15.5.5,0,0,0,.87-.5c-3.71-6.69-7.2-13.53-10.22-20.55-3.43-8-5.54-16.45-7.55-24.91a91.52,91.52,0,0,1-2.63-22c0-5.1,0-10.2.06-15.29,0-6.51.06-13,.33-19.54,0-.64-1-.64-1,0Z" transform="translate(-848.4 -699.37)"/><path class="cls-2" d="M970.49,798c-.44,10.81-.33,21.63-.37,32.44a95.77,95.77,0,0,0,.92,16.4,173.58,173.58,0,0,0,6.43,25.81c3,8.85,7.54,17,12.06,25.16a.5.5,0,0,0,.86-.5c-4.1-7.37-8.27-14.79-11.19-22.73a170.57,170.57,0,0,1-6.59-24.77c-2.23-11-1.5-22.41-1.43-33.58,0-6.07.06-12.15.31-18.23,0-.64-1-.64-1,0Z" transform="translate(-848.4 -699.37)"/><path class="cls-2" d="M989.78,897.44c-4.22.91-9.26,2.61-9.4,7.73,0,1.78.14,4.11,1.6,5.34,1.8,1.53,5,1.37,7.21,1.24,4.08-.23,8.72-1.14,8.1-6.25a9.06,9.06,0,0,0-8-7.9c-.64-.06-.64.94,0,1a8,8,0,0,1,6.83,6.17c1.29,5.34-3.95,5.91-7.82,6-1.49.05-4,.2-5.3-.77-1.65-1.27-2-4.3-1.47-6.23,1-3.69,5.28-4.69,8.5-5.39.63-.13.36-1.1-.27-1Z" transform="translate(-848.4 -699.37)"/><path class="cls-2" d="M982,910.55c-2.73,4.61,6.08,3.26,8.16,3.08,1.41-.13,4.47,0,5.33-1.44a1.43,1.43,0,0,0-.93-2.16.5.5,0,0,0-.26,1c0,.88-.37,1.3-1.12,1.26l-1.67.23c-1.05.13-2.1.21-3.16.27-.86,0-6.89.67-5.49-1.71a.5.5,0,0,0-.86-.5Z" transform="translate(-848.4 -699.37)"/><path class="cls-2" d="M981.67,912.2c-.79,1-2.23,2-.54,3.24.79.57,2,.42,2.86.44q2.91.06,5.82.06c1.66,0,5,.26,6.09-1.52a1.5,1.5,0,0,0-1.31-2.34c-.64,0-.64,1,0,1a1.94,1.94,0,0,1-2.5,1.8q-.92.07-1.83.06c-1.19,0-2.39,0-3.59,0-1.36,0-6,.21-4.13-2.2.39-.52-.48-1-.87-.51Z" transform="translate(-848.4 -699.37)"/><path class="cls-2" d="M980.78,914.09c-1.26,1.17-2.95,3.57-1,5,.88.65,2.13.42,3.13.36,2.24-.13,4.48-.31,6.73-.29s6,.66,7.69-1.54-.51-2.5-1.81-3.55c-.5-.4-1.21.3-.71.71-.28-.23.64.45.64.46q1.26.16.06,1.44c0,1-.38,1.43-1.2,1.43-1.4.53-3.69,0-5.15,0-1.77,0-3.53.11-5.29.23-.59,0-2.12.44-2.55.14l-1.05-2.43a7.22,7.22,0,0,1,1.21-1.32c.47-.44-.23-1.15-.7-.71Z" transform="translate(-848.4 -699.37)"/><path class="cls-2" d="M978.92,917.46c-2.31-.36-4.62-.55-6.4,1.19a.5.5,0,0,0,.35.85,124.14,124.14,0,0,0,16.81.49q4.08-.16,8.15-.61c1.73-.19,3.49-.2,4.82-1.43a.51.51,0,0,0-.22-.84,19.08,19.08,0,0,0-5.58-.55c-.64,0-.64,1,0,1a18.29,18.29,0,0,1,5.31.51l-.22-.83c-1.72,1.6-5.69,1.32-7.94,1.5s-4.8.29-7.21.33a124.42,124.42,0,0,1-13.92-.57l.35.85c1.5-1.46,3.56-1.22,5.43-.92.63.1.9-.87.27-1Z" transform="translate(-848.4 -699.37)"/><path class="cls-2" d="M972.23,919.5c0,2-.59,5.22.19,7.13.58,1.39,2.32,1.42,3.63,1.67a68.39,68.39,0,0,0,17.32,1,67.14,67.14,0,0,0,8-1c1.42-.27,2.94-.49,3.44-2,.59-1.81.14-5-.16-6.83-.23-1.39-.85-2.31-2.32-2.35-.64,0-.64,1,0,1,1.93.06,1.61,4.67,1.55,5.94-.13,2.72-1.47,3.07-3.69,3.46a67.78,67.78,0,0,1-22.49.1c-2.11-.34-4.1-.43-4.44-2.88a42.79,42.79,0,0,1,0-5.19.5.5,0,0,0-1,0Z" transform="translate(-848.4 -699.37)"/><path class="cls-2" d="M973.26,927.06l.06,9.16c0,3,.26,6.22-1.75,8.64-.33.4.11,1.13.61.78,1.23-.85,2.42-.46,3.66,0l.27-1c-1.26,0-1.93-.82-2-2.32,0-.64-1-.64-1,0a3.06,3.06,0,0,0,2.74,3.29.5.5,0,0,0,.27-1c-1.56-.51-3-.82-4.43.16l.6.78c1.64-2,2-4.28,2.05-6.79.07-3.9,0-7.81-.07-11.71a.5.5,0,0,0-1,0Z" transform="translate(-848.4 -699.37)"/><path class="cls-2" d="M1003.35,927.71a76.16,76.16,0,0,0-.24,8c0,1.7,1.38,8.33-.71,9.11-.59.22-.36,1.14.27,1a11.35,11.35,0,0,1,3.48-.44.5.5,0,0,0,.13-1l-1.43-1.17c-.34-.55-1.2,0-.86.5a3.59,3.59,0,0,0,2,1.63l.14-1a11.89,11.89,0,0,0-3.75.48l.27,1c2.56-1,1.83-3.63,1.66-5.84a76.7,76.7,0,0,1,0-12.22c0-.64-1-.63-1,0Z" transform="translate(-848.4 -699.37)"/><path class="cls-2" d="M972,944.94a33.72,33.72,0,0,0-7.07,7.29c-1.07,1.51-2,3.09-3,4.68-.48.79-1.12,1.59-.89,2.56.52,2.23,4.84,2.48,6.55,2.82a62.31,62.31,0,0,0,10.83.88c8,.2,16.06.68,24.07.35a58,58,0,0,0,11-1.38c2.08-.5,3.8-.86,3.86-3.29a3.29,3.29,0,0,0-.59-2.32c-.75-.92-1.82-1.32-2.49-2.43-.42-.71-.73-1.47-1.09-2.21a16.53,16.53,0,0,0-6.67-7.23.5.5,0,0,0-.5.86,16.49,16.49,0,0,1,6.61,7.52,10.87,10.87,0,0,0,1.85,3c-.08-.08,1.26,1,1.16.9,1.13,1.39,1,2.92-.64,3.73a19.3,19.3,0,0,1-5.34,1.16,61.76,61.76,0,0,1-6.22.61c-3.67.19-7.35.12-11,0-7.63-.18-15.65.29-23.18-.94a39.84,39.84,0,0,1-5.41-1.19c-2.83-.87-.79-3.38.2-4.95a35.63,35.63,0,0,1,8.5-9.64c.5-.38,0-1.25-.51-.86Z" transform="translate(-848.4 -699.37)"/><path class="cls-2" d="M970.11,958.92c7.91.48,15.82,1,23.75.93,3.87,0,7.75-.15,11.61-.47,2-.17,5.08.09,6.36-1.87.36-.54-.51-1-.86-.5-1,1.48-3.48,1.2-5,1.33-1.77.16-3.54.27-5.31.35-3.39.16-6.78.19-10.17.15-6.8-.09-13.58-.51-20.36-.92-.64,0-.64,1,0,1Z" transform="translate(-848.4 -699.37)"/><path class="cls-2" d="M962.09,961.4c2.7,2.14,3,5.91,5.44,8.24a21.3,21.3,0,0,0,3.26,2.14c2.55,1.64,2.61,3.69,2.51,6.45l-.49,14.18c-.1,2.88-.81,6.55,2.47,7.87s7.42.66,10.72.7c4.72,0,9.47.1,14.19-.13,2.46-.12,4.55-.71,5-3.43a18.1,18.1,0,0,0,.34-5.58,4.8,4.8,0,0,0-.41-1.12,13.21,13.21,0,0,1-.87-4.17l-.67-8c-.15-1.9-.26-3.14,1.16-4.73a21,21,0,0,1,1.95-1.55,24.3,24.3,0,0,0,6.66-9.92c.23-.6-.74-.86-1-.26a23.2,23.2,0,0,1-6.41,9.47c-1,.86-2.36,1.51-3.1,2.62s-.44,2.6-.33,3.9c.3,3.72.1,8,1,11.59.33,1.38,1.08,2.42,1,3.92a18.63,18.63,0,0,1-.23,3.08c-.59,2.35-1.54,3-3.75,3.21-4.16.29-8.39.18-12.55.15q-3.19,0-6.37-.09c-1.91,0-4.65.26-6.36-.73-2.17-1.25-1.49-4.64-1.42-6.76l.24-6.84.2-5.87a21.12,21.12,0,0,0,0-5.27c-.72-3.07-4-3.58-6-5.5-2.46-2.33-2.72-6.08-5.44-8.24-.5-.39-1.22.31-.71.71Z" transform="translate(-848.4 -699.37)"/><path class="cls-2" d="M973.56,997.93c-5.17-.59-9.67,1.88-13.6,5-4.11,3.24-7.78,6.72-9.43,11.81-.2.62.77.88,1,.27,1.51-4.65,4.82-7.85,8.53-10.85,3.9-3.17,8.32-5.82,13.54-5.22.63.07.63-.93,0-1Z" transform="translate(-848.4 -699.37)"/><path class="cls-2" d="M1004.42,999.08c9.36,1.84,21.4,4.8,23.49,15.78.12.63,1.09.36,1-.27-2.16-11.34-14.5-14.56-24.19-16.47-.63-.13-.9.84-.27,1Z" transform="translate(-848.4 -699.37)"/><path class="cls-2" d="M955.91,1017.6a143.45,143.45,0,0,0,39.54,4.26c9.34-.2,19.52-.7,28.38-4,.6-.22.34-1.19-.27-1-8.79,3.24-18.84,3.73-28.11,3.93a142.38,142.38,0,0,1-39.28-4.23.5.5,0,0,0-.26,1Z" transform="translate(-848.4 -699.37)"/><path class="cls-2" d="M951.54,1012.26a21.45,21.45,0,0,0-13,1.79c-2,1-5.7,3.53-2.52,5.6a22.22,22.22,0,0,0,6,2.21,64.21,64.21,0,0,0,8.8,1.71c5.19.69,10.44,1,15.66,1.3,22.65,1.37,45.67,1.52,67.92-3.49,2.08-.47,10.77-1.35,9.12-5.51-.62-1.56-2.79-1.6-4.17-1.87q-5.36-1.07-10.75-2c-.63-.11-.9.86-.26,1q3.18.57,6.35,1.18l3.42.66c.7.14,3,.21,3.49.71.31.34-1.39,3.35-1.59,3.47a5.51,5.51,0,0,1-1.28.35c-1.07.28-2.14.54-3.21.79-2.14.51-4.3,1-6.46,1.37a186.6,186.6,0,0,1-26.56,3c-8.69.39-17.38.29-26.07-.06s-17.58-.67-26.24-1.89a64,64,0,0,1-6.6-1.26c-1.16-.28-2.31-.61-3.44-1-.69-.23-3-.71-3.39-1.3l.21-1.52c-.27-1,0-1.67.92-1.94a8.36,8.36,0,0,1,1.49-.76,19.21,19.21,0,0,1,3.83-1.3,20.53,20.53,0,0,1,8-.2c.63.1.9-.86.26-1Z" transform="translate(-848.4 -699.37)"/><path class="cls-2" d="M936,1016.39c-2.5.45-7,2.11-5.32,5.57,1.48,3.13,7.43,3.06,10.21,3.53a209,209,0,0,0,32.73,3.08c5.78,0,11.53-.37,17.3-.59,5.45-.21,10.88.07,16.33.17a150.58,150.58,0,0,0,32.47-2.89c2.95-.59,8.62-1,9.24-4.88s-3.4-4-5.91-5.3c-.57-.29-1.08.58-.5.87a14.41,14.41,0,0,0,3.11,1.17,2.86,2.86,0,0,1,.6,5.32c-1.57.95-3.64,1.2-5.4,1.57-2.18.46-4.38.87-6.58,1.23a149,149,0,0,1-26.08,1.93c-8.63-.12-17.12-.17-25.74.22a178,178,0,0,1-25.92-.78c-5-.5-10-1.19-14.9-2-2.28-.38-4.62-.7-6.87-1.24-.3-.07-.61-.15-.91-.25a5.29,5.29,0,0,1-1.29-.57l-.29-3.71c.81-1,2.77-1.27,4-1.48.63-.11.37-1.08-.26-1Z" transform="translate(-848.4 -699.37)"/><path class="cls-2" d="M932.28,1018a71.74,71.74,0,0,0-13.07,6c-2.2,1.39-7.1,4.06-5.9,7.31,1,2.63,4.53,3.75,6.9,4.65a33.48,33.48,0,0,0,9.24,2.49c.64,0,.64-1,0-1a28.08,28.08,0,0,1-6.92-1.73,26.41,26.41,0,0,1-6.42-2.73c-1.43-1-2.38-2.57-1.32-4.19a12,12,0,0,1,2.87-2.54,36,36,0,0,1,4.21-2.66,87.72,87.72,0,0,1,10.68-4.61c.59-.22.33-1.19-.27-1Z" transform="translate(-848.4 -699.37)"/><path class="cls-2" d="M1047.54,1018.14c4.44,1.38,9.1,2.84,12.42,6.27,2,2,4.31,5.67,2,8.37-1.39,1.62-4,2.55-5.85,3.38-.59.26-.08,1.12.51.86,2.18-1,5.18-2.06,6.55-4.17s.62-4.63-.56-6.62c-3.12-5.29-9.28-7.33-14.81-9.06-.62-.19-.88.78-.27,1Z" transform="translate(-848.4 -699.37)"/><path class="cls-2" d="M914.06,1030.15c-6.21,1.11-8.56,7.46-8.93,13.06-.18,2.69-.76,6.45.94,8.79s4.95,3.82,7.55,4.88c7.52,3,15.93,4.48,23.91,5.68a216.25,216.25,0,0,0,24,2.17c17,.64,34.07-.29,51.07-1.16,8.71-.44,17.42-.93,26.1-1.79,7.7-.76,15.49-1.67,22.9-4,3.5-1.1,7.72-2.43,10.57-4.83s2.27-5.89,2.06-9.08c-.25-3.7-.8-7.54-2.88-10.7a12.08,12.08,0,0,0-2.82-3.06c-.34-.26-5-2.44-5-1.86s1,.64,1,0l0-.21a.51.51,0,0,0-.5-.5c-.52,0-.62,0-.92.45a.51.51,0,0,0,.07.61c.66.81,1.54.72,2.5,1.07a9.39,9.39,0,0,1,3.78,2.68c2.69,3,3.43,7.16,3.72,11.07s.64,7.52-3.13,9.75a44.33,44.33,0,0,1-10.45,4.15c-14,4-29.18,4.31-43.63,5.08-28.74,1.52-58.06,3.48-86.48-2.26-3.89-.79-7.78-1.69-11.59-2.84-3.49-1-8.18-2.54-10.64-5.44-1.47-1.73-1.24-3.92-1.21-6a28.09,28.09,0,0,1,.7-6.78c1-3.81,3.53-7.21,7.58-7.93.64-.12.37-1.08-.26-1Z" transform="translate(-848.4 -699.37)"/><path class="cls-2" d="M929.45,1038.4c33.26,3.21,66.93,4.14,100.27,1.64,9-.67,17.9-1.63,26.79-3,.63-.09.36-1-.27-1-32.85,4.93-66.46,5.13-99.58,3.34q-13.62-.73-27.21-2c-.64-.06-.64.94,0,1Z" transform="translate(-848.4 -699.37)"/><path class="cls-2" d="M909.38,1033.75c-.26,3.26,2.9,5.06,5.46,6.26a41.07,41.07,0,0,0,11.85,3.3c9.19,1.31,18.58,1.46,27.85,1.9,20.14.94,40.37,2.46,60.54,1.44a276.11,276.11,0,0,0,32.83-3.66c.64-.11.37-1.08-.26-1a282.37,282.37,0,0,1-55.47,3.84c-18.29-.49-36.63-1.36-54.89-2.57a99.47,99.47,0,0,1-14.09-1.6c-3.69-.78-13.23-2.88-12.82-7.94,0-.64-1-.64-1,0Z" transform="translate(-848.4 -699.37)"/><path class="cls-2" d="M1047.91,1043a76.8,76.8,0,0,0,17.36-4.91c1.65-.71,4.06-1.47,4.88-3.26a2.56,2.56,0,0,0-1.08-3.47c-.57-.3-1.07.56-.51.87,3.57,1.9-2.89,4.61-4.14,5.13q-2.81,1.17-5.71,2.07a83.78,83.78,0,0,1-11.06,2.6c-.64.11-.37,1.07.26,1Z" transform="translate(-848.4 -699.37)"/><path class="cls-11" d="M1064.89,766.73c2.84,30.63.76,61.51,1.76,92.26h-1.59c-1-30.75,1.08-61.63-1.76-92.26" transform="translate(-848.4 -699.37)"/><path class="cls-2" d="M1064.39,766.73c2.21,24.31,1.41,48.73,1.46,73.11q0,4.42.07,8.84c0,1.48,0,3,.07,4.42s.45,3.46.13,4.91c-.11.51.75.54-.27.48-.62,0-.35,0-.48-.24-.29-.59.07-3.27.05-4.17-.07-3.27-.11-6.54-.14-9.82-.09-12.12.11-24.24.09-36.36,0-13.74-.33-27.48-1.57-41.17-.06-.64-1.06-.64-1,0,2.79,30.69.79,61.51,1.76,92.26a.51.51,0,0,0,.5.5h1.59a.51.51,0,0,0,.5-.5c-1-30.75,1-61.57-1.76-92.26-.06-.64-1.06-.64-1,0Z" transform="translate(-848.4 -699.37)"/><path class="cls-6" d="M1067.8,857.5c.87,14.46.32,31.14,0,43.52h-4.06c-.87-14.47-.32-31.14,0-43.52Z" transform="translate(-848.4 -699.37)"/><path class="cls-2" d="M1067.3,857.5c.53,9.11.54,18.24.39,27.36q-.12,6.58-.31,13.17c0,.14,0,2.92.35,2.49a4.9,4.9,0,0,1-1.27,0,15.44,15.44,0,0,1-1.8,0H1064q-.39.06,0-.18c-.1-.24.08-2.26.06-2.76,0-1.17-.1-2.34-.13-3.51-.08-2.37-.12-4.74-.14-7.12q-.06-6.87.07-13.73c.08-4.25.19-8.49.3-12.73,0-.15,0-2.93-.35-2.49.09-.12,1.13,0,1.27,0h2.72a.5.5,0,0,0,0-1h-4.06a.51.51,0,0,0-.5.5c-.38,14.5-.84,29,0,43.52a.51.51,0,0,0,.5.5h4.06a.5.5,0,0,0,.5-.5c.38-14.5.84-29,0-43.52C1068.27,856.86,1067.27,856.85,1067.3,857.5Z" transform="translate(-848.4 -699.37)"/><g class="cls-9"><path class="cls-10" d="M1066.25,858.35c-1.07,12.37-2.12,25,.87,37,.35,1.39.74,2.9.17,4.22s-2.6,2-3.44.84a396.06,396.06,0,0,1,.46-42.76.76.76,0,0,0,1,.6" transform="translate(-848.4 -699.37)"/><path class="cls-10" d="M1065.75,858.35c-.59,6.84-1.17,13.69-1.08,20.56a82.91,82.91,0,0,0,.71,10c.2,1.46.44,2.91.73,4.35.22,1.06,2.2,7.63-.57,7.28-2.24-.29-1.48-8.7-1.51-10.47,0-3.49-.07-7,0-10.45q.11-11,.81-21.87l-.93.25a1.3,1.3,0,0,0,1.4.85.5.5,0,0,0,0-1l-.54-.36c-.23-.48-.9-.2-.93.26q-.86,13.39-.83,26.84,0,6.48.25,12.94c.06,1.83-.34,4.45,2.31,4,2.24-.37,2.67-2.6,2.43-4.52s-.83-3.62-1.16-5.43a68.29,68.29,0,0,1-.92-7.4c-.62-8.6.12-17.22.86-25.79.06-.64-.94-.64-1,0Z" transform="translate(-848.4 -699.37)"/></g></svg>