<svg id="Calque_1" data-name="Calque 1" xmlns="http://www.w3.org/2000/svg" viewBox="0 0 280.28 381.06"><defs><style>.cls-1{fill:#634e42;}.cls-2{fill:#1d1d1b;}.cls-3{fill:#7b6a58;}.cls-4{fill:#dede34;}.cls-5{fill:#126848;}.cls-6{fill:#f1d682;}.cls-7{opacity:0.49;}.cls-8{fill:#fcea10;}.cls-9{fill:#fff;}.cls-10{opacity:0.15;}.cls-11{fill:#dedc00;}.cls-12{opacity:0.07;}.cls-13{fill:#fff7ab;}.cls-14{opacity:0.78;}.cls-15{fill:#ededed;}</style></defs><title>lampe_allumee</title><path class="cls-1" d="M852.43,1080c-3.38-6.84-3.89-15.71-3.38-18.5,3.11-16.67,26.52-21.67,43.18-25.39,49.17-11,99.7-7.55,150.08-6.77,27.11.43,70.58,16.86,78.37,24.38,5.47,5.28,6.34,17.79,1,26.28" transform="translate(-848.4 -699.45)"/><path class="cls-2" d="M852.86,1079.75c-4.09-8.62-5.53-19.64,1.21-27.26,6-6.79,15.37-10,23.85-12.4,24.18-6.82,49.4-9.8,74.45-10.86,27.39-1.16,54.8-.08,82.19.47a157.56,157.56,0,0,1,30.55,3.13,224.49,224.49,0,0,1,28.62,8.3c8,2.9,16.4,6,23.64,10.71,9.18,5.91,9.11,19.25,3.92,27.91-.33.55.54,1,.87.5,4.52-7.54,5.76-20.21-1.13-26.89-4.5-4.35-11.29-6.88-16.94-9.26a225.33,225.33,0,0,0-28.71-9.8,150.07,150.07,0,0,0-29.5-5.32c-6.66-.41-13.37-.31-20.05-.47-7.42-.17-14.85-.36-22.28-.51-14.81-.3-29.63-.45-44.45,0-26.69.79-53.37,3.68-79.23,10.53-9.48,2.52-20.33,5.9-26.87,13.68-6.7,8-5.21,19.2-1,28,.28.58,1.14.08.87-.5Z" transform="translate(-848.4 -699.45)"/><path class="cls-3" d="M864,1080c-10.89,0-14.73-22.31-12-26.44,9.37-14.26,26.51-21.67,43.17-25.39,49.17-11,99.7-7.55,150.08-6.77,27.11.43,70.58,16.86,78.37,24.38s6.06,30.88-8.58,34.11" transform="translate(-848.4 -699.45)"/><path class="cls-2" d="M864,1079.46c-8.61-.23-11.77-12.7-12.28-19.53a16.31,16.31,0,0,1,.16-4.68c.48-2.17,2.25-4,3.64-5.63a53.86,53.86,0,0,1,15.24-12.13c11.94-6.57,25.44-9.4,38.75-11.66a372.27,372.27,0,0,1,47.71-4.66c15.45-.59,30.91-.49,46.36-.2,7.75.14,15.5.34,23.25.52,7.31.17,14.68.07,22,.52,11.07.68,22,3.19,32.67,6.24a204.85,204.85,0,0,1,30.16,11,59.18,59.18,0,0,1,10,5.55c3.22,2.35,4.84,5.86,5.57,9.72,1.79,9.56-1.77,22.31-12.35,24.84-.63.15-.36,1.12.26,1,8.77-2.1,13-10.95,13.47-19.33.42-7.36-1.75-14.17-8.12-18.19-8-5-17.23-8.43-26.12-11.52a200.35,200.35,0,0,0-36.22-9.27,137.25,137.25,0,0,0-17.78-1.24c-8.56-.16-17.12-.38-25.68-.58-17.07-.39-34.15-.69-51.23-.23a397.77,397.77,0,0,0-50,4.2c-14.43,2.23-29.23,5-42.26,11.91a56.55,56.55,0,0,0-15.46,11.7c-2.73,3-5.08,5.73-5.16,9.88-.13,7.13,2.34,17.33,8.76,21.42a8.81,8.81,0,0,0,4.59,1.38c.65,0,.64-1,0-1Z" transform="translate(-848.4 -699.45)"/><path class="cls-4" d="M975.46,766.11a17.43,17.43,0,0,0,12,9.35c-3.89,1.25-8.1-.08-12.19,0-1.4,0-2.8.2-4.2.3a70.32,70.32,0,0,1-7.26,0l-28.45-.92c-6.51-.2-13-.42-19.5-1.21a26.46,26.46,0,0,0-6.58-.32,73.44,73.44,0,0,1,9.57-2.81c3.27-.8,6.54-1.6,9.82-2.31,15.39-3.35,31.29-4.83,46.92-2.92" transform="translate(-848.4 -699.45)"/><path class="cls-4" d="M975,766.37a18.27,18.27,0,0,0,12.3,9.57v-1c-3.15.86-6.23.33-9.42.07s-6,.23-9.11.28c-6.55.11-13.15-.34-19.7-.55s-13.07-.38-19.6-.65c-3.42-.14-6.84-.32-10.24-.64s-6.64-1-10-.69l.13,1a118,118,0,0,1,15.37-4.21c5.41-1.28,10.86-2.37,16.36-3.16a132.91,132.91,0,0,1,34.45-.66c.64.07.63-.93,0-1a132.94,132.94,0,0,0-33.76.56c-5.52.77-11,1.82-16.42,3.08s-11,2.42-16.27,4.42c-.48.19-.47,1,.14,1,3.34-.31,6.66.37,10,.69s6.82.5,10.24.64c6.86.28,13.72.46,20.58.68,6.51.21,13.11.73,19.63.5a65.55,65.55,0,0,1,9.08-.17c3,.28,5.87.6,8.81-.2a.5.5,0,0,0,0-1,17.33,17.33,0,0,1-11.71-9.12c-.29-.57-1.16-.07-.86.51Z" transform="translate(-848.4 -699.45)"/><path class="cls-4" d="M1016.87,764.72a11.12,11.12,0,0,1-5.28,7.42,26.67,26.67,0,0,1-8.79,3.2c4.82,1.63,10.12-1.5,15.11-.52a7.64,7.64,0,0,0-4.1.35c1.48.84,3.29.71,5,.59,5.53-.38,11.08-.34,16.62-.31l6.42,0,14.37.08h-3.44l9.68.34a1,1,0,0,0,.58-.09c.31-.2.32-.64.29-1l-.63-7.89a.86.86,0,0,0-1-1,57.4,57.4,0,0,0-6.94.09,200.08,200.08,0,0,1-36.53-1.55" transform="translate(-848.4 -699.45)"/><path class="cls-4" d="M1016.39,764.59c-1.27,6.59-7.92,9-13.72,10.27a.51.51,0,0,0,0,1c5.07,1.44,10-1.32,15.11-.53l.13-1a9.34,9.34,0,0,0-4.23.37c-.37.11-.54.72-.12.91,2.85,1.29,6.11.57,9.15.46,3.74-.14,7.5-.14,11.25-.12l22.25.13v-1h-3.44a.5.5,0,0,0,0,1l4.84.17a26.19,26.19,0,0,0,4.84.17c1.72-.29,1.38-1.53,1.25-3.08l-.39-4.93c0-.58.08-1.76-.34-2.3-1-1.32-3.77-.75-5.22-.71-13.27.41-26.3.34-39.5-1.41-.63-.08-.63.92,0,1a203.3,203.3,0,0,0,29.79,1.77c2.58,0,5.15-.15,7.73-.27,1,0,2-.1,3-.11,2.09,0,3,.33,3.6,2.53a25.75,25.75,0,0,1,.31,3.94l.16,2a2.79,2.79,0,0,1-2.31.53,71.59,71.59,0,0,1-7.74-.27v1h3.44a.5.5,0,0,0,0-1l-20.33-.12c-3.41,0-6.83,0-10.24,0s-8.32,1.23-11.57-.23l-.12.91a8.87,8.87,0,0,1,4-.33c.55.07.69-.9.13-1-5.08-.79-10.09,1.95-15.1.52v1c6.14-1.39,13.08-4,14.42-11,.12-.63-.85-.9-1-.26Z" transform="translate(-848.4 -699.45)"/><path class="cls-4" d="M1065.27,766.35l1.14,9.52q19.6-1.18,39.07-4c3.86-.56,7.82-1.21,11.16-3.21a2.14,2.14,0,0,0-1.87-.68c-1.63,0-3.27,0-4.89.16-3,.22-34.81-1.28-43.73-2.09" transform="translate(-848.4 -699.45)"/><path class="cls-4" d="M1064.77,766.35l1.14,9.52a.5.5,0,0,0,.5.5q13.72-.84,27.39-2.46c4.22-.51,8.44-1.06,12.64-1.7a29.78,29.78,0,0,0,10.45-3.14.5.5,0,0,0,.1-.78c-1.89-1.67-5.16-.73-7.48-.66-1.1,0-2.2,0-3.3,0-4.26-.11-8.52-.3-12.78-.49-9.09-.41-18.21-.77-27.28-1.58-.64-.06-.64.94,0,1,8.59.77,17.22,1.12,25.84,1.52,4.24.19,8.48.38,12.72.51,1.36,0,2.71.09,4.07.08,2.12,0,5.88-1.07,7.51.35l.1-.78c-4,2.25-8.52,2.81-13,3.44q-8,1.13-16,2-7.32.78-14.67,1.32c-1.14.09-2.29.17-3.43.24l-2,.13a1,1,0,0,1-.71-1.34c-.73-2.29-.63-5.23-.91-7.62-.08-.63-1.08-.64-1,0Z" transform="translate(-848.4 -699.45)"/><path class="cls-5" d="M972.26,700c-34.22.45-39.06,4.3-52.57,19.91-10.34,12-13.38,35-11.07,53.54,6.27-3.25,13.27-4.83,20.25-6,21.24-3.46,42.89-3.09,64.41-2.7,41.62.74,83.24,1.48,124.84,2.91-5.88-31-25-55.2-53.2-60.58a221,221,0,0,0-24.69-3.27q-34-2.13-68-3.85" transform="translate(-848.4 -699.45)"/><path class="cls-5" d="M972.26,699.46c-13.21.19-29-.31-40.37,7.67-4.53,3.19-8.23,7.41-11.84,11.57-5.54,6.36-8.68,14.17-10.51,22.34a96.2,96.2,0,0,0-1.42,32.37.51.51,0,0,0,.75.43c11.93-6,26.28-7.18,39.41-8.09,13.35-.92,26.74-.81,40.11-.59q41.4.69,82.8,1.64,23.46.57,46.93,1.36a.51.51,0,0,0,.48-.63c-3.81-19.69-13.36-38.93-30-50.83-8.2-5.87-17.41-9.09-27.29-10.78-12.87-2.2-25.81-2.92-38.83-3.69q-25.11-1.5-50.24-2.77c-.64,0-.64,1,0,1q21.19,1.06,42.36,2.3c13.33.78,26.73,1.21,40,3.11,10.27,1.47,20.16,3.5,29.19,8.85A65.5,65.5,0,0,1,1104.69,735a89.87,89.87,0,0,1,12.94,32.81l.49-.63c-28.29-1-56.59-1.63-84.89-2.18q-21-.4-41.9-.77c-13.7-.24-27.42-.43-41.1.41-13.92.86-29.22,2-41.86,8.36l.75.43a97.67,97.67,0,0,1,.64-28.36c1.48-8.48,4.18-17.32,9.68-24.11,6.85-8.44,14.39-15.71,25.26-18.21,9-2.06,18.41-2.14,27.56-2.27a.5.5,0,0,0,0-1Z" transform="translate(-848.4 -699.45)"/><path class="cls-2" d="M952.7,699.91c-15,1.25-28.13,10.59-36.09,23.08-9.57,15-11.41,33.49-9.05,50.79.08.64,1.05.37,1-.26-2.29-16.8-.52-34.71,8.55-49.39,7.72-12.49,20.77-22,35.63-23.22.63,0,.64-1,0-1Z" transform="translate(-848.4 -699.45)"/><path class="cls-2" d="M952.7,700.91c13.37-.5,26.76-.68,40.14-.16,11.42.45,22.81,1.4,34.2,2.34,7,.58,14,1.15,20.93,1.67a82.7,82.7,0,0,1,22.31,4.62c6.21,2.22,12.6,4.52,18.12,8.17a56.13,56.13,0,0,1,13.4,12.74c8.57,11.15,13.81,24.69,16.55,38.39.13.63,1.09.37,1-.26a97.07,97.07,0,0,0-13.73-34.55,57.56,57.56,0,0,0-26.71-22.24c-6.86-2.79-13.88-5.51-21.19-6.87s-14.7-1.37-22-2c-12.26-1-24.53-2.12-36.82-2.77-15.38-.81-30.78-.69-46.17-.12-.65,0-.65,1,0,1Z" transform="translate(-848.4 -699.45)"/><path class="cls-6" d="M918,737.44a8.7,8.7,0,0,0-6.72,3.18c-.81-1.58-3-2-4.66-1.27a10.85,10.85,0,0,0-3.94,3.48l-2.75,3.4-.85,1-5.21,6.44A122.45,122.45,0,0,0,883.39,768c-2.07,3.49-3.81,7.76-2.22,11.49s6,5.5,10,6.49a78.75,78.75,0,0,0,26.05,1.94,18.86,18.86,0,0,1,3.6-.12c.75.08,1.49.26,2.23.38a28.82,28.82,0,0,0,4.45.26l15.78.13c6,0,12,.09,17.9-1.05l-1.2,1a3.19,3.19,0,0,0,2.12,1.83,1.23,1.23,0,0,0-.32,2.19,2,2,0,0,0-1,3c-.1-.89-1.73-.29-1.56.59s1.18,1.29,2.06,1.49a26.25,26.25,0,0,0,9.18.54,4.48,4.48,0,0,0,2.27-.75,1.68,1.68,0,0,0,.51-2.14c-.44-.67-1.74-.55-1.86.25a15.12,15.12,0,0,0,1.74-1.44A3.26,3.26,0,0,0,970.9,793a1.8,1.8,0,0,0,1-1.12.88.88,0,0,0-.79-1.08c.31.38,1,.07,1.18-.38s.18-1,.42-1.41.82-.75,1.26-1.11c1.86-1.56,1.11-4.83-.84-6.29s-4.54-1.63-7-1.73l-3.32-.15a1.87,1.87,0,0,0-1.3.27c-.32.27-.41.71-.63,1.07-.85,1.41-2.94,1-4.58.85-2.58-.18-5.08,1-7.66,1.17a22.82,22.82,0,0,1-4.74-.26c-8.54-1.07-17.17-2-25.74-1.17a33.57,33.57,0,0,1-6.09.32c-2.25-.2-4.4-1-6.63-1.32-5.08-.82-10.65.43-15.17-2a4,4,0,0,1-1.46-1.19,3.55,3.55,0,0,1-.53-2c0-2.43,1.53-4.56,3-6.51l11-14.79a7,7,0,0,1,1.94-2c1.17-.7,2.61-.66,3.94-.92S911,750,911,748.65a8.64,8.64,0,0,0,4.9,5.6,4.68,4.68,0,0,0,2.41.42c2.51-.33,3.68-3.27,4-5.77a29.88,29.88,0,0,0,.18-6.27,7.92,7.92,0,0,0-1-3.78,3.29,3.29,0,0,0-3.36-1.57" transform="translate(-848.4 -699.45)"/><path class="cls-6" d="M918,736.94a9.65,9.65,0,0,0-7.08,3.32l.79.1c-1.55-2.33-4.53-2.22-6.65-.7a23.28,23.28,0,0,0-4.11,4.52l-4.83,6c-3.14,3.88-6.35,7.73-9.28,11.78-2.72,3.76-5.92,8.06-6.62,12.79C878.9,783.38,888,786,894.7,787.28a80,80,0,0,0,15,1.49c2.51,0,5-.13,7.49-.34s5,.27,7.61.45c6.1.42,12.33.15,18.45.2a96.21,96.21,0,0,0,18-1.07l-.49-.84-1.2,1a.51.51,0,0,0-.08.61,4.29,4.29,0,0,0,2.43,2.07l-.12-.92a1.73,1.73,0,0,0-.42,3l.1-.78a2.52,2.52,0,0,0-1.22,3.65c.3.58,1.14.07.86-.5-.63-1.3-2.55-.49-2.49.84.12,2.66,5.93,2.62,7.59,2.68,2,.08,7.48.48,7.6-2.7a1.56,1.56,0,0,0-3-.85c-.19.4.25,1,.69.69.64-.48,1.24-1,1.84-1.52a.51.51,0,0,0,0-.71,4.27,4.27,0,0,0-2.42-1.21l.12.91c1.27-.81,1.91-2.53.11-3.11-.53-.17-.91.68-.39.91.82.36,1.23.17,1.82-.5s.57-1.48,1.14-2.1,1-.76,1.32-1.45c1.29-2.52-.51-5.46-2.78-6.62a13.46,13.46,0,0,0-5.38-1.14c-1.77-.11-4-.62-5.69.14-1.27.59.44,1.38-2.37,2a10.77,10.77,0,0,1-2.59-.15c-2.63-.09-5.07,1-7.66,1.17a38.75,38.75,0,0,1-7.59-.61c-2.85-.34-5.71-.65-8.57-.85a98.7,98.7,0,0,0-16.49.25c-5,.46-9.66-1.4-14.63-1.55a45.56,45.56,0,0,1-7.2-.41,12,12,0,0,1-3.64-1.23c-2.41-1.38-1.76-4.29-.66-6.34a57.2,57.2,0,0,1,5-7l5.5-7.4a39.21,39.21,0,0,1,3.11-4.11c1.37-1.41,3-1.23,4.78-1.68,1.58-.41,2.83-1.18,3.22-2.82h-1c1.53,4.81,8.57,9.65,11.47,3.2,1.61-3.58,2.85-16-3.87-15.21-.64.08-.64,1.08,0,1,5.23-.58,4.28,9.52,3.39,12.58-.82,2.87-2.81,4.81-6,3.16a8.28,8.28,0,0,1-4-5,.51.51,0,0,0-1,0c-.68,2.93-4.57,1.91-6.58,3.09-1.52.9-2.54,2.75-3.56,4.12-3.18,4.28-6.39,8.54-9.54,12.84-1.69,2.3-4.38,6.12-2.45,9.06,1.76,2.68,6.43,3,9.27,3.07,2.3.1,4.62,0,6.92.3s4.41,1,6.66,1.33c4.75.63,9.77-.58,14.56-.54A143,143,0,0,1,941.57,783a32.84,32.84,0,0,0,7.53.51c2.45-.28,4.76-1.19,7.24-1.12,1.44,0,3.21.53,4.46-.47.63-.51.68-1.07,1.44-1.46,1-.54,2.76-.17,3.93-.11,3.09.15,7.74.52,8.29,4.4.24,1.72-.93,2.23-1.74,3.45-.26.39-1.27,2.17-1.34,2.14l-.39.91-.35,1.29c-.32.21-.33.84.12.91,1.47.25,1.63.65.34,1.61l.69.69c.07,1.36-.42,2-1.48,1.88a14.28,14.28,0,0,1-1.72.16,26.6,26.6,0,0,1-6.31-.47c-1.31-.27-1.3-.18-2-1.55l.86-.5L962,793a.49.49,0,0,0,.1-.78l.22-1.4c.44-.2.23-.78-.12-.92-1.55-.77-1.78-1.43-.7-2,.42-.35,0-.92-.49-.84-8.9,1.64-18.12,1-27.13,1-2.28,0-4.57,0-6.85,0-2.1,0-4.1-.43-6.18-.63-4.09-.4-8.41.51-12.55.43A80,80,0,0,1,895,786.32c-3.59-.71-7.58-1.47-10.6-3.69-8.46-6.2,1.42-17.87,5.79-23.5,3-3.88,6.15-7.67,9.24-11.49,1.88-2.32,8-11.9,11.42-6.77a.5.5,0,0,0,.78.1,8.67,8.67,0,0,1,6.37-3,.5.5,0,0,0,0-1Z" transform="translate(-848.4 -699.45)"/><path class="cls-6" d="M1056.74,777.06c-9.09,5.06-19.93,5.57-30.33,5.75q-26.61.45-53.19-.92a1.77,1.77,0,0,0-1.32.29,1.7,1.7,0,0,0-.39,1c-.29,2.18,0,4.9,2.06,5.76a5.78,5.78,0,0,0,2.84.19c14.53-1.36,29.17-.12,43.77-.11,5.34,0,10.69-.16,16-.33a66.68,66.68,0,0,0,12.78-1.21c5.8-1.31,11.13-4.13,16.37-7a38.81,38.81,0,0,0,7.45-4.76,74.26,74.26,0,0,1-15.4,1c-.3,0-.69-.1-.73-.4s.61-.18.38,0" transform="translate(-848.4 -699.45)"/><path class="cls-6" d="M1056.48,776.63c-12.31,6.66-27.34,5.75-40.91,5.79q-10.85,0-21.68-.24-5.42-.13-10.83-.34l-4.92-.21c-1.64-.07-4-.61-5.63-.22-2.94.72-1.65,6.29.19,7.64s4.61.52,6.62.37c3.71-.26,7.44-.37,11.16-.39,14.32-.09,28.58.7,42.9.28,7.43-.22,14.67-.42,21.67-3.18,6.21-2.46,13-5.67,18.11-10,.43-.36,0-.91-.48-.84-1,.17-16.09,1.81-16.12,1.14,0,.64,1,.65,1,0v-.15a.51.51,0,0,0-.5-.5c-.43,0-.56.05-.81.39a.5.5,0,0,0,.08.61c1.25,1.42,5.19.59,6.88.52a77.56,77.56,0,0,0,9.73-1l-.48-.84c-4.61,3.87-10.64,6.71-16.14,9.09-6.19,2.67-12.51,3.45-19.19,3.66-12.82.42-25.56.17-38.38-.09-6.31-.13-12.64-.14-19,.29a37.91,37.91,0,0,1-4.12.33c-2.48-.1-3.6-1.36-3.75-3.65a1.94,1.94,0,0,1,.65-2c.91-1,1.32-.67,2.61-.61l4.92.23q19.68.84,39.4.68c12.6-.11,26.07.26,37.48-5.91.57-.31.06-1.17-.51-.86Z" transform="translate(-848.4 -699.45)"/><path class="cls-6" d="M962.45,799.19c-.28,5.78-.29,11.56-.31,17.35,0,13.68,0,27.47,2.7,40.87,3.06,14.85,9.46,28.81,16.54,42.23a5.06,5.06,0,0,1,.81,2.44c0,1.24-.92,2.29-1.18,3.51-.41,2,1,4,2.89,4.83a11.94,11.94,0,0,0,6,.62c2.21-.19,4.66-.63,6-2.42a5.16,5.16,0,0,0,.3-5.16,8.54,8.54,0,0,0-3.84-3.7,11.51,11.51,0,0,1-2.65-1.55,8.18,8.18,0,0,1-1.63-2.55c-7.74-16.41-15.48-33.24-17.51-51.27a168.22,168.22,0,0,1-.59-21.54l.37-23.9c0-.28,0-.61-.26-.75a.81.81,0,0,0-.49,0l-5.8.74a4.31,4.31,0,0,1,.65-2.47" transform="translate(-848.4 -699.45)"/><path class="cls-6" d="M962,799.19c-.43,9.27-.39,18.58-.29,27.86a172.07,172.07,0,0,0,2.08,27.21,121.46,121.46,0,0,0,7.55,25.36c1.58,3.83,3.3,7.61,5.11,11.33q1.4,2.88,2.87,5.71c.48.94,1,1.86,1.47,2.82,1.15,2.56.7,3.12,0,5.2-2.21,6.9,7.55,7.59,11.91,6.42,2.45-.65,4.39-2.32,4.5-5,.12-3.07-2.09-5.39-4.62-6.78a8.85,8.85,0,0,1-3-2,12.62,12.62,0,0,1-1.52-2.74q-1.49-3.14-2.93-6.28c-2-4.31-3.92-8.65-5.69-13a127.68,127.68,0,0,1-7.66-25.51c-1.91-10.85-1.43-21.9-1.27-32.85l.25-15.94c0-.93.41-2.55-.54-3.19-.52-.36-1.59,0-2.13.1-1.25.16-4.5,1.34-3.27-1.17.29-.57-.58-1.08-.86-.5a6.44,6.44,0,0,0-.72,2.72.5.5,0,0,0,.5.5c1-.13,5.27-1.21,5.93-.59.39.37.09,2.08.08,2.63l0,3.49-.2,12.94c-.13,8.51-.46,17.07.4,25.55,1.57,15.48,7.37,30.07,13.78,44.11.84,1.82,1.68,3.64,2.54,5.46a25.17,25.17,0,0,0,2.49,4.91c2.33,3,7.34,3.05,7.47,7.82.14,5.07-7.81,5.67-11.35,4.52a4.47,4.47,0,0,1-3.18-3.17c-.27-1.3.25-2.16.64-3.38a4.43,4.43,0,0,0,0-3.41c-1.39-3.36-3.4-6.55-5-9.83-1.85-3.79-3.59-7.62-5.19-11.52a122.14,122.14,0,0,1-6.94-22.59c-1.87-9.48-2.35-19.17-2.47-28.81-.12-9.44-.15-18.91.28-28.34,0-.64-1-.64-1,0Z" transform="translate(-848.4 -699.45)"/><path class="cls-6" d="M983,909a22.56,22.56,0,0,0-1.61,4.73,2.21,2.21,0,0,0,.1,1.7,2,2,0,0,0-1.91,2.77,18.34,18.34,0,0,0-4.5-.24,2.8,2.8,0,0,0-1.56.46,2.86,2.86,0,0,0-.77,2.32c-.06,7.12,2.63,14.17,1.74,21.24a9.15,9.15,0,0,1-.08-2.86,33.23,33.23,0,0,1-.9,3.6c-2.14,6-9.13,9.1-11.22,15.06a2.73,2.73,0,0,0-.1,2,4.21,4.21,0,0,0,1,1.13c2.26,2.13,2.59,5.74,4.82,7.88,1.62,1.55,4.07,2.17,5.29,4,.93,1.42.93,3.24.9,4.93l-.3,16.67c0,2,.19,4.47,2,5.32a5.29,5.29,0,0,0,1.89.36,151.05,151.05,0,0,0,24-.43,3.11,3.11,0,0,0,1.75-.53,2.87,2.87,0,0,0,.81-1.68c1.23-6-1.58-12-1.53-18.12a10.89,10.89,0,0,1,.56-3.63,15.09,15.09,0,0,1,2.73-4.2l9.3-11.31a3.56,3.56,0,0,0,1-2c.1-1.43-1.38-2.36-2.36-3.4-1.35-1.45-1.87-3.48-2.94-5.15-1.39-2.17-3.63-3.62-5.77-5.06a2.71,2.71,0,0,1-.94-.87,2.8,2.8,0,0,1-.27-1.19,101.06,101.06,0,0,0-2-13.84l.88,3.14A88.84,88.84,0,0,0,1004.2,920a1.69,1.69,0,0,0-1.73-2.16,28.64,28.64,0,0,0-5.4-.3,3.24,3.24,0,0,0-3.25-2.44c1.83-.85,1.53-3.82-.09-5s-3.82-1.19-5.84-1.1l-3.86.16" transform="translate(-848.4 -699.45)"/><path class="cls-6" d="M982.53,908.7c-.84,1.9-2.33,4.71-1.56,6.81l.49-.63a2.5,2.5,0,0,0-2.39,3.41l.61-.62c-1.8-.28-4.54-.86-6.21.13s-1.28,3.19-1.21,4.74c.32,6.52,2.39,12.83,1.7,19.39l1-.13a8.63,8.63,0,0,1-.07-2.73.5.5,0,0,0-1-.14,17.07,17.07,0,0,1-4,8.44c-1.82,2-3.92,3.84-5.64,6-1.12,1.39-2.47,3.22-2.68,5a2.69,2.69,0,0,0,.7,2.31,18.71,18.71,0,0,1,2.76,4c1,2.07,1.87,4,3.78,5.29,1.37,1,3.1,1.57,4.06,3,1.08,1.63.85,3.8.82,5.65-.06,3.6-.14,7.19-.2,10.79-.05,2.7-.67,6.11.43,8.69a3.73,3.73,0,0,0,3.24,2.34,73.37,73.37,0,0,0,11.2.33q5.28,0,10.54-.45c2.12-.17,4.73.16,5.71-2.1s.57-5.37.25-7.73c-.47-3.46-1.44-6.87-1.55-10.39-.14-4.59,2.27-7.29,5-10.61,2.47-3,5.13-5.93,7.45-9.05,1.29-1.74,1.54-3.06,0-4.74a16.69,16.69,0,0,1-2.86-3.72,18,18,0,0,0-2.38-4,17.68,17.68,0,0,0-3-2.59,15.62,15.62,0,0,1-1.93-1.32c-1.23-1.26-1-2.83-1.21-4.42a108,108,0,0,0-1.81-11.18l-1,.26.88,3.14c.13.44.88.51,1,0,.49-2.91.87-5.83,1.08-8.77.1-1.4.78-4.06-.42-5.22a4.25,4.25,0,0,0-2.52-.76c-1.1-.13-3.32.21-4.23-.41-.45-.3-.72-1.11-1.23-1.48a4.05,4.05,0,0,0-2.3-.73l.25.93a3.53,3.53,0,0,0,.46-5.4c-2.42-2.67-7.39-1.64-10.5-1.51-.64,0-.65,1,0,1,1.91-.08,3.87-.27,5.78-.18a5.38,5.38,0,0,1,3.64,1.17c1.09,1,1.89,3,.11,4.06a.5.5,0,0,0,.26.93,2.77,2.77,0,0,1,2.77,2.07.51.51,0,0,0,.48.37,16.91,16.91,0,0,1,4.44.18c2.4.62,2.18,2.48,2,4.52a90.3,90.3,0,0,1-1.07,9h1l-.88-3.14a.5.5,0,0,0-1,.26c.71,3.31,1.28,6.64,1.67,10,.21,1.88-.16,4.32,1.23,5.78,1.9,2,4.58,2.87,6.17,5.3.68,1.05,1.1,2.23,1.7,3.32a25.47,25.47,0,0,0,2,2.59c1,1.39,2.3.4.66,4a11,11,0,0,1-1.55,1.89l-2.79,3.39c-2,2.47-4.2,4.88-6.09,7.45-3.3,4.47-2.26,9.61-1.32,14.72.52,2.84,1.44,6.36.67,9.25-.71,2.72-2.8,2.71-5.06,2.89-1.91.14-3.83.26-5.75.33q-4.78.19-9.59.08c-3-.07-8.21.69-9-3.06-.62-2.89-.08-6.28,0-9.22.05-3.27.15-6.54.17-9.81,0-2,0-4.08-1.37-5.71s-3.48-2.18-5-3.61c-2-1.9-2.88-5.07-4.34-7.36-.73-1.16-1.85-.29-1.28-3.19a7.8,7.8,0,0,1,1.12-2.28,22.45,22.45,0,0,1,2.9-3.56,65.08,65.08,0,0,0,5.13-5.5,17.64,17.64,0,0,0,3-7.32l-1-.13a13.68,13.68,0,0,0,.1,3c.08.6.93.38,1-.14.45-4.25-.2-8.39-.87-12.58a63.47,63.47,0,0,1-.85-7.27c-.06-1.72-.38-3,1.81-3.67,1.21-.36,3.2.05,4.36.23.35.05.75-.22.62-.62l1.43-2.14a.51.51,0,0,0,.48-.64c-.63-1.71.8-4.55,1.46-6,.25-.58-.61-1.09-.87-.5Z" transform="translate(-848.4 -699.45)"/><path class="cls-6" d="M974.82,998.33a32,32,0,0,0-23.08,15.39,20.37,20.37,0,0,0-16.41,3.47q-8.18,3.63-16.19,7.6c-2.55,1.26-5.52,3.42-4.84,6.18-2.79.15-5.17,2.29-6.4,4.8a23.71,23.71,0,0,0-1.82,8.15c-.24,2.26-.45,4.64.5,6.71,1.34,2.91,4.59,4.37,7.61,5.45,22.15,7.9,46.19,8.51,69.7,7.89q30.09-.81,60.05-4.1c9.19-1,18.67-2.31,26.63-7a6.81,6.81,0,0,0,2.6-2.33c.76-1.38.57-3.06.36-4.62-.78-5.74-2-12.22-6.9-15.32a22.74,22.74,0,0,1-3.34-2.07,18.47,18.47,0,0,1-1.9-2.32c-2.19-2.78-5.4-4.53-8.61-6a84.24,84.24,0,0,0-25.69-7.14c-1.38-5-5.7-8.76-10.48-10.78s-10-2.55-15.19-3.06l-14.63-1.45" transform="translate(-848.4 -699.45)"/><path class="cls-6" d="M974.69,997.85a32.82,32.82,0,0,0-16.25,7.22,31.75,31.75,0,0,0-5.92,6.49c-1.19,1.72-1.61,1.41-3.5,1.25a21,21,0,0,0-13,3.28c-3.16,2.06-7,3.37-10.38,5-3.82,1.81-12.71,4.34-11.84,10l.48-.63c-3.77.42-6.32,3.25-7.52,6.71a29.6,29.6,0,0,0-1.2,6.74c-.23,2.29-.46,4.74.54,6.9,1.6,3.45,5.46,4.88,8.81,6a124.09,124.09,0,0,0,16.51,4.43c22.7,4.51,46.23,3.67,69.21,2.53q18.24-.91,36.41-2.74c10.31-1,21.2-1.72,30.71-6.2,1.83-.87,4-1.83,5.36-3.45s1.16-3.35.95-5.16c-.46-3.89-1.13-8-3-11.49a12.45,12.45,0,0,0-3.52-4.18,26.1,26.1,0,0,0-2.39-1.44,12.68,12.68,0,0,1-3.42-3.35c-2.93-3.55-7.2-5.5-11.37-7.24a84.5,84.5,0,0,0-18.58-5.38c-1.1-.18-2.78-.08-3.79-.55s-1.27-2-1.75-2.9a17.44,17.44,0,0,0-4.75-5.26c-4.22-3.19-9.45-4.47-14.6-5.18-6.67-.91-13.41-1.39-20.11-2.06-.64-.06-.63.94,0,1,7.82.78,15.89,1.07,23.59,2.65,6.93,1.43,14,5.06,16.22,12.28a.53.53,0,0,0,.49.36,84.54,84.54,0,0,1,25.43,7.07,24.79,24.79,0,0,1,9.38,7.07c2.2,2.66,5.65,3.49,7.62,6.45,1.86,2.79,2.63,6.19,3.17,9.45.33,2,1.08,4.78,0,6.67s-3.68,2.93-5.48,3.77c-7.43,3.5-15.74,4.52-23.82,5.4q-26.49,2.91-53.14,3.85c-16.94.6-34,.81-50.85-1.61-9.06-1.3-18.57-3.16-27-6.8-2-.85-4-2-5.1-3.88-1.32-2.25-1-5-.71-7.48.51-4.81,1.8-11.37,7.68-12a.5.5,0,0,0,.48-.63c-.58-3.87,4.86-5.75,7.57-7.07q4.88-2.35,9.8-4.6c3-1.36,5.74-3.34,8.87-4.38a20.23,20.23,0,0,1,10.58-.58.54.54,0,0,0,.57-.23A31.81,31.81,0,0,1,975,998.82c.64-.1.37-1.06-.26-1Z" transform="translate(-848.4 -699.45)"/><g class="cls-7"><path class="cls-8" d="M975.44,766a18.82,18.82,0,0,0,12.8,9.31,30.28,30.28,0,0,0,5.38.44,37.15,37.15,0,0,0,12.81-1.7,17.78,17.78,0,0,0,9.89-8c-8-.73-32.19-.74-40.88-.09" transform="translate(-848.4 -699.45)"/><path class="cls-9" d="M975,766.27c4.31,7.48,11.74,10.07,20,10s17.33-2.18,21.74-9.91a.5.5,0,0,0-.43-.75c-6.7-.58-13.47-.55-20.19-.56-6.89,0-13.81,0-20.69.47-.63,0-.64,1,0,1,6.88-.5,13.8-.48,20.69-.47,6.72,0,13.49,0,20.19.56l-.43-.75c-4.23,7.41-12.94,9.34-20.88,9.41s-15-2.32-19.13-9.5a.5.5,0,0,0-.87.51Z" transform="translate(-848.4 -699.45)"/></g><g class="cls-10"><path class="cls-11" d="M957.81,700.47a5.19,5.19,0,0,0,.12,5.53,15.14,15.14,0,0,0,4.15,4.06c5.25,3.94,10.64,7.87,14.63,13.07,7.92,10.3,9.5,24.36,17.21,34.81a15.94,15.94,0,0,0,5.53,5.06c2.48,1.23,5.33,1.39,8.09,1.54,13.07.68,27,1.26,40.1,1,8.84-.18,17.63.81,26.24.39a9.06,9.06,0,0,0,4.93-1.77,10.19,10.19,0,0,0,3.1-4.48,25.88,25.88,0,0,0,0-19.23c-1.7-4.25-4.51-8-7.31-11.57-3.52-4.57-7.09-9.11-10.66-13.65-3.22-4.1-6.71-8.4-11.64-10.11a27.66,27.66,0,0,0-6.54-1.13c-28.87-2.52-59-4.2-88-3.52" transform="translate(-848.4 -699.45)"/><path class="cls-11" d="M957.38,700.22c-2.24,3.85.7,7.37,3.68,9.69,4.28,3.34,8.74,6.41,12.51,10.35,7.29,7.6,10,17.71,14,27.16a47.63,47.63,0,0,0,6.88,12.07c3,3.65,6.71,5.1,11.38,5.45,12,.88,24.09,1.2,36.11,1.16,6,0,11.91-.05,17.88.19,2.91.11,5.82.23,8.73.25,2.49,0,5.24.23,7.65-.53,4.3-1.35,6.17-5.37,7.22-9.45a26.56,26.56,0,0,0-.44-14.63c-1.61-5-4.79-9.21-8-13.31q-5.17-6.71-10.44-13.36c-2.91-3.71-6-7.64-10.25-9.81s-9.59-2.05-14.3-2.44c-27.36-2.27-54.82-3.66-82.28-3a.5.5,0,0,0,0,1c21.82-.49,43.65.29,65.42,1.76q8.19.56,16.38,1.24c5.21.43,11,.23,15.61,3.1,4,2.49,6.77,6.42,9.61,10,3.5,4.45,7,8.89,10.44,13.39,3.09,4.07,6,8.33,7.27,13.35a25.09,25.09,0,0,1-1.37,16.32c-2.77,6-8.84,5.46-14.5,5.35s-11.05-.48-16.57-.49c-10.73,0-21.42,0-32.14-.48-5.17-.23-11,.19-16.06-1.18s-8.11-6-10.51-10.35c-4.87-8.85-6.95-19-12.43-27.54a46.29,46.29,0,0,0-10.06-10.8c-1.92-1.56-3.9-3-5.88-4.53-2.84-2.14-7.13-5.37-4.78-9.42a.5.5,0,0,0-.86-.5Z" transform="translate(-848.4 -699.45)"/></g><g class="cls-12"><path class="cls-13" d="M977.22,701.49a2.31,2.31,0,0,0,.08,3,9.4,9.4,0,0,0,2.81,2.18c3.55,2.11,7.19,4.22,9.89,7,5.35,5.52,6.42,13.07,11.64,18.68a10.19,10.19,0,0,0,3.73,2.71,17.12,17.12,0,0,0,5.48.83c8.83.36,18.26.68,27.11.54,6-.1,11.92.43,17.74.21a7.36,7.36,0,0,0,3.34-1,5.61,5.61,0,0,0,2.09-2.41,11.26,11.26,0,0,0,0-10.32,26.73,26.73,0,0,0-5-6.21c-2.38-2.45-4.79-4.89-7.2-7.32-2.18-2.2-4.54-4.51-7.87-5.43a22.4,22.4,0,0,0-4.43-.6c-19.52-1.36-39.91-2.26-59.5-1.9" transform="translate(-848.4 -699.45)"/><path class="cls-13" d="M976.79,701.24c-1.1,1.72-.31,3.33,1.13,4.55,2.58,2.18,5.9,3.51,8.62,5.54,6.09,4.52,8,11.23,11.8,17.43a18.06,18.06,0,0,0,5.36,6c2.68,1.67,5.94,1.57,9,1.69,7.81.32,15.63.56,23.44.49,3.75,0,7.49,0,11.24.15,3.41.1,7.82.83,11.05-.55,4.69-2,5.3-8.8,3.59-13-1.15-2.81-3.34-5-5.42-7.19-2.72-2.81-5.43-5.63-8.23-8.34a17.51,17.51,0,0,0-6.32-4.3c-3.43-1.2-7.42-1-11-1.24-17.91-1.15-35.86-1.83-53.81-1.52-.64,0-.65,1,0,1,13.47-.23,26.94.09,40.4.75,6.66.33,13.36.59,20,1.21a14.71,14.71,0,0,1,9,3.8c2.35,2.08,4.48,4.44,6.68,6.67,4.85,4.94,11.47,11.05,7.44,18.6-1.93,3.61-6.07,3.2-9.62,3.15s-6.86-.22-10.29-.26c-6.57-.07-13.13,0-19.7-.16-3.11-.09-6.22-.21-9.33-.33-3.82-.16-7-.5-9.77-3.43-4.34-4.62-5.87-11-9.5-16.11a25.07,25.07,0,0,0-6.15-5.92c-1.79-1.27-10.61-5.22-8.69-8.21.35-.55-.52-1-.86-.51Z" transform="translate(-848.4 -699.45)"/></g><g class="cls-14"><path class="cls-13" d="M888.26,778.38c5.2,4.71,12.66,5.79,19.66,6.35a240.09,240.09,0,0,0,48.61-1.09c2.72-.34,6.22-.3,7.28,2.23a65.66,65.66,0,0,1,10.68,0l.41-1.94a469.8,469.8,0,0,0,76.23-.8c7.15-.66,14.86-1.75,20-6.8-5.73-.94-11.64.19-17.11,2.14-2.87,1-5.66,2.28-8.59,3.12-5.3,1.52-10.89,1.64-16.4,1.7-16.57.18-33.15-.08-49.72-.34a16.08,16.08,0,0,1-5.17-.66c-2.2-.79-4-2.53-6.3-3-3.34-.71-6.55,1.42-9.82,2.41-3.09.94-6.39.85-9.62.76q-28.71-.79-57.44-1.65" transform="translate(-848.4 -699.45)"/><path class="cls-13" d="M887.91,778.73c4.07,3.53,9.13,5.11,14.39,5.89A158.51,158.51,0,0,0,922,785.93q10.72.21,21.42-.52,5.34-.37,10.67-1c2.88-.33,7.58-1.5,9.27,1.69a.47.47,0,0,0,.43.25,70.51,70.51,0,0,1,10.68,0A.5.5,0,0,0,975,786c.38-1.83,1.29-1.48,2.88-1.38l3,.18c2.31.14,4.62.25,6.93.35q6.43.29,12.88.38,13.64.22,27.26-.36c8.64-.36,17.33-.85,25.93-1.83,6.37-.72,12.82-2.13,17.61-6.67a.51.51,0,0,0-.22-.84,35,35,0,0,0-15.63,1.56c-5.88,1.86-11.18,4.38-17.41,5-6,.6-12.11.43-18.14.44q-9.45,0-18.89-.09-9.2-.11-18.4-.26c-3.29-.05-6.8.26-9.81-1.28-2-1-3.65-2.36-5.91-2.56s-4.32.69-6.33,1.49a24.4,24.4,0,0,1-8.8,1.85c-6.12.12-12.28-.29-18.39-.46l-42.59-1.24c-.64,0-.64,1,0,1l37.14,1.08,18.32.52a65.34,65.34,0,0,0,8.16,0,30.75,30.75,0,0,0,7.64-2.23,9.34,9.34,0,0,1,8.89.67,14.1,14.1,0,0,0,6.45,2.1c5.86.38,11.8.21,17.66.28,12.49.17,25,.41,37.49.05a51.86,51.86,0,0,0,17.6-3.31c6.69-2.58,13.43-4.65,20.69-3.61l-.22-.84c-5.41,5.12-13,6-20.1,6.7q-12.59,1.15-25.22,1.61a475.69,475.69,0,0,1-50.52-.85.5.5,0,0,0-.48.37c-.34,1.6-.89,1.49-2.35,1.43-1.14-.05-2.27-.07-3.41-.06-1.39,0-3.56.58-4.78-.16-.79-.48-1.08-1.15-2.06-1.52a9.25,9.25,0,0,0-3.66-.45c-3.77.13-7.56.82-11.32,1.14q-6.32.52-12.64.72a241.07,241.07,0,0,1-24.34-.5c-7.42-.53-15.39-1.27-21.25-6.35-.48-.42-1.19.29-.7.71Z" transform="translate(-848.4 -699.45)"/></g><path class="cls-2" d="M908.17,774.13c14.41-5.56,30.64-7.49,46-8.14,9.57-.4,19.19-.11,28.77-.06,24.35.11,48.71.26,73.06.82,21,.48,41.92,1,62.85,2.3l-.13-1c-26.44,7.63-53.76,8.16-81.06,7.53-28.2-.64-56.42.36-84.63-.28-15-.35-30-1-45-2.17-.64,0-.64,1,0,1,27.2,2.17,54.52,2.55,81.79,2.51,14.44,0,28.88-.34,43.32-.14,13.84.19,27.6.7,41.43-.19A207.23,207.23,0,0,0,1119,769a.5.5,0,0,0-.14-1c-30.94-1.94-62-2.5-93-2.82-22.42-.24-44.87-.66-67.29-.36a187.89,187.89,0,0,0-26.16,2.3c-8.28,1.28-16.63,3-24.47,6-.59.23-.33,1.19.27,1Z" transform="translate(-848.4 -699.45)"/><path class="cls-15" d="M1064.84,766.81c2.83,30.63.75,61.51,1.75,92.26H1065c-1-30.75,1.08-61.63-1.76-92.26" transform="translate(-848.4 -699.45)"/><path class="cls-2" d="M1064.34,766.81c2.2,24.31,1.4,48.73,1.46,73.11,0,3,0,5.89.06,8.84,0,1.47.05,3,.08,4.42s.44,3.45.12,4.91c-.11.51.75.53-.26.48-.62,0-.35,0-.48-.24-.3-.59.07-3.27,0-4.17-.08-3.27-.12-6.55-.15-9.82-.08-12.12.11-24.24.09-36.36,0-13.74-.32-27.48-1.57-41.17,0-.64-1.06-.65-1,0,2.79,30.68.79,61.51,1.76,92.26a.51.51,0,0,0,.5.5h1.59a.5.5,0,0,0,.5-.5c-1-30.75,1-61.58-1.75-92.26-.06-.64-1.06-.65-1,0Z" transform="translate(-848.4 -699.45)"/><path class="cls-6" d="M1067.75,857.57c.87,14.47.32,31.15,0,43.53h-4.07c-.87-14.47-.32-31.15,0-43.53Z" transform="translate(-848.4 -699.45)"/><path class="cls-2" d="M1067.25,857.57c.52,9.12.53,18.25.38,27.37-.07,4.39-.19,8.78-.31,13.17,0,.14,0,2.92.36,2.49a5,5,0,0,1-1.28,0c-.58,0-1.22.06-1.8,0h-.66q-.39.06,0-.18c-.1-.24.09-2.26.06-2.77,0-1.16-.09-2.33-.13-3.5-.07-2.37-.12-4.75-.14-7.12,0-4.58,0-9.16.08-13.73.07-4.25.18-8.49.29-12.74,0-.14,0-2.92-.35-2.49a4.9,4.9,0,0,1,1.27,0h2.73a.5.5,0,0,0,0-1h-4.07a.51.51,0,0,0-.5.5c-.38,14.51-.84,29,0,43.53a.51.51,0,0,0,.5.5h4.07a.51.51,0,0,0,.5-.5c.37-14.51.84-29,0-43.53C1068.21,856.94,1067.21,856.93,1067.25,857.57Z" transform="translate(-848.4 -699.45)"/><g class="cls-14"><path class="cls-13" d="M970,827.28c-.78,4.8-2,9.51-2.13,14.4a52.25,52.25,0,0,0,1.6,13.8c2.32,9.49,6.67,18.34,11.09,27,.3.58,1.13.07.86-.51a120.05,120.05,0,0,1-10.65-52.41c0-.64-1-.64-1,0a121.08,121.08,0,0,0,10.79,52.92l.86-.51c-4.25-8.32-8.42-16.8-10.77-25.89a52.17,52.17,0,0,1-1.79-14c.08-4.94,1.31-9.71,2.11-14.57.1-.63-.86-.9-1-.27Z" transform="translate(-848.4 -699.45)"/></g><g class="cls-14"><path class="cls-13" d="M982.4,902.33a6.43,6.43,0,0,0-1,4.29.74.74,0,0,0,.28.57c.27.16.6-.07.84-.29a17.4,17.4,0,0,1,6.32-4.19c2.43-.77,5.39-.38,7,1.57a7.75,7.75,0,0,0-13.83-2" transform="translate(-848.4 -699.45)"/><path class="cls-13" d="M982,902.08c-.54.93-2.45,6,.2,5.6.38-.06.73-.48,1-.71a27,27,0,0,1,3.6-2.79c2.77-1.59,6.32-2,8.73.45.33.35,1,0,.84-.48A8.37,8.37,0,0,0,981.6,902c-.39.51.48,1,.86.5a7.34,7.34,0,0,1,12.92,1.9l.84-.48a7.21,7.21,0,0,0-7.19-1.79,12.52,12.52,0,0,0-4.22,2.16c-.42.31-1.54,1.6-2,1.68-2.06.33-.42-2.6.05-3.4a.5.5,0,0,0-.87-.5Z" transform="translate(-848.4 -699.45)"/></g><g class="cls-14"><path class="cls-13" d="M977.89,920.26a5.93,5.93,0,0,1,1.55,4c0,1-.23,2.22.51,2.94a3,3,0,0,0,1.92.57,87.14,87.14,0,0,0,13.42,0,1.71,1.71,0,0,0,1-.35,1.75,1.75,0,0,0,.4-1l1.11-6.47a.72.72,0,0,0,0-.54c-.16-.25-.54-.21-.83-.14a39.43,39.43,0,0,1-14.68.63c-1.39-.21-2.94-.44-4.07.38" transform="translate(-848.4 -699.45)"/><path class="cls-13" d="M977.54,920.62c1.3,1.61,1.24,3,1.37,4.91a2.92,2.92,0,0,0,.61,1.92c1.15,1.28,3.72.9,5.23,1a76.56,76.56,0,0,0,9.58,0c1.84-.14,2.6-.36,3-2.26.29-1.54.53-3.08.8-4.62.09-.53.51-1.72.17-2.25-.71-1.08-2.81-.12-3.69,0a39.78,39.78,0,0,1-10,.41c-2.23-.19-4.53-1-6.61.19-.56.31-.06,1.18.51.86,1.89-1,4.53-.16,6.56,0a37.94,37.94,0,0,0,5.54,0c1-.06,1.93-.16,2.89-.29.72-.1,2.11-.66,2.73-.48,1.49.45.87,1.59.68,2.64a15.81,15.81,0,0,1-.55,3.23c-.92,2.17-4.74,1.71-6.78,1.7s-4.16-.1-6.24-.21c-1.7-.08-3-.57-3.39-2.45-.09-.47,0-1,0-1.49a6.81,6.81,0,0,0-1.64-3.49c-.4-.5-1.11.21-.7.71Z" transform="translate(-848.4 -699.45)"/></g><g class="cls-14"><path class="cls-13" d="M1004.62,944.53c-6.14,3-13.57.81-20.14,2.61,2.93,1.17,4.61,4.28,5.47,7.32a6.05,6.05,0,0,1,.3,2.66,2.53,2.53,0,0,1-1.55,2l4.41.25c6.89.38,14.43.56,19.9-3.64a.8.8,0,0,0,.36-.43.83.83,0,0,0-.1-.57,21.51,21.51,0,0,0-8.93-10" transform="translate(-848.4 -699.45)"/><path class="cls-13" d="M1004.37,944.1c-6.32,2.79-13.45.92-20,2.56a.5.5,0,0,0-.12.91,8.63,8.63,0,0,1,3.91,3.72c1,1.67,2.88,6.06.31,7.44a.51.51,0,0,0,.25.94c7.47.45,16.14,1.58,22.93-2.37.75-.43,2-1,2.24-1.95.26-1.1-1.24-3-1.78-3.82a22.65,22.65,0,0,0-7.5-7.17.5.5,0,0,0-.51.86,21.75,21.75,0,0,1,6.94,6.49c.89,1.32,2.24,2.93.77,4.32a11.35,11.35,0,0,1-4.47,2c-6,1.76-12.51,1-18.62.62l.26.93c5.08-2.75-.75-11.28-4.23-12.89l-.12.91c6.69-1.66,13.81.19,20.26-2.66.59-.26.08-1.12-.5-.86Z" transform="translate(-848.4 -699.45)"/></g><g class="cls-14"><path class="cls-13" d="M1028.45,1011.88a2.51,2.51,0,0,1-.28,3.33,7.33,7.33,0,0,1-3.25,1.68l-9.59,3a15,15,0,0,1,5.53,3.63,3.06,3.06,0,0,1,1.12,2.6,12.83,12.83,0,0,1-.76,1.59,7.1,7.1,0,0,0-.21,2.57c-.12,4.51-4.45,7.58-8.32,9.89,1,.8.7,2.48,0,3.58s-1.77,2.1-1.89,3.41a9.75,9.75,0,0,0,.33,2.38c.79,5.1-4.94,8.72-6.72,13.57,20.63-3,42.21-1.09,61.8-8.22,2.21-.81,4.5-1.81,5.88-3.72,2.27-3.15,1.31-7.5.24-11.23-1.3-4.54-3.43-9.84-8.07-10.73a5.15,5.15,0,0,1-2.07-.57,4.29,4.29,0,0,1-1.16-1.53c-3.61-6.35-11.4-8.77-18.46-10.65l-13.14-3.49" transform="translate(-848.4 -699.45)"/><path class="cls-13" d="M1028,1012.13c2.29,3.37-4.37,4.64-6.28,5.24l-6.54,2.07a.51.51,0,0,0,0,1c2.8,1.13,6.32,2.91,5.85,6.55,0,.43-.45,1.09-.52,1.54-.15,1,.05,2-.17,3-.85,3.88-4.78,6.32-7.92,8.22a.5.5,0,0,0-.1.78c1.25,1.43-.33,3.19-1.08,4.33a5.18,5.18,0,0,0-1,2.18,10,10,0,0,0,.28,2.49,6.81,6.81,0,0,1-.61,3.92c-1.59,3.45-4.61,6-6.05,9.53-.16.4.29.66.61.62,20.49-2.86,42.1-.92,61.8-8.22,3.37-1.25,6.59-3,7.42-6.81s-.51-7.83-1.75-11.28c-1-2.86-2.5-6-5.2-7.61-1.86-1.12-4-.87-5.34-2.82a21.5,21.5,0,0,0-3.63-4.28c-3.16-2.65-7.1-4.2-11-5.41-5.7-1.77-11.53-3.14-17.28-4.67a.5.5,0,0,0-.27,1c4.61,1.23,9.22,2.43,13.82,3.68a47.44,47.44,0,0,1,11,4.07,19,19,0,0,1,4.54,3.48c1.13,1.22,1.75,3,3,4.09s2.83.81,4.17,1.47a9.59,9.59,0,0,1,4,4.35,26.94,26.94,0,0,1,3.21,11.57c0,6.11-5.4,7.87-10.33,9.4-9,2.79-18.46,3.88-27.86,4.57-10.18.75-20.39,1.08-30.51,2.49l.61.62c1.69-4.16,6.11-7.2,6.74-11.79a9.94,9.94,0,0,0-.1-2.44c-.25-2.79.41-3,1.59-5,.85-1.41,1.07-2.91-.06-4.18l-.1.78c4.09-2.47,8-5.29,8.57-10.32.14-1.15.46-2.27.7-3.36,0-.25.22-.48.26-.74a3.11,3.11,0,0,0-.68-2.34c-1.42-2.09-4.06-3.51-6.32-4.43v1c3.71-1.18,7.94-2,11.45-3.74,1.95-.95,3.34-3,2-5-.36-.53-1.22,0-.86.51Z" transform="translate(-848.4 -699.45)"/></g><path class="cls-2" d="M905.14,738.71c-3.34,1.37-5.94,4.4-5.28,8.22.77,4.42,5.15,6.3,9.23,5.14,8.62-2.46,4.63-17.12-4.07-13.31-.59.26-.08,1.12.51.87,7.75-3.4,10.61,10.59,2.2,11.66-3.43.44-6.78-1.42-7-5.17-.15-3.06,2-5.35,4.64-6.44.58-.24.33-1.21-.27-1Z" transform="translate(-848.4 -699.45)"/><path class="cls-2" d="M911.85,739.79c1.86-3.06,4.34,1.46,4.75,2.56a13.27,13.27,0,0,1,.69,3.48,11.61,11.61,0,0,1,0,2.7,4.45,4.45,0,0,1-.57,1.94q-1.36,2.61-4.56.09a.5.5,0,0,0-1,.27,3.13,3.13,0,0,0,4.3,2.07c2.46-1,3-3.92,2.87-6.27-.1-2.7-.67-6.18-3-7.94-1.46-1.11-3.35-1.05-4.35.6-.34.55.52,1.05.86.5Z" transform="translate(-848.4 -699.45)"/><path class="cls-2" d="M914.07,738.73c4.56-3.46,5.82,4.3,5.7,7.11a19,19,0,0,1-.67,4.43,9.19,9.19,0,0,1-.8,2.1,1.73,1.73,0,0,1-2.8,1A2.09,2.09,0,0,1,913,752c-.35-.54-1.22,0-.86.51,1.16,1.79,3.36,3.29,5.5,2s2.69-4.8,3-7c.34-2.85.32-6.61-1.56-9a3.84,3.84,0,0,0-5.51-.59c-.5.38,0,1.25.51.86Z" transform="translate(-848.4 -699.45)"/><path class="cls-2" d="M916.55,737.84c2.53-1.44,5.05,0,5.68,2.77a21.72,21.72,0,0,1,.19,6.49c-.16,2-.37,4.6-1.72,6.24-2.27,2.77-5.94,1.83-7.26-1.17-.25-.59-1.11-.08-.86.5a5.24,5.24,0,0,0,6.19,3.17c3.27-.89,4.14-4.31,4.5-7.27s1-7.73-.94-10.4A4.73,4.73,0,0,0,916,737a.5.5,0,0,0,.51.86Z" transform="translate(-848.4 -699.45)"/><path class="cls-2" d="M899.49,746.1c-6.76,8.81-30.75,27.78-14.57,38.75,3.45,2.33,8.09,2.83,12.11,3.39a97.44,97.44,0,0,0,12.31.87c8.67.1,17.32-.25,26,0,8.86.26,17.85.54,26.67-.49.63-.07.64-1.07,0-1-14.6,1.71-29.46.1-44.12.39-8.11.17-16.19.14-24.21-1.32-4.66-.85-8.5-2.08-11.4-6.05-1.63-2.22-2.49-4.48-1.67-7.2a31.1,31.1,0,0,1,2.49-5.63c4.36-8.12,11.71-14,17.26-21.22.39-.51-.48-1-.86-.5Z" transform="translate(-848.4 -699.45)"/><path class="cls-2" d="M905.24,751.43a151.41,151.41,0,0,0-12.86,15.83c-2.5,3.56-7.38,9.22-3.41,13.43.44.47,1.15-.24.71-.71-2.59-2.74-.45-6.24,1.23-8.79q2.16-3.27,4.5-6.41A146.41,146.41,0,0,1,906,752.14c.44-.48-.27-1.18-.71-.71Z" transform="translate(-848.4 -699.45)"/><path class="cls-2" d="M887.59,775.9c.87,3.59,4.56,4.7,7.83,5.13,4.94.66,10.24.48,15.23.51,8.15.06,16.27-.15,24.43.28,8.34.45,16.68,1.19,25,.19.63-.07.64-1.07,0-1-7.51.9-15,.4-22.56,0-7.31-.43-14.62-.57-21.95-.46-5.23.09-10.46-.06-15.69-.17-3.75-.08-10.22-.1-11.33-4.7-.15-.62-1.12-.36-1,.27Z" transform="translate(-848.4 -699.45)"/><path class="cls-2" d="M960.4,781.41a5.51,5.51,0,0,1,1.29,6.74c-.3.57.56,1.07.86.5a6.53,6.53,0,0,0-1.44-7.95c-.49-.42-1.2.29-.71.71Z" transform="translate(-848.4 -699.45)"/><path class="cls-2" d="M961,781c0-2.45,6-1.72,7.41-1.44,2.36.46,5.12,1.19,5.85,3.84a9.12,9.12,0,0,1,.16,2.33l-2.49,3c-.81.31-2.63-.19-3.5-.26L962,788c-.64,0-.64,1,0,1l7.39.58c1.61.13,3.35.54,4.69-.6,1.92-1.65,1.84-5.44.53-7.42-1.52-2.3-5.16-3-7.68-3.25-1.92-.19-6.93-.17-6.89,2.69a.5.5,0,0,0,1,0Z" transform="translate(-848.4 -699.45)"/><path class="cls-2" d="M1056.13,775.8c-4.69,3.93-11.22,4.79-17.14,5.31-5,.44-10,.62-15,.73-11.82.28-23.65.16-35.47-.1-4.8-.11-9.6-.24-14.4-.44-.65,0-.64,1,0,1,10.27.42,20.55.61,30.82.67,11.48.07,23,.16,34.48-.9,6.08-.56,12.59-1.53,17.4-5.56.49-.42-.22-1.12-.71-.71Z" transform="translate(-848.4 -699.45)"/><path class="cls-2" d="M1072.46,775.8c-5,4.35-12,7.47-18.06,9.93-5.36,2.17-10.59,2.59-16.31,2.8-15,.58-29.95.27-44.92.15-6.84-.06-13.68-.16-20.52,0a.5.5,0,0,0,0,1c14.19-.33,28.4.11,42.6.14,7.36,0,14.73,0,22.09-.26,5.69-.2,11.11-.45,16.48-2.53a93.72,93.72,0,0,0,11.32-5.38,47.21,47.21,0,0,0,8-5.14c.48-.42-.23-1.13-.71-.71Z" transform="translate(-848.4 -699.45)"/><path class="cls-2" d="M959.8,788.66c-.51,3.31,3.94,2.33,6.09,2.41,1.62.07,7.9,1.55,7.19-1.67-.13-.63-1.1-.37-1,.26.21,1-5.34.45-5.77.43-.93,0-5.81.34-5.58-1.16.1-.63-.87-.9-1-.27Z" transform="translate(-848.4 -699.45)"/><path class="cls-2" d="M960.42,790.61c-2.81,4.63,3.62,2.71,6.07,2.73,1.65,0,5,.88,6.28-.59a1.36,1.36,0,0,0-.48-2.28c-.56-.32-1.07.55-.5.86a1.62,1.62,0,0,1-2,1.12l-.94,0c-1.09,0-2.18-.12-3.27-.08s-5.65,1-4.28-1.24c.34-.55-.53-1.05-.86-.5Z" transform="translate(-848.4 -699.45)"/><path class="cls-2" d="M960.37,792.62c-.87.92-1.91,2.41-.64,3.51.6.52,1.67.4,2.38.43a45.05,45.05,0,0,0,5.69-.14c1.61-.14,4.89-.12,5.82-1.8a1.55,1.55,0,0,0-.88-2.33c-.6-.24-.86.73-.27,1,1.64.64-2,1.83-2.24,1.87a31.21,31.21,0,0,1-3.85.4q-1.43.08-2.85.06c-.73,0-4.92.35-2.45-2.26.44-.46-.27-1.17-.71-.7Z" transform="translate(-848.4 -699.45)"/><path class="cls-2" d="M959.15,794.54c-.45,1.28-1.9,2.49-.3,3.61a3.53,3.53,0,0,0,1.84.41c1.87.11,3.78,0,5.65,0s3.46,0,5.18,0c.89,0,2,.06,2.64-.66,1.16-1.22.14-2.7-.76-3.72-.43-.48-1.13.23-.71.71L972,797.5h-3.3l-4.71,0c-.92,0-3.55.47-4.23-.08-1-.82.06-1.81.36-2.66.21-.61-.75-.87-1-.26Z" transform="translate(-848.4 -699.45)"/><path class="cls-2" d="M961.29,798.52c-.46,11.29-.32,22.61-.38,33.91a90.19,90.19,0,0,0,1.92,20c1.89,8.69,4,17.51,7.31,25.77a210.64,210.64,0,0,0,11.3,23.15c.31.56,1.17.06.86-.51a225.52,225.52,0,0,1-10.21-20.54c-3.44-8-5.55-16.45-7.56-24.92a91.44,91.44,0,0,1-2.63-22c0-5.1,0-10.2.07-15.3,0-6.51,0-13,.32-19.53,0-.64-1-.64-1,0Z" transform="translate(-848.4 -699.45)"/><path class="cls-2" d="M970.43,798.05c-.44,10.8-.32,21.63-.37,32.44a95.61,95.61,0,0,0,.93,16.39,172.18,172.18,0,0,0,6.43,25.82c3,8.84,7.53,17,12.05,25.16a.5.5,0,0,0,.87-.51c-4.11-7.37-8.28-14.79-11.19-22.73a170.47,170.47,0,0,1-6.6-24.76c-2.23-11-1.5-22.41-1.43-33.58,0-6.08.07-12.16.31-18.23,0-.64-1-.64-1,0Z" transform="translate(-848.4 -699.45)"/><path class="cls-2" d="M989.72,897.52c-4.22.91-9.25,2.61-9.4,7.73,0,1.78.14,4.11,1.6,5.34,1.8,1.53,5,1.36,7.21,1.24,4.08-.23,8.72-1.15,8.11-6.25a9.06,9.06,0,0,0-8-7.9c-.64-.06-.64.94,0,1a8,8,0,0,1,6.83,6.16c1.29,5.35-3.94,5.92-7.82,6-1.49,0-4,.2-5.3-.77-1.65-1.27-2-4.31-1.46-6.23,1-3.69,5.27-4.69,8.49-5.39.63-.14.36-1.1-.27-1Z" transform="translate(-848.4 -699.45)"/><path class="cls-2" d="M981.91,910.62c-2.73,4.62,6.08,3.27,8.16,3.09,1.42-.13,4.48,0,5.33-1.44a1.42,1.42,0,0,0-.92-2.16c-.63-.15-.9.81-.27,1,0,.88-.36,1.3-1.12,1.27l-1.66.23c-1,.12-2.11.21-3.17.26-.85,0-6.89.67-5.48-1.7a.5.5,0,0,0-.87-.51Z" transform="translate(-848.4 -699.45)"/><path class="cls-2" d="M981.62,912.28c-.8,1-2.23,2-.55,3.24a5.16,5.16,0,0,0,2.86.44q2.91.06,5.82.06c1.66,0,5,.25,6.09-1.52a1.5,1.5,0,0,0-1.3-2.34.5.5,0,0,0,0,1A2,2,0,0,1,992,915c-.61,0-1.21.06-1.82.06-1.2,0-2.4,0-3.6,0-1.35,0-6,.21-4.13-2.21.39-.51-.48-1-.86-.5Z" transform="translate(-848.4 -699.45)"/><path class="cls-2" d="M980.72,914.17c-1.26,1.17-3,3.57-1,5,.89.66,2.13.43,3.13.37,2.25-.13,4.48-.31,6.73-.29s6,.66,7.69-1.54-.51-2.51-1.81-3.55c-.49-.4-1.21.3-.71.7-.28-.22.64.46.64.47q1.27.17.06,1.44c0,1-.37,1.43-1.2,1.43-1.4.53-3.69,0-5.15,0-1.77,0-3.53.11-5.29.22-.59,0-2.11.45-2.55.15l-1-2.43a7.33,7.33,0,0,1,1.22-1.33c.47-.44-.24-1.14-.71-.7Z" transform="translate(-848.4 -699.45)"/><path class="cls-2" d="M978.86,917.54c-2.31-.37-4.62-.56-6.4,1.18a.51.51,0,0,0,.35.86,124.14,124.14,0,0,0,16.81.49q4.08-.17,8.15-.61c1.73-.19,3.49-.2,4.82-1.44a.5.5,0,0,0-.22-.83,19.4,19.4,0,0,0-5.58-.56c-.64,0-.64,1,0,1a18.23,18.23,0,0,1,5.31.52l-.22-.83c-1.72,1.6-5.68,1.32-7.94,1.5s-4.8.29-7.2.33a124.6,124.6,0,0,1-13.93-.57l.36.85c1.49-1.46,3.55-1.22,5.42-.92.63.1.9-.87.27-1Z" transform="translate(-848.4 -699.45)"/><path class="cls-2" d="M972.18,919.58c0,2-.59,5.22.19,7.12.57,1.4,2.31,1.43,3.62,1.67a68.4,68.4,0,0,0,17.32,1,66.88,66.88,0,0,0,8-1c1.42-.27,2.94-.49,3.44-2,.59-1.81.14-5-.16-6.83-.23-1.39-.85-2.31-2.32-2.36-.64,0-.64,1,0,1,1.93.06,1.62,4.68,1.56,5.94-.14,2.73-1.47,3.07-3.7,3.46a68.14,68.14,0,0,1-22.49.11c-2.1-.35-4.1-.43-4.43-2.88a39.08,39.08,0,0,1,0-5.19.5.5,0,0,0-1,0Z" transform="translate(-848.4 -699.45)"/><path class="cls-2" d="M973.2,927.14l.06,9.16c0,3,.27,6.21-1.74,8.63-.34.41.1,1.14.6.79,1.23-.85,2.43-.46,3.67-.06l.26-1c-1.25-.05-1.92-.83-2-2.32,0-.64-1-.64-1,0a3,3,0,0,0,2.75,3.28.5.5,0,0,0,.26-1c-1.56-.51-3-.82-4.43.16l.6.78c1.64-2,2-4.29,2-6.79.07-3.9,0-7.81-.07-11.71a.5.5,0,0,0-1,0Z" transform="translate(-848.4 -699.45)"/><path class="cls-2" d="M1003.29,927.79a78.88,78.88,0,0,0-.24,8c0,1.7,1.38,8.32-.7,9.1-.6.22-.37,1.15.26,1a11.39,11.39,0,0,1,3.48-.44c.59,0,.64-.8.13-1l-1.42-1.17c-.34-.54-1.21,0-.87.51a3.58,3.58,0,0,0,2,1.63l.13-1a12.08,12.08,0,0,0-3.74.47l.26,1c2.56-1,1.83-3.64,1.66-5.84a76.7,76.7,0,0,1,0-12.22c.05-.64-.95-.64-1,0Z" transform="translate(-848.4 -699.45)"/><path class="cls-2" d="M971.9,945a33.67,33.67,0,0,0-7.06,7.29c-1.08,1.51-2.06,3.09-3,4.68-.47.79-1.12,1.59-.89,2.56.52,2.23,4.84,2.48,6.55,2.82a63.39,63.39,0,0,0,10.83.88c8,.2,16.07.67,24.07.35a57.87,57.87,0,0,0,11-1.38c2.08-.5,3.8-.86,3.86-3.29a3.24,3.24,0,0,0-.59-2.32c-.75-.92-1.82-1.32-2.49-2.43-.42-.71-.73-1.47-1.08-2.21a16.67,16.67,0,0,0-6.67-7.24.5.5,0,0,0-.51.87,16.41,16.41,0,0,1,6.61,7.51,10.58,10.58,0,0,0,1.86,3c-.09-.09,1.25,1,1.16.9,1.12,1.39,1,2.92-.65,3.73s-3.67.9-5.34,1.16a61.76,61.76,0,0,1-6.22.61c-3.67.19-7.34.12-11,0-7.62-.18-15.64.3-23.18-.93a39.7,39.7,0,0,1-5.4-1.19c-2.84-.87-.8-3.38.19-5a35.74,35.74,0,0,1,8.5-9.63c.5-.39,0-1.26-.51-.86Z" transform="translate(-848.4 -699.45)"/><path class="cls-2" d="M970.05,959c7.91.48,15.83,1,23.75.93,3.88,0,7.75-.15,11.61-.47,2.05-.17,5.08.09,6.37-1.87.35-.54-.52-1-.87-.51-1,1.49-3.48,1.21-5,1.34-1.77.16-3.54.27-5.31.35-3.39.16-6.78.19-10.17.15-6.79-.09-13.58-.51-20.36-.92-.64,0-.64,1,0,1Z" transform="translate(-848.4 -699.45)"/><path class="cls-2" d="M962,961.48c2.7,2.14,3,5.91,5.45,8.24a20.73,20.73,0,0,0,3.25,2.14c2.56,1.64,2.61,3.69,2.52,6.45l-.5,14.18c-.1,2.88-.8,6.55,2.47,7.87s7.42.66,10.72.7c4.72.05,9.47.1,14.19-.13,2.46-.12,4.55-.71,5-3.43a18.15,18.15,0,0,0,.34-5.59,5.15,5.15,0,0,0-.41-1.12,13.43,13.43,0,0,1-.87-4.16l-.66-8c-.16-1.91-.26-3.14,1.15-4.73a21,21,0,0,1,2-1.55,24.42,24.42,0,0,0,6.67-9.92c.22-.61-.75-.87-1-.27a23.07,23.07,0,0,1-6.41,9.48c-1,.86-2.36,1.51-3.1,2.62s-.44,2.6-.33,3.89c.31,3.73.11,8,1,11.6.33,1.38,1.08,2.41,1,3.92a17.6,17.6,0,0,1-.23,3.08c-.59,2.35-1.54,3-3.75,3.2-4.15.29-8.39.18-12.55.16q-3.18,0-6.36-.09c-1.91,0-4.66.26-6.37-.73-2.16-1.25-1.49-4.64-1.42-6.76l.24-6.85.21-5.86a21.12,21.12,0,0,0,0-5.27c-.72-3.07-4-3.58-6-5.5-2.45-2.33-2.72-6.08-5.44-8.24-.5-.39-1.21.31-.71.71Z" transform="translate(-848.4 -699.45)"/><path class="cls-2" d="M973.5,998c-5.17-.58-9.66,1.89-13.6,5-4.11,3.24-7.77,6.72-9.43,11.81-.2.61.77.88,1,.27,1.51-4.65,4.81-7.85,8.52-10.86,3.91-3.16,8.32-5.81,13.54-5.22.64.08.63-.92,0-1Z" transform="translate(-848.4 -699.45)"/><path class="cls-2" d="M1004.37,999.16c9.35,1.84,21.4,4.8,23.48,15.77.12.64,1.09.37,1-.26-2.16-11.34-14.5-14.57-24.19-16.47-.63-.13-.89.83-.26,1Z" transform="translate(-848.4 -699.45)"/><path class="cls-2" d="M955.85,1017.68a143.88,143.88,0,0,0,39.54,4.26c9.34-.21,19.52-.7,28.38-4,.6-.22.34-1.19-.26-1-8.8,3.24-18.84,3.73-28.12,3.93a142.65,142.65,0,0,1-39.27-4.23.5.5,0,0,0-.27,1Z" transform="translate(-848.4 -699.45)"/><path class="cls-2" d="M951.49,1012.34a21.56,21.56,0,0,0-13,1.78c-2,1-5.7,3.53-2.51,5.61a22,22,0,0,0,6,2.21,65.6,65.6,0,0,0,8.79,1.71c5.19.69,10.44,1,15.67,1.3,22.64,1.37,45.67,1.52,67.92-3.5,2.07-.46,10.76-1.34,9.12-5.5-.62-1.56-2.8-1.6-4.17-1.87-3.58-.72-7.17-1.39-10.76-2-.63-.11-.9.85-.26,1l6.36,1.17,3.41.67c.71.14,3,.21,3.49.71.32.34-1.38,3.35-1.59,3.47a5.37,5.37,0,0,1-1.28.35c-1.07.28-2.14.54-3.21.79-2.14.51-4.3,1-6.46,1.37a186.43,186.43,0,0,1-26.56,3c-8.68.38-17.38.29-26.07-.06s-17.58-.67-26.24-1.89c-2.22-.32-4.42-.72-6.6-1.26-1.16-.29-2.3-.61-3.44-1-.69-.23-3-.71-3.39-1.3l.21-1.52c-.26-1,0-1.67.93-1.94a8,8,0,0,1,1.48-.77,19.87,19.87,0,0,1,3.83-1.3,20.73,20.73,0,0,1,8-.2c.63.11.9-.86.27-1Z" transform="translate(-848.4 -699.45)"/><path class="cls-2" d="M935.89,1016.47c-2.49.44-6.94,2.11-5.31,5.56,1.47,3.14,7.42,3.07,10.2,3.54a209,209,0,0,0,32.73,3.08c5.78,0,11.53-.37,17.3-.59,5.45-.21,10.88.07,16.33.17a151.85,151.85,0,0,0,32.47-2.89c3-.59,8.62-1,9.24-4.88.65-4-3.4-4-5.91-5.3-.57-.29-1.08.57-.5.87a15,15,0,0,0,3.11,1.17,2.86,2.86,0,0,1,.6,5.32,17.59,17.59,0,0,1-5.4,1.57c-2.18.46-4.38.87-6.58,1.23a149.79,149.79,0,0,1-26.08,1.92c-8.62-.11-17.12-.16-25.74.23a178.09,178.09,0,0,1-25.92-.78c-5-.51-9.95-1.19-14.9-2-2.28-.37-4.61-.69-6.86-1.23-.31-.07-.62-.15-.92-.25a5.29,5.29,0,0,1-1.29-.57l-.29-3.71c.82-1,2.78-1.27,4-1.48.64-.12.37-1.08-.26-1Z" transform="translate(-848.4 -699.45)"/><path class="cls-2" d="M932.22,1018.06a71.38,71.38,0,0,0-13.07,6c-2.2,1.38-7.1,4.06-5.9,7.31,1,2.63,4.54,3.75,6.9,4.64a33.15,33.15,0,0,0,9.24,2.5c.65,0,.64-1,0-1a28.08,28.08,0,0,1-6.92-1.73,26,26,0,0,1-6.42-2.74c-1.43-1-2.38-2.56-1.32-4.19a12.17,12.17,0,0,1,2.87-2.53,34.82,34.82,0,0,1,4.22-2.66,86.05,86.05,0,0,1,10.67-4.61c.6-.23.34-1.19-.27-1Z" transform="translate(-848.4 -699.45)"/><path class="cls-2" d="M1047.49,1018.22c4.43,1.38,9.09,2.84,12.42,6.27,2,2,4.3,5.67,2,8.36-1.39,1.63-4,2.55-5.85,3.39-.58.26-.07,1.12.51.86,2.18-1,5.19-2.06,6.55-4.17s.62-4.63-.55-6.62c-3.13-5.29-9.29-7.33-14.82-9.06-.61-.19-.88.78-.26,1Z" transform="translate(-848.4 -699.45)"/><path class="cls-2" d="M914,1030.23c-6.21,1.1-8.56,7.46-8.93,13.06-.18,2.68-.75,6.45.94,8.79s5,3.81,7.56,4.87c7.51,3.06,15.92,4.49,23.9,5.69a213.86,213.86,0,0,0,24,2.16c17,.65,34.07-.28,51.07-1.15,8.71-.45,17.42-.94,26.1-1.79,7.7-.76,15.49-1.68,22.9-4,3.5-1.1,7.72-2.43,10.57-4.83s2.27-5.9,2.06-9.08c-.24-3.7-.79-7.55-2.87-10.7a12.49,12.49,0,0,0-2.82-3.07c-.35-.26-5-2.43-5-1.86s1,.65,1,0l0-.2a.51.51,0,0,0-.5-.5c-.51,0-.61,0-.92.45a.5.5,0,0,0,.08.6c.66.82,1.54.73,2.5,1.08a9.4,9.4,0,0,1,3.77,2.67c2.7,3,3.43,7.16,3.72,11.08s.64,7.51-3.13,9.74a43.86,43.86,0,0,1-10.44,4.16c-14,4-29.19,4.3-43.64,5.07-28.74,1.53-58.06,3.49-86.47-2.26-3.9-.78-7.79-1.68-11.6-2.83-3.49-1.06-8.17-2.54-10.64-5.44-1.47-1.73-1.24-3.92-1.21-6a28.61,28.61,0,0,1,.7-6.78c1-3.81,3.53-7.21,7.59-7.94.63-.11.36-1.07-.27-1Z" transform="translate(-848.4 -699.45)"/><path class="cls-2" d="M929.39,1038.48c33.26,3.21,66.93,4.13,100.27,1.64,9-.67,17.9-1.63,26.79-3,.63-.09.36-1.06-.27-1-32.85,4.93-66.46,5.13-99.58,3.34q-13.62-.75-27.21-2c-.64-.06-.63.94,0,1Z" transform="translate(-848.4 -699.45)"/><path class="cls-2" d="M909.32,1033.83c-.26,3.26,2.9,5.05,5.47,6.26a41.24,41.24,0,0,0,11.84,3.3c9.19,1.31,18.59,1.46,27.85,1.89,20.14,1,40.37,2.46,60.54,1.45a276.5,276.5,0,0,0,32.84-3.66c.63-.11.36-1.08-.27-1a282.37,282.37,0,0,1-55.47,3.84c-18.28-.5-36.63-1.36-54.88-2.57a99.44,99.44,0,0,1-14.1-1.6c-3.69-.78-13.23-2.88-12.82-7.94.06-.64-.94-.64-1,0Z" transform="translate(-848.4 -699.45)"/><path class="cls-2" d="M1047.86,1043.07a76.37,76.37,0,0,0,17.35-4.92c1.66-.7,4.06-1.46,4.88-3.25a2.55,2.55,0,0,0-1.08-3.47c-.57-.3-1.07.56-.5.86,3.56,1.91-2.89,4.62-4.15,5.14-1.87.78-3.77,1.46-5.7,2.07a84.29,84.29,0,0,1-11.07,2.6c-.63.11-.36,1.07.27,1Z" transform="translate(-848.4 -699.45)"/></svg>