<svg id="Calque_1" data-name="Calque 1" xmlns="http://www.w3.org/2000/svg" viewBox="0 0 188.43 188.6"><defs><style>.cls-1{fill:none;}.cls-2{opacity:0.54;}.cls-3{fill:#545e2a;}.cls-4{fill:#94945e;}.cls-5{fill:#c55151;}.cls-6{fill:#d6756b;}.cls-7{fill:#ebac91;}.cls-8{opacity:0.57;}.cls-9{fill:#fff;}.cls-10{fill:#d49990;}.cls-11{opacity:0.16;}.cls-12{fill:#88261f;}.cls-13{opacity:0.3;}.cls-14{opacity:0.68;}.cls-15{fill:#e06b73;}.cls-16{opacity:0.74;}.cls-17{opacity:0.52;}.cls-18{opacity:0.53;}.cls-19{opacity:0.32;}.cls-20{opacity:0.37;}.cls-21{opacity:0.46;}</style></defs><title>motif_transparent</title><rect class="cls-1" y="0.17" width="188.43" height="188.43"/><g class="cls-2"><path class="cls-3" d="M1002.52,615.9c-2.74-3.65-3.73-8.19-3.92-12.67-.23-5.4,1.69-9.1,5.59-12.7.36-.32-.18-.85-.53-.53-3.76,3.47-5.88,7.15-5.84,12.37,0,4.86,1.09,10,4,13.9.28.39.94,0,.65-.37Z" transform="translate(-865.88 -446.21)"/></g><path class="cls-4" d="M1004.71,590.56c-3.8,2.64-5.89,7.33-6.05,12a24.65,24.65,0,0,0,3.8,13.19c2.4-.79,4.15-2.8,5.78-4.72l4-4.69A26.28,26.28,0,0,0,1016,601c2.27-4.68,1.57-10.29-.15-15.19a3.38,3.38,0,0,0-1-1.69c-.94-.69-2.27-.3-3.3.23a15.61,15.61,0,0,0-6.25,5.86" transform="translate(-865.88 -446.21)"/><path class="cls-4" d="M1004.52,590.23c-8.44,6.25-7.06,17.55-2.38,25.68a.37.37,0,0,0,.42.17c4.39-1.7,7.28-6.36,10.19-9.82,3.1-3.68,5.17-7.43,5.08-12.36a25.78,25.78,0,0,0-1.21-7c-.4-1.29-.8-3-2.28-3.41-3.55-1.07-7.78,4-9.37,6.55-.25.41.39.78.65.38,1.54-2.42,4.08-5.37,7-6,2.58-.55,3.2,2.34,3.68,4.28a24.17,24.17,0,0,1,.71,4.4c.42,6.81-3.52,11.11-7.65,16-1.43,1.69-3.53,5.07-5.76,5.73-1.76.51-2.26-1.85-2.78-3.12a23.63,23.63,0,0,1-1.42-4.51c-1.19-6,.36-12.51,5.46-16.28.39-.29,0-.94-.38-.65Z" transform="translate(-865.88 -446.21)"/><g class="cls-2"><path class="cls-3" d="M1016.18,585.9c-1.55,3-.5,6.54-.51,9.89a20.24,20.24,0,0,1-4.3,11.74,55.82,55.82,0,0,1-8.91,9c3.87-2.18,7-5.47,10-8.75a23.52,23.52,0,0,0,3-3.81c2.4-4,2.28-9,2.09-13.74a9.92,9.92,0,0,0-1-4.68" transform="translate(-865.88 -446.21)"/><path class="cls-3" d="M1015.85,585.71a13.33,13.33,0,0,0-.76,6.69,20.6,20.6,0,0,1-1.14,9.81c-2.37,5.8-7.12,10.06-11.76,14.07-.32.28.1.8.46.59a36.82,36.82,0,0,0,7.77-6.37c2.17-2.25,4.59-4.57,5.94-7.43a20.75,20.75,0,0,0,1.65-8.64c0-3,.23-6.32-1.11-9.06-.21-.43-.85,0-.64.38,1.34,2.75,1.09,6.52,1,9.52a17.23,17.23,0,0,1-2.32,8.86,40.34,40.34,0,0,1-12.65,12.09l.45.59c4.38-3.79,8.85-7.78,11.39-13.1a18.79,18.79,0,0,0,1.91-7.07c.2-3.57-1-7.13.48-10.55.19-.44-.45-.82-.65-.38Z" transform="translate(-865.88 -446.21)"/></g><g class="cls-2"><path class="cls-3" d="M1002.32,616.21c2.67-3.56,2.48-8.45,3.73-12.58,1.44-4.72,3.44-9.27,3.23-14.31,0-.48-.77-.48-.75,0,.21,5-1.78,9.45-3.2,14.11-1.23,4.05-1,8.92-3.66,12.4-.29.39.36.76.65.38Z" transform="translate(-865.88 -446.21)"/></g><g class="cls-2"><path class="cls-3" d="M1008,594a17,17,0,0,1-5.31,4c-.44.21-.06.86.38.65a17.52,17.52,0,0,0,5.46-4.09c.32-.36-.21-.89-.53-.53Z" transform="translate(-865.88 -446.21)"/></g><g class="cls-2"><path class="cls-3" d="M1007,598.11a22,22,0,0,1-6.07,5.29.37.37,0,0,0,.38.64,22.35,22.35,0,0,0,6.22-5.4c.3-.38-.23-.91-.53-.53Z" transform="translate(-865.88 -446.21)"/></g><g class="cls-2"><path class="cls-3" d="M1004.49,604.86a18.88,18.88,0,0,1-3.77,4c-.38.3.16.82.53.53a19.2,19.2,0,0,0,3.88-4.12c.28-.39-.37-.77-.64-.37Z" transform="translate(-865.88 -446.21)"/></g><g class="cls-2"><path class="cls-3" d="M1004.46,609.57a6.77,6.77,0,0,0,1.11,2.57c.27.39.93,0,.65-.38a6.23,6.23,0,0,1-1-2.39c-.09-.47-.81-.27-.72.2Z" transform="translate(-865.88 -446.21)"/></g><g class="cls-2"><path class="cls-3" d="M1005.86,601.61a16.24,16.24,0,0,0,2.07,5.91.38.38,0,0,0,.65-.38,15.48,15.48,0,0,1-2-5.73c-.07-.48-.79-.28-.73.2Z" transform="translate(-865.88 -446.21)"/></g><g class="cls-2"><path class="cls-3" d="M1007.71,596.65a19.08,19.08,0,0,0,1.23,3.67c.35.77.79,1.42,1.69,1.5.48,0,.47-.7,0-.75-.88-.08-1.33-1.77-1.55-2.37a22.2,22.2,0,0,1-.65-2.25c-.11-.47-.83-.27-.72.2Z" transform="translate(-865.88 -446.21)"/></g><path class="cls-4" d="M1027.75,575.8l.47,4.77a5.74,5.74,0,0,1,0,1.94,7.39,7.39,0,0,1-1.39,2.41c-1.68,2.39-2.55,5.55-1.49,8.28.82,2.14,2.68,3.7,4.58,5a40.21,40.21,0,0,0,6.74,3.72,32.11,32.11,0,0,0,.23-8.36,10.77,10.77,0,0,0-3.9-7.18c-1.82-1.34-4.38-2.12-5.08-4.27" transform="translate(-865.88 -446.21)"/><path class="cls-4" d="M1027.38,575.8c.17,1.79.49,3.62.52,5.42s-1,2.78-1.85,4.18a9.62,9.62,0,0,0-1.41,6.76c1,5.18,7.51,8.17,11.81,10.08a.39.39,0,0,0,.57-.32c.48-4.2.93-8.67-1.09-12.55a9.71,9.71,0,0,0-3-3.49c-1.71-1.21-3.81-1.89-4.69-4-.19-.44-.83-.06-.65.38,1.25,2.92,4.82,3.52,6.71,5.9,3.08,3.89,2.52,9.12,2,13.72l.56-.33c-4.88-2.17-12.49-5.77-11.46-12.21.41-2.58,2.29-4.12,3.07-6.44.71-2.13-.1-5-.31-7.14-.05-.47-.8-.48-.75,0Z" transform="translate(-865.88 -446.21)"/><path class="cls-5" d="M973.33,612.87a6.71,6.71,0,0,0-.83-2.32,2.31,2.31,0,0,0-2.06-1.12.4.4,0,0,0-.28.12.44.44,0,0,0,0,.32,3.55,3.55,0,0,0,.54,1.37,3.51,3.51,0,0,0-1.74-.4c-.34,0-.75.15-.78.48a.65.65,0,0,0,.15.44,2,2,0,0,0,1.38.85,2.69,2.69,0,0,0-1.22.31A.91.91,0,0,0,968,614a1,1,0,0,0,1,.5,3.9,3.9,0,0,0,1.14-.37,6.19,6.19,0,0,1,2.76-.43c.28,0,.62.12.69.39" transform="translate(-865.88 -446.21)"/><path class="cls-5" d="M973.81,612.73c-.35-1.55-1-3.45-2.78-3.76s-1.42,1.46-.79,2.52l.68-.68c-.82-.38-2.6-.95-3.16.15s1,1.94,1.79,2.13l.13-1c-1.09.11-3,1-1.94,2.38a1.56,1.56,0,0,0,1.4.5,10.4,10.4,0,0,0,1.71-.57c.42-.12,2-.54,2.31-.08s1.23,0,.87-.5c-.49-.72-1.32-.7-2.13-.63a7.09,7.09,0,0,0-1.51.3,3.78,3.78,0,0,1-.74.29c-.36.27-.5.19-.43-.24-.18-.41,0-.56.46-.45.52-.06.73-.85.13-1-.3-.07-1.2-.32-.88-.79.16-.23,1.35.26,1.49.33.43.2,1-.22.68-.68-.13-.23-.66-.92-.19-1s1,.63,1.16.85a6.16,6.16,0,0,1,.78,2.2c.14.63,1.1.36,1-.27Z" transform="translate(-865.88 -446.21)"/><path class="cls-5" d="M979,622.07a5,5,0,0,0-.93,4,.7.7,0,0,0,.36.57c.26.09.53-.13.7-.34a4.91,4.91,0,0,0,.83-1.5,8.1,8.1,0,0,0,.44,2.22.5.5,0,0,0,.16.27c.23.18.57-.09.66-.38a2.46,2.46,0,0,1,.26-.86.83.83,0,0,0,.81.56,3.52,3.52,0,0,0-.11-1.33,1.3,1.3,0,0,0,.3.54.44.44,0,0,0,.57,0c.26-.23,0-.65-.21-.91a6.27,6.27,0,0,1-1.45-3.28" transform="translate(-865.88 -446.21)"/><path class="cls-5" d="M978.53,621.82c-.82,1.16-1.75,3.61-.75,4.94s2.33-1.06,2.62-1.83l-1-.13c.06.8.09,2.6,1,3,1,.45,1.2-.88,1.49-1.46H981a1.4,1.4,0,0,0,1.11.79.51.51,0,0,0,.63-.49,5.13,5.13,0,0,0-.13-1.46l-1,.26c.2.48.47,1,1.06,1a.88.88,0,0,0,.88-.65,1.49,1.49,0,0,0-.45-1.19,7,7,0,0,1-1.32-3.06c-.1-.63-1.06-.36-1,.27a7.15,7.15,0,0,0,.61,2,6.79,6.79,0,0,0,.55.94c.12.16.86,1,.59.37a.5.5,0,0,0-1,.26,3.77,3.77,0,0,1,.09,1.2l.63-.48-.51-.33a.5.5,0,0,0-.86,0c0,.06-.28.72-.29.72s-.29-1.61-.3-1.72a.5.5,0,0,0-1-.14c-.09.23-.31.94-.57,1.11-.68.44-.45-.52-.42-.93a4.8,4.8,0,0,1,.94-2.52c.37-.52-.49-1-.86-.5Z" transform="translate(-865.88 -446.21)"/><path class="cls-5" d="M975.84,617.86a4.21,4.21,0,0,0-1.53-.34,1,1,0,0,0-.66.15.72.72,0,0,0-.08.94,1.35,1.35,0,0,0,.87.51,2.28,2.28,0,0,0-.44.75.75.75,0,0,0,.24.79.46.46,0,0,0,.69-.25,2.73,2.73,0,0,0,.08,1.36,2,2,0,0,0,1-1.39,1.31,1.31,0,0,0,.1,1.42c.48-.53,1-1.28.63-1.89a2.93,2.93,0,0,0-.37-.42,2.56,2.56,0,0,1-.7-1.5" transform="translate(-865.88 -446.21)"/><path class="cls-5" d="M976,617.38c-.8-.31-2.4-.77-2.92.25s.4,1.74,1.25,2l-.3-.74c-.46.62-.87,1.63-.08,2.19a1,1,0,0,0,1.48-.51l-1-.13a3.74,3.74,0,0,0,.1,1.49.5.5,0,0,0,.73.3,2.63,2.63,0,0,0,1.27-1.68c.13-.53-.67-.92-.92-.39a1.89,1.89,0,0,0,.1,1.92.51.51,0,0,0,.79.1,2.64,2.64,0,0,0,.87-2,1.57,1.57,0,0,0-.33-.7,3.27,3.27,0,0,1-.86-1.59c-.11-.63-1.07-.36-1,.27a3.34,3.34,0,0,0,.61,1.45c.19.25.41.39.49.7.12.46-.23.82-.52,1.16l.78.1a.78.78,0,0,1-.09-.9l-.92-.39a1.62,1.62,0,0,1-.8,1.09l.73.3a3,3,0,0,1-.06-1.23c.08-.61-.79-.6-1-.13a3.64,3.64,0,0,1,.44-.91.52.52,0,0,0-.3-.74c-.36,0-.46-.1-.32-.36,0-.34.16-.4.54-.2a4.76,4.76,0,0,1,.91.27c.6.23.86-.73.27-1Z" transform="translate(-865.88 -446.21)"/><path class="cls-5" d="M986.38,621.22a12.44,12.44,0,0,0,0,2.86,4.1,4.1,0,0,0,1.22,2.54,3,3,0,0,0,3.94,0,5.45,5.45,0,0,0,1.2-1.81,1.73,1.73,0,0,0,.25-1.26,1.33,1.33,0,0,0-.25-.41,16.38,16.38,0,0,0-1.25-1.1c-1.18-1.14-1.59-3-3.05-3.77a4.24,4.24,0,0,0-2,3.14" transform="translate(-865.88 -446.21)"/><path class="cls-5" d="M985.88,621.22c-.19,2-.29,4.4,1.41,5.83a3.56,3.56,0,0,0,4.51,0c1.08-.93,2.27-2.92,1.24-4.23-.5-.65-1.25-1-1.75-1.69-.27-.36-.48-.77-.72-1.16a6,6,0,0,0-1.93-2.11.5.5,0,0,0-.5,0,5.05,5.05,0,0,0-2.21,3.45c-.1.63.86.9,1,.26s.38-2,1.09-2.33c.94-.49,1.33.63,1.71,1.24a12.73,12.73,0,0,0,1,1.51c.34.41,1,.72,1.24,1.14,1.46,2.2-1.84,4.6-3.8,3.3-1.68-1.11-1.42-3.52-1.26-5.23.06-.64-.94-.64-1,0Z" transform="translate(-865.88 -446.21)"/><path class="cls-6" d="M979,507.93a13.68,13.68,0,0,0-3.79,8.86c-.59-1.33-2.5-1.61-3.8-.95a8.17,8.17,0,0,0-2.91,3.22l-3.83,6.16A17.62,17.62,0,0,0,962,531a5.92,5.92,0,0,0,1.79,5.8c-1.92-.17-3.19,1.91-3.82,3.72a32.43,32.43,0,0,0-1.76,11.39,8.71,8.71,0,0,0,1.42,5.21c1.13,1.45,3.4,2.13,4.84,1-2,.2-3.48,2.21-3.71,4.23a11.65,11.65,0,0,0,1.32,5.86,55.69,55.69,0,0,0,20.43,24.13c2.56,1.67,5.44,3.17,8.49,3s6.15-2.58,6-5.63c-.29,2.39,1.92,4.55,4.31,4.93s4.78-.62,6.81-1.93a22.3,22.3,0,0,0,8.44-10.12c.73-1.76,1-4.19-.57-5.21,1.63,1,3.87.44,5.32-.81a13.68,13.68,0,0,0,3.11-4.79,33.19,33.19,0,0,0,3.12-8.74,25.74,25.74,0,0,0,8.18-16.55,37.42,37.42,0,0,0-3.1-18.44,6.51,6.51,0,0,0-2.44-3.33c-2.23-1.26-5,.25-7.07,1.71,1.47-1.79.24-4.44-1-6.38-2-3.15-4.34-6.46-7.82-7.87-1.7-.69-3.78-1-4.72-2.6a11,11,0,0,1-.74-2.14c-1.15-3.36-5-5.17-8.51-5.27s-7,1.11-10.44,2c-3.89.95-8,1.51-11.31,3.81" transform="translate(-865.88 -446.21)"/><path class="cls-6" d="M978.66,507.58a14.93,14.93,0,0,0-3.94,9.21l.94-.25c-3.49-5.38-8.27,3.37-9.73,5.73-2.58,4.15-7.27,10.49-2.49,14.88l.36-.86c-2.11.08-3.29,1.64-4.07,3.48a28.78,28.78,0,0,0-2,10.35c-.08,2.58-.08,5.88,2,7.8a4.14,4.14,0,0,0,5,.63.51.51,0,0,0-.39-.92c-5.88,1.2-4,8.17-2.2,11.93a55.83,55.83,0,0,0,10.75,15.51c4,4,9.17,8.75,14.72,10.35,4.25,1.21,9.75-.65,9.92-5.7h-1a5.39,5.39,0,0,0,4,5.27c3.25,1,6.66-.88,9.18-2.78,3.08-2.32,11.43-11.14,6.63-15.18l-.6.79c5.78,2.79,8.88-4.94,10.56-9,.71-1.71,1-3.79,1.87-5.38.73-1.33,2.06-2.37,3-3.6a26.36,26.36,0,0,0,4.15-8.58c1.92-6.85,1.14-14.18-1.22-20.82-.82-2.33-1.74-5.53-4.33-6.45-2.43-.85-5,.71-6.89,2l.68.68c2.37-3.66-1.89-8.64-4.22-11.29a13.79,13.79,0,0,0-5.57-3.94,14.76,14.76,0,0,1-2.49-1c-1.46-.91-1.43-1.78-2-3.17a7.84,7.84,0,0,0-1.24-2.2c-3.09-3.75-8.34-3.82-12.71-2.89-3.07.65-6.1,1.52-9.15,2.23a23.65,23.65,0,0,0-7.89,3.06c-.54.35,0,1.21.5.86,4.08-2.67,9.15-3.22,13.78-4.44s11.51-2.68,14.9,2.11c1.1,1.55,1.07,3.62,2.61,4.87s3.37,1.36,4.93,2.18a16.35,16.35,0,0,1,5.37,5.32c1.47,2.09,3.94,5.21,2.29,7.77a.5.5,0,0,0,.68.68c3-2,6.58-3.24,8.54.8a36.29,36.29,0,0,1,2.6,7.8,31.34,31.34,0,0,1-.51,16.67,25.42,25.42,0,0,1-3.25,6.56c-1.16,1.68-3.36,3.09-3.84,5-1,4-4.63,16.12-10.66,13.2-.47-.23-1.07.4-.6.79,3.66,3.08-2.76,10.38-5.07,12.47a15.66,15.66,0,0,1-6.24,3.74c-3.06.8-6.93-.56-6.83-4.23a.5.5,0,0,0-1,0c-.1,2.94-2.73,4.92-5.53,5.13s-5.3-1.12-7.53-2.49a52.64,52.64,0,0,1-10.43-8.57c-3.17-3.34-18.67-23.11-8.43-25.19l-.39-.92c-2.71,1.65-4.8-1.2-5.3-3.55a20.05,20.05,0,0,1-.1-5.79c.23-2.78,1-10.9,5-11.05a.5.5,0,0,0,.35-.85c-3.63-3.33-.85-8,1.2-11.35,1.14-1.83,6.53-12.54,9.44-8a.5.5,0,0,0,.93-.26,13.93,13.93,0,0,1,3.64-8.51c.44-.47-.27-1.18-.7-.7Z" transform="translate(-865.88 -446.21)"/><path class="cls-7" d="M993.27,541c1.54-6.64,3.17-15.11.23-21.57l-.64,1.13a16.25,16.25,0,0,1,11.21,5.54c3.25,3.78,4.1,8.81,4.61,13.61.1,1,1.6,1,1.5,0-.56-5.22-1.5-10.58-5-14.67a17.8,17.8,0,0,0-12.27-6,.76.76,0,0,0-.65,1.13c2.73,6,1,14.28-.38,20.42-.22.94,1.22,1.34,1.44.39Z" transform="translate(-865.88 -446.21)"/><path class="cls-7" d="M1009,544.66a25.7,25.7,0,0,0-7.72-8c-1.13-.74-2.68-1.92-4.14-1.74s-2.36,1.6-3.17,2.64a27.84,27.84,0,0,0-5,9.52c-1.26,4.45-.82,9.42-3.19,13.54-2.08,3.62-5.82,5.89-9,8.41-1.84,1.45-5.19,3.76-3.2,6.41s6.41,2.69,9.24,2.68a24.8,24.8,0,0,0,11.55-3c.85-.45.09-1.75-.76-1.3a23,23,0,0,1-10.37,2.76,21,21,0,0,1-5.18-.49,6.35,6.35,0,0,1-2.47-.88c-2.08-1.82.05-3.34,1.08-4.21,4-3.38,9-6.08,11.18-11.16,1.18-2.76,1.4-5.77,1.84-8.71a25.64,25.64,0,0,1,3.24-9.37,29.62,29.62,0,0,1,2.91-4.11c1.49-1.76,3.19-.75,4.73.27a24.25,24.25,0,0,1,7.19,7.49c.51.82,1.8.06,1.29-.76Z" transform="translate(-865.88 -446.21)"/><path class="cls-7" d="M979.58,519.17c.61,4.42,5,5.66,7.87,8.31,3.49,3.18,3.69,8.29,3.81,12.7,0,1,1.53,1,1.5,0-.11-3.83-.28-8-2.3-11.36-2.37-4-8.76-5.16-9.44-10-.13-1-1.57-.55-1.44.39Z" transform="translate(-865.88 -446.21)"/><path class="cls-7" d="M973.92,520c-2.81,3.55-.07,7.45,3.09,9.56,5.51,3.68,12.22,7.86,10.72,15.64-.18.95,1.27,1.35,1.45.4.89-4.61-1-8.94-4.24-12.18a29.17,29.17,0,0,0-5.43-4.07c-2.54-1.57-7.32-4.76-4.53-8.29.59-.75-.46-1.81-1.06-1.06Z" transform="translate(-865.88 -446.21)"/><path class="cls-7" d="M987.71,544.12c.18.86-2.26,2.57-2.78,3.12a11.45,11.45,0,0,0-2.17,3c-1.34,2.84-.76,6.26-3.51,8.35a10.63,10.63,0,0,1-5.79,1.73l-.89,0c-.88.33-1.23,0-1-.94-.39-1.1.19-2,.76-2.9,1.67-2.58,4.39-4.34,6.35-6.69a17.61,17.61,0,0,0,3.19-6.74c.24-.83,2.6-7.65,4.21-3.25.51,1.39-.92,3.58-1.63,4.68-1.8,2.76-3.82,5.4-5.73,8.08a20.22,20.22,0,0,1-3,3.77c-1.16,1-2.61,1.43-3.64,2.58l1.28.53.1-4.4c0-1-1.47-1-1.5,0l-.1,4.4a.76.76,0,0,0,1.28.53c1.09-1.21,2.75-1.72,3.93-2.86a26.65,26.65,0,0,0,3-3.79c2.24-3.14,5-6.28,6.7-9.76.92-1.91,1.52-5-.25-6.72s-3.75.63-4.65,2.19c-2,3.38-2,7.22-4.7,10.29-2.18,2.46-5.19,4.39-6.65,7.43-.67,1.39-1.35,4.17.45,5,1.12.51,3.19,0,4.37-.14a11.07,11.07,0,0,0,4.23-1.36c3.23-1.94,3.23-5.07,4.25-8.32.77-2.41,2.55-3.87,4.26-5.59.82-.83,1.43-1.45,1.18-2.64-.2-.94-1.65-.54-1.45.4Z" transform="translate(-865.88 -446.21)"/><path class="cls-7" d="M976.07,550.83a8.5,8.5,0,0,0-.55-4.47c-.91-3,0-5.16,1.49-7.74a.75.75,0,0,0-.65-1.12,5.05,5.05,0,0,0-3.7,8.82c.69.67,1.75-.39,1.06-1.07a3.54,3.54,0,0,1,2.64-6.25l-.64-1.13a13.77,13.77,0,0,0-2.14,5.54c-.21,2.43,1.52,4.61,1,7-.19.94,1.26,1.34,1.45.39Z" transform="translate(-865.88 -446.21)"/><path class="cls-7" d="M971.51,554.32c-3.8,0-5.53-3.48-4.44-6.79a25.54,25.54,0,0,1,4.56-7.79c.61-.75-.45-1.81-1.06-1.06-2.4,3-5.77,7.45-5.45,11.51a6.37,6.37,0,0,0,6.39,5.63.75.75,0,0,0,0-1.5Z" transform="translate(-865.88 -446.21)"/><path class="cls-7" d="M971.66,544.6a11.16,11.16,0,0,0-1.4,4.89c0,1.59,2.32,4.77.87,5.87l1.13.65,0-.94c.05-1-1.45-1-1.5,0l0,.94a.76.76,0,0,0,1.13.65,3,3,0,0,0,1.22-3,14.42,14.42,0,0,0-1-2.68c-.72-2,0-3.74.84-5.6.4-.87-.89-1.63-1.29-.76Z" transform="translate(-865.88 -446.21)"/><path class="cls-7" d="M971.15,540.47a26.37,26.37,0,0,1,.67-5,9,9,0,0,1,.62-2.16c.89-1.55,2.07-1.43,3.58-1.48,2.63-.09,3.84,1.09,4.58,3.46a9.06,9.06,0,0,1,0,5.26.75.75,0,0,0,1.45.4c1.11-4.07,0-10.56-5.21-10.63-2,0-4.52-.12-5.58,1.9-1.25,2.36-1.5,5.64-1.62,8.25,0,1,1.46,1,1.5,0Z" transform="translate(-865.88 -446.21)"/><path class="cls-7" d="M972.44,523.73a11.7,11.7,0,0,0-3.15,10.86c.2.94,1.65.54,1.45-.4a10.11,10.11,0,0,1,2.76-9.4c.68-.69-.38-1.75-1.06-1.06Z" transform="translate(-865.88 -446.21)"/><path class="cls-7" d="M969.27,530.2a15.15,15.15,0,0,0-3.41,15.16c.3.92,1.74.53,1.44-.39a13.67,13.67,0,0,1,3-13.71c.66-.7-.4-1.77-1.06-1.06Z" transform="translate(-865.88 -446.21)"/><g class="cls-8"><path class="cls-9" d="M997.23,535.75a23,23,0,0,0-7,8.5,24.68,24.68,0,0,0-1.82,5.69c-.3,1.51-.15,5.81-1.35,6.73-.5.38,0,1.25.51.86a2.83,2.83,0,0,0,1.09-2.19,66.2,66.2,0,0,1,1.22-7.28,21.71,21.71,0,0,1,7.89-11.45c.51-.38,0-1.25-.51-.86Z" transform="translate(-865.88 -446.21)"/></g><g class="cls-8"><path class="cls-9" d="M981.18,521.73a14.35,14.35,0,0,0,4,4.1,17.66,17.66,0,0,1,3,2.69c.38.46,2.71,4,1.86,4.45-.56.32-.05,1.18.51.87,1.79-1-.53-4.56-1.31-5.6-2-2.73-5.43-4-7.13-7a.5.5,0,0,0-.87.5Z" transform="translate(-865.88 -446.21)"/></g><g class="cls-8"><path class="cls-9" d="M974.25,526a16.16,16.16,0,0,0,4.67,5.88c1.1.78,2.31,1.41,3.45,2.12a17.24,17.24,0,0,1,1.6,1.08,7.19,7.19,0,0,1,1,.79,3.08,3.08,0,0,0,1.76,1.12c-.49-.4-1.2.3-.71.71l.11.09a.53.53,0,0,0,.61.07l.13-.07a.52.52,0,0,0,.23-.57c-.45-2-3.13-3.46-4.76-4.43a17.54,17.54,0,0,1-7.19-7.29c-.3-.57-1.17-.06-.86.5Z" transform="translate(-865.88 -446.21)"/></g><g class="cls-8"><path class="cls-9" d="M966.18,547.81a6.4,6.4,0,0,0,4.38,8c.62.19.88-.78.27-1a5.37,5.37,0,0,1-3.69-6.72.5.5,0,0,0-1-.27Z" transform="translate(-865.88 -446.21)"/></g><g class="cls-8"><path class="cls-9" d="M982.21,550.16c1.07-2.42,2.95-4.19,4.15-6.49.65-1.25,1.47-3.54.58-4.83-.37-.52-1.24,0-.87.51,1.24,1.78-1.16,4.72-2.15,6a20.73,20.73,0,0,0-2.58,4.28c-.26.59.6,1.1.87.51Z" transform="translate(-865.88 -446.21)"/></g><g class="cls-8"><path class="cls-9" d="M981,540.45a39.48,39.48,0,0,1-1,4c-.4,1.22-.94,3.12-2,4h.71l-.08-.1.07.6.07-.08c.39-.51-.48-1-.87-.5l-.06.08a.52.52,0,0,0,.08.61l.08.09a.51.51,0,0,0,.71,0,8.26,8.26,0,0,0,1.85-3.3,30.81,30.81,0,0,0,1.36-5.09c.14-.63-.83-.9-1-.27Z" transform="translate(-865.88 -446.21)"/></g><g class="cls-8"><path class="cls-9" d="M994.18,535.79a28.4,28.4,0,0,0,0-13c-.14-.62-1.1-.36-1,.27a27.22,27.22,0,0,1,0,12.47c-.15.62.82.89,1,.26Z" transform="translate(-865.88 -446.21)"/></g><path class="cls-10" d="M1007.75,527.57a23.47,23.47,0,0,1,3.81-18.6.76.76,0,0,0-.12-.91c-3-3.38-6.29-7-11-7.56a9.75,9.75,0,0,0-5.6,1.14c-2.88,1.38-5.64,1.68-8.75,2.13-7.55,1.08-13,8-10.74,15.69l.35-.85-1.68,1,1.1.45c-.64-1.81,2.08-5.59-1.43-6-2.87-.33-5.7,3.82-7.16,5.72-3.37,4.41-9.26,13.89-2.13,17.88l.58-1.37c-2.51-1-5,.57-6,2.91-1.44,3.35-.65,8-.62,11.53,0,2.61-.23,5.79,2.65,7s5.79-.75,8-2.53c.66-.52-.24-1.7-.91-1.18-2.62,2-6.2,2.53-7.6,5.86-1.22,2.94-.48,6.3.74,9.1,3.32,7.65,9.29,14.87,15.59,20.26,4.41,3.76,12.36,10.85,18.28,6.11s3.54-14.79.43-20.5c-.46-.86-1.7-.11-1.29.75,2.31,4.93,2.16,10.41,3,15.69.21,1.35.26,3.73,1.63,4.53s3.6.15,5-.19a19.3,19.3,0,0,0,14.4-16.15c.12-1-1.38-1-1.5,0a17.77,17.77,0,0,1-14,14.85,7.07,7.07,0,0,1-2.53.27c-1.36-.45-1.33-2.16-1.52-3.29-.35-2.15-.51-4.32-.74-6.48a30.9,30.9,0,0,0-2.45-10l-1.29.75c2.79,5.13,5.68,15.84-1.14,19.29-3.53,1.78-7.34-1-10.18-2.88a57.1,57.1,0,0,1-7.62-6.17,64.89,64.89,0,0,1-11.46-15c-1.6-2.87-3.13-6.37-2.2-9.72s4.73-3.89,7.2-5.8l-.91-1.18c-1.77,1.41-5.05,3.83-7.23,1.66-1.41-1.4-.88-5-.89-6.88,0-2.95-1.05-13.59,4.73-11.2.79.33,1.3-1,.57-1.37-5.74-3.21-.76-11.05,1.86-14.71a32.66,32.66,0,0,1,2.56-3.18c.66-.71,2.44-3,3.52-2.87,1.52.23.2,3.76.58,4.85a.76.76,0,0,0,1.1.45l1.69-1a.75.75,0,0,0,.34-.84,10.92,10.92,0,0,1,2.33-10.32c2.73-3.09,6.41-3.36,10.24-3.88a17.44,17.44,0,0,0,4.28-1c2-.77,3.67-2,5.87-1.93,4.66.06,8.06,4,10.87,7.2l-.12-.91a24.93,24.93,0,0,0-4,19.76c.2.94,1.65.54,1.44-.4Z" transform="translate(-865.88 -446.21)"/><path class="cls-10" d="M1003.18,567.35a35.12,35.12,0,0,0,7.44,8.18c2.16,1.71,4.79,3.52,7.68,3.38,2.71-.14,4.49-2.27,5.76-4.47a16.61,16.61,0,0,0,1.82-4.67c.52-2.29.22-4.56,2.3-6.18,2.45-1.9,4.41-3.6,5.81-6.46a26.17,26.17,0,0,0,2.35-10c.38-6.22.8-14.07-2.46-19.67-1.26-2.18-3.49-4.67-6.24-4.58-3.5.12-5.3,3.62-6.52,6.4l.91.38c.56-2,2.85-3.16,3.2-5.27s-1.42-4.06-2.54-5.55a32.64,32.64,0,0,0-12.23-9.84c-.58-.27-1.09.59-.51.86a31.74,31.74,0,0,1,11,8.37c1.58,1.89,4.19,4.72,2.72,7.24-.84,1.43-2.13,2.25-2.58,3.93-.14.52.68.91.91.38.81-1.84,1.65-3.86,3.39-5,2.5-1.69,4.81-.45,6.52,1.59,2.25,2.67,3,6.24,3.35,9.63.66,7.07.94,15.73-2.82,22a14.08,14.08,0,0,1-4.12,4.4,6.77,6.77,0,0,0-2.33,2,7.84,7.84,0,0,0-.71,2.94,17.66,17.66,0,0,1-1.87,6.25c-1.14,2.11-2.8,4.36-5.46,4.35a9.87,9.87,0,0,1-5.35-2.17,33.52,33.52,0,0,1-8.54-8.91c-.35-.53-1.22,0-.86.5Z" transform="translate(-865.88 -446.21)"/><g class="cls-11"><path class="cls-12" d="M984.25,565.93c.18,1.87,2.23,3.11,4.1,3a9.63,9.63,0,0,0,5.08-2.23A45.81,45.81,0,0,0,1007.91,549a117.25,117.25,0,0,1-5.18,15.84,18.75,18.75,0,0,1-3.25,5.73c-2.29,2.47-5.62,3.63-8.85,4.59a30.59,30.59,0,0,1-5.26,1.2,16.72,16.72,0,0,1-8.63-1.36c-.76-.34-1.61-.93-1.55-1.76a2.12,2.12,0,0,1,.49-1.05,18.74,18.74,0,0,1,8.66-6.38" transform="translate(-865.88 -446.21)"/><path class="cls-12" d="M983.77,566.06a4.4,4.4,0,0,0,4.58,3.4c2.8-.05,5.27-2.16,7.32-3.84a46.87,46.87,0,0,0,12.67-16.38l-.92-.39a122.51,122.51,0,0,1-4.15,13.25c-1.92,5-3.9,9.16-9.13,11.31-4.47,1.84-9.54,3.22-14.34,2.08-.87-.21-2.79-.56-3.38-1.24-1.26-1.46.82-3.24,1.68-4a18.59,18.59,0,0,1,6.37-3.92c.6-.23.34-1.2-.26-1a20.09,20.09,0,0,0-6.52,3.92c-1.12,1-3.49,2.91-2.87,4.7s3.75,2.33,5.15,2.63a19.07,19.07,0,0,0,8.63-.33c5.23-1.32,10.46-3.13,13.18-8.13,3.16-5.79,5-12.63,6.61-19,.13-.53-.67-.92-.92-.39a46.37,46.37,0,0,1-8.41,12.39,44.88,44.88,0,0,1-5.3,4.73c-2.36,1.79-8,4.78-9-.05-.14-.63-1.1-.37-1,.26Z" transform="translate(-865.88 -446.21)"/></g><g class="cls-11"><path class="cls-12" d="M963.26,559.36a9.79,9.79,0,0,1,5.33-4.13,1.71,1.71,0,0,1,1.18,0c.68.33.67,1.34.33,2a6.41,6.41,0,0,0-1,2.06,2.32,2.32,0,0,0,1.73,2.19,6.85,6.85,0,0,0,3,0l5.21-.73a5.18,5.18,0,0,0,4,3.34,84.06,84.06,0,0,0-9.56,8.32,3.6,3.6,0,0,0-1,1.36,2.44,2.44,0,0,0,1.11,2.59,6.61,6.61,0,0,0,2.85.88,46.07,46.07,0,0,0,17.15-1,13.44,13.44,0,0,1,2.14,7.41c-2-1.52-4.78-1.67-7.3-1.38s-5,.95-7.55.82c-5.21-.26-9.65-3.8-13.21-7.61a22.28,22.28,0,0,1-5.07-7.55,9.86,9.86,0,0,1,.76-8.78" transform="translate(-865.88 -446.21)"/><path class="cls-12" d="M963.7,559.61c.9-1.34,2.64-3.41,4.37-3.63,1-.65,1.39-.1,1.22,1.65l-.37.67a5.14,5.14,0,0,0-.27,1,2.9,2.9,0,0,0,2.46,2.75,7.92,7.92,0,0,0,2.83,0c1.12-.14,3.33-.94,4.4-.62.82.25,1.28,1.4,1.93,2a6.05,6.05,0,0,0,2.67,1.26l-.12-.91c-3.34,2.51-7,5.2-9.66,8.4-1.59,1.88-1.48,4,1,5.11,3.33,1.56,8.37,1.1,11.92.84,2-.15,4-.72,6-.84s2,.48,2.64,2.39a14.2,14.2,0,0,1,.64,4.14l.75-.43c-2.62-1.73-5.61-1.74-8.63-1.31-4.8.68-8.78,1.09-13.11-1.53-6.31-3.81-15.26-13.16-10.45-21,.34-.55-.52-1.05-.86-.5-4.53,7.35,2.08,15.32,7.52,19.95,2.75,2.33,6,4.28,9.65,4.68,5.15.56,10.65-2.58,15.37.56a.51.51,0,0,0,.76-.44,15.23,15.23,0,0,0-2.2-7.66.52.52,0,0,0-.57-.23,46.77,46.77,0,0,1-16.12,1,8.68,8.68,0,0,1-2.26-.37l-1.89-1.26.6-2.45a13.87,13.87,0,0,1,2.6-2.53,87,87,0,0,1,6.86-5.72.5.5,0,0,0-.12-.91,5.09,5.09,0,0,1-3.69-3.11.51.51,0,0,0-.57-.23l-3.9.54a14.22,14.22,0,0,1-2.68.32l-1.78-.36-.43-2.65c.18-1.08,1.31-2.07.16-3.11-2.19-2-6.42,2.53-7.48,4.08-.36.54.51,1,.87.51Z" transform="translate(-865.88 -446.21)"/></g><g class="cls-11"><path class="cls-12" d="M964,538.09a11.47,11.47,0,0,0-.84,10.2c.24.6.54,1.19.72,1.81a9.91,9.91,0,0,1,.27,2l.23,3.42,2-1.49a15.4,15.4,0,0,1-2.05-3.78,5.26,5.26,0,0,1,.24-4.19c.34-.6.85-1.17.79-1.85a2.72,2.72,0,0,0-.46-1.1,9,9,0,0,1-1.09-6.14" transform="translate(-865.88 -446.21)"/><path class="cls-12" d="M963.58,537.84A12.32,12.32,0,0,0,962,546a23.69,23.69,0,0,0,1.19,3.69,23.44,23.44,0,0,1,.69,5.86c0,.33.42.68.75.43l2-1.48a.51.51,0,0,0,.18-.69c-1-1.52-2.12-3.14-2.24-5s1.28-2.82,1.28-4.42a3.6,3.6,0,0,0-.52-1.48,10,10,0,0,1-1-5.89c.08-.64-.92-.63-1,0a10.07,10.07,0,0,0,.43,4.84c0-.07.74,1.64.72,1.56.44,1.83-.16,1.79-.65,3.14-1,2.8.65,5.52,2.14,7.78l.18-.69-2,1.48.75.44c-.15-2.24-.1-4.5-.91-6.61-1.4-3.67-1.51-7.1.46-10.59a.5.5,0,0,0-.86-.51Z" transform="translate(-865.88 -446.21)"/></g><g class="cls-11"><path class="cls-12" d="M976,521.05c2.66.6,5,2.21,7.19,3.79a11.85,11.85,0,0,1-3.7-4.4c-.36-.73-.79-1.61-1.6-1.67s-1.44.9-1.78,1.72l-.18-.58" transform="translate(-865.88 -446.21)"/><path class="cls-12" d="M975.88,521.54a21.2,21.2,0,0,1,7.07,3.74c.53.37,1-.49.5-.87a11.69,11.69,0,0,1-2.86-3,11.64,11.64,0,0,0-1.6-2.6c-1.41-1.25-2.72.18-3.3,1.48l.91.12-.17-.58c-.19-.62-1.16-.35-1,.26l.18.58c.11.38.73.54.91.12s.42-1,.74-1.22c.64-.36,1.26.23,1.53.69.4.68.71,1.38,1.15,2a13.27,13.27,0,0,0,3,3l.5-.87a22,22,0,0,0-7.31-3.84.5.5,0,0,0-.26,1Z" transform="translate(-865.88 -446.21)"/></g><g class="cls-11"><path class="cls-12" d="M982,518.6a7.5,7.5,0,0,0,3.32,5.41c.91.54,2,.81,2.9,1.28a7.75,7.75,0,0,1,4,5c.36,1.47.27,3,.77,4.47.56-5.15-1.26-10.22-1.93-15.35a12.5,12.5,0,0,1-9.54-1.8" transform="translate(-865.88 -446.21)"/><path class="cls-12" d="M981.5,518.73a8.11,8.11,0,0,0,4.32,6.1c2.09,1.06,3.88,1.56,5.14,3.7,1.14,2,1,4.27,1.55,6.39a.5.5,0,0,0,1-.13c.43-5.28-1.21-10.31-2-15.48,0-.28-.38-.39-.61-.35a12.57,12.57,0,0,1-9.16-1.76c-.54-.34-1,.53-.5.87a13.57,13.57,0,0,0,9.92,1.86l-.61-.35c.72,5.07,2.33,10,1.91,15.21l1-.14c-.89-3.28-.59-6.28-3.38-8.69a12,12,0,0,0-3.21-1.77,7.09,7.09,0,0,1-4.41-5.73c-.12-.63-1.09-.36-1,.27Z" transform="translate(-865.88 -446.21)"/></g><g class="cls-13"><path class="cls-12" d="M1002.1,524.85a15.49,15.49,0,0,1,3,11.9,4.73,4.73,0,0,0-.07,2.27c.39,1.21,1.72,1.77,2.73,2.52a6.39,6.39,0,0,1,2.17,2.86c-1.27-6.18-2.58-12.47-5.6-18-.22-.38-.72-.81-1-.48" transform="translate(-865.88 -446.21)"/><path class="cls-12" d="M1001.67,525.11a15.7,15.7,0,0,1,2.87,6.28c.43,2.15,0,4,0,6.12-.1,3.63,3.65,4.08,5,7.14.25.54,1,.14.91-.38a89.35,89.35,0,0,0-3.39-13.1c-.51-1.38-1.77-6.38-3.84-5.75-.62.19-.36,1.16.26,1,1.2-.37,3.67,8.18,4,9.33.8,2.91,1.41,5.86,2,8.81l.91-.38a8.11,8.11,0,0,0-2.87-3.4c-1.62-1.19-1.91-1-1.91-3.87,0-.82.21-1.65.22-2.49a16.29,16.29,0,0,0-3.3-9.79c-.38-.51-1.25,0-.86.51Z" transform="translate(-865.88 -446.21)"/></g><g class="cls-11"><path class="cls-12" d="M1008.4,523.26a15.72,15.72,0,0,0,6.89,8.66,2.82,2.82,0,0,1,1.05.84,2.54,2.54,0,0,1,.24,1.47,63.07,63.07,0,0,1-1.39,13.59c-2,7.92-7.05,15.18-6.91,23.34-.87-2-3.78-2.78-4.36-4.93a5.35,5.35,0,0,1,.17-2.6q1.93-8.18,4.61-16.15a20.79,20.79,0,0,0,1.5-6.82c-.05-3.86-2.36-7.48-2.15-11.33.1-1.94.8-4-.16-5.71" transform="translate(-865.88 -446.21)"/><path class="cls-12" d="M1007.91,523.39a16.7,16.7,0,0,0,5.87,8.13,4.41,4.41,0,0,1,2.28,3.62,28,28,0,0,1-.15,3.66,50.64,50.64,0,0,1-.9,7.56c-1.78,8.49-7.19,15.92-7.23,24.8l.93-.25c-.75-1.41-2-2-3.09-3.12-2.16-2.19-.81-5.09-.15-7.65,1.2-4.65,2.65-9.21,4.13-13.78a17.29,17.29,0,0,0,0-11.1,18.15,18.15,0,0,1-1-6.77c.16-1.87.45-3.36-.3-5.12-.25-.59-1.11-.08-.86.51,1,2.28-.1,4.84.16,7.22a36.77,36.77,0,0,0,1.4,5.63c1.44,5.27-.55,9.64-2.09,14.61-1.29,4.17-3,8.74-3.51,13.09-.41,3.79,2.89,4.11,4.42,7a.51.51,0,0,0,.94-.25c.05-9.49,6.21-17.52,7.59-26.78a64,64,0,0,0,.58-6.5c.08-1.53.64-4-.18-5.37s-2.95-2.11-4.1-3.25a15.58,15.58,0,0,1-3.79-6.13c-.21-.61-1.18-.35-1,.26Z" transform="translate(-865.88 -446.21)"/></g><g class="cls-14"><path class="cls-15" d="M991.34,546.78c-2.25,4.72-1.5,10.59-4.36,15a14.43,14.43,0,0,0-1.87,3.06,2.55,2.55,0,0,0,1,3.14,3.43,3.43,0,0,0,2.9-.47,19,19,0,0,0,6.09-4.53,9,9,0,0,0,2.17-7.08c-.54-3.09-3-5.4-5.13-7.74-.38-.42-.77-1.06-.42-1.51" transform="translate(-865.88 -446.21)"/><path class="cls-15" d="M990.91,546.52c-2.22,5-1.6,10.93-4.77,15.58-.94,1.38-2.09,2.89-1.57,4.67a2.5,2.5,0,0,0,3,1.78c2-.34,4.14-1.95,5.69-3.19a12,12,0,0,0,4.12-5.6,8.23,8.23,0,0,0-.16-5.62,12.47,12.47,0,0,0-1.88-3.08c-.67-.84-3.47-3.26-3.19-4.3a.5.5,0,0,0-1-.27,2,2,0,0,0,.55,2c1.2,1.69,2.9,2.93,4,4.77,2.95,5.2-.66,10.05-5.12,12.75-1.06.64-4.2,2.7-5.08.48-.52-1.3.59-2.63,1.26-3.6a15.5,15.5,0,0,0,2.13-4.17c1.24-3.84,1.21-8,2.85-11.7.26-.59-.6-1.1-.86-.51Z" transform="translate(-865.88 -446.21)"/></g><g class="cls-14"><path class="cls-15" d="M1017.67,539.79c-.73,9.73-5.93,18.55-8,28.09a6.89,6.89,0,0,0-.11,3.46,7.46,7.46,0,0,0,2.58,3.22c1.72,1.46,3.76,3,6,2.61s3.56-2.58,4.65-4.54c1.34-2.43,2.73-5.09,2.37-7.85s-2.47-5-3.9-7.47c-3-5.09-3.08-11.3-3.11-17.19" transform="translate(-865.88 -446.21)"/><path class="cls-15" d="M1017.17,539.79c-.77,8.63-4.77,16.38-7.14,24.62-.87,3-2,6.39.23,9.06,1.71,2,4.7,4.45,7.49,4.23s4.24-2.68,5.44-4.81c1.59-2.85,3.14-6,2.17-9.36-1.09-3.69-4.12-6.44-5.32-10.16-1.37-4.26-1.39-8.82-1.42-13.25a.5.5,0,0,0-1,0c0,5.91.14,12.17,3.18,17.44,2,3.4,4.63,6.07,3.56,10.34-.71,2.79-3.1,7.86-6.13,8.62-2.24.55-4.1-.93-5.73-2.31-2-1.75-2.89-3.47-2.35-6.2a66.94,66.94,0,0,1,2.88-9.49c2.2-6.13,4.56-12.19,5.14-18.73.06-.64-.94-.64-1,0Z" transform="translate(-865.88 -446.21)"/></g><g class="cls-14"><path class="cls-15" d="M1007,573.44c-2.83,1-4.43,4-5.12,6.86s-.74,6-1.82,8.75c-.49,1.27-1.17,2.78-.39,3.89a2.51,2.51,0,0,0,1.55.93c2.47.56,4.85-1.1,6.74-2.78a12.17,12.17,0,0,0,3.25-4,9.67,9.67,0,0,0,.7-3.06,12.45,12.45,0,0,0-.76-5.93,7.6,7.6,0,0,0-4.1-4.21" transform="translate(-865.88 -446.21)"/><path class="cls-15" d="M1006.86,573c-4.79,1.95-5.49,7.12-6.24,11.64-.49,3-4.21,9.69,1.41,9.89,4.25.15,9.23-4.77,10.13-8.72,1.05-4.64-.27-10.16-4.86-12.27-.58-.27-1.09.59-.51.86,4.16,1.92,5.38,6.93,4.4,11.14-.73,3.13-5,7.84-8.42,7.9-4.21.06-2.62-2.87-1.94-5a37.33,37.33,0,0,0,1-5.26c.57-3.57,1.54-7.65,5.26-9.16.59-.24.33-1.21-.26-1Z" transform="translate(-865.88 -446.21)"/></g><g class="cls-14"><path class="cls-15" d="M973.61,533.54a5.89,5.89,0,0,0-1.75,3.41,2.13,2.13,0,0,0,.15,1.3,1,1,0,0,0,1.11.5c.38-.15.56-.58.79-.93a2.27,2.27,0,0,1,2.44-.94,1.86,1.86,0,0,1,1.27,2.17,4.6,4.6,0,0,1-.78,1.33c-1.4,2.1-1.12,4.85-.79,7.34a.63.63,0,0,0,.2.45c.22.14.49,0,.67-.22a15.82,15.82,0,0,0,3.38-5.77c1-2.53,1.66-5.49.31-7.84a5.09,5.09,0,0,0-7.5-1.49" transform="translate(-865.88 -446.21)"/><path class="cls-15" d="M973.26,533.19c-1.27,1.38-3.56,6.38.11,6,.21,0,.35-.45.56-.47.31-.47.81-.36,1.5.34,1.49,0,1.81.32,1,1.08-.08.77-.81,1.68-1,2.52a10.57,10.57,0,0,0,.37,5.77.48.48,0,0,0,.43.25c1.74,0,3.06-3,3.66-4.29,1.12-2.37,2.19-5.12,1.91-7.79a5.69,5.69,0,0,0-9-4.17c-.53.35,0,1.21.51.86a4.69,4.69,0,0,1,7.34,2.67c.49,2-.19,4.2-.89,6.1-.33.88-2.44,6.16-3.4,4.54-.86-1.45.14-4.68.85-6,.82-1.46,1.52-3.4-.67-4.18a2.55,2.55,0,0,0-1.86.08s-1.23.94-1.18.94c-2.42,0-.11-3,.4-3.57s-.27-1.19-.7-.71Z" transform="translate(-865.88 -446.21)"/></g><g class="cls-14"><path class="cls-15" d="M971,541.92a8.27,8.27,0,0,0-2.69,4.33,14.71,14.71,0,0,0-.31,2,9.12,9.12,0,0,0,.06,3.17A3.37,3.37,0,0,0,970,553.8a.8.8,0,0,0,.59,0c.36-.16.36-.68.29-1.07-.23-1.34-.5-2.68-.81-4a3.88,3.88,0,0,1-.14-1.31,4.8,4.8,0,0,1,.36-1.11,5.49,5.49,0,0,0-.06-3.79" transform="translate(-865.88 -446.21)"/><path class="cls-15" d="M970.63,541.57a9.88,9.88,0,0,0-3.15,6.67c-.2,2-.18,5.2,2.23,6,1.8.59,1.65-1.23,1.47-2.41-.29-1.89-.81-3.46-.45-5.36a7.53,7.53,0,0,0-.06-4.05c-.19-.62-1.16-.36-1,.26.6,1.94-.16,3-.32,4.77-.12,1.37,1,3,.75,4.24-.46,1.94-1.55-.11-1.69-1.12a10.21,10.21,0,0,1,.11-2.92,8.55,8.55,0,0,1,2.77-5.37c.48-.43-.23-1.14-.7-.7Z" transform="translate(-865.88 -446.21)"/></g><g class="cls-14"><path class="cls-15" d="M972.5,516.87a5.46,5.46,0,0,0-2.28,2,42.09,42.09,0,0,0-5.82,10,8.06,8.06,0,0,0-.77,5.12c.22.77.86,1.59,1.65,1.44a1.65,1.65,0,0,0,1-.8c.67-1,.93-2.26,1.55-3.3.47-.8,1.14-1.46,1.62-2.26a25.3,25.3,0,0,0,1.37-3.55c.64-1.57,1.72-3,2.16-4.62a6.51,6.51,0,0,0-.61-4.87" transform="translate(-865.88 -446.21)"/><path class="cls-15" d="M972.25,516.44c-3,1.49-13.8,19-7.25,19.43,1.33.08,1.94-1.36,2.39-2.38.86-1.89,2.25-3.44,3-5.34,1.66-4.1,4.51-8,2.38-12.4-.28-.58-1.14-.08-.86.5,1.8,3.76-.62,6.44-1.87,9.83-.87,2.36-2.35,4.14-3.34,6.41l-.52,1.22-2.09.12c-.74-.43.24-3.42.44-4a29.87,29.87,0,0,1,2-4.35c1.42-2.69,3.42-6.74,6.22-8.14.58-.29.07-1.16-.5-.87Z" transform="translate(-865.88 -446.21)"/></g><g class="cls-14"><path class="cls-15" d="M1007.35,512.08a17.14,17.14,0,0,0-6.77-.31c-3.64.47-7.38,1.7-9.78,4.47a2.52,2.52,0,0,0-.8,1.82,1.92,1.92,0,0,0,1.92,1.54,4.44,4.44,0,0,0,2.49-.91,2.21,2.21,0,0,1,1-.46,2,2,0,0,1,1,.37,66.15,66.15,0,0,1,9.08,6.42c-.53-3.84-1-7.92.54-11.47.21-.47.46-.93.64-1.42" transform="translate(-865.88 -446.21)"/><path class="cls-15" d="M1007.48,511.6a20.31,20.31,0,0,0-10.9.52c-2.26.71-6.34,2.49-7,5.15-.56,2.3,1.94,3.22,3.76,2.55.44-.16.86-.56,1.3-.7,1.62-.48,2.68.56,3.93,1.37a68.34,68.34,0,0,1,6.61,4.89.5.5,0,0,0,.83-.49c-.61-4.5-.68-8.27,1.13-12.51.25-.59-.61-1.1-.87-.51-1.92,4.5-1.87,8.48-1.22,13.29l.84-.49a71.41,71.41,0,0,0-6.82-5c-1.74-1.13-2.75-2.13-4.68-1.52l-.54.33q-1.5,1.09-3.06-1.4c.18-.71,1.48-1.56,2-2a13.92,13.92,0,0,1,4.39-2.11,19.4,19.4,0,0,1,10-.41c.62.16.89-.81.26-1Z" transform="translate(-865.88 -446.21)"/></g><g class="cls-14"><path class="cls-15" d="M995.43,521.44l.56,4a29.62,29.62,0,0,1,.38,4.09,15.64,15.64,0,0,1-1,5.67,2.25,2.25,0,0,1,2.14-.88c1.12.19,1.89,1.18,2.81,1.85a10.91,10.91,0,0,0,4.83,1.58l-1.92-6.65a19.56,19.56,0,0,0-2.5-6,6.6,6.6,0,0,0-5.46-3" transform="translate(-865.88 -446.21)"/><path class="cls-15" d="M994.94,521.57c.65,4.64,1.53,9-.08,13.53a.5.5,0,0,0,.83.48c1.7-1.74,4.19,1.11,5.61,1.76a14.57,14.57,0,0,0,3.69.92.5.5,0,0,0,.61-.61c-1.58-5.48-2.8-15.9-10.36-16a.5.5,0,0,0,0,1c6.8.13,8,10.31,9.4,15.31l.61-.62a12.72,12.72,0,0,1-4.1-1.14c-1-.57-1.73-1.57-2.78-2a2.86,2.86,0,0,0-3.39.76l.84.48c1.66-4.68.75-9.27.09-14.05-.09-.64-1-.37-1,.26Z" transform="translate(-865.88 -446.21)"/></g><g class="cls-16"><path class="cls-5" d="M1008.15,522.38a33,33,0,0,0,6.18,7.69,8.65,8.65,0,0,1,2.64,2.75c.81,1.78,0,4,.82,5.77A14.5,14.5,0,0,1,1020.6,528a13.23,13.23,0,0,1-8.6-3.84,11.05,11.05,0,0,0-1.66-1.55,4,4,0,0,0-2.34-.69" transform="translate(-865.88 -446.21)"/><path class="cls-5" d="M1007.72,522.63a36.78,36.78,0,0,0,5.63,7.25c1.71,1.57,3.36,2.45,3.51,5.08a12.87,12.87,0,0,0,.45,3.76c.18.49,1,.46,1-.13a14.66,14.66,0,0,1,2.74-10.31c.24-.34-.09-.73-.43-.76a13.36,13.36,0,0,1-8.24-3.69c-1.41-1.34-2.36-2.23-4.36-2.39-.64-.05-.64.95,0,1,2.71.22,4.63,3.31,7,4.53a14.56,14.56,0,0,0,5.63,1.55l-.44-.75a15.52,15.52,0,0,0-2.87,10.82l1-.14c-1-2.94.18-5.41-2.38-7.75a42.25,42.25,0,0,1-7.31-8.57c-.35-.54-1.21,0-.86.5Z" transform="translate(-865.88 -446.21)"/></g><g class="cls-16"><path class="cls-5" d="M1003.4,566.32c-1.48,1.41-1.64,3.9-3.29,5.09a10.5,10.5,0,0,1-2.68,1,3,3,0,0,0-2.07,1.85,11.31,11.31,0,0,1,3.49,7.69,3.16,3.16,0,0,0,.67,2.39,23.1,23.1,0,0,1,6.18-11.84.87.87,0,0,0,.32-.54.83.83,0,0,0-.19-.49l-3.1-4.75" transform="translate(-865.88 -446.21)"/><path class="cls-5" d="M1003.05,566c-1.66,1.87-1.84,4.52-4.37,5.57-1.56.64-3,.81-3.75,2.51a.51.51,0,0,0,.08.6,11.33,11.33,0,0,1,3.18,5.91c.26,1.44,0,2.86.9,4.07.23.31.81.35.91-.12a24.84,24.84,0,0,1,5.51-11c.68-.83,1.13-1.05.8-2.09-.53-1.65-2.2-3.42-3.15-4.87-.35-.54-1.21,0-.86.5.92,1.41,3.36,3.92,2.5,5.75-.53,1.12-1.81,2.19-2.5,3.26a24.25,24.25,0,0,0-3.26,8.23l.91-.12c-1.1-1.44-.76-4.37-1.46-6.09a11.61,11.61,0,0,0-1.17-2.2c-.61-.9-1.08-.93-.68-2,.52-1.4,3.19-1.38,4.32-2.52,1.29-1.31,1.57-3.27,2.8-4.64.42-.48-.28-1.19-.71-.71Z" transform="translate(-865.88 -446.21)"/></g><g class="cls-16"><path class="cls-5" d="M972.85,546.63a5.61,5.61,0,0,0-.53,4.74c.17.48.49,1,1,1s1-.62,1.27-1.18c.42-.94.82-2.11.2-2.93a7.43,7.43,0,0,0-.93-.84,1,1,0,0,1-.3-1.14" transform="translate(-865.88 -446.21)"/><path class="cls-5" d="M972.42,546.38a6.2,6.2,0,0,0-.78,4.39c.2,1,.78,2.38,2,2.1s1.66-1.86,1.85-2.85a2.66,2.66,0,0,0-.14-1.69c-.28-.59-1.55-1.16-1.34-1.87a.5.5,0,0,0-1-.27,1.5,1.5,0,0,0,.23,1.37c.25.36.64.54.92.86a1.75,1.75,0,0,1,.2,1.85c-.09.28-.29,1.08-.57,1.27-1.05.69-1.24-.88-1.29-1.34a5.23,5.23,0,0,1,.71-3.32.5.5,0,0,0-.86-.5Z" transform="translate(-865.88 -446.21)"/></g><g class="cls-16"><path class="cls-5" d="M986.82,547.73a10.15,10.15,0,0,0-3,3.51,18.45,18.45,0,0,0-1,4.58,6.54,6.54,0,0,1-2,4.13c-.3.23-.66.46-.71.83-.08.53.49.89,1,1.11,1,.48,2.35.94,3.26.24a3.1,3.1,0,0,0,.93-1.58,53.34,53.34,0,0,0,2.55-12c0-.25,0-.6-.3-.59" transform="translate(-865.88 -446.21)"/><path class="cls-5" d="M986.46,547.37a10.73,10.73,0,0,0-3.1,3.73c-.84,1.88-.72,4-1.31,5.91-.72,2.34-4.44,4.19-.52,5.61,3.37,1.23,4.13-1.47,4.92-4.2A53.93,53.93,0,0,0,988,551c.14-1,.78-2.69-.15-3.43-.5-.4-1.21.3-.71.7.91.73-.86,6.75-1.18,8.06-.27,1-.51,3.2-1.2,4.1-.53.69-2.61,2.13-3.46,1-.61-.79.2-1.32.53-1.87a11.54,11.54,0,0,0,1.58-4.42,10.58,10.58,0,0,1,3.74-7.09c.49-.42-.22-1.12-.71-.71Z" transform="translate(-865.88 -446.21)"/></g><g class="cls-16"><path class="cls-5" d="M978.9,510.1c-.3,1.71-.53,3.69.62,5a5.44,5.44,0,0,0,3.21,1.42c2.31.43,4.82.68,6.57,2.24a7.36,7.36,0,0,1-5.37-.54c-1.15-.5-2.55-1.13-3.58-.41-.28.19-.49.46-.77.65a3.28,3.28,0,0,1-2.06.34c-.51,0-1.11-.12-1.31-.59a1.3,1.3,0,0,1,0-.68,18.11,18.11,0,0,1,2.47-7.2c.08-.14.34-.25.35-.09" transform="translate(-865.88 -446.21)"/><path class="cls-5" d="M978.42,510c-.34,2.1-.6,4.57,1.32,6,2.67,2,6.46,1,9.21,3.16l.22-.84c-2.23.61-3.75-.13-5.82-.85a4,4,0,0,0-2.93-.19c-1.48.49-3.65,2.54-3.57-.84,0-.77,2-5.69,1.89-5.72.57.27,1.08-.59.5-.87l-.15-.07a.5.5,0,0,0-.5,0c-1.5,1.14-2.24,4.24-2.62,6-.28,1.29-.77,2.78.66,3.41,2.23,1,3.61-1.29,5.71-1,1.26.18,2.45,1.06,3.74,1.29a7.34,7.34,0,0,0,3.36-.18c.32-.09.53-.59.22-.83a10.88,10.88,0,0,0-4.85-2,16.87,16.87,0,0,1-3-.59c-2.66-1.06-2.8-3.17-2.42-5.57.11-.63-.86-.9-1-.27Z" transform="translate(-865.88 -446.21)"/></g><g class="cls-16"><path class="cls-5" d="M973,525.87c-1.16.19-1.74,1.48-2,2.62a8.89,8.89,0,0,0-.27,4.65c.71-.46.87-1.44,1.39-2.12.93-1.21,2.73-1.2,4.25-1.08l-3.7-3.12" transform="translate(-865.88 -446.21)"/><path class="cls-5" d="M972.87,525.39c-2.87.8-3.18,5.53-2.66,7.89a.51.51,0,0,0,.84.22c.79-.66.92-1.72,1.65-2.41.93-.88,2.46-.73,3.64-.65a.5.5,0,0,0,.35-.85l-3.7-3.13c-.49-.41-1.2.29-.7.71L976,530.3l.36-.86a6.73,6.73,0,0,0-3.66.45c-1.23.67-1.33,2.06-2.34,2.9l.84.22c-.39-1.73-.25-6,2-6.66a.5.5,0,0,0-.27-1Z" transform="translate(-865.88 -446.21)"/></g><path class="cls-10" d="M948.6,484.19A36.3,36.3,0,0,0,947.15,474c-.53-1.79-1.2-3.63-.92-5.48s1.52-3.49,2.66-5c3.65-4.94,6.78-10.68,6.68-16.82a41.59,41.59,0,0,1,2,8.95c.34,3,.22,6.44-1.84,8.69-1.59,1.74-4.09,2.5-5.51,4.38s-1.44,4.08-1.51,6.26l-.24,7.78" transform="translate(-865.88 -446.21)"/><path class="cls-10" d="M949.1,484.19a38.89,38.89,0,0,0-1.34-9.83c-.58-2.09-1.49-4.27-.87-6.46.51-1.81,1.86-3.31,2.93-4.8,3.47-4.87,6.21-10.31,6.25-16.4l-1,.13A35.75,35.75,0,0,1,957.23,458a8.74,8.74,0,0,1-1.84,6,25.4,25.4,0,0,1-3.89,2.85c-4.61,3.46-3.35,10.88-3.51,15.92,0,.64,1,.64,1,0,.11-3.71-.36-8.05.67-11.65s4.85-4.2,6.92-7c3.47-4.71,1.12-12.6-.53-17.55a.5.5,0,0,0-1,.14,23.16,23.16,0,0,1-2.77,10.51c-1.5,2.9-3.58,5.34-5.28,8.09a8.42,8.42,0,0,0-.89,7.07,48.31,48.31,0,0,1,2,11.82.5.5,0,0,0,1,0Z" transform="translate(-865.88 -446.21)"/><path class="cls-10" d="M951,485.87c1.6-1.93.53-4.84,1-7.3a11,11,0,0,1,2.75-4.9,96.7,96.7,0,0,1,8.4-8.89c-2.37,3-4.83,6.14-5.17,9.91-.11,1.19,0,2.4-.21,3.58-.64,3.58-4,5.92-7.1,7.85-.08.05-.19.1-.27,0s.09-.2.1-.11" transform="translate(-865.88 -446.21)"/><path class="cls-10" d="M951.42,486.13a6.45,6.45,0,0,0,1-3.71c0-2.59-.1-4.6,1.47-6.88a68,68,0,0,1,9.58-10.41l-.71-.7c-2.25,2.81-4.62,5.8-5.22,9.46-.46,2.86,0,5.38-2,7.78-1.09,1.29-3.49,3.75-5.26,4l.62.62-.39.26c.64.07.64-.93,0-1h-.08a.49.49,0,0,0-.48.36l0,.11a.52.52,0,0,0,.62.62c1.36-.19,3.09-1.85,4.13-2.73a10.87,10.87,0,0,0,3.19-4.14c.86-2.21.37-4.64,1-6.91.78-2.92,2.82-5.41,4.67-7.73a.5.5,0,0,0-.71-.7,82.07,82.07,0,0,0-9.25,9.94,9.83,9.83,0,0,0-2,4.2c-.42,2.4.56,4.87-.89,7.05-.36.54.51,1,.87.51Z" transform="translate(-865.88 -446.21)"/><path class="cls-7" d="M956.66,484.81l5.39-8.67c1.32-2.12,2.73-4.33,4.88-5.6a4.31,4.31,0,0,1,2.52-.69c2,.2,3.22,2.31,4.92,3.41-1.57.44-3.17-.75-4.8-.67a4.5,4.5,0,0,0-3.37,2.27,27.49,27.49,0,0,0-1.75,3.82,17.48,17.48,0,0,1-2.19,3.61,4.59,4.59,0,0,1-1.54,1.37c-1.54.73-2.63.23-4.06,1.15" transform="translate(-865.88 -446.21)"/><path class="cls-7" d="M957.09,485.07c2.13-3.42,4.16-6.93,6.41-10.27,1.27-1.88,3.7-5.11,6.46-4.33,1.56.44,2.87,2.28,4.16,3.22l.12-.91c-1.89.27-3.61-1.06-5.49-.56a5.61,5.61,0,0,0-3.19,2.75c-1.15,1.94-1.69,4.16-3,6a5.7,5.7,0,0,1-4,2.66,7.18,7.18,0,0,0-2.17.71c-.58.3-.07,1.16.5.87,1.54-.8,3.34-.52,4.75-1.6a12.23,12.23,0,0,0,3-4.34c1-2.12,1.65-5.44,4.31-6.12,1.8-.46,3.64.82,5.5.55.47-.07.42-.69.12-.91-1.6-1.16-2.93-3.21-5-3.46-1.7-.2-3.3.84-4.49,1.93a24.39,24.39,0,0,0-4,5.38q-2.46,3.93-4.9,7.88c-.34.55.52,1.05.86.51Z" transform="translate(-865.88 -446.21)"/><path class="cls-7" d="M960.56,486.05c2.17-.39,3.89-2.05,6-2.76a20,20,0,0,1,4.7-.67,7.58,7.58,0,0,0,4.42-1.54,17.88,17.88,0,0,1-2.51,5.42,6.06,6.06,0,0,1-5.13,2.58,8.76,8.76,0,0,1-2.67-.85l-4.85-2.11" transform="translate(-865.88 -446.21)"/><path class="cls-7" d="M960.7,486.54c2.92-.72,5.09-2.84,8.15-3.22,2.54-.31,4.91-.22,7-1.81l-.73-.56c-1,2.89-2.35,6.86-5.83,7.55-2.76.54-6.15-1.75-8.6-2.81-.58-.25-1.09.61-.5.86,3,1.29,6.73,3.9,10.08,2.69s4.75-4.88,5.81-8c.13-.39-.38-.82-.73-.56-2.48,1.84-5.42,1.24-8.24,1.94-2.43.6-4.3,2.38-6.73,3a.5.5,0,0,0,.27,1Z" transform="translate(-865.88 -446.21)"/><path class="cls-6" d="M949.52,485.22l-.32-5.84c-.19-3.37-.28-7.06,1.74-9.77,1.38-1.84,3.56-2.93,5.07-4.66a11.58,11.58,0,0,0,2.55-7.2,34.73,34.73,0,0,0-.86-7.72c1.15,2.09,2.55,4,3.55,6.2a10.31,10.31,0,0,1,.94,6.94c-1.29,4.66-6.82,6.79-9.19,11a18.52,18.52,0,0,0-1.67,5.12l-1.45,6.58" transform="translate(-865.88 -446.21)"/><path class="cls-6" d="M950,485.22c-.19-3.48-.69-7.1-.32-10.58.45-4.28,3-5.85,5.86-8.52,4.54-4.26,3.66-10.7,2.62-16.22l-.91.38c1.86,3.27,4.58,6.62,4.68,10.55.1,3.7-2.52,6.07-5.06,8.32a17.49,17.49,0,0,0-4.75,5.63c-1.53,3.35-1.95,7.38-2.74,11-.14.63.82.9,1,.27.94-4.24,1.3-9.63,4.12-13.1,1.9-2.33,4.53-3.94,6.41-6.29,4.55-5.69.22-11.6-2.76-16.83a.5.5,0,0,0-.91.38c.69,3.69,1.43,7.63.19,11.29s-4.33,4.8-6.58,7.52c-3.56,4.3-2.09,11.18-1.81,16.25,0,.64,1,.64,1,0Z" transform="translate(-865.88 -446.21)"/><path class="cls-5" d="M951.28,486.6c4-1.71,6.52-5.92,7.45-10.2.57-2.65.69-5.48,2-7.82a7.47,7.47,0,0,1,6.54-3.8,6.19,6.19,0,0,1,5.76,4.62c.25,1.16.15,2.43.76,3.45-1.42-2.08-3.8-4.07-6.2-3.31a5.22,5.22,0,0,0-1.86,1.15c-2.52,2.21-3.9,5.4-5.59,8.29s-4,5.76-7.31,6.48" transform="translate(-865.88 -446.21)"/><path class="cls-5" d="M951.54,487c5.56-2.61,7.21-8.12,8.25-13.72.72-3.89,2.83-8.24,7.52-8a5.8,5.8,0,0,1,4.89,3.13c.72,1.48.51,3.19,1.2,4.69l.86-.5c-1.22-1.68-2.88-3.45-5.07-3.69s-3.81,1.27-5.11,2.8c-3.72,4.41-5.09,11.58-11.34,13.27a.5.5,0,0,0,.26,1c3.64-1,6-3.89,7.8-7a62.29,62.29,0,0,1,3.36-5.68,9.28,9.28,0,0,1,3.05-3c2.61-1.19,4.81,1,6.19,2.84a.5.5,0,0,0,.86-.5c-.78-1.73-.46-3.61-1.52-5.26a6.85,6.85,0,0,0-3.24-2.6,7.31,7.31,0,0,0-7.2,1.3c-2.93,2.37-3.22,6-3.89,9.43-.88,4.49-3.09,8.68-7.38,10.7-.58.27-.07,1.14.51.86Z" transform="translate(-865.88 -446.21)"/><path class="cls-12" d="M953.33,486.15c1-1.19,3-.74,4.51-1.11,3.1-.75,4.63-4.84,7.79-5.27,2.88-.38,5.54,2.58,8.36,1.89L968.06,483a18,18,0,0,0-3,.84c-.87.35-1.69.83-2.56,1.19-3,1.23-6.36.95-9.58.65" transform="translate(-865.88 -446.21)"/><path class="cls-12" d="M953.68,486.51c1.49-1.25,4.06-.61,5.76-1.61a25.94,25.94,0,0,0,3.51-3.12c3.89-3.4,7,1,11.18.36l-.27-1c-3,.67-6.18,1.09-9,2.22-2.27.9-4.06,1.85-6.56,2a35,35,0,0,1-5.32-.23c-.64-.06-.64.94,0,1,3.29.3,6.71.57,9.84-.72a67,67,0,0,1,11.34-3.3c.64-.14.35-1.06-.27-1-4,.6-6.82-3.61-10.7-.85-1.6,1.13-2.71,2.95-4.48,3.86s-4,.19-5.71,1.62c-.49.41.22,1.12.71.71Z" transform="translate(-865.88 -446.21)"/><path class="cls-4" d="M948.87,483.75a9.05,9.05,0,0,0-2.76,4.58,12.9,12.9,0,0,0-.14,2.56l.13,9.94c.09-2.56.28-5.4,2.11-7.19.64-.61,1.42-1.05,2.11-1.6a8.72,8.72,0,0,0,3.25-6.05,7.89,7.89,0,0,1-4.7-2.24" transform="translate(-865.88 -446.21)"/><path class="cls-4" d="M948.51,483.4a9.4,9.4,0,0,0-3,6.21c-.2,3.71.08,7.5.12,11.22a.5.5,0,0,0,1,0,15.55,15.55,0,0,1,.67-4.75c.7-1.9,2.28-2.69,3.7-3.94a9.55,9.55,0,0,0,3.1-6.15c0-.29-.26-.48-.5-.5a8.07,8.07,0,0,1-4.35-2.09c-.5-.4-1.21.3-.71.71a15.47,15.47,0,0,0,2,1.43,20.85,20.85,0,0,1,2.2.85c1.5,2-2.82,5.27-4,6.25-2.57,2.06-2.91,5.08-3,8.19h1l-.11-8.45c0-3.32.31-5.79,2.73-8.27.45-.46-.26-1.17-.71-.71Z" transform="translate(-865.88 -446.21)"/><g class="cls-17"><path class="cls-3" d="M949.26,484.12c.09,0,0-.16-.09-.08s0,.17.07.24a6.14,6.14,0,0,0,4.06,2.08,10.56,10.56,0,0,1-4.41,7.15,3.5,3.5,0,0,0-1.2,1.09,15.43,15.43,0,0,0,2.52-4.88,5.73,5.73,0,0,0-1-5.2" transform="translate(-865.88 -446.21)"/><path class="cls-3" d="M949.74,484.26v-.08a.51.51,0,0,0-.34-.61l-.11,0a.51.51,0,0,0-.61.62c.43,1.64,3,2.46,4.47,2.67l-.35-.61a10.43,10.43,0,0,1-2.43,5.29c-.94,1.07-2.26,1.7-3.12,2.83l.87.5c2.18-3.19,4.14-7.19,1.43-10.69-.39-.5-1.1.21-.71.71,2.4,3.09.27,6.76-1.59,9.48-.37.54.49,1,.87.5,1.06-1.4,2.76-2.19,3.8-3.69a11.63,11.63,0,0,0,1.85-4.67c0-.24-.06-.57-.35-.61-1-.16-3.45-.74-3.78-2l-.61.62h.1l-.35-.61V484c-.11.63.86.9,1,.27Z" transform="translate(-865.88 -446.21)"/></g><g class="cls-17"><path class="cls-9" d="M949,482.65c.18-2.9-.86-5.49-1.73-8.22-1.23-3.88-1-6.92,1.38-10.33,3.6-5.2,7.3-10.2,6.74-16.87l-.93.25a15.12,15.12,0,0,1,3,11.5c-.09.63.87.91,1,.27a16.05,16.05,0,0,0-3.1-12.27c-.26-.35-1-.3-.93.25a18.57,18.57,0,0,1-2.94,11.11c-1.59,2.67-3.89,5-5.18,7.81-2.59,5.74,2.1,10.75,1.73,16.5,0,.65,1,.64,1,0Z" transform="translate(-865.88 -446.21)"/></g><g class="cls-17"><path class="cls-9" d="M957.85,452.52c2.07,2.53,4.36,5.37,4.28,8.83s-2.84,5.18-5.21,7a13.35,13.35,0,0,0-5.7,10.74.5.5,0,0,0,1,0,12,12,0,0,1,4.47-9.3c1.89-1.56,4.13-2.81,5.44-5,2.8-4.61-.69-9.49-3.58-13-.4-.5-1.11.21-.7.71Z" transform="translate(-865.88 -446.21)"/></g><g class="cls-17"><path class="cls-9" d="M965.36,464.39c-3.39,1.28-5.66,2.73-6.68,6.36-1.19,4.28-1.57,10.63-6,12.92-.57.29-.06,1.16.51.86,3-1.56,4.09-4.59,4.91-7.69.55-2.06,1-4.19,1.62-6.22,1-3.05,3-4.19,5.87-5.27.6-.22.34-1.19-.26-1Z" transform="translate(-865.88 -446.21)"/></g><g class="cls-17"><path class="cls-9" d="M973.72,472.52c-2.08-3.09-5.55-3.73-8.5-1.3-4.17,3.42-3.79,11.24-9.84,12.49-.63.13-.36,1.09.27,1,3.25-.67,5-3.34,6.33-6.19.85-1.87,1.53-3.93,2.89-5.52,2.31-2.73,5.87-3.07,8,.07.36.53,1.23,0,.87-.51Z" transform="translate(-865.88 -446.21)"/></g><g class="cls-17"><path class="cls-9" d="M955.5,486.65c1.24-.08,3-.67,4.12-.41,2.15.46,2.89,2,4.48,3.17a5.36,5.36,0,0,0,4.15.88c4.44-.76,6.27-5.17,7.25-9.06a.5.5,0,0,0-.61-.61l-1.77,0a.5.5,0,0,0-.27,1,4.38,4.38,0,0,0,2.3,0l-.61-.61a14.55,14.55,0,0,1-2.73,6.18c-2.09,2.37-5.39,3.1-7.83.81-1-.94-1.71-2-3.06-2.49-1.73-.58-3.66.06-5.42.18-.64,0-.64,1,0,1Z" transform="translate(-865.88 -446.21)"/></g><path class="cls-5" d="M973.53,481.8c-1.69,2.1-2.85,5.46-5.67,6.23l.39.91c2.75-1.45,5.64-3.16,6.37-6.42.12-.53-.63-.9-.91-.38a5.24,5.24,0,0,1-.91,1.18c-.47.45.24,1.16.7.71a6,6,0,0,0,1.07-1.39l-.91-.38c-.68,3-3.4,4.5-5.92,5.82a.5.5,0,0,0,.39.91c3.11-.85,4.25-4.19,6.11-6.48.4-.5-.31-1.21-.71-.71Z" transform="translate(-865.88 -446.21)"/><path class="cls-5" d="M958.46,454.63a8.29,8.29,0,0,1,.57,9.86.51.51,0,0,0,.79.61,7.62,7.62,0,0,0,.67-9.59c-.3-.43-1.09-.19-.91.39,1,3,1.89,6.34-.22,9.1h.86l-.19-.43c-.27-.59-1.13-.08-.87.51l.2.43c.17.38.66.26.86,0,2.27-3,1.36-6.6.32-9.88l-.91.39a6.6,6.6,0,0,1-.52,8.37l.79.61a9.34,9.34,0,0,0-.73-11.08c-.41-.5-1.12.21-.71.71Z" transform="translate(-865.88 -446.21)"/><path class="cls-5" d="M955.63,450.38c.18,3.33,1.43,8.52-.62,11.42l.86.5a15.69,15.69,0,0,0,1.33-11c-.15-.64-1.06-.36-1,.27a28.77,28.77,0,0,1,.46,7.41c-.07.64.93.63,1,0a29.54,29.54,0,0,0-.5-7.68l-1,.27A14.61,14.61,0,0,1,955,461.8a.5.5,0,0,0,.86.5c2.24-3.18,1-8.32.76-11.92,0-.64-1-.65-1,0Z" transform="translate(-865.88 -446.21)"/><path class="cls-4" d="M945.42,499.5c.27,4.51.69,8.82-.13,13.3-.72,4,.17,7.74.06,11.71a.5.5,0,0,0,1,0,58.26,58.26,0,0,0-.38-6.19,28.82,28.82,0,0,1,.66-7.11c.64-3.82,0-7.87-.21-11.71,0-.64-1-.64-1,0Z" transform="translate(-865.88 -446.21)"/><path class="cls-4" d="M946.52,494.15a135,135,0,0,0-.45,14.22c0,4.71-1.66,9-1.09,13.75a35.67,35.67,0,0,0,2.95,11.38c1.71,3.46,4.44,6.3,7.08,9.06.45.47,1.16-.24.71-.7-2.93-3.06-6-6.23-7.53-10.23a36,36,0,0,1-2.4-12.25c0-4,1.37-7.83,1.26-11.9a107.93,107.93,0,0,1,.47-13.33c.07-.64-.94-.64-1,0Z" transform="translate(-865.88 -446.21)"/><path class="cls-4" d="M945.57,512.42a49.64,49.64,0,0,0-.22,10.62,45.34,45.34,0,0,0,3,10.56,18.19,18.19,0,0,0,4.12,6.64c2.21,2.24,4.72,4.1,6.29,6.92.31.56,1.17.05.86-.51a23.07,23.07,0,0,0-4.84-5.59,20,20,0,0,1-5.47-7.72,47,47,0,0,1-2.89-9.62,46.45,46.45,0,0,1,.13-11.3c.06-.64-.94-.64-1,0Z" transform="translate(-865.88 -446.21)"/><path class="cls-4" d="M947.59,530.2a21.34,21.34,0,0,1,4.94-5.14c1.31-1,2.81-1.89,3.46-3.39a8.86,8.86,0,0,0,.44-3.29,19.35,19.35,0,0,1,1.24-6.92,18,18,0,0,1,7.16-8,53.57,53.57,0,0,1,9.88-4.54c-4.33,3.63-8.86,7.53-10.7,12.88-.8,2.32-1,4.81-1.93,7.1a13.42,13.42,0,0,1-5.89,6.76c-2.76,1.55-6.09,2.12-8.52,4.15" transform="translate(-865.88 -446.21)"/><path class="cls-4" d="M948,530.45a22.38,22.38,0,0,1,4.19-4.5,22.64,22.64,0,0,0,3.39-2.77c2-2.34,1.16-5.83,1.7-8.63,1.67-8.69,10.13-12.32,17.55-15.14l-.49-.83c-5.08,4.25-9.82,8.66-11.45,15.31-1,4.28-2.16,8.11-6,10.74-3,2-6.62,2.56-9.49,4.76-.5.39,0,1.26.5.87,3-2.28,6.8-2.8,9.81-5a14.06,14.06,0,0,0,5-6.67c1.39-3.9,1.72-7.78,4.21-11.25a46.17,46.17,0,0,1,8.15-8.08.5.5,0,0,0-.49-.83c-6.6,2.51-14.09,5.5-17.18,12.4a16.38,16.38,0,0,0-1.28,4.81c-.29,2.3.23,4.93-1.3,6.84-1.12,1.4-2.85,2.27-4.18,3.47a23.54,23.54,0,0,0-3.48,4c-.38.52.49,1,.86.5Z" transform="translate(-865.88 -446.21)"/><path class="cls-4" d="M947.25,528.9a7.7,7.7,0,0,1-3.83,1.1,5.68,5.68,0,0,1-2.63-1,31.81,31.81,0,0,1-5.14-5c-1.64-1.76-3.58-3.42-5.95-3.88a10.2,10.2,0,0,0-6.07,1A18.33,18.33,0,0,0,915,529a16.54,16.54,0,0,0-1.55,11.56,19.64,19.64,0,0,1,3.13-6.74c1.91-3,4-6.2,7.11-7.9a6.83,6.83,0,0,1,2.9-.9c2.64-.13,4.91,1.76,6.81,3.61s4,3.87,6.59,4.13c2.79.27,5.31-1.52,7.5-3.26" transform="translate(-865.88 -446.21)"/><path class="cls-4" d="M947,528.47c-1.87.9-3.73,1.4-5.64.24a14.94,14.94,0,0,1-2.91-2.47,41.75,41.75,0,0,0-4.82-4.86c-3.27-2.47-7-2.33-10.58-.62a17.94,17.94,0,0,0-10,19.9.51.51,0,0,0,1,0c.87-3.9,3.54-7.9,6.09-11a11.67,11.67,0,0,1,5.2-3.93c2.68-.83,5,.66,6.94,2.37,2.27,2,4.45,4.74,7.69,5.08,3.08.32,5.69-1.59,8-3.39.51-.4-.2-1.1-.71-.71-2.6,2-5.72,4.15-9.11,2.53-1.9-.91-3.31-2.55-4.84-3.95-2.17-2-4.78-3.77-7.85-3s-5.28,3.21-7,5.61c-2.21,3-4.5,6.4-5.32,10.09h1a16.44,16.44,0,0,1,3.51-14.14c2.79-3.28,7.64-6.57,12.11-5.69s6.76,5.63,10.21,8.27c2.6,2,4.81,1.88,7.71.49.58-.28.07-1.14-.51-.86Z" transform="translate(-865.88 -446.21)"/><g class="cls-18"><path class="cls-3" d="M969.65,503.76a12.72,12.72,0,0,0-5.26,4.68c-2.4,3.82-2.69,8.76-5.46,12.32a21.54,21.54,0,0,1-3.38,3.23l-6.61,5.46c2.42-1.35,5-2.26,7.48-3.58a12.45,12.45,0,0,0,5.79-5.7,25.92,25.92,0,0,0,1.14-4.81,22.37,22.37,0,0,1,7.2-12.26" transform="translate(-865.88 -446.21)"/><path class="cls-3" d="M969.46,503.43c-4.78,2.48-6.5,6.7-8.15,11.55a16.82,16.82,0,0,1-4.83,7.74c-2.53,2.23-5.2,4.31-7.8,6.46-.34.28.09.78.45.59,4.69-2.51,11.15-4.06,13.42-9.46,1.16-2.75,1.19-5.84,2.33-8.63a22.61,22.61,0,0,1,5.93-8.31c.36-.32-.17-.85-.53-.53a23.79,23.79,0,0,0-7.52,13.64c-.68,3.63-2.09,6.22-5.23,8.29-2.72,1.8-5.91,2.82-8.78,4.35l.46.59c4.07-3.36,9.35-6.53,11.65-11.47,2.53-5.46,3.07-11.09,9-14.16.42-.22,0-.87-.38-.65Z" transform="translate(-865.88 -446.21)"/></g><g class="cls-18"><path class="cls-3" d="M917.24,533.19a19.89,19.89,0,0,1,8.51-8.52c2.08-1,4.81-1.58,6.58-.07a11.24,11.24,0,0,1,1.88,2.7,10.33,10.33,0,0,0,9.42,4.67,7.94,7.94,0,0,1-7.37-.37c-3-1.8-4.81-5.58-8.23-6.22-2.22-.41-4.44.68-6.23,2l1.37-1.28" transform="translate(-865.88 -446.21)"/><path class="cls-3" d="M917.57,533.38c2.41-4.39,11-13.74,15.64-7,2.59,3.74,5.58,6.23,10.42,6l-.1-.74a7.8,7.8,0,0,1-8.11-1.08c-1.55-1.24-2.76-2.87-4.34-4.08-3.12-2.41-6.47-1.5-9.47.65l.45.59,1.37-1.28c.35-.33-.18-.86-.53-.53l-1.37,1.28c-.3.29.1.84.46.59,2.47-1.77,5.37-2.86,8.16-1.06,1.73,1.12,3,2.88,4.52,4.2a8.58,8.58,0,0,0,9.06,1.45c.36-.15.36-.76-.1-.74-4.3.2-7.32-1.91-9.61-5.35-1.25-1.87-2.46-3.07-4.86-3-5.31.27-9.88,5.4-12.24,9.7-.23.43.42.8.65.38Z" transform="translate(-865.88 -446.21)"/></g><path class="cls-4" d="M946.74,527.14c-1.44-3-1.31-6.47-3.1-9.29-1.56-2.45-4-4.15-5.42-6.73-2.73-4.94-2.92-10.86-5.71-15.79a17.22,17.22,0,0,0-5-5.27,74,74,0,0,1-7.88-7c-4.24-4.2-8.84-8.2-15-8.89v1c6.6-.69,10.91,4.73,15.11,8.92s9.69,6.46,12.39,11.73c2.28,4.45,2.85,9.53,4.8,14.1,2.34,5.5,8.15,9.57,8.42,15.86,0,.64,1,.64,1,0-.27-6.24-5.57-10.06-8.11-15.34s-2.86-11.38-6-16.39a20,20,0,0,0-5.43-5.49,58.62,58.62,0,0,1-7.88-6.7c-3.87-4-8.32-8.32-14.34-7.69a.5.5,0,0,0,0,1c7,.78,11.72,6.13,16.45,10.75a63.92,63.92,0,0,0,6.24,5.27,16.51,16.51,0,0,1,5.71,7.76c1.67,4.51,2.21,9.51,4.86,13.62,1.51,2.35,3.94,4,5.27,6.48,1.44,2.66,1.38,5.88,2.7,8.62.29.58,1.15.08.87-.5Z" transform="translate(-865.88 -446.21)"/><path class="cls-4" d="M907.29,474.64a16.11,16.11,0,0,1-4.83-10.57,18.28,18.28,0,0,0-.17-2.34,5.63,5.63,0,0,0-1.66-3c2.89.91,5,3.58,5.91,6.47a24,24,0,0,1,.66,9c0,.18-.22.41-.31.25" transform="translate(-865.88 -446.21)"/><path class="cls-4" d="M907.65,474.29a15.92,15.92,0,0,1-4.66-9.83c-.21-2.42-.28-4.25-2-6.11l-.49.84a9.42,9.42,0,0,1,5.56,6.12c.23.68,1.2,8.65.84,8.65a.5.5,0,0,0,0,1h.18a.47.47,0,0,0,.43-.25c.68-1.36.38-3.59.3-5.07a17.15,17.15,0,0,0-1-5.31,10.31,10.31,0,0,0-6-6.11c-.5-.18-.8.5-.49.84,2.3,2.47,1.5,6.34,2.55,9.4a17.35,17.35,0,0,0,4.12,6.53.5.5,0,0,0,.71-.7Z" transform="translate(-865.88 -446.21)"/><path class="cls-4" d="M906.81,475.11c-.64-.48-1.54-.06-2.19.39a18.21,18.21,0,0,0-5.74,6,11.32,11.32,0,0,0-1.24,8.12c2.69-1.26,4.08-4.22,5.16-7s2.2-5.77,4.68-7.41" transform="translate(-865.88 -446.21)"/><path class="cls-4" d="M906.94,474.63c-2.55-1-5.87,3-7.2,4.7a12.68,12.68,0,0,0-2.58,10.46.5.5,0,0,0,.73.3c5.68-3,4.9-10.76,9.85-14.39.51-.38,0-1.25-.51-.87-5,3.65-4.31,11.45-9.84,14.4l.73.3a11.36,11.36,0,0,1,1.79-8.71c1-1.51,4.57-6.08,6.77-5.23.6.23.86-.73.26-1Z" transform="translate(-865.88 -446.21)"/><path class="cls-4" d="M913.65,476.65c.23-.51-.18-1.07-.54-1.5a13,13,0,0,1-2.34-4.19,7,7,0,0,1-.44-2.3c0-2.25,1.45-4.36,1.25-6.6,1.76,3.79,3.33,7.78,3.48,12a5.79,5.79,0,0,1-.73,3.46" transform="translate(-865.88 -446.21)"/><path class="cls-4" d="M914.15,476.65a2.32,2.32,0,0,0-.61-1.75,15,15,0,0,1-2.4-4.45c-.78-3,1-5.46.94-8.39l-.93.25c1.8,3.93,5,10.64,2.75,14.92-.3.57.56,1.07.86.5,2.54-4.74-.74-11.55-2.75-15.92-.21-.47-.94-.22-.93.25,0,2.59-1.53,4.89-1.18,7.51a10.88,10.88,0,0,0,1,3.13c.5,1,2.3,2.86,2.21,3.95,0,.64,1,.64,1,0Z" transform="translate(-865.88 -446.21)"/><path class="cls-4" d="M913.39,478.66c-1.9-.26-3.62,1.29-4.49,3s-1.22,3.65-2.11,5.35a33.53,33.53,0,0,0-1.67,3c2.56,0,4.77-1.93,6-4.17s1.73-4.79,2.42-7.25" transform="translate(-865.88 -446.21)"/><path class="cls-4" d="M913.39,478.16a5.42,5.42,0,0,0-4.92,3.24,25.88,25.88,0,0,0-1.34,3.49c-.64,1.74-1.67,3.17-2.44,4.84a.5.5,0,0,0,.43.75c6.1-.42,7.59-7,8.91-11.78a.5.5,0,0,0-1-.27c-1.19,4.32-2.41,10.67-8,11.05l.43.75c.81-1.74,1.9-3.25,2.55-5.08.92-2.56,1.93-6.1,5.29-6a.5.5,0,0,0,0-1Z" transform="translate(-865.88 -446.21)"/><path class="cls-4" d="M906.67,474.06c-3,.31-3.86-3.27-5.29-5.16a12.6,12.6,0,0,0-4.07-3.47l.1.78c1.78-.7,2.81-.3,3.07,1.2.13.41.26.83.4,1.24.21.64.46,1.27.72,1.88a27.45,27.45,0,0,0,2.2,4.06.5.5,0,0,0,.87-.51c-1.53-3.18-3.11-6.32-5.61-8.86a.5.5,0,0,0-.78.61,4.14,4.14,0,0,0,.82,1.05l.6-.79-.83-.44c-.56-.31-1.07.56-.5.86l.83.45a.5.5,0,0,0,.6-.79l-.66-.85-.79.61a30.75,30.75,0,0,1,5.45,8.66l.87-.51a25.56,25.56,0,0,1-2.38-4.47c-.51-1.29-.72-2.85-1.56-4-1.13-1.53-2.74-1.32-4-.13a.51.51,0,0,0,.1.79c2.61,1.44,4,3.47,5.43,6,1,1.67,2.37,3,4.44,2.81.63-.07.64-1.07,0-1Z" transform="translate(-865.88 -446.21)"/><path class="cls-4" d="M902.89,472.05c-1.09-1.5-3.41-1.31-5.07-1.07a11.81,11.81,0,0,0-6,2.81.5.5,0,0,0-.08.6c.57,1.16,1.35,2.1,2.74,1.71a18.26,18.26,0,0,0,2.53-1.29,14.11,14.11,0,0,1,5.24-1.39.51.51,0,0,0,.26-.93,6,6,0,0,0-5-1c-1.45.32-4.26,1.08-4.74,2.64a.51.51,0,0,0,.12.49c.79.74,1.47.33,2-.44a.5.5,0,0,0-.3-.74,1.55,1.55,0,0,0-1.21.17.47.47,0,0,0-.25.43c-.13,1.82,1.84,1.08,2.38,0a.5.5,0,0,0-.43-.75c-.5,0-.61.05-.92.44a.51.51,0,0,0,.49.84,2.11,2.11,0,0,0,1.66-1.64c.15-.52-.47-.78-.84-.49l-.28.23a.54.54,0,0,0-.13.49l.06.36c0,.28.37.38.62.35a2.51,2.51,0,0,0,1.6-.87c.28-.29.1-.89-.35-.85a1.11,1.11,0,0,0-1,.45c-.31.33,0,1,.49.83l3.59-1.41-.39-.91c-1.23.92-2.88.76-3.92,2a.51.51,0,0,0,.61.79,22.26,22.26,0,0,1,4.86-1.7l-.38-.91a31,31,0,0,1-4.47,2.23,7.12,7.12,0,0,1-3,.39.5.5,0,0,0,0,1c.48,0,.77.31,1.21.3a8.76,8.76,0,0,0,2.42-.86,32.37,32.37,0,0,0,4.36-2.2.5.5,0,0,0-.38-.91,23.06,23.06,0,0,0-5.1,1.79l.6.79c.92-1.1,2.59-1,3.72-1.84.4-.3.19-1.14-.39-.91l-3.59,1.41.49.83.28-.15-.35-.85-1.17.6.62.35.09-.1-.84-.49-1,.95.49.83.21-.15-.43-.76a2.12,2.12,0,0,0-.32.88l-.3-.74c-.47.65,1.4-.4,1.34-.38a10.87,10.87,0,0,1,2.58-.86,4.85,4.85,0,0,1,4.05.88l.25-.93a13.39,13.39,0,0,0-4,.78c-1.1.4-2.61,1.61-3.71,1.74-3.42.43-1.28-1.09-.61-1.52a9.28,9.28,0,0,1,2.21-1c1.33-.44,4.85-1.25,5.87.17.38.51,1.25,0,.87-.51Z" transform="translate(-865.88 -446.21)"/><path class="cls-4" d="M902.57,471.62a13.1,13.1,0,0,0-11-4.78c-2.92.2-6.12,1.39-8.19-1.47-1-1.37-1.59-2.81-3.2-3.54l-.12.91c3.28-.65,4.92,2.35,6.16,4.76l.3-.73c-1.44.21-3.56-3.25-4.33-4.17l-.71.71a33.44,33.44,0,0,0,4,3.76c.42.33,1.1-.08.79-.61a11.4,11.4,0,0,0-3-3.38c-.42-.32-.92.28-.69.68a18,18,0,0,0,1.67,2.37c.37.44,1.07-.12.79-.6a7,7,0,0,0-1.32-1.66c-.48-.45-1.09.21-.7.71s.75,1,1.09,1.51,1.23,0,.87-.5-.82-1.16-1.26-1.72l-.7.71a4.43,4.43,0,0,1,1.16,1.45l.78-.6a15.91,15.91,0,0,1-1.51-2.17l-.69.68a10.1,10.1,0,0,1,2.68,3l.78-.61a32.66,32.66,0,0,1-4-3.76c-.44-.48-1.11.22-.71.71,1.35,1.6,2.9,4.77,5.3,4.42a.5.5,0,0,0,.3-.73c-1.5-2.93-3.58-6-7.29-5.22a.5.5,0,0,0-.12.91c1.84.83,2.3,2.87,3.65,4.2a5.68,5.68,0,0,0,4.33,1.41c2.43-.09,4.71-.74,7.16-.27a12.18,12.18,0,0,1,7,4.3c.42.49,1.12-.22.71-.71Z" transform="translate(-865.88 -446.21)"/><path class="cls-4" d="M887,467.49a6.36,6.36,0,0,0-3.23,3.44,10.45,10.45,0,0,0-1,5.16.48.48,0,0,0,.35.34c1.27.26,2.33-1.63,2.79-2.58a15.77,15.77,0,0,0,1.22-6c0-.46-.55-.62-.85-.35-2,1.73-1.91,4.32-2.69,6.64-.17.53.67.89.92.38a20.14,20.14,0,0,0,1.7-4.95c.11-.53-.64-.92-.91-.39a38.6,38.6,0,0,0-1.92,4.49l1,.26c.54-2.05,1.15-4.07,1.85-6.07.21-.61-.76-.88-1-.27q-1,3-1.85,6.08a.5.5,0,0,0,1,.26,36.74,36.74,0,0,1,1.81-4.24l-.91-.39a19.62,19.62,0,0,1-1.6,4.72l.91.38c.7-2.11.65-4.61,2.43-6.19l-.86-.36a18.94,18.94,0,0,1-.6,4.24c-.15.48-1.61,3.34-1.8,3.06a10.11,10.11,0,0,1,.4-2.2,9.62,9.62,0,0,1,.65-1.94,5.42,5.42,0,0,1,2.68-2.66c.59-.26.08-1.13-.5-.86Z" transform="translate(-865.88 -446.21)"/><path class="cls-4" d="M895.41,473l-1.18.91a6.25,6.25,0,0,1-.61.44c-.14.08-1,.41-.82-.15l-.35.35.72-.21a.5.5,0,0,0-.27-1c-.59.17-1.2.26-1.11,1a1.3,1.3,0,0,0,.9,1c1.23.41,2.56-1.07,3.43-1.74.5-.4-.21-1.1-.71-.71Z" transform="translate(-865.88 -446.21)"/><path class="cls-4" d="M884,475.31s0,.08,0,.11c-.42.48.28,1.19.71.71a1.11,1.11,0,0,0,0-1.53c-.43-.48-1.13.23-.71.71Z" transform="translate(-865.88 -446.21)"/><g class="cls-19"><path class="cls-3" d="M909.87,468.29a16.2,16.2,0,0,0,1.42,4.28c.88,1.64,2.72,2.69,2.93,4.64l.47-.36c-.84-.14-2.22-3.35-2.62-4.17a19.86,19.86,0,0,1-1.49-4.38c-.09-.44-.69-.29-.73.1-.38,3.41,2.37,5.69,3.87,8.45a.37.37,0,0,0,.69-.19,4.05,4.05,0,0,0-.16-1.25l-.68.29.29.68c.19.44.84.06.65-.38l-.3-.68c-.17-.41-.77-.11-.68.29l.13,1.05.7-.19c-1.42-2.62-4.12-4.82-3.76-8.07l-.74.1a20.6,20.6,0,0,0,2.12,5.61c.64,1.14,1,3.21,2.51,3.46a.38.38,0,0,0,.48-.36,5.37,5.37,0,0,0-1.83-3.33,11.94,11.94,0,0,1-2.54-5.79c-.1-.47-.83-.27-.73.2Z" transform="translate(-865.88 -446.21)"/></g><g class="cls-19"><path class="cls-3" d="M913.14,479a4.06,4.06,0,0,0-1.93,2.05,9.74,9.74,0,0,0-.71,2.77,11.52,11.52,0,0,1-.52,2.56,7.87,7.87,0,0,1-3.1,3.52c1.88-1.28,3.77-2.72,4.72-4.78a14.88,14.88,0,0,0,.66-1.91l1.18-4" transform="translate(-865.88 -446.21)"/><path class="cls-3" d="M913,478.66a5.41,5.41,0,0,0-2.56,3.63c-.25,1-.27,2-.51,3a7.2,7.2,0,0,1-3.18,4.24c-.39.28,0,.92.37.65a15.16,15.16,0,0,0,4.36-4c1.28-2,1.71-4.63,2.37-6.89a.38.38,0,0,0-.73-.2,38.32,38.32,0,0,1-1.84,5.86,12.39,12.39,0,0,1-4.53,4.62l.37.65a8.55,8.55,0,0,0,3.27-3.75c.95-2.52.22-5.6,3-7.16a.38.38,0,0,0-.38-.65Z" transform="translate(-865.88 -446.21)"/></g><g class="cls-19"><path class="cls-3" d="M908,475.23a5.38,5.38,0,0,0-3.82,2.38,18.56,18.56,0,0,0-2,4.19q-1,2.67-2.25,5.26a5.45,5.45,0,0,1-1.78,2.43,2.33,2.33,0,0,0,1.56-1c3.27-4,4.11-9.75,8.12-13" transform="translate(-865.88 -446.21)"/><path class="cls-3" d="M907.94,474.86c-6.77,1.13-5.64,10.72-10,14.37-.3.25,0,.72.37.63,2.3-.65,3.56-3.76,4.5-5.71,1.47-3,2.73-6.12,5.35-8.37.36-.31-.17-.84-.53-.53a17.67,17.67,0,0,0-4.25,6c-1.09,2.26-2.61,7.18-5.27,7.92l.36.63c4.3-3.57,3.26-13.11,9.69-14.17.48-.08.28-.8-.2-.73Z" transform="translate(-865.88 -446.21)"/></g><g class="cls-19"><path class="cls-3" d="M902.68,472.07a8.89,8.89,0,0,0-4.61.7c-.78.36-1.43.91-2.21,1.26a6.53,6.53,0,0,1-3.42.44.38.38,0,0,0-.32.57,2.27,2.27,0,0,0,2.85.88,11.88,11.88,0,0,0,2.37-1.6,11.16,11.16,0,0,1,5.32-1.42c.48,0,.49-.8,0-.75a15.29,15.29,0,0,0-4.49.83c-1.32.55-4.06,3.64-5.4,1.68l-.33.56a6.88,6.88,0,0,0,4.07-.64c2.09-1.16,3.68-2,6.17-1.76.48.05.48-.7,0-.75Z" transform="translate(-865.88 -446.21)"/></g><g class="cls-19"><path class="cls-3" d="M887.37,468.41c-.34-.19-.72.14-.93.46-.79,1.25-.86,2.8-1.3,4.21a8.11,8.11,0,0,1-1.53,2.83c.28.18.61-.11.81-.36a11.33,11.33,0,0,0,2.14-3.63,27.16,27.16,0,0,1,.79-3.49" transform="translate(-865.88 -446.21)"/><path class="cls-3" d="M887.37,468c-1.14-.1-1.59,1.16-1.88,2.07-.64,2-.79,3.83-2.14,5.55-.15.19-.15.58.16.62,1.18.17,2-1.41,2.48-2.26,1.08-1.73,1-3.62,1.72-5.48.17-.45-.55-.65-.72-.2-.45,1.21-.46,2.5-.87,3.71-.2.59-1.59,3.62-2.41,3.51l.17.63a9.49,9.49,0,0,0,1.55-2.78c.29-.84.69-4.73,1.94-4.62.48,0,.48-.71,0-.75Z" transform="translate(-865.88 -446.21)"/></g><g class="cls-19"><path class="cls-3" d="M907.51,473.31a10,10,0,0,1-1.75-1.86,6.06,6.06,0,0,0-2.2-1.51l1.15,2.27a4.4,4.4,0,0,0,.89,1.35,1.54,1.54,0,0,0,1.48.43c.07,0,.17,0,.2,0s-.13.07-.07,0" transform="translate(-865.88 -446.21)"/><path class="cls-3" d="M907.7,473a15.27,15.27,0,0,1-1.86-2,6.67,6.67,0,0,0-2.09-1.38.38.38,0,0,0-.51.51,18.58,18.58,0,0,0,1.82,3.41,2.46,2.46,0,0,0,1,.77,1.93,1.93,0,0,0,.54.12c.07,0,.69,0,.46-.08l-.17-.42v0l.26-.26h-.06l.46.26v0c-.07-.48-.8-.27-.72.2v0c0,.22.28.29.46.26h.06a.38.38,0,0,0,.26-.26v0a.38.38,0,0,0-.17-.43.91.91,0,0,0-.49-.06,1.7,1.7,0,0,1-1.63-1c-.55-.91-1-1.92-1.47-2.87l-.51.51a6.29,6.29,0,0,1,2.3,1.65,9.28,9.28,0,0,0,1.65,1.72c.4.28.77-.37.38-.65Z" transform="translate(-865.88 -446.21)"/></g><path class="cls-6" d="M897.31,465.78c-1.14-.33-2.48.19-3.48-.44-.61-.37-.92-1.08-1.4-1.61a5.59,5.59,0,0,0-1.22-.94,26,26,0,0,0-3.22-1.7,4.3,4.3,0,0,1,3.74-.82,8.8,8.8,0,0,1,3.49,1.82,9.44,9.44,0,0,1,1.55,1.48,1.63,1.63,0,0,1,.44,1.69" transform="translate(-865.88 -446.21)"/><path class="cls-5" d="M897.44,465.3a23.87,23.87,0,0,1-2.8-.39c-1.18-.35-1.37-1.13-2.23-1.89a17.35,17.35,0,0,0-4.17-2.37v.87a4.65,4.65,0,0,1,5.32,0c1.05.6,3.54,2.13,3.17,3.57a.5.5,0,0,0,1,.27c.52-2-1.91-3.64-3.38-4.55-2-1.28-4.54-1.69-6.58-.19-.26.2-.37.7,0,.87a13.36,13.36,0,0,1,5,3.43c1.31,1.54,2.61,1,4.44,1.31.63.11.9-.85.27-1Z" transform="translate(-865.88 -446.21)"/><path class="cls-6" d="M897.67,464.9l-.86-2.53a7.18,7.18,0,0,1-.58-3.25,16,16,0,0,0,.64-2.93l1.88,3.25a6.69,6.69,0,0,1,1,2.36,3.34,3.34,0,0,1-1.59,3.23" transform="translate(-865.88 -446.21)"/><path class="cls-5" d="M898.16,464.77a22.37,22.37,0,0,1-1.36-4.4c-.19-1.47.48-2.73.57-4.18l-.93.25c1.3,2.25,4.52,6,1.45,8.16-.53.36,0,1.23.5.86,3.77-2.62.57-6.65-1.09-9.52a.5.5,0,0,0-.93.25c-.09,1.52-.84,2.76-.59,4.32a27.83,27.83,0,0,0,1.41,4.52c.21.61,1.18.35,1-.26Z" transform="translate(-865.88 -446.21)"/><path class="cls-6" d="M895.09,462l-1.78-1.84a4.81,4.81,0,0,1-1.32-1.91c-.25-.85-.07-1.92-.77-2.47a9.15,9.15,0,0,1,5.13,3.65" transform="translate(-865.88 -446.21)"/><path class="cls-5" d="M895.44,461.64c-1-1-2.54-2.17-3-3.53-.31-1-.13-1.91-.89-2.7l-.49.84a8.93,8.93,0,0,1,4.83,3.43c.37.52,1.24,0,.86-.51a10,10,0,0,0-5.42-3.89.51.51,0,0,0-.49.84c.52.54.41,1.26.56,1.92a3.81,3.81,0,0,0,.66,1.48,28.25,28.25,0,0,0,2.65,2.82c.45.47,1.15-.24.7-.7Z" transform="translate(-865.88 -446.21)"/><g class="cls-17"><path class="cls-9" d="M890.85,455.89c0,3.29,2.5,5.26,5,7,.53.36,1-.51.5-.87-2.2-1.5-4.47-3.21-4.52-6.11a.5.5,0,0,0-1,0Z" transform="translate(-865.88 -446.21)"/></g><g class="cls-17"><path class="cls-9" d="M888.44,461.55c.4.85,1.12,1.11,1.9,1.52a10.46,10.46,0,0,1,2.69,2.66c1,1.12,3,2.09,3.73.22.24-.6-.73-.86-1-.27s-1.57-.17-1.78-.36a7.57,7.57,0,0,1-.53-.6c-.43-.52-.81-1.08-1.28-1.56-.82-.81-2.4-1.08-2.9-2.12-.27-.58-1.14-.07-.86.51Z" transform="translate(-865.88 -446.21)"/></g><g class="cls-17"><path class="cls-9" d="M897.88,462.24a12.91,12.91,0,0,1-.36-6.08h-1l.23,1.22c.12.63,1.08.37,1-.26l-.22-1.22a.51.51,0,0,0-1,0,14.09,14.09,0,0,0,.36,6.61.5.5,0,0,0,1-.27Z" transform="translate(-865.88 -446.21)"/></g><g class="cls-20"><path class="cls-12" d="M894.29,462.87c.84.25,1,1.23,1.21,2a4.33,4.33,0,0,0,.81,1.72.51.51,0,0,0,.84-.22,4.23,4.23,0,0,0-1.92-4.71c-.41-.25-1,.26-.68.68l1.42,2.07.79-.61-.34-.38c-.43-.48-1.14.23-.71.71l.34.38c.37.42,1.11-.14.79-.61l-1.43-2.06-.68.68a3.2,3.2,0,0,1,1.45,3.58l.84-.22c-1-1.27-.55-3.36-2.46-3.94a.5.5,0,0,0-.27,1Z" transform="translate(-865.88 -446.21)"/></g><g class="cls-20"><path class="cls-12" d="M895.09,459.35a6.38,6.38,0,0,0,.8,2.76.5.5,0,0,0,.78.1,2.56,2.56,0,0,0-.4-3.76c-.31-.24-.75.08-.75.43a7.44,7.44,0,0,0,.3,2.09.5.5,0,0,0,1-.27,6.22,6.22,0,0,1-.27-1.82l-.76.43a1.56,1.56,0,0,1,.21,2.19l.78.1a5.24,5.24,0,0,1-.66-2.25c0-.64-1-.65-1,0Z" transform="translate(-865.88 -446.21)"/></g><g class="cls-20"><path class="cls-12" d="M898.41,460c0,1.38,0,2.76.05,4.13,0,.46.72.73.93.26.59-1.39,1.1-3-.15-4.24a.5.5,0,0,0-.83.22,10.56,10.56,0,0,0,.05,3.59c.1.53.8.41,1,0a6.43,6.43,0,0,0,.33-3.63c-.09-.5-.84-.44-1,0a8.73,8.73,0,0,0-.31,3.48c.06.5.9.74,1,.13l.11-.8c.08-.62-.88-.9-1-.26l-.11.8,1,.13a8.09,8.09,0,0,1,.27-3.21h-1a5.63,5.63,0,0,1-.33,3.09h1a9.46,9.46,0,0,1,0-3.05l-.83.22c.88.84.39,2.07,0,3l.94.25c0-1.37,0-2.75-.05-4.13a.5.5,0,0,0-1,0Z" transform="translate(-865.88 -446.21)"/></g><path class="cls-6" d="M885.19,468.46c-.57,1-.36,2.46-1.19,3.3a7.75,7.75,0,0,1-1.89,1,5.86,5.86,0,0,0-1.18,1,26.14,26.14,0,0,0-2.38,2.77,4.37,4.37,0,0,1,0-3.83,8.76,8.76,0,0,1,2.55-3,10.12,10.12,0,0,1,1.79-1.19,1.64,1.64,0,0,1,1.74-.05" transform="translate(-865.88 -446.21)"/><path class="cls-5" d="M884.76,468.21c-.33.74-.39,1.52-.65,2.28-.43,1.25-1.49,1.35-2.46,2a15.26,15.26,0,0,0-3.53,3.77H879c-.82-1.82-.05-3.65,1.22-5,.82-.89,2.88-3,4.21-2.34.57.3,1.08-.56.51-.86-2-1-4.39,1.31-5.59,2.68a5.53,5.53,0,0,0-1.21,6.07c.17.38.66.26.86,0a23.34,23.34,0,0,1,2.3-2.66,11.45,11.45,0,0,1,2.45-1.54c1.49-.87,1.26-2.44,1.9-3.85.26-.58-.6-1.09-.87-.5Z" transform="translate(-865.88 -446.21)"/><path class="cls-6" d="M884.42,467.91l-2.66.28a7.15,7.15,0,0,1-3.29-.16c-.94-.35-1.73-1.1-2.72-1.27l3.58-1.11a6.47,6.47,0,0,1,2.52-.43,3.33,3.33,0,0,1,2.8,2.26" transform="translate(-865.88 -446.21)"/><path class="cls-5" d="M884.42,467.41a21.65,21.65,0,0,1-4.81.34c-1.38-.17-2.41-1.11-3.73-1.47v1c2.48-.77,6.91-3,8.29.38.23.58,1.2.33,1-.27-1.72-4.26-6.31-2.07-9.52-1.07a.5.5,0,0,0,0,1c1.38.38,2.41,1.35,3.86,1.52a22.88,22.88,0,0,0,4.95-.35c.63-.07.64-1.07,0-1Z" transform="translate(-865.88 -446.21)"/><path class="cls-6" d="M881,469.78l-2.19,1.33a4.87,4.87,0,0,1-2.16.86c-.88,0-1.89-.36-2.58.2a9.2,9.2,0,0,1,4.7-4.19" transform="translate(-865.88 -446.21)"/><path class="cls-5" d="M880.76,469.35c-1.22.74-2.69,2-4.13,2.1-1,.09-1.87-.26-2.8.29l.68.68a9,9,0,0,1,4.41-4c.58-.24.33-1.21-.27-1a10.07,10.07,0,0,0-5,4.42.5.5,0,0,0,.68.68c1-.56,2.35,0,3.43-.38a21.41,21.41,0,0,0,3.5-2c.55-.33,0-1.2-.5-.86Z" transform="translate(-865.88 -446.21)"/><g class="cls-17"><path class="cls-9" d="M874.09,472.56c3.25.65,5.67-1.24,7.93-3.33.48-.44-.23-1.15-.7-.71-2,1.82-4.09,3.65-7,3.07-.63-.13-.9.84-.27,1Z" transform="translate(-865.88 -446.21)"/></g><g class="cls-17"><path class="cls-9" d="M879.08,476.17c1-.22,1.41-.94,2-1.65.87-1,2.07-1.31,3.17-1.94s2.66-2.51,1-3.54c-.55-.33-1,.53-.5.87,1.12.68-1.18,1.92-1.47,2.06-.55.28-1.14.5-1.67.83-1,.61-1.65,2.15-2.79,2.41-.63.14-.37,1.1.26,1Z" transform="translate(-865.88 -446.21)"/></g><g class="cls-17"><path class="cls-9" d="M881.89,467.12a13,13,0,0,1-6-1l-.25.93,1.24.05c.64,0,.64-1,0-1l-1.24-.05c-.47,0-.72.73-.25.93a14,14,0,0,0,6.51,1.13c.64,0,.65-1,0-1Z" transform="translate(-865.88 -446.21)"/></g><g class="cls-20"><path class="cls-12" d="M878.41,469.18a6.2,6.2,0,0,0,2.87-.15.49.49,0,0,0,.3-.73,2.57,2.57,0,0,0-3.75-.47.5.5,0,0,0,.22.84,7.78,7.78,0,0,0,2.1.17c.64,0,.64-1,0-1a6.36,6.36,0,0,1-1.84-.14l.22.84a1.56,1.56,0,0,1,2.19.26l.3-.73a5,5,0,0,1-2.35.15c-.63-.11-.9.86-.26,1Z" transform="translate(-865.88 -446.21)"/></g><g class="cls-20"><path class="cls-12" d="M879.73,466.08c1.35.28,2.7.57,4,.88a.5.5,0,0,0,.38-.92c-1.18-.86-2.67-1.65-4.06-.74a.51.51,0,0,0,.12.92,10.3,10.3,0,0,0,3.38.7.51.51,0,0,0,.26-.93,6.48,6.48,0,0,0-3.46-1.13.5.5,0,0,0-.25.93,9.11,9.11,0,0,0,3.45,1.09c.6.06.62-.8.13-1l-.75-.29c-.61-.23-.87.74-.27,1l.76.28.13-1a7.92,7.92,0,0,1-3-.95l-.25.93a5.46,5.46,0,0,1,3,1l.25-.93a9.22,9.22,0,0,1-3.11-.67l.11.92c1.07-.71,2.19.11,3.06.74L884,466c-1.34-.3-2.69-.59-4-.87-.63-.13-.9.83-.27,1Z" transform="translate(-865.88 -446.21)"/></g><path class="cls-15" d="M893.77,471.54a1.28,1.28,0,0,0-1.09-.93,4.1,4.1,0,0,0-1.51.18l-3.28.86,2.36,2.13a1,1,0,0,0,.66.35,1.05,1.05,0,0,0,.63-.33l2.27-2" transform="translate(-865.88 -446.21)"/><path class="cls-5" d="M894.25,471.41a2,2,0,0,0-2.14-1.3,24.42,24.42,0,0,0-4.35,1.06.51.51,0,0,0-.22.84c.67.6,1.34,1.22,2,1.82.37.33.8.81,1.35.8s.94-.44,1.3-.76l1.95-1.71c.48-.43-.23-1.13-.71-.71s-2.05,2.23-2.85,2c-.25-.08-.81-.73-1-.91l-1.34-1.22-.22.83c.91-.23,4.79-1.75,5.26-.46.21.6,1.18.34,1-.26Z" transform="translate(-865.88 -446.21)"/><path class="cls-15" d="M890.82,474.23a2.18,2.18,0,0,0-1.56,1,6.13,6.13,0,0,0-.79,1.7l-1,2.87c1,.3,1.95-.64,2.6-1.49.88-1.14,1.82-2.51,1.45-3.91" transform="translate(-865.88 -446.21)"/><path class="cls-5" d="M890.69,473.75c-2.5.39-3,3.94-3.71,5.88a.49.49,0,0,0,.35.61c1.4.25,2.36-.68,3.16-1.71,1-1.27,1.82-2.64,1.5-4.3-.12-.63-1.09-.37-1,.26a3.85,3.85,0,0,1-.95,2.94c-.54.77-1.37,2-2.48,1.85l.35.61c.34-.95.66-1.91,1-2.86s.78-2.13,2-2.31c.64-.1.37-1.06-.26-1Z" transform="translate(-865.88 -446.21)"/><path class="cls-15" d="M892,475.5c-.77,1.85-1.54,4-.68,5.78l2.26-4.76" transform="translate(-865.88 -446.21)"/><path class="cls-5" d="M891.52,475.37c-.8,1.92-1.52,4-.69,6,.15.35.71.55.92.12l2.26-4.76c.27-.58-.59-1.08-.87-.5L890.88,481l.92.12c-.77-1.87,0-3.76.68-5.52.25-.59-.72-.85-1-.26Z" transform="translate(-865.88 -446.21)"/><path class="cls-15" d="M889.22,473.6a1.44,1.44,0,0,0-1.51-.12,3.19,3.19,0,0,0-1.17,1.08,1.62,1.62,0,0,0-.36.8.63.63,0,0,0,.43.68l2.57-1.17" transform="translate(-865.88 -446.21)"/><path class="cls-5" d="M889.47,473.17c-1.39-1-3.28.38-3.71,1.8-.18.57,0,1.51.78,1.56a3.16,3.16,0,0,0,1.29-.5l1.6-.73c.59-.27.08-1.13-.5-.86l-2.57,1.17.38-.05c-.35-.14.57-1.16.67-1.26A1.19,1.19,0,0,1,889,474c.53.37,1-.5.5-.86Z" transform="translate(-865.88 -446.21)"/><g class="cls-17"><path class="cls-9" d="M888.87,472.19c.9-.57,2.21-1.38,3.16-.46l.35-.85a12.17,12.17,0,0,0-4.06.54.5.5,0,0,0-.11.91,2.81,2.81,0,0,0,2.14.28.5.5,0,0,0-.27-1,1.83,1.83,0,0,1-1.37-.18l-.12.91a11.05,11.05,0,0,1,3.79-.5.5.5,0,0,0,.35-.85c-1.31-1.29-3-.54-4.36.3-.55.34,0,1.2.5.86Z" transform="translate(-865.88 -446.21)"/></g><g class="cls-17"><path class="cls-9" d="M888.86,473.71a2.17,2.17,0,0,0-2.73,1.55.5.5,0,0,0,.83.49l.79-.64c.23-.18.57-.58.86-.63l-.39-.05.09.06-.23-.3,0,.1,0-.39.14,0c-.48-.43-1.19.28-.71.71a.92.92,0,0,0,1.13.12.7.7,0,0,0,.2-1.05c-.34-.38-.81-.14-1.14.12L886.25,475l.84.49a1.18,1.18,0,0,1,1.51-.86c.61.2.88-.77.26-1Z" transform="translate(-865.88 -446.21)"/></g><g class="cls-17"><path class="cls-9" d="M889.41,475.13a7.48,7.48,0,0,0-1.49,5.08.5.5,0,0,0,1,.14l1-3.88a.5.5,0,0,0-1-.26l-1,3.87,1,.13a6.69,6.69,0,0,1,1.35-4.58c.38-.51-.48-1-.86-.5Z" transform="translate(-865.88 -446.21)"/></g><g class="cls-17"><path class="cls-9" d="M891.58,477.14a6.26,6.26,0,0,0-.77,3.22.5.5,0,0,0,1,.13,16.71,16.71,0,0,0,.86-3.41c.09-.63-.88-.9-1-.27a15.93,15.93,0,0,1-.86,3.41l1,.14a5.22,5.22,0,0,1,.64-2.71c.31-.57-.56-1.07-.87-.51Z" transform="translate(-865.88 -446.21)"/></g><g class="cls-2"><path class="cls-3" d="M1009.3,593.76a10.72,10.72,0,0,0,2.34,2.46c.39.29.76-.36.38-.65a9.37,9.37,0,0,1-2.07-2.19c-.27-.39-.92,0-.65.38Z" transform="translate(-865.88 -446.21)"/></g><g class="cls-21"><path class="cls-3" d="M978.63,618.29a.38.38,0,0,0,0-.75.38.38,0,0,0,0,.75Z" transform="translate(-865.88 -446.21)"/></g><path class="cls-3" d="M998,602.8c-3.83.35-6.17,3.32-8.7,5.89a39.53,39.53,0,0,1-13.54,8.94c-.44.18-.25.9.2.72a40.75,40.75,0,0,0,10.74-6.27c3.44-2.81,6.54-8.1,11.3-8.53.48,0,.48-.79,0-.75Z" transform="translate(-865.88 -446.21)"/><path class="cls-4" d="M993.87,604.28l-3.44-.4a9.39,9.39,0,0,1-1.68-.31,9.07,9.07,0,0,1-3-1.91L982,598.5c1.13.24,2.25.48,3.37.74a14.53,14.53,0,0,1,3.91,1.31,14.94,14.94,0,0,1,3.89,3.68" transform="translate(-865.88 -446.21)"/><path class="cls-3" d="M993.87,603.91c-2.65-.31-5.12-.34-7.3-2.06-1.47-1.15-2.87-2.41-4.3-3.62l-.37.63a42.15,42.15,0,0,1,5.77,1.39c2.24.82,3.74,2.45,5.24,4.25.31.37.83-.17.53-.53a13.86,13.86,0,0,0-4.71-4.11,31.54,31.54,0,0,0-6.63-1.72c-.34-.07-.67.36-.37.62a46.12,46.12,0,0,0,5.55,4.53c1.93,1.16,4.42,1.11,6.59,1.37.48.05.48-.7,0-.75Z" transform="translate(-865.88 -446.21)"/><path class="cls-4" d="M994.15,604.5a20.45,20.45,0,0,1-.66,4.29c-.53,3.44.77,6.88,2,10.13l.72-6a18.7,18.7,0,0,0,.18-4.09,6.21,6.21,0,0,0-1.56-3.71.8.8,0,0,0-.72-.33" transform="translate(-865.88 -446.21)"/><path class="cls-3" d="M993.78,604.5c0,2.67-1,5-.65,7.72a30,30,0,0,0,2,6.8.37.37,0,0,0,.73-.1c.39-3.26,1.25-6.81.91-10.09-.15-1.42-.83-4.1-2.56-4.41-.47-.08-.68.64-.2.73,3.82.67,1.4,11.32,1.1,13.77l.74-.1a26.66,26.66,0,0,1-2.12-7.45c-.18-2.35.71-4.54.75-6.87a.38.38,0,0,0-.75,0Z" transform="translate(-865.88 -446.21)"/><path class="cls-3" d="M987.76,610.25c-.54-2.34-2.46-3.24-4.53-4-3.62-1.42-6.16-3.74-6.82-7.72-.08-.48-.8-.28-.73.2a10.12,10.12,0,0,0,3.38,6.13c2.41,2.06,7.17,2.16,8,5.64.11.47.83.27.72-.2Z" transform="translate(-865.88 -446.21)"/><path class="cls-4" d="M985.83,607.89c-.17-.31-.59-.35-1-.34-2.21.06-4.61.22-6.46-1a6.64,6.64,0,0,1-2.57-4.06,19.67,19.67,0,0,1-.3-4.91,18.08,18.08,0,0,1,5.24,3.5,16,16,0,0,1,3.56,4.49c.26.52.48,1.07.7,1.61,0,.1.11.22.22.21s.05-.23,0-.15" transform="translate(-865.88 -446.21)"/><path class="cls-3" d="M986,607.57a3.74,3.74,0,0,0-2.48-.36,8.78,8.78,0,0,1-4.64-.82c-3-1.78-3-5.72-3-8.81l-.56.33a19.57,19.57,0,0,1,6.3,4.56,14.08,14.08,0,0,1,2.21,3,8,8,0,0,0,1.13,2.18.38.38,0,0,0,.59-.07l.06-.11a.38.38,0,0,0-.14-.51l-.08-.05c-.42-.23-.8.42-.38.65l-.1-.36.58-.08c-.69-.66-1-2-1.49-2.85a16.45,16.45,0,0,0-2.07-2.56,19.91,19.91,0,0,0-6.23-4.45.39.39,0,0,0-.57.32c-.06,2.89-.06,6.19,2.06,8.44a6.18,6.18,0,0,0,3.53,1.79c1.35.24,3.77-.39,4.88.4.4.28.77-.37.38-.64Z" transform="translate(-865.88 -446.21)"/><path class="cls-3" d="M987.76,611.6l.76,6.36a.94.94,0,0,1,0,.47,1.11,1.11,0,0,1-.36.42,6.63,6.63,0,0,0-2.07,3.16,14.38,14.38,0,0,1,1.07-10.87" transform="translate(-865.88 -446.21)"/><path class="cls-3" d="M987.38,611.6l.38,3.18c.12,1,.61,2.61.25,3.49-.25.6-.89,1-1.27,1.57a7.62,7.62,0,0,0-1,2.08h.72a14.5,14.5,0,0,1,1-10.6c.21-.43-.43-.81-.65-.37a15.23,15.23,0,0,0-1.11,11.16.37.37,0,0,0,.72,0,11.83,11.83,0,0,1,2-3c.32-.47.39-.42.49-.93a11.44,11.44,0,0,0-.33-3l-.43-3.58c-.06-.48-.81-.48-.75,0Z" transform="translate(-865.88 -446.21)"/><path class="cls-3" d="M980.2,615.53a19.51,19.51,0,0,0-2.75.1,8.4,8.4,0,0,1-5.45-1.84c.49-.19.47-1,.93-1.23s1,.18,1.38.55a7.71,7.71,0,0,0,6.48,2" transform="translate(-865.88 -446.21)"/><path class="cls-3" d="M980.2,615.15a30.76,30.76,0,0,1-4.4,0,8.58,8.58,0,0,1-3.61-1.66l.07.59c-.23.19.61-.5.44-.49.2-.49.64-.55,1.34-.2l.41.36a21.83,21.83,0,0,0,1.92,1.17,8.26,8.26,0,0,0,4.42.56c.47-.06.48-.81,0-.75a7.84,7.84,0,0,1-3.63-.31c-1.26-.43-1.94-1.3-3-1.95-1.45-.83-1.43.29-2.38,1.08a.38.38,0,0,0,.08.59,9.16,9.16,0,0,0,3.79,1.73,30.7,30.7,0,0,0,4.6,0c.48,0,.48-.72,0-.75Z" transform="translate(-865.88 -446.21)"/><path class="cls-3" d="M981.19,615.16a18.88,18.88,0,0,0-2.64,7.18c0,.15,0,.34.1.42a.36.36,0,0,0,.27,0l2.41-.21a18.69,18.69,0,0,1-.44-6.28.53.53,0,0,0-.06-.41c-.09-.1-.32-.07-.32.07" transform="translate(-865.88 -446.21)"/><path class="cls-3" d="M980.87,615a19.9,19.9,0,0,0-2.6,6.76c-.37,2.08,1.48,1.38,3.06,1.24a.38.38,0,0,0,.36-.48,20,20,0,0,1-.47-5.61c0-.61.2-1.18-.48-1.4a.39.39,0,0,0-.37.1l-.12.12c-.34.35.19.88.53.53-.35,0-.45.23-.31.65l0,.57a19.41,19.41,0,0,0,0,2,21.78,21.78,0,0,0,.5,3.22l.36-.47c-.58,0-2.05.46-2.34-.29-.16-.44.42-1.83.55-2.24a19.13,19.13,0,0,1,2-4.34.38.38,0,0,0-.65-.38Z" transform="translate(-865.88 -446.21)"/><g class="cls-2"><path class="cls-3" d="M975.89,598.43a7.46,7.46,0,0,0,6,6.13,4.62,4.62,0,0,1,1.18.28,3.47,3.47,0,0,1,1.42,1.91c-2.15.33-4.58.59-6.29-.75-1.48-1.16-1.95-3.15-2.33-5" transform="translate(-865.88 -446.21)"/><path class="cls-3" d="M975.53,598.53a7.85,7.85,0,0,0,2.83,4.81,7.62,7.62,0,0,0,2,1.19c.45.18.92.25,1.38.39a3.35,3.35,0,0,1,2.37,2l.23-.55c-1.8.26-4,.58-5.59-.43s-2.18-3.21-2.57-5.05c-.1-.47-.82-.27-.72.2.43,2,1,4.33,2.91,5.5s4.15.8,6.17.5c.26,0,.31-.35.22-.55a4.32,4.32,0,0,0-1.15-1.78c-.85-.65-2-.58-3-1a7.2,7.2,0,0,1-4.38-5.48c-.08-.47-.81-.27-.72.2Z" transform="translate(-865.88 -446.21)"/></g><g class="cls-2"><path class="cls-3" d="M994.18,606.14a12.35,12.35,0,0,0,.93,5.05c.27.55.64,1.06.86,1.64a7.74,7.74,0,0,1-.19,4.63,18.31,18.31,0,0,1-2.08-8.76" transform="translate(-865.88 -446.21)"/><path class="cls-3" d="M993.81,606.14a14.39,14.39,0,0,0,.66,4.52c.25.64.65,1.18.91,1.8a7.18,7.18,0,0,1,0,4.9l.68-.09a19,19,0,0,1-2-8.57.38.38,0,0,0-.75,0,19.79,19.79,0,0,0,2.13,8.95.38.38,0,0,0,.68-.09,8.19,8.19,0,0,0,.17-4.87c-.3-.81-.81-1.52-1.12-2.34a13.85,13.85,0,0,1-.63-4.21c0-.48-.78-.48-.75,0Z" transform="translate(-865.88 -446.21)"/></g><g class="cls-2"><path class="cls-3" d="M1018.7,580.58c1.55,0,3-1.18,4.12-2.15a9.76,9.76,0,0,1,3.79-2.48,19.25,19.25,0,0,1,4.54-.55.38.38,0,0,0,0-.75c-2.22-.11-4.13,1-6,2a62.06,62.06,0,0,0-7,4.38c-.39.28,0,.93.38.65a62,62,0,0,1,5.5-3.54c2.18-1.24,4.6-2.85,7.19-2.72v-.75a17.45,17.45,0,0,0-5.56.85c-2.47,1-4.12,4.26-6.89,4.33a.38.38,0,0,0,0,.75Z" transform="translate(-865.88 -446.21)"/></g><g class="cls-2"><path class="cls-3" d="M1028.15,575.8a19.28,19.28,0,0,0,.3,5.57,2.66,2.66,0,0,1,.06,1.34,2.87,2.87,0,0,1-.76,1c-2.53,2.55-3.82,6.61-2.28,9.87,1,2.13,3,3.6,4.93,4.93s3.81,2.53,5.76,3.74c-1.36-2.33-4.2-3.33-6-5.31a10.34,10.34,0,0,1-2.45-6.21,33.53,33.53,0,0,1,.4-6.78c0-.2.09-.44.28-.49s.27.37.08.31" transform="translate(-865.88 -446.21)"/><path class="cls-3" d="M1027.78,575.8a31.39,31.39,0,0,0,.15,4.75c.17,2.11-.81,3.05-1.86,4.67a9.6,9.6,0,0,0-1.57,6.39c.76,5.39,7.36,8.42,11.47,11,.31.19.72-.2.51-.51-1.57-2.36-4.23-3.33-6.08-5.38a10.06,10.06,0,0,1-2.34-6,18.85,18.85,0,0,1,0-2.91c0-.65.1-1.29.17-1.94a4.1,4.1,0,0,0-.11-2.3c-.28.39.37.77.65.38l.11-.15a.36.36,0,0,0-.06-.45l-.18-.16a.38.38,0,0,0-.53,0c-.91.82-.68,3-.76,4.14a15.92,15.92,0,0,0,.71,6.82c1.49,4,5.56,4.93,7.78,8.28l.51-.52c-4.62-2.87-12.39-6.48-11-13.09a9.85,9.85,0,0,1,1.76-3.78c.52-.7,1.41-1.33,1.71-2.16a3.46,3.46,0,0,0,0-1.63,31.3,31.3,0,0,1-.28-5.47c0-.48-.72-.48-.75,0Z" transform="translate(-865.88 -446.21)"/></g><g class="cls-2"><path class="cls-3" d="M1028.17,583.5c-.39,2.33.79,4,2.3,5.64a16.13,16.13,0,0,1,4.57,10.28c0,.48.77.48.75,0a16.41,16.41,0,0,0-1.92-7c-1.5-2.77-5.54-5.27-5-8.7.08-.47-.64-.67-.72-.2Z" transform="translate(-865.88 -446.21)"/></g><g class="cls-2"><path class="cls-3" d="M1029.11,588.44a10.42,10.42,0,0,1,1,6c-.06.47.69.47.75,0a11.07,11.07,0,0,0-1.06-6.38c-.21-.43-.85,0-.64.38Z" transform="translate(-865.88 -446.21)"/></g><g class="cls-2"><path class="cls-3" d="M1032.56,592.92a10.38,10.38,0,0,1,.16,5.69c-.12.46.61.66.72.2a11.25,11.25,0,0,0-.15-6.09c-.15-.46-.87-.26-.73.2Z" transform="translate(-865.88 -446.21)"/></g><g class="cls-2"><path class="cls-3" d="M1031.12,590.64a54.74,54.74,0,0,1,5.31,2.91c.41.26.78-.39.37-.65a55.56,55.56,0,0,0-5.3-2.91c-.43-.2-.81.44-.38.65Z" transform="translate(-865.88 -446.21)"/></g><g class="cls-2"><path class="cls-3" d="M1034.42,595.23a13.65,13.65,0,0,1,2.43,2.77c.26.41.91,0,.65-.37a14.55,14.55,0,0,0-2.55-2.93c-.37-.31-.9.22-.53.53Z" transform="translate(-865.88 -446.21)"/></g></svg>