<svg id="Calque_1" data-name="Calque 1" xmlns="http://www.w3.org/2000/svg" viewBox="0 0 136.08 108.34"><defs><style>.cls-1{fill:#edc088;}.cls-2{fill:#1d1d1b;}.cls-3{opacity:0.32;}.cls-4{fill:#b17f4a;}.cls-5{fill:#fff;}.cls-6{fill:#1d71b8;}.cls-7{opacity:0.3;}.cls-8{fill:#29235c;}.cls-9{opacity:0.17;}</style></defs><title>trophee_insecte</title><path class="cls-1" d="M839.81,578.42A2.24,2.24,0,0,0,840,581a1.4,1.4,0,0,0-1,1.44,2.64,2.64,0,0,0,.84,1.7,10.17,10.17,0,0,0-2.22,5.14,6,6,0,0,0,.29,3,3.34,3.34,0,0,0,2.15,2,7.13,7.13,0,0,1-1.38-3.63,2.88,2.88,0,0,0,2.73,1.21c-.27-.48-.8-.75-1.2-1.13a3.58,3.58,0,0,1-.65-3.73,12.4,12.4,0,0,1,2.1-3.38,1.76,1.76,0,0,0,.48-1.18c0-.38-.33-.69-.4-1.07s.23-1,.31-1.58-.4-1.23-.87-1a2.68,2.68,0,0,0-.09-2.76l-1,1.6c-.06.08-.11.2,0,.28s.19-.12.09-.11" transform="translate(-785.85 -486.55)"/><path class="cls-2" d="M839.38,578.17a3,3,0,0,0,.17,3.13l.18-.69a2,2,0,0,0-1.21,2.32c.14.73.5.91.34,1.64s-1,1.77-1.32,2.65c-1,2.83-.82,6.42,2.33,7.64a.5.5,0,0,0,.57-.73,7.89,7.89,0,0,1-1.33-3.51l-.84.48a3.65,3.65,0,0,0,3.08,1.36.51.51,0,0,0,.35-.86c-.7-.86-1.15-1-1.57-2.14-.55-1.54-.16-2.49.71-3.87.69-1.08,1.49-1.79,1.74-3.05,0,0-.31-4.17-.11-2.51a2.43,2.43,0,0,0-.08-.81,1.2,1.2,0,0,0-1.27-.79l.49.63a3.53,3.53,0,0,0-.14-3.15.51.51,0,0,0-.87,0,5.5,5.5,0,0,0-1.14,2c-.05.36.21.73.61.62l.11,0a.51.51,0,0,0,.35-.62l0-.07a.5.5,0,0,0-1,.26l0,.08.35-.62-.11,0,.61.62a11.52,11.52,0,0,1,1.05-1.76h-.87l0,2.38a.51.51,0,0,0,.48.63c.26,0,.1,3.9,0,4-.59,1.39-1.84,2.27-2.24,3.83-.63,2.48.68,3.3,2.07,5l.35-.85A2.43,2.43,0,0,1,839,590.4c-.37-.43-.9.05-.84.48a8.55,8.55,0,0,0,1.43,3.75l.57-.73c-4-1.54-1.72-7.11.07-9.47a.5.5,0,0,0-.08-.6l.11-2.36a.5.5,0,0,0,.18-.68l-.18-2.12c.25-.58-.61-1.09-.86-.5Z" transform="translate(-785.85 -486.55)"/><path class="cls-1" d="M868,577.92a2.24,2.24,0,0,1-.17,2.62,1.4,1.4,0,0,1,1,1.44,2.69,2.69,0,0,1-.84,1.7,10,10,0,0,1,2.22,5.13,6.1,6.1,0,0,1-.28,3,3.39,3.39,0,0,1-2.16,2,7.07,7.07,0,0,0,1.38-3.63,2.89,2.89,0,0,1-2.73,1.2c.27-.48.8-.74,1.2-1.12a3.59,3.59,0,0,0,.65-3.73,12.37,12.37,0,0,0-2.09-3.38,1.73,1.73,0,0,1-.49-1.18c0-.38.33-.7.4-1.07.11-.53-.23-1.05-.31-1.58s.4-1.23.87-1a2.72,2.72,0,0,1,.09-2.77l1,1.6c.06.09.11.21,0,.28s-.19-.12-.08-.1" transform="translate(-785.85 -486.55)"/><path class="cls-2" d="M867.61,578.17l-.17,2.12a.49.49,0,0,0,.17.68l.11,2.35a.52.52,0,0,0-.08.61c1.76,2.32,4.06,7.92.08,9.47l.56.73a8.43,8.43,0,0,0,1.43-3.75c.06-.44-.47-.91-.83-.49A2.44,2.44,0,0,1,866.5,591l.36.86c1.38-1.71,2.7-2.53,2.06-5-.36-1.4-1.31-2.28-2-3.51a3.7,3.7,0,0,1-.26-2.25c0-.18-.3-2.09.06-2.1a.51.51,0,0,0,.48-.63l0-2.39h-.86a12.07,12.07,0,0,1,1,1.77l.61-.62-.1,0,.35.62,0-.08a.5.5,0,0,0-1-.27l0,.08a.5.5,0,0,0,.35.61l.11,0c.4.12.66-.25.61-.61a5.42,5.42,0,0,0-1.14-2,.5.5,0,0,0-.86,0,3.5,3.5,0,0,0-.14,3.15l.48-.63a1.1,1.1,0,0,0-1.24.72,2,2,0,0,0-.11.87,14.34,14.34,0,0,0-.11,2.52c.16,1.12.91,1.79,1.52,2.72a5.9,5.9,0,0,1,1.3,3.17c0,1.93-1,2.05-1.94,3.17a.5.5,0,0,0,.35.85,3.63,3.63,0,0,0,3.08-1.35l-.83-.49a8.14,8.14,0,0,1-1.33,3.51c-.23.35.15.9.56.74,3.15-1.23,3.29-4.82,2.33-7.65-.28-.82-.77-1.52-1.1-2.3-.41-1-.12-.74.06-1.68a2.11,2.11,0,0,0-1.15-2.62l.18.68a3.06,3.06,0,0,0,.18-3.13c-.26-.59-1.12-.08-.87.51Z" transform="translate(-785.85 -486.55)"/><g class="cls-3"><path class="cls-4" d="M841.12,578.33a2.27,2.27,0,0,0,.19-.61l-1-.13-.17,2.67h1l.13-3.48c0-.55-.89-.69-1-.13l-.35,2.1,1,.14.12-1c.08-.58-.83-.66-1-.14a7.59,7.59,0,0,0-.28,2.6c0,.53.84.71,1,.13a7.07,7.07,0,0,0,.19-2.1c0-.46-.69-.72-.93-.25a4.9,4.9,0,0,0-.58,2.11.5.5,0,0,0,1,.14l.22-.85-1-.13v.73a.5.5,0,0,0,1,0v-.73a.5.5,0,0,0-1-.14l-.22.85,1,.13a3.8,3.8,0,0,1,.44-1.61l-.93-.25a6.24,6.24,0,0,1-.15,1.83l1,.14a6.55,6.55,0,0,1,.25-2.33l-1-.13-.12,1c-.07.55.89.69,1,.13l.35-2.1-1-.14-.13,3.48c0,.65,1,.64,1,0l.17-2.67c0-.55-.89-.7-1-.13l-.08.36c-.26.59.6,1.1.86.51Z" transform="translate(-785.85 -486.55)"/></g><g class="cls-3"><path class="cls-4" d="M867.94,578.33a4,4,0,0,0-.15-1.38.5.5,0,0,0-1,.14,9.54,9.54,0,0,0,.36,2.49c.12.45.87.51,1,0a4.91,4.91,0,0,0-.42-3.11.5.5,0,0,0-.91.12,9.84,9.84,0,0,0-.07,2.6c.06.51.87.74,1,.13s.4-3.16-.92-2.75c-.45.14-.54.71-.6,1.1a4.45,4.45,0,0,0,.22,2.2.51.51,0,0,0,1,0,7.73,7.73,0,0,0,.15-3.88.5.5,0,0,0-1,.13l.14,3.13c0,.64,1,.64,1,0l-.14-3.13-1,.14a6.46,6.46,0,0,1-.15,3.35h1a3.75,3.75,0,0,1-.25-1.24,2.3,2.3,0,0,1,.15-1l-.36.15h.15l-.35-.15c.27.32.09,1.29,0,1.65l1,.13a8.65,8.65,0,0,1,0-2.33l-.91.11a3.88,3.88,0,0,1,.32,2.35h1a8.9,8.9,0,0,1-.32-2.23l-1,.13a3,3,0,0,1,.11,1.11c-.05.65.95.64,1,0Z" transform="translate(-785.85 -486.55)"/></g><path class="cls-1" d="M838.28,536.58a6.61,6.61,0,0,1-3.5-.65,9.21,9.21,0,0,0,1.31-8.73c-.34-.89-1.16-1.88-2.06-1.54a1.52,1.52,0,0,0-.78-2.08,1.88,1.88,0,0,0-.29-2.87,3,3,0,0,0-.82-2.67c-.63-.74-1.44-1.3-2.09-2a6,6,0,0,1-1-6.69,8,8,0,0,0-1.7,1.68,13.56,13.56,0,0,1,.5-3.75,5,5,0,0,0-1.38,4.83,10.76,10.76,0,0,0,2.53,4.57,4.86,4.86,0,0,1,1.06,1.6c.14.43.14.9.29,1.33a1.08,1.08,0,0,0,1,.79,1.49,1.49,0,0,0,.62,2.35,2.43,2.43,0,0,0,.84,3,2,2,0,0,0-1.32,1.81,6.93,6.93,0,0,0,.32,2.34,12.59,12.59,0,0,1-.12,7.73,3.51,3.51,0,0,0-.44,1.73c.17,1.17,1.61,1.63,2.79,1.73a21.57,21.57,0,0,0,3.41,0,1,1,0,0,0,.66-.22,1,1,0,0,0,.21-.78l0-3.12c0-.13.06-.29.19-.29s.09.26,0,.19" transform="translate(-785.85 -486.55)"/><path class="cls-2" d="M838.28,536.08a7.3,7.3,0,0,1-3.25-.58l.18.68a9.92,9.92,0,0,0,1.88-6.87c-.19-1.82-.87-4.24-3.06-4.15l.48.63a2.15,2.15,0,0,0-1-2.65l.18.69c1.09-1.42.23-3.17-.31-4.66a6.8,6.8,0,0,0-1.91-2.5c-2-1.93-3.24-4.25-2-7.08a.5.5,0,0,0-.78-.61,11.39,11.39,0,0,0-1.71,1.69l.86.35a17,17,0,0,1,.48-3.62.5.5,0,0,0-.83-.49,6,6,0,0,0-1,6.87c.7,1.61,2.06,2.66,2.86,4.16.71,1.35.3,2.4,1.86,2.93l-.3-.74c-.8,1.24-.11,1.66.28,2.75s.09,2.12,1.26,3.17l.1-.79c-2.3,1.14-1.43,3.56-1,5.57a12.57,12.57,0,0,1-.31,6.61c-.31.91-.72,1.78-.17,2.69,1.06,1.76,4.75,1.78,6.41,1.4.68-.16,1-.24,1.27-.83.41-.74-.44-3.31,0-3.65l-.68-.18.08.12.18-.68-.09.06c-.51.39,0,1.25.5.87l.09-.07a.5.5,0,0,0,.18-.68l-.08-.13a.51.51,0,0,0-.68-.18c-.55.4-.41.88-.43,1.51,0,1.42.57,2.47-1.21,2.89a6.78,6.78,0,0,1-3.1-.16c-2.36-.89-.64-4.7-.65-6.67,0-1.71-1.72-6.67.22-7.63a.5.5,0,0,0,.1-.78l-.72-2.46a.5.5,0,0,0-.23-.57l-.44-1.67a.51.51,0,0,0-.3-.74c-.81-.28-.89-1.78-1.26-2.46a23.31,23.31,0,0,0-1.72-2.21c-1.63-2.3-2.51-5.36-.29-7.61l-.84-.49a18.21,18.21,0,0,0-.52,3.89.5.5,0,0,0,.85.35,11.81,11.81,0,0,1,1.71-1.68l-.79-.61a6.61,6.61,0,0,0,.18,6,13.69,13.69,0,0,0,2.51,2.76c1,1,.92,1.32,1.18,2.9.15,1,2.17.19.35,2.55a.5.5,0,0,0,.18.69l.55,1.52a.5.5,0,0,0,.48.63c.71,0,1.81,2,2,2.65a7.2,7.2,0,0,1,0,2.85,9.36,9.36,0,0,1-1.68,4,.49.49,0,0,0,.17.68,8.25,8.25,0,0,0,3.76.72c.64,0,.65-1,0-1Z" transform="translate(-785.85 -486.55)"/><path class="cls-1" d="M867.34,534.46a6.65,6.65,0,0,0,3.51-.65,9.21,9.21,0,0,1-1.32-8.73c.34-.9,1.17-1.88,2.06-1.54a1.54,1.54,0,0,1,.79-2.09,1.87,1.87,0,0,1,.29-2.87,3,3,0,0,1,.81-2.66c.63-.74,1.44-1.3,2.1-2a6,6,0,0,0,1-6.69,8.3,8.3,0,0,1,1.71,1.69,14,14,0,0,0-.51-3.76,5,5,0,0,1,1.38,4.84,10.66,10.66,0,0,1-2.53,4.57,4.83,4.83,0,0,0-1,1.6c-.14.43-.14.9-.3,1.33a1,1,0,0,1-1,.78,1.49,1.49,0,0,1-.62,2.36,2.4,2.4,0,0,1-.84,3,2,2,0,0,1,1.33,1.8,7,7,0,0,1-.33,2.35,12.74,12.74,0,0,0,.12,7.73,3.38,3.38,0,0,1,.44,1.73c-.17,1.17-1.61,1.63-2.78,1.72a20.56,20.56,0,0,1-3.42,0,1.09,1.09,0,0,1-.66-.22,1.11,1.11,0,0,1-.2-.78v-3.12c0-.13-.06-.29-.18-.3s-.1.27,0,.19" transform="translate(-785.85 -486.55)"/><path class="cls-2" d="M867.34,535a8.39,8.39,0,0,0,3.76-.72.5.5,0,0,0,.18-.68,9.12,9.12,0,0,1-1.68-4c-.2-1.3-.32-5.6,2-5.5a.51.51,0,0,0,.48-.64l.56-1.51a.52.52,0,0,0,.18-.69c-2.66-3.44.17-1.51.34-2.48.23-1.32.19-2,1.19-3a13.77,13.77,0,0,0,2.51-2.77,6.62,6.62,0,0,0,.17-6l-.78.61a11.25,11.25,0,0,1,1.7,1.68.51.51,0,0,0,.86-.35,18.22,18.22,0,0,0-.53-3.89l-.83.49c2.22,2.25,1.33,5.31-.29,7.6a24.76,24.76,0,0,0-1.73,2.21c-.37.69-.44,2.19-1.26,2.47a.51.51,0,0,0-.3.73l-.44,1.68a.5.5,0,0,0-.23.56l-.71,2.46a.51.51,0,0,0,.1.79c2,1,.29,5.49.22,7.19-.08,2,1.67,6.24-.66,7.11a6.77,6.77,0,0,1-3.1.16c-1.67-.4-1.21-1.17-1.21-2.5,0-.73.21-1.44-.42-1.9a.52.52,0,0,0-.69.18l-.08.12a.52.52,0,0,0,.18.69l.09.06c.51.39,1-.48.5-.86l-.09-.07.18.69.09-.12-.69.17c.39.29-.28,2.91,0,3.6s.56.73,1.29.89c1.68.35,5.35.38,6.41-1.4.55-.92.15-1.76-.16-2.69a12.38,12.38,0,0,1-.32-6.61c.4-2,1.27-4.43-1-5.57l.1.78c1.15-1,.84-2,1.27-3.17s1.09-1.49.27-2.74l-.29.73c1.56-.53,1.14-1.57,1.86-2.92.79-1.5,2.15-2.55,2.85-4.17a6,6,0,0,0-1-6.86.5.5,0,0,0-.83.49,17.62,17.62,0,0,1,.49,3.62l.85-.36a11.81,11.81,0,0,0-1.71-1.68.5.5,0,0,0-.78.61c1.14,2.58.23,5-1.72,6.84a7.4,7.4,0,0,0-2.18,2.73c-.57,1.48-1.4,3.26-.32,4.67l.18-.69a2.16,2.16,0,0,0-1,2.65l.48-.63c-2.19-.09-2.86,2.32-3.06,4.14a9.94,9.94,0,0,0,1.88,6.88l.18-.68a7.27,7.27,0,0,1-3.25.58c-.64,0-.64,1,0,1Z" transform="translate(-785.85 -486.55)"/><path class="cls-1" d="M829.91,572.41a9.1,9.1,0,0,0-.82,5.37,5,5,0,0,0,3.45,4,5.79,5.79,0,0,1-2.22-3.71,4.63,4.63,0,0,0,1.53,1.52,2,2,0,0,0,2.07,0,5.94,5.94,0,0,1-2.45-2.26A4.18,4.18,0,0,1,831,574" transform="translate(-785.85 -486.55)"/><path class="cls-2" d="M829.42,572.27c-1.47,3.6-1.38,8.54,3,9.94.45.15.87-.51.48-.83a5.92,5.92,0,0,1-2.09-3.49l-.91.38c1.08,1.47,2.45,2.54,4.28,1.69a.5.5,0,0,0,0-.86c-1.83-1.05-3.16-2.71-2.66-5,.13-.63-.83-.9-1-.27-.58,2.66.88,4.79,3.13,6.08v-.86c-1.25.57-2.25-.42-2.92-1.33a.5.5,0,0,0-.91.38,6.7,6.7,0,0,0,2.34,3.94l.49-.84c-3.85-1.24-3.52-5.69-2.28-8.71.24-.6-.73-.86-1-.27Z" transform="translate(-785.85 -486.55)"/><g class="cls-3"><path class="cls-4" d="M827.33,508.35a4.66,4.66,0,0,0-.48,4,13.34,13.34,0,0,0,2,3.66,12.7,12.7,0,0,1,2.43,5,3.56,3.56,0,0,0,.17.8,1.37,1.37,0,0,0,.94.78,2.2,2.2,0,0,0,.83,3.08c-1.4,1-1.44,3-1,4.71s1,3.39.58,5c-.36,1.23-1.34,2.35-1.16,3.62a2.57,2.57,0,0,0,2.08,2,4.36,4.36,0,0,0,3-.59c1.06-.58,2-1.69,1.76-2.86A1.05,1.05,0,0,0,838,537c-.46-.34-1.11-.05-1.55.33s-.84.85-1.41.9c-.82.09-1.46-.79-1.52-1.62a10.32,10.32,0,0,1,.42-2.44,10.61,10.61,0,0,0-.19-3.59q-.62-3.57-1.48-7.09a24.84,24.84,0,0,0-1-3.18,27.89,27.89,0,0,0-4.61-7" transform="translate(-785.85 -486.55)"/><path class="cls-4" d="M826.9,508.1c-1.4,2.42-.61,4.87.79,7.11,1,1.69,2.31,3.22,2.9,5.15.39,1.29.24,2,1.51,2.66l-.18-.68a2.78,2.78,0,0,0,1,3.76l-.1-.79c-1.52,1.39-1.56,3.29-1.17,5.2.16.84.53,1.67.61,2.53a7.77,7.77,0,0,1-.76,3.91,4,4,0,0,0-.43,2.21c.73,3.92,7.33,2.64,7.8-.81.24-1.82-.85-1.77-2.08-1.85-.25,0-.52.49-.71.45l-1.86-1.85a6.17,6.17,0,0,0,.2-1c-.18-1.37,0-2.76-.28-4.16a51.71,51.71,0,0,0-2.37-9.84,28.71,28.71,0,0,0-4.74-7.22c-.41-.5-1.11.21-.71.7a29.81,29.81,0,0,1,4.2,6.14,31.6,31.6,0,0,1,1.86,6.48c.48,2.18,1.25,4.76,1.12,7-.08,1.44-1,3.09-.12,4.47a1.8,1.8,0,0,0,1.77,1c-.37,0,1.61-.5,1.1-.57q.88-.75.09,1.89-3.37,2.06-3.81-2.92c.13-1.21.9-2.14.81-3.49-.19-2.48-2.1-5.51.19-7.59a.5.5,0,0,0-.1-.78l-.65-2.4a.5.5,0,0,0-.18-.68c-.93-.46-1-2.09-1.35-2.93a15.73,15.73,0,0,0-1.56-2.81c-1.52-2.35-3.57-5-1.93-7.82a.5.5,0,0,0-.86-.5Z" transform="translate(-785.85 -486.55)"/></g><g class="cls-3"><path class="cls-4" d="M874,516l-1.29,3.42c-.25.66-.44,1.56.15,2a2.39,2.39,0,0,0-.6,3.52c-1.38,1.25-1.55,3.35-1.3,5.2s.82,3.68.58,5.52a2,2,0,0,0,0,1.21c.4.77,1.55.55,2.35.21-.15.85-1.16,1.25-2,1.26a7.58,7.58,0,0,0-2.57.13,8.38,8.38,0,0,1,2.5,0,2.9,2.9,0,0,1-4.22-1.9,3.77,3.77,0,0,0,.38,2.21,4.47,4.47,0,0,1-.6-3.54.79.79,0,0,1,.26-.48.93.93,0,0,1,.57-.13c1.07,0,2.39.17,2.93-.75a5,5,0,0,1-1.89-3.58,11.14,11.14,0,0,1,.5-4.12,4.19,4.19,0,0,1,.83-1.8" transform="translate(-785.85 -486.55)"/><path class="cls-4" d="M873.49,515.87c-.64,1.69-2.36,4.19-1,5.86l.11-.79a3.07,3.07,0,0,0-1.15,1.37c-.36.91.07,1.41,0,2.23-.13,1.49-1.14,2.78-1.09,4.49,0,1.31.38,2.59.55,3.89.15,1.1-.32,3,.18,4,.58,1.18,1.94.92,3,.56l-.56-.73c-.63,1.35-3.05.91-4.3,1.16-.54.11-.43,1,.14,1a11.61,11.61,0,0,1,2.5,0l-.25-.93a2.44,2.44,0,0,1-3.48-1.61.51.51,0,0,0-1,.14,5.26,5.26,0,0,0,.4,2.34l.91-.38c-.52-1-.62-2.64.46-3.37.18-.12.88,0,1.13-.08a2.44,2.44,0,0,0,1.49-.85.5.5,0,0,0,0-.7c-2.41-2.09-2.21-6.39-.48-8.9.37-.53-.5-1-.86-.51a9.71,9.71,0,0,0-1.42,4.94,7.3,7.3,0,0,0,.34,2.74c.16.46,1,1.3,1,1.72.41.33.25.48-.47.45a1.84,1.84,0,0,1-1,.18c-.31,0-.44-.05-.75.06-.52.2-.57.22-.84.78-.62,1.24,0,2.94.6,4,.26.48,1.12.15.91-.39a3.5,3.5,0,0,1-.36-2.07l-1,.13a3.43,3.43,0,0,0,4.95,2.2c.49-.24.2-.89-.25-.93a11.61,11.61,0,0,0-2.5,0l.13,1c1.83-.38,3.95.41,4.89-1.63.17-.36-.11-.89-.56-.73-2.19.77-1.77-3.1-2-4.29-.4-2.42-1.09-5,.77-7a.5.5,0,0,0,.08-.61,1.91,1.91,0,0,1,.42-2.84.5.5,0,0,0,.1-.78c-.81-1,.92-3.95,1.27-4.88.23-.61-.74-.87-1-.27Z" transform="translate(-785.85 -486.55)"/></g><g class="cls-3"><path class="cls-4" d="M829.92,573a7.81,7.81,0,0,0-.19,1.53h1l-.16-1.37a.5.5,0,0,0-.93-.25,4.07,4.07,0,0,0-.54,1.43.51.51,0,0,0,.74.56,2.5,2.5,0,0,0,.73-.61l-.86-.35.16,1.35a.5.5,0,0,0,1,0L831,574h-1v.85h1a2.27,2.27,0,0,1,.12-.82l-1-.14v1.3a.5.5,0,0,0,1,0v-1.3a.51.51,0,0,0-1-.13,3.38,3.38,0,0,0-.15,1.09.5.5,0,0,0,1,0V574c0-.66-.93-.62-1,0l-.15,1.27h1l-.16-1.35c0-.38-.54-.73-.85-.35a1.9,1.9,0,0,1-.53.45l.74.56a3.22,3.22,0,0,1,.43-1.19l-.93-.25.16,1.37a.5.5,0,0,0,1,0,6.78,6.78,0,0,1,.15-1.27c.14-.62-.82-.89-1-.26Z" transform="translate(-785.85 -486.55)"/></g><path class="cls-2" d="M838.28,536.08a7.3,7.3,0,0,1-3.25-.58l.18.68a9.92,9.92,0,0,0,1.88-6.87c-.19-1.82-.87-4.24-3.06-4.15l.48.63a2.15,2.15,0,0,0-1-2.65l.18.69c1.09-1.42.23-3.17-.31-4.66a6.8,6.8,0,0,0-1.91-2.5c-2-1.93-3.24-4.25-2-7.08a.5.5,0,0,0-.78-.61,11.39,11.39,0,0,0-1.71,1.69l.86.35a17,17,0,0,1,.48-3.62.5.5,0,0,0-.83-.49,6,6,0,0,0-1,6.87c.7,1.61,2.06,2.66,2.86,4.16.71,1.35.3,2.4,1.86,2.93l-.3-.74c-.8,1.24-.11,1.66.28,2.75s.09,2.12,1.26,3.17l.1-.79c-2.3,1.14-1.43,3.56-1,5.57a12.57,12.57,0,0,1-.31,6.61c-.31.91-.72,1.78-.17,2.69,1.06,1.76,4.75,1.78,6.41,1.4.68-.16,1-.24,1.27-.83.41-.74-.44-3.31,0-3.65l-.68-.18.08.12.18-.68-.09.06c-.51.39,0,1.25.5.87l.09-.07a.5.5,0,0,0,.18-.68l-.08-.13a.51.51,0,0,0-.68-.18c-.55.4-.41.88-.43,1.51,0,1.42.57,2.47-1.21,2.89a6.78,6.78,0,0,1-3.1-.16c-2.36-.89-.64-4.7-.65-6.67,0-1.71-1.72-6.67.22-7.63a.5.5,0,0,0,.1-.78l-.72-2.46a.5.5,0,0,0-.23-.57l-.44-1.67a.51.51,0,0,0-.3-.74c-.81-.28-.89-1.78-1.26-2.46a23.31,23.31,0,0,0-1.72-2.21c-1.63-2.3-2.51-5.36-.29-7.61l-.84-.49a18.21,18.21,0,0,0-.52,3.89.5.5,0,0,0,.85.35,11.81,11.81,0,0,1,1.71-1.68l-.79-.61a6.61,6.61,0,0,0,.18,6,13.69,13.69,0,0,0,2.51,2.76c1,1,.92,1.32,1.18,2.9.15,1,2.17.19.35,2.55a.5.5,0,0,0,.18.69l.55,1.52a.5.5,0,0,0,.48.63c.71,0,1.81,2,2,2.65a7.2,7.2,0,0,1,0,2.85,9.36,9.36,0,0,1-1.68,4,.49.49,0,0,0,.17.68,8.25,8.25,0,0,0,3.76.72c.64,0,.65-1,0-1Z" transform="translate(-785.85 -486.55)"/><path class="cls-2" d="M867.34,535a8.39,8.39,0,0,0,3.76-.72.5.5,0,0,0,.18-.68,9.12,9.12,0,0,1-1.68-4c-.2-1.3-.32-5.6,2-5.5a.51.51,0,0,0,.48-.64l.56-1.51a.52.52,0,0,0,.18-.69c-2.66-3.44.17-1.51.34-2.48.23-1.32.19-2,1.19-3a13.77,13.77,0,0,0,2.51-2.77,6.62,6.62,0,0,0,.17-6l-.78.61a11.25,11.25,0,0,1,1.7,1.68.51.51,0,0,0,.86-.35,18.22,18.22,0,0,0-.53-3.89l-.83.49c2.22,2.25,1.33,5.31-.29,7.6a24.76,24.76,0,0,0-1.73,2.21c-.37.69-.44,2.19-1.26,2.47a.51.51,0,0,0-.3.73l-.44,1.68a.5.5,0,0,0-.23.56l-.71,2.46a.51.51,0,0,0,.1.79c2,1,.29,5.49.22,7.19-.08,2,1.67,6.24-.66,7.11a6.77,6.77,0,0,1-3.1.16c-1.67-.4-1.21-1.17-1.21-2.5,0-.73.21-1.44-.42-1.9a.52.52,0,0,0-.69.18l-.08.12a.52.52,0,0,0,.18.69l.09.06c.51.39,1-.48.5-.86l-.09-.07.18.69.09-.12-.69.17c.39.29-.28,2.91,0,3.6s.56.73,1.29.89c1.68.35,5.35.38,6.41-1.4.55-.92.15-1.76-.16-2.69a12.38,12.38,0,0,1-.32-6.61c.4-2,1.27-4.43-1-5.57l.1.78c1.15-1,.84-2,1.27-3.17s1.09-1.49.27-2.74l-.29.73c1.56-.53,1.14-1.57,1.86-2.92.79-1.5,2.15-2.55,2.85-4.17a6,6,0,0,0-1-6.86.5.5,0,0,0-.83.49,17.62,17.62,0,0,1,.49,3.62l.85-.36a11.81,11.81,0,0,0-1.71-1.68.5.5,0,0,0-.78.61c1.14,2.58.23,5-1.72,6.84a7.4,7.4,0,0,0-2.18,2.73c-.57,1.48-1.4,3.26-.32,4.67l.18-.69a2.16,2.16,0,0,0-1,2.65l.48-.63c-2.19-.09-2.86,2.32-3.06,4.14a9.94,9.94,0,0,0,1.88,6.88l.18-.68a7.27,7.27,0,0,1-3.25.58c-.64,0-.64,1,0,1Z" transform="translate(-785.85 -486.55)"/><path class="cls-1" d="M844.77,556.11c1,6.32,2.32,13.37,5.59,16,2.53,2,5.59.68,7.83-2.32s3.81-7.39,5.17-11.83a21.1,21.1,0,0,0,1.2-7,21.41,21.41,0,0,0-.9-4.69l-5.49-20.19a5.84,5.84,0,0,0-.87-2.12,1.7,1.7,0,0,0-1.31-.52l-2.69-.23a3.25,3.25,0,0,0-3,.86,9.68,9.68,0,0,0-1.48,3.11,105.3,105.3,0,0,0-4,16.08c-.75,4.4-1.2,9.49.15,13.36" transform="translate(-785.85 -486.55)"/><path class="cls-2" d="M844.29,556.24c.63,4.07,1.26,8.29,2.9,12.1.94,2.19,2.44,4.7,5,5.18,7.31,1.39,10.69-11.85,12-16.65,1.2-4.34.71-7.92-.46-12.19l-4-14.9c-.49-1.8-.68-4.65-2-6.09-.86-1-2.37-.83-3.53-.92-3.53-.29-4.73,1-5.88,4.25a98.93,98.93,0,0,0-4,16.08c-.74,4.5-1.23,9.22.16,13.64.19.61,1.16.35,1-.27-1.43-4.55-.8-9.43,0-14a104.93,104.93,0,0,1,3-12.6c.77-2.51,1.19-5.54,4.21-6.18,1.48-.31,4,.57,4.78,1.74.59.94.72,2.62,1,3.69l3.66,13.46c1.27,4.67,2.5,8.79,1.22,13.64-1.14,4.32-2.61,9.05-5.16,12.76-1.49,2.17-4.17,4.76-7,3.17-1.66-.94-2.64-3-3.31-4.68A52.87,52.87,0,0,1,845.25,556c-.1-.64-1.06-.37-1,.26Z" transform="translate(-785.85 -486.55)"/><g class="cls-3"><path class="cls-4" d="M860.83,564.63A49.63,49.63,0,0,1,854,552.38c-.58-.21-1.05.5-1.26,1.09l-1.88,5.21a21.16,21.16,0,0,0-1.71,7.55c0,2.59,1.26,5.33,3.6,6.46-1.41.29-2.55-1.09-3.33-2.3-1.27-2-2.59-4.17-2.31-6.51a9.59,9.59,0,0,1,1.31-3.42c2.15-4,4.62-8,4.68-12.53,0-.51,0-1.12.47-1.38a1,1,0,0,1,1.25.41,3.23,3.23,0,0,1,.38,1.38c.8,5.76,4.35,10.76,5.84,16.38" transform="translate(-785.85 -486.55)"/><path class="cls-4" d="M861.26,564.38a52.27,52.27,0,0,1-6.8-12.14.5.5,0,0,0-.48-.36c-1.64.18-1.87,1.82-2.37,3.19a60,60,0,0,0-2.65,8c-.79,3.78-.08,8,3.52,10l.25-.93c-2.35,0-4.48-4.22-5-6.16-.57-2.28.42-4.1,1.48-6.06,1.69-3.11,3.51-6.28,4.12-9.82.08-.47,0-2,.22-2.22,1.09-1,1.14.76,1.25,1.36a28.55,28.55,0,0,0,1.56,5.12c1.38,3.49,3.12,6.82,4.15,10.44a.5.5,0,0,0,1-.26c-1.55-5.47-4.78-10.34-5.77-16-.17-1-.39-2.69-1.8-2.65s-1.3,1.78-1.39,2.81c-.3,3.31-1.79,6.32-3.34,9.2-1,1.84-2.39,3.78-2.61,5.91-.34,3.16,2.45,9.39,6.14,9.31a.5.5,0,0,0,.25-.93c-6.11-3.47-2.33-11.57-.56-16.49a4.2,4.2,0,0,1,.94-1.87c.78-.71.48-.49.85.36.52,1.21,1.09,2.41,1.7,3.58a52.71,52.71,0,0,0,4.48,7c.38.51,1.25,0,.87-.5Z" transform="translate(-785.85 -486.55)"/></g><path class="cls-2" d="M844.29,556.24c.63,4.07,1.26,8.29,2.9,12.1.94,2.19,2.44,4.7,5,5.18,7.31,1.39,10.69-11.85,12-16.65,1.2-4.34.71-7.92-.46-12.19l-4-14.9c-.49-1.8-.68-4.65-2-6.09-.86-1-2.37-.83-3.53-.92-3.53-.29-4.73,1-5.88,4.25a98.93,98.93,0,0,0-4,16.08c-.74,4.5-1.23,9.22.16,13.64.19.61,1.16.35,1-.27-1.43-4.55-.8-9.43,0-14a104.93,104.93,0,0,1,3-12.6c.77-2.51,1.19-5.54,4.21-6.18,1.48-.31,4,.57,4.78,1.74.59.94.72,2.62,1,3.69l3.66,13.46c1.27,4.67,2.5,8.79,1.22,13.64-1.14,4.32-2.61,9.05-5.16,12.76-1.49,2.17-4.17,4.76-7,3.17-1.66-.94-2.64-3-3.31-4.68A52.87,52.87,0,0,1,845.25,556c-.1-.64-1.06-.37-1,.26Z" transform="translate(-785.85 -486.55)"/><g class="cls-3"><path class="cls-4" d="M851.71,528.8a4.42,4.42,0,0,0-2.85,5.45,5.09,5.09,0,0,0,5.41,3.29,10.52,10.52,0,0,0,2.76-.91c1.61-.7,3.36-1.58,4-3.22a4,4,0,0,0-1-4,5.67,5.67,0,0,0-4-1.53,10.56,10.56,0,0,0-4.26,1" transform="translate(-785.85 -486.55)"/><path class="cls-4" d="M851.58,528.32a5,5,0,0,0-3,6.7c1.49,3.11,5,3.5,7.92,2.36s6.36-3.32,4.77-7c-1.7-3.87-6.52-3.37-9.72-2.07-.59.24-.33,1.21.27,1,2.41-1,5.69-1.75,7.78.39,2.59,2.67-.16,5.26-2.57,6.35-2,.91-4.15,1.54-6.12.17a3.92,3.92,0,0,1,.88-7c.6-.22.34-1.18-.26-1Z" transform="translate(-785.85 -486.55)"/></g><path class="cls-5" d="M833.41,542.87a56.79,56.79,0,0,0-31.94-16.39,27.07,27.07,0,0,0-12,.44,4.33,4.33,0,0,0-3,2.21c-.52,1.41.36,2.93,1.23,4.15,6.56,9.19,15.5,17.21,26.42,20.1a11.52,11.52,0,0,1,2.28.76c2.49,1.27,3.4,4.35,5.3,6.4a8.26,8.26,0,0,0,7.71,2.38,31.52,31.52,0,0,1,5.25-18.71" transform="translate(-785.85 -486.55)"/><path class="cls-2" d="M833.76,542.51a58,58,0,0,0-19.28-12.94c-7.29-3-16.44-5.4-24.26-3.38-2.23.57-4.76,1.78-4.32,4.51.49,3,4,6.32,5.89,8.52a48.6,48.6,0,0,0,18.12,13.29c2.26.9,5.42,1.19,7.28,2.76,1.6,1.34,2.38,3.44,3.68,5a9,9,0,0,0,8.69,3.1.52.52,0,0,0,.37-.49,31.9,31.9,0,0,1,5.19-18.46c.35-.54-.52-1-.87-.5a32.81,32.81,0,0,0-4.57,10.73,31.81,31.81,0,0,0-.73,5.23c-.06,1,.35,2.33-.91,2.69-1.1.31-2.87-.34-3.82-.83-3.3-1.69-4-5.6-6.85-7.64a12.35,12.35,0,0,0-3.86-1.45,37.47,37.47,0,0,1-6.06-2.36c-7.15-3.54-13.11-9.15-17.93-15.45a14.92,14.92,0,0,1-1.8-2.48c-.51-1.11-.41-.36-.28-2.31.11-1.77.07-1.84,1.6-2.47a19,19,0,0,1,7.77-1.08,47.82,47.82,0,0,1,12.43,2.22,56.83,56.83,0,0,1,23.81,14.46c.45.46,1.16-.25.71-.71Z" transform="translate(-785.85 -486.55)"/><path class="cls-5" d="M874.46,544.25a56.77,56.77,0,0,1,31.94-16.38,27.07,27.07,0,0,1,12,.44,4.3,4.3,0,0,1,3,2.21c.52,1.41-.36,2.92-1.23,4.15-6.56,9.19-15.5,17.21-26.42,20.1a12.17,12.17,0,0,0-2.28.75c-2.49,1.28-3.4,4.36-5.3,6.41a8.26,8.26,0,0,1-7.71,2.38,31.52,31.52,0,0,0-5.25-18.71" transform="translate(-785.85 -486.55)"/><path class="cls-2" d="M874.82,544.61a56.82,56.82,0,0,1,20.73-13.43,55.54,55.54,0,0,1,11-2.83,33.3,33.3,0,0,1,7.33-.37,17.85,17.85,0,0,1,4,.69,4.58,4.58,0,0,1,2,.87,4.45,4.45,0,0,1,.49,3.91c-.73,1.77-2.48,3.49-3.68,4.94s-2.61,3-4,4.39a49.38,49.38,0,0,1-9.48,7.44c-3.57,2.12-7.29,3.07-11.12,4.51-2.77,1-3.82,3.6-5.45,5.85a8.54,8.54,0,0,1-3,2.59c-1,.51-3.25,1.32-4.25.55s-.63-4.48-.88-6a32.7,32.7,0,0,0-4.9-12.42c-.35-.53-1.22,0-.87.51a31.88,31.88,0,0,1,5.19,18.46.5.5,0,0,0,.37.48,9,9,0,0,0,7.69-2,18.34,18.34,0,0,0,2.82-3.78c1.62-2.5,3.42-3.23,6.18-4.06,7.26-2.18,13.64-6.63,18.91-12a49.33,49.33,0,0,0,7.1-8.64c1.35-2.24,1.42-4.6-1.13-5.93-3.52-1.84-8.29-1.63-12.09-1.18a54.78,54.78,0,0,0-11.36,2.63,58.05,58.05,0,0,0-22.32,14.09.5.5,0,0,0,.71.71Z" transform="translate(-785.85 -486.55)"/><path class="cls-6" d="M839.42,534.84a14.56,14.56,0,0,0-2.33,7.65,4.1,4.1,0,0,0,.19,1.52c.63,1.65,2.75,2,4.52,2.14a142.82,142.82,0,0,0,22.84-.52c1.37-.14,2.94-.43,3.63-1.62a4.52,4.52,0,0,0,.3-2.78,18.79,18.79,0,0,0-.86-4.54,6.33,6.33,0,0,0-2.86-3.53,9.45,9.45,0,0,0-4.76-.63l-14.24.55c-2.15.09-4.55.28-6,1.87l1.09.06" transform="translate(-785.85 -486.55)"/><path class="cls-2" d="M839,534.59c-1.48,2.43-3.34,6.64-2.19,9.55.91,2.35,3.83,2.45,6,2.56a139,139,0,0,0,14.29,0q3.33-.16,6.65-.49c1.4-.14,3-.19,4.15-1.06,2.19-1.62,1.26-5.49.63-7.72-.85-3-2.76-5.07-5.93-5.4-4.48-.47-9.35.26-13.84.43-3.16.13-6.73-.17-9.21,2.13a.5.5,0,0,0,.35.85l1.09.06c.64,0,.64-1,0-1l-1.09-.06.35.85c2.23-2.06,5.68-1.72,8.51-1.83l9-.35c3.53-.14,7.3-.65,9.2,3.06a13.25,13.25,0,0,1,1.15,5.05c.17,2.56-.92,3.57-3.43,3.9a119.58,119.58,0,0,1-17.13.73c-2.43,0-6.53.52-8.62-.93-2.91-2-.47-7.48,1-9.84a.5.5,0,0,0-.86-.5Z" transform="translate(-785.85 -486.55)"/><path class="cls-1" d="M846.48,515.21a9.06,9.06,0,0,1-9.58-3c-3.51-4.3-2.2-7.11-.15-10l-2.45.65a1,1,0,0,1-.69,0,.78.78,0,0,1-.33-.48c-.49-1.51.3-3.12,1.07-4.51l4.14-7.54a2.49,2.49,0,0,1-3.81-3.17A49.16,49.16,0,0,0,830,499.36a19.33,19.33,0,0,0,1.43,12.81c2,3.73,5.21,6.7,6.07,11,.11-1.7.22-2.45,1-3.32a6.85,6.85,0,0,1,2.45-1.79l5.51-2.78" transform="translate(-785.85 -486.55)"/><path class="cls-2" d="M846.34,514.73a8.82,8.82,0,0,1-9.81-3.88c-2-3-1.26-5.64.65-8.43a.51.51,0,0,0-.57-.74c-1.6.43-3.35,1.69-2.79-1.51a12.73,12.73,0,0,1,1.65-3.35l3.45-6.28c.23-.4-.25-1-.68-.68q-2.24,1.88-3.13-2.49c.27-.57-.58-1.08-.87-.5-3,6-5.86,12.56-5.06,19.46a18.4,18.4,0,0,0,3,8c1.89,2.9,4.05,5.5,4.87,9,.14.57.94.4,1-.14a5.06,5.06,0,0,1,3.17-4.68c1.82-1,3.68-1.85,5.51-2.78.58-.29.07-1.15-.5-.86-2.33,1.17-5.13,2.15-7.18,3.79-1.54,1.23-1.86,2.64-2,4.53l1-.13c-1.35-5.68-6.38-9.46-7.58-15.21-1.49-7.17,1.57-14.16,4.69-20.45l-.87-.5c-1.44,3,1.68,5.91,4.51,3.85l-.69-.68-3.69,6.7a11.3,11.3,0,0,0-1.7,4.07c-.32,3.35,1.93,2.44,4.21,1.84l-.57-.74c-2.35,3.46-2.78,6.69-.12,10.17a9.72,9.72,0,0,0,10.42,3.61.5.5,0,0,0-.27-1Z" transform="translate(-785.85 -486.55)"/><path class="cls-1" d="M858.71,515.38a9.06,9.06,0,0,0,9.51-3.21c3.43-4.36,2.07-7.14,0-10l2.46.6a.91.91,0,0,0,.69,0,.76.76,0,0,0,.31-.48c.47-1.52-.35-3.11-1.15-4.49l-4.29-7.46a2.49,2.49,0,0,0,3.75-3.24,49.55,49.55,0,0,1,4.91,12.15A19.36,19.36,0,0,1,873.69,512c-1.92,3.77-5.08,6.81-5.86,11.11-.15-1.7-.27-2.45-1-3.31a7,7,0,0,0-2.48-1.74l-5.57-2.67" transform="translate(-785.85 -486.55)"/><path class="cls-2" d="M858.58,515.86a9.73,9.73,0,0,0,10.35-3.81c2.59-3.52,2.11-6.76-.31-10.16l-.57.73c2.29.56,4.57,1.47,4.19-1.91a11.46,11.46,0,0,0-1.78-4c-1.27-2.22-2.55-4.42-3.82-6.63l-.68.68a3,3,0,0,0,4.44-3.92l-.87.5c3.24,6.22,6.44,13.15,5.09,20.35-1.08,5.77-6,9.65-7.27,15.36l1,.13c-.18-1.89-.51-3.29-2.08-4.5-2.08-1.6-4.9-2.52-7.25-3.65-.58-.28-1.08.59-.5.86,1.85.89,3.73,1.75,5.56,2.68a5.11,5.11,0,0,1,3.27,4.61c0,.52.85.73,1,.13.75-3.46,2.87-6.11,4.7-9a18.42,18.42,0,0,0,2.82-8.06c.67-6.92-2.32-13.39-5.43-19.36-.3-.58-1.15-.07-.87.5-.25,3-1.28,3.82-3.07,2.56-.42-.3-.92.27-.68.68l3.57,6.22a12.59,12.59,0,0,1,1.72,3.31c.63,3.21-1.13,2-2.75,1.58-.39-.1-.83.36-.57.73,2,2.75,2.79,5.33.83,8.42a8.82,8.82,0,0,1-9.73,4.08.5.5,0,0,0-.27,1Z" transform="translate(-785.85 -486.55)"/><path class="cls-1" d="M845.11,515.3c-.07-2.31-1.61-4.44-1.43-6.74,0-.47.24-1,.71-1.1a.9.9,0,0,1,.55.13,3.08,3.08,0,0,1,1.12,1.71c.14.41.28.91,0,1.25-.12.14-.29.23-.39.37a1.08,1.08,0,0,0,0,.93l1,3.44a3.67,3.67,0,0,1-1.8-.16" transform="translate(-785.85 -486.55)"/><path class="cls-2" d="M845.61,515.3a14.82,14.82,0,0,0-.83-3.51,13.46,13.46,0,0,1-.53-1.91,4.25,4.25,0,0,1,0-1.55c.32-.44.58-.41.76.07.8.55.54,1.5.32,2.17a3.26,3.26,0,0,0-.25.8c-.07,1.22.77,2.88,1.11,4l.49-.63a4.21,4.21,0,0,1-1.66-.14.5.5,0,0,0-.27,1,4.85,4.85,0,0,0,1.93.18.51.51,0,0,0,.48-.63c-.27-.94-1.17-2.79-1-3.76.13-.64.57-.9.5-1.67-.08-1-.86-2.56-1.94-2.74-3.35-.56-.21,7.2-.13,8.31,0,.64,1,.65,1,0Z" transform="translate(-785.85 -486.55)"/><path class="cls-1" d="M860.26,515.3c.07-2.31,1.61-4.44,1.43-6.74,0-.47-.24-1-.71-1.1a.9.9,0,0,0-.55.13,3.08,3.08,0,0,0-1.12,1.71c-.14.41-.28.91,0,1.25.11.14.29.23.39.37a1.08,1.08,0,0,1,0,.93l-1,3.44a3.68,3.68,0,0,0,1.8-.16" transform="translate(-785.85 -486.55)"/><path class="cls-2" d="M860.76,515.3c.08-1.11,3.21-8.9-.13-8.31-1.09.19-1.85,1.75-1.94,2.74-.07.68.28.83.47,1.36.37,1-.64,3.06-.93,4.07a.51.51,0,0,0,.48.63,4.84,4.84,0,0,0,1.93-.18.5.5,0,0,0-.27-1,4.21,4.21,0,0,1-1.66.14l.48.63c.35-1.17,1.19-2.83,1.12-4a2.89,2.89,0,0,0-.26-.8c-.21-.67-.48-1.62.32-2.17.19-.48.45-.51.77-.07a4.25,4.25,0,0,1,0,1.55,13.46,13.46,0,0,1-.53,1.91,14.82,14.82,0,0,0-.83,3.51c0,.65,1,.64,1,0Z" transform="translate(-785.85 -486.55)"/><path class="cls-6" d="M859.3,515.47c-5.58-.6-11.74-1.27-16.68,1.39a21.72,21.72,0,0,0-3.22,2.23,7.41,7.41,0,0,0-1.71,1.78c-.91,1.48-.77,3.36-.53,5.09a62.17,62.17,0,0,0,2,9,2.6,2.6,0,0,0,1,1.6,2.64,2.64,0,0,0,2.33-.27l4.7-2.15a10.09,10.09,0,0,0,2-1.11c.44-.34.81-.75,1.24-1.09a5.68,5.68,0,0,1,7.31.4c.42.42.78.92,1.24,1.3a6.27,6.27,0,0,0,2.23,1,29.2,29.2,0,0,0,4.89,1.06.9.9,0,0,0,.77-.13.92.92,0,0,0,.19-.56l.67-6.25c.28-2.6.54-5.38-.64-7.73-1.46-2.93-4.74-4.4-7.77-5.66" transform="translate(-785.85 -486.55)"/><path class="cls-2" d="M859.3,515c-6.93-.75-13.84-1.22-19.64,3.28-2.76,2.14-3.45,4.28-3,7.71.25,1.88.62,3.75,1.05,5.6.36,1.51.55,3.62,1.53,4.88,1.6,2.07,4.92-.33,6.6-1.1a19.68,19.68,0,0,0,4.31-2.45c2.18-1.74,5-2.17,7.22-.15a8.75,8.75,0,0,0,2.9,2.22,16.94,16.94,0,0,0,5.68,1.33c2.32,0,1.78-3,2-4.75.4-3.66,1.31-7.93-.76-11.27-1.7-2.74-4.87-4.09-7.73-5.28-.59-.25-.85.72-.26,1,3.58,1.49,7.34,3.32,8.13,7.52a20,20,0,0,1-.14,5.83c-.15,1.41.12,5.52-1.77,5.89-1.37.27-4.35-.83-5.49-1.49-1.38-.79-2.07-2.19-3.57-2.85a6.26,6.26,0,0,0-5.9.51,30,30,0,0,1-4.31,2.75c-1.93.88-4.83,3.2-6.48.76-.93-1.37-1.14-4.29-1.45-5.85-.4-2.06-1.09-4.57-.57-6.67,1-4.15,7.36-6.35,11.08-6.78a48.22,48.22,0,0,1,10.6.39c.64.07.64-.93,0-1Z" transform="translate(-785.85 -486.55)"/><path class="cls-6" d="M851.69,543.58a77.79,77.79,0,0,0-11.94-3.42,6.77,6.77,0,0,0-2-.19,5.78,5.78,0,0,0-3.8,2.64c-2.3,3.13-3.36,7-4.22,10.79-.58,2.56-1.08,5.13-1.45,7.73a19.8,19.8,0,0,0,0,7.44,14.55,14.55,0,0,0,2.33,4.9,16.56,16.56,0,0,0,6.25,5.44,2.51,2.51,0,0,0,1.41.33c.8-.12,1.31-.9,1.71-1.61a172.77,172.77,0,0,0,11.16-24.12c1.22-3.29,3.07-7.79.48-9.93" transform="translate(-785.85 -486.55)"/><path class="cls-2" d="M851.82,543.09c-4.07-1.49-8.56-3.14-12.91-3.58-2.64-.27-4.44,1.45-5.81,3.53-2,3.06-3,6.69-3.8,10.23a53.62,53.62,0,0,0-1.81,12.06,14.77,14.77,0,0,0,3.25,9c1.49,2,4.22,4.89,6.81,5.29,2.75.43,3.92-3.55,4.9-5.42q3-5.67,5.58-11.56c1.67-3.83,3.32-7.71,4.62-11.69.85-2.6,1.56-5.65-.61-7.78-.46-.45-1.17.26-.71.71,2.67,2.63.17,7.41-.93,10.31q-2.08,5.5-4.55,10.87t-5.12,10.25a12,12,0,0,1-1.27,2.28c-1.31,1.43-3,.53-4.25-.31a16.89,16.89,0,0,1-4.1-4.12c-2.4-3.4-2.89-7.09-2.4-11.15a73,73,0,0,1,2.59-12.58,23.71,23.71,0,0,1,2.22-5.24c1.5-2.47,3-4,6.09-3.6a56.38,56.38,0,0,1,11.94,3.42c.61.22.87-.75.27-1Z" transform="translate(-785.85 -486.55)"/><path class="cls-2" d="M828.92,560.68a21.81,21.81,0,0,0,3.59-3q2.06-1.92,4-3.94a.25.25,0,0,0-.36-.35c-1.17,1.21-2.37,2.4-3.61,3.55a22.78,22.78,0,0,1-3.9,3.31.25.25,0,0,0,.26.43Z" transform="translate(-785.85 -486.55)"/><path class="cls-2" d="M828.94,568.56a40.88,40.88,0,0,0,12.93-15.15c.15-.28-.28-.54-.43-.25a40.42,40.42,0,0,1-12.75,15c-.26.19,0,.62.25.44Z" transform="translate(-785.85 -486.55)"/><path class="cls-2" d="M833.74,576.12A139.4,139.4,0,0,0,847,551.25c.12-.3-.36-.43-.48-.14a139.5,139.5,0,0,1-13.16,24.76c-.18.27.25.52.43.25Z" transform="translate(-785.85 -486.55)"/><path class="cls-6" d="M855.88,543.06a79.43,79.43,0,0,1,11.94-3.42,6.36,6.36,0,0,1,1.94-.18,5.74,5.74,0,0,1,3.8,2.63c2.31,3.14,3.37,7,4.22,10.8.58,2.56,1.09,5.13,1.45,7.73a19.8,19.8,0,0,1,0,7.44,14.51,14.51,0,0,1-2.33,4.89,16.6,16.6,0,0,1-6.24,5.44,2.49,2.49,0,0,1-1.42.34c-.8-.12-1.31-.91-1.71-1.62A173.27,173.27,0,0,1,856.35,553c-1.22-3.29-3.07-7.8-.47-9.94" transform="translate(-785.85 -486.55)"/><path class="cls-2" d="M856,543.55c3.75-1.38,7.94-3,11.94-3.42,3-.32,4.62,1.12,6.09,3.6a23.84,23.84,0,0,1,2.22,5.23,75.36,75.36,0,0,1,2.47,11.7c.61,4.37.33,8.35-2.28,12a16.89,16.89,0,0,1-4.1,4.12c-1,.71-2.87,1.31-4.08.58-.52-.32-.9-1.58-1.21-2.15-1.91-3.48-3.69-7-5.35-10.65s-3.16-7.2-4.55-10.88c-1.1-2.9-3.6-7.67-.93-10.3.46-.45-.25-1.16-.71-.71-1.78,1.75-1.61,4.12-1,6.4A81.4,81.4,0,0,0,858.58,560q2.34,5.55,5,10.94,1.35,2.65,2.78,5.27c.51.93,1.05,2.33,2.07,2.82,2.16,1,5.11-1.7,6.53-3.07a16.37,16.37,0,0,0,4.78-8.18c.78-3.79-.09-7.87-.82-11.61a48.13,48.13,0,0,0-3.11-11.06c-1.14-2.47-3.05-5.81-6.1-6.1-2-.2-4.32.67-6.27,1.17-2.62.69-5.2,1.52-7.74,2.45-.6.22-.35,1.19.26,1Z" transform="translate(-785.85 -486.55)"/><path class="cls-2" d="M878.9,559.73a23.11,23.11,0,0,1-3.9-3.3c-1.24-1.16-2.43-2.34-3.61-3.55-.22-.24-.58.12-.35.35q2,2,4,3.93a20.57,20.57,0,0,0,3.59,3,.25.25,0,0,0,.25-.43Z" transform="translate(-785.85 -486.55)"/><path class="cls-2" d="M878.88,567.61a40.45,40.45,0,0,1-12.76-15c-.14-.29-.58,0-.43.25A40.94,40.94,0,0,0,878.62,568c.27.19.52-.24.26-.43Z" transform="translate(-785.85 -486.55)"/><path class="cls-2" d="M874.26,575.36a139.24,139.24,0,0,1-13.17-24.76c-.12-.3-.6-.17-.48.13a140.13,140.13,0,0,0,13.21,24.88c.18.26.62,0,.44-.25Z" transform="translate(-785.85 -486.55)"/><path class="cls-1" d="M878,571.9a9.21,9.21,0,0,1,.81,5.38,5,5,0,0,1-3.45,4,5.75,5.75,0,0,0,2.22-3.71A4.6,4.6,0,0,1,876,579a2,2,0,0,1-2.07,0,6.16,6.16,0,0,0,2.46-2.26,4.2,4.2,0,0,0,.44-3.26" transform="translate(-785.85 -486.55)"/><path class="cls-2" d="M877.47,572c1.23,3,1.57,7.48-2.29,8.72l.49.83a6.58,6.58,0,0,0,2.34-3.93.5.5,0,0,0-.91-.39c-.67.91-1.67,1.91-2.91,1.34v.86c2.25-1.3,3.71-3.43,3.12-6.08-.14-.63-1.1-.36-1,.27.49,2.23-.84,3.89-2.67,5a.5.5,0,0,0,0,.86c1.83.84,3.2-.22,4.28-1.69l-.91-.39a5.87,5.87,0,0,1-2.09,3.49c-.39.33,0,1,.49.84,4.36-1.4,4.45-6.35,3-9.94-.24-.59-1.21-.33-1,.26Z" transform="translate(-785.85 -486.55)"/><g class="cls-3"><path class="cls-4" d="M834.21,488.08c-.53,2,.77,2.07,1.49,2.9a20.53,20.53,0,0,0-3.92,9.35,18.93,18.93,0,0,0,2.28,11.88c1.6,2.81,4.31,5.35,7.54,5.35A18.78,18.78,0,0,0,837,520.9c-2.36-4.7-6.07-8.85-7.1-14-1.21-6.09,1.56-12.19,4.26-17.78" transform="translate(-785.85 -486.55)"/><path class="cls-4" d="M833.73,487.94a2.86,2.86,0,0,0,.41,2.37c0,.06.69.54.7.58.22.7-1.07,2.12-1.39,2.73A20,20,0,0,0,831.14,504c.36,5.89,3.72,13.64,10.46,14l-.25-.93a21.75,21.75,0,0,0-4.72,3.41l.78.1c-2.3-4.44-5.89-8.51-7-13.5-1.34-6.24,1.49-12.29,4.12-17.78.28-.58-.58-1.09-.86-.5-2.56,5.31-5.32,11.16-4.46,17.22.79,5.67,4.74,10.14,7.3,15.07a.5.5,0,0,0,.78.1,20.91,20.91,0,0,1,4.52-3.25.51.51,0,0,0-.25-.94c-5.46-.33-8.45-6.37-9.25-11.14a19.64,19.64,0,0,1,3.78-14.69.49.49,0,0,0-.08-.6c-.69-.68-1.6-1.05-1.36-2.42.11-.63-.85-.9-1-.27Z" transform="translate(-785.85 -486.55)"/></g><g class="cls-3"><path class="cls-4" d="M867.3,491.08c2.62,1.6,1.85-.41,2.33-1.33-.21,2.12,1,4.09,2.06,5.95s2,4.06,1.28,6.06c-.41,1.16-1.33,2.06-1.78,3.2a17.74,17.74,0,0,0-.6,3.42c-.7,3.83-4.12,7-3.84,10.89a30,30,0,0,0-5.37-3.06A9.16,9.16,0,0,0,869,502.37a2.44,2.44,0,0,0,2.62.3c1-.72.63-2.3.1-3.43a40,40,0,0,0-4.95-7.88c.47-.47,1.85-.37,2.49-.56" transform="translate(-785.85 -486.55)"/><path class="cls-4" d="M867.05,491.51c.65.36,1.63,1,2.37.45s.47-1.46.69-2.08l-1-.13c0,2.37,1,4.17,2.12,6.2s1.92,4,1,6.23c-.45,1.08-1.31,1.92-1.65,3.06-.41,1.33-.34,2.74-.75,4.07a25.71,25.71,0,0,1-1.8,3.92,12.6,12.6,0,0,0-1.79,6l.75-.43a33.51,33.51,0,0,0-5.37-3.06l-.25.93a9.8,9.8,0,0,0,8-14.6l-.68.69c1.86,1,4.08.7,4-1.83-.06-1.72-1.34-3.56-2.17-5a43.64,43.64,0,0,0-3.44-5l-.1.78a7.55,7.55,0,0,1,2.37-.51c.64-.11.37-1.08-.26-1a7.39,7.39,0,0,0-2.61.61.51.51,0,0,0-.11.79,41.33,41.33,0,0,1,3.29,4.78c.43.73.84,1.47,1.21,2.23l.57,1.24c.59,1.2-.16,1.85-2.23,2a.51.51,0,0,0-.68.69,8.8,8.8,0,0,1-7.14,13.09c-.45,0-.75.71-.25.93a34.75,34.75,0,0,1,5.37,3.06.5.5,0,0,0,.75-.43c0-2.95,1.65-5.28,2.84-7.86s1-5.42,2.43-7.79c3.3-5.31-2.49-8.63-2.39-13.87a.51.51,0,0,0-1-.14c-.34.95.13,2-1.59,1-.56-.31-1.07.55-.5.86Z" transform="translate(-785.85 -486.55)"/></g><path class="cls-2" d="M846.34,514.73a8.82,8.82,0,0,1-9.81-3.88c-2-3-1.26-5.64.65-8.43a.51.51,0,0,0-.57-.74c-1.6.43-3.35,1.69-2.79-1.51a12.73,12.73,0,0,1,1.65-3.35l3.45-6.28c.23-.4-.25-1-.68-.68q-2.24,1.88-3.13-2.49c.27-.57-.58-1.08-.87-.5-3,6-5.86,12.56-5.06,19.46a18.4,18.4,0,0,0,3,8c1.89,2.9,4.05,5.5,4.87,9,.14.57.94.4,1-.14a5.06,5.06,0,0,1,3.17-4.68c1.82-1,3.68-1.85,5.51-2.78.58-.29.07-1.15-.5-.86-2.33,1.17-5.13,2.15-7.18,3.79-1.54,1.23-1.86,2.64-2,4.53l1-.13c-1.35-5.68-6.38-9.46-7.58-15.21-1.49-7.17,1.57-14.16,4.69-20.45l-.87-.5c-1.44,3,1.68,5.91,4.51,3.85l-.69-.68-3.69,6.7a11.3,11.3,0,0,0-1.7,4.07c-.32,3.35,1.93,2.44,4.21,1.84l-.57-.74c-2.35,3.46-2.78,6.69-.12,10.17a9.72,9.72,0,0,0,10.42,3.61.5.5,0,0,0-.27-1Z" transform="translate(-785.85 -486.55)"/><path class="cls-2" d="M858.58,515.86a9.73,9.73,0,0,0,10.35-3.81c2.59-3.52,2.11-6.76-.31-10.16l-.57.73c2.29.56,4.57,1.47,4.19-1.91a11.46,11.46,0,0,0-1.78-4c-1.27-2.22-2.55-4.42-3.82-6.63l-.68.68a3,3,0,0,0,4.44-3.92l-.87.5c3.24,6.22,6.44,13.15,5.09,20.35-1.08,5.77-6,9.65-7.27,15.36l1,.13c-.18-1.89-.51-3.29-2.08-4.5-2.08-1.6-4.9-2.52-7.25-3.65-.58-.28-1.08.59-.5.86,1.85.89,3.73,1.75,5.56,2.68a5.11,5.11,0,0,1,3.27,4.61c0,.52.85.73,1,.13.75-3.46,2.87-6.11,4.7-9a18.42,18.42,0,0,0,2.82-8.06c.67-6.92-2.32-13.39-5.43-19.36-.3-.58-1.15-.07-.87.5-.25,3-1.28,3.82-3.07,2.56-.42-.3-.92.27-.68.68l3.57,6.22a12.59,12.59,0,0,1,1.72,3.31c.63,3.21-1.13,2-2.75,1.58-.39-.1-.83.36-.57.73,2,2.75,2.79,5.33.83,8.42a8.82,8.82,0,0,1-9.73,4.08.5.5,0,0,0-.27,1Z" transform="translate(-785.85 -486.55)"/><g class="cls-7"><path class="cls-8" d="M846,515.88A12.42,12.42,0,0,0,844.57,528a5.44,5.44,0,0,0,2,2.63c1.38.83,3.12.61,4.71.36a29,29,0,0,1-9.66,4.9,2.35,2.35,0,0,1-1.84,0,2.47,2.47,0,0,1-.89-1.76l-1.3-6.79a10.19,10.19,0,0,1-.16-4.78,7.87,7.87,0,0,1,3.74-4.26c1.66-1,3.49-1.68,5.13-2.71" transform="translate(-785.85 -486.55)"/><path class="cls-8" d="M845.59,515.63a13.08,13.08,0,0,0-1.88,11.4c1.24,4,3.81,5,7.73,4.39l-.38-.91a29.92,29.92,0,0,1-7.16,4c-1.81.7-3.53,1.48-4.59-1.1a24.35,24.35,0,0,1-.84-4.36c-.61-3.18-1.45-6.35,1-8.94,1.9-2,4.76-2.83,7.06-4.19a.5.5,0,0,0-.51-.87c-2.88,1.72-6.65,2.78-8.46,5.85s-.42,6.75.18,9.87c.43,2.24.29,5.92,3.37,5.66,3.58-.31,7.66-3,10.4-5.1a.5.5,0,0,0-.38-.91c-2.29.33-4.34.22-5.72-1.85a10.08,10.08,0,0,1-1.3-4.64,12.23,12.23,0,0,1,2.3-7.84c.37-.53-.5-1-.87-.5Z" transform="translate(-785.85 -486.55)"/></g><g class="cls-7"><path class="cls-8" d="M839.51,535.74A10.77,10.77,0,0,0,837.8,540a11.23,11.23,0,0,0,2.69.34c1.14-.07,1.57-.87,2.31-1.74a11,11,0,0,1,3-2.26c2.36-1.36,4.89-2.76,7.62-2.62,2.5.13,4.72,1.54,7,2.5s5.2,1.4,7.14-.19a1.28,1.28,0,0,1-.56-.69,9.53,9.53,0,0,1-7.54-1.37A6.38,6.38,0,0,0,858,533a4.79,4.79,0,0,0-1.81-.14l-4.5.21a11.54,11.54,0,0,0-4,.68c-1,.41-1.78,1.07-2.69,1.57a8.8,8.8,0,0,1-4.82,1.06c-.22,0-.49-.09-.51-.3s.44-.15.29,0" transform="translate(-785.85 -486.55)"/><path class="cls-8" d="M839.07,535.49A10.45,10.45,0,0,0,837.3,540a.51.51,0,0,0,.37.48c1.38.33,3,.71,4.27-.18s2.09-2.27,3.49-3.14a22.52,22.52,0,0,1,5-2.49c4.08-1.28,7,1,10.65,2.3,2.32.8,4.74.92,6.82-.5a.51.51,0,0,0,.1-.79l-.47-.59a.54.54,0,0,0-.57-.23c-3.1.62-5.26-.32-7.9-1.83-1.69-1-3.66-.57-5.54-.48s-4.08,0-5.94.78a22.65,22.65,0,0,0-2.48,1.42c-.47.26-5.54,2-5.62,1.39.07.63,1.07.64,1,0l0-.11a.51.51,0,0,0-.5-.5.66.66,0,0,0-.7.36.5.5,0,0,0,.07.6c1,1.22,3.94.21,5.07-.26s1.88-1.13,2.87-1.64c1.82-.94,3.8-.93,5.8-1,1.76-.09,3.88-.46,5.49.33a30.11,30.11,0,0,0,3,1.62,10.18,10.18,0,0,0,3.23.58c1,0,1.77-.39,2.54.29l.1-.79c-3.51,2.41-7.22-.29-10.58-1.58a9.81,9.81,0,0,0-7.47,0,19.24,19.24,0,0,0-6.88,4.23c-.82.89-.88,1.5-2.51,1.6a5.82,5.82,0,0,1-1.87-.29c0,.05.79-1.45.83-1.54a13.39,13.39,0,0,1,1.05-2c.35-.55-.52-1-.87-.51Z" transform="translate(-785.85 -486.55)"/></g><g class="cls-7"><path class="cls-8" d="M841.53,540.81a6.19,6.19,0,0,0-6.4.82,10.37,10.37,0,0,0-2.51,3.56c-2.72,5.66-3.73,12-4.29,18.25a16,16,0,0,0,0,3.85,12.75,12.75,0,0,0,1.24,3.69A16.47,16.47,0,0,0,836,578.2a4,4,0,0,0,2.51.65A1.72,1.72,0,0,0,840,577a8.46,8.46,0,0,1-4.1-1.44,6.42,6.42,0,0,1-1.6-2.18,24.4,24.4,0,0,1-2-8.67,40.84,40.84,0,0,1,.13-11.79,16.56,16.56,0,0,1,5.69-10.08,24.19,24.19,0,0,1,3.47-2.15" transform="translate(-785.85 -486.55)"/><path class="cls-8" d="M841.66,540.32c-10.95-4.21-13.11,15.62-13.75,22.23A16,16,0,0,0,832.42,576c1.61,1.68,7.8,6,8.12,1a.49.49,0,0,0-.37-.48c-1.85-.32-3.53-.7-4.72-2.29a12.87,12.87,0,0,1-2-5.21,51.63,51.63,0,0,1-.95-10.68,22.84,22.84,0,0,1,2.19-10.4c1.63-3.18,4.14-5.13,7.21-6.82.57-.31.06-1.17-.5-.86-6.06,3.32-9.18,8.45-9.79,15.36a52.14,52.14,0,0,0,.57,11.9c.41,2.82,1.13,6.51,3.48,8.43,1.12.92,2.33.82,3.54,1.41a2.93,2.93,0,0,1-3.55,0,8.1,8.1,0,0,1-1.16-.86,14.74,14.74,0,0,1-2.11-2.07c-3.1-3.73-3.89-7.6-3.41-12.35.62-6,2.67-24.57,12.45-20.81.6.23.86-.74.26-1Z" transform="translate(-785.85 -486.55)"/></g><g class="cls-7"><path class="cls-8" d="M861.16,541.44a13,13,0,0,0-4.62,1.92,4.37,4.37,0,0,0-1.61,1.67c-.6,1.26-.11,2.74.38,4.05L859.39,560a27.74,27.74,0,0,1-1.72-9.67,11.49,11.49,0,0,1,4-8.67" transform="translate(-785.85 -486.55)"/><path class="cls-8" d="M861,541c-2.84.67-6.94,2.16-6.87,5.66,0,2.08,1.31,4.33,2,6.23l2.72,7.28c.22.59,1.16.36,1-.27-1.87-6-3.23-13.29,2.2-17.84.49-.42-.22-1.12-.71-.71-5.7,4.78-4.43,12.53-2.46,18.82l1-.27-3.4-9.09c-.23-.61-.47-1.21-.68-1.82-.58-1.65-.58-1.48.24-3.39.71-1.63.82-1.92,2.22-2.6a14.18,14.18,0,0,1,3-1c.63-.14.36-1.11-.26-1Z" transform="translate(-785.85 -486.55)"/></g><g class="cls-7"><path class="cls-8" d="M863.36,569.42a54.36,54.36,0,0,0,4.78,7.7,2.54,2.54,0,0,0,1.34,1.09,2.33,2.33,0,0,0,1.54-.4,16.05,16.05,0,0,0,8.13-13,11.18,11.18,0,0,1-6.55,6.73,8.49,8.49,0,0,1-8.92-2.09" transform="translate(-785.85 -486.55)"/><path class="cls-8" d="M862.93,569.68c1.41,2.7,3,6.14,5.24,8.26,1.54,1.46,3.14.41,4.64-.67a16.79,16.79,0,0,0,6.84-12.49c.05-.61-.78-.61-1-.13-2.34,5.75-9.61,9.51-14.63,4.41a.5.5,0,0,0-.71.71c5.6,5.68,13.68,1.57,16.31-4.85l-1-.14a15.8,15.8,0,0,1-5.31,10.8,8.4,8.4,0,0,1-2.57,1.8c-2.06.58-2.61-1-3.51-2.36a55.47,55.47,0,0,1-3.46-5.85c-.3-.57-1.16-.07-.87.51Z" transform="translate(-785.85 -486.55)"/></g><path class="cls-2" d="M859.3,515c-6.93-.75-13.84-1.22-19.64,3.28-2.76,2.14-3.45,4.28-3,7.71.25,1.88.62,3.75,1.05,5.6.36,1.51.55,3.62,1.53,4.88,1.6,2.07,4.92-.33,6.6-1.1a19.68,19.68,0,0,0,4.31-2.45c2.18-1.74,5-2.17,7.22-.15a8.75,8.75,0,0,0,2.9,2.22,16.94,16.94,0,0,0,5.68,1.33c2.32,0,1.78-3,2-4.75.4-3.66,1.31-7.93-.76-11.27-1.7-2.74-4.87-4.09-7.73-5.28-.59-.25-.85.72-.26,1,3.58,1.49,7.34,3.32,8.13,7.52a20,20,0,0,1-.14,5.83c-.15,1.41.12,5.52-1.77,5.89-1.37.27-4.35-.83-5.49-1.49-1.38-.79-2.07-2.19-3.57-2.85a6.26,6.26,0,0,0-5.9.51,30,30,0,0,1-4.31,2.75c-1.93.88-4.83,3.2-6.48.76-.93-1.37-1.14-4.29-1.45-5.85-.4-2.06-1.09-4.57-.57-6.67,1-4.15,7.36-6.35,11.08-6.78a48.22,48.22,0,0,1,10.6.39c.64.07.64-.93,0-1Z" transform="translate(-785.85 -486.55)"/><path class="cls-2" d="M851.82,543.09c-4.07-1.49-8.56-3.14-12.91-3.58-2.64-.27-4.44,1.45-5.81,3.53-2,3.06-3,6.69-3.8,10.23a53.62,53.62,0,0,0-1.81,12.06,14.77,14.77,0,0,0,3.25,9c1.49,2,4.22,4.89,6.81,5.29,2.75.43,3.92-3.55,4.9-5.42q3-5.67,5.58-11.56c1.67-3.83,3.32-7.71,4.62-11.69.85-2.6,1.56-5.65-.61-7.78-.46-.45-1.17.26-.71.71,2.67,2.63.17,7.41-.93,10.31q-2.08,5.5-4.55,10.87t-5.12,10.25a12,12,0,0,1-1.27,2.28c-1.31,1.43-3,.53-4.25-.31a16.89,16.89,0,0,1-4.1-4.12c-2.4-3.4-2.89-7.09-2.4-11.15a73,73,0,0,1,2.59-12.58,23.71,23.71,0,0,1,2.22-5.24c1.5-2.47,3-4,6.09-3.6a56.38,56.38,0,0,1,11.94,3.42c.61.22.87-.75.27-1Z" transform="translate(-785.85 -486.55)"/><path class="cls-2" d="M828.92,560.68a21.81,21.81,0,0,0,3.59-3q2.06-1.92,4-3.94a.25.25,0,0,0-.36-.35c-1.17,1.21-2.37,2.4-3.61,3.55a22.78,22.78,0,0,1-3.9,3.31.25.25,0,0,0,.26.43Z" transform="translate(-785.85 -486.55)"/><path class="cls-2" d="M828.94,568.56a40.88,40.88,0,0,0,12.93-15.15c.15-.28-.28-.54-.43-.25a40.42,40.42,0,0,1-12.75,15c-.26.19,0,.62.25.44Z" transform="translate(-785.85 -486.55)"/><path class="cls-2" d="M833.74,576.12A139.4,139.4,0,0,0,847,551.25c.12-.3-.36-.43-.48-.14a139.5,139.5,0,0,1-13.16,24.76c-.18.27.25.52.43.25Z" transform="translate(-785.85 -486.55)"/><path class="cls-2" d="M856,543.55c3.75-1.38,7.94-3,11.94-3.42,3-.32,4.62,1.12,6.09,3.6a23.84,23.84,0,0,1,2.22,5.23,75.36,75.36,0,0,1,2.47,11.7c.61,4.37.33,8.35-2.28,12a16.89,16.89,0,0,1-4.1,4.12c-1,.71-2.87,1.31-4.08.58-.52-.32-.9-1.58-1.21-2.15-1.91-3.48-3.69-7-5.35-10.65s-3.16-7.2-4.55-10.88c-1.1-2.9-3.6-7.67-.93-10.3.46-.45-.25-1.16-.71-.71-1.78,1.75-1.61,4.12-1,6.4A81.4,81.4,0,0,0,858.58,560q2.34,5.55,5,10.94,1.35,2.65,2.78,5.27c.51.93,1.05,2.33,2.07,2.82,2.16,1,5.11-1.7,6.53-3.07a16.37,16.37,0,0,0,4.78-8.18c.78-3.79-.09-7.87-.82-11.61a48.13,48.13,0,0,0-3.11-11.06c-1.14-2.47-3.05-5.81-6.1-6.1-2-.2-4.32.67-6.27,1.17-2.62.69-5.2,1.52-7.74,2.45-.6.22-.35,1.19.26,1Z" transform="translate(-785.85 -486.55)"/><path class="cls-2" d="M878.9,559.73a23.11,23.11,0,0,1-3.9-3.3c-1.24-1.16-2.43-2.34-3.61-3.55-.22-.24-.58.12-.35.35q2,2,4,3.93a20.57,20.57,0,0,0,3.59,3,.25.25,0,0,0,.25-.43Z" transform="translate(-785.85 -486.55)"/><path class="cls-2" d="M878.88,567.61a40.45,40.45,0,0,1-12.76-15c-.14-.29-.58,0-.43.25A40.94,40.94,0,0,0,878.62,568c.27.19.52-.24.26-.43Z" transform="translate(-785.85 -486.55)"/><path class="cls-2" d="M874.26,575.36a139.24,139.24,0,0,1-13.17-24.76c-.12-.3-.6-.17-.48.13a140.13,140.13,0,0,0,13.21,24.88c.18.26.62,0,.44-.25Z" transform="translate(-785.85 -486.55)"/><g class="cls-9"><path class="cls-2" d="M791.44,526.84a24,24,0,0,0,4.38,11.08,47.76,47.76,0,0,0,8.24,8.75,24.09,24.09,0,0,0,6.66,4.4c2.85,1.13,6.11,1.33,8.64,3.06a10,10,0,0,0,2.83,1.76,4.21,4.21,0,0,0,3.52-.9,12.48,12.48,0,0,0,2.43-2.84l3.16-4.54a69.44,69.44,0,0,0-3.61,15.24,7.43,7.43,0,0,1-4.68-1.71,15.59,15.59,0,0,1-3.29-3.85,9.88,9.88,0,0,0-2.66-3.23,9.67,9.67,0,0,0-2.59-1,46.64,46.64,0,0,1-26.92-20.81,4.33,4.33,0,0,1-.82-2.44,3.09,3.09,0,0,1,1.85-2.41,7.67,7.67,0,0,1,2.86-.56" transform="translate(-785.85 -486.55)"/><path class="cls-2" d="M790.94,526.84A26.57,26.57,0,0,0,797,540.33c3.3,4,7.62,8.35,12.35,10.68,2.16,1.06,4.5,1.42,6.76,2.17s4,2.88,6.3,3.24c4.41.7,7.3-5.68,9.3-8.55l-.92-.39a73.26,73.26,0,0,0-2.63,9.32c-.16.75-.3,1.51-.43,2.26a13.89,13.89,0,0,1-.42,2.74c-1.07,1.27-3.74-.77-4.61-1.57-2-1.77-2.82-4.45-4.8-6.14-1.7-1.45-4.22-1.73-6.26-2.47A46.43,46.43,0,0,1,791.42,537c-.94-1.18-1.81-2.41-2.63-3.68s-2.2-3.22-.9-4.82c.78-1,2.45-1,3.55-1.15.64-.05.64-1.05,0-1-1.86.16-4,.45-4.87,2.32-1,2.05.69,4.17,1.78,5.81a47.21,47.21,0,0,0,11.06,11.63,48.26,48.26,0,0,0,14.93,7.44,7.1,7.1,0,0,1,4.38,3.1,36.45,36.45,0,0,0,2.13,3.07,9.34,9.34,0,0,0,6.84,3.64.51.51,0,0,0,.5-.5,73.13,73.13,0,0,1,3.59-15.1c.2-.57-.61-.83-.92-.39a59.62,59.62,0,0,1-4.43,6.24c-1.36,1.49-3.25,2.43-5.18,1.3-.59-.35-1.08-.83-1.64-1.2-3.38-2.23-7.66-2.21-11.13-4.33-7.78-4.74-15.37-13.27-16.54-22.53-.08-.63-1.08-.64-1,0Z" transform="translate(-785.85 -486.55)"/></g><g class="cls-9"><path class="cls-2" d="M876.77,542.41a17.16,17.16,0,0,0,5,7.72,10.55,10.55,0,0,0,6.84,3,15.29,15.29,0,0,0,4.31-.87c6.55-2,13.23-4.07,18.81-8a43.93,43.93,0,0,1-15.29,9.42c-2.57.92-5.35,1.69-7.21,3.68-1.54,1.64-2.28,4-4,5.41a11.44,11.44,0,0,1-4.45,1.92.79.79,0,0,1-.72,0,.8.8,0,0,1-.22-.59c-.52-5.94-1.41-11.93-3.78-17.39a6.29,6.29,0,0,1-.67-2.28,1.83,1.83,0,0,1,1.24-1.84" transform="translate(-785.85 -486.55)"/><path class="cls-2" d="M876.28,542.55c1.84,5.48,6.84,11.73,13.29,11,3.89-.43,7.94-2.14,11.6-3.49a47.64,47.64,0,0,0,10.76-5.42l-.6-.78A44.75,44.75,0,0,1,899.18,552c-3.66,1.64-8.25,2.3-10.88,5.6-1.58,2-2.34,4.35-4.75,5.58a6.28,6.28,0,0,1-2.18.79c-.87,0-.9.3-1.17-.81a36.3,36.3,0,0,1-.41-3.63,61.14,61.14,0,0,0-1.31-7.1c-.36-1.4-3.62-8.53-1.66-9.46.58-.28.07-1.14-.51-.87-1.69.81-1.59,2.44-1.08,4a75,75,0,0,1,3,10.08c.37,2,.63,4,.84,6.08.07.66-.1,1.93.38,2.49.91,1.07,2.78,0,3.82-.39,2.5-1,3.53-2.81,5-5,2.22-3.34,5.47-4.19,9-5.54A45.55,45.55,0,0,0,912,544.57c.4-.38-.14-1.11-.61-.78-5.42,3.74-11.63,5.82-17.88,7.74-3.76,1.15-7,1.57-10.39-.87a16.81,16.81,0,0,1-5.91-8.38c-.21-.61-1.17-.35-1,.27Z" transform="translate(-785.85 -486.55)"/></g><path class="cls-2" d="M849.8,533.4a70.59,70.59,0,0,0,7.83-.2c.63-.05.64-1.05,0-1a70.59,70.59,0,0,1-7.83.2c-.64,0-.64,1,0,1Z" transform="translate(-785.85 -486.55)"/><path class="cls-2" d="M867,534.82l1.11,4.42c.15.63,1.12.36,1-.26l-1.11-4.42a.5.5,0,0,0-1,.26Z" transform="translate(-785.85 -486.55)"/><path class="cls-2" d="M839,535.45a13.9,13.9,0,0,0-1.84,3.94.5.5,0,0,0,1,.27A12.84,12.84,0,0,1,839.9,536c.36-.53-.51-1-.87-.5Z" transform="translate(-785.85 -486.55)"/></svg>