<svg id="Calque_1" data-name="Calque 1" xmlns="http://www.w3.org/2000/svg" viewBox="0 0 138.58 108.69"><defs><style>.cls-1{fill:#f9b233;}.cls-2{fill:#1d1d1b;}.cls-3{fill:#d0635e;}.cls-4{fill:#76132b;}.cls-5{fill:#a93c47;}.cls-6{fill:#f9c9b9;}.cls-7{fill:#f39200;}.cls-8{fill:#2d2e83;}.cls-9{fill:#ffdb00;}.cls-10{fill:#d83c21;}.cls-11{fill:none;stroke:#1d1d1b;stroke-miterlimit:10;}</style></defs><title>trophee_libellule</title><path class="cls-1" d="M864.21,501.64a19.68,19.68,0,0,0,1.9-7.72c0-.34,0-.75-.31-.92s-.82.13-1.12.45l-7.54,8.1a.48.48,0,0,0-.12.22.37.37,0,0,0,.12.27,3.51,3.51,0,0,0,2.27,1.06,8.15,8.15,0,0,0,2.55-.23,3.57,3.57,0,0,0,2.47-1.32" transform="translate(-784.19 -486.59)"/><path class="cls-2" d="M864.65,501.89a21.52,21.52,0,0,0,1.68-5.3c.17-1,.78-3-.1-3.84a1.16,1.16,0,0,0-1.52,0c-1.55.93-2.92,3.07-4.15,4.4l-2.15,2.31c-.49.53-1.41,1.19-1.7,1.84s0,1.09.6,1.56c2,1.44,5.94.89,7.48-.95.4-.49-.3-1.2-.71-.71a4.27,4.27,0,0,1-2.88,1.31,5.7,5.7,0,0,1-2.29,0c-1.07-.64-1.19-1.23-.34-1.76.91-1.48,2.6-2.79,3.77-4.05a15.38,15.38,0,0,1,2.16-2.32l.53-.58c.64-.06.82.22.54.85.25,1-.33,2.49-.59,3.45a20.93,20.93,0,0,1-1.2,3.29c-.26.58.6,1.09.87.5Z" transform="translate(-784.19 -486.59)"/><path class="cls-3" d="M896.65,509.75a5.71,5.71,0,0,1-.46,4.49,17.19,17.19,0,0,1-2.8,3.69l-4.12,4.49a10.58,10.58,0,0,1-1.57,1.5,9.67,9.67,0,0,1-2.87,1.25,53.86,53.86,0,0,1-9,1.88,1.31,1.31,0,0,1,1.3.1,30.71,30.71,0,0,1-5.28,1.16c-3.23.42-6.92.13-9.08-2.31-2.38-2.69-2.22-7.3-5.26-9.22a4.28,4.28,0,0,1-1.4-1,5.21,5.21,0,0,1-.45-2.13,13.76,13.76,0,0,0-1.26-2.87,2.8,2.8,0,0,1,.15-3,3.25,3.25,0,0,1,1.8-.79c9.87-1.88,19.88,2.32,29.93,2.24,3.41,0,6.88-.54,10.18.31" transform="translate(-784.19 -486.59)"/><path class="cls-3" d="M896.17,509.88c1.27,4.65-4.16,8.83-7,11.87-3.26,3.54-8.75,4.2-13.34,4.8l.13,1,1,.09v-1c-3.15,1-6.67,1.76-10,1.08-3.63-.74-4.88-3.31-6.06-6.47a10.15,10.15,0,0,0-2.67-4.52,6.37,6.37,0,0,1-2.17-3.27c-.15-.42-.25-.81-.43-1.22-.63-1.48-1.24-1.83-.46-3.43.67-1.38.81-1.29,2.13-1.5a26.78,26.78,0,0,1,3.46-.3,37.86,37.86,0,0,1,4.52.15c3.61.3,7.18,1,10.75,1.58a67,67,0,0,0,9.26,1c3.68.06,7.31-.51,11,.29.62.14.89-.83.26-1-4-.89-8.06-.2-12.14-.36A118.63,118.63,0,0,1,871,506.89a48.9,48.9,0,0,0-11.89-.76c-2.12.19-5.41.26-5.47,3.07,0,1.51,1,2.78,1.39,4.18.34,1.19.3,2.3,1.25,3.17.59.55,1.31.76,1.89,1.36a7.84,7.84,0,0,1,1.47,2.49c.56,1.31.94,2.7,1.57,4,3,6.09,10.75,4.86,16.12,3.24a.51.51,0,0,0,0-1,1.93,1.93,0,0,0-1.56-.09c-.55.11-.43,1.06.13,1a53.21,53.21,0,0,0,9.09-1.9,11.65,11.65,0,0,0,5.54-3.84c3-3.27,8-7.17,6.63-12.19a.5.5,0,0,0-1,.26Z" transform="translate(-784.19 -486.59)"/><path class="cls-4" d="M905.87,506a7.59,7.59,0,0,1,1.45,2.53,12.11,12.11,0,0,1,.67,7.15,7.57,7.57,0,0,1-4.51,5.35,64.26,64.26,0,0,0,15-4.84,8.52,8.52,0,0,0,2.62-1.66,3.17,3.17,0,0,0,.95-2.84,3.56,3.56,0,0,0-.76-1.42,11.45,11.45,0,0,0-7.08-3.69c-2.68-.46-5.42-.38-8.13-.61" transform="translate(-784.19 -486.59)"/><path class="cls-4" d="M905.52,506.34c3.43,4.23,3.16,11.88-2.3,14.24-.54.23-.13,1,.39.91a66.51,66.51,0,0,0,13.29-4.08c2.19-.93,5.51-2.12,5.69-5,.15-2.52-2.7-4.39-4.69-5.29-3.7-1.66-7.89-1.4-11.84-1.69-.64,0-.64,1,0,1,2.9.21,5.89.1,8.73.74a12.41,12.41,0,0,1,3.71,1.38,6.69,6.69,0,0,1,1.66,1.23,1.81,1.81,0,0,1,.42,2.3c.68,1.42.35,2.4-1,2.92-4.68,3-10.89,4.44-16.26,5.51l.39.91c6.09-2.63,6.3-11.13,2.49-15.81-.4-.5-1.11.21-.7.71Z" transform="translate(-784.19 -486.59)"/><path class="cls-5" d="M896.62,509.73a7.75,7.75,0,0,1-1.12,5,29.83,29.83,0,0,1-8.26,9.91,14.92,14.92,0,0,1,3.17-1c.92-.15,1.86-.13,2.8-.21a25.62,25.62,0,0,0,3.34-.57c1.81-.38,3.63-.77,5.41-1.28a9.9,9.9,0,0,0,2.9-1.21,9.76,9.76,0,0,0,3.08-4.12,6.82,6.82,0,0,0-1-8.66,1.9,1.9,0,0,0-1.19-.88,2,2,0,0,0-1,.28,29.2,29.2,0,0,1-8.06,2.48" transform="translate(-784.19 -486.59)"/><path class="cls-5" d="M896.12,509.73c.62,5.53-5.26,11.4-9.23,14.55-.38.3,0,1,.48.83a26.37,26.37,0,0,1,6.81-1.35,60.07,60.07,0,0,0,7-1.51,10.1,10.1,0,0,0,7.57-6.7c1.19-2.93.83-7-2-9-1-.67-1.64-.31-2.61.11a33.14,33.14,0,0,1-7.55,2.25c-.63.11-.36,1.07.27,1a32,32,0,0,0,4.52-1.08c.76-.25,2.86-1.5,3.65-1.46a4.09,4.09,0,0,1,2.66,2.1,6.28,6.28,0,0,1,.75,4,11.72,11.72,0,0,1-2.38,5c-2.15,2.78-6.37,3.19-9.62,3.87s-6.25.57-9.3,1.83l.48.83c4.17-3.3,10.18-9.42,9.53-15.25-.07-.63-1.07-.64-1,0Z" transform="translate(-784.19 -486.59)"/><path class="cls-6" d="M886.73,497c4-.91,7.44-3.3,11.26-4.72,1-.36,2-.66,3-.95,4.19-1.22,8.5-2.27,12.87-2.09,1.81.08,3.84.5,4.83,2a4.21,4.21,0,0,1,.28,3.68,9.41,9.41,0,0,1-2.09,3.17c-5.22,5.67-12.69,8.63-20,11.11a28.79,28.79,0,0,1-6.36,1.6,5,5,0,0,1-2.5-.26,5.68,5.68,0,0,1-2.48-2.92,12.23,12.23,0,0,1-1.52-5.73,5.37,5.37,0,0,1,3-4.81" transform="translate(-784.19 -486.59)"/><path class="cls-6" d="M886.87,497.49a45.73,45.73,0,0,0,8.16-3.38,49.11,49.11,0,0,1,9.66-3.28c3.42-.83,7.55-1.74,11-.83,3.26.84,3.44,4.17,1.66,6.62a19.88,19.88,0,0,1-3.21,3.34c-4.79,4.11-10.82,6.49-16.72,8.52-3.3,1.14-8.73,3.57-11.06-.22-2-3.19-3.32-8.61.82-10.73.57-.3.07-1.16-.51-.87-4.88,2.51-3.45,9.48-.56,13,1.84,2.25,4.71,1.72,7.23,1.1a71.79,71.79,0,0,0,10.36-3.61c5.35-2.23,11.79-5.49,14.93-10.63,1.22-2,1.55-4.7-.36-6.39s-5.33-1.55-7.77-1.35a50.18,50.18,0,0,0-12,2.71c-4.1,1.42-7.75,3.9-12,5a.5.5,0,0,0,.27,1Z" transform="translate(-784.19 -486.59)"/><path class="cls-7" d="M857.82,502.43a11.17,11.17,0,0,0,4.57.08c3.32-.64,6.15-2.75,9.31-3.94a14.54,14.54,0,0,1,2.6-.73,25,25,0,0,1,3.67-.26l8.1-.17a1.82,1.82,0,0,1,.87.14,1.32,1.32,0,0,1,.54.95c.23,1.55-.87,3-1.9,4.15a3.49,3.49,0,0,1,1,4.94,3.6,3.6,0,0,1,2.88,2.69.72.72,0,0,1,0,.56.83.83,0,0,1-.68.31,43.5,43.5,0,0,1-9.4-.25,48.28,48.28,0,0,1-8.12-1.25c-2.41-.65-4.72-1.66-7.13-2.32a13.05,13.05,0,0,0-7.4-.19,4.85,4.85,0,0,0,1.36-4.85" transform="translate(-784.19 -486.59)"/><path class="cls-7" d="M857.69,502.91c5.19,1,8.85-1.64,13.42-3.56,2.95-1.23,6-1.25,9.11-1.32l4-.08a5.76,5.76,0,0,1,1.8,0c2.14,1.06-.21,3.63-.84,4.39a.5.5,0,0,0,.1.78,3.1,3.1,0,0,1,.81,4.26.5.5,0,0,0,.3.73c1.27.34,2.55,2,.9,2.7a8.06,8.06,0,0,1-2.35,0c-1.42,0-2.83-.14-4.24-.27a56,56,0,0,1-9.39-1.37c-4.94-1.32-9.57-3.95-14.8-2.51l.49.84a5.64,5.64,0,0,0,1.48-5.34c-.13-.63-1.1-.36-1,.26a4.58,4.58,0,0,1-1.23,4.37.5.5,0,0,0,.48.84c4.72-1.3,8.95.93,13.37,2.25a56.48,56.48,0,0,0,11.5,1.74,37.89,37.89,0,0,0,6.12.12c.65-.05,1.62,0,2.05-.64,1.14-1.73-2-3.68-3.15-4l.29.73a4.05,4.05,0,0,0-1.17-5.62l.1.78c1-1.21,3-3.7,1.73-5.4-.46-.6-.88-.62-1.59-.69a54.4,54.4,0,0,0-5.85.12c-3.33.07-6.44.1-9.56,1.42-4.3,1.82-7.77,4.42-12.7,3.49-.63-.12-.9.85-.27,1Z" transform="translate(-784.19 -486.59)"/><path class="cls-2" d="M858.25,503c3.88.36,7.26-1.27,10.69-2.85a21.65,21.65,0,0,1,7.13-2.2c2.34-.21,4.7,0,7-.07,4.1-.18,7.38-2,11-3.61A53.11,53.11,0,0,1,907.89,490c2.31-.35,5.1-.75,7.41-.17,3.88,1,4.35,4.62,2,7.43-2.58,3.11-6.37,5.52-9.88,7.46a50,50,0,0,1-23.1,6.21,47.62,47.62,0,0,1-13.28-1.61c-4.78-1.28-9.39-3.16-14.43-2.55l.43.76a7.11,7.11,0,0,0,1.5-5.17c-.05-.64-1.05-.64-1,0a6.42,6.42,0,0,1-1.36,4.66.5.5,0,0,0,.43.75c5.47-.66,10.46,1.68,15.67,2.9a48.57,48.57,0,0,0,12.43,1.25,50.92,50.92,0,0,0,23.89-6.72c3.85-2.22,16.05-9.75,9.55-15.1-3.09-2.54-8.35-1.5-11.91-.84A57.86,57.86,0,0,0,892.41,494c-3.22,1.5-6.15,2.81-9.77,2.92-2.7.08-5.41-.2-8.1.25-5.69.95-10.29,5.41-16.29,4.85-.64-.06-.64.94,0,1Z" transform="translate(-784.19 -486.59)"/><path class="cls-2" d="M906.48,506.31c4.16.16,10.62.11,13.88,3.28,5.18,5.05-6,8-9.09,9-8.22,2.64-16.79,3.83-25.15,5.89-6.35,1.56-21.2,8.19-24.69-1-.58-1.54-.75-3.21-1.52-4.68a6.64,6.64,0,0,0-1.12-1.56c-.43-.43-1.18-.62-1.55-1-.87-.92-.52-2.8-1-4a6.82,6.82,0,0,0-3.07-3.23l-.12.91c2.32-.37,3.49-2.35,5.88-2.66s5.06.58,7.34,1.36a57,57,0,0,0,12.49,3.07c9.76,1.1,18.26-1.4,27.33-4.81.48-.18.46-1.06-.14-1L905,506c-.63.08-.64,1.08,0,1l.94-.13-.13-1a92.34,92.34,0,0,1-14,4.41,45.31,45.31,0,0,1-15.84,0c-4.46-.67-8.42-2.68-12.78-3.67a12.61,12.61,0,0,0-5.29-.3c-2,.42-3.08,2.25-5.17,2.59a.5.5,0,0,0-.12.91c2.42,1.34,2.84,3.24,3.1,5.73.13,1.32.62,1.11,1.67,1.81,3.13,2.08,2.26,6.81,5,9.34,4.78,4.46,13,1.77,18.38.24,7.9-2.24,16-3.59,24-5.52a80.57,80.57,0,0,0,11.82-3.71c2.05-.85,5.18-1.87,6-4.21,1-2.79-1.61-5.22-3.89-6.26-3.65-1.67-8.23-1.84-12.17-2-.65,0-.65,1,0,1Z" transform="translate(-784.19 -486.59)"/><path class="cls-1" d="M842.73,501.3a20,20,0,0,1-1.9-7.71c0-.34,0-.76.32-.93s.82.13,1.12.45l7.53,8.11a.39.39,0,0,1,.13.21.42.42,0,0,1-.12.28,3.53,3.53,0,0,1-2.28,1.06,8.69,8.69,0,0,1-2.54-.23,3.61,3.61,0,0,1-2.47-1.32" transform="translate(-784.19 -486.59)"/><path class="cls-2" d="M843.17,501.05c-.83-1.82-2.07-4.69-1.79-6.74.14-1.11.2-1,1.07-.27a22.64,22.64,0,0,1,2.16,2.32l2.15,2.32a9.4,9.4,0,0,1,1.61,1.74c.85.53.74,1.11-.33,1.75a5.7,5.7,0,0,1-2.29,0,4.32,4.32,0,0,1-2.88-1.31c-.41-.5-1.12.21-.71.7,1.53,1.83,5.45,2.38,7.42,1,.6-.42.94-.81.72-1.49s-1.07-1.2-1.49-1.65l-2.42-2.61c-1.27-1.37-2.57-3.3-4.11-4.36a1.2,1.2,0,0,0-1.52-.09c-.87.74-.34,2.61-.2,3.53a21.65,21.65,0,0,0,1.74,5.67c.27.58,1.13.07.87-.51Z" transform="translate(-784.19 -486.59)"/><path class="cls-3" d="M810.3,509.42a5.71,5.71,0,0,0,.46,4.49,16.59,16.59,0,0,0,2.8,3.68l4.12,4.5a10.54,10.54,0,0,0,1.57,1.49,9.58,9.58,0,0,0,2.87,1.26,53.65,53.65,0,0,0,9,1.88,1.31,1.31,0,0,0-1.3.09,29.82,29.82,0,0,0,5.28,1.17c3.22.41,6.92.12,9.08-2.31,2.38-2.69,2.22-7.31,5.26-9.23a4.36,4.36,0,0,0,1.4-1,5.39,5.39,0,0,0,.45-2.14,13.72,13.72,0,0,1,1.25-2.87,2.75,2.75,0,0,0-.15-3,3.19,3.19,0,0,0-1.79-.79c-9.87-1.89-19.88,2.31-29.93,2.24-3.41,0-6.88-.54-10.18.3" transform="translate(-784.19 -486.59)"/><path class="cls-3" d="M809.82,509.28c-1.38,5,3.62,8.92,6.62,12.2a11.8,11.8,0,0,0,5.55,3.84,53.21,53.21,0,0,0,9.09,1.9c.55.07.68-.88.13-1a1.91,1.91,0,0,0-1.57.09.5.5,0,0,0,0,1c5.21,1.57,12.9,2.88,16-2.95a35.57,35.57,0,0,0,1.5-3.74,8.88,8.88,0,0,1,1.68-3c.57-.59,1.27-.81,1.85-1.32.77-.69.76-1.3,1-2.24.44-1.58,1.7-3.45,1.67-5.15-.06-2.66-3-2.81-5-3a46.41,46.41,0,0,0-11.88.63,130.77,130.77,0,0,1-13.52,1.87c-4.22.21-8.43-.54-12.6.38-.62.14-.36,1.1.27,1,3.64-.8,7.28-.23,11-.29a63.78,63.78,0,0,0,9.25-1c3.43-.55,6.85-1.21,10.31-1.53a39.18,39.18,0,0,1,5-.19,26.05,26.05,0,0,1,2.64.2c1.64.2,2.2,0,3,1.59s.26,1.72-.3,3.08c-.34.82-.29.75-.59,1.58a6,6,0,0,1-2.13,3.23,10.07,10.07,0,0,0-2.71,4.56c-1.17,3.14-2.47,5.73-6.06,6.47-3.29.68-6.81-.13-10-1.08v1l1-.09.14-1c-4.59-.6-10.08-1.27-13.34-4.81-2.8-3-8.23-7.21-7-11.86a.5.5,0,0,0-1-.27Z" transform="translate(-784.19 -486.59)"/><path class="cls-4" d="M801.08,505.65a7.51,7.51,0,0,0-1.46,2.53,12.15,12.15,0,0,0-.66,7.14,7.55,7.55,0,0,0,4.51,5.35,64.09,64.09,0,0,1-15-4.83,8.59,8.59,0,0,1-2.63-1.67,3.19,3.19,0,0,1-1-2.84,3.79,3.79,0,0,1,.77-1.42,11.36,11.36,0,0,1,7.07-3.68c2.68-.47,5.42-.39,8.13-.61" transform="translate(-784.19 -486.59)"/><path class="cls-4" d="M800.72,505.29c-3.8,4.69-3.6,13.19,2.5,15.82l.38-.92c-5.36-1.07-11.58-2.54-16.25-5.5l-1.13-.87.3-4.11a5.18,5.18,0,0,1,1.61-1.29,12.4,12.4,0,0,1,3.66-1.48c3-.72,6.07-.6,9.09-.82.64-.05.65-1.05,0-1-3.94.28-8.13,0-11.83,1.69-2,.88-4.84,2.78-4.69,5.29.17,2.85,3.49,4,5.69,5a67,67,0,0,0,13.29,4.08c.51.1.94-.68.38-.92-5.45-2.35-5.73-10-2.29-14.24.4-.49-.3-1.21-.71-.71Z" transform="translate(-784.19 -486.59)"/><path class="cls-5" d="M810.33,509.4a7.76,7.76,0,0,0,1.12,5,29.71,29.71,0,0,0,8.26,9.91,14.38,14.38,0,0,0-3.17-1c-.92-.16-1.87-.13-2.8-.21a27.42,27.42,0,0,1-3.34-.57c-1.81-.39-3.63-.78-5.42-1.28a10,10,0,0,1-2.9-1.21,9.76,9.76,0,0,1-3.08-4.12,8.54,8.54,0,0,1-1.07-4.36,8.65,8.65,0,0,1,2.07-4.3,1.89,1.89,0,0,1,1.19-.88,2.05,2.05,0,0,1,1,.28,29.24,29.24,0,0,0,8,2.48" transform="translate(-784.19 -486.59)"/><path class="cls-5" d="M809.83,509.4c-.65,5.83,5.35,11.94,9.52,15.25l.49-.84c-3.05-1.25-6.11-1.15-9.31-1.82s-7.47-1.09-9.61-3.87a12.45,12.45,0,0,1-2.26-4.53c-.42-1.83.28-6.61,3.29-6.56.85,0,2.4,1,3.25,1.32a31,31,0,0,0,4.92,1.21c.63.11.9-.85.27-1a31.35,31.35,0,0,1-7.17-2.08c-1-.45-1.89-1-3-.33-2.92,2-3.28,6.09-2.1,9,1.43,3.53,3.46,5.56,7.13,6.57a67.69,67.69,0,0,0,7.05,1.57c2.51.4,4.82.43,7.22,1.42.46.18.87-.54.49-.84-4-3.14-9.85-9-9.23-14.54.07-.64-.93-.63-1,0Z" transform="translate(-784.19 -486.59)"/><path class="cls-6" d="M820.21,496.67c-4-.92-7.43-3.3-11.25-4.73-1-.36-2-.66-3-.95-4.19-1.22-8.51-2.26-12.87-2.08-1.81.07-3.84.5-4.83,2a4.24,4.24,0,0,0-.29,3.68,9.54,9.54,0,0,0,2.1,3.17c5.22,5.66,12.68,8.63,20,11.11a28.68,28.68,0,0,0,6.35,1.59,5.07,5.07,0,0,0,2.51-.26,5.62,5.62,0,0,0,2.48-2.91,12.3,12.3,0,0,0,1.52-5.73,5.38,5.38,0,0,0-3-4.82" transform="translate(-784.19 -486.59)"/><path class="cls-6" d="M820.35,496.19c-3.71-1-6.93-3-10.44-4.41a51,51,0,0,0-11.06-3c-3.88-.62-12.71-1.28-11.51,5.21.52,2.81,3.22,5.13,5.31,6.83a39,39,0,0,0,8.22,5,91.21,91.21,0,0,0,9.54,3.69c2.54.84,6.48,2.43,9.08,1,2.23-1.25,3.5-4.89,3.85-7.23.43-2.78-.52-5.61-3.12-6.94-.57-.29-1.08.57-.5.86,4,2.06,2.85,7.27,1,10.45-2.42,4.12-7.69,1.73-11.23.5-5.92-2-11.91-4.42-16.73-8.52-2.7-2.3-7.62-8.39-1.54-10,3.5-.9,7.63,0,11,.84a47.29,47.29,0,0,1,9.26,3.09,49.57,49.57,0,0,0,8.56,3.56.5.5,0,0,0,.27-1Z" transform="translate(-784.19 -486.59)"/><path class="cls-7" d="M849.12,502.09a11,11,0,0,1-4.57.09c-3.31-.64-6.14-2.76-9.3-3.95a13.73,13.73,0,0,0-2.6-.72,23.75,23.75,0,0,0-3.67-.26l-8.11-.17a1.59,1.59,0,0,0-.86.14,1.3,1.3,0,0,0-.54.95c-.23,1.55.87,3,1.9,4.14a3.51,3.51,0,0,0-1,4.95,3.59,3.59,0,0,0-2.88,2.68.8.8,0,0,0,0,.57.88.88,0,0,0,.68.31,44.23,44.23,0,0,0,9.41-.25,50.29,50.29,0,0,0,8.11-1.25c2.42-.65,4.73-1.66,7.14-2.32a12.88,12.88,0,0,1,7.4-.19A4.85,4.85,0,0,1,848.9,502" transform="translate(-784.19 -486.59)"/><path class="cls-7" d="M849,501.61c-4.94.93-8.4-1.68-12.7-3.49-3.13-1.32-6.22-1.35-9.56-1.42a52.15,52.15,0,0,0-5.86-.12c-.71.07-1.12.09-1.58.69-1.31,1.7.72,4.2,1.72,5.4l.1-.79a4.08,4.08,0,0,0-1.17,5.63l.3-.74c-1.15.31-4.29,2.27-3.15,4,.43.64,1.4.6,2,.65a37.92,37.92,0,0,0,6.12-.12,56.49,56.49,0,0,0,11.5-1.75c4.42-1.32,8.64-3.55,13.36-2.25a.5.5,0,0,0,.49-.83,4.57,4.57,0,0,1-1.23-4.37c.14-.63-.83-.9-1-.27a5.64,5.64,0,0,0,1.48,5.34l.49-.83c-5.23-1.44-9.86,1.19-14.8,2.51a53.62,53.62,0,0,1-8.92,1.32c-1.57.15-3.14.29-4.71.32a7.38,7.38,0,0,1-1.88,0q-1.55.39-.84-1.17c-.25-1,.17-1.54,1.27-1.55a.51.51,0,0,0,.3-.74,3.09,3.09,0,0,1,.81-4.25.52.52,0,0,0,.1-.79c-1-1.17-1.41-1.52-1.09-3.11s.27-1.27,1.59-1.24l4.06.08c3.29.07,6.47,0,9.56,1.33,4.57,1.92,8.22,4.53,13.42,3.55.63-.12.36-1.08-.27-1Z" transform="translate(-784.19 -486.59)"/><path class="cls-8" d="M851.29,514a4.31,4.31,0,0,0-.39,2,36.3,36.3,0,0,0,.46,7.43,4,4,0,0,0,.71,2,2.73,2.73,0,0,0,3.61.2,5.19,5.19,0,0,0,1.81-3.44,19.54,19.54,0,0,0-.11-5.29,12.12,12.12,0,0,0-.49-2.62,4.23,4.23,0,0,0-1.51-2.15,2.25,2.25,0,0,0-1.82-.39,2.57,2.57,0,0,0-1,.58,4.76,4.76,0,0,0-1.39,2.11" transform="translate(-784.19 -486.59)"/><path class="cls-8" d="M850.81,513.86c-.79,2-.49,4.59-.3,6.73.13,1.54.1,3.87,1.21,5.1,2.07,2.3,5.12.12,5.93-2.15a14.36,14.36,0,0,0,.28-6.29c-.18-1.69-.34-3.53-1.48-4.87-2.16-2.56-4.77-.67-5.77,1.83-.24.6.72.86,1,.27.72-1.79,2.05-2.78,3.89-1.65,1.08.65,1.21,2.87,1.35,4,.25,2,.54,4.23-.1,6.14s-3.25,3.77-4.87.63c-.47-.89-.36-2.42-.44-3.45-.14-1.89-.38-4.22.3-6,.23-.6-.73-.86-1-.27Z" transform="translate(-784.19 -486.59)"/><path class="cls-8" d="M851,501.47a1.76,1.76,0,0,0-2.2,1.25,2.92,2.92,0,0,0,.17,1.46,9.11,9.11,0,0,0,3.49,4.61,1.87,1.87,0,0,0,1.24.42,2,2,0,0,0,1-.55,15.7,15.7,0,0,0,3.62-4.6,1.75,1.75,0,0,0,.24-1.44c-.24-.54-.91-.71-1.49-.79a39.65,39.65,0,0,0-5.85-.46" transform="translate(-784.19 -486.59)"/><path class="cls-2" d="M851.16,501c-2.56-.44-3.24,1.87-2.44,3.87.71,1.79,3.28,5.75,5.68,4.64,1.72-.8,4.84-4.45,4.76-6.47,0-1-.81-1.43-1.7-1.64a29.44,29.44,0,0,0-6.21-.52.5.5,0,0,0,0,1,39,39,0,0,1,5.06.35c2.79.39,1,2.89-.11,4.21a8.33,8.33,0,0,1-1.34,1.44c-1.65,1.16-2.37.45-3.37-.56a8.87,8.87,0,0,1-1.34-1.77,8.29,8.29,0,0,1-.67-1.49q-.62-1.38,1.41-2.1c.63.11.9-.85.27-1Z" transform="translate(-784.19 -486.59)"/><path class="cls-9" d="M854.08,579.9a4.81,4.81,0,0,0-3,2.23,19.29,19.29,0,0,0-2.49,4.65,6.75,6.75,0,0,0-.54,2.65,3,3,0,0,0,1.16,2.35,2,2,0,0,0,2.49-.16,3.79,3.79,0,0,0,3.38,3.18,2.94,2.94,0,0,0,3-3.2c1,.9,2.76.25,3.38-1a5.11,5.11,0,0,0,0-3.95,13.7,13.7,0,0,0-3.34-5.28c-1-.95-2.67-1.95-4-1.52" transform="translate(-784.19 -486.59)"/><path class="cls-2" d="M854,579.42c-3.41.89-5.92,5.76-6.36,9-.34,2.53,1.74,5.41,4.34,3.59l-.74-.3c.51,1.92,2,3.68,4.18,3.52a3.46,3.46,0,0,0,3.18-3.67l-.76.43a2.74,2.74,0,0,0,3.23-.16c1.52-1.15,1.43-3.26,1-4.91-1-3.32-4-8.16-8-7.54-.63.1-.36,1.06.27,1,2.48-.38,4.48,2.25,5.56,4.08a11.12,11.12,0,0,1,1.11,2.37l.24.79q1,2.88-2.83,3.55a.5.5,0,0,0-.75.43,2.44,2.44,0,0,1-3.66,2.24,3.29,3.29,0,0,1-1.73-2.35.5.5,0,0,0-.74-.3L848.6,590a5.3,5.3,0,0,1,.3-2.63,16,16,0,0,1,1.19-2.72c.93-1.75,2.06-3.7,4.13-4.24a.5.5,0,0,0-.27-1Z" transform="translate(-784.19 -486.59)"/><path class="cls-2" d="M848.7,501.67c-5.27.5-9.4-2.87-14.21-4.35-5.07-1.56-10.47.12-15.5-1.67s-9.31-4.38-14.35-5.8c-4-1.12-9.11-2.33-13.26-1.33-2.89.69-4.93,3.08-4.16,6.13.91,3.58,4.95,6.17,7.81,8.14a50.55,50.55,0,0,0,23.69,8.56,49.12,49.12,0,0,0,14-.62c5.86-1.13,11.48-4,17.57-3.3a.5.5,0,0,0,.43-.75,6.49,6.49,0,0,1-1.37-4.67c.06-.64-.94-.63-1,0a7.13,7.13,0,0,0,1.51,5.17l.43-.75c-4.4-.54-8.49.81-12.66,2a48.77,48.77,0,0,1-35.4-2.68,46.86,46.86,0,0,1-10-6.36c-1.79-1.49-3.88-3.22-4.14-5.68-.4-3.81,3.74-4.54,6.57-4.48a42.53,42.53,0,0,1,14,3c4,1.52,7.95,4.14,12.22,5,5,1,10-.31,14.89,1.63,4.25,1.68,8.12,4.26,12.89,3.81.63-.06.64-1.06,0-1Z" transform="translate(-784.19 -486.59)"/><path class="cls-2" d="M800.47,505c-4.53.18-15.35.19-16.24,6.54-.37,2.58,2,4,4,5a66.42,66.42,0,0,0,11,3.89c7.89,2.13,16,3.29,23.91,5.43,5.93,1.6,13.74,4.91,19.75,1.79,3.7-1.92,3.2-5.35,5-8.59a4.68,4.68,0,0,1,1-1.28c.55-.53,1.38-.71,1.86-1.2a1.9,1.9,0,0,0,.46-.82,20.61,20.61,0,0,0,.08-2.1,5.64,5.64,0,0,1,3-4.06.5.5,0,0,0-.12-.91c-2.08-.34-3.11-2.17-5.17-2.6a12.91,12.91,0,0,0-5.28.3c-4.36,1-8.32,3-12.79,3.68a45.31,45.31,0,0,1-15.84,0,91.14,91.14,0,0,1-14-4.42l-.14,1,1,.13c.64.09.63-.91,0-1l-1-.13c-.59-.07-.61.8-.13,1,9.07,3.4,17.57,5.91,27.33,4.81a57.74,57.74,0,0,0,12.49-3.07c2.28-.79,4.89-1.69,7.33-1.37s3.57,2.29,5.89,2.67l-.12-.91a6.69,6.69,0,0,0-3.07,3.23c-.52,1.19-.19,3.09-1,4-.26.27-1,.49-1.31.77a5.91,5.91,0,0,0-1.36,1.81c-.78,1.46-.93,3.14-1.53,4.68-3.54,9.16-18.28,2.56-24.68,1-8.36-2.06-16.94-3.25-25.15-5.89-3-1-14.26-4-9.09-9,3.27-3.19,9.71-3.13,13.88-3.29.64,0,.65-1,0-1Z" transform="translate(-784.19 -486.59)"/><path class="cls-10" d="M853.75,493.56a5.79,5.79,0,0,1-1.08.39,1.18,1.18,0,0,0-.81.74.2.2,0,0,0,0,.13.27.27,0,0,0,.1.11,3,3,0,0,0,.91.39,4.66,4.66,0,0,0,2,.11,3,3,0,0,0,1.74-.95s.07-.08.06-.13a.16.16,0,0,0-.07-.09,2.38,2.38,0,0,0-1.07-.45c-.52-.12-1-.23-1.57-.33" transform="translate(-784.19 -486.59)"/><path class="cls-10" d="M853.5,493.12c-.65.33-2.48.66-2.13,1.83s2.51,1.11,3.33,1,2.48-.63,2.46-1.61-2.39-1.22-3.08-1.36-.89.84-.26,1,2.09.19,2.41.65v-.51c-.45,1-2.22,1-3.07.77-.12,0-.53-.07-.6-.17s.1-.19.34-.29.74-.24,1.1-.42c.57-.29.07-1.16-.5-.87Z" transform="translate(-784.19 -486.59)"/><path class="cls-10" d="M854,498.49a2.5,2.5,0,0,0-2.93,2,.61.61,0,0,0,.6.78,6,6,0,0,0,1.27.06l3.32-.12a.26.26,0,0,0,.19-.06.28.28,0,0,0,0-.16,2.64,2.64,0,0,0-1.18-2.17,3,3,0,0,0-2.46-.38" transform="translate(-784.19 -486.59)"/><path class="cls-10" d="M854,498a3,3,0,0,0-3.42,2.46c-.24,1.91,2.73,1.38,3.82,1.35.6,0,1.93.2,2.4-.27s.13-1.29,0-1.71a3.45,3.45,0,0,0-4-1.85c-.63.14-.36,1.1.27,1a2.63,2.63,0,0,1,1.94.25c.54.32,1.23,1.16,1,1.85l.35-.35a8.2,8.2,0,0,1-1.92.11c-.59,0-1.19.06-1.78.06-.19,0-.67.06-.82-.06s-.09-.71.07-.95A2.12,2.12,0,0,1,854,499c.64.07.63-.93,0-1Z" transform="translate(-784.19 -486.59)"/><path class="cls-10" d="M851.32,514.68c.51-1.07,1.33-2.32,2.69-2.27s2,1.62,2.69,2.55a.5.5,0,0,0,.91-.38,4.17,4.17,0,0,0-2.74-3.23c-1.63-.63-3.2.36-4.21,1.63l.85.36,0-.21-1-.13a4.23,4.23,0,0,1-.08.79.5.5,0,0,0,.91.39c.48-.78,1-1.8,1.94-2,1.33-.34,2.42.73,3,1.78a.5.5,0,0,0,.86-.51,4,4,0,0,0-3.65-2.32c-1.53.12-2.31,1.41-3,2.59l.91.39a5.47,5.47,0,0,0,.12-1.06c.06-.57-.85-.68-1-.14a4,4,0,0,0-.07.48.51.51,0,0,0,.86.35c.82-1,2-1.9,3.33-1.32a3.12,3.12,0,0,1,1.95,2.47l.91-.38c-.95-1.27-1.73-3-3.55-3.05s-2.88,1.35-3.55,2.76c-.27.58.59,1.09.86.51Z" transform="translate(-784.19 -486.59)"/><path class="cls-7" d="M851.69,512.74a3.06,3.06,0,0,1,2.28-1.13,3.63,3.63,0,0,1,2.47,1.49c.32.35,1,0,.84-.48a2.91,2.91,0,0,0-2.51-2.05,4,4,0,0,0-3.58,1l.79.61c.91-1.46,3-.78,4.08,0,.53.36,1-.51.5-.87-1.63-1.11-4.22-1.57-5.45.38-.31.51.38,1,.79.61,1.3-1.11,3.69-1.15,4.41.63l.84-.48a4.46,4.46,0,0,0-3.18-1.79,4.14,4.14,0,0,0-3,1.42c-.43.48.28,1.19.71.71Z" transform="translate(-784.19 -486.59)"/><path class="cls-9" d="M852.26,510.58l.21-.18-.39.37a4.35,4.35,0,0,1,3.87.12c-.17-.3-.35-.6-.55-.89a1.65,1.65,0,0,0-.51-.51,1.56,1.56,0,0,0-1.56.06,4.65,4.65,0,0,0-1.18,1.12" transform="translate(-784.19 -486.59)"/><path class="cls-9" d="M852.61,510.93l.21-.17-.71-.71-.39.37c-.44.42.12,1,.61.78a3.94,3.94,0,0,1,3.37.12.5.5,0,0,0,.68-.68c-.49-.85-1-1.83-2.15-1.84a3.35,3.35,0,0,0-2.43,1.52c-.41.49.3,1.2.71.71a3,3,0,0,1,1.39-1.18c.86-.23,1.26.68,1.62,1.29l.68-.68a5,5,0,0,0-4.38-.12l.61.78.39-.36c.47-.45-.22-1.13-.71-.71l-.2.17c-.49.42.22,1.13.7.71Z" transform="translate(-784.19 -486.59)"/><path class="cls-2" d="M853.2,508.59c-3.35,2.43-3,7.34-3,11,0,2.61.66,8.61,4.72,7.18,3.73-1.31,3.4-7.48,3-10.51-.26-2.16-1.13-8.82-4.66-7.76a.5.5,0,0,0,.27,1c1-.3,2,1.44,2.23,2.13s.4,1.14.56,1.71a20.25,20.25,0,0,1,.73,4.3c.15,2.31,0,9.47-3.73,7.87-2.63-1.11-2.18-5.41-2.13-7.9.06-2.8-.06-6.33,2.46-8.16.51-.37,0-1.24-.51-.86Z" transform="translate(-784.19 -486.59)"/><path class="cls-8" d="M851.59,531.65a4.6,4.6,0,0,0-.39,2,36.87,36.87,0,0,0,.46,7.42,4,4,0,0,0,.71,2,2.73,2.73,0,0,0,3.61.2,5.19,5.19,0,0,0,1.81-3.44,19.15,19.15,0,0,0-.11-5.29,12.12,12.12,0,0,0-.49-2.62,4.17,4.17,0,0,0-1.51-2.15,2.25,2.25,0,0,0-1.82-.39,2.46,2.46,0,0,0-1,.58,4.7,4.7,0,0,0-1.4,2.11" transform="translate(-784.19 -486.59)"/><path class="cls-8" d="M851.11,531.52c-.79,2.05-.48,4.59-.3,6.73.13,1.54.1,3.87,1.21,5.1,2.07,2.3,5.12.12,5.93-2.15a14.21,14.21,0,0,0,.28-6.29c-.18-1.69-.34-3.53-1.48-4.87-2.16-2.56-4.77-.67-5.77,1.83-.24.6.73.86,1,.26.72-1.78,2-2.77,3.9-1.65,1.07.66,1.2,2.88,1.34,4,.25,2,.54,4.23-.1,6.14s-3.25,3.77-4.87.63c-.47-.89-.36-2.42-.43-3.45-.14-1.89-.39-4.22.3-6,.23-.6-.74-.86-1-.27Z" transform="translate(-784.19 -486.59)"/><path class="cls-10" d="M851.63,532.34c.5-1.07,1.32-2.32,2.68-2.27s2,1.62,2.69,2.55a.5.5,0,0,0,.91-.38,4.15,4.15,0,0,0-2.74-3.23c-1.63-.63-3.2.36-4.21,1.63l.86.36,0-.21-1-.13a5.31,5.31,0,0,1-.09.79.5.5,0,0,0,.91.39c.48-.79,1-1.8,1.94-2.05,1.33-.34,2.43.73,3,1.78a.5.5,0,0,0,.87-.51,4,4,0,0,0-3.66-2.32c-1.52.12-2.31,1.41-3,2.59l.91.39a6.39,6.39,0,0,0,.13-1.06c0-.57-.86-.68-1-.14a3.93,3.93,0,0,0-.06.48.5.5,0,0,0,.85.35c.83-1.05,2-1.9,3.33-1.32a3.11,3.11,0,0,1,2,2.47l.91-.38c-1-1.27-1.73-3-3.55-3s-2.88,1.35-3.55,2.76c-.27.58.59,1.09.87.51Z" transform="translate(-784.19 -486.59)"/><path class="cls-7" d="M852,530.4a3.06,3.06,0,0,1,2.28-1.13,3.63,3.63,0,0,1,2.47,1.49c.32.35,1,0,.84-.48a2.91,2.91,0,0,0-2.51-2,4,4,0,0,0-3.58,1l.79.61c.91-1.46,3-.78,4.08,0,.53.36,1-.51.51-.87-1.64-1.11-4.23-1.57-5.45.38-.32.51.37,1,.78.61,1.3-1.11,3.69-1.15,4.41.63l.84-.48a4.43,4.43,0,0,0-3.18-1.79,4.1,4.1,0,0,0-3,1.42c-.42.48.28,1.19.71.71Z" transform="translate(-784.19 -486.59)"/><path class="cls-9" d="M852.56,528.24l.21-.18-.39.37a4.32,4.32,0,0,1,3.87.12,9.29,9.29,0,0,0-.55-.89,1.91,1.91,0,0,0-.5-.52,1.56,1.56,0,0,0-1.56.07,4.34,4.34,0,0,0-1.18,1.12" transform="translate(-784.19 -486.59)"/><path class="cls-9" d="M852.92,528.59l.2-.18-.71-.7-.38.37c-.45.42.11,1,.6.78A3.94,3.94,0,0,1,856,529a.5.5,0,0,0,.68-.68c-.49-.85-1-1.83-2.14-1.84A3.35,3.35,0,0,0,852.1,528c-.41.49.3,1.2.71.71a3.11,3.11,0,0,1,1.39-1.18c.87-.24,1.27.68,1.62,1.29l.69-.68a5,5,0,0,0-4.38-.12l.6.78.39-.37c.47-.44-.22-1.12-.71-.7l-.2.17c-.49.42.22,1.13.71.71Z" transform="translate(-784.19 -486.59)"/><path class="cls-2" d="M853.5,526.25c-3.34,2.43-3,7.34-3,11,0,2.61.66,8.61,4.72,7.18,3.73-1.31,3.4-7.48,3-10.51-.26-2.16-1.13-8.82-4.66-7.76a.5.5,0,0,0,.27,1c1-.3,2,1.44,2.23,2.13s.4,1.14.56,1.71a20.92,20.92,0,0,1,.74,4.3c.14,2.31,0,9.47-3.74,7.87-2.63-1.11-2.18-5.41-2.13-7.9.07-2.8-.06-6.33,2.46-8.16.51-.38,0-1.24-.51-.86Z" transform="translate(-784.19 -486.59)"/><path class="cls-8" d="M851.59,549.31a4.6,4.6,0,0,0-.39,2,36.87,36.87,0,0,0,.46,7.42,4,4,0,0,0,.71,2,2.73,2.73,0,0,0,3.61.2,5.21,5.21,0,0,0,1.81-3.44,19.15,19.15,0,0,0-.11-5.29,12.12,12.12,0,0,0-.49-2.62,4.17,4.17,0,0,0-1.51-2.15,2.25,2.25,0,0,0-1.82-.39,2.46,2.46,0,0,0-1,.58,4.7,4.7,0,0,0-1.4,2.11" transform="translate(-784.19 -486.59)"/><path class="cls-8" d="M851.11,549.18c-.79,2.05-.48,4.59-.3,6.73.13,1.54.1,3.87,1.21,5.1,2.07,2.3,5.12.12,5.93-2.16a14.16,14.16,0,0,0,.28-6.28c-.18-1.69-.34-3.53-1.48-4.87-2.16-2.56-4.77-.67-5.77,1.83-.24.6.73.86,1,.26.72-1.78,2-2.77,3.9-1.65,1.07.66,1.2,2.88,1.34,4,.25,2,.54,4.23-.1,6.14s-3.25,3.77-4.87.63c-.47-.89-.36-2.42-.43-3.45-.14-1.89-.39-4.22.3-6,.23-.61-.74-.87-1-.27Z" transform="translate(-784.19 -486.59)"/><path class="cls-10" d="M851.63,550c.5-1.07,1.32-2.32,2.68-2.27s2,1.62,2.69,2.55a.5.5,0,0,0,.91-.38,4.15,4.15,0,0,0-2.74-3.23c-1.63-.63-3.2.36-4.21,1.63l.86.36,0-.21-1-.14a5.29,5.29,0,0,1-.09.8.5.5,0,0,0,.91.39c.48-.79,1-1.81,1.94-2,1.33-.34,2.43.73,3,1.78a.5.5,0,0,0,.87-.51,4,4,0,0,0-3.66-2.32c-1.52.12-2.31,1.41-3,2.59l.91.39a6.38,6.38,0,0,0,.13-1.07c0-.56-.86-.67-1-.13a3.93,3.93,0,0,0-.06.48.5.5,0,0,0,.85.35c.83-1,2-1.9,3.33-1.32a3.11,3.11,0,0,1,2,2.47l.91-.38c-1-1.27-1.73-3-3.55-3s-2.88,1.35-3.55,2.76c-.27.58.59,1.09.87.51Z" transform="translate(-784.19 -486.59)"/><path class="cls-7" d="M852,548.06a3.06,3.06,0,0,1,2.28-1.13,3.63,3.63,0,0,1,2.47,1.49c.32.35,1,0,.84-.48a2.89,2.89,0,0,0-2.51-2.05,4,4,0,0,0-3.58,1l.79.61c.91-1.46,3-.78,4.08,0,.53.37,1-.5.51-.86-1.64-1.11-4.23-1.57-5.45.38-.32.51.37,1,.78.61,1.3-1.11,3.69-1.15,4.41.63l.84-.48a4.43,4.43,0,0,0-3.18-1.79,4.1,4.1,0,0,0-3,1.42c-.42.48.28,1.19.71.71Z" transform="translate(-784.19 -486.59)"/><path class="cls-9" d="M852.56,545.9l.21-.18-.39.37a4.32,4.32,0,0,1,3.87.12,8.2,8.2,0,0,0-.55-.89,1.91,1.91,0,0,0-.5-.52,1.56,1.56,0,0,0-1.56.07,4.34,4.34,0,0,0-1.18,1.12" transform="translate(-784.19 -486.59)"/><path class="cls-9" d="M852.92,546.25l.2-.18-.71-.7-.38.37c-.45.42.11,1,.6.78a3.94,3.94,0,0,1,3.37.12.5.5,0,0,0,.68-.68c-.49-.85-1-1.83-2.14-1.84a3.35,3.35,0,0,0-2.44,1.52c-.41.49.3,1.2.71.71a3.11,3.11,0,0,1,1.39-1.18c.87-.24,1.27.68,1.62,1.29l.69-.68a5,5,0,0,0-4.38-.12l.6.78.39-.37c.47-.44-.22-1.12-.71-.7l-.2.17c-.49.42.22,1.13.71.71Z" transform="translate(-784.19 -486.59)"/><path class="cls-2" d="M853.5,543.91c-3.34,2.43-3,7.34-3,11,0,2.61.66,8.61,4.72,7.18,3.73-1.31,3.4-7.48,3-10.51-.26-2.16-1.13-8.82-4.66-7.76a.5.5,0,0,0,.27,1c1-.3,2,1.44,2.23,2.13s.4,1.14.56,1.71a20.92,20.92,0,0,1,.74,4.3c.14,2.31,0,9.47-3.74,7.87-2.63-1.12-2.18-5.41-2.13-7.91.07-2.79-.06-6.32,2.46-8.15.51-.38,0-1.24-.51-.86Z" transform="translate(-784.19 -486.59)"/><path class="cls-8" d="M852.19,567a4.6,4.6,0,0,0-.39,1.95,36.87,36.87,0,0,0,.46,7.42,4,4,0,0,0,.71,2,2.74,2.74,0,0,0,3.61.2,5.26,5.26,0,0,0,1.82-3.44,19.55,19.55,0,0,0-.12-5.29,12.12,12.12,0,0,0-.49-2.62,4.13,4.13,0,0,0-1.5-2.15,2.27,2.27,0,0,0-1.83-.39,2.46,2.46,0,0,0-1,.58,4.78,4.78,0,0,0-1.4,2.11" transform="translate(-784.19 -486.59)"/><path class="cls-8" d="M851.71,566.84c-.79,2-.48,4.59-.3,6.73.14,1.54.1,3.87,1.21,5.1,2.07,2.3,5.12.11,5.93-2.16a14.16,14.16,0,0,0,.28-6.28c-.18-1.69-.34-3.53-1.48-4.87-2.16-2.57-4.77-.68-5.77,1.83-.24.59.73.85,1,.26.72-1.78,2.05-2.77,3.9-1.65,1.07.66,1.21,2.88,1.34,4,.25,2,.54,4.23-.1,6.14s-3.25,3.77-4.87.63a10,10,0,0,1-.43-3.45c-.14-1.89-.39-4.22.3-6,.23-.61-.74-.87-1-.27Z" transform="translate(-784.19 -486.59)"/><path class="cls-10" d="M852.23,567.66c.5-1.07,1.32-2.32,2.68-2.27s2,1.62,2.69,2.55a.5.5,0,0,0,.92-.38,4.18,4.18,0,0,0-2.74-3.23c-1.64-.63-3.21.36-4.22,1.63l.86.35,0-.2-1-.14a5.29,5.29,0,0,1-.09.8.5.5,0,0,0,.92.38c.47-.78,1-1.8,1.93-2,1.33-.35,2.43.73,3,1.78a.5.5,0,0,0,.87-.51,4,4,0,0,0-3.66-2.32c-1.52.11-2.31,1.41-3,2.59l.92.39a7.62,7.62,0,0,0,.12-1.07c0-.56-.85-.67-1-.13a2.67,2.67,0,0,0-.07.47.5.5,0,0,0,.85.36c.83-1,2-1.9,3.34-1.32a3.09,3.09,0,0,1,1.94,2.47l.91-.38c-1-1.27-1.72-3-3.55-3.05s-2.88,1.35-3.55,2.76c-.27.58.59,1.09.87.51Z" transform="translate(-784.19 -486.59)"/><path class="cls-7" d="M852.59,565.72a3.08,3.08,0,0,1,2.28-1.13,3.63,3.63,0,0,1,2.47,1.49c.33.35,1,0,.84-.48a2.87,2.87,0,0,0-2.51-2.05,4,4,0,0,0-3.57,1l.78.61c.91-1.46,3-.78,4.08,0,.54.37,1-.5.51-.86-1.64-1.11-4.23-1.57-5.45.38-.32.51.37,1,.78.61,1.31-1.11,3.69-1.15,4.41.63l.84-.49a4.45,4.45,0,0,0-3.18-1.78,4.06,4.06,0,0,0-3,1.42c-.43.48.27,1.19.7.71Z" transform="translate(-784.19 -486.59)"/><path class="cls-9" d="M853.16,563.56l.21-.18-.39.37a4.32,4.32,0,0,1,3.87.12,8.2,8.2,0,0,0-.55-.89,1.91,1.91,0,0,0-.5-.52,1.56,1.56,0,0,0-1.56.07,4.49,4.49,0,0,0-1.18,1.12" transform="translate(-784.19 -486.59)"/><path class="cls-9" d="M853.52,563.91l.2-.18-.7-.7-.39.36c-.45.43.12,1,.6.79a3.94,3.94,0,0,1,3.37.12.5.5,0,0,0,.69-.68c-.49-.85-1-1.83-2.15-1.84a3.32,3.32,0,0,0-2.44,1.52c-.41.49.3,1.2.71.71a3.08,3.08,0,0,1,1.4-1.18c.86-.24,1.26.68,1.61,1.29l.69-.68a5,5,0,0,0-4.38-.12l.6.78.39-.37c.47-.44-.22-1.12-.7-.7l-.21.17c-.49.42.22,1.13.71.71Z" transform="translate(-784.19 -486.59)"/><path class="cls-2" d="M854.1,561.57c-3.34,2.43-3,7.34-3,11,0,2.61.66,8.61,4.73,7.18,3.72-1.31,3.39-7.48,3-10.51-.27-2.16-1.14-8.82-4.67-7.77a.5.5,0,0,0,.27,1c1-.3,2,1.44,2.23,2.13a17.08,17.08,0,0,1,.56,1.71,20.92,20.92,0,0,1,.74,4.3c.14,2.31,0,9.47-3.74,7.87-2.63-1.12-2.18-5.41-2.13-7.91.07-2.79-.06-6.32,2.46-8.15.51-.38,0-1.24-.51-.86Z" transform="translate(-784.19 -486.59)"/><path class="cls-6" d="M848.54,487c-1.59.26-1,2-.33,2.85l.35-.86c-.87.11-2.14-.84-2.48.59a1.25,1.25,0,0,0,.33,1.19,1.65,1.65,0,0,0,.45.29c.18.08.77.07.9.24l.1-.79c-.84.41-2.37.85-2,2.14.37,1.14,1.7.92,2.49.44.55-.34.05-1.2-.5-.86l-.69-.36.62-.25c.19-.08.36-.15.55-.25a.51.51,0,0,0,.1-.78c-.31-.38-.83-.15-1.08-.39l-.06-.45.55.2a1.73,1.73,0,0,0,.68,0,.5.5,0,0,0,.35-.85.79.79,0,0,1-.11-1.18c.64-.1.37-1.07-.26-1Z" transform="translate(-784.19 -486.59)"/><path class="cls-6" d="M847.82,487.82a1.22,1.22,0,0,0-.19,1l.93-.25c.23-.35.46-.37.7-.09l.51-.86-.84-.44-.38.91a3.23,3.23,0,0,1,1,.58l.12-.91c-.92.32-1.84.75-1.34,1.85.2.42.78.24.91-.12.21-.56.59-1.79-.45-1.75-.88,0-.8,1-.5,1.54a.5.5,0,0,0,.78.11c1.6-1.57-1.52-2.49-1.14-.71a.51.51,0,0,0,.35.35c.76.23,1-.2,1.48-.75L849,488a9.81,9.81,0,0,1-.73,1.19,5.18,5.18,0,0,0-.32,1.91A13.31,13.31,0,0,0,848,493a6.32,6.32,0,0,0,.17,1c.36,1.1-.14-.14.25-.4l-.75-.43a2.52,2.52,0,0,0,.06,1.19.51.51,0,0,0,.84.23l.06-.07a.5.5,0,0,0,.08-.6l0-.09-.86.51.08.18a.47.47,0,0,0,.43.24h.2a.51.51,0,0,0,.5-.5.78.78,0,0,0-.24-.61.52.52,0,0,0-.71,0l-.08.08a.52.52,0,0,0,0,.71l.06.07.61-.79-.36-.17a.51.51,0,0,0-.76.43,1.23,1.23,0,0,0,1.32,1.28.51.51,0,0,0,.44-.76,2.78,2.78,0,0,0-.71-.78c-.48-.4-1.18.26-.7.71l.3.29c.47.44,1.17-.26.71-.71s-.41-1.86-.49-2.45l-.36.48.26,0c.63-.12.36-1.08-.27-1l-.26.05a.51.51,0,0,0-.37.48c.14,1,0,2.4.78,3.16l.71-.71-.31-.29-.7.71.54.58.43-.75-.32-.28-.75.44.36.17a.51.51,0,0,0,.61-.79l-.06-.07v.71l.08-.08h-.71l-.05-.1.5-.5.15.07c-.27-.58-1.11-.07-.86.51l0,.08.07-.6-.06.06.83.22,0-.93a.5.5,0,0,0-.75-.43c-1.91,1.26.33,3.83,1.43,2.59.24-.28.17-.44.12-.77a20,20,0,0,1-.56-2.71,7.49,7.49,0,0,1,0-1.16,4.44,4.44,0,0,1,.81-1.92,1,1,0,0,0,.18-1,.5.5,0,0,0-.83-.22,10.51,10.51,0,0,0-.7,1.11l.79.1c-.54-.18-.83,0-.87.44l.91-.12a1.5,1.5,0,0,1,.74-.38.5.5,0,0,0,.12-.91,4.77,4.77,0,0,0-1.28-.68c-.53-.21-.88.65-.38.91l.83.44a.5.5,0,0,0,.51-.86c-1.23-.81-3.26-.19-2.07,1.45.25.35,1,.3.93-.25l.06-.47c.29-.58-.57-1.08-.87-.51Z" transform="translate(-784.19 -486.59)"/><path class="cls-6" d="M847.74,490.92c-.92,0-1.08,1.23-.42,1.71a.84.84,0,0,0,1.25-1c-.24-.7-1.44-.91-1.73-.13s.9,1.3,1.51.89a1,1,0,0,0-.2-1.81c-.73-.19-1.4.88-.65,1.27.91.47,1.21-1.17,1.22-1.73,0-.72-.55-1.62-1.4-1.25a1.1,1.1,0,0,0,.06,1.91c.85.31,1.39-1.07.77-1.58a.51.51,0,0,0-.71,0,1.36,1.36,0,0,0-.36,1.23.89.89,0,0,0,.89.69.73.73,0,0,0,0-1.45.51.51,0,0,0-.5.5.8.8,0,0,0,.14.52.51.51,0,0,0,.68.18c.75-.38.77-1.63-.23-1.63s-.85,1.48.08,1.51,1.39-1.11.63-1.6-1.53.62-1.06,1.32a.51.51,0,0,0,.69.18.7.7,0,0,0,.36-.52c.1-.63-.86-.9-1-.27l0,.14.23-.29-.12.08.69.18-.24-.18-.05.38-.5-.17.68.18h0l-.5.5.12,0-.36-.15a1.71,1.71,0,0,0,.44-.63h-.71c0-.1,0-.11-.05,0s0,.07,0,0l.38-.05c0-.12,0-.07-.09.13a2,2,0,0,1,0,.35,3.63,3.63,0,0,1-.1.45c-.1.26-.13.33-.08.22l.38,0-.08,0,.35.35-.45.25,0,.38,0-.13-.23.3.16-.17c.64,0,.64-1,0-1Z" transform="translate(-784.19 -486.59)"/><path class="cls-6" d="M859.83,487.21a1.29,1.29,0,0,0-1.59,1.81.92.92,0,0,0,1.18.34,1.46,1.46,0,0,0,.73-1.42c0-1.4-1.7-1.21-1.76.08,0,.49.12,1.1.69,1.19a1,1,0,0,0,1.08-.92c.14-1.33-1.94-1-1.46.14s2.14.12,1.65-.93a.79.79,0,0,0-1.1-.35,1.21,1.21,0,0,0-.4,1.52c.51,1.17,2-.21,1.53-1.18-.59-1.31-2.49-.38-2.23.89a.93.93,0,0,0,1.34.6,1.53,1.53,0,0,0,.85-1.56.51.51,0,0,0-.75-.43c-.72.35-.85,1.69,0,1.95a.69.69,0,0,0,.56-1.26.5.5,0,0,0-.5,0c-.79.48-1.59,2-.49,2.65a.85.85,0,0,0,1.19-.36c.24-.54-.19-1-.61-1.26a.51.51,0,0,0-.69.18l-.13.31.91.39a5.88,5.88,0,0,0,.1-.94.5.5,0,0,0-1,0c0,.65-.07,2.31,1,2a.87.87,0,0,0,.61-.82,1,1,0,0,0-.17-.59c-.14-.24-.55-.51-.56-.79l-.5.5h.38l-.48-.63c-.23.63-.46,1.76.32,2.12s1.36-.27,1.59-.94c.16-.5-.49-.8-.84-.49a1.24,1.24,0,0,0-.24,1.59.51.51,0,0,0,.79.1,1.08,1.08,0,0,0-.16-1.73.52.52,0,0,0-.69.18c-.35.5-.55,1.32.14,1.66s1.07-.17,1.3-.64c.67-1.4-1.61-1.9-1.71-.39a1.45,1.45,0,0,0,.88,1.42c.63.13,1.12-.67,1.19-1.19a1,1,0,0,0-1-1.15c-.74.06-1.08.88-1.24,1.49a.51.51,0,0,0,.84.49c.88-.78-.77-1.79-1.13-.66a.9.9,0,0,0,.59,1.07c.62.19,1.24-.42,1.71-.73s0-1.23-.51-.87l-.5.34-.2.14c-.17.08-.22.23-.16.46l-.38.05.12,0-.3-.23v0l.14-.36-.09.08.84.49a2.76,2.76,0,0,1,.16-.51c-.07,0-.11,0-.13.13l.39.05-.08,0c0-.26-.12-.39-.32-.41s-.15,0,0,0,.22,0,.26-.18l-.69.18,0,.17.78.1a.25.25,0,0,1,.09-.38l-.84-.49c-.14.41-.18.31-.13-.06a3,3,0,0,1,.15-.59.5.5,0,0,0-.48-.63h-.38a.52.52,0,0,0-.5.5,1.39,1.39,0,0,0,.46,1,.57.57,0,0,0,.4.23c.26.18.33.13.22-.14a6.79,6.79,0,0,0,0-.9h-1a3.79,3.79,0,0,1-.06.67c-.09.51.67.95.91.39l.14-.31-.69.18q.24.3.3-.09a1,1,0,0,0,.17-.44,1.09,1.09,0,0,1,.45-.5h-.5l.08.05-.23-.29.57-.45-.75-.44c0,.18-.11.39-.1.51s-.33.24.17.18l.36.15c.05.07,0,.08-.17,0l-.38,0c.18,0,.24-.14.17-.32s-.29-.12-.25.1a.41.41,0,0,0,0,.36.41.41,0,0,1,.19-.41c.59.27,1.09-.59.51-.86Z" transform="translate(-784.19 -486.59)"/><path class="cls-6" d="M860.77,491c-1.17.14-1.72,2.14-.52,2.68,1,.45,2.23-1,1.51-1.87s-2.32-.63-2,.71a.91.91,0,1,0,1.79-.36c-.24-1.1-1.77-1.09-1.67.13a1,1,0,0,0,1.94-.05c-.05-1.27-2-1-1.61.2a.9.9,0,1,0,1.69-.63c-.57-1.2-2.44,0-1.46.94s1.83-1,.4-1.6a.5.5,0,0,0-.49.13,1.68,1.68,0,0,0-.21.18l.49-.13,0-.76-1-.13v1.45a.5.5,0,0,0,1,0,5,5,0,0,0,0-.95l-1,.13.09.59,1-.27a11.16,11.16,0,0,0-1.28-2.35.5.5,0,0,0-.87.51c.47.93,1.26,2.23.75,3.28l.91.38q.12-.39.27-.78c.22-.57-.6-.8-.91-.38a5.22,5.22,0,0,0-.69,1.27c-.21.53.64.87.91.38l.36-.64-.91-.39-.32,1.24c-.13.53.67.92.91.39a1.85,1.85,0,0,0,.2-.73c.06-.53-.69-.64-.93-.25a2.07,2.07,0,0,0-.35,1.18.5.5,0,0,0,.93.25,1.67,1.67,0,0,0,.19-1.44.5.5,0,0,0-.83-.22c-.41.44-.79,1-.36,1.62a.82.82,0,0,0,1.28.07c.82-.93-.81-2.23-1.39-.79a.91.91,0,1,0,1.67.64,1,1,0,0,0-.69-1.25c-.67-.09-.78.64-.9,1.12a.5.5,0,0,0,.35.62c.76.18,2.06-.62,1.36-1.5a.74.74,0,0,0-.95-.14c-.45.27-.41.79-.28,1.22a.51.51,0,0,0,.84.22,1.05,1.05,0,0,0,.42-1,.5.5,0,0,0-.93-.25,1,1,0,0,0-.2.77.5.5,0,0,0,.63.48.79.79,0,0,0,.33-1.44.51.51,0,0,0-.85.36,1.28,1.28,0,0,0,.19.69.5.5,0,0,0,.78.1l.08-.08a.49.49,0,0,0,.08-.6l-.07-.1c-.38-.5-1.25,0-.86.51l.07.09.08-.61-.09.09.79.1-.05-.19-.85.35.1-.23.64.48.06-.27-.93-.25-.13.32.83.22-.83-.28.35.61a3,3,0,0,1,.16-.55l-.49.12.46-.55-.83-.22-.09.68.93.25.21-.68-.93-.25-.06.22.91.39.32-1.24a.5.5,0,0,0-.91-.39l-.36.65.91.39a4.44,4.44,0,0,1,.59-1l-.91-.38a5.13,5.13,0,0,0-.27.78c-.17.53.66.9.91.38.72-1.46-.07-2.95-.74-4.29l-.87.51a9.5,9.5,0,0,1,1.18,2.11.5.5,0,0,0,1-.27l-.1-.58c-.08-.55-1-.43-1,.13a5,5,0,0,1,0,.95h1v-1.45c0-.55-.86-.7-1-.14-.2.94.21,2.64,1.37,1.68l-.48.13,0,.08.44-.25a.48.48,0,0,0-.23.69c-.26-.19-.29-.4-.08-.63.63-.07.64-1.07,0-1Z" transform="translate(-784.19 -486.59)"/><path class="cls-6" d="M859.54,493.68l.25.2c-.29.47-.35.54-.18.22s.26-.48.38-.72a4.31,4.31,0,0,0,.55-1.26c.14-1-.75-2.12-1.19-2.95-.31-.57-1.17-.06-.87.51a4.36,4.36,0,0,1,.92,2.66c-.09.56-.65,1.14-.85,1.68a1.07,1.07,0,0,0,.37,1.44,1.69,1.69,0,0,0,1.85-.57c.57-.71.07-1.45-.53-1.92s-1.21.3-.7.71Z" transform="translate(-784.19 -486.59)"/><path class="cls-6" d="M860.59,491.9c.22-.1.4.11.45.29s0,.51-.09.46c-.48-.44-1.19.27-.71.7.85.77,1.85-.11,1.82-1.08a1.39,1.39,0,0,0-2-1.24c-.58.26-.07,1.12.51.87Z" transform="translate(-784.19 -486.59)"/><path class="cls-2" d="M849,488.15c-1.44.55,0,2.23.75,1.15s-1.45-1.84-1.56-.42,2.11,1.14,1.66-.1-2.38.13-.9,1.37l.35-.85c-.65.07-2.43.15-1.68,1.31.39.6,1.56.63,1.56-.26s-1.17-1-1.56-.35c-.52.84.6,1.56,1.28,1a.5.5,0,0,0,0-.86c-.59-.33-1.19-.27-1.42.43a.5.5,0,0,0,.13.49c1,.87,2.1-.5,1-1.21a.5.5,0,0,0-.5,0c-1.25.67-.1,1.78.91,1.71l-.13-1c-.82.2-1.92,1.32-.89,2.06a.7.7,0,0,0,1-.95.92.92,0,0,0-1.62.61c.1,1.07,1.48.7,1.72-.1a.47.47,0,0,0-.12-.48,1,1,0,0,0-1.73.38.51.51,0,0,0,.49.64c.5.05,1.07-.08,1.19-.65a.82.82,0,0,0-.54-.95c-1-.24-1.37,1.21-.65,1.72s1.95-.58,1.17-1.34a.86.86,0,0,0-1.21,0,1.17,1.17,0,0,0,0,1.52.5.5,0,0,0,.68.18c1.16-.54.76-2.23-.53-1.76s-.55,2.49.61,1.75c.93-.58.47-2.39-.72-1.93a1.05,1.05,0,0,0-.55,1.37,1.76,1.76,0,0,0,1.71.88l-.36-.86c-.41.39-.79,1.12-.28,1.62s.88.2,1.16-.21a.51.51,0,0,0-.43-.75.76.76,0,0,0-.57,1.37.54.54,0,0,0,.49.13c.7-.23,1-1.23.13-1.53a.88.88,0,0,0-1,1.33.79.79,0,0,0,1.45-.49,1.14,1.14,0,0,0-1.76-.95c-.69.57-.14,1.56.6,1.74a1.07,1.07,0,0,0,1.26-1.46.88.88,0,0,0-1.62.07c-.29,1,.86,1.55,1.65,1.33a.5.5,0,0,0-.26-1l-.73-.05.49.13-.14.34-.43-.75-.12.17.43-.25-.22,0,.43.25.17-.35a.5.5,0,0,0-.35-.85,3.89,3.89,0,0,1-1-.17l.68.18,0-.36h-.51l-.35-.47.48.63,0,0-.13-.48,1-.39a.51.51,0,0,0-.13-1,.33.33,0,0,0-.41.15h-.5l.21.14-.25-.44.26-.06.13.49,0,.16v-.86l-.15.42v-.5c-.22.41,1,.2,1,.2.38-.05.73-.55.36-.86l-.3-.18-.49-.12.41-.47v.45c.59-.23.34-1.2-.27-1Z" transform="translate(-784.19 -486.59)"/><path class="cls-2" d="M848.94,489.67c0,.22-.32.82-.39,1a4.92,4.92,0,0,0-.25.91,4.16,4.16,0,0,0,.06,1.79c.15.64,1.06.35,1-.27a4.42,4.42,0,0,1,.24-3l-.91-.39a5.86,5.86,0,0,0,.19,4.68l.87-.51-.09-.17a.5.5,0,0,0-1,.26,1.23,1.23,0,0,0,.19.42.5.5,0,0,0,.87-.51,4.86,4.86,0,0,1-.1-3.9c.21-.53-.64-.87-.91-.38a5.49,5.49,0,0,0-.34,3.75l1-.27a3.82,3.82,0,0,1,.24-2.31,2.49,2.49,0,0,0,.35-1.41c-.11-.63-1.07-.36-1,.27Z" transform="translate(-784.19 -486.59)"/><path class="cls-2" d="M849,489.75a1.47,1.47,0,0,0-1.28-.22.91.91,0,0,0-.56,1.07c.17.78,1.46,1.61,1.93.62.28-.58-.58-1.09-.86-.51.11-.07.1-.14,0-.19s-.06-.17-.09-.1.31.16.38.2a.5.5,0,0,0,.5-.87Z" transform="translate(-784.19 -486.59)"/><path class="cls-2" d="M848.44,489a1.63,1.63,0,0,0,.12,1.26c.28.58,1.14.07.86-.5a.66.66,0,0,1,0-.5c.19-.61-.78-.88-1-.26Z" transform="translate(-784.19 -486.59)"/><path class="cls-2" d="M858.85,488.91a.55.55,0,0,0-.62.42l.86.51c.4-.59.53-1.93-.58-1.78-.86.11-.79,1.18-.36,1.69a.5.5,0,0,0,.48.13.94.94,0,0,0,.47-1.63c-.67-.52-1.36.24-1.32.92.13,2.18,3.23-.58,1.32-1.26s-1,3.65.58,1.5a.81.81,0,0,0-.55-1.35c-1.17-.1-1,1.3-.72,2a.51.51,0,0,0,.69.18.94.94,0,0,0,.16-1.63c-.26-.21-.78-.19-.84.22-.14,1,.24,2.48,1.53,2.33,1-.1,1.39-1.53.36-1.89s-1.53.76-1.17,1.53a.9.9,0,0,0,1.73-.37,1,1,0,0,0-1.84-.69c-.52.71.11,1.94,1,1.52s.54-1.81-.33-2-1.24,1.23-.87,1.85c.52.87,2.06.4,1.63-.64s-1.81-.34-1.47.65a.5.5,0,0,0,.62.35,1,1,0,0,0,.75-1c0-.46-.73-.72-.93-.25a1.2,1.2,0,0,0-.15.76.5.5,0,0,0,.63.48.7.7,0,0,0,.18-1.33.51.51,0,0,0-.69.18c-.38.85-.52,1.75.4,2.28a.51.51,0,0,0,.68-.18,1.12,1.12,0,0,0-.37-1.65.53.53,0,0,0-.69.18,1.8,1.8,0,0,0-.24,1.75.52.52,0,0,0,.74.3c1-.43,1.26-2.19-.17-2-1.07.13-1.26,2-.08,2.09a1.12,1.12,0,0,0,.47-2.08,1,1,0,0,0-1.23.45c-.38.65,0,1.31.51,1.78a.51.51,0,0,0,.7,0,1.09,1.09,0,0,0,0-1.8.52.52,0,0,0-.86.36,1,1,0,0,0,.89,1.15.51.51,0,0,0,.62-.61,1.26,1.26,0,0,0-.52-.88.51.51,0,0,0-.79.1c-.31.54-.19,1.6.7,1.36s.62-1.37.21-1.86a.51.51,0,0,0-.61-.07c-.89.5-1.16,2.59.24,2.52s.87-2-.4-1.78c-1,.19-1.92,2.43-.81,3s1.71-1.08.78-1.72a.51.51,0,0,0-.61.08,1,1,0,0,0,.06,1.49.52.52,0,0,0,.84-.22.94.94,0,0,0-.24-1.07.52.52,0,0,0-.61-.08c-.57.3-1.18,1.11-.44,1.64s1.34-.58,1.4-1.21a.5.5,0,0,0-.37-.48c-1.14-.41-1.66.81-1.11,1.68a.53.53,0,0,0,.57.23,1.15,1.15,0,0,0,.34-2.17.51.51,0,0,0-.61.07,1.1,1.1,0,0,0,.19,1.75.5.5,0,0,0,.6-.08l.18-.14a.48.48,0,0,0,.13-.48l0-.21a.5.5,0,0,0-.35-.35l-.2-.06a.52.52,0,0,0-.56.23,1.13,1.13,0,0,0-.14,1.21.5.5,0,0,0,.73.29c1.82-1.18-.49-2.85-1-1.28-.16.52.47.76.83.48a2.05,2.05,0,0,0,.65-.81.51.51,0,0,0-.18-.68l-.19-.13c-.53-.37-1,.5-.51.86l.19.13-.18-.68a1.05,1.05,0,0,1-.48.61l.83.48-.51.16.73.3,0-.44-.56.23-.11-.08.13-.48-.18.14.6-.08,0-.18-.61.08-.1.34.57.23,0-.21-.36-.48-.23.42h.5l.27,0-.6-.08V494l.83-.22-.06-.07-.61.08a15.44,15.44,0,0,1,1.21-2l-.61-.08V492l.49-.13.16.1-.78.11.26.43.62-.61-.16-.19-.85.35,0,.38h.7l-.71-.38.74.3.14-1-.69.18,0,.27.68-.17,0-.91-.69.18.06-.5.64.48v-.26l-.93-.25,0,.08.62.35-.62-1.74-.83.22,0,.05.69.18c0-.37-.15-.55-.41-.53h-.5v-.1l.48.13-.62.29c-.37.53.49,1,.86.51s.9-1.48.06-1.94c-.62-.34-1.09.18-1.26.74s.77.88,1,.27Z" transform="translate(-784.19 -486.59)"/><path class="cls-2" d="M859.15,493.38c.26.27.31.31.05.57-.1.1-.4.42-.5.2-.29-.57-1.15-.07-.87.51a1.21,1.21,0,0,0,1.92.15,1.67,1.67,0,0,0,.64-1,1.37,1.37,0,0,0-.54-1.16.5.5,0,0,0-.7.7Z" transform="translate(-784.19 -486.59)"/><path class="cls-2" d="M859.56,491.58l.32.29c.24.18.23.36,0,.54l.25.43c0-.92.28-2.33-.61-2.93a.5.5,0,0,0-.75.44,9.36,9.36,0,0,1-.53,3.39l1,.26c.18-1,.69-2.43-.24-3.26-.48-.43-1.19.28-.7.71s.08,1.66,0,2.29a.5.5,0,0,0,1,.26,10.29,10.29,0,0,0,.56-3.65l-.76.43c.19.12.11.68.11.84v1.22a.48.48,0,0,0,.25.43,1.23,1.23,0,0,0,1.62-.44c.43-.74-.16-1.49-.69-2s-1.19.28-.71.71Z" transform="translate(-784.19 -486.59)"/><path class="cls-8" d="M850,488.57l-.67,1.64a6,6,0,0,0-.51,1.74,3.15,3.15,0,0,0,.54,2.06.67.67,0,0,1,.15.29c0,.25-.19.44-.36.62a2.82,2.82,0,0,0-.4,3,8.28,8.28,0,0,0,1.93,2.56,3,3,0,0,1,6,.71l1.74-2.09c.69-.83,1.43-1.83,1.19-2.88-.16-.7-.73-1.25-1-1.93-.39-1.1.16-2.3.12-3.47a7.1,7.1,0,0,0-.83-2.67,2.59,2.59,0,0,0-.61,2.5,7.88,7.88,0,0,1,.31,2.67,3.13,3.13,0,0,1-1.76,2.18,4.8,4.8,0,0,1-2.85.32,3.23,3.23,0,0,1-2.28-1.26,4.44,4.44,0,0,1-.2-3.08,3.68,3.68,0,0,0-.43-3l.09.35" transform="translate(-784.19 -486.59)"/><path class="cls-8" d="M849.55,488.44c-.55,1.34-1.38,2.79-1.18,4.3,0-.19.55,1.76.59,1.52-.05.34-.46.65-.59.92-1,2.25.48,4.12,2,5.67a.5.5,0,0,0,.84-.22,2.57,2.57,0,0,1,5,.58c0,.38.55.72.85.35,1.31-1.56,3.67-3.49,2.93-5.78-.13-.4-.43-.7-.56-1.08-.79-2.27-.07-2.25-.13-3.86a8,8,0,0,0-.9-2.93.51.51,0,0,0-.79-.1,2.91,2.91,0,0,0-.79,1.83,11.12,11.12,0,0,0,.06,1.16,2.2,2.2,0,0,1-.8,2.69c-.19,1.51-1,2.16-2.3,1.92-4.32-.14-1.7-4.83-3.2-7.19a.5.5,0,0,0-.91.39l.09.35a.5.5,0,0,0,1-.27l-.09-.35-.91.39c1.2,1.89-.55,4.19.63,6.1a4.11,4.11,0,0,0,3.43,1.58,4.52,4.52,0,0,0,3.67-1.47c1.6-2-.61-4.6.87-6.42l-.79-.1a6.91,6.91,0,0,1,.6,4,5.11,5.11,0,0,0,0,1.56,5.85,5.85,0,0,1,.21,3c-.26,2-.77,2.43-2,3.87l.85.35a3.53,3.53,0,0,0-6.94-.84l.84-.22a11.79,11.79,0,0,1-1.49-1.75,2.54,2.54,0,0,1,.21-3.41,3.48,3.48,0,0,0,.24-.62c.05-.26-.2-.37-.21-.62a3.72,3.72,0,0,1,0-3.41l.66-1.64c.25-.59-.72-.85-1-.26Z" transform="translate(-784.19 -486.59)"/><path class="cls-2" d="M851.78,495.07c1.3-1.21,3.27-1.82,4.67-.41a.5.5,0,0,0,.71-.71c-1.79-1.8-4.38-1.17-6.08.41-.48.44.23,1.15.7.71Z" transform="translate(-784.19 -486.59)"/><path class="cls-7" d="M848.6,487.8a2.58,2.58,0,0,0,1.27,1.19.51.51,0,0,0,.68-.69,2.42,2.42,0,0,0-1.17-1.13c-.48-.21-1.08.39-.61.79L850,489l.22-.84c-.58.11-.94-.59-1.18-1a.5.5,0,0,0-.87.51c.52.87,1.21,1.66,2.32,1.46a.51.51,0,0,0,.22-.84l-1.24-1.05-.61.79a1.54,1.54,0,0,1,.82.77l.68-.69a1.66,1.66,0,0,1-.9-.83c-.3-.57-1.17-.06-.87.51Z" transform="translate(-784.19 -486.59)"/><path class="cls-7" d="M857.65,489a3.42,3.42,0,0,0,1.77-1.31c.26-.35-.16-.86-.56-.73a3.07,3.07,0,0,0-1.48,1,.5.5,0,0,0,.71.71,7.94,7.94,0,0,1,1.08-.83c.54-.35,0-1.21-.5-.86a9.52,9.52,0,0,0-1.29,1l.71.71a2.13,2.13,0,0,1,1-.74l-.56-.73a2.23,2.23,0,0,1-1.18.84c-.61.2-.34,1.16.27,1Z" transform="translate(-784.19 -486.59)"/><path class="cls-11" d="M851.84,495.19a2.57,2.57,0,0,1-1.25-2.29c0-.91.2-1.81.25-2.72a3.09,3.09,0,0,0-.81-2.51,2.45,2.45,0,0,0-1-.5,1.57,1.57,0,0,0-.86,0,1.08,1.08,0,0,0-.77,1,.76.76,0,1,1-.8.82,1.23,1.23,0,0,0-.41,1.45,1.39,1.39,0,0,0,1.31.81,1.27,1.27,0,0,0-1.3.59,1.19,1.19,0,0,0,.17,1.41,1.12,1.12,0,0,0,1.4.1,1,1,0,0,0-.65,1.22,1,1,0,0,0,1.17.72" transform="translate(-784.19 -486.59)"/><path class="cls-2" d="M848.52,494.86c-1.95,1.31-.34,3.22.55,4.67a6.33,6.33,0,0,0,1.58,2.11,6.25,6.25,0,0,0,2.85.49c.64.06.64-.94,0-1-1.27-.1-2.28-.09-3-1.24-.48-.73-2.55-3.41-1.44-4.16.53-.36,0-1.23-.5-.87Z" transform="translate(-784.19 -486.59)"/><path class="cls-11" d="M856.16,495.19a2.56,2.56,0,0,0,1.24-2.29c0-.91-.19-1.81-.24-2.72a3.09,3.09,0,0,1,.8-2.51,2.52,2.52,0,0,1,1-.5,1.61,1.61,0,0,1,.87,0,1.09,1.09,0,0,1,.77,1,1.12,1.12,0,0,1-.67,1.06,1.09,1.09,0,0,1,1.46-.24,1.23,1.23,0,0,1,.41,1.45,1.39,1.39,0,0,1-1.3.81,1.28,1.28,0,0,1,1.3.59,1.21,1.21,0,0,1-.18,1.41,1.1,1.1,0,0,1-1.39.1,1.05,1.05,0,0,1,.65,1.22,1,1,0,0,1-1.18.72" transform="translate(-784.19 -486.59)"/><path class="cls-2" d="M859,495.73c1.11.74-1,3.43-1.44,4.16A1.89,1.89,0,0,1,856,501a11.29,11.29,0,0,1-1.54.13c-.64.06-.65,1.06,0,1a6.93,6.93,0,0,0,2.69-.41,5.67,5.67,0,0,0,1.74-2.19c.89-1.45,2.49-3.36.55-4.67-.54-.36-1,.51-.51.87Z" transform="translate(-784.19 -486.59)"/><path class="cls-2" d="M851.46,495.59a5.35,5.35,0,0,0,5.31-.08.5.5,0,0,0-.51-.87,4.32,4.32,0,0,1-4.3.09c-.56-.31-1.07.56-.5.86Z" transform="translate(-784.19 -486.59)"/><path class="cls-10" d="M850.52,583.62a40.57,40.57,0,0,1,1.2,6.55,1.73,1.73,0,0,1-.21,1.25,1.21,1.21,0,0,1-.66.37,2.18,2.18,0,0,1-2.43-1.13,4.16,4.16,0,0,1,.23-3.16c.44-1.19.91-2.37,1.43-3.52" transform="translate(-784.19 -486.59)"/><path class="cls-10" d="M850,583.75c.28,1.08.53,2.16.73,3.25s.74,2.61.47,3.61l-.52.7c-.89.18-1.43-.13-1.62-.94a2.39,2.39,0,0,1-.14-2.22,32.25,32.25,0,0,1,1.55-3.92c.26-.58-.6-1.09-.86-.5-.95,2.14-4,8,.38,8.59a1.79,1.79,0,0,0,2.21-1.71c.15-2.28-.67-4.94-1.24-7.12a.5.5,0,0,0-1,.26Z" transform="translate(-784.19 -486.59)"/><path class="cls-10" d="M859.6,583.41a42.69,42.69,0,0,0-1.36,6.25,3.08,3.08,0,0,0,0,1.21,1.13,1.13,0,0,0,.77.86,2,2,0,0,0,2-.8,3.15,3.15,0,0,0,.53-2.18,7.62,7.62,0,0,0-.62-2.19c-.34-.83-.72-1.63-1.13-2.42,0-.06,0-.14,0-.2s-.11,0,0,0" transform="translate(-784.19 -486.59)"/><path class="cls-10" d="M859.12,583.27c-.45,1.57-3.35,9.7.68,9a2.89,2.89,0,0,0,2.23-2.78,6.37,6.37,0,0,0-.54-2.75c-.29-.75-1.2-2-1.22-2.75a.5.5,0,0,0-.5-.5h-.06a.51.51,0,0,0-.48.63v0c.09.64,1,.37,1-.26v0l-.49.63h.06l-.5-.5c.05,1.93,2.66,3.93,1.66,6l-1.17,1.24c-1.06-.4-1.38-1.09-.94-2.06.09-.64.21-1.27.34-1.89.25-1.26.57-2.5.92-3.73a.5.5,0,0,0-1-.27Z" transform="translate(-784.19 -486.59)"/><path class="cls-2" d="M854,579.42c-3.41.89-5.92,5.76-6.36,9-.34,2.53,1.74,5.41,4.34,3.59l-.74-.3c.51,1.92,2,3.68,4.18,3.52a3.46,3.46,0,0,0,3.18-3.67l-.76.43a2.74,2.74,0,0,0,3.23-.16c1.52-1.15,1.43-3.26,1-4.91-1-3.32-4-8.16-8-7.54-.63.1-.36,1.06.27,1,2.48-.38,4.48,2.25,5.56,4.08a11.12,11.12,0,0,1,1.11,2.37l.24.79q1,2.88-2.83,3.55a.5.5,0,0,0-.75.43,2.44,2.44,0,0,1-3.66,2.24,3.29,3.29,0,0,1-1.73-2.35.5.5,0,0,0-.74-.3L848.6,590a5.3,5.3,0,0,1,.3-2.63,16,16,0,0,1,1.19-2.72c.93-1.75,2.06-3.7,4.13-4.24a.5.5,0,0,0-.27-1Z" transform="translate(-784.19 -486.59)"/></svg>