<svg id="Calque_1" data-name="Calque 1" xmlns="http://www.w3.org/2000/svg" viewBox="0 0 343.39 480.23"><defs><style>.cls-1{fill:#2b1f11;}.cls-2{fill:#1d1d1b;}.cls-3{fill:#523e2d;}.cls-4{fill:#a93c47;}.cls-5{fill:#fff;}.cls-6{opacity:0.18;}.cls-7{opacity:0.4;}.cls-8{fill:#76132b;}.cls-9{opacity:0.41;}.cls-10{fill:#272726;}.cls-11{opacity:0.43;}.cls-12{opacity:0.2;}</style></defs><title>trophee_cerf</title><path class="cls-1" d="M795.13,602c-2.36.33-8.85-.53-11.21-.21,4.09,11,2.2,23.6-3.22,34s-14.05,18.79-23.46,25.78c2.93,2.41,5.91,4.89,7.93,8.11,2.72,4.32,3.45,9.55,4.25,14.58,3.17,20,8.45,39.9,18.67,57.36S813.87,774,833,780.43h0c19.16-6.46,34.73-21.35,44.94-38.8s15.5-37.38,18.67-57.36c.8-5,1.53-10.26,4.25-14.58,2-3.22,5-5.7,7.93-8.11-9.41-7-18.05-15.39-23.46-25.78s-7.31-23-3.22-34l-7.08-1Z" transform="translate(-681.54 -300.53)"/><path class="cls-2" d="M795.13,601.52c-3.72.39-7.48-.6-11.21-.21a.51.51,0,0,0-.48.64c4.06,11.33,2.09,23.88-3.55,34.32-5.43,10.06-13.83,18.1-22.91,24.87a.51.51,0,0,0-.1.79c4.27,3.52,8.09,7.1,9.94,12.47,1.64,4.76,2.06,9.92,2.93,14.85a192,192,0,0,0,7.84,30.7c6.35,17.92,16.35,34.75,31,47.08a76.17,76.17,0,0,0,22.08,13.1c2,.76,2.33.87,4.31.14s4.16-1.65,6.18-2.62a76.06,76.06,0,0,0,11.59-7c14.94-10.85,25.74-26.36,32.82-43.26a174.12,174.12,0,0,0,10-34.22c1.1-5.69,1.61-11.6,3.16-17.19,1.72-6.16,5.65-10.13,10.44-14.09a.51.51,0,0,0-.1-.79c-9.08-6.77-17.48-14.81-22.91-24.87-5.64-10.44-7.61-23-3.55-34.32a.52.52,0,0,0-.35-.62,55.83,55.83,0,0,0-8.23-1l-4.9.07-18.44.28-44.92.66-10.67.16a.5.5,0,0,0,0,1l72-1.07,6.43-.09a55.67,55.67,0,0,1,8.51.94l-.35-.62c-4,11.32-2.19,23.85,3.27,34.37s14.23,18.92,23.65,26l-.1-.79c-3.39,2.8-6.81,5.71-8.85,9.69-2.17,4.23-2.79,9-3.53,13.67a211.19,211.19,0,0,1-6.76,29.61c-5.82,18.58-15.21,36.27-29.67,49.57a76.91,76.91,0,0,1-23.13,14.85A10.16,10.16,0,0,1,833,779.7a9.23,9.23,0,0,1-3.16-1,68.32,68.32,0,0,1-6.9-3.19,76,76,0,0,1-11.29-7.33c-15.33-11.93-25.87-28.8-32.53-46.87a189.27,189.27,0,0,1-8.52-32.81c-.94-5.35-1.36-11-3.47-16-2-4.76-5.69-8.06-9.58-11.28l-.1.79c9.42-7,18.15-15.42,23.64-26s7.32-23.06,3.27-34.37l-.48.63c3.73-.39,7.49.6,11.21.21C795.77,602.46,795.77,601.45,795.13,601.52Z" transform="translate(-681.54 -300.53)"/><path class="cls-3" d="M787.66,675.4c-1.41,10.46.48,21.07,3.09,31.29,5.84,22.91,16,45.78,34.57,60.47,2.38,1.89,5.11,3.71,8.15,3.71s5.52-1.63,7.85-3.34c12.93-9.5,22.52-23,28.93-37.76s9.78-30.56,11.83-46.47h.18a101.09,101.09,0,0,0-6.53-41.13,11,11,0,0,1-.94-3.53,13.54,13.54,0,0,1,.75-3.85c3.19-11.93-3.66-24.79-.67-36.78l-1,4.94a80,80,0,0,0,1.18-16.21,3,3,0,0,0-.79,3c-.48-2.35.88-4.78,2.79-6.25a19.61,19.61,0,0,1,6.59-2.85c4.91-1.43,9.84-2.87,14.87-3.84s10.35-1.51,14.92-3.91c6.23-3.28,10.24-9.52,13.93-15.51q4-6.48,7.93-13c.86-1.42,1.74-3.16,1-4.65-.84-1.72-3.16-1.91-5.06-1.79a79,79,0,0,0-44.62,17.37c-2.08,1.69-4.13,3.51-6.63,4.48s-5.62.88-7.54-1c-1.48-1.45-2-3.61-2.29-5.66a76.22,76.22,0,0,1-.9-15.09,39.34,39.34,0,0,1-21.81-7l-.15-.33c-5.65,1.93-8,9.6-13.83,10.93-3.17.72-6.52-.77-8.84-3s-3.81-5.25-5.25-8.16a13.69,13.69,0,0,1-20.77,10.23l-3,16.49a2.05,2.05,0,0,1-.19.64c-.57,1-2.16.45-3.13-.24a99,99,0,0,0-48.1-17.76c-2.63-.24-5.63-.23-7.43,1.69-1.61,1.73-1.63,4.5-.67,6.66a18.36,18.36,0,0,0,4.42,5.49l10.55,10.09c6.16,5.89,12.7,12,20.95,14.11,6.64,1.7,14.11.73,19.93,4.35a5.44,5.44,0,0,1,2,1.82,6.89,6.89,0,0,1,.71,3c.83,9.25,1.66,18.58.56,27.81-1,8.06-3.36,16.34-1.07,24.14A13.37,13.37,0,0,1,795,643a10.7,10.7,0,0,1-1,3.67,92.21,92.21,0,0,0-6.72,28.09Z" transform="translate(-681.54 -300.53)"/><path class="cls-3" d="M787.16,675.4c-1.92,15.34,2.35,31.23,7.35,45.63,4.38,12.61,10.4,24.8,18.93,35.13,4.13,5,9,10.33,14.72,13.59,6.09,3.5,11.24,0,16.1-3.86,10.86-8.72,19.17-20.34,25.08-32.89a135.12,135.12,0,0,0,8.49-24.09c1.15-4.48,2.11-9,2.92-13.58.22-1.23,1.85-11.54,1.51-11.54a.5.5,0,0,0,.5-.5,103.19,103.19,0,0,0-1.22-21.5,99.38,99.38,0,0,0-2.41-10.92q-.75-2.68-1.65-5.34c-.68-2-1.72-4-2-6.07-.49-3.19,1.24-6.75,1.42-10a51.72,51.72,0,0,0-.6-9.71c-1-7.18-2.57-14.4-.91-21.6l-1-.26-1,4.94,1,.26a85.17,85.17,0,0,0,1.2-16.34c0-.4-.56-.7-.85-.35a3.85,3.85,0,0,0-.92,3.51c.1.54,1.05.43,1-.14-1-7.5,10.28-9,15.48-10.46,6.11-1.67,12.48-2.29,18.55-4,11-3.18,16.39-13.33,22-22.47,1.65-2.7,3.38-5.38,5-8.13.92-1.62,2-3.62.84-5.41-2-3.23-8.35-1.59-11.3-1.18A79.56,79.56,0,0,0,893.18,550a80.39,80.39,0,0,0-7.21,5.25c-2.76,2.24-5.77,4.88-9.58,4.68-5.39-.28-5.77-6.38-6.22-10.49a79.52,79.52,0,0,1-.39-11.34.51.51,0,0,0-.5-.5,39.74,39.74,0,0,1-11.7-2,38.06,38.06,0,0,1-5.43-2.29c-1.11-.57-3.87-1.67-4.4-2.82a.5.5,0,0,0-.56-.23c-4.74,1.82-6.84,6.62-10.78,9.48-7.58,5.5-13.64-3.61-16.58-9.51-.18-.36-.86-.31-.92.12a13.37,13.37,0,0,1-20,9.93.49.49,0,0,0-.73.3l-2.56,14.06c-.29,1.62-.24,3.18-2.49,2.86-.73-.11-1.67-1.13-2.3-1.56q-2.68-1.81-5.49-3.45a99.27,99.27,0,0,0-34.53-12.33c-3.33-.53-7-1.29-10.36-.82-2.64.37-4.8,1.89-5.33,4.59-.58,3,1,5.71,2.86,7.85,2.95,3.32,6.42,6.25,9.62,9.32,3.06,2.92,6.07,5.9,9.29,8.65,5.65,4.83,11.79,8.38,19.24,9.39,4,.54,8.19.6,12.07,1.89,2.33.77,5.17,2,5.8,4.57a53.62,53.62,0,0,1,.74,8.11,119.09,119.09,0,0,1-1,28c-.71,4.54-1.38,9.17-.78,13.76.32,2.47,1.69,5.08,1.61,7.56s-1.6,4.85-2.39,7A91.16,91.16,0,0,0,788,664.87c-.41,2.19-.74,4.4-1,6.61-.17,1.5-.65,2.88.18,4.18.34.54,1.21,0,.86-.51-.77-1.21-.05-3.7.13-5.06.31-2.43.73-4.85,1.24-7.24a93.24,93.24,0,0,1,3.78-13c1.3-3.48,2.82-6.11,1.74-9.84a33.48,33.48,0,0,1-1-13.51c.52-4.55,1.48-9,1.9-13.61a97.09,97.09,0,0,0,.18-13.43c-.21-4.39-.4-8.89-1-13.24-.43-3-2.34-4.4-5-5.55-7.25-3.12-15.51-1.63-22.74-5-7.41-3.5-13.21-9.66-19-15.24-3.2-3.06-6.7-6-9.62-9.31a9.13,9.13,0,0,1-2.68-6c0-3.49,3-4.77,6-4.82,8-.11,16.52,2.18,24,4.66a100.86,100.86,0,0,1,25.32,12.65c2,1.35,4.21,2.24,4.85-.69,1.15-5.29,1.93-10.68,2.9-16l-.73.3a14.37,14.37,0,0,0,21.5-10.52l-.92.12c2.74,5.49,7.28,13.09,14.66,11.42,2.61-.59,4.62-2.49,6.36-4.42,1-1.1,1.93-2.25,3-3.32a20.31,20.31,0,0,1,1.59-1.49,13.52,13.52,0,0,1,2.47-1.68,7.73,7.73,0,0,1,.93.74c.83.57,1.7,1.08,2.58,1.57a40.73,40.73,0,0,0,5.18,2.43,40.23,40.23,0,0,0,5.77,1.72c2,.43,4.17.34,6.1.84.67.17.76-.22,1.19.51a4.85,4.85,0,0,1,0,1.42c0,1.1,0,2.2,0,3.31.08,2.52.3,5,.63,7.54.39,2.91.74,6.51,3.32,8.38,6.13,4.46,13-3.21,17.5-6.47A78.72,78.72,0,0,1,925.48,539a46.18,46.18,0,0,1,6.42-.61c1.9,0,2.34.06,3.24,1.92.82,1.69.9,1.6.16,3.06-.35.67-.78,1.31-1.17,2-4.45,7.34-8.56,15.55-14.4,21.91a24.79,24.79,0,0,1-12.85,7.44c-4.83,1.16-9.76,1.76-14.58,3-4.43,1.13-9.33,2.09-13.45,4.12-3.08,1.5-5.54,4.32-5.08,7.92l1-.13.67-2.53-.86-.36a83.32,83.32,0,0,1-1.17,16.08c-.1.62.84.9,1,.26l1-4.94c.12-.62-.82-.9-1-.26-1.49,6.5-.43,13,.54,19.52a63,63,0,0,1,1,11.22,28,28,0,0,1-.83,6,14.69,14.69,0,0,0-.77,4c.09,3.27,2.13,6.73,3.09,9.83a100.83,100.83,0,0,1,2.88,11.76,98.94,98.94,0,0,1,1.44,11.89c.08,1.22.13,10.69.38,10.69a.5.5,0,0,0-.5.5c-3.64,27.91-11.77,56.85-32.55,77-4.72,4.58-12.11,12.4-19.26,9.14-5.55-2.54-10.4-8-14.35-12.52-8.65-10-14.8-21.94-19.27-34.3-5.37-14.83-10-31.39-8-47.26C788.24,674.77,787.24,674.77,787.16,675.4Z" transform="translate(-681.54 -300.53)"/><path class="cls-4" d="M738.34,544.08c.38-1.29,1.94-1.77,3.27-2a37.57,37.57,0,0,1,21.85,3.28,53.61,53.61,0,0,1,8.18,5,59.41,59.41,0,0,1,5,4,42.85,42.85,0,0,1,13,22.22c-4.5,1.88-9.63.73-14.36-.44a41.17,41.17,0,0,1-4.87-1.43,39.22,39.22,0,0,1-4.56-2.23,68.72,68.72,0,0,1-6.14-3.63,66.67,66.67,0,0,1-8.76-7.79l-9-9a16.85,16.85,0,0,1-3-3.6,5.71,5.71,0,0,1-.65-4.51" transform="translate(-681.54 -300.53)"/><path class="cls-4" d="M738.77,544.33c1.16-2.53,6.1-2.14,8.43-2.14a36.6,36.6,0,0,1,8.41,1A43.26,43.26,0,0,1,771,550.6c9.06,6.5,15.57,15.28,18.14,26.21l.35-.61c-5,1.88-10.32.54-15.33-.75a46,46,0,0,1-13.85-6.69c-4.4-3-8.05-7-11.8-10.73L743,552.48c-2.26-2.26-5-4.78-4.19-8.32.14-.62-.82-.89-1-.26-1.2,5.15,4,8.88,7.22,12.07,4.3,4.3,8.45,8.94,13.32,12.61a45.7,45.7,0,0,0,15.13,7.73c5.28,1.41,11,2.84,16.28.85a.52.52,0,0,0,.35-.61c-2.87-12.17-10.5-21.47-20.76-28.31A40.46,40.46,0,0,0,752,541.49a38,38,0,0,0-9.53,0c-1.8.23-3.73.53-4.56,2.34-.27.58.6,1.09.86.5Z" transform="translate(-681.54 -300.53)"/><path class="cls-4" d="M933.28,540.52A62.86,62.86,0,0,1,924,558.79q-1.93,2.65-4.13,5.12c-3.08,3.47-6.62,6.68-10.87,8.54-7.72,3.36-16.61,1.86-24.91,3.23-1.47.24-3.13.53-4.32-.36a3.28,3.28,0,0,1-1.11-1.71c-.59-2.09.49-4.26,1.61-6.12,4.32-7.13,10-13.55,17.19-17.8a64.08,64.08,0,0,1,13.24-5.59c7.22-2.32,14.75-4.14,22.33-3.68" transform="translate(-681.54 -300.53)"/><path class="cls-4" d="M932.8,540.39a64.4,64.4,0,0,1-13.27,23.17,34.12,34.12,0,0,1-9.3,7.75c-4.16,2.18-8.83,2.76-13.46,3-4,.21-8,.21-11.94.76-2.07.28-2.61.64-4.34-.62-1.41-1-1.59-1.35-1.38-3.07a7.49,7.49,0,0,1,.8-2.19,38,38,0,0,1,3.24-5.17,47.29,47.29,0,0,1,18.55-16c9.53-4.43,20.79-7.62,31.34-7.12.64,0,.64-1,0-1-10.39-.5-21.15,2.58-30.61,6.7a48.9,48.9,0,0,0-20.84,17.9c-1.82,2.69-5.27,7.28-2.73,10.57a3.74,3.74,0,0,0,3,1.34c2.6.08,5.31-.67,7.92-.82,4.82-.27,9.71-.15,14.47-1.15a26.24,26.24,0,0,0,12-6.11c8.24-7.21,14.27-17.33,17.58-27.69.2-.62-.77-.88-1-.27Z" transform="translate(-681.54 -300.53)"/><path class="cls-5" d="M857.4,573.19c4.6-.58,8.74,2.94,11.32,6.47a16,16,0,0,1,2.71,12.23,12.65,12.65,0,0,1-13.65,10.92,15.77,15.77,0,0,1-9.57-4,14.52,14.52,0,0,1-4.13-15.47C846,578.07,851.37,573.94,857.4,573.19Z" transform="translate(-681.54 -300.53)"/><path class="cls-2" d="M857.4,573.69c7.71-.6,13.67,8,13.79,15,.14,8.39-6.52,14.79-15,13.42-7.5-1.21-13.26-8.15-12.3-15.83.85-6.91,7-11.65,13.62-12.62.63-.09.36-1.06-.27-1-5.74.85-11.17,4.42-13.43,9.91a15,15,0,0,0,3.74,16.32A15.59,15.59,0,0,0,865,601.77c5.78-2.93,8-9.88,6.84-16-1.23-6.51-7.35-13.65-14.48-13.1C856.77,572.74,856.76,573.74,857.4,573.69Z" transform="translate(-681.54 -300.53)"/><path class="cls-2" d="M857.66,592.07c4.5,0,4.51-7,0-7s-4.51,7,0,7Z" transform="translate(-681.54 -300.53)"/><path class="cls-5" d="M860.24,587.49v-.22a1.5,1.5,0,0,0-3,0v.22a1.5,1.5,0,0,0,3,0Z" transform="translate(-681.54 -300.53)"/><g class="cls-6"><path class="cls-2" d="M869.08,581a17.49,17.49,0,0,1-.33,12.44,14.32,14.32,0,0,1-4.33,5.83,18.85,18.85,0,0,1-8.66,3.23,9.87,9.87,0,0,0,7-.26,12.72,12.72,0,0,0,2.84-1.4,11.76,11.76,0,0,0,3.51-3.91,15.7,15.7,0,0,0,.66-14.2" transform="translate(-681.54 -300.53)"/><path class="cls-2" d="M868.6,581.09A17.08,17.08,0,0,1,867.41,595c-2.57,4.46-6.94,6.18-11.78,7-.53.09-.42.82,0,1,5,1.69,10.71-.9,13.49-5.16a16.33,16.33,0,0,0,1-15.35c-.25-.59-1.12-.08-.86.5a15.34,15.34,0,0,1-.66,13.7c-2.48,4.26-7.91,7-12.76,5.34v1c5.11-.87,9.7-2.81,12.38-7.47a18,18,0,0,0,1.29-14.65c-.2-.61-1.16-.35-1,.26Z" transform="translate(-681.54 -300.53)"/></g><path class="cls-5" d="M807.72,572.39c4.59-.58,8.74,2.93,11.32,6.47a16,16,0,0,1,2.71,12.23A12.67,12.67,0,0,1,808.1,602a15.74,15.74,0,0,1-9.57-4,14.49,14.49,0,0,1-4.13-15.47C796.3,577.26,801.69,573.14,807.72,572.39Z" transform="translate(-681.54 -300.53)"/><path class="cls-2" d="M807.72,572.89c7.71-.6,13.66,8,13.78,15,.15,8.39-6.51,14.79-15,13.42-7.51-1.21-13.26-8.15-12.31-15.83.86-6.91,7-11.65,13.62-12.62.64-.1.37-1.06-.26-1-5.74.85-11.18,4.43-13.43,9.91a15,15,0,0,0,3.74,16.33A15.59,15.59,0,0,0,815.36,601c5.78-2.93,8-9.88,6.84-16-1.23-6.51-7.35-13.66-14.48-13.1C807.08,571.93,807.08,572.94,807.72,572.89Z" transform="translate(-681.54 -300.53)"/><path class="cls-2" d="M807.81,591.64c4.51,0,4.51-7,0-7s-4.51,7,0,7Z" transform="translate(-681.54 -300.53)"/><path class="cls-5" d="M808.9,588.34a1.5,1.5,0,0,0,0-3,1.5,1.5,0,0,0,0,3Z" transform="translate(-681.54 -300.53)"/><g class="cls-6"><path class="cls-2" d="M819.11,580a17.44,17.44,0,0,1-.33,12.44,14.17,14.17,0,0,1-4.33,5.83,19,19,0,0,1-8.65,3.24,9.87,9.87,0,0,0,7-.27,12.86,12.86,0,0,0,2.83-1.4,11.79,11.79,0,0,0,3.52-3.91,15.67,15.67,0,0,0,.65-14.2" transform="translate(-681.54 -300.53)"/><path class="cls-2" d="M818.63,580.12A17,17,0,0,1,817.44,594c-2.57,4.46-6.93,6.18-11.78,7-.52.09-.42.82,0,1,5,1.69,10.71-.9,13.49-5.16a16.31,16.31,0,0,0,1.06-15.35c-.26-.59-1.12-.08-.87.51a15.29,15.29,0,0,1-.66,13.69c-2.47,4.26-7.9,7-12.75,5.34v1c5.11-.87,9.69-2.81,12.38-7.47a18.08,18.08,0,0,0,1.29-14.65c-.2-.61-1.17-.35-1,.26Z" transform="translate(-681.54 -300.53)"/></g><g class="cls-7"><path class="cls-1" d="M848.51,531.23l8.83,4.37a1.44,1.44,0,0,1,.76.63c.24.53-.18,1.09-.55,1.53a16.15,16.15,0,0,0-3.74,10.08,17,17,0,0,0-14.7-4.36c-2.27.43-4.42,1.32-6.68,1.79a9,9,0,0,1-6.69-.8c-1.19-.77-2.06-1.94-3.18-2.8-2.22-1.7-5.15-2-7.93-2.28a24.32,24.32,0,0,0,4.37-8.22c3.21,1.63,3.66,6.16,6.32,8.58,2.25,2,5.74,2.19,8.59,1.13s5.18-3.14,7.4-5.21,4.44-4.24,7.18-5.55" transform="translate(-681.54 -300.53)"/><path class="cls-1" d="M848.26,531.66l6.18,3.06c.88.44,2.51.84,2.84,1.81s-.6,1.48-1.11,2.23a17.36,17.36,0,0,0-2.86,9.08l.86-.36c-5.29-4.83-11.87-5.57-18.54-3.6a18.52,18.52,0,0,1-6.28,1.16c-2.66-.15-4-1.68-5.9-3.27-2.5-2.15-5.64-2.57-8.82-2.88l.35.85a27.13,27.13,0,0,0,4.51-8.43l-.74.3c2.85,1.67,3.42,5.11,5.37,7.56a8,8,0,0,0,7,2.83c7.41-.6,11.45-8.29,17.59-11.45.57-.29.06-1.16-.51-.86-6,3.06-10,10.7-17.08,11.31-4,.34-6.21-2-7.9-5.22-1-2-2-3.86-4-5a.51.51,0,0,0-.74.3,25.7,25.7,0,0,1-4.24,8,.51.51,0,0,0,.35.86,17.77,17.77,0,0,1,6.4,1.41c1.51.77,2.49,2.09,3.79,3.11a8.82,8.82,0,0,0,7,1.48c3.77-.58,7.16-2.36,11.07-2.18a16.79,16.79,0,0,1,10.58,4.48.5.5,0,0,0,.85-.35,16.34,16.34,0,0,1,1.91-7.24c.62-1.15,2.52-2.71,2.41-4.1-.1-1.18-1.45-1.53-2.36-2l-7.51-3.71c-.57-.29-1.08.58-.5.86Z" transform="translate(-681.54 -300.53)"/></g><g class="cls-7"><path class="cls-8" d="M928.88,541.08c-8.52,4.29-15.47,11.15-23.64,16.08-9.29,5.59-20.64,9.15-26.37,18.35a5.53,5.53,0,0,1-1-5.27,14.46,14.46,0,0,1,2.77-4.86A67.7,67.7,0,0,1,901.94,547a51.09,51.09,0,0,1,27.29-6.12" transform="translate(-681.54 -300.53)"/><path class="cls-8" d="M928.63,540.65c-10,5.13-18,13.19-27.87,18.45-8.15,4.33-17.12,8.11-22.32,16.16l.79-.1c-4-4.92,3.45-11.77,6.63-15.11a66.46,66.46,0,0,1,12-10,52.22,52.22,0,0,1,31.35-8.58c.64,0,.64-1,0-1-12.7-.77-25.12,3.54-35.27,11.09a70.76,70.76,0,0,0-12.66,12.22c-2.75,3.37-6.13,8-2.78,12.14a.51.51,0,0,0,.79-.1c5.36-8.33,14.94-12,23.27-16.52,9.38-5.13,17-12.83,26.56-17.74.57-.29.06-1.16-.51-.86Z" transform="translate(-681.54 -300.53)"/></g><g class="cls-7"><path class="cls-8" d="M788.18,574.05c-2.51-4.71-8.57-6-12.88-9.15-4-2.94-6.47-7.48-9.61-11.34A38.33,38.33,0,0,0,751,542.5c2.1-1.07,4.81.21,7.1.79,14.31,3.6,25.18,15,29.91,29" transform="translate(-681.54 -300.53)"/><path class="cls-8" d="M788.61,573.8c-1.77-3-4.7-4.72-7.75-6.3a28.7,28.7,0,0,1-10.5-8.49c-2.52-3.35-4.82-6.77-7.9-9.64a39.89,39.89,0,0,0-11.24-7.3l-.12.92c2.45-.94,5.14.29,7.53,1a39.21,39.21,0,0,1,15.83,8.6,46.82,46.82,0,0,1,13,19.86c.21.6,1.17.34,1-.27a47.53,47.53,0,0,0-14.36-21.21,41.16,41.16,0,0,0-10.39-6.3,57.72,57.72,0,0,0-6.29-2c-2.22-.63-4.32-1.43-6.58-.57-.35.14-.56.73-.12.92A38.72,38.72,0,0,1,762,550.36c3.12,2.95,5.4,6.51,8,9.88a25.51,25.51,0,0,0,8.47,7.19c3.44,1.82,7.18,3.36,9.23,6.87a.5.5,0,0,0,.86-.5Z" transform="translate(-681.54 -300.53)"/></g><g class="cls-9"><path class="cls-1" d="M869.17,540.35c1.22-4.61-3.24-2.54-5.27-2.9,4.63,4.07,4.88,11.19,3.8,17.26a18.67,18.67,0,0,0-.5,5.2,19.13,19.13,0,0,0,1.46,4.8A52.91,52.91,0,0,1,872,579.23c-.64.6-1.64-.11-2.18-.79-2-2.46-3.61-5.3-6.3-6.92s-6.88-1.33-8.2,1.52a15.38,15.38,0,0,1,7.89,29.23,9.35,9.35,0,0,1-4.65,1,23.27,23.27,0,0,0-3.1-.32c-2.43.16-4.21,2.3-5.53,4.35a31,31,0,0,0-5.25,13.53c-.47,4.86.87,10.06,4.34,13.5l1.82-13c-3.06,9.76.72,20.24,4.71,29.67,8.6-7.67,14-18.44,16.87-29.6s3.34-22.79,3.36-34.32C875.81,587.17,868.21,544,869.17,540.35Z" transform="translate(-681.54 -300.53)"/><path class="cls-1" d="M869.65,540.48c1-4.63-2.76-3.19-5.75-3.53a.5.5,0,0,0-.35.85c4.48,4.2,4.66,10.73,3.73,16.42-.42,2.53-.93,4.92-.24,7.46.86,3.18,2.31,6.18,3.12,9.4.38,1.51.69,3,.93,4.57.14.85,1.14,3.61-.89,2.43-.59-.34-1.17-1.55-1.59-2.1a17.37,17.37,0,0,0-4.81-4.89c-2.9-1.69-7.13-1.47-8.88,1.69a.51.51,0,0,0,.43.76c8.11-.47,15.94,5.86,16.13,14.21a15.85,15.85,0,0,1-3.74,10.41A11.85,11.85,0,0,1,857,602.6c-6.52-.68-10.09,8-11.74,13.11-2.11,6.51-1.46,13.9,3.39,19a.51.51,0,0,0,.84-.22l1.82-13a.5.5,0,0,0-1-.27c-3,10.23.75,20.53,4.71,29.94a.5.5,0,0,0,.83.22c8.07-7.32,13.36-17.1,16.36-27.49a97,97,0,0,0,3.27-18.05c.3-3.19.49-6.39.6-9.59a73.6,73.6,0,0,0,.14-9.27c-.34-3.48-1.22-7-1.79-10.45-1.13-6.72-2.22-13.46-3.21-20.2-.51-3.42-1-6.84-1.36-10.28-.19-1.73-.68-3.9-.29-5.63.15-.63-.82-.89-1-.26a13.9,13.9,0,0,0,.08,4.22c.23,2.5.55,5,.89,7.49.93,6.79,2,13.57,3.12,20.33q1.15,7,2.37,14c.59,3.38.12,7.08,0,10.49A124.19,124.19,0,0,1,873,616.68c-2.54,12.79-8,25.17-17.8,34.05l.84.22c-3.88-9.23-7.65-19.36-4.71-29.4l-1-.27-1.83,13,.84-.22c-7-7.34-4.26-18,.53-25.7,1.46-2.34,3.25-4.94,6.34-4.82,1.68.07,3.13.48,4.83.08a14.49,14.49,0,0,0,7.78-5.25,16,16,0,0,0,2-16.87,16.57,16.57,0,0,0-15.57-8.92l.43.75c2.69-4.84,8.45-1.17,10.84,1.73,1.26,1.53,3.14,5.71,5.66,4.64a.48.48,0,0,0,.25-.43,55.78,55.78,0,0,0-2.44-12c-.64-2-1.58-3.82-2.09-5.81-.67-2.61,0-5,.35-7.63.87-5.85.47-12.41-4.09-16.69l-.36.86c2.07.24,5.58-1.35,4.79,2.27C868.55,540.84,869.52,541.11,869.65,540.48Z" transform="translate(-681.54 -300.53)"/><path class="cls-1" d="M803.45,618.06a8.32,8.32,0,0,1,2.73,3.51,26,26,0,0,1,2.07,13.4,58.35,58.35,0,0,1-3.11,13.32c-.54-.11-.81-.7-1-1.21a51.55,51.55,0,0,1-1.64-29" transform="translate(-681.54 -300.53)"/><path class="cls-1" d="M803.2,618.49c4.09,3.14,4.82,10,4.65,14.76-.17,5.12-1.59,10.08-3.2,14.91l.74-.3c-1.59-.88-2.12-5.22-2.49-6.9a49.9,49.9,0,0,1-1.12-7.79A52.25,52.25,0,0,1,803,618.26c.14-.63-.82-.89-1-.27a52.16,52.16,0,0,0,.44,25.4c.45,1.65.76,4.42,2.41,5.33a.51.51,0,0,0,.74-.3c1.9-5.72,3.51-11.66,3.22-17.75-.22-4.51-1.35-10.14-5.14-13-.51-.39-1,.48-.5.87Z" transform="translate(-681.54 -300.53)"/><path class="cls-1" d="M804.42,566.52A12.81,12.81,0,0,0,794.33,581c1.86-2.48,3.78-5,6.44-6.63,1.89-1.15,4.06-1.77,5.94-2.91a2.84,2.84,0,0,0,.88-.73,2.23,2.23,0,0,0,.09-2.22,5.88,5.88,0,0,0-1.46-1.8c-.43-.4-1.22-.74-1.49-.22" transform="translate(-681.54 -300.53)"/><path class="cls-1" d="M804.29,566a13.56,13.56,0,0,0-10.46,15,.5.5,0,0,0,.93.26c1.8-2.4,3.67-4.87,6.26-6.46,2-1.22,5.2-1.72,6.72-3.52s-.87-6.75-3.26-5.23c-.54.35,0,1.21.5.87,2,.42,2.48,1.78,1.48,4.1l-.72.41a15.35,15.35,0,0,1-2.25,1.05,20.56,20.56,0,0,0-4.24,2.33,28.8,28.8,0,0,0-5.35,5.94l.93.25a12.59,12.59,0,0,1,9.73-14c.62-.15.36-1.12-.27-1Z" transform="translate(-681.54 -300.53)"/><path class="cls-1" d="M874.47,616c1.36,6.33,7.6,13.17,5,19.09s5.12,7,5.23,13.51c.15,8.07-3.63,41-3.63,42.07,0,9.6-8.28,37.54-14.16,46.3-3.73,8.35-10.74,17.12-16.53,22.38a135.79,135.79,0,0,1-11.3,8.81,16.57,16.57,0,0,1-5.28,3A6,6,0,0,1,828,770c-2.16-2.11-1.63-5.65-1-8.6,2.47-11.76,3.85-24.51-1.3-35.36-1.54-3.24-3.71-6.65-2.86-10.14a35.73,35.73,0,0,1,1.49-3.7c1.36-3.68.48-7.78.79-11.7.18-2.24.76-4.45.83-6.71.27-7.89-5.51-14.53-10.93-20.28,4.23,4,10.65,5.06,16.33,3.82s10.74-4.49,15.24-8.18c5.22-4.27,10.27-10.53,8.66-17.08" transform="translate(-681.54 -300.53)"/><path class="cls-1" d="M874,616.09c1.24,5.18,5.09,9.68,5.55,15,.19,2.22-1.06,3.88-1.15,6a5.88,5.88,0,0,0,1.45,3.84c1,1.29,2.21,2.37,3.09,3.73a8.89,8.89,0,0,1,1.23,5.26c-.06,3-.31,6-.54,8.95-.94,11.72-1.92,23.55-3.34,35.22-1,8.44-3.52,16.82-6.2,24.87a121.1,121.1,0,0,1-10.32,22.86,76,76,0,0,1-10.89,14.29,98.18,98.18,0,0,1-12.68,10.5c-2.47,1.83-5.2,4.29-8.47,4.23-5-.09-5-5-4.36-8.67,1-5.69,2.16-11.31,2.34-17.12a42.42,42.42,0,0,0-3-18.14c-1.46-3.41-4.19-7-3.32-10.93.35-1.59,1.32-3,1.76-4.56a17.6,17.6,0,0,0,.53-4.58,94,94,0,0,1,.66-11.11,17.83,17.83,0,0,0-.8-8.17c-1.92-5.63-6.11-10.2-10.11-14.45l-.71.71c7.47,6.69,18.14,4.9,26.09.09,7.34-4.44,17-12.33,15-22-.13-.63-1.09-.36-1,.27,1.9,9.16-7.63,16.72-14.53,20.89-7.54,4.56-17.73,6.46-24.87.06a.5.5,0,0,0-.71.71c4.21,4.47,8.72,9.36,10.3,15.47.9,3.51.17,6.69-.24,10.2s.33,7.25-.39,10.8c-.53,2.63-2.28,4.78-2.16,7.56s1.56,5.23,2.73,7.64a41.42,41.42,0,0,1,3.78,19.56c-.19,6.26-1.72,12.19-2.56,18.35-.51,3.78.48,7.9,4.9,8.4,2.52.28,4.81-.88,6.84-2.25,2.45-1.67,4.81-3.51,7.18-5.29a72.52,72.52,0,0,0,12-11.34c12-14.22,18.63-32.5,22.68-50.42a128.89,128.89,0,0,0,2.09-15.24c.76-7.29,1.53-14.58,2.2-21.87.37-4,.73-8.11,1-12.16.2-3.34.53-6.61-1.5-9.49-1.08-1.52-2.68-2.75-3.56-4.41-1.28-2.42.46-4.45.61-6.9.36-5.9-4.28-11.1-5.61-16.63-.15-.63-1.11-.36-1,.26Z" transform="translate(-681.54 -300.53)"/><path class="cls-1" d="M775.62,548.18c8.15,5.08,12.35,14.51,18.93,21.51a43.68,43.68,0,0,1,2-11.4,3.93,3.93,0,0,1-3.8-.16c-1.16-.64-1.81-2-3-2.59-6.51-3.29-8.43-6.2-12.24-7.13" transform="translate(-681.54 -300.53)"/><path class="cls-1" d="M775.37,548.61c8.17,5.27,12.38,14.44,18.82,21.43a.51.51,0,0,0,.86-.35,46.87,46.87,0,0,1,2-11.27c.1-.33-.25-.76-.61-.61-3.11,1.3-4.31-1.32-6.41-2.71-1.72-1.12-3.61-2-5.32-3.16-2.25-1.55-4.37-3.27-7-4a.5.5,0,0,0-.27,1c3.51,1,6.28,3.7,9.35,5.53a34.93,34.93,0,0,1,3.25,1.9c.73.55,1.25,1.32,2,1.86a4.7,4.7,0,0,0,4.73.58l-.61-.61a47.47,47.47,0,0,0-2,11.53l.85-.36c-6.51-7.06-10.76-16.25-19-21.58-.54-.35-1,.51-.5.86Z" transform="translate(-681.54 -300.53)"/><path class="cls-1" d="M885.85,555.71a70.56,70.56,0,0,1-9,17.52,1.94,1.94,0,0,1-.56.58,1.35,1.35,0,0,1-1.66-.47,4,4,0,0,1-.61-1.77l-2.26-13c4.06,3.1,9.38,2.35,13.06-2,.27-.32,1.2-.47,1-.85" transform="translate(-681.54 -300.53)"/><path class="cls-1" d="M885.37,555.58a71.38,71.38,0,0,1-7.45,15.16c-.21.32-.66,1.35-1,1.5l-2.31-.18-.12-.62c-.55-1-.52-3-.72-4.19l-1.53-8.84-.74.56a9.47,9.47,0,0,0,8.69,1.44,11.31,11.31,0,0,0,3.88-2.36c.63-.55,2.07-1.34,2.26-2.21.14-.63-.82-.89-1-.26a16.62,16.62,0,0,1-1.45,1.22,11.15,11.15,0,0,1-4,2.65,8.52,8.52,0,0,1-7.91-1.34c-.4-.28-.81.18-.74.56.7,4,1.38,8.07,2.1,12.11.24,1.36.88,4.57,3.11,3.49.95-.47,1.78-2.21,2.3-3,1.07-1.63,2.06-3.31,3-5a74.44,74.44,0,0,0,4.57-10.39c.22-.61-.75-.87-1-.26Z" transform="translate(-681.54 -300.53)"/></g><path class="cls-5" d="M697.64,394.74a69.73,69.73,0,0,0-4.73-25.62c-2-5.1-4.55-10-6.54-15.05-3.55-9.14-5.16-19.23-3.26-28.85s7.59-18.71,16.12-23.55a110.08,110.08,0,0,0-5.54,14.15l-.61-.12c.64-.28.91.82.74,1.5a51.09,51.09,0,0,0,1.8,30.35c4.19-10.25,8-11.29,12-16.93A37.35,37.35,0,0,0,705,353a86.14,86.14,0,0,0,4.9-8.49,58.52,58.52,0,0,1-.27,15.19,11.71,11.71,0,0,0-.14,4.37,3.46,3.46,0,0,0,3,2.81l-1.16,1.88,23.41-32.6c3.74-5.2,8.47-10.94,14.87-10.93a148.87,148.87,0,0,0-27.17,49.07c2.93,1.27,6.13-1.08,8.23-3.48s4.38-5.28,7.58-5.39a24.57,24.57,0,0,1-14.81,16c-1.47.54-3.14,1.06-3.9,2.42a6,6,0,0,0-.55,1.94l-1.76,10.84.48.28c-.66,16.18,8.27,31.12,16.78,44.91,6.38,10.34,13.12,20.68,22.2,28.76L758,452.83c.21-2.91.24-6.3-2-8.18,3.83,1.68,5.84,6,6.43,10.15s.12,8.38.65,12.53c1.21,9.4,7.48,17.42,14.65,23.62S793.09,502,800.2,508.29a75.63,75.63,0,0,1,8.35,8.63l.11.87a42.51,42.51,0,0,0,15.58-24c2.43-10.47.78-21.45,1.87-32.15a63.3,63.3,0,0,1,18.35-38.28,127.26,127.26,0,0,0-11.05,45.8c-.52,10.29.22,20.63-1,30.86s-4.54,20.64-11.89,27.84a9.59,9.59,0,0,0-1.87,2.16,12.14,12.14,0,0,0-.85,2.53,13.93,13.93,0,0,1-16.33,9.2,4,4,0,0,1-1.81-.9c-1.35-1.37-.51-3.64-.53-5.57,0-2.61-1.79-4.83-3.47-6.83-8-9.53-16.07-19.1-25.33-27.42-4.48-4-9.23-7.76-13.86-11.62q-9.15-7.62-17.68-16c-10.94-10.69-21.12-22.31-28.77-35.56s-12.7-28.22-12.87-43.51c0-.66.79-1.53,1-.92Z" transform="translate(-681.54 -300.53)"/><path class="cls-5" d="M698.14,394.74A71.57,71.57,0,0,0,693.4,369c-3.07-7.9-7.26-15.26-9.2-23.58-3.71-16,.29-34.52,15.28-43.3l-.69-.68a117.19,117.19,0,0,0-5.58,14.27l.62-.35-.62-.12-.13,1c.24,0-.89,7.05-1,7.94a52,52,0,0,0-.19,8.37,52.89,52.89,0,0,0,3.22,15.17.51.51,0,0,0,1,0,36.07,36.07,0,0,1,6.45-10.55,75.4,75.4,0,0,0,5.45-6.26l-.86-.5a38.84,38.84,0,0,0-2.66,22.74.51.51,0,0,0,.92.12,91.63,91.63,0,0,0,4.9-8.49l-.93-.25a69.63,69.63,0,0,1-.39,16c-.34,2.77-.06,6.34,3.32,6.86l-.3-.74-1.16,1.87c-.34.56.5,1,.87.51l18-25.05c4.79-6.66,10.47-17.93,19.86-18.23l-.35-.85a151.11,151.11,0,0,0-27.3,49.28.51.51,0,0,0,.35.62c7.2,2.44,9.65-8.22,15.94-8.85l-.48-.63a24.31,24.31,0,0,1-13.23,15.14c-2.18,1-4.83,1.4-5.75,3.9a29.68,29.68,0,0,0-.92,5.26l-1.12,6.89a.51.51,0,0,0,.23.57c.54.32.28,4.29.33,5,.12,1.46.31,2.92.56,4.36a59.42,59.42,0,0,0,2.85,10.33,119.18,119.18,0,0,0,9.69,19.33c7.4,12.41,15.1,25.09,25.93,34.84a.5.5,0,0,0,.85-.35q.61-8.37,1.24-16.74c.25-3.33.54-7-2.06-9.53l-.61.79c8.32,4.08,5.87,15,6.85,22.38.93,7.05,4.68,13.34,9.37,18.56,5.19,5.79,11.61,10.25,17.87,14.79a127.57,127.57,0,0,1,10.4,8.14c1.61,1.43,3.16,2.94,4.64,4.51,1.08,1.14,3.13,2.73,3.33,4.33a.5.5,0,0,0,.85.35,43.42,43.42,0,0,0,13.82-18.23c3.43-8.6,3.34-17.8,3.35-26.91,0-9.33.85-18.33,4.19-27.11a63.38,63.38,0,0,1,14.45-22.22l-.79-.61a129.75,129.75,0,0,0-9.38,30.54c-1.88,10.77-1.88,21.53-2,32.42-.1,10.62-.78,21.55-5.38,31.3a38.43,38.43,0,0,1-3.35,5.76c-1.54,2.17-3.67,3.83-5.21,5.95-1.11,1.52-1.24,3.42-2,5.09a13.2,13.2,0,0,1-4.92,5.37c-3.38,2.11-12.6,4.33-12.28-2,.11-2,.26-3.58-.64-5.46a26.7,26.7,0,0,0-4-5.4c-7.21-8.57-14.5-17.13-22.74-24.74s-17.1-14.16-25.3-21.64a238.1,238.1,0,0,1-22.68-23.35,125.44,125.44,0,0,1-19.21-30.35,92.37,92.37,0,0,1-5.51-17.07,79.2,79.2,0,0,1-1.43-9.43c-.13-1.46-.23-2.93-.26-4.4,0-.7.63-3.1-.13-2a4.41,4.41,0,0,0-.38.86c-.26.59.6,1.09.86.51l.58-1.34a.5.5,0,0,0-.07-.6l-.27-.21a.53.53,0,0,0-.61-.08c-1.26.69-1,2.06-1,3.32a74.19,74.19,0,0,0,.72,8,85.33,85.33,0,0,0,4,16.23,112.25,112.25,0,0,0,15.4,28.83C730.25,467.66,747.57,482.44,765,497a211.78,211.78,0,0,1,24.94,25.35c1.82,2.13,3.64,4.26,5.43,6.42a20.66,20.66,0,0,1,2.46,3.43c1,1.87.81,3.35.68,5.3-.26,3.93,2.36,5.07,6,5.11a14.83,14.83,0,0,0,10-3.93,13.83,13.83,0,0,0,3.19-4.35,23.05,23.05,0,0,0,.87-2.54,9.84,9.84,0,0,1,2.91-4.16c6.73-7,10-16.51,11.26-25.94,1.79-12.89.35-26,1.66-38.92a127.89,127.89,0,0,1,10.5-39.19c.22-.49-.35-1-.78-.61a65.12,65.12,0,0,0-18.86,44.33c-.31,9.81.67,19.86-2.33,29.38a42.51,42.51,0,0,1-14.62,20.77l.86.35c-.16-1.27-.54-1.59-1.45-2.64q-2.12-2.45-4.44-4.7a96,96,0,0,0-9.75-8.14c-7-5.21-14.4-10-20.36-16.4-6.16-6.66-9.74-14.27-9.91-23.4-.13-6.6-.16-14.92-7-18.29-.49-.24-1,.37-.61.78,3,2.89,1.83,8.07,1.55,11.77l-1,13.79.85-.35c-10.45-9.42-17.89-21.56-25.09-33.51-7.29-12.12-14.18-25.28-13.74-39.81a.52.52,0,0,0-.25-.44c-.53-.3.6-4.94.71-5.62.3-1.84.46-3.78.92-5.59.8-3.13,6.4-4.19,9-5.89a25.45,25.45,0,0,0,10.19-13.8.51.51,0,0,0-.48-.64c-2.59.26-4.44,1.7-6.18,3.55-2.46,2.64-5.32,6.75-9.5,5.34l.35.61a150.13,150.13,0,0,1,27-48.85.5.5,0,0,0-.35-.85c-8.78.28-13.89,9.22-18.44,15.55l-20.27,28.22.87.51,1.15-1.87a.5.5,0,0,0-.29-.74c-4.51-.69-2.22-7.9-2-11a60.49,60.49,0,0,0-.2-10.93c0-.45-.69-.74-.93-.25a93.05,93.05,0,0,1-4.91,8.49l.92.12a37.76,37.76,0,0,1,2.55-22,.5.5,0,0,0-.86-.5c-1.89,2.62-4.28,4.77-6.34,7.24a38.08,38.08,0,0,0-5.67,9.81h1a51.82,51.82,0,0,1-3.25-19.76c0-1.46.17-2.93.35-4.39.24-2,1-4,1.1-5.94.08-1.05,0-2.07-1.22-2.13-.55,0-.69.87-.13,1l.61.12a.51.51,0,0,0,.62-.34,114,114,0,0,1,5.48-14,.51.51,0,0,0-.69-.68c-13.56,7.94-18.72,24.18-16.7,39.16,1.2,8.86,4.87,16.68,8.45,24.76a72.75,72.75,0,0,1,6.42,29.58A.5.5,0,0,0,698.14,394.74Z" transform="translate(-681.54 -300.53)"/><path class="cls-5" d="M919,481.47c0-3.93.83-7.85.59-11.77-.27-4.52-1.91-8.82-3.54-13,.39,6.89-1.72,13.64-3.81,20.21a50.42,50.42,0,0,1-3.9,9.84c-4.29,7.52-12.05,12.28-19.48,16.71l-20.71,12.36a14.23,14.23,0,0,1-3.83,1.79c-3.83.93-7.84-1.6-9.85-5s-2.46-7.46-2.76-11.39a224.51,224.51,0,0,1,1.59-48.47c-6.66,7.84-10.22,17.94-11.74,28.11s-1.15,20.53-.77,30.82a41.07,41.07,0,0,0,.93,8.58c2.41,9.42,12.38,16.26,22,15.11a21.59,21.59,0,0,0-4.47-.37,15.42,15.42,0,0,0,4.34,2c4.55,1,8.86-2.18,12.43-5.17l17.16-14.34,0-.54q33.78-27.12,67-55c10.85-9.1,21.94-18.63,28.22-31.33,6.09-12.3,7.08-26.71,4.6-40.21-.3-1.63-.64-3.37,0-4.92s2-2.62,3.4-3.61c11.07-8.17,20.82-18.83,25.21-31.87s2.59-28.67-6.83-38.7l-.59-.07q1.69,8.93,2.69,18a33.59,33.59,0,0,1,0,10,27.74,27.74,0,0,1-4.78,10.36,57.21,57.21,0,0,1-15.4,15.11,17.18,17.18,0,0,0-5.2-16.63,26.14,26.14,0,0,1-2.81,23.13l-4.4-11.4-.17,10.31c-4.13-2.93-5.23-8.42-6.76-13.24A51,51,0,0,0,958,330.59c8.6,17.29,17.37,35.14,18.8,54.4.18,2.47,0,5.44-2.15,6.68s-5-.21-6.58-2.19-2.45-4.47-4.19-6.3c2,3.11,2.75,6.86,4.24,10.25s4.22,6.7,7.92,7c-2.26,16.72-9.3,32.63-19.25,46.26s-22.74,25-36.8,34.37Z" transform="translate(-681.54 -300.53)"/><path class="cls-5" d="M919.5,481.47c.08-4.38,1-8.74.47-13.12a48.84,48.84,0,0,0-3.44-11.82c-.19-.49-1-.48-1,.13a47.92,47.92,0,0,1-2.39,15.57c-1.42,4.79-2.77,9.87-5.26,14.22-4.48,7.84-12.6,12.54-20.12,17l-13.26,7.91c-4.08,2.44-9.32,7.15-14.34,5.42-5.45-1.88-7.17-8-7.74-13.08s-.73-10.11-.83-15.16a227,227,0,0,1,2.17-35.72c.06-.43-.47-.92-.83-.49-8.89,10.67-12.12,24.46-12.82,38.06a203.8,203.8,0,0,0,.32,24.59c.42,5.87,2.39,11.11,6.78,15.15a21.45,21.45,0,0,0,16.52,5.68c.52-.06.74-.89.14-1a28.48,28.48,0,0,0-4.61-.38.5.5,0,0,0-.25.93c3.68,2.13,7.06,2.9,11.05,1.05,4.74-2.19,8.71-6.33,12.67-9.64l6.34-5.29a61.59,61.59,0,0,0,4.63-4.23,62.52,62.52,0,0,1,6-5l7.65-6.19q27.43-22.22,54.46-44.91c7.57-6.38,15.12-12.95,21.12-20.89a57.72,57.72,0,0,0,11.23-27.2,71.09,71.09,0,0,0,.3-15.77c-.2-2.23-.51-4.45-.9-6.66-.32-1.84-.84-3.84.14-5.61.79-1.4,2.31-2.32,3.55-3.27a78.61,78.61,0,0,0,18.87-19.55c5.53-8.51,8.74-18.43,8.16-28.64a39.27,39.27,0,0,0-3.07-13.29,33.16,33.16,0,0,0-3.66-6.42c-.91-1.24-1.79-3-3.4-3.19-.35,0-.54.35-.48.63,1,5.29,1.83,10.6,2.46,16s1.15,10.56-.91,15.62c-3.53,8.73-11.09,16.15-18.78,21.33l.73.56a17.91,17.91,0,0,0-5.33-17.11c-.34-.32-1,0-.83.49a26.06,26.06,0,0,1-2.76,22.74l.91.12-4.4-11.4a.5.5,0,0,0-1,.13l-.17,10.31.75-.44c-3.67-2.8-4.82-7.33-6.1-11.54a54.7,54.7,0,0,0-4.4-10.58,52.26,52.26,0,0,0-15.7-17.36c-.44-.31-.89.28-.69.68,5.84,11.73,11.7,23.56,15.37,36.18,1.77,6.1,3.31,12.63,3.42,19,0,1.79-.18,4.2-2,5.21s-4.19-.23-5.51-1.59c-1.92-2-2.82-4.75-4.64-6.82-.38-.43-1.08.12-.79.6,3.53,5.79,4,16.36,12.45,17.49l-.35-.61c-2.4,17.17-9.61,33.32-20,47.17a130.68,130.68,0,0,1-17.61,19.11q-5.07,4.55-10.53,8.61c-2.71,2-5.54,4.5-8.66,5.84-.59.25-.08,1.11.51.86,3.35-1.44,6.44-4.16,9.34-6.35,3.23-2.44,6.38-5,9.41-7.68a132.68,132.68,0,0,0,17.88-19.2c10.66-14.06,18.12-30.57,20.58-48.1,0-.24-.06-.57-.35-.61-8-1.08-8.44-11.43-11.85-17l-.79.6c2.49,2.84,6.46,12.58,11.9,8.19,1.77-1.42,2-4,1.91-6a65.49,65.49,0,0,0-1.5-11.07c-3.18-15.64-10.35-30.09-17.41-44.27l-.69.68a51.07,51.07,0,0,1,16.79,19.82c3,6.38,3.46,15.12,9.42,19.67.31.24.74-.09.75-.43l.17-10.31-1,.14,4.41,11.39a.5.5,0,0,0,.91.12A27,27,0,0,0,992,347.91l-.83.49a16.93,16.93,0,0,1,5.07,16.14c-.09.39.35.82.73.56,7.87-5.3,15.58-12.86,19.21-21.8,2-4.88,1.67-9.92,1.09-15.06q-1-8.62-2.61-17.17l-.48.64c1.44.19,3,3.36,3.79,4.53a33.75,33.75,0,0,1,3.17,6.54,39.68,39.68,0,0,1,2.24,13.1,47.14,47.14,0,0,1-7.88,25.54c-5.14,8-12.09,14.51-19.65,20.21-3,2.24-4,4.32-3.45,8.06a88.14,88.14,0,0,1,1.38,15.55,58.1,58.1,0,0,1-8.19,29.45c-5,8.16-11.9,14.92-19.05,21.17-16.27,14.24-33.18,27.81-49.93,41.47q-7.25,5.91-14.53,11.79-3.44,2.79-6.9,5.56c-1.76,1.42-2.87,2.84-4.57,4.26l-13.8,11.53a33.55,33.55,0,0,1-7.24,5.12c-3.66,1.67-6.71.88-10.05-1.05l-.25.93a25.24,25.24,0,0,1,4.34.35l.13-1a20.7,20.7,0,0,1-18.7-8.64c-4.89-6.92-3.93-16.62-4.06-24.69-.28-16.88,1.43-34.95,12.66-48.44l-.83-.49a227.94,227.94,0,0,0-2.22,35,148.3,148.3,0,0,0,1,17.11c.56,4.33,1.9,8.81,5.55,11.54,3.38,2.52,7,2.4,10.56.39,5-2.8,9.88-5.89,14.81-8.83,8.38-5,17.9-9.67,24-17.51,3.48-4.45,5.12-9.78,6.78-15.09,1.89-6,3.52-12.16,3.26-18.55l-1,.13c1.54,4,3.14,8.13,3.49,12.46.33,4.08-.48,8.14-.56,12.22A.5.5,0,0,0,919.5,481.47Z" transform="translate(-681.54 -300.53)"/><path class="cls-2" d="M856.28,522.19c-2.11-3.21-2.5-7.85-3-11.56a181.07,181.07,0,0,1-1.24-18.47,248,248,0,0,1,1.92-41c.06-.43-.48-.92-.84-.49-13.25,16.12-13.56,38.13-13.28,58,.08,5.28.1,10.81,2.61,15.61a23,23,0,0,0,9,8.94A41.7,41.7,0,0,0,864.63,538c5.44,1,8.87-3.16,12.71-6.38L937.91,481c9.53-8,19.18-15.82,28.55-24,8-6.92,15.69-14.4,21.18-23.48,14.34-23.71,5.76-51.28-2.8-75.38a.5.5,0,0,0-1,.14l-1.19,36.67c-.3,9.35.28,21.11-7.72,27.65-.5.4.21,1.11.7.7,7.45-6.07,7.64-16.56,7.93-25.38l1.28-39.64-1,.13c7.46,21,15.62,45,6.81,66.86C982.8,444.81,963.86,458,948.25,471l-56.38,47.17-13.71,11.47c-2.24,1.88-4.44,3.82-6.73,5.63a7.53,7.53,0,0,1-4.93,2,21.21,21.21,0,0,1-4.9-1C852,533.64,843,528,841.37,517.46c-.93-6-.6-12.28-.53-18.3a152.19,152.19,0,0,1,.91-16c1.35-11.43,4.69-22.74,12.11-31.76l-.84-.49a238.56,238.56,0,0,0-2,31.94c-.07,10.18.13,20.51,1.72,30.58.48,3,1,6.59,2.71,9.23.35.54,1.22,0,.86-.5Z" transform="translate(-681.54 -300.53)"/><path class="cls-2" d="M992.8,385.36c13.53-7.82,25.34-21.09,30.07-36.12,4.35-13.82,2-29.74-8.73-40.05a.5.5,0,0,0-.84.48c1.34,6.24,2.52,12.52,3.32,18.85.86,6.74,0,12.55-3.73,18.31-5.93,9.08-14.38,17.88-23.74,23.42a.5.5,0,0,0,.51.87,67.36,67.36,0,0,0,13.52-11,80.79,80.79,0,0,0,11-13.51c3.36-5.4,4.25-11,3.52-17.24-.77-6.7-2.05-13.38-3.46-20l-.84.48c10.68,10.29,12.79,26.2,8.22,39.88-4.83,14.43-16.27,27.17-29.35,34.72a.5.5,0,0,0,.5.87Z" transform="translate(-681.54 -300.53)"/><path class="cls-2" d="M983.59,369.72c-3.17-3.39-3.93-8-5.08-12.29A45.71,45.71,0,0,0,974,346.36a46.21,46.21,0,0,0-16.43-16.61c-.35-.21-.9.14-.74.56,4.18,11.06,10.26,21.3,14.29,32.42a78.37,78.37,0,0,1,4.24,33.81c-2,22.44-12.7,43-27.68,59.55A158,158,0,0,1,919.87,480c-.52.36,0,1.23.51.87,18-12.37,34.15-28,44.61-47.34,10.61-19.63,15-43.34,9-65.11C970.25,355,962.67,343,957.76,330l-.74.57a45.22,45.22,0,0,1,17.17,18.27,56.32,56.32,0,0,1,4.11,11.82c.92,3.56,2,7,4.58,9.73.44.47,1.15-.24.71-.71Z" transform="translate(-681.54 -300.53)"/><path class="cls-2" d="M917.7,488.44a49.21,49.21,0,0,0-1-32.64.5.5,0,0,0-1,.13c-.86,7.68-1.79,15.47-4.47,22.77-3.07,8.4-8.63,14.44-16,19.34s-15,9.42-22.54,14.1c-3.14,2-6.57,5-10.52,4.49s-6.78-3.88-8.62-7.21c-.31-.57-1.17-.06-.86.5,2.32,4.22,6.36,8.45,11.64,7.71,2.85-.41,5.25-2.39,7.62-3.86l10.74-6.68c6.32-3.93,13-7.58,18.75-12.39a36.82,36.82,0,0,0,10.91-16.11c2.6-7.27,3.51-15,4.37-22.66l-1,.13a48.31,48.31,0,0,1,1,32.12c-.2.61.77.87,1,.26Z" transform="translate(-681.54 -300.53)"/><path class="cls-2" d="M975.41,390.2c-4.75,4.88-10.54-5.34-12-8.84-.22-.52-1.06-.15-.91.39a53.85,53.85,0,0,0,6.58,14.56c.84,1.29,4.38,7.3,6.25,3.74.3-.57-.57-1.08-.87-.51-1,1.91-4.34-3.46-4.75-4.09q-1.27-2-2.36-4.1a53,53,0,0,1-3.89-9.87l-.91.39c1.72,4,8.16,14.63,13.6,9,.45-.46-.26-1.17-.71-.71Z" transform="translate(-681.54 -300.53)"/><path class="cls-2" d="M997.68,364.07a19,19,0,0,0-6.21-16.46.51.51,0,0,0-.84.49,29.92,29.92,0,0,1,.27,18.09c-.34,1.11-1.31,2.56-.84,3.72a.53.53,0,0,0,.61.35c.41-.06.5-.16.67-.53a.52.52,0,0,0-.18-.68l-.15-.11c-.53-.36-1,.5-.51.87l.15.1-.18-.68-.06.06.61.35c-.35-.86.59-2.36.84-3.19a25.62,25.62,0,0,0,.65-2.58,30.83,30.83,0,0,0,.62-5,31.73,31.73,0,0,0-1.53-11.07l-.84.49a18,18,0,0,1,5.92,15.75c-.08.64.92.64,1,0Z" transform="translate(-681.54 -300.53)"/><path class="cls-2" d="M808.37,517.59c-2.14,3.09-4.53,6.74-3.56,10.68.7,2.81,2.93,4.94,5.92,4.75,3.62-.23,7.37-2.92,10-5.23a32.84,32.84,0,0,0,7.19-9.28c4.42-8.28,5.59-17.63,5.82-26.88.29-11.15-.16-22.2,1.5-33.28a131.54,131.54,0,0,1,10.62-35.48.5.5,0,0,0-.79-.6,66.28,66.28,0,0,0-20.31,42.9c-.7,9.39.28,18.94-1.55,28.24-1.9,9.61-7.4,17.35-14.42,24-.47.44.24,1.15.71.71,6.2-5.85,11.51-12.7,13.86-21,2.44-8.62,1.92-17.7,2.15-26.57.48-18.07,7.06-34.94,20.27-47.53l-.78-.61a132.47,132.47,0,0,0-12.15,52.22c-.4,17.15,1.9,37.19-11,50.74-2.75,2.89-8.36,7.71-12.69,6.48-6.69-1.89-2.34-10.23.09-13.71.37-.53-.5-1-.87-.51Z" transform="translate(-681.54 -300.53)"/><path class="cls-2" d="M818.48,528.37a13.55,13.55,0,0,1-5.94,11.43,13.21,13.21,0,0,1-6.7,2.09,12.9,12.9,0,0,1-3.34-.28,6.07,6.07,0,0,1-1.49-.41c-1-.5-.68-.68-.78-1.57a29.15,29.15,0,0,0-.36-4.46,17.4,17.4,0,0,0-2.38-5.2c-2.18-3.33-5.22-6-8-8.83-3.06-3.23-5.43-7-8.22-10.44a60.47,60.47,0,0,0-10-9.39c-7-5.48-14-10.9-20.59-16.86a244.57,244.57,0,0,1-36.49-40.78,89.92,89.92,0,0,1-3.32-99.92l-.93-.26c-.64,14.5-1.55,29-1.88,43.52-.16,6.6.31,13.14,2.74,19.34,2.34,5.95,5.91,11.28,9.47,16.54.36.53,1.22,0,.86-.5-3.58-5.31-7.24-10.69-9.52-16.71-2.51-6.61-2.74-13.59-2.5-20.58.49-13.87,1.22-27.74,1.83-41.61a.5.5,0,0,0-.93-.25c-15.33,24.31-17.94,55.89-7,82.46,6,14.46,16.11,27,26.38,38.64A259.71,259.71,0,0,0,765.35,498c3.62,2.8,7.34,5.5,10.71,8.61,3.61,3.34,6.33,7.3,9.3,11.18,5.18,6.76,15.95,13.34,13.6,23.22a.49.49,0,0,0,.23.56,14.33,14.33,0,0,0,20.29-13.16.5.5,0,0,0-1,0Z" transform="translate(-681.54 -300.53)"/><path class="cls-2" d="M810.06,517.15c-9.82-13.22-25.75-19.59-36.63-31.73a39.17,39.17,0,0,1-6.78-10.15c-2-4.44-2.4-9-2.54-13.83-.18-6.71-1.05-15-8.27-17.74a.5.5,0,0,0-.62.61c4.7,11.15-2.41,23.5,2.5,34.64.26.58,1.12.08.86-.51-4.85-11,2.28-23.31-2.39-34.4l-.62.62c9.35,3.6,6.82,15.94,8,23.66,1.07,7,4.92,13.23,9.68,18.39,10.8,11.7,26.35,18,35.94,30.94.38.51,1.25,0,.87-.5Z" transform="translate(-681.54 -300.53)"/><path class="cls-2" d="M756.49,469.93a220.21,220.21,0,0,1-19.41-25.8c-5.79-9-11.29-18.47-15-28.56-3.78-10.38-5-21.13-2.11-31.89a151.85,151.85,0,0,1,11.48-29A167.89,167.89,0,0,1,750.82,325a.51.51,0,0,0-.35-.86c-5.8,0-10.22,3.94-13.62,8.24q-4.46,5.64-8.91,11.28a178.34,178.34,0,0,0-10.82,15.46c-1.33,2.11-3.47,7.7-6.73,6.25-.58-.26-1.09.6-.5.86,2.12.95,3.45.24,4.8-1.54,3.68-4.84,6.55-10.32,10.12-15.26,3.2-4.42,6.75-8.56,10.11-12.86,4-5.13,8.27-11.48,15.55-11.43l-.36-.85a168.23,168.23,0,0,0-30,55.67,52.13,52.13,0,0,0-.57,30.74c3,10.71,8.52,20.65,14.32,30.08a221.53,221.53,0,0,0,22,29.83c.42.48,1.13-.23.71-.71Z" transform="translate(-681.54 -300.53)"/><path class="cls-2" d="M702.93,359.1c-13.34-16.39-12.19-40-2.42-57.83a.51.51,0,0,0-.68-.69c-15.31,6.78-20.07,24.65-17.72,40,1.23,8.08,4.14,15.47,7.59,22.81,3.67,7.82,6.62,15.7,6.76,24.45a.5.5,0,0,0,1,0c-.12-7.44-2.17-14.41-5.16-21.18-3.07-6.93-6.37-13.53-8.16-21-3.92-16.26-.8-36.71,16.19-44.24l-.68-.68c-10,18.27-11.06,42.29,2.57,59.05.41.5,1.11-.21.71-.71Z" transform="translate(-681.54 -300.53)"/><path class="cls-2" d="M705.31,352a18.41,18.41,0,0,1-.46-3.33c0-.91,0-1.83,0-2.74a46.37,46.37,0,0,1,.66-5.76,47.51,47.51,0,0,1,3.3-10.76.5.5,0,0,0-.78-.61,50.7,50.7,0,0,0-8.71,10.6,48.28,48.28,0,0,0-3.22,6.23c-.45,1-1.16,2.19-.4,3.23a.52.52,0,0,0,.43.25l.31,0c.64-.07.64-1.07,0-1a40.79,40.79,0,0,1,2.12-5.29,48.8,48.8,0,0,1,2.74-4.62,50.24,50.24,0,0,1,7.43-8.65l-.78-.61a48.43,48.43,0,0,0-4.1,17c-.07,1.49-.77,5.6.49,6.81a1.07,1.07,0,0,0,1.78-.24c.34-.54-.53-1.05-.86-.5Z" transform="translate(-681.54 -300.53)"/><path class="cls-2" d="M720.59,383.74a22.83,22.83,0,0,0,11.47-6.57A21.89,21.89,0,0,0,735.7,372c1.21-2.39,1.68-5.19,3.65-7.11a.5.5,0,0,0-.48-.84c-6.28,1.31-9.65,10-16.5,9-.63-.1-.9.86-.27,1,7.41,1.13,10.47-7.61,17-9l-.48-.84a11.51,11.51,0,0,0-2.6,4.44,23.78,23.78,0,0,1-3.73,6.74,22,22,0,0,1-12,7.41c-.63.14-.36,1.11.26,1Z" transform="translate(-681.54 -300.53)"/><path class="cls-2" d="M846.66,529.52a36.91,36.91,0,0,0-5.53,4.68c-2,2.07-3.39,4.84-6.31,5.57a28.36,28.36,0,0,1-5,.81c-2.22.17-3.33-1.25-4.56-2.85l-6-7.86c-.39-.51-1.26,0-.87.5,2.43,3.16,4.78,6.4,7.29,9.49,1.64,2,3.25,1.88,5.74,1.57s5.42-.55,7.14-2.44c2.85-3.14,5.13-6.13,8.68-8.61.52-.36,0-1.23-.51-.86Z" transform="translate(-681.54 -300.53)"/><path class="cls-2" d="M798.51,539.52c-1.67,4.21-2,8.8-2.5,13.25l-1.82,14.85c-.63,5.18-1.38,10.4-1.17,15.63.19,4.79,1.17,9.5,1.22,14.3.11,9.37-1.07,18.57.62,27.88a67,67,0,0,0,9.66,24.33c.34.54,1.21,0,.86-.5a66.48,66.48,0,0,1-9.64-24.52c-1.64-9.4-.28-18.71-.51-28.16-.12-4.47-1-8.86-1.21-13.33a90.87,90.87,0,0,1,1.05-14.64q.91-7.43,1.82-14.85c.57-4.69.83-9.54,2.58-14,.24-.6-.73-.86-1-.27Z" transform="translate(-681.54 -300.53)"/><path class="cls-2" d="M869.16,536.88c-.9,3.61-.28,7.3.13,11,.45,4,.94,8,1.59,12,1.34,8.3,4,16.31,4.21,24.78A209.2,209.2,0,0,1,874,608.12a88.42,88.42,0,0,1-4.54,22.2c-3.15,8.6-8.53,15.75-15.15,22-.47.45.23,1.15.7.71a59.29,59.29,0,0,0,13.43-17.67,72.26,72.26,0,0,0,5.86-21.15c1-7.45,1.39-15,1.71-22.52a77.09,77.09,0,0,0-.25-12.62,112.54,112.54,0,0,0-2.32-11.5,151.48,151.48,0,0,1-2.61-15.43c-.59-4.79-1.85-10.22-.66-15a.5.5,0,0,0-1-.26Z" transform="translate(-681.54 -300.53)"/><path class="cls-2" d="M850.32,620.46c-3.36,7.89-.07,16,2.21,23.68,1.26,4.29,2.31,8.93,1.57,13.42-.84,5.05-4.26,8.2-8.06,11.27C839,674.53,830.23,680.31,821,676a28.82,28.82,0,0,1-9.76-8.14c-3.12-3.83-6.33-8.4-6.28-13.53.05-5.52,2.57-10.91,3.42-16.35a63.79,63.79,0,0,0,.48-15.68c-.06-.64-1.06-.64-1,0a62.9,62.9,0,0,1-.75,17.22c-.92,4.92-3.11,9.76-3.15,14.81,0,4.66,2.4,8.67,5.08,12.31a35.78,35.78,0,0,0,8.55,8.55c7.58,5.12,15.88,3.66,23.19-1.14a55,55,0,0,0,10.71-8.68,15.78,15.78,0,0,0,3.89-10.71c0-11.27-8.9-22.5-4.15-33.67.25-.58-.61-1.09-.86-.5Z" transform="translate(-681.54 -300.53)"/><path class="cls-2" d="M933.23,539.82a63.13,63.13,0,0,1-14.67,24.95c-3.37,3.5-7.24,6.75-11.95,8.23-5.11,1.6-10.82,1.46-16.13,1.81-2.63.18-5.28.48-7.92.53-2.21,0-3.94-.1-4-2.59a8.3,8.3,0,0,1,1-3.56,44,44,0,0,1,7.07-10,56,56,0,0,1,20.22-13.69,71,71,0,0,1,26.78-5,.5.5,0,0,0,0-1c-18.11-.06-37.17,6.46-49.11,20.58-3,3.5-12.68,16.93-2,16.31,6.29-.36,12.64-.62,18.9-1.32a25.1,25.1,0,0,0,13-5.18c9.47-7.33,16.17-18.44,19.71-29.76.19-.61-.77-.87-1-.26Z" transform="translate(-681.54 -300.53)"/><path class="cls-2" d="M872.53,559l0-.21a.53.53,0,0,0-.48-.37l-.27,0a.5.5,0,0,0-.43.25c-.44.79-.11,1.87,0,2.72.16,1.5.36,3,.58,4.46.57,3.64,1.41,7.19,2.28,10.77a22.14,22.14,0,0,1,.85,5.6c0,1-.93,3-.55,4.06a1,1,0,0,0,1.66.38l-.85-.35.07.6c.07.63,1.06.65,1,0-.36-4,4.18-5,7.11-6s5.95-2,9-2.76a67.1,67.1,0,0,1,9-1.79,39.5,39.5,0,0,0,7.55-1.3c9.28-3,15.85-12.55,20.81-20.42,1.39-2.21,2.72-4.46,4-6.72,1.15-2,2.83-4.22,3.09-6.59.41-3.74-3-4.28-5.9-4.18A73.85,73.85,0,0,0,888.31,553c-2.4,1.9-4.58,4.27-7.28,5.75-3,1.64-7.43,1.8-9-1.85-.26-.59-1.12-.08-.86.51,1.3,3,4.76,4,7.77,3.28,4.56-1.11,8-5.46,11.65-8.16a73,73,0,0,1,27.91-12.74,69.79,69.79,0,0,1,7.61-1.26c2.36-.26,8.77-1.59,9.82,1.46.82,2.36-2,5.9-3.14,7.81-1.38,2.39-2.79,4.76-4.28,7.08a71.46,71.46,0,0,1-10.08,12.82,25,25,0,0,1-15.62,7.52,90.77,90.77,0,0,0-17.8,4.15c-3.67,1.2-10.08,2.43-9.62,7.54h1l-.07-.6a.51.51,0,0,0-.86-.35c1-1.07.62-4.7.46-6a53.45,53.45,0,0,0-1.3-5.87q-.87-3.54-1.49-7.12c-.26-1.55-.49-3.1-.67-4.66-.08-.64-.15-1.29-.21-1.93.23-.74,0-1.12-.64-1.13.1.63,1.06.36,1-.27Z" transform="translate(-681.54 -300.53)"/><path class="cls-2" d="M790.52,576.57a46.29,46.29,0,0,0-42.9-35.72c-3.13-.13-9.87-.89-10.55,3.5a6.31,6.31,0,0,0,1.55,4.68c1.7,2.3,3.77,4.41,5.69,6.53,7.1,7.86,15,15.39,24.94,19.49a36.17,36.17,0,0,0,17.24,2.87c.84-.08,4,0,4-1.53,0-.81-.79-.94-1.41-.66a.52.52,0,0,0-.23.57l0,.2c.11.64,1.08.37,1-.26.1.57-5.92.83-6.65.83a34,34,0,0,1-6.88-.82,43.18,43.18,0,0,1-12-4.72c-7.44-4.24-13.61-10.37-19.31-16.68-2.46-2.72-11.47-11.13-3.91-12.76,4.07-.89,9-.26,13,.51a44.91,44.91,0,0,1,22.24,11.21,45.76,45.76,0,0,1,13.19,23c.14.63,1.11.36,1-.26Z" transform="translate(-681.54 -300.53)"/><path class="cls-2" d="M796.14,556.08c-2.39,2.9-5.54-.45-7.55-2a48.92,48.92,0,0,0-5.45-3.66,67.09,67.09,0,0,0-12.65-5.6,123.1,123.1,0,0,0-14.3-3.73c-4.39-.91-9-2.06-13.43-2.35-3.18-.21-6.52.79-7.48,4.17-1,3.57,1.05,6.89,3.36,9.44,6.87,7.61,14.64,15.5,23.3,21.07a31.59,31.59,0,0,0,14.12,5.16c6,.59,13.43-.09,17.35,5.54.21.31.84.34.91-.12.88-5.8,1-11.82,2.77-17.45,1.17-3.74,2.35-6.86-.17-10.37-.37-.52-1.24,0-.86.51,2.92,4.07.31,8-.63,12.29-1.08,4.85-1.33,9.85-2.07,14.75l.91-.12c-5.3-7.61-15.83-4.71-23.49-7.05-9.8-3-17.61-11-24.7-18-1.8-1.78-3.57-3.58-5.33-5.39-1.92-2-4-4.11-4.59-6.91a5.11,5.11,0,0,1,4-6.38c2.52-.52,5.24.23,7.72.68,9,1.61,18.06,3.4,26.58,6.79a55.43,55.43,0,0,1,14.42,8.23c2.26,1.83,5.45,4.35,8,1.25.4-.5-.3-1.21-.71-.71Z" transform="translate(-681.54 -300.53)"/><path class="cls-10" d="M843.24,644.74c.3,2.43.51,5.08-.79,7.15-1.48,2.37-4.47,3.29-6.39,5.31-1.48,1.55-2.23,3.65-3.32,5.51s-2.82,3.63-5,3.68a5.83,5.83,0,0,1-4.26-2.16c-1.1-1.22-2.43-4.65-3.42-6-2.09-2.78-4.48-2.89-6.46-5.74s-2.78-7.09-.4-9.62c-.46,2.82,1.46,5.6,3.94,7s5.41,1.73,8.25,2a30.35,30.35,0,0,0,10.16-.39c3.29-.86,6.43-3,7.74-6.1l-2-.83" transform="translate(-681.54 -300.53)"/><path class="cls-10" d="M842.74,644.74c.34,2.89.51,5.91-1.75,8.11-1.42,1.38-3.31,2.18-4.78,3.51-3.18,2.89-5.39,12.95-11.33,8.42-2.87-2.18-3.26-6.25-6.1-8.57-1.81-1.48-3.84-2.44-5.1-4.52-1.56-2.54-2.11-6-.09-8.42l-.86-.36c-.71,7.3,7.64,9.07,13.16,9.5,6.57.51,14.66.06,17.87-6.78a.51.51,0,0,0-.3-.73l-2-.83c-.6-.25-.85.72-.27,1l2,.83-.3-.73c-2.72,5.81-9.4,6.71-15.15,6.41-5.28-.29-14.73-1.15-14-8.63a.5.5,0,0,0-.85-.35c-3.2,3.88-1.17,9.63,2.49,12.46a39.25,39.25,0,0,1,3.3,2.41A12.29,12.29,0,0,1,821,661c1.07,2.08,2,4.09,4.16,5.26,5.57,3,8-4.08,10.31-7.5,1.78-2.61,5-3.48,6.9-5.9s1.66-5.3,1.34-8.07c-.07-.64-1.08-.64-1,0Z" transform="translate(-681.54 -300.53)"/><path class="cls-2" d="M826.58,667.11c.12,3.36.27,8.56,3,11,.48.42,1.19-.28.7-.71-2.42-2.16-2.56-7.27-2.66-10.25,0-.64-1-.64-1,0Z" transform="translate(-681.54 -300.53)"/><path class="cls-2" d="M825.94,667c0,3.09.68,7.25-1.08,9.95-.35.54.51,1,.86.5,1.92-2.93,1.22-7.13,1.22-10.45a.5.5,0,0,0-1,0Z" transform="translate(-681.54 -300.53)"/><path class="cls-2" d="M831.61,631.43c3.32,1.58,4.73,1.94,7.68,4.13,1.45,1.07,3.2,4.4,3.67,6.14s-.25,3.74-1,5.49a7.14,7.14,0,0,1-2.21,3.36,6.67,6.67,0,0,1-2.5.88,38.43,38.43,0,0,1-16.87-.53,13,13,0,0,1-5.09-2.29,5.71,5.71,0,0,1-2.25-4.91c.21-1.7,1.38-3.1,2.5-4.4a28.14,28.14,0,0,1,6.16-5.83c2.42-1.49,7.23-3.05,9.88-2" transform="translate(-681.54 -300.53)"/><path class="cls-2" d="M831.36,631.86c4.71,2.21,9.82,4.3,11.12,10,.76,3.35-1.61,8.28-5,9a35.85,35.85,0,0,1-10.54.62c-3.21-.26-7.18-.77-10-2.43-1.92-1.12-3.54-3-3.28-5.31.2-1.78,1.46-3.13,2.58-4.43,3.53-4.08,9.3-9.25,15.28-7.42.62.19.88-.77.27-1-4.94-1.51-10.63,1.75-14,5.14s-7.79,8.29-3.09,12.63c2.21,2,5.48,2.75,8.35,3.27a39.11,39.11,0,0,0,11.43.37c2.34-.27,5.08-.45,6.64-2.44a12.25,12.25,0,0,0,2.48-7.43c-.54-6.44-6.72-9.14-11.73-11.49-.58-.27-1.09.59-.51.86Z" transform="translate(-681.54 -300.53)"/><g class="cls-11"><path class="cls-5" d="M841.12,642.76a6.89,6.89,0,0,1-3.87,6.87,11.11,11.11,0,0,1-3,.8c-6.09,1-12.67.26-17.77-3.2,4.42.88,9,1.76,13.4,1s8.86-3.39,10.36-7.64a2,2,0,0,1,1,1.94" transform="translate(-681.54 -300.53)"/><path class="cls-5" d="M840.62,642.76c.37,6.3-5.79,7.47-10.75,7.56a23.05,23.05,0,0,1-13.09-3.52l-.39.91c8.45,1.68,20.46,3,24.38-7l-.74.3.78,1.51c0,.64,1,.65,1,0a2.81,2.81,0,0,0-1.27-2.37c-.28-.22-.63,0-.74.3-3.68,9.3-15.34,7.79-23.14,6.25a.5.5,0,0,0-.39.91c6.31,4.08,26.08,7.51,25.35-4.9,0-.64-1-.64-1,0Z" transform="translate(-681.54 -300.53)"/></g><g class="cls-11"><path class="cls-5" d="M840,641.17a3,3,0,0,1,.62,3.74c-.34.72-1.73,2.92-2.71,2.82-.82-.4-.89-.7-.23-.9l.32-.23a4.3,4.3,0,0,0,.72-.76,7.45,7.45,0,0,0,1-2.21c0-.14.44-1.57.48-1.56.41.1.13,1.83.1,1.95s-1.79,3.73-2.31,3.05c.14.18,1.35-1.83,1.39-1.93.4-1,.4-2.14,1.06-3.08l-.79.1c.72.67-1,3.73-1.31,4.31l.92.38a18.08,18.08,0,0,1,1.5-3.94l-.91-.38a7.48,7.48,0,0,1-2.58,4.72l.85.35.06-.3a.5.5,0,0,0-.68-.68,6.51,6.51,0,0,0-1.18.91.5.5,0,0,0,.35.85c2.55,0,3.4-3.58,3.57-5.57l-1,.13a3.35,3.35,0,0,1-.94,3.71H839l-.34-.49c-.22-.6-1.19-.34-1,.27a1.71,1.71,0,0,0,.59.92.5.5,0,0,0,.71,0,4.32,4.32,0,0,0,1.2-4.67.5.5,0,0,0-1,.13c-.12,1.37-.69,4.57-2.57,4.57l.35.86a3.41,3.41,0,0,1,1-.76l-.68-.68a1.2,1.2,0,0,0-.2.8.51.51,0,0,0,.85.36,8.27,8.27,0,0,0,2.84-5.17c.08-.51-.63-.93-.91-.38a19.35,19.35,0,0,0-1.61,4.17.51.51,0,0,0,.92.39c.69-1.24,2.45-4.29,1.15-5.52a.52.52,0,0,0-.79.1,7.11,7.11,0,0,0-.91,2.49,4.32,4.32,0,0,1-.78,1.7c-.25.31-.65.56-.84.92-.53,1,.24,1.65,1.24,1.46,1.33-.26,2.22-2,2.7-3.09a4,4,0,0,0-.31-4.18.49.49,0,0,0-.49-.13c-.8.17-.94,1-1.16,1.75-.44,1.43-.76,2.71-2,3.62-.56.39-1.21.75-1.14,1.54a1.36,1.36,0,0,0,1.27,1.12c2,.33,3.64-1.8,4.38-3.34a4,4,0,0,0-.78-4.94c-.49-.42-1.2.29-.7.7Z" transform="translate(-681.54 -300.53)"/></g><g class="cls-11"><path class="cls-5" d="M840.13,641.5a3.84,3.84,0,0,1,.26,2.41c-.06.22-1,2.19-1.1,1.57,0-.14.45-.66.55-.82a9.7,9.7,0,0,0,.51-1,9,9,0,0,0,.61-2.27l-.74.3c.48.33,0,1.44-.13,1.81a4.76,4.76,0,0,1-1,1.45l.83.49.54-.65-.61-.62a7.71,7.71,0,0,1-.84,1.58l.91.12c-.28-.87.65-1.48,1-2.17a7.94,7.94,0,0,0,.3-2l-.61.35c.52.15-.32,2.53-.46,2.77s-.91,1.25-.42.2c.13-.28.53-.52.71-.8a4.2,4.2,0,0,0,.54-1.68c.13-1.07-.31.85-.38,1.06a7.52,7.52,0,0,1-.81,1.47c-.34.55.52,1.05.87.51a5.48,5.48,0,0,0,1.13-3c0-.6-.23-1.45-1-1.37s-.75,1-.87,1.53a3.16,3.16,0,0,1-.92,1.61,1.9,1.9,0,0,0-.59,1,1.16,1.16,0,0,0,.73,1.33c.74.22,1.32-.51,1.68-1,.61-.91,1.67-4.05,0-4.52a.5.5,0,0,0-.61.35,8.77,8.77,0,0,0-.1,1.14,3,3,0,0,1-.74,1.6,2.14,2.14,0,0,0-.41,2,.5.5,0,0,0,.91.12,8.06,8.06,0,0,0,.94-1.82.5.5,0,0,0-.62-.62,1.7,1.7,0,0,0-1.23,1.35.51.51,0,0,0,.84.49c1-1,2.61-3.69,1-4.84a.51.51,0,0,0-.74.3,7.87,7.87,0,0,1-.7,2.46c-.29.62-.82,1.16-1.06,1.8s.17,1.77,1.1,1.56,1.68-1.59,1.95-2.47A4.9,4.9,0,0,0,841,641c-.27-.59-1.13-.08-.86.5Z" transform="translate(-681.54 -300.53)"/></g><g class="cls-11"><path class="cls-5" d="M839.93,641.66a4.31,4.31,0,0,1,.12,1.89c0,.28-.24.59-.26.86,0,.49.14-.17.24-.36.47-.87,1.19-1.43.92-2.51-.13-.54-1.05-.44-1,.13a4.21,4.21,0,0,1-.53,2.69h.88c.35-.55-.52-1.05-.86-.51a.91.91,0,0,0,0,1,.5.5,0,0,0,.86,0,5,5,0,0,0,.67-3.19l-1,.13c.21.87-.94,1.63-1.12,2.45a1.07,1.07,0,0,0,.87,1.39c.79,0,1.08-1,1.22-1.59a5.11,5.11,0,0,0-.07-2.66.5.5,0,0,0-1,.27Z" transform="translate(-681.54 -300.53)"/></g><g class="cls-11"><path class="cls-5" d="M840.33,641.82l-1,2.44c-.23.59.73.85,1,.26l1-2.44c.23-.6-.73-.86-1-.26Z" transform="translate(-681.54 -300.53)"/></g><g class="cls-11"><path class="cls-5" d="M840.24,642l-.51,1.84a.5.5,0,0,0,1,.27l.52-1.84a.5.5,0,0,0-1-.27Z" transform="translate(-681.54 -300.53)"/></g><g class="cls-11"><path class="cls-5" d="M840,643l-.41,1.22c-.2.61.76.88,1,.27l.41-1.23c.21-.61-.76-.87-1-.26Z" transform="translate(-681.54 -300.53)"/></g><g class="cls-11"><path class="cls-5" d="M840,643.43l-.21.41c-.28.57.58,1.08.87.5l.2-.41c.29-.57-.58-1.08-.86-.5Z" transform="translate(-681.54 -300.53)"/></g><g class="cls-11"><path class="cls-5" d="M840.24,643.15l-.41.2c-.58.29-.07,1.15.5.86l.41-.2c.58-.29.07-1.15-.5-.86Z" transform="translate(-681.54 -300.53)"/></g><path class="cls-2" d="M836,685.94c-1.11,2.7-2.62,5.9-6,5.86-1,0-2.49-.27-2.57,1.14,0,.65,1,.65,1,0,0-.31,2.51-.14,2.92-.24a5.81,5.81,0,0,0,2.37-1.21c1.65-1.34,2.48-3.37,3.26-5.29.25-.59-.72-.85-1-.26Z" transform="translate(-681.54 -300.53)"/><path class="cls-2" d="M835.33,702.48a9.57,9.57,0,0,1-6.3,6.69c-.6.2-.34,1.17.27,1a10.58,10.58,0,0,0,7-7.39.5.5,0,0,0-1-.27Z" transform="translate(-681.54 -300.53)"/><path class="cls-2" d="M837,720.35l-2.77,3.52c-.79,1-2.27,3.3-3.84,2.4a.5.5,0,0,0-.51.86c1.25.71,2.46.18,3.47-.71a39.64,39.64,0,0,0,4.36-5.37c.39-.5-.31-1.21-.71-.7Z" transform="translate(-681.54 -300.53)"/><path class="cls-2" d="M874.25,608.6c-.17,5.69,1.37,11.16,1.86,16.8a26.13,26.13,0,0,1-4,16.67c-.35.55.52,1,.87.51a26.55,26.55,0,0,0,4.27-15.37c-.22-6.26-2.16-12.32-2-18.61,0-.64-1-.64-1,0Z" transform="translate(-681.54 -300.53)"/><path class="cls-2" d="M793.8,612.56c.2,6.19-1.36,12.21-1.41,18.38a26.73,26.73,0,0,0,4.3,15c.34.54,1.21,0,.86-.5a26.79,26.79,0,0,1-4.1-16.34c.3-5.53,1.53-10.94,1.35-16.51,0-.64-1-.64-1,0Z" transform="translate(-681.54 -300.53)"/><path class="cls-2" d="M794.57,641.53c-8.44,19.4-9.78,40.5-5.33,61.1A165.51,165.51,0,0,0,799,732.85c3.89,9.08,8.78,17.82,15.42,25.19a63.39,63.39,0,0,0,8.87,8.15c1.61,1.22,3.24,2.39,4.86,3.59,1.15.85,1.54,1.33,2.86,1.34h3.78c1.34,0,1.59-.26,2.77-1.15,4.07-3.08,8.13-6.19,11.92-9.61,15.24-13.75,23.44-33.41,28.85-52.82,6.45-23.11,6.37-47.14-3.29-69.35-.26-.58-1.12-.08-.86.51,8.32,19.13,9.61,40,5.23,60.33A165.24,165.24,0,0,1,870.2,728c-3.75,9-8.45,17.7-14.86,25.09a85.9,85.9,0,0,1-10.27,9.82c-2,1.68-4.12,3.3-6.22,4.9-1.31,1-2.37,2.36-4,2.36h-3.6c-1.49,0-2.28-1-3.49-1.91a90.41,90.41,0,0,1-9-7.19c-14-13.34-21.55-32.58-26.59-50.87-6.26-22.69-6.16-46.33,3.32-68.12.25-.58-.61-1.09-.87-.5Z" transform="translate(-681.54 -300.53)"/><g class="cls-12"><path class="cls-2" d="M1014,310.6l3.64,6.29a42.86,42.86,0,0,1,4,8.53,28.87,28.87,0,0,1,.66,7.09c0,13.8-6.72,27.2-16.69,36.75a25.12,25.12,0,0,1-7,5,11.84,11.84,0,0,1-8.41.67,15.89,15.89,0,0,1,2.74,6.63,9,9,0,0,0-2.44-4.73A21.05,21.05,0,0,1,993,384c6.49-4.39,12.92-9.07,17.82-15.18a87.65,87.65,0,0,0,7.5-11.63,50.38,50.38,0,0,0,2.54-4.82,37.17,37.17,0,0,0,2.5-9c1-6.25,1.2-12.8-.83-18.8-1.47-4.32-4-8.18-6.51-12-.64-1-.79-1.75-1.93-2" transform="translate(-681.54 -300.53)"/><path class="cls-2" d="M1013.61,310.85c3.43,5.93,7.73,11.89,8.11,18.93a46.19,46.19,0,0,1-2.84,18.52,54.37,54.37,0,0,1-9.8,16.55c-4.57,5.32-11.06,11.79-18.74,9.6a.51.51,0,0,0-.56.74,17.38,17.38,0,0,1,2.69,6.52l1-.27a10.4,10.4,0,0,0-2.57-4.95c-.39-.44-1.05.12-.79.6a22.84,22.84,0,0,1,2.4,7.07.5.5,0,0,0,.73.3c6.5-4.4,13-9.09,17.93-15.26a74.7,74.7,0,0,0,6.19-9.33,50.2,50.2,0,0,0,5.15-10.54c2.15-7,2.9-15.13,1.23-22.31a35.56,35.56,0,0,0-4.52-10.38c-1-1.65-2.06-3.27-3.12-4.88a3.28,3.28,0,0,0-1.89-1.65c-.61-.21-.87.76-.26,1,1.33.46,2.31,2.76,3,3.89.93,1.44,1.84,2.89,2.66,4.39a30.85,30.85,0,0,1,3.49,9.69,43.41,43.41,0,0,1-2.27,22,66.57,66.57,0,0,1-5.3,9.88,61,61,0,0,1-6.5,9.19c-4.7,5.32-10.48,9.49-16.32,13.45l.73.3a23.61,23.61,0,0,0-2.49-7.31l-.79.6a9.56,9.56,0,0,1,2.32,4.52c.14.63,1.09.36,1-.27a17.77,17.77,0,0,0-2.79-6.76l-.56.74c7,2,13-2.73,17.56-7.5A56.3,56.3,0,0,0,1019,350.79a47.72,47.72,0,0,0,3.77-20.56c-.33-7.47-4.63-13.59-8.27-19.89a.5.5,0,0,0-.86.51Z" transform="translate(-681.54 -300.53)"/></g><g class="cls-12"><path class="cls-2" d="M991.92,349c-.21.37.14.8.44,1.12,2.32,2.41,3,6.05,2.53,9.37a27,27,0,0,1-3.71,9.28,25.82,25.82,0,0,1,3.12-1.88,5.1,5.1,0,0,0,2.42-2.62,6.45,6.45,0,0,0,.15-2.36c-.19-2.9-.44-6-2.2-8.3" transform="translate(-681.54 -300.53)"/><path class="cls-2" d="M991.42,349c.06,1.17.82,1.6,1.47,2.57a10.61,10.61,0,0,1,1.64,6c0,4-1.87,7.6-3.78,11-.23.41.26,1,.68.69,2.26-1.68,5.54-2.5,6-5.72a16,16,0,0,0-2.28-10.13c-.36-.53-1.22,0-.86.51a14.57,14.57,0,0,1,2.13,8,4.65,4.65,0,0,1-2.32,4.55c-1,.66-2.13,1.15-3.12,1.88l.68.69c1.82-3.19,3.54-6.59,3.87-10.31a13.18,13.18,0,0,0-.42-4.76,10.94,10.94,0,0,0-.91-2.25c-.34-.61-1.7-2.08-1.73-2.71s-1-.65-1,0Z" transform="translate(-681.54 -300.53)"/></g><g class="cls-12"><path class="cls-2" d="M957.8,330.85a48.77,48.77,0,0,1,13.43,16.42c2.5,5,4.12,10.31,6.2,15.46,1.87,4.61,4.1,9,6.33,13.49.13-2,.22-4.22-.84-6a30.3,30.3,0,0,0-2-2.48c-1.45-1.89-1.9-4.34-2.47-6.66-2.42-9.81-9-25.52-20.6-30.27" transform="translate(-681.54 -300.53)"/><path class="cls-2" d="M957.44,331.21A50.57,50.57,0,0,1,972.83,352c1.69,4.15,3.08,8.42,4.84,12.54s3.69,8,5.66,11.89c.24.48.91.21.93-.25.13-2.28.18-4.59-1.14-6.54a39.06,39.06,0,0,1-2.65-3.49,19,19,0,0,1-1.4-4.43,70.15,70.15,0,0,0-3.91-11.64c-3.5-8-8.82-16.14-17.11-19.7-.59-.25-1.1.61-.51.86,8.15,3.51,13.32,11.5,16.76,19.34a67,67,0,0,1,3.71,11c.55,2.23,1,4.51,2.43,6.4.93,1.25,2.11,2.17,2.59,3.73a12.56,12.56,0,0,1,.23,4.45l.93-.25c-2.21-4.4-4.42-8.81-6.27-13.37-1.7-4.19-3.09-8.5-4.89-12.65a50.36,50.36,0,0,0-14.88-19.45c-.5-.4-1.21.3-.71.71Z" transform="translate(-681.54 -300.53)"/></g><g class="cls-12"><path class="cls-2" d="M975.62,391.44a5,5,0,0,0-.86,2.19,2.58,2.58,0,0,1-1.3,1.88,2.34,2.34,0,0,1-1.26.06,6.46,6.46,0,0,1-3.67-2q2,2.48,4,4.87a3.07,3.07,0,0,0,1.07.93,1.08,1.08,0,0,0,1.3-.22,1.57,1.57,0,0,0,.22-1.09c0-1.88,0-3.75,0-5.63" transform="translate(-681.54 -300.53)"/><path class="cls-2" d="M975.19,391.19c-.72,1-.6,2.36-1.31,3.31-1.27,1.68-4-.27-5-1.26-.46-.47-1.09.21-.7.71,1.19,1.49,2.39,3,3.63,4.43.64.76,1.42,1.78,2.56,1.61a1.52,1.52,0,0,0,1.25-1.52c.22-2,0-4.05,0-6,0-.64-1-.64-1,0,0,1.15-.07,2.29-.07,3.44a6.28,6.28,0,0,1,0,1.56c.22.61,0,.89-.7.82-.46.36-.81.31-1-.16a11,11,0,0,1-1.84-2.2l-2.16-2.67-.7.71c1.19,1.19,3.2,2.48,5,2.15,2.15-.4,1.85-3,2.86-4.41.38-.52-.49-1-.86-.5Z" transform="translate(-681.54 -300.53)"/></g><g class="cls-12"><path class="cls-2" d="M991.23,379.07a79,79,0,0,1-15.5,65.31c-3.27,4-7,7.78-9.54,12.28l6.36-6.63c5.31-5.53,10.66-11.12,14.58-17.71,7.49-12.57,9.14-28.13,6.12-42.45" transform="translate(-681.54 -300.53)"/><path class="cls-2" d="M990.74,379.2a78.54,78.54,0,0,1-2.58,41.48,77.45,77.45,0,0,1-9.26,18.59c-4.06,6-9.45,10.92-13.14,17.13a.5.5,0,0,0,.78.61c9-9.33,19-18.44,24.12-30.56,4.92-11.55,5.57-24.5,3.08-36.72-.13-.63-1.1-.36-1,.27,2.5,12.25,1.77,25.33-3.36,36.84s-14.91,20.44-23.58,29.46l.79.61c3.89-6.55,9.63-11.77,13.81-18.14a78.86,78.86,0,0,0,9-18.59,79.72,79.72,0,0,0,2.33-41.25c-.13-.63-1.1-.36-1,.27Z" transform="translate(-681.54 -300.53)"/></g><g class="cls-12"><path class="cls-2" d="M983.05,388.18l-1.4,12.21c-.88,7.68-1.86,15.65-5.93,22.22a28.91,28.91,0,0,0,6.17-13.75,76.43,76.43,0,0,0,.88-15.2" transform="translate(-681.54 -300.53)"/><path class="cls-2" d="M982.55,388.18c-1.29,11.29-1.27,24.16-7.26,34.18-.29.47.41,1.05.78.6,6.87-8.22,7.34-19.07,7.2-29.3a.5.5,0,0,0-1,0c.13,9.93-.22,20.6-6.9,28.6l.78.6c6.08-10.17,6.09-23.22,7.4-34.68.08-.64-.92-.63-1,0Z" transform="translate(-681.54 -300.53)"/></g><g class="cls-12"><path class="cls-2" d="M916.44,457.71c3,11.7.48,24.16-3.8,35.45,4.31-3.14,5.61-9,6-14.27a77.24,77.24,0,0,0-.23-14.74l-.38,1.32" transform="translate(-681.54 -300.53)"/><path class="cls-2" d="M916,457.85c2.9,11.84.39,24-3.8,35.18-.2.52.49.75.84.48,3.62-2.82,5.15-7.14,5.83-11.56a69.76,69.76,0,0,0,.12-17.8.5.5,0,0,0-1-.13l-.38,1.31a.5.5,0,0,0,1,.27l.39-1.32-1-.13a75,75,0,0,1,.09,16.2c-.53,4.68-1.89,9.45-5.75,12.46l.83.48c4.26-11.38,6.75-23.69,3.81-35.71a.5.5,0,0,0-1,.27Z" transform="translate(-681.54 -300.53)"/></g><g class="cls-12"><path class="cls-2" d="M897.09,514.29l-15.32,8.42c-2.71,1.49-5.43,3-8.25,4.26-7.92,3.58-16.88,5.38-25.41,3.69,6.08,3.1,12.53,6.18,19.34,5.93a8.62,8.62,0,0,0,3.41-.69,11.42,11.42,0,0,0,2.48-1.79q9.45-8.24,19.39-15.91" transform="translate(-681.54 -300.53)"/><path class="cls-2" d="M896.83,513.86c-14.89,8.18-30.68,19.61-48.59,16.32-.52-.1-.92.64-.38.91a61,61,0,0,0,12.48,5.18c3.27.82,7.6,1.57,10.77.06,1.8-.86,3.28-2.48,4.77-3.76q2.57-2.21,5.16-4.36,5.93-4.94,12-9.65c.51-.4-.2-1.1-.71-.71-6.62,5.12-13,10.56-19.38,15.9-7,5.78-17.82-.06-24.63-3.52l-.38.91c18.25,3.36,34.17-8.07,49.36-16.42.56-.31.06-1.17-.51-.86Z" transform="translate(-681.54 -300.53)"/></g><g class="cls-12"><path class="cls-2" d="M852.53,510c1,2.21,3.1,3.69,5.19,4.92,2.56,1.51,5.48,2.85,8.4,2.31-1.29,1.61-3.14,2.63-4.81,3.85s-3.26,2.81-3.55,4.85a30.41,30.41,0,0,1-5.13-14.76" transform="translate(-681.54 -300.53)"/><path class="cls-2" d="M852.1,510.25c2.33,4.56,9,8.1,14,7.48l-.35-.85c-2.76,3.14-7.48,4.44-8.49,8.91l.91-.12A37.83,37.83,0,0,1,853.12,511c-.09-.63-1-.36-1,.27a38.49,38.49,0,0,0,5.18,14.88.5.5,0,0,0,.91-.12c1-4.19,5.63-5.51,8.23-8.47.25-.29.12-.91-.35-.86-4.64.57-11-2.75-13.15-7-.3-.57-1.16-.06-.87.51Z" transform="translate(-681.54 -300.53)"/></g><g class="cls-12"><path class="cls-2" d="M853.1,452.61c-3.6,10.28-3.46,21.43-3.28,32.32.09,5.38.18,10.76.61,16.12.22,2.59.54,5.28,2,7.46a160.19,160.19,0,0,1-1.19-21.89c0-3.23.19-6.47.33-9.71l1-21.4" transform="translate(-681.54 -300.53)"/><path class="cls-2" d="M852.61,452.48c-3.15,9.29-3.46,19.1-3.35,28.81.06,5,.12,10,.37,15,.2,4.16.16,8.73,2.32,12.44.23.4,1,.26.93-.25-2.13-17.63-.69-35.33.1-53,0-.64-1-.64-1,0-.79,17.67-2.23,35.37-.1,53l.93-.26c-2.34-4-2.09-9.3-2.26-13.83s-.26-9.36-.3-14c-.08-9.33.3-18.72,3.33-27.64.2-.61-.76-.87-1-.26Z" transform="translate(-681.54 -300.53)"/></g><g class="cls-12"><path class="cls-2" d="M844.21,424.56c-5.31,10.09-10.69,20.41-12.44,31.68-1.3,8.4-.52,16.95-.35,25.45s-.31,17.27-3.93,25-11,14.12-19.47,14.42a3,3,0,0,0-1.07.17,2.34,2.34,0,0,0-1.08,1.47A9.25,9.25,0,0,0,806,529a6,6,0,0,1,.78,3.11c-.28,1.64-2.3,2.47-3.92,2.09a9.23,9.23,0,0,1-4.07-2.75c-.06,4.16.8,9.18,4.65,10.76,3.39,1.39,7.16-.74,10-3.1,1.93-1.63,3.82-3.54,4.4-6,.31-1.31.23-2.71.8-3.92a9.18,9.18,0,0,1,2-2.42c7.34-7.34,10.65-17.86,11.81-28.18s.44-20.76,1-31.12A122.65,122.65,0,0,1,842,429" transform="translate(-681.54 -300.53)"/><path class="cls-2" d="M843.77,424.3c-4.06,7.74-8.16,15.55-10.68,23.95-2.66,8.87-2.7,17.89-2.37,27.06s.75,18.7-2.25,27.55c-2.59,7.64-8.3,14.8-16.33,17.06-1.69.47-3.84.14-5.39.86-1.19.57-1.55,2.17-1.74,3.34a10,10,0,0,0,.49,5,6.58,6.58,0,0,1,.6,1.54l-1.51,3a2.82,2.82,0,0,1-2.21-.17,9.37,9.37,0,0,1-3.26-2.4.5.5,0,0,0-.85.36c0,3.21.32,6.94,2.54,9.46s5.74,2.66,8.74,1.31c3.19-1.44,6.77-4.32,8.23-7.57,1.11-2.47.61-4.78,2.59-7a56.3,56.3,0,0,0,4.21-4.9c12-16.85,8-38.77,9.53-58.06a123.46,123.46,0,0,1,8.36-35.54c.24-.6-.73-.86-1-.27a124.74,124.74,0,0,0-7.29,26.54c-1.46,9.33-1.52,18.67-1.6,28.08-.08,9.12-.44,18.35-3.23,27.11a42,42,0,0,1-5.44,11.31c-2.24,3.22-5.73,5.41-6.38,9.43-.78,4.85-5.34,9.4-10.18,10.55-6.55,1.55-8.12-5.62-8.11-10.48l-.86.35c1.93,1.87,4.66,4.1,7.41,2.39a2.92,2.92,0,0,0,1.45-2.48c.07-2.27-1.51-4.21-1.37-6.62.13-2,.92-3.08,2.84-3.52.74-.16,1.53-.16,2.28-.31a19.82,19.82,0,0,0,4.84-1.67,25.45,25.45,0,0,0,8.72-7.24c12.41-15.89,4.85-37.71,7.67-55.94,1.75-11.29,7.13-21.56,12.39-31.56.3-.57-.57-1.08-.87-.51Z" transform="translate(-681.54 -300.53)"/></g><path class="cls-2" d="M757.2,445.37a.5.5,0,0,0,0-1,.5.5,0,0,0,0,1Z" transform="translate(-681.54 -300.53)"/><g class="cls-12"><path class="cls-2" d="M756.22,444.77c4.37,6.05,5.22,13.87,5.93,21.3.33,3.46.63,7.09-.78,10.26-.59,1.34-1.5,2.66-1.37,4.13.19,2.17,2.6,3.48,4.78,3.65s4.39-.39,6.55,0a30.52,30.52,0,0,1-7.61-15.91c-.65-4.23-.39-8.57-1.08-12.81s-2.56-8.58-6.25-10.76" transform="translate(-681.54 -300.53)"/><path class="cls-2" d="M755.79,445a32.12,32.12,0,0,1,4.93,13.29c.79,4.8,1.9,10.6.93,15.43-.56,2.83-3.53,6-1.3,8.79,2.6,3.27,7.48,1.67,11,2,.46.05.61-.57.35-.86a30.61,30.61,0,0,1-6.35-10.94c-1.31-4-1.47-8.19-1.7-12.39-.34-6.07-1.47-12.69-7-16.22-.54-.35-1,.52-.5.86,7.31,4.68,6.07,14.33,6.9,21.78A31.71,31.71,0,0,0,771,484.42l.36-.85c-2.37-.25-4.8.38-7.14-.07-1.44-.28-3.11-1-3.59-2.55s.63-3,1.2-4.37c1.44-3.35,1.18-7,.85-10.51-.7-7.49-1.6-15.22-6-21.55-.37-.53-1.23,0-.86.5Z" transform="translate(-681.54 -300.53)"/></g><g class="cls-12"><path class="cls-2" d="M743,454.4l12.75,21.13a16.14,16.14,0,0,0,2.49,3.41,13.92,13.92,0,0,1-2.06-7,3.36,3.36,0,0,0-.23-1.48,3.29,3.29,0,0,0-.78-.89,69,69,0,0,1-8.52-9.77l-3.38-4.41" transform="translate(-681.54 -300.53)"/><path class="cls-2" d="M742.58,454.65l7.9,13.1c2.31,3.82,4.33,8.29,7.42,11.54a.5.5,0,0,0,.78-.61,15.33,15.33,0,0,1-1.55-3.63c-.36-1.3-.22-2.64-.48-3.93-.34-1.65-1.87-2.54-3-3.69-3.69-3.76-6.75-8.11-9.95-12.28-.39-.5-1.26,0-.86.51,2.9,3.78,5.7,7.69,8.92,11.22.77.85,1.65,1.62,2.42,2.47a7,7,0,0,1,1.63,4.23,15.16,15.16,0,0,0,2,5.61l.79-.61c-3.21-3.37-5.38-8.21-7.77-12.18l-7.4-12.25c-.33-.55-1.2,0-.86.5Z" transform="translate(-681.54 -300.53)"/></g><g class="cls-12"><path class="cls-2" d="M737.39,365.51c-2.3,2.28-4.54,4.63-6.69,7.05-1.92,2.15-4.23,4.55-7.1,4.33-.55,0-1.21-.15-1.58.27a1.57,1.57,0,0,0-.26.67l-1.06,4.73c4.51-1.55,9.32-3.32,12-7.25,1.8-2.63,2.43-6,4.35-8.52" transform="translate(-681.54 -300.53)"/><path class="cls-2" d="M737,365.16q-2.67,2.64-5.21,5.41c-1.6,1.73-3.12,3.78-5.17,5-1.28.76-2.25.6-3.63.77a1.94,1.94,0,0,0-1.26.38c-1.13,1-1.24,4.29-1.55,5.69a.5.5,0,0,0,.61.62c3.61-1.24,7.39-2.57,10.28-5.16,3.28-2.94,4-7.34,6.4-10.83.36-.53-.5-1-.87-.51-2.24,3.21-2.89,7.29-5.7,10.13s-6.72,4.15-10.37,5.4l.61.62a36.34,36.34,0,0,1,.85-3.78c.51-1.51.84-1.41,2.28-1.52a7.43,7.43,0,0,0,4.08-1.83c3.44-2.77,6.22-6.58,9.36-9.7a.5.5,0,0,0-.71-.7Z" transform="translate(-681.54 -300.53)"/></g><g class="cls-12"><path class="cls-2" d="M749.71,325a43.39,43.39,0,0,0-12.88,13.75c-2.42,4.1-4.15,8.57-6.23,12.85A84,84,0,0,1,712.54,376a9.9,9.9,0,0,0-2.34,2.75,9,9,0,0,0-.71,2.95c-1.82,16.45,3.18,34.43,16.12,44.75-3.46-8.11-6.84-16.41-7.74-25.18s.8-17.93,3.75-26.39,7.12-16.43,11.28-24.36c4.38-8.36,8.85-16.85,15.39-23.66" transform="translate(-681.54 -300.53)"/><path class="cls-2" d="M749.46,324.56a46.85,46.85,0,0,0-15.55,18.67c-3.94,8.24-7.67,16.2-13.39,23.42a108.05,108.05,0,0,1-8.87,9.54c-2.54,2.52-2.74,5.44-2.93,8.89a57.71,57.71,0,0,0,2.93,21.82,44,44,0,0,0,13.6,20,.51.51,0,0,0,.79-.61c-3.64-8.56-7.24-17.39-7.82-26.78-.57-9.08,1.49-18.12,4.67-26.58s7.44-16.4,11.64-24.35c4-7.56,8.21-15,14.12-21.27.44-.47-.27-1.18-.71-.71-6,6.31-10.25,13.84-14.27,21.47-4.38,8.3-8.83,16.63-12.06,25.46s-5.14,18.06-4.28,27.37c.83,9.08,4.31,17.58,7.84,25.9l.79-.61c-11.4-9.28-16.47-24.06-16.33-38.45,0-1.74.11-3.48.29-5.21a8.79,8.79,0,0,1,3-6.09,90,90,0,0,0,8.08-8.71,92,92,0,0,0,11.94-19.89c4.05-8.92,8.87-16.67,17.05-22.36.53-.37,0-1.24-.5-.87Z" transform="translate(-681.54 -300.53)"/></g><g class="cls-12"><path class="cls-2" d="M707.05,330.35A135.4,135.4,0,0,0,700.46,348a14.87,14.87,0,0,0-.86,5,8.11,8.11,0,0,0,2.79,5.68,11.67,11.67,0,0,0,2.19-3.39,4.56,4.56,0,0,0,.37-1.19,6.56,6.56,0,0,0-.28-2.36,32,32,0,0,1,1.44-18.93" transform="translate(-681.54 -300.53)"/><path class="cls-2" d="M706.61,330.1A140.17,140.17,0,0,0,700.24,347c-1.34,4.41-1.86,8.64,1.79,12.07a.51.51,0,0,0,.71,0,10.81,10.81,0,0,0,2.62-4.49c.45-2-.56-4.29-.78-6.25a32.42,32.42,0,0,1,2-15.35c.23-.6-.74-.86-1-.27a32.42,32.42,0,0,0-1.79,17.48c.25,1.43.86,3,.49,4.43-.19.71-1,2.55-1.74,2.91-2.15,1-2.54-5.58-2.29-6.89a47.81,47.81,0,0,1,1.76-6.07,138.06,138.06,0,0,1,5.42-13.91c.26-.58-.6-1.09-.87-.51Z" transform="translate(-681.54 -300.53)"/></g><g class="cls-12"><path class="cls-2" d="M699.23,301.38c-6.11,6.8-8.36,16.15-10.17,25.11a55.62,55.62,0,0,0-1.53,13.27A53.59,53.59,0,0,0,689.25,350c2.41,10,5.28,19.93,8.14,29.84l4.7-19.49a4.16,4.16,0,0,0,.16-1.88,4.37,4.37,0,0,0-.84-1.54c-11.32-15.57-12.29-38-2.37-54.44" transform="translate(-681.54 -300.53)"/><path class="cls-2" d="M698.88,301a40.67,40.67,0,0,0-8.07,15.82,91.44,91.44,0,0,0-3.74,19.57c-.43,7.21,1.78,14.35,3.59,21.25,2,7.48,4.1,14.91,6.25,22.34a.51.51,0,0,0,1,0l2.9-12.06,1.34-5.57c.29-1.21.9-2.73.61-4s-1.32-2.24-2-3.21a44,44,0,0,1-2.5-4.24,47.75,47.75,0,0,1-3.68-9.37,50.2,50.2,0,0,1,4.9-38.77.5.5,0,0,0-.87-.5,51.14,51.14,0,0,0-5.88,35.85,49.26,49.26,0,0,0,6.95,17.22c.41.62.92,1.23,1.3,1.87a5.63,5.63,0,0,1,.4,4c-.34,2.16-1,4.35-1.56,6.49l-2.91,12.06h1c-2-6.81-3.94-13.61-5.77-20.46s-4.13-13.9-4.1-21c0-6.54,1.66-13.32,3.33-19.63s4-12.11,8.24-16.95c.43-.48-.28-1.19-.7-.71Z" transform="translate(-681.54 -300.53)"/></g></svg>