<svg id="Calque_1" data-name="Calque 1" xmlns="http://www.w3.org/2000/svg" viewBox="0 0 513.28 363.7"><defs><style>.cls-1{fill:#1d1d1b;}.cls-2{fill:#fff;}</style></defs><title>initiales</title><path class="cls-1" d="M152.27,101.93c-6.16,2.2-10.5,7.66-14.22,13q-4.12,6-7.77,12.28c-2.85,4.91-5.5,10-6.82,15.54s-1.24,11.54,1.24,16.65c1,2.09,2.7,4.17,5,4.38a7.26,7.26,0,0,0,4.11-1.26c7.24-4.23,12.06-11.6,15.85-19.08,6.45-12.72,10.73-27.5,6.83-41.22" transform="translate(-114.45 -91.06)"/><path class="cls-1" d="M151.74,100c-9.57,3.67-15.23,13.26-20.38,21.57-5.64,9.1-11.67,19.43-10.64,30.56.39,4.26,1.72,9.51,5.31,12.24,4.14,3.16,8.74.31,12.23-2.43,7.73-6.07,12.59-15.39,16.3-24.3,4.72-11.33,7.14-23.85,3.87-35.9-.68-2.48-4.54-1.43-3.86,1.06,2.45,9,1.4,18.33-1.41,27.15-2.58,8.09-6.43,16.37-11.69,23.08-2.52,3.21-5.69,6.47-9.43,8.24-5.22,2.47-7.07-6-7.36-9.57-.74-9.39,4-18,8.71-25.78,2.56-4.27,5.25-8.51,8.23-12.51s6.48-7.75,11.19-9.55c2.38-.91,1.34-4.78-1.07-3.86Z" transform="translate(-114.45 -91.06)"/><path class="cls-1" d="M397.1,390.42a74.78,74.78,0,0,1-31.71,48.4c-2.76,1.84-6.55,3.48-9.2,1.47a7,7,0,0,1-2.28-4.78c-1.05-7.9,3.24-15.59,8.57-21.5s11.85-10.73,16.8-17a20.27,20.27,0,0,1,4.4-4.69c1.81-1.19,4.35-1.56,6.05-.24" transform="translate(-114.45 -91.06)"/><path class="cls-1" d="M395.17,389.89A73.53,73.53,0,0,1,373.33,430a63.56,63.56,0,0,1-9.27,7.33c-1.54,1-3.7,2.27-5.6,1.82-2.4-.56-2.66-3.61-2.7-5.65-.18-8.69,5.83-16,11.7-21.72,3.47-3.38,7.15-6.53,10.45-10.08,2.3-2.47,6.65-10.48,10.82-7.84,2.18,1.39,4.18-2.07,2-3.45-4.17-2.65-8.59,0-11.37,3.33a118.79,118.79,0,0,1-10.7,11.4c-7.25,6.76-15.06,14.32-16.63,24.61-.6,3.91-.58,9.2,2.74,12,3.74,3.13,8.82.75,12.26-1.59A76.84,76.84,0,0,0,399,391c.46-2.52-3.39-3.6-3.86-1.07Z" transform="translate(-114.45 -91.06)"/><path class="cls-1" d="M116.52,173.11q-.73,102.95,8.34,205.66c2.15,24.37,6.93,52.32,28.07,64.65,11.7,6.83,25.94,7.14,39.49,7.27L307,451.75c26.13.25,57.45-2.38,70-25.32,12.8-23.46,4.65-48.93-6.77-55.69-18.26-10.82-136.34,16.4-161.51-3.32-9.73-7.62-12.31-77.28-12.43-89.64-.28-28.2,0-55-3.09-90.51-1.35-15.46-1-41-9.21-54.19s-18.7-13.14-34.21-13.38c-24.08-.36-34.13,37.93-33.17,53.41" transform="translate(-114.45 -91.06)"/><path class="cls-1" d="M114.52,173.11q-.57,81.06,4.92,162,1.36,20.1,3.11,40.17a222.69,222.69,0,0,0,4,29.32c4.07,18.13,13,36,31.1,43.32,10.69,4.34,22.52,4.62,33.9,4.74q20.34.21,40.69.38c26.24.24,52.51.8,78.75.71,17.76-.07,37.45-1.32,52.92-11,17-10.65,24.32-32.41,20.47-51.69-1.55-7.8-5.14-16.14-11.68-21-3.08-2.29-6.71-3-10.45-3.47-11.13-1.33-22.64-.22-33.76.64-29.64,2.28-59.48,6.62-89.26,5.41A101.77,101.77,0,0,1,222,370.74c-4.07-.88-8.63-2.07-12-4.72-2.36-1.88-3.54-6.44-4.38-9.65a149.46,149.46,0,0,1-3.47-19.26c-3.65-28.48-3.91-57.07-4.22-85.72-.12-11.16-.36-22.32-.86-33.47-.52-11.86-1.61-23.66-2.38-35.51-.62-9.48-1-19-2.35-28.39-1.29-8.93-3.45-18.06-9.11-25.29-5.21-6.65-12.44-9.63-20.67-10.5-7.56-.8-16.13-1.56-23.22,1.69-13.19,6-19.8,22.19-22.91,35.42a63.38,63.38,0,0,0-2,17.77c.15,2.56,4.15,2.57,4,0a60.59,60.59,0,0,1,2.14-18,68.22,68.22,0,0,1,8.23-19.93c3.59-5.67,8.63-10.93,15.29-12.77,3.66-1,7.51-.69,11.27-.59a56,56,0,0,1,12.46,1.36c18.64,4.8,20.67,28,21.88,43.91,1.62,21.45,3.24,42.94,3.83,64.45.48,17.16.2,34.33.69,51.49q.56,19,2.19,38c1.14,13,2.18,26.52,6.05,39,1.08,3.5,2.42,7.25,5.49,9.48a32.85,32.85,0,0,0,11.82,4.88c11.77,2.76,24.23,2.68,36.24,2.34,15-.42,29.88-1.72,44.77-3.05,13.73-1.23,27.47-2.63,41.25-3.28a155.83,155.83,0,0,1,16-.11c3.34.18,7,.42,10.11,1.76,5.68,2.42,9.51,10.13,11.28,16.07a48.9,48.9,0,0,1-1.2,30.41A40.38,40.38,0,0,1,360.82,440c-7.52,4.42-16.12,6.72-24.68,8.07a171,171,0,0,1-27.51,1.7c-12.84-.05-25.68-.23-38.53-.35q-39.26-.36-78.53-.73c-11.19-.12-22.92-.3-33.37-4.82-8.66-3.76-15.38-10.49-20-18.66-9.65-17.25-10.72-38.08-12.32-57.33q-6.53-78.31-7.34-157-.19-18.9-.06-37.8c0-2.58-4-2.58-4,0Z" transform="translate(-114.45 -91.06)"/><path class="cls-2" d="M135.9,146.64q-.74,102.95,8.34,205.65c2.15,24.38,6.93,52.33,28.07,64.66,11.7,6.83,25.94,7.14,39.49,7.26l114.53,1.07c26.13.24,57.45-2.38,70-25.32,12.8-23.47,4.65-48.93-6.77-55.7C371.26,333.45,253.18,360.67,228,341c-9.73-7.62-12.31-77.29-12.43-89.65-.28-28.2,0-55-3.09-90.51-1.35-15.45-1-41-9.21-54.18s-18.7-13.15-34.21-13.38c-24.08-.36-34.13,37.92-33.17,53.41" transform="translate(-114.45 -91.06)"/><path class="cls-1" d="M133.9,146.64q-.57,81.06,4.92,162,1.37,20.1,3.11,40.17a222.69,222.69,0,0,0,4,29.32c4.07,18.13,13,36,31.1,43.32,10.69,4.34,22.52,4.62,33.9,4.74q20.34.21,40.69.38c26.24.24,52.51.8,78.75.7,17.76-.06,37.45-1.31,52.92-11,17-10.65,24.32-32.41,20.47-51.7-1.55-7.79-5.14-16.13-11.68-21-3.08-2.29-6.71-3-10.45-3.48-11.13-1.33-22.64-.21-33.76.64-29.64,2.28-59.48,6.62-89.26,5.42a102.8,102.8,0,0,1-17.23-1.91c-4.07-.88-8.63-2.08-12-4.72-2.36-1.88-3.54-6.44-4.38-9.65a149.61,149.61,0,0,1-3.47-19.27c-3.65-28.48-3.91-57.06-4.22-85.72-.12-11.15-.36-22.31-.86-33.46-.52-11.86-1.61-23.67-2.38-35.51-.62-9.48-1-19-2.35-28.4-1.29-8.92-3.45-18.05-9.11-25.28-5.21-6.66-12.44-9.63-20.67-10.5-7.56-.8-16.13-1.56-23.22,1.69-13.19,6-19.8,22.19-22.91,35.42a63.38,63.38,0,0,0-2,17.77c.15,2.55,4.15,2.57,4,0a60.52,60.52,0,0,1,2.14-18,68.22,68.22,0,0,1,8.23-19.93c3.59-5.67,8.63-10.94,15.29-12.78,3.66-1,7.51-.69,11.27-.58a56,56,0,0,1,12.46,1.35c18.64,4.8,20.67,28.05,21.88,43.91,1.62,21.46,3.24,43,3.83,64.46.48,17.16.2,34.33.69,51.49q.56,19,2.19,38c1.14,13,2.18,26.51,6.05,39,1.08,3.5,2.42,7.25,5.49,9.48a32.85,32.85,0,0,0,11.82,4.88c11.77,2.76,24.23,2.67,36.24,2.34,15-.42,29.88-1.72,44.77-3.05,13.73-1.23,27.47-2.63,41.25-3.28a155.83,155.83,0,0,1,16-.11c3.34.18,7,.42,10.11,1.75,5.68,2.43,9.51,10.14,11.28,16.07A48.86,48.86,0,0,1,397.71,392a40.26,40.26,0,0,1-17.51,21.49c-7.52,4.43-16.12,6.72-24.68,8.08a171,171,0,0,1-27.51,1.7c-12.84-.05-25.68-.23-38.53-.35q-39.26-.37-78.53-.73c-11.19-.12-22.92-.3-33.37-4.83-8.66-3.75-15.38-10.48-20-18.66-9.65-17.25-10.72-38.08-12.32-57.33q-6.53-78.3-7.34-157-.19-18.88-.06-37.79c0-2.58-4-2.58-4,0Z" transform="translate(-114.45 -91.06)"/><path class="cls-1" d="M473.44,449.81c7.62,3.47,16.43-.61,23.52-5.06q5.81-3.66,11.35-7.72c3.79-2.77,7.84-6.42,7.7-11.11-.15-4.84-5.14-8.49-10-8.59s-9.35,2.5-13.07,5.6c-8.26,6.86-13.89,16.29-19.35,25.53a5.56,5.56,0,0,1-.26-4.5" transform="translate(-114.45 -91.06)"/><path class="cls-1" d="M472.91,451.73c8,3.38,16.64-.21,23.62-4.37,3.88-2.32,7.64-4.89,11.31-7.52,3.1-2.23,6.3-4.55,8.38-7.83,4.08-6.47.34-13.84-6.58-16.07-7.69-2.48-15.33,2.77-20.63,7.82-7.1,6.77-12.18,15.32-17.14,23.69h3.46a3.94,3.94,0,0,1-.06-3c.75-2.47-3.11-3.52-3.86-1.06a8.36,8.36,0,0,0,.46,6c.62,1.44,2.76,1.17,3.46,0,4.5-7.61,9.06-15.35,15.31-21.7,5-5.08,15.56-13.09,22-5.32C518.78,430,503.8,437.92,499,441c-7.2,4.72-16.24,10.56-25.06,6.84-2.36-1-3.4,2.87-1.06,3.85Z" transform="translate(-114.45 -91.06)"/><path class="cls-1" d="M577.25,193.34a49.49,49.49,0,0,0,30-13.47,22.71,22.71,0,0,0,5.81-8.08,11,11,0,0,0-.58-9.66c-2.08-3.3-6.28-4.83-10.16-4.5s-7.46,2.26-10.56,4.62a38.91,38.91,0,0,0-14.61,24.13,8.25,8.25,0,0,1-1.26-3.92" transform="translate(-114.45 -91.06)"/><path class="cls-1" d="M577.25,195.34a52.36,52.36,0,0,0,22.21-7.09c6.31-3.76,13.47-9.36,15.74-16.66,2.11-6.77-1.27-13.75-8.26-15.55-7.47-1.91-14.72,2.61-19.89,7.59a41.19,41.19,0,0,0-11.87,22.22l3.65-.48a7.44,7.44,0,0,1-1-2.91c-.28-2.53-4.28-2.56-4,0a12.24,12.24,0,0,0,1.53,4.93c.79,1.41,3.34,1.25,3.65-.48a37.61,37.61,0,0,1,10.57-20.18c4.78-4.7,15.31-11.39,20.86-3.93s-4.79,16.45-10.27,20.23a48,48,0,0,1-22.94,8.31c-2.55.23-2.57,4.24,0,4Z" transform="translate(-114.45 -91.06)"/><path class="cls-1" d="M332.33,108.7,315,115.88c-7.16,3-15.16,6.83-17.24,14.29a8.77,8.77,0,0,0,0,5.22c1.3,3.71,5.77,5.55,9.67,5s7.3-2.85,10.39-5.29a99.52,99.52,0,0,0,22.83-25.57" transform="translate(-114.45 -91.06)"/><path class="cls-1" d="M331.79,106.77c-7.68,3.18-15.64,6-23.09,9.73-5.67,2.82-11.47,7.06-13,13.57-1.6,6.78,3.26,12.24,10,12.42,7.54.21,14.2-6.22,19.34-11a102.92,102.92,0,0,0,17.25-20.94c1.37-2.19-2.09-4.2-3.45-2a98.83,98.83,0,0,1-16,19.54c-4.81,4.53-13.25,13.35-20.58,9.52-4-2.11-3.3-6.87-1.16-10.16a20.87,20.87,0,0,1,7.65-6.48c7.57-4.21,16.07-7,24.07-10.35,2.34-1,1.32-4.84-1.07-3.85Z" transform="translate(-114.45 -91.06)"/><path class="cls-1" d="M418.61,200.32c2.5,15.61-5.82,111-1.44,179.48,1.56,24.41-7.69,51.68,13.13,64.52,11.53,7.11,28.06,8,41.59,8.48,38.16,1.28,27.52-64.22,27.23-88.72-.38-32.48-5.22-129.1-9.64-164.45-1.37-11,68,3.59,97.71-10.1,9.89-4.57,10.35-31.18,10.33-40.82C597.43,109,497.74,113.14,451,113.84c-15.05.22-157.54-30.4-156.88,32.12,0,4.56-7.3,31.09,16.51,42.66C334.66,200.32,416.13,184.83,418.61,200.32Z" transform="translate(-114.45 -91.06)"/><path class="cls-1" d="M416.68,200.85c.07.42.2,1.84.25,2.79.08,1.45.12,2.9.14,4.36.06,3.91,0,7.82-.1,11.73-.26,11.31-.74,22.62-1.17,33.93-1.13,29.64-2.16,59.31-1.88,89,.07,7.51.23,15,.52,22.53.27,7.26,1,14.54.92,21.8-.08,13.36-2.66,27.31.6,40.47a29.8,29.8,0,0,0,9.09,15.48c5.49,4.78,12.55,7.46,19.58,9.06a131.37,131.37,0,0,0,23.82,2.69c4.94.2,9.8.23,14.47-1.63,17.61-7,19.41-31,19.74-47.15.2-9.95-.41-19.89-1-29.81-.46-7.76-.56-15.5-.78-23.27-.65-23.64-1.81-47.27-3.12-70.89-1.34-24-2.76-48-5.13-71.9q-.31-3.17-.67-6.33c-.11-1-.22-2-.34-2.95-.05-.4-.1-.79-.14-1.19s0-.29,0-.19c0-.15-.05-.09.12-.23a5.36,5.36,0,0,1,.91-.56,16.89,16.89,0,0,1,3.22-.82c8.76-1.44,18.11-.53,26.94-.28,12,.34,24.1.68,36.13-.11a124.52,124.52,0,0,0,16.78-2.11c4.53-.93,9.92-2.06,13.81-4.66s5.8-7.4,7-11.7a83.53,83.53,0,0,0,2.69-17c.57-8,1.59-16.91-2.35-24.2-3.66-6.75-10.47-11.25-17.3-14.33-9.09-4.11-18.93-6.37-28.74-8-23.06-3.78-46.62-4.14-69.93-4-10,.06-20,.53-29.93.44a93.57,93.57,0,0,1-11.44-1.18c-15.53-2-31.06-4.06-46.7-5.18-18.53-1.32-37.42-1.71-55.82,1.28-14.41,2.35-30.69,7.23-39.36,19.91-4.12,6-5.11,12.61-5.48,19.72-.15,2.93-.73,5.84-.91,8.77a47.48,47.48,0,0,0,1,13.71,32.05,32.05,0,0,0,20.9,22.9c8.63,3,18.28,3.3,27.32,3.54,11.25.29,22.51-.07,33.75-.29,9.92-.19,20-.49,29.85.57a33.46,33.46,0,0,1,9.28,2,9.38,9.38,0,0,1,2.38,1.38,2.5,2.5,0,0,1,1.05,1.88c.46,2.53,4.32,1.46,3.86-1.07-1-5.47-8.23-7-12.76-7.69-9.15-1.45-18.54-1.28-27.77-1.17-11.08.15-22.16.55-33.25.48-9.57-.05-19.45-.16-28.81-2.39-10-2.38-18.4-9.19-21.41-19.23-2.31-7.67-1.15-15.09-.53-22.86.26-3.23.21-6.34,1-9.52a27.58,27.58,0,0,1,4-8.71c3.76-5.49,9.48-9.3,15.44-12,15.35-7,33.34-8,50-8.13,17.83-.11,35.63,1.46,53.32,3.59,6.62.79,13.24,1.69,19.85,2.55a93.25,93.25,0,0,0,11.3,1.16c9.69.09,19.39-.36,29.08-.43,11.48-.09,23,0,34.45.51a301.1,301.1,0,0,1,34.44,3.19c9.57,1.52,19.31,3.59,28.21,7.52,6.52,2.89,13.16,7,16.5,13.53a20.72,20.72,0,0,1,2,9.62c0,4.91-.18,9.83-.64,14.73a60.44,60.44,0,0,1-3.35,16.36,15.29,15.29,0,0,1-3.37,5.57c-1.49,1.42-3.56,2.08-5.46,2.74-10.34,3.6-21.62,4.28-32.47,4.56-11.61.3-23.2-.19-34.8-.47-4.58-.1-9.17-.2-13.76,0a36.75,36.75,0,0,0-9.51,1.21c-2,.63-4.16,1.78-4.61,4-.29,1.47.18,3.12.35,4.58.24,2.16.47,4.31.68,6.47,1.06,10.57,1.88,21.16,2.63,31.75,1.81,25.44,3.21,50.91,4.35,76.39.83,18.44.88,36.94,1.92,55.37,1.07,18.88,3.32,39-1.86,57.49-2.12,7.55-6.06,15.31-13.63,18.57-4.58,2-9.45,1.73-14.32,1.52-7.9-.35-15.85-.95-23.55-2.89-6.91-1.75-13.93-4.64-18.73-10.13-4-4.6-5.86-10.65-6.53-16.63-1.54-13.68,1.13-27.47.31-41.19-1.76-29.6-1.47-59.26-.65-88.88.69-24.49,2-49,2.5-73.46.11-5.84.42-11.88-.48-17.68C420.15,197.25,416.29,198.33,416.68,200.85Z" transform="translate(-114.45 -91.06)"/><path class="cls-2" d="M443,185.52c2.5,15.61-5.82,111-1.44,179.48,1.56,24.42-7.69,51.68,13.13,64.52,11.53,7.11,28.05,8,41.59,8.48,38.16,1.28,27.51-64.22,27.23-88.72-.39-32.48-5.22-129.1-9.64-164.45-1.37-11,68.05,3.59,97.71-10.1,9.89-4.57,10.35-31.18,10.32-40.82C621.84,94.16,522.15,98.34,475.36,99c-15.05.23-157.54-23.58-156.89,32.12.06,4.56-7.29,31.09,16.52,42.66C359.07,185.52,440.54,170,443,185.52Z" transform="translate(-114.45 -91.06)"/><path class="cls-1" d="M441.09,186.05c.83,5.35.43,12.68.29,18.64-.25,11.29-.73,22.56-1.16,33.84-1.13,29.62-2.17,59.27-1.9,88.92q.1,11.28.51,22.55c.27,7.15.94,14.3.94,21.45,0,13.42-2.6,27.34.45,40.59a30.27,30.27,0,0,0,8.52,15.43c5.26,4.92,12.21,7.73,19.12,9.43,7.78,1.92,15.84,2.56,23.83,2.92,5.1.23,10.21.45,15.07-1.36,17.84-6.65,19.89-30.39,20.29-46.58.24-9.91-.33-19.82-.93-29.71-.46-7.68-.6-15.35-.8-23-.62-23.45-1.77-46.9-3.06-70.32-1.33-24.08-2.76-48.18-5.08-72.19-.39-4-.93-8-1.3-12,0-.17-.12-.19.42-.51a9.2,9.2,0,0,1,3-1c8.29-1.68,17.41-.73,25.8-.5,11.89.34,23.81.73,35.7.1,10.52-.56,22-1.53,31.64-6.16,4.12-2,6.32-6.27,7.76-10.4a70.35,70.35,0,0,0,3.16-16.73c.44-4.92.61-9.87.6-14.81a24.47,24.47,0,0,0-2.16-10.5c-3.15-6.8-9.58-11.5-16.14-14.72-8.7-4.27-18.27-6.64-27.77-8.34-23-4.1-46.54-4.55-69.81-4.46-14.38,0-28.78,1.07-43.11-.32-15.45-1.5-30.9-3-46.41-3.67-18.91-.83-38.09-.8-56.81,2.31-14.21,2.36-30.87,6.76-39.88,19-4,5.44-5,11.33-5.38,17.89-.18,3-.76,6-.92,9a46.67,46.67,0,0,0,1.15,13.79A32,32,0,0,0,337.63,177c8.68,2.94,18.34,3.25,27.42,3.48,11.26.29,22.51-.08,33.76-.29,9.83-.19,19.78-.48,29.57.57a33.82,33.82,0,0,1,9.28,2,8.72,8.72,0,0,1,2.45,1.45,2.49,2.49,0,0,1,1,1.81c.46,2.53,4.32,1.46,3.86-1.06-1-5.48-8.23-7-12.77-7.7-9.05-1.43-18.35-1.28-27.49-1.17-11.08.14-22.16.54-33.24.49-9.53-.05-19.36-.16-28.69-2.3-10-2.3-18.49-8.87-21.66-18.83-2.45-7.7-1.43-15.31-.7-23.16.27-2.86.18-5.61,1-8.42a23.48,23.48,0,0,1,3.93-8c3.93-5.2,9.79-8.73,15.71-11.23,15.79-6.68,33.83-8,50.77-8.38a477.5,477.5,0,0,1,53.75,2.14c10.46.91,21.1,2.76,31.62,2.59,21.56-.34,43.13-.84,64.69.25a285.1,285.1,0,0,1,33.88,3.46c9.36,1.61,18.91,3.79,27.52,7.93,6.22,3,12.54,7.31,15.29,13.93,1.34,3.24,1.44,6.55,1.4,10a146,146,0,0,1-.87,15.5c-.6,5.3-1.5,11-3.9,15.8a11.16,11.16,0,0,1-3.71,4.66,25.06,25.06,0,0,1-6.21,2.46c-10.63,3.26-22,3.81-33.06,4-11.39.19-22.78-.32-34.17-.56-4.43-.09-8.87-.16-13.29.08a29.92,29.92,0,0,0-8.88,1.41c-2.05.77-3.93,2.23-4,4.61,0,3.8.89,7.83,1.26,11.62,1,10.72,1.86,21.47,2.62,32.21,1.78,25.34,3.16,50.71,4.29,76.09.81,18.2.85,36.47,1.9,54.65,1.09,18.87,3.31,39.14-2.17,57.54-2.21,7.41-6.32,14.92-13.88,17.89-4.82,1.89-9.92,1.49-15,1.25-7.9-.37-15.87-1-23.53-3.14-6.8-1.85-13.66-4.91-18.17-10.53-3.83-4.77-5.46-10.89-6-16.89-1.3-13.61,1.21-27.29.37-40.94-1.83-29.59-1.43-59.3-.59-88.92.69-24.31,2-48.6,2.48-72.92.11-5.77.4-11.73-.48-17.45C444.55,182.45,440.7,183.53,441.09,186.05Z" transform="translate(-114.45 -91.06)"/><path class="cls-1" d="M551,405.17c-1.36-7.5,3.93-14.62,9.84-19.43,6.17-5,14.33-8.87,21.94-6.57,3.64,1.09,6.73,3.47,9.72,5.81l21.12,16.43a18.4,18.4,0,0,1,5,5,13.46,13.46,0,0,1,1.45,7.14c-.25,7.61-4,14.85-9.44,20.21s-12.37,9-19.6,11.36c-5.73,1.91-12.28,3-17.62.2a18.88,18.88,0,0,1-6.95-7.1c-7.91-13.06-13.7-29.76-2.1-39.7" transform="translate(-114.45 -91.06)"/><path class="cls-1" d="M553,404.64c-1-6.81,3.85-12.86,8.71-17s11.38-7.78,18-7.11c7.08.72,13.19,7.17,18.52,11.32l8.6,6.7c2.83,2.2,6,4.26,8.52,6.83,4.92,5,2.67,13.69-.25,19.19a35.52,35.52,0,0,1-13.42,13.64c-5.73,3.43-12.79,6.46-19.53,6.82-7.32.4-11.62-3.79-15-9.74-6-10.46-12-25.8-1.27-35.32,1.93-1.71-.91-4.53-2.83-2.83-11.08,9.84-7.09,25.27-1.17,36.82,3.26,6.37,7.35,13.11,14.91,14.68s15.68-1.38,22.45-4.58c7-3.34,13.41-8.21,17.73-14.75,3.89-5.87,6.65-14.13,4.63-21.15-1-3.58-3.59-6-6.43-8.18-3.9-3.06-7.82-6.09-11.74-9.13-3.47-2.71-6.94-5.43-10.43-8.12-3-2.34-6.21-4.6-9.95-5.62-8.46-2.31-17.07,2-23.5,7.2S547.8,397.07,549.1,405.7c.39,2.54,4.24,1.46,3.86-1.06Z" transform="translate(-114.45 -91.06)"/><path class="cls-1" d="M574.72,384.11c-13.84-1.55-26.77,10.42-29.36,24.11a34.28,34.28,0,0,0,9.55,30.55,32.11,32.11,0,0,0,30.89,7.64c10.64-3.23,19.17-12.81,20.8-23.81,1.37-9.24-2-18.83-7.92-26s-9-12.6-24-12.47" transform="translate(-114.45 -91.06)"/><path class="cls-1" d="M574.72,382.11c-13.91-1.33-26.32,9.38-30.41,22.14-4.39,13.68.77,29.81,12.17,38.47,11.59,8.8,28.26,9.35,39.9.4,12.19-9.37,15.52-25.32,9.26-39.16a46.24,46.24,0,0,0-6.59-10.07,50.34,50.34,0,0,0-5.48-6.1c-5.27-4.64-12-5.69-18.85-5.68-2.58,0-2.58,4,0,4,5.26,0,10.81.48,15.14,3.77,3.51,2.67,6.6,6.74,9.08,10.34,7.7,11.16,8.21,26-1.26,36.32a28.71,28.71,0,0,1-34.38,5.76c-11.53-5.93-17.87-19.08-16.28-31.83,1.66-13.39,13.67-25.71,27.7-24.36,2.56.25,2.54-3.75,0-4Z" transform="translate(-114.45 -91.06)"/><path class="cls-2" d="M593.72,374.47c-13.84-1.56-26.77,10.42-29.35,24.1a34.27,34.27,0,0,0,9.54,30.56,32.13,32.13,0,0,0,30.89,7.63A30.21,30.21,0,0,0,625.6,413c1.38-9.23-2-18.83-7.92-26s-9-12.61-24-12.47" transform="translate(-114.45 -91.06)"/><path class="cls-1" d="M593.72,372.47c-13.9-1.34-26.31,9.38-30.41,22.14-4.39,13.68.78,29.8,12.18,38.47,11.59,8.8,28.25,9.35,39.89.4,12.2-9.37,15.52-25.32,9.26-39.17a46.18,46.18,0,0,0-6.59-10.06,48.81,48.81,0,0,0-5.47-6.11c-5.28-4.64-12-5.68-18.86-5.67-2.57,0-2.58,4,0,4,5.26,0,10.81.48,15.14,3.77,3.51,2.66,6.6,6.74,9.08,10.34,7.7,11.16,8.21,26-1.26,36.32a28.73,28.73,0,0,1-34.38,5.76c-11.53-5.94-17.87-19.08-16.28-31.84,1.67-13.38,13.67-25.7,27.7-24.35,2.56.24,2.54-3.76,0-4Z" transform="translate(-114.45 -91.06)"/></svg>