<?xml version="1.0" encoding="utf-8"?>
<!-- Generator: Adobe Illustrator 19.1.1, SVG Export Plug-In . SVG Version: 6.00 Build 0)  -->
<svg version="1.1" id="Calque_1" xmlns="http://www.w3.org/2000/svg" xmlns:xlink="http://www.w3.org/1999/xlink" x="0px" y="0px"
	 viewBox="0 0 595.3 841.9" style="enable-background:new 0 0 595.3 841.9;" xml:space="preserve">
<style type="text/css">
	.st0{fill:#D9599C;}
	.st1{fill:#5A2F43;}
	.st2{fill:#DA569A;}
</style>
<g>
	<path class="st0" d="M326.5,440.4c-1.8,2.2-47.9,10.2-47.9,10.2s-11.9-46.2-10.3-48.3c1.6-2.2,47.9-10.2,47.9-10.2
		S328.4,438.2,326.5,440.4z"/>
	<path class="st1" d="M321.8,436.9c-1.6,1.8-41.1,8.8-41.1,8.8s-8.7-38.4-7.4-40.2c1.3-1.8,40-8.2,40-8.2S323.3,435.1,321.8,436.9z"
		/>
	<g>
		<path class="st2" d="M285.2,413c1.4,6.7,2.8,13.4,4.3,20c0.9-0.2,1.9-0.4,2.8-0.5c0.2,0,0.3-0.1,0.4-0.2c0.1-0.1,0.1-0.3,0-0.4
			c-0.7-4.5-1.5-9.1-2.2-13.6c-0.3-2.1-0.7-4.2-1.5-6.1C288,412.4,286.3,412.7,285.2,413"/>
	</g>
	<g>
		<g>
			<path class="st2" d="M301.5,408.7c1.2-0.5,2.5-0.9,3.8-1.3c1.5,7.1,3,14.1,4.5,21.2c0,0.2,0.1,0.5,0,0.7
				c-0.1,0.2-0.4,0.3-0.7,0.4c-0.9,0.2-1.8,0.3-2.7,0.5c-0.2-0.9-0.5-1.9-1-2.7c0.2,1.3-0.8,2.6-2,3.1c-1.2,0.5-3.8,1.2-5.1,0.6
				c-3.2-1.5-5-7.2-3.9-11.3c0.5-1.9,1.7-3.6,3.5-4.4c1.8-0.8,4.1-0.5,5.3,1C302.7,413.9,302.1,411.3,301.5,408.7 M303.4,419.8
				c-0.4-0.6-1-1-1.7-1.3c-0.4-0.2-0.9-0.2-1.4-0.1c-1.1,0.2-1.9,1.3-2.1,2.4c-0.2,1.1,0,2.2,0.3,3.3c0.2,0.7,0.4,1.4,0.8,2.1
				s1,1.2,1.7,1.4c1.1,0.3,2.2-0.3,2.9-1.2s0.8-2.1,0.7-3.2c-0.1-1.1-0.5-2.1-0.9-3.2"/>
		</g>
	</g>
</g>
<g>
</g>
<g>
</g>
<g>
</g>
<g>
</g>
<g>
</g>
<g>
</g>
</svg>
