<?xml version="1.0" encoding="utf-8"?>
<!-- Generator: Adobe Illustrator 19.1.1, SVG Export Plug-In . SVG Version: 6.00 Build 0)  -->
<svg version="1.1" id="Calque_1" xmlns="http://www.w3.org/2000/svg" xmlns:xlink="http://www.w3.org/1999/xlink" x="0px" y="0px"
	 viewBox="0 0 595.3 841.9" style="enable-background:new 0 0 595.3 841.9;" xml:space="preserve">
<style type="text/css">
	.st0{fill:#FAB544;}
	.st1{fill:#5C4823;}
</style>
<g>
	<path class="st0" d="M313.9,451.5c-2.7,1.1-47.7-13.3-47.7-13.3s10.9-46.4,13.3-47.6c2.4-1.2,47.7,13.3,47.7,13.3
		S316.6,450.4,313.9,451.5z"/>
	<path class="st1" d="M311.3,446.2C309,447.1,271,435,271,435s9.4-38.3,11.5-39.3s39.7,11.4,39.7,11.4S313.5,445.3,311.3,446.2z"/>
	<g>
		<g>
			<path class="st0" d="M294.2,408.9c1.5,0.8,3.2,1.3,4.9,1.3c-0.6,7.4-0.5,14.9,0.3,22.4c-1.2-0.3-2.4-0.7-3.6-1
				c-0.2-2.2-0.3-4.3-0.3-6.5c-2.1-0.5-4.1-1.1-6.2-1.8c-1.5,1.2-2.7,2.8-3.4,4.6c-1.4-0.4-2.8-0.6-4.3-0.6
				c4.3-6.1,8.5-12.3,12.7-18.5 M295.4,412.8c-1.6,2.4-3.2,4.9-4.7,7.4c1.5,0.3,3,0.7,4.4,1.3c0.1,0,0.2,0,0.3,0c0,0,0-0.1,0-0.1
				c-0.8-2.7-0.2-5.6,0.3-8.4"/>
		</g>
	</g>
	<g>
		<path class="st0" d="M305.3,418.1c-1.7,4.7-3.1,9.5-4.4,14.3c1.1,0.6,2.3,1.1,3.6,1.4c1.5-5,2.9-10,4.4-15
			c-1.1-0.1-2.1-0.4-3.1-0.8"/>
	</g>
	<g>
		<path class="st0" d="M308.9,412.1c-0.9,0-1.9,0.2-2.5,0.9c-0.6,0.7-0.5,1.7-0.1,2.4c0.5,0.7,1.3,1.1,2.2,1.2c0.5,0,1.1,0,1.5-0.4
			c0.4-0.3,0.5-0.9,0.5-1.4c0-0.5-0.2-1-0.4-1.5c-0.2-0.5-0.5-1.1-1-1.2"/>
	</g>
</g>
<g>
</g>
<g>
</g>
<g>
</g>
<g>
</g>
<g>
</g>
<g>
</g>
</svg>
