<?xml version="1.0" encoding="utf-8"?>
<!-- Generator: Adobe Illustrator 19.1.1, SVG Export Plug-In . SVG Version: 6.00 Build 0)  -->
<svg version="1.1" id="Calque_1" xmlns="http://www.w3.org/2000/svg" xmlns:xlink="http://www.w3.org/1999/xlink" x="0px" y="0px"
	 viewBox="0 0 595.3 841.9" style="enable-background:new 0 0 595.3 841.9;" xml:space="preserve">
<style type="text/css">
	.st0{fill:#88BAE5;}
	.st1{fill:#383375;}
	.st2{fill:#90C0E9;}
	.st3{fill:#7FB5E3;}
</style>
<g>
	<path class="st0" d="M328.4,435.6c-1.5,2.5-46.4,17.3-46.4,17.3s-18.5-43.9-17.2-46.3c1.2-2.4,46.4-17.3,46.4-17.3
		S329.9,433.1,328.4,435.6z"/>
	<path class="st1" d="M323.1,432.8c-1.3,2.1-39.9,14.8-39.9,14.8s-15.2-36-14.1-38c1.1-2,39.9-14.8,39.9-14.8
		S324.4,430.8,323.1,432.8z"/>
	<g>
		<g>
			<path class="st2" d="M281.2,415.3c2.9-1.9,4.6-3.1,8-3.6c5.4-0.8,9.6,5.7,7.1,9.7c-1.5,2.4-4.1,4.2-6.9,4.3
				c0.6,2.8,1.4,5.5,2.4,8.1c-1.2,0.5-2.5,0.8-3.8,0.9c-2.4-6.5-4.8-13-7.2-19.4 M285.9,416.7c0.4,2,1.1,4.1,1.9,6
				c1.6-0.3,3.2-1,4-2.4s0.6-3.5-0.8-4.3c-1.5-0.9-3.4-0.1-5,0.8"/>
		</g>
	</g>
	<g>
		<path class="st3" d="M306.1,412.5c0.1,0.9,0.2,1.9,0.2,2.8c-1.7-0.3-3.9-0.4-4.8,1.1c-0.3,0.4-0.4,1-0.2,1.4
			c0.3,0.6,1.2,0.7,1.9,0.7c1.3,0,2.7,0,3.9,0.3s2.5,1.1,3.1,2.3c1.1,2.1-0.3,4.7-2.2,6c-2,1.2-4.4,1.4-6.8,1.6
			c-0.2-1-0.2-2.1,0-3.1c0.9,0.4,2,0.6,3,0.4c0.8-0.1,1.7-0.5,2.1-1.1c0.5-0.7,0.5-1.7-0.2-2.2c-0.6-0.5-1.5-0.3-2.3-0.3
			c-1.3,0.1-2.7-0.2-3.8-0.9c-1.1-0.7-1.9-2-2-3.3c-0.1-1.7,1-3.4,2.5-4.3c1.5-0.9,3.2-1.2,5-1.2"/>
	</g>
</g>
<g>
</g>
<g>
</g>
<g>
</g>
<g>
</g>
<g>
</g>
<g>
</g>
</svg>
