<svg id="Calque_1" data-name="Calque 1" xmlns="http://www.w3.org/2000/svg" viewBox="0 0 189.27 163.38"><defs><style>.cls-1{fill:#c6c6c6;}.cls-2{fill:#1d1d1b;}.cls-3{opacity:0.2;}.cls-4{fill:#fff;}.cls-5{opacity:0.23;}</style></defs><title>bagues</title><path class="cls-1" d="M1464.89,535.12a2.69,2.69,0,0,0-3.08,1.17,7.08,7.08,0,0,0-1,3.39,47.84,47.84,0,0,0,0,8.63c11.47-1.84,23,2.14,33.72,6.7,2.75,1.18,5.65,2.54,7.21,5.09a14.59,14.59,0,0,1,1.62,6.09,45.58,45.58,0,0,1,.37,7.38,38.13,38.13,0,0,1-2.35,10.46,80.48,80.48,0,0,1-53,49.82c-1,.27-2.17,1.18-1.55,2l-2.86.84c.79,3.23,2.35,7.14,5.67,7.37a7.87,7.87,0,0,0,3.61-.92q11.22-4.89,22.07-10.58a38,38,0,0,0,6.74-4.19,40.41,40.41,0,0,0,4.68-4.84l7.47-8.65a47.64,47.64,0,0,0,5.82-7.76c1.7-3.07,2.69-6.48,4-9.76,1.58-4.08,3.62-8,4.92-12.17,3.94-12.7.33-27.31-8.68-37.08s-23-14.56-36.15-12.91l-.47,0c-17.53,1.66-33.55,10.72-47.44,21.54a72.62,72.62,0,0,0-9.33,8.36c-8.6,9.49-12.82,22.25-14.46,35a49.23,49.23,0,0,0-.45,10,32.78,32.78,0,0,0,9.83,21,8.72,8.72,0,0,0-2.48-2.85c-.38,2,1.31,3.87,2.93,5.19a54.81,54.81,0,0,0,48,10.24l-2.35-6.93a2.27,2.27,0,0,0-.81-1.31,2.34,2.34,0,0,0-1.57-.13c-6.61,1-13.25,2.37-19.94,2s-13.57-2.63-18-7.69c-3-3.47-4.61-8-5.89-12.37a42.35,42.35,0,0,1-1.71-8.24,31.8,31.8,0,0,1,4-17.4,61.94,61.94,0,0,1,11-14.29,119.41,119.41,0,0,1,50.18-30.29l-.59-10.72c0-.59.7-1.4.9-.83" transform="translate(-1322.35 -484.91)"/><path class="cls-1" d="M1465.09,534.39c-6.67-1.15-5.26,10.29-5,13.92a.76.76,0,0,0,1,.72c7.77-1.09,15.43.26,22.83,2.67,5.93,1.94,16.06,4.29,18.16,10.92,4,12.65-2.57,27-9.37,37.4a80.73,80.73,0,0,1-24,23.81,77.7,77.7,0,0,1-15.18,7.58c-1.93.7-8.18,1.4-7.35,4.59l.52-.92-2.86.85a.77.77,0,0,0-.53.92c.77,2.9,2,6.85,5.34,7.74,1.73.48,3.37-.15,5-.8,3.13-1.29,6.21-2.76,9.27-4.21,5.69-2.68,11.6-5.32,16.93-8.69,5.11-3.22,8.76-8.3,12.66-12.82,3.52-4.06,7.22-8,9.43-13,2.34-5.24,4.34-10.72,6.47-16.05a39.37,39.37,0,0,0-.07-29.69c-7.6-18.6-26.8-26.67-45.87-24.85-10.9,1-21.49,5.43-30.9,10.85s-19.36,12.15-26.36,20.54c-7.82,9.36-11.74,21.34-13.36,33.27-1.65,12.11.64,23.44,9.49,32.31a.75.75,0,0,0,1.17-.91,11.61,11.61,0,0,0-2.59-3,.76.76,0,0,0-1.28.53c-.12,4.11,4.07,6.6,7.11,8.65a54.71,54.71,0,0,0,14,6.69,56,56,0,0,0,30.76.81.74.74,0,0,0,.52-.92c-.73-2.18-1.27-6.3-2.84-8-1.24-1.34-2.53-.94-4.23-.67-7.79,1.24-15.84,2.82-23.68,1a21.77,21.77,0,0,1-16.19-14c-2.85-7.34-4.4-15.13-2.22-22.85,3.9-13.85,16.35-24.87,27.54-33.14a120.5,120.5,0,0,1,36-18.11.75.75,0,0,0,.55-.72c-.07-1.43.36-10.3-.82-10.9.85.44,1.61-.86.75-1.3l-.32-.17a.79.79,0,0,0-.91.12c-1.15,1.16-.72,2.69-.64,4.21.1,1.76.35,3.61.3,5.36-.07,2.28-.67,2.36-2.83,3.08a120.44,120.44,0,0,0-45.24,27.62c-8.33,8.09-16.24,18-17,30.1-.38,6.15,1.44,12.64,3.82,18.26a22.2,22.2,0,0,0,9.31,11c5.28,3,11.51,3.89,17.51,3.65a89.14,89.14,0,0,0,10.17-1.15c2.38-.37,5.83-1.55,7.37.69,1.11,1.6,1.49,4.38,2.12,6.24l.52-.92a54.3,54.3,0,0,1-38.52-4.35c-3.6-1.87-11.59-5.7-11.46-10.36l-1.28.53a9.76,9.76,0,0,1,2.36,2.7l1.18-.91c-7.88-7.89-10.54-18.11-9.33-29,1.1-9.95,3.82-20,9-28.58s13.4-15,21.68-20.75,17.11-10.56,26.69-13.5c17.42-5.35,37.5-3.71,50.1,10.87a38.74,38.74,0,0,1,9.28,25.64c-.15,9.82-5.1,19.28-8.77,28.22-2.45,6-6.87,10.51-11,15.33-3.88,4.49-7.43,9-12.66,12s-11,5.68-16.53,8.28c-2.77,1.29-5.91,3.16-8.87,4-4.71,1.26-6.21-2.71-7.19-6.41l-.52.92,2.86-.84a.76.76,0,0,0,.52-.92c-.21-.82,11.16-4.71,12.63-5.39a80.32,80.32,0,0,0,12-7,82.82,82.82,0,0,0,19.22-18.84c5.5-7.5,10.11-16.26,12.25-25.36a36.52,36.52,0,0,0,.08-15.61c-.88-4.21-3.48-6.61-7.27-8.4-11.07-5.23-23.52-9.2-35.85-7.48l.95.73c-.15-2-1.18-13.21,3.09-12.47.94.16,1.35-1.28.4-1.45Z" transform="translate(-1322.35 -484.91)"/><path class="cls-2" d="M1402.57,622.14c7.8,20.42,34.35,16.72,50.64,10.54a81.63,81.63,0,0,0,42.13-36.21c5.78-10.42,10.5-22.81,6.86-34.67-.29-.92-1.73-.53-1.45.39,3.9,12.72-2.16,26.59-9,37.3A79.78,79.78,0,0,1,1468.73,623a78.25,78.25,0,0,1-29.67,12c-13.12,2.33-29.52,1.16-35-13.3-.34-.89-1.79-.5-1.45.4Z" transform="translate(-1322.35 -484.91)"/><g class="cls-3"><path class="cls-4" d="M1430.45,546.81c2.74-1.38,6.19,1,7,4s-.28,6.08-1.54,8.88a51.7,51.7,0,0,1,73.08,8.09,37.8,37.8,0,0,0-19.24-28.15c-9.16-4.94-20.11-5.81-30.37-4.13s-20,5.76-29.35,10.28l2.92-1.07" transform="translate(-1322.35 -484.91)"/><path class="cls-4" d="M1430.65,547.53c2.7-1,5.24.8,6.07,3.44s-.39,5.82-1.46,8.31a.75.75,0,0,0,1.17.91,51.62,51.62,0,0,1,72,8.09c.54.66,1.35-.09,1.26-.73a38.71,38.71,0,0,0-28.42-32.06c-17.8-4.68-35.71,2-51.63,9.62-.76.36-.23,1.66.57,1.37l2.92-1.07c.9-.34.51-1.79-.4-1.45l-2.91,1.07.57,1.37c15.19-7.29,32.21-13.73,49.27-9.76A37.32,37.32,0,0,1,1508.25,568l1.26-.73a53.14,53.14,0,0,0-74.14-8.09l1.18.91c1.5-3.48,3-7.8.77-11.33a5.94,5.94,0,0,0-7.07-2.62c-.9.32-.51,1.77.4,1.44Z" transform="translate(-1322.35 -484.91)"/></g><path class="cls-2" d="M1455.9,549.91c-10.47,4.85-20.67,10.37-29.82,17.44-6.58,5.07-13.65,11-18.42,17.91-5.45,7.84-8.65,18.51-7.31,28.06,1.28,9.14,6.55,19.7,14.77,24.38,9.67,5.51,23.09,5.28,33.74,3.52,12.35-2,23.78-9.28,33.58-16.75,4.58-3.49,9-7.27,12.43-12,3.6-5,5.59-10.84,7.23-16.7,3-10.54,5.65-24,0-34.18-3.45-6.25-12.82-9.19-19.17-11-8.43-2.47-18.68-4.27-27-.66-.88.38-.12,1.67.76,1.29,7.12-3.07,15.88-1.74,23.15.07,6.55,1.64,14.4,4.07,19.35,8.94,3.28,3.23,4.15,8.87,4.49,13.25a56.39,56.39,0,0,1-1.71,17c-1.33,5.71-2.92,11.57-5.6,16.8s-6.73,9.48-11.22,13.23c-8.79,7.32-19.22,14.27-30.19,17.77-10.23,3.27-24,3.8-34.29.29s-16.42-13.58-18.57-24c-1.91-9.25,1.25-19.91,6.32-27.67,4.63-7.1,12-13.25,18.68-18.39,9.08-7,19.21-12.46,29.59-17.27C1457.54,550.8,1456.78,549.5,1455.9,549.91Z" transform="translate(-1322.35 -484.91)"/><path class="cls-2" d="M1437.22,646.8c9.36-.23,19.36-3.89,27.74-7.87,11.54-5.48,22.76-12.47,30.55-22.82a80.36,80.36,0,0,0,9.6-17.54c2.7-6.48,5.32-13.21,6.21-20.22A41.67,41.67,0,0,0,1500.91,546c-16.63-18.37-46.53-13.84-65.91-3.12-11.29,6.24-24,14.19-31.81,24.67-7,9.44-10.46,21.88-12,33.4-1.59,12.24,2,26,11.53,34.37,8.81,7.71,23,11.35,34.46,11.51a.75.75,0,0,0,0-1.5c-10.55-.15-22.28-3.4-31.09-9.33-9.25-6.22-13.66-18.12-13.77-28.91-.12-11,3.36-23.45,8.53-33.08,5.83-10.87,16.65-18.59,26.85-25.08,10.48-6.67,21.87-12.35,34.43-13.54,10.79-1,22.48.39,31.65,6.52,9.78,6.53,15.8,18.58,16.29,30.23.29,6.66-1.54,13.13-3.8,19.31a112,112,0,0,1-7.89,17.52c-7.11,12.36-18.35,20.74-30.89,27.07-9.07,4.58-20,9-30.31,9.29A.75.75,0,0,0,1437.22,646.8Z" transform="translate(-1322.35 -484.91)"/><g class="cls-5"><path class="cls-2" d="M1402.09,570.37a29.69,29.69,0,0,0-3.55,20.25,6.18,6.18,0,0,0,1.34,3.22,2.48,2.48,0,0,0,3.19.5c-4.31,8.11-3.12,18.11,0,26.74,1.43,3.91,3.31,7.8,6.43,10.55,3.58,3.16,8.41,4.49,13.14,5.15a58.7,58.7,0,0,0,32-4.63c2-.92,4-2,6-3.06,10.07-5.59,19.48-12.55,26.93-21.34,9.2-10.85,15.23-24.61,15.76-38.83A67.67,67.67,0,0,1,1457,641.08a96.42,96.42,0,0,1-12,2.93,52.78,52.78,0,0,1-11.34,1.15,47.65,47.65,0,0,1-9.63-1.49c-10-2.44-20.1-6.87-26-15.3-4.41-6.31-6-14.28-5.72-22s2.16-15.24,4.17-22.67a80.27,80.27,0,0,1,5.58-13.36" transform="translate(-1322.35 -484.91)"/><path class="cls-2" d="M1401.44,570a31.13,31.13,0,0,0-4,18.18c.31,3.26,1.55,8.83,6,6.82l-1-1c-4.78,9.66-3.06,21.15,1.31,30.67,4.86,10.61,15.21,13.3,26.12,13.43,12.26.16,23.52-3.74,34-9.91,10.17-6,19.61-13.51,26.77-23a65.39,65.39,0,0,0,13.51-36.27h-1.5a67.82,67.82,0,0,1-36.39,67.53c-13.42,6.82-29.58,9.93-44.21,5.92-13.62-3.74-25.43-11.79-28.23-26.45-1.64-8.57-.24-17.32,1.81-25.7a79.37,79.37,0,0,1,7.14-19.48c.46-.84-.84-1.6-1.3-.75a76.59,76.59,0,0,0-6.76,17.73c-2,7.86-3.65,16-2.94,24.16,1.21,14,9.47,24,22.24,29.33,7,2.9,14.92,5,22.54,4.67a79.4,79.4,0,0,0,22.83-4.83,68.45,68.45,0,0,0,44.77-72.13.75.75,0,0,0-1.5,0c-1.38,28.31-22.57,50.35-47.09,62a58,58,0,0,1-21.1,5.51c-6.73.45-14.4.14-20.59-2.86-6.43-3.13-9.33-9.77-11.19-16.3-2.14-7.47-2.45-15.46,1.07-22.56a.76.76,0,0,0-1-1c-4.43,2-3.9-9.9-3.7-11.68a30,30,0,0,1,3.75-11.27c.47-.84-.83-1.6-1.3-.75Z" transform="translate(-1322.35 -484.91)"/></g><path class="cls-1" d="M1420.93,544.68a2.7,2.7,0,0,0-3.27.45,7,7,0,0,0-1.68,3.09,47.43,47.43,0,0,0-2,8.4c11.6.79,22,7.26,31.36,14.11,2.41,1.77,4.93,3.74,5.88,6.58a14.48,14.48,0,0,1,.21,6.29,44.77,44.77,0,0,1-1.3,7.28,37.72,37.72,0,0,1-4.64,9.66,80.46,80.46,0,0,1-62.82,36.65c-1,0-2.37.66-1.94,1.56l-3,.18c0,3.33.68,7.49,3.87,8.46a8,8,0,0,0,3.73-.09q12-2.25,23.87-5.35a37.92,37.92,0,0,0,7.52-2.57,40.66,40.66,0,0,0,5.64-3.67l9.22-6.75a46.79,46.79,0,0,0,7.42-6.25c2.35-2.62,4.08-5.71,6-8.62,2.46-3.62,5.32-7,7.53-10.76,6.69-11.48,6.45-26.53-.13-38.08s-19.1-19.35-32.33-20.7l-.44-.14c-17.46-2.31-35.11,2.91-51.07,10.34a72.24,72.24,0,0,0-11,6c-10.52,7.31-17.49,18.8-21.94,30.81a49.41,49.41,0,0,0-2.69,9.65,32.8,32.8,0,0,0,4.87,22.63,8.9,8.9,0,0,0-1.77-3.34c-.84,1.92.4,4.07,1.69,5.72A54.81,54.81,0,0,0,1382.33,647l-.74-7.28a2.32,2.32,0,0,0-.49-1.46,2.27,2.27,0,0,0-1.51-.47c-6.67-.48-13.44-.67-19.88-2.51s-12.64-5.62-15.77-11.53c-2.16-4.07-2.7-8.78-3-13.38a42.3,42.3,0,0,1,.18-8.42,31.91,31.91,0,0,1,7.79-16.06,62,62,0,0,1,13.93-11.45,119.5,119.5,0,0,1,55.71-18.24l1.83-10.57c.1-.59,1-1.21,1-.62" transform="translate(-1322.35 -484.91)"/><path class="cls-1" d="M1421.12,544c-6.06-2.55-7.3,9.11-7.82,12.47a.77.77,0,0,0,.72,1c7.22.62,13.89,3.24,20.13,6.82,3,1.74,5.91,3.67,8.75,5.68s6.44,4.17,7.64,7.64c1.12,3.27.15,7.48-.51,10.78a33.64,33.64,0,0,1-4.44,10.73,74.18,74.18,0,0,1-10.92,13.91,80.59,80.59,0,0,1-29.83,19,77.45,77.45,0,0,1-17.57,4.13c-1.7.2-4.12-.07-5.72.62-.67.29-.87.79-1.45,1.07a5,5,0,0,1-2.31.43.75.75,0,0,0-.75.75c.09,2.92.4,6.73,3.09,8.52a6.05,6.05,0,0,0,4.21.78,103.12,103.12,0,0,0,10.42-2.05,181,181,0,0,0,18.53-4.6c5.56-1.84,10-5.6,14.69-9,4.32-3.16,9-6.15,12.46-10.32,3.62-4.42,6.62-9.5,10-14.15a39.83,39.83,0,0,0,7.51-29.19c-2.76-19.6-19.16-32.46-38-35.21-11.26-1.64-22.92.15-33.71,3.43s-22.55,7.83-31.46,14.94-15.19,17.52-19.31,28.23c-4.44,11.5-4.87,23.22,1.83,34,.43.69,1.67.25,1.37-.58a13.29,13.29,0,0,0-1.84-3.52.77.77,0,0,0-1.38.18c-1,4,2.39,7.29,4.89,10a55.08,55.08,0,0,0,12.32,9.81,55.92,55.92,0,0,0,29.68,7.65.75.75,0,0,0,.75-.75c-.24-2.32.19-6.38-1-8.44-.88-1.57-2.17-1.49-3.85-1.62-7.25-.52-14.7-.74-21.53-3.47-7.15-2.86-12.46-8.15-14.14-15.8-1.58-7.19-1.67-15.5,1.25-22.34,5.64-13.18,19.68-21.35,32.08-27.23A120,120,0,0,1,1418.59,557a.77.77,0,0,0,.72-.55c.25-1.43,2.67-10,1.63-10.86.74.62,1.8-.43,1.06-1.06l-.27-.23a.76.76,0,0,0-.91-.12c-2,1.22-1.69,4.56-2,6.58a19.25,19.25,0,0,1-.57,3.31c-.59,1.52-.72,1.22-2.25,1.64a44.21,44.21,0,0,1-5.43.61,120.43,120.43,0,0,0-24.25,5.92c-14.18,5.08-30,12.82-39.39,25a31.43,31.43,0,0,0-6.76,18.22c-.21,7,.35,15.16,4.64,21,3.55,4.85,9.06,7.89,14.74,9.54A60.25,60.25,0,0,0,1370.9,638a57.62,57.62,0,0,1,6,.44,5.75,5.75,0,0,1,4.07,2.82c.21.39.75,3.85.44,4.37-.59,1-.8.75-2,.72s-2.31-.09-3.46-.19a51.91,51.91,0,0,1-7.22-1.15,54.86,54.86,0,0,1-23.19-11.7c-3-2.56-9.82-8.09-8.67-12.51l-1.37.18a8.41,8.41,0,0,1,1.69,3.16l1.37-.58c-11-17.77-1.41-40.94,11.59-55.1,7.12-7.75,16.55-12.32,26.18-16.19s20.07-6.85,30.62-7.48c17.92-1.07,36.66,5.22,45.48,22a38.72,38.72,0,0,1,2.79,28.72,42.41,42.41,0,0,1-6.92,13c-3.28,4.49-6.08,9.67-9.79,13.79s-8.6,7.11-13,10.35c-5.07,3.72-9.62,6.86-15.8,8.52-5.77,1.56-11.6,2.91-17.45,4.13-2.48.51-8.68,2.62-11,1.22a5.64,5.64,0,0,1-2.34-3.9c-.57-2.48-.6-2.85,1.88-3a.78.78,0,0,0,.75-.75c0-.68,13.8-2.5,15-2.77a80.77,80.77,0,0,0,13.11-4.31,82.65,82.65,0,0,0,23.67-15.29c6.76-6.26,13.36-14.11,16.76-22.76,1.7-4.33,3.09-10.43,2.29-15.09-.62-3.63-3.28-6-6.1-8.11-9.52-7.12-20.1-13.51-32.19-14.55l.73,1c.32-2.07,1.78-13.18,6-11.42.88.37,1.27-1.08.39-1.45Z" transform="translate(-1322.35 -484.91)"/><path class="cls-2" d="M1340.68,615.64c3,21.74,30.23,23.85,47.37,21.42a81.2,81.2,0,0,0,50.85-28.19c7-8.48,13.23-18.4,12.39-29.78-.07-1-1.58-1-1.5,0,.94,12.64-7.27,24.14-15.65,32.88a79.47,79.47,0,0,1-28.72,19,78.34,78.34,0,0,1-33.12,5.2c-13.19-.87-28.09-5.9-30.18-21-.13-1-1.57-.54-1.44.4Z" transform="translate(-1322.35 -484.91)"/><g class="cls-3"><path class="cls-4" d="M1384.74,548.33c3-.73,5.81,2.37,5.92,5.44s-1.64,5.87-3.49,8.31a51.68,51.68,0,0,1,69.38,24.3,37.78,37.78,0,0,0-12.42-31.76c-7.81-6.86-18.28-10.17-28.66-10.84s-20.76,1.12-30.91,3.43l3.09-.39" transform="translate(-1322.35 -484.91)"/><path class="cls-4" d="M1384.74,549.08c3.91-.42,5.8,4,4.79,7.28a18.42,18.42,0,0,1-3,5.34c-.49.67.43,1.31,1,1a51.63,51.63,0,0,1,68.36,24c.35.72,1.34.29,1.39-.38a38.74,38.74,0,0,0-20.68-37.76c-16.24-8.44-35.11-6-52.26-2.13-.8.18-.65,1.58.2,1.47l3.09-.39c.94-.12.95-1.62,0-1.5l-3.09.39.2,1.47c16.39-3.68,34.33-6.12,50,1.45a37.33,37.33,0,0,1,21,37l1.4-.38a53.14,53.14,0,0,0-70.41-24.57l1,1c2.16-2.93,4.45-6.61,3.28-10.4a6,6,0,0,0-6.35-4.48c-1,.11-1,1.61,0,1.5Z" transform="translate(-1322.35 -484.91)"/></g><path class="cls-2" d="M1408.87,557.06c-18.61,3.91-37.88,10.16-53.1,22a41.77,41.77,0,0,0-15.1,25.64c-1.37,9.15,1.22,21.14,7.82,27.87,7.84,8,20.85,10.79,31.6,11.77,12.76,1.15,25.72-3.28,37.23-8.39,5.65-2.51,11.3-5.38,15.91-9.57,4.38-4,7.51-9.07,10.31-14.22,5.26-9.64,11-22.3,7.66-33.51-2-6.87-10.73-11.89-16.54-15.11-7.56-4.18-17-8.12-25.79-6.51-.95.18-.54,1.62.4,1.45,7.63-1.39,15.87,1.85,22.55,5.25,6,3.07,13.09,7.19,16.85,13,2.29,3.57,2.07,8.58,1.6,12.64-.76,6.48-3.25,12.67-6.16,18.45a73.05,73.05,0,0,1-8.49,13.82c-3.83,4.65-8.81,7.95-14.13,10.65-10.86,5.49-23.64,10.36-35.94,10.69-10.23.28-22.76-2.29-31.46-7.87-9.23-5.93-13.09-18.11-12.13-28.75.86-9.64,6.68-19.53,14.08-25.64,14.83-12.25,34.78-18.41,53.23-22.28C1410.22,558.31,1409.82,556.86,1408.87,557.06Z" transform="translate(-1322.35 -484.91)"/><path class="cls-2" d="M1368.84,647.28c8.77,1.81,19,.67,27.67-1.18,12.87-2.73,25.83-7,36-15.61a79.76,79.76,0,0,0,13.3-14.93c3.9-5.43,7.73-11.1,10.23-17.34,4.32-10.78,3.35-23.61-2-33.89-11-21.34-40.53-25.14-61.5-19.54-12.72,3.39-26.73,8.22-37.36,16.22-9.52,7.16-15.6,18.37-20.06,29.17-5,12.11-5.25,27.12,2.67,38.14,6.84,9.49,19.86,16.24,31,19,.94.23,1.34-1.22.4-1.45-10.27-2.51-20.92-8.31-28.21-16.06-8.09-8.6-9.43-22.13-6.5-33.12a72.79,72.79,0,0,1,16.82-30.14c8.5-8.86,21.37-13.8,32.78-17.61,20.86-7,48.2-8.34,64.23,9.7,7.73,8.7,10.59,22,8.12,33.31-2.6,11.82-11.33,23.5-19.45,32.22-10,10.71-23.18,16.36-37.19,19.69-9.55,2.27-20.84,4-30.6,2C1368.3,645.64,1367.9,647.08,1368.84,647.28Z" transform="translate(-1322.35 -484.91)"/><g class="cls-5"><path class="cls-2" d="M1351.81,564.92a29.67,29.67,0,0,0-8,18.93,6.33,6.33,0,0,0,.58,3.45,2.49,2.49,0,0,0,3,1.2c-6,6.93-7.11,17-6,26.06.51,4.13,1.47,8.34,3.9,11.72,2.78,3.89,7.19,6.27,11.65,8a58.69,58.69,0,0,0,32.24,2.69c2.2-.45,4.38-1,6.54-1.64,11.06-3.19,21.8-7.85,31-14.74,11.41-8.51,20.38-20.56,24.09-34.3a67.7,67.7,0,0,1-61.44,59.89,95.25,95.25,0,0,1-12.3.17,52.44,52.44,0,0,1-11.31-1.43,46.38,46.38,0,0,1-9-3.62c-9.18-4.61-18-11.21-21.88-20.74-2.88-7.14-2.61-15.25-.64-22.7s5.52-14.36,9.16-21.15a80.07,80.07,0,0,1,8.43-11.76" transform="translate(-1322.35 -484.91)"/><path class="cls-2" d="M1351.28,564.39a31.19,31.19,0,0,0-8,16.8c-.43,3.21-.49,9,4.29,8l-.73-1.25c-6.58,8-7.53,18.74-5.91,28.65.87,5.34,2.88,10.19,7.16,13.67s9.88,5.41,15.15,6.73c12.7,3.19,25.28,1.58,37.56-2.51,11.1-3.7,21.76-9.06,30.62-16.78a65.06,65.06,0,0,0,20.12-31.27l-1.47-.2a67.74,67.74,0,0,1-51.24,57.61c-14.68,3.48-30.93,2.75-44.26-4.58-12.5-6.87-21.9-17.54-21-32.56.49-8.83,4-17.08,8-24.85a77.58,77.58,0,0,1,10.85-16.43c.64-.72-.42-1.79-1.06-1.06-9,10.17-16.52,24.19-18.73,37.65-2.33,14.22,3.35,26.29,14.91,34.57,6.13,4.39,13.43,8.27,20.91,9.62a80.13,80.13,0,0,0,23.45.42,68.42,68.42,0,0,0,59.76-60.39c.1-.85-1.25-1-1.47-.2-7.6,27-32.44,43.27-58.5,49.57a58.58,58.58,0,0,1-22.61,1c-7.13-1.09-15.36-3.28-20.82-8.26s-6.37-12.76-6.43-19.62c-.06-7.11,1.57-14.18,6.16-19.75a.76.76,0,0,0-.73-1.26c-4.83,1-1.69-10.26-1-12.17a29.82,29.82,0,0,1,6.17-10.15c.65-.72-.41-1.78-1.06-1.06Z" transform="translate(-1322.35 -484.91)"/></g><path class="cls-1" d="M1383.15,488.3a2.69,2.69,0,0,0-2.81,1.71,7,7,0,0,0-.32,3.51,47.91,47.91,0,0,0,1.54,8.48c11-3.88,23-2.06,34.38.5,2.92.66,6,1.48,8,3.71a14.54,14.54,0,0,1,2.7,5.69,45.77,45.77,0,0,1,1.69,7.19,38.1,38.1,0,0,1-.42,10.71,80.44,80.44,0,0,1-43.11,58.57c-.89.44-1.92,1.56-1.17,2.21l-2.66,1.35c1.37,3,3.6,6.6,6.91,6.22a7.87,7.87,0,0,0,3.39-1.55q10.14-6.84,19.79-14.4a37.73,37.73,0,0,0,5.88-5.34,41.22,41.22,0,0,0,3.72-5.6l5.78-9.86a46.88,46.88,0,0,0,4.33-8.68c1.12-3.33,1.47-6.86,2.13-10.31.82-4.31,2.12-8.52,2.64-12.87,1.58-13.2-4.61-26.92-15.24-34.9s-25.22-10.17-37.89-6.16l-.46,0c-16.94,4.8-31.07,16.6-42.77,29.76a72,72,0,0,0-7.66,9.91c-6.75,10.88-8.59,24.2-7.91,37a50.29,50.29,0,0,0,1.36,9.93A32.79,32.79,0,0,0,1338.44,594a8.78,8.78,0,0,0-3-2.36c0,2.09,2,3.57,3.82,4.57a54.78,54.78,0,0,0,49.06,1.41l-3.57-6.39a2.28,2.28,0,0,0-1-1.15,2.33,2.33,0,0,0-1.57.16c-6.32,2.22-12.61,4.73-19.24,5.59s-13.83-.13-19.06-4.31c-3.6-2.88-6-7-8-11.11a42.43,42.43,0,0,1-3.17-7.79,31.81,31.81,0,0,1,.77-17.84,62.14,62.14,0,0,1,8.23-16,119.51,119.51,0,0,1,43.89-38.86l-2.51-10.43c-.14-.58.43-1.51.72-1" transform="translate(-1322.35 -484.91)"/><path class="cls-1" d="M1383.15,487.55c-6.69.07-3.22,11.15-2.31,14.65a.75.75,0,0,0,.92.52,49,49,0,0,1,20.88-1.81,109.59,109.59,0,0,1,11.79,2c3.12.68,6.76,1.29,9,3.8s3.11,6.9,3.78,10.12a32.54,32.54,0,0,1,.33,10.28,72.88,72.88,0,0,1-4.51,18,80.71,80.71,0,0,1-19.33,29,77.38,77.38,0,0,1-13.9,10.66c-1.94,1.16-8.28,3-6.79,6.16l.27-1-2.67,1.35a.78.78,0,0,0-.27,1c1.41,3,3.7,6.93,7.56,6.59,2.1-.18,3.9-1.74,5.55-2.87q4.17-2.85,8.24-5.81c4.88-3.54,10.19-7.07,14.45-11.37,4.06-4.1,6.63-9.67,9.52-14.61,3.13-5.32,5.95-10.3,7.09-16.43,1.07-5.8,2.64-11.58,3.44-17.42a39.05,39.05,0,0,0-6.62-27.1c-11.51-16.82-32.87-20.79-51.31-14.38-10,3.47-19,9.33-26.91,16.22-8.14,7-16.55,15.36-21.75,24.9-5.92,10.86-7.43,23.68-6.68,35.88.73,11.69,5.33,21.91,15.15,28.69.73.5,1.45-.58.91-1.18a11.8,11.8,0,0,0-3.1-2.48.76.76,0,0,0-1.1.85c.62,4.08,5.34,5.79,8.69,7.22a55,55,0,0,0,14.77,4,56.11,56.11,0,0,0,30.52-4.77.76.76,0,0,0,.26-1c-1.15-2.07-2.52-6.53-4.71-7.69-1.51-.79-3.4.36-4.83.87-6.84,2.43-13.88,5-21.26,4.94a21.83,21.83,0,0,1-19.27-10.9c-4.13-6.72-7-14.08-6.29-22.08,1.36-14.31,11.65-27.41,21.15-37.54A120.38,120.38,0,0,1,1386,500.48a.78.78,0,0,0,.35-.85c-.33-1.34-1.53-10.13-2.72-10.49a.75.75,0,0,0,.4-1.45l-.35-.1a.75.75,0,0,0-.84.34c-.91,1.33-.18,2.83.17,4.28.41,1.7,1,3.48,1.26,5.21.32,2.24-.31,2.41-2.29,3.51a120.75,120.75,0,0,0-39.48,35.35c-6.74,9.47-12.71,20.69-11.23,32.69.75,6.08,3.72,12.19,7.07,17.27a22.29,22.29,0,0,0,11.55,9.24c6,2,12.5,1.51,18.54,0a104.32,104.32,0,0,0,10.21-3.24c2.22-.78,4.07-2.09,5.9-.07,1.36,1.5,2.22,4,3.21,5.76l.27-1a54.4,54.4,0,0,1-39,2.54c-3.72-1.17-12-3.46-12.76-8.07l-1.1.85a10.84,10.84,0,0,1,2.8,2.24l.9-1.18c-9.11-6.29-13.57-15.81-14.35-26.68-.7-9.74.07-19.81,3.39-29,3.48-9.66,10.24-17.4,17.35-24.6a101.64,101.64,0,0,1,22.53-17.67c16.43-9.16,37.34-11.9,53,.57a38.77,38.77,0,0,1,13.67,22.58c1.94,9.75-1.27,19.42-3.06,29-1.21,6.48-4.37,11.71-7.65,17.31-3,5-5.6,10.48-10,14.43A176.93,176.93,0,0,1,1398,591c-2.25,1.6-4.63,3.67-7.1,4.92-5.13,2.6-7.29-.22-9.27-4.4l-.27,1,2.66-1.35a.77.77,0,0,0,.27-1c-.3-.66,11-7.17,12.26-8.1a80.12,80.12,0,0,0,10.17-8.86,82.13,82.13,0,0,0,15.73-23c3.84-8.38,6.74-17.89,6.85-27.18a35.78,35.78,0,0,0-3-14.52c-1.64-3.68-4.71-5.4-8.5-6.41-11.72-3.11-24.71-4.81-36.43-.9l.93.52c-.57-2.17-3.72-12.71.86-12.75a.75.75,0,0,0,0-1.5Z" transform="translate(-1322.35 -484.91)"/><path class="cls-2" d="M1337.61,585.2c11.62,19.11,38,9.83,52.91.41a81.48,81.48,0,0,0,34.22-44.18c3.39-10.91,5.4-23.16-.1-33.69-.45-.85-1.74-.09-1.29.76,6,11.43,2.77,25.66-1.66,37.14a79.8,79.8,0,0,1-18.1,27.64,78.18,78.18,0,0,1-27.72,17.94c-12.57,4.68-28.87,6.52-37-6.78-.5-.82-1.8-.07-1.3.76Z" transform="translate(-1322.35 -484.91)"/><g class="cls-3"><path class="cls-4" d="M1351.39,506c2.45-1.85,6.27-.13,7.59,2.64s.83,6,.1,9a51.7,51.7,0,0,1,73.33-5.25,37.76,37.76,0,0,0-24-24.21c-9.9-3.19-20.82-2.07-30.61,1.44s-18.61,9.27-27,15.41l2.67-1.58" transform="translate(-1322.35 -484.91)"/><path class="cls-4" d="M1351.77,506.67c3.31-1.94,6.47,1.11,7.09,4.26a15.8,15.8,0,0,1-.5,6.55c-.16.68.73,1.32,1.25.73a51.6,51.6,0,0,1,72.27-5.25c.53.45,1.51,0,1.25-.73a38.69,38.69,0,0,0-32.65-26.42c-18.68-1.94-35.56,8-50.07,18.6-.77.56-.1,1.8.75,1.3l2.68-1.58a.75.75,0,0,0-.76-1.3l-2.67,1.58.75,1.3c13.29-9.68,28.27-18.82,45.28-18.63a37.36,37.36,0,0,1,35.25,25.54l1.25-.73a53.16,53.16,0,0,0-74.39,5.25l1.25.73c.82-3.55,1.5-7.86-1-10.9a6,6,0,0,0-7.73-1.6.75.75,0,0,0,.75,1.3Z" transform="translate(-1322.35 -484.91)"/></g><path class="cls-2" d="M1377.1,504.39c-9.42,6.66-18.48,13.92-26.21,22.52-5.64,6.28-11.71,13.6-15.11,21.38-3.79,8.65-5,19.59-2,28.65,3,8.78,10.06,18.19,19,21.29,11.06,3.81,25.61.82,36.08-3.61,11.11-4.69,20.63-13.73,28.54-22.63,3.94-4.43,7.67-9.2,9.92-14.74s3-11.81,3.47-17.84c.81-10.36.65-23.21-6.29-31.74-4.45-5.48-14-6.68-20.48-7.39-8.74-1-19.4-1-27,4.11-.8.53,0,1.83.76,1.29,6.17-4.12,14.39-4.57,21.59-4.26,7,.3,15.19,1.29,21.31,5,7.83,4.72,8.94,17.68,8.92,25.82,0,11.83-1.61,23.62-8.82,33.34-14,18.87-35.31,34.08-59.74,32.71-11.93-.67-19.59-8.65-24.66-18.85-4.26-8.59-3.36-19.85-.08-28.62,3-8.11,9.27-15.69,14.94-22.11,7.78-8.81,17-16.22,26.54-23C1378.64,505.13,1377.89,503.83,1377.1,504.39Z" transform="translate(-1322.35 -484.91)"/><path class="cls-2" d="M1376.18,603.13c9.3-1.94,18.59-7.5,26.19-13,10.18-7.4,19.82-16.21,25.51-27.63a81.56,81.56,0,0,0,6.37-19.34c1.48-6.93,2.84-14.14,2.35-21.26a41.65,41.65,0,0,0-15.95-29.33c-20.25-15.52-49.15-4.88-66.56,9.64-10,8.32-21.16,18.61-26.5,30.71-4.71,10.69-6,24-4.84,35.52s7.28,23.85,17.75,29.84c10.09,5.78,24.46,6.77,35.68,4.87,1-.16.55-1.61-.39-1.45-10.47,1.77-22.71.68-32.47-3.68s-16-14.7-18.29-24.8c-2.4-10.8-1.22-23.74,1.94-34.26,3.53-11.77,12.44-21.21,21.2-29.49,9.19-8.69,19.43-16.55,31.72-20.23,11.4-3.42,24.53-4,35.32,1.62,9.76,5.09,17,15.6,19.24,26.26,1.47,6.94.55,14.11-.73,21a102.7,102.7,0,0,1-4.8,18.26c-5.11,13.29-15,23.39-26.31,31.72-7.78,5.75-17.26,11.6-26.82,13.6C1374.84,601.88,1375.24,603.32,1376.18,603.13Z" transform="translate(-1322.35 -484.91)"/><g class="cls-5"><path class="cls-2" d="M1327.76,534.31a29.68,29.68,0,0,0,.16,20.56,6.19,6.19,0,0,0,1.91,2.94,2.48,2.48,0,0,0,3.22-.1c-2.77,8.76.2,18.39,4.86,26.31,2.1,3.58,4.66,7.07,8.22,9.21,4.1,2.46,9.09,2.9,13.86,2.69a58.65,58.65,0,0,0,30.66-10.34c1.84-1.28,3.61-2.67,5.35-4.09,8.88-7.33,16.89-15.87,22.62-25.86,7.09-12.34,10.54-27,8.49-41A67.7,67.7,0,0,1,1394.5,594a95.61,95.61,0,0,1-11.22,5,53.18,53.18,0,0,1-11,3.18,47.22,47.22,0,0,1-9.73.27c-10.26-.59-21-3.12-28.32-10.35-5.48-5.41-8.45-13-9.6-20.58s-.63-15.37,0-23a80.72,80.72,0,0,1,3.07-14.15" transform="translate(-1322.35 -484.91)"/><path class="cls-2" d="M1327,534.11a31.13,31.13,0,0,0-.65,18.47c.84,3,3.09,8.53,7,5.78l-1.1-.84c-3,10.57,1,22.13,7.43,30.69s16.64,9.37,26.7,7.81c11.74-1.83,22-7.24,31-14.82,9.18-7.71,17.39-16.81,23-27.46a65.54,65.54,0,0,0,7.34-39.15l-1.47.2c8.08,27.46-1.92,57.61-25.37,74.23-11.62,8.24-25.87,13.7-40.2,12.55-14.66-1.18-28.17-7.31-33.37-22-2.88-8.13-3-16.86-2.44-25.37a78.18,78.18,0,0,1,3.47-19.72c.3-.92-1.15-1.31-1.45-.4a76.63,76.63,0,0,0-3.43,18.68c-.54,7.9-.68,16,1.33,23.7,3.65,14,14,22.68,28,25.5,7.16,1.44,15,2,22.12.43A79.35,79.35,0,0,0,1395.9,594a68.47,68.47,0,0,0,31.94-79.65c-.23-.77-1.59-.66-1.48.2,3.81,28.55-13.65,55.15-36.61,70.7-10.47,7.08-26.36,12.65-39.07,9.05-6.86-1.94-10.93-8-13.93-14-3.44-7-5.16-14.76-3-22.4a.76.76,0,0,0-1.1-.84c-4.45,3.08-5.86-10.25-5.91-11.81a30.5,30.5,0,0,1,1.71-10.75c.31-.91-1.14-1.31-1.45-.4Z" transform="translate(-1322.35 -484.91)"/></g></svg>