<svg id="Calque_1" data-name="Calque 1" xmlns="http://www.w3.org/2000/svg" viewBox="0 0 421.17 195.4"><defs><style>.cls-1{fill:#fff;}.cls-2{fill:#1d1d1b;}.cls-3{opacity:0.08;}.cls-4{opacity:0.16;}.cls-5{fill:#ffed00;}</style></defs><title>bandeaucontact</title><path class="cls-1" d="M211.34,356.78c45.75-73.3,135.06-113.68,151.79-99.1,13.24,11.53,31.4,42.21,31.4,42.21-36.59,2.84-61.14,17.92-94.76,43.32-14.4,10.88-42.65,51.57-42.65,51.57-7.66-8.09-1.79-53.24-1.79-53.24Z" transform="translate(-210.32 -200.37)"/><path class="cls-2" d="M212.21,357.29c21.48-34.29,52.63-62.9,87.71-82.9,12.7-7.24,26.29-13.74,40.6-17.08a46.43,46.43,0,0,1,14.65-1.47c4.49.41,7.18,2.25,10.29,5.43,7.25,7.38,13.26,16,19,24.61,3.19,4.76,6.29,9.58,9.21,14.51l.87-1.5a133.65,133.65,0,0,0-40.7,9.59c-13.25,5.49-25.51,13-37.25,21.22-9.95,6.94-19.76,13.82-27.92,22.83-7.28,8-13.94,16.59-20.44,25.25-4.07,5.43-8.09,10.91-12,16.49l1.58-.2c-2-2.21-2.52-5.75-2.93-8.59a89.52,89.52,0,0,1-.72-13.1c0-8.44.64-16.89,1.51-25.29.2-1.85.4-3.71.64-5.55a1,1,0,0,0-1.27-1l-38.47,13.34-5.51,1.91c-1.21.42-.69,2.35.53,1.93l38.47-13.34,5.51-1.91-1.26-1c-.7,5.41-1.19,10.86-1.57,16.31-.64,9.24-1.14,18.74.18,27.95.47,3.31,1.15,7.12,3.47,9.68a1,1,0,0,0,1.57-.2,447.81,447.81,0,0,1,29.1-38,129.79,129.79,0,0,1,9.67-10.23c4.67-4.34,10.06-7.95,15.22-11.67,11.7-8.44,23.82-16.46,36.91-22.59a132.27,132.27,0,0,1,45.65-11.94,1,1,0,0,0,.86-1.51C388.08,287,380,274.81,370.63,264c-3.36-3.89-6.86-8.28-12.05-9.57-4.3-1.07-8.89-.71-13.22,0-13.94,2.13-27.38,8.15-39.77,14.66a256.69,256.69,0,0,0-47.33,32.43,242,242,0,0,0-47.78,54.85C209.79,357.37,211.52,358.38,212.21,357.29Z" transform="translate(-210.32 -200.37)"/><path class="cls-1" d="M630.47,350.64c-43.39-72.14-129.25-103.51-149.82-94.79-12.45,5.28-22.4,45.56-22.4,45.56,52.42,4.07,77.58,23.66,127.87,86.74,0,0,1.81-24,2.56-31.42a35.43,35.43,0,0,0-.95-12.92Z" transform="translate(-210.32 -200.37)"/><path class="cls-2" d="M631.34,350.13C609.93,314.7,577.1,286.26,540,268.21c-13-6.33-27-11.81-41.39-14a46.45,46.45,0,0,0-14.12-.41c-5.06.79-8.49,3.67-11.42,7.79-5.19,7.28-8.42,16.07-11.27,24.47-1.68,5-3.23,10-4.49,15.1a1,1,0,0,0,1,1.26c18,1.42,35.75,5.08,51.81,13.53,17.52,9.22,32.12,23,45.42,37.49,10.48,11.37,20.29,23.34,29.93,35.43.59.74,1.65.06,1.71-.71q.75-9.94,1.56-19.87c.65-8.06,2.42-16.83,0-24.73l-1.23,1.23,37.32,6,5.43.87c1.26.2,1.8-1.73.53-1.93l-37.31-5.95-5.44-.87a1,1,0,0,0-1.23,1.23c2.39,7.85.52,16.76-.13,24.78q-.78,9.64-1.51,19.29l1.7-.71c-15.77-19.77-32-39.8-51.26-56.29-13.53-11.56-28.83-20.64-46-25.52a161.69,161.69,0,0,0-31.29-5.22l1,1.27c2.84-11.49,6.62-23.22,12.23-33.66,2.57-4.78,5.86-10.4,11.47-11.88,4.15-1.09,8.68-.81,12.9-.31,13.61,1.6,26.95,6.59,39.32,12.3a226,226,0,0,1,47.07,29.32,207.09,207.09,0,0,1,47.4,53.69A1,1,0,0,0,631.34,350.13Z" transform="translate(-210.32 -200.37)"/><path class="cls-1" d="M573.58,329.91c-35.86-41-79-61.52-159.69-61.52-67.45,0-105.26,37.48-125.15,55-5.22,4.6-7.92,8.62-8.78,7.56,0,0-10.65-34.49-13.64-49.66-2.5-12.65,1.08-12.88,1.08-12.88,11.73-13,67-67,152.13-67,80.67,0,160.25,43.47,163.55,67S573.58,329.91,573.58,329.91Z" transform="translate(-210.32 -200.37)"/><path class="cls-2" d="M574.28,329.21c-17-19.34-37.22-35.3-61-45.36C484.6,271.73,453.08,268,422.2,267.47c-17.73-.33-35.25,1-52.41,5.7A161.75,161.75,0,0,0,330.37,290a209.58,209.58,0,0,0-28.48,20.54c-3.54,3-7,6.08-10.48,9.17-2.05,1.83-4.13,3.61-6.09,5.53-1.31,1.29-2.54,2.69-3.89,3.94a4.25,4.25,0,0,0-.68.62c-.33.73-.2.1.17.9a1.14,1.14,0,0,1-.09-.3c.08-1-.81-2.67-1.1-3.63-.7-2.28-1.38-4.56-2.06-6.85q-2.79-9.4-5.41-18.85c-1.67-6.06-3.31-12.14-4.62-18.28-.74-3.45-1.57-7.18-1.12-10.72a7.4,7.4,0,0,1,.64-2.24,1.33,1.33,0,0,1,.38-.41c.23-.19-.32.21,0,0a7.71,7.71,0,0,0,.75-.47,10.89,10.89,0,0,0,1.13-1.22c.91-1,1.83-1.93,2.76-2.87,2.56-2.59,5.21-5.09,7.92-7.53a220.77,220.77,0,0,1,24.49-19,211.82,211.82,0,0,1,81.56-33.08c37.05-6.36,75.59-1.55,111.3,9.49a258.88,258.88,0,0,1,46.48,19.21c10.77,5.82,21.59,12.53,30.15,21.39a32.8,32.8,0,0,1,7.07,9.9c2.11,5.1,1.63,11.45,1.33,16.82-.76,13.69-3.86,27.29-7.65,40.43-.69,2.41-1.41,4.83-2.21,7.21-.41,1.22,1.52,1.74,1.93.53a219.42,219.42,0,0,0,7-26.68,148.15,148.15,0,0,0,3-22.49c.25-5.28.57-11.34-1.45-16.35-3.46-8.61-11.73-15.2-19-20.53-12-8.79-25.36-15.66-39-21.46-34.25-14.57-72-23-109.33-22.26a206.38,206.38,0,0,0-93.18,24.74,217.69,217.69,0,0,0-51.13,37.56q-1.51,1.52-3,3.08a10.82,10.82,0,0,0-1.13,1.22c-.14.2-.35.35-.5.54.09-.11.74-.43.23-.1-2.79,1.79-2.76,5.13-2.53,8.25.49,6.5,2.39,13,4,19.26,1.78,6.77,3.69,13.5,5.65,20.22q2.08,7.11,4.24,14.2a6.19,6.19,0,0,0,.81,2.26c1.43,1.49,3.48-1,4.38-1.87a296.08,296.08,0,0,1,24.09-21.51C330.1,290.14,356,277,384.47,271.92c18.57-3.3,37.63-2.93,56.38-1.67a254.2,254.2,0,0,1,48.67,7.6,162,162,0,0,1,69.92,38.76c4.7,4.45,9.16,9.15,13.43,14C573.72,331.59,575.13,330.17,574.28,329.21Z" transform="translate(-210.32 -200.37)"/><path class="cls-2" d="M282.47,330.84C295.84,324,309.18,317.17,323,311.4c15-6.23,30.8-11.73,47.05-13,8.15-.66,16.41-.17,24.18,2.49,1.22.42,1.74-1.51.53-1.93-14.38-4.92-30.27-2.78-44.66,1-16.26,4.25-31.81,11-46.91,18.27-7.31,3.53-14.53,7.25-21.76,10.93-1.15.59-.13,2.31,1,1.73Z" transform="translate(-210.32 -200.37)"/><path class="cls-2" d="M460.29,301.42c16.6-5.67,34.91-3,51.42,1.7,15.8,4.49,30.93,11.19,45.45,18.81,5,2.64,10,5.43,14.88,8.24a1,1,0,0,0,1-1.73c-26-14.88-54.54-29.26-84.89-31.86-9.54-.81-19.29-.2-28.41,2.91-1.21.41-.69,2.35.54,1.93Z" transform="translate(-210.32 -200.37)"/><path class="cls-2" d="M291,321.45a13.7,13.7,0,0,1,4.6.92c.45.17.65-.56.2-.73a14.62,14.62,0,0,0-4.8-.94.38.38,0,0,0,0,.75Z" transform="translate(-210.32 -200.37)"/><path class="cls-2" d="M293.77,319.55a15.7,15.7,0,0,1,4.88,1.4c.44.2.82-.44.38-.65a16.69,16.69,0,0,0-5.26-1.5c-.48-.06-.48.69,0,.75Z" transform="translate(-210.32 -200.37)"/><path class="cls-2" d="M295.85,317.08l5.95,2.47c.45.18.64-.54.2-.72l-5.95-2.47c-.45-.19-.64.54-.2.72Z" transform="translate(-210.32 -200.37)"/><path class="cls-2" d="M299,315.43a21,21,0,0,1,5.83,2.25.38.38,0,0,0,.38-.65,22,22,0,0,0-6-2.32c-.47-.1-.67.62-.2.72Z" transform="translate(-210.32 -200.37)"/><path class="cls-2" d="M301.53,313.08a19.87,19.87,0,0,1,7,3.07c.39.28.77-.37.38-.65a20.25,20.25,0,0,0-7.2-3.14c-.47-.11-.67.61-.2.72Z" transform="translate(-210.32 -200.37)"/><path class="cls-2" d="M303.81,311.35c1.58-.49,3.25.84,4.56,1.56l3.37,1.88a.38.38,0,0,0,.38-.65c-1.65-.91-3.28-1.84-4.93-2.74-1.17-.64-2.25-1.18-3.58-.77-.46.14-.26.87.2.72Z" transform="translate(-210.32 -200.37)"/><path class="cls-2" d="M307.08,308.9c1.13-.73,3.62,1,4.63,1.52l3.4,1.7c.43.21.81-.43.38-.65-1.89-1-3.78-1.9-5.67-2.83-1-.51-2.05-1.08-3.12-.39-.4.26,0,.91.38.65Z" transform="translate(-210.32 -200.37)"/><path class="cls-2" d="M308.72,306.3a32.6,32.6,0,0,1,6,2c.5.23,5.62,2.88,5.5,3.1.22-.42-.42-.8-.65-.37l-.07.12a.39.39,0,0,0,.14.51.51.51,0,0,0,.64.11.39.39,0,0,0,.26-.47c-.23-1.52-3.21-2.56-4.42-3.17a33.29,33.29,0,0,0-7.19-2.56c-.46-.12-.66.61-.19.72Z" transform="translate(-210.32 -200.37)"/><path class="cls-2" d="M311.52,304.07a31.78,31.78,0,0,1,12.18,5c.4.27.78-.38.38-.65a32.16,32.16,0,0,0-12.36-5.07c-.47-.09-.68.64-.2.72Z" transform="translate(-210.32 -200.37)"/><path class="cls-2" d="M316,301q6.3,3.62,12.42,7.52l.19-.7-.75.06c-.48,0-.48.78,0,.75l.75-.06a.38.38,0,0,0,.19-.7q-6.12-3.9-12.42-7.52a.38.38,0,0,0-.38.65Z" transform="translate(-210.32 -200.37)"/><path class="cls-2" d="M320,299.5c4.11.36,8.37,3.92,11.85,6a.38.38,0,0,0,.51-.51,1.32,1.32,0,0,0-1.38-.81.38.38,0,0,0,0,.75l.73.44.51-.52c-3.69-2.19-7.82-5.69-12.22-6.08-.48-.05-.48.7,0,.75Z" transform="translate(-210.32 -200.37)"/><path class="cls-2" d="M323,295.7a92.86,92.86,0,0,1,13.41,9c.37.3.91-.23.53-.53a94.24,94.24,0,0,0-13.56-9.11c-.42-.23-.8.41-.38.65Z" transform="translate(-210.32 -200.37)"/><path class="cls-2" d="M327.77,294.1c2.45.92,4.52,3,6.56,4.64l5.51,4.3c.38.3.91-.23.53-.53l-7-5.44c-1.72-1.34-3.37-2.92-5.43-3.69-.45-.17-.65.55-.2.72Z" transform="translate(-210.32 -200.37)"/><path class="cls-2" d="M331.43,290.74q7.4,5,14.4,10.47c.37.3.91-.23.53-.53q-7.08-5.56-14.55-10.59c-.4-.27-.78.38-.38.65Z" transform="translate(-210.32 -200.37)"/><path class="cls-2" d="M335.93,289.27a151.83,151.83,0,0,1,15.61,10.11c.39.28.76-.37.38-.65a151.83,151.83,0,0,0-15.61-10.11c-.42-.23-.8.41-.38.65Z" transform="translate(-210.32 -200.37)"/><path class="cls-2" d="M339.53,286.41l17.6,12.07c.4.27.78-.38.38-.65l-17.6-12.07c-.4-.27-.78.38-.38.65Z" transform="translate(-210.32 -200.37)"/><path class="cls-2" d="M344.93,285a93.78,93.78,0,0,1,17.18,12.44c.35.32.89-.21.53-.53a95,95,0,0,0-17.33-12.56.38.38,0,0,0-.38.65Z" transform="translate(-210.32 -200.37)"/><path class="cls-2" d="M349.33,282.26c2.1.54,3.86,2,5.59,3.28s3.61,2.63,5.37,4q4.65,3.61,9,7.54c.36.32.89-.2.53-.53-3.19-2.83-6.46-5.56-9.84-8.16-3.09-2.37-6.69-5.89-10.5-6.86-.46-.12-.66.61-.2.72Z" transform="translate(-210.32 -200.37)"/><path class="cls-2" d="M353.8,281.11c2.08,0,4.08,2.12,5.62,3.3l5.1,3.92,10.21,7.84c.38.3.75-.35.38-.64l-11.78-9q-2.74-2.12-5.5-4.22c-1.28-1-2.37-1.91-4-1.9a.38.38,0,0,0,0,.75Z" transform="translate(-210.32 -200.37)"/><path class="cls-2" d="M359.61,278.38c3.88,2,7.36,5.82,10.66,8.69s6.64,5.88,9.9,8.89c.35.33.88-.2.53-.53q-5.24-4.83-10.61-9.51c-3.16-2.74-6.39-6.24-10.1-8.19-.43-.22-.81.43-.38.65Z" transform="translate(-210.32 -200.37)"/><path class="cls-2" d="M366.23,277.36a197.42,197.42,0,0,1,21.06,19.94c.32.36.85-.17.53-.53a197.42,197.42,0,0,0-21.06-19.94c-.37-.31-.91.22-.53.53Z" transform="translate(-210.32 -200.37)"/><path class="cls-2" d="M370.67,275.47c2.22.08,4.72,3,6.27,4.43s3.18,3,4.7,4.55a114.13,114.13,0,0,1,8.28,9.56l.36-.63-.56-.36c-.28-.39-.93,0-.65.38s.37.54,1,.71a.38.38,0,0,0,.37-.63,110.85,110.85,0,0,0-10.13-11.41c-1.76-1.73-3.59-3.4-5.47-5-1.28-1.1-2.42-2.28-4.18-2.34-.48,0-.48.73,0,.75Z" transform="translate(-210.32 -200.37)"/><path class="cls-2" d="M374.87,274.21a16,16,0,0,1,4.17,2.88c.35.33.88-.2.53-.53a16.8,16.8,0,0,0-4.32-3c-.43-.21-.81.44-.38.65Z" transform="translate(-210.32 -200.37)"/><path class="cls-2" d="M467.36,278.61l5.49-4.54c.38-.31-.16-.83-.53-.53l-5.49,4.54c-.38.31.16.84.53.53Z" transform="translate(-210.32 -200.37)"/><path class="cls-2" d="M465.42,285.1q6.15-4.92,12-10.2c.36-.32-.17-.85-.53-.53q-5.85,5.28-12,10.2c-.38.31.16.83.53.53Z" transform="translate(-210.32 -200.37)"/><path class="cls-2" d="M462.73,290.51a168.46,168.46,0,0,1,18.61-14c.4-.26,0-.91-.38-.65A172.33,172.33,0,0,0,462.19,290c-.36.32.17.85.54.53Z" transform="translate(-210.32 -200.37)"/><path class="cls-2" d="M461.64,295.59c3-3.93,7.74-6.53,11.77-9.34l11.86-8.3c.33-.23.14-.84-.29-.69l-.86.32c-.45.16-.26.89.19.72l.87-.31-.29-.69-13.44,9.41c-3.67,2.56-7.69,4.92-10.46,8.51-.29.38.36.75.65.37Z" transform="translate(-210.32 -200.37)"/><path class="cls-2" d="M460.88,298.25c1.16,1.24,3.24-.74,4.27-1.35l9.24-5.56q9.24-5.59,18.4-11.28c.41-.26,0-.91-.38-.65q-7.5,4.65-15,9.25c-2.38,1.44-4.75,2.88-7.14,4.31-1,.59-8.08,5.53-8.82,4.75-.33-.35-.86.18-.53.53Z" transform="translate(-210.32 -200.37)"/><path class="cls-2" d="M471.15,297.14q13.41-7.84,26.53-16.15c.41-.26,0-.91-.38-.65q-13.12,8.31-26.53,16.15a.38.38,0,0,0,.38.65Z" transform="translate(-210.32 -200.37)"/><path class="cls-2" d="M479.07,296.59c1.78-1.8,4.27-2.82,6.43-4.08,1.86-1.08,3.7-2.21,5.5-3.38,3.64-2.36,7.15-4.91,10.55-7.61.38-.3-.16-.83-.53-.53a135.22,135.22,0,0,1-11.95,8.49c-3.38,2.13-7.71,3.73-10.53,6.58a.38.38,0,0,0,.53.53Z" transform="translate(-210.32 -200.37)"/><path class="cls-2" d="M485.73,296.27c6.84-3.4,13.13-8.35,19.5-12.56.4-.26,0-.91-.38-.64-6.37,4.21-12.65,9.15-19.5,12.55-.43.21-.05.86.38.65Z" transform="translate(-210.32 -200.37)"/><path class="cls-2" d="M491.88,297.3a195.45,195.45,0,0,0,18.46-12.51c.26-.2.23-.73-.19-.7l-.61.05c-.48,0-.48.78,0,.75l.61-.05-.19-.7a196.61,196.61,0,0,1-18.45,12.51c-.42.25,0,.9.37.65Z" transform="translate(-210.32 -200.37)"/><path class="cls-2" d="M498.57,298.11l17-10.9c.4-.26,0-.91-.38-.65l-17,10.91c-.4.26,0,.91.38.64Z" transform="translate(-210.32 -200.37)"/><path class="cls-2" d="M505,299.69c2.58-.56,4.71-2.31,6.85-3.77q4.16-2.85,8.2-5.83c.38-.29,0-.94-.38-.65q-3.66,2.7-7.41,5.29c-2.29,1.57-4.7,3.64-7.46,4.23-.48.1-.28.83.2.73Z" transform="translate(-210.32 -200.37)"/><path class="cls-2" d="M510.42,301.19a96.12,96.12,0,0,0,14.89-10.27c.37-.31-.17-.84-.53-.53A96,96,0,0,1,510,300.55c-.42.23-.05.88.38.64Z" transform="translate(-210.32 -200.37)"/><path class="cls-2" d="M516.06,302.76l8.71-6q2-1.37,4-2.71c.52-.36,1.1-.58,1.23-1.22a.39.39,0,0,0-.26-.46l-.21,0c-.18,0-.43,0-.46.26l0,.15c-.08.47.64.68.72.2,0,0-1.93.85-2.17,1-.54.33-1.06.73-1.58,1.09l-3.56,2.43-6.72,4.61c-.4.27,0,.92.37.65Z" transform="translate(-210.32 -200.37)"/><path class="cls-2" d="M522.29,304.6l11.24-7.85c.39-.28,0-.93-.38-.65L521.92,304c-.4.27,0,.92.37.64Z" transform="translate(-210.32 -200.37)"/><path class="cls-2" d="M525.81,306.46c2.32,0,4.39-1.46,6.21-2.78s3.64-3.52,5.77-4.12a.37.37,0,0,0-.2-.72c-1.57.44-3,1.88-4.2,2.86-2.13,1.67-4.74,3.95-7.58,4a.38.38,0,0,0,0,.75Z" transform="translate(-210.32 -200.37)"/><path class="cls-2" d="M532.78,308.08l8.58-6.78c.38-.29-.15-.82-.53-.53l-8.59,6.78c-.37.3.16.83.54.53Z" transform="translate(-210.32 -200.37)"/><path class="cls-2" d="M536.37,310.61a36.57,36.57,0,0,0,8.87-5.4c.37-.31-.16-.84-.53-.54A35.47,35.47,0,0,1,536,310c-.44.19-.06.84.38.65Z" transform="translate(-210.32 -200.37)"/><path class="cls-2" d="M541.91,312.92l7.31-5.15c.39-.27,0-.93-.38-.65l-7.31,5.15c-.39.28,0,.93.38.65Z" transform="translate(-210.32 -200.37)"/><path class="cls-2" d="M545.81,315.62l6.68-5c.38-.28,0-.93-.38-.64l-6.68,5c-.39.28,0,.93.38.64Z" transform="translate(-210.32 -200.37)"/><path class="cls-2" d="M550,316.61c1,.13,1.82-.76,2.56-1.34l3.45-2.69c.38-.29-.15-.82-.53-.53l-2.41,1.88c-.78.61-2.06,2.06-3.07,1.93-.48-.07-.47.68,0,.75Z" transform="translate(-210.32 -200.37)"/><path class="cls-2" d="M554.51,319a16.81,16.81,0,0,0,3.84-2.92c.34-.34-.19-.88-.53-.53a16.21,16.21,0,0,1-3.68,2.8c-.43.23,0,.88.37.65Z" transform="translate(-210.32 -200.37)"/><path class="cls-2" d="M557.71,320.58a4.48,4.48,0,0,0,3.43-2.12c.26-.41-.39-.79-.64-.38a3.7,3.7,0,0,1-2.79,1.75c-.48,0-.48.79,0,.75Z" transform="translate(-210.32 -200.37)"/><path class="cls-2" d="M561.57,322.76l1.56-.32c.47-.1.27-.83-.2-.73l-1.56.33c-.47.1-.27.82.2.72Z" transform="translate(-210.32 -200.37)"/><g class="cls-3"><path class="cls-2" d="M295,243.87c2.45,6.62,7.91,11.8,14.08,15.21s13.08,5.26,19.95,6.9q21,5,42.34,7.94c-18,1.86-34.84,10.17-49.6,20.66S294,317.76,280.36,329.71a367.19,367.19,0,0,1-13.74-53.66,10.33,10.33,0,0,1-.1-4.72,10.56,10.56,0,0,1,3.23-4.35q11.46-10.85,22.94-21.67" transform="translate(-210.32 -200.37)"/><path class="cls-2" d="M294.52,244c4.77,12.27,17.3,18,29.23,21.16a387.18,387.18,0,0,0,47.48,9.23l.14-1C334,277.5,306.74,305.82,280,329.36l.83.22a373.19,373.19,0,0,1-12.24-45.67q-.56-2.82-1.08-5.64c-.39-2.14-1.16-4.66-.51-6.81.59-2,2.36-3.42,3.81-4.8l4.3-4.07L293,245.66c.47-.44-.24-1.15-.71-.71q-9.68,9.13-19.35,18.29c-2.25,2.12-5.41,4.31-6.67,7.23s0,6.9.6,9.95a371.6,371.6,0,0,0,13,49.43.51.51,0,0,0,.83.22c26.51-23.34,53.6-51.6,90.66-55.65.5-.06.74-.9.13-1a430.79,430.79,0,0,1-44.06-8.36c-12.61-3.1-26.84-8.16-32-21.34-.23-.59-1.2-.33-1,.27Z" transform="translate(-210.32 -200.37)"/></g><g class="cls-3"><path class="cls-2" d="M542.31,232.65c.11,7.73-6.18,14-12.54,18.37-15.77,10.94-34.5,16.69-53.1,21.44a173.28,173.28,0,0,1,96.94,55.88,204.46,204.46,0,0,0,9.77-52.14,27.82,27.82,0,0,0-.68-9.68c-1.23-4-4.08-7.31-7-10.33a133.46,133.46,0,0,0-30-23.27" transform="translate(-210.32 -200.37)"/><path class="cls-2" d="M541.81,232.65c-.08,6.59-4.46,11.78-9.35,15.75a88.1,88.1,0,0,1-17.22,10.45c-12.31,5.93-25.5,9.75-38.7,13.12a.51.51,0,0,0,0,1,173.45,173.45,0,0,1,79.06,38.27,170.53,170.53,0,0,1,17.66,17.49.51.51,0,0,0,.84-.22,207.48,207.48,0,0,0,9.35-46.12c.6-7,1.54-14.39-2.47-20.59-3.73-5.77-9.41-10.61-14.61-15A135.76,135.76,0,0,0,546,232.49a.5.5,0,0,0-.51.86,135,135,0,0,1,22.19,15.85c6.81,6,15,12.8,15.31,22.55.32,9.53-1.26,19.48-2.93,28.83a206.73,206.73,0,0,1-6.92,27.63L574,328a174.53,174.53,0,0,0-72.43-49.23A171.8,171.8,0,0,0,476.8,272v1c14.12-3.61,28.25-7.74,41.28-14.39,10-5.08,24.56-13,24.73-25.9a.5.5,0,0,0-1,0Z" transform="translate(-210.32 -200.37)"/></g><g class="cls-4"><path class="cls-2" d="M377,272.52c-13.83,1.4-27,6.6-39.31,13.11a188.4,188.4,0,0,0-52.62,41.46c7.38-1.52,14.21-4.93,20.91-8.36,13.76-7.05,27.51-14.4,42.35-18.73s31.1-5.45,45.58-.05a91.84,91.84,0,0,0-18.78-28.37" transform="translate(-210.32 -200.37)"/><path class="cls-2" d="M377,272c-18.41,2-35.61,10.15-51.14,19.88a190,190,0,0,0-41.14,34.83.51.51,0,0,0,.49.84c9-1.94,17.06-6.37,25.15-10.53a296,296,0,0,1,27.16-12.79c17.81-7,37.81-10.53,56.26-3.82.46.17.72-.38.57-.73a94.35,94.35,0,0,0-18.86-28.47c-.45-.47-1.16.24-.71.7a93.51,93.51,0,0,1,18.7,28.27l.57-.73c-29.2-10.62-58.93,3.72-84.61,16.92-7.88,4.05-15.76,8.33-24.5,10.21l.49.84a189.09,189.09,0,0,1,40.2-34.22C341.21,283.37,358.51,275,377,273c.63-.07.64-1.07,0-1Z" transform="translate(-210.32 -200.37)"/></g><g class="cls-4"><path class="cls-2" d="M468.4,272.6a127.75,127.75,0,0,0-9.73,28.12c4.17-3.25,9.8-3.71,15.08-3.81A146.49,146.49,0,0,1,507,299.86c22.44,4.79,43.07,15.72,62.73,27.54-3-6.34-8.12-11.39-13.43-16a169,169,0,0,0-88.23-39.3,217.79,217.79,0,0,0-8.57,24.57" transform="translate(-210.32 -200.37)"/><path class="cls-2" d="M468,272.35a132.4,132.4,0,0,0-9.79,28.23c-.08.39.36.84.74.57,3.88-2.84,8.55-3.52,13.24-3.7a149.55,149.55,0,0,1,15,.24A133.76,133.76,0,0,1,517.22,303c18.56,5.57,35.71,14.89,52.25,24.82a.5.5,0,0,0,.68-.68c-3.45-7-9.18-12.45-15.1-17.43a166.23,166.23,0,0,0-18.71-13.6,169,169,0,0,0-68.28-24.49c-.23,0-.4.18-.48.37A226.06,226.06,0,0,0,459,296.57a.5.5,0,0,0,1,.26q2.11-7.41,4.73-14.68,1.31-3.63,2.75-7.21c.59-1.47.64-2.11,2.55-2.05a29.47,29.47,0,0,1,3.73.57A168.86,168.86,0,0,1,547.56,305c8.24,6.2,17.1,13.16,21.73,22.61L570,327c-13.33-8-27-15.57-41.53-21.16a140.58,140.58,0,0,0-47-9.37c-7.54-.2-16.56-.86-23,3.84l.74.57a131.46,131.46,0,0,1,9.68-28c.28-.58-.58-1.09-.86-.5Z" transform="translate(-210.32 -200.37)"/></g><path class="cls-2" d="M362.32,256.41a11.87,11.87,0,0,0,2.36-7.22.75.75,0,0,0-1.5,0,10.47,10.47,0,0,1-2.16,6.46c-.58.77.72,1.52,1.3.76Z" transform="translate(-210.32 -200.37)"/><path class="cls-2" d="M368.23,230.6c-3.34-1.19-5.78.42-7.21,3.48-1.77,3.78-1.16,7.18.24,11,1.27,3.48,3.77,7.71,7.76,8.41,4.5.79,8-2.62,9.78-6.37.41-.87-.88-1.63-1.3-.76-1.6,3.37-4.93,6.9-9.06,5.4-3.16-1.15-4.95-4.8-6-7.75-.9-2.62-1.61-5.29-.64-8,1-2.84,2.67-5.2,6-4,.91.32,1.3-1.13.4-1.45Z" transform="translate(-210.32 -200.37)"/><path class="cls-2" d="M382.35,227.9c-6.29,1.69-7.06,10.73-5.7,16,.85,3.3,3.21,6.87,6.77,7.57s6.7-2.05,7.93-5.22a18.27,18.27,0,0,0-.11-12.48c-1.12-2.9-3.75-6.22-7.2-6.18-3.12,0-4.6,3.23-3.78,6a6.85,6.85,0,0,0,7.6,4.64,6.8,6.8,0,0,0,5.45-5.94c.11-.93-.22-2.48.19-3.34,1.25-2.66,2.89-.18,3.35.79a7.4,7.4,0,0,1,.43,2.15c.25,1.63.45,3.28.68,4.91l1.48,10.82c.12.83,1.57.64,1.48-.2a78.71,78.71,0,0,1-.49-10.41,48.76,48.76,0,0,1,.33-5.4,7,7,0,0,1,.7-2.7q1-2.24,2.67-.45c1.11.11,1.69.66,1.72,1.64,1.09,2.95.71,6.62,1.19,9.72.31,2,.63,5.09,2.86,5.95,4.72,1.81,6.45-5.16,7-8.24,1.19-6.48.43-13.08-.33-19.56-.11-.93-1.58-1-1.5,0l1.05,12.84c.31,3.73.3,7.64,1,11.32.37,2,1.45,3.68,3.59,4,3,.46,5.23-1.74,7.06-3.78.64-.71-.42-1.78-1.06-1.06a13.27,13.27,0,0,1-2.87,2.68c-1.78,1.07-4.47.77-5.12-1.47-.74-2.55-.58-5.61-.79-8.24l-1.34-16.29h-1.5c.82,6.92,1.69,14.09,0,20.95-.41,1.69-.92,4.15-2.56,5-3.34,1.78-3.89-3.24-4.14-5.21-.38-3-.37-6.08-1.1-9-.41-1.71-1.12-3.62-3.13-3.83a4.37,4.37,0,0,0-4.31,3c-1,2.32-.84,5.23-.91,7.69a79,79,0,0,0,.48,10.88l1.47-.2c-.72-5.24-1.35-10.5-2.16-15.73-.35-2.27-1.51-5.87-4.62-5.12-3.37.82-1.67,5.71-3,7.91a5.14,5.14,0,0,1-7.29,1.65c-2.63-1.77-3.58-7.53,1.19-6.58,4.53.91,5.82,6.94,5.83,10.8,0,2.47-.29,5.19-1.73,7.27-1.91,2.74-5.3,3.52-7.94,1.29-4.62-3.9-5.68-17.37,1.6-19.32a.75.75,0,0,0-.4-1.45Z" transform="translate(-210.32 -200.37)"/><path class="cls-2" d="M418,225a27.43,27.43,0,0,1,4.3-.92c.94-.12,1-1.62,0-1.5a29.92,29.92,0,0,0-4.7,1A.75.75,0,0,0,418,225Z" transform="translate(-210.32 -200.37)"/><path class="cls-2" d="M435.7,224.13c-8.36.18-12.24,17.12-6.06,21.93,3.49,2.72,7.75-.37,9.17-3.76,2.08-5,1.45-11-.25-16a.75.75,0,0,0-1.47.2,76.3,76.3,0,0,0,2,17.16c1,4.06,4.14,4.34,7.75,3.24.92-.29.53-1.73-.4-1.45-2.14.65-4.53,1.32-5.71-1.39a24.62,24.62,0,0,1-1.11-5.46,84.59,84.59,0,0,1-1.06-12.1l-1.48.2a24.69,24.69,0,0,1,1.35,10.33,13.57,13.57,0,0,1-1.65,5.91c-1.28,2.06-4,3.49-6.22,1.88-5.2-3.83-1.65-19.06,5.11-19.21a.75.75,0,0,0,0-1.5Z" transform="translate(-210.32 -200.37)"/><path class="cls-2" d="M457.73,226.1c-10.28-4.13-14,13.37-10.62,20.08,3.51,7,11.62,1.95,14.45-2.81,4.16-7,4.69-16.56,4.88-24.51,0-1-1.44-1-1.5,0-.55,8.65-1.23,17.3-1.63,25.95-.12,2.5.12,4.93,2.52,6.27a5.3,5.3,0,0,0,5.7-.32c.78-.56,0-1.86-.75-1.29A3.79,3.79,0,0,1,467,250c-1.85-.74-2.26-2.34-2.28-4.26,0-2.94.36-5.94.55-8.87l1.13-18h-1.5c-.15,6.49-.76,13.26-2.79,19.47a17.1,17.1,0,0,1-4.52,7.55c-3.21,2.87-8.16,3.21-9.63-1.53-1.78-5.74.7-20.27,9.33-16.8.89.36,1.28-1.09.4-1.45Z" transform="translate(-210.32 -200.37)"/><path class="cls-2" d="M466.71,229.13l4.22.11a.75.75,0,0,0,0-1.5l-4.22-.11a.75.75,0,0,0,0,1.5Z" transform="translate(-210.32 -200.37)"/><path class="cls-5" d="M314.35,257.56c-2.55-1.23-6.49-2.56-9-3.78,3.06-.3,6.14-.49,9.22-.56-.05-3.67-.25-7.34-.59-11,1.41,1.85,5.55,7.87,5.55,7.87s7.6,0,10.45.27c-1.81,1.46-6,4.82-6.05,5.15s3,6.22,4.34,8.88c-2.24-1.06-7.8-3.68-8.38-3.63s-5.73,3.25-7.9,4.58c0,0,1.27-5.7,2.39-7.79" transform="translate(-210.32 -200.37)"/><path class="cls-2" d="M314.6,257.12c-3-1.37-6.07-2.4-9-3.77l-.25.93q4.6-.43,9.22-.56a.5.5,0,0,0,.5-.5q-.09-5.5-.59-11l-.93.25c1.25,1.67,2.44,3.39,3.63,5.1.53.76,1.28,2.53,2.16,3s2.84.06,3.77.08c2.29,0,4.59.05,6.87.24l-.35-.85c-1.53,1.22-3.05,2.44-4.54,3.71-.59.51-1.59,1.09-1.64,1.93s1.05,2.39,1.41,3.13c1,2,2,3.91,3,5.86l.68-.68c-1.77-.84-3.55-1.68-5.35-2.48-.87-.38-2.29-1.29-3.28-1.22s-2.05,1-2.82,1.43c-1.8,1-3.56,2.13-5.33,3.22l.73.56a34.54,34.54,0,0,1,2.34-7.67c.28-.58-.58-1.09-.86-.51a35.87,35.87,0,0,0-2.44,7.91.51.51,0,0,0,.73.57c1.35-.83,2.69-1.65,4.05-2.46.92-.55,2.45-1.88,3.54-2s2.69,1,3.65,1.41c1.52.69,3,1.4,4.54,2.11a.5.5,0,0,0,.68-.69c-.76-1.48-1.53-3-2.28-4.46-.48-.95-2-2.95-1.94-4,0-.17.1,0,.44-.44a12.52,12.52,0,0,1,1.51-1.29c1.28-1.08,2.59-2.13,3.9-3.18.38-.3,0-.83-.35-.86-2-.17-4-.2-6-.23-1.22,0-3.25.37-4.41,0,.66.23.12-.1-.17-.57-.51-.83-1.13-1.62-1.69-2.42-1.08-1.56-2.16-3.12-3.29-4.63-.27-.35-1-.3-.94.25.14,1.52.26,3.05.35,4.57s.54,3.58.22,5-2.32,1-3.63,1c-1.7.09-3.38.23-5.07.39-.44,0-.75.7-.25.93,3,1.38,6.07,2.4,9,3.78.58.27,1.08-.6.5-.87Z" transform="translate(-210.32 -200.37)"/><path class="cls-5" d="M511.76,246c2-2,4.52-5.3,6.5-7.31-.71,3-1.53,6-2.47,8.9,3.49,1.14,7,2.15,10.59,3-2.2.73-9.24,2.69-9.24,2.69s-2.47,7.19-3.65,9.8c-.79-2.19-2.62-7.23-2.91-7.4s-6.85.8-9.8,1.23c1.73-1.77,6-6.19,6.15-6.75s-1.21-6.47-1.77-9c0,0,5,3,6.6,4.79" transform="translate(-210.32 -200.37)"/><path class="cls-2" d="M512.11,246.35c2.26-2.35,4.24-5,6.5-7.31l-.83-.49q-1.08,4.5-2.47,8.91a.5.5,0,0,0,.35.61c3.5,1.14,7,2.14,10.59,3v-1c-2,.64-4,1.2-6,1.77-.86.25-2.8.38-3.46,1.05s-.92,2.47-1.22,3.33c-.79,2.2-1.57,4.42-2.51,6.57l.91.12c-.69-1.92-1.38-3.85-2.14-5.74-.26-.65-.48-1.7-1.16-2-.92-.42-3,.26-4,.39-2,.26-4,.56-6,.85l.49.84c1.37-1.41,2.74-2.82,4.08-4.27.64-.69,1.94-1.72,2.21-2.71s-.29-2.28-.46-3.13c-.41-2-.86-4.06-1.31-6.09l-.74.57a34.65,34.65,0,0,1,6.49,4.7c.46.46,1.17-.25.71-.7a35.68,35.68,0,0,0-6.69-4.87.51.51,0,0,0-.74.57q.52,2.31,1,4.62c.2,1,1,3.07.74,4.07s-1.89,2.22-2.55,2.92c-1.14,1.22-2.3,2.41-3.47,3.61a.5.5,0,0,0,.49.83l4.65-.66c.95-.13,3.53-.93,4.5-.55.73.29,1.1,2,1.41,2.85.53,1.39,1,2.79,1.54,4.18.12.36.72.55.91.12.74-1.69,1.38-3.42,2-5.15.48-1.31.81-3.54,1.66-4.67-.39.51,0,.09.63,0a25.87,25.87,0,0,0,2.57-.73c1.92-.54,3.83-1.08,5.72-1.69a.51.51,0,0,0,0-1q-5.34-1.32-10.58-3l.35.61c.92-2.94,1.74-5.9,2.46-8.9a.5.5,0,0,0-.83-.49c-2.27,2.36-4.24,5-6.51,7.32-.44.46.26,1.17.71.7Z" transform="translate(-210.32 -200.37)"/></svg>