<svg id="Calque_1" data-name="Calque 1" xmlns="http://www.w3.org/2000/svg" viewBox="0 0 555.09 196.73"><defs><style>.cls-1{fill:#fff;}.cls-2{fill:#1d1d1b;}.cls-3{opacity:0.08;}.cls-4{opacity:0.16;}.cls-5{fill:#ffed00;}</style></defs><title>bandeauaccueil</title><path class="cls-1" d="M1156.68,629.57c45.74-73.3,135-113.68,151.79-99.1,13.23,11.53,31.39,42.21,31.39,42.21-36.58,2.84-61.14,17.93-94.75,43.32-14.41,10.88-42.66,51.57-42.66,51.57-7.65-8.09-1.79-53.24-1.79-53.24Z" transform="translate(-1155.66 -471.84)"/><path class="cls-2" d="M1157.54,630.08c21.48-34.29,52.63-62.9,87.72-82.9,12.7-7.24,26.29-13.74,40.6-17.08a46.43,46.43,0,0,1,14.65-1.47c4.48.41,7.17,2.26,10.29,5.43,7.25,7.39,13.26,16,19,24.61,3.18,4.76,6.29,9.59,9.21,14.52l.86-1.51a133.59,133.59,0,0,0-40.69,9.59c-13.25,5.49-25.51,13-37.26,21.22-9.94,6.94-19.75,13.82-27.92,22.83-7.27,8-13.94,16.6-20.43,25.25-4.08,5.43-8.09,10.92-12,16.49l1.57-.2c-2-2.21-2.52-5.75-2.93-8.59a89.52,89.52,0,0,1-.71-13.1,251.61,251.61,0,0,1,1.51-25.29c.19-1.85.39-3.7.63-5.55a1,1,0,0,0-1.26-1l-38.47,13.34-5.52,1.91c-1.2.42-.69,2.35.54,1.93l38.46-13.34,5.52-1.91-1.27-1c-.7,5.41-1.19,10.86-1.57,16.31-.64,9.24-1.14,18.74.18,28,.48,3.31,1.15,7.12,3.48,9.69a1,1,0,0,0,1.57-.21,447.7,447.7,0,0,1,29.09-38,133.62,133.62,0,0,1,9.68-10.23c4.66-4.34,10.05-8,15.21-11.67,11.7-8.44,23.82-16.45,36.92-22.59a132.27,132.27,0,0,1,45.64-11.94,1,1,0,0,0,.87-1.5c-7.32-12.35-15.38-24.58-24.77-35.44-3.36-3.89-6.86-8.28-12-9.57-4.3-1.07-8.88-.7-13.21,0-13.94,2.13-27.39,8.15-39.77,14.67a256.23,256.23,0,0,0-47.34,32.42,242.2,242.2,0,0,0-47.77,54.85C1155.13,630.16,1156.86,631.17,1157.54,630.08Z" transform="translate(-1155.66 -471.84)"/><path class="cls-1" d="M1709.73,627.16c-43.39-72.13-129.25-103.5-149.82-94.78-12.45,5.27-22.4,45.56-22.4,45.56,52.42,4.07,77.57,23.65,127.86,86.74,0,0,1.82-24,2.57-31.42a35.55,35.55,0,0,0-1-12.92Z" transform="translate(-1155.66 -471.84)"/><path class="cls-2" d="M1710.59,626.66c-21.41-35.43-54.23-63.88-91.36-81.92-13-6.33-27-11.81-41.38-14a46.52,46.52,0,0,0-14.13-.41c-5.06.79-8.48,3.66-11.42,7.79-5.18,7.28-8.42,16.06-11.26,24.47-1.69,5-3.23,10-4.5,15.1a1,1,0,0,0,1,1.26c18,1.42,35.75,5.08,51.81,13.53,17.52,9.22,32.11,23,45.42,37.48,10.47,11.38,20.29,23.35,29.93,35.43.59.75,1.65.07,1.7-.7q.77-9.95,1.56-19.87c.66-8.06,2.42-16.83,0-24.73l-1.23,1.23,37.31,6,5.44.87c1.25.2,1.8-1.73.53-1.93l-37.32-6-5.43-.86a1,1,0,0,0-1.23,1.23c2.39,7.85.52,16.75-.13,24.77q-.8,9.64-1.52,19.3l1.71-.71c-15.77-19.77-32-39.81-51.26-56.29-13.54-11.57-28.83-20.64-46-25.52a160.83,160.83,0,0,0-31.28-5.22l1,1.27c2.85-11.49,6.63-23.22,12.24-33.66,2.57-4.78,5.86-10.41,11.46-11.88,4.16-1.09,8.68-.81,12.91-.31,13.61,1.6,26.94,6.59,39.31,12.29A225.81,225.81,0,0,1,1661.47,574a207.09,207.09,0,0,1,47.4,53.69A1,1,0,0,0,1710.59,626.66Z" transform="translate(-1155.66 -471.84)"/><path class="cls-1" d="M1484,541.41c85.28,3,133,24.08,168.81,65,0,0,16.66-51.07,9.51-61.52-55.36-80.8-214.63-73.16-297.48-70.75s-140.39,54-152.12,67c0,0-3.58.23-1.09,12.88,3,15.18,13.65,49.66,13.65,49.66.85,1.06,3.56-3,8.78-7.55,19.89-17.51,57.69-55,125.14-55Z" transform="translate(-1155.66 -471.84)"/><path class="cls-2" d="M1484,542.41c28.18,1,56.56,3.91,83.72,11.76,21.09,6.11,41.19,15.46,58.7,28.79a177.12,177.12,0,0,1,25.69,24.19,1,1,0,0,0,1.67-.44,312.4,312.4,0,0,0,8.26-30.52,115.79,115.79,0,0,0,3-21,27.15,27.15,0,0,0-.66-7.84c-.75-2.81-2.72-5.07-4.45-7.34-20.23-26.53-51.32-42-82.66-51.41-35.36-10.61-72.58-14.49-109.34-16-33.44-1.4-66.88-.46-100.32.54a223.32,223.32,0,0,0-64.86,11.3A240.17,240.17,0,0,0,1251.4,509a225.06,225.06,0,0,0-32.06,24.25q-2.37,2.17-4.64,4.45c-.54.55-1.08,1.1-1.61,1.67a8.06,8.06,0,0,0-.69.74c-.58.76.72-.3,0,.16-4.42,2.82-2.46,10.3-1.62,14.52,3.1,15.47,7.93,30.69,12.51,45.78.31,1,.49,2.8,1.15,3.7,1.8,2.43,5.44-2.61,6.48-3.66,4.75-4.82,10-9.23,15.14-13.65,11.92-10.29,24.67-19.6,38.67-26.88a158.57,158.57,0,0,1,60.15-17.27c8.68-.72,17.38-.58,26.08-.56l36.07.06,72.66.13H1484a1,1,0,0,0,0-2l-54.18-.1-67.89-.12a176.76,176.76,0,0,0-44,5,163.78,163.78,0,0,0-49.64,22.16c-11.37,7.49-21.7,16.29-31.84,25.34-3.06,2.72-6,5.51-8.91,8.43-.26.26-1.72,1.32-1.82,1.66s.36.82.47.43-.45-1.44-.57-1.84q-3-9.84-5.83-19.72c-2.34-8.2-4.66-16.42-6.52-24.74-.89-4-2.09-8.48-1.36-12.61a4.51,4.51,0,0,1,.82-2.05c0-.06.28-.23.14-.11,0,0,.07,0,.1,0-.45.34.24-.08.36-.18a45,45,0,0,0,3.32-3.44c1.5-1.49,3-2.93,4.59-4.35,4.37-4,8.94-7.76,13.64-11.34,29.69-22.63,64.79-38.67,101.67-44.89,17.8-3,35.87-3.05,53.87-3.53,16.64-.44,33.28-.72,49.92-.56,36.53.34,73.32,2.51,109.17,9.84,32.76,6.69,66.39,17.88,92.19,39.93a114.7,114.7,0,0,1,16,16.7c1.84,2.38,4.09,4.82,4.83,7.81a28.13,28.13,0,0,1,.48,7.88c-.62,14.07-4.68,28.19-8.6,41.64-.83,2.85-1.68,5.69-2.6,8.51l1.67-.44a171.88,171.88,0,0,0-49.2-39.18C1582.77,555.24,1559,548.75,1535,545a427.15,427.15,0,0,0-51-4.59C1482.74,540.36,1482.74,542.36,1484,542.41Z" transform="translate(-1155.66 -471.84)"/><path class="cls-2" d="M1227.81,603.63c13.36-6.8,26.71-13.67,40.56-19.44,15-6.23,30.79-11.73,47.05-13,8.15-.66,16.4-.17,24.18,2.49,1.22.42,1.74-1.51.53-1.92-14.39-4.93-30.28-2.79-44.67,1-16.25,4.26-31.8,11-46.9,18.28-7.31,3.52-14.53,7.24-21.76,10.92-1.15.59-.14,2.31,1,1.73Z" transform="translate(-1155.66 -471.84)"/><path class="cls-2" d="M1539.54,578c16.61-5.67,34.92-3,51.42,1.69,15.81,4.5,30.94,11.19,45.46,18.82,5,2.64,10,5.42,14.88,8.24a1,1,0,0,0,1-1.73c-26.06-14.89-54.54-29.27-84.89-31.86-9.55-.81-19.3-.2-28.41,2.91-1.21.41-.69,2.34.53,1.93Z" transform="translate(-1155.66 -471.84)"/><path class="cls-2" d="M1236.28,594.24a14,14,0,0,1,4.61.92c.45.17.64-.56.19-.73a14.83,14.83,0,0,0-4.8-.94.38.38,0,0,0,0,.75Z" transform="translate(-1155.66 -471.84)"/><path class="cls-2" d="M1239.1,592.34a15.68,15.68,0,0,1,4.89,1.4c.43.21.81-.44.38-.65a17,17,0,0,0-5.27-1.5c-.48-.05-.47.7,0,.75Z" transform="translate(-1155.66 -471.84)"/><path class="cls-2" d="M1241.19,589.87l6,2.47c.45.19.64-.54.2-.72l-5.95-2.47c-.45-.19-.64.54-.2.72Z" transform="translate(-1155.66 -471.84)"/><path class="cls-2" d="M1244.33,588.23a21.08,21.08,0,0,1,5.83,2.24.37.37,0,0,0,.37-.64,21.49,21.49,0,0,0-6-2.33c-.47-.1-.67.62-.2.73Z" transform="translate(-1155.66 -471.84)"/><path class="cls-2" d="M1246.87,585.87a19.83,19.83,0,0,1,7,3.07c.4.28.78-.37.38-.64a20.22,20.22,0,0,0-7.19-3.15c-.47-.11-.67.62-.2.72Z" transform="translate(-1155.66 -471.84)"/><path class="cls-2" d="M1249.15,584.14c1.58-.48,3.25.84,4.55,1.57l3.38,1.87a.37.37,0,0,0,.37-.65l-4.93-2.74c-1.16-.64-2.24-1.18-3.57-.77-.46.14-.26.87.2.72Z" transform="translate(-1155.66 -471.84)"/><path class="cls-2" d="M1252.42,581.69c1.12-.73,3.62,1,4.62,1.52l3.41,1.7c.43.21.81-.43.38-.65-1.9-.94-3.78-1.9-5.68-2.83-1-.51-2-1.08-3.11-.39-.4.26,0,.91.38.65Z" transform="translate(-1155.66 -471.84)"/><path class="cls-2" d="M1254.05,579.09a33.11,33.11,0,0,1,6,2c.51.23,5.62,2.88,5.5,3.11.23-.43-.42-.81-.64-.38l-.07.12a.38.38,0,0,0,.13.51.52.52,0,0,0,.65.11.39.39,0,0,0,.26-.46c-.23-1.53-3.22-2.57-4.42-3.17a32.79,32.79,0,0,0-7.19-2.57c-.47-.11-.67.61-.2.72Z" transform="translate(-1155.66 -471.84)"/><path class="cls-2" d="M1256.85,576.86a31.82,31.82,0,0,1,12.19,5c.4.27.77-.38.38-.65a32.43,32.43,0,0,0-12.37-5.07c-.47-.09-.67.64-.2.72Z" transform="translate(-1155.66 -471.84)"/><path class="cls-2" d="M1261.33,573.81q6.3,3.62,12.42,7.52l.19-.7-.76.06c-.48,0-.48.78,0,.75l.76-.06a.37.37,0,0,0,.19-.69q-6.14-3.91-12.43-7.53a.37.37,0,0,0-.37.65Z" transform="translate(-1155.66 -471.84)"/><path class="cls-2" d="M1265.36,572.29c4.11.36,8.37,3.92,11.84,6a.37.37,0,0,0,.51-.51,1.32,1.32,0,0,0-1.38-.81.38.38,0,0,0,0,.75l.74.44.51-.52c-3.69-2.19-7.83-5.69-12.22-6.08-.48,0-.48.71,0,.75Z" transform="translate(-1155.66 -471.84)"/><path class="cls-2" d="M1268.35,568.49a92.22,92.22,0,0,1,13.4,9c.38.3.91-.23.54-.53a93.78,93.78,0,0,0-13.57-9.11c-.42-.23-.8.42-.37.65Z" transform="translate(-1155.66 -471.84)"/><path class="cls-2" d="M1273.11,566.89c2.45.92,4.51,3.05,6.56,4.64l5.51,4.3c.37.3.91-.23.53-.53l-7-5.44c-1.71-1.34-3.37-2.92-5.42-3.69-.46-.17-.65.55-.2.72Z" transform="translate(-1155.66 -471.84)"/><path class="cls-2" d="M1276.77,563.53q7.39,5,14.39,10.47c.38.3.91-.23.53-.53q-7.08-5.57-14.54-10.58c-.41-.27-.78.37-.38.64Z" transform="translate(-1155.66 -471.84)"/><path class="cls-2" d="M1281.26,562.06a150.76,150.76,0,0,1,15.61,10.11c.39.29.77-.37.38-.65a150.67,150.67,0,0,0-15.61-10.1c-.42-.24-.8.41-.38.64Z" transform="translate(-1155.66 -471.84)"/><path class="cls-2" d="M1284.87,559.2l17.6,12.07c.4.27.77-.38.38-.65l-17.6-12.07c-.4-.27-.78.38-.38.65Z" transform="translate(-1155.66 -471.84)"/><path class="cls-2" d="M1290.26,557.81a94.26,94.26,0,0,1,17.18,12.44c.36.32.89-.2.53-.53a94.79,94.79,0,0,0-17.33-12.56.38.38,0,0,0-.38.65Z" transform="translate(-1155.66 -471.84)"/><path class="cls-2" d="M1294.67,555.06c2.1.53,3.85,2,5.58,3.27s3.61,2.63,5.38,4c3.1,2.41,6.11,4.94,9,7.55.36.32.9-.21.53-.53q-4.77-4.26-9.84-8.17c-3.08-2.37-6.68-5.88-10.49-6.86a.38.38,0,0,0-.2.73Z" transform="translate(-1155.66 -471.84)"/><path class="cls-2" d="M1299.13,553.91c2.09,0,4.09,2.12,5.62,3.3l5.11,3.92,10.2,7.83c.39.3.76-.35.38-.64l-11.77-9.05c-1.84-1.41-3.66-2.82-5.5-4.22-1.28-1-2.38-1.91-4-1.89a.38.38,0,0,0,0,.75Z" transform="translate(-1155.66 -471.84)"/><path class="cls-2" d="M1304.94,551.17c3.89,2,7.37,5.82,10.67,8.7s6.64,5.87,9.89,8.88c.36.33.89-.2.54-.53q-5.24-4.83-10.62-9.51c-3.15-2.73-6.39-6.24-10.1-8.19-.42-.22-.8.43-.38.65Z" transform="translate(-1155.66 -471.84)"/><path class="cls-2" d="M1311.56,550.15a195.63,195.63,0,0,1,21.06,20c.33.35.86-.18.53-.54a196.53,196.53,0,0,0-21.06-19.94c-.37-.3-.9.22-.53.53Z" transform="translate(-1155.66 -471.84)"/><path class="cls-2" d="M1316,548.26c2.21.08,4.71,3,6.27,4.43s3.18,3,4.7,4.55a115.75,115.75,0,0,1,8.28,9.56l.36-.63-.57-.36c-.28-.38-.93,0-.64.38s.37.54,1,.71a.38.38,0,0,0,.37-.63,113.12,113.12,0,0,0-10.13-11.41q-2.65-2.6-5.47-5c-1.29-1.09-2.42-2.28-4.18-2.34-.48,0-.48.73,0,.75Z" transform="translate(-1155.66 -471.84)"/><path class="cls-2" d="M1320.21,547a16.18,16.18,0,0,1,4.17,2.88c.35.33.88-.2.53-.53a16.8,16.8,0,0,0-4.32-3c-.43-.2-.81.44-.38.65Z" transform="translate(-1155.66 -471.84)"/><path class="cls-2" d="M1546.61,555.14l5.5-4.54c.37-.31-.16-.84-.53-.53l-5.5,4.54c-.37.31.16.83.53.53Z" transform="translate(-1155.66 -471.84)"/><path class="cls-2" d="M1544.68,561.63q6.13-4.92,12-10.2c.36-.33-.17-.85-.53-.53q-5.85,5.28-12,10.2c-.38.3.15.83.53.53Z" transform="translate(-1155.66 -471.84)"/><path class="cls-2" d="M1542,567a170.37,170.37,0,0,1,18.61-14c.41-.26,0-.91-.37-.65a169.8,169.8,0,0,0-18.77,14.15c-.36.32.17.84.53.53Z" transform="translate(-1155.66 -471.84)"/><path class="cls-2" d="M1540.9,572.12c3-3.93,7.74-6.53,11.76-9.34l11.87-8.3c.32-.23.14-.84-.29-.69l-.87.32c-.45.16-.25.89.2.72l.87-.32-.29-.68-13.45,9.41c-3.66,2.56-7.69,4.92-10.45,8.5-.29.39.36.76.65.38Z" transform="translate(-1155.66 -471.84)"/><path class="cls-2" d="M1540.14,574.78c1.16,1.24,3.24-.74,4.26-1.35l9.25-5.56q9.22-5.6,18.39-11.28c.41-.26,0-.91-.37-.65q-7.5,4.65-15.05,9.24-3.55,2.18-7.13,4.32c-1,.59-8.09,5.53-8.82,4.75-.34-.35-.87.18-.53.53Z" transform="translate(-1155.66 -471.84)"/><path class="cls-2" d="M1550.41,573.67q13.39-7.84,26.53-16.15c.4-.26,0-.91-.38-.65Q1563.44,565.17,1550,573a.38.38,0,0,0,.38.65Z" transform="translate(-1155.66 -471.84)"/><path class="cls-2" d="M1558.33,573.12c1.78-1.8,4.27-2.82,6.43-4.08q2.79-1.62,5.5-3.38c3.64-2.37,7.15-4.92,10.54-7.61.38-.3-.15-.83-.53-.53a132.93,132.93,0,0,1-11.94,8.48c-3.39,2.14-7.71,3.74-10.53,6.59a.38.38,0,0,0,.53.53Z" transform="translate(-1155.66 -471.84)"/><path class="cls-2" d="M1565,572.8c6.85-3.4,13.14-8.35,19.5-12.56.41-.26,0-.91-.37-.65-6.37,4.21-12.66,9.16-19.5,12.56-.44.21-.06.86.37.65Z" transform="translate(-1155.66 -471.84)"/><path class="cls-2" d="M1571.14,573.83a196.75,196.75,0,0,0,18.46-12.51c.26-.2.22-.73-.19-.7l-.61,0c-.48,0-.49.79,0,.75l.61,0-.19-.7a195.45,195.45,0,0,1-18.46,12.51.38.38,0,0,0,.38.65Z" transform="translate(-1155.66 -471.84)"/><path class="cls-2" d="M1577.83,574.64l17-10.91c.41-.26,0-.91-.38-.64l-17,10.9c-.4.26,0,.91.38.65Z" transform="translate(-1155.66 -471.84)"/><path class="cls-2" d="M1584.21,576.21c2.59-.55,4.71-2.3,6.85-3.77q4.15-2.84,8.2-5.83c.39-.28,0-.93-.38-.64q-3.66,2.7-7.4,5.29c-2.29,1.57-4.7,3.64-7.47,4.23-.47.1-.27.83.2.72Z" transform="translate(-1155.66 -471.84)"/><path class="cls-2" d="M1589.67,577.72a96.4,96.4,0,0,0,14.89-10.28c.37-.31-.16-.83-.53-.53a94.84,94.84,0,0,1-14.74,10.16.38.38,0,0,0,.38.65Z" transform="translate(-1155.66 -471.84)"/><path class="cls-2" d="M1595.32,579.29l8.7-6,4-2.71c.52-.36,1.1-.58,1.22-1.22a.37.37,0,0,0-.26-.46l-.2,0c-.19,0-.43,0-.46.26l0,.15c-.07.47.65.67.73.2,0,0-1.93.84-2.17,1-.55.33-1.06.72-1.58,1.08l-3.56,2.44-6.73,4.61c-.39.27,0,.92.38.65Z" transform="translate(-1155.66 -471.84)"/><path class="cls-2" d="M1601.55,581.13l11.23-7.85c.4-.28,0-.93-.38-.65l-11.23,7.85c-.39.28,0,.93.38.65Z" transform="translate(-1155.66 -471.84)"/><path class="cls-2" d="M1605.06,583c2.33,0,4.4-1.46,6.21-2.78s3.65-3.52,5.78-4.12a.37.37,0,0,0-.2-.72c-1.57.44-2.95,1.88-4.2,2.86-2.13,1.66-4.74,3.95-7.59,4a.38.38,0,0,0,0,.75Z" transform="translate(-1155.66 -471.84)"/><path class="cls-2" d="M1612,584.61l8.59-6.78c.38-.3-.15-.82-.53-.53l-8.59,6.78c-.38.3.16.83.53.53Z" transform="translate(-1155.66 -471.84)"/><path class="cls-2" d="M1615.63,587.14a36.74,36.74,0,0,0,8.86-5.41c.38-.3-.16-.83-.53-.53a35.72,35.72,0,0,1-8.71,5.29c-.44.19-.06.84.38.65Z" transform="translate(-1155.66 -471.84)"/><path class="cls-2" d="M1621.16,589.45l7.31-5.15c.4-.28,0-.93-.37-.65l-7.31,5.15c-.4.28,0,.93.37.65Z" transform="translate(-1155.66 -471.84)"/><path class="cls-2" d="M1625.06,592.15l6.68-5c.39-.28,0-.93-.37-.65l-6.69,5c-.38.29,0,.94.38.65Z" transform="translate(-1155.66 -471.84)"/><path class="cls-2" d="M1629.27,593.13c1,.14,1.83-.75,2.57-1.33l3.45-2.69c.38-.29-.15-.82-.53-.53l-2.41,1.88c-.78.6-2.06,2.06-3.08,1.92-.47-.06-.47.69,0,.75Z" transform="translate(-1155.66 -471.84)"/><path class="cls-2" d="M1633.77,595.55a16.76,16.76,0,0,0,3.84-2.91c.34-.35-.19-.88-.53-.53a16.26,16.26,0,0,1-3.69,2.8c-.42.23,0,.88.38.64Z" transform="translate(-1155.66 -471.84)"/><path class="cls-2" d="M1637,597.11a4.48,4.48,0,0,0,3.44-2.12c.25-.41-.39-.79-.65-.38a3.68,3.68,0,0,1-2.79,1.75c-.47,0-.48.79,0,.75Z" transform="translate(-1155.66 -471.84)"/><path class="cls-2" d="M1640.83,599.29l1.56-.33c.47-.1.27-.82-.2-.72l-1.56.33c-.48.1-.28.82.2.72Z" transform="translate(-1155.66 -471.84)"/><g class="cls-3"><path class="cls-2" d="M1240.34,516.67c2.44,6.62,7.9,11.79,14.08,15.2s13.08,5.26,19.94,6.9q21,5,42.34,7.94c-18,1.86-34.83,10.18-49.6,20.66s-27.8,23.18-41.4,35.14A369.16,369.16,0,0,1,1212,548.85a10.37,10.37,0,0,1-.09-4.73,10.53,10.53,0,0,1,3.22-4.34q11.46-10.86,22.94-21.68" transform="translate(-1155.66 -471.84)"/><path class="cls-2" d="M1239.85,516.8c4.77,12.28,17.31,18,29.24,21.16a386.45,386.45,0,0,0,47.48,9.23l.13-1c-37.36,4.08-64.62,32.4-91.36,55.94l.84.22a373.19,373.19,0,0,1-12.24-45.67c-.37-1.88-.74-3.75-1.08-5.63-.4-2.15-1.16-4.67-.52-6.82.6-2,2.36-3.42,3.81-4.8l4.3-4.07,17.93-16.93c.46-.44-.24-1.15-.71-.71L1218.31,536c-2.24,2.12-5.41,4.31-6.66,7.23s0,6.9.6,10a371.6,371.6,0,0,0,13,49.43.5.5,0,0,0,.83.22c26.5-23.34,53.6-51.6,90.65-55.65.51-.05.74-.9.13-1a430.57,430.57,0,0,1-44-8.35c-12.62-3.11-26.84-8.17-32-21.35-.23-.59-1.2-.33-1,.27Z" transform="translate(-1155.66 -471.84)"/></g><g class="cls-3"><path class="cls-2" d="M1621.57,509.17c.1,7.73-6.19,14-12.54,18.38-15.77,10.94-34.5,16.69-53.1,21.43a173.35,173.35,0,0,1,96.94,55.89,204.89,204.89,0,0,0,9.77-52.15,27.76,27.76,0,0,0-.68-9.67c-1.23-4-4.08-7.31-7-10.33a133.23,133.23,0,0,0-30-23.27" transform="translate(-1155.66 -471.84)"/><path class="cls-2" d="M1621.07,509.17c-.09,6.6-4.46,11.79-9.35,15.75a87.21,87.21,0,0,1-17.23,10.45c-12.3,5.94-25.5,9.76-38.69,13.13a.51.51,0,0,0,0,1,172.33,172.33,0,0,1,96.72,55.75.5.5,0,0,0,.83-.22,206.68,206.68,0,0,0,9.35-46.12c.6-7,1.55-14.38-2.47-20.59-3.72-5.76-9.4-10.6-14.6-15A136.56,136.56,0,0,0,1625.25,509a.5.5,0,0,0-.51.87,134.45,134.45,0,0,1,22.19,15.85c6.8,6,15,12.8,15.31,22.55.32,9.53-1.27,19.48-2.93,28.83a207.12,207.12,0,0,1-6.92,27.63l.83-.22a174.44,174.44,0,0,0-72.42-49.23,170.87,170.87,0,0,0-24.74-6.79v1c14.12-3.61,28.24-7.75,41.27-14.39,10-5.08,24.57-13,24.74-25.91a.5.5,0,0,0-1,0Z" transform="translate(-1155.66 -471.84)"/></g><g class="cls-4"><path class="cls-2" d="M1322.36,545.31c-13.83,1.41-27,6.6-39.31,13.12a188,188,0,0,0-52.62,41.45c7.38-1.52,14.2-4.93,20.9-8.36,13.76-7,27.51-14.4,42.35-18.72s31.1-5.46,45.59-.06a92,92,0,0,0-18.78-28.37" transform="translate(-1155.66 -471.84)"/><path class="cls-2" d="M1322.36,544.81c-18.42,2-35.61,10.15-51.15,19.88a190,190,0,0,0-41.13,34.84.5.5,0,0,0,.48.83c9-1.94,17.06-6.37,25.15-10.53A297.26,297.26,0,0,1,1282.87,577c17.81-7,37.82-10.52,56.27-3.82.46.17.71-.37.56-.73A94,94,0,0,0,1320.84,544c-.44-.46-1.15.24-.7.71a93.65,93.65,0,0,1,18.7,28.26l.56-.73c-29.2-10.62-58.93,3.72-84.6,16.92-7.89,4.05-15.77,8.33-24.5,10.22l.48.83A189.14,189.14,0,0,1,1271,566c15.56-9.85,32.86-18.21,51.37-20.2.63-.07.64-1.07,0-1Z" transform="translate(-1155.66 -471.84)"/></g><g class="cls-4"><path class="cls-2" d="M1547.66,549.13a127.88,127.88,0,0,0-9.74,28.11c4.17-3.24,9.81-3.7,15.09-3.8a146.49,146.49,0,0,1,33.24,2.95c22.44,4.79,43.06,15.71,62.73,27.54-3-6.34-8.13-11.4-13.44-16a168.93,168.93,0,0,0-88.22-39.3,217.84,217.84,0,0,0-8.58,24.57" transform="translate(-1155.66 -471.84)"/><path class="cls-2" d="M1547.22,548.87a133.2,133.2,0,0,0-9.78,28.24c-.09.38.36.84.73.57,3.88-2.84,8.55-3.52,13.25-3.7a146.38,146.38,0,0,1,15,.24,133.74,133.74,0,0,1,30.1,5.32c18.56,5.57,35.7,14.89,52.25,24.82.45.27.89-.26.68-.69-3.45-7-9.18-12.44-15.11-17.42a167.46,167.46,0,0,0-18.7-13.61,169.26,169.26,0,0,0-68.28-24.48.49.49,0,0,0-.48.37,226.64,226.64,0,0,0-8.58,24.56.5.5,0,0,0,1,.27c1.42-5,3-9.85,4.73-14.68.88-2.42,1.79-4.82,2.75-7.21.6-1.47.64-2.11,2.56-2.05a29.32,29.32,0,0,1,3.72.57,168.46,168.46,0,0,1,73.84,31.58c8.24,6.2,17.1,13.16,21.73,22.61l.68-.69c-13.33-8-27-15.56-41.54-21.16a140.77,140.77,0,0,0-47-9.37c-7.55-.19-16.56-.85-23,3.85l.73.57a131.29,131.29,0,0,1,9.69-28c.27-.58-.59-1.09-.87-.51Z" transform="translate(-1155.66 -471.84)"/></g><path class="cls-5" d="M1208.33,543.39c-2.54-1.22-6.48-2.55-9-3.77,3.07-.31,6.15-.49,9.23-.56-.06-3.67-.25-7.34-.59-11,1.4,1.85,5.54,7.87,5.54,7.87s7.6,0,10.45.27c-1.81,1.46-6,4.82-6,5.15s3,6.22,4.35,8.88c-2.25-1.06-7.81-3.69-8.39-3.64s-5.73,3.25-7.9,4.59c0,0,1.27-5.7,2.39-7.8" transform="translate(-1155.66 -471.84)"/><path class="cls-2" d="M1208.58,543c-3-1.37-6.07-2.4-9-3.77l-.25.93c3.07-.29,6.14-.48,9.23-.56a.51.51,0,0,0,.5-.5c-.07-3.67-.26-7.33-.59-11l-.93.25c1.24,1.67,2.43,3.39,3.62,5.1.53.76,1.29,2.53,2.16,3s2.84.06,3.77.08c2.29,0,4.59,0,6.87.24l-.35-.85c-1.52,1.22-3,2.44-4.53,3.71-.59.51-1.6,1.09-1.65,1.93s1,2.39,1.42,3.13c1,2,2,3.91,3,5.86l.69-.69c-1.78-.84-3.56-1.67-5.36-2.47-.86-.38-2.29-1.29-3.28-1.23s-2,1-2.82,1.43c-1.79,1.05-3.56,2.14-5.33,3.22l.74.57a35.05,35.05,0,0,1,2.33-7.67c.29-.58-.58-1.09-.86-.51a35.71,35.71,0,0,0-2.44,7.91.51.51,0,0,0,.74.57q2-1.25,4-2.46c.93-.55,2.45-1.88,3.55-2s2.68,1,3.64,1.41c1.53.69,3,1.4,4.54,2.11a.51.51,0,0,0,.69-.69q-1.15-2.22-2.28-4.46c-.48-.95-2-2.95-2-4,0-.17.1,0,.45-.44a11.59,11.59,0,0,1,1.5-1.29c1.29-1.08,2.6-2.13,3.91-3.18.37-.3,0-.83-.36-.86-2-.17-4-.2-6-.23-1.22,0-3.24.37-4.41,0,.66.23.12-.1-.17-.57-.51-.83-1.12-1.62-1.68-2.43-1.09-1.55-2.17-3.11-3.3-4.62-.26-.35-1-.3-.93.25.13,1.52.26,3,.35,4.57s.54,3.58.21,5.05-2.32,1-3.63,1c-1.69.09-3.38.23-5.07.39-.44,0-.75.7-.25.93,3,1.38,6.07,2.4,9,3.78.58.27,1.09-.6.5-.87Z" transform="translate(-1155.66 -471.84)"/><path class="cls-5" d="M1650,595c2-2,4.52-5.3,6.5-7.31-.7,3-1.53,6-2.46,8.9,3.48,1.14,7,2.15,10.58,3-2.2.73-9.24,2.69-9.24,2.69s-2.47,7.19-3.65,9.8c-.79-2.19-2.61-7.23-2.91-7.4s-6.84.8-9.8,1.23c1.73-1.77,6-6.18,6.16-6.75s-1.22-6.47-1.77-8.95c0,0,5,3,6.59,4.78" transform="translate(-1155.66 -471.84)"/><path class="cls-2" d="M1650.33,595.35c2.27-2.36,4.24-5,6.51-7.32l-.84-.49q-1.08,4.5-2.47,8.91a.52.52,0,0,0,.35.62q5.25,1.7,10.59,3v-1c-2,.64-4,1.2-6,1.78-.87.24-2.81.37-3.47,1s-.91,2.47-1.22,3.33c-.79,2.2-1.57,4.42-2.51,6.57l.91.12c-.69-1.92-1.37-3.85-2.13-5.74-.26-.65-.49-1.7-1.17-2-.92-.42-3,.26-4,.39-2,.26-4,.56-6,.85l.48.84c1.37-1.41,2.75-2.82,4.08-4.27.64-.69,2-1.72,2.21-2.71s-.28-2.28-.46-3.13c-.4-2-.86-4.06-1.31-6.09l-.74.57a34.33,34.33,0,0,1,6.5,4.71.5.5,0,0,0,.7-.71,35.68,35.68,0,0,0-6.69-4.87.51.51,0,0,0-.74.57q.52,2.31,1,4.62c.21,1,1,3.07.75,4.07s-1.9,2.22-2.56,2.92c-1.14,1.22-2.3,2.41-3.46,3.61a.5.5,0,0,0,.48.83l4.65-.66c1-.13,3.53-.93,4.51-.55.73.29,1.09,2,1.4,2.85.53,1.39,1,2.79,1.54,4.18.13.36.72.55.91.12.74-1.69,1.38-3.42,2-5.15.47-1.31.8-3.54,1.65-4.66-.38.5,0,.08.64,0a25.87,25.87,0,0,0,2.57-.73c1.91-.54,3.82-1.08,5.72-1.69a.51.51,0,0,0,0-1q-5.35-1.3-10.59-3l.35.62c.92-3,1.75-5.91,2.47-8.91a.51.51,0,0,0-.84-.49c-2.26,2.36-4.24,5-6.5,7.32-.45.46.26,1.17.7.71Z" transform="translate(-1155.66 -471.84)"/><path class="cls-5" d="M1221.81,535.38c1-1.06,2.38-2.79,3.42-3.85-.37,1.58-.8,3.14-1.3,4.68,1.84.6,3.69,1.13,5.57,1.58-1.16.39-4.86,1.42-4.86,1.42s-1.3,3.77-1.92,5.14a34.9,34.9,0,0,0-1.53-3.88c-.14-.09-3.59.42-5.14.64a41.05,41.05,0,0,0,3.23-3.54c.06-.26-.64-3.41-.93-4.71a24,24,0,0,1,3.46,2.52" transform="translate(-1155.66 -471.84)"/><path class="cls-2" d="M1222.17,535.73c1.17-1.25,2.24-2.6,3.41-3.84l-.83-.49c-.39,1.58-.82,3.13-1.3,4.68a.51.51,0,0,0,.35.61q2.76.88,5.56,1.59v-1c-1.36.44-3.92.6-5,1.5-.31.26-.42,1-.54,1.29-.47,1.34-1,2.69-1.51,4l.91.12c-.37-1-.8-3.67-1.87-4.24s-4.37.5-5.42.65l.49.84c.95-1,3-2.42,3.36-3.77s-.64-3.68-.93-5l-.73.56a19.75,19.75,0,0,1,3.36,2.44c.46.45,1.17-.26.71-.71a21.26,21.26,0,0,0-3.57-2.59.5.5,0,0,0-.73.56c.26,1.17,1.15,3.28.83,4.43s-2.18,2.48-3,3.34a.5.5,0,0,0,.49.83c1.24-.18,3.61-1,4.77-.62.36.12-.49-.52,0,.14a4.72,4.72,0,0,1,.42,1c.3.77.58,1.56.86,2.34.13.35.73.55.91.12.65-1.51.95-4,1.95-5.2-.44.56,1.24-.16,1.67-.28,1-.28,1.91-.55,2.86-.85a.51.51,0,0,0,0-1c-1.87-.47-3.72-1-5.56-1.58l.35.61c.48-1.54.91-3.1,1.29-4.67a.5.5,0,0,0-.83-.49c-1.18,1.25-2.24,2.6-3.42,3.84-.44.47.26,1.18.71.71Z" transform="translate(-1155.66 -471.84)"/><path class="cls-2" d="M1246.31,563.18a16.49,16.49,0,0,0,1.39-9.39c-.15-1.08-1.79-.62-1.64.45a14.36,14.36,0,0,1-1.22,8.09c-.46,1,1,1.85,1.47.85Z" transform="translate(-1155.66 -471.84)"/><path class="cls-2" d="M1247.69,541c-2.92,2.51-3.37,6.64-2.27,10.18,1,3.1,3.91,6.82,7.54,5.12,3.47-1.62,3.51-6.11,2.2-9.14a27.56,27.56,0,0,0-4.25-6.19l-6.34-7.7c-.7-.85-1.88.36-1.21,1.2l7.31,9.2,3.65,4.6c.79,1,1.59,2.2,2.88,2.59a3.47,3.47,0,0,0,4.06-2.28c1-2.42-.56-4.79-1.94-6.67l-.3,1.16c4-1.77,6.35-9.48,1.24-11.59-2.06-.85-4.22.55-5,2.47-1.17,2.78-.1,6.29,1.54,8.65a11,11,0,0,0,7.19,4.72c2.83.36,4.24-1.46,5.12-3.93a14.87,14.87,0,0,0-4.62-16.23.88.88,0,0,0-1-.13c-3.39,1.87-.45,5.5,2.43,5.65,3.32.16,6.32-1.19,8.93,1.8,1.16,1.33,1.89,3.43.67,5a2.84,2.84,0,0,1-4.29.37c-.75-.8-2,.4-1.2,1.2,3,3.28,8.17.1,7.79-4a7.2,7.2,0,0,0-4.11-5.56,8.62,8.62,0,0,0-3.31-.85,11.11,11.11,0,0,0-1.82.1,18.08,18.08,0,0,1-2.32.25c-1.47.18-2.11-.65-1.92-2.5l-1-.13a13.21,13.21,0,0,1,4.9,9.43,12.7,12.7,0,0,1-.49,4.5c-.42,1.38-1,3.17-2.75,3.41a6.27,6.27,0,0,1-3-.81c-3.26-1.61-6.39-5.93-5.29-9.76a2.32,2.32,0,0,1,4.5-.2,4.93,4.93,0,0,1,.18,2.87,5.37,5.37,0,0,1-3.15,3.81.85.85,0,0,0-.31,1.16,11.17,11.17,0,0,1,1.81,3c.39,1.21-.11,4.26-2.29,3.33-1.55-.66-3.27-3.82-4.28-5.09l-8.52-10.73-1.21,1.2c2.12,2.57,4.23,5.13,6.34,7.71s5.17,5.91,4.52,9.53c-.4,2.27-2.42,4.29-4.78,2.66a7.06,7.06,0,0,1-2.47-4c-.81-2.93-.47-6.14,1.92-8.2.83-.72-.38-1.91-1.2-1.2Z" transform="translate(-1155.66 -471.84)"/><path class="cls-2" d="M1276.93,538.63c2.62,0,2.62-3.66,2.57-5.56a16.9,16.9,0,0,0-3.27-9.54c-.53-.73-1.87-.33-1.56.65.76,2.39,1.6,4.73,2.57,7,.72,1.73,1.49,3.64,3,4.81,2.07,1.56,5.27,1,6-1.63a.85.85,0,0,0-1.64-.46c-.8,2.8-3.76.6-4.57-.64a17.22,17.22,0,0,1-1.31-2.74c-1-2.23-1.76-4.52-2.49-6.83l-1.55.65a15.66,15.66,0,0,1,2.66,5.68c.21.93,1.09,6.85-.49,6.87a.85.85,0,0,0,0,1.7Z" transform="translate(-1155.66 -471.84)"/><path class="cls-2" d="M1287.11,520a9.6,9.6,0,0,0-5.12,7.45c-.37,3,.78,7,3.89,8.22s5.62-2,6.13-4.84c.68-3.69-1-7.31-3.29-10.11-.6-.75-1.9.24-1.34,1a134,134,0,0,1,7.77,12.21c.59,1,1.2,2.1,1.73,3.18a12,12,0,0,1,.88,2q1,2.8-2.4,2.72c-1.89-1.38-1.38-5.67-1.34-7.71a28.06,28.06,0,0,0-.35-6.21c-.46-2.15-1.73-4.48-1.47-6.72.36-3,1.63-1.84,2.61-.31a30.92,30.92,0,0,1,1.64,2.91,33.2,33.2,0,0,1,2.46,6.86l1.64-.46-1.78-5.64c-.47-1.49-1.76-3.92-1.44-5.51.58-2.94,3.4.53,4.06,1.63.95,1.55,1.13,3.37,1.85,5s2.3,3.52,4.4,3.32a3,3,0,0,0,2.76-3.32c-.12-1.07-1.83-1.08-1.7,0q-2.23,2.22-3.22.45a4.13,4.13,0,0,1-.9-1.69c-.24-.66-.39-1.35-.6-2a11,11,0,0,0-1.5-3.18,10.23,10.23,0,0,0-4.89-3.58.85.85,0,0,0-.83.22,5.64,5.64,0,0,0-.82,5.22c.77,3.22,2,6.39,3,9.55a.85.85,0,0,0,1.64-.46c-.6-2.42-4.48-15.62-8.61-12.35-2.17,1.71-1.41,5.18-.79,7.41a25.49,25.49,0,0,1,1.2,6.55c0,2-.15,4,0,6s.71,5.36,3.19,6.09c2.15.63,3.9-1.34,4.07-3.35.25-3.12-2.43-6.52-3.91-9.07-2.12-3.66-4.42-7.2-6.87-10.64l-1.34,1a12.3,12.3,0,0,1,2.92,6.6,6.92,6.92,0,0,1-.61,3.62,3.84,3.84,0,0,1-1,1.47l-3.24-.14a4.8,4.8,0,0,1-1-1.28c-2.23-3.77-.27-8.82,3.45-10.72,1-.49.11-2-.86-1.47Z" transform="translate(-1155.66 -471.84)"/><path class="cls-2" d="M1270.9,511.61a1,1,0,0,0-2.07,0,.85.85,0,0,0,1.7,0v-.07l-.12.43,0-.05-.31.3-.21.08-.43-.12-.07-.05-.24-.6v.07a.88.88,0,0,0,.85.85.85.85,0,0,0,.85-.85Z" transform="translate(-1155.66 -471.84)"/><path class="cls-2" d="M1319.48,526.22a7.68,7.68,0,0,0,2.11-4.66c.1-1.09-1.6-1.08-1.7,0a5.84,5.84,0,0,1-1.61,3.46c-.76.79.44,2,1.2,1.2Z" transform="translate(-1155.66 -471.84)"/><path class="cls-2" d="M1326.66,509.43c-3.28-1.63-6,3.07-6.8,5.66-1,3.3-.55,7.8,2.44,10s6.51.32,7.76-2.72c1.8-4.38-1.06-9.66-3.34-13.3a.85.85,0,0,0-1.55.66q2.38,7.6,4.55,15.29a45,45,0,0,1,1.85,8.26,5.93,5.93,0,0,1,0,2.26l-.14,1-2.51.12c-.7-.69.06-2.86.41-3.61s.69-1.27,1-1.9a33.2,33.2,0,0,0,3.7-12.68c.27-3.16.7-8-2.54-9.82a.88.88,0,0,0-.86,0,2.41,2.41,0,0,0,.37,4.33c2.7,1.05,4.42-1.83,5.18-3.92h-1.64c.5,3,.94,6,1.51,9,.29,1.52.76,3.13,2.18,4a4.48,4.48,0,0,0,6.36-2.44c.37-1-1.27-1.47-1.64-.45a2.65,2.65,0,0,1-3.34,1.58c-1.47-.54-1.73-2-2-3.44-.52-2.89-1-5.8-1.45-8.69-.15-.91-1.39-.71-1.64,0a3,3,0,0,1-1.3,2q-.6,1.27-1.56.39c-.09.37.57,1.71.63,2.18a22.85,22.85,0,0,1,.06,4.82,31,31,0,0,1-2.57,10.33c-1,2.31-3.16,4.82-2.91,7.5a3.84,3.84,0,0,0,3,3.43c4.93.71,3.12-7.88,2.56-10.25-1.57-6.65-3.7-13.22-5.75-19.74l-1.56.65a26.44,26.44,0,0,1,3.17,6.66c.78,2.73.43,8.62-4,7.58-6.71-1.6-1.78-14.8,1.33-13.25,1,.48,1.84-1,.86-1.47Z" transform="translate(-1155.66 -471.84)"/><path class="cls-2" d="M1349.58,505.36c-8.3-1.12-9,13-4.25,17.09,2.54,2.14,5.24.76,6.43-2,1.87-4.35.84-9.32-.11-13.75-.21-1-1.65-.71-1.67.22-.06,2.69.7,17.54,6.41,14.43,2.35-1.28,3.58-5,3.94-7.42a13.71,13.71,0,0,0-1.46-8.41c-.37-.72-1.69-.42-1.58.43q1.65,13,2.2,26.07c0,1.09,1.75,1.09,1.7,0q-.56-13.08-2.2-26.07l-1.59.42c1.76,3.4,2.19,8.85-.52,12-3.14,3.64-4.13-2.24-4.54-4.1a30.14,30.14,0,0,1-.66-7.34l-1.67.23a38.23,38.23,0,0,1,1.08,7.36c0,2.35-1.09,10.36-5.23,6-3.19-3.33-2.51-14.31,3.72-13.47,1.08.14,1.07-1.56,0-1.7Z" transform="translate(-1155.66 -471.84)"/><path class="cls-2" d="M1360.66,515.22a16.38,16.38,0,0,1,.19-4.84,6.13,6.13,0,0,1,.67-2.25c.06-.65.45-.89,1.15-.72,1-.44,1.47,0,1.46,1.25a21.68,21.68,0,0,1,.87,8.47c-.06,1.49.22,3.14,1.64,4a2.52,2.52,0,0,0,3.28-.72c1.42-1.78,1.7-4.81,2.1-7a53.68,53.68,0,0,0,.9-8.1c.15-4.3.21-9.51-3.31-12.59a.86.86,0,0,0-1.2,0c-2.89,3.44-2.63,7.79-1.41,11.88,1.59,5.37,3.25,10.53,4,16.11l1.64-.45a48.68,48.68,0,0,1-.94-8c0-1.08-.31-2.83.09-3.84q2.58-2.31,3.81.33a8.45,8.45,0,0,1,.62,1.92,38.93,38.93,0,0,1,.53,6.55,4.19,4.19,0,0,0,1.12,3.09c2.19,1.88,4.43-.55,5.1-2.56a25.44,25.44,0,0,0,.37-12.56c-.18-1-1.66-.71-1.67.23,0,3-.72,17.86,5.48,15.6,1-.38.58-2-.45-1.64-3.43,1.25-3.35-12.09-3.33-14l-1.67.22a26.4,26.4,0,0,1,.39,7.73,18.21,18.21,0,0,1-.76,3.93c-.22,1.41-1.14,1.74-2.75,1a7.6,7.6,0,0,1-.14-1.71c-.16-3.16.17-7.9-2.55-10.18-2-1.71-5-1.1-5.74,1.57-.5,1.89-.19,4.21-.06,6.13a52.46,52.46,0,0,0,.91,6.59c.22,1.1,1.78.6,1.64-.45a71.19,71.19,0,0,0-2.93-12.81c-1.42-4.32-3.45-9.53-.1-13.52h-1.2c3.91,3.42,3,10.48,2.55,15.1a43,43,0,0,1-1.76,8.92l-.39,1-1.84.1c-.47-.41-.25-2.14-.21-2.7a22.72,22.72,0,0,0,0-3.78c-.21-2.11-1-8.33-4.26-7.73-3.74.69-3.76,7.65-3.52,10.35.09,1.09,1.79,1.1,1.7,0Z" transform="translate(-1155.66 -471.84)"/><path class="cls-2" d="M1394.11,505.16c-3.88-1-6.06,2.37-7.12,5.6-1.15,3.48-1.64,8.41,2.32,10.33,7.51,3.66,9.22-11.12,6.81-15.17-.4-.68-1.66-.45-1.58.43l2.07,22.42c.1,1.08,1.8,1.09,1.7,0l-2.07-22.42-1.59.43c1.72,2.87,1.32,10.84-2.15,12.68-4.16,2.19-5-4-4.37-6.53s2-7,5.53-6.13a.85.85,0,0,0,.45-1.64Z" transform="translate(-1155.66 -471.84)"/><path class="cls-2" d="M1396.29,515.27c.23,2.63,2.25,5.54,4.73,2.81,2.86-3.16,1.76-8.37.77-12a.85.85,0,0,0-1.67.23,34.7,34.7,0,0,0,1.48,10.38c.6,1.71,1.77,3.26,3.8,3,5.54-.72,3.77-10,3.27-13.54-.14-1-1.62-.68-1.67.22a47.75,47.75,0,0,0,.12,7.47,8.65,8.65,0,0,0,1,4,2.88,2.88,0,0,0,4.67.46c.86-1.06.79-2.53,1.44-3.68,1-1.83,3.42-2.44,4.73-4.06,1.5-1.86,2-4.65.13-6.47a3.72,3.72,0,0,0-5.68.67c-1.75,2.35-1.39,6.29-.67,8.94.66,2.43,2.18,4.71,4.76,5.3a4.74,4.74,0,0,0,5.58-2.47c.43-1-1-1.87-1.47-.86a3.2,3.2,0,0,1-4.22,1.54c-1.92-.71-2.8-2.82-3.17-4.68a11.78,11.78,0,0,1,0-5.63c.84-2.41,4.32-2.55,4.41.22.05,1.73-1.44,2.94-2.69,3.81a8.51,8.51,0,0,0-3.92,5,6.5,6.5,0,0,1-.4,1.12c-1.57.1-2.41-.37-2.54-1.43a9.48,9.48,0,0,1-.35-3.12,49.34,49.34,0,0,1,0-6.08l-1.67.23a43.35,43.35,0,0,1,.44,5.08,25,25,0,0,1,0,2.6l-.19,1.39q-.32,2.7-2.42,1.11c-1.91-.63-1.64-.47-2-2.15-.18-.78-.33-1.56-.47-2.35a42.57,42.57,0,0,1-.53-6l-1.67.23a20.41,20.41,0,0,1,1,6,9.1,9.1,0,0,1-.46,2.74,2,2,0,0,1-2.23,1.77,4.36,4.36,0,0,1-.44-1.76c-.1-1.08-1.8-1.09-1.7,0Z" transform="translate(-1155.66 -471.84)"/><path class="cls-2" d="M1382.73,490.68c-.72-1.83-3.46-.24-2.23,1.29a.85.85,0,0,0,1.2,0,.86.86,0,0,0,0-1.2c.07.08,0,.82,0,.73s0,0,0,0c-.21.13-.43,0-.64-.37a.87.87,0,0,0,1,.59.85.85,0,0,0,.6-1Z" transform="translate(-1155.66 -471.84)"/><path class="cls-2" d="M1440.92,505.08a88.36,88.36,0,0,1-2.92,10.44c-.28.83-.52,2.3-1.14,2.89-1.19,1.12-1.9.53-2.31-.54a8.4,8.4,0,0,1,.07-3.83c0-.91.38-1.15,1.26-.71q1.56-.33,1.23,1.35c.26,1.92.35,4,2,5.33a3.46,3.46,0,0,0,4.77-.23c.75-.79-.45-2-1.21-1.2l-2.21.32-1-1.17a7.22,7.22,0,0,1-.6-2.68,8.54,8.54,0,0,0-.44-2.4,3.08,3.08,0,0,0-2.61-2.08c-3.4-.16-3.31,5.6-2.88,7.75.25,1.24.55,3,2,3.25a3.26,3.26,0,0,0,2.81-1.46c1.39-1.72,2-4.32,2.62-6.38.86-2.7,1.57-5.43,2.17-8.2.23-1.07-1.4-1.52-1.64-.45Z" transform="translate(-1155.66 -471.84)"/><path class="cls-2" d="M1450.46,519.69l1.36-1.79a.85.85,0,1,0-1.46-.86l-1.37,1.8a.85.85,0,0,0,.31,1.16.87.87,0,0,0,1.16-.31Z" transform="translate(-1155.66 -471.84)"/><path class="cls-2" d="M1460.35,504.13c-4.3-.71-7.83,2.25-8.91,6.33-.83,3.15-.93,8.61,3.09,9.54s6.9-2.8,7.64-6.23c1.11-5.13-.9-11.16-1.8-16.21-.17-.95-1.71-.73-1.67.22q.32,6.86.92,13.68c.21,2.35-.08,6.22,1.59,8.2,1.39,1.64,3.49,1.08,4.8-.37,1.89-2.08,1.87-5.19,1.76-7.82l-.85.85c2.9,0,6.31-.56,7.71-3.46,1-2.11.53-4.88-1.8-5.85-2.59-1.08-5.35.6-6.44,3-1.44,3.15-.59,7.1.33,10.28a4.3,4.3,0,0,0,5.77,3.16,10.5,10.5,0,0,0,6.15-5.65,19.77,19.77,0,0,0,2.22-9c-.07-1.54-1.89-3.55-3.08-1.53-1.54,2.62,3.17,6.4,4.46,8.12,1.71,2.27,3.35,5.85,1,8.32-2.61,2.74-6.65,1-7.39-2.38-.24-1.07-1.88-.62-1.64.45a6,6,0,0,0,10,3.36c4.54-4.23.12-9.9-2.82-13.45a22.72,22.72,0,0,0-1.89-2.49c-.63,0-.43,1-.54,1.71a23.61,23.61,0,0,1-1,4.07c-1,2.91-3,6.3-6.28,7-4.54.92-5.06-8.73-3.7-11.38,1.62-3.16,6.87-2.21,5.07,1.58-1.11,2.33-3.92,2.56-6.16,2.54a.86.86,0,0,0-.85.85c.07,1.71.43,5-1,6.27-3.75,3.4-3.57-4.14-3.67-5.31q-.69-7.3-1-14.65l-1.67.23c.52,2.95,1.08,5.9,1.57,8.86.51,3.14.93,6.66-1,9.41-1,1.43-3.27,2.9-5,1.82-1.56-1-1.55-3.4-1.46-4.94.21-3.83,2.73-8.11,7.15-7.39,1.07.17,1.53-1.46.45-1.64Z" transform="translate(-1155.66 -471.84)"/><path class="cls-2" d="M1484.15,519a1.54,1.54,0,0,0,1.48,1.66c1.3.08,2.26-1.4,2.89-2.32a14.57,14.57,0,0,0,2.18-10.81c-.16-1-1.67-.72-1.67.22l0,7.77c0,1.79-.35,4.19.8,5.74a3.45,3.45,0,0,0,5.54-.26c.67-.87-.81-1.72-1.46-.86-2.07,2.72-3.16-1.73-3.17-3.24,0-.92,0-1.83,0-2.75l0-6.4-1.67.23a12.7,12.7,0,0,1-.31,5.94,12.38,12.38,0,0,1-1.1,2.6c-.36.63-1.81,1.9-1.8,2.48a.85.85,0,0,0-1.7,0Z" transform="translate(-1155.66 -471.84)"/><path class="cls-2" d="M1503,506.81a7.76,7.76,0,0,0-7.57,5.29c-1.19,3.11-1.54,7.93,1.26,10.32,2.53,2.17,5.59.93,7.14-1.68,2.16-3.65,2.22-8.4,1.23-12.4-.23-.91-1.78-.74-1.67.23.58,5.42,1.23,10.84,1.75,16.27.24,2.46.85,7.42-1.92,8.66-.68.74-1.15.48-1.41-.79-.76-.49-1-1-.62-1.66a3.71,3.71,0,0,1,.62-1.26,18.84,18.84,0,0,1,2.24-2.57c2.62-2.8,3.53-5.62,4-9.4a22.93,22.93,0,0,1,.65-4c.13-.43.4-1.69.77-1.89l2.55.34.07.92c.72,2.6-.22,6.29-.8,8.85l1.67.23c0-2,0-4,0-5.93,0-1,.06-2,.12-3,0-.56,0-4.56,2.24-2.33a9.68,9.68,0,0,1,.57,2.73,30.82,30.82,0,0,1,.37,3.45c.09,1.71-.26,3.48-.1,5.16s1.21,2.48,2.84,1.85c2-.76,3.28-2.87,3.9-4.76.35-1-1.29-1.49-1.63-.45a5.51,5.51,0,0,1-1.9,2.93,1.31,1.31,0,0,1-1.51.43c0-.33,0-.66,0-1-.32-1.87.11-4.07-.1-6s-.24-6-2.33-7c-5.59-2.74-4.28,12-4.25,13.94a.85.85,0,0,0,1.67.22c.77-3.36,1.79-8.36.52-11.72-.77-2-2.9-2.24-4.46-.91-2.46,2.1-2.38,6.16-2.77,9.07a11,11,0,0,1-2.41,6c-.92,1.07-2,2-2.85,3.14-1.34,1.71-2.45,4.37-.91,6.34s4.36.9,5.64-.92c2.09-3,1.37-7.23,1-10.61q-.77-7.22-1.55-14.41l-1.67.22a16.5,16.5,0,0,1,.08,8.14c-.66,2.6-2.77,6.86-5.88,3.89-1.86-1.78-1.52-5.26-.81-7.51.89-2.83,3.09-5,6.19-4.8,1.1.06,1.09-1.64,0-1.7Z" transform="translate(-1155.66 -471.84)"/><path class="cls-2" d="M1530,525.6l1.35-2.71c.49-1-1-1.84-1.47-.86l-1.35,2.71c-.49,1,1,1.84,1.47.86Z" transform="translate(-1155.66 -471.84)"/><path class="cls-2" d="M1540.22,511.83c-4.27-1.13-7.67,1.85-9.33,5.56-1.41,3.17-2,7.3,1.84,8.94,3.62,1.57,7.18-1,8.7-4.24,2.17-4.63,1.55-10.78,1.8-15.76a.85.85,0,0,0-1.67-.23,133.44,133.44,0,0,0-2.68,16.38c-.15,1.52-.54,3.45.61,4.7a2.24,2.24,0,0,0,3,.34c.89-.63,0-2.1-.85-1.47-1.63,1.16-1-5-1-5q.3-2.67.71-5.34c.48-3.08,1.08-6.14,1.77-9.18l-1.67-.23c-.14,2.95-.26,5.91-.44,8.86-.2,3.24-.63,7.21-3.64,9.16a4.28,4.28,0,0,1-4.6.14c-1.73-1.11-1.52-3.32-.95-5,1.12-3.39,3.81-7.08,7.87-6a.85.85,0,0,0,.45-1.64Z" transform="translate(-1155.66 -471.84)"/><path class="cls-2" d="M1549.07,504.6l-1.27,4.09c-.33,1.05,1.31,1.5,1.64.45l1.27-4.08a.85.85,0,0,0-1.64-.46Z" transform="translate(-1155.66 -471.84)"/><path class="cls-2" d="M1549.88,528.1l1.38-3.84-1,.6c5.31,2.1,12-3.06,9.37-8.9-1.14-2.5-3.87-2.47-5.78-.81-2.34,2-2.94,5.47-3.31,8.4-.32,2.54-.17,5.77,2.56,7s6.39-.53,8.66-2.21a12.91,12.91,0,0,0,5.13-7.54c.31-1.46.64-5.43-2-4.8s-1.92,4.14-.66,5.6c1.63,1.89,4.58,2.56,4.75,5.46a4.14,4.14,0,0,1-1.66,3.59c-1.53,1-5.73,1-5.62-1.85,0-1.1-1.66-1.09-1.7,0-.18,4.69,6.83,5.22,9.32,2.32a6,6,0,0,0,1.12-5.51,5.65,5.65,0,0,0-1.65-2.56c-1.19-1.11-3.48-1.89-3.89-3.61l.54-.63a7.53,7.53,0,0,1-.24,1.89,9.77,9.77,0,0,1-1,2.43,12.36,12.36,0,0,1-3.61,4,11.42,11.42,0,0,1-4.5,2c-3.28.56-4.18-2.13-4-4.72a20.92,20.92,0,0,1,.88-4.63,8.66,8.66,0,0,1,.87-2c1-1.55,1.42-2,3.08-1.19s1.69,1.53,1.22,3.28a5.14,5.14,0,0,1-1.73,2.69,5.51,5.51,0,0,1-5.76.7.86.86,0,0,0-1,.59l-1.38,3.84c-.37,1,1.27,1.47,1.64.45Z" transform="translate(-1155.66 -471.84)"/><path class="cls-2" d="M1566.86,532.54c2,2,4.78-1.35,5.91-2.84a15.69,15.69,0,0,0,3.12-9.33c0-1.12-1.6-1.08-1.7,0a89.6,89.6,0,0,1-5.63,24c-.4,1,1.24,1.46,1.63.45a90.51,90.51,0,0,0,5.7-24.43h-1.7a13.76,13.76,0,0,1-1.52,6.32c-.36.7-3.61,5.63-4.61,4.65a.85.85,0,0,0-1.2,1.2Z" transform="translate(-1155.66 -471.84)"/><path class="cls-2" d="M1575.23,527.23a18.31,18.31,0,0,1,2.09-3.87c1.57-2.16,3.31.13,3.65,1.94.56,2.88-1.35,4.73-2,7.34s1.51,5.71,4.34,4.46c1-.45.13-1.91-.86-1.47-2.06.91-1.82-2.52-1.62-3.25a15.22,15.22,0,0,1,1-2.2,9.61,9.61,0,0,0,.86-2.87,7.94,7.94,0,0,0-1.79-5.93c-3.35-3.68-6.37,2.87-7.39,5.39-.4,1,1.24,1.46,1.64.46Z" transform="translate(-1155.66 -471.84)"/><path class="cls-2" d="M1593.25,525.37c-2.79-1.9-6.44-.77-8.43,1.77a12,12,0,0,0-2.13,5.87c-.23,1.7-.63,4,.32,5.59,1.79,3,6,1.72,8-.19,3.47-3.23,3.6-8.25,3.57-12.65a.85.85,0,0,0-1.67-.23c-.62,2.52-1.24,5-1.84,7.56-.43,1.79-1,3.84-.16,5.61a3.35,3.35,0,0,0,5.33,1.24.85.85,0,0,0-1.2-1.2c-1.4.64-2.32.22-2.75-1.24a6.25,6.25,0,0,1,.13-2.72c.16-.87.41-1.72.61-2.57l1.52-6.23-1.67-.22c0,2.68.07,5.48-.87,8a8.8,8.8,0,0,1-2.2,3.42c-1,.91-3.92,2.53-5.1.86-1.42-2-.36-6.2.51-8.24,1.17-2.73,4.33-4.92,7.15-3,.91.61,1.76-.86.86-1.47Z" transform="translate(-1155.66 -471.84)"/><path class="cls-2" d="M1604.92,529.12c-2.9-.7-5.15,1-6.57,3.41s-3,5.91-2.31,8.79a4.43,4.43,0,0,0,5.08,3.52c3.09-.56,4.54-3.47,5.57-6.12l-1.25.51c4.29,2,11.19-1.26,8.92-6.74a3.68,3.68,0,0,0-4.75-2c-3.16,1.14-4.62,5-5.37,8-.67,2.67-1.5,7.05.37,9.47,1.61,2.09,4.91,1.71,7.11,1,4.82-1.66,12.21-7.74,8.64-13.42a.86.86,0,0,0-1-.39,3.24,3.24,0,0,0-2,3.81c.48,2.6,3.45,4,4.81,6.08a5.7,5.7,0,0,1,.66,5.79c-1.4,2.61-4.38,2.1-6.23.33-1.52-1.46-2.23-4.4-4.81-4.14-1.08.11-1.09,1.81,0,1.7,1.27-.13,3,3.06,3.89,3.89a7,7,0,0,0,3.2,1.7,5,5,0,0,0,5.24-2.34,6.82,6.82,0,0,0,.23-6.49,11.77,11.77,0,0,0-2.25-3.21c-.93-1-5.18-4.3-2.24-5.48l-1-.39c2.43,3.87-2.06,7.7-5,9.6a10.64,10.64,0,0,1-4.75,1.79c-3.29.28-3.89-1.95-3.82-4.6.09-3.21,1.08-9.4,4.53-10.86,3.63-1.53,3.66,3,2.19,4.64a5,5,0,0,1-5.72.9.87.87,0,0,0-1.25.51c-.71,1.84-1.65,4.05-3.69,4.76-3.14,1.09-4.11-2.48-3.6-4.7.67-2.9,2.91-8.49,6.71-7.57,1.06.26,1.51-1.38.45-1.64Z" transform="translate(-1155.66 -471.84)"/><path class="cls-2" d="M1491.54,488.33l-.07-.07.22.37q0,.4-.54.45l-.37-.21a.46.46,0,0,1,0-.49l.37-.22-.08,0a.85.85,0,1,0,.45,1.64,1.3,1.3,0,0,0,.89-1.17,1.24,1.24,0,0,0-.84-1.24,1.27,1.27,0,0,0-1.22,2.11c.72.82,1.91-.38,1.2-1.21Z" transform="translate(-1155.66 -471.84)"/></svg>