<svg id="Calque_1" data-name="Calque 1" xmlns="http://www.w3.org/2000/svg" viewBox="0 0 421.17 195.4"><defs><style>.cls-1{fill:#fff;}.cls-2{fill:#1d1d1b;}.cls-3{opacity:0.08;}.cls-4{opacity:0.16;}</style></defs><title>bandeaugraphique</title><path class="cls-1" d="M211,356.47c45.74-73.3,135-113.68,151.79-99.1,13.24,11.53,31.4,42.21,31.4,42.21-36.59,2.84-61.14,17.93-94.76,43.32-14.4,10.88-42.65,51.57-42.65,51.57-7.66-8.09-1.79-53.24-1.79-53.24Z" transform="translate(-209.94 -200.07)"/><path class="cls-2" d="M211.83,357c21.48-34.29,52.63-62.9,87.71-82.9,12.7-7.24,26.29-13.74,40.6-17.07a46.44,46.44,0,0,1,14.65-1.48c4.49.41,7.18,2.26,10.29,5.43,7.25,7.39,13.26,16,19,24.61,3.19,4.76,6.29,9.59,9.21,14.52l.87-1.51a133.94,133.94,0,0,0-40.7,9.59c-13.25,5.49-25.51,13-37.25,21.23-9.95,6.93-19.76,13.81-27.93,22.82-7.27,8-13.93,16.6-20.43,25.25-4.07,5.43-8.09,10.92-12,16.5l1.57-.21c-2-2.21-2.51-5.75-2.92-8.59a89.52,89.52,0,0,1-.72-13.1c0-8.44.64-16.89,1.51-25.29.2-1.85.4-3.7.64-5.55a1,1,0,0,0-1.27-1L216.21,353.6l-5.51,1.91c-1.21.42-.69,2.35.53,1.93L249.7,344.1l5.51-1.91-1.26-1c-.71,5.41-1.19,10.86-1.57,16.31-.65,9.24-1.14,18.75.18,27.95.47,3.31,1.15,7.12,3.47,9.69a1,1,0,0,0,1.57-.21,449.42,449.42,0,0,1,29.1-38,131.56,131.56,0,0,1,9.67-10.23c4.67-4.34,10.06-7.95,15.21-11.67,11.71-8.44,23.83-16.45,36.92-22.58a132.06,132.06,0,0,1,45.65-11.95,1,1,0,0,0,.86-1.5c-7.31-12.35-15.37-24.58-24.76-35.44-3.37-3.89-6.86-8.27-12.05-9.57-4.3-1.07-8.89-.7-13.22,0-13.94,2.13-27.39,8.15-39.77,14.67a256.15,256.15,0,0,0-47.33,32.42A242,242,0,0,0,210.1,356C209.41,357.06,211.14,358.07,211.83,357Z" transform="translate(-209.94 -200.07)"/><path class="cls-1" d="M630.09,350.33C586.7,278.2,500.84,246.82,480.27,255.54c-12.45,5.28-22.4,45.57-22.4,45.57,52.42,4.06,77.58,23.65,127.87,86.73,0,0,1.81-24,2.56-31.42a35.35,35.35,0,0,0-.95-12.91Z" transform="translate(-209.94 -200.07)"/><path class="cls-2" d="M631,349.82c-21.41-35.42-54.24-63.87-91.37-81.91-13-6.34-27-11.82-41.38-14a46.45,46.45,0,0,0-14.12-.41c-5.06.78-8.49,3.66-11.42,7.78-5.19,7.29-8.42,16.07-11.27,24.48-1.68,5-3.23,10-4.49,15.09a1,1,0,0,0,1,1.27c18,1.41,35.75,5.07,51.81,13.53,17.52,9.21,32.11,23,45.42,37.48,10.48,11.37,20.29,23.35,29.93,35.43.59.74,1.65.06,1.71-.71q.75-9.93,1.56-19.87c.65-8.06,2.42-16.83,0-24.73l-1.23,1.23,37.32,6,5.43.86c1.26.2,1.8-1.72.53-1.93L593,343.41l-5.43-.87a1,1,0,0,0-1.23,1.23c2.39,7.85.52,16.76-.13,24.78q-.78,9.65-1.51,19.29l1.7-.71c-15.77-19.77-32-39.8-51.26-56.29-13.53-11.56-28.83-20.64-46-25.51a160.93,160.93,0,0,0-31.29-5.22l1,1.26c2.84-11.49,6.62-23.21,12.23-33.66,2.57-4.78,5.86-10.4,11.47-11.87,4.15-1.09,8.68-.82,12.9-.32,13.61,1.6,26.95,6.6,39.32,12.3a225.59,225.59,0,0,1,47.07,29.33,207.05,207.05,0,0,1,47.4,53.68A1,1,0,0,0,631,349.82Z" transform="translate(-209.94 -200.07)"/><path class="cls-1" d="M573.2,329.6c-35.86-41-79-61.52-159.69-61.52-67.46,0-105.26,37.48-125.15,55-5.22,4.59-7.92,8.61-8.78,7.55,0,0-10.65-34.48-13.64-49.66-2.5-12.65,1.08-12.88,1.08-12.88,11.73-13,67-67,152.13-67,80.67,0,160.25,43.47,163.55,67S573.2,329.6,573.2,329.6Z" transform="translate(-209.94 -200.07)"/><path class="cls-2" d="M573.9,328.9c-17-19.33-37.22-35.3-61-45.36-28.67-12.11-60.19-15.81-91.07-16.38-17.73-.33-35.25,1-52.41,5.7A162.14,162.14,0,0,0,330,289.65a209.82,209.82,0,0,0-28.48,20.54c-3.55,3-7,6.08-10.48,9.18-2,1.82-4.13,3.6-6.09,5.52-1.32,1.29-2.54,2.69-3.89,3.94a4.25,4.25,0,0,0-.68.62c-.34.73-.2.1.17.9a1.14,1.14,0,0,1-.09-.3c.08-1-.81-2.67-1.11-3.63q-1-3.42-2-6.84-2.79-9.4-5.41-18.86c-1.67-6.06-3.31-12.13-4.62-18.28-.74-3.45-1.57-7.17-1.12-10.72a7.49,7.49,0,0,1,.64-2.24c.1-.22.52-.52.38-.4.23-.19-.32.21,0,0s.51-.28.75-.47a11,11,0,0,0,1.13-1.23c.91-1,1.83-1.92,2.76-2.87,2.56-2.59,5.21-5.09,7.92-7.52a218.4,218.4,0,0,1,24.49-19,211.68,211.68,0,0,1,81.56-33.09c37.05-6.36,75.59-1.55,111.3,9.49a258.19,258.19,0,0,1,46.48,19.22c10.77,5.81,21.59,12.52,30.15,21.38a32.72,32.72,0,0,1,7.07,9.91c2.11,5.09,1.63,11.44,1.33,16.82-.76,13.69-3.86,27.28-7.65,40.42-.69,2.42-1.41,4.83-2.21,7.21-.41,1.22,1.52,1.75,1.93.53a219.42,219.42,0,0,0,7-26.68,148.15,148.15,0,0,0,3-22.49c.25-5.27.57-11.34-1.45-16.35-3.47-8.61-11.73-15.2-19-20.52-12-8.79-25.36-15.67-39-21.47-34.25-14.57-72-23-109.33-22.25a206.24,206.24,0,0,0-93.18,24.73,218,218,0,0,0-51.13,37.56q-1.51,1.52-3,3.08a10.82,10.82,0,0,0-1.13,1.22c-.14.2-.35.36-.5.55.09-.12.74-.44.23-.11-2.79,1.79-2.76,5.13-2.53,8.26.49,6.49,2.39,13,4,19.25,1.78,6.77,3.69,13.5,5.65,20.22q2.08,7.11,4.24,14.2a6.12,6.12,0,0,0,.81,2.26c1.43,1.49,3.48-1,4.38-1.87A298,298,0,0,1,307.34,308c22.38-18.12,48.25-31.28,76.75-36.34,18.57-3.3,37.63-2.93,56.38-1.67a253.43,253.43,0,0,1,48.67,7.61,161.84,161.84,0,0,1,69.92,38.76c4.7,4.44,9.16,9.14,13.43,14C573.34,331.28,574.75,329.86,573.9,328.9Z" transform="translate(-209.94 -200.07)"/><path class="cls-2" d="M282.09,330.53c13.36-6.8,26.71-13.66,40.56-19.44,15-6.23,30.8-11.73,47.05-13,8.15-.66,16.4-.17,24.18,2.5,1.22.41,1.74-1.52.53-1.93-14.38-4.93-30.27-2.79-44.66,1-16.26,4.26-31.81,11-46.91,18.28-7.31,3.53-14.53,7.24-21.76,10.93-1.15.58-.13,2.31,1,1.72Z" transform="translate(-209.94 -200.07)"/><path class="cls-2" d="M459.91,301.11c16.6-5.67,34.91-3,51.42,1.7,15.8,4.49,30.93,11.19,45.45,18.82,5,2.63,10,5.42,14.88,8.23a1,1,0,0,0,1-1.73c-26-14.88-54.54-29.26-84.89-31.85-9.54-.82-19.29-.21-28.41,2.9-1.21.42-.69,2.35.54,1.93Z" transform="translate(-209.94 -200.07)"/><path class="cls-2" d="M290.57,321.14a14,14,0,0,1,4.6.92c.45.17.65-.56.2-.73a14.89,14.89,0,0,0-4.8-.94.38.38,0,0,0,0,.75Z" transform="translate(-209.94 -200.07)"/><path class="cls-2" d="M293.38,319.24a15.68,15.68,0,0,1,4.89,1.4c.43.21.82-.44.38-.65a16.94,16.94,0,0,0-5.27-1.5c-.47-.05-.47.7,0,.75Z" transform="translate(-209.94 -200.07)"/><path class="cls-2" d="M295.47,316.77l5.95,2.47c.45.19.64-.54.2-.72l-5.95-2.47c-.45-.19-.64.54-.2.72Z" transform="translate(-209.94 -200.07)"/><path class="cls-2" d="M298.61,315.13a21,21,0,0,1,5.83,2.24.37.37,0,0,0,.38-.64,21.67,21.67,0,0,0-6-2.33c-.47-.1-.67.62-.2.73Z" transform="translate(-209.94 -200.07)"/><path class="cls-2" d="M301.15,312.77a19.87,19.87,0,0,1,7,3.07c.39.28.77-.37.38-.64a20.27,20.27,0,0,0-7.2-3.15c-.47-.11-.67.62-.2.72Z" transform="translate(-209.94 -200.07)"/><path class="cls-2" d="M303.43,311c1.58-.48,3.25.84,4.56,1.57l3.37,1.87c.42.24.8-.41.38-.64-1.65-.92-3.28-1.84-4.93-2.75-1.17-.64-2.25-1.18-3.58-.77-.46.14-.26.87.2.72Z" transform="translate(-209.94 -200.07)"/><path class="cls-2" d="M306.7,308.59c1.13-.73,3.62,1,4.63,1.52l3.4,1.7c.43.21.81-.43.38-.65-1.89-.94-3.78-1.9-5.68-2.83-1-.51-2-1.08-3.11-.39-.4.26,0,.91.38.65Z" transform="translate(-209.94 -200.07)"/><path class="cls-2" d="M308.33,306a33.21,33.21,0,0,1,6,2c.5.23,5.61,2.89,5.5,3.11.22-.43-.42-.81-.65-.38l-.07.12a.4.4,0,0,0,.14.52.52.52,0,0,0,.64.1.38.38,0,0,0,.26-.46c-.23-1.53-3.21-2.57-4.42-3.17a32.79,32.79,0,0,0-7.19-2.57c-.47-.11-.67.61-.2.72Z" transform="translate(-209.94 -200.07)"/><path class="cls-2" d="M311.14,303.77a31.6,31.6,0,0,1,12.18,5c.4.27.78-.38.38-.65A32.32,32.32,0,0,0,311.34,303c-.48-.08-.68.64-.2.73Z" transform="translate(-209.94 -200.07)"/><path class="cls-2" d="M315.61,300.71q6.3,3.62,12.42,7.52l.19-.7-.75.06c-.48,0-.49.78,0,.75l.75-.06a.37.37,0,0,0,.19-.69q-6.12-3.91-12.42-7.53a.38.38,0,0,0-.38.65Z" transform="translate(-209.94 -200.07)"/><path class="cls-2" d="M319.64,299.19c4.11.36,8.37,3.92,11.84,6a.38.38,0,0,0,.52-.51,1.33,1.33,0,0,0-1.39-.81.38.38,0,0,0,0,.75l.74.44.51-.52c-3.69-2.19-7.82-5.69-12.22-6.08-.48,0-.48.71,0,.75Z" transform="translate(-209.94 -200.07)"/><path class="cls-2" d="M322.63,295.39a92.86,92.86,0,0,1,13.41,9c.37.3.9-.23.53-.53A94.24,94.24,0,0,0,323,294.74c-.42-.23-.8.42-.38.65Z" transform="translate(-209.94 -200.07)"/><path class="cls-2" d="M327.39,293.79c2.45.93,4.52,3,6.56,4.65l5.51,4.29c.37.3.91-.23.53-.53l-7-5.44c-1.72-1.34-3.37-2.92-5.43-3.69-.45-.17-.65.56-.2.72Z" transform="translate(-209.94 -200.07)"/><path class="cls-2" d="M331.05,290.43q7.4,5,14.4,10.47c.37.3.91-.23.53-.53q-7.08-5.56-14.55-10.58c-.4-.27-.78.38-.38.64Z" transform="translate(-209.94 -200.07)"/><path class="cls-2" d="M335.55,289a151.83,151.83,0,0,1,15.61,10.11c.39.29.76-.36.38-.65a153.44,153.44,0,0,0-15.61-10.1c-.42-.24-.8.41-.38.64Z" transform="translate(-209.94 -200.07)"/><path class="cls-2" d="M339.15,286.1l17.6,12.07c.4.27.78-.38.38-.65l-17.6-12.06c-.4-.28-.78.37-.38.64Z" transform="translate(-209.94 -200.07)"/><path class="cls-2" d="M344.55,284.71a94.6,94.6,0,0,1,17.18,12.44c.35.32.88-.2.53-.53a95.48,95.48,0,0,0-17.33-12.56.38.38,0,0,0-.38.65Z" transform="translate(-209.94 -200.07)"/><path class="cls-2" d="M349,282c2.1.53,3.86,2,5.59,3.27s3.61,2.64,5.37,4c3.1,2.41,6.11,4.94,9,7.55.36.32.89-.21.53-.53q-4.78-4.26-9.84-8.17c-3.09-2.37-6.69-5.88-10.5-6.86a.38.38,0,0,0-.2.73Z" transform="translate(-209.94 -200.07)"/><path class="cls-2" d="M353.41,280.81c2.09,0,4.09,2.12,5.63,3.3l5.1,3.92,10.21,7.84c.38.29.75-.36.38-.65L363,286.17c-1.83-1.4-3.66-2.82-5.5-4.22-1.28-1-2.37-1.91-4-1.89a.38.38,0,0,0,0,.75Z" transform="translate(-209.94 -200.07)"/><path class="cls-2" d="M359.23,278.07c3.88,2,7.36,5.82,10.66,8.7s6.64,5.87,9.9,8.88c.35.33.88-.2.53-.53q-5.24-4.83-10.61-9.51c-3.16-2.73-6.39-6.24-10.1-8.18-.43-.23-.81.42-.38.64Z" transform="translate(-209.94 -200.07)"/><path class="cls-2" d="M365.85,277.05A197.52,197.52,0,0,1,386.91,297c.32.35.85-.18.53-.53a197.52,197.52,0,0,0-21.06-20c-.37-.3-.91.22-.53.53Z" transform="translate(-209.94 -200.07)"/><path class="cls-2" d="M370.29,275.16c2.22.08,4.72,3,6.27,4.43s3.18,3,4.7,4.55a115.75,115.75,0,0,1,8.28,9.56l.36-.62-.56-.37c-.28-.38-.93,0-.65.38s.37.54,1,.71a.38.38,0,0,0,.37-.63,113,113,0,0,0-10.13-11.41c-1.76-1.73-3.59-3.4-5.47-5-1.28-1.09-2.42-2.28-4.18-2.34a.38.38,0,0,0,0,.75Z" transform="translate(-209.94 -200.07)"/><path class="cls-2" d="M374.49,273.9a16,16,0,0,1,4.17,2.88c.35.33.88-.2.53-.53a16.52,16.52,0,0,0-4.32-3c-.43-.21-.81.43-.38.64Z" transform="translate(-209.94 -200.07)"/><path class="cls-2" d="M467,278.3l5.49-4.54c.38-.3-.16-.83-.53-.53l-5.49,4.54c-.38.31.16.84.53.53Z" transform="translate(-209.94 -200.07)"/><path class="cls-2" d="M465,284.8q6.15-4.94,12-10.21c.36-.32-.17-.85-.53-.53q-5.85,5.28-12,10.21c-.38.3.16.83.53.53Z" transform="translate(-209.94 -200.07)"/><path class="cls-2" d="M462.34,290.2a169.53,169.53,0,0,1,18.62-14c.4-.26,0-.91-.38-.64a171,171,0,0,0-18.77,14.14c-.36.32.17.85.53.53Z" transform="translate(-209.94 -200.07)"/><path class="cls-2" d="M461.26,295.29c3-3.93,7.74-6.54,11.77-9.35l11.86-8.3c.32-.23.14-.84-.29-.68l-.87.31c-.45.16-.25.89.2.72l.87-.31-.29-.69-13.45,9.41c-3.66,2.56-7.68,4.92-10.45,8.51-.29.38.36.75.65.38Z" transform="translate(-209.94 -200.07)"/><path class="cls-2" d="M460.5,298c1.16,1.23,3.24-.75,4.26-1.36q4.64-2.76,9.25-5.56,9.23-5.58,18.4-11.28c.41-.25,0-.9-.38-.65q-7.5,4.66-15,9.25l-7.14,4.31c-1,.6-8.08,5.54-8.82,4.76-.33-.36-.86.17-.53.53Z" transform="translate(-209.94 -200.07)"/><path class="cls-2" d="M470.77,296.83q13.41-7.84,26.53-16.15c.41-.26,0-.91-.38-.65q-13.12,8.31-26.53,16.15a.38.38,0,0,0,.38.65Z" transform="translate(-209.94 -200.07)"/><path class="cls-2" d="M478.69,296.28c1.78-1.79,4.27-2.81,6.43-4.07,1.86-1.09,3.7-2.22,5.5-3.39,3.64-2.36,7.15-4.91,10.55-7.61.38-.3-.16-.82-.53-.53a135.22,135.22,0,0,1-11.95,8.49c-3.39,2.13-7.71,3.73-10.53,6.58-.34.35.19.88.53.53Z" transform="translate(-209.94 -200.07)"/><path class="cls-2" d="M485.35,296c6.84-3.39,13.13-8.34,19.5-12.55.4-.27,0-.92-.38-.65-6.37,4.21-12.66,9.16-19.5,12.55-.43.22-.05.86.38.65Z" transform="translate(-209.94 -200.07)"/><path class="cls-2" d="M491.5,297A195.45,195.45,0,0,0,510,284.48c.26-.2.23-.72-.19-.69l-.61,0c-.48,0-.48.78,0,.75l.61,0-.19-.7a193.47,193.47,0,0,1-18.46,12.5c-.41.25,0,.9.38.65Z" transform="translate(-209.94 -200.07)"/><path class="cls-2" d="M498.19,297.81l17-10.91c.41-.26,0-.91-.37-.65l-17,10.91c-.4.26,0,.91.38.65Z" transform="translate(-209.94 -200.07)"/><path class="cls-2" d="M504.58,299.38c2.58-.56,4.71-2.31,6.85-3.77q4.16-2.83,8.2-5.83c.38-.28,0-.94-.38-.65-2.45,1.8-4.91,3.57-7.41,5.29-2.29,1.57-4.7,3.64-7.46,4.24-.48.1-.28.82.2.72Z" transform="translate(-209.94 -200.07)"/><path class="cls-2" d="M510,300.89a96.88,96.88,0,0,0,14.89-10.28c.37-.31-.17-.84-.53-.53a96,96,0,0,1-14.74,10.16c-.42.23-.05.88.38.65Z" transform="translate(-209.94 -200.07)"/><path class="cls-2" d="M515.68,302.45l8.7-6,4-2.71c.52-.36,1.1-.58,1.23-1.21a.39.39,0,0,0-.26-.47l-.21,0c-.18,0-.43.05-.46.26l0,.15c-.07.47.65.68.73.2,0,0-1.93.85-2.17,1-.54.33-1.06.73-1.58,1.09L522,297.2l-6.72,4.6c-.4.27,0,.92.37.65Z" transform="translate(-209.94 -200.07)"/><path class="cls-2" d="M521.91,304.3l11.24-7.86c.39-.27,0-.92-.38-.65l-11.23,7.86c-.4.27,0,.92.37.65Z" transform="translate(-209.94 -200.07)"/><path class="cls-2" d="M525.43,306.15c2.32,0,4.39-1.46,6.21-2.78s3.64-3.52,5.77-4.11a.38.38,0,0,0-.2-.73c-1.57.44-3,1.88-4.2,2.86-2.13,1.67-4.74,4-7.58,4a.38.38,0,0,0,0,.75Z" transform="translate(-209.94 -200.07)"/><path class="cls-2" d="M532.39,307.78,541,301c.38-.3-.15-.83-.53-.53l-8.59,6.78c-.37.3.16.82.53.53Z" transform="translate(-209.94 -200.07)"/><path class="cls-2" d="M536,310.3a36.57,36.57,0,0,0,8.87-5.4c.37-.31-.16-.84-.53-.53a35.74,35.74,0,0,1-8.72,5.28c-.44.19-.06.84.38.65Z" transform="translate(-209.94 -200.07)"/><path class="cls-2" d="M541.53,312.62l7.31-5.16c.39-.27,0-.92-.38-.64L541.15,312c-.39.27,0,.92.38.65Z" transform="translate(-209.94 -200.07)"/><path class="cls-2" d="M545.43,315.32l6.68-5c.38-.29,0-.94-.38-.65l-6.68,5c-.39.28,0,.93.38.65Z" transform="translate(-209.94 -200.07)"/><path class="cls-2" d="M549.64,316.3c1,.14,1.82-.76,2.56-1.34l3.45-2.68c.38-.3-.15-.83-.53-.53l-2.41,1.87c-.78.61-2.06,2.06-3.07,1.93-.48-.07-.47.69,0,.75Z" transform="translate(-209.94 -200.07)"/><path class="cls-2" d="M554.13,318.72A16.81,16.81,0,0,0,558,315.8a.38.38,0,0,0-.53-.53,15.77,15.77,0,0,1-3.69,2.8c-.42.24,0,.88.38.65Z" transform="translate(-209.94 -200.07)"/><path class="cls-2" d="M557.33,320.27a4.48,4.48,0,0,0,3.43-2.12c.26-.41-.39-.78-.65-.37a3.68,3.68,0,0,1-2.78,1.74c-.48,0-.48.8,0,.75Z" transform="translate(-209.94 -200.07)"/><path class="cls-2" d="M561.19,322.46l1.56-.33c.47-.1.27-.82-.2-.72l-1.56.32c-.47.1-.27.83.2.73Z" transform="translate(-209.94 -200.07)"/><g class="cls-3"><path class="cls-2" d="M294.62,243.57c2.45,6.62,7.91,11.79,14.08,15.2s13.08,5.26,19.95,6.9q21,5,42.33,7.94c-18,1.87-34.83,10.18-49.59,20.66S293.58,317.45,280,329.41a369.16,369.16,0,0,1-13.75-53.66,7.84,7.84,0,0,1,3.14-9.07q11.46-10.86,22.94-21.68" transform="translate(-209.94 -200.07)"/><path class="cls-2" d="M294.14,243.7c4.77,12.28,17.3,18,29.23,21.17a389,389,0,0,0,47.48,9.22l.13-1c-37.36,4.08-64.62,32.4-91.35,55.94l.83.22a373.19,373.19,0,0,1-12.24-45.67c-.37-1.88-.73-3.75-1.08-5.63-.39-2.15-1.16-4.66-.51-6.81.59-2,2.36-3.43,3.81-4.81l4.3-4.07,17.92-16.93c.47-.44-.24-1.15-.71-.71q-9.68,9.15-19.35,18.29c-2.25,2.12-5.41,4.31-6.67,7.23s0,6.9.6,9.95a371.2,371.2,0,0,0,13,49.43.5.5,0,0,0,.83.22c26.51-23.34,53.6-51.6,90.65-55.65.51-.05.75-.9.14-1a430.76,430.76,0,0,1-44.06-8.35c-12.61-3.11-26.84-8.17-32-21.35-.23-.59-1.2-.33-1,.27Z" transform="translate(-209.94 -200.07)"/></g><g class="cls-3"><path class="cls-2" d="M541.93,232.34c.1,7.73-6.19,14-12.54,18.37-15.77,10.94-34.5,16.7-53.1,21.44A173.33,173.33,0,0,1,573.23,328,204.38,204.38,0,0,0,583,275.89a27.82,27.82,0,0,0-.68-9.68c-1.23-4-4.08-7.31-7-10.33a133.69,133.69,0,0,0-30-23.27" transform="translate(-209.94 -200.07)"/><path class="cls-2" d="M541.43,232.34c-.08,6.59-4.46,11.78-9.35,15.75a88.1,88.1,0,0,1-17.22,10.45c-12.31,5.94-25.5,9.75-38.7,13.13a.5.5,0,0,0,0,1,173.55,173.55,0,0,1,79.06,38.27,170.53,170.53,0,0,1,17.66,17.49.51.51,0,0,0,.84-.22,207.48,207.48,0,0,0,9.35-46.12c.6-7,1.54-14.39-2.47-20.59-3.73-5.77-9.41-10.6-14.61-15a136.49,136.49,0,0,0-20.38-14.27.5.5,0,0,0-.51.86,134.51,134.51,0,0,1,22.19,15.86c6.81,6,15,12.8,15.31,22.54.32,9.53-1.26,19.48-2.93,28.84a206.59,206.59,0,0,1-6.92,27.62l.84-.22a174.53,174.53,0,0,0-72.43-49.23,170.49,170.49,0,0,0-24.74-6.78v1c14.12-3.61,28.25-7.74,41.28-14.38,10-5.08,24.56-13,24.73-25.91a.5.5,0,0,0-1,0Z" transform="translate(-209.94 -200.07)"/></g><g class="cls-4"><path class="cls-2" d="M376.64,272.21c-13.83,1.41-27,6.6-39.31,13.12a188.18,188.18,0,0,0-52.62,41.45c7.38-1.51,14.21-4.93,20.91-8.36,13.76-7.05,27.5-14.39,42.35-18.72s31.1-5.46,45.58-.06a91.84,91.84,0,0,0-18.78-28.37" transform="translate(-209.94 -200.07)"/><path class="cls-2" d="M376.64,271.71c-18.41,2-35.61,10.15-51.14,19.88a190.07,190.07,0,0,0-41.14,34.84.5.5,0,0,0,.49.83c9-1.94,17-6.37,25.15-10.53a296,296,0,0,1,27.16-12.79c17.8-7,37.81-10.52,56.26-3.81.46.16.72-.38.56-.74a94.13,94.13,0,0,0-18.85-28.47c-.45-.46-1.16.24-.71.71a93.38,93.38,0,0,1,18.7,28.27l.57-.74c-29.2-10.61-58.94,3.72-84.61,16.92-7.88,4.05-15.76,8.33-24.5,10.22l.49.83a189.09,189.09,0,0,1,40.2-34.22c15.56-9.84,32.86-18.21,51.37-20.2.63-.07.64-1.07,0-1Z" transform="translate(-209.94 -200.07)"/></g><g class="cls-4"><path class="cls-2" d="M468,272.29a127.75,127.75,0,0,0-9.73,28.12c4.16-3.24,9.8-3.71,15.08-3.81a145.93,145.93,0,0,1,33.24,3c22.44,4.78,43.07,15.71,62.73,27.53-3-6.34-8.12-11.39-13.43-16a169,169,0,0,0-88.23-39.3,219.84,219.84,0,0,0-8.58,24.57" transform="translate(-209.94 -200.07)"/><path class="cls-2" d="M467.59,272a132.29,132.29,0,0,0-9.79,28.24c-.08.38.36.84.74.56,3.88-2.84,8.54-3.51,13.24-3.69a149.55,149.55,0,0,1,15,.23,133.76,133.76,0,0,1,30.09,5.32c18.56,5.58,35.71,14.89,52.25,24.82.45.28.89-.25.68-.68-3.45-7-9.18-12.45-15.11-17.42A165,165,0,0,0,536,295.81a169,169,0,0,0-68.28-24.49c-.23,0-.4.18-.48.37a226.81,226.81,0,0,0-8.58,24.57.5.5,0,0,0,1,.26q2.12-7.41,4.73-14.68,1.31-3.63,2.75-7.21c.59-1.47.63-2.11,2.55-2a29.45,29.45,0,0,1,3.73.56,168.86,168.86,0,0,1,73.83,31.58c8.24,6.2,17.1,13.16,21.73,22.61l.68-.68c-13.33-8-27-15.57-41.53-21.16a140.58,140.58,0,0,0-47-9.37c-7.54-.2-16.56-.86-23,3.85l.74.56a131.46,131.46,0,0,1,9.68-28c.28-.58-.58-1.08-.86-.5Z" transform="translate(-209.94 -200.07)"/></g><path class="cls-2" d="M311.88,281.72a29.31,29.31,0,0,0,1.38-5.36c.16-.94-1.29-1.35-1.44-.4a30.17,30.17,0,0,1-1.39,5.36c-.33.91,1.12,1.3,1.45.4Z" transform="translate(-209.94 -200.07)"/><path class="cls-2" d="M313.62,255.35a18.82,18.82,0,0,0-3.05,15.57c.94,3.63,4,7.91,8.23,6,5.46-2.41,4.05-9.09,2.25-13.41a128.31,128.31,0,0,0-9.74-18.3c-.43-.69-1.67-.25-1.37.58a92.15,92.15,0,0,0,6.13,13.64q1.86,3.33,4,6.49a21.21,21.21,0,0,0,3.81,4.82c2.62,2.09,5.31.78,6.18-2.29a11.19,11.19,0,0,0-2.73-10.35v1.06a13.1,13.1,0,0,0,4.35-9.12c.05-2.31-.89-5.13-3.63-5.22-3-.1-4.65,3-4.57,5.62.12,3.61,2,7.43,3.83,10.48,1.5,2.55,3.64,5.74,6.85,6.17,3.49.47,4.91-2.95,5.65-5.72A38.06,38.06,0,0,0,341,248.7c-.24-3-1-6.08-3.73-7.8a.7.7,0,0,0-.75,0,2.13,2.13,0,0,0-.31,3.4,5.27,5.27,0,0,0,2.86,1,14.11,14.11,0,0,1,4.8,1.8,12.58,12.58,0,0,1,5.92,8.23c.45,2.77-1,4.53-3.72,5.11-1.7.37-4.48.63-5.29-1.41-.36-.89-1.81-.5-1.45.4,2,5,11.3,2.93,12-2,1-6.89-6.24-12.5-12.22-13.59-1.2-.22-2.17-1.88-1-.07a8.43,8.43,0,0,1,1.12,3.05,28.31,28.31,0,0,1,.22,7.3,34.16,34.16,0,0,1-1.39,7.77c-.46,1.45-1,3.29-2.77,3.73s-3.48-1.05-4.53-2.2a24.15,24.15,0,0,1-3.77-6.16c-1.07-2.32-2.58-5.59-2-8.2.54-2.36,3.77-4.13,4.92-.82a7.41,7.41,0,0,1-.11,3.88,11.86,11.86,0,0,1-3.62,6,.75.75,0,0,0,0,1.06c2.06,2.3,3.68,6.46,2.12,9.46-2.51,4.86-7.29-3.8-8.5-5.71a88.54,88.54,0,0,1-8.49-17.52L310,246c2.46,4,4.82,8,6.91,12.18s5.8,10.08,3.83,14.65c-1.21,2.81-4.5,4.19-6.82,1.65a10.59,10.59,0,0,1-2.24-5.5,17.52,17.52,0,0,1,3.21-12.88c.57-.78-.73-1.53-1.29-.75Z" transform="translate(-209.94 -200.07)"/><path class="cls-2" d="M351.66,257.56c3.81,1.84,5.39-2.93,5.76-5.83.68-5.19-1-10.29-3-15-.35-.8-1.56-.22-1.37.58a76.39,76.39,0,0,0,3.31,10.45c.91,2.27,1.83,5,3.93,6.4,3,2.11,8,.07,6.21-4-.38-.88-1.68-.12-1.29.76.32,1.71-.24,2.49-1.68,2.35a2.27,2.27,0,0,1-2.84-.75,6.9,6.9,0,0,1-1.26-1.63,30.61,30.61,0,0,1-2.12-4.84,75.91,75.91,0,0,1-2.81-9.18l-1.37.58a35,35,0,0,1,2.77,9.11,18.47,18.47,0,0,1,.15,4.27c-.13,1.38-.84,6.73-3.6,5.39-.86-.42-1.63.88-.76,1.3Z" transform="translate(-209.94 -200.07)"/><path class="cls-2" d="M368.06,233.15a15.4,15.4,0,0,0-3.74,11.21c.24,3.16,1.62,8,5.24,8.76s6.26-2.62,6.61-5.78c.53-4.91-2.54-10.37-5-14.4a.75.75,0,0,0-1.3.76,184.43,184.43,0,0,1,10.29,19.65c1.5,3.39,3.17,7.46,3,11.25-.06,1-.63,4.35-3.17,1.9-.61-.6-.94-2.47-1-3.24a17.35,17.35,0,0,1,.57-5.41c.69-3.16,1.51-6.19,1.4-9.44-.13-3.58-1.05-7.1-1-10.69,0-1.35.28-7.3,3.08-5.32.9.64,1.56,3.77,1.9,4.78a65.13,65.13,0,0,1,2.62,11.29l1.45-.4a53.91,53.91,0,0,1-2.7-15.19c0-.84,0-2.61.79-3.18,1.83-1.28,2.59,2.07,2.86,2.94.67,2.19,1.27,4.41,1.82,6.63.68,2.67,1.05,6.69,3.9,8a3.55,3.55,0,0,0,5.06-1.92.75.75,0,0,0-1.45-.4c-.54,1.8-2.88,1.28-3.82.31a7.81,7.81,0,0,1-1.53-3.52c-.63-2.45-1.2-4.91-1.89-7.35-.59-2.08-1.4-7.13-4.67-6.51-2.55.48-2.64,3.86-2.52,5.87a65.3,65.3,0,0,0,2.7,14.67.75.75,0,0,0,1.45-.4,65,65,0,0,0-3.08-12.61c-.64-1.77-1.51-5.53-4.12-5.19s-3.07,3.75-3.26,5.7c-.41,4.18.78,8.28.94,12.44s-1.31,7.73-1.84,11.68c-.36,2.65-.29,6.45,2.08,8.27a2.82,2.82,0,0,0,4.33-1.11c1.33-2.55.44-6.05-.28-8.64A71.62,71.62,0,0,0,378.31,246q-3.35-6.66-7.14-13.05l-1.3.76a37.48,37.48,0,0,1,4.35,9.5,9.19,9.19,0,0,1,.14,5.49c-.78,2.06-2.89,3.53-5,2.63-2.9-1.23-3.65-5.58-3.6-8.4a13.87,13.87,0,0,1,3.35-8.71c.62-.73-.43-1.79-1.06-1.06Z" transform="translate(-209.94 -200.07)"/><path class="cls-2" d="M349.62,224.25a1.51,1.51,0,0,0-.5,1.22.77.77,0,0,0,.55.72,1.4,1.4,0,0,0,1.36-2.32c-.74-.62-1.81.44-1.07,1.06.22.17,0-.08,0-.14s.38.05.13,0l.55.72c0-.21,0-.07.06-.16.72-.65-.34-1.71-1.06-1.06Z" transform="translate(-209.94 -200.07)"/><path class="cls-2" d="M410.44,246.41a4.39,4.39,0,0,0,3.42-4c.07-1-1.43-1-1.5,0A2.89,2.89,0,0,1,410,245c-.94.2-.54,1.64.4,1.44Z" transform="translate(-209.94 -200.07)"/><path class="cls-2" d="M421.44,224.7a15.83,15.83,0,0,0-8,10.73c-.74,3.65-.36,9.14,3.37,11.14s7.28-1.77,8.52-5.07c2-5.19,1.27-11.12-1-16.07-.38-.82-1.51-.2-1.37.58,1.83,10.29,3.67,20.65,3.61,31.13a14.44,14.44,0,0,1-.25,3.66q-.37,2.44-3.37.75a5,5,0,0,1-.07-3.42c.5-2.27,2-4.55,3.23-6.49,2.4-3.75,5.3-7.18,7.24-11.21,1.63-3.37,2.72-7.21,2-11-.33-1.77-2.21-5.19-4.46-3.41-2,1.62,0,4.11,1.85,4.57,2.9.7,5.77-.92,7.45-3.18l-1.37-.58c-.59,3.16-1.09,6.34-1.4,9.55-.23,2.45-.92,5.78.16,8.12,1.35,2.92,6.31,2.57,5.22-1.08a.75.75,0,0,0-1.44.4l-2.62-.56-.13-1.37c0-.58,0-1.17.05-1.75.06-1.41.17-2.82.31-4.23.3-2.92.76-5.8,1.3-8.68a.75.75,0,0,0-1.37-.58,6.13,6.13,0,0,1-3.43,2.39,5.55,5.55,0,0,1-2.33.1l-.16-1.55c1.26-.51.88,6.72.7,7.51-.9,4.06-3.23,7.59-5.57,10.94s-10.85,13.49-5.36,17.41a3.07,3.07,0,0,0,4.74-1.49c1.31-3,.6-7.44.42-10.59-.47-8.68-2-17.25-3.51-25.8l-1.37.58a20.14,20.14,0,0,1,1.51,12.61c-.75,3.49-4.78,10.13-8.45,5.08-4.33-5.95.46-14.86,6.07-17.88.85-.46.09-1.76-.76-1.3Z" transform="translate(-209.94 -200.07)"/><path class="cls-2" d="M450.35,228.17a20.9,20.9,0,0,0-8,9.76c-1.08,2.81-1.49,7,1.48,8.88s6.4-.11,7.94-2.71c2.39-4.07,2.27-9.88,2-14.4a.75.75,0,0,0-1.5,0c-.27,4.5-1,9.22-.75,13.73.11,2.47,1.75,5.12,4.55,4.27s4.77-4.25,5.8-6.77A38.65,38.65,0,0,0,464,230.27c.1-1-1.39-1-1.5,0l-3.69,34.08c-.1,1,1.4.95,1.5,0L464,230.27h-1.5c-.52,5-1.15,10.67-4.79,14.45-.93,1-.79.77-2.56.65-1.35.47-2,.13-2-1a3.65,3.65,0,0,1-.21-1.73c0-1.34.15-2.73.23-4.07l.52-8.84h-1.5a37.35,37.35,0,0,1-.49,10c-.57,2.88-3.29,8.35-7.16,5.86-2.87-1.86-1.25-6.49-.05-8.81a19.51,19.51,0,0,1,6.56-7.24c.79-.54,0-1.84-.76-1.3Z" transform="translate(-209.94 -200.07)"/><path class="cls-2" d="M462.63,241.41a49.25,49.25,0,0,1,2.26-7.61c.44-1.15,1.93-6.06,4.25-3.64.89.93.83,3.08.81,4.2-.11,5-2.25,9.61-1.21,14.63a.75.75,0,0,0,.72.55c5.25-.41,7.56-6.72,9.29-10.87a60.47,60.47,0,0,0,3.15-9.74c.48-2.05,1.86-5.87.75-7.9-.79-1.45-2.5-1.38-3.69-.5-1.8,1.33-2,3.87-2.25,5.91-.89,7.69-1.64,15.39-2.45,23.09-.09.84,1.29,1,1.47.2.56-2.67,4.32-18.56,8.32-16.64,2.68,1.3.19,8.51-.25,10.81s-1.61,5.18-1.21,7.44c.69,4,4.69-.11,5.75-1.58,2.73-3.79,3.54-8.61,4.24-13.11l-1.47-.2a59.74,59.74,0,0,1-1.48,9.68c-.55,2.31-1.69,4.9-.78,7.27,1,2.7,5.16,3.5,5.94.19.21-.94-1.23-1.34-1.45-.4l-2.88.12a2.74,2.74,0,0,1-.34-2.09,10.61,10.61,0,0,1,.38-2.46c.38-1.48.77-2.95,1.07-4.45a63.1,63.1,0,0,0,1-7.86c.06-.83-1.34-1-1.47-.2a54.8,54.8,0,0,1-1.48,7.16c-.66,2.21-1.82,5.66-3.86,7-1.21.82-1.82.53-1.53-1.06.11-.62.24-1.23.36-1.85l.88-4.62c.49-2.56,1.57-5.62,1.12-8.23-.61-3.45-4.21-4.27-6.29-1.54a27.66,27.66,0,0,0-3.36,7,59.9,59.9,0,0,0-2.7,9.2l1.48.2,1.53-14.43c.27-2.57.54-5.13.82-7.7a22,22,0,0,1,.4-3,6.75,6.75,0,0,1,.71-1.94c2.06-.46,2.75.11,2.08,1.73A57.64,57.64,0,0,1,477.81,237c-1.43,3.63-3.74,10.64-8.35,11l.72.55c-.85-4.13.61-8.09,1.11-12.16.3-2.41.56-6.39-1.77-8-5.08-3.57-7.78,10-8.34,12.62-.21.94,1.24,1.34,1.45.39Z" transform="translate(-209.94 -200.07)"/><path class="cls-2" d="M504.77,238.85a16.79,16.79,0,0,0-9.63,7.46c-1.55,2.62-3.32,7.28-.69,9.81,2.82,2.72,6.79-.2,8.57-2.64,2.81-3.83,3.54-8.71,4.06-13.31.1-.84-1.32-1-1.47-.2a310,310,0,0,1-7.26,30.35.75.75,0,0,0,1.45.4q4.38-15,7.25-30.35l-1.47-.2a35.65,35.65,0,0,1-1.83,8.78,14.2,14.2,0,0,1-2.86,4.78c-1.52,1.58-4.7,3.26-6,.29-1.17-2.68,1.07-6.56,2.68-8.6a15.17,15.17,0,0,1,7.59-5.12c.92-.28.53-1.73-.4-1.45Z" transform="translate(-209.94 -200.07)"/><path class="cls-2" d="M503.65,253.41c.3,2-1.2,4.17.84,5.71,1.67,1.25,3.81.67,5.28-.57,4.17-3.49,5-9.82,5.73-14.84.13-.92-1.2-1.36-1.45-.4a116.57,116.57,0,0,0-2.8,13.84c-.28,2.31,0,5.29,3,5.23s5.31-3,6.73-5.19a16.88,16.88,0,0,0,2.66-9.9.75.75,0,0,0-1.47-.2c-1.21,4.25-2.63,8.5-3.62,12.8-.4,1.74-.33,3.79,1.74,4.33,2.37.61,4.55-1.27,5.65-3.16.82-1.4.91-2.93,2.83-2.91a10,10,0,0,0,4.57-.87,6.24,6.24,0,0,0,3.67-5.43,4.63,4.63,0,0,0-3.78-4.51c-5.72-.75-8.38,9.21-8.53,13.31-.24,6.68,7.36,10.49,12.14,5.41.67-.7-.39-1.76-1.06-1.06-2.33,2.48-6.14,2.69-8.35-.07-1.91-2.38-1.28-5.8-.48-8.51.7-2.38,2-5.79,4.32-7.06,3.1-1.7,5.07,2,3.73,4.43a5.81,5.81,0,0,1-4.34,2.73c-1.34.22-3.39-.37-4.51.64-1.48,1.31-1.24,3.65-3.06,4.92s-3.54.34-3.09-1.79c.29-1.39.78-2.77,1.16-4.14l2.45-8.66-1.47-.2a15.58,15.58,0,0,1-1.27,6.94c-.79,1.79-2.88,5.62-5,6.11-.74.17-3.12-1.15-3.26-1.94a7.53,7.53,0,0,1,.3-2.25c.21-1.39.46-2.78.73-4.17.53-2.77,1.16-5.53,1.85-8.27l-1.45-.4a36.43,36.43,0,0,1-2.36,9.89c-.79,1.75-2.15,4.45-4.19,4.86-3.08.61-2.13-3.21-2.41-5.05-.14-.95-1.58-.55-1.44.4Z" transform="translate(-209.94 -200.07)"/><path class="cls-2" d="M493.05,221.31a1.5,1.5,0,0,0,2.12,1.64.74.74,0,0,0,.38-.64l.06-1.81a.76.76,0,0,0-.55-.72,1.88,1.88,0,0,0-2.15.81c-.53.81.76,1.56,1.29.76a.36.36,0,0,1,.46-.12l-.55-.73-.06,1.81.37-.65.14,0a.05.05,0,0,1-.05,0,.44.44,0,0,1,0,.09c.17-.94-1.27-1.34-1.45-.39Z" transform="translate(-209.94 -200.07)"/></svg>