<svg id="Calque_1" data-name="Calque 1" xmlns="http://www.w3.org/2000/svg" viewBox="0 0 421.17 195.4"><defs><style>.cls-1{fill:#fff;}.cls-2{fill:#1d1d1b;}.cls-3{opacity:0.08;}.cls-4{opacity:0.16;}</style></defs><title>bandeauespaces</title><path class="cls-1" d="M211.38,390c45.74-73.3,135.05-113.68,151.79-99.11,13.23,11.53,31.39,42.22,31.39,42.22C358,336,333.42,351,299.81,376.43,285.4,387.31,257.15,428,257.15,428c-7.65-8.09-1.79-53.25-1.79-53.25Z" transform="translate(-210.36 -233.59)"/><path class="cls-2" d="M212.24,390.51c21.48-34.29,52.63-62.9,87.72-82.9,12.7-7.24,26.29-13.74,40.6-17.08a46.73,46.73,0,0,1,14.65-1.48c4.48.41,7.17,2.26,10.29,5.44,7.25,7.38,13.26,16,19,24.6,3.18,4.77,6.29,9.59,9.21,14.52l.86-1.5a133.87,133.87,0,0,0-40.69,9.58c-13.25,5.5-25.52,13.05-37.26,21.23-9.94,6.93-19.75,13.82-27.92,22.83-7.27,8-13.94,16.59-20.43,25.25-4.08,5.43-8.09,10.91-12,16.49l1.57-.2c-2-2.21-2.52-5.75-2.93-8.59a89.59,89.59,0,0,1-.71-13.1,251.61,251.61,0,0,1,1.51-25.29c.19-1.85.39-3.71.63-5.56a1,1,0,0,0-1.26-1l-38.47,13.33L211.11,389c-1.21.42-.69,2.35.54,1.93l38.46-13.34,5.52-1.91-1.27-1c-.7,5.42-1.19,10.87-1.57,16.32-.64,9.24-1.14,18.74.18,27.95.48,3.31,1.15,7.11,3.48,9.68a1,1,0,0,0,1.57-.2,447.7,447.7,0,0,1,29.09-38,130,130,0,0,1,9.68-10.23c4.66-4.34,10-7.95,15.21-11.67,11.7-8.44,23.82-16.46,36.92-22.59a132.05,132.05,0,0,1,45.64-11.94,1,1,0,0,0,.87-1.51c-7.32-12.34-15.38-24.58-24.77-35.44-3.36-3.88-6.86-8.27-12.05-9.56-4.3-1.07-8.88-.71-13.21-.05-13.94,2.14-27.39,8.16-39.77,14.67a256.77,256.77,0,0,0-47.34,32.43,242.2,242.2,0,0,0-47.77,54.85C209.83,390.59,211.56,391.59,212.24,390.51Z" transform="translate(-210.36 -233.59)"/><path class="cls-1" d="M630.51,383.85c-43.4-72.13-129.25-103.5-149.83-94.78-12.44,5.28-22.39,45.56-22.39,45.56,52.42,4.07,77.57,23.65,127.86,86.74,0,0,1.82-24,2.57-31.42a35.55,35.55,0,0,0-1-12.92Z" transform="translate(-210.36 -233.59)"/><path class="cls-2" d="M631.37,383.35C610,347.92,577.14,319.47,540,301.43c-13-6.33-27-11.81-41.38-14A46.53,46.53,0,0,0,484.5,287c-5.06.79-8.48,3.66-11.42,7.79-5.19,7.28-8.42,16.06-11.26,24.47-1.69,5-3.24,10-4.5,15.1a1,1,0,0,0,1,1.26c18,1.42,35.75,5.08,51.81,13.53,17.52,9.22,32.11,23,45.42,37.48C566,398,575.81,410,585.45,422.07c.59.75,1.64.07,1.7-.7q.75-9.94,1.56-19.87c.66-8.06,2.42-16.83,0-24.73L587.5,378,624.81,384l5.43.87c1.26.2,1.81-1.73.54-1.93l-37.32-6-5.43-.86a1,1,0,0,0-1.23,1.23c2.39,7.85.52,16.75-.14,24.77q-.78,9.65-1.51,19.3l1.71-.71c-15.77-19.77-32-39.81-51.26-56.29-13.54-11.56-28.83-20.64-46-25.52a160.83,160.83,0,0,0-31.28-5.22l1,1.27c2.85-11.49,6.63-23.22,12.24-33.66,2.57-4.78,5.86-10.41,11.46-11.88,4.16-1.09,8.68-.81,12.91-.31,13.61,1.6,26.94,6.59,39.31,12.3a225,225,0,0,1,47.07,29.32,207.13,207.13,0,0,1,47.41,53.69A1,1,0,0,0,631.37,383.35Z" transform="translate(-210.36 -233.59)"/><path class="cls-1" d="M573.61,363.13c-35.85-40.95-79-61.52-159.69-61.52-67.45,0-105.25,37.48-125.14,55-5.22,4.6-7.93,8.62-8.78,7.56,0,0-10.66-34.49-13.65-49.66-2.49-12.66,1.09-12.88,1.09-12.88,11.73-13,67-67,152.12-67,80.68,0,160.26,43.47,163.55,67S573.61,363.13,573.61,363.13Z" transform="translate(-210.36 -233.59)"/><path class="cls-2" d="M574.32,362.42c-17-19.33-37.23-35.3-61-45.35-28.66-12.12-60.18-15.82-91.06-16.38-17.73-.33-35.25,1-52.41,5.7a161.2,161.2,0,0,0-39.42,16.79,209,209,0,0,0-28.48,20.54c-3.55,3-7,6.08-10.49,9.17-2,1.82-4.13,3.61-6.08,5.53-1.32,1.29-2.55,2.68-3.9,3.94a4.63,4.63,0,0,0-.67.61c-.34.74-.21.11.17.9a.75.75,0,0,1-.09-.29c.07-1-.82-2.67-1.11-3.63q-1-3.42-2.05-6.85c-1.86-6.27-3.68-12.55-5.41-18.85-1.67-6.06-3.31-12.14-4.62-18.28-.74-3.45-1.57-7.18-1.13-10.72a7.56,7.56,0,0,1,.65-2.25c.1-.22.52-.52.38-.4.22-.19-.32.21,0,0s.51-.27.75-.47a13.16,13.16,0,0,0,1.13-1.22c.9-1,1.83-1.93,2.76-2.87,2.56-2.59,5.21-5.1,7.91-7.53a220.62,220.62,0,0,1,24.5-19,211.6,211.6,0,0,1,81.56-33.08c37.05-6.36,75.59-1.55,111.29,9.48A259,259,0,0,1,544,267.12c10.78,5.82,21.59,12.53,30.16,21.39a32.8,32.8,0,0,1,7.07,9.9c2.11,5.1,1.63,11.45,1.33,16.82-.77,13.69-3.86,27.29-7.65,40.43-.7,2.41-1.41,4.82-2.21,7.2-.41,1.23,1.52,1.75,1.93.54a221.72,221.72,0,0,0,7-26.68,148.16,148.16,0,0,0,3-22.49c.24-5.28.56-11.34-1.45-16.35-3.47-8.62-11.74-15.2-19-20.53-12-8.79-25.37-15.66-39-21.46-34.25-14.58-72-23-109.33-22.26a206.17,206.17,0,0,0-93.18,24.73,217.84,217.84,0,0,0-51.13,37.56q-1.53,1.53-3,3.09a11.93,11.93,0,0,0-1.14,1.22c-.13.2-.34.35-.49.54.09-.11.74-.44.22-.1-2.79,1.79-2.75,5.13-2.52,8.25.49,6.5,2.39,13,4,19.26,1.78,6.77,3.69,13.5,5.65,20.21q2.07,7.13,4.24,14.21a6,6,0,0,0,.81,2.26c1.43,1.49,3.48-1,4.38-1.87a294.08,294.08,0,0,1,24.08-21.51c22.39-18.12,48.25-31.28,76.76-36.35,18.57-3.29,37.62-2.92,56.38-1.67a254,254,0,0,1,48.66,7.61,162,162,0,0,1,69.93,38.76c4.7,4.45,9.16,9.14,13.42,14C573.76,364.81,575.17,363.39,574.32,362.42Z" transform="translate(-210.36 -233.59)"/><path class="cls-2" d="M282.51,364.06c13.36-6.81,26.71-13.67,40.56-19.44,15-6.24,30.79-11.73,47.05-13.05,8.15-.66,16.4-.16,24.18,2.5,1.22.42,1.74-1.51.53-1.93-14.39-4.92-30.28-2.78-44.67,1-16.25,4.25-31.8,11-46.9,18.27-7.31,3.53-14.53,7.25-21.76,10.93-1.15.59-.14,2.31,1,1.73Z" transform="translate(-210.36 -233.59)"/><path class="cls-2" d="M460.32,334.64c16.61-5.67,34.92-3,51.42,1.69,15.81,4.5,30.94,11.19,45.46,18.82,5,2.64,9.95,5.42,14.88,8.24a1,1,0,0,0,1-1.73C547,346.77,518.55,332.39,488.2,329.8c-9.55-.81-19.3-.2-28.41,2.91-1.21.41-.69,2.34.53,1.93Z" transform="translate(-210.36 -233.59)"/><path class="cls-2" d="M291,354.67a13.89,13.89,0,0,1,4.6.91c.46.17.65-.55.2-.72a14.32,14.32,0,0,0-4.8-.94.38.38,0,0,0,0,.75Z" transform="translate(-210.36 -233.59)"/><path class="cls-2" d="M293.8,352.77a15.76,15.76,0,0,1,4.89,1.4c.43.2.81-.44.38-.65a16.75,16.75,0,0,0-5.27-1.5c-.48-.06-.47.69,0,.75Z" transform="translate(-210.36 -233.59)"/><path class="cls-2" d="M295.89,350.3l5.95,2.47c.45.18.64-.54.2-.73l-6-2.47c-.45-.18-.64.54-.2.73Z" transform="translate(-210.36 -233.59)"/><path class="cls-2" d="M299,348.65a21.1,21.1,0,0,1,5.83,2.25.37.37,0,0,0,.37-.65,21.47,21.47,0,0,0-6-2.32c-.47-.11-.67.62-.2.72Z" transform="translate(-210.36 -233.59)"/><path class="cls-2" d="M301.57,346.3a19.47,19.47,0,0,1,7,3.07c.4.28.78-.37.38-.65a20.22,20.22,0,0,0-7.19-3.15c-.47-.1-.68.62-.2.73Z" transform="translate(-210.36 -233.59)"/><path class="cls-2" d="M303.85,344.57c1.58-.49,3.25.84,4.55,1.56l3.37,1.88c.43.23.81-.41.38-.65-1.64-.91-3.28-1.84-4.93-2.74-1.16-.64-2.24-1.18-3.57-.77a.37.37,0,0,0,.2.72Z" transform="translate(-210.36 -233.59)"/><path class="cls-2" d="M307.12,342.11c1.12-.72,3.62,1,4.62,1.53l3.41,1.7c.43.21.81-.44.38-.65l-5.68-2.84c-1-.5-2-1.07-3.11-.38-.41.26,0,.91.38.64Z" transform="translate(-210.36 -233.59)"/><path class="cls-2" d="M308.75,339.52a32.35,32.35,0,0,1,6,2c.51.22,5.62,2.88,5.5,3.1.23-.42-.42-.8-.65-.38l-.06.13a.39.39,0,0,0,.13.51.52.52,0,0,0,.65.1.39.39,0,0,0,.26-.46c-.23-1.52-3.22-2.57-4.42-3.17a33.86,33.86,0,0,0-7.19-2.57.38.38,0,0,0-.2.73Z" transform="translate(-210.36 -233.59)"/><path class="cls-2" d="M311.55,337.29a31.82,31.82,0,0,1,12.19,5c.4.27.77-.38.37-.65a32.16,32.16,0,0,0-12.36-5.07c-.47-.09-.67.63-.2.72Z" transform="translate(-210.36 -233.59)"/><path class="cls-2" d="M316,334.24q6.3,3.61,12.42,7.52l.19-.7-.76.06c-.48,0-.48.78,0,.75l.76-.06a.38.38,0,0,0,.19-.7q-6.13-3.9-12.43-7.52a.37.37,0,0,0-.37.65Z" transform="translate(-210.36 -233.59)"/><path class="cls-2" d="M320.06,332.71c4.11.37,8.37,3.93,11.84,6a.37.37,0,0,0,.51-.51,1.31,1.31,0,0,0-1.38-.81.38.38,0,0,0,0,.75l.74.43.51-.51c-3.69-2.19-7.83-5.69-12.22-6.09-.49,0-.48.71,0,.75Z" transform="translate(-210.36 -233.59)"/><path class="cls-2" d="M323.05,328.92a91.41,91.41,0,0,1,13.4,9c.38.3.91-.23.53-.53a93.14,93.14,0,0,0-13.56-9.11.37.37,0,0,0-.37.65Z" transform="translate(-210.36 -233.59)"/><path class="cls-2" d="M327.81,327.32c2.45.92,4.51,3,6.56,4.64l5.51,4.3c.37.29.91-.23.53-.53l-7-5.45c-1.71-1.33-3.37-2.91-5.42-3.68-.46-.17-.65.55-.2.72Z" transform="translate(-210.36 -233.59)"/><path class="cls-2" d="M331.47,324q7.38,5,14.39,10.47c.38.29.91-.23.53-.53q-7.08-5.56-14.54-10.59c-.41-.27-.78.38-.38.65Z" transform="translate(-210.36 -233.59)"/><path class="cls-2" d="M336,322.49a152.34,152.34,0,0,1,15.61,10.1c.39.29.77-.36.38-.64a150.76,150.76,0,0,0-15.61-10.11c-.42-.23-.8.41-.38.65Z" transform="translate(-210.36 -233.59)"/><path class="cls-2" d="M339.57,319.63l17.6,12.07c.4.27.77-.38.38-.65L339.94,319c-.39-.27-.77.38-.37.65Z" transform="translate(-210.36 -233.59)"/><path class="cls-2" d="M345,318.24a93.78,93.78,0,0,1,17.18,12.44c.36.32.89-.21.53-.53a94.32,94.32,0,0,0-17.33-12.56.38.38,0,0,0-.38.65Z" transform="translate(-210.36 -233.59)"/><path class="cls-2" d="M349.37,315.48c2.1.54,3.85,2,5.58,3.27s3.61,2.64,5.38,4q4.65,3.63,9,7.55c.36.32.9-.21.53-.53-3.18-2.83-6.46-5.56-9.84-8.16-3.08-2.37-6.68-5.89-10.49-6.86a.37.37,0,0,0-.2.72Z" transform="translate(-210.36 -233.59)"/><path class="cls-2" d="M353.83,314.33c2.09,0,4.09,2.12,5.62,3.3l5.11,3.92,10.2,7.84c.39.29.76-.36.38-.65l-11.77-9c-1.84-1.41-3.66-2.82-5.5-4.22-1.28-1-2.38-1.92-4-1.9a.38.38,0,0,0,0,.75Z" transform="translate(-210.36 -233.59)"/><path class="cls-2" d="M359.64,311.6c3.89,2,7.37,5.82,10.67,8.69s6.64,5.88,9.89,8.89c.36.32.89-.21.53-.53q-5.22-4.84-10.61-9.51C367,316.4,363.73,312.9,360,311c-.42-.22-.8.42-.38.65Z" transform="translate(-210.36 -233.59)"/><path class="cls-2" d="M366.26,310.58a195.54,195.54,0,0,1,21.06,19.94c.33.36.86-.17.53-.53a195.54,195.54,0,0,0-21.06-19.94c-.37-.31-.9.22-.53.53Z" transform="translate(-210.36 -233.59)"/><path class="cls-2" d="M370.71,308.69c2.21.07,4.71,3,6.27,4.43s3.18,3,4.7,4.55a114.13,114.13,0,0,1,8.28,9.56l.36-.63-.57-.36c-.28-.39-.93,0-.64.38s.37.54,1,.7a.38.38,0,0,0,.37-.62,112,112,0,0,0-10.13-11.41q-2.66-2.6-5.47-5c-1.29-1.1-2.42-2.28-4.18-2.34-.48,0-.48.73,0,.75Z" transform="translate(-210.36 -233.59)"/><path class="cls-2" d="M374.91,307.43a16.18,16.18,0,0,1,4.17,2.88c.35.33.88-.2.53-.53a16.56,16.56,0,0,0-4.32-3c-.43-.21-.82.44-.38.65Z" transform="translate(-210.36 -233.59)"/><path class="cls-2" d="M467.39,311.83l5.5-4.54c.37-.31-.16-.84-.53-.53l-5.5,4.54c-.37.31.16.83.53.53Z" transform="translate(-210.36 -233.59)"/><path class="cls-2" d="M465.46,318.32q6.14-4.92,12-10.2c.36-.32-.18-.85-.53-.53q-5.85,5.28-12,10.2c-.37.3.16.83.54.53Z" transform="translate(-210.36 -233.59)"/><path class="cls-2" d="M462.76,323.73a170.37,170.37,0,0,1,18.61-14c.41-.26,0-.91-.38-.65a170.63,170.63,0,0,0-18.76,14.15c-.36.32.17.85.53.53Z" transform="translate(-210.36 -233.59)"/><path class="cls-2" d="M461.68,328.81c3-3.93,7.74-6.53,11.76-9.34l11.87-8.3c.32-.23.14-.84-.29-.69l-.87.32c-.45.16-.25.89.2.72l.87-.32-.29-.68-13.45,9.41c-3.66,2.56-7.69,4.92-10.45,8.5-.3.39.36.76.65.38Z" transform="translate(-210.36 -233.59)"/><path class="cls-2" d="M460.92,331.47c1.16,1.24,3.23-.74,4.26-1.35l9.25-5.56q9.22-5.6,18.39-11.28c.41-.26,0-.91-.38-.65q-7.5,4.65-15,9.24-3.56,2.17-7.13,4.32c-1,.59-8.09,5.53-8.82,4.75-.34-.35-.87.18-.53.53Z" transform="translate(-210.36 -233.59)"/><path class="cls-2" d="M471.19,330.36q13.4-7.85,26.53-16.15c.4-.26,0-.91-.38-.65q-13.12,8.29-26.53,16.15a.38.38,0,0,0,.38.65Z" transform="translate(-210.36 -233.59)"/><path class="cls-2" d="M479.11,329.81c1.77-1.8,4.27-2.82,6.43-4.08q2.79-1.62,5.5-3.38c3.64-2.36,7.14-4.92,10.54-7.61.38-.3-.15-.83-.53-.53a134.37,134.37,0,0,1-11.94,8.48c-3.39,2.14-7.71,3.74-10.53,6.59a.38.38,0,0,0,.53.53Z" transform="translate(-210.36 -233.59)"/><path class="cls-2" d="M485.76,329.49c6.85-3.4,13.13-8.35,19.5-12.56.4-.26,0-.91-.38-.64-6.36,4.2-12.65,9.15-19.5,12.55-.43.21-.05.86.38.65Z" transform="translate(-210.36 -233.59)"/><path class="cls-2" d="M491.92,330.52A196.75,196.75,0,0,0,510.38,318c.26-.2.22-.73-.19-.7l-.62,0c-.47,0-.48.79,0,.75l.62,0-.19-.7a196.75,196.75,0,0,1-18.46,12.51.38.38,0,0,0,.38.65Z" transform="translate(-210.36 -233.59)"/><path class="cls-2" d="M498.61,331.33l17-10.91c.41-.26,0-.91-.38-.64l-17,10.91c-.41.25,0,.9.38.64Z" transform="translate(-210.36 -233.59)"/><path class="cls-2" d="M505,332.9c2.58-.55,4.71-2.3,6.85-3.76q4.16-2.85,8.2-5.83c.39-.29,0-.94-.38-.65q-3.66,2.7-7.4,5.29c-2.29,1.57-4.7,3.64-7.47,4.23-.47.1-.27.83.2.72Z" transform="translate(-210.36 -233.59)"/><path class="cls-2" d="M510.45,334.41a97,97,0,0,0,14.89-10.27c.37-.32-.16-.84-.53-.54a94.84,94.84,0,0,1-14.74,10.16.38.38,0,0,0,.38.65Z" transform="translate(-210.36 -233.59)"/><path class="cls-2" d="M516.1,336l8.7-6,4-2.71c.51-.36,1.1-.58,1.22-1.22a.37.37,0,0,0-.26-.46l-.2,0c-.19,0-.43,0-.46.26l0,.15c-.08.47.65.67.72.2,0,0-1.92.84-2.16,1-.55.33-1.06.72-1.59,1.08l-3.55,2.44-6.73,4.61c-.39.27,0,.92.38.65Z" transform="translate(-210.36 -233.59)"/><path class="cls-2" d="M522.33,337.82,533.56,330c.39-.28,0-.93-.38-.65L522,337.18c-.39.27,0,.92.38.64Z" transform="translate(-210.36 -233.59)"/><path class="cls-2" d="M525.84,339.68c2.33-.05,4.4-1.46,6.21-2.78s3.65-3.52,5.78-4.12a.37.37,0,0,0-.2-.72c-1.57.44-3,1.88-4.2,2.86-2.13,1.66-4.74,3.95-7.59,4a.38.38,0,0,0,0,.75Z" transform="translate(-210.36 -233.59)"/><path class="cls-2" d="M532.81,341.3l8.59-6.78c.38-.3-.16-.82-.53-.53l-8.59,6.78c-.38.3.16.83.53.53Z" transform="translate(-210.36 -233.59)"/><path class="cls-2" d="M536.41,343.83a36.74,36.74,0,0,0,8.86-5.41c.38-.3-.16-.83-.53-.53a35.91,35.91,0,0,1-8.71,5.29c-.44.19-.06.84.38.65Z" transform="translate(-210.36 -233.59)"/><path class="cls-2" d="M541.94,346.14l7.31-5.15c.39-.28,0-.93-.38-.65l-7.3,5.15c-.4.28,0,.93.37.65Z" transform="translate(-210.36 -233.59)"/><path class="cls-2" d="M545.84,348.84l6.68-5c.39-.28,0-.93-.38-.65l-6.68,5c-.38.29,0,.94.38.65Z" transform="translate(-210.36 -233.59)"/><path class="cls-2" d="M550.05,349.82c1,.14,1.82-.75,2.57-1.33l3.45-2.69c.38-.29-.16-.82-.53-.53l-2.42,1.88c-.77.6-2,2.06-3.07,1.92-.47-.06-.47.69,0,.75Z" transform="translate(-210.36 -233.59)"/><path class="cls-2" d="M554.55,352.25a17.1,17.1,0,0,0,3.84-2.92c.34-.35-.19-.88-.53-.53a16.26,16.26,0,0,1-3.69,2.8c-.42.23,0,.88.38.65Z" transform="translate(-210.36 -233.59)"/><path class="cls-2" d="M557.74,353.8a4.48,4.48,0,0,0,3.44-2.12c.25-.41-.39-.79-.65-.38a3.68,3.68,0,0,1-2.79,1.75c-.47,0-.48.79,0,.75Z" transform="translate(-210.36 -233.59)"/><path class="cls-2" d="M561.6,356l1.57-.33c.47-.09.27-.82-.2-.72l-1.56.33c-.48.1-.28.82.19.72Z" transform="translate(-210.36 -233.59)"/><g class="cls-3"><path class="cls-2" d="M295,277.09c2.44,6.62,7.9,11.8,14.08,15.21s13.08,5.26,19.94,6.9q21,5,42.34,7.94c-18,1.86-34.83,10.17-49.6,20.66S294,351,280.4,362.93a368.83,368.83,0,0,1-13.75-53.66,10.32,10.32,0,0,1-.09-4.72,10.62,10.62,0,0,1,3.22-4.35l22.94-21.68" transform="translate(-210.36 -233.59)"/><path class="cls-2" d="M294.55,277.23c4.77,12.27,17.31,18,29.24,21.16a386.45,386.45,0,0,0,47.48,9.23l.13-1C334,310.72,306.78,339,280,362.58l.84.22a373.34,373.34,0,0,1-12.24-45.68c-.37-1.87-.74-3.75-1.08-5.63-.4-2.14-1.16-4.66-.52-6.81.6-2,2.36-3.43,3.81-4.8l4.3-4.07q9-8.47,17.93-16.93c.46-.45-.24-1.15-.71-.71q-9.69,9.13-19.36,18.29c-2.24,2.12-5.41,4.3-6.66,7.23s0,6.9.6,9.95a369.93,369.93,0,0,0,13,49.42.51.51,0,0,0,.83.23c26.5-23.34,53.6-51.6,90.65-55.65.51-.06.74-.9.13-1a427.87,427.87,0,0,1-44-8.35c-12.62-3.1-26.84-8.16-32-21.34-.23-.59-1.2-.34-1,.27Z" transform="translate(-210.36 -233.59)"/></g><g class="cls-3"><path class="cls-2" d="M542.35,265.86c.1,7.74-6.19,14-12.54,18.38-15.77,10.94-34.5,16.69-53.1,21.43a173.35,173.35,0,0,1,96.94,55.89,204.89,204.89,0,0,0,9.77-52.15c.17-3.24.27-6.57-.69-9.67-1.22-4-4.07-7.31-7-10.33a133.52,133.52,0,0,0-30-23.27" transform="translate(-210.36 -233.59)"/><path class="cls-2" d="M541.85,265.86c-.09,6.6-4.46,11.79-9.35,15.75a87.21,87.21,0,0,1-17.23,10.45c-12.3,5.94-25.5,9.76-38.7,13.13a.51.51,0,0,0,0,1,172.52,172.52,0,0,1,96.73,55.75.5.5,0,0,0,.83-.22,206.68,206.68,0,0,0,9.35-46.12c.6-7,1.54-14.38-2.47-20.59-3.73-5.76-9.41-10.6-14.6-15A136.65,136.65,0,0,0,546,265.7a.5.5,0,0,0-.5.87,134.87,134.87,0,0,1,22.19,15.85c6.8,6,15,12.8,15.31,22.55.31,9.53-1.27,19.48-2.93,28.83a208.27,208.27,0,0,1-6.92,27.63l.83-.22A174.44,174.44,0,0,0,501.58,312a170.87,170.87,0,0,0-24.74-6.79v1c14.12-3.61,28.24-7.75,41.27-14.39,10-5.08,24.57-13,24.74-25.91a.5.5,0,0,0-1,0Z" transform="translate(-210.36 -233.59)"/></g><g class="cls-4"><path class="cls-2" d="M377.06,305.74c-13.83,1.4-27,6.6-39.31,13.11a188.25,188.25,0,0,0-52.62,41.46c7.37-1.52,14.2-4.93,20.9-8.36,13.76-7.05,27.51-14.4,42.35-18.73s31.1-5.46,45.59-.05a91.9,91.9,0,0,0-18.78-28.37" transform="translate(-210.36 -233.59)"/><path class="cls-2" d="M377.06,305.24c-18.42,2-35.61,10.14-51.15,19.87A190.29,190.29,0,0,0,284.78,360a.51.51,0,0,0,.48.84c9-1.94,17.06-6.37,25.15-10.53a294.63,294.63,0,0,1,27.16-12.79c17.81-7,37.82-10.53,56.27-3.82.46.17.71-.38.56-.73a93.85,93.85,0,0,0-18.86-28.47c-.44-.47-1.15.24-.7.7a93.75,93.75,0,0,1,18.7,28.27l.56-.73c-29.2-10.62-58.93,3.72-84.6,16.92-7.89,4.05-15.77,8.33-24.5,10.21l.48.84a189.14,189.14,0,0,1,40.21-34.22c15.56-9.85,32.86-18.21,51.37-20.2.63-.07.64-1.07,0-1Z" transform="translate(-210.36 -233.59)"/></g><g class="cls-4"><path class="cls-2" d="M468.44,305.82a127.88,127.88,0,0,0-9.74,28.11c4.17-3.24,9.81-3.7,15.09-3.8A146.59,146.59,0,0,1,507,333.08c22.44,4.79,43.06,15.71,62.73,27.54-3-6.34-8.13-11.4-13.44-16a168.93,168.93,0,0,0-88.22-39.3,217.84,217.84,0,0,0-8.58,24.57" transform="translate(-210.36 -233.59)"/><path class="cls-2" d="M468,305.56a133.2,133.2,0,0,0-9.78,28.24c-.09.39.36.84.73.57,3.88-2.84,8.55-3.52,13.25-3.7a146.38,146.38,0,0,1,15,.24,133.74,133.74,0,0,1,30.1,5.32c18.56,5.57,35.7,14.89,52.24,24.82a.51.51,0,0,0,.69-.69c-3.45-7-9.18-12.44-15.11-17.42a168.39,168.39,0,0,0-18.7-13.61,169.26,169.26,0,0,0-68.28-24.48.49.49,0,0,0-.48.37A226.64,226.64,0,0,0,459,329.78a.5.5,0,0,0,1,.27c1.42-4.95,3-9.85,4.73-14.68.88-2.42,1.79-4.82,2.75-7.21.6-1.47.64-2.11,2.56-2.05a29.32,29.32,0,0,1,3.72.57,168.38,168.38,0,0,1,73.83,31.58c8.25,6.2,17.11,13.16,21.74,22.61l.68-.68c-13.33-8-27-15.57-41.54-21.17a140.78,140.78,0,0,0-47-9.37c-7.54-.19-16.55-.85-23,3.85l.73.57a130.93,130.93,0,0,1,9.69-28c.27-.58-.59-1.09-.87-.51Z" transform="translate(-210.36 -233.59)"/></g><path class="cls-2" d="M312.9,309.59a29.68,29.68,0,0,0,1.66-5.28c.21-.94-1.24-1.34-1.44-.4a30.55,30.55,0,0,1-1.67,5.28c-.38.88,1.08,1.27,1.45.4Z" transform="translate(-210.36 -233.59)"/><path class="cls-2" d="M316.11,283.26A18.93,18.93,0,0,0,312,298c.62,3.88,3.44,9.11,8.19,7.13,5.44-2.25,4.33-8.87,2.77-13.25a128.81,128.81,0,0,0-8.76-18.79.75.75,0,0,0-1.37.58,91.37,91.37,0,0,0,5.41,13.94c1.11,2.29,2.33,4.52,3.64,6.69,1.09,1.83,2.21,4,4,5.35,2.51,1.88,5,.34,5.87-2.36a11.18,11.18,0,0,0-2.22-10.47v1.06a13.06,13.06,0,0,0,4.8-8.9c.17-2.31-.67-5.16-3.39-5.36-3-.21-4.78,2.78-4.82,5.41-.06,3.64,1.66,7.51,3.3,10.67,1.35,2.61,3.34,5.93,6.52,6.49,3.47.6,5-2.71,5.93-5.46a38.06,38.06,0,0,0,1.87-12.62c-.07-3.08-.71-6.1-3.34-8a.79.79,0,0,0-.76,0,2.15,2.15,0,0,0-.35,3.45c.88.9,2.3.94,3.43,1.26A13.44,13.44,0,0,1,347,277c2.69,2,5.06,5.32,5.21,8.75.11,2.57-1.3,3.95-3.79,4.43-1.8.34-4.74.48-5.48-1.69-.31-.91-1.76-.52-1.44.39,1.75,5.2,11.3,3.4,12.13-1.63,1.09-6.63-5.42-12.49-11.22-14-.45-.09-.9-.19-1.34-.31-.79-1.07-.76-1,.09.16a9.14,9.14,0,0,1,1,3.62,31.3,31.3,0,0,1-.32,7.49,35.17,35.17,0,0,1-1.72,7c-.57,1.59-1.39,3.57-3.49,3.59-1.76,0-3.32-1.72-4.26-3a26.92,26.92,0,0,1-3.28-6.46c-.85-2.26-2-5.28-1.29-7.69s4.24-3.54,4.95-.49a8,8,0,0,1-.33,3.87,12.08,12.08,0,0,1-4,5.82.76.76,0,0,0,0,1.06c1.93,2.39,3.31,6.67,1.58,9.57-2.75,4.62-7.17-4.41-8.19-6.23a88.42,88.42,0,0,1-7.55-17.95l-1.37.58c2.26,4.09,4.4,8.25,6.27,12.54,1.76,4,5.21,10.34,3.08,14.75-1.2,2.5-4.29,4-6.54,1.78-1.53-1.48-2.11-3.86-2.34-5.91a17.39,17.39,0,0,1,3.77-12.73c.6-.74-.45-1.81-1.06-1.06Z" transform="translate(-210.36 -233.59)"/><path class="cls-2" d="M353.92,287.62c3.79,2.09,5.6-2.95,6.07-5.8.84-5-.48-10.05-2.22-14.73a.75.75,0,0,0-1.44.4,76.44,76.44,0,0,0,2.46,9.75c.8,2.43,1.58,5.35,3.54,7.14,2.69,2.46,8.35,1.17,6.8-3.2-.33-.9-1.78-.51-1.45.4,1.14,3.21-3.41,2.67-4.57,1.48a7.16,7.16,0,0,1-1.16-1.71,28.88,28.88,0,0,1-1.85-5,76.33,76.33,0,0,1-2.33-9.31l-1.44.4a35.7,35.7,0,0,1,2.35,9.33c.13,1.58-.15,11.62-4,9.51-.84-.47-1.6.83-.76,1.29Z" transform="translate(-210.36 -233.59)"/><path class="cls-2" d="M371.52,264.12a15.47,15.47,0,0,0-4.3,11c.09,3.23,1.28,8.26,5,9,3.42.71,6.18-2.43,6.67-5.52.77-4.89-2-10.46-4.26-14.63-.46-.85-1.74-.1-1.29.75a180.35,180.35,0,0,1,9.31,20.41c1.23,3.28,2.49,7,2.29,10.58,0,.57-.1,2-.59,2.43-2.23,2.15-3.16-1-3.4-2.14a13.37,13.37,0,0,1,.5-5.92c.75-2.94,1.82-5.78,2-8.83.25-3.44-.39-6.86-.43-10.3,0-1.74-.17-4.85,1-6.28,2.56-3.08,3.53,2.57,3.9,3.88a62.31,62.31,0,0,1,2.12,11.66l1.48-.2a53.29,53.29,0,0,1-1.89-15.32c.06-.89.49-5,2.89-2.4a6.65,6.65,0,0,1,.78,2.44c.59,2.37,1.1,4.76,1.56,7.16.52,2.69.76,6.66,3.7,7.92a3.49,3.49,0,0,0,4.83-1.85c.33-.91-1.12-1.31-1.45-.4-.74,2.07-3.35.8-4.13-.37a9.14,9.14,0,0,1-1-3.19c-.5-2.48-.94-5-1.5-7.44-.48-2.1-1-7.21-4.34-6.71-2.56.39-2.81,3.76-2.79,5.76a65.43,65.43,0,0,0,1.93,14.8c.2.8,1.55.65,1.47-.2a64.91,64.91,0,0,0-2.17-12.06c-.52-1.84-1.1-5.84-3.53-6.23-2.81-.45-3.8,3.43-4.11,5.43-.63,4,.26,8.08.27,12.12,0,4.29-1.78,8.06-2.5,12.21-.44,2.55-.51,6,1.49,7.94a2.83,2.83,0,0,0,4.6-.72c1.45-2.49.74-6,.15-8.64a69.74,69.74,0,0,0-4.55-12.47c-2-4.69-4.25-9.29-6.62-13.82l-1.29.75a37.05,37.05,0,0,1,3.82,9.73c.41,1.89.61,4.11-.38,5.88s-3.24,3-5.14,1.87c-2.6-1.56-3.11-5.8-2.9-8.57a13.78,13.78,0,0,1,3.83-8.5c.66-.7-.4-1.76-1.07-1.06Z" transform="translate(-210.36 -233.59)"/><path class="cls-2" d="M416.1,279.93a4.38,4.38,0,0,0,3.59-3.84c.05-.4-.39-.74-.75-.75a.77.77,0,0,0-.75.75,2.91,2.91,0,0,1-2.49,2.39c-.95.15-.55,1.6.4,1.45Z" transform="translate(-210.36 -233.59)"/><path class="cls-2" d="M430.91,258.38c-.85-2.07-3.34-1.06-4.89-.34a13.08,13.08,0,0,0-6.18,6c-1.91,3.86-4.12,12.85,1.05,15.33,6.18,3,9.7-5,10.41-9.61,1.18-7.75-.23-16.06-.77-23.83a.75.75,0,0,0-1.5,0l.06,13.91c0,4.53-.33,9.25.17,13.75.27,2.47,1.2,5,3.68,6a4.18,4.18,0,0,0,5.2-1.38c.55-.8-.75-1.55-1.29-.76-1,1.4-2.92,1.18-4.13.3-1.42-1-1.85-2.92-2-4.58-.28-2.93-.1-5.94-.11-8.88L430.53,246H429c.34,4.9.73,9.8,1,14.7s.57,10.75-2.21,14.91c-1.87,2.79-6.37,4.3-8,.44-.92-2.13-.43-4.84,0-7a14.29,14.29,0,0,1,3.16-6.86c.47-.53,5.89-4.8,6.49-3.34.37.88,1.82.5,1.45-.39Z" transform="translate(-210.36 -233.59)"/><path class="cls-2" d="M441.15,245.24a2.77,2.77,0,0,1-.31,3.29c-.64.71.41,1.78,1.06,1.06a4.3,4.3,0,0,0,.54-5.11.75.75,0,0,0-1.29.76Z" transform="translate(-210.36 -233.59)"/><path class="cls-2" d="M444.29,280.07a22.15,22.15,0,0,0,3.4-10.47l-.55.72a13.25,13.25,0,0,0,8.79-5c1.54-2.14,2-5.5-.4-7.25-2.71-1.94-5.7.47-7.09,2.78A20.89,20.89,0,0,0,445.73,273c.22,2.74,1.1,6.08,3.72,7.5,2.89,1.56,5.89-.31,8-2.34a27.69,27.69,0,0,0,6.34-9.79c1.08-2.82,2-6.08,0-8.67a.76.76,0,0,0-.91-.12c-4.75,2.67,2.57,7,4,8.79,2.33,2.85,3.9,7.54,1.29,10.68-2.84,3.43-7.85,2.48-9.84-1.31-.44-.85-1.74-.1-1.29.76a7.4,7.4,0,0,0,13,.58c1.58-2.64,1.13-5.91-.07-8.6a13.35,13.35,0,0,0-2.69-4c-.92-.94-6.3-4.13-3.61-5.64l-.91-.12c2.79,3.53-1.64,10.51-3.8,13.42-1.46,2-3.47,4.5-5.93,5.22-3.07.9-4.81-1.89-5.42-4.44-1.07-4.46-.16-11.79,3.46-15,2.33-2.09,5.44-.15,4.62,2.78a7.4,7.4,0,0,1-2.41,3.33,12.77,12.77,0,0,1-6.45,2.83.75.75,0,0,0-.55.72,20.53,20.53,0,0,1-3.19,9.72c-.52.82.78,1.57,1.29.75Z" transform="translate(-210.36 -233.59)"/><path class="cls-2" d="M466.93,281a2,2,0,0,0,1.72,2.71c2,.28,3.8-2.26,4.85-3.6A27.37,27.37,0,0,0,479.22,265a.75.75,0,0,0-1.47-.2l-7,36.7c-.18.94,1.27,1.35,1.45.4l7-36.7-1.47-.2a26.15,26.15,0,0,1-2.59,9.76,23.63,23.63,0,0,1-2.08,3.49,21.85,21.85,0,0,1-1.92,2.37l-.56.59c-.59,1-1.32,1-2.19.21.33-.91-1.12-1.3-1.45-.4Z" transform="translate(-210.36 -233.59)"/><path class="cls-2" d="M477.45,275.13a29.67,29.67,0,0,1,2.51-5.39,6.82,6.82,0,0,1,2.37-2.57c2.68-1.21,3.59.87,3.76,2.58.33,3.38-1.26,6.9-2.15,10.09-.5,1.79-1.95,5.88-.55,7.59,1.14,1.38,3.52.6,4.82-.05.87-.43.11-1.72-.76-1.3-4.18,2.08-2.86-2.8-2.29-5,.5-1.92,1.17-3.79,1.67-5.7.65-2.51,1.48-5.94,0-8.32-1.35-2.11-3.95-2.12-5.85-.73-2.61,1.9-3.82,5.57-4.95,8.43-.35.9,1.1,1.29,1.45.4Z" transform="translate(-210.36 -233.59)"/><path class="cls-2" d="M502.33,269.82C498,269,493.5,272.66,491.1,276s-4.45,8.76-1.54,12.35a6.38,6.38,0,0,0,9.87,0c3.75-4.44,3.31-11.59,5.39-16.82l-1.45-.4c-1.54,5.56-3.32,11.3-4.11,17-.47,3.43,1.15,5.47,4.68,4.74.94-.19.54-1.64-.4-1.45q-1.41.74-2-.81a1.37,1.37,0,0,1-.86-1.64,10.16,10.16,0,0,1,.43-2.44q.52-2.52,1.12-5c.79-3.35,1.68-6.68,2.6-10,.27-1-1.1-1.28-1.45-.4-1.43,3.61-1.88,7.43-2.87,11.16s-4.14,9.5-8.86,6c-6.62-4.93,3.63-18.24,10.29-17,.95.17,1.35-1.27.4-1.45Z" transform="translate(-210.36 -233.59)"/><path class="cls-2" d="M515.92,275.5c-3.63.37-6.13,3.19-8,6.1s-4.12,7.64-3.45,11.35c.5,2.76,3.22,4.09,5.86,3.67,3.7-.6,5.56-4.17,6.83-7.31l-.72.55c3.25.13,7.2.17,9.65-2.37,1.67-1.75,2.52-4.78,1-6.89s-4.21-2.27-6.32-1.29c-3.21,1.49-4.75,5.42-5.57,8.63-.77,3-1.57,7.62.35,10.41,1.59,2.3,4.59,2.48,7,1.52,3.45-1.38,6.52-4.47,8.79-7.31s4-5.86,3.41-9.51a.75.75,0,0,0-.72-.55,2.56,2.56,0,0,0-2.75,2.89,5.85,5.85,0,0,0,1.36,2.83,21.38,21.38,0,0,1,2.65,4.49c1.45,3.59,1.31,8.07-2.25,10.38-3.88,2.52-7.9-.57-7.86-4.86a.75.75,0,0,0-1.5,0c0,6.07,6.3,9.59,11.07,5.42a9,9,0,0,0,2.85-8.19,14.89,14.89,0,0,0-1.66-4.93,24.23,24.23,0,0,0-1.8-2.8c-.34-.48-2.92-4-.11-3.73l-.72-.55c.82,5-4,9.77-7.56,12.62-1.93,1.56-4.63,3.58-7.27,2.69-2.91-1-2.64-4.81-2.4-7.25a19.91,19.91,0,0,1,2.24-7.58c1.24-2.23,4.61-5.41,7.21-2.87,2.09,2.05.07,5.34-2,6.41s-4.79,1-7.15.89a.78.78,0,0,0-.73.55c-1,2.43-2.4,5.44-5.19,6.15a4.14,4.14,0,0,1-3.88-.88c-1.2-1.28-.72-3.43-.37-4.93,1.06-4.49,4.42-11.71,9.69-12.25,1-.1,1-1.6,0-1.5Z" transform="translate(-210.36 -233.59)"/><path class="cls-2" d="M352.37,255.45c.1.68,0,1.82.78,2.1a1.64,1.64,0,0,0,1.71-.38,1.6,1.6,0,0,0-1.22-2.68.75.75,0,0,0,0,1.5.16.16,0,0,1,.18.1s-.18.05-.11.08l.34.45-.23-1.57a.76.76,0,0,0-.93-.53.78.78,0,0,0-.52.93Z" transform="translate(-210.36 -233.59)"/></svg>