<svg id="Calque_1" data-name="Calque 1" xmlns="http://www.w3.org/2000/svg" viewBox="0 0 194.09 267.62"><defs><style>.cls-1{fill:#683c11;}.cls-2{fill:#1d1d1b;}.cls-3{fill:#432918;}</style></defs><title>barrette4</title><path class="cls-1" d="M1357.18,456.17c.62-4.7,1.17-9.8-1.2-13.91s-8.94-6-11.84-2.21c-1.85,2.4-1.38,5.94.12,8.56s3.86,4.65,5.85,6.93c10.4,11.93,10.64,30.32,21.13,42.17,6.69,7.57,17.32,12.23,20.49,21.81,1.34,4,1.14,8.5,2.91,12.35,3.7,8,14.42,10.55,19.1,18.08,4.07,6.55,2.83,15.77,8,21.48,3,3.27,7.49,4.67,10.87,7.53,4.73,4,6.64,10.33,9.07,16,14.35,33.6,52,53.16,65.2,87.21,1.18,3,1.81,7.17-.94,8.9s-6.34-.75-8.55-3.25c-9.14-10.38-15.14-23.07-21.75-35.21-13.38-24.59-29.62-47.48-45.76-70.35q-29.37-41.64-58.46-83.49c-12.49-18-25-36.07-34-56-1.22-2.7-2.42-5.51-4.59-7.53s-5.61-3-8.14-1.48c-2.82,1.7-3.31,5.78-2,8.82s3.83,5.3,6.19,7.6c8.08,7.85,14.63,17.13,21.12,26.34l28.57,40.57c38.93,55.27,77.94,110.67,111,169.65,3.36,6,8.16,12.9,15,12.38,6.51-.49,10.53-8.1,9.66-14.57s-5.54-11.6-9.17-17c-29.79-44.62-48.78-46.94-63.22-83-2.77-6.91-8.91-11.93-13.36-17.89a47.21,47.21,0,0,1-4.67-7.15c-1.43-2.92-2.23-6.12-3.72-9-5.09-9.89-17.44-14.86-21.32-25.27-1.51-4-1.56-8.56-3.27-12.53-2.49-5.78-8-9.51-12.76-13.67-12-10.57-23.85-26.86-25.57-42.78" transform="translate(-1320.98 -432.3)"/><path class="cls-2" d="M1357.93,456.17c.9-7.05,1-17.84-8.43-18.84a6.34,6.34,0,0,0-6.67,3.47c-1.7,3.71.16,7.75,2.53,10.65,3.3,4.05,6.8,7.49,9.23,12.2a118.61,118.61,0,0,1,5.89,14.79c3.08,8.65,6.62,16.88,13.58,23.14,3.55,3.2,7.51,5.93,10.93,9.26a23.64,23.64,0,0,1,7.11,13.86c.78,4.61,1.74,8.56,5,12,2.92,3,6.65,5.15,10,7.64a21.31,21.31,0,0,1,8.52,12.66c1.07,4.29,1.58,8.87,3.91,12.72,2.23,3.67,5.93,5.51,9.49,7.67,5.62,3.42,8.16,8.64,10.57,14.54,7.16,17.51,19.32,31.18,32.28,44.66,6.76,7,13.6,14,19.7,21.61,6,7.44,12.42,16.3,15,25.62a7.69,7.69,0,0,1,.21,4.45c-1.24,4.22-6,1.89-8.14-.13a53.34,53.34,0,0,1-6.25-7.79,151.47,151.47,0,0,1-8.79-14.36c-5.94-10.8-11.63-21.68-18.09-32.19-13.25-21.57-28.13-42.08-42.7-62.76q-22.53-32-44.9-64.14c-14-20.17-28.66-40.26-39-62.65-1.83-3.95-3.44-8.78-7.54-11-2.83-1.51-6.51-1.43-8.64,1.21-6.08,7.55,5.52,15.89,9.79,20.58,8.64,9.48,15.71,20.31,23.08,30.77l22.27,31.61c29.2,41.46,58.42,82.95,85.18,126q10,16.07,19.46,32.44c2.92,5.07,5.56,10.42,8.85,15.26,2.09,3.09,4.65,6.18,8.12,7.73,7,3.17,13.54-2.18,15.15-9,2.26-9.63-5.61-17.9-10.61-25.22-10.54-15.44-22.91-29-35.83-42.43a142.77,142.77,0,0,1-14.44-16.91c-4.79-6.84-8.16-14.2-11.54-21.8-4.45-10-14.51-16.29-18.69-26.56-1.71-4.21-3.09-8.14-6-11.69s-6.3-6.24-9.55-9.24c-3.79-3.5-7.34-7.32-8.91-12.35s-1.66-10.31-4.83-14.81c-2.62-3.71-6.28-6.48-9.71-9.4A92.28,92.28,0,0,1,1373,487.82c-7.46-9.06-13.63-19.84-15.09-31.65-.11-.95-1.62-1-1.5,0,1.22,9.84,5.51,18.91,11.16,27,5.83,8.33,13.1,14.71,20.61,21.43a24.11,24.11,0,0,1,8.17,13.85c1,4.67,2,8.84,4.92,12.71,5.19,6.89,13.33,11.19,17.68,18.78,2.51,4.39,3.52,9.33,6.37,13.57a117.06,117.06,0,0,0,9.16,11.32c6.12,7.06,8.67,15.72,13.22,23.73,6.89,12.15,16.68,21.88,26.29,31.86,6,6.24,11.83,12.67,17.24,19.44,3.75,4.68,7.31,9.51,10.71,14.44,3,4.38,6.42,8.68,9,13.33,2.73,4.9,3.72,10.63.81,15.7-3.28,5.71-9.84,6.45-14.72,2.24-3.82-3.29-6.16-8-8.59-12.29q-4.57-8.09-9.28-16.08c-24.52-41.66-51.73-81.65-79.43-121.24q-21.11-30.18-42.38-60.24c-6.56-9.31-12.9-18.84-20.19-27.6-3.74-4.49-8.41-8.26-12-12.86-2.14-2.75-3.73-7-.93-9.92,3.71-3.85,8.58.33,10.59,3.82,2.78,4.8,4.74,10.14,7.34,15.06s5.49,10,8.47,14.82c6.08,9.92,12.69,19.5,19.33,29.05q21.45,30.88,43.09,61.66c14.1,20.08,28.55,39.95,42,60.45,6.51,9.9,12.76,20,18.51,30.35,5.39,9.71,10.19,19.79,16.44,29,2.57,3.79,11.09,17.74,17.14,11.52,4.77-4.9-2.44-15.81-5-20.22-9.11-15.65-22.58-28.11-34.86-41.19a162.63,162.63,0,0,1-17.9-21.9,84.66,84.66,0,0,1-6.45-11.64c-2-4.56-3.52-9.46-6.34-13.63-2.39-3.56-5.61-5.62-9.24-7.76-5.28-3.11-7.74-6.93-9.13-12.85-1-4-1.55-8.21-3.64-11.83-1.91-3.29-4.91-5.67-8-7.84-3.69-2.62-8-5-10.46-9-2.83-4.53-2.24-10.08-4.16-14.93-3.17-8-11.25-12.51-17.33-18.09-7.59-7-10.75-16.4-14.11-25.83a86.73,86.73,0,0,0-5.24-12.41c-2.13-3.92-4.91-6.95-7.85-10.25-2.18-2.45-4.72-5.93-3.64-9.45,1.31-4.25,6.16-4,9.17-2,5,3.4,4,10.71,3.37,15.89-.12.95,1.38.94,1.5,0Z" transform="translate(-1320.98 -432.3)"/><path class="cls-3" d="M1354.76,441.2c-2.84.76-4.37,4.05-4.16,7s1.72,5.59,3.15,8.16,2.87,5.29,2.89,8.23l-3.26-5.51a18.08,18.08,0,0,0-1.81-2.69c-.69-.8-1.51-1.47-2.27-2.21a18.37,18.37,0,0,1-4.37-6.68c-.84-2.24-1.2-4.86,0-6.92a5.09,5.09,0,0,1,4.73-2.51,4.67,4.67,0,0,1,4,3.43" transform="translate(-1320.98 -432.3)"/><path class="cls-3" d="M1354.56,440.48c-11.11,4.26.85,17.62,1.33,24.1l1.4-.38c-2.16-3.65-4-7.23-7.07-10.2a18.07,18.07,0,0,1-4.57-6.71c-.71-2-1.26-4.39-.08-6.34a4.09,4.09,0,0,1,7.39.74c.32.9,1.78.51,1.44-.4-2.13-5.86-10.09-4.72-10.93,1.39-.49,3.6,1.53,7.52,3.7,10.24,1.37,1.72,3.14,3,4.44,4.8A82.88,82.88,0,0,1,1356,465c.36.61,1.46.38,1.4-.38a20.9,20.9,0,0,0-3-8.61c-2.19-4-5.85-11.59.56-14.05.89-.34.51-1.79-.4-1.44Z" transform="translate(-1320.98 -432.3)"/><path class="cls-3" d="M1332.44,435.73c-1.57.72-2.1,1.85-2.68,3.48-1.07,3,.18,6.33,2.09,8.85s4.42,4.52,6.42,7c3,3.71,4.78,8.3,6.47,12.79a76.74,76.74,0,0,0-14.84-17.64,36.43,36.43,0,0,1-5.22-5.09,9.3,9.3,0,0,1-2.11-6.78c.36-2.41,2.34-4.65,4.77-4.74,1.89-.07,3.58,1.06,5.1,2.17" transform="translate(-1320.98 -432.3)"/><path class="cls-3" d="M1332.06,435.09c-4.94,2.86-3.71,9.42-.86,13.35,1.9,2.62,4.51,4.62,6.54,7.11,3,3.65,4.64,8.12,6.27,12.46l1.37-.58a79.88,79.88,0,0,0-12.12-15.18c-2.36-2.29-5.13-4.25-7.28-6.76-2-2.29-3.79-5.77-2.09-8.79,2.11-3.75,5.58-2.16,8.17-.32.79.56,1.54-.74.76-1.29-2.68-1.9-5.91-3.42-8.79-.92-2.71,2.35-2.73,6.17-1.28,9.21,2.15,4.5,6.94,7.39,10.37,10.84a79.29,79.29,0,0,1,11,14c.43.69,1.68.25,1.37-.58-1.73-4.6-3.51-9.27-6.66-13.12-1.75-2.14-3.92-3.9-5.68-6-2.67-3.23-5-9.35-.3-12.07a.75.75,0,0,0-.76-1.29Z" transform="translate(-1320.98 -432.3)"/><path class="cls-3" d="M1363,480.7c6.35,12.18,17.23,21.29,25.51,32.25-6.09-7.69-16.5-11.62-21-20.33-1.86-3.6-2.56-7.79-4.94-11.06l.83.7" transform="translate(-1320.98 -432.3)"/><path class="cls-3" d="M1362.33,481.07c6.55,12.23,17.17,21.36,25.51,32.26l1.18-.91c-4.21-5.09-9.87-8.45-14.78-12.78a25.43,25.43,0,0,1-6.57-8.42c-1.55-3.37-2.42-6.92-4.48-10l-1.18.91.83.7c.73.62,1.8-.43,1.06-1.06l-.83-.7c-.61-.52-1.68.15-1.18.91,2.27,3.42,3.06,7.45,4.94,11.05a26.23,26.23,0,0,0,5.57,7c5.06,4.68,11.13,8.12,15.56,13.48.53.65,1.69-.23,1.17-.9-8.33-10.9-19-20.05-25.5-32.26-.46-.85-1.75-.1-1.3.75Z" transform="translate(-1320.98 -432.3)"/><path class="cls-3" d="M1393.15,522.91a24.56,24.56,0,0,0,2.32,5.9c2.74,4.85,7.29,8.35,11.47,12s8.26,8,9.49,13.42c-1.4-4.06-3-8.35-6.39-10.93-2.29-1.73-5.17-2.47-7.68-3.88a16.58,16.58,0,0,1-8.28-14.6" transform="translate(-1320.98 -432.3)"/><path class="cls-3" d="M1392.43,523.11c1.72,6.1,5.23,10.55,9.91,14.72,5.38,4.8,11.41,9.31,13.37,16.63l1.44-.4c-1.87-5.38-4-10.3-9.37-12.92-3.15-1.54-6.32-2.61-8.74-5.3a16.33,16.33,0,0,1-4.21-11,.75.75,0,0,0-1.5,0,17.67,17.67,0,0,0,6.74,14c2.61,2,5.82,2.75,8.58,4.47,4,2.48,5.59,7,7.06,11.17a.75.75,0,0,0,1.44-.4c-1.57-5.89-5.66-10.21-10.13-14.14-5.72-5-11-9.6-13.14-17.21a.75.75,0,0,0-1.45.4Z" transform="translate(-1320.98 -432.3)"/><path class="cls-3" d="M1418.46,561.51c0,1.75,1.28,3.21,2.52,4.44,3.5,3.48,7.47,6.46,10.88,10s6.31,7.88,7,12.77c-1.51-4.56-3.55-9.33-7.64-11.85-2.1-1.3-4.58-1.89-6.65-3.25-4-2.61-5.73-7.63-6.06-12.38" transform="translate(-1320.98 -432.3)"/><path class="cls-3" d="M1417.74,561.71c.73,4.79,6.36,8.08,9.7,11.08,5,4.45,9.49,9.35,10.66,16.15l1.44-.4c-1.52-4.49-3.45-9.22-7.52-12-2.76-1.88-6.21-2.41-8.64-4.81-2.79-2.74-3.81-6.71-4.16-10.48-.09-1-1.59-1-1.5,0,.45,4.77,1.93,9.77,6,12.71,2.87,2.07,6.47,2.62,9.08,5.14s4.12,6.32,5.31,9.83a.75.75,0,0,0,1.44-.4c-.88-5.12-3.61-9.38-7.15-13.1-2.16-2.28-4.58-4.3-6.93-6.37s-5.77-4.45-6.28-7.76c-.14-.95-1.59-.55-1.44.4Z" transform="translate(-1320.98 -432.3)"/><path class="cls-3" d="M1498.9,666.9c2.77,3.34,6.67,7.11,8.53,11s2.72,8.49,1.43,12.63c-.45,1.44-1.31,2.93-2.76,3.34a4.71,4.71,0,0,1-2.41-.12,17.79,17.79,0,0,1-11.8-9.87c-1.22-2.72-3.42-7.34-4.57-10.09,1.66,2.61,5,6.84,6.69,9.45,2.07,3.24,4.46,6.72,8.16,7.76a4.69,4.69,0,0,0,3.42-.17c1.72-.89,2.31-3.09,2.27-5-.1-6-9.33-18.71-9-18.93" transform="translate(-1320.98 -432.3)"/><path class="cls-3" d="M1498.37,667.43c2.94,3.47,6.41,6.74,8.41,10.88a18.42,18.42,0,0,1,1.94,8.43c0,1-.31,4.21-1.25,5.12-1.18,1.13-3.67,1.24-5.1.74-8.36-3-11.22-11.71-14.41-19.16l-1.29.76c1.78,2.7,3.79,5.23,5.64,7.88,1.6,2.31,3,4.82,5,6.8,2.9,2.85,8.69,5.08,10.76.15,1.62-3.89-.6-8.31-2.34-11.74-1.14-2.25-2.42-4.42-3.73-6.57-.42-.69-2.45-3-2.35-3.82.12-.95-1.38-.94-1.5,0-.15,1.2,1.81,3.36,2.36,4.26a64.55,64.55,0,0,1,5.59,10.55c.66,1.74,1.46,4,.85,5.89-1.54,4.71-5.79,2.6-7.81.93a18.15,18.15,0,0,1-3-3.43c-2.76-3.84-5.57-7.71-8.18-11.66a.75.75,0,0,0-1.29.76c2.07,4.84,4,10.7,7.56,14.68,2.51,2.79,8.2,7.09,12.25,5.66,4.5-1.58,4.06-8.89,3.2-12.5-1.53-6.41-6.14-10.81-10.25-15.67-.62-.74-1.68.33-1.06,1.06Z" transform="translate(-1320.98 -432.3)"/><path class="cls-2" d="M1357.86,456.22c.9-7,1-17.84-8.44-18.84a6.33,6.33,0,0,0-6.66,3.47c-1.7,3.71.16,7.75,2.53,10.66,3.29,4,6.8,7.48,9.23,12.2a120,120,0,0,1,5.89,14.78c3.08,8.66,6.62,16.89,13.58,23.15,3.55,3.19,7.51,5.92,10.93,9.26a23.67,23.67,0,0,1,7.11,13.85c.78,4.61,1.74,8.57,5,12,2.91,3,6.65,5.14,10,7.64a21.31,21.31,0,0,1,8.51,12.66c1.08,4.28,1.58,8.87,3.92,12.71,2.23,3.68,5.93,5.51,9.49,7.67,5.62,3.43,8.16,8.64,10.57,14.54,7.16,17.51,19.31,31.19,32.28,44.67,6.75,7,13.59,14,19.7,21.6,6,7.45,12.42,16.31,15,25.63a7.74,7.74,0,0,1,.21,4.44c-1.25,4.22-6,1.89-8.14-.13a52.68,52.68,0,0,1-6.25-7.79,150.21,150.21,0,0,1-8.79-14.36c-5.94-10.79-11.63-21.68-18.09-32.19-13.25-21.56-28.14-42.08-42.7-62.76q-22.54-32-44.91-64.13c-14-20.17-28.66-40.27-39-62.66-1.82-3.94-3.44-8.78-7.53-11-2.84-1.51-6.51-1.42-8.64,1.22-6.08,7.55,5.52,15.88,9.79,20.57,8.63,9.48,15.71,20.31,23.08,30.77l22.27,31.62c29.19,41.45,58.42,82.94,85.18,126q10,16.07,19.45,32.45c2.93,5.07,5.57,10.41,8.86,15.26,2.08,3.08,4.64,6.17,8.11,7.73,7,3.16,13.54-2.18,15.15-9,2.27-9.63-5.61-17.9-10.6-25.21-10.54-15.45-22.91-29-35.84-42.43a144.54,144.54,0,0,1-14.43-16.92c-4.79-6.84-8.17-14.2-11.54-21.8-4.45-10-14.51-16.28-18.69-26.56-1.71-4.2-3.09-8.14-6-11.69s-6.3-6.23-9.56-9.24c-3.79-3.49-7.33-7.32-8.91-12.35s-1.66-10.31-4.83-14.8c-2.62-3.72-6.27-6.49-9.7-9.4A92.27,92.27,0,0,1,1373,487.88c-7.47-9.07-13.63-19.85-15.09-31.66-.12-.94-1.62-1-1.5,0,1.21,9.84,5.51,18.91,11.15,27,5.83,8.33,13.11,14.71,20.62,21.44a24,24,0,0,1,8.16,13.84c1,4.67,2,8.84,4.93,12.71,5.19,6.89,13.33,11.2,17.68,18.78,2.51,4.39,3.52,9.33,6.37,13.58a119.61,119.61,0,0,0,9.15,11.31c6.12,7.06,8.68,15.72,13.23,23.74,6.89,12.15,16.68,21.87,26.29,31.85,6,6.25,11.82,12.67,17.24,19.44q5.61,7,10.71,14.45c3,4.37,6.42,8.67,9,13.32,2.73,4.9,3.72,10.63.81,15.7-3.28,5.71-9.85,6.45-14.73,2.24-3.81-3.29-6.15-8-8.59-12.29q-4.56-8.09-9.27-16.08c-24.52-41.66-51.74-81.64-79.43-121.23q-21.12-30.18-42.39-60.25c-6.55-9.3-12.89-18.84-20.18-27.59-3.75-4.49-8.41-8.27-12-12.86-2.14-2.76-3.73-7-.93-9.93,3.71-3.85,8.57.33,10.59,3.82,2.78,4.81,4.74,10.14,7.33,15.06s5.5,10,8.48,14.82c6.08,9.92,12.69,19.5,19.32,29.05q21.46,30.9,43.1,61.66c14.1,20.08,28.54,40,42,60.45,6.52,9.9,12.77,20,18.52,30.35,5.38,9.72,10.18,19.8,16.44,29,2.57,3.78,11.08,17.73,17.13,11.52,4.78-4.91-2.44-15.81-5-20.23-9.11-15.65-22.58-28.1-34.87-41.19-6.45-6.87-12.72-14-17.89-21.9a84.66,84.66,0,0,1-6.45-11.64c-2-4.55-3.53-9.46-6.34-13.63-2.4-3.55-5.61-5.62-9.24-7.76-5.28-3.11-7.74-6.93-9.14-12.85-.94-4-1.54-8.2-3.64-11.82-1.9-3.3-4.9-5.68-8-7.85-3.7-2.62-8-5-10.46-9-2.83-4.52-2.24-10.08-4.16-14.93-3.17-8-11.25-12.51-17.33-18.09-7.59-7-10.75-16.39-14.12-25.82A86.19,86.19,0,0,0,1355.3,462c-2.12-3.91-4.9-7-7.84-10.25-2.18-2.45-4.73-5.93-3.64-9.45,1.31-4.24,6.15-4,9.17-1.94,5,3.39,4,10.7,3.37,15.88-.12,1,1.38.95,1.5,0Z" transform="translate(-1320.98 -432.3)"/></svg>