<svg id="Calque_1" data-name="Calque 1" xmlns="http://www.w3.org/2000/svg" viewBox="0 0 322.99 37.64"><defs><style>.cls-1{fill:#683c11;}.cls-2{fill:#1d1d1b;}.cls-3{fill:#432918;}</style></defs><title>barrette3</title><path class="cls-1" d="M1293.63,555.75c-3.44-3.26-7.24-6.7-12-7.2s-10.08,3.73-8.75,8.28c.85,2.9,4,4.6,7,4.93s6-.38,9-.65c15.76-1.41,30.78,9.21,46.53,7.69,10.06-1,20.07-6.83,29.69-3.76,4,1.28,7.55,4.07,11.7,4.9,8.69,1.74,17-5.46,25.85-4.82,7.7.55,14.42,7,22.09,6.13,4.4-.48,8.19-3.31,12.49-4.36,6-1.47,12.26.7,18.3,2.08,35.62,8.14,73.55-10.8,108.88-1.49,3.14.83,6.86,2.75,6.65,6s-4.34,4.7-7.65,5c-13.78,1.29-27.57-1.31-41.28-3.1-27.76-3.62-55.82-3.94-83.81-4.33q-51-.7-101.91-1.77c-21.87-.46-43.89-1-65.3-5.45-2.9-.6-5.89-1.28-8.79-.71s-5.73,2.76-6,5.71c-.27,3.28,2.74,6.08,5.94,6.83s6.55,0,9.79-.54c11.11-1.92,22.46-1.76,33.73-1.59l49.6.73c67.61,1,135.35,2,202.49,9.92,6.83.8,15.24,1,18.85-4.88,3.43-5.56-.36-13.28-6.11-16.37s-12.64-2.34-19.17-2.6c-53.6-2.12-66.64,11.87-104.34,2.34-7.22-1.83-14.89.19-22.33.28a45.86,45.86,0,0,1-8.53-.42c-3.2-.56-6.26-1.79-9.48-2.29-11-1.68-22.26,5.38-33,2.4-4.17-1.15-7.84-3.77-12.06-4.72-6.14-1.38-12.42.91-18.56,2.29-15.62,3.52-35.75,3.51-49.64-4.46" transform="translate(-1255.87 -547.79)"/><path class="cls-2" d="M1294.16,555.22c-5.09-4.79-13-10.94-19.64-5-5.46,4.94-.92,11.46,5.31,12.23,5,.61,10.09-1.06,15.17-.64,5.62.46,11.07,2.09,16.45,3.68,9.21,2.73,18.37,5.29,28,3.42,5.77-1.12,11.34-3.36,17.21-3.92,6.21-.59,10.58,1.85,16,4.26,9,4,16.35-1.37,25.1-3,10-1.93,17.5,6.88,27.22,5.73,5.49-.65,10-4.41,15.54-4.79,5.87-.4,11.68,1.93,17.37,3,21.45,4.15,43.2-.81,64.52-3.3,10.6-1.24,21.37-1.95,32-.61a73.33,73.33,0,0,1,8.59,1.58,17.92,17.92,0,0,1,3.93,1.29c2.29,1.17,4.1,4.07,2.28,6.29s-5.9,2.32-8.61,2.47a92.46,92.46,0,0,1-9.27,0c-12-.51-23.83-2.81-35.74-4.15-12.44-1.4-24.94-2.18-37.45-2.67-25-1-50-1-75-1.39-25.15-.41-50.3-.81-75.44-1.44-12.4-.3-24.81-.79-37.13-2.18q-9.69-1.1-19.22-3c-3.83-.78-8.06-1.75-11.71.2-6.53,3.49-4,11.43,2.48,13.08,5.14,1.3,11.13-.82,16.25-1.39a161.37,161.37,0,0,1,17.58-.81c24.51,0,49,.65,73.55,1,50.08.76,100.2,1.79,150.14,5.9q18.43,1.53,36.81,3.64c6.75.78,16.27,1.87,20.7-4.67,3.89-5.76.39-13.45-4.86-17-3.74-2.55-8.34-3.17-12.77-3.34-5.44-.21-10.92-.29-16.37-.35-16.85-.17-33.35,1.88-50,4.19-14.44,2-28.5,2.37-42.81-.89a48.67,48.67,0,0,0-15.69-1.21c-6.24.54-12.63,1.38-18.85.21-5.21-1-9.72-2.76-15.13-2.33-4.85.38-9.56,1.75-14.34,2.6-6.93,1.24-12.36.24-18.73-2.65a23.66,23.66,0,0,0-13.78-2.23c-4.94.7-9.71,2.32-14.61,3.2a91.67,91.67,0,0,1-15.5,1.44c-10.25.08-20.71-1.58-29.76-6.6-.84-.47-1.6.83-.76,1.3,15.83,8.78,35.78,8.12,52.86,3.9,5.53-1.36,11.11-2.93,16.77-1.32,5.06,1.44,9.22,4.57,14.6,5.06,10.35.94,20.18-4.91,30.55-2.82,4.78,1,9,2.42,14,2.5,6.13.09,12.18-1.08,18.3-1.06,8.14,0,16.24,3.09,24.4,3.79,12.61,1.06,25-.92,37.48-2.67,18.16-2.56,36-2.84,54.28-2.62,5.28.06,11,.16,15.42,3.44,4.2,3.12,7.3,9.38,4.28,14.32-5.18,8.44-20.77,4.18-28.5,3.34-47.11-5.07-94.5-6.91-141.85-7.91-23.59-.5-47.18-.8-70.77-1.14-11.61-.17-23.22-.4-34.82-.5-5.64-.06-11.29,0-16.91.36s-11.19,1.85-16.79,2.12c-3.42.17-8.09-.72-9.19-4.66-1.3-4.66,3.93-6.86,7.57-6.87,6,0,12.34,2.18,18.28,3a325.79,325.79,0,0,0,34.33,2.84c23.79.89,47.62,1.09,71.43,1.5,47.71.82,95.63-.1,143,6.44,10.54,1.46,21.84,3.28,32.46,1.65,5-.77,10.81-5.51,5.19-10.08-2.7-2.2-6.61-2.78-9.91-3.41a90.49,90.49,0,0,0-15.39-1.52c-10-.18-19.93,1-29.81,2.33-10.68,1.44-21.35,3.14-32.13,3.69A111.41,111.41,0,0,1,1450.6,567c-4.41-1-9-1.88-13.48-.8-4.95,1.18-9.16,4.67-14.45,4.39-8.84-.48-15.42-7.54-24.69-5.88-4.63.83-8.88,3-13.43,4.11-6.2,1.51-10.3-.51-15.77-3.09-8.75-4.11-17.11-1.27-26,.95-10.87,2.73-20.49.55-31-2.56a97.09,97.09,0,0,0-14.26-3.44c-4.72-.65-9.1-.08-13.79.33-3,.26-6.53.16-8.82-2.18-3-3.11-.88-7.07,2.42-8.69,5.94-2.93,11.68,2.38,15.7,6.17.7.66,1.77-.4,1.06-1.06Z" transform="translate(-1255.87 -547.79)"/><path class="cls-3" d="M1280.1,548.91c-1,2.75.71,5.92,3.2,7.48s5.54,1.89,8.46,2.24,6,.79,8.36,2.5l-6.37-.6a18.49,18.49,0,0,0-3.24-.12c-1,.09-2.08.36-3.13.54a18.34,18.34,0,0,1-8-.39c-2.3-.64-4.63-1.88-5.61-4.06a5.1,5.1,0,0,1,.75-5.3,4.67,4.67,0,0,1,5.15-1.25" transform="translate(-1255.87 -547.79)"/><path class="cls-3" d="M1279.38,548.71c-3.06,11.41,14.86,9.66,20.36,13.07l.38-1.4c-4-.38-7.89-.93-11.9-.35a19.4,19.4,0,0,1-8.61-.19c-1.32-.4-3.31-1.07-4.14-2.23-2.34-3.22-.49-8.23,4-6.93a.75.75,0,0,0,.4-1.45c-6.41-1.84-9.61,6.15-4.74,10.11,2.89,2.35,7.32,2.87,10.89,2.54,2.06-.19,4-.8,6.08-.72,2.66.09,5.34.47,8,.72.78.08,1-1,.38-1.4-2.72-1.68-5.62-2.19-8.74-2.6-4.64-.61-12.7-2.2-10.94-8.77a.75.75,0,0,0-1.44-.4Z" transform="translate(-1255.87 -547.79)"/><path class="cls-3" d="M1262.56,563.75c-.35,1.7.26,2.79,1.23,4.22,1.78,2.61,5.23,3.57,8.39,3.51s6.26-.92,9.41-1.1c4.79-.29,9.52,1,14.15,2.28a77.3,77.3,0,0,0-23,1.63,36,36,0,0,1-7.18,1.24,9.31,9.31,0,0,1-6.73-2.28c-1.74-1.7-2.39-4.63-1-6.65,1-1.57,3-2.27,4.76-2.85" transform="translate(-1255.87 -547.79)"/><path class="cls-3" d="M1261.81,563.75c-.39,5,4.31,8,8.78,8.41,3.7.34,7.32-.83,11-1,4.76-.27,9.4,1,14,2.26l.2-1.48a80.29,80.29,0,0,0-20.36,1.08c-3.2.59-6.54,1.8-9.82,1.79-2.18,0-4.59-.43-6.2-2.06q-3.1-3.24.43-7a13.39,13.39,0,0,1,3-1.26c.91-.31.52-1.76-.4-1.45-3.09,1.05-6.28,2.74-6,6.5.23,3.29,2.87,5.56,5.9,6.38,4.45,1.2,9.19-.67,13.53-1.47a78.61,78.61,0,0,1,20-1c.85.06,1-1.25.2-1.47-5.41-1.49-10.73-2.8-16.37-2.11-5,.61-17,2.88-16.26-6.08.07-1-1.43-1-1.5,0Z" transform="translate(-1255.87 -547.79)"/><path class="cls-3" d="M1316.88,565.48c13.59,2,27.36-1.43,41.09-1.68-9.8.41-19.1,6.52-28.8,5-4-.61-7.8-2.5-11.85-2.5l1.06-.26" transform="translate(-1255.87 -547.79)"/><path class="cls-3" d="M1316.68,566.2c13.82,1.87,27.49-1.29,41.29-1.65v-1.5c-6.51.42-12.5,2.91-18.8,4.37a25.91,25.91,0,0,1-11.78.29c-3.4-.75-6.56-2-10.07-2.12l.2,1.47,1.06-.26c.94-.23.54-1.67-.4-1.44l-1.06.26a.75.75,0,0,0,.2,1.47c4,.2,7.69,1.87,11.65,2.47a25.42,25.42,0,0,0,8.21-.21c7-1.2,13.6-4.33,20.79-4.8,1-.06,1-1.52,0-1.5-13.64.35-27.23,3.55-40.89,1.7-.94-.12-1.35,1.32-.4,1.45Z" transform="translate(-1255.87 -547.79)"/><path class="cls-3" d="M1368.77,565.88a24.6,24.6,0,0,0,6.13,1.59c5.54.63,11-1,16.48-2.2s11.31-2,16.43.2c-4.1-1.25-8.49-2.51-12.59-1.25-2.75.84-5,2.73-7.66,3.93a16.6,16.6,0,0,1-16.67-1.88" transform="translate(-1255.87 -547.79)"/><path class="cls-3" d="M1368.57,566.6c5.89,2.17,11.5,1.93,17.55.64,7.16-1.52,14.32-3.78,21.49-1l.4-1.44c-5.81-1.76-11-2.67-16.51.34-3.4,1.85-6.33,3.66-10.33,3.74a16.31,16.31,0,0,1-9.9-3.21c-.79-.56-1.54.74-.76,1.3a17.62,17.62,0,0,0,15.19,2.72c2.79-.82,5-2.58,7.63-3.84,4.72-2.3,9.54-1,14.28.39.94.29,1.29-1.1.4-1.44-5.52-2.1-11.19-1.43-16.83-.21-7.62,1.66-14.59,3.42-22.21.62-.91-.34-1.3,1.11-.4,1.44Z" transform="translate(-1255.87 -547.79)"/><path class="cls-3" d="M1414.87,568.09c1.43,1,3.35.85,5.08.57,4.86-.78,9.61-2.25,14.5-2.91s10.08-.47,14.42,1.87c-4.58-1.45-9.64-2.61-14.08-.78-2.28.93-4.22,2.6-6.53,3.47-4.46,1.69-9.54.15-13.59-2.38" transform="translate(-1255.87 -547.79)"/><path class="cls-3" d="M1414.49,568.74c4.07,2.1,9.41-.08,13.56-1,6.83-1.51,13.89-2.69,20.44.54l.58-1.37c-4.73-1.46-9.88-2.66-14.66-.71-3.32,1.35-5.79,3.86-9.59,4.07-3.5.19-6.82-1.23-9.77-3a.75.75,0,0,0-.75,1.29c4.24,2.51,9.3,4.2,14.16,2.46,2.75-1,4.92-3.08,7.76-3.91,4.13-1.2,8.48,0,12.45,1.22.8.24,1.35-1,.58-1.37-4.68-2.31-9.68-2.66-14.8-2-2.74.36-5.43,1-8.12,1.59-3.3.74-7.87,2.51-11.08.85-.86-.44-1.61.85-.76,1.3Z" transform="translate(-1255.87 -547.79)"/><path class="cls-3" d="M1547.42,565c4.33-.28,9.67-1.22,13.93-.42s8.47,2.79,11.06,6.27c.9,1.21,1.61,2.78,1.08,4.19a4.66,4.66,0,0,1-1.51,1.88,17.77,17.77,0,0,1-14.92,3.75c-2.92-.61-8-1.55-10.86-2.23,3.1.18,8.5,0,11.59.14,3.83.22,8,.34,11.07-2a4.67,4.67,0,0,0,1.87-2.87c.29-1.92-1.14-3.68-2.73-4.79-4.89-3.43-20.62-3.45-20.58-3.88" transform="translate(-1255.87 -547.79)"/><path class="cls-3" d="M1547.42,565.71c4.7-.35,9.58-1.29,14.26-.33,3.88.78,14.5,5.31,9.77,11-3.09,3.7-9.86,4.32-14.19,3.56-3.63-.63-7.26-1.42-10.86-2.24l-.2,1.48c3.24.14,6.47,0,9.7.07,3,.06,6.08.46,9.06-.19,4.19-.91,8.71-4.78,5.3-9.11-2.67-3.39-7.72-4-11.68-4.56-2.19-.31-4.38-.51-6.58-.69-.77-.06-4-.15-4-.24-.69-.67-1.75.39-1.06,1.06s3.11.53,4.1.6a80,80,0,0,1,11.33,1.44,16.25,16.25,0,0,1,4.83,1.65q2.64,1.13.82,4.12c.61,2.38-.16,3.71-2.31,4a15.59,15.59,0,0,1-5,.58c-4.81,0-9.7,0-14.51-.24a.75.75,0,0,0-.19,1.47c5.11,1.16,10.85,3,16.14,2.55,3.75-.32,11.35-2.52,12.16-7s-5-8.15-8.39-9.56c-6-2.46-12.24-1.36-18.5-.89-1,.07-1,1.57,0,1.5Z" transform="translate(-1255.87 -547.79)"/><path class="cls-2" d="M1294.16,555.31c-5.09-4.79-13-10.94-19.64-4.95-5.46,4.94-.92,11.46,5.31,12.23,5,.61,10.09-1.06,15.17-.64,5.62.46,11.07,2.09,16.45,3.68,9.21,2.73,18.37,5.29,28,3.42,5.77-1.12,11.34-3.36,17.21-3.92,6.21-.59,10.58,1.85,16,4.26,9,4,16.35-1.37,25.1-3,10-1.93,17.5,6.88,27.22,5.73,5.49-.65,10-4.41,15.54-4.79,5.87-.4,11.68,1.93,17.37,3,21.45,4.15,43.2-.81,64.52-3.3,10.6-1.23,21.37-2,32-.61a73.33,73.33,0,0,1,8.59,1.58,17.92,17.92,0,0,1,3.93,1.29c2.29,1.17,4.1,4.07,2.28,6.29s-5.9,2.32-8.61,2.47a92.46,92.46,0,0,1-9.27,0c-12-.51-23.83-2.81-35.74-4.15-12.44-1.39-24.94-2.18-37.45-2.67-25-1-50-1-75-1.39-25.15-.41-50.3-.81-75.44-1.43-12.4-.31-24.81-.8-37.13-2.19q-9.69-1.1-19.22-3c-3.83-.78-8.06-1.75-11.71.2-6.53,3.49-4,11.43,2.48,13.08,5.14,1.3,11.13-.82,16.25-1.39a161.37,161.37,0,0,1,17.58-.81c24.51,0,49,.65,73.55,1,50.08.76,100.2,1.79,150.14,5.9q18.43,1.53,36.81,3.64c6.75.78,16.27,1.87,20.7-4.67,3.89-5.76.39-13.45-4.86-17-3.74-2.55-8.34-3.17-12.77-3.34-5.44-.21-10.92-.29-16.37-.35-16.85-.17-33.35,1.88-50,4.19-14.44,2-28.5,2.37-42.81-.89a48.67,48.67,0,0,0-15.69-1.21c-6.24.54-12.63,1.38-18.85.21-5.21-1-9.72-2.76-15.13-2.33-4.85.39-9.56,1.75-14.34,2.6-6.93,1.24-12.36.24-18.73-2.65a23.66,23.66,0,0,0-13.78-2.23c-4.94.7-9.71,2.32-14.61,3.2a91.67,91.67,0,0,1-15.5,1.44c-10.25.08-20.71-1.58-29.76-6.6-.84-.47-1.6.83-.76,1.3,15.83,8.78,35.78,8.12,52.86,3.9,5.53-1.36,11.11-2.93,16.77-1.32,5.06,1.44,9.22,4.57,14.6,5.06,10.35.94,20.18-4.91,30.55-2.82,4.78,1,9,2.42,14,2.5,6.13.09,12.18-1.08,18.3-1.06,8.14,0,16.24,3.09,24.4,3.79,12.61,1.06,25-.92,37.48-2.67,18.16-2.56,36-2.84,54.28-2.62,5.28.06,11,.16,15.42,3.44,4.2,3.12,7.3,9.38,4.28,14.32-5.18,8.44-20.77,4.18-28.5,3.34-47.11-5.07-94.5-6.91-141.85-7.91-23.59-.49-47.18-.8-70.77-1.14-11.61-.17-23.22-.4-34.82-.5-5.64,0-11.29,0-16.91.36s-11.19,1.85-16.79,2.12c-3.42.17-8.09-.71-9.19-4.66-1.3-4.66,3.93-6.86,7.57-6.87,6,0,12.34,2.18,18.28,3a325.79,325.79,0,0,0,34.33,2.84c23.79.89,47.62,1.09,71.43,1.5,47.71.82,95.63-.1,143,6.44,10.54,1.46,21.84,3.28,32.46,1.65,5-.77,10.81-5.51,5.19-10.08-2.7-2.2-6.61-2.78-9.91-3.41a90.49,90.49,0,0,0-15.39-1.52c-10-.18-19.93,1-29.81,2.33-10.68,1.44-21.35,3.14-32.13,3.69a111.41,111.41,0,0,1-31.77-3.16c-4.41-1-9-1.88-13.48-.8-4.95,1.18-9.16,4.67-14.45,4.39-8.84-.47-15.42-7.54-24.69-5.88-4.63.83-8.88,3-13.43,4.11-6.2,1.51-10.3-.51-15.77-3.09-8.75-4.11-17.11-1.27-26,1-10.87,2.73-20.49.55-31-2.56a97.09,97.09,0,0,0-14.26-3.44c-4.72-.65-9.1-.08-13.79.33-3,.26-6.53.16-8.82-2.18-3-3.11-.88-7.07,2.42-8.69,5.94-2.93,11.68,2.38,15.7,6.17.7.66,1.77-.4,1.06-1.06Z" transform="translate(-1255.87 -547.79)"/></svg>