<svg id="Calque_1" data-name="Calque 1" xmlns="http://www.w3.org/2000/svg" viewBox="0 0 321.81 49.57"><defs><style>.cls-1{fill:#683c11;}.cls-2{fill:#1d1d1b;}.cls-3{fill:#432918;}</style></defs><title>barrette1</title><path class="cls-1" d="M1543.09,565.88c3.78,2.86,7.93,5.86,12.67,5.84s9.61-4.81,7.79-9.19c-1.16-2.8-4.47-4.14-7.5-4.13s-6,1-8.91,1.64c-15.52,3.13-31.61-5.77-47.1-2.54-9.89,2.07-19.2,9-29.1,7-4.16-.83-7.94-3.21-12.17-3.58-8.82-.78-16.31,7.29-25.16,7.63-7.71.29-15.1-5.36-22.63-3.68-4.32,1-7.78,4.2-11.93,5.71-5.84,2.12-12.26.66-18.42-.05-36.3-4.19-71.92,18.81-108.06,13.43-3.21-.48-7.12-2-7.26-5.23s3.79-5.14,7-5.81c13.55-2.8,27.54-1.73,41.37-1.45,28,.55,55.91-2.22,83.77-4.9q50.73-4.89,101.49-9.43c21.79-1.95,43.73-3.86,65.51-1.76,2.94.28,6,.63,8.81-.25s5.4-3.38,5.32-6.34c-.08-3.29-3.38-5.74-6.65-6.14s-6.5.7-9.67,1.61c-10.83,3.13-22.12,4.22-33.34,5.29l-49.39,4.72c-67.3,6.44-134.75,12.89-202.36,12.38-6.87,0-15.25.7-18.2,6.91-2.79,5.9,1.83,13.16,7.88,15.61s12.82.93,19.33.47c53.51-3.77,64.94-19.12,103.46-13.78,7.38,1,14.78-1.82,22.16-2.73a46,46,0,0,1,8.52-.52c3.25.2,6.43,1.09,9.68,1.23,11.11.47,21.54-7.79,32.51-6,4.27.69,8.21,2.88,12.51,3.36,6.25.7,12.24-2.26,18.19-4.31,15.14-5.21,35.15-7.41,49.83-1" transform="translate(-1257.43 -541.7)"/><path class="cls-2" d="M1542.71,566.52c5.69,4.29,15,9.69,20.56,2,4.77-6.65-3.11-11.42-9.15-10.72-5.39.62-10.31,2.34-15.84,2.15-5.76-.2-11.41-1.4-17.06-2.39-10.37-1.82-19.63-2-29.58,1.8-5,1.91-10,4.22-15.41,4.68-5.86.51-10.45-2.69-16-3.67-9.1-1.6-16.12,5.78-24.64,7.23-9.63,1.63-18.22-6.65-27.82-2.39-5.72,2.53-9.84,5.86-16.48,5.72-5.48-.11-10.88-1.36-16.36-1.58-21.32-.88-41.84,6.38-62.37,11-10.84,2.42-21.93,4.2-33.06,3.58a42.74,42.74,0,0,1-8.07-.93,9.55,9.55,0,0,1-3.52-1.45,3.71,3.71,0,0,1,.41-6.29c4.75-3,12.06-2.93,17.48-3.23,12-.67,24,.31,36,.29,12.52,0,25-.65,37.51-1.57,24.94-1.83,49.82-4.54,74.72-6.88s49.58-4.68,74.38-6.78c12.36-1,24.74-1.91,37.15-1.84,6.07,0,12.14.29,18.18.84,4.2.38,9,1.06,12.58-1.66,5.79-4.36,2.1-11.6-4.27-12.49-5.13-.71-10.51,1.91-15.42,3a161.57,161.57,0,0,1-18.57,2.94c-24.41,2.68-48.91,4.74-73.36,7.06-50,4.75-100,9.23-150.24,10.58-12.42.33-24.84.38-37.27.38-6.53,0-15.6.45-18.84,7.29-3.15,6.63,2.09,14.13,8.23,16.66,4.55,1.88,9.6,1.51,14.38,1,5.57-.54,11.16-.92,16.73-1.54,16.21-1.83,31.81-5.74,47.6-9.68,13.86-3.45,27.58-5.07,41.83-3.38a47,47,0,0,0,15.2-.62c6.13-1.22,12.43-2.82,18.72-2.25,5.42.49,10.2,1.66,15.66.55,4.93-1,9.58-3,14.43-4.33a27.13,27.13,0,0,1,16.83.47c4.7,1.57,9,2.43,13.88,1.37,5.28-1.13,10.21-3.55,15.38-5.07a90.52,90.52,0,0,1,16.22-3.26c9.92-1,20.14-.43,29.42,3.45.89.37,1.28-1.08.4-1.45-17.17-7.18-37.17-3.82-54.07,2.41-5.89,2.18-11.47,3.89-17.74,2.11-4.59-1.3-8.74-3.09-13.59-2.79-9.59.59-18.12,6.57-27.84,6.21-5.8-.21-10.9-1.56-16.78-.88-5.61.64-11,2.29-16.66,2.9-8,.88-16.38-1.28-24.52-1.09-12.54.3-24.56,3.54-36.63,6.63-7.36,1.88-14.76,3.62-22.24,5-10.26,1.83-20.56,2.63-30.92,3.66-5.59.55-11.8,1.35-16.88-1.66-4.72-2.8-8.48-9.24-5.29-14.51,2.64-4.36,8.39-5.32,13-5.6,5.3-.32,10.66,0,16-.07,47.73-.2,95.38-3.67,142.9-7.94,23.6-2.12,47.18-4.42,70.77-6.68,11.52-1.1,23.06-2.1,34.57-3.34,5-.54,9.93-1.17,14.85-2.08,2.54-.47,5.06-1,7.56-1.65,3.49-.9,7.12-2.48,10.78-2.42,3.9.07,9.15,3.24,6.69,7.86-1.61,3-5.22,3.74-8.32,3.76-5.82,0-11.7-.94-17.54-1.11a334.39,334.39,0,0,0-35,1.09c-23.76,1.78-47.48,4.17-71.2,6.38-47.1,4.39-94.17,10.45-141.55,9.15-10.61-.29-22.11-.88-32.44,2-4.65,1.28-9.93,6.41-4.22,10.38,2.65,1.85,6.21,2.08,9.31,2.38a88.31,88.31,0,0,0,16.34,0c9.83-.89,19.48-3.07,29-5.45,20.78-5.16,41.1-10.75,62.69-7.9,4.06.53,8.22,1.05,12.29.24,5.31-1.07,9.23-5.29,14.47-6.41,4.87-1.05,9.64,1,14.23,2.36,4.25,1.24,8.4,1.82,12.72.57,3.68-1,7-3,10.49-4.53a23.78,23.78,0,0,1,8-2.35c3.29-.23,6.27,1,9.29,2.06a23.87,23.87,0,0,0,12.1,1.63c4.91-.72,9.47-2.79,14.06-4.54a43.07,43.07,0,0,1,14.31-3.25c5.73-.16,11.41.89,17,1.91a115.92,115.92,0,0,0,13.62,1.92c5.17.3,9.76-.59,14.77-1.66,2.91-.62,6.1-1.05,8.79.58,4.37,2.65,2.44,7.72-1.24,9.71-5.57,3-11.56-1.55-15.85-4.78-.77-.58-1.52.72-.76,1.29Z" transform="translate(-1257.43 -541.7)"/><path class="cls-3" d="M1557.29,571.19c.74-2.85-1.36-5.81-4-7.08s-5.71-1.28-8.65-1.3-6-.13-8.58-1.57l6.4-.1a18.35,18.35,0,0,0,3.23-.24c1-.21,2-.59,3-.88a18.51,18.51,0,0,1,8-.49c2.35.38,4.81,1.37,6,3.42a5.06,5.06,0,0,1-.16,5.35,4.67,4.67,0,0,1-5,1.81" transform="translate(-1257.43 -541.7)"/><path class="cls-3" d="M1558,571.39c1.67-11.87-15.53-7.91-21.58-10.8l-.38,1.4c4-.06,8,.17,11.87-.93a20.22,20.22,0,0,1,7.45-.94,11.27,11.27,0,0,1,4.83,1.39c3.44,2.26,2.51,8.71-2.43,7.87-.94-.16-1.35,1.29-.39,1.45a5.62,5.62,0,0,0,4.41-10c-2.82-2.29-7.21-2.53-10.64-2-2.27.33-4.37,1.27-6.64,1.53-2.78.32-5.67.18-8.46.22-.7,0-1.08,1.06-.38,1.4a19.82,19.82,0,0,0,8.33,1.66c4.68.1,13.57.3,12.57,7.44-.14.94,1.31,1.35,1.44.4Z" transform="translate(-1257.43 -541.7)"/><path class="cls-3" d="M1573.1,554.51c.15-1.73-.57-2.74-1.69-4-2.06-2.4-5.59-3-8.73-2.58s-6.11,1.61-9.23,2.14c-4.73.8-9.57,0-14.31-.72a77.25,77.25,0,0,0,22.68-4.15,36.58,36.58,0,0,1,7-2,9.34,9.34,0,0,1,6.94,1.53c1.91,1.5,2.88,4.34,1.75,6.5-.87,1.67-2.69,2.58-4.41,3.35" transform="translate(-1257.43 -541.7)"/><path class="cls-3" d="M1573.85,554.51c0-4.73-4.75-7.39-9-7.49-3.29-.08-6.42,1.1-9.57,1.85-5.33,1.26-10.57.55-15.9-.3l-.2,1.48a80.31,80.31,0,0,0,20.29-3.34c3.39-1,6.84-2.77,10.43-2.92,2.46-.1,5.24.53,6.63,2.82,2.07,3.39-1,5.93-3.77,7.25-.88.41-.12,1.7.75,1.29,3-1.39,5.89-3.43,5.15-7.18-.64-3.24-3.56-5.17-6.66-5.59-4.89-.66-9.67,2-14.24,3.27a78.9,78.9,0,0,1-18.58,2.9c-.8,0-1.07,1.33-.2,1.47,5.33.85,10.69,1.61,16,.46,2.91-.63,5.76-1.8,8.76-1.94,3.7-.18,8.58,1.49,8.61,6a.75.75,0,0,0,1.5,0Z" transform="translate(-1257.43 -541.7)"/><path class="cls-3" d="M1518.91,558.76c-13.73-.52-27,4.42-40.66,6.18,9.7-1.48,18.27-8.58,28.08-8.17,4,.16,8,1.63,12.05,1.18l-1,.37" transform="translate(-1257.43 -541.7)"/><path class="cls-3" d="M1518.91,558c-13.93-.35-27.19,4.34-40.86,6.21l.4,1.44c6.5-1.14,12.22-4.38,18.41-6.49a25.28,25.28,0,0,1,10.14-1.6c3.85.29,7.49,1.37,11.38,1.13l-.2-1.47-1,.37c-.9.33-.51,1.78.4,1.45l1-.38c.74-.27.7-1.52-.2-1.47-3.88.24-7.55-.87-11.38-1.13a25.6,25.6,0,0,0-9.43,1.28c-6.61,2.07-12.63,5.65-19.52,6.87-1,.17-.53,1.57.4,1.44,13.54-1.84,26.67-6.5,40.46-6.15a.75.75,0,0,0,0-1.5Z" transform="translate(-1257.43 -541.7)"/><path class="cls-3" d="M1467.29,564.06a24.17,24.17,0,0,0-6.27-.9c-5.57,0-10.87,2.19-16.14,4s-11,3.22-16.35,1.6c4.21.8,8.72,1.56,12.66-.13,2.64-1.14,4.71-3.28,7.18-4.76a16.58,16.58,0,0,1,16.77,0" transform="translate(-1257.43 -541.7)"/><path class="cls-3" d="M1467.49,563.33c-6.11-1.51-11.6-.7-17.52,1.25-6.92,2.29-13.81,5.38-21.24,3.45l-.4,1.44c5.6,1,11,1.62,15.89-1.74,2.84-1.93,5.23-4.06,8.67-4.91a16.17,16.17,0,0,1,11.88,1.73c.84.47,1.6-.83.75-1.3a17.71,17.71,0,0,0-15.35-1.12c-2.9,1.19-5.05,3.44-7.74,5-4.33,2.47-9,1.79-13.7.92-.93-.18-1.34,1.2-.4,1.44,5.73,1.49,11.26.25,16.75-1.6,7.39-2.48,14.11-5,22-3.09a.75.75,0,0,0,.4-1.45Z" transform="translate(-1257.43 -541.7)"/><path class="cls-3" d="M1421.23,566.92c-1.54-.84-3.43-.47-5.11,0-4.75,1.32-9.31,3.29-14.09,4.49s-10,1.58-14.54-.28c4.7,1,9.86,1.54,14.08-.76,2.16-1.18,3.91-3.05,6.11-4.18,4.24-2.16,9.47-1.19,13.76.88" transform="translate(-1257.43 -541.7)"/><path class="cls-3" d="M1421.43,566.2c-4.53-1.74-10.19,1.51-14.45,2.93-6.32,2.1-12.82,3.62-19.29,1.27l-.4,1.44c4.65.9,9.69,1.58,14.12-.58,2.74-1.33,4.77-3.73,7.66-4.81,4-1.5,8.22-.45,12,1.26.87.39,1.64-.9.76-1.3-4.37-2-9.4-3.17-14-1.11-3.13,1.4-5.33,4.18-8.65,5.25-3.72,1.21-7.77.56-11.5-.15a.75.75,0,0,0-.4,1.44c4.88,1.78,10,1.51,14.94.28,3-.75,6-1.85,9-2.86s6.68-2.83,9.84-1.61c.9.34,1.29-1.11.4-1.45Z" transform="translate(-1257.43 -541.7)"/><path class="cls-3" d="M1289.82,584.59c-4.27.75-9.47,2.27-13.8,1.95s-8.72-1.85-11.68-5c-1-1.1-1.9-2.59-1.53-4a4.73,4.73,0,0,1,1.29-2,17.81,17.81,0,0,1,14.42-5.37c3,.29,8.07.67,11,1-3.1.16-8.44,1-11.53,1.13-3.84.2-8,.55-10.78,3.24a4.66,4.66,0,0,0-1.55,3.06c-.08,1.94,1.54,3.54,3.24,4.47,5.24,2.86,20.88,1.16,20.88,1.59" transform="translate(-1257.43 -541.7)"/><path class="cls-3" d="M1289.63,583.87c-4.48.83-9,2.22-13.61,1.92a18.55,18.55,0,0,1-7.57-2.09c-1-.56-3-1.62-3.58-2.71l-.24-5a10.63,10.63,0,0,1,1.62-1.45c6.69-5.38,15.44-3.57,23.31-2.67v-1.5c-3.23.21-6.43.7-9.65,1-3,.27-6.11.2-9,1.16-3.83,1.28-7.93,5.16-4.8,9.17,2.56,3.27,7.51,3.52,11.29,3.71,2.52.12,5,.08,7.55,0,.71,0,3.9-.59,4.49-.15.77.58,1.52-.72.75-1.3-1-.75-3.74-.1-4.87-.06a72.4,72.4,0,0,1-10.92-.24,14.47,14.47,0,0,1-5.09-1.29q-3.63-1.67-1.54-6.35a6.69,6.69,0,0,1,2.59-1.64,16.49,16.49,0,0,1,5.32-1.22c4.61-.45,9.25-1,13.87-1.29a.75.75,0,0,0,0-1.5c-5.23-.6-11.12-1.78-16.32-.73-3.7.74-10.4,3.58-11.18,7.85-.85,4.61,5.57,7.88,9.09,8.94,6.35,1.92,12.58.08,18.87-1.1,1-.17.55-1.62-.39-1.44Z" transform="translate(-1257.43 -541.7)"/><path class="cls-2" d="M1542.7,566.43c5.69,4.29,15,9.69,20.56,2,4.77-6.65-3.11-11.42-9.15-10.72-5.39.62-10.31,2.34-15.84,2.15-5.76-.2-11.41-1.4-17.06-2.39-10.37-1.82-19.63-2-29.58,1.8-5,1.91-10,4.22-15.41,4.68-5.86.51-10.45-2.69-16-3.67-9.1-1.6-16.12,5.78-24.64,7.23-9.63,1.63-18.22-6.65-27.82-2.39-5.72,2.53-9.84,5.86-16.48,5.72-5.48-.11-10.88-1.36-16.36-1.58-21.32-.88-41.84,6.38-62.37,11-10.84,2.42-21.93,4.2-33.06,3.58a42.74,42.74,0,0,1-8.07-.93,9.55,9.55,0,0,1-3.52-1.45,3.71,3.71,0,0,1,.41-6.29c4.75-3,12.06-2.93,17.48-3.23,12-.67,24,.31,36,.29,12.52,0,25-.65,37.51-1.57,24.94-1.83,49.82-4.54,74.72-6.88s49.58-4.68,74.38-6.78c12.36-1.05,24.74-1.91,37.15-1.84,6.07,0,12.14.29,18.18.84,4.2.38,9,1.06,12.58-1.66,5.79-4.36,2.1-11.6-4.27-12.49-5.13-.71-10.51,1.91-15.42,3a161.57,161.57,0,0,1-18.57,2.94c-24.41,2.68-48.91,4.74-73.36,7.06-50,4.75-100,9.23-150.24,10.58-12.42.33-24.84.38-37.27.38-6.53,0-15.6.45-18.84,7.29-3.15,6.63,2.09,14.13,8.23,16.66,4.55,1.88,9.6,1.51,14.38,1,5.57-.54,11.16-.92,16.73-1.54,16.21-1.83,31.81-5.74,47.6-9.68,13.86-3.45,27.58-5.07,41.83-3.38a47,47,0,0,0,15.2-.62c6.13-1.22,12.43-2.82,18.72-2.25,5.42.49,10.2,1.66,15.66.55,4.93-1,9.58-3,14.43-4.33A27.13,27.13,0,0,1,1468,570c4.7,1.57,9,2.43,13.88,1.37,5.28-1.13,10.21-3.55,15.38-5.07a89.64,89.64,0,0,1,16.22-3.25c9.92-1.05,20.14-.44,29.42,3.44.89.37,1.28-1.08.4-1.45-17.17-7.18-37.17-3.82-54.07,2.41-5.89,2.18-11.47,3.89-17.74,2.11-4.59-1.29-8.74-3.09-13.59-2.79-9.59.59-18.12,6.57-27.84,6.21-5.8-.21-10.9-1.56-16.78-.88-5.61.64-11,2.29-16.66,2.9-8,.88-16.38-1.28-24.52-1.09-12.53.3-24.56,3.54-36.63,6.63-7.36,1.88-14.76,3.62-22.24,5-10.26,1.83-20.56,2.63-30.92,3.66-5.59.55-11.8,1.35-16.88-1.66-4.72-2.8-8.48-9.24-5.29-14.51,2.64-4.36,8.39-5.32,13.05-5.6,5.3-.32,10.66,0,16-.07,47.73-.2,95.38-3.67,142.9-7.94,23.6-2.12,47.18-4.42,70.77-6.68,11.52-1.1,23.06-2.1,34.57-3.34,5-.54,9.93-1.17,14.85-2.08,2.54-.47,5.06-1,7.56-1.65,3.49-.9,7.12-2.48,10.78-2.42,3.9.07,9.15,3.25,6.69,7.86-1.61,3-5.22,3.75-8.32,3.76-5.82,0-11.7-.94-17.54-1.11a334.39,334.39,0,0,0-35,1.09c-23.76,1.79-47.48,4.17-71.2,6.38-47.1,4.39-94.17,10.45-141.55,9.15-10.61-.29-22.11-.88-32.44,2-4.65,1.28-9.93,6.41-4.22,10.38,2.65,1.85,6.21,2.08,9.31,2.38a88.31,88.31,0,0,0,16.34-.05c9.83-.88,19.48-3.07,29-5.45,20.78-5.16,41.1-10.75,62.69-7.9,4.06.53,8.22,1.05,12.29.24,5.31-1.07,9.23-5.28,14.47-6.41,4.87-1,9.64,1,14.23,2.36,4.25,1.24,8.4,1.82,12.72.57,3.68-1.05,7-3,10.49-4.53a23.78,23.78,0,0,1,8-2.35c3.29-.23,6.27,1,9.29,2.06a23.87,23.87,0,0,0,12.1,1.63c4.91-.72,9.47-2.79,14.06-4.54a43.07,43.07,0,0,1,14.31-3.25c5.73-.16,11.41.89,17,1.91a115.92,115.92,0,0,0,13.62,1.92c5.17.3,9.76-.59,14.77-1.66,2.91-.62,6.1-1,8.79.58,4.37,2.65,2.44,7.72-1.24,9.71-5.57,3-11.56-1.55-15.85-4.78-.77-.58-1.52.72-.76,1.29Z" transform="translate(-1257.43 -541.7)"/></svg>