<svg id="Calque_1" data-name="Calque 1" xmlns="http://www.w3.org/2000/svg" viewBox="0 0 247.55 219.29"><defs><style>.cls-1{fill:#683c11;}.cls-2{fill:#1d1d1b;}.cls-3{fill:#432918;}</style></defs><title>barrette2</title><path class="cls-1" d="M1502.55,658.9c.51,4.71,1.18,9.79,4.44,13.23s10.09,3.69,12-.64c1.24-2.76,0-6.09-2.13-8.29s-4.84-3.61-7.31-5.36c-12.92-9.14-17.48-27-30.46-36-8.28-5.77-19.71-7.8-25.06-16.37-2.24-3.6-3.1-8-5.73-11.31-5.49-7-16.49-6.87-22.81-13.08-5.51-5.41-6.46-14.66-12.85-19-3.66-2.48-8.39-2.78-12.34-4.77-5.54-2.79-8.88-8.47-12.59-13.44-21.85-29.28-63-39.44-83.89-69.42-1.85-2.67-3.44-6.54-1.18-8.87s6.34-.77,9.07,1.15c11.33,7.93,20.15,18.85,29.43,29.1,18.79,20.75,40,39.17,61,57.61q38.34,33.55,76.47,67.38c16.36,14.52,32.79,29.18,46.21,46.46,1.81,2.34,3.65,4.8,6.23,6.25s6.16,1.61,8.26-.48c2.34-2.31,1.85-6.4-.1-9s-5-4.25-7.8-5.93c-9.71-5.73-18.25-13.21-26.72-20.64l-37.32-32.7c-50.84-44.56-101.79-89.22-147.79-138.77-4.68-5-11-10.61-17.52-8.5-6.21,2-8.32,10.35-5.95,16.44s8.11,10,12.91,14.39c39.45,36.35,58.46,34.14,81,65.84,4.32,6.06,11.46,9.5,17.19,14.25a45.89,45.89,0,0,1,6.22,5.84c2.08,2.51,3.62,5.43,5.75,7.89,7.27,8.41,20.44,10.33,26.66,19.54,2.43,3.58,3.53,8,6.13,11.41,3.78,5,10,7.35,15.62,10.28,14.17,7.44,29.5,20.5,34.91,35.57" transform="translate(-1294.48 -456.18)"/><path class="cls-2" d="M1501.8,658.9c.76,6.83,2.63,16.39,11.29,16.57,8.31.16,8.53-9,3.52-13.59-3.64-3.35-8.15-5.42-11.63-9a80.54,80.54,0,0,1-9.09-12.08c-4.75-7.28-9.48-14.93-16.83-19.89-8-5.42-19.43-7.4-24.64-16.31-2.4-4.11-3.32-9-6.87-12.4-2.81-2.71-6.53-4.19-10.12-5.57-4.94-1.91-10-3.76-13.21-8.21-2.69-3.72-4.08-8.2-6.57-12a16.72,16.72,0,0,0-9.11-7c-2.8-1-5.7-1.54-8.34-2.94a22.85,22.85,0,0,1-6.69-6c-3.2-3.95-5.91-8.24-9.29-12.06a98.36,98.36,0,0,0-10.32-10,214.36,214.36,0,0,0-22.58-16.08c-16.58-10.63-34.54-21-46.2-37.34a20.5,20.5,0,0,1-1.78-2.81c-.36-.71-1.5-3.65-.92-4.61.43-.72,4.23-2.17,4.93-2.13,2.9.17,6.42,3.69,8.5,5.37a127.22,127.22,0,0,1,12.62,12.06c8.28,8.88,16.14,18.1,24.7,26.72,17.71,17.83,36.83,34.19,55.72,50.74q30,26.28,59.85,52.73c18.61,16.48,37.83,32.69,53.49,52.12,2.74,3.4,5.33,7.84,9.57,9.55,2.94,1.18,6.75.9,8.72-1.85,5.49-7.71-6-13.71-11-16.83-10.79-6.78-20.2-15.55-29.75-23.92l-29.63-26c-38.24-33.51-76.55-67-112.87-102.63q-13.66-13.39-26.91-27.22c-4.23-4.43-8.26-9.12-12.68-13.36-3.07-2.95-6.81-5.95-11.17-6.55-7.83-1.06-12.49,6.34-12,13.4.64,9.56,10.27,15.71,16.74,21.52,13.94,12.53,29.24,22.71,45,32.77a136.55,136.55,0,0,1,17.92,13.15c6.5,5.82,11.15,12.78,16.84,19.29,3.28,3.77,7.59,6.47,11.63,9.33a50.39,50.39,0,0,1,13.06,12.74c5.4,7.91,12.94,11.13,20.9,15.92a26,26,0,0,1,10.66,11.15c2.18,4.52,4,8.66,8.14,11.78,3.62,2.75,7.87,4.48,11.87,6.58a91.37,91.37,0,0,1,13.75,8.88c8.86,6.9,16.82,15.59,20.82,26.24.34.89,1.79.5,1.45-.4-7-18.48-23.9-30.19-40.78-38.78-4.84-2.47-9.08-5.33-11.68-10.25-2.15-4.07-3.61-8.3-6.94-11.61-6.3-6.27-15.43-8.45-22-14.35-3.67-3.28-5.72-7.85-9.09-11.39a73.79,73.79,0,0,0-11.36-9.17,50.14,50.14,0,0,1-12.27-11.56,111.82,111.82,0,0,0-7.19-8.78c-9.54-10.45-21.38-17.77-33.22-25.28-16.69-10.59-33-22.67-46.91-36.76-4-4.06-6.83-9.21-5.56-15.07,1.35-6.21,7-9.52,13-7,5.4,2.28,9.3,7.21,13.22,11.39q6.32,6.72,12.73,13.34c33.77,34.77,69.75,67.29,106.1,99.33q27.83,24.53,55.76,48.92c8.52,7.47,16.9,15.2,26.11,21.82,4.45,3.2,10.19,5.55,14.11,9.38,2.34,2.28,4.36,6.8,1.54,9.61-3.29,3.27-8.14.28-10.6-2.31-3.83-4-7-8.74-10.68-12.92s-7.69-8.39-11.72-12.4c-8.4-8.38-17.26-16.27-26.13-24.15q-28.15-25-56.44-49.82c-18.4-16.17-37.09-32.06-55-48.81-8.85-8.28-17.47-16.82-25.65-25.77-7.45-8.17-14.48-16.77-22.78-24.12-3.41-3-14.3-13.53-18.45-6.19-1.81,3.18.6,7.13,2.41,9.67a78.89,78.89,0,0,0,8.39,9.86c12.89,13,29.15,21.86,44.28,31.88a148.44,148.44,0,0,1,22.27,17.36,87.53,87.53,0,0,1,9.71,11.34c2.54,3.52,5,7.22,8.51,9.91,4,3.09,8.84,3.51,13.29,5.59,5,2.32,7.12,7.09,9.41,11.75,1.73,3.54,3.62,7,6.78,9.49,3,2.33,6.6,3.64,10.11,5,4.84,1.87,9.63,3.89,12.39,8.56,2.35,4,3.28,8.49,6.42,12,5.8,6.54,14.87,8.62,22,13.17,8.21,5.19,13.1,13.8,18.34,21.7a76.67,76.67,0,0,0,7.79,10.23c3.11,3.3,6.75,5.44,10.37,8.1,3.17,2.34,6.61,6.72,3.69,10.66-1.46,2-4.77,1.9-6.84,1.27-6-1.82-6.9-9.41-7.48-14.67-.1-.95-1.6-1-1.5,0Z" transform="translate(-1294.48 -456.18)"/><path class="cls-3" d="M1508.43,672.87c2.58-1.41,3.3-5,2.4-7.77s-3-5-5-7.18-4-4.47-4.75-7.33l4.46,4.59a18.31,18.31,0,0,0,2.39,2.19c.86.61,1.82,1.07,2.73,1.61a18.33,18.33,0,0,1,5.82,5.47c1.34,2,2.31,4.44,1.64,6.72a5.07,5.07,0,0,1-4,3.55,4.65,4.65,0,0,1-4.73-2.38" transform="translate(-1294.48 -456.18)"/><path class="cls-3" d="M1508.81,673.52c9.83-6.78-5-16.84-7-23.12l-1.25.72c3,3,5.61,6.09,9.27,8.25a18,18,0,0,1,6,5.46c1.05,1.6,2.47,4.18,1.56,6.14-1.41,3-5.16,4.31-7.36,1-.53-.8-1.83-.05-1.3.76,3.47,5.2,10.92,2.14,10.29-4-.38-3.61-3.26-6.93-6-9.06-1.85-1.44-4-2.33-5.79-3.9-2-1.77-3.77-3.82-5.62-5.73a.75.75,0,0,0-1.25.73,19.43,19.43,0,0,0,4.56,7.25c3.12,3.45,9,10.15,3.11,14.19-.79.54,0,1.84.76,1.29Z" transform="translate(-1294.48 -456.18)"/><path class="cls-3" d="M1531.41,672.93c1.36-1.06,1.6-2.28,1.79-4,.33-3.15-1.67-6.11-4.11-8.12s-5.37-3.35-7.89-5.25c-3.83-2.89-6.6-6.94-9.29-10.91a77.12,77.12,0,0,0,18.57,13.66,35.8,35.8,0,0,1,6.27,3.71,9.37,9.37,0,0,1,3.65,6.1c.22,2.42-1.18,5.07-3.52,5.73-1.82.51-3.73-.19-5.47-.92" transform="translate(-1294.48 -456.18)"/><path class="cls-3" d="M1531.94,673.46c4.12-3.93,1.37-10-2.32-13.18-2.72-2.31-6.08-3.71-8.83-6-3.34-2.79-5.81-6.44-8.23-10l-1.18.91a79.78,79.78,0,0,0,16.47,12.54c3,1.72,6.65,3,9.15,5.53,1.86,1.85,3.35,4.64,2.25,7.26-1.42,3.37-4.86,2.81-7.64,1.7-.9-.36-1.29,1.09-.4,1.45,3.25,1.29,7,1.83,9-1.63,1.58-2.67.91-5.85-.81-8.26-2.84-3.95-7.91-5.61-12-8a78,78,0,0,1-15-11.66c-.59-.58-1.67.18-1.18.91,2.76,4.06,5.6,8.18,9.56,11.18,2.47,1.86,5.36,3.14,7.74,5.13,3,2.56,5.88,7.66,2.32,11.06-.7.67.36,1.73,1.06,1.06Z" transform="translate(-1294.48 -456.18)"/><path class="cls-3" d="M1491.15,636.42c-9-10.35-21.76-16.64-32.39-25.35,7.74,6,18.78,7.41,25.21,14.82,2.65,3.06,4.32,7,7.4,9.59l-1-.49" transform="translate(-1294.48 -456.18)"/><path class="cls-3" d="M1491.68,635.89c-9.24-10.34-21.71-16.72-32.38-25.35l-.91,1.18c5.33,4,11.7,5.92,17.53,9a25.26,25.26,0,0,1,8.2,6.56c2.3,2.91,4,6.15,6.72,8.7l.91-1.18-1-.49c-.87-.43-1.63.86-.76,1.3l1,.49c.73.36,1.57-.57.91-1.18-2.86-2.66-4.56-6.14-7-9.12a25.59,25.59,0,0,0-7.26-5.86c-6.06-3.43-12.85-5.33-18.48-9.55-.67-.5-1.57.65-.91,1.18,10.67,8.63,23.15,15,32.39,25.35.64.72,1.7-.34,1.06-1.06Z" transform="translate(-1294.48 -456.18)"/><path class="cls-3" d="M1451.89,602.49a24.34,24.34,0,0,0-3.65-5.18c-3.8-4.07-9-6.41-14-9s-9.91-5.82-12.38-10.81c2.31,3.61,4.84,7.42,8.77,9.12,2.65,1.14,5.62,1.19,8.39,2a16.57,16.57,0,0,1,11.48,12.23" transform="translate(-1294.48 -456.18)"/><path class="cls-3" d="M1452.53,602.11c-3.22-5.72-7.91-9.22-13.62-12.24-6.21-3.29-12.87-6.28-16.37-12.74l-1.3.75c3.27,5.08,6.61,9.21,12.76,10.47,3.32.68,6.46,1.11,9.33,3.08a16.27,16.27,0,0,1,6.48,9.59.75.75,0,0,0,1.44-.4,17.66,17.66,0,0,0-9.87-12c-2.81-1.23-5.87-1.29-8.77-2.14-4.79-1.41-7.5-5.37-10.07-9.36a.75.75,0,0,0-1.3.75c2.8,5.17,7.58,8.38,12.65,11.07,6.89,3.67,13.36,6.83,17.35,13.92.47.84,1.77.08,1.29-.76Z" transform="translate(-1294.48 -456.18)"/><path class="cls-3" d="M1418.21,570.93c-.44-1.69-2-2.81-3.5-3.72-4.21-2.56-8.78-4.52-12.93-7.18s-8-6.17-9.77-10.77c2.54,4.07,5.65,8.23,10.21,9.72,2.35.77,4.91.76,7.23,1.59,4.49,1.6,7.36,6.07,8.81,10.61" transform="translate(-1294.48 -456.18)"/><path class="cls-3" d="M1418.93,570.73c-1.87-4.57-8.09-6.49-12.11-8.66-5.85-3.15-11.45-6.86-14.16-13.19l-1.3.76c2.55,4,5.54,8.14,10.15,9.87,3.12,1.17,6.59.88,9.52,2.64,3.36,2,5.27,5.64,6.5,9.23.31.91,1.76.52,1.45-.4-1.55-4.53-4.19-9-8.82-10.92-3.28-1.34-6.91-1-10-2.87s-5.48-5.18-7.47-8.31a.75.75,0,0,0-1.3.76,24.5,24.5,0,0,0,9.09,10.41,78.85,78.85,0,0,0,8,4.57c2.91,1.53,7.7,3.23,9,6.51.36.88,1.82.5,1.45-.4Z" transform="translate(-1294.48 -456.18)"/><path class="cls-3" d="M1315.23,487.43c-3.48-2.6-8.16-5.34-10.89-8.71s-4.64-7.61-4.36-11.94c.1-1.5.58-3.16,1.89-3.89a4.8,4.8,0,0,1,2.37-.46,17.81,17.81,0,0,1,13.8,6.81c1.82,2.37,5,6.34,6.82,8.74-2.24-2.14-6.5-5.47-8.74-7.61-2.77-2.66-5.91-5.48-9.75-5.62a4.65,4.65,0,0,0-3.28,1c-1.47,1.27-1.52,3.54-1,5.42,1.51,5.78,13.47,16,13.17,16.29" transform="translate(-1294.48 -456.18)"/><path class="cls-3" d="M1315.6,486.78c-3.67-2.68-7.75-5-10.67-8.57-2.7-3.28-7.94-13.84-.69-15,4.36-.72,9.81,2.65,12.54,5.72s5,6.28,7.43,9.46l1.18-.91c-2.37-2.2-4.92-4.2-7.34-6.34-2.25-2-4.33-4.3-7-5.74-3.56-1.91-9.2-2.21-10,2.83-.61,4.11,2.6,7.86,5.06,10.75,1.64,1.92,3.39,3.73,5.17,5.51.52.52,3.14,2.81,3.16,3,.1.95,1.6,1,1.5,0-.14-1.23-2-2.5-2.84-3.28a74.23,74.23,0,0,1-7.94-8.78,14.28,14.28,0,0,1-2.42-4.43c-.71-1.64-.16-2.84,1.67-3.6.9-1.86,2.22-2.35,3.94-1.49a14.66,14.66,0,0,1,5,3.07c3.67,3.1,7.37,6.31,10.89,9.59.59.55,1.71-.2,1.17-.91-3.07-4.11-6.18-9.08-10.31-12.19-3.15-2.38-10.53-5.76-14.19-2.78s-1.37,9.73.39,13c3,5.64,8.45,8.78,13.46,12.44.78.57,1.53-.73.75-1.3Z" transform="translate(-1294.48 -456.18)"/><path class="cls-2" d="M1501.86,658.83c.76,6.83,2.63,16.4,11.29,16.57,8.31.17,8.52-9,3.51-13.59-3.63-3.35-8.14-5.42-11.62-9A80.54,80.54,0,0,1,1496,640.7c-4.75-7.28-9.48-14.92-16.83-19.89-8-5.42-19.43-7.4-24.64-16.31-2.4-4.11-3.32-9-6.87-12.4-2.81-2.71-6.53-4.19-10.12-5.57-4.94-1.91-10-3.76-13.21-8.21-2.7-3.72-4.08-8.2-6.57-12a16.8,16.8,0,0,0-9.11-7c-2.8-1-5.7-1.54-8.34-2.94a22.83,22.83,0,0,1-6.69-6c-3.2-4-5.92-8.25-9.29-12.07a98.46,98.46,0,0,0-10.33-10,213.2,213.2,0,0,0-22.57-16.08c-16.59-10.63-34.55-21-46.2-37.34a21,21,0,0,1-1.78-2.8c-.36-.72-1.5-3.66-.93-4.62.44-.72,4.24-2.17,4.93-2.13,2.91.17,6.43,3.69,8.5,5.37a126.24,126.24,0,0,1,12.63,12.06c8.28,8.88,16.14,18.1,24.69,26.72,17.71,17.83,36.84,34.19,55.73,50.74q30,26.29,59.85,52.73c18.61,16.48,37.83,32.69,53.48,52.12,2.75,3.4,5.34,7.84,9.58,9.55,2.94,1.18,6.75.9,8.72-1.85,5.49-7.7-6-13.71-11-16.82-10.79-6.79-20.2-15.56-29.75-23.93l-29.63-26c-38.25-33.51-76.55-67-112.87-102.63q-13.66-13.4-26.91-27.22c-4.23-4.43-8.26-9.12-12.68-13.36-3.08-2.95-6.81-5.95-11.17-6.54-7.83-1.07-12.49,6.33-12,13.39.64,9.56,10.28,15.71,16.75,21.52,13.94,12.53,29.24,22.71,45,32.77a136.65,136.65,0,0,1,17.93,13.15c6.5,5.82,11.15,12.79,16.83,19.29,3.29,3.77,7.6,6.47,11.64,9.33a50.55,50.55,0,0,1,13.06,12.74c5.4,7.91,12.94,11.13,20.9,15.92a26,26,0,0,1,10.66,11.16c2.18,4.51,4,8.65,8.14,11.77,3.61,2.75,7.87,4.48,11.87,6.58a92.16,92.16,0,0,1,13.75,8.88c8.86,6.9,16.82,15.59,20.82,26.24.34.89,1.79.5,1.45-.4-6.95-18.48-23.91-30.19-40.78-38.78-4.84-2.47-9.08-5.32-11.68-10.25-2.15-4.06-3.61-8.3-6.94-11.61-6.31-6.27-15.43-8.45-22-14.35-3.66-3.28-5.71-7.85-9.08-11.39a73.79,73.79,0,0,0-11.36-9.17,49.78,49.78,0,0,1-12.27-11.56,111.94,111.94,0,0,0-7.2-8.78c-9.54-10.44-21.37-17.77-33.22-25.28-16.68-10.59-33-22.67-46.9-36.76-4-4.06-6.83-9.21-5.56-15.07,1.35-6.21,7-9.51,13-7,5.41,2.28,9.31,7.21,13.23,11.39q6.32,6.73,12.73,13.34c33.77,34.77,69.75,67.29,106.1,99.33q27.81,24.54,55.76,48.92c8.52,7.47,16.9,15.2,26.11,21.82,4.45,3.2,10.18,5.55,14.11,9.38,2.34,2.28,4.36,6.81,1.54,9.61-3.29,3.28-8.14.28-10.61-2.31-3.82-4-7-8.74-10.67-12.92s-7.69-8.39-11.72-12.4c-8.4-8.37-17.26-16.27-26.13-24.14q-28.15-25-56.44-49.83c-18.4-16.17-37.1-32.06-55-48.81-8.85-8.28-17.47-16.82-25.65-25.77-7.45-8.16-14.49-16.77-22.78-24.12-3.41-3-14.3-13.53-18.46-6.19-1.8,3.18.61,7.13,2.42,9.67a78.89,78.89,0,0,0,8.39,9.86c12.89,13,29.15,21.86,44.28,31.88a148.44,148.44,0,0,1,22.27,17.36,87.53,87.53,0,0,1,9.71,11.34c2.54,3.52,5,7.22,8.5,9.91,4,3.1,8.85,3.51,13.3,5.59,5,2.32,7.12,7.09,9.4,11.76,1.74,3.53,3.63,7,6.79,9.48,3,2.33,6.6,3.64,10.1,5,4.85,1.87,9.64,3.89,12.4,8.57,2.34,4,3.28,8.48,6.42,12,5.8,6.54,14.87,8.62,22,13.17,8.21,5.19,13.1,13.81,18.34,21.7a76.67,76.67,0,0,0,7.79,10.23c3.11,3.31,6.75,5.44,10.37,8.1,3.17,2.34,6.61,6.72,3.68,10.66-1.45,2-4.76,1.91-6.83,1.28-6-1.83-6.9-9.42-7.48-14.68-.1-1-1.6-1-1.5,0Z" transform="translate(-1294.48 -456.18)"/></svg>