<svg xmlns="http://www.w3.org/2000/svg" viewBox="0 0 1054.92 1133.86"><defs><style>.cls-1{fill:none;}.cls-2{fill:#e30613;}.cls-3{fill:#1d1d1b;}.cls-4{opacity:0.69;}.cls-5{fill:#951417;}</style></defs><title>CAMcoeur</title><g id="fond_transparent" data-name="fond transparent"><rect class="cls-1" width="1054.92" height="1133.86"/></g><g id="Coeur"><path class="cls-2" d="M415.86,278.94c2.78-4.09,7.14-8.13,8.48-12.63,1-3.33,1.53-7-.29-10a5.76,5.76,0,0,0-2.61-2.4,4.8,4.8,0,0,0-3.91,0c-1.37.68-3,3.29-3.13,5.53-.85-2.4-2.95-5-5.15-4.8a6.26,6.26,0,0,0-5.06,3.1,6,6,0,0,0-.44,3.2,13.2,13.2,0,0,0,.79,3.1C406,268.32,412.35,272.93,415.86,278.94Z"/><path class="cls-3" d="M416.51,279.32c4.36-6.24,11.94-13.22,8.94-21.76-1-2.77-3.47-5.1-6.58-4.76s-4.93,3.75-5.22,6.66l1.48-.2c-1-2.54-3-5.52-6.08-5.32a6.33,6.33,0,0,0-6.09,6.21c0,3.27,1.64,6.15,3.66,8.6,2.89,3.53,6.21,6.64,8.59,10.57.5.82,1.8.07,1.3-.76-2.7-4.45-6.67-7.8-9.7-12-1.5-2.07-3-5.26-2.19-7.85a4.73,4.73,0,0,1,5.06-3.14c2.09.31,3.25,2.18,4,4.06a.75.75,0,0,0,1.47-.2,7,7,0,0,1,2.07-4.38c1.82-1.57,4.55-.58,5.83,1.15,2,2.64,1.6,6.1.79,9.1-1.41,5.2-5.63,8.94-8.63,13.23C414.66,279.35,416,280.1,416.51,279.32Z"/><g class="cls-4"><path class="cls-5" d="M409.85,255.08a8.9,8.9,0,0,1,2.91,4.31,7.7,7.7,0,0,0,.92,1.89c-.1-.45.57-1.38.72-1.82.08-.21-.46,0-.46-.19a1.45,1.45,0,0,0-.11-.5,6.64,6.64,0,0,0-3.82-3.83"/><path class="cls-5" d="M409.72,255.3c2.12,1.55,2.38,4.06,3.74,6.11a.26.26,0,0,0,.47-.13c0-.65.94-1.42.65-2a.29.29,0,0,0-.22-.13c-.31,0-.34-.55-.45-.82a6.94,6.94,0,0,0-.91-1.47,7.18,7.18,0,0,0-2.92-2.13c-.3-.12-.43.36-.14.48a6.56,6.56,0,0,1,2.59,1.86,5.63,5.63,0,0,1,1.06,1.8,1.75,1.75,0,0,0,.15.58,2,2,0,0,1,.22.19c.24.36.15-.38.07.07s-.6,1-.6,1.6l.47-.13c-1.44-2.14-1.71-4.66-3.92-6.28-.26-.19-.51.24-.26.43Z"/></g><g class="cls-4"><path class="cls-5" d="M418.58,253.82a8.08,8.08,0,0,1,4.18,6.58,14.19,14.19,0,0,1-1.88,7.81,17.19,17.19,0,0,1-7.11,7.34,4.61,4.61,0,0,1,2,3.28,14.94,14.94,0,0,1,2.87-4,54.57,54.57,0,0,0,4.36-6.18,14.92,14.92,0,0,0,2.1-4.18,10.65,10.65,0,0,0,.19-3.94,9.52,9.52,0,0,0-1.92-5.11,5,5,0,0,0-4.93-1.78"/><path class="cls-5" d="M418.45,254c9,5,1.77,17.71-4.81,21.29a.26.26,0,0,0-.05.4,4.89,4.89,0,0,1,1.94,3.16.25.25,0,0,0,.46.06c1.43-3.05,4.23-5.55,6.09-8.39,1.54-2.36,3.3-4.74,3.53-7.64.34-4.34-1.89-10.51-7.24-9.51-.32.06-.18.54.13.48,4.72-.88,6.7,4.46,6.64,8.24-.06,3.29-2,5.89-3.72,8.53a70.65,70.65,0,0,1-5.09,6.6c-.51.59-.16.84-.55.54.16.12-.77-1.51-.44-1-.62-1-1.21-.91-.17-1.82,3.43-3,6.27-6,7.46-10.54,1.07-4.15,0-8.68-3.93-10.87a.25.25,0,0,0-.25.43Z"/></g><path class="cls-3" d="M416.51,279.32c4.36-6.24,11.94-13.22,8.94-21.76-1-2.77-3.47-5.1-6.58-4.76s-4.93,3.75-5.22,6.66l1.48-.2c-1-2.54-3-5.52-6.08-5.32a6.33,6.33,0,0,0-6.09,6.21c0,3.27,1.64,6.15,3.66,8.6,2.89,3.53,6.21,6.64,8.59,10.57.5.82,1.8.07,1.3-.76-2.7-4.45-6.67-7.8-9.7-12-1.5-2.07-3-5.26-2.19-7.85a4.73,4.73,0,0,1,5.06-3.14c2.09.31,3.25,2.18,4,4.06a.75.75,0,0,0,1.47-.2,7,7,0,0,1,2.07-4.38c1.82-1.57,4.55-.58,5.83,1.15,2,2.64,1.6,6.1.79,9.1-1.41,5.2-5.63,8.94-8.63,13.23C414.66,279.35,416,280.1,416.51,279.32Z"/></g></svg>