<svg id="coeur" xmlns="http://www.w3.org/2000/svg" viewBox="0 0 26.01 30.11"><defs><style>.cls-1{fill:#e30613;}.cls-2{fill:#1d1d1b;}.cls-3{opacity:0.69;}.cls-4{fill:#951417;}</style></defs><title>coeur</title><path class="cls-1" d="M392.18,115.3c3.82-4.18,9.42-8,11.67-12.92,1.67-3.61,2.87-7.63,1.31-11.35a6.64,6.64,0,0,0-2.57-3.14,5.53,5.53,0,0,0-4.43-.65c-1.66.55-4,3.23-4.44,5.76-.58-2.86-2.53-6.12-5.05-6.28a7.15,7.15,0,0,0-6.24,2.68,6.83,6.83,0,0,0-1,3.55,15.67,15.67,0,0,0,.38,3.65C382.78,101.67,389.19,107.92,392.18,115.3Z" transform="translate(-380.65 -85.96)"/><path class="cls-2" d="M392.71,115.83c5.93-6.35,15-12.38,13.84-22.37-.38-3.36-2.55-6.64-6.11-7.11-3.83-.51-6.63,3.06-7.45,6.45h1.45c-.72-3-2.59-6.74-6.15-6.84a7.13,7.13,0,0,0-7.56,6.15c-.49,4,1.17,7.64,3.25,10.92,2.64,4.16,5.62,8.07,7.55,12.65.38.88,1.67.12,1.3-.76-2.41-5.7-6.71-10.25-9.35-15.79-1.49-3.12-2.46-8.21.83-10.5,1.72-1.19,4.29-1.72,6-.36A8.65,8.65,0,0,1,393,93.2a.76.76,0,0,0,1.45,0c1-4.19,5.64-7.69,9.09-3.42,2.51,3.1,1.63,7.44.28,10.83-2.39,6-7.9,9.6-12.16,14.16C391,115.47,392.05,116.54,392.71,115.83Z" transform="translate(-380.65 -85.96)"/><g class="cls-3"><path class="cls-4" d="M389.28,87.3a10.09,10.09,0,0,1,2.58,5.34,9.1,9.1,0,0,0,.74,2.3c0-.52.88-1.47,1.12-1.94.12-.23-.54,0-.49-.29a1.67,1.67,0,0,0-.05-.59,7.61,7.61,0,0,0-3.7-5" transform="translate(-380.65 -85.96)"/><path class="cls-4" d="M389.1,87.47c2.16,2.14,2,5,3.28,7.6a.26.26,0,0,0,.46-.06c.11-.71,1.29-1.51,1.09-2.18a.27.27,0,0,0-.18-.18c-.33-.05-1.09-2.66-1.41-3.15A8.12,8.12,0,0,0,389.61,87a.25.25,0,0,0-.26.43A7.54,7.54,0,0,1,393,92.83a.39.39,0,0,0,.35.27c0,.5-.91,1.17-1,1.78l.46-.06c-1.27-2.64-1.15-5.51-3.37-7.7-.23-.23-.58.13-.35.35Z" transform="translate(-380.65 -85.96)"/></g><g class="cls-3"><path class="cls-4" d="M399.37,87.3A9.24,9.24,0,0,1,403,95.43a16.14,16.14,0,0,1-3.41,8.54,19.74,19.74,0,0,1-9.25,7.15,5.29,5.29,0,0,1,1.72,4,17.46,17.46,0,0,1,3.91-4,63.1,63.1,0,0,0,5.95-6.28,17.41,17.41,0,0,0,3.06-4.39,12,12,0,0,0,.86-4.43,10.9,10.9,0,0,0-1.33-6.11,5.67,5.67,0,0,0-5.3-2.82" transform="translate(-380.65 -85.96)"/><path class="cls-4" d="M399.24,87.52c9.45,7.11-1,20.44-8.94,23.36a.24.24,0,0,0-.11.41,5.52,5.52,0,0,1,1.65,3.87.25.25,0,0,0,.47.12c1.2-1.85,2.92-3.09,4.51-4.57a57.57,57.57,0,0,0,4.17-4.39c2-2.27,4.11-4.51,4.81-7.54,1.09-4.74-.36-12.27-6.56-12-.32,0-.33.52,0,.5,5.18-.27,6.71,5.42,6.33,9.59s-2.91,6.78-5.5,9.69a71.93,71.93,0,0,1-7.22,7.07c-.92.78-.31,1-.81-.44-.23-.67-1.18-1.53-.84-2.17s2.84-1.43,3.49-1.89a21.11,21.11,0,0,0,3.06-2.61,21.58,21.58,0,0,0,4.44-6.58c1.88-4.5,1.39-9.83-2.69-12.91-.26-.19-.51.24-.26.44Z" transform="translate(-380.65 -85.96)"/></g><path class="cls-2" d="M392.71,115.83c5.93-6.35,15-12.38,13.84-22.37-.38-3.36-2.55-6.64-6.11-7.11-3.83-.51-6.63,3.06-7.45,6.45h1.45c-.72-3-2.59-6.74-6.15-6.84a7.13,7.13,0,0,0-7.56,6.15c-.49,4,1.17,7.64,3.25,10.92,2.64,4.16,5.62,8.07,7.55,12.65.38.88,1.67.12,1.3-.76-2.41-5.7-6.71-10.25-9.35-15.79-1.49-3.12-2.46-8.21.83-10.5,1.72-1.19,4.29-1.72,6-.36A8.65,8.65,0,0,1,393,93.2a.76.76,0,0,0,1.45,0c1-4.19,5.64-7.69,9.09-3.42,2.51,3.1,1.63,7.44.28,10.83-2.39,6-7.9,9.6-12.16,14.16C391,115.47,392.05,116.54,392.71,115.83Z" transform="translate(-380.65 -85.96)"/></svg>