<svg id="Calque_1" data-name="Calque 1" xmlns="http://www.w3.org/2000/svg" viewBox="0 0 3650.01 64.44"><defs><style>.cls-1{fill:#1d1d1b;}.cls-2{fill:#fff;stroke:#1d1d1b;stroke-miterlimit:10;stroke-width:0.5px;}.cls-3{fill:#f6f6f6;}.cls-4{opacity:0.38;}.cls-5{opacity:0.14;}.cls-6{fill:#df8380;}.cls-7{opacity:0.6;}.cls-8{fill:#905754;}</style></defs><title>langue</title><path class="cls-1" d="M423.89,296.6c-3.16-.54-6.72-1-9.29.91a.76.76,0,0,0-.31.38c-.08.3.19.56.44.73a10.08,10.08,0,0,0,8.12,1.53A3.48,3.48,0,0,0,425,298.9a1.55,1.55,0,0,0-.41-2.2" transform="translate(1373.68 -245.25)"/><path class="cls-1" d="M424.09,295.88c-2.87-.48-6.07-1-8.79.34-2.36,1.15-2,2.59.17,3.73a10.53,10.53,0,0,0,8.19.74c1.85-.7,3.41-3,1.45-4.52-.75-.59-1.82.46-1.06,1.06.3,1.19,0,1.86-.89,2a4.19,4.19,0,0,1-1.15.32,9.26,9.26,0,0,1-2.41.08c-.94-.09-3.76-.55-4-1.57-.44-1.78,7.27-.89,8.11-.75s1.35-1.28.4-1.44Z" transform="translate(1373.68 -245.25)"/><circle class="cls-2" cx="1797.33" cy="49.66" r="2.24"/><circle class="cls-2" cx="1797.91" cy="55.57" r="2.24"/><path class="cls-1" d="M424.52,295.74a.75.75,0,0,0,0-1.5.75.75,0,0,0,0,1.5Z" transform="translate(1373.68 -245.25)"/><path class="cls-1" d="M425.24,301.54a.75.75,0,0,0,0-1.5.75.75,0,0,0,0,1.5Z" transform="translate(1373.68 -245.25)"/><path class="cls-3" d="M419.1,299.38a9.21,9.21,0,0,0-3.07,6.47,3,3,0,0,0,.39,1.83,3.42,3.42,0,0,0,1.23,1c1,.53,2.13,1,3.1.51s1.19-1.79,1.25-2.89a10.11,10.11,0,0,0-.49-4.38c-.43-1-1.17-2-1.18-3.1h-.42" transform="translate(1373.68 -245.25)"/><path class="cls-1" d="M418.84,299.12c-2.84,2.68-5.25,8.51-.38,10.32a2.58,2.58,0,0,0,3.76-2,10.89,10.89,0,0,0,.06-4.18c-.27-1.61-1.37-2.91-1.58-4.52a.38.38,0,0,0-.37-.37h-.42a.38.38,0,0,0,0,.75c.06,0,1.22,2.89,1.23,2.91.54,1.43,1.05,4.72,0,6.16-.86,1.2-2.89.57-3.78-.18-1.27-1.06-1.05-2.6-.73-3.91a9.21,9.21,0,0,1,2.72-4.49c.35-.33-.18-.86-.53-.53Z" transform="translate(1373.68 -245.25)"/><path class="cls-3" d="M417.62,299.56a9.2,9.2,0,0,0-5.57,4.5,2.93,2.93,0,0,0-.44,1.81,3.47,3.47,0,0,0,.69,1.4c.63.89,1.48,1.86,2.57,1.8s1.85-1.1,2.38-2.06a9.84,9.84,0,0,0,1.46-4.16c.06-1.11-.2-2.29.28-3.3l-.38-.19" transform="translate(1373.68 -245.25)"/><path class="cls-1" d="M417.52,299.2c-3.85,1.22-8.65,5.69-4.58,9.4,1.39,1.26,2.9,1,4-.45a11.2,11.2,0,0,0,1.72-3.35c.57-1.7.11-3.47.66-5.15a.38.38,0,0,0-.17-.43l-.38-.18c-.43-.21-.81.44-.38.65.24.11-.21,4.07-.27,4.31a11.05,11.05,0,0,1-.92,2.26c-.18.36-.38.7-.59,1-.36.94-1,1.17-2,.7a1.54,1.54,0,0,1-2-.92,2.54,2.54,0,0,1-.25-2.83,6.58,6.58,0,0,1,1.25-1.77,9.13,9.13,0,0,1,4.1-2.56c.46-.14.26-.87-.2-.72Z" transform="translate(1373.68 -245.25)"/><path class="cls-3" d="M419.62,296.24a9.29,9.29,0,0,0,.62-7.14,3,3,0,0,0-1-1.57,3.36,3.36,0,0,0-1.5-.48c-1.08-.16-2.35-.22-3.07.6s-.49,2.1-.17,3.15a9.89,9.89,0,0,0,2,3.93c.76.82,1.79,1.46,2.19,2.5l.39-.15" transform="translate(1373.68 -245.25)"/><path class="cls-1" d="M419.94,296.42c1.75-3.6,1.82-10.8-4-9.8-2,.34-2.37,2-2,3.74a11.54,11.54,0,0,0,1.42,3.56c.82,1.31,2.24,2.11,2.94,3.5a.4.4,0,0,0,.43.17l.39-.15c.45-.16.26-.89-.2-.72-.05,0-2-2-2-2.05a9.48,9.48,0,0,1-2.24-4.51c-.42-.9-.12-1.54.89-1.92a1.31,1.31,0,0,1,1.59-.88,3.1,3.1,0,0,1,2.87,2.48,8.81,8.81,0,0,1-.77,6.21c-.21.43.44.81.65.37Z" transform="translate(1373.68 -245.25)"/><path class="cls-3" d="M419.85,295.55a9.21,9.21,0,0,0-2.39-6.75,3,3,0,0,0-1.56-1,3.48,3.48,0,0,0-1.56.19c-1,.3-2.24.78-2.55,1.82s.42,2.11,1.15,2.94a10,10,0,0,0,3.44,2.75c1,.43,2.23.58,3,1.36l.3-.29" transform="translate(1373.68 -245.25)"/><path class="cls-1" d="M420.23,295.55c.12-4-2.58-10.14-7.42-7.39-1.85,1-1.7,2.78-.55,4.33a12.29,12.29,0,0,0,2.5,2.49c1.35,1,3.1,1.1,4.38,2.13a.4.4,0,0,0,.53,0l.3-.3c.35-.34-.18-.87-.53-.53l-.3.3h.53c-1.09-.87-2.39-1-3.6-1.66-1.52-.81-4.2-3.09-3.74-4.9a2.61,2.61,0,0,1,2.37-1.76,3.39,3.39,0,0,1,3.3,1.84,9.06,9.06,0,0,1,1.48,5.45c0,.48.73.48.75,0Z" transform="translate(1373.68 -245.25)"/><g class="cls-4"><path class="cls-1" d="M419,288.57a3.23,3.23,0,0,0-4.47,3.56,5.44,5.44,0,0,0,1.67,2.71,7.91,7.91,0,0,1-3.18-2.29,2.74,2.74,0,0,1,.18-3.6c.79-.64,2-.61,2.76-1.29a2.29,2.29,0,0,1,.52-.41,1.25,1.25,0,0,1,.58-.05,6.74,6.74,0,0,1,2,.47" transform="translate(1373.68 -245.25)"/><path class="cls-1" d="M419.08,288.39a3.46,3.46,0,0,0-4.43,1.73c-.85,1.85.17,3.52,1.44,4.85l.23-.29c-1.82-.9-5.25-3.09-3-5.42a7.14,7.14,0,0,1,2.43-1.18c.59-.28.42-.58,1.36-.69a4.9,4.9,0,0,1,2,.46c.22.08.32-.28.1-.36-1-.35-2.13-.77-3.07-.18-1.1.68-3,1-3.59,2.31-1.17,2.61,1.69,4.43,3.62,5.38a.19.19,0,0,0,.23-.29c-1.11-1.16-2.06-2.55-1.44-4.21a3.06,3.06,0,0,1,4.06-1.75c.23.08.33-.28.1-.36Z" transform="translate(1373.68 -245.25)"/></g><g class="cls-4"><path class="cls-1" d="M416.73,300.21a3.84,3.84,0,0,0-2.25,2.68,3,3,0,0,0,1.39,3.11,1.53,1.53,0,0,0,1.1.18,2.18,2.18,0,0,0,1.11-1,3.58,3.58,0,0,0,2.89,3.21,2.61,2.61,0,0,1-2.8.28c-.49-.26-.94-.7-1.51-.7a3,3,0,0,0-.87.22,3.47,3.47,0,0,1-3-.46,2.22,2.22,0,0,1-.77-.87,2.87,2.87,0,0,1,.57-2.62,12.85,12.85,0,0,1,2.16-2.49" transform="translate(1373.68 -245.25)"/><path class="cls-1" d="M416.64,300.05c-1.72.88-3,2.76-2.12,4.7a2.73,2.73,0,0,0,1.84,1.63c.43.06,1.58-.7,1.59-.7s.42,1,.46,1.11a4.2,4.2,0,0,0,.79.94c.28.23.84.38,1.05.63.36.08.29.18-.2.29h-1.37a8.32,8.32,0,0,1-1.14-.61c-1.06-.47-1.62.09-2.76.09l-1-.15a1.35,1.35,0,0,1-1.22-1.91c-.07-1.19-.17-1.2.37-2a13.56,13.56,0,0,1,2-2.23c.17-.17-.09-.43-.27-.27-1.62,1.51-4.68,5-1.48,6.54,1.55.76,3-.2,4.52.46a3,3,0,0,0,3.35-.06.2.2,0,0,0,0-.35,3.51,3.51,0,0,1-2.76-3.07c0-.18-.26-.16-.34-.05-1.81.81-2.87.51-3.2-.87a2,2,0,0,1,.09-1.52,3.55,3.55,0,0,1,2-2.31c.21-.11,0-.43-.19-.32Z" transform="translate(1373.68 -245.25)"/></g><g class="cls-5"><path class="cls-1" d="M424.11,292.83c-.9.1-2,.32-2.37,1.26a2.65,2.65,0,0,0,.86,2.7c.16.18.43-.09.26-.27a2.21,2.21,0,0,1-.76-2.28c.34-.78,1.25-.95,2-1,.24,0,.24-.4,0-.37Z" transform="translate(1373.68 -245.25)"/></g><g class="cls-5"><path class="cls-1" d="M424.69,298.76a2.14,2.14,0,0,0-1.06,4.07l.09-.35a1.37,1.37,0,0,1-1.24-1.75,3.15,3.15,0,0,1,1-1.55c.17-.17-.09-.43-.27-.27a2.94,2.94,0,0,0-1.16,2.45,1.67,1.67,0,0,0,1.64,1.49.19.19,0,0,0,.1-.35,1.77,1.77,0,0,1,.87-3.37c.24,0,.24-.36,0-.37Z" transform="translate(1373.68 -245.25)"/></g><path class="cls-6" d="M2109,264.35a288.26,288.26,0,0,0,49-2.81c14.89-2.05,28.09-4.75,42.37-7,11.68-1.88,27.39-3.48,39-1.57,6.72,1.11,10.64,3.11,11.11,5.08.93,3.93,21.89,2.16,20.5,6.24-.39,1.13-5.6,5.09,2.89,8.68,5.84,2.46-5.22,2.07-1.65,4.78s-10.4,4.79-12.24,6.44c-3.09,2.78-6.69,3.5-18.5,3.59a143.81,143.81,0,0,1-18.89-1.46c-35.31-4.3-73-7.45-111.67-9.34l-.93-.1c-871.39-9.54-2693.57-2.77-2897.83-2.77-52.17,0-263-4.94-313-8.51-55.72-4-114.75-3.88-172.8-3.76-7.41-.07-28.91-1.47-33.87-1.69-29-1.29-58.8-6.32-65.38-8.25,8.69-3.9,54.17-5.1,68-4.78,15,.34,54.92,1.6,54.92,1.6,58-.11,117.09-.2,172.8,3.77,50.07,3.57,260.87,8.5,313,8.5,132.38,0,1576.41-3.06,1770.54-1.41,280.05,2.4,1032.24,3.88,1103.63,4.85" transform="translate(1373.68 -245.25)"/><path class="cls-1" d="M2109,265.1a336,336,0,0,0,61.65-4.73c22.76-3.7,49-12.35,71.42-4.56,4.83,1.67,8.12,3.94,12.8,5.11,1.64.41,3.37.33,5,.72q5-1.25,8,2.17,2.86,1.2.59,3.48c2,1.95,4.88,7.15,2.75,8.47a.78.78,0,0,0-.27,1c.92,1.87-13.53,8.48-15.6,9.08-12.17,3.49-26.73.33-39-1.08q-39-4.52-78.28-7.06c-32-2.09-64-2-96.08-2.33q-93.23-.88-186.45-1.49-211-1.41-422-2-461.37-1.41-922.73-.9-412.26.26-824.51,1.23-231.25.51-462.52,1c-105.41.09-211.48-1.83-316.71-8-48.6-2.84-97.09-4.24-145.78-4.3-21.2,0-42.2-.17-63.36-1.36-20.52-1.15-47,.45-66-7.43-4.11-1.7-3.23.79-.71-.78,3.19-2,9.22-1.39,13-1.76,8.69-.84,17.44-1.22,26.16-1.53,14.28-.49,28.5-.25,42.77.16,40.24,1.16,80.44.83,120.69,1.42,68.91,1,137.77,6.06,206.68,8,62.38,1.78,124.79,3.52,187.2,3.91,51.11.32,102.24-.07,153.35-.16q330.11-.52,660.2-1.05,359.29-.52,718.59-.66c167.89,0,335.77,1.25,503.66,2,257.85,1.17,515.7,1.67,773.55,2.85,24.33.12,48.66.15,73,.47a.75.75,0,0,0,0-1.5c-84.77-1.12-169.57-.86-254.34-1.15q-224.64-.76-449.29-1.57-198-.78-395.9-2.09c-66.31-.55-132.63-.48-198.94-.51q-171.84-.09-343.68.12-204.21.18-408.43.49-198.69.29-397.37.62l-304.27.5c-61,.1-122,.49-183-.62-71.69-1.31-143.42-2.94-215.07-5.86-82.25-3.35-164.38-4.39-246.65-6.76-27-.77-60.51-4.83-86.21,4.32a.76.76,0,0,0,0,1.45c31.85,8.25,66.67,9.31,99.45,10,50.9,1,101.72-.26,152.6,2.5q84.57,4.59,169.16,6.68c72.34,1.89,144.64,3.15,217,3q247.32-.47,494.64-1.13,392.29-.83,784.61-1.08,432.92-.23,865.84.84Q1608,274,1806,275.09c123.5.76,248.82-3.87,371.89,7.22,28.86,2.6,69.29,16,95.13-2.69a.77.77,0,0,0,.35-.85c-.78-2.4,1.23-2.64,2.78-4.13a.77.77,0,0,0-.15-1.18c-5.69-3.9-2.13-8.63-6.63-11.87-3.61-2.6-11.54-.89-15.55-2.4-5.47-2.06-7.73-5.63-14.23-7-16.49-3.41-35.12.78-51.42,3.6-26.34,4.57-52.35,8.4-79.16,7.79a.75.75,0,0,0,0,1.5Z" transform="translate(1373.68 -245.25)"/><g class="cls-7"><path class="cls-8" d="M2129.31,273.39c-453.84-7.74-907.89-6.34-1361.76-6.16q-686.22.25-1372.3,2.21c-129,.39-257.83.07-386.73-4.43-63.37-2.22-126.72-4.83-190.11-6.38-60.23-1.47-120.67-1.54-180.59-8.54-2.87-.33-2.85,4.17,0,4.5,53.29,6.23,107,6.91,160.59,8.08,56.49,1.24,112.95,3.31,169.42,5.37q172,6.3,344.05,6.11c224.92-.26,449.84-2,674.69-2.12,456.27-.18,912.54-1.09,1368.79.28,258,.77,516,1.18,774,5.58,2.9.05,2.9-4.45,0-4.5Z" transform="translate(1373.68 -245.25)"/></g><g class="cls-7"><path class="cls-8" d="M2138,277.83c28.4-4.77,28.4-4.77,44.06-3.57,6.12.48,11.7,1.3,17.77,1.81,18.94,1.59,41.87-.41,52.37-4.56,5.7-2.25,8.24-5.08,16.69-6.75-3.21,4.55,4.88,9.37-.85,13.76-2.85,2.19-8.86,4-14.74,5.83a41.44,41.44,0,0,1-9.53,1.95,85.66,85.66,0,0,1-13.69-.42l-102.39-8.95" transform="translate(1373.68 -245.25)"/><path class="cls-8" d="M2138.22,278.56c13.71-2.31,26.92-4.81,40.83-3.78,10.9.81,21.69,2.46,32.64,2.57a157.73,157.73,0,0,0,30.53-2.38,52.46,52.46,0,0,0,11.74-3.39c5.1-2.28,9.6-4.91,15.15-6.09l-.85-1.11c-2,3.5.48,5.88,1,9.35,1,6.39-11.78,8.57-16.18,9.89-12.75,3.84-26.33,1.22-39.34.08l-86.07-7.52c-1-.08-1,1.42,0,1.5l92,8c7.08.62,14.25,1.61,21.37,1.46,6.19-.13,12-1.86,17.81-3.79,3.62-1.19,9.85-2.71,11.6-6.6,1.81-4-3.18-7.76-.93-11.65a.76.76,0,0,0-.85-1.1c-8.33,1.77-15.21,6.86-23.51,8.78-10.29,2.37-21.07,3-31.61,3-16.25,0-32.52-4.11-48.76-2.8-9.06.72-18.06,2.55-27,4.05-1,.16-.55,1.61.4,1.45Z" transform="translate(1373.68 -245.25)"/></g><path class="cls-1" d="M2109,265a336.41,336.41,0,0,0,61.61-4.72c22.8-3.71,49-12.36,71.51-4.55,4.83,1.68,8.12,3.92,12.79,5.09,1.63.41,3.35.32,5,.72q5.18-1.31,8.07,2.28,2.92,1.29.64,3.59c2,2,5.1,7,2.7,8.53a.61.61,0,0,0-.22.82c1,2.07-13.53,8.68-15.69,9.3-12.19,3.5-26.76.34-39-1.07q-39-4.51-78.28-7.06c-32-2.09-64-2-96.08-2.33q-93.23-.89-186.45-1.49-211-1.41-422-2-461.37-1.41-922.73-.9-412.26.26-824.51,1.23-231.25.51-462.52,1c-105.41.09-211.48-1.83-316.71-8-48.6-2.84-97.09-4.24-145.78-4.3-21.2,0-42.2-.17-63.36-1.36-8.45-.47-16.89-.91-25.32-1.7-12.06-1.12-29.52-.41-40.72-5.74-4.17-2-3.15.76-.71-1.07,2.83-2.12,9.46-1.41,13-1.76,8.69-.84,17.44-1.22,26.16-1.53,14.28-.49,28.5-.25,42.77.16,40.24,1.16,80.44.83,120.69,1.42,68.91,1,137.77,6.06,206.68,8,62.38,1.78,124.79,3.52,187.2,3.91,51.11.32,102.24-.07,153.35-.16q330.11-.53,660.2-1.05,359.29-.53,718.59-.66c167.89,0,335.77,1.25,503.66,2,257.85,1.17,515.7,1.67,773.55,2.85,24.33.12,48.66.15,73,.47a.6.6,0,0,0,0-1.2c-84.77-1.12-169.57-.86-254.34-1.15q-224.64-.76-449.29-1.57-198-.78-395.9-2.09c-66.31-.55-132.63-.48-198.94-.51q-171.84-.09-343.68.12-204.21.18-408.43.49-198.69.29-397.37.62l-304.27.5c-61,.1-122,.49-183-.62-71.69-1.31-143.42-2.94-215.07-5.86-82.25-3.35-164.38-4.39-246.65-6.76-27-.77-60.48-4.83-86.17,4.32a.6.6,0,0,0,0,1.15c31.84,8.26,66.65,9.31,99.41,10,50.9,1,101.72-.26,152.6,2.5q84.57,4.59,169.16,6.68c72.34,1.89,144.64,3.15,217,3q247.32-.47,494.64-1.13,392.29-.83,784.61-1.08,432.92-.22,865.84.84,197.91.57,395.82,1.71c123.5.76,248.82-3.87,371.89,7.22,28.83,2.6,69.24,16,95.06-2.67a.61.61,0,0,0,.27-.68c-.77-2.4,1.27-2.79,2.82-4.27a.61.61,0,0,0-.12-1c-5.63-3.86-2.2-8.67-6.61-11.87-3.57-2.58-11.54-.89-15.53-2.38-5.49-2.07-7.72-5.64-14.23-7-16.46-3.4-35.07.79-51.34,3.61-26.35,4.57-52.38,8.4-79.2,7.79a.6.6,0,0,0,0,1.2Z" transform="translate(1373.68 -245.25)"/></svg>