<svg xmlns="http://www.w3.org/2000/svg" viewBox="0 0 1054.92 1133.86"><defs><style>.cls-1{fill:none;}.cls-2{fill:#1d1d1b;}.cls-3{fill:#5fad74;}.cls-4{opacity:0.7;}.cls-5{opacity:0.5;}.cls-6{fill:#2d593b;}</style></defs><title>CAMmachoire</title><g id="fond_transparent" data-name="fond transparent"><rect class="cls-1" width="1054.92" height="1133.86"/></g><g id="Mâchoire"><path class="cls-2" d="M458.46,366.15c-.69.53-2,.4-2.86.42-1.89,0-3.78-.09-5.67-.23-5.93-.43-11.85-1.2-17.74-2-13.41-1.88-26.81-4.14-40-7-4.62-1-9.54-1.87-13.91-3.73-.88-.38-1.65.91-.76,1.29a70,70,0,0,0,11.93,3.37c6.53,1.48,13.12,2.74,19.72,3.91,13.14,2.34,26.4,4.53,39.7,5.62a63,63,0,0,0,7,.3c1,0,2.52,0,3.39-.62s0-1.88-.76-1.29Z"/><path class="cls-3" d="M378.83,351c-5.4-1.06-11.07,1.11-15.25,4.68s-7.09,8.4-9.53,13.33c-1.31,2.66-2.54,5.48-2.55,8.45s1.5,6.13,4.26,7.22a5.6,5.6,0,0,1,.81-3.38A11.36,11.36,0,0,1,360,384.7a6.66,6.66,0,0,0,.7-2.6,10.49,10.49,0,0,0,4,3.11l.54-2.22,2.59,2.15,1-2.93a6.9,6.9,0,0,0,3.13,2.46l1.39-2.66,4.74,3.07,1-3c.87,1.59,1.3,3.56,2.58,4.83a34.3,34.3,0,0,0,.43-5.05,20.91,20.91,0,0,1,4.69,4.07l.56-1.72a29.52,29.52,0,0,0,4.5,4.51,8.17,8.17,0,0,0,0-3.68,14.87,14.87,0,0,1,4.68,3.69,10.78,10.78,0,0,0,.38-3.09,20.5,20.5,0,0,1,4.78,2.43l.2-4.47,4.23,5.27.12-3.8,4.8,4.84a19.31,19.31,0,0,0-.18-5.26,44.64,44.64,0,0,1,5.21,4.31,19.12,19.12,0,0,1,.1-3.93,13.12,13.12,0,0,0,3.65,4.52l.9-4.52,1.91,3.21,2.13-3.71a8.45,8.45,0,0,0,2.62,4.06,16.9,16.9,0,0,0,.6-4A5.46,5.46,0,0,1,431,387a11,11,0,0,0,2.13-3.1,4,4,0,0,0,2.12,3,7.27,7.27,0,0,0,.67-2.75,4.81,4.81,0,0,1,3.08,1.18l.45-2,2.89.78a5.21,5.21,0,0,0,0-2.19,6.16,6.16,0,0,1,2.4.37l-.34-1.71a4.52,4.52,0,0,1,1.89-.3c1-2.23,3-3.79,5-5.23l6.37-4.7c.86-.63,1.81-1.44,1.76-2.5-.06-1.59-2.11-2.15-3.69-2.27a478.72,478.72,0,0,1-70.45-10.76,19.36,19.36,0,0,1-4.52-1.44c-1.56-.79-2.91-2-4.56-2.57C372.86,349.54,378.83,351,378.83,351Z"/><path class="cls-3" d="M379,350.55c-9.34-1.57-17.13,4.66-21.92,12.1-3.62,5.63-10.72,18.2-1.54,22.5a.52.52,0,0,0,.76-.44,6,6,0,0,1,.74-3.12l-.69.18a11.89,11.89,0,0,1,3.25,3.19c.19.26.71.38.87,0a10.19,10.19,0,0,0,.77-2.86l-.85.36a12.28,12.28,0,0,0,4.07,3.19.52.52,0,0,0,.74-.3l.53-2.23-.83.22,2.59,2.15a.5.5,0,0,0,.83-.22l1-2.92-.84.22a8,8,0,0,0,3.24,2.53.51.51,0,0,0,.68-.17l1.39-2.67-.68.18,4.74,3.08a.5.5,0,0,0,.73-.3l1-3.05-.92.12c.85,1.7,1.39,3.49,2.66,4.93a.51.51,0,0,0,.84-.22,36,36,0,0,0,.44-5.18l-.75.43a21.56,21.56,0,0,1,4.59,4,.5.5,0,0,0,.83-.22l.56-1.72-.84.23a34.86,34.86,0,0,0,4.51,4.5c.25.21.76.18.83-.22a11.34,11.34,0,0,0,0-3.94l-.74.56a16.18,16.18,0,0,1,4.57,3.61.51.51,0,0,0,.84-.22,14.05,14.05,0,0,0,.4-3.22l-.63.48a23.3,23.3,0,0,1,4.66,2.39.51.51,0,0,0,.75-.44l.2-4.47-.85.35,4.23,5.27c.29.36.84,0,.85-.35l.12-3.8-.85.35,4.79,4.84a.51.51,0,0,0,.86-.35,23.81,23.81,0,0,0-.2-5.4l-.74.57a49.34,49.34,0,0,1,5.12,4.23.5.5,0,0,0,.85-.35,25.77,25.77,0,0,1,.1-3.93l-.93.25a15,15,0,0,0,3.72,4.62.51.51,0,0,0,.84-.22l.9-4.52-.91.12,1.91,3.21a.51.51,0,0,0,.87,0l2.12-3.7-.91-.12A9.91,9.91,0,0,0,427,388.9a.5.5,0,0,0,.83-.22,21.35,21.35,0,0,0,.62-4.13l-.63.48a5.52,5.52,0,0,1,2.78,2.19.51.51,0,0,0,.79.1,14.15,14.15,0,0,0,2.21-3.2l-.92-.12a4.81,4.81,0,0,0,2.35,3.26.5.5,0,0,0,.73-.3c.8-2,.53-3.14,3-1.27a.51.51,0,0,0,.74-.3l.45-2-.61.35,2.89.78a.5.5,0,0,0,.61-.35A6.91,6.91,0,0,1,443,383c.38-.63.8-.51,1.68-.25a.5.5,0,0,0,.62-.61l-.33-1.71-.35.61a4.16,4.16,0,0,1,1.75-.28.47.47,0,0,0,.43-.25c2.19-4.38,7.48-6.8,11.18-9.74,1.55-1.23,3-3.17,1-4.76-1.13-.89-2.77-.91-4.14-1-2.59-.22-5.19-.43-7.79-.68q-7.53-.72-15-1.68-15.68-2-31.2-5.05c-5.12-1-10.22-2.06-15.29-3.25a20.2,20.2,0,0,1-6.34-2.55c-1.11-.69-2.67-1.1-3.68-1.86l.11.79c-.38.35.12.09.4.22a6.38,6.38,0,0,0,1.24.28l1.48.35c.63.16.9-.81.27-1-.84-.21-3.37-1.29-4.1-.6a.51.51,0,0,0,.1.79c1.05.79,2.53,1.14,3.68,1.85a17.49,17.49,0,0,0,4.26,2.07c4.46,1.37,9.2,2.14,13.77,3.07q14.11,2.88,28.39,4.92,13.86,2,27.8,3.13a16.32,16.32,0,0,1,4,.4c.8,0,1.15.56,1.05,1.54.7.8.69,1.41-.06,1.82-.69,1-2.6,1.93-3.6,2.67l-3.18,2.35a24.26,24.26,0,0,0-3.48,2.92,20.45,20.45,0,0,1-1.37,1.84,4.6,4.6,0,0,1-1.91.72.51.51,0,0,0-.35.61l.33,1.71.62-.61a9.08,9.08,0,0,0-2.53-.39.5.5,0,0,0-.5.5,4.93,4.93,0,0,1,0,2.06l.61-.35-2.89-.78a.5.5,0,0,0-.61.35l-.46,2,.74-.29a6,6,0,0,0-3.33-1.25c-.28,0-.47.25-.5.5a8.54,8.54,0,0,1-.65,2.62l.73-.3a4,4,0,0,1-1.88-2.67.51.51,0,0,0-.92-.12,13,13,0,0,1-2.05,3l.78.1a6.77,6.77,0,0,0-3.38-2.65c-.32-.13-.61.18-.63.48a20.21,20.21,0,0,1-.58,3.87l.84-.22a8.62,8.62,0,0,1-2.5-3.84.5.5,0,0,0-.91-.12l-2.13,3.7H423l-1.92-3.2a.5.5,0,0,0-.91.12l-.91,4.52.84-.22a14.7,14.7,0,0,1-3.57-4.42c-.25-.48-.88-.2-.93.25a25.77,25.77,0,0,0-.1,3.93l.86-.36a53.11,53.11,0,0,0-5.32-4.38c-.4-.29-.79.18-.74.56a22,22,0,0,1,.17,5.13l.85-.35-4.79-4.85a.51.51,0,0,0-.86.36l-.12,3.8.86-.36-4.23-5.27c-.3-.36-.84,0-.86.36l-.2,4.47.75-.43a24.25,24.25,0,0,0-4.9-2.48.5.5,0,0,0-.63.48,13.3,13.3,0,0,1-.36,2.95l.83-.22a16.89,16.89,0,0,0-4.77-3.76.51.51,0,0,0-.74.56,7.7,7.7,0,0,1,0,3.41l.83-.22a34.17,34.17,0,0,1-4.5-4.5.5.5,0,0,0-.83.22l-.56,1.72.83-.23a22.5,22.5,0,0,0-4.78-4.14.51.51,0,0,0-.76.43,32.44,32.44,0,0,1-.41,4.92l.84-.23c-1.21-1.37-1.7-3.12-2.5-4.72a.51.51,0,0,0-.92.12l-1,3,.73-.3-4.74-3.07a.5.5,0,0,0-.68.18l-1.39,2.66.68-.18a7.69,7.69,0,0,1-3-2.38c-.25-.32-.73-.09-.84.22l-1,2.93.84-.22-2.59-2.16a.51.51,0,0,0-.84.22l-.54,2.23.74-.3a11.6,11.6,0,0,1-3.88-3c-.31-.37-.8,0-.85.35l-.64,2.35h.87a14,14,0,0,0-3.61-3.55.5.5,0,0,0-.68.18,7,7,0,0,0-.88,3.63l.75-.43c-8.76-4.1-1.19-16.55,2.35-21.82,4.51-6.72,11.8-12.38,20.33-10.95C379.32,351.62,379.59,350.66,379,350.55Z"/><g class="cls-4"><g class="cls-5"><path class="cls-6" d="M378.1,351.89c-1.16.29-1.34,2-.57,2.94a5.25,5.25,0,0,0,3.22,1.4c10.23,1.88,20.59,3.15,30.71,5.58,3,.72,6,1.55,9,2.13a91,91,0,0,0,10.68,1.26,233.11,233.11,0,0,0,25.9.42,6.71,6.71,0,0,0-3.83-1,327.87,327.87,0,0,1-74.17-12.75"/><path class="cls-6" d="M377.84,351.46a2.37,2.37,0,0,0-.74,3.62c1.52,2.08,5.6,2,7.84,2.39,8.17,1.39,16.4,2.54,24.49,4.38,7.61,1.72,14.88,3.39,22.7,3.92a238.47,238.47,0,0,0,24.94.35.5.5,0,0,0,.25-.93c-2.3-1.42-5.28-1.14-7.89-1.32q-4.77-.33-9.52-.79c-7.08-.69-14.15-1.59-21.17-2.73a320.26,320.26,0,0,1-39.54-9,.5.5,0,0,0-.27,1,323.23,323.23,0,0,0,38.6,8.82q9.25,1.51,18.58,2.52,4.75.51,9.51.89c1.74.14,3.49.27,5.24.38,2,.13,4.18,0,6,1.09l.25-.93c-13.21.49-27.16.62-40.07-2.45-6.25-1.49-12.46-2.93-18.79-4-3.37-.57-6.75-1.1-10.12-1.66-1.6-.26-3.21-.53-4.81-.81-.8-.14-1.6-.27-2.4-.43l-.71-.14c-1.45-.17-2.06-1.27-1.82-3.29.58-.28.07-1.14-.51-.86Z"/></g><g class="cls-5"><path class="cls-6" d="M351.57,379.61a8.54,8.54,0,0,0,3.11,5,4.56,4.56,0,0,1,1.26-3.58,22.7,22.7,0,0,1,3.75,3.38l-.14-2.58,4.18,3.17.26-2.1,2.81,2.1a5.55,5.55,0,0,1,1.32-3.36l3.48,3a8.57,8.57,0,0,1,.87-3.33,23.33,23.33,0,0,0,4.62,3.28l1.33-3.35,2.87,5.11a18,18,0,0,1,.39-4.86c1.66,1.17,2.34,2.43,3.88,3.76-.43-.36.05-.72-.38-1.08l.38,1.08.87-1.62a18.78,18.78,0,0,0,4.76,4.69l-.42-3.73a41.83,41.83,0,0,0,5.23,3.84l.12-3.26a24.39,24.39,0,0,1,4.8,2.45l.34-4.28a46.72,46.72,0,0,0,4.14,5.07l.39-3.32a28.67,28.67,0,0,0,4.58,4.5,7.71,7.71,0,0,0,.15-4.68,28.36,28.36,0,0,1,4.42,2.83l.49-2.82a19.85,19.85,0,0,1,4,4.59l1-4.18,1.67,2,1.19-2.46a8.93,8.93,0,0,1,3.24,3.19,17.45,17.45,0,0,0,.61-4.37,7.61,7.61,0,0,1,3.11,3.34,9.36,9.36,0,0,0,1.48-2.7,14.39,14.39,0,0,1,2.79,1.79,10.83,10.83,0,0,1,.67-2.86,8.45,8.45,0,0,1,3.16,1.46l.05-1.69,2.44.91.29-2.19,3.09-.25a2.71,2.71,0,0,0-.4-1.3l2.81-1.29-1.09-1.52c-6.93,2.91-14.53,3.89-22,4.24-10.45.48-20.91-.18-31.34-.87q-21-1.38-42-2.89a3.64,3.64,0,0,1,.81,2.82,19.77,19.77,0,0,0,4.36-1.1"/><path class="cls-6" d="M351.08,379.75a9.81,9.81,0,0,0,3.25,5.19.51.51,0,0,0,.85-.36c-.34-1,0-1.65.92-1.81.58-.58,1.06-.52,1.46.17a8.17,8.17,0,0,1,1.78,1.79.5.5,0,0,0,.85-.35l-.14-2.58-.75.43,4.18,3.17c.34.26.71-.11.75-.43l.26-2.1-.75.44,2.81,2.1c.33.25.71-.11.75-.44a6,6,0,0,1,1.25-3.11l-.78.1,3.48,3a.5.5,0,0,0,.85-.35,8,8,0,0,1,.8-3.08l-.78.1a28.11,28.11,0,0,0,4.72,3.37.51.51,0,0,0,.74-.3l1.33-3.36-.92.12,2.87,5.11a.5.5,0,0,0,.93-.25,20.88,20.88,0,0,1,.37-4.73l-.74.3c1.41,1.09,2.49,2.48,3.78,3.68a.5.5,0,0,0,.79-.6c-.18-.34-.19-.73-.38-1.08s-1.11-.16-.92.38l.39,1.08a.5.5,0,0,0,.91.12l.87-1.62H386a22,22,0,0,0,4.95,4.87.5.5,0,0,0,.75-.43l-.42-3.73-.86.35a51.29,51.29,0,0,0,5.34,3.93.5.5,0,0,0,.75-.44l.12-3.26-.63.49a27.51,27.51,0,0,1,4.68,2.39.5.5,0,0,0,.75-.43l.34-4.28-.93.25a55,55,0,0,0,4.22,5.17c.32.35.8,0,.85-.35l.39-3.32-.86.35a32,32,0,0,0,4.59,4.5.5.5,0,0,0,.83-.22,9.31,9.31,0,0,0,.16-4.94l-.74.56a35.26,35.26,0,0,1,4.42,2.83.5.5,0,0,0,.73-.3l.49-2.82-.83.22a22.21,22.21,0,0,1,3.94,4.49.51.51,0,0,0,.92-.12l1-4.18-.84.22,1.67,2a.5.5,0,0,0,.78-.1l1.19-2.47-.68.18a9.56,9.56,0,0,1,3.06,3,.51.51,0,0,0,.92-.12,22.78,22.78,0,0,0,.62-4.5l-.75.43a8.1,8.1,0,0,1,2.93,3.16.51.51,0,0,0,.87,0,12.81,12.81,0,0,0,1.52-2.82l-.74.3a18.22,18.22,0,0,1,2.8,1.79c.34.26.71-.11.75-.43a12.41,12.41,0,0,1,.65-2.72l-.61.34a9.92,9.92,0,0,1,3,1.41.5.5,0,0,0,.75-.43l.05-1.69-.63.48,2.44.91c.34.13.59-.19.63-.48.09-.69,0-1.33.56-1.76.39-.29,1.87-.14,2.32-.18a.51.51,0,0,0,.49-.63,4.06,4.06,0,0,0-.46-1.43l-.17.69,2.8-1.29a.5.5,0,0,0,.18-.68L446,377.13a.54.54,0,0,0-.57-.23c-14.59,5.93-31.51,4.69-46.89,3.76-16.13-1-32.25-2.14-48.37-3.3a.51.51,0,0,0-.43.76,3.25,3.25,0,0,1,.74,2.56.51.51,0,0,0,.63.48,23.21,23.21,0,0,0,4.36-1.1c.6-.21.34-1.18-.27-1a23.28,23.28,0,0,1-4.35,1.09l.63.49a4.88,4.88,0,0,0-.88-3.07l-.43.75c16.61,1.19,33.22,2.42,49.84,3.38a218.46,218.46,0,0,0,24.41.33,86.68,86.68,0,0,0,10.91-1.21c1.78-.33,3.53-.72,5.27-1.22s4.37-2.23,5.61-.49l.18-.68-2.8,1.28a.52.52,0,0,0-.18.69l.35,1.18.48-.63-3.09.25a.51.51,0,0,0-.5.5l-.29,2.19.63-.49-2.43-.9a.51.51,0,0,0-.64.48l-.05,1.69.76-.43a10.47,10.47,0,0,0-3.29-1.51.51.51,0,0,0-.61.35,14.09,14.09,0,0,0-.69,3l.75-.43a18.62,18.62,0,0,0-2.79-1.79.51.51,0,0,0-.74.29,11,11,0,0,1-1.42,2.59h.87a9.23,9.23,0,0,0-3.3-3.52.5.5,0,0,0-.75.43,21.76,21.76,0,0,1-.59,4.24l.92-.12a10.82,10.82,0,0,0-3.43-3.37.49.49,0,0,0-.68.18l-1.19,2.46.78-.1-1.66-2a.51.51,0,0,0-.84.22l-1,4.18.92-.12a23.17,23.17,0,0,0-4.11-4.68.5.5,0,0,0-.83.22l-.49,2.81.73-.29a33,33,0,0,0-4.41-2.83.51.51,0,0,0-.74.56,8.1,8.1,0,0,1-.15,4.42l.83-.22a33.09,33.09,0,0,1-4.58-4.51c-.31-.37-.81,0-.85.36l-.39,3.32.85-.36a54,54,0,0,1-4.06-5,.5.5,0,0,0-.93.26l-.34,4.28.76-.43a29.55,29.55,0,0,0-4.92-2.5.51.51,0,0,0-.64.48l-.12,3.26.75-.43a46,46,0,0,1-5.13-3.77c-.29-.24-.91-.12-.85.36l.42,3.73.75-.43a20,20,0,0,1-4.58-4.52.51.51,0,0,0-.87,0l-.86,1.63.91.12-.38-1.08-.92.38c.19.34.2.73.39,1.08l.78-.61c-1.36-1.26-2.51-2.69-4-3.83a.51.51,0,0,0-.74.3,22.57,22.57,0,0,0-.4,5l.94-.25L378.86,381a.51.51,0,0,0-.92.12l-1.33,3.35.74-.3a25.62,25.62,0,0,1-4.53-3.21.5.5,0,0,0-.78.1,11.83,11.83,0,0,0-.94,3.59l.86-.35-3.49-3a.51.51,0,0,0-.78.11A6.82,6.82,0,0,0,366.3,385l.75-.43-2.8-2.1c-.35-.25-.72.11-.76.43l-.26,2.1.75-.43-4.17-3.17a.51.51,0,0,0-.76.43l.14,2.58L360,384a26.81,26.81,0,0,0-3.84-3.46.51.51,0,0,0-.61.07,5.69,5.69,0,0,0-1.41,3.94l.85-.35a8.89,8.89,0,0,1-3-4.75.5.5,0,0,0-1,.27Z"/></g></g><path class="cls-2" d="M377.71,351.58c6.23,4.26,14.26,4.73,21.52,6,9.55,1.68,19,3.72,28.64,5.11,9.19,1.33,18.37,1.76,27.6,2.55,2,.18,4.77.79,2.19,4.29-.63.85-2.17,1.58-3,2.2q-2.53,1.78-5.12,3.51c-.8.53-3.47,1.65-3.3,2.92.06.43.57.57.92.52a3.45,3.45,0,0,0,.87-.35c.88-.4.11-1.69-.76-1.29a1.91,1.91,0,0,1-.5.19l.92.53c.11.8-.39.49.23.37.36-.07.92-.62,1.2-.81,1.18-.79,2.36-1.57,3.53-2.37,1.56-1.07,3.12-2.16,4.65-3.28,1.08-.79,2.41-1.49,2.94-2.79,2.5-6.13-8.65-5.31-11.52-5.5-16.44-1.08-32.42-4.32-48.61-7.17-3.77-.67-7.52-1.49-11.3-2.07a24,24,0,0,1-10.3-3.87c-.8-.55-1.55.75-.76,1.29Z"/><path class="cls-2" d="M447.54,377.78c-.81.48-2.3,1.15-1.89,2.35a1.13,1.13,0,0,0,1.75.61c.5-.3.49-1.28-.18-1.37a6.22,6.22,0,0,0-2.91.19.76.76,0,0,0-.53.92l.65,1.68.92-.92-3.19-.48a.79.79,0,0,0-.93.52,4.77,4.77,0,0,0,0,3.12l1.1-.84-2.84-1.43a.76.76,0,0,0-1.13.64l-.32,2.9,1.28-.54a6.65,6.65,0,0,0-3.45-2.36.76.76,0,0,0-.95.73l-.29,3.7,1.13-.64a10.49,10.49,0,0,1-2.83-3.24.76.76,0,0,0-1.37.18l-1.3,3.88,1.25-.33-3.12-3.53a.76.76,0,0,0-1.28.53l-.29,4.75,1.29-.53a26.85,26.85,0,0,1-3.47-4.28.77.77,0,0,0-1.38.18l-1.34,4.14,1.37-.18a21.24,21.24,0,0,1-2.43-4,.76.76,0,0,0-1.37.18l-.92,5.25,1.37-.18-3.76-5.18c-.39-.52-1.5-.44-1.4.38a16.64,16.64,0,0,1,0,4.23l1.26-.33a29.52,29.52,0,0,0-5-4.62.75.75,0,0,0-1.13.64l.4,6,1.28-.53-5.18-5.62a.76.76,0,0,0-1.28.53,14.54,14.54,0,0,0,.38,4.6l1.26-.73a39,39,0,0,1-4.81-5.7.76.76,0,0,0-1.4.38l.21,5.28,1.28-.53-4.66-3.79a.76.76,0,0,0-1.25.33,16.4,16.4,0,0,0-.44,4.19l1.28-.53L392,383.9a.75.75,0,0,0-1.25.72,10.63,10.63,0,0,1,.24,3.89l1.13-.65a19.59,19.59,0,0,1-4.53-4.42c-.34-.46-1.24-.52-1.37.18l-.55,3,1.26-.33-4.32-5a.75.75,0,0,0-1.25.33,23.69,23.69,0,0,0-.46,5.25l1.4-.38-2.93-5.25a.77.77,0,0,0-1.38.17l-1.15,3.8,1.1-.45-4.67-3.52c-.42-.32-.94.05-1.1.45l-1.4,3.48,1.25-.33-3.16-3.22a.76.76,0,0,0-1.26.33l-.87,3.36,1.37-.18a10.7,10.7,0,0,0-3.05-3.13.76.76,0,0,0-1,.27,7,7,0,0,0-.67,3.13l1.13-.65a17.46,17.46,0,0,1-3.49-3.27.76.76,0,0,0-1.26.33l-.71,3.11,1.25-.33-3.3-3.82a.76.76,0,0,0-1.18.16,8.82,8.82,0,0,0-1.05,4.18l1.28-.53a29.23,29.23,0,0,1-3.88-4.36c-.56-.77-1.86,0-1.29.76a30.82,30.82,0,0,0,4.11,4.66.76.76,0,0,0,1.28-.53,7.14,7.14,0,0,1,.85-3.43l-1.18.15,3.3,3.82a.76.76,0,0,0,1.26-.33l.71-3.11-1.26.33a19.45,19.45,0,0,0,3.8,3.51.76.76,0,0,0,1.13-.65,4.37,4.37,0,0,1,.46-2.37l-1,.27a8.31,8.31,0,0,1,2.52,2.59.76.76,0,0,0,1.37-.18l.87-3.36-1.25.33L371,385.9a.77.77,0,0,0,1.26-.33l1.4-3.48-1.1.44,4.66,3.53a.76.76,0,0,0,1.11-.45l1.15-3.8-1.37.18,2.94,5.26a.75.75,0,0,0,1.39-.38,21.34,21.34,0,0,1,.41-4.85l-1.26.33,4.32,5a.75.75,0,0,0,1.25-.33l.55-3-1.38.18a22.3,22.3,0,0,0,5.07,5c.51.37,1.07-.14,1.13-.65a11.64,11.64,0,0,0-.29-4.28L391,385l4.92,4.39a.76.76,0,0,0,1.28-.53,15.11,15.11,0,0,1,.38-3.79l-1.25.33,4.66,3.79a.76.76,0,0,0,1.28-.53l-.21-5.28-1.39.37a39.65,39.65,0,0,0,5,6,.75.75,0,0,0,1.25-.73,13.23,13.23,0,0,1-.33-4.2l-1.28.53,5.18,5.62a.76.76,0,0,0,1.28-.53l-.4-6-1.13.65a27.87,27.87,0,0,1,4.69,4.39.75.75,0,0,0,1.25-.34,17.85,17.85,0,0,0,.08-4.62l-1.4.38,3.77,5.17c.33.46,1.24.52,1.37-.18l.92-5.24-1.37.18a21.73,21.73,0,0,0,2.42,4,.76.76,0,0,0,1.37-.18l1.35-4.14-1.37.18a29.67,29.67,0,0,0,3.7,4.58.76.76,0,0,0,1.28-.53l.29-4.75-1.28.53,3.12,3.53a.76.76,0,0,0,1.26-.33l1.3-3.88-1.37.18a12.16,12.16,0,0,0,3.37,3.77c.49.37,1.09-.14,1.12-.65l.29-3.7-.95.72a5.38,5.38,0,0,1,2.79,2c.45.57,1.21,0,1.28-.53l.32-2.9-1.13.65,2.84,1.43a.75.75,0,0,0,1.1-.84,2.75,2.75,0,0,1,0-2.33l-.92.52,3.19.48c.5.08,1.16-.32.93-.92l-.65-1.68-.53.93,2.12-.19-.18-1.38a.75.75,0,0,0,1,0l.67-.39a.75.75,0,0,0-.76-1.3Z"/></g></svg>