<svg id="Mâchoire" xmlns="http://www.w3.org/2000/svg" viewBox="0 0 2021.1 1026.92"><defs><style>.cls-1{fill:#1d1d1b;}.cls-2{fill:#5fad74;}.cls-3{opacity:0.7;}.cls-4{opacity:0.5;}.cls-5{fill:#2d593b;}.cls-6{fill:none;}</style></defs><title>CAMmachoire1</title><path class="cls-1" d="M458.46,602.63c-.69.53-2,.41-2.86.42-1.89,0-3.78-.08-5.67-.22-5.93-.43-11.85-1.2-17.74-2-13.41-1.87-26.81-4.13-40-7-4.62-1-9.54-1.87-13.91-3.74-.88-.37-1.65.92-.76,1.3a69.05,69.05,0,0,0,11.93,3.36c6.53,1.49,13.12,2.74,19.72,3.92,13.14,2.34,26.4,4.53,39.7,5.62a68.29,68.29,0,0,0,7,.3c1,0,2.52,0,3.39-.62s0-1.89-.76-1.3Z" transform="translate(0 -345.98)"/><path class="cls-2" d="M378.83,587.52c-5.4-1.07-11.07,1.11-15.25,4.67s-7.09,8.41-9.53,13.34c-1.31,2.66-2.54,5.48-2.55,8.45s1.5,6.13,4.26,7.22a5.58,5.58,0,0,1,.81-3.38,11.36,11.36,0,0,1,3.43,3.37,6.76,6.76,0,0,0,.7-2.6,10.49,10.49,0,0,0,4,3.11l.54-2.23,2.59,2.16,1-2.93a6.9,6.9,0,0,0,3.13,2.46l1.39-2.66,4.74,3.07,1-3c.87,1.59,1.3,3.56,2.58,4.82a34.05,34.05,0,0,0,.43-5,21.12,21.12,0,0,1,4.69,4.06l.56-1.71a29.46,29.46,0,0,0,4.5,4.5,8.12,8.12,0,0,0,0-3.67,14.84,14.84,0,0,1,4.68,3.68,10.66,10.66,0,0,0,.38-3.08,20.12,20.12,0,0,1,4.78,2.43l.2-4.48,4.23,5.27.12-3.8,4.8,4.85a19.4,19.4,0,0,0-.18-5.27A46.74,46.74,0,0,1,416,625.4a19,19,0,0,1,.1-3.92,13.12,13.12,0,0,0,3.65,4.52l.9-4.52,1.91,3.2,2.13-3.7a8.45,8.45,0,0,0,2.62,4.06,17,17,0,0,0,.6-4,5.52,5.52,0,0,1,3.08,2.43,11,11,0,0,0,2.13-3.11,4,4,0,0,0,2.12,3,7.27,7.27,0,0,0,.67-2.75,4.85,4.85,0,0,1,3.08,1.17l.45-2,2.89.78a5.26,5.26,0,0,0,0-2.2,6.36,6.36,0,0,1,2.4.38l-.34-1.72a4.52,4.52,0,0,1,1.89-.29c1-2.24,3-3.79,5-5.24l6.37-4.69c.86-.63,1.81-1.44,1.76-2.5-.06-1.59-2.11-2.15-3.69-2.27a481.4,481.4,0,0,1-70.45-10.76,19.84,19.84,0,0,1-4.52-1.44c-1.56-.79-2.91-2-4.56-2.58C372.86,586,378.83,587.52,378.83,587.52Z" transform="translate(0 -345.98)"/><path class="cls-2" d="M379,587c-9.34-1.58-17.13,4.66-21.92,12.09-3.62,5.64-10.72,18.2-1.54,22.5a.51.51,0,0,0,.76-.43,6.05,6.05,0,0,1,.74-3.13l-.69.18a12,12,0,0,1,3.25,3.19c.19.27.71.38.87,0a10,10,0,0,0,.77-2.85l-.85.35a12.15,12.15,0,0,0,4.07,3.19.51.51,0,0,0,.74-.3l.53-2.22-.83.22,2.59,2.15a.5.5,0,0,0,.83-.22l1-2.93-.84.22a8,8,0,0,0,3.24,2.54.5.5,0,0,0,.68-.18l1.39-2.66-.68.18,4.74,3.07a.49.49,0,0,0,.73-.3l1-3-.92.12c.85,1.7,1.39,3.48,2.66,4.93a.51.51,0,0,0,.84-.22,36.09,36.09,0,0,0,.44-5.18l-.75.43a21.56,21.56,0,0,1,4.59,4,.5.5,0,0,0,.83-.22l.56-1.72L387,621a34.32,34.32,0,0,0,4.51,4.51c.25.21.76.18.83-.22a11.39,11.39,0,0,0,0-3.95l-.74.57a16,16,0,0,1,4.57,3.61.51.51,0,0,0,.84-.22,14.05,14.05,0,0,0,.4-3.22l-.63.48a23.8,23.8,0,0,1,4.66,2.38.5.5,0,0,0,.75-.43l.2-4.48-.85.36,4.23,5.27c.29.35.84,0,.85-.36l.12-3.8-.85.36,4.79,4.84a.51.51,0,0,0,.86-.35,23.79,23.79,0,0,0-.2-5.4l-.74.57a49.34,49.34,0,0,1,5.12,4.23.51.51,0,0,0,.85-.36,25.67,25.67,0,0,1,.1-3.92l-.93.25a15.14,15.14,0,0,0,3.72,4.62.51.51,0,0,0,.84-.22l.9-4.52-.91.12,1.91,3.2a.51.51,0,0,0,.87,0l2.12-3.7-.91-.12a9.89,9.89,0,0,0,2.75,4.28.5.5,0,0,0,.83-.22,21.34,21.34,0,0,0,.62-4.14l-.63.49a5.52,5.52,0,0,1,2.78,2.19.51.51,0,0,0,.79.1,14.15,14.15,0,0,0,2.21-3.2l-.92-.12a4.83,4.83,0,0,0,2.35,3.26.5.5,0,0,0,.73-.3c.8-2,.53-3.15,3-1.27a.51.51,0,0,0,.74-.3l.45-2-.61.35,2.89.78a.49.49,0,0,0,.61-.35,7,7,0,0,1,.14-1.23c.38-.62.8-.5,1.68-.24a.51.51,0,0,0,.62-.62l-.33-1.71-.35.62a4,4,0,0,1,1.75-.28.47.47,0,0,0,.43-.25c2.19-4.39,7.48-6.81,11.18-9.75,1.55-1.23,3-3.16,1-4.75-1.13-.89-2.77-.91-4.14-1-2.59-.23-5.19-.43-7.79-.68q-7.53-.72-15-1.68-15.68-2-31.2-5.05c-5.12-1-10.22-2.06-15.29-3.25a20.69,20.69,0,0,1-6.34-2.55c-1.11-.69-2.67-1.1-3.68-1.86l.11.78c-.38.35.12.1.4.23a5.71,5.71,0,0,0,1.24.27l1.48.36c.63.15.9-.81.27-1-.84-.21-3.37-1.29-4.1-.6a.5.5,0,0,0,.1.78c1.05.8,2.53,1.15,3.68,1.86a18.25,18.25,0,0,0,4.26,2.07c4.46,1.37,9.2,2.14,13.77,3.07q14.11,2.88,28.39,4.91,13.86,2,27.8,3.14a15.85,15.85,0,0,1,4,.4c.8,0,1.15.55,1.05,1.54.7.8.69,1.4-.06,1.82-.69,1-2.6,1.93-3.6,2.67L451.1,611a24.92,24.92,0,0,0-3.48,2.92,18,18,0,0,1-1.37,1.84,4.34,4.34,0,0,1-1.91.72.53.53,0,0,0-.35.62l.33,1.71.62-.62a9.46,9.46,0,0,0-2.53-.39.51.51,0,0,0-.5.5,5,5,0,0,1,0,2.07l.61-.35-2.89-.78a.5.5,0,0,0-.61.35l-.46,2,.74-.3a6,6,0,0,0-3.33-1.24c-.28,0-.47.25-.5.5a8.61,8.61,0,0,1-.65,2.62l.73-.3a4.07,4.07,0,0,1-1.88-2.67.51.51,0,0,0-.92-.12,12.76,12.76,0,0,1-2.05,3l.78.1a6.77,6.77,0,0,0-3.38-2.65c-.32-.12-.61.19-.63.48a20.09,20.09,0,0,1-.58,3.87l.84-.22a8.64,8.64,0,0,1-2.5-3.83.5.5,0,0,0-.91-.12l-2.13,3.7H423l-1.92-3.2a.5.5,0,0,0-.91.11l-.91,4.52.84-.22a14.66,14.66,0,0,1-3.57-4.41c-.25-.48-.88-.21-.93.25a25.67,25.67,0,0,0-.1,3.92l.86-.35a53.21,53.21,0,0,0-5.32-4.39c-.4-.28-.79.19-.74.57a22,22,0,0,1,.17,5.13l.85-.36-4.79-4.84a.51.51,0,0,0-.86.35l-.12,3.8.86-.35-4.23-5.27c-.3-.36-.84,0-.86.35l-.2,4.48.75-.43a24.82,24.82,0,0,0-4.9-2.49.51.51,0,0,0-.63.49A13.37,13.37,0,0,1,396,625l.83-.22a17.1,17.1,0,0,0-4.77-3.77.51.51,0,0,0-.74.57,7.7,7.7,0,0,1,0,3.41l.83-.22a34.79,34.79,0,0,1-4.5-4.5.5.5,0,0,0-.83.22l-.56,1.71.83-.22a22.54,22.54,0,0,0-4.78-4.15.51.51,0,0,0-.76.44,32.42,32.42,0,0,1-.41,4.91L382,623c-1.21-1.37-1.7-3.12-2.5-4.72a.51.51,0,0,0-.92.11l-1,3.05.73-.3-4.74-3.08a.5.5,0,0,0-.68.18l-1.39,2.67.68-.18a7.78,7.78,0,0,1-3-2.38c-.25-.33-.73-.1-.84.22l-1,2.92.84-.22-2.59-2.15a.51.51,0,0,0-.84.22l-.54,2.23.74-.3a11.6,11.6,0,0,1-3.88-3c-.31-.38-.8,0-.85.35l-.64,2.35h.87a13.85,13.85,0,0,0-3.61-3.55.49.49,0,0,0-.68.18,7,7,0,0,0-.88,3.63l.75-.43c-8.76-4.1-1.19-16.55,2.35-21.82,4.51-6.72,11.8-12.39,20.33-11C379.32,588.11,379.59,587.14,379,587Z" transform="translate(0 -345.98)"/><g class="cls-3"><g class="cls-4"><path class="cls-5" d="M378.1,588.37c-1.16.3-1.34,2-.57,3a5.31,5.31,0,0,0,3.22,1.4c10.23,1.87,20.59,3.14,30.71,5.58,3,.72,6,1.55,9,2.13a91,91,0,0,0,10.68,1.26,238.06,238.06,0,0,0,25.9.42,6.64,6.64,0,0,0-3.83-1,328.43,328.43,0,0,1-74.17-12.75" transform="translate(0 -345.98)"/><path class="cls-5" d="M377.84,587.94a2.38,2.38,0,0,0-.74,3.63c1.52,2.08,5.6,2,7.84,2.39,8.17,1.39,16.4,2.54,24.49,4.38,7.61,1.72,14.88,3.39,22.7,3.92a244.07,244.07,0,0,0,24.94.35.5.5,0,0,0,.25-.93c-2.3-1.43-5.28-1.15-7.89-1.33-3.18-.21-6.35-.48-9.52-.78-7.08-.69-14.15-1.59-21.17-2.73a322.09,322.09,0,0,1-39.54-9,.5.5,0,0,0-.27,1,321.3,321.3,0,0,0,38.6,8.82q9.25,1.53,18.58,2.53,4.75.51,9.51.89c1.74.14,3.49.27,5.24.38,2,.13,4.18,0,6,1.09l.25-.93c-13.21.48-27.16.62-40.07-2.46-6.25-1.48-12.46-2.93-18.79-4-3.37-.57-6.75-1.11-10.12-1.66-1.6-.27-3.21-.53-4.81-.81-.8-.14-1.6-.27-2.4-.43l-.71-.14c-1.45-.17-2.06-1.27-1.82-3.29.58-.28.07-1.14-.51-.87Z" transform="translate(0 -345.98)"/></g><g class="cls-4"><path class="cls-5" d="M351.57,616.1a8.57,8.57,0,0,0,3.11,5,4.59,4.59,0,0,1,1.26-3.59,22.76,22.76,0,0,1,3.75,3.39l-.14-2.59,4.18,3.18.26-2.1,2.81,2.1a5.58,5.58,0,0,1,1.32-3.37l3.48,3a8.61,8.61,0,0,1,.87-3.34,23.38,23.38,0,0,0,4.62,3.29l1.33-3.35,2.87,5.11a18,18,0,0,1,.39-4.86c1.66,1.17,2.34,2.42,3.88,3.75-.43-.36.05-.71-.38-1.07l.38,1.07.87-1.62a18.82,18.82,0,0,0,4.76,4.7l-.42-3.74a40.93,40.93,0,0,0,5.23,3.85l.12-3.26a23.82,23.82,0,0,1,4.8,2.44l.34-4.28a45.77,45.77,0,0,0,4.14,5.07l.39-3.32a28.73,28.73,0,0,0,4.58,4.51,7.72,7.72,0,0,0,.15-4.68,28.3,28.3,0,0,1,4.42,2.82l.49-2.81a20,20,0,0,1,4,4.58l1-4.18,1.67,2,1.19-2.47a9,9,0,0,1,3.24,3.2,17.53,17.53,0,0,0,.61-4.38,7.72,7.72,0,0,1,3.11,3.34,9.23,9.23,0,0,0,1.48-2.7,14.44,14.44,0,0,1,2.79,1.8,10.74,10.74,0,0,1,.67-2.86,8.59,8.59,0,0,1,3.16,1.45l.05-1.68,2.44.9.29-2.19,3.09-.24a2.79,2.79,0,0,0-.4-1.31l2.81-1.28-1.09-1.52c-6.93,2.91-14.53,3.88-22,4.23-10.45.49-20.91-.18-31.34-.86q-21-1.4-42-2.89a3.63,3.63,0,0,1,.81,2.81,18.72,18.72,0,0,0,4.36-1.1" transform="translate(0 -345.98)"/><path class="cls-5" d="M351.08,616.23a9.84,9.84,0,0,0,3.25,5.2.51.51,0,0,0,.85-.36c-.34-1,0-1.65.92-1.81.58-.58,1.06-.52,1.46.16a8.44,8.44,0,0,1,1.78,1.8.5.5,0,0,0,.85-.35l-.14-2.59-.75.44,4.18,3.17c.34.26.71-.11.75-.43l.26-2.1-.75.43,2.81,2.1c.33.26.71-.1.75-.43a6,6,0,0,1,1.25-3.11l-.78.1,3.48,3a.5.5,0,0,0,.85-.35,8,8,0,0,1,.8-3.08l-.78.1a27.5,27.5,0,0,0,4.72,3.36.51.51,0,0,0,.74-.3l1.33-3.35L378,618l2.87,5.11a.5.5,0,0,0,.93-.25,20.84,20.84,0,0,1,.37-4.73l-.74.3c1.41,1.08,2.49,2.48,3.78,3.68a.51.51,0,0,0,.79-.61c-.18-.33-.19-.72-.38-1.08s-1.11-.15-.92.39l.39,1.08a.5.5,0,0,0,.91.12l.87-1.62H386a22.2,22.2,0,0,0,4.95,4.87.5.5,0,0,0,.75-.43l-.42-3.74-.86.36a49.8,49.8,0,0,0,5.34,3.92.5.5,0,0,0,.75-.43l.12-3.26-.63.48a28.3,28.3,0,0,1,4.68,2.4.51.51,0,0,0,.75-.44l.34-4.28-.93.25a53.87,53.87,0,0,0,4.22,5.18c.32.35.8,0,.85-.36l.39-3.32-.86.36a32.54,32.54,0,0,0,4.59,4.5.5.5,0,0,0,.83-.22,9.35,9.35,0,0,0,.16-5l-.74.57a33.13,33.13,0,0,1,4.42,2.83.5.5,0,0,0,.73-.3l.49-2.82-.83.22a22.21,22.21,0,0,1,3.94,4.49.51.51,0,0,0,.92-.12l1-4.18-.84.22,1.67,2a.5.5,0,0,0,.78-.11l1.19-2.46-.68.18a9.46,9.46,0,0,1,3.06,3,.51.51,0,0,0,.92-.12,22.78,22.78,0,0,0,.62-4.51l-.75.44a8.1,8.1,0,0,1,2.93,3.16.51.51,0,0,0,.87,0,12.81,12.81,0,0,0,1.52-2.82l-.74.3a18.22,18.22,0,0,1,2.8,1.79c.34.26.71-.11.75-.43a12.63,12.63,0,0,1,.65-2.73l-.61.35a9.92,9.92,0,0,1,3,1.41.5.5,0,0,0,.75-.44l.05-1.68-.63.48,2.44.91c.34.12.59-.2.63-.49.09-.68,0-1.32.56-1.75.39-.3,1.87-.15,2.32-.18a.52.52,0,0,0,.49-.64,4,4,0,0,0-.46-1.42l-.17.68,2.8-1.28a.51.51,0,0,0,.18-.69L446,613.62a.51.51,0,0,0-.57-.23c-14.59,5.92-31.51,4.68-46.89,3.75-16.13-1-32.25-2.14-48.37-3.29a.5.5,0,0,0-.43.75,3.26,3.26,0,0,1,.74,2.56.5.5,0,0,0,.63.48,23.19,23.19,0,0,0,4.36-1.09c.6-.22.34-1.18-.27-1a23.31,23.31,0,0,1-4.35,1.1l.63.48a4.84,4.84,0,0,0-.88-3.06l-.43.75c16.61,1.19,33.22,2.42,49.84,3.38a218.46,218.46,0,0,0,24.41.33,86.68,86.68,0,0,0,10.91-1.21c1.78-.33,3.53-.73,5.27-1.22s4.37-2.24,5.61-.49l.18-.69-2.8,1.29a.51.51,0,0,0-.18.68l.35,1.19.48-.63-3.09.24a.52.52,0,0,0-.5.5l-.29,2.19.63-.48-2.43-.91a.52.52,0,0,0-.64.49l-.05,1.68.76-.43a10.67,10.67,0,0,0-3.29-1.5.5.5,0,0,0-.61.35,14,14,0,0,0-.69,3l.75-.43a19.51,19.51,0,0,0-2.79-1.8.51.51,0,0,0-.74.3,11,11,0,0,1-1.42,2.58h.87a9.37,9.37,0,0,0-3.3-3.52.51.51,0,0,0-.75.43,21.75,21.75,0,0,1-.59,4.25l.92-.12a11,11,0,0,0-3.43-3.38.5.5,0,0,0-.68.18l-1.19,2.47.78-.1-1.66-2a.5.5,0,0,0-.84.22l-1,4.18.92-.12a23.23,23.23,0,0,0-4.11-4.69.5.5,0,0,0-.83.23l-.49,2.81.73-.3a34,34,0,0,0-4.41-2.82.51.51,0,0,0-.74.56,8.1,8.1,0,0,1-.15,4.42l.83-.23a32.46,32.46,0,0,1-4.58-4.5c-.31-.37-.81,0-.85.35l-.39,3.32.85-.35a54,54,0,0,1-4.06-5,.5.5,0,0,0-.93.25l-.34,4.28.76-.43a30.28,30.28,0,0,0-4.92-2.49c-.32-.13-.63.19-.64.48l-.12,3.26.75-.43a47.29,47.29,0,0,1-5.13-3.77c-.29-.25-.91-.12-.85.35l.42,3.74.75-.43a20.46,20.46,0,0,1-4.58-4.52.51.51,0,0,0-.87,0l-.86,1.62.91.12-.38-1.08-.92.39c.19.33.2.73.39,1.08l.78-.61c-1.36-1.26-2.51-2.7-4-3.83a.5.5,0,0,0-.74.3,22.52,22.52,0,0,0-.4,5l.94-.25-2.87-5.12a.52.52,0,0,0-.92.12L376.61,621l.74-.3a26.15,26.15,0,0,1-4.53-3.21.5.5,0,0,0-.78.1,11.68,11.68,0,0,0-.94,3.59l.86-.36-3.49-3a.5.5,0,0,0-.78.1,6.85,6.85,0,0,0-1.39,3.62l.75-.43-2.8-2.1c-.35-.26-.72.1-.76.43l-.26,2.1L364,621l-4.17-3.17a.51.51,0,0,0-.76.43l.14,2.59.85-.36a27.42,27.42,0,0,0-3.84-3.46.5.5,0,0,0-.61.08,5.69,5.69,0,0,0-1.41,3.94l.85-.35a8.89,8.89,0,0,1-3-4.75.5.5,0,0,0-1,.26Z" transform="translate(0 -345.98)"/></g></g><path class="cls-1" d="M377.71,588.07c6.23,4.26,14.26,4.73,21.52,6,9.55,1.69,19,3.73,28.64,5.12,9.19,1.33,18.37,1.76,27.6,2.55,2,.17,4.77.79,2.19,4.28-.63.86-2.17,1.59-3,2.2-1.69,1.2-3.4,2.36-5.12,3.51-.8.54-3.47,1.66-3.3,2.92.06.44.57.58.92.53a3.86,3.86,0,0,0,.87-.35c.88-.4.11-1.69-.76-1.3a1.94,1.94,0,0,1-.5.2l.92.52c.11.81-.39.49.23.38.36-.07.92-.63,1.2-.82,1.18-.78,2.36-1.57,3.53-2.37,1.56-1.06,3.12-2.15,4.65-3.27,1.08-.79,2.41-1.49,2.94-2.79,2.5-6.14-8.65-5.31-11.52-5.5-16.44-1.08-32.42-4.33-48.61-7.18-3.77-.66-7.52-1.48-11.3-2.06a23.87,23.87,0,0,1-10.3-3.88c-.8-.54-1.55.76-.76,1.3Z" transform="translate(0 -345.98)"/><path class="cls-1" d="M447.54,614.27c-.81.48-2.3,1.15-1.89,2.35a1.13,1.13,0,0,0,1.75.61c.5-.3.49-1.28-.18-1.37a6.22,6.22,0,0,0-2.91.19.76.76,0,0,0-.53.92l.65,1.68.92-.93-3.19-.48a.8.8,0,0,0-.93.53,4.77,4.77,0,0,0,0,3.12l1.1-.85-2.84-1.43a.76.76,0,0,0-1.13.65l-.32,2.89,1.28-.53a6.65,6.65,0,0,0-3.45-2.36.75.75,0,0,0-.95.72l-.29,3.71,1.13-.65a10.34,10.34,0,0,1-2.83-3.23.76.76,0,0,0-1.37.18l-1.3,3.87,1.25-.33L428.36,620a.76.76,0,0,0-1.28.54l-.29,4.74,1.29-.53a26.34,26.34,0,0,1-3.47-4.27.77.77,0,0,0-1.38.18l-1.34,4.14,1.37-.18a21.24,21.24,0,0,1-2.43-4,.76.76,0,0,0-1.37.18l-.92,5.24,1.37-.18-3.76-5.17c-.39-.52-1.5-.44-1.4.38a16.56,16.56,0,0,1,0,4.22l1.26-.33a29.93,29.93,0,0,0-5-4.62.75.75,0,0,0-1.13.65l.4,5.95,1.28-.53-5.18-5.62a.76.76,0,0,0-1.28.53,14.47,14.47,0,0,0,.38,4.59l1.26-.73a38,38,0,0,1-4.81-5.7.76.76,0,0,0-1.4.38l.21,5.28,1.28-.53-4.66-3.78a.75.75,0,0,0-1.25.33,16.36,16.36,0,0,0-.44,4.19l1.28-.53-4.92-4.4a.75.75,0,0,0-1.25.73A10.63,10.63,0,0,1,391,625l1.13-.65a19.59,19.59,0,0,1-4.53-4.42c-.34-.46-1.24-.53-1.37.17l-.55,3,1.26-.33-4.32-5a.75.75,0,0,0-1.25.33,23.6,23.6,0,0,0-.46,5.24l1.4-.37-2.93-5.26a.77.77,0,0,0-1.38.18l-1.15,3.8,1.1-.45-4.67-3.52c-.42-.33-.94,0-1.1.44l-1.4,3.49,1.25-.33-3.16-3.22a.76.76,0,0,0-1.26.33l-.87,3.36,1.37-.18a10.7,10.7,0,0,0-3.05-3.13.75.75,0,0,0-1,.27,7,7,0,0,0-.67,3.12l1.13-.64A18.06,18.06,0,0,1,361,618a.76.76,0,0,0-1.26.33l-.71,3.1,1.25-.33-3.3-3.81a.75.75,0,0,0-1.18.15,8.89,8.89,0,0,0-1.05,4.19l1.28-.53a29.23,29.23,0,0,1-3.88-4.36c-.56-.78-1.86,0-1.29.76a31.32,31.32,0,0,0,4.11,4.66.76.76,0,0,0,1.28-.53,7.12,7.12,0,0,1,.85-3.43l-1.18.15,3.3,3.81a.76.76,0,0,0,1.26-.33l.71-3.1-1.26.33a19.71,19.71,0,0,0,3.8,3.5.75.75,0,0,0,1.13-.65,4.37,4.37,0,0,1,.46-2.37l-1,.27a8.53,8.53,0,0,1,2.52,2.59.76.76,0,0,0,1.37-.17l.87-3.36-1.25.33,3.16,3.22a.77.77,0,0,0,1.26-.33l1.4-3.49-1.1.45,4.66,3.53a.77.77,0,0,0,1.11-.45l1.15-3.8-1.37.18,2.94,5.25a.75.75,0,0,0,1.39-.38,21.26,21.26,0,0,1,.41-4.84l-1.26.33,4.32,5a.75.75,0,0,0,1.25-.33l.55-3-1.38.18a22.14,22.14,0,0,0,5.07,5c.51.36,1.07-.15,1.13-.65a11.69,11.69,0,0,0-.29-4.29l-1.26.73,4.92,4.4a.76.76,0,0,0,1.28-.53,15.06,15.06,0,0,1,.38-3.79l-1.25.33,4.66,3.78a.76.76,0,0,0,1.28-.53l-.21-5.28-1.39.38a39.57,39.57,0,0,0,5,6,.75.75,0,0,0,1.25-.72,13.23,13.23,0,0,1-.33-4.2l-1.28.53,5.18,5.62a.76.76,0,0,0,1.28-.53l-.4-5.95-1.13.65a27.81,27.81,0,0,1,4.69,4.38.75.75,0,0,0,1.25-.33,17.85,17.85,0,0,0,.08-4.62l-1.4.38,3.77,5.17c.33.46,1.24.52,1.37-.18l.92-5.24-1.37.18a22.4,22.4,0,0,0,2.42,4,.76.76,0,0,0,1.37-.18l1.35-4.15-1.37.18a29.75,29.75,0,0,0,3.7,4.59.76.76,0,0,0,1.28-.54l.29-4.74-1.28.53,3.12,3.52a.76.76,0,0,0,1.26-.33l1.3-3.87-1.37.18a12.28,12.28,0,0,0,3.37,3.77c.49.37,1.09-.15,1.12-.65l.29-3.71-.95.73a5.37,5.37,0,0,1,2.79,2c.45.58,1.21,0,1.28-.53l.32-2.89-1.13.65,2.84,1.43a.76.76,0,0,0,1.1-.85,2.73,2.73,0,0,1,0-2.32l-.92.52,3.19.48c.5.07,1.16-.33.93-.92l-.65-1.68-.53.92,2.12-.19-.18-1.37a.77.77,0,0,0,1,0l.67-.39a.75.75,0,0,0-.76-1.3Z" transform="translate(0 -345.98)"/><rect class="cls-6" width="2021.1" height="1026.92"/></svg>