<svg xmlns="http://www.w3.org/2000/svg" viewBox="0 0 1054.92 1133.86"><defs><style>.cls-1{fill:none;}.cls-2{fill:#1d1d1b;}.cls-3{fill:#fff;}</style></defs><title>CAMpupille</title><g id="fond_transparent" data-name="fond transparent"><rect class="cls-1" width="1054.92" height="1133.86"/></g><g id="Pupille"><path class="cls-2" d="M413.46,329.32a3.87,3.87,0,0,0-1.41,2.73,3,3,0,0,0,1.4,3,4.65,4.65,0,0,0,3.75.1,4,4,0,0,0,2.76-2.26,3.17,3.17,0,0,0-1.09-3.19,4.57,4.57,0,0,0-5.41-.37"/><path class="cls-2" d="M413.11,329c-1.53,1.48-2.27,4-.76,5.77s4.58,1.37,6.44.23a3.31,3.31,0,0,0,.89-5.13,5,5,0,0,0-6.47-.95.5.5,0,0,0,.5.86,4.12,4.12,0,0,1,4.81.3c1.64,1.44,1.11,3.45-.74,4.32-1.49.7-3.75,1.12-4.84-.48-1-1.42-.21-3.17.88-4.22.46-.45-.25-1.15-.71-.7Z"/><path class="cls-3" d="M415,330.11a1.46,1.46,0,1,0,2,1.58,1.53,1.53,0,0,0-2-1.58"/><path class="cls-3" d="M414.74,329.67a2.07,2.07,0,0,0-1,2.43,1.82,1.82,0,0,0,2.28,1.19,1.9,1.9,0,0,0,1.43-2.25,2.08,2.08,0,0,0-2.54-1.43c-.61.19-.35,1.16.26,1a1.06,1.06,0,0,1,1.31.73.91.91,0,0,1-.83,1c-1.14.2-1.3-1.4-.38-1.81.58-.27.07-1.13-.51-.87Z"/></g></svg>