<svg id="Oeil" xmlns="http://www.w3.org/2000/svg" viewBox="0 0 2021.1 1026.92"><defs><style>.cls-1{fill:#1d1d1b;}.cls-2{fill:#fff;}.cls-3{fill:none;}</style></defs><title>CAMpupille1</title><path class="cls-1" d="M414.13,565.53a3.88,3.88,0,0,0-1.42,2.73,3,3,0,0,0,1.41,3,4.67,4.67,0,0,0,3.74.1,4,4,0,0,0,2.77-2.26,3.17,3.17,0,0,0-1.09-3.19,4.57,4.57,0,0,0-5.41-.37" transform="translate(0 -345.98)"/><path class="cls-1" d="M413.77,565.17c-1.53,1.49-2.26,4-.76,5.78s4.58,1.37,6.44.23a3.33,3.33,0,0,0,.9-5.14,5.07,5.07,0,0,0-6.48-.94.5.5,0,0,0,.51.86,4.11,4.11,0,0,1,4.8.3c1.65,1.44,1.11,3.45-.74,4.32-1.48.7-3.75,1.11-4.83-.48-1-1.42-.21-3.17.87-4.22.46-.45-.24-1.15-.71-.71Z" transform="translate(0 -345.98)"/><path class="cls-2" d="M415.66,566.31a1.46,1.46,0,1,0,2,1.59,1.54,1.54,0,0,0-2-1.59" transform="translate(0 -345.98)"/><path class="cls-2" d="M415.41,565.88a2.06,2.06,0,0,0-1,2.43,1.83,1.83,0,0,0,2.28,1.19,1.89,1.89,0,0,0,1.42-2.25,2.08,2.08,0,0,0-2.54-1.43c-.61.19-.35,1.16.27,1a1.06,1.06,0,0,1,1.31.73.91.91,0,0,1-.83,1c-1.15.2-1.3-1.4-.39-1.81.58-.27.08-1.13-.5-.87Z" transform="translate(0 -345.98)"/><rect class="cls-3" width="2021.1" height="1026.92"/></svg>