<svg id="Calque_1" data-name="Calque 1" xmlns="http://www.w3.org/2000/svg" viewBox="0 0 567.42 112.78"><defs><style>.cls-1{fill:#36a9e1;}.cls-2{fill:#1d1d1b;}.cls-3{fill:#be1622;}.cls-4{fill:#f39200;}.cls-5{fill:#e6adb3;}.cls-6{fill:#008d36;}.cls-7{fill:#662483;}.cls-8{fill:#009688;}.cls-9{fill:#d60b52;}.cls-10{fill:#ffed00;}</style></defs><title>leatomasi</title><path class="cls-1" d="M1557.89,619.26c1-5.67,9.12-23.49,12.46-32.68,2.88-7.93,8.45-22.79,12.47-32.68h.38c1.47-2.3,12.18-1.65,14.73-.75,0,0,6.87,16.77,9.62,25.29,3,9.2,7.09,17.67,9.35,26.95,1.3,5.33,4.18,9.48,6,14.62v.38c-5.23,0-10.24-.38-15.49-.38-1.16-3.76-3.1-11-5.29-15.11a222.93,222.93,0,0,0-24.17.76h-.38a98.72,98.72,0,0,1-6.42,14.73c-3,.55-9.21-.38-13.22-.38Zm33.62-49.11c-4.35,6.6-7.15,16.55-9.42,24.14,4.88,0,7.35-.34,10.77-.34,5.23,0,6,.34,6,.34-1-7.85-4.71-15.46-7.37-24.14" transform="translate(-1133.14 -509.69)"/><path class="cls-2" d="M1558.85,619.52c.86-4.61,3-9.1,4.7-13.42,2.22-5.5,4.57-11,6.72-16.47,4.58-11.79,8.76-23.73,13.51-35.46l-1,.73c.72,0,.82-.31,1.37-.59a8.93,8.93,0,0,1,3.18-.85,34.29,34.29,0,0,1,7.51.12c.57.06,1.15.22,1.71.26.09,0,1.44.19.6-.11-.49-.17-.13-.45-.12-.06a3,3,0,0,0,.25.62c.63,1.7,1.37,3.38,2,5.07,4.81,12.1,9.2,24.4,13.6,36.65,1.57,4.36,2.47,9,4.13,13.26.68,1.74,1.48,3.43,2.28,5.12s2.49,4.11,2.49,6l1-1c-5.16,0-10.32-.35-15.49-.38l1,.74c-1.58-5.18-2.93-10.51-5.39-15.35a1,1,0,0,0-.87-.5c-3.4,0-6.8-.06-10.2,0-4.78.09-9.59.76-14.35.76a1,1,0,0,0-.86.49,24.86,24.86,0,0,0-1.23,3.31,82.09,82.09,0,0,1-3.24,7.68c-.58,1.19-1.08,3-2.44,3.39a13.11,13.11,0,0,1-3.75,0c-2.71-.15-5.41-.44-8.12-.47l1,1v-.75a1,1,0,0,0-2,0V620a1,1,0,0,0,1,1c3.43,0,6.85.51,10.28.55.89,0,2.37.22,3.2-.2,1.2-.62,1.81-2.68,2.36-3.81a85.79,85.79,0,0,0,3.63-8.56c.21-.56,1-2,1-2.65,0,0-.64.06-.4.32s2.83-.24,3.29-.27c6.06-.44,12.13-.55,18.2-.5.47,0,.94,0,1.4,0,1.11.05.45-.19,1,.66a22.46,22.46,0,0,1,1.75,4.5c1.06,3,1.93,6.14,2.87,9.22a1,1,0,0,0,1,.73c5.17,0,10.33.36,15.49.38a1,1,0,0,0,1-1,8.68,8.68,0,0,0-1-3.25c-.8-1.9-1.73-3.75-2.59-5.62-1.87-4.06-2.75-8.35-4.14-12.58-2.59-7.92-5.75-15.67-8.5-23.54-2-5.66-4.17-11.25-6.39-16.82-.68-1.71-1.32-3.45-2.07-5.13-.54-1.24-1.23-1.42-2.58-1.65a36.1,36.1,0,0,0-8.37-.41,14.89,14.89,0,0,0-3.81.63,4.7,4.7,0,0,0-1.18.55,2.8,2.8,0,0,1-.33.24c-.68.38.55.09,0,.09a1,1,0,0,0-1,.74c-4.75,11.73-8.93,23.66-13.51,35.45-2.15,5.53-4.5,11-6.72,16.48-1.75,4.32-3.84,8.81-4.7,13.42C1556.69,620.25,1558.62,620.79,1558.85,619.52Z" transform="translate(-1133.14 -509.69)"/><path class="cls-2" d="M1590.64,569.64c-4.72,7.37-7,16.07-9.51,24.38a1,1,0,0,0,1,1.27c3.6,0,7.18-.33,10.77-.34,1.67,0,4.12-.31,5.76.3a1,1,0,0,0,1.26-1c-1.13-8.49-4.88-16.29-7.41-24.41-.38-1.22-2.31-.7-1.93.53,2.47,7.92,6.23,15.6,7.34,23.88l1.27-1c-1.57-.58-3.74-.35-5.36-.37-3.9,0-7.8.32-11.7.34l1,1.26c2.43-8.15,4.67-16.67,9.31-23.9.7-1.08-1-2.09-1.73-1Z" transform="translate(-1133.14 -509.69)"/><path class="cls-3" d="M1242.07,619.26c1-5.67,9.13-23.49,12.47-32.68,2.88-7.93,8.45-22.79,12.46-32.68h.38c1.47-2.3,12.19-1.65,14.73-.75,0,0,6.87,16.77,9.63,25.29,3,9.2,7.08,17.67,9.35,26.95,1.3,5.33,4.18,9.48,6,14.62v.38c-5.24,0-10.24-.38-15.49-.38-1.16-3.76-3.1-11-5.29-15.11a223.1,223.1,0,0,0-24.18.76h-.38a97.52,97.52,0,0,1-6.42,14.73c-3,.55-9.21-.38-13.22-.38Zm33.62-49.11c-4.34,6.6-7.15,16.55-9.41,24.14,4.88,0,7.35-.34,10.77-.34,5.22,0,6,.34,6,.34-1-7.85-4.72-15.46-7.38-24.14" transform="translate(-1133.14 -509.69)"/><path class="cls-2" d="M1243,619.52c.85-4.61,2.94-9.1,4.69-13.42,2.23-5.5,4.57-11,6.72-16.47,4.59-11.79,8.77-23.73,13.52-35.46l-1,.73c.73,0,.82-.31,1.38-.59a8.83,8.83,0,0,1,3.17-.85,34.38,34.38,0,0,1,7.52.12c.57.06,1.14.22,1.71.26.09,0,1.44.19.6-.11-.49-.17-.14-.45-.13-.06a2.56,2.56,0,0,0,.26.62c.63,1.7,1.36,3.38,2,5.07,4.82,12.1,9.2,24.4,13.61,36.65,1.56,4.36,2.47,9,4.13,13.26.67,1.74,1.47,3.43,2.27,5.12s2.5,4.11,2.5,6l1-1c-5.17,0-10.33-.35-15.49-.38l1,.74c-1.58-5.18-2.93-10.51-5.39-15.35a1,1,0,0,0-.86-.5c-3.4,0-6.8-.06-10.21,0-4.78.09-9.58.76-14.35.76a1,1,0,0,0-.86.49,28,28,0,0,0-1.23,3.31,82,82,0,0,1-3.23,7.68c-.58,1.19-1.09,3-2.44,3.39a13.1,13.1,0,0,1-3.75,0c-2.71-.15-5.41-.44-8.13-.47l1,1v-.75a1,1,0,0,0-2,0V620a1,1,0,0,0,1,1c3.44,0,6.85.51,10.29.55.89,0,2.37.22,3.2-.2,1.2-.62,1.8-2.68,2.36-3.81a88.2,88.2,0,0,0,3.63-8.56c.2-.56,1-2,1-2.65,0,0-.64.06-.41.32s2.84-.24,3.3-.27c6.06-.44,12.12-.55,18.2-.5.46,0,.93,0,1.4,0,1.1.05.45-.19,1,.66a22.49,22.49,0,0,1,1.76,4.5c1,3,1.92,6.14,2.86,9.22a1,1,0,0,0,1,.73c5.16,0,10.32.36,15.49.38a1,1,0,0,0,1-1,8.86,8.86,0,0,0-1-3.25c-.81-1.9-1.73-3.75-2.59-5.62-1.87-4.06-2.76-8.35-4.14-12.58-2.59-7.92-5.76-15.67-8.51-23.54-2-5.66-4.17-11.25-6.39-16.82-.68-1.71-1.32-3.45-2.06-5.13-.54-1.24-1.24-1.42-2.59-1.65a36,36,0,0,0-8.36-.41,14.81,14.81,0,0,0-3.81.63,4.39,4.39,0,0,0-1.18.55c-.11.07-.22.18-.33.24-.68.38.54.09,0,.09a1,1,0,0,0-1,.74c-4.75,11.73-8.93,23.66-13.52,35.45-2.15,5.53-4.49,11-6.72,16.48-1.75,4.32-3.84,8.81-4.69,13.42C1240.87,620.25,1242.8,620.79,1243,619.52Z" transform="translate(-1133.14 -509.69)"/><path class="cls-2" d="M1274.83,569.64c-4.73,7.37-7,16.07-9.52,24.38a1,1,0,0,0,1,1.27c3.59,0,7.17-.33,10.77-.34,1.67,0,4.12-.31,5.75.3a1,1,0,0,0,1.27-1c-1.14-8.49-4.88-16.29-7.41-24.41-.38-1.22-2.32-.7-1.93.53,2.46,7.92,6.23,15.6,7.34,23.88l1.27-1c-1.58-.58-3.75-.35-5.37-.37-3.9,0-7.79.32-11.69.34l1,1.26c2.43-8.15,4.68-16.67,9.32-23.9.69-1.08-1-2.09-1.73-1Z" transform="translate(-1133.14 -509.69)"/><path class="cls-4" d="M1187.52,619.59c1.41,3.19,16.82.37,25.31.38,8.32,0,16.72.84,24.89-.14.24-1.91,2.19-9.79,1.12-11.24s-9.42-.9-11.42-1.1c-8.26-.82-16.64,1.31-25.11,1.11-.48-4.08-.41-8.29-.81-12.43-.53-5.47,0-5.66,5.37-5.66h14.65c3.74,0,9.43-1.17,12.79-.13.1-2.14,1.14-9.81-.12-10.83s-8.59-.08-10.44-.19c-3.49-.19-17.79.86-21.47.51-.09-3.06-1.41-10.86-.33-13.55s19.52-1.33,24.1-1.11c3.53.17,10.58.36,10.58.36,1.08-2.1.69-11.46,0-12.84v-.38c-16.86,0-48.74-1.51-49.87.38s1.35,35.7.84,53.26C1187.43,612.06,1186.72,617.8,1187.52,619.59Z" transform="translate(-1133.14 -509.69)"/><path class="cls-2" d="M1186.65,620.1c1.07,1.92,4,1.94,5.91,2a111.53,111.53,0,0,0,12.26-.69c11-.89,22,.63,32.9-.58a1,1,0,0,0,1-.73c.47-3.29,1.56-6.61,1.47-10-.09-3.12-2.64-3.35-5.29-3.51-4.1-.26-8.42-.38-12.51-.31-6.71.13-13.34,1.38-20,1.29l1,1c-.51-4.7-.77-9.52-1-14.24,0-1.12-.19-2.1.87-2.64s3-.21,4.13-.21c4.92,0,9.87.14,14.8,0,3.9-.12,8-1.17,11.89-.15a1,1,0,0,0,1.26-1c.11-2,.35-3.88.45-5.84.07-1.5.36-3.72-.44-5.11-1.55-2.69-7.64-1.23-10.09-1.1-3.64.18-7.29.13-10.93.29a96.48,96.48,0,0,1-12,.25l1,1c-.1-2.31-.43-4.61-.6-6.91-.11-1.35-.81-5.24.25-6.28.87-.86,3.3-.77,4.39-.85,2.16-.15,4.34-.15,6.5-.12,7.6.1,15.2.65,22.81.86a1,1,0,0,0,.86-.49c1-2.18.84-4.88.8-7.2,0-2.17-.66-4.41-.66-6.53a1,1,0,0,0-1-1c-9.42,0-18.83-.32-28.24-.48-4.32-.07-8.64-.13-13-.07a39.35,39.35,0,0,0-7.74.5,2.23,2.23,0,0,0-2.11,2.25,49.67,49.67,0,0,0-.06,7.42c.21,9.08.68,18.14.94,27.21.15,5,.26,10.08.19,15.12,0,3-.2,6.05-.36,9.08-.12,2.35-.56,5.21.26,7.48.44,1.2,2.37.68,1.93-.53-.68-1.88-.33-4.17-.23-6.12.14-2.94.33-5.87.39-8.81.07-4.07,0-8.14-.08-12.21-.19-8.86-.6-17.7-.9-26.55-.11-3.12-.22-6.24-.2-9.36,0-.85.09-1.7.1-2.54s-.29-.37.36-.45c6.33-.81,12.8-.54,19.16-.44,9.85.15,19.7.49,29.55.5l-1-1c0,1.48.51,3,.59,4.56.07,1.23.1,2.46.07,3.69a24.16,24.16,0,0,0-.3,3.65c.11.68-.16.41.53.32a4.12,4.12,0,0,1-.86,0c-1.1-.09-2.21-.07-3.3-.11-2.39-.07-4.78-.15-7.17-.27-4.45-.24-8.9-.49-13.36-.47-2.71,0-8.06-.55-10.27,1.52-1.31,1.23-1.06,3.84-1,5.45.09,3.08.6,6.13.73,9.2a1,1,0,0,0,1,1c6.94.56,14-.6,20.93-.53,1.39,0,2.76-.06,4.15-.15s4.68-.78,5.88,0,.56,3.73.49,4.9c-.11,1.76-.32,3.51-.42,5.26l1.27-1c-4.26-1.13-8.75,0-13.06.09-5.7.08-11.5-.38-17.18,0-2.17.17-3.71.92-4,3.23a38.59,38.59,0,0,0,.34,6.26c.18,3.18.25,6.37.59,9.55a1,1,0,0,0,1,1c5.48.08,10.89-.72,16.35-1.11,4.11-.29,8.17,0,12.28,0,1.57,0,3.16,0,4.73.14s2.5.13,2.49,1.91c0,3-1,6-1.4,9l1-.74c-10.07,1.12-20.17-.34-30.26.37-3.73.27-7.45.67-11.19.84-1.61.07-6.9.82-7.89-.95C1187.75,618,1186,619,1186.65,620.1Z" transform="translate(-1133.14 -509.69)"/><path class="cls-5" d="M1360.75,553.28c0,1.87.38,4.78.38,7,0,.78-.37,2.84,0,3.55.6,1.13,1.56.68,2.93.74,5.24.24,11.32,1.09,16.5.3.76,7.12.2,14.46,1,21.55.79,7.37.19,14.88-.17,22.28a74.11,74.11,0,0,0-.13,11.15,35.25,35.25,0,0,0,7.31.45c1.48,0,6.23.16,6.23.16,1.92-1,.84-11,.76-13.2-.35-9-1.54-18.28-1.14-27.33.22-4.87.57-9.67.78-14.56,3.13-.16,6.17-.61,9.29-.6,3.29,0,7.22.47,10.31,0a54.3,54.3,0,0,1-.53-6.13c-.06-1.1.34-4.23-.2-5.22-.8-1.46-7.41-1-9.63-1h-17.76c-2.3,0-16.19.61-18.51.4-1.65-.16-5.8.54-7.37.41" transform="translate(-1133.14 -509.69)"/><path class="cls-2" d="M1359.75,553.28c.06,2.86.45,5.67.26,8.53-.1,1.58,0,3.27,1.8,3.74a15.15,15.15,0,0,0,3.09.1c1.73.08,3.47.23,5.2.35a52.22,52.22,0,0,0,10.46-.1l-1-1c.46,4.69.43,9.38.53,14.08.11,4.43.68,8.83.78,13.26.22,9.19-1.5,18.5-.66,27.64a1,1,0,0,0,.74,1,55,55,0,0,0,7.91.48c1.78,0,4.08.52,5.83.16,3.17-.66,2.22-7.49,2.1-9.69-.34-6.72-.88-13.42-1.25-20.13-.49-8.8.21-17.49.61-26.27l-1,1c3.38-.21,6.74-.65,10.12-.59a68.17,68.17,0,0,0,9.48,0,1,1,0,0,0,1-1.26,87.8,87.8,0,0,1-.42-9.44c-.07-1.72-.5-2.81-2.24-3.31a22.31,22.31,0,0,0-6.48-.39c-2.73.06-5.46.05-8.19.05-8,0-15.9.15-23.86.36-2,0-4.08.11-6.11,0-2.57-.06-5.11.5-7.67.4-1.28,0-1.28,2,0,2,2.6.1,5.18-.45,7.78-.39,2.18.05,4.37,0,6.56-.08,4.75-.13,9.49-.34,14.24-.34,5.5,0,11,.09,16.49,0,1.83,0,6.54-.75,7.42,1,.52,1,0,3.08,0,4.23a47.26,47.26,0,0,0,.57,6.4l1-1.27a68.17,68.17,0,0,1-9.48,0c-3.38-.06-6.74.38-10.12.59a1,1,0,0,0-1,1c-.36,7.78-1.07,15.54-.76,23.33.27,6.65.75,13.31,1.21,19.95.13,2,.27,3.93.28,5.91a23.34,23.34,0,0,1-.12,3.13,7.2,7.2,0,0,1-.26,1.37c-.22.63.23.29,0,.39a8.76,8.76,0,0,1-2.6-.08c-1,0-2-.07-3.05-.07a50.5,50.5,0,0,1-7.38-.41l.73,1c-.84-9.15.88-18.45.66-27.64-.1-4.43-.67-8.83-.78-13.26-.1-4.7-.07-9.39-.53-14.08,0-.48-.43-1.07-1-1-5.23.7-10.43,0-15.66-.25-.83,0-2.47.27-2.93-.67-.27-.54.13-1.85.15-2.47.1-2.41-.32-4.82-.37-7.23a1,1,0,0,0-2,0Z" transform="translate(-1133.14 -509.69)"/><path class="cls-6" d="M1684.17,553.56c0,20.35.48,40.61,0,60.82-.08,3.35-.78,6.13,2.65,5.67,5.75-.76,8.76-.06,12.74-.14,0-7.42-.66-12-.66-17.61,0-5.88-.39-11.59-.67-17.37-.27-5.62-.27-11.43,0-17,.18-3.58-.08-13.77-.08-13.77a24.13,24.13,0,0,0-7.56-1.32c-2.25.13-4.17.76-6.42.76" transform="translate(-1133.14 -509.69)"/><path class="cls-2" d="M1683.17,553.56c0,16.52.32,33,.18,49.57,0,4,0,7.94-.2,11.91-.07,1.68-.5,4,.87,5.32,1.69,1.6,5,.4,7,.35,2.84-.08,5.67.23,8.5.2a1,1,0,0,0,1-1c0-12.91-1.12-25.84-1.47-38.75-.24-9,.28-18,.06-27a1,1,0,0,0-.74-1,26.42,26.42,0,0,0-5.26-1.22c-3.07-.39-5.93.52-9,.62-1.28,0-1.29,2,0,2,2.76-.09,5.47-1,8.24-.71a24,24,0,0,1,5.47,1.24l-.73-1c.22,9-.3,18-.06,27,.34,12.91,1.42,25.84,1.47,38.75l1-1c-2.35,0-4.7-.2-7-.21a41.92,41.92,0,0,0-4.76.24c-1.48.15-2.6.27-2.69-1.5-.14-2.94.18-6,.22-8.93q.09-5.62.1-11.26c0-14.56-.2-29.13-.21-43.69a1,1,0,0,0-2,0Z" transform="translate(-1133.14 -509.69)"/><path class="cls-7" d="M1621.43,596.26s11.54-.57,13.6-.57c0,0,.94,8.12,5.67,10.44,2.17,1.07,5.72,1.51,8.11,2.19,5.55,1.55,13.18-1.45,14.88-7.38,1.94-6.71-5.24-7.76-9.5-9.64-2.48-1.1-15.46-4.18-18.08-5.19-5.66-2.19-10.81-6.42-12.37-12.37-.67-2.57-.12-10.35,3.5-14.84,1.86-2.3,2.62-3.59,5.29-5.33a31.74,31.74,0,0,1,8-3.81c4.87-1.57,9.47-.78,14.5-.34s10.79,2.69,14.35,6.42,7,9.5,5.86,14.73v.2s-5.79.16-7.75,0c-2.24-.13-5.85-.43-5.85-.43l-.19-.19c.11-2.12-1.72-5-3.17-6.42-2-1.92-4.66-2.36-7.32-2.64-5.58-.6-11-.82-13.36,5.3-2.71,6.92,5.51,8.37,10.59,9.44a77.74,77.74,0,0,1,15.34,4.43c5.23,2.32,10.19,5.69,12.13,11.24,1.85,5.29,2.28,9.65.62,15s-7.12,8.91-12.23,11.22c-4.87,2.2-13.74,3-19.41,1.83a36.8,36.8,0,0,1-15.87-7.39c-3.47-2.78-5.25-5.84-6.93-9.73a43.39,43.39,0,0,1-.81-6Z" transform="translate(-1133.14 -509.69)"/><path class="cls-2" d="M1621.43,597.26c4.52-.22,9.06-.54,13.6-.57l-1-1c.41,3.34,1.55,7,3.84,9.51,1.72,1.9,4.11,2.58,6.54,3.14,2.72.62,5.53,1.53,8.36,1.35,4.87-.31,10-3.11,11.69-7.88s-1-7.87-5.22-9.63a90.09,90.09,0,0,0-11.52-3.87c-4.45-1.2-9.3-2-13.44-4.11-5.68-2.86-10.25-8-9.72-14.65a20.23,20.23,0,0,1,10.23-16.19,24.89,24.89,0,0,1,13.4-3.51c4.27.15,8.81.45,12.85,1.93a20.78,20.78,0,0,1,10.15,7.83,19,19,0,0,1,2.87,5.89c.49,1.86.2,3.41.2,5.27l1-1c-4.47.12-8.82-.13-13.27-.36-.69,0,.46.15.46.19a7.38,7.38,0,0,0-.31-1.54,12.19,12.19,0,0,0-2.16-3.89c-1.92-2.42-4.54-3.43-7.54-3.86-4.76-.67-10.79-1.29-14.15,2.93-2.81,3.52-3.1,8.3,1,10.84,4.58,2.84,10.91,3.09,16,4.45,6.94,1.86,15.36,4.89,18.79,11.78s3.3,16.45-2.77,21.86c-5.11,4.55-11.8,6.6-18.53,6.94a34.52,34.52,0,0,1-22.72-7.19,21.48,21.48,0,0,1-7.16-9.57,15.26,15.26,0,0,1-.64-3.75,6.53,6.53,0,0,0-.16-1.67c0-.1,0-.24,0-.34s-.61.77-.13.53c1.15-.57.14-2.3-1-1.72l-.38.18a1,1,0,0,0-.49.87,42.51,42.51,0,0,0,.62,5.4,19.89,19.89,0,0,0,3.76,7.31c4,5.27,10.48,8.76,16.73,10.6,11.16,3.28,26.43,1.13,33.89-8.7,4.24-5.59,3.88-13.49,1.59-19.79-2.22-6.12-7.72-9.82-13.51-12.23-6.38-2.67-13.21-3.31-19.75-5.35-2.28-.72-5.23-1.93-5.29-4.73-.07-3.48,2.92-6.35,6.15-6.93,3.51-.63,8.84-.31,11.94,1.43a9.27,9.27,0,0,1,4,5.14c.28.92,0,2.07.94,2.65a6.88,6.88,0,0,0,2.6.3c1.51.11,3,.25,4.54.29,2.32.07,4.65,0,7-.07a1,1,0,0,0,1-1c0-3,.13-5.28-1.12-8.18a24.71,24.71,0,0,0-5.55-8c-4.9-4.67-11.31-5.9-17.79-6.5-7.46-.69-14.27.66-20.46,5.06a21.76,21.76,0,0,0-8.53,14.25,15.49,15.49,0,0,0,3.86,13.59c3.45,3.8,8,5.84,12.88,7.18,4.44,1.22,9,2.19,13.37,3.7,3.56,1.22,10.63,2.79,10,7.67-.47,3.84-3.82,6.51-7.32,7.59s-6.81.12-10.33-.66c-3.7-.82-6.21-2-7.81-5.61a20,20,0,0,1-1.46-5.19,1,1,0,0,0-1-1c-4.54,0-9.08.35-13.6.57C1620.15,595.32,1620.14,597.32,1621.43,597.26Z" transform="translate(-1133.14 -509.69)"/><path class="cls-8" d="M1135.29,552.87s-1.56,27.4-.5,42c.42,5.88-1,20.42-.31,24.44,0,0,13.67.51,19.45.51,7.17,0,25.2,1,28,.23s.53-12.32.53-12.32c-4.32-2.15-17.37-.75-22.45-.5-2.27.11-10.53-.45-10.53-.45-1.06-1.41-.53-25.46-.16-33.3.32-6.92,1-20.58,1-20.58C1146.86,553.16,1138.81,552,1135.29,552.87Z" transform="translate(-1133.14 -509.69)"/><path class="cls-2" d="M1134.29,552.87c-.58,10.14-.91,20.31-.87,30.46,0,6.2.57,12.37.36,18.56-.2,5.79-1.16,12-.26,17.73a1,1,0,0,0,1,.73c10.32.38,20.64.47,31,.78,5.15.16,10.74.84,15.87.07,4.11-.62,3-6.8,2.67-9.72-.13-1.15,0-3.36-.77-4.32-1.14-1.46-5-1.4-6.58-1.49-6-.34-12,.66-17.93.61-2.68,0-5.36-.21-8-.38a6.6,6.6,0,0,0-1.08-.07c-.15.2.57.5.67.37a11.25,11.25,0,0,0-.24-2.07c-.37-5.32-.23-10.7-.15-16,.18-11.73.84-23.44,1.45-35.16a1,1,0,0,0-1-1c-5.06.23-10.29-1.16-15.3,0-1.25.28-.72,2.21.53,1.93,4.8-1.07,9.91.34,14.77.11l-1-1c-.51,9.68-1.08,19.35-1.33,29-.14,5.75-.24,11.5-.15,17.25,0,1.74-.71,7.78,1.47,8.59,1.57.57,4,.25,5.69.33a59.86,59.86,0,0,0,7,0c3.17-.21,6.34-.45,9.52-.53s6.06.38,9.13.57c.13,0,1.36.44.86-.09.09.1,0,.41.1.55a16.48,16.48,0,0,1,.44,3.06c.19,1.71,1,5.41-.09,6.95-.77,1.12-3.41.7-4.67.7-2.88,0-5.76-.06-8.63-.14-11.38-.31-22.76-.45-34.14-.87l1,.74a42,42,0,0,1-.06-8c.13-3.48.33-7,.43-10.44.17-6-.39-12-.4-18,0-9.94.31-19.89.87-29.8C1136.36,551.58,1134.36,551.59,1134.29,552.87Z" transform="translate(-1133.14 -509.69)"/><path class="cls-9" d="M1442.92,551.44c6.61-.24,16.72,3,22.14,6.55,6,4,10.45,13.48,11.75,20.66,1.64,9.06-2.23,32.05-15.36,38.38-11.39,5.49-28.19,7.18-39.18-2.63-18-16.1-14.1-63,20.65-63m-1,12.09c-20.09-.8-20.21,45,.75,46.34,16,1,18.14-10.56,19.39-23.19,1.31-13.19-3.35-24.66-20.14-23.15" transform="translate(-1133.14 -509.69)"/><path class="cls-2" d="M1442.92,552.44a38,38,0,0,1,12.71,2.27c4,1.33,8.21,3.07,11.26,6.07a33.28,33.28,0,0,1,9.26,21.41c.4,12.92-4.44,29.62-17.36,34.94-14,5.79-32.4,4.56-40.83-9.61-5.63-9.46-6.59-21.73-3.74-32.23a32.75,32.75,0,0,1,9.5-16c5.31-4.72,12.19-6.76,19.2-6.81a1,1,0,0,0,0-2,30.81,30.81,0,0,0-29.2,20,45.35,45.35,0,0,0,1.26,35.74,28.08,28.08,0,0,0,14.12,13.68c8.29,3.55,17.91,3.16,26.41.53,7.48-2.31,13-6.32,16.8-13.29a51.71,51.71,0,0,0,5.79-21.62,36.12,36.12,0,0,0-7.93-24.06c-3-3.78-7.06-6-11.52-7.77a41.56,41.56,0,0,0-15.73-3.24,1,1,0,0,0,0,2Z" transform="translate(-1133.14 -509.69)"/><path class="cls-2" d="M1441.92,562.53c-8-.19-12.83,6.43-14.77,13.45a36.15,36.15,0,0,0,2.09,25c4.11,8.28,12.59,11.84,21.54,9.08,10.63-3.29,12.13-16.65,12.47-26.12.19-5.52-.73-11.5-4.37-15.86-4.16-5-10.8-6.07-17-5.58-1.28.1-1.29,2.1,0,2,5.21-.41,10.87.17,14.73,4.08,3.29,3.34,4.43,8.18,4.6,12.72a56.59,56.59,0,0,1-1.64,15c-1.06,4.35-3,8.7-7.13,10.91a15.43,15.43,0,0,1-20.73-5.78c-3.78-6.43-4.62-14.74-3.33-22,1.25-7.07,5.24-15.14,13.5-14.94a1,1,0,0,0,0-2Z" transform="translate(-1133.14 -509.69)"/><path class="cls-10" d="M1522.29,619.65c6.36-9.5,11.9-33.2,15.43-44.82l.84-.23c1,8.06.38,23.39.08,29.77-.34,7.14.59,8.76.59,14.78l13.6,1c.68-10.08-1-23.63-1-35,0-9,1.17-19.39,1-31.48l-21.16-.5c-1.9,6.93-3.69,8.13-5.92,15.2-1.84,5.86-6.2,17.54-9.19,29.63h0c-3-12.09-7.35-23.76-9.2-29.62-2.22-7.08-4-8.27-5.92-15.21l-21.15.5c-.16,12.09,1,22.48,1,31.49,0,11.38-1.69,24.92-1,35l13.6-1c0-6,.93-7.64.59-14.77-.3-6.39-1-21.72.08-29.78l.84.23c3.53,11.62,9.07,35.32,15.43,44.83Z" transform="translate(-1133.14 -509.69)"/><path class="cls-2" d="M1523.15,620.16c4.35-6.64,6.69-14.69,9-22.21,1.3-4.29,2.51-8.61,3.72-12.93.53-1.93,1.06-3.85,1.61-5.77.25-.9.51-1.79.77-2.69a4.73,4.73,0,0,1,.3-1c-.22.36-.29.15.29,0l-1.27-1c.92,7.62.62,15.43.35,23.09-.12,3.47-.4,7-.34,10.45.06,3.68.63,7.32.66,11a1,1,0,0,0,1,1l13.6,1a1,1,0,0,0,1-1c.68-11.11-.85-22.23-1-33.33s1.11-22.09,1-33.16a1,1,0,0,0-1-1l-21.16-.5a1,1,0,0,0-1,.73,88.5,88.5,0,0,1-4.16,10.43c-1.26,2.95-2.15,6-3.18,9.07-2.83,8.37-5.63,16.75-7.77,25.33a1,1,0,0,0,1,1.27h0a1,1,0,0,0,1-1.27c-2.15-8.58-4.94-17-7.77-25.33-1-3-1.93-6.12-3.19-9.07a87.28,87.28,0,0,1-4.15-10.42,1,1,0,0,0-1-.74l-21.15.5a1,1,0,0,0-1,1c-.12,11.07,1.14,22.1,1,33.17s-1.68,22.21-1,33.32a1,1,0,0,0,1,1l13.6-1a1,1,0,0,0,1-1c0-3.56.56-7.08.65-10.65s-.21-7.21-.34-10.81c-.26-7.66-.57-15.46.36-23.09l-1.27,1c1,.26.18-.31.44.49s.4,1.39.6,2.09q.58,2,1.14,4.05c.86,3,1.7,6.11,2.57,9.17,1.88,6.56,3.82,13.13,6.34,19.47a64.33,64.33,0,0,0,3.3,7.21c.89,1.6,1.23,2.58,3,2.61,3.5.06,7,0,10.52,0a1,1,0,0,0,0-2c-3.49,0-7-.18-10.52,0a2.43,2.43,0,0,1-.66,0c-.24-.07.29.55.11-.31-.21-1-1.29-2.29-1.76-3.25a81.44,81.44,0,0,1-3.51-8.54c-2.24-6.28-4.09-12.7-5.89-19.12-.81-2.9-1.61-5.81-2.43-8.72-.56-2-.59-4.5-2.76-5.08a1,1,0,0,0-1.26,1c-.93,7.63-.62,15.43-.36,23.09.12,3.48.41,7,.35,10.45-.06,3.69-.63,7.33-.66,11l1-1-13.6,1,1,1c-.68-11.11.85-22.22,1-33.32s-1.12-22.1-1-33.17l-1,1,21.15-.5-1-.73a69.83,69.83,0,0,0,3.83,9.7c1.43,3.17,2.4,6.51,3.51,9.8,2.83,8.37,5.62,16.75,7.77,25.33l1-1.27h0l1,1.26c2.15-8.58,5-17,7.78-25.33,1.11-3.29,2.08-6.62,3.5-9.79a70.5,70.5,0,0,0,3.84-9.71l-1,.74,21.16.5-1-1c.11,11.07-1.14,22.1-1,33.16s1.68,22.22,1,33.33l1-1-13.6-1,1,1c0-3.57-.57-7.09-.66-10.65s.22-7.22.34-10.81c.27-7.66.57-15.47-.35-23.09a1,1,0,0,0-1.27-1c-1.47.39-1.55.93-2,2.39-.55,1.87-1.07,3.75-1.6,5.63-1.24,4.45-2.46,8.9-3.77,13.32-2.42,8.16-4.81,17-9.51,24.17C1520.72,620.23,1522.45,621.23,1523.15,620.16Z" transform="translate(-1133.14 -509.69)"/><path class="cls-4" d="M1193.71,526.13c0,2.89,4.19,10.11,6.31,10.46,0,0,14.08-5.26,17.31-7.1,3.67-2.1,9.74-5.48,12.53-8.78,0,0-4.91-10.2-7.18-10.2S1193.71,523.23,1193.71,526.13Z" transform="translate(-1133.14 -509.69)"/><path class="cls-2" d="M1192.71,526.13a16.61,16.61,0,0,0,5.65,10.67c2.08,1.61,4.78-.32,6.9-1.14,3.86-1.5,7.79-2.94,11.51-4.76,4.83-2.36,10.18-5.42,13.79-9.48a1,1,0,0,0,.16-1.21,44.2,44.2,0,0,0-5.12-8.64c-1.8-2.22-3.12-2.23-5.58-1.28a139.14,139.14,0,0,0-21.44,10.6c-1.75,1.05-5.63,2.84-5.87,5.24-.13,1.28,1.87,1.27,2,0,0,.25.4-.37.65-.61a12,12,0,0,1,1.71-1.3c1.65-1.13,3.38-2.14,5.12-3.11,4.23-2.37,8.58-4.54,13-6.56,1.72-.8,3.46-1.58,5.23-2.27.91-.35,1.92-.87,2.57-.57,1.66.75,3.09,4,3.93,5.52q1.11,2,2.09,4l.16-1.21c-5.63,6.32-14.48,9.82-22.2,12.85-1.59.63-3.17,1.24-4.76,1.84-.55.21-1.78,1-2.38.9.31,0-.87-1-1.12-1.28a17.41,17.41,0,0,1-1.76-2.51,13.21,13.21,0,0,1-2.22-5.68C1194.64,524.85,1192.64,524.84,1192.71,526.13Z" transform="translate(-1133.14 -509.69)"/></svg>