<svg id="Calque_1" data-name="Calque 1" xmlns="http://www.w3.org/2000/svg" viewBox="0 0 123.08 123.08"><defs><style>.cls-1{fill:#1d71b8;}.cls-2{fill:#1d1d1b;}.cls-3{opacity:0.9;}.cls-4{fill:#ffface;}.cls-5{opacity:0.24;}.cls-6{fill:#6f5341;}.cls-7{opacity:0.36;}.cls-8{fill:#29235c;}.cls-9{fill:#fff;}.cls-10{opacity:0.15;}.cls-11{fill:none;}</style></defs><title>libellule2</title><path class="cls-1" d="M408.73,290.62a1.47,1.47,0,0,1,1.89-1.05,2.21,2.21,0,0,1,1.38,1.88,5,5,0,0,1-.46,2.39,11.13,11.13,0,0,0,.14-2.09,2.06,2.06,0,0,1,1-1.76,2.44,2.44,0,0,1,1-.17,6.84,6.84,0,0,1,2.74.3,2.41,2.41,0,0,1,1.6,2.08,2.23,2.23,0,0,1,2.3-1.57,5.34,5.34,0,0,1,2.77,1.12,11.79,11.79,0,0,0,2.58,1.57c1.56.56,3.29.22,4.94,0a27.55,27.55,0,0,1,6.09-.05,55.1,55.1,0,0,1,6.22,1.1c4.95,1.08,9.91,2.15,14.76,3.63.41.12.91.42.79.83,0,.42-.52.61-.95.64-5.05.44-10.12.46-15.19.48a55.28,55.28,0,0,1-6.31-.21,28.91,28.91,0,0,1-5.95-1.32c-1.57-.54-3.19-1.22-4.84-1a11.91,11.91,0,0,0-2.85,1,5.28,5.28,0,0,1-2.93.53,2.24,2.24,0,0,1-1.93-2,2.41,2.41,0,0,1-2,1.7,6.74,6.74,0,0,1-2.74-.27,2.41,2.41,0,0,1-.95-.38,2,2,0,0,1-.57-1.92,11.44,11.44,0,0,0,.29-2.08,4.8,4.8,0,0,1,0,2.44,2.22,2.22,0,0,1-1.74,1.55,1.47,1.47,0,0,1-1.63-1.42l-4.12-3.1Z" transform="translate(-356.49 -233.95)"/><path class="cls-2" d="M409.16,290.87c2,.63,2.62,1.57,1.89,2.84l1,.26a4.61,4.61,0,0,1,.88-2.59c.2-.89.68-1.25,1.45-1.08a3,3,0,0,1,3.16,2c.1.54.8.4,1,0,1.21-3,4.61.17,5.91.92a6.45,6.45,0,0,0,2.87.87c3.13.21,6.23-.64,9.42-.32a85.65,85.65,0,0,1,10.26,2c1.34.3,9.73,1.78,9.65,2.86-.07.83-3.86.65-4.78.68-1.58.06-3.16.09-4.75.11-3.37,0-6.8.18-10.17-.1s-6.52-1.83-9.91-2.34a6.3,6.3,0,0,0-2.63.12c-1.67.44-5.76,3.15-6.37-.31a.5.5,0,0,0-.91-.12q-1.43,2-3.33,1.35c-1.31,0-1.94-.84-1.9-2.53,0-.38.17-1.14.19-1.52l-1,.14c-1.22,2.58-2,3.32-2.48,2.24a.2.2,0,0,0-.06-.11c-.06,0-.12-.13-.19-.17a10.31,10.31,0,0,1-1.26-.94L404.23,293v.87l4.75-2.85a.5.5,0,0,0-.5-.86L403.73,293a.51.51,0,0,0,0,.87l2.63,2a8,8,0,0,1,1.31,1c.33.37,0,.58.56,1.1a2.14,2.14,0,0,0,2.83-.07c1.21-1,1.14-2.61.94-4-.08-.58-.95-.4-1,.13-.1,1.91-.95,3.95,1.34,4.79,2.06.74,4.62.64,5.56-1.58l-.91-.12c.5,2.85,3.48,2.59,5.6,1.78,1.75-.67,3-1.17,4.91-.72,1.1.25,2.14.72,3.22,1.05a29.28,29.28,0,0,0,5.25,1.07,108.36,108.36,0,0,0,14.86.1,34.85,34.85,0,0,0,6.78-.39c.61-.14,1.22-.32,1.3-1.06s-.55-1.09-1.15-1.37c-2.18-1-5-1.41-7.34-2a114.54,114.54,0,0,0-13.33-2.73,29.7,29.7,0,0,0-6.53,0,17.75,17.75,0,0,1-3.33.27c-1.78-.17-2.58-.93-3.94-1.8-2-1.27-4.72-1.93-5.8.74h1c-.44-2.3-2.7-2.94-4.82-2.74-2.62.23-2.27,2.28-2.6,4.39a.5.5,0,0,0,1,.26c.54-1.47.89-3.47-.62-4.55a2,2,0,0,0-3.1.95C408.05,291,408.91,291.46,409.16,290.87Z" transform="translate(-356.49 -233.95)"/><g class="cls-3"><path class="cls-4" d="M411,297.07a27.71,27.71,0,0,0-3.61,9.35c-.28,1.49-.44,3-.76,4.46-.75,3.37-2.33,6.49-3.45,9.75s-1.76,6.89-.58,10.13a23.37,23.37,0,0,1,3.9-2.3,14.88,14.88,0,0,0,6-7.51,32.77,32.77,0,0,0,1.87-9.57,29,29,0,0,0-.44-9.21,18.32,18.32,0,0,1-.71-3.25,1.56,1.56,0,0,0-.15-.71,1.47,1.47,0,0,0-.4-.34l-1.52-1" transform="translate(-356.49 -233.95)"/><path class="cls-2" d="M410.53,296.82a29.78,29.78,0,0,0-3.29,7.83c-.79,3.14-1,6.32-2.1,9.4-1.94,5.49-4.93,10.9-3.05,16.84a.51.51,0,0,0,.84.22c2.73-2.16,5.66-3,7.81-5.94a22,22,0,0,0,3.65-9.67,39.4,39.4,0,0,0,.36-11.52,28.8,28.8,0,0,0-1.08-5.19c-.46-1.32-1-1.51-2.3-2.35-.54-.35-1,.51-.5.86,2.74,1.8,3.08,7,3.13,9.91a43.78,43.78,0,0,1-1,10.21,18.08,18.08,0,0,1-4,8.31c-1.94,2.13-4.58,2.94-6.78,4.67l.84.22c-1.92-6.05,1.49-11.53,3.32-17.12a76,76,0,0,0,1.63-7.77,28.84,28.84,0,0,1,3.39-8.41.5.5,0,0,0-.87-.5Z" transform="translate(-356.49 -233.95)"/></g><g class="cls-3"><path class="cls-4" d="M415.27,298.64a9.37,9.37,0,0,0,.37,4.09,37.89,37.89,0,0,1,.9,7.66c0,3.45-.38,6.93.14,10.34.16,1.08.42,2.14.68,3.2a20.5,20.5,0,0,0,1.27,4,7.17,7.17,0,0,0,2.67,3.14,1.14,1.14,0,0,0,.83.22,1.2,1.2,0,0,0,.61-.46c1.27-1.64,1.39-3.86,1.56-5.93a61.14,61.14,0,0,1,1.22-8.18c.48-2.19,1.08-4.36,1.35-6.59a13.7,13.7,0,0,0-.61-6.64,7.64,7.64,0,0,0-4.62-4.58c-1-.31-2.43.4-3.27-.24-.28-.21-1-.89-.82-1.27s-.31.41-.77.69-1.16.16-1.51.57" transform="translate(-356.49 -233.95)"/><path class="cls-2" d="M414.79,298.51a12.34,12.34,0,0,0,.37,4.36,40.57,40.57,0,0,1,.87,7c.1,3.94-.42,7.87.31,11.77.29,1.57,3.34,13.35,6.83,9.39,2-2.22,1.57-6.21,1.91-8.92.52-4.06,1.82-8,2.29-12,.36-3,.09-6.32-1.77-8.86a7.69,7.69,0,0,0-3-2.53c-.75-.33-4.81-.33-4.52-1.35a.5.5,0,0,0-.84-.48c-.63.74-1.42.84-2.21,1.32-.55.34,0,1.21.5.87,1.12-.69,1.56-.48,2.42-1.49l-.84-.48c-.27.95.6,1.82,1.42,2.14,1.07.42,2.23,0,3.34.37a6.89,6.89,0,0,1,4.19,4.78c1,3.4.18,6.94-.58,10.29a73.29,73.29,0,0,0-1.54,8.82,30.22,30.22,0,0,1-.57,4.74c-.18.67-.72,2.47-1.81,2.37-.66-.06-1.63-1.5-2-2.05-1.69-2.65-2.36-6.62-2.59-9.71s.16-6.29,0-9.44a39,39,0,0,0-.44-4.45c-.32-2-1.1-4.12-.82-6.19.09-.63-.87-.9-1-.27Z" transform="translate(-356.49 -233.95)"/></g><g class="cls-3"><path class="cls-4" d="M411.72,290.77a27.8,27.8,0,0,1-1.58-9.9c0-1.51.19-3,.18-4.52,0-3.45-.93-6.83-1.35-10.25s-.28-7.11,1.55-10a23.08,23.08,0,0,0,3.33,3.06,14.83,14.83,0,0,1,4.31,8.59,33.21,33.21,0,0,1-.16,9.75,28.78,28.78,0,0,1-2.36,8.92,19.15,19.15,0,0,0-1.37,3,1.41,1.41,0,0,1-.29.66,1.29,1.29,0,0,1-.46.25l-1.69.66" transform="translate(-356.49 -233.95)"/><path class="cls-2" d="M412.2,290.63a28.6,28.6,0,0,1-1.57-8.84c0-2.94.31-5.79-.06-8.72-.72-5.59-2.63-11.48.38-16.75l-.78.1c1.85,2.24,4.31,3.57,5.76,6.21a19.09,19.09,0,0,1,2,9.52,44.06,44.06,0,0,1-1.16,9.35c-.68,2.9-2.05,7.83-5.1,9-.59.23-.33,1.2.27,1,1.38-.54,2-.64,2.75-1.81a29.55,29.55,0,0,0,2.08-4.69,38.44,38.44,0,0,0,2.11-11.5,22.15,22.15,0,0,0-1.45-10c-1.5-3.48-4.26-5-6.58-7.76a.5.5,0,0,0-.78.1c-2.79,4.88-1.62,10.28-.78,15.53.56,3.55.29,6.88.32,10.44a29.78,29.78,0,0,0,1.6,9.11c.21.61,1.17.35,1-.27Z" transform="translate(-356.49 -233.95)"/></g><g class="cls-3"><path class="cls-4" d="M416.26,290.12a9.19,9.19,0,0,1,1.21-3.92,37.59,37.59,0,0,0,2.47-7.3c.76-3.36,1.07-6.85,2.29-10.09.38-1,.86-2,1.33-3a21.29,21.29,0,0,1,2.07-3.63,7.19,7.19,0,0,1,3.26-2.52,1.12,1.12,0,0,1,.86,0,1.14,1.14,0,0,1,.5.58c.91,1.87.56,4.06.3,6.12a60.07,60.07,0,0,0-.51,8.26c0,2.24.14,4.49-.05,6.73a13.8,13.8,0,0,1-2,6.36,7.59,7.59,0,0,1-5.48,3.51,9.31,9.31,0,0,0-3.13.37,5,5,0,0,1-.95.43c-.53.12-.52-.67-.92-1s-1-.36-1.27-.84" transform="translate(-356.49 -233.95)"/><path class="cls-2" d="M416.76,290.12c.21-2.9,2.16-5.8,3-8.6s1.25-5.89,1.9-8.85a30.82,30.82,0,0,1,3.28-8.46c.6-1.08,2.5-4.22,4.09-4s1.32,3.5,1.21,4.62c-.28,3-.67,5.9-.7,8.9,0,3.32.35,6.74-.42,10-1,4.11-3.54,6.73-7.79,7.06a13,13,0,0,1-2.63.4,9.32,9.32,0,0,1-2.09-1.38c-.46-.45-1.17.26-.71.71a19.07,19.07,0,0,0,1.49,1.2c.31.24.17.54.54.67,1.09.38,2.73-.47,3.8-.61,3.16-.42,5.54-1.63,7.14-4.52,2-3.55,1.72-7.75,1.68-11.66a64,64,0,0,1,.25-6.93,35.83,35.83,0,0,0,.51-6.19c-.17-2.11-.88-4-3.19-3-3,1.35-4.44,4.8-5.69,7.58-1.68,3.75-2.06,7.76-3,11.72a38,38,0,0,1-1.8,5.72c-.77,1.9-1.75,3.56-1.9,5.63-.05.65.95.64,1,0Z" transform="translate(-356.49 -233.95)"/></g><g class="cls-5"><path class="cls-6" d="M402.16,327.58a8,8,0,0,0,3.86-2.5,20.25,20.25,0,0,0,2.57-3.88c2.51-4.64,4.6-9.83,3.92-15.06a25.81,25.81,0,0,1-.39-3.15c0-1.65.54-3.33.1-4.92a3.33,3.33,0,0,1,.92,1.51,8.87,8.87,0,0,1,.2,1.56c.14,1.54.67,3,.89,4.55a19.71,19.71,0,0,1,.11,3.26,37.06,37.06,0,0,1-1.44,10.38,16.92,16.92,0,0,1-5.79,8.56,25.81,25.81,0,0,1-4.52,2.49,14.55,14.55,0,0,1-.74-3.13" transform="translate(-356.49 -233.95)"/><path class="cls-6" d="M402.29,328.06c5.11-1.66,7.67-7.69,9.38-12.36A21.14,21.14,0,0,0,413.1,307a39.57,39.57,0,0,1-.45-4.85,17.62,17.62,0,0,0,.05-4.23l-.83.49c1.08,1.23,1,3.13,1.3,4.67a25.27,25.27,0,0,1,.69,5,40.69,40.69,0,0,1-.88,8.95c-1.41,6.25-4.93,10.18-10.65,12.87l.74.3a18.51,18.51,0,0,1-.74-3.13c-.1-.64-1.06-.37-1,.26a21.07,21.07,0,0,0,.74,3.14.52.52,0,0,0,.74.3c2.83-1.34,5.4-2.78,7.37-5.27a20.78,20.78,0,0,0,3.91-9.06,36,36,0,0,0,.65-10.4c-.2-1.9-.67-3.85-1-5.74a4.71,4.71,0,0,0-1.19-2.64c-.36-.41-.92,0-.84.49.4,2.27-.21,4.58.11,6.89a20,20,0,0,1-.59,8.67c-1.38,4.68-4.2,11.69-9.24,13.34-.6.2-.34,1.17.27,1Z" transform="translate(-356.49 -233.95)"/></g><g class="cls-5"><path class="cls-6" d="M418,326.07a1.66,1.66,0,0,0,2.15.28,3,3,0,0,0,1.24-2,17.13,17.13,0,0,0,.23-2.37c.22-2.69,1.32-5.21,2.13-7.78s1.36-5.39.47-7.93a15,15,0,0,0-1.82-3.27c-1.1-1.65-2.2-3.29-3.4-4.86,2.18.72,4.47,1.5,6,3.22A8.75,8.75,0,0,1,427,307a26,26,0,0,1-.74,5.94l-1.48,7.27a22.93,22.93,0,0,0-.43,2.59c-.08.83-.07,1.67-.13,2.51a15.15,15.15,0,0,1-.9,4.2c-.25.7-.72,1.5-1.46,1.52a2.05,2.05,0,0,1-1.44-.91,8.28,8.28,0,0,1-2.21-3.73" transform="translate(-356.49 -233.95)"/><path class="cls-6" d="M417.68,326.43a2.39,2.39,0,0,0,3.74-.67,7.31,7.31,0,0,0,.7-3.33,27.12,27.12,0,0,1,1.57-6.34c1.07-3.16,2.16-6.6,1-9.91-1-3-3.4-5.77-5.27-8.24l-.57.73c3.61,1.2,6.72,2.75,7.42,6.86.56,3.3-.46,6.73-1.12,10a62.16,62.16,0,0,0-1.43,8.1c-.1,1.6.12,4.19-.9,5.54-.05.71-.44.91-1.18.61a1,1,0,0,1-1.42-.58,6.25,6.25,0,0,1-1.6-2.94.5.5,0,0,0-1,.26c.44,1.65,2.68,6.11,5,4.71,1.39-.84,1.72-3.56,1.9-4.93.34-2.62.48-5.17,1-7.77.87-4.27,2.54-9.14,1.63-13.53s-4.25-6-8.07-7.24c-.39-.13-.83.38-.57.73q2,2.67,3.83,5.48a10.25,10.25,0,0,1,1.37,8.45c-.54,2.35-1.57,4.55-2.15,6.89-.3,1.18-.61,8.66-3.26,6.46-.49-.41-1.2.29-.7.71Z" transform="translate(-356.49 -233.95)"/></g><g class="cls-5"><path class="cls-6" d="M410.57,286.67a1.88,1.88,0,0,0,2-.26,4.54,4.54,0,0,0,1.25-1.74,17.82,17.82,0,0,0,1.65-9.32c-.11-1.14-.33-2.26-.38-3.4s.06-2,.12-3c.2-3.32,0-6.81-1.69-9.69a10.9,10.9,0,0,1,2.24,2.46,10.41,10.41,0,0,1,.92,2.17,29.42,29.42,0,0,1,1.49,5.44,28.2,28.2,0,0,1-.07,6.36,35.38,35.38,0,0,1-.76,5.24,39,39,0,0,1-3.38,8.19,4.94,4.94,0,0,1-.91,1.38c-.44.41-1.21.61-1.58.15a1.28,1.28,0,0,1-.21-.53,9.79,9.79,0,0,1-.26-2.35,1.49,1.49,0,0,0-.32-1.17" transform="translate(-356.49 -233.95)"/><path class="cls-6" d="M410.44,287.16c4.82,1.32,5.74-7.93,5.61-10.94-.07-1.56-.42-3.09-.44-4.65s.17-2.88.18-4.32A16.91,16.91,0,0,0,414,259l-.78.61c4.87,4.42,5,11.74,4.25,17.83a28.07,28.07,0,0,1-2.71,9,12.67,12.67,0,0,1-1,2,1.42,1.42,0,0,1-1.1.95c-.95,1-1.32.69-1.11-.86a5,5,0,0,0-.41-2.21c-.29-.57-1.16-.06-.86.51.65,1.24-.19,5.41,2.53,4.4,1.48-.55,2.2-3,2.8-4.28a32.55,32.55,0,0,0,2.13-5.48c1.91-7.18,2.08-17.21-3.84-22.59a.5.5,0,0,0-.78.61c2.28,4.28,1.23,8.34,1.53,12.89a40.25,40.25,0,0,1,.37,6c-.14,1.81-1.1,8.68-4.31,7.8a.5.5,0,0,0-.26,1Z" transform="translate(-356.49 -233.95)"/></g><g class="cls-5"><path class="cls-6" d="M416.4,289.5a7,7,0,0,0,7.79-.9,10.37,10.37,0,0,0,3.41-7.38c.08-1.41-.06-2.82,0-4.23.05-2.78.71-5.51,1-8.28s.17-5.7-1.23-8.1a4.44,4.44,0,0,1,1.57-.88,1.09,1.09,0,0,1,.56-.07c.4.09.61.51.74.89a14.14,14.14,0,0,1,.25,6.57,38.55,38.55,0,0,0-.74,6.59c0,1.33.27,2.65.36,4a19.35,19.35,0,0,1-.36,5.37,12.53,12.53,0,0,1-2.22,5.19,7.47,7.47,0,0,1-4.73,2.93c-1,.15-2.08,0-3.09.28-.65.15-2,1-1.94.35.09-1.12-1.15-1.65-1.26-2.13" transform="translate(-356.49 -233.95)"/><path class="cls-6" d="M416.15,289.93c5.62,2.85,10.94-1.89,11.81-7.44a34.45,34.45,0,0,0,.11-5.08,52.58,52.58,0,0,1,.8-7.18c.48-3.43.52-6.74-1.11-9.87l-.18.68c3-2.21,2.65,3.58,2.52,4.84-.18,1.83-.59,3.63-.78,5.47-.4,3.9.74,7.67-.09,11.58-1,4.46-3.38,7.4-8,7.85-.62.06-2.52.75-3,.52-.06,0-1.25-1.82-1.27-1.87-.31-.57-1.18-.06-.87.5.45.81.95,1.53,1.37,2.36a.5.5,0,0,0,.44.25,6.93,6.93,0,0,0,1.52-.44,28.68,28.68,0,0,1,3.46-.43,7.71,7.71,0,0,0,4.05-2c3.06-2.81,3.9-7.55,3.71-11.52-.13-2.77-.5-5.27-.1-8.07a35.83,35.83,0,0,0,.7-6.69c-.13-2.94-1.11-5.45-4.11-3.2a.5.5,0,0,0-.18.68c2.83,5.46.06,11.63.18,17.4.06,2.82,0,5.65-1.59,8.1-1.95,2.92-5.57,4.37-8.83,2.71-.58-.29-1.08.57-.51.86Z" transform="translate(-356.49 -233.95)"/></g><path class="cls-2" d="M421.89,298.39c.78,1.3,1.77,1.32,3.14,1.23,1.59-.11,2,.65,3.32,1.25a2.49,2.49,0,0,0,1.71.34.51.51,0,0,0,.3-.74l0-.06a.51.51,0,0,0-.68-.18l-.05,0c-.54.35,0,1.22.5.87l.05,0-.68-.18,0,.06.3-.74c-1,.36-2.36-1.33-3.26-1.61-1.33-.42-2.87.78-3.79-.75a.5.5,0,0,0-.86.51Z" transform="translate(-356.49 -233.95)"/><path class="cls-2" d="M424.16,292.57c1.25-1,2.31-.53,3.69-.34a10.63,10.63,0,0,0,3.18-.18c.63-.1.36-1.07-.27-1a13.42,13.42,0,0,1-4.29-.14,3.6,3.6,0,0,0-2.81.76c-.51.39,0,1.26.5.87Z" transform="translate(-356.49 -233.95)"/><path class="cls-2" d="M414.09,298.67a6.71,6.71,0,0,0-.58,2.49c0,1,.76,2,.62,2.95l.92-.12-.15-.28c-.29-.57-1.15-.06-.86.51l.14.27c.19.36.86.32.92-.12a4.78,4.78,0,0,0-.42-2.25,4.68,4.68,0,0,1,.37-3.18c.24-.6-.72-.86-1-.27Z" transform="translate(-356.49 -233.95)"/><path class="cls-2" d="M410,297.31c-2.38.95-1.29,3.55-2.45,5.35l.43-.25h-.13l.43.25-.06-.1c-.34-.55-1.21-.05-.87.5.47.76,1.09.17,1.31-.42a10.52,10.52,0,0,0,.51-2.15c.14-.88.11-1.82,1.1-2.22.59-.24.33-1.2-.27-1Z" transform="translate(-356.49 -233.95)"/><path class="cls-2" d="M411.27,289.29c-.84-.31-.51-1.7-.64-2.39a2.44,2.44,0,0,0-.24-.72,1.36,1.36,0,0,0-.24-.35c-.14-.14-.18-.29-.2-.08l-.25.43.07,0c.59-.27.08-1.14-.5-.86a.59.59,0,0,0-.27.81c.11.23.4.35.53.59a2.22,2.22,0,0,1,.16,1c0,1.08.17,2.16,1.31,2.57.61.22.87-.75.27-1Z" transform="translate(-356.49 -233.95)"/><path class="cls-2" d="M415.69,289.65a2.37,2.37,0,0,1,.48-1.89,2.38,2.38,0,0,0,.43-1.31.5.5,0,0,0-1,0c0,.6-.52,1.07-.76,1.6a3.14,3.14,0,0,0-.12,1.87c.11.63,1.07.36,1-.27Z" transform="translate(-356.49 -233.95)"/><path class="cls-2" d="M410.53,296.82a29.78,29.78,0,0,0-3.29,7.83c-.79,3.14-1,6.32-2.1,9.4-1.94,5.49-4.93,10.9-3.05,16.84a.51.51,0,0,0,.84.22c2.73-2.16,5.66-3,7.81-5.94a22,22,0,0,0,3.65-9.67,39.4,39.4,0,0,0,.36-11.52,28.8,28.8,0,0,0-1.08-5.19c-.46-1.32-1-1.51-2.3-2.35-.54-.35-1,.51-.5.86,2.74,1.8,3.08,7,3.13,9.91a43.78,43.78,0,0,1-1,10.21,18.08,18.08,0,0,1-4,8.31c-1.94,2.13-4.58,2.94-6.78,4.67l.84.22c-1.92-6.05,1.49-11.53,3.32-17.12a76,76,0,0,0,1.63-7.77,28.84,28.84,0,0,1,3.39-8.41.5.5,0,0,0-.87-.5Z" transform="translate(-356.49 -233.95)"/><path class="cls-2" d="M414.79,298.51a15.88,15.88,0,0,0,.57,5.3,39.47,39.47,0,0,1,.68,7.52c0,4.05-.28,7.95.65,11.94.62,2.69,1.49,6.88,4.35,8.21,2.24,1,3.13-2,3.44-3.73.78-4.26,1-8.54,1.95-12.79.83-3.66,1.71-7.55.45-11.22-1-3-3-4.54-5.89-5.53-1.1-.37-2.37-1.53-3.57-1.4-.23,0-.25.16-.43.25-.64.33-1.33.76-2,1.15s0,1.21.5.87c-.09.05,1.88-1,2-1,.51-.09,1.17.48,1.7.71,1.61.7,3.25.71,4.62,2a8.7,8.7,0,0,1,2.44,4.47c.78,3.47-.25,7.05-1,10.42a67,67,0,0,0-1.41,8.79c-.14,1.55-.06,3.46-.84,4.85-.67,1.18-1.27,1.71-2.44.57a7.27,7.27,0,0,1-1.34-1.87,25.13,25.13,0,0,1-2.26-9.58c-.16-3.15.19-6.3,0-9.45s-1.67-7-1.24-10.16c.09-.63-.87-.9-1-.27Z" transform="translate(-356.49 -233.95)"/><path class="cls-2" d="M412.1,290.71a28.7,28.7,0,0,1-1.56-8.85c0-2.93.31-5.78-.07-8.71-.72-5.59-2.62-11.49.39-16.75l-.79.1c1.86,2.24,4.31,3.57,5.76,6.21a19.1,19.1,0,0,1,2,9.52,45.21,45.21,0,0,1-1.16,9.34c-.68,2.9-2.06,7.83-5.1,9-.59.23-.34,1.2.26,1,1.39-.54,2-.63,2.75-1.8a30,30,0,0,0,2.09-4.69,38.75,38.75,0,0,0,2.1-11.5,22.13,22.13,0,0,0-1.45-10c-1.49-3.48-4.26-5-6.57-7.77a.51.51,0,0,0-.79.11c-2.79,4.87-1.61,10.28-.78,15.52.57,3.56.29,6.88.33,10.44a29.5,29.5,0,0,0,1.6,9.12c.2.6,1.17.34,1-.27Z" transform="translate(-356.49 -233.95)"/><path class="cls-2" d="M416.66,290.2c.23-3,2.29-6.1,3.13-9s1.18-5.92,1.86-8.86a29.1,29.1,0,0,1,3.62-8.76,9.29,9.29,0,0,1,1.55-2l1-.79c.64-.75,1.18-.79,1.64-.11,1.31.84.76,3.61.6,4.95a75.8,75.8,0,0,0-.61,9c0,3.44.35,7-.76,10.32a8.86,8.86,0,0,1-3.7,4.93c-1.62,1-3.19.64-4.93,1-.71.15-1.23.43-1.87.15-.24-.11-1.49-1.06-1.67-1.21-.48-.42-1.19.28-.7.7s1,.82,1.6,1.29c.16.13.15.52.39.6,1,.31,2-.45,3-.61,1.68-.25,3.09-.13,4.65-1.05a8.84,8.84,0,0,0,2.85-2.76c2.23-3.36,2.19-7.56,2.13-11.42,0-2.49,0-5,.19-7.44a50.74,50.74,0,0,0,.57-6.26c-.07-1.9-.58-4.31-2.88-3.49-3.07,1.09-4.59,4.65-5.84,7.35-1.73,3.74-2.19,7.69-3.06,11.67a37.83,37.83,0,0,1-1.88,6.14c-.77,1.9-1.75,3.56-1.91,5.63-.05.64.95.64,1,0Z" transform="translate(-356.49 -233.95)"/><g class="cls-7"><path class="cls-8" d="M405.56,293.29a6.21,6.21,0,0,1,1.57,1,4.72,4.72,0,0,1,.68.93,3.9,3.9,0,0,1,.36.74c.1.3.14.62.23.93a1.13,1.13,0,0,0,1.78.74,2.21,2.21,0,0,0,1-1,3.84,3.84,0,0,0,.22-1.47l0-2.5c-.13.43-.18.88-.27,1.31a2.9,2.9,0,0,1-.48,1.24,1.36,1.36,0,0,1-1.15.57,2.22,2.22,0,0,1-1.37-1,15.81,15.81,0,0,0-1.46-1.49,3.14,3.14,0,0,0,1.87-2,4.74,4.74,0,0,1-2.33,1.56l-.67.28" transform="translate(-356.49 -233.95)"/><path class="cls-8" d="M405.44,293.51a5.07,5.07,0,0,1,1.95,1.55,16.76,16.76,0,0,1,.88,2.24,1.3,1.3,0,0,0,1.34.79c2.58-.18,2.08-3.72,2.11-5.41a.25.25,0,0,0-.49-.06c-.24,1-.48,4-2.5,2.42-.66-.53-1.19-1.31-1.82-1.89l-.05.4a3.57,3.57,0,0,0,2-2.11c.11-.29-.3-.4-.46-.19a6.32,6.32,0,0,1-2.85,1.72c-.29.12-.16.6.14.48a7,7,0,0,0,3.15-1.95l-.46-.19a3.12,3.12,0,0,1-1.76,1.8.26.26,0,0,0-.05.4c.85.77,2,2.79,3.38,2.51s1.5-2.16,1.77-3.27l-.49-.07c0,.95,0,1.93-.05,2.87-.06.72-.47,1.92-1.37,2-1.3.12-1.19-1.1-1.47-1.81a5.21,5.21,0,0,0-2.64-2.67c-.28-.15-.54.28-.25.44Z" transform="translate(-356.49 -233.95)"/></g><g class="cls-7"><path class="cls-8" d="M457.6,299.59a.77.77,0,0,0,.57-1.17,10.66,10.66,0,0,1-4.81.54,48.59,48.59,0,0,0-6.49.27h0a14.34,14.34,0,0,1-2.62,0A49.63,49.63,0,0,1,433.59,298c-2.66-.72-5.3-1.91-8-1.63-1.19.12-2.34.51-3.53.61a12.79,12.79,0,0,1-2.62-.13,11.36,11.36,0,0,1-4.93-1.5,4.48,4.48,0,0,1-2.12-4.41l-.11.06c-.26,1.2-.48,2.42-.65,3.64s-.24,2.87.82,3.66a3.84,3.84,0,0,0,2.22.53.93.93,0,0,0,.44-.06c.18-.09.33.09.42-.08.18-.34,1-.36,1.29-.58.83-.61.75,0,1.59.58a4.53,4.53,0,0,0,3.4.26,4.84,4.84,0,0,0,1.19-.67,6.76,6.76,0,0,1,4.89-.58c1.65.34,3.2,1,4.81,1.51,4.93,1.47,19.72.85,24.83.33Z" transform="translate(-356.49 -233.95)"/><path class="cls-8" d="M457.73,299.81c.74-.34.87-.7.68-1.46a.25.25,0,0,0-.31-.17c-3.35,1.26-7.67.45-11.23.8-.22,0-.38.35-.13.47-1.3-.59-2.82-.43-4.27-.52-1.77-.1-3.55-.22-5.31-.48-2.88-.44-5.55-1.54-8.39-2.13s-4.94.39-7.62.39c-3.5,0-9-1.3-8.55-5.81,0-.2-.22-.29-.37-.22-.9.46-1.16,4.92-.94,6,.37,1.89,2.19,2.69,4,2.28.55-.12,1-.67,1.59-.69.9,0,1.59.83,2.5,1a5,5,0,0,0,2.5-.17c.86-.31,1.54-.95,2.43-1.21a7.77,7.77,0,0,1,3.86.08c2.36.54,4.51,1.58,6.92,1.9a62.35,62.35,0,0,0,7.6.43c2.8,0,5.6,0,8.4-.16,1.12,0,2.25-.1,3.37-.18.45,0,2.65-.47,2.95-.22s.6-.15.35-.35c-.71-.6-3.45.09-4.36.14-2.8.16-5.61.25-8.41.27s-5.4,0-8.09-.24c-2.94-.25-5.36-1.23-8.19-2a9.22,9.22,0,0,0-3.8-.33c-1.54.24-2.75,1.48-4.29,1.56-1.1.06-2.15-1.09-2.92-1.14-.13,0-.28-.16-.43-.14-.75.09-1.66,1-2.44.94a14.91,14.91,0,0,1-3.12-2.56,4.77,4.77,0,0,1,.13-1.44c.11-.85.64-2.2.17-2.88.54.78.4,1.95,1.13,2.83,1.67,2,4.65,2.52,7.11,2.7s4.66-.75,7.06-.54,4.41,1.13,6.63,1.7a40.85,40.85,0,0,0,12.93,1.17c.22,0,.37-.35.12-.47,1.71.77,4.43.16,6.35.19.82,0,1.65.07,2.46,0,0,0,2.55-.24,1.66.17C457.18,299.51,457.44,299.94,457.73,299.81Z" transform="translate(-356.49 -233.95)"/></g><path class="cls-2" d="M409.16,290.87c2,.63,2.62,1.57,1.89,2.84l1,.26a4.61,4.61,0,0,1,.88-2.59c.2-.89.68-1.25,1.45-1.08a3,3,0,0,1,3.16,2c.1.54.8.4,1,0,1.21-3,4.61.17,5.91.92a6.45,6.45,0,0,0,2.87.87c3.13.21,6.23-.64,9.42-.32a85.65,85.65,0,0,1,10.26,2c1.34.3,9.73,1.78,9.65,2.86-.07.83-3.86.65-4.78.68-1.58.06-3.16.09-4.75.11-3.37,0-6.8.18-10.17-.1s-6.52-1.83-9.91-2.34a6.3,6.3,0,0,0-2.63.12c-1.67.44-5.76,3.15-6.37-.31a.5.5,0,0,0-.91-.12q-1.43,2-3.33,1.35c-1.31,0-1.94-.84-1.9-2.53,0-.38.17-1.14.19-1.52l-1,.14c-1.22,2.58-2,3.32-2.48,2.24a.2.2,0,0,0-.06-.11c-.06,0-.12-.13-.19-.17a10.31,10.31,0,0,1-1.26-.94L404.23,293v.87l4.75-2.85a.5.5,0,0,0-.5-.86L403.73,293a.51.51,0,0,0,0,.87l2.63,2a8,8,0,0,1,1.31,1c.33.37,0,.58.56,1.1a2.14,2.14,0,0,0,2.83-.07c1.21-1,1.14-2.61.94-4-.08-.58-.95-.4-1,.13-.1,1.91-.95,3.95,1.34,4.79,2.06.74,4.62.64,5.56-1.58l-.91-.12c.5,2.85,3.48,2.59,5.6,1.78,1.75-.67,3-1.17,4.91-.72,1.1.25,2.14.72,3.22,1.05a29.28,29.28,0,0,0,5.25,1.07,108.36,108.36,0,0,0,14.86.1,34.85,34.85,0,0,0,6.78-.39c.61-.14,1.22-.32,1.3-1.06s-.55-1.09-1.15-1.37c-2.18-1-5-1.41-7.34-2a114.54,114.54,0,0,0-13.33-2.73,29.7,29.7,0,0,0-6.53,0,17.75,17.75,0,0,1-3.33.27c-1.78-.17-2.58-.93-3.94-1.8-2-1.27-4.72-1.93-5.8.74h1c-.44-2.3-2.7-2.94-4.82-2.74-2.62.23-2.27,2.28-2.6,4.39a.5.5,0,0,0,1,.26c.54-1.47.89-3.47-.62-4.55a2,2,0,0,0-3.1.95C408.05,291,408.91,291.46,409.16,290.87Z" transform="translate(-356.49 -233.95)"/><path class="cls-9" d="M399.91,295.2a4.84,4.84,0,0,0-.61,3.54,5.46,5.46,0,0,0,2.77,3,4.61,4.61,0,0,0,4.05-.09,4.49,4.49,0,0,0,2.2-4.48,4.91,4.91,0,0,0-3.27-3.85,4.15,4.15,0,0,0-2.49-.09A4.4,4.4,0,0,0,399.91,295.2Z" transform="translate(-356.49 -233.95)"/><path class="cls-2" d="M399.48,295c-3.4,5.24,5,10.82,8.49,5.7a5.11,5.11,0,0,0-1.28-7c-2.47-1.82-5.33-1-7.13,1.19-.4.5.3,1.21.7.71,1.36-1.69,3.29-2.6,5.42-1.38a4.19,4.19,0,0,1,1.68,5.56c-2.52,4.59-9.86.11-7-4.28C400.69,294.91,399.83,294.41,399.48,295Z" transform="translate(-356.49 -233.95)"/><path class="cls-9" d="M400.86,286.22a4.77,4.77,0,0,0-.61,3.53,5.48,5.48,0,0,0,2.76,3,4.63,4.63,0,0,0,4.06-.09,4.5,4.5,0,0,0,2.2-4.48,4.91,4.91,0,0,0-3.27-3.85,4.39,4.39,0,0,0-5.14,1.86Z" transform="translate(-356.49 -233.95)"/><path class="cls-2" d="M400.42,286c-3.39,5.24,5,10.82,8.49,5.71a5.11,5.11,0,0,0-1.28-7c-2.46-1.82-5.33-1-7.13,1.19-.4.5.3,1.21.71.71,1.36-1.69,3.29-2.6,5.41-1.38a4.18,4.18,0,0,1,1.68,5.56c-2.52,4.59-9.86.11-7-4.28C401.64,285.93,400.77,285.42,400.42,286Z" transform="translate(-356.49 -233.95)"/><path class="cls-2" d="M398.59,295.82a2.29,2.29,0,0,0,.58,3.63,2.44,2.44,0,1,0-1.29-2.1,2,2,0,0,0,2,2,2,2,0,0,0,2-2l0-.48v1.07l0-.11-.51.89.07-.07a2,2,0,0,0-2.83-2.83Z" transform="translate(-356.49 -233.95)"/><path class="cls-2" d="M399.54,286.83a2.29,2.29,0,0,0,.58,3.63,2.44,2.44,0,1,0-1.3-2.1,2,2,0,0,0,2,2,2,2,0,0,0,2-2l0-.47V289l0-.1-.52.88.08-.07a2,2,0,1,0-2.83-2.83Z" transform="translate(-356.49 -233.95)"/><path class="cls-9" d="M399.37,298.19a1,1,0,0,0,.62.17.52.52,0,0,0,.48-.37c.18-.62-.35-1.38-1-1a.67.67,0,0,0,.37,1.24c.64,0,.64-1,0-1h-.09l.35.15,0-.05.05.39-.56,0,.48-.37-.12,0c-.53-.37-1,.49-.5.86Z" transform="translate(-356.49 -233.95)"/><path class="cls-9" d="M400.32,289.36a1,1,0,0,0,.62.17.53.53,0,0,0,.49-.37c.18-.62-.36-1.38-1-1a.67.67,0,0,0,.36,1.24c.64,0,.65-1,0-1h-.09l.35.15,0-.05,0,.38-.57,0,.48-.37-.11,0c-.53-.36-1,.5-.51.87Z" transform="translate(-356.49 -233.95)"/><g class="cls-10"><path class="cls-2" d="M400.54,300.6c1.06.38,2.67,1,3.75.73a4.58,4.58,0,0,0,2.8-2,4.67,4.67,0,0,0,.64-3.33,4.25,4.25,0,0,1-6.32,5.31" transform="translate(-356.49 -233.95)"/><path class="cls-2" d="M400.48,300.84c1.94.71,3.72,1.25,5.54,0a5,5,0,0,0,2-4.89l-.45.2a4,4,0,0,1-6,5c-.27-.17-.53.26-.26.44a4.54,4.54,0,0,0,6.67-5.66c-.12-.28-.5-.06-.46.2a4.45,4.45,0,0,1-2.85,4.92c-1.35.45-2.76-.15-4-.61-.3-.11-.43.37-.13.48Z" transform="translate(-356.49 -233.95)"/></g><g class="cls-10"><path class="cls-2" d="M402,292a7.81,7.81,0,0,0,3.36.23,3.89,3.89,0,0,0,2.71-1.86,4.07,4.07,0,0,0,.32-2.44,11,11,0,0,0-.71-2.38,4.11,4.11,0,0,1,1.52,3.93,4.37,4.37,0,0,1-2.71,3.26,4.67,4.67,0,0,1-4.24-.5" transform="translate(-356.49 -233.95)"/><path class="cls-2" d="M402,292.24c1.91.46,4.13.61,5.66-.87,1.69-1.61,1.05-4,.32-5.89l-.42.24a3.89,3.89,0,0,1,.68,5.42,4.32,4.32,0,0,1-5.8.88.25.25,0,0,0-.25.43,4.83,4.83,0,0,0,6.46-1,4.41,4.41,0,0,0-.74-6.08c-.17-.14-.51,0-.41.24.68,1.79,1.38,4.05-.33,5.52-1.42,1.21-3.35,1-5,.63a.25.25,0,0,0-.13.48Z" transform="translate(-356.49 -233.95)"/></g><path class="cls-2" d="M411.9,297.86a2,2,0,0,0,1,.41l0-1.57a2.43,2.43,0,0,1,.25-1.39,2.49,2.49,0,0,1,2.1-.78,2.18,2.18,0,0,1-1.8-.64,1.8,1.8,0,0,1-.25-.88,5,5,0,0,1,.81-3.15,1.67,1.67,0,0,0-1.75.55,3.34,3.34,0,0,0-.52,1.84l-.33,4.16c0,.51,0,1.15.46,1.37" transform="translate(-356.49 -233.95)"/><path class="cls-2" d="M411.65,298.29a2.83,2.83,0,0,0,1.07.46.52.52,0,0,0,.64-.48c0-1.6-.35-3.11,1.81-3.24a.5.5,0,0,0,0-1c-2.32-.13-1.47-2.77-.8-3.92a.51.51,0,0,0-.44-.75c-1.94-.26-2.59,1.23-2.77,2.89-.14,1.36-.32,2.8-.33,4.16a1.94,1.94,0,0,0,.6,1.72c.49.42,1.2-.29.71-.7-.69-.59-.2-2.34-.14-3.1.09-1.21-.17-4.25,1.93-4l-.43-.75a5.17,5.17,0,0,0-.77,4.05c.4,1.11,1.38,1.31,2.44,1.37v-1a3,3,0,0,0-2.49,1c-.6.88-.34,2.28-.32,3.27l.63-.49-.84-.35a.5.5,0,0,0-.5.86Z" transform="translate(-356.49 -233.95)"/><path class="cls-2" d="M415.35,298.5a13.81,13.81,0,0,1,1.11-8.21,4.17,4.17,0,0,1,1.11.75,5.51,5.51,0,0,0-.61,2.16c0,.75-.06,1.16,1.26,1.65,0,0-1.36.23-1.65.83a1.79,1.79,0,0,0,.15,1.81c.06.1.17.2.14.31a.32.32,0,0,1-.11.17c-.38.37-.86.77-1.37.65" transform="translate(-356.49 -233.95)"/><path class="cls-2" d="M415.83,298.36a13.83,13.83,0,0,1,1.06-7.82l-.68.18a4.22,4.22,0,0,1,1,.67l-.08-.6c-.77,1.79-1.25,3.61.82,4.5l.12-.92a2.91,2.91,0,0,0-1.85.94,2,2,0,0,0-.33,1.27c0,.78,1,1.45-.52,1.54-.64,0-.65,1,0,1s1.9-.41,2-1.25c0-.26-.17-.42-.2-.63-.13-1.21.11-1.7,1.2-1.9a.51.51,0,0,0,.12-.92c-1.49-.64-1-1.92-.47-3.13a.5.5,0,0,0-.08-.6,6.33,6.33,0,0,0-1.21-.83.49.49,0,0,0-.68.18,14.92,14.92,0,0,0-1.16,8.59c.1.63,1.06.36,1-.27Z" transform="translate(-356.49 -233.95)"/><path class="cls-2" d="M417.88,298a2,2,0,0,0,1.8.85c0-.49.05-1,.1-1.47a2.9,2.9,0,0,1,.35-1.3,3.15,3.15,0,0,1,1.86-1,2.41,2.41,0,0,1-1.6-1,1.87,1.87,0,0,1-.08-1.28,4.3,4.3,0,0,1,1-1.93,2.75,2.75,0,0,0-1.58-.14.75.75,0,0,0-.37.15c-.23.2-.2.57-.16.88a16.39,16.39,0,0,1,.06,3.43,4.13,4.13,0,0,1-1.25,3" transform="translate(-356.49 -233.95)"/><path class="cls-2" d="M417.53,298.3a2.62,2.62,0,0,0,2.15,1,.5.5,0,0,0,.5-.5c.06-1.53.31-2.84,1.94-3.33a.5.5,0,0,0,0-1c-2-.61-1.3-2.33-.44-3.37a.51.51,0,0,0-.22-.84c-1-.27-2.39-.45-2.73.75a13.07,13.07,0,0,0,.11,2.92c0,1.35-.12,2.78-1.16,3.75-.48.44.23,1.15.7.71a4.66,4.66,0,0,0,1.37-3.08,14.27,14.27,0,0,0,.07-2.53,4.48,4.48,0,0,1-.1-1.14c.19-.7.66-.64,1.48-.41l-.22-.84c-1.59,1.92-1.76,4.22.88,5v-1c-2.32.69-2.59,2-2.68,4.29l.5-.5a1.48,1.48,0,0,1-1.44-.7c-.42-.5-1.12.21-.71.7Z" transform="translate(-356.49 -233.95)"/><path class="cls-2" d="M422.71,298.12a7.22,7.22,0,0,1,.93-5.72s0-.07.08-.08a.18.18,0,0,1,.12,0,5.24,5.24,0,0,1,1,.73,1.19,1.19,0,0,0-.05,1.33,2.52,2.52,0,0,0,1.06.93,1.32,1.32,0,0,0-1.24.51,1.35,1.35,0,0,0-.13,1.33c0,.08.09.18,0,.26l-.09.06-1.45.76-.23-.23" transform="translate(-356.49 -233.95)"/><path class="cls-2" d="M423.19,298c-.35-1.49-.38-4.15.88-5.31l-.48.13a3.09,3.09,0,0,1,.86.62l-.08-.61c-.73,1.23.12,2.32,1.19,2.95l.26-.93a1.84,1.84,0,0,0-1.88,1.18c-.09.26-.23.91,0,1.12,0,.26.11.23.23-.07l-.36.19a6.75,6.75,0,0,0-1.1.57l.61.08-.22-.24c-.45-.46-1.16.25-.71.71l.22.23a.51.51,0,0,0,.61.08c.42-.22,1.41-.53,1.68-.95s-.46-1.91.94-1.9a.51.51,0,0,0,.25-.94c-.52-.3-1.28-.83-.83-1.57a.52.52,0,0,0-.08-.61c-.38-.33-1-1-1.57-.88s-.77,1-.94,1.35a7.86,7.86,0,0,0-.42,5.06c.14.63,1.11.36,1-.26Z" transform="translate(-356.49 -233.95)"/><path class="cls-2" d="M426.84,297.51a3,3,0,0,1,1.39.38,1.59,1.59,0,0,1,1.82-2,1.7,1.7,0,0,1-1.09-.49,1.13,1.13,0,0,1-.18-.86,3.16,3.16,0,0,1,.29-.85,4,4,0,0,1-1.57.07c-.12,0-.27,0-.33.09s0,.12,0,.19a5.34,5.34,0,0,1-.36,3.32" transform="translate(-356.49 -233.95)"/><path class="cls-2" d="M426.84,298a2.81,2.81,0,0,1,1.14.31.5.5,0,0,0,.75-.43,1.86,1.86,0,0,1,.15-1.07,1.51,1.51,0,0,1,1.17-.43c.52,0,.72-.86.13-1a.92.92,0,0,1-.7-.38c-.32-.39-.18-.63,0-1.09a.5.5,0,0,0-.56-.73,4.28,4.28,0,0,1-1.13.09,1.9,1.9,0,0,0-.63,0,.72.72,0,0,0-.5.5,5.89,5.89,0,0,0,.11,1.38,5.06,5.06,0,0,1-.42,1.95c-.25.58.62,1.09.87.5a6.39,6.39,0,0,0,.5-1.82,15.66,15.66,0,0,0-.07-1.94l-.24.43c.15-.1.66,0,.86,0a6.88,6.88,0,0,0,.91-.13l-.56-.73c-.62,1.42-.37,2.6,1.28,2.94l.13-1a2.18,2.18,0,0,0-2.32,2.5l.75-.43a4.22,4.22,0,0,0-1.64-.45c-.64-.05-.64.95,0,1Z" transform="translate(-356.49 -233.95)"/><path class="cls-2" d="M430.44,298.44a5,5,0,0,0,1.28.54l.34-1a2.71,2.71,0,0,1,.34-.73,2.66,2.66,0,0,1,1.93-.74,1.32,1.32,0,0,1-1.49-1.86l.24-1.35a6.5,6.5,0,0,0-2,.28,8.78,8.78,0,0,1-.75,4.55" transform="translate(-356.49 -233.95)"/><path class="cls-2" d="M430.19,298.87a6.92,6.92,0,0,0,1.4.59.5.5,0,0,0,.61-.35,6.92,6.92,0,0,1,.49-1.34,2,2,0,0,1,1.64-.72.5.5,0,0,0,0-1c-1.48-.11-.93-1.62-.77-2.58a.51.51,0,0,0-.48-.63,8.65,8.65,0,0,0-2.09.3.49.49,0,0,0-.37.48,8.87,8.87,0,0,1-.68,4.29c-.26.59.6,1.1.86.51a9.77,9.77,0,0,0,.82-4.8l-.37.48a7.55,7.55,0,0,1,1.83-.26l-.49-.63a5.69,5.69,0,0,0-.19,2.83c.33.8,1.16.95,1.93,1v-1a3.65,3.65,0,0,0-2.08.67,4.84,4.84,0,0,0-1,2.13l.61-.35a7,7,0,0,1-1.16-.49c-.56-.31-1.07.55-.5.86Z" transform="translate(-356.49 -233.95)"/><path class="cls-2" d="M435,299.52a2.8,2.8,0,0,0,.53-1.32,9.48,9.48,0,0,0,.2-4.92l2.18.22a4.81,4.81,0,0,0,.08,2.17A2,2,0,0,0,439.5,297a2,2,0,0,0-1.8.62,2,2,0,0,0-.42,1.86c0,.1.06.23,0,.29a.25.25,0,0,1-.17,0l-2.07-.22" transform="translate(-356.49 -233.95)"/><path class="cls-2" d="M435.39,299.77c1.16-1.68,1.3-4.71.78-6.62l-.48.63,2.18.22-.5-.5c-.2,1.67.08,3.61,2,4l.13-1a2.5,2.5,0,0,0-2.63,1.55,2.14,2.14,0,0,0-.14,1.17c0,.43,0,.51.22.23s.16-.3-.38-.21a9.93,9.93,0,0,0-1.55-.17c-.63-.06-.63.94,0,1s2.13.57,2.63,0a.89.89,0,0,0,.15-.5c0-.18,0-.73,0-.8a.73.73,0,0,1,.67-.94.94.94,0,0,1,1-.33.5.5,0,0,0,.13-1c-1.43-.31-1.4-1.89-1.26-3.06,0-.28-.25-.47-.5-.5l-2.18-.22a.5.5,0,0,0-.48.63,8.15,8.15,0,0,1-.68,5.86c-.37.53.5,1,.86.5Z" transform="translate(-356.49 -233.95)"/><path class="cls-2" d="M440.35,299.89l1.67,0a1.94,1.94,0,0,1,2.09-2.52,1.27,1.27,0,0,1-1.38-.95,2.46,2.46,0,0,1,.27-1.79,8.34,8.34,0,0,0-1.71-.4h-.11c-.1,0-.09.17-.07.27a7.16,7.16,0,0,1-.92,5.19s-.07.09-.12.07,0-.11,0-.06" transform="translate(-356.49 -233.95)"/><path class="cls-2" d="M440.35,300.39l1.67,0a.51.51,0,0,0,.5-.5c0-1.15.23-1.92,1.59-2,.64,0,.65-1,0-1-1.2.06-1-1.35-.68-2a.51.51,0,0,0-.3-.74c-.66-.22-2.23-.92-2.52.13a13.21,13.21,0,0,0,.13,2.14c-.05.69-.3,2.5-.93,2.91l.74.3,0,0-.34.61h0a.5.5,0,0,0-.27-1l0,0a.5.5,0,0,0-.35.61l0,.06a.5.5,0,0,0,.73.3,4.49,4.49,0,0,0,1.23-2.51,9,9,0,0,0,.2-1.46,9.81,9.81,0,0,1-.14-1.75l-.43.25a4.78,4.78,0,0,1,1.69.39l-.3-.74c-.62,1.4-.46,3.58,1.54,3.49v-1c-1.9.14-2.55,1.2-2.59,3l.5-.5-1.67,0c-.64,0-.65,1,0,1Z" transform="translate(-356.49 -233.95)"/><path class="cls-2" d="M445.09,299.86a20.33,20.33,0,0,0,.71-4.71l2,.56a1.79,1.79,0,0,0-.15,1.43,1.76,1.76,0,0,0,1,1.05c-.52,0-1.14,0-1.42.46a2.67,2.67,0,0,0-.18,1,.32.32,0,0,1-.07.19.38.38,0,0,1-.3.08l-1.17-.07c-.08,0-.18-.1-.11-.13" transform="translate(-356.49 -233.95)"/><path class="cls-2" d="M445.57,300a21.46,21.46,0,0,0,.73-4.84l-.63.48,2,.56-.3-.73a2.29,2.29,0,0,0,1,3.16l.25-.93a2,2,0,0,0-1.85.71,2.65,2.65,0,0,0-.22.88c-.05.23.19.14-.2.14a2.2,2.2,0,0,1-.73,0l.25.44v-.08a.5.5,0,0,0-1,0v.08a.48.48,0,0,0,.25.43,3,3,0,0,0,1.95.11.71.71,0,0,0,.4-.46c.06-.16,0-.33.07-.49.2-.61.49-.73,1.08-.72a.5.5,0,0,0,.25-.93,1.3,1.3,0,0,1-.64-1.8.5.5,0,0,0-.3-.73l-2-.56a.5.5,0,0,0-.63.48,20.13,20.13,0,0,1-.7,4.57.5.5,0,0,0,1,.27Z" transform="translate(-356.49 -233.95)"/><path class="cls-2" d="M449.7,299.69c.11-1.17.17-2.33.17-3.5l1.6.25a.92.92,0,0,0-.17,1.19,1.54,1.54,0,0,0,1.09.65.91.91,0,0,0-1,.32.93.93,0,0,0,0,1.07,6.73,6.73,0,0,0-1.61.23" transform="translate(-356.49 -233.95)"/><path class="cls-2" d="M450.2,299.69c.11-1.17.17-2.33.17-3.5l-.63.48,1.6.25-.22-.84c-1.1,1-.08,2.43,1.14,2.68.63.13.9-.83.27-1a1.43,1.43,0,0,0-1.6,2.14l.43-.76a9.46,9.46,0,0,0-1.75.25c-.62.15-.36,1.12.27,1a7.44,7.44,0,0,1,1.48-.21.5.5,0,0,0,.43-.75.43.43,0,0,1,.47-.66l.27-1c-.41-.08-1.24-.49-.7-1a.51.51,0,0,0-.22-.84l-1.6-.25a.52.52,0,0,0-.64.49c0,1.17-.06,2.33-.17,3.5-.06.64.94.63,1,0Z" transform="translate(-356.49 -233.95)"/><path class="cls-2" d="M453.64,299.7a6.27,6.27,0,0,0,.37-2.61,11.26,11.26,0,0,0,1.64.42,1,1,0,0,0,.74,1.23,1.66,1.66,0,0,0-.63.09.62.62,0,0,0-.4.46.25.25,0,0,1,0,.17.26.26,0,0,1-.15.07,9.35,9.35,0,0,1-1.39.14" transform="translate(-356.49 -233.95)"/><path class="cls-2" d="M454.12,299.84a7.14,7.14,0,0,0,.39-2.75l-.63.48a11.26,11.26,0,0,0,1.64.42l-.35-.62a1.56,1.56,0,0,0,1.08,1.85l.14-1a1.93,1.93,0,0,0-1.08.27c-.31.22-.34.49-.47.82l.23-.3a3.27,3.27,0,0,1-1.29.14.5.5,0,0,0,0,1,5,5,0,0,0,1.67-.21.59.59,0,0,0,.35-.37s0-.17.05-.21.37-.14.54-.14a.5.5,0,0,0,.13-1,.55.55,0,0,1-.39-.62.51.51,0,0,0-.35-.62,9.63,9.63,0,0,1-1.64-.42.5.5,0,0,0-.63.49,6.35,6.35,0,0,1-.35,2.48c-.21.61.75.87,1,.27Z" transform="translate(-356.49 -233.95)"/><rect class="cls-11" x="356.49" y="233.95" width="123.08" height="123.08" transform="translate(479.57 357.03) rotate(180)"/></svg>