<svg id="Calque_1" data-name="Calque 1" xmlns="http://www.w3.org/2000/svg" viewBox="0 0 123.08 123.08"><defs><style>.cls-1{fill:#1d71b8;}.cls-2{fill:#1d1d1b;}.cls-3{opacity:0.9;}.cls-4{fill:#ffface;}.cls-5{opacity:0.24;}.cls-6{fill:#6f5341;}.cls-7{opacity:0.36;}.cls-8{fill:#29235c;}.cls-9{fill:#fff;}.cls-10{opacity:0.15;}.cls-11{fill:none;}</style></defs><title>libellule1</title><path class="cls-1" d="M427.33,300.36a1.47,1.47,0,0,1-1.89,1.05,2.21,2.21,0,0,1-1.38-1.88,4.87,4.87,0,0,1,.46-2.39,12.11,12.11,0,0,0-.15,2.09,2,2,0,0,1-.95,1.76,2.48,2.48,0,0,1-1,.18,6.67,6.67,0,0,1-2.74-.31,2.41,2.41,0,0,1-1.6-2.07,2.22,2.22,0,0,1-2.3,1.56,5.34,5.34,0,0,1-2.77-1.12,11.75,11.75,0,0,0-2.58-1.56c-1.57-.57-3.29-.23-4.94,0a28.18,28.18,0,0,1-6.09.06,55.14,55.14,0,0,1-6.22-1.11c-4.95-1.07-9.91-2.15-14.76-3.63-.41-.12-.91-.42-.79-.82,0-.43.52-.61.94-.65,5.05-.44,10.13-.46,15.2-.48a57.68,57.68,0,0,1,6.31.22,27.44,27.44,0,0,1,5.94,1.32c1.58.53,3.2,1.22,4.84,1a11.76,11.76,0,0,0,2.85-1,5.41,5.41,0,0,1,2.94-.52,2.23,2.23,0,0,1,1.93,2,2.41,2.41,0,0,1,2-1.7,6.57,6.57,0,0,1,2.74.28,2.41,2.41,0,0,1,.95.38,2.06,2.06,0,0,1,.57,1.92,11.22,11.22,0,0,0-.29,2.07,4.76,4.76,0,0,1,0-2.43,2.22,2.22,0,0,1,1.74-1.56,1.47,1.47,0,0,1,1.62,1.42l4.13,3.11Z" transform="translate(-356.49 -233.95)"/><path class="cls-2" d="M426.9,300.11c-2-.62-2.62-1.57-1.9-2.83l-1-.27a4.53,4.53,0,0,1-.89,2.59q-.28,1.33-1.44,1.08a2.93,2.93,0,0,1-3.16-2c-.1-.53-.8-.4-1,0-1.21,3-4.61-.17-5.91-.91a6.33,6.33,0,0,0-2.87-.87c-3.13-.22-6.24.63-9.42.32a87.3,87.3,0,0,1-10.26-2c-1.35-.3-9.74-1.77-9.65-2.86.07-.83,3.86-.64,4.77-.68,1.59-.06,3.17-.09,4.76-.1,3.37-.05,6.79-.18,10.16.09s6.53,1.83,9.91,2.34a6.34,6.34,0,0,0,2.64-.11c1.67-.44,5.76-3.16,6.37.3a.5.5,0,0,0,.91.12c.95-1.32,2.06-1.76,3.33-1.34q1.95,0,1.89,2.52A12.62,12.62,0,0,1,424,297l1-.13c1.22-2.58,2-3.33,2.48-2.24a.24.24,0,0,0,.06.11c.06,0,.12.13.19.16a9.45,9.45,0,0,1,1.26.95l2.81,2.12v-.86l-4.74,2.84a.5.5,0,0,0,.5.87l4.75-2.85a.51.51,0,0,0,0-.86l-2.63-2a8.52,8.52,0,0,1-1.32-1c-.32-.38,0-.59-.55-1.11a2.15,2.15,0,0,0-2.83.07c-1.21,1-1.14,2.62-.94,4,.08.59.95.4,1-.13.1-1.91.95-4-1.35-4.79-2.05-.74-4.61-.63-5.55,1.59l.91.12c-.5-2.86-3.48-2.6-5.6-1.79-1.75.67-3,1.18-4.91.73-1.1-.26-2.14-.73-3.22-1a28.43,28.43,0,0,0-5.25-1.07,106.92,106.92,0,0,0-14.87-.11,36.39,36.39,0,0,0-6.77.39c-.61.14-1.22.33-1.3,1.06s.55,1.09,1.15,1.38c2.17,1,5,1.4,7.34,2a114.41,114.41,0,0,0,13.32,2.74,30.42,30.42,0,0,0,6.54,0,16.88,16.88,0,0,1,3.33-.26c1.77.16,2.58.93,3.94,1.79,2,1.27,4.72,1.93,5.8-.74h-1c.44,2.31,2.7,2.94,4.82,2.75,2.62-.24,2.26-2.29,2.59-4.39a.5.5,0,0,0-1-.27c-.54,1.48-.89,3.47.62,4.55a2,2,0,0,0,3.1-.94C428,300,427.15,299.52,426.9,300.11Z" transform="translate(-356.49 -233.95)"/><g class="cls-3"><path class="cls-4" d="M425.09,293.91a27.84,27.84,0,0,0,3.61-9.35c.28-1.48.44-3,.76-4.46.75-3.37,2.33-6.48,3.45-9.75s1.76-6.89.57-10.12a22.84,22.84,0,0,1-3.89,2.29,14.88,14.88,0,0,0-6,7.51,33.11,33.11,0,0,0-1.88,9.57,29,29,0,0,0,.45,9.21,18.32,18.32,0,0,1,.71,3.25,1.54,1.54,0,0,0,.15.71,1.19,1.19,0,0,0,.4.34l1.52,1" transform="translate(-356.49 -233.95)"/><path class="cls-2" d="M425.52,294.16a29.34,29.34,0,0,0,3.3-7.83c.79-3.14,1-6.32,2.1-9.4,1.94-5.48,4.93-10.9,3.05-16.84a.52.52,0,0,0-.84-.22c-2.73,2.16-5.66,3-7.81,5.94a21.86,21.86,0,0,0-3.65,9.67,39.4,39.4,0,0,0-.36,11.52,28.62,28.62,0,0,0,1.08,5.19c.46,1.32,1,1.51,2.29,2.35.54.36,1.05-.51.51-.86-2.74-1.8-3.08-6.95-3.13-9.9a43.8,43.8,0,0,1,1-10.22,18.24,18.24,0,0,1,4-8.31c1.94-2.12,4.58-2.93,6.78-4.67l-.84-.22c1.92,6.05-1.49,11.54-3.32,17.12a76.59,76.59,0,0,0-1.63,7.77,28.84,28.84,0,0,1-3.39,8.41.5.5,0,0,0,.86.5Z" transform="translate(-356.49 -233.95)"/></g><g class="cls-3"><path class="cls-4" d="M420.79,292.34a9.37,9.37,0,0,0-.37-4.09,37.18,37.18,0,0,1-.9-7.65c0-3.45.38-6.93-.14-10.35-.17-1.08-.42-2.14-.68-3.2a22.21,22.21,0,0,0-1.27-4,7.17,7.17,0,0,0-2.67-3.14,1.14,1.14,0,0,0-.83-.22,1.13,1.13,0,0,0-.61.47c-1.28,1.63-1.39,3.86-1.56,5.92a60.9,60.9,0,0,1-1.22,8.18c-.48,2.2-1.08,4.37-1.35,6.59a13.58,13.58,0,0,0,.61,6.64,7.62,7.62,0,0,0,4.62,4.58c1,.31,2.42-.39,3.27.24.28.21,1,.89.82,1.27s.3-.4.77-.68,1.16-.16,1.51-.58" transform="translate(-356.49 -233.95)"/><path class="cls-2" d="M421.27,292.47a12.28,12.28,0,0,0-.37-4.35,40.69,40.69,0,0,1-.87-7c-.11-3.93.42-7.86-.31-11.77-.29-1.57-3.34-13.35-6.83-9.38-2,2.22-1.57,6.21-1.92,8.92-.51,4.06-1.81,8-2.28,12-.36,3-.09,6.32,1.76,8.86a7.79,7.79,0,0,0,3,2.53c.75.33,4.81.34,4.52,1.35-.13.46.5.88.84.49.63-.75,1.42-.84,2.21-1.33a.5.5,0,0,0-.51-.86c-1.11.69-1.55.47-2.41,1.48l.83.49c.27-.95-.59-1.83-1.41-2.15-1.07-.42-2.23,0-3.35-.37a6.88,6.88,0,0,1-4.18-4.78c-1-3.39-.18-6.94.58-10.29a73.47,73.47,0,0,0,1.54-8.81,29.94,29.94,0,0,1,.57-4.74c.18-.68.72-2.47,1.81-2.38.66.06,1.63,1.5,2,2.05,1.68,2.65,2.36,6.62,2.59,9.71s-.16,6.3,0,9.44a41.4,41.4,0,0,0,.45,4.45c.32,2,1.1,4.12.81,6.2-.08.63.88.9,1,.26Z" transform="translate(-356.49 -233.95)"/></g><g class="cls-3"><path class="cls-4" d="M424.34,300.22a27.75,27.75,0,0,1,1.58,9.89c0,1.51-.19,3-.18,4.53,0,3.45.93,6.82,1.35,10.25s.28,7.1-1.55,10a23.74,23.74,0,0,0-3.34-3.06,14.88,14.88,0,0,1-4.3-8.59,32.87,32.87,0,0,1,.16-9.75,29.12,29.12,0,0,1,2.35-8.92,17.5,17.5,0,0,0,1.37-3,1.59,1.59,0,0,1,.3-.66,1.21,1.21,0,0,1,.46-.25l1.69-.66" transform="translate(-356.49 -233.95)"/><path class="cls-2" d="M423.86,300.35a29,29,0,0,1,1.57,8.85c0,2.93-.31,5.78.06,8.71.72,5.59,2.63,11.49-.38,16.75l.78-.1c-1.86-2.24-4.31-3.57-5.76-6.21a19.09,19.09,0,0,1-2-9.52,43.89,43.89,0,0,1,1.16-9.34c.68-2.9,2.05-7.83,5.09-9,.6-.23.34-1.2-.26-1-1.39.54-2,.63-2.75,1.8a29.06,29.06,0,0,0-2.08,4.69,38.44,38.44,0,0,0-2.11,11.5,22.13,22.13,0,0,0,1.45,10c1.49,3.48,4.26,5,6.57,7.77a.51.51,0,0,0,.79-.11c2.79-4.87,1.61-10.28.78-15.52-.56-3.56-.29-6.88-.32-10.44a29.56,29.56,0,0,0-1.61-9.12c-.2-.6-1.16-.34-1,.27Z" transform="translate(-356.49 -233.95)"/></g><g class="cls-3"><path class="cls-4" d="M419.8,300.86a9.15,9.15,0,0,1-1.21,3.92,37.59,37.59,0,0,0-2.47,7.3c-.77,3.37-1.07,6.86-2.29,10.09-.39,1-.86,2-1.33,3a21.59,21.59,0,0,1-2.07,3.62,7.17,7.17,0,0,1-3.27,2.52,1.17,1.17,0,0,1-.86.05,1.22,1.22,0,0,1-.5-.59c-.9-1.86-.55-4.06-.29-6.12a59.83,59.83,0,0,0,.51-8.25c0-2.25-.14-4.5.05-6.73a13.73,13.73,0,0,1,2-6.36,7.6,7.6,0,0,1,5.47-3.52,9.09,9.09,0,0,0,3.14-.37,5.77,5.77,0,0,1,.95-.43c.53-.12.52.67.92,1s1,.36,1.27.84" transform="translate(-356.49 -233.95)"/><path class="cls-2" d="M419.3,300.86c-.21,2.9-2.17,5.81-3,8.6s-1.24,5.9-1.89,8.85a31,31,0,0,1-3.28,8.46c-.61,1.08-2.51,4.22-4.09,4.05s-1.32-3.5-1.21-4.62c.28-3,.67-5.9.7-8.89,0-3.33-.36-6.75.42-10,1-4.11,3.53-6.73,7.79-7.05a12.37,12.37,0,0,1,2.63-.41,10.06,10.06,0,0,1,2.09,1.38c.46.45,1.17-.25.71-.7s-1-.79-1.5-1.2c-.3-.25-.16-.55-.53-.68-1.09-.37-2.73.47-3.81.62-3.15.42-5.53,1.63-7.13,4.51-2,3.55-1.73,7.75-1.68,11.66a67,67,0,0,1-.25,6.94,36.77,36.77,0,0,0-.52,6.19c.18,2.1.89,4,3.2,3,3-1.35,4.44-4.8,5.69-7.59,1.67-3.75,2.06-7.76,3-11.72a36.86,36.86,0,0,1,1.8-5.72c.76-1.9,1.75-3.56,1.9-5.63.05-.64-.95-.64-1,0Z" transform="translate(-356.49 -233.95)"/></g><g class="cls-5"><path class="cls-6" d="M433.9,263.4a8.11,8.11,0,0,0-3.86,2.5,19.79,19.79,0,0,0-2.57,3.88c-2.51,4.64-4.6,9.83-3.92,15.06a28.4,28.4,0,0,1,.39,3.16c0,1.65-.54,3.33-.1,4.92a3.35,3.35,0,0,1-.92-1.51,9.12,9.12,0,0,1-.2-1.56c-.14-1.54-.68-3-.89-4.55a21,21,0,0,1-.12-3.27,37.32,37.32,0,0,1,1.45-10.37,17,17,0,0,1,5.79-8.57,26.48,26.48,0,0,1,4.52-2.49,14.55,14.55,0,0,1,.74,3.13" transform="translate(-356.49 -233.95)"/><path class="cls-6" d="M433.77,262.92c-5.11,1.67-7.68,7.69-9.38,12.36A21.17,21.17,0,0,0,423,284a39.57,39.57,0,0,1,.45,4.85,18.16,18.16,0,0,0-.06,4.23l.84-.49c-1.09-1.23-1-3.12-1.3-4.67a25.27,25.27,0,0,1-.69-5,40.74,40.74,0,0,1,.88-9c1.41-6.25,4.93-10.18,10.65-12.87l-.74-.3a19,19,0,0,1,.74,3.13c.1.64,1.06.37,1-.26a18.51,18.51,0,0,0-.74-3.13.5.5,0,0,0-.73-.3c-2.83,1.33-5.41,2.77-7.38,5.26a21,21,0,0,0-3.91,9.06,36.33,36.33,0,0,0-.64,10.4c.2,1.9.67,3.86,1,5.74a4.69,4.69,0,0,0,1.2,2.64c.36.41.92,0,.84-.49-.4-2.27.21-4.58-.11-6.89a20,20,0,0,1,.59-8.67c1.38-4.68,4.2-11.69,9.23-13.34.61-.2.35-1.16-.26-1Z" transform="translate(-356.49 -233.95)"/></g><g class="cls-5"><path class="cls-6" d="M418,264.91a1.68,1.68,0,0,0-2.15-.28,3,3,0,0,0-1.25,1.95,17.12,17.12,0,0,0-.22,2.37c-.22,2.69-1.32,5.21-2.14,7.78s-1.35,5.39-.46,7.94a15.62,15.62,0,0,0,1.81,3.27c1.1,1.64,2.21,3.29,3.41,4.85-2.18-.71-4.48-1.5-6-3.22a8.73,8.73,0,0,1-1.94-5.54,25.89,25.89,0,0,1,.74-5.93l1.48-7.28a25.24,25.24,0,0,0,.43-2.58c.08-.84.07-1.68.13-2.52a15.15,15.15,0,0,1,.9-4.2c.25-.7.71-1.49,1.46-1.51a2,2,0,0,1,1.44.91,8.22,8.22,0,0,1,2.21,3.73" transform="translate(-356.49 -233.95)"/><path class="cls-6" d="M418.38,264.56a2.4,2.4,0,0,0-3.75.66,7.48,7.48,0,0,0-.7,3.34,27,27,0,0,1-1.56,6.33c-1.07,3.16-2.17,6.6-1,9.91,1,3,3.4,5.77,5.27,8.24l.57-.73c-3.61-1.19-6.72-2.75-7.42-6.85-.57-3.31.46-6.73,1.11-10a59,59,0,0,0,1.43-8.1c.11-1.6-.11-4.18.91-5.54,0-.71.44-.91,1.17-.6a1,1,0,0,1,1.43.57,6.29,6.29,0,0,1,1.6,2.95.5.5,0,0,0,1-.27c-.44-1.65-2.68-6.11-5-4.71-1.39.84-1.72,3.56-1.9,4.93-.34,2.62-.48,5.17-1,7.78-.87,4.27-2.55,9.13-1.64,13.52s4.26,6,8.08,7.24c.39.13.83-.38.56-.73-1.34-1.77-2.63-3.6-3.82-5.48a10.25,10.25,0,0,1-1.37-8.45c.53-2.35,1.56-4.55,2.15-6.88.3-1.18.61-8.67,3.26-6.47.49.41,1.2-.29.7-.7Z" transform="translate(-356.49 -233.95)"/></g><g class="cls-5"><path class="cls-6" d="M425.49,304.31a1.94,1.94,0,0,0-2,.26,4.62,4.62,0,0,0-1.24,1.74,17.75,17.75,0,0,0-1.65,9.32c.11,1.14.33,2.26.38,3.4s-.06,2-.12,3c-.2,3.32,0,6.82,1.69,9.69a11.07,11.07,0,0,1-2.24-2.45,11.35,11.35,0,0,1-.93-2.18,29.5,29.5,0,0,1-1.48-5.43,27.71,27.71,0,0,1,.07-6.37,35.58,35.58,0,0,1,.76-5.24,38.87,38.87,0,0,1,3.38-8.18,4.85,4.85,0,0,1,.91-1.39c.43-.41,1.21-.61,1.58-.14a1.23,1.23,0,0,1,.21.53,9.65,9.65,0,0,1,.26,2.34,1.47,1.47,0,0,0,.32,1.17" transform="translate(-356.49 -233.95)"/><path class="cls-6" d="M425.62,303.83c-4.82-1.32-5.74,7.93-5.61,10.94.07,1.55.42,3.08.44,4.64s-.17,2.88-.18,4.32a16.86,16.86,0,0,0,1.82,8.27l.78-.6c-4.87-4.43-5-11.75-4.26-17.84a28.28,28.28,0,0,1,2.72-9,11.86,11.86,0,0,1,1-2,1.43,1.43,0,0,1,1.1-1c.95-1,1.32-.69,1.11.86a5.12,5.12,0,0,0,.4,2.21c.3.57,1.17.07.87-.5-.65-1.25.19-5.41-2.53-4.4-1.48.55-2.2,3-2.8,4.27a33,33,0,0,0-2.13,5.49c-1.91,7.17-2.09,17.21,3.84,22.58a.5.5,0,0,0,.78-.6c-2.28-4.28-1.23-8.35-1.53-12.89a40.39,40.39,0,0,1-.37-6c.14-1.81,1.1-8.68,4.31-7.8a.5.5,0,0,0,.26-1Z" transform="translate(-356.49 -233.95)"/></g><g class="cls-5"><path class="cls-6" d="M419.65,301.48a7,7,0,0,0-7.78.91,10.33,10.33,0,0,0-3.41,7.37c-.08,1.41.06,2.82,0,4.23,0,2.78-.7,5.51-1,8.28a13.26,13.26,0,0,0,1.23,8.11,4.53,4.53,0,0,1-1.58.87,1.05,1.05,0,0,1-.55.07c-.4-.08-.61-.5-.74-.88a14.18,14.18,0,0,1-.25-6.58,38.55,38.55,0,0,0,.74-6.58c0-1.34-.27-2.66-.36-4a19.76,19.76,0,0,1,.35-5.37,12.68,12.68,0,0,1,2.23-5.19,7.49,7.49,0,0,1,4.72-2.93c1-.14,2.09,0,3.1-.27.64-.16,2-1,1.94-.36-.1,1.12,1.15,1.65,1.25,2.13" transform="translate(-356.49 -233.95)"/><path class="cls-6" d="M419.91,301.05c-5.62-2.85-10.94,1.9-11.81,7.44a34.45,34.45,0,0,0-.11,5.08,52.72,52.72,0,0,1-.8,7.19c-.48,3.42-.52,6.73,1.1,9.87l.18-.69c-3,2.21-2.64-3.58-2.51-4.83.18-1.84.59-3.64.77-5.47.4-3.91-.73-7.68.1-11.58.94-4.47,3.38-7.4,8-7.86.62-.06,2.52-.74,3-.51.05,0,1.24,1.81,1.27,1.87.31.56,1.18.06.87-.51-.45-.81-.95-1.52-1.38-2.36a.47.47,0,0,0-.43-.25,6.93,6.93,0,0,0-1.52.44,25.16,25.16,0,0,1-3.46.43,7.79,7.79,0,0,0-4.05,2c-3.06,2.82-3.9,7.55-3.72,11.52a40.39,40.39,0,0,1,.11,8.08,34.9,34.9,0,0,0-.7,6.68c.13,2.95,1.1,5.45,4.11,3.21a.53.53,0,0,0,.18-.69c-2.83-5.46-.06-11.62-.18-17.4-.06-2.82,0-5.65,1.59-8.1,1.95-2.92,5.57-4.36,8.83-2.71.57.29,1.08-.57.51-.86Z" transform="translate(-356.49 -233.95)"/></g><path class="cls-2" d="M414.17,292.6c-.78-1.31-1.77-1.32-3.15-1.23-1.58.1-2-.66-3.32-1.26a2.41,2.41,0,0,0-1.71-.33.5.5,0,0,0-.29.73l0,.06a.5.5,0,0,0,.68.18l.05,0c.54-.35,0-1.22-.51-.86l0,0,.68.18,0-.06-.3.73c1-.35,2.36,1.33,3.26,1.61,1.33.42,2.87-.78,3.79.75a.5.5,0,0,0,.86-.5Z" transform="translate(-356.49 -233.95)"/><path class="cls-2" d="M411.9,298.41c-1.25,1-2.31.53-3.69.34a10.63,10.63,0,0,0-3.18.18c-.63.11-.37,1.07.26,1a13.48,13.48,0,0,1,4.3.15,3.64,3.64,0,0,0,2.81-.77c.51-.39,0-1.26-.5-.87Z" transform="translate(-356.49 -233.95)"/><path class="cls-2" d="M422,292.31a6.47,6.47,0,0,0,.57-2.49c0-1-.75-2-.61-2.95L421,287l.14.28c.3.57,1.16.07.87-.5l-.14-.28c-.19-.36-.86-.31-.92.12a4.75,4.75,0,0,0,.42,2.25,4.65,4.65,0,0,1-.38,3.19c-.24.59.73.85,1,.26Z" transform="translate(-356.49 -233.95)"/><path class="cls-2" d="M426,293.68c2.38-1,1.3-3.55,2.46-5.35l-.43.24h.13l-.43-.24.06.1c.34.54,1.21,0,.86-.51-.46-.75-1.08-.17-1.3.42a10.52,10.52,0,0,0-.51,2.15c-.15.88-.11,1.82-1.1,2.22-.59.24-.33,1.21.26,1Z" transform="translate(-356.49 -233.95)"/><path class="cls-2" d="M424.79,301.7c.84.3.51,1.7.64,2.38a2.33,2.33,0,0,0,.23.72,1.48,1.48,0,0,0,.25.35c.14.14.17.29.2.08l.25-.43-.07,0c-.59.28-.08,1.14.5.87a.61.61,0,0,0,.27-.81c-.11-.24-.4-.36-.53-.6a2.07,2.07,0,0,1-.16-1c0-1.08-.17-2.15-1.31-2.57-.61-.22-.87.75-.27,1Z" transform="translate(-356.49 -233.95)"/><path class="cls-2" d="M420.37,301.33a2.37,2.37,0,0,1-.48,1.89,2.33,2.33,0,0,0-.43,1.32.5.5,0,0,0,1,0c0-.61.52-1.08.76-1.6a3.06,3.06,0,0,0,.11-1.87c-.1-.64-1.06-.37-1,.26Z" transform="translate(-356.49 -233.95)"/><path class="cls-2" d="M425.52,294.16a29.34,29.34,0,0,0,3.3-7.83c.79-3.14,1-6.32,2.1-9.4,1.94-5.48,4.93-10.9,3.05-16.84a.52.52,0,0,0-.84-.22c-2.73,2.16-5.66,3-7.81,5.94a21.86,21.86,0,0,0-3.65,9.67,39.4,39.4,0,0,0-.36,11.52,28.62,28.62,0,0,0,1.08,5.19c.46,1.32,1,1.51,2.29,2.35.54.36,1.05-.51.51-.86-2.74-1.8-3.08-6.95-3.13-9.9a43.8,43.8,0,0,1,1-10.22,18.24,18.24,0,0,1,4-8.31c1.94-2.12,4.58-2.93,6.78-4.67l-.84-.22c1.92,6.05-1.49,11.54-3.32,17.12a76.59,76.59,0,0,0-1.63,7.77,28.84,28.84,0,0,1-3.39,8.41.5.5,0,0,0,.86.5Z" transform="translate(-356.49 -233.95)"/><path class="cls-2" d="M421.27,292.47a15.9,15.9,0,0,0-.57-5.3,39.44,39.44,0,0,1-.68-7.51c0-4.06.28-8-.65-11.94-.62-2.69-1.49-6.89-4.36-8.22-2.23-1-3.13,2-3.44,3.73-.77,4.26-1,8.55-1.94,12.8-.84,3.65-1.71,7.54-.45,11.21,1,3,3,4.55,5.88,5.53,1.1.38,2.38,1.53,3.57,1.4.24,0,.26-.15.44-.24.63-.33,1.33-.77,2-1.16a.5.5,0,0,0-.51-.86c.1-.06-1.87,1-2,1-.51.1-1.17-.48-1.7-.71-1.61-.69-3.25-.71-4.63-2a8.68,8.68,0,0,1-2.43-4.47c-.78-3.46.25-7,1-10.42a66.76,66.76,0,0,0,1.41-8.79c.14-1.55,0-3.46.84-4.85.66-1.18,1.27-1.71,2.44-.57a7.39,7.39,0,0,1,1.34,1.88,25.08,25.08,0,0,1,2.26,9.57c.16,3.15-.2,6.3,0,9.45s1.67,7,1.23,10.17c-.08.63.88.9,1,.26Z" transform="translate(-356.49 -233.95)"/><path class="cls-2" d="M424,300.27a29,29,0,0,1,1.56,8.85c0,2.93-.31,5.78.07,8.71.71,5.59,2.62,11.49-.39,16.75l.79-.1c-1.86-2.24-4.32-3.57-5.76-6.21a19,19,0,0,1-2-9.51,44.55,44.55,0,0,1,1.16-9.35c.68-2.9,2.06-7.83,5.1-9,.59-.23.33-1.19-.27-1-1.38.54-2,.64-2.74,1.8a29.49,29.49,0,0,0-2.09,4.69,38.8,38.8,0,0,0-2.1,11.5,22,22,0,0,0,1.45,10c1.49,3.49,4.26,5,6.57,7.77a.51.51,0,0,0,.79-.1c2.79-4.88,1.61-10.29.78-15.53-.57-3.55-.29-6.88-.33-10.44a29.43,29.43,0,0,0-1.6-9.11c-.2-.61-1.17-.35-1,.26Z" transform="translate(-356.49 -233.95)"/><path class="cls-2" d="M419.4,300.78c-.23,3-2.29,6.1-3.13,9s-1.18,5.92-1.86,8.86a29,29,0,0,1-3.62,8.77,10.26,10.26,0,0,1-1.55,2l-1,.79c-.64.75-1.19.78-1.64.1-1.32-.84-.76-3.61-.6-5a75.8,75.8,0,0,0,.61-9c0-3.44-.35-7,.76-10.31a8.87,8.87,0,0,1,3.7-4.94c1.62-.95,3.19-.64,4.93-1,.71-.14,1.22-.43,1.87-.15a17.32,17.32,0,0,1,1.66,1.22c.49.41,1.2-.29.71-.71s-1-.82-1.6-1.28c-.16-.14-.15-.53-.4-.61-1-.31-2,.46-3,.61-1.69.25-3.1.14-4.65,1.05a8.87,8.87,0,0,0-2.85,2.77c-2.23,3.35-2.19,7.55-2.13,11.41,0,2.49,0,5-.19,7.44a50.74,50.74,0,0,0-.57,6.26c.07,1.91.58,4.31,2.88,3.49,3.07-1.08,4.59-4.64,5.84-7.35,1.73-3.73,2.19-7.68,3.06-11.66a36.69,36.69,0,0,1,1.88-6.15c.77-1.9,1.75-3.56,1.91-5.63.05-.64-.95-.64-1,0Z" transform="translate(-356.49 -233.95)"/><g class="cls-7"><path class="cls-8" d="M430.49,297.69a6.07,6.07,0,0,1-1.56-1,4.81,4.81,0,0,1-.69-.92,3.57,3.57,0,0,1-.35-.74c-.1-.31-.14-.63-.23-.94a1.3,1.3,0,0,0-.52-.78,1.31,1.31,0,0,0-1.26,0,2.19,2.19,0,0,0-1,1,3.79,3.79,0,0,0-.22,1.46l0,2.5a11.67,11.67,0,0,0,.26-1.31,3,3,0,0,1,.49-1.23,1.34,1.34,0,0,1,1.14-.58,2.3,2.3,0,0,1,1.38,1,17,17,0,0,0,1.46,1.48,3.13,3.13,0,0,0-1.87,2,4.8,4.8,0,0,1,2.33-1.56l.67-.28" transform="translate(-356.49 -233.95)"/><path class="cls-8" d="M430.62,297.48a5.3,5.3,0,0,1-2-1.55,18.28,18.28,0,0,1-.87-2.25,1.31,1.31,0,0,0-1.34-.79c-2.58.18-2.08,3.73-2.11,5.41a.25.25,0,0,0,.49.07c.24-1,.47-4.05,2.5-2.42.65.52,1.19,1.31,1.81,1.88l.05-.39a3.59,3.59,0,0,0-2,2.1c-.11.29.3.4.45.2a6.23,6.23,0,0,1,2.86-1.72c.29-.13.16-.61-.14-.49a7,7,0,0,0-3.15,2l.46.2a3.11,3.11,0,0,1,1.76-1.81.25.25,0,0,0,.05-.39c-.85-.78-2-2.79-3.38-2.52s-1.5,2.16-1.77,3.27l.49.07c0-.95,0-1.92.05-2.87.05-.72.47-1.91,1.37-2,1.3-.12,1.19,1.1,1.47,1.81a5.14,5.14,0,0,0,2.64,2.67c.28.15.53-.28.25-.43Z" transform="translate(-356.49 -233.95)"/></g><g class="cls-7"><path class="cls-8" d="M378.46,291.39a.77.77,0,0,0-.57,1.18,10.48,10.48,0,0,1,4.8-.55,47.06,47.06,0,0,0,6.5-.27h0a13.49,13.49,0,0,1,2.62,0A49,49,0,0,1,402.47,293c2.66.73,5.3,1.91,8,1.63,1.19-.11,2.34-.51,3.53-.61a12.79,12.79,0,0,1,2.62.13,11.36,11.36,0,0,1,4.93,1.5,4.49,4.49,0,0,1,2.12,4.41l.11-.05c.26-1.21.47-2.42.65-3.64s.23-2.88-.82-3.67a3.92,3.92,0,0,0-2.22-.53,1.07,1.07,0,0,0-.44.06c-.18.09-.33-.09-.42.08-.18.34-1,.36-1.29.59-.83.61-.75,0-1.59-.59a4.55,4.55,0,0,0-3.41-.26,4.61,4.61,0,0,0-1.18.67,6.72,6.72,0,0,1-4.89.58c-1.65-.34-3.2-1-4.81-1.51-4.94-1.46-19.72-.85-24.84-.33Z" transform="translate(-356.49 -233.95)"/><path class="cls-8" d="M378.33,291.17a1,1,0,0,0-.68,1.46.25.25,0,0,0,.31.18c3.35-1.26,7.67-.45,11.23-.81.22,0,.38-.35.12-.47,1.31.59,2.83.44,4.28.52,1.77.1,3.55.22,5.3.49,2.89.43,5.56,1.54,8.4,2.12s4.94-.38,7.62-.39c3.5,0,9,1.3,8.55,5.81a.25.25,0,0,0,.37.22c.9-.45,1.15-4.91.94-6-.37-1.9-2.2-2.7-4-2.29-.54.12-1,.67-1.59.69-.89,0-1.58-.83-2.5-1a4.91,4.91,0,0,0-2.49.17c-.86.3-1.54.95-2.44,1.2a7.61,7.61,0,0,1-3.85-.08c-2.36-.54-4.51-1.57-6.93-1.9a62.07,62.07,0,0,0-7.59-.42c-2.8,0-5.6,0-8.4.15-1.12.05-2.25.11-3.37.18-.45,0-2.65.47-2.95.22s-.6.15-.35.36c.71.59,3.45-.09,4.36-.14q4.2-.26,8.41-.28c2.7,0,5.4,0,8.09.24,2.94.25,5.36,1.23,8.19,2a9.34,9.34,0,0,0,3.79.32c1.55-.23,2.75-1.48,4.3-1.56,1.1-.05,2.14,1.09,2.92,1.14.13,0,.28.16.43.14.75-.09,1.66-1,2.44-.94a14.91,14.91,0,0,1,3.12,2.56,5.08,5.08,0,0,1-.13,1.44c-.11.85-.64,2.2-.17,2.89-.54-.79-.4-1.95-1.13-2.84-1.67-2-4.65-2.52-7.11-2.7s-4.66.75-7.06.54-4.41-1.13-6.63-1.69a40.56,40.56,0,0,0-12.93-1.18c-.22,0-.38.36-.13.47-1.7-.77-4.42-.16-6.35-.19-.81,0-1.64-.06-2.45,0,0,0-2.55.25-1.66-.16C378.87,291.47,378.62,291,378.33,291.17Z" transform="translate(-356.49 -233.95)"/></g><path class="cls-2" d="M426.9,300.11c-2-.62-2.62-1.57-1.9-2.83l-1-.27a4.53,4.53,0,0,1-.89,2.59q-.28,1.33-1.44,1.08a2.93,2.93,0,0,1-3.16-2c-.1-.53-.8-.4-1,0-1.21,3-4.61-.17-5.91-.91a6.33,6.33,0,0,0-2.87-.87c-3.13-.22-6.24.63-9.42.32a87.3,87.3,0,0,1-10.26-2c-1.35-.3-9.74-1.77-9.65-2.86.07-.83,3.86-.64,4.77-.68,1.59-.06,3.17-.09,4.76-.1,3.37-.05,6.79-.18,10.16.09s6.53,1.83,9.91,2.34a6.34,6.34,0,0,0,2.64-.11c1.67-.44,5.76-3.16,6.37.3a.5.5,0,0,0,.91.12c.95-1.32,2.06-1.76,3.33-1.34q1.95,0,1.89,2.52A12.62,12.62,0,0,1,424,297l1-.13c1.22-2.58,2-3.33,2.48-2.24a.24.24,0,0,0,.06.11c.06,0,.12.13.19.16a9.45,9.45,0,0,1,1.26.95l2.81,2.12v-.86l-4.74,2.84a.5.5,0,0,0,.5.87l4.75-2.85a.51.51,0,0,0,0-.86l-2.63-2a8.52,8.52,0,0,1-1.32-1c-.32-.38,0-.59-.55-1.11a2.15,2.15,0,0,0-2.83.07c-1.21,1-1.14,2.62-.94,4,.08.59.95.4,1-.13.1-1.91.95-4-1.35-4.79-2.05-.74-4.61-.63-5.55,1.59l.91.12c-.5-2.86-3.48-2.6-5.6-1.79-1.75.67-3,1.18-4.91.73-1.1-.26-2.14-.73-3.22-1a28.43,28.43,0,0,0-5.25-1.07,106.92,106.92,0,0,0-14.87-.11,36.39,36.39,0,0,0-6.77.39c-.61.14-1.22.33-1.3,1.06s.55,1.09,1.15,1.38c2.17,1,5,1.4,7.34,2a114.41,114.41,0,0,0,13.32,2.74,30.42,30.42,0,0,0,6.54,0,16.88,16.88,0,0,1,3.33-.26c1.77.16,2.58.93,3.94,1.79,2,1.27,4.72,1.93,5.8-.74h-1c.44,2.31,2.7,2.94,4.82,2.75,2.62-.24,2.26-2.29,2.59-4.39a.5.5,0,0,0-1-.27c-.54,1.48-.89,3.47.62,4.55a2,2,0,0,0,3.1-.94C428,300,427.15,299.52,426.9,300.11Z" transform="translate(-356.49 -233.95)"/><path class="cls-9" d="M436.15,295.78a4.79,4.79,0,0,0,.6-3.54,5.47,5.47,0,0,0-2.76-3,4.61,4.61,0,0,0-4.05.09,4.49,4.49,0,0,0-2.2,4.49,4.91,4.91,0,0,0,3.27,3.84,4.15,4.15,0,0,0,2.49.09A4.39,4.39,0,0,0,436.15,295.78Z" transform="translate(-356.49 -233.95)"/><path class="cls-2" d="M436.58,296c3.39-5.23-5-10.82-8.49-5.7a5.13,5.13,0,0,0,1.28,7c2.46,1.81,5.33,1,7.13-1.2.4-.49-.3-1.21-.71-.7-1.36,1.68-3.29,2.6-5.41,1.37a4.17,4.17,0,0,1-1.68-5.56c2.52-4.59,9.86-.1,7,4.29C435.37,296.07,436.23,296.57,436.58,296Z" transform="translate(-356.49 -233.95)"/><path class="cls-9" d="M435.2,304.77a4.84,4.84,0,0,0,.61-3.54,5.49,5.49,0,0,0-2.77-3,4.61,4.61,0,0,0-4.05.09,4.49,4.49,0,0,0-2.2,4.48,4.91,4.91,0,0,0,3.27,3.85,4.15,4.15,0,0,0,2.49.09A4.4,4.4,0,0,0,435.2,304.77Z" transform="translate(-356.49 -233.95)"/><path class="cls-2" d="M435.63,305c3.4-5.24-5-10.82-8.48-5.7a5.1,5.1,0,0,0,1.27,7c2.47,1.82,5.33,1,7.14-1.19.4-.49-.31-1.21-.71-.71-1.36,1.69-3.29,2.61-5.42,1.38a4.17,4.17,0,0,1-1.67-5.56c2.52-4.59,9.86-.1,7,4.29C434.42,305.06,435.29,305.56,435.63,305Z" transform="translate(-356.49 -233.95)"/><path class="cls-2" d="M437.47,295.16a2.28,2.28,0,0,0-.58-3.62,2.44,2.44,0,1,0,1.29,2.09,2,2,0,0,0-2-2,2,2,0,0,0-2,2l0,.48v-1.06l0,.1.52-.88-.07.07a2,2,0,0,0,0,2.82,2,2,0,0,0,2.83,0Z" transform="translate(-356.49 -233.95)"/><path class="cls-2" d="M436.52,304.15a2.28,2.28,0,0,0-.58-3.62,2.43,2.43,0,1,0,1.3,2.09,2,2,0,0,0-4,0l0,.48V302l0,.11.51-.89-.07.08a2,2,0,0,0,0,2.82,2,2,0,0,0,2.83,0Z" transform="translate(-356.49 -233.95)"/><path class="cls-9" d="M436.69,292.79a1,1,0,0,0-.62-.17.51.51,0,0,0-.48.37c-.19.62.35,1.38,1,1a.66.66,0,0,0-.37-1.23c-.64,0-.64,1,0,1h.09l-.35-.14,0,0,0-.38.57,0-.48.37.12,0c.53.37,1-.5.5-.87Z" transform="translate(-356.49 -233.95)"/><path class="cls-9" d="M435.74,301.63a.94.94,0,0,0-.62-.18.53.53,0,0,0-.49.37c-.18.62.35,1.39,1,1a.66.66,0,0,0-.36-1.23c-.65,0-.65,1,0,1h.09l-.36-.14,0,.05-.05-.39.57,0-.48.36.11,0c.53.37,1-.5.51-.86Z" transform="translate(-356.49 -233.95)"/><g class="cls-10"><path class="cls-2" d="M435.52,290.38c-1.06-.38-2.67-1-3.76-.73a4.65,4.65,0,0,0-3.43,5.35,4.25,4.25,0,0,1,6.32-5.31" transform="translate(-356.49 -233.95)"/><path class="cls-2" d="M435.58,290.14c-1.94-.7-3.72-1.25-5.54,0a5,5,0,0,0-2,4.89l.45-.19a4,4,0,0,1,6-5c.27.17.52-.26.26-.43a4.54,4.54,0,0,0-6.67,5.65c.12.28.5.06.46-.19a4.47,4.47,0,0,1,2.85-4.93c1.35-.45,2.76.15,4,.62.3.11.43-.38.13-.49Z" transform="translate(-356.49 -233.95)"/></g><g class="cls-10"><path class="cls-2" d="M434,299a7.61,7.61,0,0,0-3.35-.24,3.87,3.87,0,0,0-2.71,1.86,4.08,4.08,0,0,0-.33,2.44,12,12,0,0,0,.72,2.39,4.14,4.14,0,0,1-1.52-3.94,4.38,4.38,0,0,1,2.71-3.26,4.68,4.68,0,0,1,4.23.51" transform="translate(-356.49 -233.95)"/><path class="cls-2" d="M434.09,298.75c-1.91-.46-4.13-.61-5.66.86-1.69,1.61-1.05,4-.32,5.89l.42-.24a3.91,3.91,0,0,1-.69-5.42,4.33,4.33,0,0,1,5.81-.88c.27.17.52-.26.25-.43a4.84,4.84,0,0,0-6.46,1,4.41,4.41,0,0,0,.73,6.08c.17.15.52,0,.42-.24-.68-1.79-1.38-4.05.33-5.51,1.42-1.22,3.35-1,5-.63.31.07.44-.41.13-.48Z" transform="translate(-356.49 -233.95)"/></g><path class="cls-2" d="M424.16,293.12a1.9,1.9,0,0,0-1-.4l0,1.56a1.86,1.86,0,0,1-2.35,2.18,2.16,2.16,0,0,1,1.81.64,1.73,1.73,0,0,1,.25.87,5,5,0,0,1-.82,3.15,1.68,1.68,0,0,0,1.76-.55,3.32,3.32,0,0,0,.52-1.84l.33-4.16c0-.51,0-1.15-.46-1.37" transform="translate(-356.49 -233.95)"/><path class="cls-2" d="M424.41,292.69a2.81,2.81,0,0,0-1.07-.45.51.51,0,0,0-.64.48c0,1.59.35,3.1-1.82,3.24a.5.5,0,0,0,0,1c2.33.12,1.48,2.77.81,3.91a.5.5,0,0,0,.43.75c1.95.26,2.6-1.23,2.78-2.89.14-1.36.32-2.8.33-4.16a1.92,1.92,0,0,0-.61-1.72c-.48-.42-1.19.29-.7.71.69.58.2,2.34.14,3.09-.09,1.21.17,4.25-1.94,4l.44.76a5.19,5.19,0,0,0,.77-4.06c-.41-1.1-1.38-1.31-2.45-1.36v1a3,3,0,0,0,2.5-1c.6-.88.34-2.28.32-3.26l-.63.48.83.35a.5.5,0,0,0,.51-.86Z" transform="translate(-356.49 -233.95)"/><path class="cls-2" d="M420.71,292.49a13.78,13.78,0,0,1-1.11,8.2,4,4,0,0,1-1.11-.75,5.52,5.52,0,0,0,.61-2.15c0-.76.06-1.17-1.26-1.66,0,0,1.36-.23,1.65-.83a1.8,1.8,0,0,0-.15-1.81c-.07-.1-.17-.2-.14-.31a.32.32,0,0,1,.11-.17c.38-.37.86-.77,1.37-.64" transform="translate(-356.49 -233.95)"/><path class="cls-2" d="M420.22,292.62a13.73,13.73,0,0,1-1.05,7.82l.68-.18a3.78,3.78,0,0,1-1-.67l.08.6c.77-1.79,1.25-3.6-.83-4.49l-.12.91a2.89,2.89,0,0,0,1.86-.94,2,2,0,0,0,.33-1.27c0-.78-1-1.45.52-1.53.64,0,.64-1,0-1s-1.9.41-2,1.24c0,.26.17.42.19.64.14,1.2-.1,1.69-1.19,1.9a.5.5,0,0,0-.12.91c1.49.64,1,1.92.47,3.13a.51.51,0,0,0,.07.61,6.85,6.85,0,0,0,1.22.82.49.49,0,0,0,.68-.18,15,15,0,0,0,1.16-8.59c-.1-.63-1.06-.36-1,.27Z" transform="translate(-356.49 -233.95)"/><path class="cls-2" d="M418.17,293a2,2,0,0,0-1.8-.85c0,.49,0,1-.09,1.48a2.75,2.75,0,0,1-.36,1.29,3.05,3.05,0,0,1-1.85,1.05,2.44,2.44,0,0,1,1.6,1,2,2,0,0,1,.08,1.29,4.35,4.35,0,0,1-1,1.93,2.81,2.81,0,0,0,1.57.13.68.68,0,0,0,.37-.15c.24-.2.21-.56.17-.87a15.23,15.23,0,0,1-.06-3.44,4,4,0,0,1,1.25-3" transform="translate(-356.49 -233.95)"/><path class="cls-2" d="M418.53,292.68a2.63,2.63,0,0,0-2.16-1,.51.51,0,0,0-.5.5c-.05,1.53-.3,2.84-1.94,3.33a.51.51,0,0,0,0,1c2,.61,1.31,2.32.44,3.36a.51.51,0,0,0,.22.84c1,.27,2.4.45,2.74-.75a13,13,0,0,0-.11-2.91,5,5,0,0,1,1.16-3.76c.47-.44-.23-1.15-.7-.71a4.66,4.66,0,0,0-1.37,3.08,14.27,14.27,0,0,0-.07,2.53,5.07,5.07,0,0,1,.1,1.15c-.19.69-.66.63-1.48.4l.22.84c1.59-1.92,1.75-4.22-.88-5v1c2.31-.7,2.59-2,2.67-4.3l-.5.5a1.5,1.5,0,0,1,1.45.71c.41.49,1.12-.22.71-.71Z" transform="translate(-356.49 -233.95)"/><path class="cls-2" d="M413.35,292.86a7.2,7.2,0,0,1-.93,5.72s0,.07-.08.08a.18.18,0,0,1-.12,0,4.88,4.88,0,0,1-1-.72,1.23,1.23,0,0,0,.05-1.34,2.56,2.56,0,0,0-1.06-.92,1.31,1.31,0,0,0,1.36-1.85c0-.08-.08-.18,0-.25a.18.18,0,0,1,.09-.06l1.45-.77.22.24" transform="translate(-356.49 -233.95)"/><path class="cls-2" d="M412.87,293c.35,1.49.38,4.14-.89,5.31l.49-.13a3.13,3.13,0,0,1-.86-.63l.07.61c.73-1.23-.11-2.32-1.18-3l-.26.94a1.87,1.87,0,0,0,1.88-1.19c.09-.26.23-.9,0-1.12,0-.26-.11-.23-.23.08l.36-.19a8.67,8.67,0,0,0,1.09-.57l-.6-.08.22.23c.45.47,1.15-.24.71-.71l-.23-.23a.5.5,0,0,0-.6-.08c-.42.22-1.41.53-1.68.95s.46,1.91-.94,1.91a.5.5,0,0,0-.25.93c.52.3,1.27.83.83,1.57a.5.5,0,0,0,.08.61c.37.33,1,1,1.57.88s.76-.94.94-1.35a7.86,7.86,0,0,0,.42-5.06c-.15-.63-1.11-.36-1,.27Z" transform="translate(-356.49 -233.95)"/><path class="cls-2" d="M409.22,293.47a2.93,2.93,0,0,1-1.39-.38,2.14,2.14,0,0,1-.35,1.5,2.1,2.1,0,0,1-1.47.5,1.7,1.7,0,0,1,1.09.49,1.18,1.18,0,0,1,.18.86,3.55,3.55,0,0,1-.29.85,4.15,4.15,0,0,1,1.57-.07c.12,0,.27,0,.33-.08a.41.41,0,0,0,0-.19,5.34,5.34,0,0,1,.36-3.32" transform="translate(-356.49 -233.95)"/><path class="cls-2" d="M409.22,293a2.81,2.81,0,0,1-1.14-.31.5.5,0,0,0-.75.43,1.94,1.94,0,0,1-.15,1.07,1.45,1.45,0,0,1-1.17.43c-.52,0-.72.86-.13,1a.92.92,0,0,1,.7.38c.32.39.18.63,0,1.09a.51.51,0,0,0,.56.74,4.24,4.24,0,0,1,1.12-.09,2.28,2.28,0,0,0,.64,0,.73.73,0,0,0,.5-.51,6.53,6.53,0,0,0-.11-1.38,5.19,5.19,0,0,1,.41-1.94c.25-.59-.61-1.1-.86-.51a6.75,6.75,0,0,0-.51,1.82,18.06,18.06,0,0,0,.08,1.95l.24-.44c-.15.1-.66,0-.86,0a6.88,6.88,0,0,0-.91.13l.56.74c.62-1.43.37-2.61-1.28-2.94l-.13,1a2.18,2.18,0,0,0,2.32-2.5l-.75.43a4.06,4.06,0,0,0,1.64.45c.64,0,.64-1,0-1Z" transform="translate(-356.49 -233.95)"/><path class="cls-2" d="M405.62,292.54a5.79,5.79,0,0,0-1.28-.54l-.34,1a2.64,2.64,0,0,1-.34.72,2.58,2.58,0,0,1-1.93.74,1.77,1.77,0,0,1,1.33.47,1.71,1.71,0,0,1,.15,1.39l-.23,1.35a6.54,6.54,0,0,0,2-.28,8.66,8.66,0,0,1,.75-4.54" transform="translate(-356.49 -233.95)"/><path class="cls-2" d="M405.87,292.11a6.92,6.92,0,0,0-1.4-.59.5.5,0,0,0-.61.35,6.92,6.92,0,0,1-.49,1.34,2,2,0,0,1-1.64.72.5.5,0,0,0,0,1c1.48.11.93,1.63.77,2.58a.5.5,0,0,0,.48.63,8.7,8.7,0,0,0,2.09-.29.53.53,0,0,0,.37-.49,8.64,8.64,0,0,1,.68-4.29c.26-.59-.6-1.1-.86-.51a9.79,9.79,0,0,0-.82,4.8l.36-.48a7.41,7.41,0,0,1-1.82.26l.48.63a5.54,5.54,0,0,0,.2-2.82c-.33-.8-1.16-1-1.93-1v1a3.51,3.51,0,0,0,2.08-.67,4.8,4.8,0,0,0,1-2.12l-.61.35a5.84,5.84,0,0,1,1.16.49c.56.31,1.07-.56.5-.87Z" transform="translate(-356.49 -233.95)"/><path class="cls-2" d="M401.1,291.46a2.83,2.83,0,0,0-.53,1.33,9.44,9.44,0,0,0-.2,4.91l-2.19-.22a4.67,4.67,0,0,0-.08-2.17,1.94,1.94,0,0,0-1.54-1.37,1.95,1.95,0,0,0,2.22-2.47c0-.11-.06-.24,0-.3a.25.25,0,0,1,.17,0l2.06.22" transform="translate(-356.49 -233.95)"/><path class="cls-2" d="M400.67,291.21c-1.16,1.69-1.3,4.71-.78,6.63l.48-.64-2.19-.22.5.5c.2-1.66-.07-3.61-2-4l-.13,1a2.47,2.47,0,0,0,2.62-1.55,2.12,2.12,0,0,0,.15-1.17c0-.43,0-.5-.22-.23s-.16.3.37.21a8.17,8.17,0,0,0,1.55.17c.64.07.64-.93,0-1s-2.12-.57-2.62,0a1,1,0,0,0-.16.5c0,.18,0,.73,0,.8a.73.73,0,0,1-.67.94.91.91,0,0,1-1,.33.5.5,0,0,0-.14,1c1.43.31,1.4,1.89,1.26,3.06,0,.29.26.47.5.5l2.19.22a.5.5,0,0,0,.48-.63,8.16,8.16,0,0,1,.68-5.86c.37-.53-.5-1-.86-.5Z" transform="translate(-356.49 -233.95)"/><path class="cls-2" d="M395.71,291.09l-1.67,0a2.63,2.63,0,0,1-.72,2.18,2.6,2.6,0,0,1-1.38.34,1.3,1.3,0,0,1,1.39,1,2.5,2.5,0,0,1-.27,1.79,8.36,8.36,0,0,0,1.71.41s.08,0,.11,0,.09-.17.07-.27a7.13,7.13,0,0,1,.92-5.18s.07-.1.12-.08,0,.11,0,.07" transform="translate(-356.49 -233.95)"/><path class="cls-2" d="M395.71,290.59l-1.67,0a.51.51,0,0,0-.5.5c0,1.15-.23,1.92-1.6,2-.63.05-.64,1,0,1,1.21,0,1,1.36.69,2a.5.5,0,0,0,.29.73c.67.22,2.23.92,2.53-.13.16-.57-.18-1.5-.13-2.14s.3-2.5.92-2.91l-.73-.3v.06l.35-.62,0,0a.5.5,0,0,0,.27,1h0a.52.52,0,0,0,.35-.62l0-.05a.5.5,0,0,0-.73-.3,4.31,4.31,0,0,0-1.23,2.5,8.12,8.12,0,0,0-.2,1.47,10.8,10.8,0,0,1,.14,1.74l.43-.25a5,5,0,0,1-1.69-.38l.3.73c.62-1.4.46-3.58-1.55-3.49v1c1.91-.14,2.56-1.19,2.6-3l-.5.5,1.67,0c.64,0,.64-1,0-1Z" transform="translate(-356.49 -233.95)"/><path class="cls-2" d="M391,291.13a19.16,19.16,0,0,0-.71,4.7l-2-.56a1.74,1.74,0,0,0-.82-2.48c.52,0,1.14,0,1.41-.45a2.52,2.52,0,0,0,.19-1,.39.39,0,0,1,.06-.19.37.37,0,0,1,.31-.07l1.17.06c.08,0,.18.1.11.13" transform="translate(-356.49 -233.95)"/><path class="cls-2" d="M390.49,291a21.46,21.46,0,0,0-.73,4.84l.63-.48-2-.56.3.73a2.3,2.3,0,0,0-1-3.16l-.25.93a2,2,0,0,0,1.85-.7,2.71,2.71,0,0,0,.22-.88c.05-.24-.19-.15.19-.15a2.55,2.55,0,0,1,.74,0l-.25-.43v.07a.5.5,0,0,0,1,0v-.07a.47.47,0,0,0-.25-.43,2.91,2.91,0,0,0-1.95-.12.71.71,0,0,0-.4.46c-.06.16,0,.34-.07.49a.91.91,0,0,1-1.08.72.5.5,0,0,0-.25.93,1.3,1.3,0,0,1,.64,1.8.5.5,0,0,0,.29.73l2,.56a.5.5,0,0,0,.63-.48,20.78,20.78,0,0,1,.69-4.57.5.5,0,0,0-1-.27Z" transform="translate(-356.49 -233.95)"/><path class="cls-2" d="M386.36,291.29q-.17,1.75-.18,3.51l-1.59-.25a.93.93,0,0,0,.17-1.19,1.48,1.48,0,0,0-1.1-.65.92.92,0,0,0,1-1.4,6.73,6.73,0,0,0,1.61-.23" transform="translate(-356.49 -233.95)"/><path class="cls-2" d="M385.86,291.29q-.17,1.75-.18,3.51l.64-.49-1.6-.24.22.83c1.09-1,.07-2.43-1.14-2.68-.63-.12-.9.83-.27,1a1.43,1.43,0,0,0,1.6-2.13l-.43.75a8,8,0,0,0,1.75-.25c.62-.15.36-1.11-.27-1a7.44,7.44,0,0,1-1.48.21.51.51,0,0,0-.44.75.42.42,0,0,1-.46.66l-.27,1c.41.08,1.24.49.7,1a.51.51,0,0,0,.22.84l1.6.25a.5.5,0,0,0,.63-.48q0-1.76.18-3.51c.06-.64-.94-.63-1,0Z" transform="translate(-356.49 -233.95)"/><path class="cls-2" d="M382.42,291.28a6.3,6.3,0,0,0-.37,2.62,9.63,9.63,0,0,0-1.64-.42,1,1,0,0,0-.74-1.24,1.69,1.69,0,0,0,.63-.09.59.59,0,0,0,.4-.45.28.28,0,0,1,0-.18.23.23,0,0,1,.15-.06,8.21,8.21,0,0,1,1.39-.15" transform="translate(-356.49 -233.95)"/><path class="cls-2" d="M381.94,291.15a7.14,7.14,0,0,0-.39,2.75l.63-.49a11.6,11.6,0,0,0-1.64-.42l.35.62a1.56,1.56,0,0,0-1.08-1.85l-.14,1a1.8,1.8,0,0,0,1.07-.27c.32-.22.35-.49.48-.81l-.23.3a3.08,3.08,0,0,1,1.29-.15c.64,0,.65-1,0-1a5,5,0,0,0-1.67.21.61.61,0,0,0-.35.37c0,.06,0,.18-.05.22s-.38.13-.54.13a.51.51,0,0,0-.13,1,.52.52,0,0,1,.38.61.52.52,0,0,0,.35.62,11.73,11.73,0,0,1,1.65.42.5.5,0,0,0,.63-.48,6.4,6.4,0,0,1,.35-2.49c.21-.61-.75-.87-1-.26Z" transform="translate(-356.49 -233.95)"/><rect class="cls-11" width="123.08" height="123.08"/></svg>