<svg id="Calque_1" data-name="Calque 1" xmlns="http://www.w3.org/2000/svg" viewBox="0 0 1222.1 195.59"><defs><style>.cls-1{fill:#1d1d1b;}.cls-2{fill:#fff;}</style></defs><title>mail</title><path class="cls-1" d="M820.52,601.39c15.6-8.91,24.89-26.9,31.22-43,6.49-16.56,10.3-36.38,7.49-54.12-1.32-8.38-5.63-17-13.55-20.83-9.49-4.62-20.41.61-25,9.6-4.43,8.73-3.75,19.86-4.05,29.4q-.48,15.06,0,30.11c.51,16.71-1.39,40.59,16.6,49.06a25.31,25.31,0,0,0,24.83-1.46,27.22,27.22,0,0,0,8.52-9.05,25.44,25.44,0,0,0,2.28-5.5c.18-.61,1.55-6.1,1.07-6.44,1.12.8-6,3.31-1.16,2.17a14.5,14.5,0,0,0,2.15-.84c2-.79,4-1.6,5.94-2.49a35.19,35.19,0,0,0,11.36-7.88c6.24-6.83,9-17.23,4.8-25.82-3.76-7.65-12.12-11.64-20.46-10.85-8.95.85-16.33,6.82-20.5,14.61-8.64,16.21-6,38.42,9.32,49.72,14,10.34,35.87,6.82,44.7-8.51,6.44-11.18-10.84-21.26-17.27-10.1-2.88,5-10.42,6-15.32,2.77-6.37-4.26-7.48-13.46-5.51-20.32.88-3.06,2.71-7.26,5.94-8.31,1.31-.43,1.59-.18.8,1.53-1.57,3.4-5.91,5-9.12,6.37-6.13,2.53-12,4.39-14.45,11.28-1.24,3.5-.33,8.27-3.68,10.74a5.45,5.45,0,0,1-6.66-.21c-3.43-2.68-3.07-9.19-3.32-13q-.69-10.19-.94-20.38c-.35-13.86-.21-27.8.76-41.63.12-1.68,1.23-4.31,1.1-5.85,0-.16.52-.84.66-.68l-2.23-.19.3.21c0,.32,1,1.36,1.28,1.9a16.24,16.24,0,0,1,1.1,3.82,40.26,40.26,0,0,1,.49,8.64,104.8,104.8,0,0,1-8.21,38.83c-4.5,10.64-11,23.54-21.37,29.48-11.17,6.39-1.11,23.68,10.09,17.27Z" transform="translate(-805.56 -469.32)"/><path class="cls-1" d="M922.71,536.47c-27.53,1.66-45.32,45.41-18.76,61.16,11.8,7,25.83,1.24,32-10.33,6.54-12.31,6.73-27.59,3.32-40.84-2.74-10.62-20.71-8.81-19.65,2.66,1.37,14.69-3.6,31.91,4.93,45.16,8.1,12.59,29,13.21,33.56-2.86,3.5-12.41-15.79-17.71-19.29-5.32.4-1.42,2.76-2.27,2.75-2.25s-1.28-3.19-1.31-3.33a23.59,23.59,0,0,1-.65-4.8c-.49-8.88.84-17.73,0-26.6L920,551.78a41.64,41.64,0,0,1,.24,21.09c-.77,2.93-2.29,8.69-6.05,7.62-4.71-1.33-3.56-8.65-2.38-11.8,1.63-4.34,5.6-11.9,10.94-12.22,12.79-.77,12.88-20.78,0-20Z" transform="translate(-805.56 -469.32)"/><path class="cls-1" d="M957.09,588.25a20.57,20.57,0,0,0-1.07,2.51c-.09.32-.36,2.42-.36,2.75l.36,2.66a26,26,0,0,0,1,2.43,10,10,0,0,0,1.6,2.07,7.24,7.24,0,0,0,3.28,2.1,9.22,9.22,0,0,0,1.3.53,10.81,10.81,0,0,0,5.56,0,9.06,9.06,0,0,0,2.67-1.09,19,19,0,0,0,2.09-1.6,16.58,16.58,0,0,0,1.64-2.09c.19-.32.93-2.12,1-2.47a10.16,10.16,0,0,0,0-5.36,8.82,8.82,0,0,0-1-2.47l-1.57-2-.1-.09a10.28,10.28,0,0,0-14.14,0,10.07,10.07,0,0,0-2.93,7.07l.36,2.66a9.9,9.9,0,0,0,2.57,4.41.47.47,0,0,1,.1.1l-1.56-2,0,.05-1-2.39,0,0-.36-2.66v0l.36-2.65v0l1-2.38,0,0,1.56-2s0,.05-.07.06l2-1.56-.1.06,2.38-1-.24.07,2.65-.36h-.25l2.66.36-.1,0,2.39,1,0,0,2,1.56,0,0,1.56,2,0,0,1,2.38,0,0,.36,2.65v0l-.36,2.66a.2.2,0,0,1,0-.11l-1,2.39,0-.07a7.4,7.4,0,0,0,1.19-3.71,10.28,10.28,0,0,0-4.78-10l-2.38-1a10.21,10.21,0,0,0-5.32,0l-2.39,1a10.12,10.12,0,0,0-3.59,3.59Z" transform="translate(-805.56 -469.32)"/><path class="cls-1" d="M989.19,603.09c9.44-3.51,15.12-11.58,19.8-20.16a103.65,103.65,0,0,0,10.12-27.55,151.08,151.08,0,0,0,3.26-28.91c.18-9.38.69-20.52-2.62-29.42-3.57-9.6-13.49-16.51-23.87-13.22-11.56,3.66-12.24,16.91-12.88,27a241.82,241.82,0,0,0,4.9,65.34c2.36,10.92,8.6,22,19.87,25.56s24.21-2.58,27-14.37c3-12.51-16.32-17.85-19.29-5.31q-.75,2.46.3.15.15.75-1.14.78c-.46-.2-.72-.15-1.55-.53-1.92-.89-3.49-3.71-4.26-5.58-3.23-7.79-3.67-17.41-4.6-25.75a249.23,249.23,0,0,1-1.61-28.78q0-7.2.59-14.38c.13-1.68.43-3.39.5-5.06a4.44,4.44,0,0,1,.47-1.69,3.57,3.57,0,0,1-3.46,1.74c-.27,1,.88,3.36,1,4.56a118.08,118.08,0,0,1,.63,13.16,134,134,0,0,1-1.48,23.76,96.85,96.85,0,0,1-6.32,22.6,75.85,75.85,0,0,1-5.34,10c-1.13,1.8-3.17,5.94-5.38,6.76-5.06,1.88-8.5,6.77-7,12.3,1.33,4.86,7.21,8.87,12.3,7Z" transform="translate(-805.56 -469.32)"/><path class="cls-1" d="M1036.36,537.58c-8.55,6.16-16.1,12.85-18.73,23.5-2.27,9.2-1.72,19.7,2.51,28.26,9.28,18.75,34.76,15.36,43.81-1.71,5-9.39,4.29-20.51,1.56-30.46-2.68-9.77-7.21-21.08-18-24.08-10.2-2.84-20.36,3.75-23.18,13.73a23.85,23.85,0,0,0,7.25,24.1c8.33,7.1,20.62,7.43,30,2.19,10.15-5.67,15-16.93,15.66-28.07h-20c.3,11.34.93,22.67,2,34,.51,5.51,1,11.21,5.12,15.34s10.82,4.91,16.39,3.7c9.52-2.06,16.34-10.18,19.67-18.93,3.88-10.22,1.8-21.42,2.22-32h-20l1.05,19.48c.33,6.25.27,12.84,1.9,18.93a25.71,25.71,0,0,0,10.17,14.78c6,4,12.79,3.88,19.47,1.84,12.28-3.76,7-23.07-5.31-19.29-2.71.83-2.78,2-4.32-.64s-1.4-6.29-1.56-9.13c-.51-8.66-.94-17.32-1.4-26-.69-12.82-19.49-12.92-20,0-.3,7.61,1.31,15.84-.43,23.31a13.66,13.66,0,0,1-3.07,6.25c-.65.69-1.72,1.13-2.31,1.8-1.94,2.18-2-3,.79.65l2.57,4.41c-2.16-5.25-1.65-12.41-2-18.06-.44-6.79-.73-13.59-.91-20.39-.33-12.95-19.19-12.79-20,0-.26,4.27-2.12,9.35-6.37,11.14-2.34,1-5.56.86-6.82-1.07-.17-.26-.84-3.19-.43-3-.12-.06-1.31.13-1.21.48.47,1.8,1.87,3.75,2.49,5.58a53.29,53.29,0,0,1,2.6,10c.6,4.6.31,10.23-3.9,13.08-2.17,1.46-3.72,1.67-5.21-.26-2.51-3.25-2.4-9.19-1.81-13,1-6.2,5-9.65,9.88-13.16,4.37-3.15,6.5-8.7,3.59-13.68-2.53-4.32-9.28-6.76-13.68-3.59Z" transform="translate(-805.56 -469.32)"/><path class="cls-1" d="M1128.4,597a15.84,15.84,0,0,0,1.76,2.23,17.06,17.06,0,0,0,2.11,1.61l2.39,1,.09,0,.18,0,2.66.36h.1a19.86,19.86,0,0,0,2.76-.36l.19,0,.1,0,2.39-1,.18-.09.08-.05,2-1.57.14-.13a18.88,18.88,0,0,0,1.61-2.1,18.13,18.13,0,0,0,1.06-2.48c0-.06,0-.12,0-.18l.36-2.66a.38.38,0,0,0,0-.15c0-.33-.29-2.43-.37-2.75s-.87-2.18-1-2.48a9.1,9.1,0,0,0-.85-1.13,11.41,11.41,0,0,0-.87-1.11,9.65,9.65,0,0,0-1.11-.87,10.33,10.33,0,0,0-1.14-.86c-.32-.18-2.11-.94-2.47-1l-.18-.06c-.31-.09-2.44-.36-2.76-.37h-.19c-.27,0-2.49.3-2.75.37l-.18,0c-.29.07-2.21.89-2.47,1a10.94,10.94,0,0,0-1.12.86,8,8,0,0,0-1.11.88,16.86,16.86,0,0,0-1.64,2.14,11.19,11.19,0,0,0-1,7.71,11.13,11.13,0,0,0,4.6,6l2.38,1a10,10,0,0,0,5.32,0,10.42,10.42,0,0,0,6-4.6l0-.08-1.57,2a.58.58,0,0,1,.13-.14l-2,1.56a.83.83,0,0,1,.16-.09l-2.39,1a.84.84,0,0,1,.26-.07l-2.65.35h.28l-2.66-.35a1.47,1.47,0,0,1,.28.08l-2.39-1,.16.09-2-1.56.19.19-1.57-2a.51.51,0,0,1,.09.16l-1-2.39,0,.09-.36-2.66a.45.45,0,0,1,0,.2l.36-2.66a.59.59,0,0,1,0,.19l1-2.39a.86.86,0,0,1-.1.16l1.56-2a.86.86,0,0,1-.13.14l2-1.56a1.08,1.08,0,0,1-.26.14l2.39-1a1.57,1.57,0,0,1-.29.08l2.66-.36h-.2l2.66.36a1.2,1.2,0,0,1-.27-.08l2.38,1-.08,0,2,1.56a.93.93,0,0,1-.15-.13l1.57,2-.06-.08a7.56,7.56,0,0,0-2.58-2.8,7.4,7.4,0,0,0-3.4-1.79,7.49,7.49,0,0,0-4-.18,7.37,7.37,0,0,0-3.72,1.19l-2,1.56a10.15,10.15,0,0,0-2.57,4.41l-.35,2.66a10,10,0,0,0,1.36,5.05Z" transform="translate(-805.56 -469.32)"/><path class="cls-1" d="M1164.87,601.66c17-6.08,21.23-24.93,23.57-40.91,2.77-18.87,2.12-37.82,1.23-56.8-.61-12.79-20.07-12.95-20,0q.15,33.34.32,66.69c0,10,.81,20.69,10.76,26s20.58,1.81,29.82-3.31c11.27-6.24,1.19-23.52-10.09-17.27-2.24,1.24-5.64,3.55-8.39,3.36-2.24-.16-2,.07-2-1.41.07-7.67-.13-15.37-.17-23l-.24-51h-20c.73,15.56,1.47,31.21,0,46.75a112.79,112.79,0,0,1-4,21.1c-1,3.33-2.5,9.26-6.17,10.58-5.08,1.82-8.49,6.81-7,12.3,1.35,4.91,7.2,8.81,12.31,7Z" transform="translate(-805.56 -469.32)"/><path class="cls-1" d="M1214,533c-12.25,12-21.75,32.13-15.46,49.31,6.77,18.48,28.51,21.56,42.57,9.12,14.21-12.56,12.8-37.6,2.58-52.3-5.77-8.31-16.52-13.53-25.49-6.51-7.38,5.77-9.59,17-6.36,25.52,3.72,9.86,14.82,16.15,25.21,13a21.5,21.5,0,0,0,12.16-10.28c1-1.82,1.79-3.77,2.73-5.63.87-1.71,2.73-2.84.33-2.59l-8.64-5c3.65,6.51,3.14,14.15,3,21.38-.18,8.53-.17,17.16,2.45,25.38a10.21,10.21,0,0,0,12.3,7c5.73-1.58,7.77-6.94,7-12.3a72.91,72.91,0,0,1-.07-20,74.21,74.21,0,0,1,2.32-10.62c.5-1.73,1-3.49,1.68-5.17a1.94,1.94,0,0,1,.81-1.82q-4.52,2.15-7.87.08c-.07,1.22.82,4.21,1,5.75q.69,5.67,1.3,11.36,1.27,11.84,2.25,23.71c1.06,12.78,19.15,12.94,20,0,.61-9.35-1.57-18.51-1.41-27.84.09-5.09,1.17-11.41,5.78-14.33L1282,548.69a26.34,26.34,0,0,1,6.07,15.61c.46,8-2.29,15.73.14,23.58,2.27,7.35,8.5,13.59,16.49,13.89,7.37.28,15.46-4.71,16.56-12.44.76-5.34-1.31-10.75-7-12.3-4.68-1.29-11.53,1.6-12.3,7-.46,3.23.56-2,3.12-2.18.74,0,1.92.82,2.32.79,1-.06.18,1.81-.12-.67-.07-.62-.17-1.21-.22-1.81-.52-5.47,1.36-11,1-16.62a48.63,48.63,0,0,0-11.88-29c-2.79-3.22-8.57-3.81-12.12-1.57-9,5.72-13.75,15-15.15,25.45-1.53,11.37,1.62,22.6.88,34h20q-1.45-17.56-3.55-35.07c-1.23-10.26-4-24.28-17.24-24.17-12.76.11-16.81,15.24-19,25.28a98.94,98.94,0,0,0-.91,35.94l19.28-5.31c-2.58-8.1-1.68-16.5-1.65-24.86,0-9.33-1.17-18.44-5.79-26.68-1.58-2.82-5.28-5.31-8.63-5-8.08.85-13.92,5.27-17.6,12.49a61.56,61.56,0,0,0-3.07,6.41c-1.15,3.14-1.06-.83.38.46.47.42-1.13-.11-1.13-.25,0,1.38-.6-4.28-.25-3.13a1.52,1.52,0,0,1,.36-.73q1.63-2.42-3.29,1.37c-2.18,1.35-1.54-1.57-.57.88,2.32,5.82,4.79,11.34,4.36,17.81-.32,4.83-2.4,8.59-6.79,10.68-2.48,1.18-5.11,1.25-6.73-1.62-5.36-9.52,3.62-23.4,10.21-29.83,9.22-9-4.93-23.15-14.15-14.15Z" transform="translate(-805.56 -469.32)"/><path class="cls-1" d="M1332.75,534.73c-14.25,2-24.63,14.33-28.15,27.67-3.41,12.91-2.58,29.58,11.16,36,12.66,5.88,27.21.13,34-11.71,7.66-13.42,4.42-28.76.19-42.7-3.27-10.8-19.37-8.74-19.64,2.65a187.28,187.28,0,0,0,1.7,29.84c1.1,8,2.11,16.67,8.52,22.37,7.49,6.67,18.82,5.14,25.85-1.43,6.36-5.94,9-15.24,11.48-23.31,3.91-12.5,11.13-48.18-10.91-48.38-10.36-.1-17.24,9.65-15.1,19.46s11,13.58,18.71,18.28c5.06,3.07,11.39,8,10.68,13.85-.24,2-.65,3.15-2.23,3.66s-4.1.26-5.87.09c-4.08-.38-1.54,0-1.2-.08-2.07.26-1.42-2.34.47,2.3-2-5-6.66-8.54-12.31-7-4.73,1.3-9,7.27-7,12.3,4.4,10.82,15.2,13.35,26,12.44s19.43-8.2,21.5-19.1c2-10.34-1.9-20.28-9.28-27.61a58.63,58.63,0,0,0-12.07-8.92,77.56,77.56,0,0,1-6.79-3.8c-.37-.26-1.25-1.31-1.56-1.33q1.44,1.26-1.35,2.81-1.17,4-5.2,2.3l-3.59-3.59c3.46,4.67.9,15.34-.48,20.84-1,4.14-2.37,8.2-3.78,12.21a47.88,47.88,0,0,1-1.8,4.81c-.31.64-2,2.6-2,3.17,0,.35.18,2,1,1.13,0,0-1-3.64-1-3.83-.49-2.31-.85-4.69-1.15-7a173.15,173.15,0,0,1-1.25-26.45l-19.64,2.66c2.27,7.52,5.54,16.26,3.1,24.14-1.49,4.83-4.91,8.42-9.11,7.08-.93-.3-1.3-.71-1.71-2.53-.81-3.63.33-8.38,1.42-11.84,2.11-6.69,6.72-11.14,13.72-12.1,5.36-.74,8.28-7.59,7-12.3-1.59-5.78-6.93-7.73-12.3-7Z" transform="translate(-805.56 -469.32)"/><path class="cls-1" d="M1383.39,595.12c3.91,8.33,14.92,9.86,22.14,5.12,6.55-4.29,10.53-12.14,13.14-19.27,5.17-14.07,3.82-29.78,2.17-44.36-1.44-12.78-18.66-12.91-20,0a154,154,0,0,0-.66,24.48c.41,7.13.79,14.84,3.28,21.59,2.61,7.08,7.35,13,14.65,15.46a19.34,19.34,0,0,0,20-4.4c9.18-9-5-23.19-14.15-14.14.88-.87.19-.22-.63-1.31-2.09-2.8-2.33-7.28-2.66-10.62a152.81,152.81,0,0,1,.14-31.06h-20c1.05,9.27,2.05,18.73,1.11,28.06a40.76,40.76,0,0,1-2.83,11.71,30.84,30.84,0,0,1-2.44,4.48c.2-.31-1.61,2.1-1.65,2.21-.65.57-.7.68-.13.35q2.71-1.53,5.76,1.61c-2.3-4.89-9.32-6.14-13.68-3.59-5,2.93-5.9,8.78-3.59,13.68Z" transform="translate(-805.56 -469.32)"/><path class="cls-1" d="M1411.19,510.59c12.87,0,12.89-20,0-20s-12.89,20,0,20Z" transform="translate(-805.56 -469.32)"/><path class="cls-1" d="M1187.87,528.28l11.6-3c5.07-1.3,8.63-7.22,7-12.3a10.2,10.2,0,0,0-12.3-7l-11.61,3c-5.07,1.3-8.63,7.22-7,12.3a10.21,10.21,0,0,0,12.31,7Z" transform="translate(-805.56 -469.32)"/><path class="cls-1" d="M1497.39,535.67c-14.76-1.57-29,6.3-37.59,18-8.37,11.33-12.07,30.77-1.27,41.93,11.59,12,31.26,8.19,41.84-3.08,11.63-12.38,12.48-30.4,7.31-45.85-3.53-10.51-19.46-9-19.65,2.66-.28,18-3.71,39.49,14.1,51,8.13,5.23,18.3,5,26.69.48,8.23-4.41,13.53-12.58,16.34-21.26,10.82-33.38-5.94-77.36-43-84.3-40.62-7.61-62.83,35.11-73.87,67.26-6.33,18.43-7.6,38.89,5.43,54.73,11.68,14.19,30.91,21.86,48.75,23.91s34.24-3.25,49.53-12.15c13.7-8,28.87-18.68,36.58-33,6.11-11.33-11.15-21.44-17.27-10.1-4.33,8-12.89,15-21.09,20.55-8.64,5.88-17.83,11.34-27.73,13.81-21.78,5.44-59.42-5.61-59-32.75.19-14,6.69-28.14,13-40.35,5.75-11.23,12.69-24,24.26-30.1,10-5.32,22.17-2.68,31.07,3.66,9.61,6.86,14.78,18.74,16.08,30.21,1,8.58,1.22,32.45-11.66,33.33-4.82.33-7.38-5.23-8.35-9.23-2-8.22.07-17.35.2-25.7L1488.39,552c2.68,8,4.27,17.88-1.12,25.19-2.51,3.4-11.33,9.36-14.65,4-3.12-5.07,1.34-13.73,4.66-17.51a22.75,22.75,0,0,1,20.11-7.94c5.37.58,10-5,10-10,0-5.88-4.61-9.42-10-10Z" transform="translate(-805.56 -469.32)"/><path class="cls-1" d="M1575.42,533.65c-13.84,5.15-24.56,15.32-29.76,29.24-4.84,13-2.45,29.83,10.32,37.32s28.72,0,36.32-11.26c9.49-14.13,4.62-32.16-.54-46.88-4.21-12-22.79-7.24-19.29,5.31a502,502,0,0,1,12.91,59.89c1.44,9.56,2.88,19.29,3.37,29a26.33,26.33,0,0,1-.67,7.81c-.12.58-.6,1.28-.58,1.44.11,1-.75-.19.17-.15a22,22,0,0,1,2.63.24c1,.11-.85,1.72-.44-.33.05-.23,1.44,3.14-.32-.7.4.85-.62-2.18-.58-2-.53-3.06.4-6,1.74-9.51,3-7.93,8.22-14.93,12.17-22.4C1612.08,593.2,1613,574.2,1615,555a42.84,42.84,0,0,1,.7-5,13.12,13.12,0,0,0,.72-2.43c.34,1.44-7.24,3.71-5.82,1.22-.41.72,1.51,6.79,1.79,8.48a137.6,137.6,0,0,1,1,34.88h20l.25-26.67c0-3.19-.22-7.22.13-10a23.26,23.26,0,0,1,.91-3.58,7.08,7.08,0,0,1-2.25,1.19c3.12-.22-2.77-.06-2.19-.79a24.23,24.23,0,0,1,1.72,3.37c1.31,3.65,1.82,7.73,2.43,11.53a138.89,138.89,0,0,1,1.46,25.12h20c-1.27-11.46-2.75-25.11,0-36.42.54-2.19.4-3.8,1.55-1.32,2,4.29,1.65,8.73,1.63,13.42-.06,11.37,2.61,24.74,14.21,29.79,10.11,4.41,23.93-.12,26.41-11.74,2.69-12.55-16.59-17.92-19.28-5.32-.53,2.47.88-.53,1.19-1.12.44-.84-.35.61-.38,0a.59.59,0,0,1,.67.06l-1.07-.28c-.54-1.4,1,1.23.26-.06-2.55-4.17-2-9.24-2-13.92.05-12.55-3.36-26.62-16.82-31-12.86-4.19-23.48,5.24-26,17.51-2.62,13-1.92,27.25-.46,40.39.6,5.37,4.17,10,10,10a10.15,10.15,0,0,0,10-10,161.11,161.11,0,0,0-3.54-37.74c-2.17-10-8.23-21.31-19.88-21.49-12.11-.2-17.61,11.24-18.55,21.65-1.11,12.32-.37,25.05-.49,37.42a10.15,10.15,0,0,0,10,10c5.81,0,9.52-4.6,10-10a158.08,158.08,0,0,0-1.84-41.15c-1.92-11.05-9.28-25.15-23-20.87-12.73,4-13,19.27-14,30.16-1.12,11.78-1.82,24-6.39,35.13-7.68,18.58-28.1,39-15.27,60.24,5.94,9.82,19.88,12.78,28.44,4.38,7.61-7.48,8-18.84,7-28.77a516,516,0,0,0-16.55-89.15l-19.29,5.31c2.94,8.38,8.2,20.51,4,29.33a13,13,0,0,1-5.41,5.45,9.66,9.66,0,0,1-3.25,1.09,3.47,3.47,0,0,1-1.7-.31c-4.44-2.69-2.9-10.56-1.07-14.85a28.34,28.34,0,0,1,15.73-15.15c5.06-1.88,8.51-6.77,7-12.3-1.34-4.87-7.22-8.88-12.3-7Z" transform="translate(-805.56 -469.32)"/><path class="cls-1" d="M1709.17,536.08a44.77,44.77,0,0,0-28.59,26c-4.77,11.64-4.56,26.88,4.93,36.23,11.42,11.25,29.72,5.84,37.37-7,7.79-13,6-30.73,2.78-44.83-2.61-11.27-19.27-8.35-19.64,2.66-.42,12.44-.14,25.25,2,37.53,2.14,12,13.23,20.21,25.18,15.58,21.94-8.5,25.86-40.35,19.58-59.92-3.36-10.5-19.71-9-19.64,2.66.09,13.42.53,28.77,5.08,41.53,4.72,13.21,18,20.13,31.45,15.12,12.5-4.66,19.4-17,24.37-28.65a118,118,0,0,0,9.17-37.86,116.06,116.06,0,0,0-3.53-37.89c-2.84-10.77-8.71-31.9-24.09-27.35-13.37,3.95-14.92,25.08-14.83,36.43.12,14,1.91,28.2,4.24,42q1.95,11.61,4.82,23c1.74,6.9,3.49,14.4,7.63,20.33,8.68,12.41,26.77,15.4,36.1,2,3.09-4.44.81-11.11-3.59-13.69-5-2.91-10.58-.85-13.68,3.59a2.81,2.81,0,0,1,1.56-1.12c-.59.11-1.19,0-.83.18a5,5,0,0,1-1.91-.76c-2.43-2-3.34-6.11-4.16-8.93a272.07,272.07,0,0,1-6.82-30.9,269.09,269.09,0,0,1-3.17-30,87,87,0,0,1,.13-14.07,37.29,37.29,0,0,1,1.29-6.18c.26-.86.7-1.75.88-2.62.55-2.74,2.33-.77-1.19-.24h-5.31c-2.33-.52-1.22-1.48-.83.38a39,39,0,0,0,1.77,4.51,102.82,102.82,0,0,1,3.11,10.27,92.56,92.56,0,0,1,2.63,18.58,99.6,99.6,0,0,1-6.44,39.48c-1.71,4.5-10.34,26-18.41,20.59-3.09-2.08-3.29-10.8-3.77-14a166.11,166.11,0,0,1-1.67-23.79l-19.64,2.66a39.38,39.38,0,0,1,1.62,19c-.9,5.15-2.84,12.43-7.15,15.85.14-.12-2.5,1.88-2.65,1.31-.2-.75,3.47.36,2.88,1.12.27-.36-1.59-10.14-1.65-10.79a213.18,213.18,0,0,1-.57-25l-19.64,2.66c1.89,8.18,3.23,17.83.71,26-1,3.29-5.38,9.44-8.19,5.35-3.09-4.51-1.16-11.54,1.21-16a24.18,24.18,0,0,1,14.37-11.89c12.29-3.72,7-23-5.31-19.29Z" transform="translate(-805.56 -469.32)"/><path class="cls-1" d="M1747.09,496.38v-1.05a10.28,10.28,0,0,0-10-10l-2.66.36a9.85,9.85,0,0,0-4.41,2.57,10.38,10.38,0,0,0-2.93,7.07v1.05a9.68,9.68,0,0,0,6.14,9.14,7.55,7.55,0,0,0,3.86.86l2.66-.36a10,10,0,0,0,4.41-2.57,10.4,10.4,0,0,0,2.93-7.07Z" transform="translate(-805.56 -469.32)"/><path class="cls-1" d="M1843.81,588.9v-1.06a10.31,10.31,0,0,0-10-10l-2.66.36a10,10,0,0,0-4.42,2.57,10.41,10.41,0,0,0-2.92,7.07v1.06a7.41,7.41,0,0,0,.86,3.85,10.31,10.31,0,0,0,9.14,6.15l2.65-.36a10,10,0,0,0,4.42-2.57,10.44,10.44,0,0,0,2.93-7.07Z" transform="translate(-805.56 -469.32)"/><path class="cls-1" d="M1864.88,598.76c7.77-1.23,14.53-8.09,16.27-15.65,1.18-5.08-1.57-11.06-7-12.3-5.1-1.16-11,1.54-12.3,7a13.41,13.41,0,0,1-.43,1.5c-.11,0,1.24-2.51.23-.75s.53-.53.53-.53-1,1.07-1.06,1.14c-1.15,1.17,1.59-1,.59-.44-.37.22-.75.44-1.11.67-.7.33-.62.31.25-.08s1-.41.22-.16c-.52.09-1,.24-1.53.33-2.32.36-4.84,2.66-6,4.59a10.23,10.23,0,0,0-1,7.71,10.09,10.09,0,0,0,4.59,6,11.47,11.47,0,0,0,7.71,1Z" transform="translate(-805.56 -469.32)"/><path class="cls-1" d="M1880.51,530.41c-13.36,15.33-25.45,36.84-13.92,56.88,9.91,17.24,33.81,19.46,48.22,6.88,4.07-3.55,3.64-10.5,0-14.14-4-4-10.06-3.56-14.14,0-5.48,4.78-15,2.45-17.67-4.64-4.31-11.25,4.74-22.91,11.65-30.83,3.55-4.07,4-10.14,0-14.15-3.62-3.62-10.58-4.08-14.14,0Z" transform="translate(-805.56 -469.32)"/><path class="cls-1" d="M1920.13,530.7c-17.94,13.13-30.14,39.43-19,60.83,5.52,10.56,17.68,17.3,29.54,14.08,12.23-3.33,19.72-14.78,21.53-26.77,1.7-11.22.9-24.23-6.06-33.63s-20.38-13.6-30.61-7.06c-9.72,6.21-11.14,19.69-5.4,29.08s17.86,12.21,27.81,8.25A27.4,27.4,0,0,0,1951.56,564c1.75-3,2.49-6.4,4.1-9.42-2.61,4.9,1-2,1-1.65-.07-.63-4.31-1.23-4.16-1.38,0,0,.35,3.25.38,4.32.11,3.63.17,7.27.21,10.9q.17,11.91,0,23.81h20a154.29,154.29,0,0,1-1.19-23.14,112,112,0,0,1,.75-11.57,28.48,28.48,0,0,0,.58-3.24c-.33-2.39,1-.72-2.11.39a1.24,1.24,0,0,1-1.46-.35.64.64,0,0,1,.39.35s.92,3.22,1,3.47a102.69,102.69,0,0,1,.61,10.38l1.35,24.94c.69,12.79,20.63,12.9,20,0-.6-12.09-2.23-24.63-1.69-36.72,0-.33.7-3.91.72-3.84.13.39,1,1-1.68.06-1.08-.38-1.48-1.51-1.93-.65-.66,1.26,1.2,6.51,1.35,8.29a80.2,80.2,0,0,1,.09,10.4c-.64,11.72-.09,24.61,11.33,31.24s26.41-1.49,26.53-14.72c.13-12.87-19.87-12.88-20,0,0-2.93,2.77-2.1,3-2.88.15-.55-1-2.54-1.14-3.27-.89-5.46.57-11.44.42-17-.33-11.74-2-29.51-16.81-31.11-13.43-1.45-21.26,10.67-21.82,22.66-.57,12.36,1,25.14,1.66,37.5h20c-.63-11.67-.87-23.44-1.93-35.08-1-11.06-7-23.63-19.92-23.61-12.59,0-17.12,11.11-18.35,21.79a150.93,150.93,0,0,0,.33,35.67c.67,5.36,4.12,10,10,10a10.13,10.13,0,0,0,10-10q.24-14.88,0-29.76c-.17-8,0-17.17-6.15-23.2-7-6.84-17.83-5.33-24.39,1.23-3.15,3.14-4.85,7.11-6.48,11.16-1,2.44-1.76,4.8-4,6.26a7.74,7.74,0,0,1-3.94,1.12c-1.24-.32-1.34-1.48-1.34-2.34,0-.44.06-.85.22-.81-.1,0-.16.64-.06.67a6.38,6.38,0,0,1,4.2,3.65c2.75,5.63,2.55,13.75,1,19.68-1.13,4.22-5.27,10.42-10.21,7.33-6-3.79-5.2-13.63-3.62-19.53a33.14,33.14,0,0,1,12-18.08c4.35-3.18,6.51-8.68,3.59-13.68-2.51-4.29-9.3-6.79-13.69-3.59Z" transform="translate(-805.56 -469.32)"/><path class="cls-2" d="M818.38,597.72c14.58-8.33,23.34-25.42,29.26-40.51,6.19-15.82,10.11-34.88,7.5-51.86-1.11-7.19-4.58-15.14-11.6-18.29-7.53-3.37-15.7,1.09-19.18,8.08-4,8-3.2,18.52-3.47,27.25q-.48,15.06,0,30.11c.29,9.38.26,19.18,2,28.42,1.38,7.36,5.57,13.8,12.49,17a21,21,0,0,0,20.55-1.46,22.7,22.7,0,0,0,7-7.53,21.15,21.15,0,0,0,1.85-4.48c.46-1.55.17-5.15,1.07-6.44,1.2-1.7,6.93-2.81,8.89-3.7a31.7,31.7,0,0,0,10.49-7.22c4.92-5.46,7.36-13.74,4.14-20.66-3-6.4-10-9.51-16.79-8.75-7.44.83-13.38,6.06-16.83,12.51-7.52,14.1-5.46,33.88,7.79,43.9,12.05,9.1,31.19,6.38,38.89-7,3.7-6.42-6.23-12.22-9.93-5.8-4.11,7.13-14.4,8.61-21.14,4.28-8.08-5.18-9.94-16.44-7.46-25.11,1.23-4.26,3.86-9.6,8.4-11.07,4.81-1.55,8.21,1.74,6.54,6.55-3.69,10.58-19.48,7.64-23.58,17.65-1.94,4.74-.57,9.47-5.19,12.94a9.74,9.74,0,0,1-12.24-.53c-4.37-3.77-4.22-10.77-4.57-16q-.69-10.19-.94-20.38c-.35-13.86-.21-27.8.76-41.63.23-3.23,2.13-14.49,7.42-9.09,4,4.1,3.87,11.68,3.78,16.94a109.54,109.54,0,0,1-8.36,40c-4.85,11.7-12,25.52-23.33,32-6.42,3.68-.63,13.62,5.81,9.93Z" transform="translate(-805.56 -469.32)"/><path class="cls-2" d="M922.71,540.72c-23.3,1.41-39.51,39.85-16.62,53.24,9.91,5.8,21.08.78,26.17-8.8,6-11.29,6-25.46,2.89-37.57-1.58-6.11-11.91-5.06-11.3,1.53,1.28,13.71-3.73,30.71,4.35,43,6.2,9.45,22.27,10.64,25.79-1.84,2-7.14-9.08-10.18-11.09-3.06-.54,1.94-3.39.58-4.35-.37-2.68-2.66-3-7.64-3.21-11.14-.49-8.88.84-17.73,0-26.6l-11.29,1.53A46.3,46.3,0,0,1,924.3,574c-1.3,5-4.78,12.92-11.28,10.59-14.89-5.34-2.21-31.65,9.69-32.37,7.36-.44,7.41-12,0-11.5Z" transform="translate(-805.56 -469.32)"/><path class="cls-2" d="M960.76,590.4a6,6,0,0,0,.89,7.27,6.44,6.44,0,0,0,9.86-1.3,5.93,5.93,0,0,0,.61-4.55,5.2,5.2,0,0,0-.61-1.46,6.38,6.38,0,0,0-1-1.25,4.31,4.31,0,0,0-1.85-1.19,4.36,4.36,0,0,0-2.22-.5,5.87,5.87,0,0,0-4.07,1.69,5.78,5.78,0,0,0-1.68,4.06,5.61,5.61,0,0,0,1.68,4.07.29.29,0,0,1,.1.09l-.89-1.16,0,0-.58-1.37,0,0-.21-1.53v0l.21-1.52,0,0,.58-1.37,0,0,.9-1.17-.07.07,1.16-.9-.1.06,1.37-.58a1.05,1.05,0,0,1-.24.06l1.52-.2h-.25l1.53.21-.1,0,1.37.58,0,0,1.17.9,0,0,.9,1.16,0,0,.58,1.37,0,0,.21,1.52v0L971.2,595a.35.35,0,0,1,0-.11l-.58,1.37,0-.06a5.76,5.76,0,0,0-2.06-7.87,5.82,5.82,0,0,0-4.43-.58,6.07,6.07,0,0,0-3.44,2.65Z" transform="translate(-805.56 -469.32)"/><path class="cls-2" d="M988.06,599c8.27-3.07,13.19-10.74,17.26-18.21a99.43,99.43,0,0,0,9.69-26.52,144.35,144.35,0,0,0,3.11-27.79c.18-9,.78-19.77-2.46-28.29-2.81-7.35-10.63-13-18.65-10.25-9.25,3.17-9.25,14.87-9.76,22.89A237.47,237.47,0,0,0,992,575c2,9.45,7.08,19.37,16.9,22.59,9,3,19.51-1.86,21.77-11.4,1.7-7.19-9.39-10.26-11.09-3.05-.83,3.5-4.42,4.63-7.62,3.37s-5.48-4.51-6.8-7.53c-3.69-8.41-4.17-18.86-5.18-27.9-.62-5.66-4.13-52.94,1.87-52.27s4.74,18.06,4.79,21.82a142,142,0,0,1-1.63,24.89,97.81,97.81,0,0,1-6.75,23.61,78.27,78.27,0,0,1-5.34,10c-1.94,3.1-4.29,7.37-7.92,8.71-6.88,2.56-3.9,13.68,3.06,11.09Z" transform="translate(-805.56 -469.32)"/><path class="cls-2" d="M1038.5,541.25c-7.65,5.51-14.42,11.44-16.77,21-2,8.07-1.6,17.45,2.08,25,7.75,15.89,29,12.7,36.47-1.72,4.36-8.41,3.56-18.32,1.13-27.18-2.27-8.28-5.83-18.46-15-21.11-7.94-2.29-15.79,3-18,10.76a19.63,19.63,0,0,0,6.16,20c6.92,5.76,17.18,5.81,24.85,1.52,8.8-4.92,13-14.74,13.55-24.4h-11.5c.3,11.34.93,22.67,2,34,.39,4.3.56,9.12,3.87,12.33s8.14,3.47,12.26,2.62c8-1.68,13.86-8.62,16.7-16,3.78-9.81,1.66-20.7,2.07-30.91h-11.5l1.05,19.48c.31,5.87.22,12.07,1.75,17.8,3.12,11.63,13,17.13,24.41,13.65,7.06-2.16,4-13.26-3-11.09-4,1.21-6.88,1.26-9.12-2.6-1.91-3.3-1.93-7.58-2.14-11.27-.51-8.66-.94-17.32-1.4-26-.4-7.37-11.21-7.43-11.5,0-.4,9.95,4.1,30.49-8.47,35.25-3.43,1.3-3,.83-3.34-2.35-.44-3.86-.68-7.75-1-11.63-.55-7.75-.9-15.52-1.1-23.3-.19-7.45-11-7.35-11.5,0-.36,5.8-2.9,12.19-8.47,14.81-4.13,1.95-10.09,1.69-12.64-2.59-1.83-3.09-1.08-11.78,4.17-8.32,4.66,3.07,6.46,13.64,7.12,18.69.79,6,0,12.66-5.06,16.64-3.94,3.08-9,3.29-11.89-1.11s-3.12-11.16-2.23-16.28c1.27-7.3,6.08-11.56,11.82-15.7,6-4.29.22-14.27-5.8-9.93Z" transform="translate(-805.56 -469.32)"/><path class="cls-2" d="M1132.07,594.81a9.13,9.13,0,0,0,1.1,1.38,6.88,6.88,0,0,0,2.71,1.56,7,7,0,0,0,3.63,0,7.59,7.59,0,0,0,1.47-.61l.18-.09a6.9,6.9,0,0,0,1.38-1.09,6.51,6.51,0,0,0,1.83-4.56,6.61,6.61,0,0,0-4.91-6.2,7.38,7.38,0,0,0-1.82-.23,11.07,11.07,0,0,0-1.62.22l-.18,0a6.52,6.52,0,0,0-3.8,3,6,6,0,0,0-.58,4.44,5.89,5.89,0,0,0,2.64,3.43,5.78,5.78,0,0,0,4.43.58A6,6,0,0,0,1142,594l0-.08-.9,1.16a.53.53,0,0,1,.12-.14l-1.16.9.15-.09-1.37.58a.84.84,0,0,1,.26-.07l-1.52.2h.28l-1.53-.2a1.47,1.47,0,0,1,.28.08l-1.38-.58.16.09-1.16-.89a.86.86,0,0,1,.19.19l-.9-1.17a.56.56,0,0,1,.09.17l-.58-1.38,0,.09-.21-1.53a.45.45,0,0,1,0,.2l.21-1.53a1.33,1.33,0,0,1,0,.19l.58-1.38a.86.86,0,0,1-.1.16l.9-1.16a.86.86,0,0,1-.14.13l1.17-.89a1.65,1.65,0,0,1-.26.14l1.37-.58a1,1,0,0,1-.29.07l1.53-.2h-.2l1.53.21a1.2,1.2,0,0,1-.27-.08l1.37.58-.08,0,1.16.89a.53.53,0,0,1-.14-.12l.9,1.16L1142,589a6.1,6.1,0,0,0-3.44-2.64,5.73,5.73,0,0,0-7.07,4,5.66,5.66,0,0,0,.58,4.43Z" transform="translate(-805.56 -469.32)"/><path class="cls-2" d="M1163.74,597.56c15.2-5.45,18.55-23.84,20.61-37.94,2.68-18.47,1.94-37.1,1.07-55.67-.35-7.35-11.54-7.45-11.5,0q.15,33.34.32,66.69c0,8.5.14,17.76,8.66,22.31s17.73,1,25.53-3.31c6.47-3.59.68-13.53-5.81-9.93-4.57,2.53-14.81,7.69-16.64-.59-.78-3.57-.24-7.81-.26-11.42l-.06-12.75-.24-51h-11.5c.73,15.56,1.47,31.21,0,46.75a119.73,119.73,0,0,1-4.1,22.23c-1.47,5-3.71,11.6-9.14,13.54-6.92,2.48-3.94,13.6,3.06,11.09Z" transform="translate(-805.56 -469.32)"/><path class="cls-2" d="M1217,536c-11.25,11-20.15,29.37-14.37,45.17,5.68,15.5,23.83,17.36,35.47,7.25,12.91-11.22,11.06-34.09,1.91-47.16-4.35-6.21-12.38-10.68-19.25-5.31-6,4.72-7.54,14.18-4.84,21,3,7.72,11.87,12.48,20,10,4.27-1.3,7.46-4.53,9.62-8.33,1.4-2.44,3.35-10,6.73-10.32l-5-2.85c4,7.23,3.73,15.49,3.56,23.53s-.21,16.38,2.3,24.25c2.3,7.23,12.14,4.11,11.09-3a77.67,77.67,0,0,1-.08-22.22,80.43,80.43,0,0,1,2.32-10.62c.51-1.73,1-3.48,1.69-5.17a12.26,12.26,0,0,1,1.23-2.83c-1.11-.94-1.39-1.06-.86-.36,1.48,2.45,1.58,5.57,1.91,8.33q.69,5.67,1.3,11.36,1.27,11.84,2.25,23.71c.61,7.35,11,7.44,11.5,0,.86-13.18-7.64-36.91,6.47-45.84l-7-.9a31.12,31.12,0,0,1,7.31,18.62c.45,7.49-2.39,15.12,0,22.45,1.8,5.53,6.28,10.46,12.39,10.77,5.67.28,11.62-3.42,12.46-9.32,1-7.24-10-10.37-11.09-3.06-.14,1-.46,1.5-1.57.39-1.38-1.39-1.62-3.54-1.68-5.39-.19-5.57,1.36-11,1-16.62a43.85,43.85,0,0,0-10.63-26,5.79,5.79,0,0,0-7-.9c-19.89,12.57-10.93,36.77-12.17,55.77h11.5q-1.45-17.56-3.55-35.07c-.94-7.77-2.55-20.06-13-19.92-10.29.13-13.21,14.39-14.9,22.16a93.26,93.26,0,0,0-.91,33.68l11.09-3c-5.3-16.62,1.91-34.6-7-50.53a5.63,5.63,0,0,0-5-2.85c-6.56.69-11,4.61-13.93,10.39-1.85,3.65-4.5,12.13-10.07,7.8-2.26-1.76-2.58-5-1.77-7.59.93-3,1.77-2.63,3.61-.36,4.19,5.19,6,14.35,5.6,20.82-.39,6.1-3.16,11.71-8.89,14.35-4.64,2.13-9.84,1.59-12.55-3.15-6.48-11.34,2.87-27.17,10.87-35,5.31-5.18-2.83-13.31-8.13-8.13Z" transform="translate(-805.56 -469.32)"/><path class="cls-2" d="M1333.88,538.83c-12.87,1.77-22,12.63-25.18,24.7-2.91,11-2.81,25.78,9.21,31.17,10.62,4.76,22.56-.41,28.15-10.19,7.06-12.37,3.64-26.64-.24-39.42-1.88-6.21-11.14-5-11.29,1.52a183.66,183.66,0,0,0,1.55,28.71c1,7,1.6,15.55,7.42,20.5s14.43,3.52,19.84-1.43c5.83-5.34,8.11-14.15,10.39-21.44,2.64-8.45,4.62-17.48,4-26.39-.48-6.82-2.09-16.49-10.81-16.61-7.49-.11-12.58,6.94-11,14.08,1.9,8.59,10,11.64,16.76,15.74,6.31,3.83,13.75,9.81,12.71,18.09-.42,3.29-2,6.2-5.28,7.19-1.25.37-11.08,1.19-11.83-.66-2.76-6.77-13.88-3.81-11.09,3.05,4.52,11.13,22.58,12.32,31.57,6.07,9.4-6.54,10.2-20.37,4.73-29.65-3.28-5.54-8.31-9.76-13.67-13.19-2.86-1.83-5.94-3.25-8.82-5a15,15,0,0,1-3.47-3.16c-.42-.45-.35-.72-.75-1.08-1.61-1.42-1.17-.71-1.24.48-.2,3.52.93,7.26.7,10.92a61.77,61.77,0,0,1-2.08,11.82c-1.65,6.32-3.38,14.69-7.42,20-6.57,8.62-8.51-4.87-9.17-9.47a172.36,172.36,0,0,1-1.54-28.54l-11.3,1.53c2.54,8.38,5.67,17.65,3.11,26.4-1.81,6.21-7.25,12.34-14.34,10.05-7.52-2.44-5-14.07-3.26-19.6,2.52-8,8.25-13.91,16.69-15.07,7.3-1,4.2-12.09-3-11.09Z" transform="translate(-805.56 -469.32)"/><path class="cls-2" d="M1387.06,593c3,6.33,10.9,7.12,16.33,3.59s9-10.73,11.19-16.73c5-13.73,3.62-29,2-43.23-.83-7.35-10.73-7.42-11.5,0a154,154,0,0,0-.66,24.48c.38,6.75.74,14.07,3.13,20.46,4.1,11,17.83,18.78,27.57,9.18,5.28-5.2-2.85-13.33-8.13-8.13-2.33,2.29-5.83,0-7.31-2.17-2.42-3.59-2.82-8.59-3.24-12.76a152.81,152.81,0,0,1,.14-31.06h-11.5c1.05,9.29,2,18.71,1.11,28.06a46.07,46.07,0,0,1-3,12.84,33.32,33.32,0,0,1-2.87,5.49,15.84,15.84,0,0,1-2.32,3.08,2.89,2.89,0,0,1-1.07.89c-.76.4-.75.47,0,.2-3.15-6.69-13.06-.86-9.93,5.81Z" transform="translate(-805.56 -469.32)"/><path class="cls-2" d="M1411.19,506.34c7.4,0,7.41-11.5,0-11.5s-7.41,11.5,0,11.5Z" transform="translate(-805.56 -469.32)"/><path class="cls-2" d="M1186.74,524.18l11.6-3c7.16-1.85,4.13-12.94-3-11.09l-11.61,3c-7.16,1.85-4.13,12.94,3.06,11.09Z" transform="translate(-805.56 -469.32)"/><path class="cls-2" d="M1497.39,539.92c-13.23-1.41-26.11,5.35-33.92,15.85-7.26,9.79-11.31,26.87-1.93,36.78,9.88,10.45,26.91,6.42,35.83-3.08,10.59-11.28,10.89-27.73,6.21-41.71-2-6-11.19-5.15-11.3,1.53-.25,16.33-4.11,36.66,12,47.29,15.4,10.16,32-3.45,36.79-18.24,10.12-31.24-5.15-72.66-40-79.07-37.89-7-58.46,34.63-68.65,64.29-5.78,16.85-7.61,36,4.35,50.59,10.89,13.34,29,20.72,45.74,22.67,17.18,2,32.7-3,47.38-11.57,13.09-7.62,27.69-17.78,35.06-31.44,3.51-6.51-6.41-12.32-9.93-5.8-5,9.22-14.11,16.28-22.62,22.07-8.73,5.94-18.4,11.66-28.74,14.24-24.5,6.11-64.84-6.75-64.41-36.85.2-14.72,6.93-29.62,13.53-42.49,6.1-11.93,13.56-25.08,25.79-31.63,11.35-6.09,25.13-3.49,35.35,3.66,10.93,7.65,16.83,20.9,18.19,33.88,1.21,11.59.3,36.56-15.91,37.58-6.85.43-11-6.53-12.45-12.35-2.14-8.65-.09-18,0-26.83l-11.29,1.53c3.11,9.28,4.39,20.55-1.89,28.9-4.16,5.54-17,12.33-21.65,3.55-3.82-7.16.44-17.19,5.33-22.66a26.75,26.75,0,0,1,23.11-9.19c7.35.79,7.29-10.72,0-11.5Z" transform="translate(-805.56 -469.32)"/><path class="cls-2" d="M1576.55,537.75A44.87,44.87,0,0,0,1549.76,564c-4.16,11.05-2.84,26.1,8.36,32.52,10.8,6.19,24.09-.31,30.51-9.73,8.89-13.06,3.78-30.06-1-43.61-2.42-6.91-13.1-4.16-11.09,3a500,500,0,0,1,12.9,59.89c.54,3.52,7.6,45.55-1.32,43.09-2.14-.59-3.07-4.27-3.37-6.1-.62-3.86.48-7.61,1.82-11.21,3.09-8.31,8.48-15.61,12.6-23.41,8.83-16.74,9.59-35.1,11.57-53.53a51.25,51.25,0,0,1,.85-6.16c.14-.6,1.39-3.79,1.15-3.75,2.2-.39,3.57,10,3.74,11a141.89,141.89,0,0,1,1.12,36h11.5l.25-26.67c0-2.24-1.22-16.56,3-16.65s5.73,15.16,6.06,17.23a145.92,145.92,0,0,1,1.61,26.25h11.5c-1.31-11.86-2.72-25.82.19-37.55,1.22-4.9,4.63-7.74,8.65-3.2,3.76,4.25,2.9,11.2,2.88,16.43,0,9.58,1.71,21.51,11.6,25.91,7.88,3.51,18.74.07,20.67-9,1.55-7.22-9.54-10.3-11.09-3.06-.76,3.57-5.59,1.67-7.09-.37-3.25-4.4-2.59-10.94-2.57-16.06,0-10.65-2.24-22.92-13.7-26.91-10.66-3.71-18.76,4.63-20.73,14.54-2.51,12.67-1.72,26.51-.31,39.26.8,7.19,11.33,7.58,11.5,0a155.78,155.78,0,0,0-3.39-36.61c-1.73-7.95-6.18-18.23-15.78-18.37s-13.53,9.28-14.3,17.4c-1.17,12.3-.37,25.06-.49,37.42-.07,7.51,10.86,7.26,11.5,0a153.76,153.76,0,0,0-1.69-40c-1.5-8.62-6.47-21.4-17.77-17.91-10.33,3.19-10.11,17.49-10.92,26.07-1.15,12.2-1.94,24.75-6.55,36.26-6.78,17-27.64,37.62-15.69,57,4.63,7.5,15.06,10,21.76,3.52s6.62-17.1,5.79-25.76a509.16,509.16,0,0,0-16.4-88l-11.09,3c3.32,9.47,8.17,21.65,4,31.59-2.37,5.6-10.25,12.18-16.6,8.77-6.89-3.69-5.31-14.31-2.81-20.16a32.73,32.73,0,0,1,18.48-17.61c6.88-2.56,3.9-13.68-3-11.09Z" transform="translate(-805.56 -469.32)"/><path class="cls-2" d="M1710.3,540.18a40.39,40.39,0,0,0-25.62,23c-4.28,10.19-4.56,23.79,3.83,32.09,9.48,9.38,24.41,4.29,30.7-6.09,7.24-11.93,5.34-28.63,2.35-41.55-1.5-6.48-11.08-4.8-11.29,1.53-.44,13-3.42,59.24,21.84,49,9.25-3.75,14.36-13.41,17.07-22.5a54.68,54.68,0,0,0-.45-32.19c-1.94-6-11.34-5.15-11.3,1.53.08,13,.45,28,4.93,40.4,4,11.12,15,16.37,26.22,12.15s17.41-16.26,21.83-26.69a112.89,112.89,0,0,0,5.21-72.48c-2.08-7.9-6.74-28.13-18.86-24.38-5.41,1.67-7.76,8.05-9.31,12.91-2,6.21-2.45,12.94-2.4,19.42a262.42,262.42,0,0,0,4.08,40.9q2,11.61,4.83,23c1.66,6.58,3.26,13.65,7.2,19.31,6.76,9.73,21.37,12.63,28.76,2,4.24-6.09-5.72-11.84-9.93-5.8-1.48,2.12-5.21,1.1-7-.11-3.39-2.31-4.82-7.11-5.92-10.81a256.49,256.49,0,0,1-6.56-28.84,284.43,284.43,0,0,1-3.65-31.2c-.53-8.73-1-18.09,2.18-26.4-.14.34,1.41-3.11,1.42-3.09l-2.07-.24.63,1c.34,1.84,1.84,4.12,2.5,5.9a100.17,100.17,0,0,1,6.14,39.85c-.73,16.57-5.36,37-16.49,49.9-2.78,3.23-6.58,6.07-11.07,5.83s-6.45-4-7.52-7.91c-3-11.12-3.61-23.2-3.68-34.66l-11.29,1.53a43.68,43.68,0,0,1,1.62,21.28c-1.16,6.34-3.67,14.38-9.1,18.39-2.16,1.59-4.46,2.63-6-.11-1.75-3.08-1.51-8.55-1.8-11.92a213.18,213.18,0,0,1-.57-25l-11.3,1.53c2.06,8.88,3.44,19.37.72,28.29-2,6.35-10.73,14.72-16,6.37-8.28-13.23,5.76-30.38,18.12-34.12,7.07-2.14,4.06-13.24-3-11.09Z" transform="translate(-805.56 -469.32)"/><path class="cls-2" d="M1742.84,496.38v-1.05a5.94,5.94,0,0,0-1.69-4.07,5.76,5.76,0,0,0-8.13,0,6,6,0,0,0-1.68,4.07v1.05a5.93,5.93,0,0,0,1.68,4.07,5.76,5.76,0,0,0,8.13,0,6,6,0,0,0,1.69-4.07Z" transform="translate(-805.56 -469.32)"/><path class="cls-2" d="M1839.56,588.9v-1.06a5.94,5.94,0,0,0-1.69-4.06,5.73,5.73,0,0,0-8.13,0,6,6,0,0,0-1.68,4.06v1.06a5.93,5.93,0,0,0,1.68,4.06,5.73,5.73,0,0,0,8.13,0,6,6,0,0,0,1.69-4.06Z" transform="translate(-805.56 -469.32)"/><path class="cls-2" d="M1863.75,594.66a16.91,16.91,0,0,0,13.3-12.68c.68-2.92-.9-6.36-4-7.07-2.94-.67-6.35.88-7.08,4a11.55,11.55,0,0,1-.42,1.5c.27-.78,0-.12-.2.26s-.64,1-.13.33c-.33.42-.71.76-1.07,1.14-.7.73.24-.09-.26.23s-.74.46-1.12.67c-1.21.67.81-.12-.55.19-.5.12-1,.24-1.52.32-3,.48-4.9,4.35-4,7.08,1,3.23,3.88,4.52,7.08,4Z" transform="translate(-805.56 -469.32)"/><path class="cls-2" d="M1883.51,533.42c-12,13.82-23.73,33.51-13.26,51.72,8.49,14.76,29.16,16.84,41.55,6,5.59-4.88-2.57-13-8.13-8.14-8,7-21.24,3.42-24.77-6.51-4.6-13,4.69-25.73,12.74-35,4.85-5.56-3.25-13.72-8.13-8.13Z" transform="translate(-805.56 -469.32)"/><path class="cls-2" d="M1922.28,534.37c-16.09,11.78-27.34,35.76-17.45,55,4.58,8.91,14.7,14.83,24.74,12.12,10.84-2.94,17-13.28,18.57-23.8,1.46-10,.76-22.05-5.64-30.35-5.67-7.34-16.57-10.84-24.8-5.54-7.71,5-8.44,15.94-3.87,23.27,4.88,7.82,14.86,9.68,23,6.29a23,23,0,0,0,11.05-9.51c1.08-1.84,5.28-15.33,8.31-12.46,1.26,1.19.91,4.94,1,6.47.11,3.63.17,7.27.21,10.9q.17,11.91,0,23.81h11.5a154.29,154.29,0,0,1-1.19-23.14c.08-3-.54-18.1,3.47-18.52,5.33-.55,4.6,15.27,4.74,18l1.35,24.94c.4,7.35,11.86,7.41,11.5,0-.6-12.14-2.06-24.57-1.69-36.72.07-2.22.19-5.23,2-6.85,2-1.81,2.83-.79,3.49,1.29,1.94,6.2,1.93,13.41,1.59,19.82-.55,10-.81,21.89,9.23,27.57,8.62,4.88,20-.95,20.13-11,.08-7.4-11.42-7.41-11.5,0,0,1.77-2.4,1.37-3.42.79-1.83-1-2.75-3.93-3.09-5.81-1.06-5.86.42-12.17.26-18.09-.26-9.35-1-25.63-13.13-26.94-10.78-1.15-16.57,9.14-17,18.49-.57,12.36,1,25.14,1.66,37.5h11.5c-.63-11.67-.86-23.44-1.93-35.08-.82-8.87-5.23-19.19-15.67-19.36-10-.16-13.15,9.32-14.1,17.54a150.93,150.93,0,0,0,.33,35.67c.89,7.13,11.38,7.62,11.5,0q.24-14.88,0-29.76c-.14-6.73.34-15.06-4.91-20.2s-13.46-3.68-18.38,1.23c-5.16,5.16-5,14.17-11.36,18.09-4.73,2.9-11.73,1.75-11.68-4.89.06-8.16,10.13-2.82,12.28,1.37,3.33,6.5,3.32,16,1.39,23s-8.87,14.53-16.45,9.87c-7.9-4.85-7.68-16.47-5.58-24.33a37.78,37.78,0,0,1,14-20.62c5.92-4.32.18-14.31-5.8-9.93Z" transform="translate(-805.56 -469.32)"/></svg>