<svg id="Calque_1" data-name="Calque 1" xmlns="http://www.w3.org/2000/svg" viewBox="0 0 430.75 686.55"><defs><style>.cls-1{fill:#d2bc94;}.cls-2{fill:#1d1d1b;}.cls-3{opacity:0.64;}.cls-4{fill:#9f9072;}.cls-5{fill:#683c11;}.cls-6{opacity:0.51;}.cls-7{fill:#432918;}.cls-11,.cls-8{fill:#2b2a58;}.cls-8{stroke:#1d1d1b;stroke-miterlimit:10;stroke-width:1.5px;}.cls-9{opacity:0.39;}.cls-10{fill:#150f2b;}</style></defs><title>montre</title><path class="cls-1" d="M1617.4,555.34a15.72,15.72,0,0,1,4.27-.36,14.11,14.11,0,0,0-1.15-6.18,48,48,0,0,0,19.08-3.18c2.81-1.09,6.65-2.15,8.28.37a6.15,6.15,0,0,1,.73,2.87q1.82,20.1,3.62,40.18c.21,2.33.27,5-1.49,6.57-1.34,1.16-3.3,1.21-5.07,1.15a96.85,96.85,0,0,1-15.55-1.8c-3.13-.62-6.83-2-7.37-5.15-.36-2.14.94-4.53-.13-6.42l-5,1c-1.16-9.54-1.91-19.14-2.25-28.74" transform="translate(-1222.54 -223.27)"/><path class="cls-2" d="M1617.6,556.06a15.45,15.45,0,0,1,4.07-.33.77.77,0,0,0,.75-.75,17.23,17.23,0,0,0-1.18-6.38l-.72.95a51,51,0,0,0,12-1c3.83-.81,7.8-3.16,11.71-3.31,4.86-.18,4.38,11.37,4.69,14.82l1.27,14.14q.6,6.71,1.21,13.4c.26,3,.73,6.57-2.66,8.25-1.66.82-4.81.14-6.58,0-4.51-.32-9.36-.68-13.71-2.05-3.71-1.18-5-3.17-4.73-7.06a7.61,7.61,0,0,0-.33-3.52.77.77,0,0,0-.92-.53l-5,1,1,.72q-1.71-14.32-2.25-28.74c0-1-1.54-1-1.5,0q.54,14.42,2.25,28.74a.76.76,0,0,0,.95.72l5-1-.92-.53c.87,2.44-.54,4.92.38,7.33a6.44,6.44,0,0,0,2.81,3.07c4.16,2.52,10.16,2.73,14.89,3.17,3.5.32,9.39,1.62,11.94-1.74s.74-9.95.39-13.81l-1.81-20.09-.87-9.67c-.17-1.9,0-4.51-1.1-6.22-1.84-2.8-5.61-1.94-8.26-1-6.55,2.22-12.76,3.65-19.75,3.48a.75.75,0,0,0-.72,1c.44,1.17,1.8,4.09.78,5-.57.49-2.59.52-3.38.65-1,.17-.55,1.62.4,1.45Z" transform="translate(-1222.54 -223.27)"/><g class="cls-3"><path class="cls-4" d="M1621.62,549.66c4.86,12.74,12.53,25.05,24.32,31.91a13.4,13.4,0,0,1,3.81,2.75c2.06,2.48,1.69,6.1,1.22,9.3a27.56,27.56,0,0,1-22.88-.24,7.08,7.08,0,0,1-3.17-2.5c-.82-1.37-.75-3.07-1-4.64s-1.19-3.31-2.78-3.48a7,7,0,0,1-1.95-.12c-.88-.38-1.1-1.5-1.19-2.45q-1-10.31-1.15-20.65a4.25,4.25,0,0,1,.45-2.4c1.29-2,5.51-1.65,5.39-4l.63,1.43" transform="translate(-1222.54 -223.27)"/><path class="cls-4" d="M1620.89,549.86c3.37,8.68,7.8,17,14.19,23.89a48.86,48.86,0,0,0,10.48,8.47c3.25,2,5.79,4.51,5,8.67-.74,3.74-6.09,4.13-9.16,4.3a27.14,27.14,0,0,1-8.42-.83,20.88,20.88,0,0,1-4.48-1.63c-2.87-1.54-3.09-2.77-3.74-5.89-.29-1.36-.46-2.71-1.49-3.76s-3.55-.93-4.38-2.12c-.66-.94-.42-3.88-.52-5.19q-.21-2.58-.36-5.16a69.91,69.91,0,0,1-.37-9.59c.18-2.19.34-3.68,2.36-4.76.5-.26,1.1-.36,1.6-.63a2.9,2.9,0,0,0,1.83-2.31l-1.37.17.62,1.43c.38.89,1.68.12,1.29-.75l-.62-1.43a.75.75,0,0,0-1.37.18c-.26,1.86-4.16,2.19-5.2,3.68-1.34,1.93-.63,5.21-.57,7.37q.19,5.91.66,11.8c.14,1.75-.18,5.33,1.12,6.81,1,1.14.71.3,2,.91,3.24,1.58,2.82,1.83,3.52,5.15a6.67,6.67,0,0,0,2.32,4.24c4,3.24,10.62,4.09,15.6,3.81a26.49,26.49,0,0,0,8.65-1.87c1.94-.79,1.8-1.32,2-3.38.43-5.18-1.32-7.87-5.67-10.52-11.75-7.15-19.09-18.88-24-31.46-.35-.89-1.8-.5-1.45.4Z" transform="translate(-1222.54 -223.27)"/></g><path class="cls-2" d="M1617.6,556.06a15.45,15.45,0,0,1,4.07-.33.77.77,0,0,0,.75-.75,17.23,17.23,0,0,0-1.18-6.38l-.72.95a51,51,0,0,0,12-1c3.83-.81,7.8-3.16,11.71-3.31,4.86-.18,4.38,11.37,4.69,14.82l1.27,14.14q.6,6.71,1.21,13.4c.26,3,.73,6.57-2.66,8.25-1.66.82-4.81.14-6.58,0-4.51-.32-9.36-.68-13.71-2.05-3.71-1.18-5-3.17-4.73-7.06a7.61,7.61,0,0,0-.33-3.52.77.77,0,0,0-.92-.53l-5,1,1,.72q-1.71-14.32-2.25-28.74c0-1-1.54-1-1.5,0q.54,14.42,2.25,28.74a.76.76,0,0,0,.95.72l5-1-.92-.53c.87,2.44-.54,4.92.38,7.33a6.44,6.44,0,0,0,2.81,3.07c4.16,2.52,10.16,2.73,14.89,3.17,3.5.32,9.39,1.62,11.94-1.74s.74-9.95.39-13.81l-1.81-20.09-.87-9.67c-.17-1.9,0-4.51-1.1-6.22-1.84-2.8-5.61-1.94-8.26-1-6.55,2.22-12.76,3.65-19.75,3.48a.75.75,0,0,0-.72,1c.44,1.17,1.8,4.09.78,5-.57.49-2.59.52-3.38.65-1,.17-.55,1.62.4,1.45Z" transform="translate(-1222.54 -223.27)"/><path class="cls-5" d="M1349.06,226.32c-7.58-.64-14.64,1.49-16.9,5.19a10.38,10.38,0,0,0-1.12,3.75,1066.55,1066.55,0,0,0-13.34,137.46,6,6,0,0,0,.61,3.52c.81,1.25,2.39,1.72,3.85,2,22,4.88,44.76-1.11,67.22-3.15,23.57-2.15,47.3.1,70.87,2.35l60.4,5.77c3.2.3,7,.35,8.91-2.26,1.59-2.2,1-5.23.36-7.87-10.48-44.2-7.21-90.8-18-134.93-.92-3.76-2.09-7.75-5.09-10.19-2.41-1.95-5.61-2.58-8.68-3-13-2-136.06-.47-149.12,1.36" transform="translate(-1222.54 -223.27)"/><path class="cls-2" d="M1349.06,225.57c-5.17-.33-11.44.06-15.65,3.49a8.18,8.18,0,0,0-2.86,4.7c-.94,4-1.33,8.16-2,12.2q-3.49,23-6,46.11-2.52,23.4-4,46.88-.75,11.73-1.24,23.49c-.16,3.74-.74,7.77-.39,11.51a4.86,4.86,0,0,0,2.27,4.1c2.3,1.42,5.68,1.58,8.27,1.95a89.63,89.63,0,0,0,10.61.87,159,159,0,0,0,22.44-1.37c15.53-1.87,30.86-4.32,46.55-4.47,31.74-.31,63.61,4.2,95.15,7.21,7.12.68,14.75,2.28,21.89,1.87,4.46-.25,7.42-2.84,7.17-7.48-.16-2.87-1.14-5.75-1.74-8.55-.85-3.93-1.59-7.88-2.25-11.84-1.32-7.86-2.31-15.77-3.13-23.7-3.12-29.93-3.87-60.23-10.38-89.71-1.16-5.26-2-11.88-6.56-15.48-2.83-2.26-6.68-2.92-10.19-3.28-3.94-.41-7.93-.44-11.89-.53-14.9-.35-29.81-.29-44.71-.21-29.21.17-58.68-.15-87.83,1.91-1.25.09-2.5.19-3.75.36-.95.12-.54,1.57.4,1.44,8.63-1.17,17.6-1,26.28-1.22,15.34-.42,30.68-.66,46-.83,15.49-.17,31-.26,46.46-.17,9.58.05,19.36-.24,28.91.74,4.87.5,9.57,1.79,12.1,6.38,3.23,5.84,4,13.84,5.13,20.31,2.62,14.37,4.08,28.91,5.31,43.45,1.2,14.17,2.19,28.36,3.82,42.49.76,6.64,1.67,13.26,2.8,19.85q.84,4.89,1.86,9.74c.83,3.91,3.44,9.9.45,13.38-1.94,2.28-6.63,1.44-9.23,1.2l-11.78-1.13-22.1-2.11c-14.73-1.4-29.47-2.92-44.22-4.13a330.26,330.26,0,0,0-43.58-1.18c-14.3.72-28.36,3.41-42.59,4.81a127.88,127.88,0,0,1-21,.56A75.27,75.27,0,0,1,1323,377.7c-2.33-.5-3.9-1.15-4.6-3.75-.46-1.75.12-4.6.19-6.37q.81-22,2.53-44,1.69-21.63,4.26-43.16c1.79-14.92,3.29-30.2,6.35-44.93,1.65-8,10.36-8.83,17.29-8.39,1,.06,1-1.44,0-1.5Z" transform="translate(-1222.54 -223.27)"/><g class="cls-6"><path class="cls-7" d="M1337.81,228.28c-3,19.15-3,38.63-3,58,0,13.36.11,27.34,6.42,39.1,5.22,9.75,14.29,17,24.25,21.81s20.85,7.32,31.7,9.43c37.48,7.29,76.25,10.19,111.65,24.48-18.93,1.45-37.34-5.54-56-9.09a156.49,156.49,0,0,0-50.13-1.32c-26,3.54-52.27,13.62-77.7,7.23-2.49-.62-5.17-1.59-6.4-3.84a10,10,0,0,1-.83-4.59c-.25-15.52,1.28-31,2.81-46.45q3.66-37,7.33-73.92c.44-4.5.91-9.09,2.69-13.25s5.12-7.9,9.51-9" transform="translate(-1222.54 -223.27)"/><path class="cls-7" d="M1337.09,228.08c-3,19.48-3.06,39.2-3.07,58.86,0,16.43.72,33.68,12,46.73s27.92,18.74,44.16,22.3c18.47,4,37.26,6.49,55.89,9.68,21.26,3.64,42.44,8.16,62.53,16.18l.2-1.47c-22.07,1.46-42.92-7.6-64.52-10.46s-42.52-.29-63.73,4.1c-11.21,2.32-22.5,4.72-34,5.18a79.66,79.66,0,0,1-16-.86,46.85,46.85,0,0,1-6.3-1.37c-4.68-1.46-5.7-4.3-5.76-8.91-.27-22.43,2.82-44.89,5-67.17l3.81-38.44c.67-6.8,1-13.81,2.27-20.52,1.21-6.2,4.25-12.35,10.7-14.31.92-.28.53-1.73-.4-1.45-8.62,2.62-11.41,11.51-12.39,19.59-1.51,12.43-2.5,24.94-3.73,37.39-2.46,24.84-5.81,49.78-6.65,74.74q-.15,4.35-.15,8.72c0,2.33-.23,5,.67,7.16,1.21,3,4.23,4.14,7.14,4.9,10.66,2.8,22,2.47,32.79,1.05,11.56-1.51,22.9-4.3,34.35-6.46a168.67,168.67,0,0,1,37.31-3.11c14,.5,27.5,3.34,41.07,6.65,12.64,3.08,25.4,5.94,38.5,5.08a.75.75,0,0,0,.2-1.47c-33.52-13.39-69.63-16.82-104.86-23.21-17.44-3.16-36-6.68-50.24-18a45,45,0,0,1-14.78-20.4c-2.88-8.32-3.44-17.21-3.56-25.95-.31-21.41-.24-43.11,3-64.31.15-.95-1.3-1.35-1.44-.4Z" transform="translate(-1222.54 -223.27)"/></g><path class="cls-5" d="M1348,906.77c-7.73.64-14.91-1.49-17.21-5.19a10,10,0,0,1-1.14-3.75A1046.06,1046.06,0,0,1,1316,760.37a5.94,5.94,0,0,1,.62-3.52c.83-1.25,2.44-1.72,3.92-2,22.43-4.88,45.61,1.11,68.48,3.15,24,2.15,48.19-.1,72.2-2.35l61.53-5.77c3.26-.3,7.15-.34,9.07,2.26,1.62,2.2,1,5.23.37,7.87-10.67,44.2-7.35,90.8-18.3,134.93-.94,3.76-2.13,7.75-5.19,10.19-2.46,2-5.71,2.58-8.84,3-13.29,2-138.6.47-151.91-1.36" transform="translate(-1222.54 -223.27)"/><path class="cls-2" d="M1348,906c-5.46.35-15.24,0-17.24-6.45-1-3.13-1.17-6.69-1.69-9.93q-.91-5.8-1.77-11.63-3.35-22.82-5.68-45.77-2.24-21.94-3.54-44-.68-11.38-1.1-22.77c-.15-4.08-1.06-8.72,3.81-10a65,65,0,0,1,11.78-1.62c14.62-1,29.17,1.45,43.61,3.34a269.92,269.92,0,0,0,44.57,2.12c29.67-1.07,59.31-4.77,88.86-7.54l11-1c1.4-.13,2.8-.31,4.21-.34a15.49,15.49,0,0,1,2,0c2.3.23,3.17.77,4.29,2.88,2,3.66,0,8-.89,11.92q-1.11,5.21-2,10.44c-2.39,13.83-3.76,27.81-5,41.79-1.23,14.4-2.26,28.82-4,43.17-.91,7.44-2,14.86-3.44,22.22-1.2,6.15-1.91,14.21-5.59,19.48-3.58,5.11-10.89,5.18-16.61,5.43-5.1.21-10.2.29-15.3.35-15.08.19-30.17.13-45.25,0-27.12-.21-54.45,0-81.52-1.85-1.18-.09-2.37-.17-3.54-.33-1-.12-.94,1.38,0,1.5,9.64,1.28,19.62,1.06,29.32,1.31,17.06.43,34.13.68,51.2.84,16.29.14,32.58.22,48.88,0,5.53-.07,11.06-.14,16.59-.39,5.08-.23,11.09-.36,15.21-3.64,4.33-3.45,5.29-9.66,6.45-14.72,1.68-7.37,3-14.83,4.06-22.31,2.15-15.08,3.33-30.27,4.59-45.44,1.3-15.74,2.69-31.49,5.38-47.06.65-3.73,1.36-7.44,2.17-11.13.68-3.1,2-6.52,1.8-9.73-.29-4.64-4.13-6.34-8.33-6.33-7.63,0-15.44,1.34-23,2l-23.44,2.2c-16.16,1.51-32.31,3.22-48.51,4.19a272.5,272.5,0,0,1-47.71-.85c-15.45-1.79-30.9-4.79-46.51-4.31a90.09,90.09,0,0,0-10.11.85c-2.74.39-6.41.53-8.77,2.2a4.76,4.76,0,0,0-1.94,3.86c-.32,4.24.27,8.73.45,13q1.05,23.88,3.18,47.68Q1321,843,1324.07,866q1.62,12,3.52,24c.77,4.87.51,11.29,5,14.41s10.29,3.4,15.38,3.07c1-.06,1-1.56,0-1.5Z" transform="translate(-1222.54 -223.27)"/><g class="cls-6"><path class="cls-7" d="M1500.88,751.48A152.16,152.16,0,0,1,1453.94,771c-13.26,3.06-26.87,4.31-40.28,6.64s-26.86,5.84-38.48,12.93-21.32,18.18-24.26,31.47c-1.85,8.33-1,17,.22,25.46,1.15,8,2.64,16.06,6,23.42,8.44,18.55,27.5,30.06,46.77,36.7-20.37,1.86-40.87-.2-61.23-2.26-3-.3-6.24-.68-8.67-2.53-3.17-2.43-4.15-6.71-4.88-10.63-7.74-41.81-10.42-84.36-13.08-126.79-.15-2.3-.25-4.77,1-6.7a9.47,9.47,0,0,1,4.77-3.35c15-5.88,31.77-.4,47.43,3.45a230.75,230.75,0,0,0,128.84-5.68" transform="translate(-1222.54 -223.27)"/><path class="cls-7" d="M1500.5,750.83a159.61,159.61,0,0,1-58.92,21.81c-20.14,3.35-41.11,4.68-59.84,13.55-14.67,6.95-27.91,19.29-31.55,35.65-2.08,9.38-.84,19.15.63,28.53s3.75,18.72,8.85,26.86c9.85,15.7,27,25.16,44,31.12l.2-1.48a244.06,244.06,0,0,1-40.1-.28c-6.57-.52-13.12-1.16-19.67-1.83-3.3-.33-6.88-.48-9.61-2.56s-3.68-5.38-4.36-8.58c-5.57-26.19-7.93-53.28-10.06-79.92-1.08-13.41-2-26.83-2.81-40.25-.19-3.06-.52-6.14-.57-9.2-.06-4.83,2.25-7.1,6.54-8.63,6.16-2.21,12.89-2.43,19.35-1.76,12.62,1.31,24.75,5.62,37.17,8a231.85,231.85,0,0,0,118.49-8c.91-.31.52-1.76-.4-1.45a231.48,231.48,0,0,1-81,12.12,227.85,227.85,0,0,1-41.39-5c-12.62-2.74-25.14-7.25-38.17-7.44-5.61-.09-11.57.65-16.71,3-4,1.85-5.47,4.82-5.37,9.19.35,14.27,1.79,28.63,2.87,42.86,2.14,28.31,5,56.63,10.17,84.57.94,5,2.2,10.61,7.31,12.93a22.69,22.69,0,0,0,7.1,1.5c4.12.45,8.25.84,12.38,1.22,16.24,1.51,32.56,2.46,48.85,1a.75.75,0,0,0,.2-1.47c-15.67-5.47-31.37-13.91-41.27-27.66-5.41-7.52-8.25-16.23-9.9-25.27-1.87-10.27-3.59-21.39-1.29-31.73,3.76-16.94,17.92-29.18,33.25-35.84,18.26-7.93,38.42-9.15,57.81-12.43a160.06,160.06,0,0,0,58.56-21.85c.82-.51.06-1.8-.76-1.29Z" transform="translate(-1222.54 -223.27)"/></g><path class="cls-2" d="M1349.06,225.57c-5.17-.33-11.44.06-15.65,3.49a8.18,8.18,0,0,0-2.86,4.7c-.94,4-1.33,8.16-2,12.2q-3.49,23-6,46.11-2.52,23.4-4,46.88-.75,11.73-1.24,23.49c-.16,3.74-.74,7.77-.39,11.51a4.86,4.86,0,0,0,2.27,4.1c2.3,1.42,5.68,1.58,8.27,1.95a89.63,89.63,0,0,0,10.61.87,159,159,0,0,0,22.44-1.37c15.53-1.87,30.86-4.32,46.55-4.47,31.74-.31,63.61,4.2,95.15,7.21,7.12.68,14.75,2.28,21.89,1.87,4.46-.25,7.42-2.84,7.17-7.48-.16-2.87-1.14-5.75-1.74-8.55-.85-3.93-1.59-7.88-2.25-11.84-1.32-7.86-2.31-15.77-3.13-23.7-3.12-29.93-3.87-60.23-10.38-89.71-1.16-5.26-2-11.88-6.56-15.48-2.83-2.26-6.68-2.92-10.19-3.28-3.94-.41-7.93-.44-11.89-.53-14.9-.35-29.81-.29-44.71-.21-29.21.17-58.68-.15-87.83,1.91-1.25.09-2.5.19-3.75.36-.95.12-.54,1.57.4,1.44,8.63-1.17,17.6-1,26.28-1.22,15.34-.42,30.68-.66,46-.83,15.49-.17,31-.26,46.46-.17,9.58.05,19.36-.24,28.91.74,4.87.5,9.57,1.79,12.1,6.38,3.23,5.84,4,13.84,5.13,20.31,2.62,14.37,4.08,28.91,5.31,43.45,1.2,14.17,2.19,28.36,3.82,42.49.76,6.64,1.67,13.26,2.8,19.85q.84,4.89,1.86,9.74c.83,3.91,3.44,9.9.45,13.38-1.94,2.28-6.63,1.44-9.23,1.2l-11.78-1.13-22.1-2.11c-14.73-1.4-29.47-2.92-44.22-4.13a330.26,330.26,0,0,0-43.58-1.18c-14.3.72-28.36,3.41-42.59,4.81a127.88,127.88,0,0,1-21,.56A75.27,75.27,0,0,1,1323,377.7c-2.33-.5-3.9-1.15-4.6-3.75-.46-1.75.12-4.6.19-6.37q.81-22,2.53-44,1.69-21.63,4.26-43.16c1.79-14.92,3.29-30.2,6.35-44.93,1.65-8,10.36-8.83,17.29-8.39,1,.06,1-1.44,0-1.5Z" transform="translate(-1222.54 -223.27)"/><path class="cls-2" d="M1348,906c-5.46.35-15.24,0-17.24-6.45-1-3.13-1.17-6.69-1.69-9.93q-.91-5.8-1.77-11.63-3.35-22.82-5.68-45.77-2.24-21.94-3.54-44-.68-11.38-1.1-22.77c-.15-4.08-1.06-8.72,3.81-10a65,65,0,0,1,11.78-1.62c14.62-1,29.17,1.45,43.61,3.34a269.92,269.92,0,0,0,44.57,2.12c29.67-1.07,59.31-4.77,88.86-7.54l11-1c1.4-.13,2.8-.31,4.21-.34a15.49,15.49,0,0,1,2,0c2.3.23,3.17.77,4.29,2.88,2,3.66,0,8-.89,11.92q-1.11,5.21-2,10.44c-2.39,13.83-3.76,27.81-5,41.79-1.23,14.4-2.26,28.82-4,43.17-.91,7.44-2,14.86-3.44,22.22-1.2,6.15-1.91,14.21-5.59,19.48-3.58,5.11-10.89,5.18-16.61,5.43-5.1.21-10.2.29-15.3.35-15.08.19-30.17.13-45.25,0-27.12-.21-54.45,0-81.52-1.85-1.18-.09-2.37-.17-3.54-.33-1-.12-.94,1.38,0,1.5,9.64,1.28,19.62,1.06,29.32,1.31,17.06.43,34.13.68,51.2.84,16.29.14,32.58.22,48.88,0,5.53-.07,11.06-.14,16.59-.39,5.08-.23,11.09-.36,15.21-3.64,4.33-3.45,5.29-9.66,6.45-14.72,1.68-7.37,3-14.83,4.06-22.31,2.15-15.08,3.33-30.27,4.59-45.44,1.3-15.74,2.69-31.49,5.38-47.06.65-3.73,1.36-7.44,2.17-11.13.68-3.1,2-6.52,1.8-9.73-.29-4.64-4.13-6.34-8.33-6.33-7.63,0-15.44,1.34-23,2l-23.44,2.2c-16.16,1.51-32.31,3.22-48.51,4.19a272.5,272.5,0,0,1-47.71-.85c-15.45-1.79-30.9-4.79-46.51-4.31a90.09,90.09,0,0,0-10.11.85c-2.74.39-6.41.53-8.77,2.2a4.76,4.76,0,0,0-1.94,3.86c-.32,4.24.27,8.73.45,13q1.05,23.88,3.18,47.68Q1321,843,1324.07,866q1.62,12,3.52,24c.77,4.87.51,11.29,5,14.41s10.29,3.4,15.38,3.07c1-.06,1-1.56,0-1.5Z" transform="translate(-1222.54 -223.27)"/><path class="cls-2" d="M1334.64,812.4l-.08.08.91-.12.17.24-.35.85c.27-.19,1.14.06,1.51.1l2.42.26,4.52.48c1,.1,1-1.4,0-1.5l-5.56-.59c-1-.11-2.7-.69-3.65-.05a.8.8,0,0,0-.34.85.87.87,0,0,0,.53.66.77.77,0,0,0,.9-.12l.08-.08c.67-.7-.39-1.77-1.06-1.06Z" transform="translate(-1222.54 -223.27)"/><path class="cls-2" d="M1354.67,812.43l7.39.42c2.35.13,5.63-.22,7.69,1a.75.75,0,0,0,.76-1.3c-1.82-1.1-3.92-1-6-1.09l-9.86-.56c-1,0-1,1.45,0,1.5Z" transform="translate(-1222.54 -223.27)"/><path class="cls-2" d="M1380.11,812a35.89,35.89,0,0,0,9,2.07c3.44.31,6.83-.54,10.22-.28,1,.07,1-1.43,0-1.5-2.95-.22-5.93.54-8.92.37a34.8,34.8,0,0,1-9.93-2.11c-.91-.33-1.3,1.12-.4,1.45Z" transform="translate(-1222.54 -223.27)"/><path class="cls-2" d="M1409.68,813a90.36,90.36,0,0,0,19.83,1.71c1,0,1-1.53,0-1.5a88,88,0,0,1-19.43-1.66c-.94-.18-1.35,1.27-.4,1.45Z" transform="translate(-1222.54 -223.27)"/><path class="cls-2" d="M1438.14,812.75a45.68,45.68,0,0,0,20.57.75c1-.18.55-1.63-.4-1.45a43.6,43.6,0,0,1-19.77-.75.75.75,0,0,0-.4,1.45Z" transform="translate(-1222.54 -223.27)"/><path class="cls-2" d="M1467.22,813.06a31.25,31.25,0,0,0,18.82.59.75.75,0,0,0-.4-1.44,29.74,29.74,0,0,1-18-.6c-.91-.32-1.3,1.13-.4,1.45Z" transform="translate(-1222.54 -223.27)"/><path class="cls-2" d="M1495.85,814.19a40.12,40.12,0,0,0,20.26-1c.92-.28.53-1.73-.4-1.44a38.58,38.58,0,0,1-19.46,1c-.94-.2-1.34,1.25-.4,1.44Z" transform="translate(-1222.54 -223.27)"/><path class="cls-1" d="M1318.74,336.87c-5.69-4-14.15-.88-18.22,4.78s-4.91,13-5.63,19.89l-4.08,39.71c-.55,5.38-1.12,10.84-3,15.9-2.26,5.89-6.25,10.93-10.07,16-35.23,46.4-60.92,104-53.18,161.78,5.27,39.31,25.71,75.41,52.06,105.05,3,3.33,6,6.66,7.91,10.69,1.81,3.87,2.4,8.18,3,12.41q4.35,32.16,8.71,64.32c.82,6.11,1.78,12.53,5.56,17.39s11.43,7.3,16.25,3.45a233.52,233.52,0,0,1-.67-68c64.26,33.69,145.19,33.33,209.15-.94,10.09,21.37-7.65,49,4.1,69.5,5.68.78,11.16-3.17,14-8.16s3.54-10.86,4.2-16.55q3-25.89,6.07-51.78c.5-4.23,1-8.51,2.53-12.49a51.32,51.32,0,0,1,4.83-8.89l31.29-49.5c5.66-9,11.36-18,15.29-27.85,5.43-13.61,7.31-28.37,8.27-43,3.79-57.67-8.44-120.61-51.15-159.55-2.66-2.43-5.48-4.81-7.32-7.92-2.28-3.84-2.84-8.41-3.36-12.85l-6.27-53.4c-.74-6.3-1.6-12.9-5.36-18s-11.46-7.89-16.61-4.2l1.43,51.77c.07,2.63,0,5.59-1.88,7.41-2.91,2.79-7.67.92-11.24-1a196.65,196.65,0,0,0-124.34-19.69c-25.07,4.34-49,13.53-72.74,22.67-.76-11.28.15-15.34-.62-26.62-.46-6.76-1.24-19.29,1.18-32.32" transform="translate(-1222.54 -223.27)"/><path class="cls-2" d="M1319.12,336.22c-5.25-3.33-11.78-1.87-16.38,2-5.72,4.78-7.32,12.62-8.19,19.65-1.24,10-2.09,20.12-3.13,30.17-1.08,10.59-.9,22.53-5.86,32.2-4,7.89-10.28,14.66-15.38,21.88q-7.87,11.12-14.8,22.87a260.81,260.81,0,0,0-22.8,49.44c-11.28,33.79-13.8,70.06-3.71,104.46a194.43,194.43,0,0,0,21.45,47.3,239.2,239.2,0,0,0,14.87,21.29q4.05,5.2,8.37,10.2c3.14,3.63,6.68,7.07,9.14,11.22,2.85,4.82,3.49,10.39,4.23,15.83l2.37,17.54,4.75,35.09c1.22,9,1.15,20.51,7.14,27.95,4,5,11.58,7.52,17.15,3.57a.8.8,0,0,0,.35-.85,237.1,237.1,0,0,1-.64-67.82l-1.13.65c50.36,26.22,110.41,32,165.08,16.92a219.29,219.29,0,0,0,44.83-17.86l-1-.27c5.58,12.39,2.37,26.22.73,39.11-.77,6-1.34,12.15-.56,18.2a34.62,34.62,0,0,0,1.85,7.72c.57,1.54,1.23,4.1,2.73,4.84s5.07-.37,6.56-1a17.56,17.56,0,0,0,6.78-5.54c3.66-4.89,4.65-11.17,5.38-17.07,2.1-16.87,4-33.77,6-50.65A86.7,86.7,0,0,1,1557.1,723a40.94,40.94,0,0,1,5.38-11.21q6.8-10.8,13.64-21.57c8.81-14,18.12-27.71,26.28-42.05,14.67-25.78,16.71-55.94,15.91-85-.71-26.06-4.93-52.33-14.45-76.69a159.45,159.45,0,0,0-17.5-33.12,139.45,139.45,0,0,0-11.59-14.5c-4.68-5.11-11-9.39-14.93-15.11-4.53-6.62-4.22-16.17-5.12-23.86l-3.14-26.71c-.88-7.46-1.46-15-2.75-22.45-1-5.67-2.91-11.68-7.65-15.32-3.56-2.74-8.62-4.21-12.9-2.34-2.58,1.12-2.07,1.82-2,4.55l.37,13.32.71,25.89c.11,3.85.46,7.77.27,11.62-.13,2.83-1.17,5.76-4.55,6.06-2.23.2-4.57-.88-6.53-1.8-13.29-6.3-26.29-12.2-40.55-16.08a198.48,198.48,0,0,0-44-6.82c-31.65-1.32-61.89,6.13-91.46,16.84-7.54,2.73-15,5.61-22.51,8.49l1,.73c-.58-9.27-.11-18.54-.7-27.8-.65-10.36-.58-20.69,1.24-30.94.16-.95-1.28-1.35-1.45-.4a129.15,129.15,0,0,0-1.34,30.49c.59,9.55.15,19.1.75,28.65,0,.44.47.91,1,.72,29.34-11.29,59.08-22.49,90.7-24.9a196.91,196.91,0,0,1,86.37,12.95c7,2.74,13.6,6.1,20.35,9.36,3.64,1.76,8.91,3.55,11.86-.35a9.23,9.23,0,0,0,1.47-5.2c.19-4.09-.17-8.27-.29-12.36l-.67-24.41-.33-11.84c0-2-.65-4.26,1.12-5.39s4.35-.83,6.14-.38c7.9,2,11,9.78,12.28,17.06,2.82,16.05,3.94,32.57,5.84,48.76.81,6.9.81,14.77,3.52,21.27,2.31,5.53,7.31,9.08,11.48,13.12a139.17,139.17,0,0,1,23.41,30.15c12.92,22.25,20.06,47.52,23.25,72.94a272.58,272.58,0,0,1,2,38.42c-.24,14.43-1.14,29.12-4.41,43.2-3.65,15.72-11.52,29.18-20,42.68l-26.2,41.45c-3.8,6-8.41,12-10.4,18.92s-2.23,14.32-3.06,21.37l-2.86,24.4c-1,8.16-1.4,16.59-3.18,24.62a24,24,0,0,1-4.57,10.35c-2.06,2.49-6.45,6.07-10,5.36-2.67-.53-3.5-5.38-4.06-7.78a42.27,42.27,0,0,1-1-9.65c0-12.27,3.66-24.27,3.32-36.56a39.11,39.11,0,0,0-3.32-15.22.76.76,0,0,0-1-.27c-49.76,26.47-109.37,32.71-163.77,18.24a218,218,0,0,1-44.63-17.3.75.75,0,0,0-1.12.64,236.63,236.63,0,0,0,0,63.19c.39,2.87,1.38,4.9-2.1,5.74a10.77,10.77,0,0,1-6.15-.52c-5.61-2.07-8.44-7.37-9.87-12.86-2.55-9.84-3.12-20.44-4.48-30.5l-4.35-32.16c-1.23-9.1-1.39-19.21-6.89-27-5.25-7.4-11.92-13.84-17.46-21.05a235.26,235.26,0,0,1-15.55-22.87c-19.46-32.71-29.05-69.86-24.62-107.89,4.51-38.76,21.61-75.27,43.48-107.2,5.73-8.37,12.84-16.13,17.74-25,5.2-9.42,5.29-20.66,6.36-31.12,1.25-12.14,1.83-24.58,3.94-36.6.91-5.2,2.52-10.72,6.48-14.43,4.11-3.85,10.34-5.57,15.33-2.4.81.51,1.57-.78.75-1.3Z" transform="translate(-1222.54 -223.27)"/><path class="cls-8" d="M1592.88,623.83c-19.85,52.1-62.73,119.92-165.66,119.92S1243.45,665,1243.45,569c0-75.37,45.43-141.94,117.34-166,19.69-6.6,44.3-9.49,66.43-9.49,45,0,109.57,23.3,149.26,88C1603.81,526,1602.41,598.78,1592.88,623.83Z" transform="translate(-1222.54 -223.27)"/><path class="cls-1" d="M1409.85,450c0,2.59-.45,5.67.22,8.2a.72.72,0,0,0,.52.52c2.91.75,6.42.18,9.41.15,3.5,0,7,0,10.51-.11,4.52-.15,3.83-5.59,4-9.13,0-1-1.46-1-1.5,0a23.91,23.91,0,0,1-.47,5.31c-.59,2.07-.59,2-2.69,2.33a61.93,61.93,0,0,1-7.71.08c-2.48,0-5.24.39-7.71.08-2.21-.28-2.62-.87-3.05-3.11a23.09,23.09,0,0,1,0-4.32.75.75,0,0,0-1.5,0Z" transform="translate(-1222.54 -223.27)"/><path class="cls-1" d="M1421.35,453.54l-.33,14.09c0,2.07,0,4.17-.15,6.24-.24,3.12-1.72,4.88-4.39,6.43-.71.41-.24,1.68.58,1.37a39.43,39.43,0,0,1,10.11-2.34.75.75,0,0,0,.2-1.47c-2.64-.84-3.62-1.95-4.17-4.79a46.23,46.23,0,0,1-.34-5.78l-.7-11.56c-.06-1-1.56-1-1.5,0l1,17.34c.29,4.77.76,4.81,5.27,6.23l.2-1.47a41.21,41.21,0,0,0-10.51,2.39l.58,1.38c3.5-2.05,5-4.15,5.14-8.26.31-6.59.32-13.21.47-19.8a.75.75,0,0,0-1.5,0Z" transform="translate(-1222.54 -223.27)"/><path class="cls-1" d="M1420.91,476.81l.06,1.33a.76.76,0,0,0,1.13.65,1.93,1.93,0,0,0,1-1.76.76.76,0,0,0-.55-.72,1.39,1.39,0,0,0-1.6,2c.46.85,1.76.09,1.3-.76,0,.09,0,.26-.1.22l-.55-.72a.46.46,0,0,1-.29.47l1.13.64-.06-1.33c0-1-1.54-1-1.5,0Z" transform="translate(-1222.54 -223.27)"/><path class="cls-1" d="M1386.2,488.62q-.46,5.34-.76,10.7c-.1,1.95,2.83,1.9,3,0l0-.33c.17-1.92-2.83-1.91-3,0l0,.33h3q.3-5.35.76-10.7c.17-1.93-2.83-1.91-3,0Z" transform="translate(-1222.54 -223.27)"/><path class="cls-1" d="M1382.43,486.9l-.13.09,1.82.23-.13-.16v2.12c-.19.18,1.82.09,1.71.1l2.34-.13,4.67-.26c1.92-.1,1.93-3.1,0-3l-6.62.36c-1.35.08-3.18-.21-4.22.81a1.53,1.53,0,0,0,0,2.12l.12.17a1.51,1.51,0,0,0,1.82.23l.14-.09c1.6-1.05.1-3.65-1.52-2.59Z" transform="translate(-1222.54 -223.27)"/><path class="cls-1" d="M1398.39,488.26a90,90,0,0,0,.15,10.39c.14,1.91,3.14,1.93,3,0a90,90,0,0,1-.15-10.39c.08-1.93-2.92-1.93-3,0Z" transform="translate(-1222.54 -223.27)"/><path class="cls-1" d="M1400.29,490.23c2.22-.5,5.86-.4,7.56,1.45l-.11-.51a4.05,4.05,0,0,1-1,.46,8.74,8.74,0,0,1-1.67.44,23.24,23.24,0,0,1-4.17.14l.4,3a5.11,5.11,0,0,1,6.4,4c.33,1.69,3,1.26,3-.4v-1.21a1.5,1.5,0,0,0-3,0v1.21l2.94-.4a8.13,8.13,0,0,0-10.09-6.11,1.51,1.51,0,0,0,.4,2.95c2.41.05,11,0,9.79-4.39-.47-1.79-2.79-2.71-4.37-3.24a12.58,12.58,0,0,0-6.83-.24c-1.89.42-1.09,3.32.79,2.89Z" transform="translate(-1222.54 -223.27)"/><path class="cls-1" d="M1417.45,489.36a74.67,74.67,0,0,1,.94,8.56c.11,1.92,3.11,1.93,3,0a84,84,0,0,0-1-9.36c-.32-1.9-3.21-1.09-2.9.8Z" transform="translate(-1222.54 -223.27)"/><path class="cls-1" d="M1427.34,489.65l4.86,8.81a1.52,1.52,0,0,0,2.74-.36l3.73-9.16-2.74.36c1.41,2.86,2.75,5.75,4,8.69.44,1.06,2.1,1.64,2.74.35a37.2,37.2,0,0,0,3.14-9c.38-1.89-2.51-2.69-2.9-.8a33.5,33.5,0,0,1-2.83,8.3l2.74.36q-2-4.77-4.28-9.4c-.64-1.29-2.3-.72-2.74.36l-3.73,9.15,2.74-.35-4.86-8.81c-.93-1.69-3.52-.18-2.59,1.51Z" transform="translate(-1222.54 -223.27)"/><path class="cls-1" d="M1453.26,499.15a32,32,0,0,0,3.15-11.12l-1.1,1.45a5.49,5.49,0,0,1,2,0l-1.29-.74,5.31,9.5a1.5,1.5,0,0,0,2.59-1.52l-4.29-7.67c-.47-.84-.83-2-1.74-2.44a6.29,6.29,0,0,0-3.39,0,1.52,1.52,0,0,0-1.11,1.44,27.77,27.77,0,0,1-2.74,9.6c-.85,1.73,1.74,3.25,2.59,1.52Z" transform="translate(-1222.54 -223.27)"/><path class="cls-1" d="M1454.9,495.6a23,23,0,0,0,5.43.21c1.91-.16,1.93-3.16,0-3a20,20,0,0,1-4.64-.1,1.55,1.55,0,0,0-1.84,1.05,1.51,1.51,0,0,0,1.05,1.84Z" transform="translate(-1222.54 -223.27)"/><path class="cls-2" d="M1337,319.63l-.08-.08a.79.79,0,0,0-.91-.12.88.88,0,0,0-.52.66.79.79,0,0,0,.34.85c.93.64,2.57.06,3.59-.05l5.46-.59c.94-.1,1-1.6,0-1.5l-4.43.48c-.64.07-3.34.72-3.86.36l.35.85-.17.24-.91-.12.08.09c.66.7,1.72-.36,1.06-1.07Z" transform="translate(-1222.54 -223.27)"/><path class="cls-2" d="M1355.64,322.16l9.68-.55c2-.12,4.1,0,5.88-1.1.82-.51.07-1.8-.75-1.29-2.08,1.28-5.18.89-7.55,1l-7.26.42c-1,0-1,1.55,0,1.5Z" transform="translate(-1222.54 -223.27)"/><path class="cls-2" d="M1381,322.58a32.84,32.84,0,0,1,9.74-2.11c2.93-.15,5.86.59,8.76.37,1-.07,1-1.57,0-1.5-3.33.26-6.65-.58-10-.28a35,35,0,0,0-8.86,2.07c-.9.33-.51,1.78.4,1.45Z" transform="translate(-1222.54 -223.27)"/><path class="cls-2" d="M1410,321.5a85.43,85.43,0,0,1,19.07-1.66c1,0,1-1.47,0-1.5a87,87,0,0,0-19.46,1.71c-1,.19-.55,1.63.39,1.45Z" transform="translate(-1222.54 -223.27)"/><path class="cls-2" d="M1438,321.79a42,42,0,0,1,19.4-.75c.95.18,1.35-1.27.4-1.45a43.93,43.93,0,0,0-20.2.75.75.75,0,0,0,.4,1.45Z" transform="translate(-1222.54 -223.27)"/><path class="cls-2" d="M1466.53,321.48a28.72,28.72,0,0,1,17.68-.6.75.75,0,0,0,.4-1.44,30.15,30.15,0,0,0-18.48.59c-.9.32-.51,1.77.4,1.45Z" transform="translate(-1222.54 -223.27)"/><path class="cls-2" d="M1494.63,320.34a37.19,37.19,0,0,1,19.1,1c.92.29,1.32-1.15.4-1.44a38.74,38.74,0,0,0-19.9-1c-.94.19-.54,1.64.4,1.44Z" transform="translate(-1222.54 -223.27)"/><g class="cls-3"><path class="cls-4" d="M1317.69,337.05c-5.16,5-6.06,12.83-6.37,20a265.42,265.42,0,0,0,2.17,46.89c30.62-14.45,63.56-23.2,96.28-31.88-31.32,1.16-61.29,12.36-90.61,23.43a123,123,0,0,1,.06-59.63" transform="translate(-1222.54 -223.27)"/><path class="cls-4" d="M1317.16,336.52c-7,7.29-6.66,18.43-6.8,27.87a271,271,0,0,0,2.38,39.55.76.76,0,0,0,1.13.64c30.68-14.37,63.47-23.14,96.1-31.8a.75.75,0,0,0-.2-1.47c-31.63,1.32-61.5,12.4-90.81,23.46l.92.52a124.37,124.37,0,0,1,.06-59.23.75.75,0,0,0-1.44-.39,125.86,125.86,0,0,0-.06,60,.76.76,0,0,0,.92.53c29.17-11,58.92-22.1,90.41-23.41l-.2-1.47c-32.76,8.69-65.66,17.52-96.45,32l1.12.65a271.89,271.89,0,0,1-2.41-35.14c0-10.06-1.15-23.37,6.39-31.22.67-.7-.39-1.76-1.06-1.06Z" transform="translate(-1222.54 -223.27)"/></g><g class="cls-3"><path class="cls-4" d="M1292.71,399.17c1.92,11.93-1,24.19-5.73,35.3s-11.28,21.35-17.1,31.94c-21.1,38.41-32.8,83.08-26.37,126.42,5.65,38,25.08,73.32,52,100.78l.34-.33a198.18,198.18,0,0,0,91.54,47.89c8.84,1.94,21.32,1.88,30.33,2.58,12.24,1,23.91,1.61,36.08,0,26.87-3.55,49.66-13.42,73-27.15-2.65,8.87-5.5,18.11-11.93,24.77s-15.8,9.91-24.83,12.42c-57.16,15.88-120.87,13.42-172.93-15a219.52,219.52,0,0,0,0,68.41c-4.63,3.81-12.11,1.45-15.76-3.3s-4.51-11-5.23-17l-6.84-56c-1.2-9.82-2.68-20.31-9.25-27.71-2-2.25-4.57-4.55-4.44-7.55l.53.37c.07-.63-.66.5-1.1.06-44.11-44.91-61.52-114.29-43.82-174.7,8.86-30.23,25.58-57.57,44.12-83.05,3.77-5.18,7.65-10.35,10.5-16.09a64.06,64.06,0,0,0,6.07-22.24Z" transform="translate(-1222.54 -223.27)"/><path class="cls-4" d="M1292,399.36c3.54,24.24-10.91,45.33-22.08,65.46a237,237,0,0,0-23.2,58.22c-9.66,39.27-6.8,80.05,10.36,116.82a198.71,198.71,0,0,0,37.86,54.28.76.76,0,0,0,1.06,0c-.51.49,14.84,12.67,16.92,14.19A199.34,199.34,0,0,0,1378,739.64c15.18,4.12,30.65,4.33,46.26,5.34a153.34,153.34,0,0,0,52.56-5.24c17.78-5,34.45-13.18,50.36-22.49l-1.1-.85c-2.1,7-4.26,14.28-8.47,20.4-4.7,6.86-11.85,11-19.53,13.71-13.81,5-28.67,7.8-43.16,9.82-29.86,4.17-60.61,3.25-89.94-4a199.2,199.2,0,0,1-47.48-18.28.76.76,0,0,0-1.1.45,223.49,223.49,0,0,0-2.68,39.52q.22,10.23,1.41,20.41c.18,1.49,1.74,7.26.77,8.61-1.77,2.48-7.44,1-9.53-.06-5.87-2.91-7.9-9.53-8.91-15.54-1.16-6.88-1.77-13.89-2.61-20.81-1.67-13.66-3.29-27.32-5-41-.75-6-1.6-12.05-3.79-17.71a31.62,31.62,0,0,0-3.6-6.89c-2.1-3-5.89-5.58-6.15-9.48l-1.13.65.53.36c.72.5,1.48-.58.91-1.17l-.16-.17a.77.77,0,0,0-.91-.11c-1.06.63-9-9.54-10-10.72q-5-6.11-9.44-12.66a179.17,179.17,0,0,1-14.49-25.87,184.78,184.78,0,0,1-15.71-58.43,175.68,175.68,0,0,1,4.28-59.88c5.66-22.43,15.94-43.42,28.11-63,6.86-11.05,14.57-21.44,22-32.09a68.3,68.3,0,0,0,8.8-16.41,65.13,65.13,0,0,0,2.46-9.21c.36-1.9.2-5.9,1.66-7.23.72-.66-.34-1.72-1.06-1.07-1,.87-.82.92-1.18,2-1.12,3.47-1.11,7.59-2.11,11.19a61.53,61.53,0,0,1-8.31,17.68c-6.84,10.26-14.42,20-21.08,30.4-12.91,20.18-24,41.85-30.17,65.09-10.58,39.66-6.33,82.72,10.31,120.11a177.79,177.79,0,0,0,17.46,30.72q4.86,6.84,10.34,13.18c2,2.28,4,4.64,6.18,6.74.3.29,2.68,1.57,1.9.76l.91-1.18-.53-.37a.76.76,0,0,0-1.13.65c.32,4.91,4.91,7.77,7.32,11.7,3.09,5,4.48,10.87,5.42,16.62,2.21,13.52,3.43,27.25,5.09,40.84q1.26,10.31,2.52,20.63c.6,5,1.09,10.1,3.13,14.73,3.13,7.05,11.93,12.92,19.17,7.66a.81.81,0,0,0,.35-.85,221.88,221.88,0,0,1,0-68l-1.11.45c27.3,14.8,57.8,22.71,88.74,24.5a254,254,0,0,0,48.37-1.92c15.17-2,30.8-5,45.21-10.24,7.21-2.64,14-6.46,18.75-12.65,5-6.52,7.4-14.54,9.72-22.29a.76.76,0,0,0-1.1-.85c-28.85,16.88-60.34,29-94.25,27.93-8.27-.27-16.52-1-24.79-1.45-7.5-.36-14.94-.83-22.27-2.54a196.6,196.6,0,0,1-44.64-16.37,199.24,199.24,0,0,1-44.12-30.77.75.75,0,0,0-1.06,0c.26-.26-7.35-8.41-8.4-9.63q-5.13-6-9.78-12.37a193.68,193.68,0,0,1-15.48-25,169.34,169.34,0,0,1-18-58.14c-4.92-42.84,7.47-86,28.31-123.21,11.29-20.15,25.09-41.18,21.56-65.39C1293.3,398,1291.85,398.42,1292,399.36Z" transform="translate(-1222.54 -223.27)"/></g><path class="cls-2" d="M1320.27,336.22c-5.25-3.33-11.78-1.87-16.38,2-5.72,4.78-7.32,12.62-8.19,19.65-1.24,10-2.09,20.12-3.13,30.17-1.08,10.59-.9,22.53-5.86,32.2-4,7.89-10.28,14.66-15.38,21.88q-7.87,11.12-14.8,22.87a260.81,260.81,0,0,0-22.8,49.44c-11.29,33.79-13.8,70.06-3.71,104.46a194.43,194.43,0,0,0,21.45,47.3,239.2,239.2,0,0,0,14.87,21.29q4,5.2,8.37,10.2c3.14,3.63,6.68,7.07,9.14,11.22,2.85,4.82,3.49,10.39,4.23,15.83l2.37,17.54,4.75,35.09c1.21,9,1.15,20.51,7.14,27.95,4,5,11.58,7.52,17.15,3.57a.8.8,0,0,0,.35-.85,237.46,237.46,0,0,1-.65-67.82l-1.12.65c50.36,26.22,110.41,32,165.08,16.92A219.29,219.29,0,0,0,1528,739.89l-1-.27c5.58,12.39,2.37,26.22.73,39.11-.77,6-1.34,12.15-.56,18.2a34.62,34.62,0,0,0,1.85,7.72c.57,1.54,1.23,4.1,2.73,4.84s5.07-.37,6.55-1a17.51,17.51,0,0,0,6.79-5.54c3.66-4.89,4.65-11.17,5.38-17.07,2.1-16.87,4-33.77,5.95-50.65a86.7,86.7,0,0,1,1.88-12.22,40.94,40.94,0,0,1,5.38-11.21c4.52-7.2,9.09-14.38,13.63-21.57,8.82-14,18.13-27.71,26.29-42.05,14.67-25.78,16.71-55.94,15.91-85-.71-26.06-4.93-52.33-14.46-76.69a158.94,158.94,0,0,0-17.49-33.12,139.45,139.45,0,0,0-11.59-14.5c-4.69-5.11-11-9.39-14.93-15.11-4.53-6.62-4.22-16.17-5.12-23.86l-3.14-26.71c-.88-7.46-1.46-15-2.75-22.45-1-5.67-2.91-11.68-7.65-15.32-3.56-2.74-8.62-4.21-12.9-2.34-2.58,1.12-2.08,1.82-2,4.55l.37,13.32.71,25.89c.11,3.85.46,7.77.27,11.62-.13,2.83-1.17,5.76-4.55,6.06-2.23.2-4.57-.88-6.53-1.8-13.29-6.3-26.3-12.2-40.56-16.08a198.3,198.3,0,0,0-44-6.82c-31.66-1.32-61.89,6.13-91.46,16.84-7.54,2.73-15,5.61-22.51,8.49l.95.73c-.59-9.27-.11-18.54-.7-27.8-.65-10.36-.58-20.69,1.24-30.94.16-.95-1.28-1.35-1.45-.4a129.15,129.15,0,0,0-1.34,30.49c.59,9.55.15,19.1.75,28.65,0,.44.47.91,1,.72,29.34-11.29,59.08-22.49,90.7-24.9a196.91,196.91,0,0,1,86.37,12.95c7,2.74,13.6,6.1,20.35,9.36,3.64,1.76,8.91,3.55,11.86-.35a9.23,9.23,0,0,0,1.47-5.2c.19-4.09-.17-8.27-.29-12.36l-.67-24.41-.33-11.84c0-2-.65-4.26,1.12-5.39s4.35-.83,6.14-.38c7.9,2,11,9.78,12.28,17.06,2.82,16.05,3.94,32.57,5.84,48.76.81,6.9.81,14.77,3.52,21.27,2.31,5.53,7.31,9.08,11.48,13.12a139.17,139.17,0,0,1,23.41,30.15c12.92,22.25,20.06,47.52,23.25,72.94a272.58,272.58,0,0,1,2,38.42c-.24,14.43-1.14,29.12-4.41,43.2-3.65,15.72-11.52,29.18-20,42.68l-26.2,41.45c-3.8,6-8.41,12-10.4,18.92s-2.23,14.32-3.06,21.37l-2.86,24.4c-1,8.16-1.4,16.59-3.18,24.62a24,24,0,0,1-4.57,10.35c-2.06,2.49-6.45,6.07-10,5.36-2.67-.53-3.5-5.38-4.06-7.78a42.27,42.27,0,0,1-1-9.65c0-12.27,3.66-24.27,3.32-36.56a39.29,39.29,0,0,0-3.32-15.22.76.76,0,0,0-1-.27c-49.76,26.47-109.37,32.71-163.77,18.24a217.79,217.79,0,0,1-44.63-17.3.76.76,0,0,0-1.13.64,236.63,236.63,0,0,0,0,63.19c.39,2.87,1.38,4.9-2.1,5.74a10.77,10.77,0,0,1-6.15-.52c-5.61-2.07-8.44-7.37-9.87-12.86-2.55-9.84-3.12-20.44-4.48-30.5l-4.35-32.16c-1.23-9.1-1.39-19.21-6.89-27-5.25-7.4-11.92-13.84-17.46-21.05a233.49,233.49,0,0,1-15.55-22.87c-19.46-32.71-29-69.86-24.62-107.89,4.51-38.76,21.61-75.27,43.48-107.2,5.73-8.37,12.84-16.13,17.74-25,5.2-9.42,5.29-20.66,6.36-31.12,1.25-12.14,1.83-24.58,3.94-36.6.9-5.2,2.52-10.72,6.48-14.43s10.34-5.57,15.33-2.4c.81.51,1.57-.78.75-1.3Z" transform="translate(-1222.54 -223.27)"/><g class="cls-9"><path class="cls-10" d="M1480.93,404.44C1421.38,397,1244.58,492,1300,633c20.77,52.89,79.4,103.84,138,108.49-37,5.49-74.72-7-107.23-25.57-13.3-7.59-26.07-16.27-37.06-26.93a150.64,150.64,0,0,1-17.57-20.57c-28.72-40.16-39.15-92.89-27.88-141s44-90.67,87.6-113.89,97.21-26.67,143.39-9.21" transform="translate(-1222.54 -223.27)"/><path class="cls-10" d="M1480.93,403.69c-9.73-1.18-19.72.22-29.22,2.32a195.71,195.71,0,0,0-36.35,12.22A252.79,252.79,0,0,0,1339,469.92c-22.72,22.59-40.85,50.64-47.52,82.3-7.7,36.54,1,75,20.71,106.38,24.28,38.78,64.7,71.54,110,81.27a124.84,124.84,0,0,0,15.75,2.32l-.2-1.47c-43.57,6.2-88-11.55-123.36-35.93-34.69-23.9-57.59-61.32-66.15-102.33a172.4,172.4,0,0,1,15.21-114.06c17.31-33.51,45.4-61.42,79.52-77.65,42.23-20.08,92.28-22.07,136-5.72.9.34,1.29-1.11.39-1.45a178,178,0,0,0-124.21.35c-36,13.61-66.51,39.59-86.6,72.31a173.51,173.51,0,0,0-24.06,113.25c5.42,41.24,25.36,81.76,57.92,108.24,16.74,13.62,36.16,24.46,56.1,32.62,20.35,8.33,42.25,13.61,64.34,13.11a129.79,129.79,0,0,0,15.25-1.29c.89-.13.59-1.41-.19-1.48-46.88-4-89.74-34.77-117-71.85-22.72-30.9-35.07-69.84-29.47-108.21,4.62-31.59,21-60.13,42.45-83.32,20.62-22.26,45.91-40.28,73.13-53.58,20.64-10.08,44.46-19.29,67.81-19,2,0,4.05.17,6.07.41,1,.12.94-1.39,0-1.5Z" transform="translate(-1222.54 -223.27)"/></g><g class="cls-9"><path class="cls-10" d="M1332.15,515.5c-.67,8.42,7.1,14.83,14.14,19.5q22.11,14.65,45.32,27.54c3.2,1.77,6.47,3.57,8.93,6.27,3.75,4.13,5.2,9.92,8.86,14.11a17,17,0,0,0,29.62-14,3.34,3.34,0,0,0-.73-1.81c-.94-1-2.59-.71-4-.43-8.7,1.83-17.82-.63-25.69-4.75s-14.75-9.86-21.89-15.15a236.94,236.94,0,0,0-53-29.59" transform="translate(-1222.54 -223.27)"/><path class="cls-10" d="M1331.4,515.5c-.29,7.63,5.09,13.24,10.82,17.55,8.41,6.34,17.7,11.73,26.69,17.18q6.75,4.1,13.59,8c4.63,2.66,9.6,5,14,8.07,7.44,5.2,8.4,15.43,16.12,20.27,12.3,7.71,29-2.13,27.28-16.88-.34-2.94-1.45-4.2-4.48-4-2,.12-4,.72-6.06.79a34.9,34.9,0,0,1-9.81-1.15c-10-2.55-18.44-8.7-26.53-14.82-18.31-13.86-37.74-25.5-59.08-34.09-.89-.36-1.28,1.09-.4,1.45a238.73,238.73,0,0,1,47.37,25.56c13.44,9.38,26.29,22.26,43.32,24.31a35.12,35.12,0,0,0,5.13.24c1.57-.06,3.67-.74,5.2-.62,4.6.33,4.23,3.41,3.73,6.62a17.09,17.09,0,0,1-2.48,6.53,16.28,16.28,0,0,1-22.43,4.79c-6.94-4.37-7.95-13.48-14-18.69-2.75-2.36-6.06-4-9.21-5.77q-6.57-3.68-13-7.49-13.29-7.82-26.2-16.24c-7.63-5-18.35-11.14-18-21.61,0-1-1.46-1-1.5,0Z" transform="translate(-1222.54 -223.27)"/></g><path class="cls-1" d="M1418.11,400.75a172.79,172.79,0,0,0-.92,30.08,34.6,34.6,0,0,1,9.24-.89q.16-15-1.13-30a15.55,15.55,0,0,0-6.75.38" transform="translate(-1222.54 -223.27)"/><path class="cls-1" d="M1418.11,711.36a172.73,172.73,0,0,0-.92,30.08,33.8,33.8,0,0,1,9.24-.89q.16-15-1.13-30a15.7,15.7,0,0,0-6.75.37" transform="translate(-1222.54 -223.27)"/><path class="cls-4" d="M1298.63,634.86a172.35,172.35,0,0,0-26.38,14.47,34.21,34.21,0,0,1,5.46,7.51q13-7.47,25.23-16.19a15.66,15.66,0,0,0-3.74-5.62" transform="translate(-1222.54 -223.27)"/><path class="cls-4" d="M1347.67,691.87a171.88,171.88,0,0,0-17.88,24.21,34.06,34.06,0,0,1,8.1,4.52q8.67-12.24,16.12-25.28a15.58,15.58,0,0,0-5.76-3.53" transform="translate(-1222.54 -223.27)"/><path class="cls-1" d="M1489.49,692.65a170.91,170.91,0,0,0,16.4,25.23,34.13,34.13,0,0,1,7.08-6q-8.42-12.42-18-24a15.79,15.79,0,0,0-5.33,4.16" transform="translate(-1222.54 -223.27)"/><path class="cls-1" d="M1543.39,643.57a172.06,172.06,0,0,0,26.45,14.36,34.13,34.13,0,0,1,3.36-8.65q-13.32-6.9-27.26-12.47a15.64,15.64,0,0,0-2.71,6.19" transform="translate(-1222.54 -223.27)"/><path class="cls-1" d="M1563.81,575.35a171.64,171.64,0,0,0,30.06-1.45,34.68,34.68,0,0,1-1.62-9.14q-15,1-29.77,3.49a15.75,15.75,0,0,0,.9,6.7" transform="translate(-1222.54 -223.27)"/><path class="cls-4" d="M1252.9,575.35A171.64,171.64,0,0,0,1283,573.9a34.68,34.68,0,0,1-1.62-9.14q-15,1-29.77,3.49a15.75,15.75,0,0,0,.9,6.7" transform="translate(-1222.54 -223.27)"/><path class="cls-4" d="M1295.55,505.39a170.63,170.63,0,0,1-26.38-14.48,34.67,34.67,0,0,0,5.45-7.5q13,7.47,25.24,16.18a15.72,15.72,0,0,1-3.75,5.63" transform="translate(-1222.54 -223.27)"/><path class="cls-4" d="M1344.58,448.38a172.66,172.66,0,0,1-17.88-24.21,34.21,34.21,0,0,0,8.1-4.52q8.68,12.23,16.13,25.27a15.73,15.73,0,0,1-5.77,3.54" transform="translate(-1222.54 -223.27)"/><path class="cls-1" d="M1486.4,447.59a172.25,172.25,0,0,1,16.4-25.23,34.44,34.44,0,0,0,7.08,6q-8.42,12.42-18,24a15.64,15.64,0,0,1-5.33-4.15" transform="translate(-1222.54 -223.27)"/><path class="cls-1" d="M1540.31,496.68a171.5,171.5,0,0,1,26.44-14.36,34.44,34.44,0,0,0,3.36,8.64c-8.87,4.6-18,8.77-27.26,12.48a15.58,15.58,0,0,1-2.7-6.2" transform="translate(-1222.54 -223.27)"/><path class="cls-1" d="M1331.72,516.81h0c4.63,6.92,12,11.39,19.22,15.63l54.3,32.1c2.62,1.54,5.58,3.7,5.42,6.73-.39,7.45,7.3,14.18,14.63,12.81s12.08-10.42,9-17.22c27.46-15.82,42.11-35.45,69.53-51.33,5.59-3.24,17.63-12,22.74-15.95s9.53-9.21,10.92-15.52c-7.39,1.9-13.52,6.89-19.45,11.69q-39.69,32.1-82.26,60.39c-3.26,2.17-7.25,4.4-10.87,2.9-3.9-1.62-8.56,2.87-12.3.9a579,579,0,0,1-54.6-32.67c-7.68-5.18-15.89-10.77-25.16-10.72" transform="translate(-1222.54 -223.27)"/><path class="cls-1" d="M1331.08,517.19c5.37,7.69,13.46,12.34,21.38,17l30.3,17.91,14.53,8.59c2.52,1.49,5.08,2.93,7.57,4.48a18.05,18.05,0,0,1,3.24,2.32c1.75,1.74,1.61,3.56,1.9,5.77A14,14,0,0,0,1423.29,585c6.44,0,11.65-5.53,12.56-11.67a12.74,12.74,0,0,0,0-3.85,12,12,0,0,1-.48-2c.28-1,2.08-1.64,2.88-2.13,4.83-3,9.5-6.18,14-9.59,16-12,30.23-26.13,47.23-36.78,7.82-4.91,15.47-9.88,22.91-15.38,7-5.14,13.6-10.6,15.8-19.38a.75.75,0,0,0-.92-.92c-6.55,1.85-12,5.69-17.3,9.88-6.38,5.07-12.71,10.21-19.15,15.21Q1480.79,524,1460,538.68q-9.84,6.95-19.85,13.66c-3.18,2.14-6.63,5.07-10.4,6.07-3.29.87-6.33-.87-9.75,0a35.27,35.27,0,0,1-3.89,1.13c-2.6.35-4.65-1.1-6.84-2.27q-5.61-3-11.16-6.13-10.77-6.09-21.3-12.62c-7.65-4.76-15.08-9.85-22.64-14.76-6.5-4.22-13.38-7.82-21.29-8a.75.75,0,0,0,0,1.5c8.53.19,15.78,4.6,22.67,9.2s13.58,9,20.51,13.34,14.11,8.57,21.3,12.63c3.49,2,7,3.9,10.53,5.79,2.38,1.28,4.76,3.07,7.57,2.9,3.3-.2,5.86-2.15,9.28-1.4a10.71,10.71,0,0,0,7.26-.58c3.6-1.55,6.85-4.16,10.08-6.33q5.29-3.57,10.54-7.2,20.42-14.1,40.17-29.13,10.8-8.2,21.39-16.68c7.27-5.82,14.37-12.46,23.54-15l-.92-.93c-2.69,10.69-12.49,16.68-20.9,22.69s-17.47,11-25.88,17.05c-19.15,13.7-35.6,30.7-56.07,42.61a.75.75,0,0,0-.35.84,12.41,12.41,0,0,1-4.48,14.62c-4.89,3.38-11.23,1.67-14.92-2.65-2.45-2.88-2.22-5.3-2.84-8.73a6.79,6.79,0,0,0-1.84-3.47c-3.62-3.89-9.47-6.23-14-8.9l-34.1-20.16c-10.12-6-22.13-11.43-29.05-21.33-.55-.79-1.85,0-1.29.76Z" transform="translate(-1222.54 -223.27)"/><path class="cls-1" d="M1422,599.19c-10.85.91-22.91,3-29.36,11.77-3.52,4.79-8.31,8-9.45,13.79s-3.12,13.06-2.46,18.82,1.71,13.71,4.26,18.82c2,3.9,9.29,9.75,12.52,12.68,5.66,5.15,18.53,8,26.18,8.19,10.51.19,17.12-6.48,26.08-12s15.8-15,16.22-25.55c.5-12.52-4-28.11-13.66-36.12-6.13-5.1-22.41-9.51-30.33-10.43" transform="translate(-1222.54 -223.27)"/><path class="cls-1" d="M1422,598.44c-8.73.76-18.21,2-25.4,7.48-3.66,2.78-6.43,6.78-9.43,10.23a22.72,22.72,0,0,0-5.28,11.19c-1,4.94-2.29,10-2,15.13a73.9,73.9,0,0,0,2.34,14.42c2.21,8.37,8.37,13.28,14.75,18.71,6.21,5.29,15.22,7.37,23.15,8.18,10.28,1.05,17.66-3.62,25.87-9.15,7.86-5.29,15-10.34,18.67-19.48,3.46-8.55,2.33-18.61-.3-27.24s-7.64-17.37-16-21.69a80.3,80.3,0,0,0-26.35-7.78c-1-.12-.94,1.38,0,1.5a86.59,86.59,0,0,1,21.45,5.7,30.36,30.36,0,0,1,16.73,15.64,50,50,0,0,1,5,25.58c-.83,9.55-7,18-14.83,23.18-7.33,4.85-15.12,11.58-24.2,12.38-7.74.69-16.86-1.48-23.74-5-3-1.55-5.44-3.82-8-6-3-2.59-6.39-5.33-8.44-8.74s-2.88-8-3.54-12c-.86-5.09-1.39-9.93-.63-15.06.67-4.54,1.27-10.32,3.48-14.37s6.16-8,9.23-11.37c6.88-7.5,17.86-9,27.47-9.88,1-.08,1-1.58,0-1.5Z" transform="translate(-1222.54 -223.27)"/><path class="cls-11" d="M1423.68,634.09a3.85,3.85,0,0,0-5.08-.13,5.2,5.2,0,0,0-1.55,5.09,8.13,8.13,0,0,0,3.13,4.51,5.61,5.61,0,0,0,2.45,1.16,4.54,4.54,0,0,0,2.28-.26,5.94,5.94,0,0,0-1.68-11.51" transform="translate(-1222.54 -223.27)"/><path class="cls-11" d="M1424.21,633.56a4.79,4.79,0,0,0-7.79,2.51c-1.06,3.69,1.73,8.11,5.35,9.21s7.38-2.2,7.73-5.82a6.83,6.83,0,0,0-6.27-7.26c-1-.12-.94,1.38,0,1.5a5.37,5.37,0,0,1,4.82,4.94c.09,2.52-2,5.32-4.65,5.38s-5.13-2.82-5.62-5.17c-.62-3,2.33-6.85,5.37-4.23.73.62,1.8-.43,1.06-1.06Z" transform="translate(-1222.54 -223.27)"/><path class="cls-11" d="M1419.8,641.39A202.47,202.47,0,0,0,1403,669.51c3.47-2.14,4.93-6.34,6.73-10A39.67,39.67,0,0,1,1421.93,645" transform="translate(-1222.54 -223.27)"/><path class="cls-11" d="M1419.15,641a210.39,210.39,0,0,0-16.84,28.12c-.3.61.36,1.49,1,1,3.8-2.67,5.22-6.8,7.28-10.8a39.8,39.8,0,0,1,11.69-13.67c.77-.57,0-1.87-.76-1.29a42.26,42.26,0,0,0-9.79,10.09c-3.12,4.6-4.48,11.07-9.18,14.38l1,1a210.85,210.85,0,0,1,16.83-28.11c.56-.79-.74-1.54-1.29-.76Z" transform="translate(-1222.54 -223.27)"/><g class="cls-3"><path class="cls-4" d="M1410.66,603.41a56.72,56.72,0,0,0-8.23,75.62c-7.7-4.61-15.11-10.51-18.72-18.71-2.87-6.53-3.07-13.91-2.55-21a52.13,52.13,0,0,1,2.49-13.53A34.26,34.26,0,0,1,1411,603.69" transform="translate(-1222.54 -223.27)"/><path class="cls-4" d="M1410.13,602.88a58.26,58.26,0,0,0-8.35,76.53l1-1c-6.67-4.06-13.2-8.95-17.13-15.86-4.45-7.82-4.45-17.27-3.52-26,.89-8.33,3.56-16,9.46-22.14a33.85,33.85,0,0,1,19.63-10c1-.14.55-1.59-.4-1.45-16.72,2.41-28,15.88-30,32.21-1.13,9.18-1.25,19.25,3.28,27.6,4,7.39,10.91,12.62,18,16.9.61.37,1.47-.4,1-1a56.75,56.75,0,0,1,8.12-74.72c.71-.65-.35-1.7-1.06-1.06Z" transform="translate(-1222.54 -223.27)"/></g><g class="cls-3"><path class="cls-4" d="M1332.45,516.84a48.92,48.92,0,0,0,9.2,9.86,97.47,97.47,0,0,0,12.5,8.15l46.24,26.9c3.37,2,6.89,4.07,8.77,7.48,1.38,2.49,1.73,5.44,3,8a12.36,12.36,0,0,0,22.92-9.05c-2.51,2.17-2.8,6.21-5.43,8.22s-6.83,1-9.44-1.21-4.23-5.38-6.34-8.08c-5.11-6.53-12.89-10.29-20.29-14a489.23,489.23,0,0,1-58.8-35" transform="translate(-1222.54 -223.27)"/><path class="cls-4" d="M1331.8,517.22c7.89,10.94,19.56,16.88,31,23.51,13.08,7.6,26.45,14.86,39.28,22.87,3.81,2.38,6.28,4.92,7.76,9.22.77,2.25,1.28,4.47,2.69,6.43a13.79,13.79,0,0,0,10.57,5.56c8.82.32,14.83-8.62,12.72-16.82a.76.76,0,0,0-1.25-.34c-3.36,3.42-4,10.67-10.47,8.82-4.9-1.41-7.07-6.71-10.06-10.35-5.83-7.11-14.57-10.87-22.56-15a495.19,495.19,0,0,1-56.3-33.71c-.8-.55-1.55.74-.76,1.29a543.21,543.21,0,0,0,62,36.59c4.84,2.48,9.75,5.11,13.76,8.85,3.67,3.42,5.7,8.32,9.53,11.53,2.49,2.09,6.2,3.41,9.32,1.94,3.63-1.7,4-6.28,6.61-8.95l-1.25-.33c3.15,12.27-13,20.55-20.58,10-2.81-3.89-2.67-8.88-6.15-12.45-3.63-3.72-8.83-6-13.26-8.58l-32.11-18.68c-10.75-6.25-21.71-11.91-29.14-22.23-.56-.77-1.87,0-1.3.76Z" transform="translate(-1222.54 -223.27)"/></g></svg>