<svg id="Calque_1" data-name="Calque 1" xmlns="http://www.w3.org/2000/svg" viewBox="0 0 66.01 61.12"><defs><style>.cls-1{fill:none;}.cls-2{fill:#1d1d1b;}.cls-3{fill:#fff;stroke:#1d1d1b;stroke-miterlimit:10;stroke-width:0.5px;}.cls-4{fill:#f6f6f6;}.cls-5{opacity:0.38;}.cls-6{opacity:0.14;}</style></defs><title>mouche1</title><rect class="cls-1" width="66.01" height="61.12"/><path class="cls-2" d="M427.81,296.63c-3.09-.84-6.59-1.62-9.33,0a.72.72,0,0,0-.34.35c-.11.28.14.57.37.77a10.11,10.11,0,0,0,7.94,2.27,3.44,3.44,0,0,0,2.24-1,1.54,1.54,0,0,0-.2-2.23" transform="translate(-390.38 -268.89)"/><path class="cls-2" d="M428,295.91c-2.93-.78-6.22-1.57-9.13-.28-2.49,1.1-1.21,2.68.58,3.75a10.27,10.27,0,0,0,8.12,1.18c1.88-.63,3.08-2.73,1.44-4.3-.69-.67-1.76.39-1.06,1.06,1.78,1.7-2.41,2.09-2.81,2.1a9.66,9.66,0,0,1-2.08-.21c-.43-.1-4.16-1.24-4-1.95s3.37-.83,4-.8a23.1,23.1,0,0,1,4.6.89.75.75,0,0,0,.4-1.44Z" transform="translate(-390.38 -268.89)"/><circle class="cls-3" cx="37.36" cy="26.04" r="2.24"/><circle class="cls-3" cx="37.38" cy="31.97" r="2.24"/><path class="cls-2" d="M428.6,295.84a.75.75,0,0,0,0-1.5.75.75,0,0,0,0,1.5Z" transform="translate(-390.38 -268.89)"/><path class="cls-2" d="M428.77,301.68a.75.75,0,0,0,0-1.5.75.75,0,0,0,0,1.5Z" transform="translate(-390.38 -268.89)"/><path class="cls-4" d="M422.79,299a9.23,9.23,0,0,0-3.67,6.16,3,3,0,0,0,.22,1.85,3.34,3.34,0,0,0,1.14,1.07c.9.62,2,1.23,3,.8s1.36-1.67,1.52-2.76a9.94,9.94,0,0,0-.08-4.41c-.33-1.06-1-2.08-.88-3.19l-.42,0" transform="translate(-390.38 -268.89)"/><path class="cls-2" d="M422.52,298.69c-3.08,2.41-6.12,8.4-1,10.36a2.57,2.57,0,0,0,3.65-1.78,11.29,11.29,0,0,0,.44-4.16c-.13-1.63-1.09-3-1.15-4.64a.39.39,0,0,0-.37-.38l-.42,0c-.48-.05-.48.7,0,.75,0,0,.87,2.73.94,3a8.22,8.22,0,0,1,.24,2.83,15.7,15.7,0,0,1-.26,1.93q-.07,1.28-1.74,1.05c-.81.7-1.53.75-2.16.14a2.29,2.29,0,0,1-1.15-2.54,6.45,6.45,0,0,1,.62-2.27,9.34,9.34,0,0,1,2.91-3.68c.38-.3-.15-.83-.53-.53Z" transform="translate(-390.38 -268.89)"/><path class="cls-4" d="M421.3,299a9.2,9.2,0,0,0-6,4,2.93,2.93,0,0,0-.61,1.76,3.49,3.49,0,0,0,.56,1.46c.55.95,1.3,2,2.39,2s1.94-.92,2.57-1.83a10,10,0,0,0,1.83-4c.17-1.1,0-2.3.59-3.26l-.36-.22" transform="translate(-390.38 -268.89)"/><path class="cls-2" d="M421.2,298.63c-3.92.84-9.19,5-5.36,9,1.45,1.51,3.12,1,4.33-.53a12.49,12.49,0,0,0,1.71-2.82c.7-1.61.39-3.41,1.1-5a.38.38,0,0,0-.13-.51l-.36-.22c-.41-.25-.79.4-.38.65l.36.22-.13-.51c-.6,1.29-.4,2.61-.76,4s-2.41,5.82-4.58,4.73c-2.4-1.2-1.89-4.14-.34-5.73a9.14,9.14,0,0,1,4.74-2.54c.47-.1.27-.83-.2-.72Z" transform="translate(-390.38 -268.89)"/><path class="cls-4" d="M423.59,295.87a9.19,9.19,0,0,0,1.29-7.05,3,3,0,0,0-.85-1.66,3.37,3.37,0,0,0-1.44-.61c-1.06-.26-2.33-.44-3.12.31s-.68,2-.46,3.12a10,10,0,0,0,1.61,4.1c.68.88,1.65,1.61,1.95,2.68l.4-.1" transform="translate(-390.38 -268.89)"/><path class="cls-2" d="M423.92,296.05c2.1-3.44,2.76-10.81-3.26-10.07-1.88.23-2.32,1.82-2.12,3.5a11.79,11.79,0,0,0,1,3.43c.67,1.48,2.1,2.45,2.7,3.95a.39.39,0,0,0,.46.27l.4-.11a.37.37,0,0,0-.2-.72s-1.48-1.88-1.62-2.06a9.32,9.32,0,0,1-2-5.38c-.05-1.61,1.29-2.3,2.72-2.07a3.36,3.36,0,0,1,2.75,3.35,9.12,9.12,0,0,1-1.43,5.54c-.25.41.4.79.65.37Z" transform="translate(-390.38 -268.89)"/><path class="cls-4" d="M423.89,295.21a9.19,9.19,0,0,0-1.75-6.95,3,3,0,0,0-1.46-1.16,3.58,3.58,0,0,0-1.56,0c-1.08.2-2.3.57-2.71,1.58s.22,2.14.87,3a10,10,0,0,0,3.17,3.06c1,.52,2.16.79,2.88,1.64l.33-.27" transform="translate(-390.38 -268.89)"/><path class="cls-2" d="M424.27,295.21c.5-4.07-1.82-10.57-6.94-7.9-1.89,1-1.57,2.86-.53,4.4a11.77,11.77,0,0,0,2.46,2.76c1.18.93,2.72,1.19,3.8,2.25a.39.39,0,0,0,.53,0l.33-.27c.38-.31-.16-.83-.53-.53l-.33.27h.53c-1-1-2.3-1.24-3.43-2a8.87,8.87,0,0,1-1.93-1.84c-1-1.19-1.29-1.48-1-3,.27-1.41.6-1.65,2-1.83,1.8-.22,2.47.56,3.27,2a9.23,9.23,0,0,1,1,5.74c-.06.47.69.47.75,0Z" transform="translate(-390.38 -268.89)"/><g class="cls-5"><path class="cls-2" d="M423.73,288.18a3.24,3.24,0,0,0-4.78,3.13,5.41,5.41,0,0,0,1.4,2.85,7.85,7.85,0,0,1-3-2.58,2.73,2.73,0,0,1,.52-3.56c.85-.57,2-.43,2.87-1a2.17,2.17,0,0,1,.55-.36,1.31,1.31,0,0,1,.59,0,6.93,6.93,0,0,1,2,.66" transform="translate(-390.38 -268.89)"/><path class="cls-2" d="M423.82,288a3.49,3.49,0,0,0-4.5,1.12c-1.16,1.78-.29,3.66.9,5.15l.23-.29c-1.62-1-4.84-3.51-2.67-5.63.71-.69,1.87-.59,2.72-1a5.6,5.6,0,0,1,.89-.5,4,4,0,0,1,2.41.58c.22.1.41-.22.19-.32-1.21-.57-2.14-.95-3.3-.3s-2.74.46-3.52,1.73c-1.53,2.47,1.27,4.64,3.09,5.76.19.12.35-.13.22-.29-.89-1.13-1.69-2.48-1.2-4a3.1,3.1,0,0,1,4.35-1.73c.22.1.41-.22.19-.32Z" transform="translate(-390.38 -268.89)"/></g><g class="cls-5"><path class="cls-2" d="M420.36,299.55a3.84,3.84,0,0,0-2.5,2.46,3,3,0,0,0,1.1,3.23,1.48,1.48,0,0,0,1.07.28,2.14,2.14,0,0,0,1.2-.9,3.58,3.58,0,0,0,2.58,3.46,2.62,2.62,0,0,1-2.81,0c-.47-.31-.88-.79-1.44-.84a2.76,2.76,0,0,0-.89.14,3.46,3.46,0,0,1-2.9-.74,2.09,2.09,0,0,1-.68-.93,2.88,2.88,0,0,1,.82-2.56,13.19,13.19,0,0,1,2.38-2.28" transform="translate(-390.38 -268.89)"/><path class="cls-2" d="M420.31,299.37c-1.67.66-3,2.14-2.7,4.05a2.85,2.85,0,0,0,1.51,2.1,1.58,1.58,0,0,0,1,.18s1.2-.5,1-.59c.07,0,.78,1.86,1.06,2.16.14.14,1.17.81,1.17.82,0,.64-2.22-.29-2.69-.54a2.87,2.87,0,0,0-1-.47c-.8-.12-1.55.31-2.39.1a2.19,2.19,0,0,1-1.46-3.45,11.24,11.24,0,0,1,2.65-2.68c.19-.14,0-.47-.19-.32-1.61,1.24-4.89,4.07-2.51,6.1,1.47,1.25,3.29.4,4.88,1.18,1.22.6,2,.93,3.34.23a.19.19,0,0,0,0-.34,3.5,3.5,0,0,1-2.44-3.28c0-.16-.21-.27-.32-.14a2.38,2.38,0,0,1-2.36.34c-.66-.35-.84-1.73-.75-2.33a3.58,3.58,0,0,1,2.42-2.76c.22-.09.12-.45-.1-.36Z" transform="translate(-390.38 -268.89)"/></g><g class="cls-6"><path class="cls-2" d="M428.37,292.89a2.66,2.66,0,0,0-2.46,1,2.63,2.63,0,0,0,.58,2.75c.15.19.47,0,.33-.19a2.28,2.28,0,0,1-.58-2.37c.39-.76,1.38-.83,2.13-.84a.19.19,0,0,0,0-.38Z" transform="translate(-390.38 -268.89)"/></g><g class="cls-6"><path class="cls-2" d="M428.45,298.86a2.14,2.14,0,0,0-1.46,3.95l.09-.35a1.34,1.34,0,0,1-1.1-1.66,2.88,2.88,0,0,1,1.19-1.62c.19-.15,0-.48-.19-.33a2.92,2.92,0,0,0-1.4,2.49,1.66,1.66,0,0,0,1.5,1.5.19.19,0,0,0,.1-.35,1.77,1.77,0,0,1,1.17-3.27c.23,0,.33-.33.1-.36Z" transform="translate(-390.38 -268.89)"/></g></svg>