<svg id="Calque_1" data-name="Calque 1" xmlns="http://www.w3.org/2000/svg" viewBox="0 0 66.01 61.12"><defs><style>.cls-1{fill:none;}.cls-2{fill:#1d1d1b;}.cls-3{fill:#fff;stroke:#1d1d1b;stroke-miterlimit:10;stroke-width:0.5px;}.cls-4{fill:#f6f6f6;}.cls-5{opacity:0.38;}.cls-6{opacity:0.14;}</style></defs><title>mouche2</title><rect class="cls-1" x="390.38" y="268.89" width="66.01" height="61.12" transform="translate(456.39 330.01) rotate(180)"/><path class="cls-2" d="M419,302.27c3.09.83,6.6,1.62,9.33,0a.72.72,0,0,0,.35-.34c.1-.29-.14-.58-.37-.77a10.1,10.1,0,0,0-7.95-2.28,3.47,3.47,0,0,0-2.24,1.05,1.55,1.55,0,0,0,.2,2.22" transform="translate(-390.38 -268.89)"/><path class="cls-2" d="M418.75,303c2.94.78,6.23,1.57,9.13.28,2.5-1.11,1.22-2.69-.58-3.76a10.27,10.27,0,0,0-8.12-1.18c-1.87.63-3.08,2.74-1.44,4.3.7.67,1.76-.39,1.06-1.06-1.77-1.69,2.41-2.08,2.82-2.09a8.46,8.46,0,0,1,2.07.21c.44.09,4.17,1.24,4,1.95s-3.37.83-4,.79a23.37,23.37,0,0,1-4.6-.89.75.75,0,0,0-.4,1.45Z" transform="translate(-390.38 -268.89)"/><circle class="cls-3" cx="28.65" cy="35.08" r="2.24"/><circle class="cls-3" cx="28.63" cy="29.15" r="2.24"/><path class="cls-2" d="M418.17,304.56a.75.75,0,0,0,0-1.5.75.75,0,0,0,0,1.5Z" transform="translate(-390.38 -268.89)"/><path class="cls-2" d="M418,298.72a.75.75,0,0,0,0-1.5.75.75,0,0,0,0,1.5Z" transform="translate(-390.38 -268.89)"/><path class="cls-4" d="M424,299.94a9.2,9.2,0,0,0,3.66-6.15,3,3,0,0,0-.21-1.86,3.54,3.54,0,0,0-1.14-1.07c-.91-.62-2-1.22-3-.8s-1.35,1.68-1.52,2.77a10,10,0,0,0,.08,4.4c.33,1.07,1,2.08.89,3.2l.42,0" transform="translate(-390.38 -268.89)"/><path class="cls-2" d="M424.24,300.21c3.08-2.41,6.13-8.4,1-10.36a2.55,2.55,0,0,0-3.64,1.77,11.29,11.29,0,0,0-.44,4.16c.12,1.63,1.08,3,1.14,4.65a.39.39,0,0,0,.38.37l.42,0c.48.05.48-.7,0-.75-.05,0-.88-2.73-.94-3a8.2,8.2,0,0,1-.25-2.83,15.72,15.72,0,0,1,.27-1.93q.07-1.28,1.74-1.05c.8-.7,1.52-.74,2.16-.14a2.31,2.31,0,0,1,1.15,2.54,6.61,6.61,0,0,1-.62,2.27,9.33,9.33,0,0,1-2.92,3.69c-.38.29.16.82.53.53Z" transform="translate(-390.38 -268.89)"/><path class="cls-4" d="M425.47,299.91a9.27,9.27,0,0,0,6-4,3.1,3.1,0,0,0,.61-1.76,3.62,3.62,0,0,0-.56-1.47c-.55-.94-1.3-2-2.39-2s-2,.92-2.57,1.83a9.86,9.86,0,0,0-1.84,4c-.16,1.11,0,2.31-.58,3.27l.35.22" transform="translate(-390.38 -268.89)"/><path class="cls-2" d="M425.57,300.27c3.91-.85,9.18-5,5.35-9-1.44-1.52-3.11-1-4.33.52a12.49,12.49,0,0,0-1.71,2.82c-.69,1.61-.38,3.41-1.1,5a.38.38,0,0,0,.14.51l.36.22c.41.25.79-.4.37-.65l-.36-.22.14.52c.59-1.3.4-2.62.75-4s2.42-5.82,4.58-4.74c2.41,1.21,1.89,4.14.35,5.73a9.07,9.07,0,0,1-4.74,2.54c-.48.11-.28.83.2.73Z" transform="translate(-390.38 -268.89)"/><path class="cls-4" d="M423.17,303a9.2,9.2,0,0,0-1.28,7,3,3,0,0,0,.84,1.67,3.54,3.54,0,0,0,1.45.61c1.06.26,2.32.44,3.12-.32s.68-2,.46-3.12a9.88,9.88,0,0,0-1.62-4.09c-.68-.89-1.64-1.62-1.94-2.69l-.41.11" transform="translate(-390.38 -268.89)"/><path class="cls-2" d="M422.85,302.84c-2.1,3.45-2.77,10.82,3.25,10.07,1.89-.23,2.33-1.82,2.12-3.49a11.91,11.91,0,0,0-1-3.43c-.68-1.49-2.11-2.45-2.7-4a.38.38,0,0,0-.46-.26l-.41.1a.38.38,0,0,0,.2.73s1.48,1.87,1.63,2a9.37,9.37,0,0,1,2,5.38c0,1.61-1.29,2.31-2.72,2.07a3.36,3.36,0,0,1-2.76-3.35,9.17,9.17,0,0,1,1.44-5.53.38.38,0,0,0-.65-.38Z" transform="translate(-390.38 -268.89)"/><path class="cls-4" d="M422.87,303.69a9.26,9.26,0,0,0,1.75,6.94,3,3,0,0,0,1.46,1.16,3.34,3.34,0,0,0,1.57,0c1.07-.2,2.3-.56,2.71-1.58s-.22-2.14-.87-3a10.06,10.06,0,0,0-3.17-3.06c-1-.52-2.17-.78-2.88-1.64l-.33.27" transform="translate(-390.38 -268.89)"/><path class="cls-2" d="M422.5,303.69c-.5,4.06,1.81,10.56,6.94,7.89,1.89-1,1.56-2.86.53-4.39a11.62,11.62,0,0,0-2.46-2.77c-1.19-.92-2.72-1.19-3.81-2.24a.39.39,0,0,0-.53,0l-.33.26c-.37.31.16.84.54.53l.32-.26h-.53c1,1,2.3,1.23,3.44,2a9.06,9.06,0,0,1,1.93,1.83c1,1.19,1.29,1.48,1,3s-.6,1.66-2,1.83c-1.8.23-2.48-.56-3.28-2a9.13,9.13,0,0,1-1-5.73c.06-.48-.69-.48-.75,0Z" transform="translate(-390.38 -268.89)"/><g class="cls-5"><path class="cls-2" d="M423,310.71a3.23,3.23,0,0,0,4.78-3.13,5.48,5.48,0,0,0-1.4-2.85,8.1,8.1,0,0,1,2.95,2.58,2.76,2.76,0,0,1-.52,3.57c-.85.56-2,.42-2.87,1a2.17,2.17,0,0,1-.55.36,1.18,1.18,0,0,1-.59,0,6.83,6.83,0,0,1-2-.66" transform="translate(-390.38 -268.89)"/><path class="cls-2" d="M422.94,310.88a3.51,3.51,0,0,0,4.51-1.12c1.16-1.79.29-3.66-.9-5.16l-.23.29c1.62,1,4.84,3.52,2.67,5.63-.71.7-1.88.6-2.73,1a6.48,6.48,0,0,1-.88.51,4.12,4.12,0,0,1-2.42-.59c-.21-.1-.41.23-.19.33,1.22.56,2.15.94,3.3.29s2.75-.46,3.53-1.72c1.53-2.48-1.28-4.65-3.09-5.77-.19-.12-.35.14-.23.29.89,1.13,1.7,2.48,1.2,4a3.08,3.08,0,0,1-4.35,1.72c-.22-.1-.41.23-.19.33Z" transform="translate(-390.38 -268.89)"/></g><g class="cls-5"><path class="cls-2" d="M426.41,299.34a3.82,3.82,0,0,0,2.49-2.46,3,3,0,0,0-1.09-3.22,1.56,1.56,0,0,0-1.08-.29,2.17,2.17,0,0,0-1.19.91,3.57,3.57,0,0,0-2.58-3.46,2.6,2.6,0,0,1,2.81,0c.47.31.88.79,1.44.84a3,3,0,0,0,.88-.13,3.42,3.42,0,0,1,2.9.73,2.22,2.22,0,0,1,.69.94,2.9,2.9,0,0,1-.82,2.55,12.84,12.84,0,0,1-2.38,2.28" transform="translate(-390.38 -268.89)"/><path class="cls-2" d="M426.46,299.52a3.78,3.78,0,0,0,2.69-4,2.83,2.83,0,0,0-1.5-2.11,1.62,1.62,0,0,0-1-.18s-1.19.5-1,.59c-.07,0-.77-1.86-1.06-2.15-.13-.14-1.17-.81-1.17-.82,0-.65,2.23.28,2.7.53a3,3,0,0,0,1,.48c.8.12,1.55-.32,2.4-.11a2.19,2.19,0,0,1,1.45,3.45,10.88,10.88,0,0,1-2.65,2.68c-.19.14,0,.47.19.32,1.61-1.24,4.89-4.07,2.52-6.09-1.48-1.26-3.3-.41-4.88-1.19-1.22-.6-2-.92-3.35-.23a.19.19,0,0,0,.05.35,3.51,3.51,0,0,1,2.44,3.28.19.19,0,0,0,.32.13,2.4,2.4,0,0,1,2.36-.34c.65.35.83,1.73.74,2.34a3.54,3.54,0,0,1-2.41,2.75c-.22.09-.12.45.1.36Z" transform="translate(-390.38 -268.89)"/></g><g class="cls-6"><path class="cls-2" d="M418.39,306a2.15,2.15,0,0,0,1.88-3.78c-.14-.18-.47,0-.32.19a2.32,2.32,0,0,1,.58,2.37c-.4.76-1.38.83-2.14.84a.19.19,0,0,0,0,.38Z" transform="translate(-390.38 -268.89)"/></g><g class="cls-6"><path class="cls-2" d="M418.32,300a2.15,2.15,0,0,0,1.46-4l-.1.35a1.34,1.34,0,0,1,1.11,1.67,3,3,0,0,1-1.19,1.62c-.19.14,0,.47.19.32a2.87,2.87,0,0,0,1.39-2.48,1.66,1.66,0,0,0-1.5-1.5c-.19,0-.24.25-.09.34a1.77,1.77,0,0,1-1.17,3.27c-.24,0-.34.33-.1.37Z" transform="translate(-390.38 -268.89)"/></g></svg>