<svg id="Calque_1" data-name="Calque 1" xmlns="http://www.w3.org/2000/svg" viewBox="0 0 769.41 73"><defs><style>.cls-1{fill:#951b81;}.cls-2{fill:#1d1d1b;}.cls-3{fill:#ffed00;}.cls-4{fill:#d60b52;}.cls-5{fill:#f39200;}.cls-6{fill:#009688;}.cls-7{fill:#be1622;}.cls-8{fill:#36a9e1;}.cls-9{fill:#008d36;}.cls-10{fill:#e6adb3;}.cls-11{fill:#662483;}</style></defs><title>numerotel</title><path class="cls-1" d="M1070.63,576.61c.08,6.93.24,18.29.24,20.79,0,1.76-16,2.13-16.25.14s.62-23-.24-20.79c-.56,1.4-17.29,1.87-19.79,1.87-1.76,0-2.13-16-.14-16.25s20.17-.24,20.17-.24c-1.12-4.39-.24-18.29-.24-20.79,0-1.76,16-2.13,16.25-.15s1.26,16.81.24,20.8c0,0,18.65-1.3,21.15-1.3,1.76,0,1.3,14.64-.69,14.88S1079.66,578.2,1070.63,576.61Z" transform="translate(-1032.1 -530.58)"/><path class="cls-2" d="M1069.63,576.61c.07,6.11.16,12.22.22,18.33,0,.44.07,2.18.11,2.11s-1.32.33-1.77.41a35.44,35.44,0,0,1-6.34.42,34.81,34.81,0,0,1-5.86-.55c-.68-.13-.36.25-.4-.37s0-1.4,0-2.09c0-4.19.17-8.39.19-12.59,0-1.08.75-6.7-1.28-6.69-.55,0-.58.43-1,.61.13-.06-1,.24-1.38.3a51.46,51.46,0,0,1-6.67.69q-3.46.22-6.93.34l-2.69.07a5.35,5.35,0,0,1-.8,0c-.56-.08.12.43-.14-.06-.77-1.54-.68-3.84-.76-5.5a37.54,37.54,0,0,1,.17-6.62,4.75,4.75,0,0,1,.54-2.21c-.24.28-.2.13.26.09s.74,0,1.11,0c2.31-.07,4.63-.09,6.94-.1,3.82,0,7.63,0,11.44,0a1,1,0,0,0,1-1.27c-1.25-5.41-.52-11.58-.31-17.08,0-.91.08-1.83.1-2.74,0-.73-.2-.21,0-.33a3,3,0,0,1,1-.3,30.25,30.25,0,0,1,6.78-.56c1.91,0,4.43-.16,6.23.6.62.26.16-.18.28.08a3.92,3.92,0,0,1,.1,1.09c.08,1,.14,2,.2,2.94.32,5.14,1.12,11.09-.06,16.16a1,1,0,0,0,1,1.27c3.47-.24,7-.48,10.42-.7,2.44-.16,4.88-.32,7.33-.45.78-.05,1.62,0,2.39-.12a2.28,2.28,0,0,1,.86,0c-.54-.28-.18,0-.12.35a29.63,29.63,0,0,1,.32,6.24c-.06,1.49.11,5-1,6.21-.71.78-5.29,1-6.71,1.2a47.93,47.93,0,0,1-13.48-.05c-1.26-.2-1.8,1.72-.53,1.93,6.75,1.09,13.38.32,20.05-.84,1.38-.24,2.09-.46,2.65-1.82a17.66,17.66,0,0,0,.94-5.4c.15-2.06,1-8.32-1.31-9.63-.94-.53-2.65-.12-3.67-.07-2.23.12-4.45.27-6.68.41q-5.73.36-11.47.77l1,1.26c1.08-4.64.49-9.88.25-14.59-.13-2.49.69-7.23-2.3-8.18-3.74-1.19-8.53-.8-12.36-.27-1.09.15-2.9.26-3.67,1.21s-.44,3.17-.48,4.36c-.22,5.71-.92,12,.38,17.62l1-1.27c-3.9,0-7.8,0-11.7,0-2.33,0-4.66,0-7,.11-1.19,0-2.21,0-2.87,1.11-.85,1.46-.82,3.65-.89,5.28a44.28,44.28,0,0,0,.26,7.55c.15,1.2.24,3.31,1.36,4.1s3,.25,4.11.22c5-.15,10.23-.11,15.12-1.18a4.65,4.65,0,0,0,1.67-.56c1.36-1-.85-.91-1-.61a6.24,6.24,0,0,0,.09,1.76c0,1.11,0,2.22,0,3.32,0,4.62-.23,9.23-.19,13.85,0,1.12-.08,2.09,1,2.76,1.43.91,3.74.87,5.37.94a43,43,0,0,0,8-.32c1.31-.19,3.4-.35,3.88-1.84a11.57,11.57,0,0,0,0-3.22c0-1.81,0-3.63-.06-5.44,0-4.14-.11-8.27-.15-12.4A1,1,0,0,0,1069.63,576.61Z" transform="translate(-1032.1 -530.58)"/><path class="cls-3" d="M1112.7,580.4c-.54,7.6,13.27,13.19,18.52,6.15,2.74-3.67,3.38-8.14-.15-11.37-3.86-3.54-6.76-3.11-11.27-3.18a77.05,77.05,0,0,1-.3-9.09c4.65-.18,8.37-.62,11-4.94a8.86,8.86,0,0,0-.85-10.85c-6-6.85-15,.15-15.14,7.77l-.31.31h-12.29l-.62-.93c-.66-1.18.52-5.81,1-7.37a14.14,14.14,0,0,1,4.38-6.39c4-3.5,10.43-5.45,15.61-6.21,4.89-.71,11,.72,15.61,2.29,6.7,2.27,9,6.92,9.23,13.63.25,7-4.88,15-12.37,15.75,6.52-.82,12.25,6.26,13.75,12.46,1.61,6.64-1.78,12.82-6.59,17.29-7.34,6.82-28.61,6.51-37-.54-2.89-2.45-7.48-8-7-15.39l.31-.31c4.17,0,8.51.93,12.6.62Z" transform="translate(-1032.1 -530.58)"/><path class="cls-2" d="M1111.7,580.4c-.27,8.3,11.76,13,18.13,8.82,3.74-2.46,5.91-8.09,3.86-12.23-2.7-5.46-8.59-5.93-13.89-6l1,1a83.66,83.66,0,0,1-.3-9.09l-1,1c4.09-.17,8.16-.69,10.91-4a10.22,10.22,0,0,0,.66-12.59c-5.37-7.45-15.06-2.84-17.13,4.85-.11.42-.14,2.06-.26,2.21s-2.94-.13-3.28-.13h-4.56a13.81,13.81,0,0,0-1.93,0c-1,.13-1.11.44-1.52-.13-.88-1.2.09-3.85.4-5.13a14.27,14.27,0,0,1,4-7.21c4.16-4,10.63-6,16.26-6.53a31.27,31.27,0,0,1,17.4,3.64c10.25,6,5.81,24.62-5.72,26.13-1.24.16-1.3,2.11,0,2,7.92-.67,13.77,9.07,13.1,16.14s-6.39,13.24-13.08,15.2c-10.62,3.12-26.25,1.94-32.88-8.09a18.28,18.28,0,0,1-2.45-5.35,21.56,21.56,0,0,1-.53-3.47c-.13-1.25-.08-1,1.13-.87,4.08.37,8.37.17,12.38.84,1.26.21,1.8-1.72.53-1.93a27,27,0,0,0-4.32-.29c-2.88,0-5.73-.48-8.59-.62-1.39-.07-2.55-.3-3.09,1.13-.67,1.74.32,5.13.87,6.78a21.17,21.17,0,0,0,14.27,13.47c13.82,4.27,35,1.71,37.63-15.77,1.28-8.37-5.55-20-15-19.17v2c9.68-1.27,14.57-11.36,13-20.3a13.33,13.33,0,0,0-6.84-9.87,35.26,35.26,0,0,0-16.24-3.68c-10.11.16-21.56,5.33-24,15.86-.35,1.54-1,3.69-.48,5.28.6,2,1.78,1.94,3.66,1.94h9.27c2.38,0,2.14-.91,2.54-2.93,1.18-5.92,8.43-11,13.25-5.44a8.32,8.32,0,0,1-.87,11.59c-2.34,2.17-5.56,2.36-8.6,2.49a1,1,0,0,0-1,1,83.66,83.66,0,0,0,.3,9.09,1,1,0,0,0,1,1c4.32,0,8.6.08,11.47,3.91,2.66,3.55.49,9.25-3.33,11.09-5.17,2.48-14.45-1.16-14.24-7.6C1113.74,579.12,1111.74,579.12,1111.7,580.4Z" transform="translate(-1032.1 -530.58)"/><path class="cls-4" d="M1165.36,579.22c-.53,7.6,13.27,13.19,18.53,6.15,2.74-3.67,3.37-8.14-.15-11.38-3.86-3.53-6.76-3.1-11.28-3.18a79,79,0,0,1-.29-9.08c4.65-.18,8.37-.62,11-4.94a8.84,8.84,0,0,0-.84-10.85c-6-6.85-15,.15-15.14,7.76l-.31.31h-12.3l-.61-.92c-.67-1.19.52-5.81,1-7.38a14.25,14.25,0,0,1,4.38-6.39c4-3.49,10.43-5.45,15.61-6.2,4.89-.72,11,.72,15.61,2.28,6.7,2.28,9,6.93,9.22,13.63.26,7-4.87,15-12.36,15.76,6.51-.82,12.24,6.26,13.75,12.46,1.61,6.63-1.78,12.81-6.6,17.29-7.33,6.81-28.6,6.51-36.95-.55-2.89-2.44-7.48-8-7-15.38l.3-.31c4.18,0,8.52.93,12.61.61Z" transform="translate(-1032.1 -530.58)"/><path class="cls-2" d="M1164.36,579.22c-.26,8.3,11.76,13,18.14,8.81,3.73-2.45,5.91-8.08,3.86-12.22-2.7-5.46-8.59-5.94-13.9-6l1,1a86,86,0,0,1-.29-9.08l-1,1c4.08-.17,8.15-.7,10.9-4.05a10.24,10.24,0,0,0,.67-12.6c-5.38-7.44-15.07-2.83-17.13,4.86-.12.42-.14,2.06-.26,2.21s-2.95-.14-3.28-.14h-4.56a15.7,15.7,0,0,0-1.94,0c-1,.14-1.1.45-1.52-.12-.87-1.2.1-3.85.41-5.13a14.19,14.19,0,0,1,4-7.21c4.15-4,10.63-6,16.25-6.53a31.29,31.29,0,0,1,17.41,3.63c10.25,6.05,5.81,24.62-5.72,26.14-1.24.16-1.31,2.11,0,2,7.92-.68,13.77,9.07,13.09,16.14s-6.39,13.24-13.07,15.2c-10.62,3.11-26.26,1.93-32.88-8.09a18.3,18.3,0,0,1-2.46-5.35,22.67,22.67,0,0,1-.53-3.48c-.12-1.24-.07-1,1.13-.86,4.09.37,8.37.17,12.39.83,1.26.21,1.8-1.71.53-1.92a27.08,27.08,0,0,0-4.33-.29c-2.87,0-5.72-.48-8.59-.62-1.38-.07-2.54-.3-3.09,1.12-.66,1.74.33,5.14.88,6.79a21.09,21.09,0,0,0,14.27,13.46c13.81,4.27,35,1.72,37.63-15.77,1.28-8.36-5.55-20-15-19.16v2c9.68-1.27,14.56-11.36,13-20.31a13.33,13.33,0,0,0-6.84-9.86,35.27,35.27,0,0,0-16.24-3.69c-10.11.17-21.57,5.33-24,15.86-.35,1.55-1,3.69-.49,5.28.6,2,1.78,1.94,3.66,1.94h9.27c2.39,0,2.14-.91,2.55-2.92,1.18-5.92,8.42-11,13.25-5.45a8.34,8.34,0,0,1-.87,11.6c-2.34,2.17-5.57,2.36-8.6,2.49a1,1,0,0,0-1,1,86,86,0,0,0,.29,9.08,1,1,0,0,0,1,1c4.32.05,8.61.09,11.48,3.92,2.65,3.55.49,9.25-3.33,11.08-5.17,2.48-14.45-1.15-14.25-7.59C1166.4,577.93,1164.4,577.93,1164.36,579.22Z" transform="translate(-1032.1 -530.58)"/><path class="cls-5" d="M1385.3,597.56c0-3.58-.08-9.13-.28-13.37-.77-16.3.26-32.46.28-48.73v-.3c-5.2,0-7.27-.73-12.3,0a154.13,154.13,0,0,0-13.52,7.48c-2.2,1.49-6.9,4-7.84,5.43l-.15.31c0,4,.19,7.92.33,12,9.2-5.19,13.88-7.26,18.73-10.42,0,12.3-1.27,24.71-.07,36.88.32,3.23.65,7.59.68,10.16Z" transform="translate(-1032.1 -530.58)"/><path class="cls-2" d="M1386.3,597.56c0-10.1-.63-20.19-.55-30.29.09-10.71.55-21.41.55-32.11a1,1,0,0,0-1-1c-4.06,0-9.22-1.25-13.09.28a76,76,0,0,0-12.42,6.8c-2.75,1.76-6.54,3.34-8.65,5.86-1,1.16-.65,2.63-.63,4.06.06,3.05.2,6.11.31,9.17a1,1,0,0,0,1.51.86c6.21-3.5,12.73-6.55,18.72-10.41l-1.5-.87c0,8.44-.6,16.86-.59,25.29,0,7.28,1.06,14.48,1.2,21.75a1,1,0,0,0,1,1l14.14.61c1.29.06,1.29-1.94,0-2l-14.14-.61,1,1c-.14-7.27-1.19-14.47-1.2-21.75,0-8.43.56-16.85.59-25.29a1,1,0,0,0-1.51-.86c-6,3.87-12.51,6.92-18.72,10.41l1.5.87c-.08-2.45-.19-4.89-.26-7.34,0-1.63-.69-3.9.6-5,2.51-2.25,5.93-4,8.81-5.71a92.16,92.16,0,0,1,10.67-5.76c3.66-1.6,8.78-.33,12.66-.31l-1-1c0,10.7-.46,21.4-.55,32.11-.08,10.1.54,20.19.55,30.29A1,1,0,0,0,1386.3,597.56Z" transform="translate(-1032.1 -530.58)"/><path class="cls-6" d="M1459.16,598.36c0-3.58-.08-9.13-.28-13.37-.77-16.3.26-32.46.28-48.73V536c-5.2,0-7.27-.73-12.3,0a154.13,154.13,0,0,0-13.52,7.48c-2.2,1.5-6.9,4-7.84,5.44l-.15.3c0,4.05.19,7.93.33,12,9.2-5.18,13.88-7.25,18.73-10.41,0,12.3-1.27,24.71-.07,36.87.32,3.24.65,7.6.68,10.16Z" transform="translate(-1032.1 -530.58)"/><path class="cls-2" d="M1460.16,598.36c0-10.11-.63-20.19-.55-30.3.09-10.7.55-21.4.55-32.11a1,1,0,0,0-1-1c-4.06,0-9.22-1.24-13.09.29a76.43,76.43,0,0,0-12.42,6.8c-2.75,1.76-6.54,3.33-8.65,5.86-1,1.16-.65,2.62-.63,4.05.06,3.06.2,6.12.31,9.17a1,1,0,0,0,1.51.87c6.21-3.5,12.73-6.55,18.72-10.42l-1.5-.86c0,8.43-.6,16.86-.59,25.29,0,7.28,1.06,14.48,1.2,21.74a1,1,0,0,0,1,1l14.14.62c1.29.06,1.29-1.94,0-2l-14.14-.62,1,1c-.14-7.26-1.19-14.46-1.2-21.74,0-8.43.56-16.86.59-25.29a1,1,0,0,0-1.51-.86c-6,3.86-12.51,6.92-18.72,10.41l1.5.86c-.08-2.44-.19-4.89-.26-7.33-.05-1.64-.69-3.9.6-5,2.51-2.25,5.93-4,8.81-5.71a92.16,92.16,0,0,1,10.67-5.76c3.66-1.6,8.78-.33,12.66-.32l-1-1c0,10.71-.46,21.41-.55,32.11-.08,10.11.54,20.19.55,30.3A1,1,0,0,0,1460.16,598.36Z" transform="translate(-1032.1 -530.58)"/><path class="cls-7" d="M1570.14,599.61a5.61,5.61,0,0,0-.82,0c2.94.06,6,.52,9,.62,15.84.5,25.92.13,38.86-.36a72,72,0,0,0-.39-11.29c-4.66-.17-9.36.2-14,0-2.51-.13-9.76.64-11.08-.31h-.61c7.32-6.33,15.48-12.48,20.6-20.91,4-6.66,7.09-12.06,4.76-19.85-2.51-8.4-8.56-11.6-16.87-13-6.65-1.16-14.17,0-19.63,4-4.44,3.29-10.26,8.6-9.77,18.13l.31.31c4-.4,8.78.84,12.91-.61,1.83-4,2.44-9.13,8-10.15,4.91-.91,8.68.67,9.67,5.72,1.17,6-.92,9.29-4.53,13.72s-7.08,9.28-11.43,13.31c-4.87,4.51-10.79,10.87-15.86,14.29l-.31.92c-.57,1.3-.3,3.55-.3,5.23Z" transform="translate(-1032.1 -530.58)"/><path class="cls-2" d="M1570.14,598.61h-.82a1,1,0,0,0,0,2c4.59.15,9.14.64,13.74.75q5.94.12,11.87.1c7.41,0,14.81-.31,22.22-.59a1,1,0,0,0,1-1,76,76,0,0,0-.39-11.29,1,1,0,0,0-1-1c-5.32-.15-10.75-.18-16.07,0-1.91.06-3.83.19-5.75.16-1.35,0-2.59-.48-3.89-.48l.71,1.71c6.25-5.39,12.88-10.51,18-17.08,4.5-5.82,9.22-13.41,8.38-21.07a18.39,18.39,0,0,0-9.73-14.68,31.08,31.08,0,0,0-20.52-2.35,26.58,26.58,0,0,0-15.19,10.38,19.38,19.38,0,0,0-3.4,8.86c-.13,1.12-.6,3.31.18,4.27s2.21.51,3.32.52c1.91,0,3.83.22,5.74.19,1.41,0,4.34,0,5.47-.94.77-.67,1.09-2.31,1.44-3.23a14.54,14.54,0,0,1,2.4-4.66c2.19-2.46,7-3.2,9.81-1.28,3.18,2.18,3.28,7.56,2.09,10.85-1.58,4.34-5.42,8-8.26,11.59a112.68,112.68,0,0,1-9.88,10.5c-3.32,3.22-6.57,6.54-10.16,9.46-1.33,1.08-2.8,1.67-3.38,3.29-.66,1.87-.46,3.79-.42,5.74a1,1,0,0,0,.73,1l1.54.31c1.26.25,1.79-1.68.53-1.93l-1.54-.31.74,1c0-1.53-.45-3.81.35-5.2.57-1,2.2-1.87,3.16-2.66,3.05-2.52,5.87-5.32,8.7-8.08s5.68-5.31,8.24-8.26c2.73-3.14,5.28-6.47,7.87-9.74,3.61-4.56,5.93-10.16,3.42-15.91-2.09-4.77-8.36-5.76-12.7-3.47-2.27,1.2-3.56,3.35-4.52,5.65-.45,1.06-.83,3.23-1.82,3.9-1.47,1-5,.45-6.71.37-.95,0-1.9-.1-2.84-.11a7.82,7.82,0,0,0-1.75.22,16.09,16.09,0,0,1,.18-2.25,17.81,17.81,0,0,1,.61-3.32,18.93,18.93,0,0,1,5.15-8.23,25,25,0,0,1,19.86-7.12c6.52.51,13.64,2.83,17,8.83,4.89,8.64.89,17.17-4.17,24.62s-12.52,13.11-19.34,19a1,1,0,0,0,.71,1.71c1.06,0,2.21.43,3.33.47,2,.07,4-.07,6-.14,5.41-.18,10.93-.15,16.34,0l-1-1a76,76,0,0,1,.39,11.29l1-1c-7.41.28-14.81.55-22.22.59q-5.94,0-11.87-.1c-4.6-.11-9.15-.6-13.74-.75v2h.82A1,1,0,0,0,1570.14,598.61Z" transform="translate(-1032.1 -530.58)"/><path class="cls-8" d="M1307.5,579.22c-.53,7.6,13.28,13.19,18.53,6.15,2.74-3.67,3.38-8.14-.15-11.38-3.86-3.53-6.76-3.1-11.28-3.18a79,79,0,0,1-.29-9.08c4.65-.18,8.37-.62,11-4.94a8.84,8.84,0,0,0-.84-10.85c-6-6.85-15,.15-15.14,7.76l-.31.31h-12.3l-.61-.92c-.67-1.19.52-5.81,1-7.38a14.25,14.25,0,0,1,4.38-6.39c4-3.49,10.43-5.45,15.61-6.2,4.89-.72,11,.72,15.61,2.28,6.7,2.28,9,6.93,9.22,13.63.26,7-4.87,15-12.36,15.76,6.52-.82,12.24,6.26,13.75,12.46,1.61,6.63-1.78,12.81-6.6,17.29-7.33,6.81-28.6,6.51-37-.55-2.89-2.44-7.48-8-7-15.38l.31-.31c4.17,0,8.51.93,12.6.61Z" transform="translate(-1032.1 -530.58)"/><path class="cls-2" d="M1306.5,579.22c-.26,8.3,11.77,13,18.14,8.81,3.73-2.45,5.91-8.08,3.86-12.22-2.7-5.46-8.59-5.94-13.9-6l1,1a86,86,0,0,1-.29-9.08l-1,1c4.08-.17,8.15-.7,10.9-4.05a10.22,10.22,0,0,0,.67-12.6c-5.37-7.44-15.06-2.83-17.13,4.86-.12.42-.14,2.06-.26,2.21s-3-.14-3.28-.14h-4.56a15.7,15.7,0,0,0-1.94,0c-1,.14-1.1.45-1.52-.12-.87-1.2.1-3.85.41-5.13a14.19,14.19,0,0,1,4-7.21c4.16-4,10.63-6,16.25-6.53a31.28,31.28,0,0,1,17.41,3.63c10.25,6.05,5.81,24.62-5.72,26.14-1.24.16-1.3,2.11,0,2,7.92-.68,13.77,9.07,13.1,16.14s-6.39,13.24-13.08,15.2c-10.62,3.11-26.26,1.93-32.88-8.09a18.57,18.57,0,0,1-2.46-5.35,22.65,22.65,0,0,1-.52-3.48c-.13-1.24-.08-1,1.12-.86,4.09.37,8.37.17,12.39.83,1.26.21,1.8-1.71.53-1.92a27,27,0,0,0-4.32-.29c-2.88,0-5.73-.48-8.6-.62-1.38-.07-2.54-.3-3.08,1.12-.67,1.74.32,5.14.87,6.79a21.11,21.11,0,0,0,14.27,13.46c13.81,4.27,35,1.72,37.63-15.77,1.28-8.36-5.55-20-15-19.16v2c9.68-1.27,14.56-11.36,13-20.31a13.33,13.33,0,0,0-6.84-9.86,35.27,35.27,0,0,0-16.24-3.69c-10.11.17-21.56,5.33-24,15.86-.35,1.55-1,3.69-.48,5.28.6,2,1.77,1.94,3.65,1.94H1308c2.38,0,2.14-.91,2.54-2.92,1.18-5.92,8.43-11,13.25-5.45a8.34,8.34,0,0,1-.87,11.6c-2.34,2.17-5.57,2.36-8.6,2.49a1,1,0,0,0-1,1,86,86,0,0,0,.29,9.08,1,1,0,0,0,1,1c4.33.05,8.61.09,11.48,3.92,2.65,3.55.49,9.25-3.33,11.08-5.17,2.48-14.45-1.15-14.25-7.59C1308.54,577.93,1306.54,577.93,1306.5,579.22Z" transform="translate(-1032.1 -530.58)"/><path class="cls-4" d="M1757.36,534.39c-1.35,2.2-.84,5.65-1,8.23-.17,3.06-.67,6.2-1.09,9.23-.51,3.63-.77,7.33-1.23,11-.32,2.46-1.4,5.67-.88,8.09a28,28,0,0,0,7.2-.2,29.61,29.61,0,0,0,3.13-.07c2.28-.49,1.19-.22,2.5-1.7,3-3.43,6.9-5.16,11.83-3.87,10,2.6,10.45,21.87-.42,23.41-4.85.68-11.18-4.28-10.53-9.5-4.93-.22-10,.16-15,.29-.24,2.81,1.68,8.76,3.25,11.05,2.51,3.66,5.84,5.17,9.88,6.22a44.89,44.89,0,0,0,21.58-.1c7.6-2.18,11.75-10.91,13.5-18,2.09-8.47-1.6-15-8.28-19.48a20.52,20.52,0,0,0-12.78-4c-4.22,0-8.42,2.16-12.38,1.75-.25-3.1-.25-9.24,1-12.15,8.34-.47,16.76.35,25.1-.05,2-.1,3.63.25,4.32-1.56.31-.81-.25-4.22-.3-5.29-.24-5.3-2.16-5.22-7.1-4.53-3.7.53-8.83-.3-12.29.93Z" transform="translate(-1032.1 -530.58)"/><path class="cls-2" d="M1756.5,533.89c-1.22,2.32-1.08,4.83-1.1,7.38a90.27,90.27,0,0,1-1.21,11.23c-.47,3.58-.64,7.2-1.21,10.77-.43,2.68-1.19,5.2-.78,7.93a1,1,0,0,0,1,.74,35.22,35.22,0,0,0,6.73-.15c1.57-.13,3.19.13,4.73-.35a2.73,2.73,0,0,0,1.51-1,17.25,17.25,0,0,1,3.49-3.33,9.37,9.37,0,0,1,13.93,5c1.51,4.12,1.29,9.67-1.79,13-4.74,5.18-14.39.79-13.89-6.14a1,1,0,0,0-1-1c-5-.19-10,.14-15,.29a1,1,0,0,0-1,1c-.31,7.05,3.82,14.41,10.37,17.1a40.09,40.09,0,0,0,26.24.83c7.2-2.46,11.17-10.08,13.15-17,2.21-7.68.35-15-5.83-20.25a24,24,0,0,0-12.28-5.82,22.2,22.2,0,0,0-6.71.11c-3.07.53-6,1.62-9.17,1.42l1,1c-.28-3.86-.44-8.22.94-11.89l-1,.74c4.82-.25,9.65-.11,14.48,0,4.24.09,9,.59,13.17-.15,2.4-.43,3-2.23,2.81-4.41s0-5.45-1.26-7.41c-1.06-1.68-3-1.86-4.78-1.74-3.68.26-7.37.31-11,.56-1.82.13-3.45.65-5.26.68l-6.14.1-12.22.18a1,1,0,0,0,0,2l18.89-.29c1.37,0,2.57-.45,4-.6,3.22-.36,6.47,0,9.7-.37,2.36-.29,5.06-1,5.67,2,.37,1.81,1.35,6.57-.6,7.36-1.58.63-4.43.19-6.11.21-2.26,0-4.51,0-6.77-.07-4.83-.1-9.66-.24-14.48,0a1,1,0,0,0-1,.73c-1.44,3.82-1.3,8.4-1,12.42a1,1,0,0,0,1,1c4,.25,7.62-1.49,11.54-1.73a20,20,0,0,1,11.41,2.77c6.47,3.83,11.15,10.08,9.84,17.92-1.05,6.31-4.24,13.63-9.75,17.25-3.27,2.14-7.59,2.61-11.41,2.82a44.16,44.16,0,0,1-11.92-.9c-4.08-.92-8.14-2.54-10.49-6.22a19.41,19.41,0,0,1-3-10.35l-1,1c5-.15,10-.48,15-.29l-1-1c-.4,5.5,5,10.39,10.34,10.55,4.42.14,7.91-3.07,9.34-7,3.1-8.61-2-20.07-12.36-18.75a13.09,13.09,0,0,0-8.27,4.91c-1.11,1.34-2.45,1-4.18,1-2.57.07-5,.5-7.58.21l1,.73c-.42-2.75.63-5.57,1-8.28.44-3.42.68-6.86,1.14-10.27.39-2.85.86-5.7,1.07-8.58s-.43-6.07.91-8.64C1758.82,533.76,1757.1,532.75,1756.5,533.89Z" transform="translate(-1032.1 -530.58)"/><path class="cls-9" d="M1733.3,553c.91-5.11-6.78-10.46-12-8.25-7.08,3-8.61,19.32-8.61,19.32,5.84-9.23,15.15-9,23.91-6.38,13.9,4.22,11.13,15.13,11.13,23.28,0,11.22-12,19.59-25.75,19.06-7.84-.3-14.86-3.64-19.15-10.39-3.86-6.09-4-15.56-4-22.74,0-7.73,2.51-12.63,5.31-19.36,3-7.26,8.68-10.32,16-12a26.51,26.51,0,0,1,17.2,1.75c7.49,3.19,6.41,6.36,10.4,15.14Zm-12.6,14.45c-9.09,1.55-9.51,16.32-2.77,20.76,9.24,6.08,17.69-3.49,15.92-12.77-.76-4-7.41-9.22-13.15-8" transform="translate(-1032.1 -530.58)"/><path class="cls-2" d="M1734.3,553c.52-4.26-3.19-7.77-6.9-9.12a8.53,8.53,0,0,0-10,2.83c-3.72,4.69-5.1,11.51-5.66,17.36-.11,1.06,1.36,1.26,1.86.5,4.2-6.37,10.85-8.34,18.16-7,6.13,1.08,12.74,3.56,14.58,10.12,1.25,4.47.7,9.68.41,14.26-.42,6.64-5.43,11.78-11.2,14.5a28.46,28.46,0,0,1-21,1.27,20.89,20.89,0,0,1-13.59-15.8,59.1,59.1,0,0,1-1.06-11.34,41.35,41.35,0,0,1,1-11.58,77.8,77.8,0,0,1,4.17-11,17.77,17.77,0,0,1,6.53-8c7.63-5,17.69-5.32,25.87-1.57a10.82,10.82,0,0,1,5.82,5.45c1.36,2.94,2.27,6.09,3.6,9.06l.86-1.51-14.45.62c-1.28,0-1.29,2,0,2l14.45-.62a1,1,0,0,0,.87-1.5c-2.5-5.59-3.39-11.79-9.29-14.82a29.42,29.42,0,0,0-25-.78,20.2,20.2,0,0,0-8.44,6.25c-2.48,3.24-3.88,7.38-5.35,11.16-3.17,8.16-3.24,17.05-2,25.65,1.1,7.93,4.78,15,12.09,18.78,6.91,3.62,15.52,3.78,22.83,1.27,6.4-2.19,12.38-6.74,14.54-13.37.94-2.88.79-5.91.91-8.89a38.29,38.29,0,0,0-.3-8.56c-1.46-7.89-8.36-11.4-15.65-12.86-8.44-1.68-16.2.45-21.08,7.85l1.87.51a39.21,39.21,0,0,1,3.43-13.17c1.39-2.86,3.52-5.75,7-5.66,3.9.11,8.65,3.51,8.13,7.76C1732.15,554.24,1734.15,554.23,1734.3,553Z" transform="translate(-1032.1 -530.58)"/><path class="cls-2" d="M1720.43,566.45c-9,1.82-10.27,14.57-5.07,20.74a10.78,10.78,0,0,0,14,2.18,14,14,0,0,0,5.44-14.46c-1.49-5.74-8.8-9.4-14.33-8.46-1.26.22-.73,2.15.53,1.93a11.25,11.25,0,0,1,9.08,3,8.42,8.42,0,0,1,3,7.46c-.42,5.86-5.46,11.79-11.78,9.82-4.75-1.48-7-6-7-10.71,0-4.34,2.08-8.68,6.64-9.6,1.27-.25.73-2.18-.53-1.93Z" transform="translate(-1032.1 -530.58)"/><path class="cls-10" d="M1260.08,550.92c.91-5.11-6.79-10.47-12-8.25-7.08,3-8.62,19.32-8.62,19.32,5.85-9.23,15.16-9,23.92-6.38,13.9,4.22,11.13,15.13,11.13,23.28,0,11.22-12,19.59-25.75,19.06-7.85-.3-14.86-3.64-19.15-10.39-3.86-6.09-4-15.56-4-22.74,0-7.73,2.51-12.63,5.3-19.36,3-7.26,8.69-10.32,16-12.06a26.58,26.58,0,0,1,17.2,1.76c7.49,3.19,6.41,6.36,10.4,15.14Zm-12.6,14.45c-9.09,1.55-9.52,16.32-2.77,20.76,9.24,6.08,17.69-3.49,15.92-12.77-.76-4-7.41-9.22-13.15-8" transform="translate(-1032.1 -530.58)"/><path class="cls-2" d="M1261.08,550.92c.51-4.26-3.19-7.77-6.9-9.13a8.55,8.55,0,0,0-10,2.84c-3.72,4.69-5.1,11.51-5.67,17.36-.1,1.06,1.37,1.25,1.87.5,4.2-6.37,10.85-8.35,18.16-7,6.13,1.08,12.73,3.56,14.57,10.12,1.25,4.46.71,9.68.42,14.26-.42,6.64-5.43,11.78-11.2,14.5a28.43,28.43,0,0,1-21,1.26,20.85,20.85,0,0,1-13.58-15.79,59.1,59.1,0,0,1-1.06-11.34,41.68,41.68,0,0,1,1-11.58,78.14,78.14,0,0,1,4.18-11,17.81,17.81,0,0,1,6.52-8c7.63-5,17.7-5.32,25.88-1.58a10.88,10.88,0,0,1,5.82,5.46c1.36,2.94,2.27,6.09,3.6,9.06l.86-1.51-14.45.62c-1.28.05-1.29,2.05,0,2l14.45-.62a1,1,0,0,0,.86-1.5c-2.49-5.59-3.38-11.79-9.28-14.82a29.42,29.42,0,0,0-25-.78,20.26,20.26,0,0,0-8.44,6.24c-2.49,3.25-3.89,7.39-5.35,11.17-3.17,8.16-3.24,17-2,25.64,1.1,7.93,4.78,15,12.09,18.79,6.91,3.62,15.52,3.78,22.83,1.27,6.4-2.19,12.38-6.74,14.54-13.37.93-2.88.78-5.91.91-8.89a38.27,38.27,0,0,0-.3-8.56c-1.46-7.9-8.36-11.4-15.65-12.86-8.44-1.68-16.2.45-21.08,7.85l1.86.51a39.63,39.63,0,0,1,3.43-13.17c1.39-2.86,3.52-5.75,7-5.66,3.9.1,8.64,3.51,8.13,7.76C1258.93,552.19,1260.93,552.18,1261.08,550.92Z" transform="translate(-1032.1 -530.58)"/><path class="cls-2" d="M1247.21,564.4c-9,1.82-10.28,14.57-5.07,20.74a10.78,10.78,0,0,0,14,2.18,14,14,0,0,0,5.44-14.46c-1.49-5.74-8.8-9.4-14.33-8.46-1.26.22-.73,2.15.53,1.93a11.25,11.25,0,0,1,9.08,3,8.42,8.42,0,0,1,3,7.46c-.42,5.86-5.46,11.79-11.78,9.82-4.75-1.48-7-6-7-10.71,0-4.34,2.08-8.68,6.64-9.6,1.26-.25.73-2.18-.53-1.93Z" transform="translate(-1032.1 -530.58)"/><path class="cls-3" d="M1481.62,563.56c-7.54-1.7-9.53-7.78-9.53-14.91,0-6.83,5.29-12.31,11.5-14.77,4.67-1.84,11.33-3,16.48-2,6,1.21,15,6.19,16.61,12.59,1,3.73.68,9.61-1.33,12.9-2.12,3.5-6.06,4.51-9.66,6.16,4,1.31,6.93.51,9.82,4.32a19.32,19.32,0,0,1,3.94,10.74c.46,9.91-5,16.3-14,18.73-7.86,2.11-12.12,2.31-22.3.87-7.36-1-13.66-6.27-14.11-14.35-.55-9.66,4.06-15.31,12-20.61m12-20c-3.87.59-8,6.45-6.11,10.37,1.78,3.75,8,5.67,11.58,4.14,3.79-1.64,5.82-7.2,4-11.14-1.53-3.42-5.77-3.33-8.91-3.67m1.23,26.43c-8.46-.79-15.24,11.73-8.32,16.61,8.28,5.83,17.08.61,17.23-7.55.08-3.75-4-9-8-9.06" transform="translate(-1032.1 -530.58)"/><path class="cls-2" d="M1481.89,562.6a10.36,10.36,0,0,1-7.81-6.81,18.1,18.1,0,0,1-.34-11.06c2.92-8.65,13.33-12.08,21.63-12.21,7.16-.11,16.67,3.9,19.82,10.78,1.61,3.52,1.38,8.54,0,12.1-1.65,4.33-6.17,5.58-10,7.3-.83.37-.51,1.6.24,1.83,3.76,1.14,7.22,1,9.72,4.53a19,19,0,0,1,3.28,12.36c-.54,7.16-5.25,12.4-12,14.58a46.83,46.83,0,0,1-20.61,1.58c-4-.48-7.79-1.31-10.94-4a13.86,13.86,0,0,1-4.89-9.76c-.63-8.89,4.52-15,11.5-19.75,1.06-.72.06-2.45-1-1.73-6.74,4.57-12.14,10.38-12.51,18.91a16.69,16.69,0,0,0,12.57,17.41c13.59,3.69,37.19,1.75,39.68-15.7a21,21,0,0,0-2.91-14.26,11,11,0,0,0-4.68-4.44c-2.11-.93-4.5-1-6.7-1.71l.24,1.82c3.43-1.52,7.32-2.69,9.61-5.88,2-2.81,2.5-6.65,2.41-10-.22-7.42-5.22-12.34-11.65-15.41-7.27-3.47-15.43-3.19-22.89-.33-6.56,2.51-12.32,8.13-12.57,15.5s2.55,14.31,10.26,16.24c1.24.31,1.78-1.62.53-1.93Z" transform="translate(-1032.1 -530.58)"/><path class="cls-2" d="M1492.73,542.31c-4.29.9-8.12,6.06-7.16,10.49,1,4.68,7.13,7.06,11.45,6.4,4.79-.73,7.6-5.93,7.07-10.48-.65-5.72-5.77-6.27-10.48-6.75-1.28-.13-1.27,1.87,0,2,3.65.37,8,.44,8.52,5.06.38,3.48-1.72,7.59-5.39,8.19-3.12.5-8-1.07-9.1-4.39-1.18-3.55,2.26-7.88,5.62-8.59,1.26-.27.73-2.2-.53-1.93Z" transform="translate(-1032.1 -530.58)"/><path class="cls-2" d="M1494.84,568.4c-5.43-.32-10.15,3.83-11.69,8.87-1.75,5.7,1.77,10.16,7.25,11.74a11.14,11.14,0,0,0,13.78-7.07c1.88-5.75-2.09-13-8.42-13.54-1.28-.1-1.27,1.9,0,2,5.67.45,8.29,7.61,6,12.2s-8.07,6-12.65,3.78c-4.08-2-5.43-5.67-3.56-9.82,1.65-3.64,5.2-6.4,9.3-6.16,1.29.08,1.28-1.92,0-2Z" transform="translate(-1032.1 -530.58)"/><path class="cls-11" d="M1671.16,563.55c-.26,15-1.34,30.37-16.39,36.73a27.75,27.75,0,0,1-20.08.77c-6.32-2.33-14-9.82-13-17.42,4.16-.58,10.55-1.37,14.67-.67,1,5.79,4.59,12.38,11.55,9,5.47-2.63,7.07-13.65,8.47-18.94-3.76,7-14.23,6.92-20.28,5.55-6.68-1.51-12.61-5.55-14.15-11.37-1.66-6.3.08-11.31,2.15-17.21,2.32-6.64,6.77-10.29,13.51-12.2,7-2,9.88-2.69,19.69.83C1665.77,541.66,1671.36,552.17,1671.16,563.55Zm-28.87-16c-7.16,4-9.72,16-2.14,21.16,4.13,2.81,9.84,1.24,12.9-2.26s2.93-8.54,1.77-12.69c-1.34-4.79-7.44-9.26-12.22-6.52" transform="translate(-1032.1 -530.58)"/><path class="cls-2" d="M1670.16,563.55c-.22,12-.73,26.72-12.07,33.88-6.7,4.23-15.67,5.48-23.14,2.65-6.45-2.44-13-9.11-12.21-16.45l-.73,1a82.66,82.66,0,0,1,9.43-.9c.89,0,3.1-.38,3.9.11.54.33.8,2.26,1.08,3,1.4,3.73,4.17,7.35,8.55,7,9.36-.66,10.63-13.62,12.42-20.56a1,1,0,0,0-1.82-.77c-3.65,6.33-12.57,6.52-18.91,5.15a20.62,20.62,0,0,1-11.09-6c-3.32-3.74-3.74-9.09-2.77-13.81.88-4.27,2.3-9.1,4.93-12.63a18.07,18.07,0,0,1,9.17-6.19,31.33,31.33,0,0,1,9.55-1.92A29.87,29.87,0,0,1,1658,540c8.77,3.94,12.21,14.67,12.16,23.57a1,1,0,0,0,2,0c0-8.94-3.13-18.95-11-24.09a30.11,30.11,0,0,0-13.12-4.22c-3.77-.35-7.46.63-11,1.7a20.9,20.9,0,0,0-10.44,6.51c-3,3.74-4.62,8.87-5.65,13.5s-1,10.21,1.81,14.38c2.45,3.7,6.43,6.12,10.56,7.51,7.71,2.58,19.38,2.67,24-5.3l-1.82-.77c-1.37,5.3-2,11.43-5.33,16-1.91,2.62-5.72,4.3-8.63,2.2-2.54-1.84-3.57-5.32-4.14-8.25a1,1,0,0,0-.7-.7c-5-.74-10.19,0-15.2.68-.46.06-.69.56-.73,1-.61,5.88,3,11.18,7.4,14.73a24.66,24.66,0,0,0,17.5,5.14A26.73,26.73,0,0,0,1670.2,583c1.64-6.32,1.84-12.93,2-19.43A1,1,0,0,0,1670.16,563.55Z" transform="translate(-1032.1 -530.58)"/><path class="cls-2" d="M1641.78,546.69c-7.65,4.57-10.35,17-2.39,22.7,4.29,3.05,10.32,1.87,13.91-1.73,3.82-3.84,4.11-10.54,2.06-15.34-2.14-5-8.08-8.56-13.27-5.93-1.15.58-.14,2.3,1,1.72,5.82-2.94,10.67,3.58,11.31,8.68.76,6-2.46,12.13-9.09,12.37-5.21.18-8.73-4.56-8.77-9.43a13.18,13.18,0,0,1,6.24-11.31,1,1,0,0,0-1-1.73Z" transform="translate(-1032.1 -530.58)"/></svg>