<svg id="Calque_1" data-name="Calque 1" xmlns="http://www.w3.org/2000/svg" viewBox="0 0 772.48 746.33"><defs><style>.cls-1{fill:#1d1d1b;}.cls-2{fill:#ca9e67;}.cls-3{opacity:0.4;}.cls-4{fill:#fff;}</style></defs><title>stylo</title><path class="cls-1" d="M1770.64,228a15.76,15.76,0,0,0-16.16,1.1c.31,6.16,3.93,11.78,8.58,15.85s10.28,6.81,15.83,9.5c3-3.63,3.23-8.92,1.83-13.4s-4.23-8.37-7-12.16" transform="translate(-1045.81 -196.31)"/><path class="cls-1" d="M1771,227.36a16.94,16.94,0,0,0-16.92,1.1.73.73,0,0,0-.37.65c1.14,13.67,13.73,20.63,24.78,26a.78.78,0,0,0,1-.27c6.46-8.77.25-18.9-5.18-26.32-.56-.77-1.87,0-1.3.76,5.12,7,11.32,16.47,5.18,24.8l1-.27c-7.43-3.6-15.38-7.43-20.24-14.41-1.72-2.46-5.12-7.93-2.73-10.54,1.2-1.32,5-1.76,6.67-1.81a15.31,15.31,0,0,1,7.29,1.61c.87.41,1.63-.88.76-1.3Z" transform="translate(-1045.81 -196.31)"/><path class="cls-2" d="M1090.93,867.75c-11,15-20.82,31.8-31.85,46.77a108.37,108.37,0,0,1,14.42,14.79,147.65,147.65,0,0,0,48.16-30.82c-5.2-21.48-31.63-29.66-30.73-30.74" transform="translate(-1045.81 -196.31)"/><path class="cls-1" d="M1090.28,867.37c-11.15,15.23-20.7,31.55-31.85,46.77a.76.76,0,0,0,.12.91A115.82,115.82,0,0,1,1073,929.84a.71.71,0,0,0,.73.2,151.24,151.24,0,0,0,48.49-31,.75.75,0,0,0,.19-.73c-2.36-9.11-8.36-16.37-15.81-21.91a76.91,76.91,0,0,0-9.61-6c-1.19-.64-2.39-1.23-3.58-1.86a7.93,7.93,0,0,0-1.25-.67c-.8-.26-.15-.63-.55.29.38-.88-.92-1.64-1.3-.76-.86,2,7.68,5.24,8.86,5.93,8,4.66,15.62,10.9,19.68,19.43a15.35,15.35,0,0,1,1.61,4.12c.25,1.88-.75,2.49-2.11,3.73q-4.21,3.84-8.73,7.34a146.18,146.18,0,0,1-18,12q-4.45,2.52-9.08,4.71c-1.34.64-2.7,1.26-4.07,1.86-2.65,1.16-3.9,2.34-6,.33-2.49-2.34-4.58-5.18-7-7.58-1.21-1.18-2.67-2.25-3.78-3.52-1.82-2.08-.08-3.19,1.35-5.22,9.84-13.92,18.58-28.58,28.66-42.34.57-.78-.73-1.53-1.3-.76Z" transform="translate(-1045.81 -196.31)"/><path class="cls-2" d="M1059.82,915.06a107.68,107.68,0,0,0-12.55,21.12c-.71,1.59-1.33,3.61-.18,4.92a3.22,3.22,0,0,0,2.21,1c1.92.13,3.71-.85,5.37-1.81l17-9.71c.66-.38,1.4-.88,1.46-1.64a2.34,2.34,0,0,0-.79-1.59q-5.65-6.42-11.8-12.36" transform="translate(-1045.81 -196.31)"/><path class="cls-1" d="M1059.17,914.68c-4.91,6.54-10.63,14.37-13,22.3-1.65,5.43,3.11,6.81,7.37,4.76,3.86-1.86,7.53-4.26,11.26-6.38,2-1.16,4.06-2.29,6.07-3.47.83-.49,2.19-1,2.69-1.92,1.14-2.09-1.32-4-2.55-5.31q-4.79-5.28-9.9-10.23c-.69-.68-1.76.38-1.06,1.06,2,2,4,4,6,6.06,1.42,1.49,6.89,5.84,5.26,8.35-.4.62-3,1.71-3.64,2.08l-3.65,2.08-7.29,4.17c-2.53,1.44-10.28,6.58-9.14-.86.4-2.61,2.7-5.83,4-8.16a111.94,111.94,0,0,1,8.9-13.77c.58-.77-.72-1.52-1.29-.76Z" transform="translate(-1045.81 -196.31)"/><path class="cls-1" d="M1096,869.79c2.24-3.71,5.74-6.91,8.67-10,5.21-5.62,10.54-11.13,15.9-16.6,9.68-9.9,19.33-19.95,29.65-29.19.72-.65-.34-1.71-1.06-1.06-10.53,9.43-20.39,19.7-30.27,29.81-5.38,5.52-10.74,11.06-16,16.72-2.78,3-6.08,6.07-8.21,9.61a.75.75,0,0,0,1.29.76Z" transform="translate(-1045.81 -196.31)"/><path class="cls-2" d="M1149.71,813.42c5.94,5.08,15.57,15.11,21.51,20.19a5.39,5.39,0,0,1,2.1,2.84c.29,1.53-.76,3-1.75,4.15A421.18,421.18,0,0,1,1120,892.81c-2-5-6.33-9.71-10.49-13.13-3.81-3.12-10.32-7.15-14.12-10.27" transform="translate(-1045.81 -196.31)"/><path class="cls-1" d="M1149.18,814c5.72,4.95,11,10.41,16.48,15.61,1.22,1.15,2.44,2.3,3.7,3.42a11.43,11.43,0,0,1,2,1.77l-.33,5.32c-.43.53-.87,1-1.31,1.57q-4.57,5.48-9.35,10.8a426.36,426.36,0,0,1-40.92,39.84l1.18.15c-4.82-11.16-15.74-16.36-24.73-23.55-.75-.6-1.82.46-1.06,1.06,8.87,7.1,19.74,12.24,24.49,23.25a.76.76,0,0,0,1.18.15,426.78,426.78,0,0,0,46.31-46c2.22-2.57,6.75-6.2,7.23-9.79.42-3.15-3.08-5.13-5.06-7-6.34-5.82-12.25-12.11-18.76-17.74-.73-.63-1.79.42-1.06,1.06Z" transform="translate(-1045.81 -196.31)"/><path class="cls-1" d="M1156.93,820.1c12.86-12.26,486-458.13,498.82-470.39v-.95a13.56,13.56,0,0,1,12.08,12.17l.08,3.36c-12.87,12.26-486,458.13-498.83,470.39" transform="translate(-1045.81 -196.31)"/><path class="cls-1" d="M1157.46,820.63c5.41-5.15,10.85-10.26,16.28-15.39l37.94-35.78,54-50.94,65-61.23,70.62-66.58,71.3-67.21,66.15-62.37,56-52.82L1635.38,370c6.65-6.28,13.54-12.38,20-18.87.25-.26.52-.5.78-.75a2.32,2.32,0,0,0,.35-1.13c.5-.21,3.67,1.58,4.23,1.9a13.19,13.19,0,0,1,4.51,4.37c1.52,2.46,1.55,4.75,1.89,7.47,0,.34-.14,1.55.2.84,0,.06-.13.09-.16.15a4.21,4.21,0,0,1-.84.79c-2.46,2.25-4.85,4.59-7.27,6.88l-31.29,29.52-49.45,46.63-61.94,58.4L1447,571.55l-71.47,67.38L1307,703.61,1247,760.11l-46.26,43.63q-13.68,12.88-27.34,25.8l-4.88,4.61c-.7.67.36,1.73,1.06,1.06,5.59-5.32,11.22-10.6,16.84-15.9l39-36.83,55.44-52.28,66.71-62.89,72.23-68.09,71.88-67.77,66.32-62.52,55.41-52.25,38.67-36.47,11.28-10.65c1.36-1.29,4.5-3.27,5.2-5.07,1-2.7-.72-7.55-2.09-9.75a14.55,14.55,0,0,0-10.79-6.73.76.76,0,0,0-.75.75c0,1.4-3.39,3.84-4.72,5.09q-5.44,5.16-10.91,10.3l-37.1,35-53.41,50.36L1484.71,510q-35,33-69.94,65.93l-70.58,66.54L1277.85,705l-56.42,53.19-41.63,39.27q-10.86,10.24-21.71,20.49l-1.69,1.61c-.7.66.36,1.72,1.06,1.06Z" transform="translate(-1045.81 -196.31)"/><path class="cls-1" d="M1778.56,198.12c-1.2.81-1.21,2.68-.41,3.88a8.32,8.32,0,0,0,3.45,2.54c-5.12,5,.58.68-5.12,5s-17.78,12.14-24.31,24.86c6.41,1.12,12.83,2.92,18.26,6.52s9.77,9.22,10.66,15.67l22.62-21.45c1.76-1.68,3.68-3.43,6.08-3.8s5.27,1.37,5.07,3.79a27.6,27.6,0,0,0-35.57-36.33l4.48-1.57" transform="translate(-1045.81 -196.31)"/><path class="cls-1" d="M1778,197.59c-3,3.08.34,6.14,3.19,7.6l-.15-1.18a18.76,18.76,0,0,0-2.48,2.8c-.12.17,0,.55-.08.65-.48.64,1.16-1.62.12-.51-2.3,2.49-5.8,4.34-8.5,6.41-7.46,5.72-14.16,12.31-18.61,20.68a.76.76,0,0,0,.45,1.1c12.28,2.24,26,7.85,28.39,21.67a.76.76,0,0,0,1.26.33l14-13.28,6.47-6.13c1-1,2-2,3.05-2.88,2-1.71,8.56-5.6,9,.3a.75.75,0,0,0,1.47.2c4.06-10.32,1.91-22.69-5.93-30.69s-20.16-10.39-30.56-6.56c-.89.33-.51,1.77.4,1.44L1784,198c.91-.32.52-1.77-.4-1.45l-4.48,1.57.4,1.44c9.9-3.64,21.64-1.48,29.1,6.18s9.42,19.38,5.55,29.23l1.47.2a4.72,4.72,0,0,0-3.78-4.42c-3-.74-5.62,1.2-7.75,3.06-8.12,7.08-15.71,14.88-23.53,22.29l1.26.33c-2.43-14.3-16.68-20.39-29.44-22.72l.44,1.1c4.68-8.79,11.87-15.51,19.76-21.41,2.1-1.57,5.43-3.21,7-5.28.2-.27.27-.79.4-1s0,.12-.06.29a16.3,16.3,0,0,1,2.19-2.36.75.75,0,0,0-.15-1.17c-1.44-.74-5.39-2.68-2.89-5.25.67-.69-.39-1.75-1.06-1.06Z" transform="translate(-1045.81 -196.31)"/><path class="cls-1" d="M1752.89,233.67c.72,4.55,3.39,8.6,6.71,11.79a63.58,63.58,0,0,0,11.19,8c2.89,1.77,5.9,3.58,9.26,3.92Z" transform="translate(-1045.81 -196.31)"/><path class="cls-1" d="M1752.17,233.87c1.19,6.09,5,10.87,9.82,14.64,5,4,11.42,8.63,17.86,9.63.66.1,1.36-.71.73-1.26l-27.16-23.74c-.72-.63-1.79.42-1.06,1.06l27.16,23.74.73-1.25c-5.73-.89-11.31-4.93-15.93-8.29-5.15-3.75-9.45-8.51-10.7-14.93C1753.43,232.53,1752,232.93,1752.17,233.87Z" transform="translate(-1045.81 -196.31)"/><path class="cls-1" d="M1656.28,349.29Q1682.05,322.1,1708,295q13-13.57,25.93-27.18,6.6-6.92,13.17-13.85a80.34,80.34,0,0,1,9.89-9.46c2.22-1.66,4.76-4.1,7.31-5.2,1.59-.68,5.28,1.8,7.17,3.11a11.6,11.6,0,0,1,3.16,2.71c.91,1.49.25,2.08-.79,3.25q-2.82,3.14-5.66,6.26-5.49,6-11,11.95c-14.16,15.16-28.66,30-42.92,45.05q-13.29,14-26.24,28.36c-7.23,8-13.66,17.43-21.78,24.57l1.25.73c2.69-7.4-3.55-17.42-11.66-17.33a.75.75,0,0,0,0,1.5c7.18-.08,12.57,9,10.22,15.43-.28.76.74,1.18,1.25.73,6.75-5.94,11.94-13.57,17.91-20.25q11.83-13.26,24-26.22c14.14-15.06,28.57-29.84,42.76-44.86q12.77-13.5,25.15-27.33a.77.77,0,0,0,.12-.91,21.86,21.86,0,0,0-8.91-7.2c-1.88-.91-3.15-1.78-5-.72-7.31,4.32-13.06,10.28-18.85,16.38q-28.15,29.65-56.44,59.18-16.42,17.22-32.81,34.49c-.66.7.4,1.76,1.06,1.06Z" transform="translate(-1045.81 -196.31)"/><g class="cls-3"><path class="cls-4" d="M1817.06,234S1507.12,533.62,1434,609.29c-14.35,14.85-288.51,277.53-312.73,288.84a49.34,49.34,0,0,0-30.33-30.38,803.75,803.75,0,0,1,72.46-80c14.87-14.34,245.45-236.88,260.85-250.65,76.25-68.19,352.82-336.68,352.82-336.68C1787.76,209.52,1801.55,218.8,1817.06,234Z" transform="translate(-1045.81 -196.31)"/><path class="cls-1" d="M1816.53,233.48l-28.14,27.24q-35.13,34-70.22,68.09Q1672,373.6,1626,418.48q-47.21,46-94.24,92.24-38,37.39-75.75,75.11c-12.3,12.36-24.41,24.89-36.94,37q-31.68,30.69-63.68,61-44.09,42-88.51,83.65c-28.26,26.48-56.63,52.87-85.35,78.85-17.89,16.18-35.65,33.18-55.12,47.49a35.22,35.22,0,0,1-5.54,3.59l1.11.45a50.65,50.65,0,0,0-30.86-30.9l.33,1.25c26.12-33,55.07-63.18,85.3-92.35q31.15-30.07,62.33-60.12,42.21-40.68,84.45-81.33,36.45-35.07,73-70.05,18.84-18,38-35.61c23.61-21.52,46.83-43.48,70-65.44q45.24-42.84,90.17-86,44.8-42.94,89.46-86.06,34-32.78,67.88-65.62l19.37-18.77,4.82-4.67c.24-.24.77-1,1.11-1.08.06,0,.12-.18.19-.18-1.17,0,.69,1.4.8,1.54a30,30,0,0,0,3.88,3.13c11.73,9.32,23.53,18.41,34.27,28.88.69.68,1.75-.38,1.06-1.06-12.53-12.22-26.65-22.32-40-33.56a.75.75,0,0,0-1.06,0l-26.35,25.53q-33.08,32-66.21,64-43.21,41.7-86.53,83.27-44,42.24-88.29,84.26c-23.37,22.16-46.78,44.3-70.52,66.08-12.26,11.25-24.5,22.48-36.54,34q-33.63,32.1-67.11,64.36-41.22,39.65-82.4,79.34l-67.28,64.88c-21.46,20.69-42.91,41.32-62.83,63.53q-16.62,18.54-32.07,38.08a.76.76,0,0,0,.33,1.25,49,49,0,0,1,29.81,29.85.76.76,0,0,0,1.1.45c5.52-2.62,10.43-7.28,15.09-11.11,9.52-7.83,18.78-16,28-24.16,27.11-24.09,53.73-48.73,80.27-73.44q45.54-42.42,90.66-85.31,36.25-34.41,72.29-69c12-11.6,24-23.27,35.67-35.2,22.37-22.77,45.09-45.21,67.82-67.64q45.78-45.18,91.84-90.09,47.31-46.22,94.76-92.3,38.78-37.7,77.61-75.32,20.07-19.44,40.15-38.86l1.8-1.75C1818.29,233.87,1817.22,232.81,1816.53,233.48Z" transform="translate(-1045.81 -196.31)"/></g><path class="cls-1" d="M1816.53,233.48l-28.14,27.24q-35.13,34-70.22,68.09Q1672,373.6,1626,418.48q-47.21,46-94.24,92.24-38,37.39-75.75,75.11c-12.3,12.36-24.41,24.89-36.94,37q-31.68,30.69-63.68,61-44.09,42-88.51,83.65c-28.26,26.48-56.63,52.87-85.35,78.85-17.89,16.18-35.65,33.18-55.12,47.49a35.22,35.22,0,0,1-5.54,3.59l1.11.45a50.65,50.65,0,0,0-30.86-30.9l.33,1.25c26.36-33.28,55.62-63.72,86.13-93.16l64.68-62.37q42.86-41.31,85.75-82.58,36.32-34.92,72.7-69.76c12.85-12.27,25.88-24.28,39-36.29,25.09-23,49.82-46.43,74.52-69.87q46.65-44.26,93-88.84,44.61-42.82,89.1-85.79,31.86-30.76,63.69-61.6l15.3-14.84a14.68,14.68,0,0,1,2.27-2.19c1.89-1.12,5.37-1.33,7.55-1.65a34.5,34.5,0,0,1,11,0,23.31,23.31,0,0,1,13.43,7.18c6.6,7.25,8.23,17.92,6.81,27.33-.15.95,1.3,1.36,1.44.4,1.33-8.78.21-18.35-4.87-25.84-5.41-8-14.48-11.42-23.9-10.93-4.2.22-10.09.33-13.34,3.31-1.54,1.41-3,2.91-4.5,4.37q-25.08,24.32-50.2,48.59-42,40.59-84,81.06-47.49,45.69-95.16,91.19-41.57,39.63-83.49,78.9c-15,13.93-30.24,27.51-45.07,41.57q-31.6,30-62.94,60.26Q1307,648.32,1263.7,690l-74.49,71.82c-22.08,21.3-44.28,42.44-64.86,65.23q-17.62,19.52-33.95,40.16a.76.76,0,0,0,.33,1.25,49,49,0,0,1,29.81,29.85.76.76,0,0,0,1.1.45c5.52-2.62,10.43-7.28,15.09-11.11,9.52-7.83,18.78-16,28-24.16,27.11-24.09,53.73-48.73,80.27-73.44q45.54-42.42,90.66-85.31,36.25-34.41,72.29-69c12-11.6,24-23.27,35.67-35.2,22.37-22.77,45.09-45.21,67.82-67.64q45.78-45.18,91.84-90.09,47.31-46.22,94.76-92.3,38.78-37.7,77.61-75.32,20.07-19.44,40.15-38.86l1.8-1.75C1818.29,233.87,1817.22,232.81,1816.53,233.48Z" transform="translate(-1045.81 -196.31)"/><path class="cls-1" d="M1049.28,934.3a6.33,6.33,0,0,0-2.16,6,6.5,6.5,0,0,0,5.14-.29,3.83,3.83,0,0,0,1.84-4.49c-.64-1.64-3.11-2.34-4.3-1" transform="translate(-1045.81 -196.31)"/><path class="cls-1" d="M1048.75,933.77a7.23,7.23,0,0,0-2.35,6.74.73.73,0,0,0,.53.52c3.23.94,7.77,0,8.11-4,.25-3-3.43-5.2-5.77-3-.71.65.35,1.71,1.06,1.06a1.9,1.9,0,0,1,2.53.07,2.31,2.31,0,0,1,.32,2.93c-1.17,2.13-3.8,2.15-5.86,1.55l.53.53a5.7,5.7,0,0,1,2-5.28c.73-.64-.34-1.69-1.06-1.06Z" transform="translate(-1045.81 -196.31)"/></svg>