<?xml version="1.0" encoding="utf-8"?>
<!-- Generator: Adobe Illustrator 19.1.1, SVG Export Plug-In . SVG Version: 6.00 Build 0)  -->
<svg version="1.1" id="Calque_1" xmlns="http://www.w3.org/2000/svg" xmlns:xlink="http://www.w3.org/1999/xlink" x="0px" y="0px"
	 viewBox="0 0 155.9 155.9" style="enable-background:new 0 0 155.9 155.9;" xml:space="preserve">
<style type="text/css">
	.st0{fill:#027D77;}
	.st1{opacity:0.61;}
	.st2{fill:#013D39;}
	.st3{opacity:0.44;}
	.st4{fill:#010202;}
</style>
<g>
	<g>
		<path class="st0" d="M5.5,23.6c-2.6,1.6-1.5,5.7,0,8.4C18.7,56.4,31.8,80.7,45,105.1c8,14.9,16.1,29.8,26.1,43.4
			c1.3,1.8,1.7,4.6,1.7,4.6s7.2,2.7,9.5,3.5c5.1,1.8,10.2,3.6,15.4,5.4c5.3,1.9,10.7,3.7,16.3,3.7c9.9-0.1,18.7-6.1,26.4-12.3
			c4-3.3,8.1-6.9,9.9-11.8c0.8-2.1,1-4.4,1.2-6.7c0.6-7.6,0.3-15.2-0.9-22.8c1,1.7,1.4,3.6,1.2,5.6c0.5-9.3-0.5-24.4-2.6-25.8
			c-2.6-1.8-5.7-6.2-8-8.4C110.4,53.6,78.8,24.6,46.6-3.7c-1-0.8-2-1.7-3.3-1.8c-1.1-0.1-2.1,0.4-3,0.8C26.4,1.9,11.7,9.7,4.9,23.5"
			/>
		<g>
			<path class="st0" d="M5.3,23.1c-2.3,1.7-2,4.4-1.1,6.9c1.6,4.4,4.4,8.5,6.6,12.6C15.9,52,21,61.4,26.1,70.9
				c10.1,18.6,19.8,37.4,30.4,55.7c2.8,4.9,5.8,9.7,8.9,14.4c2.5,3.8,6.3,7.6,7,12.2c0,0.2,0.2,0.3,0.3,0.3c5.3,2,10.5,3.9,15.8,5.7
				c8.3,2.9,17.2,7.2,26.3,6.9c7.9-0.3,15-4.3,21.2-8.8c5.6-4.1,12.3-8.9,14.7-15.7c1.6-4.5,1.5-9.7,1.5-14.4
				c0-5.1-0.4-10.2-1.2-15.3c-0.3,0.1-0.6,0.3-0.9,0.4c0.9,1.7,1.2,3.4,1.1,5.3c0.3,0,0.7,0,1,0c0.3-6.1,0.1-12.3-0.6-18.4
				c-0.2-2-0.5-4.1-1.2-6c-0.6-1.7-1.9-2.4-3.2-3.6c-2.3-2.3-4.2-4.9-6.6-7.2c-3.1-3.1-6.3-6.1-9.5-9.1c-6.2-6-12.5-11.9-18.7-17.8
				c-12.8-12-25.7-23.9-38.7-35.6C67.3,14.1,60.9,8.4,54.4,2.7c-2.9-2.6-5.8-5.7-9-7.8c-2.6-1.7-4.8-0.4-7.3,0.8
				C24.9,2,11.1,9.7,4.3,23.3c-0.3,0.6,0.6,1.1,0.9,0.5c6-11.9,17.5-19.2,29-25c2.9-1.5,7.7-4.9,10.8-3c1.7,1.1,3.2,2.8,4.8,4.1
				c1.7,1.5,3.4,3,5.1,4.5C61,9.8,67,15.2,73.1,20.6C84.9,31.3,96.7,42,108.3,52.9c5.9,5.6,11.8,11.1,17.7,16.7
				c5.5,5.3,11.5,10.3,16.5,16.1c1.1,1.3,2.2,2.6,3.4,3.9c0.9,1,2.2,1.8,3,2.8c1.2,1.4,1.3,4.1,1.6,5.9c0.9,6.4,1.1,13,0.7,19.5
				c0,0.6,1,0.6,1,0c0.1-2.1-0.3-4-1.2-5.8c-0.3-0.5-1-0.1-0.9,0.4c0.8,4.8,1.2,9.7,1.2,14.5c0,4.5,0.1,9.5-1.2,13.8
				c-2.3,7.7-10.6,13.3-16.9,17.6c-7.5,5.1-15.9,8.2-25,6.4c-8.7-1.7-17.3-5.5-25.6-8.5c-2.4-0.9-4.8-1.8-7.2-2.6
				c-0.6-0.2-1.7-0.4-2.2-0.8c0.3,0.2,0.2,0.2,0.1-0.3c-0.1-0.7-0.4-1.5-0.6-2.2c-1.4-3.4-4.3-6.5-6.3-9.6
				c-2.5-3.8-4.9-7.6-7.2-11.5c-9.4-15.9-17.9-32.3-26.7-48.5c-5.1-9.4-10.2-18.8-15.3-28.3c-2.5-4.6-5-9.3-7.5-13.9
				c-1.6-3-7.8-11.2-3.7-14.2C6.3,23.6,5.8,22.8,5.3,23.1L5.3,23.1z"/>
		</g>
	</g>
	<g class="st1">
		<path class="st2" d="M28.9,1.1c-2.5,1.8-5.2,3.7-6.4,6.5c-1.3,2.8-0.5,6.8,2.4,7.9c-1.8,0.6-3.4,1.7-4.6,3.1
			c-0.8,0.9-1.4,2-2.4,2.6c-0.9,0.6-1.9,0.9-3,1.2c-3.4,0.8-6.7,1.7-10.1,2.5C9.3,13,19.4,3.3,31.5-0.6C30.3,0.2,29,1,27.8,1.9"/>
		<g>
			<path class="st2" d="M28.7,0.6c-2.9,2.1-6.4,4.5-7.1,8.2c-0.5,2.8,0.5,5.7,3.1,7c0-0.3,0.1-0.6,0.1-0.9c-1.4,0.5-2.6,1.1-3.7,2.1
				c-1.4,1.2-2.2,2.9-3.8,3.8c-1.8,1.1-4.1,1.4-6.1,1.9c-2.1,0.5-4.3,1.1-6.4,1.6c0.2,0.2,0.4,0.4,0.6,0.6
				C10,13.1,19.7,3.8,31.8-0.2c-0.1-0.3-0.3-0.6-0.4-0.9c-1.2,0.8-2.5,1.6-3.7,2.5c-0.5,0.4,0,1.2,0.5,0.9c1.2-0.8,2.5-1.6,3.7-2.5
				c0.4-0.3,0.2-1.1-0.4-0.9C19.1,3,9.2,12.6,4.4,24.7c-0.1,0.4,0.3,0.7,0.6,0.6c3.9-1,8.3-1.6,12-3.1c1.2-0.5,1.9-1.2,2.7-2.2
				c1.5-1.8,3-3.2,5.3-4.1c0.4-0.1,0.5-0.7,0.1-0.9c-2.8-1.3-3.3-4.7-2.1-7.3c1.2-2.7,3.8-4.5,6.2-6.2C29.7,1.1,29.2,0.3,28.7,0.6
				L28.7,0.6z"/>
		</g>
	</g>
	<g class="st3">
		<path class="st2" d="M77.4,137.2c0.1,0.1,0.1-0.2,0-0.2c-0.2,0-0.2,0.2-0.2,0.4c-0.4,5.8,3.1,11,6.6,15.7c-3.3-0.1-6.7-0.3-10-0.6
			c-0.3,0-0.6-0.1-0.7-0.3c-0.1-0.2-0.1-0.5,0-0.7c1.3-4.6,2.7-9.1,4-13.7"/>
		<g>
			<path class="st2" d="M77.7,137.6C77.8,137.6,77.8,137.5,77.7,137.6c0.3-0.3,0.3-0.6,0.1-0.8l-0.1-0.1c-0.2-0.2-0.5-0.2-0.7,0
				c-1.4,1.3,0.2,5.8,0.7,7.2c1.3,3.4,3.4,6.5,5.6,9.4c0.1-0.3,0.3-0.5,0.4-0.8c-2,0-3.9-0.1-5.9-0.3c-1-0.1-2.2,0-3.2-0.3
				c-1.5-0.4-1-1-0.6-2.3c1.1-4,2.3-7.9,3.4-11.9c0.2-0.6-0.8-0.9-1-0.3c-0.8,2.7-1.6,5.5-2.4,8.2c-0.4,1.5-0.9,3-1.3,4.6
				c-0.1,0.5-0.5,1.2-0.3,1.7c0.4,1,1.7,0.9,2.6,1c2.9,0.3,5.8,0.4,8.6,0.5c0.3,0,0.7-0.4,0.4-0.8c-1.6-2.1-3.1-4.3-4.4-6.7
				c-0.7-1.3-1.2-2.7-1.6-4.1c-0.1-0.5-0.3-1-0.4-1.6c0,0.2-0.3-4-0.8-3.6C76.6,137.3,77.3,138,77.7,137.6L77.7,137.6z"/>
		</g>
	</g>
	<g class="st3">
		<path class="st2" d="M108.1,118.7c-0.7,1.5-0.5,3.2-0.1,4.8c1.6,6.4,6.7,11.7,13,13.5c-6,4.5-12,8.9-18.1,13.3
			c2.4-9.2,0.8-19.3,4.2-28.1"/>
		<g>
			<path class="st2" d="M107.6,118.5c-1.5,4,0.8,8.8,3.2,12c2.5,3.3,6,5.7,10,6.9c0-0.3-0.1-0.6-0.1-0.9c-6,4.5-12,8.9-18.1,13.3
				c0.2,0.2,0.5,0.4,0.7,0.6c2.3-9.3,0.9-19.1,4.2-28.1c0.2-0.6-0.7-0.9-1-0.3c-3.3,9.1-1.9,18.9-4.2,28.1c-0.1,0.4,0.4,0.8,0.7,0.6
				c6.1-4.4,12.1-8.8,18.1-13.3c0.3-0.3,0.3-0.8-0.1-0.9c-3.6-1.1-6.8-3.3-9.2-6.3c-2.4-3-4.7-7.6-3.3-11.4
				C108.8,118.2,107.8,117.9,107.6,118.5L107.6,118.5z"/>
		</g>
	</g>
	<g class="st3">
		<path class="st2" d="M42.6-1.7c-0.7,4,1.7,8.4,5.5,9.9c-1.4,0.1-0.9,2.3,0,3.3c10,12.2,21.9,22.6,33.1,33.6
			c18.1,17.8,34.4,37.4,48.7,58.4C100,70.9,70.1,38.2,38.5,7.2c1-2.1,2-4.3,3.1-6.4"/>
		<g>
			<path class="st2" d="M42.2-1.9c-0.6,4.4,1.6,8.6,5.7,10.4c0-0.3,0.1-0.6,0.1-0.9c-4.7,1.5,6.6,11.9,7.9,13.3
				C62,27.4,68.6,33.5,75,39.7c12.8,12.3,24.8,25.2,35.9,39c6.5,8.1,12.7,16.5,18.5,25c0.3-0.2,0.5-0.4,0.8-0.6
				c-24.4-26.7-48.9-53.4-74.3-79.2c-3.6-3.7-7.3-7.3-10.9-11c-1.6-1.6-3.8-3.2-5.2-5.1c-0.9-1.2-0.2-2,0.4-3.2s1.1-2.4,1.7-3.6
				c0.3-0.6-0.6-1.1-0.9-0.5c-1,2.1-2,4.3-3.1,6.4c-0.1,0.2-0.1,0.4,0.1,0.6C62.6,31.6,86.1,56.7,109.4,82
				c6.7,7.3,13.3,14.5,20,21.8c0.4,0.4,1.1-0.1,0.8-0.6c-9-13.3-18.9-26-29.5-38.1c-10.8-12.3-22.6-23.6-34.3-35
				c-3.4-3.3-6.7-6.6-9.9-10c-1.6-1.6-3.1-3.3-4.6-5c-0.7-0.7-5.7-6-3.7-6.6c0.4-0.1,0.5-0.7,0.1-0.9C44.6,6,42.5,2.3,43-1.7
				C43.2-2.2,42.3-2.5,42.2-1.9L42.2-1.9z"/>
		</g>
	</g>
	<g class="st3">
		<path class="st2" d="M135.3,93.8c2.4,3.5,5,6.9,7.5,10.3c0.9,1.1,1.8,2.3,3.2,2.5c-0.8,4.2-2.3,8.4-4.4,12.2
			c-1.4-3.6-0.6-7.6-1.2-11.4c-0.7-4.8-3.4-9.1-6.1-13.1"/>
		<g>
			<path class="st2" d="M134.9,94.1c2.1,2.9,4.2,5.9,6.3,8.7c1.3,1.7,2.5,3.7,4.7,4.3c-0.1-0.2-0.2-0.4-0.3-0.6
				c-0.8,4.2-2.3,8.2-4.3,12c0.3,0,0.6,0.1,0.9,0.1c-1.5-4.4-0.4-9.1-1.6-13.5C139.5,101.1,137.1,97.5,134.9,94.1
				c-0.4-0.6-1.3-0.1-0.9,0.4c2.4,3.6,4.9,7.4,5.9,11.7c0.9,4.2,0,8.6,1.4,12.7c0.1,0.4,0.7,0.5,0.9,0.1c2.1-3.9,3.6-8,4.4-12.3
				c0.1-0.3-0.1-0.5-0.3-0.6c-2.7-0.7-4.3-4.1-5.9-6.2s-3.1-4.2-4.6-6.4C135.4,93.1,134.5,93.6,134.9,94.1L134.9,94.1z"/>
		</g>
	</g>
	<g class="st3">
		<path class="st2" d="M132.9,128.5c-5.4,4.7-7.1,13.2-3.9,19.6c-1.2-1.3-3.7-0.4-4.1,1.4c-0.4,1.7,0.9,3.5,2.5,4.2s3.5,0.5,5.2,0.2
			c4.3-0.8,8.3-2.5,11.9-5.1c-5.1,5.7-11.1,10.5-17.5,14.5c-0.6,0.4-1.2,0.8-1.9,0.8c-0.6,0-1.2-0.2-1.7-0.4
			c-7.4-2.9-14.3-7.1-20.3-12.3c10.1-6.9,19.7-14.5,28.8-22.6"/>
		<g>
			<path class="st2" d="M132.6,128.1c-5.6,5.1-7.2,13.4-4,20.2c0.3-0.2,0.5-0.4,0.8-0.6c-1.3-1.1-3.2-0.9-4.3,0.4
				c-1.3,1.6-0.5,3.9,0.9,5.1c2.3,2,5.8,1.4,8.5,0.7c3.7-0.9,7.2-2.6,10.3-4.8c-0.2-0.3-0.4-0.5-0.6-0.8c-2.6,2.8-5.3,5.5-8.2,7.9
				c-1.8,1.5-3.6,2.8-5.5,4.2c-1.7,1.2-3.5,2.8-5.6,2.8c-3.7,0-8.3-3.1-11.5-5c-3.5-2.1-6.8-4.5-9.9-7.2c0,0.3-0.1,0.5-0.1,0.8
				c10.1-7,19.8-14.5,28.9-22.7c0.5-0.4-0.2-1.1-0.7-0.7c-9.1,8.1-18.7,15.6-28.7,22.5c-0.2,0.2-0.4,0.6-0.1,0.8
				c3.3,2.8,6.7,5.3,10.4,7.5c2,1.2,4,2.2,6,3.2c1.6,0.8,3.6,1.9,5.4,2.1c1.7,0.1,3.1-1.1,4.5-2c1.9-1.2,3.7-2.5,5.4-3.9
				c3.7-2.9,7.2-6.1,10.4-9.6c0.4-0.4-0.1-1.1-0.6-0.8c-2.8,2-5.9,3.5-9.2,4.4c-1.6,0.5-3.4,0.9-5.1,0.8c-1.5-0.1-3.3-0.5-4.2-2
				c-1-1.6,0.5-5.2,2.8-3.2c0.4,0.4,1-0.1,0.8-0.6c-3-6.4-1.4-14.2,3.9-19C133.7,128.4,133,127.7,132.6,128.1L132.6,128.1z"/>
		</g>
	</g>
	<g class="st3">
		<path class="st2" d="M94.5,153c-1,1.3-0.7,3.3,0.3,4.6s2.4,2.2,3.9,2.9c5.8,3.1,12.5,5.8,19,4.4c-6.6,1.7-13.4-0.5-19.9-2.6
			c-4.1-1.3-8.1-2.7-12-4.6c-3.1-1.5-6.2-3.5-9.7-3.9c6.1,0.5,12.2,0.3,18.2-0.4"/>
		<g>
			<path class="st2" d="M94.1,152.8c-2.7,4.8,3.4,7.8,6.8,9.4c5.3,2.6,11,4.3,16.9,3.2c-0.1-0.3-0.2-0.6-0.3-1
				c-7.6,1.7-15.1-1.1-22.2-3.5c-3.4-1.2-6.8-2.4-10-4.1c-2.9-1.5-5.7-3-9-3.6c0,0.3-0.1,0.7-0.1,1c6.1,0.4,12.1,0.3,18.2-0.4
				c0.6-0.1,0.6-1.1,0-1c-6,0.7-12.1,0.9-18.2,0.4c-0.6,0-0.7,0.9-0.1,1c3.9,0.7,7.2,2.8,10.8,4.5c3.2,1.5,6.6,2.6,10,3.8
				c6.8,2.3,13.8,4.6,21,2.9c0.6-0.1,0.4-1.1-0.3-1c-4.4,0.8-8.8,0-12.9-1.7c-3.2-1.3-12.4-4.6-9.7-9.5
				C95.3,152.7,94.4,152.2,94.1,152.8L94.1,152.8z"/>
		</g>
	</g>
	<g class="st3">
		<path class="st2" d="M148.2,99c0.7,5,1.5,10.2,0.2,15.1c-0.3,1.3-0.8,2.6-1,3.9c-0.6,3.9,1.2,7.7,2.5,11.4c1.3,3.7,2.2,8.1,0,11.4
			c-2.5-6.3-5-12.7-7.5-19c-0.2-0.5-0.4-1.1-0.3-1.7c0.1-0.5,0.4-1,0.7-1.4c3.3-5,4.3-11.2,5.2-17.2"/>
		<g>
			<path class="st2" d="M147.7,99.1c0.6,4,1.2,8,0.7,12.1c-0.4,3.2-1.9,6.2-1.6,9.5c0.5,6.6,6.4,13.3,2.7,19.9
				c0.3,0,0.6,0.1,0.9,0.1c-1.3-3.3-2.6-6.6-3.9-10c-0.7-1.7-1.3-3.3-2-5c-0.9-2.2-2.2-4.4-1.3-6.8c0.5-1.3,1.4-2.5,2-3.8
				c0.6-1.4,1-2.7,1.4-4.2c0.8-3.1,1.3-6.2,1.8-9.3c0.1-0.6-0.9-0.9-1-0.3c-0.5,3.4-1,6.8-2,10.2c-0.6,1.9-1.3,3.7-2.2,5.4
				c-0.5,1-1.5,2-1.6,3.1c-0.2,1.4,0.9,3.2,1.4,4.5c0.7,1.8,1.4,3.6,2.1,5.4c1.4,3.6,2.9,7.2,4.3,10.9c0.2,0.4,0.7,0.5,0.9,0.1
				c3.6-6.3-1-12.6-2.3-18.8c-0.8-4.2,1.1-7.9,1.4-12c0.3-3.8-0.3-7.7-0.9-11.5C148.6,98.2,147.6,98.5,147.7,99.1L147.7,99.1z"/>
		</g>
	</g>
	<g class="st3">
		<path class="st2" d="M26.8,16.7c3.4,2.6,6,6,8.6,9.4c-0.2-2.3,0.6-4.6,1.3-6.8c1-3.6,1.4-7.4,1.1-11.1c-2.8,3.3-6.3,6.1-10.2,8"/>
		<g>
			<path class="st2" d="M26.4,17c3.3,2.7,6,6,8.6,9.4c0.3,0.3,0.9,0.1,0.9-0.4c-0.1-3.3,1.3-6.3,1.9-9.4c0.5-2.8,0.7-5.7,0.5-8.5
				c0-0.4-0.6-0.7-0.9-0.4c-2.9,3.3-6.3,5.9-10.1,8c-0.6,0.3-0.1,1.2,0.5,0.9c4-2.1,7.4-4.8,10.3-8.1c-0.3-0.1-0.6-0.2-0.9-0.4
				c0.2,3.4-0.1,6.8-0.9,10.1c-0.6,2.6-1.6,5.1-1.5,7.9c0.3-0.1,0.6-0.2,0.9-0.4c-2.6-3.4-5.3-6.7-8.6-9.4
				C26.6,15.9,25.9,16.6,26.4,17L26.4,17z"/>
		</g>
	</g>
	<g class="st3">
		<path class="st2" d="M9.1,27.6C8.9,27.4,8.9,27,9,26.8c3.1,0.9,5.6,3.4,6.7,6.4c-0.1-2.3,0.2-4.7,0.8-6.9c0.1-0.3,0.2-0.8-0.2-0.9
			c-0.2-0.1-0.5,0.1-0.7,0.2c-1.3,1-3,1.6-4.7,1.5"/>
		<g>
			<path class="st2" d="M9.6,27.4c0-0.2-0.1-0.5-0.1-0.7c-0.2,0.2-0.4,0.3-0.6,0.5c2.9,1,5.2,3.1,6.3,6c0.2,0.5,1,0.5,1-0.1
				c-0.1-1.7,0-3.4,0.4-5.1c0.2-0.8,0.8-2.1,0.4-2.8c-0.3-0.6-0.9-0.5-1.4-0.2c-0.7,0.3-1.2,0.8-1.9,1c-0.9,0.4-1.8,0.5-2.8,0.5
				c-0.6,0-0.6,1,0,1c1,0,1.9-0.1,2.9-0.5c0.4-0.1,2.1-1.2,2.2-1c0.1,0.1-0.6,2.7-0.7,3c-0.2,1.4-0.2,2.7-0.2,4.1
				c0.3,0,0.7-0.1,1-0.1c-1.2-3.2-3.8-5.6-7-6.7c-0.3-0.1-0.6,0.2-0.6,0.5c-0.1,0.6-0.1,0.5,0.1,1C8.9,28.3,9.8,28,9.6,27.4
				L9.6,27.4z"/>
		</g>
	</g>
	<g>
		<g>
			<g>
				<g>
					<path class="st4" d="M41.4-5.2c-1.3-1-5.6,1.6-6.8,2.2c-1.7,0.7-3.3,1.5-4.9,2.4c-0.5,0.2-1.7,0.7-2,1.2c0.2,0,0.4,0,0.6,0
						c0-0.1-0.1-0.1-0.1-0.2c-0.1-0.2-0.3-0.2-0.5-0.1c-5,3.3-9.7,7-14.3,10.8c-1.6,1.3-3.4,2.6-4.7,4.3c-1,1.3-1.6,2.9-2.2,4.4
						c-0.7,1.8-2,3.7-1.8,5.7c0,0.2,0.2,0.4,0.5,0.4c3.5-0.7,7.1-1.5,10.4-2.9c2.4-1,4.5-3.1,6.5-4.6c3.4-2.6,6.8-5.2,10.1-7.8
						c1.8-1.4,4.4-3,5.5-5c1.1-1.9,1.8-4,2.6-6c0.5-1.1,1.6-3.2,1.1-4.4c-0.2-0.4-0.8-0.1-0.6,0.4c0.3,0.7-0.6,2.4-0.9,3.1
						c-0.6,1.6-1.3,3.2-2,4.7s-1.1,2.4-2.4,3.5c-4.3,3.8-8.9,7.1-13.4,10.6c-1.7,1.3-3.4,2.6-5.1,3.8c-1.8,1.4-4.1,1.9-6.2,2.5
						c-1.4,0.4-2.7,0.7-4.1,1c-0.3,0.1-0.9,0.3-1.3,0.3c-0.1,0-0.3,0.1-0.3,0.1c-0.1-0.1,0.9-2.3,1-2.4c1.4-3.2,2.4-6.2,5-8.6
						c2.8-2.5,5.8-4.8,8.8-7.1c1.6-1.2,3.2-2.4,4.8-3.6c0.6-0.5,3.2-2,3-2.4c0.1,0.2,0.5,0.3,0.6,0c0.2-0.4,1.5-0.8,1.9-1
						c1.3-0.7,2.6-1.3,3.9-1.9c1.4-0.6,2.8-1.3,4.2-1.8c0.4-0.2,2.3-1.1,2.7-0.7C41.4-4.3,41.8-4.9,41.4-5.2z"/>
				</g>
			</g>
			<g>
				<g>
					<path class="st4" d="M8,17.2c-1.1,1.9-2.1,3.7-3.2,5.6c-0.8,1.4-2.1,3-2.4,4.6c0,0.2,0,0.3,0.2,0.4c0.8,0.6,1.8,0.1,2.7-0.1
						c1.7-0.3,3.3-0.6,5-1c3.5-0.8,6.5-2.1,9.5-4.2c6.4-4.7,12.4-9.9,18.6-14.9c0.4-0.3-0.2-0.8-0.5-0.5c-3.5,2.8-6.9,5.6-10.4,8.4
						c-3.3,2.6-6.5,5.6-10.1,7.8C13.9,25.5,10,26.1,6,26.9c-0.8,0.2-1.9,0.7-2.2-0.5c-0.1-0.5,1.5-2.7,1.8-3.2
						c1.1-1.9,2.1-3.7,3.2-5.6C8.9,17.1,8.2,16.7,8,17.2L8,17.2z"/>
				</g>
			</g>
			<g>
				<g>
					<path class="st4" d="M38.5,7.6c1.4-2.9,2.7-5.8,4.1-8.6c0.6-1.3,2.5-3.7,2.1-5.1c0-0.1-0.1-0.2-0.3-0.3
						c-1.3-0.3-2.6,0.4-3.5,1.1c-0.4,0.3,0,0.9,0.4,0.6c0.6-0.7,1.4-0.7,2.3-0.2c-0.3,0.6-0.5,1.2-0.8,1.7c-0.5,1.2-1.1,2.3-1.6,3.5
						c-1.1,2.3-2.2,4.6-3.3,6.9C37.7,7.6,38.3,8,38.5,7.6L38.5,7.6z"/>
				</g>
			</g>
			<g>
				<g>
					<path class="st4" d="M2.4,28C20.1,62,38.8,95.5,58,128.6c4.8,8.2,9.6,16.5,14.5,24.7c0.2,0.4,0.9,0,0.6-0.4
						c-18.5-31.4-36.6-63-54-95.1C13.7,47.8,8.3,37.7,3,27.6C2.8,27.2,2.2,27.5,2.4,28L2.4,28z"/>
				</g>
			</g>
			<g>
				<g>
					<path class="st4" d="M44.4-5.3c29.4,25.1,57.9,51.2,85.5,78.2c6.5,6.4,12.9,12.8,19.3,19.4c0.3,0.3,0.9-0.2,0.5-0.5
						C124.5,65.8,98,41,71,17C62.4,9.3,53.7,1.7,44.9-5.8C44.6-6.2,44-5.6,44.4-5.3L44.4-5.3z"/>
				</g>
			</g>
			<g>
				<g>
					<path class="st4" d="M72.7,153c9.8,2.1,19.8,0.6,29.6-1.3c0.5-0.1,0.3-0.8-0.2-0.7c-9.6,1.9-19.4,3.4-29.2,1.3
						C72.4,152.1,72.2,152.9,72.7,153L72.7,153z"/>
				</g>
			</g>
			<g>
				<g>
					<path class="st4" d="M101.9,151.6c14.3-9.5,28.4-18.8,39.9-31.7c0.3-0.4-0.2-0.9-0.5-0.5c-11.5,12.9-25.6,22.1-39.8,31.6
						C101.1,151.2,101.5,151.9,101.9,151.6L101.9,151.6z"/>
				</g>
			</g>
			<g>
				<g>
					<path class="st4" d="M141.9,119.8c3-3.8,4.4-9.4,5.7-13.9c1.2-4.1,3.2-9.8,1.9-14.1c-0.1-0.5-0.9-0.3-0.7,0.2
						c0.6,2,0.1,4.5-0.2,6.5c-0.5,2.6-1.1,5.3-1.9,7.8c-1.3,4.4-2.6,9.5-5.4,13.2C140.9,119.8,141.6,120.2,141.9,119.8L141.9,119.8z
						"/>
				</g>
			</g>
			<g>
				<g>
					<path class="st4" d="M148.8,93.5c2.1,4.7,2.3,10.4,2.6,15.5c0.4,5.3,0.4,10.6,0.6,15.9c0,1.3,0.2,2.6,0.1,3.8
						c-0.1,1.5-0.6,3.1-0.8,4.6c-0.6,3.6-0.9,7.7-2,11.1c-0.7,2.3-3.5,4.4-5.3,6c-2.9,2.6-6.1,4.8-9.2,7c-1.3,0.9-2.6,1.9-3.8,2.8
						c-0.6,0.5-1.3,1-1.9,1.5s-1.5,1.6-2.1,1.9c-0.8,0.4-2.2,0.2-3,0.3c-4.1,0.5-8.3,0.9-12.4,1.4c-0.9,0.1-2.2,0.5-3.2,0.3
						c-1.1-0.2-2.4-1-3.4-1.3c-5.4-1.9-10.9-3.5-16.3-5.3c-5.1-1.7-10.7-3.4-15.1-6.6c-0.4-0.3-0.8,0.4-0.4,0.6
						c3.8,2.8,8.6,4.3,12.9,5.9c5.3,1.9,10.7,3.5,16.1,5.3c2.5,0.8,5,2.3,7.7,2.1c4.2-0.5,8.5-0.9,12.7-1.4c1.3-0.1,2.9-0.1,4.2-0.5
						c0.4-0.1,0.4-0.2,0.8-0.4c1.8-1.1,3.4-2.9,5.1-4.1c5.7-4.2,12.6-8.1,16.8-14c0.7-1,0.7-1.8,0.9-3c0.4-2.2,0.8-4.4,1.2-6.6
						c0.5-2.8,1.5-5.9,1.4-8.8c-0.3-5.8-0.3-11.7-0.7-17.5c-0.3-5.5-0.5-11.7-2.8-16.8C149.3,92.6,148.6,93,148.8,93.5L148.8,93.5z"
						/>
				</g>
			</g>
			<g>
				<g>
					<path class="st4" d="M101.8,151.3c3.6,3.3,7.9,5.9,12,8.4c3.4,2,8.2,5.1,12.4,4.9c0.5,0,0.5-0.8,0-0.8c-4.2,0.2-9-3.1-12.5-5.1
						c-3.9-2.3-8-4.8-11.4-7.9C101.9,150.5,101.4,151,101.8,151.3L101.8,151.3z"/>
				</g>
			</g>
			<g>
				<g>
					<path class="st4" d="M141.2,119.8c2.3,4,3.8,8.5,5.2,12.8c1.2,3.8,3.4,9.3,2.2,13.3c-0.1,0.5,0.6,0.7,0.7,0.2
						c1.2-4.1-0.8-9.3-2-13.1c-1.4-4.6-3.1-9.4-5.5-13.6C141.6,119,141,119.4,141.2,119.8L141.2,119.8z"/>
				</g>
			</g>
			<g>
				<g>
					<path class="st4" d="M16.2,24.2c2.6,5.1,6.1,9.8,9.2,14.6c6.4,9.9,12.9,19.7,19.5,29.6C59.4,90.3,74,112.1,89,133.7
						c4.1,5.9,8,12.5,13,17.8c0.3,0.4,0.9-0.2,0.5-0.5c-4.2-4.5-7.6-10.1-11.1-15.2c-6.8-9.8-13.5-19.6-20.1-29.4
						C56.7,84.8,42.2,63.1,28,41.2c-3.7-5.7-7.9-11.3-11-17.4C16.6,23.4,16,23.8,16.2,24.2L16.2,24.2z"/>
				</g>
			</g>
			<g>
				<g>
					<path class="st4" d="M37.8,7.7c5.2,3.7,9.7,8.9,14.3,13.4C60.5,29.5,68.8,38,77,46.6c17.7,18.6,35.4,37.4,52.1,56.9
						c3,3.5,6,7,8.7,10.7c1,1.4,3.2,3.6,3.4,5.4c0,0.5,0.8,0.5,0.8,0c-0.1-1.6-1.6-3.2-2.4-4.4c-2.1-2.9-4.4-5.7-6.7-8.4
						c-7.4-8.8-15.1-17.4-22.8-25.9C92.2,61.2,73.9,41.9,55.2,23c-5.4-5.4-10.7-11.5-16.9-16C37.8,6.7,37.4,7.4,37.8,7.7L37.8,7.7z"
						/>
				</g>
			</g>
		</g>
		<g>
			<g>
				<path class="st4" d="M17.1,24.8c6.2,1.4,12.5,2.1,18.8,2.3c0.5,0,0.5-0.7,0-0.8c-6.3-0.1-12.5-0.8-18.6-2.2
					C16.8,24,16.6,24.7,17.1,24.8L17.1,24.8z"/>
			</g>
		</g>
		<g>
			<g>
				<path class="st4" d="M37.3,7.9c0.1,6.3-0.2,12.6-1.7,18.7c-0.1,0.5,0.6,0.7,0.7,0.2c1.5-6.2,1.8-12.5,1.8-18.9
					C38,7.5,37.3,7.5,37.3,7.9L37.3,7.9z"/>
			</g>
		</g>
		<g>
			<g>
				<path class="st4" d="M103.1,151c-0.2-11.3,1.8-22,4.8-32.8c0.1-0.5-0.6-0.7-0.7-0.2c-3,10.9-5,21.7-4.8,33
					C102.4,151.5,103.2,151.5,103.1,151L103.1,151z"/>
			</g>
		</g>
		<g>
			<g>
				<path class="st4" d="M107.6,118.5c11.2-0.3,23.2-1.7,34.1,1.2c0.5,0.1,0.7-0.6,0.2-0.7c-11-2.9-23.1-1.5-34.3-1.2
					C107.1,117.7,107.1,118.5,107.6,118.5L107.6,118.5z"/>
			</g>
		</g>
		<g>
			<g>
				<path class="st4" d="M35.6,27.2c2.9,3,5.6,6.3,8.3,9.5c5.4,6.4,10.8,12.8,16.1,19.2C72.5,71,84.8,86.1,96.5,101.8
					c3.8,5.2,8.2,10.5,10.9,16.5c0.2,0.4,0.8,0.1,0.6-0.4c-2.3-5.1-5.9-9.7-9.2-14.2C93.5,96.4,88,89.3,82.4,82.2
					C70.6,67.4,58.6,52.7,46.3,38.3c-3.3-3.9-6.5-8-10.1-11.6C35.8,26.4,35.2,26.9,35.6,27.2L35.6,27.2z"/>
			</g>
		</g>
		<g>
			<g>
				<path class="st4" d="M38.6,7.6c3.5-0.3,6.9,0.1,10.2,1.2c0.3,0.1,0.6-0.2,0.5-0.5C47.6,4.2,46.1,0,44.7-4.3
					c-0.1-0.5-0.9-0.3-0.7,0.2c1.4,4.3,2.9,8.4,4.6,12.6c0.2-0.2,0.3-0.3,0.5-0.5c-3.4-1.1-6.9-1.5-10.4-1.2
					C38.1,6.9,38.1,7.7,38.6,7.6L38.6,7.6z"/>
			</g>
		</g>
		<g>
			<g>
				<path class="st4" d="M141.9,118.9c-1.5-1.7-1-5.9-1.3-8c-0.3-2-0.7-4-1.2-5.9c-1.2-4.1-3-8.1-5.2-11.7c-0.3-0.4-0.9,0-0.6,0.4
					c2.7,4.3,4.7,9,5.8,14c0.5,2.5,0.9,5,1,7.5c0.1,1.6,0,3,1.1,4.3C141.7,119.8,142.2,119.2,141.9,118.9L141.9,118.9z"/>
			</g>
		</g>
		<g>
			<g>
				<path class="st4" d="M134.4,93.5c2.8-0.9,5.7-1.4,8.7-1.3c1.5,0,2.9,0.2,4.3,0.5c0.7,0.1,1.2,0.3,1.8,0.1c0.1,0,0.2-0.1,0.3-0.3
					c0-0.1,0-0.2,0.1-0.3c0-0.2,0-0.3-0.2-0.4c-0.1-0.1-0.2-0.1-0.2-0.2c-0.4-0.3-0.8,0.4-0.4,0.6c-1.7-1-5.1-0.9-7-0.8
					c-2.6,0.1-5.1,0.6-7.6,1.4C133.7,93,133.9,93.7,134.4,93.5L134.4,93.5z"/>
			</g>
		</g>
		<g>
			<g>
				<path class="st4" d="M49.4,8.6c0-0.1-0.1-0.1-0.1-0.2c-0.2,0.2-0.4,0.3-0.6,0.5c3,2.4,5.7,5.5,8.5,8.1
					c6.4,6.2,12.8,12.5,19.1,18.7C91.2,50.4,106.1,65,120.8,80c4.3,4.3,9.1,8.6,12.7,13.6c0.3,0.4,0.9,0,0.6-0.4
					c-2.9-4-6.7-7.5-10.2-11c-6.7-6.9-13.5-13.7-20.4-20.5C89,47.2,74.4,32.8,59.7,18.5c-3.4-3.3-6.8-7.2-10.6-10.2
					c-0.3-0.2-0.9,0.1-0.6,0.5c0,0.1,0.1,0.1,0.1,0.2C49,9.3,49.7,9,49.4,8.6L49.4,8.6z"/>
			</g>
		</g>
		<g>
			<g>
				<path class="st4" d="M3.6,28.9c4.1,2.1,8.1,4.2,12.2,6.3c0.3,0.1,0.5,0,0.6-0.3c0.2-3.4,0.4-6.7,0.7-10.1c0-0.5-0.7-0.5-0.8,0
					c-0.2,3.4-0.4,6.7-0.7,10.1c0.2-0.1,0.4-0.2,0.6-0.3c-4.1-2.1-8.1-4.2-12.2-6.3C3.5,28,3.1,28.6,3.6,28.9L3.6,28.9z"/>
			</g>
		</g>
		<g>
			<g>
				<path class="st4" d="M72.9,152.1c0.9-3.4,1.9-6.9,2.9-10.3c0.2-0.8,0.9-4.9,1.6-5.1c0.4-0.1,2.1,1.1,2.5,1.4
					c4.2,2.4,8.3,5.1,12.3,7.8c2.8,1.9,5.6,4.1,8.7,5.6c0.5,0.3,2.2,0.9,1.6-0.4c-0.2-0.4-0.9,0-0.6,0.4c-0.2-0.4,0.4,0.1-0.2-0.4
					c-0.2-0.1-0.5-0.3-0.7-0.4c-0.8-0.4-1.5-0.9-2.2-1.4c-2.1-1.4-4.3-2.8-6.4-4.2c-4.9-3.3-9.8-6.6-15.1-9.2
					c-0.2-0.1-0.5,0-0.6,0.2c-1.6,5.3-3.1,10.6-4.6,15.9C72.1,152.4,72.8,152.6,72.9,152.1L72.9,152.1z"/>
			</g>
		</g>
		<g>
			<g>
				<path class="st4" d="M15.5,35c2.2,3.5,4.1,7.2,6.2,10.8c4.5,7.9,9,15.7,13.5,23.6c10.3,17.9,20.7,35.9,31.8,53.3
					c2,3.2,4.1,6.4,6.3,9.5c1.1,1.5,2.1,3.2,3.6,4.3c0.4,0.3,0.8-0.4,0.4-0.6c-1.3-1-2.3-2.6-3.3-4c-1.9-2.6-3.6-5.3-5.3-8
					c-5.1-7.9-9.9-15.9-14.7-24C43.7,82.6,33.6,65.1,23.6,47.5c-2.5-4.3-4.8-8.7-7.4-12.9C15.9,34.2,15.3,34.6,15.5,35L15.5,35z"/>
			</g>
		</g>
		<g>
			<g>
				<path class="st4" d="M103.2,151c8.9-1.4,17.8-2.4,26.7-3c0.2,0,0.3-0.1,0.4-0.3c2.2-9.8,6.6-19.2,11.6-27.9
					c0.2-0.4-0.4-0.8-0.6-0.4c-4.3,7.5-8.1,15.6-10.6,23.9c-0.3,0.9-0.4,2-0.8,2.8c-0.5,1.3-1.5,1.2-2.8,1.3
					c-2.7,0.2-5.5,0.4-8.2,0.7c-5.3,0.5-10.6,1.2-15.9,2.1C102.5,150.3,102.7,151,103.2,151L103.2,151z"/>
			</g>
		</g>
		<g>
			<g>
				<path class="st4" d="M101.8,151.4c0,0.9,0.7,4.3,0,4.9c-0.3,0.3-2.2,0-2.6,0c-2.5,0-5,0-7.6-0.1c-6.2-0.3-12.4-1.1-18.1-3.8
					c-0.4-0.2-0.8,0.4-0.4,0.6c9.1,4.3,19.3,4,29,3.9c0.2,0,0.4-0.2,0.4-0.4c0-1.7,0-3.5-0.1-5.2
					C102.5,150.9,101.8,150.9,101.8,151.4L101.8,151.4z"/>
			</g>
		</g>
		<g>
			<g>
				<path class="st4" d="M142.3,120.2c1.3-0.1,3.6,0.3,4.6-0.6c0.7-0.6,0.7-2.1,0.9-2.9c0.3-1.5,0.6-3.1,0.9-4.6
					c1-5.9,1.5-11.9,1.6-17.9c0-0.5-0.7-0.5-0.8,0c-0.1,5-0.4,10-1.1,14.9c-0.3,2.2-0.7,4.3-1.1,6.5c-0.3,1.3-0.2,3.1-1.7,3.7
					c-0.8,0.3-2.4,0.1-3.2,0.2C141.8,119.5,141.8,120.2,142.3,120.2L142.3,120.2z"/>
			</g>
		</g>
		<g>
			<g>
				<path class="st4" d="M146.5,118.4c2.4,7.9,3.3,16.1,2.7,24.4c0,0.5,0.7,0.5,0.8,0c0.6-8.3-0.3-16.6-2.7-24.6
					C147.1,117.8,146.4,118,146.5,118.4L146.5,118.4z"/>
			</g>
		</g>
		<g>
			<g>
				<path class="st4" d="M146.7,119c1.7-0.2,3.4-0.1,5.1,0.3c0.5,0.1,0.7-0.6,0.2-0.7c-1.7-0.4-3.5-0.5-5.3-0.3
					C146.2,118.3,146.2,119,146.7,119L146.7,119z"/>
			</g>
		</g>
		<g>
			<g>
				<path class="st4" d="M129.1,147.7c-1.3,5.4-2,10.8-2.4,16.3c0,0.5,0.7,0.5,0.8,0c0.4-5.4,1.1-10.8,2.4-16.1
					C129.9,147.5,129.2,147.3,129.1,147.7L129.1,147.7z"/>
			</g>
		</g>
		<g>
			<g>
				<path class="st4" d="M130.8,146.8c6.1-0.7,11.9-1,18.1-0.4c0.5,0.1,0.5-0.7,0-0.8c-2.2-0.2-19.1-1.6-18.6,1.6
					c0,0.1,0.2,0.3,0.4,0.3c0.1,0,0.1,0,0.2,0C131.3,147.5,131.3,146.8,130.8,146.8L130.8,146.8z"/>
			</g>
		</g>
		<g>
			<g>
				<path class="st4" d="M101.8,157.1c7.7,3.7,15.9,6.1,24.3,7.5c0.5,0.1,0.7-0.6,0.2-0.7c-8.4-1.4-16.5-3.8-24.1-7.4
					C101.7,156.2,101.3,156.9,101.8,157.1L101.8,157.1z"/>
			</g>
		</g>
		<g>
			<g>
				<path class="st4" d="M100.8,157.6c2,3.3,4.9,5.8,7.4,8.8c0.3,0.4,0.8-0.2,0.5-0.5c-2.4-2.9-5.3-5.4-7.3-8.6
					C101.2,156.8,100.6,157.2,100.8,157.6L100.8,157.6z"/>
			</g>
		</g>
	</g>
	<g class="st3">
		<path class="st2" d="M107.3,118c-21.7-10-39.5-26.6-56.8-43c16.8,25.7,33.6,51.4,52.5,75.6c-1.5-11,0.2-22.4,4.9-32.4"/>
		<g>
			<path class="st2" d="M107.6,117.5c-21.8-10.1-39.4-26.6-56.7-42.9c-0.4-0.4-1.1,0.1-0.8,0.6c16.8,25.7,33.7,51.4,52.6,75.7
				c0.3,0.3,0.9,0.1,0.9-0.4c-1.4-11,0.2-22.1,4.8-32.2c0.3-0.6-0.6-1.1-0.9-0.5c-4.7,10.3-6.4,21.5-4.9,32.7
				c0.3-0.1,0.6-0.2,0.9-0.4c-18.8-24.2-35.6-49.9-52.4-75.5c-0.3,0.2-0.5,0.4-0.8,0.6c17.3,16.3,35.1,32.9,56.9,43.1
				C107.7,118.7,108.2,117.8,107.6,117.5L107.6,117.5z"/>
		</g>
	</g>
	<g class="st3">
		<path class="st2" d="M77.4,136.4c-1.6-0.1-2.9-1.4-4.1-2.6C62.4,122,51.4,110.2,40.5,98.4c11.2,17.2,21.9,34.7,31.9,52.6
			c1.5-4.8,3-9.6,4.5-14.4"/>
		<g>
			<path class="st2" d="M77.5,136c-2.3-0.4-3.7-2.3-5.2-3.9c-1.6-1.7-3.1-3.4-4.7-5.1c-2.9-3.1-5.8-6.3-8.7-9.4
				c-6-6.5-12-13-18.1-19.5c-0.4-0.4-1.1,0.1-0.8,0.6c11.2,17.2,21.8,34.7,31.9,52.6c0.2,0.4,0.8,0.3,0.9-0.1
				c1.5-4.8,3-9.6,4.5-14.4c0.2-0.6-0.8-0.9-1-0.3c-1.5,4.8-3,9.6-4.5,14.4c0.3,0,0.6-0.1,0.9-0.1c-10.1-17.9-20.8-35.4-31.9-52.6
				c-0.3,0.2-0.5,0.4-0.8,0.6c6.5,7,12.9,14,19.4,21c3.1,3.4,6.2,6.7,9.4,10.1c2.2,2.4,4.8,6.5,8.3,7.1
				C77.8,137,78.1,136.1,77.5,136L77.5,136z"/>
		</g>
	</g>
	<g class="st3">
		<path class="st2" d="M5.1,29.3c-0.2-0.3-0.7-0.1-0.7,0.3s0.1,0.6,0.2,0.9c2.3,4.2,4.6,8.3,6.8,12.5c2.8,5.1,5.6,10.3,8.3,15.5
			c-1.5-3.5-2.6-7.1-3.5-10.7c-0.5-2.2-1-4.4-1.4-6.7c-0.4-2.1-0.8-4.4,0.1-6.3c-3.7-1.4-7.2-3.3-10.4-5.6"/>
		<g>
			<path class="st2" d="M5.2,28.8c-1-0.2-1.5,0.4-1.3,1.4C4.1,31.4,5.4,33,6,34c0.9,1.7,1.8,3.3,2.7,5c3.6,6.5,7.2,13.1,10.5,19.7
				c0.3,0.5,1.1,0.1,0.9-0.4c-1.5-3.6-2.7-7.4-3.6-11.2c-0.9-3.7-2.6-8.6-1.1-12.3c0.1-0.3-0.1-0.5-0.3-0.6
				c-3.7-1.4-7.1-3.3-10.3-5.5c-0.5-0.4-1,0.5-0.5,0.9c3.3,2.3,6.8,4.1,10.5,5.6c-0.1-0.2-0.2-0.4-0.3-0.6c-1.3,3.4,0,7.5,0.7,10.9
				c1,4.5,2.3,8.8,4.1,13.1c0.3-0.1,0.6-0.3,0.9-0.4c-2.5-4.9-5.1-9.8-7.8-14.7c-1.2-2.2-2.4-4.5-3.7-6.7c-0.7-1.2-1.4-2.5-2-3.7
				c-0.2-0.4-1.5-3.3-1.7-3.4C5.6,29.9,5.9,28.9,5.2,28.8L5.2,28.8z"/>
		</g>
	</g>
	<g class="st3">
		<path class="st2" d="M18.1,24.7c5.8,0.8,11.6,1.5,17.4,2.3c1.4,4.7,0.8,9.8,0.9,14.8c0.1,6.2,1.3,12.4,3.5,18.1
			c-6.8-11.4-14.1-22.5-21.8-33.3"/>
		<g>
			<path class="st2" d="M18.1,25.2c4.2,0.6,8.4,1.1,12.6,1.7c0.9,0.1,3.1,0,3.9,0.5c0.9,0.6,0.9,1.5,1.1,2.5
				c0.4,2.2,0.3,4.5,0.3,6.8c-0.1,8.1,0.5,15.7,3.5,23.4c0.3-0.1,0.6-0.3,0.9-0.4c-6.8-11.4-14.1-22.5-21.8-33.3
				c-0.4-0.5-1.2,0-0.9,0.5c7.7,10.8,15,21.9,21.8,33.3c0.3,0.5,1.1,0.2,0.9-0.4c-2.1-5.5-3.3-11.2-3.5-17.1
				c-0.2-5.3,0.5-10.6-0.9-15.8c-0.1-0.2-0.3-0.3-0.5-0.4c-5.8-0.8-11.6-1.5-17.4-2.3C17.5,24.2,17.5,25.2,18.1,25.2L18.1,25.2z"/>
		</g>
	</g>
	<g class="st3">
		<path class="st2" d="M144.2,127.6c-4.1,3.9-7.7,8.2-10.9,12.8c-1.2,1.7-2.3,3.5-2.4,5.6c2.7-8.2,5.4-16.3,8.1-24.5
			c0.2-0.6,0.4-1.2,1-1.4c1.6,1.8,2.7,4,3.2,6.4"/>
		<g>
			<path class="st2" d="M143.8,127.3c-3,2.9-5.8,6-8.4,9.3c-2.1,2.8-4.6,5.8-5.1,9.4c-0.1,0.6,0.8,0.6,1,0.1
				c1.7-5.2,3.4-10.3,5.1-15.5c0.8-2.5,1.7-5,2.5-7.5c0.3-0.8,0.2-1.3,1-1.4c0.7-0.1,0.8,0.5,1.2,1c0.7,1.2,1.2,2.6,1.5,4
				c0.1,0.6,1.1,0.4,1-0.3c-0.6-2.5-1.7-4.6-3.4-6.6c-0.1-0.2-0.4-0.2-0.6-0.1c-1.2,0.8-1.4,2.2-1.8,3.5c-0.8,2.5-1.7,5-2.5,7.5
				c-1.7,5-3.3,10-5,15.1c0.3,0,0.7,0.1,1,0.1c0.5-3.8,3.6-7.3,5.9-10.2c2.2-2.8,4.6-5.4,7.2-7.8C145,127.5,144.3,126.8,143.8,127.3
				L143.8,127.3z"/>
		</g>
	</g>
</g>
<g>
</g>
<g>
</g>
<g>
</g>
<g>
</g>
<g>
</g>
<g>
</g>
</svg>
